<?xml version="1.0" encoding="utf-8"?>
<svg xmlns="http://www.w3.org/2000/svg" xmlns:xlink="http://www.w3.org/1999/xlink" width="600" height="400" viewBox="0 0 2400 1600">
<defs>
  <clipPath id="clip420">
    <rect x="0" y="0" width="2400" height="1600"/>
  </clipPath>
</defs>
<path clip-path="url(#clip420)" d="M0 1600 L2400 1600 L2400 0 L0 0  Z" fill="#ffffff" fill-rule="evenodd" fill-opacity="1"/>
<defs>
  <clipPath id="clip421">
    <rect x="480" y="0" width="1681" height="1600"/>
  </clipPath>
</defs>
<path clip-path="url(#clip420)" d="M149.191 1423.18 L2352.76 1423.18 L2352.76 47.2441 L149.191 47.2441  Z" fill="#ffffff" fill-rule="evenodd" fill-opacity="1"/>
<defs>
  <clipPath id="clip422">
    <rect x="149" y="47" width="2205" height="1377"/>
  </clipPath>
</defs>
<polyline clip-path="url(#clip422)" style="stroke:#000000; stroke-linecap:round; stroke-linejoin:round; stroke-width:2; stroke-opacity:0.1; fill:none" points="149.191,1423.18 149.191,47.2441 "/>
<polyline clip-path="url(#clip422)" style="stroke:#000000; stroke-linecap:round; stroke-linejoin:round; stroke-width:2; stroke-opacity:0.1; fill:none" points="700.082,1423.18 700.082,47.2441 "/>
<polyline clip-path="url(#clip422)" style="stroke:#000000; stroke-linecap:round; stroke-linejoin:round; stroke-width:2; stroke-opacity:0.1; fill:none" points="1250.97,1423.18 1250.97,47.2441 "/>
<polyline clip-path="url(#clip422)" style="stroke:#000000; stroke-linecap:round; stroke-linejoin:round; stroke-width:2; stroke-opacity:0.1; fill:none" points="1801.86,1423.18 1801.86,47.2441 "/>
<polyline clip-path="url(#clip422)" style="stroke:#000000; stroke-linecap:round; stroke-linejoin:round; stroke-width:2; stroke-opacity:0.1; fill:none" points="2352.76,1423.18 2352.76,47.2441 "/>
<polyline clip-path="url(#clip422)" style="stroke:#000000; stroke-linecap:round; stroke-linejoin:round; stroke-width:2; stroke-opacity:0.1; fill:none" points="149.191,1423.18 2352.76,1423.18 "/>
<polyline clip-path="url(#clip422)" style="stroke:#000000; stroke-linecap:round; stroke-linejoin:round; stroke-width:2; stroke-opacity:0.1; fill:none" points="149.191,1193.86 2352.76,1193.86 "/>
<polyline clip-path="url(#clip422)" style="stroke:#000000; stroke-linecap:round; stroke-linejoin:round; stroke-width:2; stroke-opacity:0.1; fill:none" points="149.191,964.535 2352.76,964.535 "/>
<polyline clip-path="url(#clip422)" style="stroke:#000000; stroke-linecap:round; stroke-linejoin:round; stroke-width:2; stroke-opacity:0.1; fill:none" points="149.191,735.212 2352.76,735.212 "/>
<polyline clip-path="url(#clip422)" style="stroke:#000000; stroke-linecap:round; stroke-linejoin:round; stroke-width:2; stroke-opacity:0.1; fill:none" points="149.191,505.889 2352.76,505.889 "/>
<polyline clip-path="url(#clip422)" style="stroke:#000000; stroke-linecap:round; stroke-linejoin:round; stroke-width:2; stroke-opacity:0.1; fill:none" points="149.191,276.567 2352.76,276.567 "/>
<polyline clip-path="url(#clip422)" style="stroke:#000000; stroke-linecap:round; stroke-linejoin:round; stroke-width:2; stroke-opacity:0.1; fill:none" points="149.191,47.2441 2352.76,47.2441 "/>
<polyline clip-path="url(#clip420)" style="stroke:#000000; stroke-linecap:round; stroke-linejoin:round; stroke-width:4; stroke-opacity:1; fill:none" points="149.191,1423.18 2352.76,1423.18 "/>
<polyline clip-path="url(#clip420)" style="stroke:#000000; stroke-linecap:round; stroke-linejoin:round; stroke-width:4; stroke-opacity:1; fill:none" points="149.191,1423.18 149.191,1404.28 "/>
<polyline clip-path="url(#clip420)" style="stroke:#000000; stroke-linecap:round; stroke-linejoin:round; stroke-width:4; stroke-opacity:1; fill:none" points="700.082,1423.18 700.082,1404.28 "/>
<polyline clip-path="url(#clip420)" style="stroke:#000000; stroke-linecap:round; stroke-linejoin:round; stroke-width:4; stroke-opacity:1; fill:none" points="1250.97,1423.18 1250.97,1404.28 "/>
<polyline clip-path="url(#clip420)" style="stroke:#000000; stroke-linecap:round; stroke-linejoin:round; stroke-width:4; stroke-opacity:1; fill:none" points="1801.86,1423.18 1801.86,1404.28 "/>
<polyline clip-path="url(#clip420)" style="stroke:#000000; stroke-linecap:round; stroke-linejoin:round; stroke-width:4; stroke-opacity:1; fill:none" points="2352.76,1423.18 2352.76,1404.28 "/>
<path clip-path="url(#clip420)" d="M149.191 1454.1 Q145.58 1454.1 143.751 1457.66 Q141.946 1461.2 141.946 1468.33 Q141.946 1475.44 143.751 1479.01 Q145.58 1482.55 149.191 1482.55 Q152.825 1482.55 154.631 1479.01 Q156.459 1475.44 156.459 1468.33 Q156.459 1461.2 154.631 1457.66 Q152.825 1454.1 149.191 1454.1 M149.191 1450.39 Q155.001 1450.39 158.057 1455 Q161.135 1459.58 161.135 1468.33 Q161.135 1477.06 158.057 1481.67 Q155.001 1486.25 149.191 1486.25 Q143.381 1486.25 140.302 1481.67 Q137.246 1477.06 137.246 1468.33 Q137.246 1459.58 140.302 1455 Q143.381 1450.39 149.191 1450.39 Z" fill="#000000" fill-rule="nonzero" fill-opacity="1" /><path clip-path="url(#clip420)" d="M694.735 1481.64 L711.054 1481.64 L711.054 1485.58 L689.11 1485.58 L689.11 1481.64 Q691.772 1478.89 696.355 1474.26 Q700.962 1469.61 702.142 1468.27 Q704.388 1465.74 705.267 1464.01 Q706.17 1462.25 706.17 1460.56 Q706.17 1457.8 704.226 1456.07 Q702.304 1454.33 699.203 1454.33 Q697.003 1454.33 694.55 1455.09 Q692.119 1455.86 689.341 1457.41 L689.341 1452.69 Q692.166 1451.55 694.619 1450.97 Q697.073 1450.39 699.11 1450.39 Q704.48 1450.39 707.675 1453.08 Q710.869 1455.77 710.869 1460.26 Q710.869 1462.39 710.059 1464.31 Q709.272 1466.2 707.165 1468.8 Q706.587 1469.47 703.485 1472.69 Q700.383 1475.88 694.735 1481.64 Z" fill="#000000" fill-rule="nonzero" fill-opacity="1" /><path clip-path="url(#clip420)" d="M1253.98 1455.09 L1242.18 1473.54 L1253.98 1473.54 L1253.98 1455.09 M1252.76 1451.02 L1258.64 1451.02 L1258.64 1473.54 L1263.57 1473.54 L1263.57 1477.43 L1258.64 1477.43 L1258.64 1485.58 L1253.98 1485.58 L1253.98 1477.43 L1238.38 1477.43 L1238.38 1472.92 L1252.76 1451.02 Z" fill="#000000" fill-rule="nonzero" fill-opacity="1" /><path clip-path="url(#clip420)" d="M1802.27 1466.44 Q1799.12 1466.44 1797.27 1468.59 Q1795.44 1470.74 1795.44 1474.49 Q1795.44 1478.22 1797.27 1480.39 Q1799.12 1482.55 1802.27 1482.55 Q1805.42 1482.55 1807.25 1480.39 Q1809.1 1478.22 1809.1 1474.49 Q1809.1 1470.74 1807.25 1468.59 Q1805.42 1466.44 1802.27 1466.44 M1811.55 1451.78 L1811.55 1456.04 Q1809.79 1455.21 1807.99 1454.77 Q1806.2 1454.33 1804.45 1454.33 Q1799.82 1454.33 1797.36 1457.45 Q1794.93 1460.58 1794.58 1466.9 Q1795.95 1464.89 1798.01 1463.82 Q1800.07 1462.73 1802.55 1462.73 Q1807.76 1462.73 1810.77 1465.9 Q1813.8 1469.05 1813.8 1474.49 Q1813.8 1479.82 1810.65 1483.03 Q1807.5 1486.25 1802.27 1486.25 Q1796.27 1486.25 1793.1 1481.67 Q1789.93 1477.06 1789.93 1468.33 Q1789.93 1460.14 1793.82 1455.28 Q1797.71 1450.39 1804.26 1450.39 Q1806.02 1450.39 1807.8 1450.74 Q1809.61 1451.09 1811.55 1451.78 Z" fill="#000000" fill-rule="nonzero" fill-opacity="1" /><path clip-path="url(#clip420)" d="M2352.76 1469.17 Q2349.42 1469.17 2347.5 1470.95 Q2345.6 1472.73 2345.6 1475.86 Q2345.6 1478.98 2347.5 1480.77 Q2349.42 1482.55 2352.76 1482.55 Q2356.09 1482.55 2358.01 1480.77 Q2359.93 1478.96 2359.93 1475.86 Q2359.93 1472.73 2358.01 1470.95 Q2356.11 1469.17 2352.76 1469.17 M2348.08 1467.18 Q2345.07 1466.44 2343.38 1464.38 Q2341.71 1462.32 2341.71 1459.35 Q2341.71 1455.21 2344.65 1452.8 Q2347.62 1450.39 2352.76 1450.39 Q2357.92 1450.39 2360.86 1452.8 Q2363.8 1455.21 2363.8 1459.35 Q2363.8 1462.32 2362.11 1464.38 Q2360.44 1466.44 2357.45 1467.18 Q2360.83 1467.96 2362.71 1470.26 Q2364.61 1472.55 2364.61 1475.86 Q2364.61 1480.88 2361.53 1483.57 Q2358.47 1486.25 2352.76 1486.25 Q2347.04 1486.25 2343.96 1483.57 Q2340.9 1480.88 2340.9 1475.86 Q2340.9 1472.55 2342.8 1470.26 Q2344.7 1467.96 2348.08 1467.18 M2346.37 1459.79 Q2346.37 1462.48 2348.03 1463.98 Q2349.72 1465.49 2352.76 1465.49 Q2355.77 1465.49 2357.45 1463.98 Q2359.17 1462.48 2359.17 1459.79 Q2359.17 1457.11 2357.45 1455.6 Q2355.77 1454.1 2352.76 1454.1 Q2349.72 1454.1 2348.03 1455.6 Q2346.37 1457.11 2346.37 1459.79 Z" fill="#000000" fill-rule="nonzero" fill-opacity="1" /><path clip-path="url(#clip420)" d="M1250.03 1522.27 L1250.03 1532.4 L1262.1 1532.4 L1262.1 1536.95 L1250.03 1536.95 L1250.03 1556.3 Q1250.03 1560.66 1251.21 1561.9 Q1252.42 1563.14 1256.08 1563.14 L1262.1 1563.14 L1262.1 1568.04 L1256.08 1568.04 Q1249.3 1568.04 1246.72 1565.53 Q1244.15 1562.98 1244.15 1556.3 L1244.15 1536.95 L1239.85 1536.95 L1239.85 1532.4 L1244.15 1532.4 L1244.15 1522.27 L1250.03 1522.27 Z" fill="#000000" fill-rule="nonzero" fill-opacity="1" /><polyline clip-path="url(#clip420)" style="stroke:#000000; stroke-linecap:round; stroke-linejoin:round; stroke-width:4; stroke-opacity:1; fill:none" points="149.191,1423.18 149.191,47.2441 "/>
<polyline clip-path="url(#clip420)" style="stroke:#000000; stroke-linecap:round; stroke-linejoin:round; stroke-width:4; stroke-opacity:1; fill:none" points="149.191,1423.18 168.089,1423.18 "/>
<polyline clip-path="url(#clip420)" style="stroke:#000000; stroke-linecap:round; stroke-linejoin:round; stroke-width:4; stroke-opacity:1; fill:none" points="149.191,1193.86 168.089,1193.86 "/>
<polyline clip-path="url(#clip420)" style="stroke:#000000; stroke-linecap:round; stroke-linejoin:round; stroke-width:4; stroke-opacity:1; fill:none" points="149.191,964.535 168.089,964.535 "/>
<polyline clip-path="url(#clip420)" style="stroke:#000000; stroke-linecap:round; stroke-linejoin:round; stroke-width:4; stroke-opacity:1; fill:none" points="149.191,735.212 168.089,735.212 "/>
<polyline clip-path="url(#clip420)" style="stroke:#000000; stroke-linecap:round; stroke-linejoin:round; stroke-width:4; stroke-opacity:1; fill:none" points="149.191,505.889 168.089,505.889 "/>
<polyline clip-path="url(#clip420)" style="stroke:#000000; stroke-linecap:round; stroke-linejoin:round; stroke-width:4; stroke-opacity:1; fill:none" points="149.191,276.567 168.089,276.567 "/>
<polyline clip-path="url(#clip420)" style="stroke:#000000; stroke-linecap:round; stroke-linejoin:round; stroke-width:4; stroke-opacity:1; fill:none" points="149.191,47.2441 168.089,47.2441 "/>
<path clip-path="url(#clip420)" d="M51.3162 1423.63 L80.992 1423.63 L80.992 1427.57 L51.3162 1427.57 L51.3162 1423.63 Z" fill="#000000" fill-rule="nonzero" fill-opacity="1" /><path clip-path="url(#clip420)" d="M101.663 1421.32 Q98.515 1421.32 96.6632 1423.47 Q94.8345 1425.62 94.8345 1429.37 Q94.8345 1433.1 96.6632 1435.27 Q98.515 1437.43 101.663 1437.43 Q104.811 1437.43 106.64 1435.27 Q108.492 1433.1 108.492 1429.37 Q108.492 1425.62 106.64 1423.47 Q104.811 1421.32 101.663 1421.32 M110.946 1406.66 L110.946 1410.92 Q109.186 1410.09 107.381 1409.65 Q105.598 1409.21 103.839 1409.21 Q99.2095 1409.21 96.7558 1412.33 Q94.3252 1415.46 93.978 1421.78 Q95.3437 1419.77 97.4039 1418.7 Q99.4641 1417.61 101.941 1417.61 Q107.149 1417.61 110.158 1420.78 Q113.191 1423.93 113.191 1429.37 Q113.191 1434.7 110.043 1437.91 Q106.895 1441.13 101.663 1441.13 Q95.6678 1441.13 92.4965 1436.55 Q89.3253 1431.94 89.3253 1423.21 Q89.3253 1415.02 93.2141 1410.16 Q97.103 1405.27 103.654 1405.27 Q105.413 1405.27 107.196 1405.62 Q109.001 1405.97 110.946 1406.66 Z" fill="#000000" fill-rule="nonzero" fill-opacity="1" /><path clip-path="url(#clip420)" d="M50.9921 1194.31 L80.6679 1194.31 L80.6679 1198.24 L50.9921 1198.24 L50.9921 1194.31 Z" fill="#000000" fill-rule="nonzero" fill-opacity="1" /><path clip-path="url(#clip420)" d="M103.608 1180.65 L91.8021 1199.1 L103.608 1199.1 L103.608 1180.65 M102.381 1176.58 L108.26 1176.58 L108.26 1199.1 L113.191 1199.1 L113.191 1202.99 L108.26 1202.99 L108.26 1211.14 L103.608 1211.14 L103.608 1202.99 L88.0058 1202.99 L88.0058 1198.48 L102.381 1176.58 Z" fill="#000000" fill-rule="nonzero" fill-opacity="1" /><path clip-path="url(#clip420)" d="M53.0754 964.986 L82.7512 964.986 L82.7512 968.921 L53.0754 968.921 L53.0754 964.986 Z" fill="#000000" fill-rule="nonzero" fill-opacity="1" /><path clip-path="url(#clip420)" d="M96.8715 977.879 L113.191 977.879 L113.191 981.815 L91.2465 981.815 L91.2465 977.879 Q93.9086 975.125 98.4919 970.495 Q103.098 965.842 104.279 964.5 Q106.524 961.977 107.404 960.241 Q108.307 958.481 108.307 956.792 Q108.307 954.037 106.362 952.301 Q104.441 950.565 101.339 950.565 Q99.14 950.565 96.6863 951.329 Q94.2558 952.093 91.478 953.643 L91.478 948.921 Q94.3021 947.787 96.7558 947.208 Q99.2095 946.63 101.246 946.63 Q106.617 946.63 109.811 949.315 Q113.006 952 113.006 956.491 Q113.006 958.62 112.196 960.542 Q111.408 962.44 109.302 965.032 Q108.723 965.704 105.621 968.921 Q102.52 972.116 96.8715 977.879 Z" fill="#000000" fill-rule="nonzero" fill-opacity="1" /><path clip-path="url(#clip420)" d="M101.246 721.011 Q97.6354 721.011 95.8067 724.575 Q94.0012 728.117 94.0012 735.247 Q94.0012 742.353 95.8067 745.918 Q97.6354 749.46 101.246 749.46 Q104.881 749.46 106.686 745.918 Q108.515 742.353 108.515 735.247 Q108.515 728.117 106.686 724.575 Q104.881 721.011 101.246 721.011 M101.246 717.307 Q107.057 717.307 110.112 721.913 Q113.191 726.497 113.191 735.247 Q113.191 743.973 110.112 748.58 Q107.057 753.163 101.246 753.163 Q95.4363 753.163 92.3576 748.58 Q89.3021 743.973 89.3021 735.247 Q89.3021 726.497 92.3576 721.913 Q95.4363 717.307 101.246 717.307 Z" fill="#000000" fill-rule="nonzero" fill-opacity="1" /><path clip-path="url(#clip420)" d="M96.8715 519.234 L113.191 519.234 L113.191 523.169 L91.2465 523.169 L91.2465 519.234 Q93.9086 516.48 98.4919 511.85 Q103.098 507.197 104.279 505.855 Q106.524 503.331 107.404 501.595 Q108.307 499.836 108.307 498.146 Q108.307 495.392 106.362 493.656 Q104.441 491.92 101.339 491.92 Q99.14 491.92 96.6863 492.683 Q94.2558 493.447 91.478 494.998 L91.478 490.276 Q94.3021 489.142 96.7558 488.563 Q99.2095 487.984 101.246 487.984 Q106.617 487.984 109.811 490.67 Q113.006 493.355 113.006 497.845 Q113.006 499.975 112.196 501.896 Q111.408 503.794 109.302 506.387 Q108.723 507.058 105.621 510.276 Q102.52 513.47 96.8715 519.234 Z" fill="#000000" fill-rule="nonzero" fill-opacity="1" /><path clip-path="url(#clip420)" d="M103.608 263.361 L91.8021 281.81 L103.608 281.81 L103.608 263.361 M102.381 259.287 L108.26 259.287 L108.26 281.81 L113.191 281.81 L113.191 285.699 L108.26 285.699 L108.26 293.847 L103.608 293.847 L103.608 285.699 L88.0058 285.699 L88.0058 281.185 L102.381 259.287 Z" fill="#000000" fill-rule="nonzero" fill-opacity="1" /><path clip-path="url(#clip420)" d="M101.663 45.3807 Q98.515 45.3807 96.6632 47.5334 Q94.8345 49.6862 94.8345 53.4362 Q94.8345 57.163 96.6632 59.3389 Q98.515 61.4917 101.663 61.4917 Q104.811 61.4917 106.64 59.3389 Q108.492 57.163 108.492 53.4362 Q108.492 49.6862 106.64 47.5334 Q104.811 45.3807 101.663 45.3807 M110.946 30.728 L110.946 34.9872 Q109.186 34.1539 107.381 33.7141 Q105.598 33.2743 103.839 33.2743 Q99.2095 33.2743 96.7558 36.3992 Q94.3252 39.5242 93.978 45.8436 Q95.3437 43.8298 97.4039 42.765 Q99.4641 41.677 101.941 41.677 Q107.149 41.677 110.158 44.8483 Q113.191 47.9964 113.191 53.4362 Q113.191 58.7602 110.043 61.9778 Q106.895 65.1954 101.663 65.1954 Q95.6678 65.1954 92.4965 60.6121 Q89.3253 56.0056 89.3253 47.2788 Q89.3253 39.0844 93.2141 34.2233 Q97.103 29.3391 103.654 29.3391 Q105.413 29.3391 107.196 29.6863 Q109.001 30.0335 110.946 30.728 Z" fill="#000000" fill-rule="nonzero" fill-opacity="1" /><polyline clip-path="url(#clip422)" style="stroke:#009af9; stroke-linecap:round; stroke-linejoin:round; stroke-width:12; stroke-opacity:1; fill:none" points="149.191,1193.86 151.945,1193.65 154.7,1193.02 157.454,1191.98 160.209,1190.56 162.963,1188.77 165.718,1186.61 168.472,1184.12 171.227,1181.31 173.981,1178.2 176.735,1174.81 179.49,1171.18 182.244,1167.31 184.999,1163.23 187.753,1158.97 190.508,1154.54 193.262,1149.97 196.017,1145.27 198.771,1140.47 201.526,1135.57 204.28,1130.59 207.034,1125.55 209.789,1120.46 212.543,1115.33 215.298,1110.16 218.052,1104.97 220.807,1099.76 223.561,1094.53 226.316,1089.29 229.07,1084.05 231.825,1078.79 234.579,1073.54 237.333,1068.29 240.088,1063.03 242.842,1057.78 245.597,1052.52 248.351,1047.27 251.106,1042.01 253.86,1036.76 256.615,1031.5 259.369,1026.25 262.124,1020.99 264.878,1015.74 267.632,1010.49 270.387,1005.24 273.141,999.993 275.896,994.753 278.65,989.52 281.405,984.293 284.159,979.076 286.914,973.87 289.668,968.676 292.423,963.496 295.177,958.331 297.932,953.183 300.686,948.054 303.44,942.945 306.195,937.857 308.949,932.792 311.704,927.751 314.458,922.735 317.213,917.746 319.967,912.785 322.722,907.853 325.476,902.951 328.231,898.079 330.985,893.239 333.739,888.431 336.494,883.656 339.248,878.915 342.003,874.207 344.757,869.535 347.512,864.897 350.266,860.295 353.021,855.728 355.775,851.198 358.53,846.704 361.284,842.247 364.038,837.827 366.793,833.444 369.547,829.097 372.302,824.788 375.056,820.516 377.811,816.281 380.565,812.083 383.32,807.923 386.074,803.799 388.829,799.712 391.583,795.662 394.337,791.649 397.092,787.673 399.846,783.732 402.601,779.829 405.355,775.961 408.11,772.13 410.864,768.334 413.619,764.574 416.373,760.849 419.128,757.16 421.882,753.505 424.636,749.885 427.391,746.3 430.145,742.749 432.9,739.232 435.654,735.749 438.409,732.299 441.163,728.882 443.918,725.498 446.672,722.147 449.427,718.828 452.181,715.54 454.936,712.285 457.69,709.061 460.444,705.869 463.199,702.707 465.953,699.575 468.708,696.475 471.462,693.404 474.217,690.362 476.971,687.351 479.726,684.368 482.48,681.414 485.235,678.489 487.989,675.592 490.743,672.723 493.498,669.882 496.252,667.069 499.007,664.282 501.761,661.522 504.516,658.789 507.27,656.082 510.025,653.401 512.779,650.746 515.534,648.116 518.288,645.512 521.042,642.932 523.797,640.377 526.551,637.846 529.306,635.339 532.06,632.856 534.815,630.396 537.569,627.96 540.324,625.546 543.078,623.156 545.833,620.787 548.587,618.441 551.341,616.117 554.096,613.814 556.85,611.533 559.605,609.273 562.359,607.034 565.114,604.816 567.868,602.618 570.623,600.44 573.377,598.282 576.132,596.144 578.886,594.025 581.641,591.926 584.395,589.845 587.149,587.783 589.904,585.74 592.658,583.715 595.413,581.708 598.167,579.719 600.922,577.748 603.676,575.794 606.431,573.857 609.185,571.937 611.94,570.035 614.694,568.148 617.448,566.278 620.203,564.424 622.957,562.587 625.712,560.765 628.466,558.958 631.221,557.167 633.975,555.391 636.73,553.63 639.484,551.884 642.239,550.153 644.993,548.436 647.747,546.733 650.502,545.044 653.256,543.369 656.011,541.708 658.765,540.061 661.52,538.427 664.274,536.806 667.029,535.198 669.783,533.604 672.538,532.022 675.292,530.452 678.046,528.895 680.801,527.35 683.555,525.818 686.31,524.297 689.064,522.789 691.819,521.292 694.573,519.806 697.328,518.332 700.082,516.87 702.837,515.418 705.591,513.977 708.345,512.548 711.1,511.129 713.854,509.72 716.609,508.322 719.363,506.935 722.118,505.557 724.872,504.19 727.627,502.833 730.381,501.485 733.136,500.148 735.89,498.819 738.645,497.501 741.399,496.192 744.153,494.891 746.908,493.601 749.662,492.319 752.417,491.046 755.171,489.782 757.926,488.527 760.68,487.28 763.435,486.042 766.189,484.812 768.944,483.591 771.698,482.377 774.452,481.172 777.207,479.975 779.961,478.786 782.716,477.605 785.47,476.432 788.225,475.266 790.979,474.108 793.734,472.957 796.488,471.814 799.243,470.679 801.997,469.55 804.751,468.429 807.506,467.315 810.26,466.208 813.015,465.108 815.769,464.015 818.524,462.928 821.278,461.849 824.033,460.776 826.787,459.709 829.542,458.649 832.296,457.596 835.05,456.549 837.805,455.508 840.559,454.474 843.314,453.446 846.068,452.424 848.823,451.408 851.577,450.398 854.332,449.394 857.086,448.395 859.841,447.403 862.595,446.417 865.349,445.436 868.104,444.461 870.858,443.491 873.613,442.527 876.367,441.568 879.122,440.615 881.876,439.667 884.631,438.725 887.385,437.788 890.14,436.856 892.894,435.929 895.649,435.007 898.403,434.091 901.157,433.179 903.912,432.272 906.666,431.371 909.421,430.474 912.175,429.582 914.93,428.694 917.684,427.812 920.439,426.934 923.193,426.061 925.948,425.192 928.702,424.328 931.456,423.469 934.211,422.613 936.965,421.763 939.72,420.917 942.474,420.075 945.229,419.237 947.983,418.404 950.738,417.575 953.492,416.75 956.247,415.929 959.001,415.113 961.755,414.3 964.51,413.492 967.264,412.688 970.019,411.888 972.773,411.091 975.528,410.299 978.282,409.511 981.037,408.726 983.791,407.946 986.546,407.169 989.3,406.396 992.054,405.627 994.809,404.861 997.563,404.099 1000.32,403.341 1003.07,402.587 1005.83,401.836 1008.58,401.089 1011.34,400.345 1014.09,399.605 1016.84,398.869 1019.6,398.135 1022.35,397.406 1025.11,396.679 1027.86,395.957 1030.62,395.237 1033.37,394.521 1036.13,393.808 1038.88,393.099 1041.63,392.393 1044.39,391.69 1047.14,390.99 1049.9,390.294 1052.65,389.6 1055.41,388.91 1058.16,388.223 1060.92,387.54 1063.67,386.859 1066.42,386.181 1069.18,385.507 1071.93,384.835 1074.69,384.167 1077.44,383.502 1080.2,382.839 1082.95,382.18 1085.71,381.523 1088.46,380.869 1091.21,380.219 1093.97,379.571 1096.72,378.926 1099.48,378.284 1102.23,377.645 1104.99,377.008 1107.74,376.375 1110.5,375.744 1113.25,375.115 1116.01,374.49 1118.76,373.867 1121.51,373.247 1124.27,372.63 1127.02,372.016 1129.78,371.404 1132.53,370.794 1135.29,370.188 1138.04,369.584 1140.8,368.982 1143.55,368.383 1146.3,367.787 1149.06,367.193 1151.81,366.602 1154.57,366.013 1157.32,365.427 1160.08,364.844 1162.83,364.262 1165.59,363.684 1168.34,363.107 1171.09,362.533 1173.85,361.962 1176.6,361.393 1179.36,360.826 1182.11,360.262 1184.87,359.7 1187.62,359.141 1190.38,358.584 1193.13,358.029 1195.88,357.477 1198.64,356.927 1201.39,356.379 1204.15,355.833 1206.9,355.29 1209.66,354.749 1212.41,354.211 1215.17,353.674 1217.92,353.14 1220.67,352.608 1223.43,352.079 1226.18,351.551 1228.94,351.026 1231.69,350.503 1234.45,349.982 1237.2,349.464 1239.96,348.947 1242.71,348.433 1245.46,347.921 1248.22,347.411 1250.97,346.903 1253.73,346.397 1256.48,345.893 1259.24,345.392 1261.99,344.892 1264.75,344.395 1267.5,343.899 1270.25,343.406 1273.01,342.915 1275.76,342.426 1278.52,341.939 1281.27,341.453 1284.03,340.97 1286.78,340.489 1289.54,340.01 1292.29,339.533 1295.04,339.058 1297.8,338.585 1300.55,338.114 1303.31,337.645 1306.06,337.177 1308.82,336.712 1311.57,336.249 1314.33,335.787 1317.08,335.328 1319.83,334.871 1322.59,334.415 1325.34,333.961 1328.1,333.509 1330.85,333.059 1333.61,332.611 1336.36,332.165 1339.12,331.721 1341.87,331.279 1344.62,330.838 1347.38,330.399 1350.13,329.962 1352.89,329.527 1355.64,329.094 1358.4,328.663 1361.15,328.233 1363.91,327.806 1366.66,327.38 1369.41,326.955 1372.17,326.533 1374.92,326.113 1377.68,325.694 1380.43,325.277 1383.19,324.862 1385.94,324.448 1388.7,324.036 1391.45,323.626 1394.21,323.218 1396.96,322.812 1399.71,322.407 1402.47,322.004 1405.22,321.603 1407.98,321.203 1410.73,320.805 1413.49,320.409 1416.24,320.015 1419,319.622 1421.75,319.231 1424.5,318.842 1427.26,318.454 1430.01,318.068 1432.77,317.683 1435.52,317.301 1438.28,316.92 1441.03,316.54 1443.79,316.163 1446.54,315.787 1449.29,315.412 1452.05,315.04 1454.8,314.669 1457.56,314.299 1460.31,313.931 1463.07,313.565 1465.82,313.201 1468.58,312.837 1471.33,312.476 1474.08,312.116 1476.84,311.758 1479.59,311.402 1482.35,311.047 1485.1,310.693 1487.86,310.342 1490.61,309.992 1493.37,309.643 1496.12,309.296 1498.87,308.95 1501.63,308.607 1504.38,308.264 1507.14,307.924 1509.89,307.584 1512.65,307.247 1515.4,306.911 1518.16,306.576 1520.91,306.243 1523.66,305.912 1526.42,305.582 1529.17,305.254 1531.93,304.927 1534.68,304.602 1537.44,304.278 1540.19,303.956 1542.95,303.635 1545.7,303.316 1548.45,302.998 1551.21,302.682 1553.96,302.368 1556.72,302.054 1559.47,301.743 1562.23,301.433 1564.98,301.124 1567.74,300.817 1570.49,300.511 1573.24,300.207 1576,299.904 1578.75,299.603 1581.51,299.303 1584.26,299.005 1587.02,298.708 1589.77,298.413 1592.53,298.119 1595.28,297.826 1598.03,297.535 1600.79,297.246 1603.54,296.958 1606.3,296.671 1609.05,296.386 1611.81,296.102 1614.56,295.82 1617.32,295.539 1620.07,295.26 1622.82,294.982 1625.58,294.705 1628.33,294.43 1631.09,294.157 1633.84,293.884 1636.6,293.613 1639.35,293.344 1642.11,293.076 1644.86,292.81 1647.62,292.544 1650.37,292.281 1653.12,292.018 1655.88,291.757 1658.63,291.498 1661.39,291.24 1664.14,290.983 1666.9,290.728 1669.65,290.474 1672.41,290.221 1675.16,289.97 1677.91,289.72 1680.67,289.472 1683.42,289.225 1686.18,288.979 1688.93,288.735 1691.69,288.492 1694.44,288.251 1697.2,288.01 1699.95,287.772 1702.7,287.534 1705.46,287.298 1708.21,287.064 1710.97,286.83 1713.72,286.598 1716.48,286.368 1719.23,286.139 1721.99,285.911 1724.74,285.684 1727.49,285.459 1730.25,285.235 1733,285.013 1735.76,284.792 1738.51,284.572 1741.27,284.353 1744.02,284.136 1746.78,283.92 1749.53,283.706 1752.28,283.493 1755.04,283.281 1757.79,283.071 1760.55,282.861 1763.3,282.654 1766.06,282.447 1768.81,282.242 1771.57,282.038 1774.32,281.836 1777.07,281.634 1779.83,281.435 1782.58,281.236 1785.34,281.039 1788.09,280.843 1790.85,280.648 1793.6,280.455 1796.36,280.263 1799.11,280.072 1801.86,279.883 1804.62,279.695 1807.37,279.508 1810.13,279.322 1812.88,279.138 1815.64,278.955 1818.39,278.773 1821.15,278.593 1823.9,278.414 1826.65,278.236 1829.41,278.06 1832.16,277.885 1834.92,277.711 1837.67,277.538 1840.43,277.367 1843.18,277.197 1845.94,277.028 1848.69,276.861 1851.44,276.695 1854.2,276.53 1856.95,276.366 1859.71,276.204 1862.46,276.043 1865.22,275.883 1867.97,275.724 1870.73,275.567 1873.48,275.411 1876.23,275.256 1878.99,275.103 1881.74,274.951 1884.5,274.8 1887.25,274.65 1890.01,274.502 1892.76,274.355 1895.52,274.209 1898.27,274.064 1901.03,273.921 1903.78,273.779 1906.53,273.638 1909.29,273.499 1912.04,273.36 1914.8,273.223 1917.55,273.087 1920.31,272.953 1923.06,272.819 1925.82,272.687 1928.57,272.557 1931.32,272.427 1934.08,272.299 1936.83,272.172 1939.59,272.046 1942.34,271.921 1945.1,271.798 1947.85,271.676 1950.61,271.555 1953.36,271.435 1956.11,271.317 1958.87,271.199 1961.62,271.083 1964.38,270.969 1967.13,270.855 1969.89,270.743 1972.64,270.632 1975.4,270.522 1978.15,270.414 1980.9,270.306 1983.66,270.2 1986.41,270.095 1989.17,269.992 1991.92,269.889 1994.68,269.788 1997.43,269.688 2000.19,269.589 2002.94,269.492 2005.69,269.395 2008.45,269.3 2011.2,269.206 2013.96,269.114 2016.71,269.022 2019.47,268.932 2022.22,268.843 2024.98,268.755 2027.73,268.668 2030.48,268.583 2033.24,268.499 2035.99,268.416 2038.75,268.334 2041.5,268.253 2044.26,268.174 2047.01,268.096 2049.77,268.019 2052.52,267.943 2055.27,267.869 2058.03,267.795 2060.78,267.723 2063.54,267.652 2066.29,267.583 2069.05,267.514 2071.8,267.447 2074.56,267.381 2077.31,267.316 2080.06,267.252 2082.82,267.189 2085.57,267.128 2088.33,267.068 2091.08,267.009 2093.84,266.951 2096.59,266.895 2099.35,266.839 2102.1,266.785 2104.85,266.732 2107.61,266.68 2110.36,266.63 2113.12,266.58 2115.87,266.532 2118.63,266.485 2121.38,266.439 2124.14,266.394 2126.89,266.351 2129.64,266.309 2132.4,266.267 2135.15,266.228 2137.91,266.189 2140.66,266.151 2143.42,266.115 2146.17,266.079 2148.93,266.045 2151.68,266.013 2154.44,265.981 2157.19,265.95 2159.94,265.921 2162.7,265.893 2165.45,265.866 2168.21,265.84 2170.96,265.815 2173.72,265.792 2176.47,265.77 2179.23,265.749 2181.98,265.729 2184.73,265.71 2187.49,265.692 2190.24,265.676 2193,265.66 2195.75,265.646 2198.51,265.633 2201.26,265.622 2204.02,265.611 2206.77,265.602 2209.52,265.593 2212.28,265.586 2215.03,265.58 2217.79,265.576 2220.54,265.572 2223.3,265.569 2226.05,265.568 2228.81,265.568 2231.56,265.569 2234.31,265.571 2237.07,265.575 2239.82,265.579 2242.58,265.585 2245.33,265.592 2248.09,265.6 2250.84,265.609 2253.6,265.619 2256.35,265.631 2259.1,265.643 2261.86,265.657 2264.61,265.672 2267.37,265.688 2270.12,265.705 2272.88,265.724 2275.63,265.743 2278.39,265.764 2281.14,265.786 2283.89,265.809 2286.65,265.833 2289.4,265.859 2292.16,265.885 2294.91,265.913 2297.67,265.941 2300.42,265.971 2303.18,266.003 2305.93,266.035 2308.68,266.068 2311.44,266.103 2314.19,266.138 2316.95,266.175 2319.7,266.213 2322.46,266.252 2325.21,266.293 2327.97,266.334 2330.72,266.377 2333.47,266.42 2336.23,266.465 2338.98,266.511 2341.74,266.558 2344.49,266.607 2347.25,266.656 2350,266.707 2352.76,266.758 "/>
<polyline clip-path="url(#clip422)" style="stroke:#e26f46; stroke-linecap:round; stroke-linejoin:round; stroke-width:12; stroke-opacity:1; fill:none" points="149.191,735.212 151.945,693.021 154.7,651.971 157.454,612.233 160.209,573.975 162.963,537.36 165.718,502.542 168.472,469.66 171.227,438.835 173.981,410.164 176.735,383.714 179.49,359.522 182.244,337.593 184.999,317.896 187.753,300.363 190.508,284.903 193.262,271.409 196.017,259.755 198.771,249.793 201.526,241.368 204.28,234.33 207.034,228.525 209.789,223.806 212.543,220.032 215.298,217.073 218.052,214.801 220.807,213.099 223.561,211.864 226.316,211.001 229.07,210.425 231.825,210.063 234.579,209.853 237.333,209.744 240.088,209.695 242.842,209.677 245.597,209.671 248.351,209.668 251.106,209.664 253.86,209.661 256.615,209.674 259.369,209.72 262.124,209.814 264.878,209.97 267.632,210.204 270.387,210.53 273.141,210.961 275.896,211.513 278.65,212.198 281.405,213.03 284.159,214.018 286.914,215.164 289.668,216.468 292.423,217.93 295.177,219.549 297.932,221.322 300.686,223.247 303.44,225.32 306.195,227.535 308.949,229.889 311.704,232.373 314.458,234.983 317.213,237.708 319.967,240.542 322.722,243.474 325.476,246.498 328.231,249.608 330.985,252.796 333.739,256.057 336.494,259.384 339.248,262.769 342.003,266.208 344.757,269.695 347.512,273.224 350.266,276.79 353.021,280.389 355.775,284.015 358.53,287.665 361.284,291.334 364.038,295.019 366.793,298.716 369.547,302.423 372.302,306.135 375.056,309.85 377.811,313.565 380.565,317.278 383.32,320.986 386.074,324.688 388.829,328.382 391.583,332.065 394.337,335.737 397.092,339.396 399.846,343.04 402.601,346.667 405.355,350.277 408.11,353.869 410.864,357.44 413.619,360.99 416.373,364.519 419.128,368.024 421.882,371.506 424.636,374.963 427.391,378.396 430.145,381.802 432.9,385.183 435.654,388.537 438.409,391.864 441.163,395.165 443.918,398.438 446.672,401.684 449.427,404.902 452.181,408.091 454.936,411.252 457.69,414.384 460.444,417.488 463.199,420.563 465.953,423.609 468.708,426.627 471.462,429.615 474.217,432.574 476.971,435.504 479.726,438.405 482.48,441.277 485.235,444.12 487.989,446.934 490.743,449.719 493.498,452.475 496.252,455.202 499.007,457.9 501.761,460.57 504.516,463.211 507.27,465.824 510.025,468.408 512.779,470.963 515.534,473.491 518.288,475.992 521.042,478.464 523.797,480.909 526.551,483.326 529.306,485.717 532.06,488.08 534.815,490.416 537.569,492.725 540.324,495.008 543.078,497.265 545.833,499.495 548.587,501.7 551.341,503.879 554.096,506.033 556.85,508.161 559.605,510.264 562.359,512.343 565.114,514.396 567.868,516.426 570.623,518.431 573.377,520.412 576.132,522.369 578.886,524.303 581.641,526.213 584.395,528.101 587.149,529.965 589.904,531.807 592.658,533.626 595.413,535.423 598.167,537.198 600.922,538.951 603.676,540.683 606.431,542.393 609.185,544.083 611.94,545.751 614.694,547.399 617.448,549.026 620.203,550.633 622.957,552.221 625.712,553.788 628.466,555.336 631.221,556.865 633.975,558.375 636.73,559.867 639.484,561.339 642.239,562.794 644.993,564.23 647.747,565.648 650.502,567.049 653.256,568.432 656.011,569.798 658.765,571.147 661.52,572.48 664.274,573.795 667.029,575.095 669.783,576.378 672.538,577.645 675.292,578.897 678.046,580.133 680.801,581.354 683.555,582.56 686.31,583.751 689.064,584.927 691.819,586.089 694.573,587.237 697.328,588.37 700.082,589.49 702.837,590.596 705.591,591.688 708.345,592.767 711.1,593.833 713.854,594.886 716.609,595.926 719.363,596.954 722.118,597.969 724.872,598.972 727.627,599.963 730.381,600.942 733.136,601.909 735.89,602.865 738.645,603.809 741.399,604.742 744.153,605.664 746.908,606.575 749.662,607.476 752.417,608.366 755.171,609.245 757.926,610.114 760.68,610.973 763.435,611.822 766.189,612.661 768.944,613.491 771.698,614.311 774.452,615.121 777.207,615.922 779.961,616.714 782.716,617.498 785.47,618.272 788.225,619.037 790.979,619.794 793.734,620.543 796.488,621.283 799.243,622.015 801.997,622.738 804.751,623.454 807.506,624.162 810.26,624.862 813.015,625.555 815.769,626.24 818.524,626.918 821.278,627.588 824.033,628.252 826.787,628.908 829.542,629.557 832.296,630.199 835.05,630.835 837.805,631.463 840.559,632.086 843.314,632.701 846.068,633.311 848.823,633.914 851.577,634.51 854.332,635.101 857.086,635.686 859.841,636.264 862.595,636.837 865.349,637.404 868.104,637.965 870.858,638.521 873.613,639.071 876.367,639.616 879.122,640.155 881.876,640.689 884.631,641.218 887.385,641.741 890.14,642.26 892.894,642.774 895.649,643.282 898.403,643.786 901.157,644.285 903.912,644.78 906.666,645.269 909.421,645.755 912.175,646.235 914.93,646.712 917.684,647.184 920.439,647.651 923.193,648.115 925.948,648.574 928.702,649.029 931.456,649.48 934.211,649.927 936.965,650.37 939.72,650.809 942.474,651.245 945.229,651.676 947.983,652.104 950.738,652.529 953.492,652.949 956.247,653.366 959.001,653.78 961.755,654.19 964.51,654.597 967.264,655 970.019,655.4 972.773,655.796 975.528,656.19 978.282,656.58 981.037,656.967 983.791,657.351 986.546,657.732 989.3,658.109 992.054,658.484 994.809,658.856 997.563,659.225 1000.32,659.591 1003.07,659.954 1005.83,660.314 1008.58,660.672 1011.34,661.027 1014.09,661.379 1016.84,661.728 1019.6,662.075 1022.35,662.42 1025.11,662.762 1027.86,663.101 1030.62,663.438 1033.37,663.772 1036.13,664.104 1038.88,664.434 1041.63,664.761 1044.39,665.086 1047.14,665.408 1049.9,665.728 1052.65,666.046 1055.41,666.362 1058.16,666.676 1060.92,666.987 1063.67,667.297 1066.42,667.604 1069.18,667.909 1071.93,668.212 1074.69,668.513 1077.44,668.812 1080.2,669.109 1082.95,669.404 1085.71,669.697 1088.46,669.989 1091.21,670.278 1093.97,670.566 1096.72,670.851 1099.48,671.135 1102.23,671.418 1104.99,671.698 1107.74,671.977 1110.5,672.253 1113.25,672.529 1116.01,672.802 1118.76,673.074 1121.51,673.345 1124.27,673.613 1127.02,673.88 1129.78,674.146 1132.53,674.41 1135.29,674.672 1138.04,674.933 1140.8,675.193 1143.55,675.451 1146.3,675.707 1149.06,675.962 1151.81,676.216 1154.57,676.468 1157.32,676.719 1160.08,676.969 1162.83,677.217 1165.59,677.464 1168.34,677.709 1171.09,677.953 1173.85,678.196 1176.6,678.438 1179.36,678.678 1182.11,678.918 1184.87,679.155 1187.62,679.392 1190.38,679.628 1193.13,679.862 1195.88,680.095 1198.64,680.327 1201.39,680.558 1204.15,680.788 1206.9,681.016 1209.66,681.244 1212.41,681.47 1215.17,681.695 1217.92,681.919 1220.67,682.142 1223.43,682.364 1226.18,682.585 1228.94,682.805 1231.69,683.024 1234.45,683.242 1237.2,683.459 1239.96,683.675 1242.71,683.89 1245.46,684.104 1248.22,684.317 1250.97,684.529 1253.73,684.74 1256.48,684.95 1259.24,685.159 1261.99,685.368 1264.75,685.575 1267.5,685.782 1270.25,685.988 1273.01,686.193 1275.76,686.397 1278.52,686.6 1281.27,686.802 1284.03,687.004 1286.78,687.205 1289.54,687.405 1292.29,687.604 1295.04,687.802 1297.8,687.999 1300.55,688.196 1303.31,688.392 1306.06,688.587 1308.82,688.782 1311.57,688.975 1314.33,689.168 1317.08,689.361 1319.83,689.552 1322.59,689.743 1325.34,689.933 1328.1,690.122 1330.85,690.311 1333.61,690.499 1336.36,690.686 1339.12,690.873 1341.87,691.059 1344.62,691.244 1347.38,691.429 1350.13,691.613 1352.89,691.796 1355.64,691.979 1358.4,692.161 1361.15,692.342 1363.91,692.523 1366.66,692.704 1369.41,692.883 1372.17,693.062 1374.92,693.241 1377.68,693.419 1380.43,693.596 1383.19,693.773 1385.94,693.949 1388.7,694.125 1391.45,694.3 1394.21,694.474 1396.96,694.648 1399.71,694.822 1402.47,694.995 1405.22,695.167 1407.98,695.339 1410.73,695.51 1413.49,695.681 1416.24,695.852 1419,696.022 1421.75,696.191 1424.5,696.36 1427.26,696.528 1430.01,696.696 1432.77,696.864 1435.52,697.031 1438.28,697.197 1441.03,697.363 1443.79,697.529 1446.54,697.694 1449.29,697.859 1452.05,698.023 1454.8,698.187 1457.56,698.35 1460.31,698.513 1463.07,698.676 1465.82,698.838 1468.58,699 1471.33,699.161 1474.08,699.322 1476.84,699.482 1479.59,699.642 1482.35,699.802 1485.1,699.961 1487.86,700.12 1490.61,700.279 1493.37,700.437 1496.12,700.594 1498.87,700.752 1501.63,700.909 1504.38,701.065 1507.14,701.221 1509.89,701.377 1512.65,701.533 1515.4,701.688 1518.16,701.842 1520.91,701.997 1523.66,702.151 1526.42,702.304 1529.17,702.458 1531.93,702.611 1534.68,702.763 1537.44,702.916 1540.19,703.068 1542.95,703.219 1545.7,703.371 1548.45,703.522 1551.21,703.673 1553.96,703.823 1556.72,703.973 1559.47,704.123 1562.23,704.272 1564.98,704.421 1567.74,704.57 1570.49,704.719 1573.24,704.867 1576,705.015 1578.75,705.163 1581.51,705.31 1584.26,705.457 1587.02,705.604 1589.77,705.75 1592.53,705.896 1595.28,706.042 1598.03,706.188 1600.79,706.333 1603.54,706.479 1606.3,706.623 1609.05,706.768 1611.81,706.912 1614.56,707.056 1617.32,707.2 1620.07,707.344 1622.82,707.487 1625.58,707.63 1628.33,707.773 1631.09,707.915 1633.84,708.057 1636.6,708.199 1639.35,708.341 1642.11,708.483 1644.86,708.624 1647.62,708.765 1650.37,708.906 1653.12,709.046 1655.88,709.187 1658.63,709.327 1661.39,709.467 1664.14,709.606 1666.9,709.746 1669.65,709.885 1672.41,710.024 1675.16,710.163 1677.91,710.301 1680.67,710.439 1683.42,710.578 1686.18,710.715 1688.93,710.853 1691.69,710.991 1694.44,711.128 1697.2,711.265 1699.95,711.402 1702.7,711.538 1705.46,711.675 1708.21,711.811 1710.97,711.947 1713.72,712.083 1716.48,712.219 1719.23,712.354 1721.99,712.49 1724.74,712.625 1727.49,712.76 1730.25,712.894 1733,713.029 1735.76,713.163 1738.51,713.298 1741.27,713.432 1744.02,713.565 1746.78,713.699 1749.53,713.833 1752.28,713.966 1755.04,714.099 1757.79,714.232 1760.55,714.365 1763.3,714.498 1766.06,714.63 1768.81,714.762 1771.57,714.894 1774.32,715.026 1777.07,715.158 1779.83,715.29 1782.58,715.421 1785.34,715.553 1788.09,715.684 1790.85,715.815 1793.6,715.946 1796.36,716.077 1799.11,716.207 1801.86,716.338 1804.62,716.468 1807.37,716.598 1810.13,716.728 1812.88,716.858 1815.64,716.988 1818.39,717.117 1821.15,717.247 1823.9,717.376 1826.65,717.505 1829.41,717.634 1832.16,717.763 1834.92,717.892 1837.67,718.02 1840.43,718.149 1843.18,718.277 1845.94,718.405 1848.69,718.533 1851.44,718.661 1854.2,718.789 1856.95,718.916 1859.71,719.044 1862.46,719.171 1865.22,719.299 1867.97,719.426 1870.73,719.553 1873.48,719.68 1876.23,719.806 1878.99,719.933 1881.74,720.059 1884.5,720.186 1887.25,720.312 1890.01,720.438 1892.76,720.564 1895.52,720.69 1898.27,720.816 1901.03,720.942 1903.78,721.067 1906.53,721.193 1909.29,721.318 1912.04,721.443 1914.8,721.568 1917.55,721.693 1920.31,721.818 1923.06,721.943 1925.82,722.068 1928.57,722.192 1931.32,722.317 1934.08,722.441 1936.83,722.565 1939.59,722.689 1942.34,722.813 1945.1,722.937 1947.85,723.061 1950.61,723.185 1953.36,723.309 1956.11,723.432 1958.87,723.556 1961.62,723.679 1964.38,723.802 1967.13,723.925 1969.89,724.048 1972.64,724.171 1975.4,724.294 1978.15,724.417 1980.9,724.539 1983.66,724.662 1986.41,724.784 1989.17,724.907 1991.92,725.029 1994.68,725.151 1997.43,725.273 2000.19,725.395 2002.94,725.517 2005.69,725.639 2008.45,725.761 2011.2,725.882 2013.96,726.004 2016.71,726.126 2019.47,726.247 2022.22,726.368 2024.98,726.489 2027.73,726.611 2030.48,726.732 2033.24,726.853 2035.99,726.973 2038.75,727.094 2041.5,727.215 2044.26,727.336 2047.01,727.456 2049.77,727.577 2052.52,727.697 2055.27,727.817 2058.03,727.938 2060.78,728.058 2063.54,728.178 2066.29,728.298 2069.05,728.418 2071.8,728.538 2074.56,728.657 2077.31,728.777 2080.06,728.897 2082.82,729.016 2085.57,729.136 2088.33,729.255 2091.08,729.375 2093.84,729.494 2096.59,729.613 2099.35,729.732 2102.1,729.851 2104.85,729.97 2107.61,730.089 2110.36,730.208 2113.12,730.327 2115.87,730.445 2118.63,730.564 2121.38,730.683 2124.14,730.801 2126.89,730.92 2129.64,731.038 2132.4,731.156 2135.15,731.274 2137.91,731.393 2140.66,731.511 2143.42,731.629 2146.17,731.747 2148.93,731.865 2151.68,731.983 2154.44,732.1 2157.19,732.218 2159.94,732.336 2162.7,732.453 2165.45,732.571 2168.21,732.688 2170.96,732.806 2173.72,732.923 2176.47,733.041 2179.23,733.158 2181.98,733.275 2184.73,733.392 2187.49,733.509 2190.24,733.626 2193,733.743 2195.75,733.86 2198.51,733.977 2201.26,734.094 2204.02,734.211 2206.77,734.327 2209.52,734.444 2212.28,734.561 2215.03,734.677 2217.79,734.794 2220.54,734.91 2223.3,735.026 2226.05,735.143 2228.81,735.259 2231.56,735.375 2234.31,735.491 2237.07,735.608 2239.82,735.724 2242.58,735.84 2245.33,735.956 2248.09,736.072 2250.84,736.187 2253.6,736.303 2256.35,736.419 2259.1,736.535 2261.86,736.65 2264.61,736.766 2267.37,736.882 2270.12,736.997 2272.88,737.113 2275.63,737.228 2278.39,737.343 2281.14,737.459 2283.89,737.574 2286.65,737.689 2289.4,737.805 2292.16,737.92 2294.91,738.035 2297.67,738.15 2300.42,738.265 2303.18,738.38 2305.93,738.495 2308.68,738.61 2311.44,738.725 2314.19,738.839 2316.95,738.954 2319.7,739.069 2322.46,739.184 2325.21,739.298 2327.97,739.413 2330.72,739.527 2333.47,739.642 2336.23,739.756 2338.98,739.871 2341.74,739.985 2344.49,740.099 2347.25,740.214 2350,740.328 2352.76,740.442 "/>
<polyline clip-path="url(#clip422)" style="stroke:#3da44d; stroke-linecap:round; stroke-linejoin:round; stroke-width:12; stroke-opacity:1; fill:none" points="149.191,352.292 151.945,355.479 154.7,359.244 157.454,363.624 160.209,368.651 162.963,374.356 165.718,380.76 168.472,387.88 171.227,395.719 173.981,404.269 176.735,413.507 179.49,423.399 182.244,433.895 184.999,444.935 187.753,456.453 190.508,468.377 193.262,480.637 196.017,493.169 198.771,505.912 201.526,518.819 204.28,531.848 207.034,544.968 209.789,558.154 212.543,571.385 215.298,584.645 218.052,597.915 220.807,611.178 223.561,624.413 226.316,637.595 229.07,650.696 231.825,663.685 234.579,676.526 237.333,689.183 240.088,701.616 242.842,713.786 245.597,725.653 248.351,737.182 251.106,748.338 253.86,759.09 256.615,769.414 259.369,779.289 262.124,788.698 264.878,797.632 267.632,806.085 270.387,814.058 273.141,821.555 275.896,828.584 278.65,835.155 281.405,841.285 284.159,846.989 286.914,852.284 289.668,857.191 292.423,861.73 295.177,865.919 297.932,869.781 300.686,873.334 303.44,876.598 306.195,879.592 308.949,882.334 311.704,884.841 314.458,887.13 317.213,889.216 319.967,891.113 322.722,892.836 325.476,894.397 328.231,895.807 330.985,897.078 333.739,898.22 336.494,899.242 339.248,900.153 342.003,900.962 344.757,901.676 347.512,902.301 350.266,902.845 353.021,903.312 355.775,903.71 358.53,904.041 361.284,904.313 364.038,904.527 366.793,904.69 369.547,904.803 372.302,904.872 375.056,904.898 377.811,904.885 380.565,904.836 383.32,904.752 386.074,904.637 388.829,904.492 391.583,904.32 394.337,904.122 397.092,903.9 399.846,903.655 402.601,903.39 405.355,903.105 408.11,902.802 410.864,902.482 413.619,902.146 416.373,901.795 419.128,901.43 421.882,901.051 424.636,900.661 427.391,900.259 430.145,899.847 432.9,899.424 435.654,898.992 438.409,898.552 441.163,898.103 443.918,897.646 446.672,897.182 449.427,896.711 452.181,896.234 454.936,895.751 457.69,895.262 460.444,894.768 463.199,894.269 465.953,893.765 468.708,893.257 471.462,892.745 474.217,892.23 476.971,891.71 479.726,891.187 482.48,890.662 485.235,890.133 487.989,889.601 490.743,889.067 493.498,888.531 496.252,887.992 499.007,887.452 501.761,886.909 504.516,886.365 507.27,885.819 510.025,885.272 512.779,884.723 515.534,884.173 518.288,883.622 521.042,883.07 523.797,882.517 526.551,881.964 529.306,881.409 532.06,880.854 534.815,880.299 537.569,879.743 540.324,879.187 543.078,878.63 545.833,878.074 548.587,877.517 551.341,876.961 554.096,876.404 556.85,875.848 559.605,875.292 562.359,874.737 565.114,874.181 567.868,873.627 570.623,873.073 573.377,872.519 576.132,871.966 578.886,871.414 581.641,870.863 584.395,870.313 587.149,869.764 589.904,869.215 592.658,868.668 595.413,868.122 598.167,867.577 600.922,867.034 603.676,866.492 606.431,865.951 609.185,865.412 611.94,864.874 614.694,864.338 617.448,863.803 620.203,863.27 622.957,862.739 625.712,862.21 628.466,861.682 631.221,861.156 633.975,860.632 636.73,860.11 639.484,859.591 642.239,859.073 644.993,858.557 647.747,858.043 650.502,857.532 653.256,857.022 656.011,856.515 658.765,856.01 661.52,855.508 664.274,855.008 667.029,854.51 669.783,854.014 672.538,853.521 675.292,853.031 678.046,852.543 680.801,852.057 683.555,851.574 686.31,851.094 689.064,850.616 691.819,850.141 694.573,849.668 697.328,849.198 700.082,848.731 702.837,848.266 705.591,847.804 708.345,847.345 711.1,846.888 713.854,846.434 716.609,845.983 719.363,845.535 722.118,845.089 724.872,844.646 727.627,844.206 730.381,843.769 733.136,843.335 735.89,842.903 738.645,842.474 741.399,842.048 744.153,841.625 746.908,841.205 749.662,840.787 752.417,840.372 755.171,839.961 757.926,839.551 760.68,839.145 763.435,838.742 766.189,838.341 768.944,837.943 771.698,837.548 774.452,837.156 777.207,836.767 779.961,836.38 782.716,835.996 785.47,835.615 788.225,835.237 790.979,834.861 793.734,834.489 796.488,834.119 799.243,833.752 801.997,833.387 804.751,833.025 807.506,832.666 810.26,832.31 813.015,831.956 815.769,831.605 818.524,831.257 821.278,830.911 824.033,830.568 826.787,830.228 829.542,829.89 832.296,829.555 835.05,829.222 837.805,828.892 840.559,828.565 843.314,828.24 846.068,827.918 848.823,827.598 851.577,827.281 854.332,826.966 857.086,826.654 859.841,826.344 862.595,826.037 865.349,825.732 868.104,825.429 870.858,825.129 873.613,824.832 876.367,824.536 879.122,824.243 881.876,823.953 884.631,823.665 887.385,823.379 890.14,823.095 892.894,822.814 895.649,822.535 898.403,822.258 901.157,821.984 903.912,821.711 906.666,821.441 909.421,821.173 912.175,820.908 914.93,820.644 917.684,820.383 920.439,820.124 923.193,819.867 925.948,819.611 928.702,819.359 931.456,819.108 934.211,818.859 936.965,818.612 939.72,818.367 942.474,818.125 945.229,817.884 947.983,817.645 950.738,817.409 953.492,817.174 956.247,816.941 959.001,816.71 961.755,816.481 964.51,816.254 967.264,816.028 970.019,815.805 972.773,815.583 975.528,815.364 978.282,815.146 981.037,814.93 983.791,814.715 986.546,814.503 989.3,814.292 992.054,814.083 994.809,813.875 997.563,813.67 1000.32,813.466 1003.07,813.264 1005.83,813.063 1008.58,812.864 1011.34,812.667 1014.09,812.471 1016.84,812.277 1019.6,812.085 1022.35,811.894 1025.11,811.705 1027.86,811.517 1030.62,811.331 1033.37,811.147 1036.13,810.964 1038.88,810.782 1041.63,810.602 1044.39,810.424 1047.14,810.247 1049.9,810.071 1052.65,809.897 1055.41,809.724 1058.16,809.553 1060.92,809.383 1063.67,809.215 1066.42,809.048 1069.18,808.882 1071.93,808.718 1074.69,808.555 1077.44,808.394 1080.2,808.233 1082.95,808.074 1085.71,807.917 1088.46,807.761 1091.21,807.606 1093.97,807.452 1096.72,807.299 1099.48,807.148 1102.23,806.998 1104.99,806.85 1107.74,806.702 1110.5,806.556 1113.25,806.411 1116.01,806.267 1118.76,806.124 1121.51,805.983 1124.27,805.843 1127.02,805.703 1129.78,805.565 1132.53,805.428 1135.29,805.293 1138.04,805.158 1140.8,805.025 1143.55,804.892 1146.3,804.761 1149.06,804.63 1151.81,804.501 1154.57,804.373 1157.32,804.246 1160.08,804.12 1162.83,803.995 1165.59,803.871 1168.34,803.748 1171.09,803.626 1173.85,803.505 1176.6,803.385 1179.36,803.266 1182.11,803.148 1184.87,803.031 1187.62,802.915 1190.38,802.799 1193.13,802.685 1195.88,802.572 1198.64,802.459 1201.39,802.348 1204.15,802.237 1206.9,802.128 1209.66,802.019 1212.41,801.911 1215.17,801.804 1217.92,801.698 1220.67,801.593 1223.43,801.488 1226.18,801.384 1228.94,801.282 1231.69,801.18 1234.45,801.079 1237.2,800.978 1239.96,800.879 1242.71,800.78 1245.46,800.682 1248.22,800.585 1250.97,800.489 1253.73,800.394 1256.48,800.299 1259.24,800.205 1261.99,800.112 1264.75,800.019 1267.5,799.927 1270.25,799.836 1273.01,799.746 1275.76,799.656 1278.52,799.568 1281.27,799.479 1284.03,799.392 1286.78,799.305 1289.54,799.219 1292.29,799.134 1295.04,799.049 1297.8,798.965 1300.55,798.882 1303.31,798.799 1306.06,798.717 1308.82,798.636 1311.57,798.555 1314.33,798.475 1317.08,798.396 1319.83,798.317 1322.59,798.239 1325.34,798.161 1328.1,798.085 1330.85,798.008 1333.61,797.932 1336.36,797.857 1339.12,797.783 1341.87,797.709 1344.62,797.636 1347.38,797.563 1350.13,797.491 1352.89,797.419 1355.64,797.348 1358.4,797.278 1361.15,797.208 1363.91,797.138 1366.66,797.069 1369.41,797.001 1372.17,796.933 1374.92,796.866 1377.68,796.799 1380.43,796.733 1383.19,796.667 1385.94,796.602 1388.7,796.538 1391.45,796.473 1394.21,796.41 1396.96,796.347 1399.71,796.284 1402.47,796.222 1405.22,796.16 1407.98,796.099 1410.73,796.038 1413.49,795.978 1416.24,795.918 1419,795.859 1421.75,795.8 1424.5,795.741 1427.26,795.683 1430.01,795.626 1432.77,795.569 1435.52,795.512 1438.28,795.456 1441.03,795.4 1443.79,795.345 1446.54,795.29 1449.29,795.235 1452.05,795.181 1454.8,795.128 1457.56,795.074 1460.31,795.022 1463.07,794.969 1465.82,794.917 1468.58,794.865 1471.33,794.814 1474.08,794.763 1476.84,794.713 1479.59,794.663 1482.35,794.613 1485.1,794.564 1487.86,794.515 1490.61,794.466 1493.37,794.418 1496.12,794.37 1498.87,794.323 1501.63,794.276 1504.38,794.229 1507.14,794.182 1509.89,794.136 1512.65,794.091 1515.4,794.045 1518.16,794 1520.91,793.956 1523.66,793.911 1526.42,793.867 1529.17,793.823 1531.93,793.78 1534.68,793.737 1537.44,793.694 1540.19,793.652 1542.95,793.61 1545.7,793.568 1548.45,793.527 1551.21,793.485 1553.96,793.445 1556.72,793.404 1559.47,793.364 1562.23,793.324 1564.98,793.284 1567.74,793.245 1570.49,793.206 1573.24,793.167 1576,793.129 1578.75,793.09 1581.51,793.052 1584.26,793.015 1587.02,792.977 1589.77,792.94 1592.53,792.904 1595.28,792.867 1598.03,792.831 1600.79,792.795 1603.54,792.759 1606.3,792.723 1609.05,792.688 1611.81,792.653 1614.56,792.619 1617.32,792.584 1620.07,792.55 1622.82,792.516 1625.58,792.482 1628.33,792.449 1631.09,792.416 1633.84,792.383 1636.6,792.35 1639.35,792.317 1642.11,792.285 1644.86,792.253 1647.62,792.221 1650.37,792.19 1653.12,792.158 1655.88,792.127 1658.63,792.096 1661.39,792.066 1664.14,792.035 1666.9,792.005 1669.65,791.975 1672.41,791.945 1675.16,791.915 1677.91,791.886 1680.67,791.857 1683.42,791.828 1686.18,791.799 1688.93,791.771 1691.69,791.742 1694.44,791.714 1697.2,791.686 1699.95,791.658 1702.7,791.631 1705.46,791.604 1708.21,791.576 1710.97,791.549 1713.72,791.523 1716.48,791.496 1719.23,791.47 1721.99,791.443 1724.74,791.417 1727.49,791.392 1730.25,791.366 1733,791.34 1735.76,791.315 1738.51,791.29 1741.27,791.265 1744.02,791.24 1746.78,791.216 1749.53,791.191 1752.28,791.167 1755.04,791.143 1757.79,791.119 1760.55,791.095 1763.3,791.071 1766.06,791.048 1768.81,791.025 1771.57,791.002 1774.32,790.979 1777.07,790.956 1779.83,790.933 1782.58,790.911 1785.34,790.888 1788.09,790.866 1790.85,790.844 1793.6,790.822 1796.36,790.801 1799.11,790.779 1801.86,790.758 1804.62,790.736 1807.37,790.715 1810.13,790.694 1812.88,790.673 1815.64,790.653 1818.39,790.632 1821.15,790.612 1823.9,790.591 1826.65,790.571 1829.41,790.551 1832.16,790.531 1834.92,790.512 1837.67,790.492 1840.43,790.473 1843.18,790.453 1845.94,790.434 1848.69,790.415 1851.44,790.396 1854.2,790.377 1856.95,790.358 1859.71,790.34 1862.46,790.321 1865.22,790.303 1867.97,790.285 1870.73,790.267 1873.48,790.249 1876.23,790.231 1878.99,790.213 1881.74,790.196 1884.5,790.178 1887.25,790.161 1890.01,790.144 1892.76,790.126 1895.52,790.109 1898.27,790.092 1901.03,790.076 1903.78,790.059 1906.53,790.042 1909.29,790.026 1912.04,790.01 1914.8,789.993 1917.55,789.977 1920.31,789.961 1923.06,789.945 1925.82,789.929 1928.57,789.914 1931.32,789.898 1934.08,789.882 1936.83,789.867 1939.59,789.852 1942.34,789.836 1945.1,789.821 1947.85,789.806 1950.61,789.791 1953.36,789.776 1956.11,789.762 1958.87,789.747 1961.62,789.733 1964.38,789.718 1967.13,789.704 1969.89,789.689 1972.64,789.675 1975.4,789.661 1978.15,789.647 1980.9,789.633 1983.66,789.619 1986.41,789.606 1989.17,789.592 1991.92,789.578 1994.68,789.565 1997.43,789.552 2000.19,789.538 2002.94,789.525 2005.69,789.512 2008.45,789.499 2011.2,789.486 2013.96,789.473 2016.71,789.46 2019.47,789.447 2022.22,789.435 2024.98,789.422 2027.73,789.41 2030.48,789.397 2033.24,789.385 2035.99,789.373 2038.75,789.361 2041.5,789.349 2044.26,789.337 2047.01,789.325 2049.77,789.313 2052.52,789.301 2055.27,789.289 2058.03,789.277 2060.78,789.266 2063.54,789.254 2066.29,789.243 2069.05,789.232 2071.8,789.22 2074.56,789.209 2077.31,789.198 2080.06,789.187 2082.82,789.176 2085.57,789.165 2088.33,789.154 2091.08,789.143 2093.84,789.132 2096.59,789.122 2099.35,789.111 2102.1,789.101 2104.85,789.09 2107.61,789.08 2110.36,789.069 2113.12,789.059 2115.87,789.049 2118.63,789.039 2121.38,789.028 2124.14,789.018 2126.89,789.008 2129.64,788.998 2132.4,788.988 2135.15,788.979 2137.91,788.969 2140.66,788.959 2143.42,788.95 2146.17,788.94 2148.93,788.931 2151.68,788.921 2154.44,788.912 2157.19,788.902 2159.94,788.893 2162.7,788.884 2165.45,788.875 2168.21,788.865 2170.96,788.856 2173.72,788.847 2176.47,788.838 2179.23,788.829 2181.98,788.821 2184.73,788.812 2187.49,788.803 2190.24,788.794 2193,788.786 2195.75,788.777 2198.51,788.768 2201.26,788.76 2204.02,788.751 2206.77,788.743 2209.52,788.735 2212.28,788.726 2215.03,788.718 2217.79,788.71 2220.54,788.702 2223.3,788.694 2226.05,788.686 2228.81,788.677 2231.56,788.67 2234.31,788.662 2237.07,788.654 2239.82,788.646 2242.58,788.638 2245.33,788.63 2248.09,788.623 2250.84,788.615 2253.6,788.607 2256.35,788.6 2259.1,788.592 2261.86,788.585 2264.61,788.577 2267.37,788.57 2270.12,788.563 2272.88,788.555 2275.63,788.548 2278.39,788.541 2281.14,788.534 2283.89,788.526 2286.65,788.519 2289.4,788.512 2292.16,788.505 2294.91,788.498 2297.67,788.491 2300.42,788.484 2303.18,788.477 2305.93,788.471 2308.68,788.464 2311.44,788.457 2314.19,788.45 2316.95,788.444 2319.7,788.437 2322.46,788.43 2325.21,788.424 2327.97,788.417 2330.72,788.411 2333.47,788.404 2336.23,788.398 2338.98,788.391 2341.74,788.385 2344.49,788.379 2347.25,788.372 2350,788.366 2352.76,788.36 "/>
<path clip-path="url(#clip420)" d="M1969.85 1377.32 L2279.3 1377.32 L2279.3 1169.96 L1969.85 1169.96  Z" fill="#ffffff" fill-rule="evenodd" fill-opacity="1"/>
<polyline clip-path="url(#clip420)" style="stroke:#000000; stroke-linecap:round; stroke-linejoin:round; stroke-width:4; stroke-opacity:1; fill:none" points="1969.85,1377.32 2279.3,1377.32 2279.3,1169.96 1969.85,1169.96 1969.85,1377.32 "/>
<polyline clip-path="url(#clip420)" style="stroke:#009af9; stroke-linecap:round; stroke-linejoin:round; stroke-width:12; stroke-opacity:1; fill:none" points="1994.33,1221.8 2141.24,1221.8 "/>
<path clip-path="url(#clip420)" d="M2165.72 1228.84 L2165.72 1213.15 L2169.98 1213.15 L2169.98 1228.68 Q2169.98 1232.36 2171.42 1234.21 Q2172.85 1236.04 2175.72 1236.04 Q2179.17 1236.04 2181.16 1233.84 Q2183.18 1231.64 2183.18 1227.85 L2183.18 1213.15 L2187.44 1213.15 L2187.44 1239.08 L2183.18 1239.08 L2183.18 1235.09 Q2181.63 1237.45 2179.57 1238.61 Q2177.53 1239.75 2174.82 1239.75 Q2170.35 1239.75 2168.04 1236.97 Q2165.72 1234.19 2165.72 1228.84 M2176.44 1212.52 L2176.44 1212.52 Z" fill="#000000" fill-rule="nonzero" fill-opacity="1" /><path clip-path="url(#clip420)" d="M2195.82 1203.06 L2205.63 1203.06 L2205.63 1206.37 L2200.07 1206.37 L2200.07 1242.02 L2205.63 1242.02 L2205.63 1245.33 L2195.82 1245.33 L2195.82 1203.06 Z" fill="#000000" fill-rule="nonzero" fill-opacity="1" /><path clip-path="url(#clip420)" d="M2216.12 1235.14 L2223.76 1235.14 L2223.76 1208.77 L2215.44 1210.44 L2215.44 1206.18 L2223.71 1204.52 L2228.38 1204.52 L2228.38 1235.14 L2236.02 1235.14 L2236.02 1239.08 L2216.12 1239.08 L2216.12 1235.14 Z" fill="#000000" fill-rule="nonzero" fill-opacity="1" /><path clip-path="url(#clip420)" d="M2254.82 1203.06 L2254.82 1245.33 L2245 1245.33 L2245 1242.02 L2250.54 1242.02 L2250.54 1206.37 L2245 1206.37 L2245 1203.06 L2254.82 1203.06 Z" fill="#000000" fill-rule="nonzero" fill-opacity="1" /><polyline clip-path="url(#clip420)" style="stroke:#e26f46; stroke-linecap:round; stroke-linejoin:round; stroke-width:12; stroke-opacity:1; fill:none" points="1994.33,1273.64 2141.24,1273.64 "/>
<path clip-path="url(#clip420)" d="M2165.72 1280.68 L2165.72 1264.99 L2169.98 1264.99 L2169.98 1280.52 Q2169.98 1284.2 2171.42 1286.05 Q2172.85 1287.88 2175.72 1287.88 Q2179.17 1287.88 2181.16 1285.68 Q2183.18 1283.48 2183.18 1279.69 L2183.18 1264.99 L2187.44 1264.99 L2187.44 1290.92 L2183.18 1290.92 L2183.18 1286.93 Q2181.63 1289.29 2179.57 1290.45 Q2177.53 1291.59 2174.82 1291.59 Q2170.35 1291.59 2168.04 1288.81 Q2165.72 1286.03 2165.72 1280.68 M2176.44 1264.36 L2176.44 1264.36 Z" fill="#000000" fill-rule="nonzero" fill-opacity="1" /><path clip-path="url(#clip420)" d="M2195.82 1254.9 L2205.63 1254.9 L2205.63 1258.21 L2200.07 1258.21 L2200.07 1293.86 L2205.63 1293.86 L2205.63 1297.17 L2195.82 1297.17 L2195.82 1254.9 Z" fill="#000000" fill-rule="nonzero" fill-opacity="1" /><path clip-path="url(#clip420)" d="M2219.33 1286.98 L2235.65 1286.98 L2235.65 1290.92 L2213.71 1290.92 L2213.71 1286.98 Q2216.37 1284.23 2220.95 1279.6 Q2225.56 1274.94 2226.74 1273.6 Q2228.99 1271.08 2229.87 1269.34 Q2230.77 1267.58 2230.77 1265.89 Q2230.77 1263.14 2228.82 1261.4 Q2226.9 1259.67 2223.8 1259.67 Q2221.6 1259.67 2219.15 1260.43 Q2216.72 1261.19 2213.94 1262.74 L2213.94 1258.02 Q2216.76 1256.89 2219.22 1256.31 Q2221.67 1255.73 2223.71 1255.73 Q2229.08 1255.73 2232.27 1258.42 Q2235.47 1261.1 2235.47 1265.59 Q2235.47 1267.72 2234.66 1269.64 Q2233.87 1271.54 2231.76 1274.13 Q2231.19 1274.8 2228.08 1278.02 Q2224.98 1281.22 2219.33 1286.98 Z" fill="#000000" fill-rule="nonzero" fill-opacity="1" /><path clip-path="url(#clip420)" d="M2254.82 1254.9 L2254.82 1297.17 L2245 1297.17 L2245 1293.86 L2250.54 1293.86 L2250.54 1258.21 L2245 1258.21 L2245 1254.9 L2254.82 1254.9 Z" fill="#000000" fill-rule="nonzero" fill-opacity="1" /><polyline clip-path="url(#clip420)" style="stroke:#3da44d; stroke-linecap:round; stroke-linejoin:round; stroke-width:12; stroke-opacity:1; fill:none" points="1994.33,1325.48 2141.24,1325.48 "/>
<path clip-path="url(#clip420)" d="M2165.72 1332.52 L2165.72 1316.83 L2169.98 1316.83 L2169.98 1332.36 Q2169.98 1336.04 2171.42 1337.89 Q2172.85 1339.72 2175.72 1339.72 Q2179.17 1339.72 2181.16 1337.52 Q2183.18 1335.32 2183.18 1331.53 L2183.18 1316.83 L2187.44 1316.83 L2187.44 1342.76 L2183.18 1342.76 L2183.18 1338.77 Q2181.63 1341.13 2179.57 1342.29 Q2177.53 1343.43 2174.82 1343.43 Q2170.35 1343.43 2168.04 1340.65 Q2165.72 1337.87 2165.72 1332.52 M2176.44 1316.2 L2176.44 1316.2 Z" fill="#000000" fill-rule="nonzero" fill-opacity="1" /><path clip-path="url(#clip420)" d="M2206.44 1306.78 Q2203.34 1312.11 2201.83 1317.32 Q2200.33 1322.52 2200.33 1327.87 Q2200.33 1333.22 2201.83 1338.47 Q2203.36 1343.7 2206.44 1349.01 L2202.74 1349.01 Q2199.26 1343.57 2197.53 1338.31 Q2195.82 1333.06 2195.82 1327.87 Q2195.82 1322.71 2197.53 1317.48 Q2199.24 1312.25 2202.74 1306.78 L2206.44 1306.78 Z" fill="#000000" fill-rule="nonzero" fill-opacity="1" /><path clip-path="url(#clip420)" d="M2218.92 1309.47 L2218.92 1316.83 L2227.69 1316.83 L2227.69 1320.14 L2218.92 1320.14 L2218.92 1334.21 Q2218.92 1337.38 2219.77 1338.29 Q2220.65 1339.19 2223.32 1339.19 L2227.69 1339.19 L2227.69 1342.76 L2223.32 1342.76 Q2218.38 1342.76 2216.51 1340.93 Q2214.63 1339.07 2214.63 1334.21 L2214.63 1320.14 L2211.51 1320.14 L2211.51 1316.83 L2214.63 1316.83 L2214.63 1309.47 L2218.92 1309.47 Z" fill="#000000" fill-rule="nonzero" fill-opacity="1" /><path clip-path="url(#clip420)" d="M2232.62 1306.78 L2236.32 1306.78 Q2239.8 1312.25 2241.51 1317.48 Q2243.25 1322.71 2243.25 1327.87 Q2243.25 1333.06 2241.51 1338.31 Q2239.8 1343.57 2236.32 1349.01 L2232.62 1349.01 Q2235.7 1343.7 2237.2 1338.47 Q2238.73 1333.22 2238.73 1327.87 Q2238.73 1322.52 2237.2 1317.32 Q2235.7 1312.11 2232.62 1306.78 Z" fill="#000000" fill-rule="nonzero" fill-opacity="1" /></svg>
