<?xml version="1.0" encoding="utf-8"?>
<svg xmlns="http://www.w3.org/2000/svg" xmlns:xlink="http://www.w3.org/1999/xlink" width="600" height="400" viewBox="0 0 2400 1600">
<defs>
  <clipPath id="clip220">
    <rect x="0" y="0" width="2400" height="1600"/>
  </clipPath>
</defs>
<path clip-path="url(#clip220)" d="M0 1600 L2400 1600 L2400 0 L0 0  Z" fill="#ffffff" fill-rule="evenodd" fill-opacity="1"/>
<defs>
  <clipPath id="clip221">
    <rect x="480" y="0" width="1681" height="1600"/>
  </clipPath>
</defs>
<path clip-path="url(#clip220)" d="M149.191 1423.18 L2352.76 1423.18 L2352.76 47.2441 L149.191 47.2441  Z" fill="#ffffff" fill-rule="evenodd" fill-opacity="1"/>
<defs>
  <clipPath id="clip222">
    <rect x="149" y="47" width="2205" height="1377"/>
  </clipPath>
</defs>
<polyline clip-path="url(#clip222)" style="stroke:#000000; stroke-linecap:round; stroke-linejoin:round; stroke-width:2; stroke-opacity:0.1; fill:none" points="149.191,1423.18 149.191,47.2441 "/>
<polyline clip-path="url(#clip222)" style="stroke:#000000; stroke-linecap:round; stroke-linejoin:round; stroke-width:2; stroke-opacity:0.1; fill:none" points="700.082,1423.18 700.082,47.2441 "/>
<polyline clip-path="url(#clip222)" style="stroke:#000000; stroke-linecap:round; stroke-linejoin:round; stroke-width:2; stroke-opacity:0.1; fill:none" points="1250.97,1423.18 1250.97,47.2441 "/>
<polyline clip-path="url(#clip222)" style="stroke:#000000; stroke-linecap:round; stroke-linejoin:round; stroke-width:2; stroke-opacity:0.1; fill:none" points="1801.86,1423.18 1801.86,47.2441 "/>
<polyline clip-path="url(#clip222)" style="stroke:#000000; stroke-linecap:round; stroke-linejoin:round; stroke-width:2; stroke-opacity:0.1; fill:none" points="2352.76,1423.18 2352.76,47.2441 "/>
<polyline clip-path="url(#clip222)" style="stroke:#000000; stroke-linecap:round; stroke-linejoin:round; stroke-width:2; stroke-opacity:0.1; fill:none" points="149.191,1423.18 2352.76,1423.18 "/>
<polyline clip-path="url(#clip222)" style="stroke:#000000; stroke-linecap:round; stroke-linejoin:round; stroke-width:2; stroke-opacity:0.1; fill:none" points="149.191,1193.86 2352.76,1193.86 "/>
<polyline clip-path="url(#clip222)" style="stroke:#000000; stroke-linecap:round; stroke-linejoin:round; stroke-width:2; stroke-opacity:0.1; fill:none" points="149.191,964.535 2352.76,964.535 "/>
<polyline clip-path="url(#clip222)" style="stroke:#000000; stroke-linecap:round; stroke-linejoin:round; stroke-width:2; stroke-opacity:0.1; fill:none" points="149.191,735.212 2352.76,735.212 "/>
<polyline clip-path="url(#clip222)" style="stroke:#000000; stroke-linecap:round; stroke-linejoin:round; stroke-width:2; stroke-opacity:0.1; fill:none" points="149.191,505.889 2352.76,505.889 "/>
<polyline clip-path="url(#clip222)" style="stroke:#000000; stroke-linecap:round; stroke-linejoin:round; stroke-width:2; stroke-opacity:0.1; fill:none" points="149.191,276.567 2352.76,276.567 "/>
<polyline clip-path="url(#clip222)" style="stroke:#000000; stroke-linecap:round; stroke-linejoin:round; stroke-width:2; stroke-opacity:0.1; fill:none" points="149.191,47.2441 2352.76,47.2441 "/>
<polyline clip-path="url(#clip220)" style="stroke:#000000; stroke-linecap:round; stroke-linejoin:round; stroke-width:4; stroke-opacity:1; fill:none" points="149.191,1423.18 2352.76,1423.18 "/>
<polyline clip-path="url(#clip220)" style="stroke:#000000; stroke-linecap:round; stroke-linejoin:round; stroke-width:4; stroke-opacity:1; fill:none" points="149.191,1423.18 149.191,1404.28 "/>
<polyline clip-path="url(#clip220)" style="stroke:#000000; stroke-linecap:round; stroke-linejoin:round; stroke-width:4; stroke-opacity:1; fill:none" points="700.082,1423.18 700.082,1404.28 "/>
<polyline clip-path="url(#clip220)" style="stroke:#000000; stroke-linecap:round; stroke-linejoin:round; stroke-width:4; stroke-opacity:1; fill:none" points="1250.97,1423.18 1250.97,1404.28 "/>
<polyline clip-path="url(#clip220)" style="stroke:#000000; stroke-linecap:round; stroke-linejoin:round; stroke-width:4; stroke-opacity:1; fill:none" points="1801.86,1423.18 1801.86,1404.28 "/>
<polyline clip-path="url(#clip220)" style="stroke:#000000; stroke-linecap:round; stroke-linejoin:round; stroke-width:4; stroke-opacity:1; fill:none" points="2352.76,1423.18 2352.76,1404.28 "/>
<path clip-path="url(#clip220)" d="M149.191 1454.1 Q145.58 1454.1 143.751 1457.66 Q141.946 1461.2 141.946 1468.33 Q141.946 1475.44 143.751 1479.01 Q145.58 1482.55 149.191 1482.55 Q152.825 1482.55 154.631 1479.01 Q156.459 1475.44 156.459 1468.33 Q156.459 1461.2 154.631 1457.66 Q152.825 1454.1 149.191 1454.1 M149.191 1450.39 Q155.001 1450.39 158.057 1455 Q161.135 1459.58 161.135 1468.33 Q161.135 1477.06 158.057 1481.67 Q155.001 1486.25 149.191 1486.25 Q143.381 1486.25 140.302 1481.67 Q137.246 1477.06 137.246 1468.33 Q137.246 1459.58 140.302 1455 Q143.381 1450.39 149.191 1450.39 Z" fill="#000000" fill-rule="nonzero" fill-opacity="1" /><path clip-path="url(#clip220)" d="M694.735 1481.64 L711.054 1481.64 L711.054 1485.58 L689.11 1485.58 L689.11 1481.64 Q691.772 1478.89 696.355 1474.26 Q700.962 1469.61 702.142 1468.27 Q704.388 1465.74 705.267 1464.01 Q706.17 1462.25 706.17 1460.56 Q706.17 1457.8 704.226 1456.07 Q702.304 1454.33 699.203 1454.33 Q697.003 1454.33 694.55 1455.09 Q692.119 1455.86 689.341 1457.41 L689.341 1452.69 Q692.166 1451.55 694.619 1450.97 Q697.073 1450.39 699.11 1450.39 Q704.48 1450.39 707.675 1453.08 Q710.869 1455.77 710.869 1460.26 Q710.869 1462.39 710.059 1464.31 Q709.272 1466.2 707.165 1468.8 Q706.587 1469.47 703.485 1472.69 Q700.383 1475.88 694.735 1481.64 Z" fill="#000000" fill-rule="nonzero" fill-opacity="1" /><path clip-path="url(#clip220)" d="M1253.98 1455.09 L1242.18 1473.54 L1253.98 1473.54 L1253.98 1455.09 M1252.76 1451.02 L1258.64 1451.02 L1258.64 1473.54 L1263.57 1473.54 L1263.57 1477.43 L1258.64 1477.43 L1258.64 1485.58 L1253.98 1485.58 L1253.98 1477.43 L1238.38 1477.43 L1238.38 1472.92 L1252.76 1451.02 Z" fill="#000000" fill-rule="nonzero" fill-opacity="1" /><path clip-path="url(#clip220)" d="M1802.27 1466.44 Q1799.12 1466.44 1797.27 1468.59 Q1795.44 1470.74 1795.44 1474.49 Q1795.44 1478.22 1797.27 1480.39 Q1799.12 1482.55 1802.27 1482.55 Q1805.42 1482.55 1807.25 1480.39 Q1809.1 1478.22 1809.1 1474.49 Q1809.1 1470.74 1807.25 1468.59 Q1805.42 1466.44 1802.27 1466.44 M1811.55 1451.78 L1811.55 1456.04 Q1809.79 1455.21 1807.99 1454.77 Q1806.2 1454.33 1804.45 1454.33 Q1799.82 1454.33 1797.36 1457.45 Q1794.93 1460.58 1794.58 1466.9 Q1795.95 1464.89 1798.01 1463.82 Q1800.07 1462.73 1802.55 1462.73 Q1807.76 1462.73 1810.77 1465.9 Q1813.8 1469.05 1813.8 1474.49 Q1813.8 1479.82 1810.65 1483.03 Q1807.5 1486.25 1802.27 1486.25 Q1796.27 1486.25 1793.1 1481.67 Q1789.93 1477.06 1789.93 1468.33 Q1789.93 1460.14 1793.82 1455.28 Q1797.71 1450.39 1804.26 1450.39 Q1806.02 1450.39 1807.8 1450.74 Q1809.61 1451.09 1811.55 1451.78 Z" fill="#000000" fill-rule="nonzero" fill-opacity="1" /><path clip-path="url(#clip220)" d="M2352.76 1469.17 Q2349.42 1469.17 2347.5 1470.95 Q2345.6 1472.73 2345.6 1475.86 Q2345.6 1478.98 2347.5 1480.77 Q2349.42 1482.55 2352.76 1482.55 Q2356.09 1482.55 2358.01 1480.77 Q2359.93 1478.96 2359.93 1475.86 Q2359.93 1472.73 2358.01 1470.95 Q2356.11 1469.17 2352.76 1469.17 M2348.08 1467.18 Q2345.07 1466.44 2343.38 1464.38 Q2341.71 1462.32 2341.71 1459.35 Q2341.71 1455.21 2344.65 1452.8 Q2347.62 1450.39 2352.76 1450.39 Q2357.92 1450.39 2360.86 1452.8 Q2363.8 1455.21 2363.8 1459.35 Q2363.8 1462.32 2362.11 1464.38 Q2360.44 1466.44 2357.45 1467.18 Q2360.83 1467.96 2362.71 1470.26 Q2364.61 1472.55 2364.61 1475.86 Q2364.61 1480.88 2361.53 1483.57 Q2358.47 1486.25 2352.76 1486.25 Q2347.04 1486.25 2343.96 1483.57 Q2340.9 1480.88 2340.9 1475.86 Q2340.9 1472.55 2342.8 1470.26 Q2344.7 1467.96 2348.08 1467.18 M2346.37 1459.79 Q2346.37 1462.48 2348.03 1463.98 Q2349.72 1465.49 2352.76 1465.49 Q2355.77 1465.49 2357.45 1463.98 Q2359.17 1462.48 2359.17 1459.79 Q2359.17 1457.11 2357.45 1455.6 Q2355.77 1454.1 2352.76 1454.1 Q2349.72 1454.1 2348.03 1455.6 Q2346.37 1457.11 2346.37 1459.79 Z" fill="#000000" fill-rule="nonzero" fill-opacity="1" /><path clip-path="url(#clip220)" d="M1250.03 1522.27 L1250.03 1532.4 L1262.1 1532.4 L1262.1 1536.95 L1250.03 1536.95 L1250.03 1556.3 Q1250.03 1560.66 1251.21 1561.9 Q1252.42 1563.14 1256.08 1563.14 L1262.1 1563.14 L1262.1 1568.04 L1256.08 1568.04 Q1249.3 1568.04 1246.72 1565.53 Q1244.15 1562.98 1244.15 1556.3 L1244.15 1536.95 L1239.85 1536.95 L1239.85 1532.4 L1244.15 1532.4 L1244.15 1522.27 L1250.03 1522.27 Z" fill="#000000" fill-rule="nonzero" fill-opacity="1" /><polyline clip-path="url(#clip220)" style="stroke:#000000; stroke-linecap:round; stroke-linejoin:round; stroke-width:4; stroke-opacity:1; fill:none" points="149.191,1423.18 149.191,47.2441 "/>
<polyline clip-path="url(#clip220)" style="stroke:#000000; stroke-linecap:round; stroke-linejoin:round; stroke-width:4; stroke-opacity:1; fill:none" points="149.191,1423.18 168.089,1423.18 "/>
<polyline clip-path="url(#clip220)" style="stroke:#000000; stroke-linecap:round; stroke-linejoin:round; stroke-width:4; stroke-opacity:1; fill:none" points="149.191,1193.86 168.089,1193.86 "/>
<polyline clip-path="url(#clip220)" style="stroke:#000000; stroke-linecap:round; stroke-linejoin:round; stroke-width:4; stroke-opacity:1; fill:none" points="149.191,964.535 168.089,964.535 "/>
<polyline clip-path="url(#clip220)" style="stroke:#000000; stroke-linecap:round; stroke-linejoin:round; stroke-width:4; stroke-opacity:1; fill:none" points="149.191,735.212 168.089,735.212 "/>
<polyline clip-path="url(#clip220)" style="stroke:#000000; stroke-linecap:round; stroke-linejoin:round; stroke-width:4; stroke-opacity:1; fill:none" points="149.191,505.889 168.089,505.889 "/>
<polyline clip-path="url(#clip220)" style="stroke:#000000; stroke-linecap:round; stroke-linejoin:round; stroke-width:4; stroke-opacity:1; fill:none" points="149.191,276.567 168.089,276.567 "/>
<polyline clip-path="url(#clip220)" style="stroke:#000000; stroke-linecap:round; stroke-linejoin:round; stroke-width:4; stroke-opacity:1; fill:none" points="149.191,47.2441 168.089,47.2441 "/>
<path clip-path="url(#clip220)" d="M51.3162 1423.63 L80.992 1423.63 L80.992 1427.57 L51.3162 1427.57 L51.3162 1423.63 Z" fill="#000000" fill-rule="nonzero" fill-opacity="1" /><path clip-path="url(#clip220)" d="M101.663 1421.32 Q98.515 1421.32 96.6632 1423.47 Q94.8345 1425.62 94.8345 1429.37 Q94.8345 1433.1 96.6632 1435.27 Q98.515 1437.43 101.663 1437.43 Q104.811 1437.43 106.64 1435.27 Q108.492 1433.1 108.492 1429.37 Q108.492 1425.62 106.64 1423.47 Q104.811 1421.32 101.663 1421.32 M110.946 1406.66 L110.946 1410.92 Q109.186 1410.09 107.381 1409.65 Q105.598 1409.21 103.839 1409.21 Q99.2095 1409.21 96.7558 1412.33 Q94.3252 1415.46 93.978 1421.78 Q95.3437 1419.77 97.4039 1418.7 Q99.4641 1417.61 101.941 1417.61 Q107.149 1417.61 110.158 1420.78 Q113.191 1423.93 113.191 1429.37 Q113.191 1434.7 110.043 1437.91 Q106.895 1441.13 101.663 1441.13 Q95.6678 1441.13 92.4965 1436.55 Q89.3253 1431.94 89.3253 1423.21 Q89.3253 1415.02 93.2141 1410.16 Q97.103 1405.27 103.654 1405.27 Q105.413 1405.27 107.196 1405.62 Q109.001 1405.97 110.946 1406.66 Z" fill="#000000" fill-rule="nonzero" fill-opacity="1" /><path clip-path="url(#clip220)" d="M50.9921 1194.31 L80.6679 1194.31 L80.6679 1198.24 L50.9921 1198.24 L50.9921 1194.31 Z" fill="#000000" fill-rule="nonzero" fill-opacity="1" /><path clip-path="url(#clip220)" d="M103.608 1180.65 L91.8021 1199.1 L103.608 1199.1 L103.608 1180.65 M102.381 1176.58 L108.26 1176.58 L108.26 1199.1 L113.191 1199.1 L113.191 1202.99 L108.26 1202.99 L108.26 1211.14 L103.608 1211.14 L103.608 1202.99 L88.0058 1202.99 L88.0058 1198.48 L102.381 1176.58 Z" fill="#000000" fill-rule="nonzero" fill-opacity="1" /><path clip-path="url(#clip220)" d="M53.0754 964.986 L82.7512 964.986 L82.7512 968.921 L53.0754 968.921 L53.0754 964.986 Z" fill="#000000" fill-rule="nonzero" fill-opacity="1" /><path clip-path="url(#clip220)" d="M96.8715 977.879 L113.191 977.879 L113.191 981.815 L91.2465 981.815 L91.2465 977.879 Q93.9086 975.125 98.4919 970.495 Q103.098 965.842 104.279 964.5 Q106.524 961.977 107.404 960.241 Q108.307 958.481 108.307 956.792 Q108.307 954.037 106.362 952.301 Q104.441 950.565 101.339 950.565 Q99.14 950.565 96.6863 951.329 Q94.2558 952.093 91.478 953.643 L91.478 948.921 Q94.3021 947.787 96.7558 947.208 Q99.2095 946.63 101.246 946.63 Q106.617 946.63 109.811 949.315 Q113.006 952 113.006 956.491 Q113.006 958.62 112.196 960.542 Q111.408 962.44 109.302 965.032 Q108.723 965.704 105.621 968.921 Q102.52 972.116 96.8715 977.879 Z" fill="#000000" fill-rule="nonzero" fill-opacity="1" /><path clip-path="url(#clip220)" d="M101.246 721.011 Q97.6354 721.011 95.8067 724.575 Q94.0012 728.117 94.0012 735.247 Q94.0012 742.353 95.8067 745.918 Q97.6354 749.46 101.246 749.46 Q104.881 749.46 106.686 745.918 Q108.515 742.353 108.515 735.247 Q108.515 728.117 106.686 724.575 Q104.881 721.011 101.246 721.011 M101.246 717.307 Q107.057 717.307 110.112 721.913 Q113.191 726.497 113.191 735.247 Q113.191 743.973 110.112 748.58 Q107.057 753.163 101.246 753.163 Q95.4363 753.163 92.3576 748.58 Q89.3021 743.973 89.3021 735.247 Q89.3021 726.497 92.3576 721.913 Q95.4363 717.307 101.246 717.307 Z" fill="#000000" fill-rule="nonzero" fill-opacity="1" /><path clip-path="url(#clip220)" d="M96.8715 519.234 L113.191 519.234 L113.191 523.169 L91.2465 523.169 L91.2465 519.234 Q93.9086 516.48 98.4919 511.85 Q103.098 507.197 104.279 505.855 Q106.524 503.331 107.404 501.595 Q108.307 499.836 108.307 498.146 Q108.307 495.392 106.362 493.656 Q104.441 491.92 101.339 491.92 Q99.14 491.92 96.6863 492.683 Q94.2558 493.447 91.478 494.998 L91.478 490.276 Q94.3021 489.142 96.7558 488.563 Q99.2095 487.984 101.246 487.984 Q106.617 487.984 109.811 490.67 Q113.006 493.355 113.006 497.845 Q113.006 499.975 112.196 501.896 Q111.408 503.794 109.302 506.387 Q108.723 507.058 105.621 510.276 Q102.52 513.47 96.8715 519.234 Z" fill="#000000" fill-rule="nonzero" fill-opacity="1" /><path clip-path="url(#clip220)" d="M103.608 263.361 L91.8021 281.81 L103.608 281.81 L103.608 263.361 M102.381 259.287 L108.26 259.287 L108.26 281.81 L113.191 281.81 L113.191 285.699 L108.26 285.699 L108.26 293.847 L103.608 293.847 L103.608 285.699 L88.0058 285.699 L88.0058 281.185 L102.381 259.287 Z" fill="#000000" fill-rule="nonzero" fill-opacity="1" /><path clip-path="url(#clip220)" d="M101.663 45.3807 Q98.515 45.3807 96.6632 47.5334 Q94.8345 49.6862 94.8345 53.4362 Q94.8345 57.163 96.6632 59.3389 Q98.515 61.4917 101.663 61.4917 Q104.811 61.4917 106.64 59.3389 Q108.492 57.163 108.492 53.4362 Q108.492 49.6862 106.64 47.5334 Q104.811 45.3807 101.663 45.3807 M110.946 30.728 L110.946 34.9872 Q109.186 34.1539 107.381 33.7141 Q105.598 33.2743 103.839 33.2743 Q99.2095 33.2743 96.7558 36.3992 Q94.3252 39.5242 93.978 45.8436 Q95.3437 43.8298 97.4039 42.765 Q99.4641 41.677 101.941 41.677 Q107.149 41.677 110.158 44.8483 Q113.191 47.9964 113.191 53.4362 Q113.191 58.7602 110.043 61.9778 Q106.895 65.1954 101.663 65.1954 Q95.6678 65.1954 92.4965 60.6121 Q89.3253 56.0056 89.3253 47.2788 Q89.3253 39.0844 93.2141 34.2233 Q97.103 29.3391 103.654 29.3391 Q105.413 29.3391 107.196 29.6863 Q109.001 30.0335 110.946 30.728 Z" fill="#000000" fill-rule="nonzero" fill-opacity="1" /><polyline clip-path="url(#clip222)" style="stroke:#009af9; stroke-linecap:round; stroke-linejoin:round; stroke-width:12; stroke-opacity:1; fill:none" points="149.191,1193.86 151.945,1191.93 154.7,1187.8 157.454,1182.82 160.209,1177.52 162.963,1172.11 165.718,1166.65 168.472,1161.17 171.227,1155.68 173.981,1150.19 176.735,1144.69 179.49,1139.19 182.244,1133.69 184.999,1128.19 187.753,1122.68 190.508,1117.18 193.262,1111.68 196.017,1106.18 198.771,1100.68 201.526,1095.17 204.28,1089.67 207.034,1084.17 209.789,1078.67 212.543,1073.18 215.298,1067.68 218.052,1062.2 220.807,1056.72 223.561,1051.25 226.316,1045.79 229.07,1040.34 231.825,1034.91 234.579,1029.5 237.333,1024.12 240.088,1018.75 242.842,1013.41 245.597,1008.1 248.351,1002.82 251.106,997.568 253.86,992.35 256.615,987.166 259.369,982.017 262.124,976.903 264.878,971.827 267.632,966.787 270.387,961.786 273.141,956.822 275.896,951.897 278.65,947.011 281.405,942.162 284.159,937.352 286.914,932.58 289.668,927.847 292.423,923.15 295.177,918.491 297.932,913.869 300.686,909.284 303.44,904.734 306.195,900.221 308.949,895.743 311.704,891.299 314.458,886.89 317.213,882.515 319.967,878.174 322.722,873.866 325.476,869.59 328.231,865.347 330.985,861.135 333.739,856.954 336.494,852.803 339.248,848.683 342.003,844.593 344.757,840.532 347.512,836.499 350.266,832.496 353.021,828.52 355.775,824.573 358.53,820.653 361.284,816.76 364.038,812.893 366.793,809.053 369.547,805.239 372.302,801.451 375.056,797.688 377.811,793.951 380.565,790.238 383.32,786.55 386.074,782.886 388.829,779.246 391.583,775.63 394.337,772.037 397.092,768.468 399.846,764.922 402.601,761.399 405.355,757.899 408.11,754.421 410.864,750.965 413.619,747.531 416.373,744.12 419.128,740.73 421.882,737.362 424.636,734.015 427.391,730.69 430.145,727.386 432.9,724.103 435.654,720.84 438.409,717.599 441.163,714.378 443.918,711.177 446.672,707.997 449.427,704.837 452.181,701.697 454.936,698.577 457.69,695.477 460.444,692.397 463.199,689.336 465.953,686.295 468.708,683.273 471.462,680.271 474.217,677.288 476.971,674.324 479.726,671.379 482.48,668.454 485.235,665.547 487.989,662.659 490.743,659.79 493.498,656.939 496.252,654.107 499.007,651.294 501.761,648.499 504.516,645.723 507.27,642.965 510.025,640.225 512.779,637.503 515.534,634.8 518.288,632.114 521.042,629.447 523.797,626.797 526.551,624.165 529.306,621.551 532.06,618.955 534.815,616.376 537.569,613.815 540.324,611.271 543.078,608.745 545.833,606.236 548.587,603.744 551.341,601.27 554.096,598.813 556.85,596.372 559.605,593.949 562.359,591.543 565.114,589.154 567.868,586.781 570.623,584.425 573.377,582.086 576.132,579.764 578.886,577.458 581.641,575.169 584.395,572.896 587.149,570.639 589.904,568.399 592.658,566.175 595.413,563.967 598.167,561.775 600.922,559.599 603.676,557.44 606.431,555.296 609.185,553.168 611.94,551.056 614.694,548.959 617.448,546.878 620.203,544.813 622.957,542.763 625.712,540.728 628.466,538.709 631.221,536.705 633.975,534.716 636.73,532.743 639.484,530.784 642.239,528.841 644.993,526.912 647.747,524.998 650.502,523.099 653.256,521.215 656.011,519.345 658.765,517.49 661.52,515.649 664.274,513.823 667.029,512.011 669.783,510.213 672.538,508.43 675.292,506.66 678.046,504.905 680.801,503.164 683.555,501.436 686.31,499.723 689.064,498.023 691.819,496.336 694.573,494.664 697.328,493.004 700.082,491.359 702.837,489.726 705.591,488.107 708.345,486.501 711.1,484.909 713.854,483.329 716.609,481.763 719.363,480.209 722.118,478.668 724.872,477.14 727.627,475.624 730.381,474.121 733.136,472.631 735.89,471.153 738.645,469.687 741.399,468.234 744.153,466.793 746.908,465.364 749.662,463.948 752.417,462.543 755.171,461.15 757.926,459.769 760.68,458.4 763.435,457.042 766.189,455.696 768.944,454.362 771.698,453.038 774.452,451.727 777.207,450.427 779.961,449.137 782.716,447.86 785.47,446.593 788.225,445.337 790.979,444.092 793.734,442.858 796.488,441.634 799.243,440.422 801.997,439.22 804.751,438.028 807.506,436.847 810.26,435.676 813.015,434.516 815.769,433.366 818.524,432.226 821.278,431.096 824.033,429.977 826.787,428.867 829.542,427.767 832.296,426.677 835.05,425.597 837.805,424.526 840.559,423.465 843.314,422.413 846.068,421.371 848.823,420.338 851.577,419.315 854.332,418.301 857.086,417.296 859.841,416.3 862.595,415.313 865.349,414.335 868.104,413.366 870.858,412.405 873.613,411.454 876.367,410.511 879.122,409.577 881.876,408.651 884.631,407.734 887.385,406.825 890.14,405.925 892.894,405.032 895.649,404.148 898.403,403.272 901.157,402.405 903.912,401.545 906.666,400.693 909.421,399.849 912.175,399.012 914.93,398.184 917.684,397.363 920.439,396.55 923.193,395.744 925.948,394.946 928.702,394.155 931.456,393.371 934.211,392.595 936.965,391.826 939.72,391.064 942.474,390.309 945.229,389.561 947.983,388.821 950.738,388.087 953.492,387.359 956.247,386.639 959.001,385.925 961.755,385.218 964.51,384.518 967.264,383.824 970.019,383.136 972.773,382.455 975.528,381.78 978.282,381.112 981.037,380.45 983.791,379.794 986.546,379.144 989.3,378.5 992.054,377.862 994.809,377.23 997.563,376.604 1000.32,375.984 1003.07,375.37 1005.83,374.761 1008.58,374.158 1011.34,373.561 1014.09,372.969 1016.84,372.383 1019.6,371.802 1022.35,371.227 1025.11,370.657 1027.86,370.092 1030.62,369.533 1033.37,368.978 1036.13,368.429 1038.88,367.885 1041.63,367.346 1044.39,366.812 1047.14,366.283 1049.9,365.759 1052.65,365.24 1055.41,364.725 1058.16,364.215 1060.92,363.71 1063.67,363.21 1066.42,362.714 1069.18,362.223 1071.93,361.736 1074.69,361.254 1077.44,360.776 1080.2,360.302 1082.95,359.833 1085.71,359.368 1088.46,358.908 1091.21,358.451 1093.97,357.999 1096.72,357.55 1099.48,357.106 1102.23,356.666 1104.99,356.23 1107.74,355.797 1110.5,355.369 1113.25,354.945 1116.01,354.524 1118.76,354.107 1121.51,353.693 1124.27,353.284 1127.02,352.878 1129.78,352.475 1132.53,352.076 1135.29,351.681 1138.04,351.289 1140.8,350.901 1143.55,350.516 1146.3,350.134 1149.06,349.756 1151.81,349.381 1154.57,349.009 1157.32,348.64 1160.08,348.274 1162.83,347.912 1165.59,347.553 1168.34,347.197 1171.09,346.844 1173.85,346.493 1176.6,346.146 1179.36,345.802 1182.11,345.46 1184.87,345.122 1187.62,344.786 1190.38,344.453 1193.13,344.123 1195.88,343.795 1198.64,343.47 1201.39,343.148 1204.15,342.829 1206.9,342.512 1209.66,342.197 1212.41,341.885 1215.17,341.576 1217.92,341.269 1220.67,340.964 1223.43,340.662 1226.18,340.362 1228.94,340.065 1231.69,339.77 1234.45,339.477 1237.2,339.186 1239.96,338.898 1242.71,338.612 1245.46,338.328 1248.22,338.046 1250.97,337.766 1253.73,337.489 1256.48,337.213 1259.24,336.94 1261.99,336.668 1264.75,336.399 1267.5,336.131 1270.25,335.865 1273.01,335.602 1275.76,335.34 1278.52,335.08 1281.27,334.822 1284.03,334.566 1286.78,334.311 1289.54,334.058 1292.29,333.807 1295.04,333.558 1297.8,333.31 1300.55,333.064 1303.31,332.82 1306.06,332.577 1308.82,332.336 1311.57,332.097 1314.33,331.859 1317.08,331.623 1319.83,331.388 1322.59,331.155 1325.34,330.923 1328.1,330.692 1330.85,330.463 1333.61,330.236 1336.36,330.009 1339.12,329.785 1341.87,329.561 1344.62,329.339 1347.38,329.118 1350.13,328.899 1352.89,328.68 1355.64,328.463 1358.4,328.247 1361.15,328.033 1363.91,327.819 1366.66,327.607 1369.41,327.396 1372.17,327.186 1374.92,326.978 1377.68,326.77 1380.43,326.563 1383.19,326.358 1385.94,326.153 1388.7,325.95 1391.45,325.747 1394.21,325.546 1396.96,325.346 1399.71,325.146 1402.47,324.948 1405.22,324.75 1407.98,324.554 1410.73,324.358 1413.49,324.163 1416.24,323.969 1419,323.776 1421.75,323.584 1424.5,323.393 1427.26,323.202 1430.01,323.013 1432.77,322.824 1435.52,322.636 1438.28,322.448 1441.03,322.262 1443.79,322.076 1446.54,321.891 1449.29,321.707 1452.05,321.523 1454.8,321.34 1457.56,321.158 1460.31,320.976 1463.07,320.795 1465.82,320.615 1468.58,320.435 1471.33,320.256 1474.08,320.078 1476.84,319.9 1479.59,319.723 1482.35,319.547 1485.1,319.371 1487.86,319.195 1490.61,319.021 1493.37,318.846 1496.12,318.673 1498.87,318.499 1501.63,318.327 1504.38,318.155 1507.14,317.983 1509.89,317.812 1512.65,317.641 1515.4,317.471 1518.16,317.302 1520.91,317.133 1523.66,316.964 1526.42,316.796 1529.17,316.628 1531.93,316.46 1534.68,316.294 1537.44,316.127 1540.19,315.961 1542.95,315.795 1545.7,315.63 1548.45,315.465 1551.21,315.3 1553.96,315.136 1556.72,314.972 1559.47,314.808 1562.23,314.645 1564.98,314.482 1567.74,314.319 1570.49,314.157 1573.24,313.995 1576,313.834 1578.75,313.672 1581.51,313.512 1584.26,313.351 1587.02,313.19 1589.77,313.03 1592.53,312.87 1595.28,312.711 1598.03,312.552 1600.79,312.393 1603.54,312.234 1606.3,312.075 1609.05,311.917 1611.81,311.759 1614.56,311.601 1617.32,311.444 1620.07,311.286 1622.82,311.129 1625.58,310.972 1628.33,310.816 1631.09,310.659 1633.84,310.503 1636.6,310.347 1639.35,310.191 1642.11,310.035 1644.86,309.88 1647.62,309.725 1650.37,309.569 1653.12,309.414 1655.88,309.26 1658.63,309.105 1661.39,308.951 1664.14,308.796 1666.9,308.642 1669.65,308.488 1672.41,308.334 1675.16,308.18 1677.91,308.027 1680.67,307.873 1683.42,307.72 1686.18,307.567 1688.93,307.413 1691.69,307.261 1694.44,307.108 1697.2,306.955 1699.95,306.802 1702.7,306.65 1705.46,306.497 1708.21,306.345 1710.97,306.192 1713.72,306.04 1716.48,305.888 1719.23,305.736 1721.99,305.584 1724.74,305.432 1727.49,305.281 1730.25,305.129 1733,304.977 1735.76,304.826 1738.51,304.674 1741.27,304.523 1744.02,304.372 1746.78,304.22 1749.53,304.069 1752.28,303.918 1755.04,303.767 1757.79,303.616 1760.55,303.465 1763.3,303.314 1766.06,303.163 1768.81,303.012 1771.57,302.861 1774.32,302.71 1777.07,302.559 1779.83,302.409 1782.58,302.258 1785.34,302.107 1788.09,301.957 1790.85,301.806 1793.6,301.656 1796.36,301.505 1799.11,301.355 1801.86,301.204 1804.62,301.054 1807.37,300.903 1810.13,300.753 1812.88,300.603 1815.64,300.452 1818.39,300.302 1821.15,300.152 1823.9,300.001 1826.65,299.851 1829.41,299.701 1832.16,299.551 1834.92,299.4 1837.67,299.25 1840.43,299.1 1843.18,298.95 1845.94,298.8 1848.69,298.65 1851.44,298.5 1854.2,298.35 1856.95,298.2 1859.71,298.05 1862.46,297.9 1865.22,297.75 1867.97,297.6 1870.73,297.45 1873.48,297.3 1876.23,297.15 1878.99,297 1881.74,296.85 1884.5,296.701 1887.25,296.551 1890.01,296.401 1892.76,296.251 1895.52,296.101 1898.27,295.952 1901.03,295.802 1903.78,295.652 1906.53,295.503 1909.29,295.353 1912.04,295.203 1914.8,295.053 1917.55,294.904 1920.31,294.754 1923.06,294.604 1925.82,294.455 1928.57,294.305 1931.32,294.155 1934.08,294.006 1936.83,293.856 1939.59,293.706 1942.34,293.557 1945.1,293.407 1947.85,293.257 1950.61,293.108 1953.36,292.958 1956.11,292.809 1958.87,292.659 1961.62,292.509 1964.38,292.36 1967.13,292.21 1969.89,292.06 1972.64,291.911 1975.4,291.761 1978.15,291.612 1980.9,291.462 1983.66,291.312 1986.41,291.163 1989.17,291.013 1991.92,290.864 1994.68,290.714 1997.43,290.564 2000.19,290.415 2002.94,290.265 2005.69,290.116 2008.45,289.966 2011.2,289.816 2013.96,289.667 2016.71,289.517 2019.47,289.368 2022.22,289.218 2024.98,289.068 2027.73,288.919 2030.48,288.769 2033.24,288.62 2035.99,288.47 2038.75,288.32 2041.5,288.171 2044.26,288.021 2047.01,287.872 2049.77,287.722 2052.52,287.573 2055.27,287.423 2058.03,287.273 2060.78,287.124 2063.54,286.974 2066.29,286.825 2069.05,286.675 2071.8,286.525 2074.56,286.376 2077.31,286.226 2080.06,286.077 2082.82,285.927 2085.57,285.777 2088.33,285.628 2091.08,285.478 2093.84,285.329 2096.59,285.179 2099.35,285.029 2102.1,284.88 2104.85,284.73 2107.61,284.581 2110.36,284.431 2113.12,284.281 2115.87,284.132 2118.63,283.982 2121.38,283.832 2124.14,283.683 2126.89,283.533 2129.64,283.384 2132.4,283.234 2135.15,283.084 2137.91,282.935 2140.66,282.785 2143.42,282.635 2146.17,282.486 2148.93,282.336 2151.68,282.187 2154.44,282.037 2157.19,281.887 2159.94,281.738 2162.7,281.588 2165.45,281.438 2168.21,281.289 2170.96,281.139 2173.72,280.989 2176.47,280.84 2179.23,280.69 2181.98,280.54 2184.73,280.391 2187.49,280.241 2190.24,280.091 2193,279.942 2195.75,279.792 2198.51,279.642 2201.26,279.493 2204.02,279.343 2206.77,279.193 2209.52,279.044 2212.28,278.894 2215.03,278.744 2217.79,278.595 2220.54,278.445 2223.3,278.295 2226.05,278.146 2228.81,277.996 2231.56,277.846 2234.31,277.697 2237.07,277.547 2239.82,277.397 2242.58,277.248 2245.33,277.098 2248.09,276.948 2250.84,276.798 2253.6,276.649 2256.35,276.499 2259.1,276.349 2261.86,276.2 2264.61,276.05 2267.37,275.9 2270.12,275.75 2272.88,275.601 2275.63,275.451 2278.39,275.301 2281.14,275.151 2283.89,275.002 2286.65,274.852 2289.4,274.702 2292.16,274.552 2294.91,274.403 2297.67,274.253 2300.42,274.103 2303.18,273.953 2305.93,273.803 2308.68,273.654 2311.44,273.504 2314.19,273.354 2316.95,273.204 2319.7,273.054 2322.46,272.904 2325.21,272.755 2327.97,272.605 2330.72,272.455 2333.47,272.305 2336.23,272.155 2338.98,272.005 2341.74,271.855 2344.49,271.705 2347.25,271.555 2350,271.405 2352.76,271.255 "/>
<polyline clip-path="url(#clip222)" style="stroke:#e26f46; stroke-linecap:round; stroke-linejoin:round; stroke-width:12; stroke-opacity:1; fill:none" points="149.191,735.212 151.945,399.048 154.7,265.714 157.454,216.241 160.209,198.055 162.963,191.033 165.718,188.08 168.472,186.68 171.227,185.953 173.981,185.537 176.735,185.292 179.49,185.151 182.244,185.073 184.999,185.035 187.753,185.022 190.508,185.018 193.262,185.017 196.017,185.018 198.771,185.023 201.526,185.04 204.28,185.089 207.034,185.199 209.789,185.4 212.543,185.72 215.298,186.185 218.052,186.821 220.807,187.651 223.561,188.698 226.316,189.982 229.07,191.508 231.825,193.277 234.579,195.284 237.333,197.522 240.088,199.983 242.842,202.653 245.597,205.518 248.351,208.558 251.106,211.753 253.86,215.084 256.615,218.535 259.369,222.085 262.124,225.719 264.878,229.42 267.632,233.173 270.387,236.965 273.141,240.783 275.896,244.617 278.65,248.456 281.405,252.291 284.159,256.114 286.914,259.919 289.668,263.699 292.423,267.449 295.177,271.165 297.932,274.845 300.686,278.487 303.44,282.087 306.195,285.644 308.949,289.157 311.704,292.624 314.458,296.043 317.213,299.415 319.967,302.739 322.722,306.014 325.476,309.242 328.231,312.421 330.985,315.555 333.739,318.643 336.494,321.687 339.248,324.687 342.003,327.645 344.757,330.561 347.512,333.436 350.266,336.272 353.021,339.07 355.775,341.83 358.53,344.553 361.284,347.242 364.038,349.897 366.793,352.518 369.547,355.108 372.302,357.666 375.056,360.195 377.811,362.694 380.565,365.166 383.32,367.61 386.074,370.028 388.829,372.421 391.583,374.79 394.337,377.135 397.092,379.458 399.846,381.76 402.601,384.04 405.355,386.3 408.11,388.541 410.864,390.763 413.619,392.967 416.373,395.153 419.128,397.322 421.882,399.474 424.636,401.611 427.391,403.732 430.145,405.838 432.9,407.93 435.654,410.009 438.409,412.074 441.163,414.125 443.918,416.165 446.672,418.192 449.427,420.208 452.181,422.212 454.936,424.205 457.69,426.187 460.444,428.16 463.199,430.122 465.953,432.074 468.708,434.017 471.462,435.95 474.217,437.875 476.971,439.79 479.726,441.697 482.48,443.595 485.235,445.485 487.989,447.367 490.743,449.24 493.498,451.106 496.252,452.964 499.007,454.814 501.761,456.657 504.516,458.492 507.27,460.32 510.025,462.141 512.779,463.955 515.534,465.761 518.288,467.561 521.042,469.353 523.797,471.139 526.551,472.917 529.306,474.689 532.06,476.454 534.815,478.213 537.569,479.965 540.324,481.71 543.078,483.448 545.833,485.18 548.587,486.906 551.341,488.624 554.096,490.337 556.85,492.042 559.605,493.741 562.359,495.434 565.114,497.12 567.868,498.8 570.623,500.473 573.377,502.139 576.132,503.799 578.886,505.452 581.641,507.099 584.395,508.739 587.149,510.372 589.904,511.999 592.658,513.619 595.413,515.232 598.167,516.839 600.922,518.438 603.676,520.031 606.431,521.618 609.185,523.197 611.94,524.769 614.694,526.335 617.448,527.894 620.203,529.445 622.957,530.99 625.712,532.528 628.466,534.058 631.221,535.582 633.975,537.098 636.73,538.608 639.484,540.11 642.239,541.605 644.993,543.093 647.747,544.573 650.502,546.047 653.256,547.513 656.011,548.972 658.765,550.423 661.52,551.867 664.274,553.304 667.029,554.734 669.783,556.156 672.538,557.571 675.292,558.978 678.046,560.378 680.801,561.771 683.555,563.156 686.31,564.534 689.064,565.904 691.819,567.266 694.573,568.621 697.328,569.969 700.082,571.309 702.837,572.642 705.591,573.967 708.345,575.284 711.1,576.594 713.854,577.896 716.609,579.191 719.363,580.478 722.118,581.757 724.872,583.029 727.627,584.293 730.381,585.549 733.136,586.798 735.89,588.04 738.645,589.273 741.399,590.499 744.153,591.717 746.908,592.928 749.662,594.131 752.417,595.326 755.171,596.514 757.926,597.694 760.68,598.866 763.435,600.03 766.189,601.188 768.944,602.337 771.698,603.479 774.452,604.613 777.207,605.74 779.961,606.859 782.716,607.97 785.47,609.074 788.225,610.17 790.979,611.259 793.734,612.34 796.488,613.414 799.243,614.481 801.997,615.539 804.751,616.591 807.506,617.635 810.26,618.671 813.015,619.7 815.769,620.722 818.524,621.736 821.278,622.743 824.033,623.743 826.787,624.735 829.542,625.72 832.296,626.697 835.05,627.668 837.805,628.631 840.559,629.587 843.314,630.535 846.068,631.476 848.823,632.411 851.577,633.338 854.332,634.258 857.086,635.17 859.841,636.076 862.595,636.975 865.349,637.866 868.104,638.751 870.858,639.628 873.613,640.499 876.367,641.362 879.122,642.219 881.876,643.069 884.631,643.912 887.385,644.748 890.14,645.577 892.894,646.399 895.649,647.215 898.403,648.024 901.157,648.826 903.912,649.621 906.666,650.41 909.421,651.192 912.175,651.968 914.93,652.737 917.684,653.499 920.439,654.255 923.193,655.005 925.948,655.747 928.702,656.484 931.456,657.214 934.211,657.938 936.965,658.656 939.72,659.367 942.474,660.072 945.229,660.771 947.983,661.463 950.738,662.15 953.492,662.83 956.247,663.504 959.001,664.173 961.755,664.835 964.51,665.491 967.264,666.141 970.019,666.786 972.773,667.424 975.528,668.056 978.282,668.683 981.037,669.304 983.791,669.919 986.546,670.528 989.3,671.132 992.054,671.73 994.809,672.322 997.563,672.909 1000.32,673.49 1003.07,674.066 1005.83,674.636 1008.58,675.201 1011.34,675.76 1014.09,676.314 1016.84,676.862 1019.6,677.405 1022.35,677.943 1025.11,678.476 1027.86,679.003 1030.62,679.526 1033.37,680.043 1036.13,680.555 1038.88,681.061 1041.63,681.563 1044.39,682.06 1047.14,682.552 1049.9,683.039 1052.65,683.52 1055.41,683.997 1058.16,684.47 1060.92,684.937 1063.67,685.399 1066.42,685.857 1069.18,686.31 1071.93,686.759 1074.69,687.202 1077.44,687.641 1080.2,688.076 1082.95,688.506 1085.71,688.931 1088.46,689.352 1091.21,689.768 1093.97,690.18 1096.72,690.588 1099.48,690.991 1102.23,691.39 1104.99,691.785 1107.74,692.175 1110.5,692.561 1113.25,692.943 1116.01,693.32 1118.76,693.694 1121.51,694.063 1124.27,694.429 1127.02,694.79 1129.78,695.147 1132.53,695.5 1135.29,695.85 1138.04,696.195 1140.8,696.537 1143.55,696.874 1146.3,697.208 1149.06,697.538 1151.81,697.864 1154.57,698.187 1157.32,698.506 1160.08,698.821 1162.83,699.132 1165.59,699.44 1168.34,699.744 1171.09,700.045 1173.85,700.342 1176.6,700.636 1179.36,700.926 1182.11,701.213 1184.87,701.496 1187.62,701.776 1190.38,702.053 1193.13,702.326 1195.88,702.596 1198.64,702.863 1201.39,703.127 1204.15,703.387 1206.9,703.645 1209.66,703.899 1212.41,704.15 1215.17,704.398 1217.92,704.642 1220.67,704.884 1223.43,705.123 1226.18,705.359 1228.94,705.592 1231.69,705.822 1234.45,706.049 1237.2,706.273 1239.96,706.494 1242.71,706.713 1245.46,706.929 1248.22,707.142 1250.97,707.352 1253.73,707.56 1256.48,707.764 1259.24,707.967 1261.99,708.166 1264.75,708.363 1267.5,708.558 1270.25,708.749 1273.01,708.939 1275.76,709.125 1278.52,709.31 1281.27,709.492 1284.03,709.671 1286.78,709.848 1289.54,710.023 1292.29,710.195 1295.04,710.365 1297.8,710.532 1300.55,710.698 1303.31,710.861 1306.06,711.022 1308.82,711.18 1311.57,711.337 1314.33,711.491 1317.08,711.643 1319.83,711.793 1322.59,711.941 1325.34,712.086 1328.1,712.23 1330.85,712.372 1333.61,712.511 1336.36,712.649 1339.12,712.784 1341.87,712.918 1344.62,713.05 1347.38,713.18 1350.13,713.308 1352.89,713.434 1355.64,713.558 1358.4,713.68 1361.15,713.801 1363.91,713.92 1366.66,714.037 1369.41,714.152 1372.17,714.266 1374.92,714.377 1377.68,714.488 1380.43,714.596 1383.19,714.703 1385.94,714.808 1388.7,714.912 1391.45,715.014 1394.21,715.114 1396.96,715.213 1399.71,715.31 1402.47,715.406 1405.22,715.5 1407.98,715.593 1410.73,715.685 1413.49,715.775 1416.24,715.863 1419,715.95 1421.75,716.036 1424.5,716.12 1427.26,716.203 1430.01,716.285 1432.77,716.365 1435.52,716.444 1438.28,716.521 1441.03,716.598 1443.79,716.673 1446.54,716.747 1449.29,716.819 1452.05,716.891 1454.8,716.961 1457.56,717.03 1460.31,717.098 1463.07,717.165 1465.82,717.23 1468.58,717.295 1471.33,717.358 1474.08,717.42 1476.84,717.481 1479.59,717.541 1482.35,717.6 1485.1,717.658 1487.86,717.715 1490.61,717.771 1493.37,717.826 1496.12,717.88 1498.87,717.933 1501.63,717.985 1504.38,718.036 1507.14,718.086 1509.89,718.136 1512.65,718.184 1515.4,718.231 1518.16,718.278 1520.91,718.324 1523.66,718.369 1526.42,718.413 1529.17,718.456 1531.93,718.498 1534.68,718.54 1537.44,718.58 1540.19,718.62 1542.95,718.66 1545.7,718.698 1548.45,718.736 1551.21,718.773 1553.96,718.809 1556.72,718.845 1559.47,718.88 1562.23,718.914 1564.98,718.947 1567.74,718.98 1570.49,719.012 1573.24,719.044 1576,719.074 1578.75,719.105 1581.51,719.134 1584.26,719.163 1587.02,719.192 1589.77,719.219 1592.53,719.247 1595.28,719.273 1598.03,719.299 1600.79,719.325 1603.54,719.35 1606.3,719.374 1609.05,719.398 1611.81,719.421 1614.56,719.444 1617.32,719.466 1620.07,719.488 1622.82,719.509 1625.58,719.53 1628.33,719.55 1631.09,719.57 1633.84,719.59 1636.6,719.609 1639.35,719.627 1642.11,719.645 1644.86,719.663 1647.62,719.68 1650.37,719.697 1653.12,719.713 1655.88,719.729 1658.63,719.745 1661.39,719.76 1664.14,719.775 1666.9,719.79 1669.65,719.804 1672.41,719.818 1675.16,719.831 1677.91,719.844 1680.67,719.857 1683.42,719.869 1686.18,719.881 1688.93,719.893 1691.69,719.905 1694.44,719.916 1697.2,719.927 1699.95,719.937 1702.7,719.948 1705.46,719.958 1708.21,719.967 1710.97,719.977 1713.72,719.986 1716.48,719.995 1719.23,720.004 1721.99,720.012 1724.74,720.021 1727.49,720.029 1730.25,720.036 1733,720.044 1735.76,720.051 1738.51,720.058 1741.27,720.065 1744.02,720.072 1746.78,720.078 1749.53,720.085 1752.28,720.091 1755.04,720.097 1757.79,720.103 1760.55,720.108 1763.3,720.114 1766.06,720.119 1768.81,720.124 1771.57,720.129 1774.32,720.134 1777.07,720.138 1779.83,720.143 1782.58,720.147 1785.34,720.151 1788.09,720.156 1790.85,720.159 1793.6,720.163 1796.36,720.167 1799.11,720.171 1801.86,720.174 1804.62,720.177 1807.37,720.18 1810.13,720.184 1812.88,720.187 1815.64,720.189 1818.39,720.192 1821.15,720.195 1823.9,720.198 1826.65,720.2 1829.41,720.203 1832.16,720.205 1834.92,720.207 1837.67,720.209 1840.43,720.211 1843.18,720.213 1845.94,720.215 1848.69,720.217 1851.44,720.219 1854.2,720.221 1856.95,720.222 1859.71,720.224 1862.46,720.225 1865.22,720.227 1867.97,720.228 1870.73,720.229 1873.48,720.231 1876.23,720.232 1878.99,720.233 1881.74,720.234 1884.5,720.235 1887.25,720.236 1890.01,720.237 1892.76,720.238 1895.52,720.238 1898.27,720.239 1901.03,720.24 1903.78,720.241 1906.53,720.241 1909.29,720.242 1912.04,720.243 1914.8,720.243 1917.55,720.244 1920.31,720.244 1923.06,720.245 1925.82,720.245 1928.57,720.246 1931.32,720.246 1934.08,720.247 1936.83,720.247 1939.59,720.247 1942.34,720.248 1945.1,720.248 1947.85,720.248 1950.61,720.249 1953.36,720.249 1956.11,720.249 1958.87,720.249 1961.62,720.249 1964.38,720.25 1967.13,720.25 1969.89,720.25 1972.64,720.25 1975.4,720.25 1978.15,720.25 1980.9,720.25 1983.66,720.251 1986.41,720.251 1989.17,720.251 1991.92,720.251 1994.68,720.251 1997.43,720.251 2000.19,720.251 2002.94,720.251 2005.69,720.251 2008.45,720.251 2011.2,720.251 2013.96,720.251 2016.71,720.251 2019.47,720.251 2022.22,720.251 2024.98,720.251 2027.73,720.251 2030.48,720.251 2033.24,720.251 2035.99,720.251 2038.75,720.251 2041.5,720.251 2044.26,720.251 2047.01,720.251 2049.77,720.251 2052.52,720.251 2055.27,720.251 2058.03,720.251 2060.78,720.251 2063.54,720.25 2066.29,720.25 2069.05,720.25 2071.8,720.25 2074.56,720.25 2077.31,720.25 2080.06,720.25 2082.82,720.25 2085.57,720.25 2088.33,720.25 2091.08,720.25 2093.84,720.25 2096.59,720.25 2099.35,720.25 2102.1,720.25 2104.85,720.25 2107.61,720.25 2110.36,720.25 2113.12,720.25 2115.87,720.25 2118.63,720.25 2121.38,720.249 2124.14,720.249 2126.89,720.249 2129.64,720.249 2132.4,720.249 2135.15,720.249 2137.91,720.249 2140.66,720.249 2143.42,720.249 2146.17,720.249 2148.93,720.249 2151.68,720.249 2154.44,720.249 2157.19,720.249 2159.94,720.249 2162.7,720.249 2165.45,720.249 2168.21,720.249 2170.96,720.248 2173.72,720.248 2176.47,720.248 2179.23,720.248 2181.98,720.248 2184.73,720.248 2187.49,720.248 2190.24,720.248 2193,720.248 2195.75,720.248 2198.51,720.247 2201.26,720.247 2204.02,720.247 2206.77,720.247 2209.52,720.247 2212.28,720.247 2215.03,720.246 2217.79,720.246 2220.54,720.246 2223.3,720.246 2226.05,720.245 2228.81,720.245 2231.56,720.245 2234.31,720.245 2237.07,720.244 2239.82,720.244 2242.58,720.244 2245.33,720.243 2248.09,720.243 2250.84,720.243 2253.6,720.242 2256.35,720.242 2259.1,720.241 2261.86,720.241 2264.61,720.24 2267.37,720.24 2270.12,720.239 2272.88,720.239 2275.63,720.238 2278.39,720.238 2281.14,720.237 2283.89,720.236 2286.65,720.236 2289.4,720.235 2292.16,720.234 2294.91,720.234 2297.67,720.233 2300.42,720.232 2303.18,720.232 2305.93,720.231 2308.68,720.23 2311.44,720.229 2314.19,720.228 2316.95,720.227 2319.7,720.227 2322.46,720.226 2325.21,720.225 2327.97,720.224 2330.72,720.223 2333.47,720.222 2336.23,720.221 2338.98,720.22 2341.74,720.219 2344.49,720.218 2347.25,720.216 2350,720.215 2352.76,720.214 "/>
<polyline clip-path="url(#clip222)" style="stroke:#3da44d; stroke-linecap:round; stroke-linejoin:round; stroke-width:12; stroke-opacity:1; fill:none" points="149.191,-135.104 151.945,86.7713 154.7,266.26 157.454,399.906 160.209,493.462 162.963,556.502 165.718,598.375 168.472,626.492 171.227,646.124 173.981,660.794 176.735,672.762 179.49,683.435 182.244,693.652 184.999,703.887 187.753,714.376 190.508,725.202 193.262,736.349 196.017,747.743 198.771,759.275 201.526,770.819 204.28,782.246 207.034,793.432 209.789,804.266 212.543,814.654 215.298,824.518 218.052,833.8 220.807,842.46 223.561,850.475 226.316,857.836 229.07,864.546 231.825,870.621 234.579,876.082 237.333,880.956 240.088,885.278 242.842,889.08 245.597,892.401 248.351,895.276 251.106,897.741 253.86,899.832 256.615,901.582 259.369,903.024 262.124,904.187 264.878,905.099 267.632,905.787 270.387,906.274 273.141,906.581 275.896,906.73 278.65,906.739 281.405,906.623 284.159,906.398 286.914,906.078 289.668,905.676 292.423,905.201 295.177,904.665 297.932,904.076 300.686,903.442 303.44,902.772 306.195,902.07 308.949,901.343 311.704,900.597 314.458,899.835 317.213,899.062 319.967,898.282 322.722,897.498 325.476,896.713 328.231,895.929 330.985,895.148 333.739,894.373 336.494,893.606 339.248,892.847 342.003,892.098 344.757,891.361 347.512,890.635 350.266,889.923 353.021,889.224 355.775,888.539 358.53,887.868 361.284,887.213 364.038,886.572 366.793,885.947 369.547,885.337 372.302,884.742 375.056,884.163 377.811,883.6 380.565,883.051 383.32,882.517 386.074,881.999 388.829,881.495 391.583,881.005 394.337,880.53 397.092,880.068 399.846,879.62 402.601,879.185 405.355,878.763 408.11,878.353 410.864,877.956 413.619,877.57 416.373,877.196 419.128,876.833 421.882,876.481 424.636,876.139 427.391,875.807 430.145,875.485 432.9,875.172 435.654,874.869 438.409,874.573 441.163,874.286 443.918,874.007 446.672,873.735 449.427,873.471 452.181,873.213 454.936,872.962 457.69,872.718 460.444,872.479 463.199,872.246 465.953,872.018 468.708,871.795 471.462,871.577 474.217,871.364 476.971,871.155 479.726,870.95 482.48,870.748 485.235,870.55 487.989,870.356 490.743,870.164 493.498,869.976 496.252,869.79 499.007,869.606 501.761,869.424 504.516,869.245 507.27,869.068 510.025,868.892 512.779,868.717 515.534,868.544 518.288,868.373 521.042,868.202 523.797,868.032 526.551,867.863 529.306,867.695 532.06,867.527 534.815,867.36 537.569,867.192 540.324,867.025 543.078,866.859 545.833,866.692 548.587,866.525 551.341,866.358 554.096,866.19 556.85,866.023 559.605,865.854 562.359,865.686 565.114,865.516 567.868,865.346 570.623,865.176 573.377,865.005 576.132,864.833 578.886,864.66 581.641,864.486 584.395,864.311 587.149,864.135 589.904,863.959 592.658,863.781 595.413,863.602 598.167,863.422 600.922,863.241 603.676,863.059 606.431,862.876 609.185,862.691 611.94,862.505 614.694,862.318 617.448,862.13 620.203,861.94 622.957,861.75 625.712,861.557 628.466,861.364 631.221,861.169 633.975,860.973 636.73,860.776 639.484,860.577 642.239,860.378 644.993,860.176 647.747,859.974 650.502,859.77 653.256,859.564 656.011,859.358 658.765,859.15 661.52,858.941 664.274,858.73 667.029,858.518 669.783,858.305 672.538,858.091 675.292,857.875 678.046,857.658 680.801,857.44 683.555,857.22 686.31,857 689.064,856.778 691.819,856.554 694.573,856.33 697.328,856.104 700.082,855.877 702.837,855.649 705.591,855.42 708.345,855.189 711.1,854.958 713.854,854.725 716.609,854.491 719.363,854.256 722.118,854.019 724.872,853.782 727.627,853.544 730.381,853.304 733.136,853.064 735.89,852.822 738.645,852.579 741.399,852.336 744.153,852.091 746.908,851.845 749.662,851.598 752.417,851.351 755.171,851.102 757.926,850.853 760.68,850.602 763.435,850.351 766.189,850.098 768.944,849.845 771.698,849.591 774.452,849.335 777.207,849.08 779.961,848.823 782.716,848.565 785.47,848.306 788.225,848.047 790.979,847.787 793.734,847.526 796.488,847.264 799.243,847.002 801.997,846.739 804.751,846.475 807.506,846.21 810.26,845.945 813.015,845.679 815.769,845.412 818.524,845.144 821.278,844.876 824.033,844.607 826.787,844.338 829.542,844.068 832.296,843.797 835.05,843.526 837.805,843.254 840.559,842.981 843.314,842.708 846.068,842.434 848.823,842.16 851.577,841.885 854.332,841.61 857.086,841.334 859.841,841.058 862.595,840.781 865.349,840.504 868.104,840.226 870.858,839.947 873.613,839.668 876.367,839.389 879.122,839.109 881.876,838.829 884.631,838.549 887.385,838.268 890.14,837.986 892.894,837.704 895.649,837.422 898.403,837.14 901.157,836.857 903.912,836.573 906.666,836.29 909.421,836.006 912.175,835.721 914.93,835.437 917.684,835.152 920.439,834.866 923.193,834.581 925.948,834.295 928.702,834.008 931.456,833.722 934.211,833.435 936.965,833.148 939.72,832.861 942.474,832.573 945.229,832.286 947.983,831.998 950.738,831.71 953.492,831.421 956.247,831.132 959.001,830.844 961.755,830.555 964.51,830.265 967.264,829.976 970.019,829.687 972.773,829.397 975.528,829.107 978.282,828.817 981.037,828.526 983.791,828.236 986.546,827.946 989.3,827.655 992.054,827.364 994.809,827.074 997.563,826.783 1000.32,826.492 1003.07,826.2 1005.83,825.909 1008.58,825.618 1011.34,825.327 1014.09,825.035 1016.84,824.744 1019.6,824.452 1022.35,824.16 1025.11,823.868 1027.86,823.577 1030.62,823.285 1033.37,822.993 1036.13,822.701 1038.88,822.41 1041.63,822.118 1044.39,821.826 1047.14,821.534 1049.9,821.242 1052.65,820.95 1055.41,820.658 1058.16,820.366 1060.92,820.074 1063.67,819.783 1066.42,819.491 1069.18,819.199 1071.93,818.907 1074.69,818.616 1077.44,818.324 1080.2,818.032 1082.95,817.741 1085.71,817.449 1088.46,817.158 1091.21,816.867 1093.97,816.575 1096.72,816.284 1099.48,815.993 1102.23,815.702 1104.99,815.411 1107.74,815.12 1110.5,814.829 1113.25,814.539 1116.01,814.248 1118.76,813.958 1121.51,813.668 1124.27,813.377 1127.02,813.087 1129.78,812.797 1132.53,812.508 1135.29,812.218 1138.04,811.928 1140.8,811.639 1143.55,811.35 1146.3,811.06 1149.06,810.771 1151.81,810.483 1154.57,810.194 1157.32,809.905 1160.08,809.617 1162.83,809.329 1165.59,809.041 1168.34,808.753 1171.09,808.465 1173.85,808.178 1176.6,807.891 1179.36,807.604 1182.11,807.317 1184.87,807.03 1187.62,806.743 1190.38,806.457 1193.13,806.171 1195.88,805.885 1198.64,805.599 1201.39,805.314 1204.15,805.028 1206.9,804.743 1209.66,804.459 1212.41,804.174 1215.17,803.889 1217.92,803.605 1220.67,803.321 1223.43,803.038 1226.18,802.754 1228.94,802.471 1231.69,802.188 1234.45,801.905 1237.2,801.623 1239.96,801.34 1242.71,801.058 1245.46,800.777 1248.22,800.495 1250.97,800.214 1253.73,799.933 1256.48,799.652 1259.24,799.372 1261.99,799.091 1264.75,798.811 1267.5,798.532 1270.25,798.252 1273.01,797.973 1275.76,797.695 1278.52,797.416 1281.27,797.138 1284.03,796.86 1286.78,796.582 1289.54,796.305 1292.29,796.028 1295.04,795.751 1297.8,795.474 1300.55,795.198 1303.31,794.922 1306.06,794.647 1308.82,794.372 1311.57,794.097 1314.33,793.822 1317.08,793.548 1319.83,793.274 1322.59,793 1325.34,792.727 1328.1,792.454 1330.85,792.181 1333.61,791.908 1336.36,791.636 1339.12,791.365 1341.87,791.093 1344.62,790.822 1347.38,790.551 1350.13,790.281 1352.89,790.011 1355.64,789.741 1358.4,789.472 1361.15,789.203 1363.91,788.934 1366.66,788.666 1369.41,788.398 1372.17,788.13 1374.92,787.863 1377.68,787.596 1380.43,787.329 1383.19,787.063 1385.94,786.797 1388.7,786.532 1391.45,786.267 1394.21,786.002 1396.96,785.737 1399.71,785.473 1402.47,785.21 1405.22,784.946 1407.98,784.684 1410.73,784.421 1413.49,784.159 1416.24,783.897 1419,783.636 1421.75,783.375 1424.5,783.114 1427.26,782.854 1430.01,782.594 1432.77,782.335 1435.52,782.076 1438.28,781.817 1441.03,781.559 1443.79,781.301 1446.54,781.043 1449.29,780.786 1452.05,780.53 1454.8,780.273 1457.56,780.017 1460.31,779.762 1463.07,779.507 1465.82,779.252 1468.58,778.998 1471.33,778.744 1474.08,778.491 1476.84,778.238 1479.59,777.985 1482.35,777.733 1485.1,777.481 1487.86,777.23 1490.61,776.979 1493.37,776.729 1496.12,776.479 1498.87,776.229 1501.63,775.98 1504.38,775.731 1507.14,775.483 1509.89,775.235 1512.65,774.987 1515.4,774.74 1518.16,774.494 1520.91,774.247 1523.66,774.002 1526.42,773.756 1529.17,773.511 1531.93,773.267 1534.68,773.023 1537.44,772.779 1540.19,772.536 1542.95,772.294 1545.7,772.052 1548.45,771.81 1551.21,771.569 1553.96,771.328 1556.72,771.087 1559.47,770.847 1562.23,770.608 1564.98,770.369 1567.74,770.13 1570.49,769.892 1573.24,769.654 1576,769.417 1578.75,769.181 1581.51,768.944 1584.26,768.708 1587.02,768.473 1589.77,768.238 1592.53,768.004 1595.28,767.77 1598.03,767.536 1600.79,767.303 1603.54,767.071 1606.3,766.839 1609.05,766.607 1611.81,766.376 1614.56,766.146 1617.32,765.915 1620.07,765.686 1622.82,765.457 1625.58,765.228 1628.33,765 1631.09,764.772 1633.84,764.545 1636.6,764.318 1639.35,764.092 1642.11,763.866 1644.86,763.641 1647.62,763.416 1650.37,763.191 1653.12,762.968 1655.88,762.744 1658.63,762.521 1661.39,762.299 1664.14,762.077 1666.9,761.856 1669.65,761.635 1672.41,761.414 1675.16,761.195 1677.91,760.975 1680.67,760.756 1683.42,760.538 1686.18,760.32 1688.93,760.103 1691.69,759.886 1694.44,759.669 1697.2,759.454 1699.95,759.238 1702.7,759.023 1705.46,758.809 1708.21,758.595 1710.97,758.382 1713.72,758.169 1716.48,757.957 1719.23,757.745 1721.99,757.534 1724.74,757.323 1727.49,757.113 1730.25,756.903 1733,756.694 1735.76,756.485 1738.51,756.277 1741.27,756.069 1744.02,755.862 1746.78,755.656 1749.53,755.45 1752.28,755.244 1755.04,755.039 1757.79,754.834 1760.55,754.63 1763.3,754.427 1766.06,754.224 1768.81,754.022 1771.57,753.82 1774.32,753.618 1777.07,753.417 1779.83,753.217 1782.58,753.017 1785.34,752.818 1788.09,752.619 1790.85,752.421 1793.6,752.223 1796.36,752.026 1799.11,751.83 1801.86,751.634 1804.62,751.438 1807.37,751.243 1810.13,751.049 1812.88,750.855 1815.64,750.661 1818.39,750.469 1821.15,750.276 1823.9,750.085 1826.65,749.893 1829.41,749.703 1832.16,749.513 1834.92,749.323 1837.67,749.134 1840.43,748.945 1843.18,748.757 1845.94,748.57 1848.69,748.383 1851.44,748.197 1854.2,748.011 1856.95,747.826 1859.71,747.641 1862.46,747.457 1865.22,747.273 1867.97,747.09 1870.73,746.908 1873.48,746.726 1876.23,746.544 1878.99,746.363 1881.74,746.183 1884.5,746.003 1887.25,745.824 1890.01,745.645 1892.76,745.467 1895.52,745.29 1898.27,745.113 1901.03,744.936 1903.78,744.76 1906.53,744.585 1909.29,744.41 1912.04,744.236 1914.8,744.062 1917.55,743.889 1920.31,743.716 1923.06,743.544 1925.82,743.373 1928.57,743.202 1931.32,743.031 1934.08,742.862 1936.83,742.692 1939.59,742.524 1942.34,742.356 1945.1,742.188 1947.85,742.021 1950.61,741.854 1953.36,741.689 1956.11,741.523 1958.87,741.358 1961.62,741.194 1964.38,741.031 1967.13,740.867 1969.89,740.705 1972.64,740.543 1975.4,740.381 1978.15,740.221 1980.9,740.06 1983.66,739.901 1986.41,739.741 1989.17,739.583 1991.92,739.425 1994.68,739.267 1997.43,739.11 2000.19,738.954 2002.94,738.798 2005.69,738.643 2008.45,738.488 2011.2,738.334 2013.96,738.18 2016.71,738.027 2019.47,737.875 2022.22,737.723 2024.98,737.572 2027.73,737.421 2030.48,737.271 2033.24,737.121 2035.99,736.972 2038.75,736.824 2041.5,736.676 2044.26,736.528 2047.01,736.381 2049.77,736.235 2052.52,736.09 2055.27,735.945 2058.03,735.8 2060.78,735.656 2063.54,735.513 2066.29,735.37 2069.05,735.227 2071.8,735.086 2074.56,734.945 2077.31,734.804 2080.06,734.664 2082.82,734.524 2085.57,734.386 2088.33,734.247 2091.08,734.109 2093.84,733.972 2096.59,733.836 2099.35,733.699 2102.1,733.564 2104.85,733.429 2107.61,733.295 2110.36,733.161 2113.12,733.028 2115.87,732.895 2118.63,732.763 2121.38,732.631 2124.14,732.5 2126.89,732.37 2129.64,732.24 2132.4,732.111 2135.15,731.982 2137.91,731.854 2140.66,731.726 2143.42,731.599 2146.17,731.473 2148.93,731.347 2151.68,731.221 2154.44,731.096 2157.19,730.972 2159.94,730.848 2162.7,730.725 2165.45,730.603 2168.21,730.481 2170.96,730.359 2173.72,730.239 2176.47,730.118 2179.23,729.998 2181.98,729.879 2184.73,729.761 2187.49,729.643 2190.24,729.525 2193,729.408 2195.75,729.292 2198.51,729.176 2201.26,729.061 2204.02,728.946 2206.77,728.832 2209.52,728.718 2212.28,728.605 2215.03,728.493 2217.79,728.381 2220.54,728.269 2223.3,728.159 2226.05,728.048 2228.81,727.939 2231.56,727.83 2234.31,727.721 2237.07,727.613 2239.82,727.505 2242.58,727.399 2245.33,727.292 2248.09,727.186 2250.84,727.081 2253.6,726.977 2256.35,726.872 2259.1,726.769 2261.86,726.666 2264.61,726.563 2267.37,726.461 2270.12,726.36 2272.88,726.259 2275.63,726.159 2278.39,726.059 2281.14,725.96 2283.89,725.861 2286.65,725.763 2289.4,725.666 2292.16,725.569 2294.91,725.472 2297.67,725.377 2300.42,725.281 2303.18,725.186 2305.93,725.092 2308.68,724.998 2311.44,724.905 2314.19,724.813 2316.95,724.721 2319.7,724.629 2322.46,724.538 2325.21,724.448 2327.97,724.358 2330.72,724.268 2333.47,724.18 2336.23,724.092 2338.98,724.004 2341.74,723.917 2344.49,723.83 2347.25,723.744 2350,723.658 2352.76,723.573 "/>
<path clip-path="url(#clip220)" d="M1969.85 1377.32 L2279.3 1377.32 L2279.3 1169.96 L1969.85 1169.96  Z" fill="#ffffff" fill-rule="evenodd" fill-opacity="1"/>
<polyline clip-path="url(#clip220)" style="stroke:#000000; stroke-linecap:round; stroke-linejoin:round; stroke-width:4; stroke-opacity:1; fill:none" points="1969.85,1377.32 2279.3,1377.32 2279.3,1169.96 1969.85,1169.96 1969.85,1377.32 "/>
<polyline clip-path="url(#clip220)" style="stroke:#009af9; stroke-linecap:round; stroke-linejoin:round; stroke-width:12; stroke-opacity:1; fill:none" points="1994.33,1221.8 2141.24,1221.8 "/>
<path clip-path="url(#clip220)" d="M2165.72 1228.84 L2165.72 1213.15 L2169.98 1213.15 L2169.98 1228.68 Q2169.98 1232.36 2171.42 1234.21 Q2172.85 1236.04 2175.72 1236.04 Q2179.17 1236.04 2181.16 1233.84 Q2183.18 1231.64 2183.18 1227.85 L2183.18 1213.15 L2187.44 1213.15 L2187.44 1239.08 L2183.18 1239.08 L2183.18 1235.09 Q2181.63 1237.45 2179.57 1238.61 Q2177.53 1239.75 2174.82 1239.75 Q2170.35 1239.75 2168.04 1236.97 Q2165.72 1234.19 2165.72 1228.84 M2176.44 1212.52 L2176.44 1212.52 Z" fill="#000000" fill-rule="nonzero" fill-opacity="1" /><path clip-path="url(#clip220)" d="M2195.82 1203.06 L2205.63 1203.06 L2205.63 1206.37 L2200.07 1206.37 L2200.07 1242.02 L2205.63 1242.02 L2205.63 1245.33 L2195.82 1245.33 L2195.82 1203.06 Z" fill="#000000" fill-rule="nonzero" fill-opacity="1" /><path clip-path="url(#clip220)" d="M2216.12 1235.14 L2223.76 1235.14 L2223.76 1208.77 L2215.44 1210.44 L2215.44 1206.18 L2223.71 1204.52 L2228.38 1204.52 L2228.38 1235.14 L2236.02 1235.14 L2236.02 1239.08 L2216.12 1239.08 L2216.12 1235.14 Z" fill="#000000" fill-rule="nonzero" fill-opacity="1" /><path clip-path="url(#clip220)" d="M2254.82 1203.06 L2254.82 1245.33 L2245 1245.33 L2245 1242.02 L2250.54 1242.02 L2250.54 1206.37 L2245 1206.37 L2245 1203.06 L2254.82 1203.06 Z" fill="#000000" fill-rule="nonzero" fill-opacity="1" /><polyline clip-path="url(#clip220)" style="stroke:#e26f46; stroke-linecap:round; stroke-linejoin:round; stroke-width:12; stroke-opacity:1; fill:none" points="1994.33,1273.64 2141.24,1273.64 "/>
<path clip-path="url(#clip220)" d="M2165.72 1280.68 L2165.72 1264.99 L2169.98 1264.99 L2169.98 1280.52 Q2169.98 1284.2 2171.42 1286.05 Q2172.85 1287.88 2175.72 1287.88 Q2179.17 1287.88 2181.16 1285.68 Q2183.18 1283.48 2183.18 1279.69 L2183.18 1264.99 L2187.44 1264.99 L2187.44 1290.92 L2183.18 1290.92 L2183.18 1286.93 Q2181.63 1289.29 2179.57 1290.45 Q2177.53 1291.59 2174.82 1291.59 Q2170.35 1291.59 2168.04 1288.81 Q2165.72 1286.03 2165.72 1280.68 M2176.44 1264.36 L2176.44 1264.36 Z" fill="#000000" fill-rule="nonzero" fill-opacity="1" /><path clip-path="url(#clip220)" d="M2195.82 1254.9 L2205.63 1254.9 L2205.63 1258.21 L2200.07 1258.21 L2200.07 1293.86 L2205.63 1293.86 L2205.63 1297.17 L2195.82 1297.17 L2195.82 1254.9 Z" fill="#000000" fill-rule="nonzero" fill-opacity="1" /><path clip-path="url(#clip220)" d="M2219.33 1286.98 L2235.65 1286.98 L2235.65 1290.92 L2213.71 1290.92 L2213.71 1286.98 Q2216.37 1284.23 2220.95 1279.6 Q2225.56 1274.94 2226.74 1273.6 Q2228.99 1271.08 2229.87 1269.34 Q2230.77 1267.58 2230.77 1265.89 Q2230.77 1263.14 2228.82 1261.4 Q2226.9 1259.67 2223.8 1259.67 Q2221.6 1259.67 2219.15 1260.43 Q2216.72 1261.19 2213.94 1262.74 L2213.94 1258.02 Q2216.76 1256.89 2219.22 1256.31 Q2221.67 1255.73 2223.71 1255.73 Q2229.08 1255.73 2232.27 1258.42 Q2235.47 1261.1 2235.47 1265.59 Q2235.47 1267.72 2234.66 1269.64 Q2233.87 1271.54 2231.76 1274.13 Q2231.19 1274.8 2228.08 1278.02 Q2224.98 1281.22 2219.33 1286.98 Z" fill="#000000" fill-rule="nonzero" fill-opacity="1" /><path clip-path="url(#clip220)" d="M2254.82 1254.9 L2254.82 1297.17 L2245 1297.17 L2245 1293.86 L2250.54 1293.86 L2250.54 1258.21 L2245 1258.21 L2245 1254.9 L2254.82 1254.9 Z" fill="#000000" fill-rule="nonzero" fill-opacity="1" /><polyline clip-path="url(#clip220)" style="stroke:#3da44d; stroke-linecap:round; stroke-linejoin:round; stroke-width:12; stroke-opacity:1; fill:none" points="1994.33,1325.48 2141.24,1325.48 "/>
<path clip-path="url(#clip220)" d="M2165.72 1332.52 L2165.72 1316.83 L2169.98 1316.83 L2169.98 1332.36 Q2169.98 1336.04 2171.42 1337.89 Q2172.85 1339.72 2175.72 1339.72 Q2179.17 1339.72 2181.16 1337.52 Q2183.18 1335.32 2183.18 1331.53 L2183.18 1316.83 L2187.44 1316.83 L2187.44 1342.76 L2183.18 1342.76 L2183.18 1338.77 Q2181.63 1341.13 2179.57 1342.29 Q2177.53 1343.43 2174.82 1343.43 Q2170.35 1343.43 2168.04 1340.65 Q2165.72 1337.87 2165.72 1332.52 M2176.44 1316.2 L2176.44 1316.2 Z" fill="#000000" fill-rule="nonzero" fill-opacity="1" /><path clip-path="url(#clip220)" d="M2206.44 1306.78 Q2203.34 1312.11 2201.83 1317.32 Q2200.33 1322.52 2200.33 1327.87 Q2200.33 1333.22 2201.83 1338.47 Q2203.36 1343.7 2206.44 1349.01 L2202.74 1349.01 Q2199.26 1343.57 2197.53 1338.31 Q2195.82 1333.06 2195.82 1327.87 Q2195.82 1322.71 2197.53 1317.48 Q2199.24 1312.25 2202.74 1306.78 L2206.44 1306.78 Z" fill="#000000" fill-rule="nonzero" fill-opacity="1" /><path clip-path="url(#clip220)" d="M2218.92 1309.47 L2218.92 1316.83 L2227.69 1316.83 L2227.69 1320.14 L2218.92 1320.14 L2218.92 1334.21 Q2218.92 1337.38 2219.77 1338.29 Q2220.65 1339.19 2223.32 1339.19 L2227.69 1339.19 L2227.69 1342.76 L2223.32 1342.76 Q2218.38 1342.76 2216.51 1340.93 Q2214.63 1339.07 2214.63 1334.21 L2214.63 1320.14 L2211.51 1320.14 L2211.51 1316.83 L2214.63 1316.83 L2214.63 1309.47 L2218.92 1309.47 Z" fill="#000000" fill-rule="nonzero" fill-opacity="1" /><path clip-path="url(#clip220)" d="M2232.62 1306.78 L2236.32 1306.78 Q2239.8 1312.25 2241.51 1317.48 Q2243.25 1322.71 2243.25 1327.87 Q2243.25 1333.06 2241.51 1338.31 Q2239.8 1343.57 2236.32 1349.01 L2232.62 1349.01 Q2235.7 1343.7 2237.2 1338.47 Q2238.73 1333.22 2238.73 1327.87 Q2238.73 1322.52 2237.2 1317.32 Q2235.7 1312.11 2232.62 1306.78 Z" fill="#000000" fill-rule="nonzero" fill-opacity="1" /></svg>
