<?xml version="1.0" encoding="utf-8"?>
<svg xmlns="http://www.w3.org/2000/svg" xmlns:xlink="http://www.w3.org/1999/xlink" width="600" height="400" viewBox="0 0 2400 1600">
<defs>
  <clipPath id="clip510">
    <rect x="0" y="0" width="2400" height="1600"/>
  </clipPath>
</defs>
<path clip-path="url(#clip510)" d="M0 1600 L2400 1600 L2400 0 L0 0  Z" fill="#ffffff" fill-rule="evenodd" fill-opacity="1"/>
<defs>
  <clipPath id="clip511">
    <rect x="480" y="0" width="1681" height="1600"/>
  </clipPath>
</defs>
<path clip-path="url(#clip510)" d="M149.191 1423.18 L2352.76 1423.18 L2352.76 47.2441 L149.191 47.2441  Z" fill="#ffffff" fill-rule="evenodd" fill-opacity="1"/>
<defs>
  <clipPath id="clip512">
    <rect x="149" y="47" width="2205" height="1377"/>
  </clipPath>
</defs>
<polyline clip-path="url(#clip512)" style="stroke:#000000; stroke-linecap:round; stroke-linejoin:round; stroke-width:2; stroke-opacity:0.1; fill:none" points="149.191,1423.18 149.191,47.2441 "/>
<polyline clip-path="url(#clip512)" style="stroke:#000000; stroke-linecap:round; stroke-linejoin:round; stroke-width:2; stroke-opacity:0.1; fill:none" points="700.082,1423.18 700.082,47.2441 "/>
<polyline clip-path="url(#clip512)" style="stroke:#000000; stroke-linecap:round; stroke-linejoin:round; stroke-width:2; stroke-opacity:0.1; fill:none" points="1250.97,1423.18 1250.97,47.2441 "/>
<polyline clip-path="url(#clip512)" style="stroke:#000000; stroke-linecap:round; stroke-linejoin:round; stroke-width:2; stroke-opacity:0.1; fill:none" points="1801.86,1423.18 1801.86,47.2441 "/>
<polyline clip-path="url(#clip512)" style="stroke:#000000; stroke-linecap:round; stroke-linejoin:round; stroke-width:2; stroke-opacity:0.1; fill:none" points="2352.76,1423.18 2352.76,47.2441 "/>
<polyline clip-path="url(#clip510)" style="stroke:#000000; stroke-linecap:round; stroke-linejoin:round; stroke-width:4; stroke-opacity:1; fill:none" points="149.191,1423.18 2352.76,1423.18 "/>
<polyline clip-path="url(#clip510)" style="stroke:#000000; stroke-linecap:round; stroke-linejoin:round; stroke-width:4; stroke-opacity:1; fill:none" points="149.191,1423.18 149.191,1404.28 "/>
<polyline clip-path="url(#clip510)" style="stroke:#000000; stroke-linecap:round; stroke-linejoin:round; stroke-width:4; stroke-opacity:1; fill:none" points="700.082,1423.18 700.082,1404.28 "/>
<polyline clip-path="url(#clip510)" style="stroke:#000000; stroke-linecap:round; stroke-linejoin:round; stroke-width:4; stroke-opacity:1; fill:none" points="1250.97,1423.18 1250.97,1404.28 "/>
<polyline clip-path="url(#clip510)" style="stroke:#000000; stroke-linecap:round; stroke-linejoin:round; stroke-width:4; stroke-opacity:1; fill:none" points="1801.86,1423.18 1801.86,1404.28 "/>
<polyline clip-path="url(#clip510)" style="stroke:#000000; stroke-linecap:round; stroke-linejoin:round; stroke-width:4; stroke-opacity:1; fill:none" points="2352.76,1423.18 2352.76,1404.28 "/>
<path clip-path="url(#clip510)" d="M149.191 1454.1 Q145.58 1454.1 143.751 1457.66 Q141.946 1461.2 141.946 1468.33 Q141.946 1475.44 143.751 1479.01 Q145.58 1482.55 149.191 1482.55 Q152.825 1482.55 154.631 1479.01 Q156.459 1475.44 156.459 1468.33 Q156.459 1461.2 154.631 1457.66 Q152.825 1454.1 149.191 1454.1 M149.191 1450.39 Q155.001 1450.39 158.057 1455 Q161.135 1459.58 161.135 1468.33 Q161.135 1477.06 158.057 1481.67 Q155.001 1486.25 149.191 1486.25 Q143.381 1486.25 140.302 1481.67 Q137.246 1477.06 137.246 1468.33 Q137.246 1459.58 140.302 1455 Q143.381 1450.39 149.191 1450.39 Z" fill="#000000" fill-rule="nonzero" fill-opacity="1" /><path clip-path="url(#clip510)" d="M694.735 1481.64 L711.054 1481.64 L711.054 1485.58 L689.11 1485.58 L689.11 1481.64 Q691.772 1478.89 696.355 1474.26 Q700.962 1469.61 702.142 1468.27 Q704.388 1465.74 705.267 1464.01 Q706.17 1462.25 706.17 1460.56 Q706.17 1457.8 704.226 1456.07 Q702.304 1454.33 699.203 1454.33 Q697.003 1454.33 694.55 1455.09 Q692.119 1455.86 689.341 1457.41 L689.341 1452.69 Q692.166 1451.55 694.619 1450.97 Q697.073 1450.39 699.11 1450.39 Q704.48 1450.39 707.675 1453.08 Q710.869 1455.77 710.869 1460.26 Q710.869 1462.39 710.059 1464.31 Q709.272 1466.2 707.165 1468.8 Q706.587 1469.47 703.485 1472.69 Q700.383 1475.88 694.735 1481.64 Z" fill="#000000" fill-rule="nonzero" fill-opacity="1" /><path clip-path="url(#clip510)" d="M1253.98 1455.09 L1242.18 1473.54 L1253.98 1473.54 L1253.98 1455.09 M1252.76 1451.02 L1258.64 1451.02 L1258.64 1473.54 L1263.57 1473.54 L1263.57 1477.43 L1258.64 1477.43 L1258.64 1485.58 L1253.98 1485.58 L1253.98 1477.43 L1238.38 1477.43 L1238.38 1472.92 L1252.76 1451.02 Z" fill="#000000" fill-rule="nonzero" fill-opacity="1" /><path clip-path="url(#clip510)" d="M1802.27 1466.44 Q1799.12 1466.44 1797.27 1468.59 Q1795.44 1470.74 1795.44 1474.49 Q1795.44 1478.22 1797.27 1480.39 Q1799.12 1482.55 1802.27 1482.55 Q1805.42 1482.55 1807.25 1480.39 Q1809.1 1478.22 1809.1 1474.49 Q1809.1 1470.74 1807.25 1468.59 Q1805.42 1466.44 1802.27 1466.44 M1811.55 1451.78 L1811.55 1456.04 Q1809.79 1455.21 1807.99 1454.77 Q1806.2 1454.33 1804.45 1454.33 Q1799.82 1454.33 1797.36 1457.45 Q1794.93 1460.58 1794.58 1466.9 Q1795.95 1464.89 1798.01 1463.82 Q1800.07 1462.73 1802.55 1462.73 Q1807.76 1462.73 1810.77 1465.9 Q1813.8 1469.05 1813.8 1474.49 Q1813.8 1479.82 1810.65 1483.03 Q1807.5 1486.25 1802.27 1486.25 Q1796.27 1486.25 1793.1 1481.67 Q1789.93 1477.06 1789.93 1468.33 Q1789.93 1460.14 1793.82 1455.28 Q1797.71 1450.39 1804.26 1450.39 Q1806.02 1450.39 1807.8 1450.74 Q1809.61 1451.09 1811.55 1451.78 Z" fill="#000000" fill-rule="nonzero" fill-opacity="1" /><path clip-path="url(#clip510)" d="M2352.76 1469.17 Q2349.42 1469.17 2347.5 1470.95 Q2345.6 1472.73 2345.6 1475.86 Q2345.6 1478.98 2347.5 1480.77 Q2349.42 1482.55 2352.76 1482.55 Q2356.09 1482.55 2358.01 1480.77 Q2359.93 1478.96 2359.93 1475.86 Q2359.93 1472.73 2358.01 1470.95 Q2356.11 1469.17 2352.76 1469.17 M2348.08 1467.18 Q2345.07 1466.44 2343.38 1464.38 Q2341.71 1462.32 2341.71 1459.35 Q2341.71 1455.21 2344.65 1452.8 Q2347.62 1450.39 2352.76 1450.39 Q2357.92 1450.39 2360.86 1452.8 Q2363.8 1455.21 2363.8 1459.35 Q2363.8 1462.32 2362.11 1464.38 Q2360.44 1466.44 2357.45 1467.18 Q2360.83 1467.96 2362.71 1470.26 Q2364.61 1472.55 2364.61 1475.86 Q2364.61 1480.88 2361.53 1483.57 Q2358.47 1486.25 2352.76 1486.25 Q2347.04 1486.25 2343.96 1483.57 Q2340.9 1480.88 2340.9 1475.86 Q2340.9 1472.55 2342.8 1470.26 Q2344.7 1467.96 2348.08 1467.18 M2346.37 1459.79 Q2346.37 1462.48 2348.03 1463.98 Q2349.72 1465.49 2352.76 1465.49 Q2355.77 1465.49 2357.45 1463.98 Q2359.17 1462.48 2359.17 1459.79 Q2359.17 1457.11 2357.45 1455.6 Q2355.77 1454.1 2352.76 1454.1 Q2349.72 1454.1 2348.03 1455.6 Q2346.37 1457.11 2346.37 1459.79 Z" fill="#000000" fill-rule="nonzero" fill-opacity="1" /><path clip-path="url(#clip510)" d="M1250.03 1522.27 L1250.03 1532.4 L1262.1 1532.4 L1262.1 1536.95 L1250.03 1536.95 L1250.03 1556.3 Q1250.03 1560.66 1251.21 1561.9 Q1252.42 1563.14 1256.08 1563.14 L1262.1 1563.14 L1262.1 1568.04 L1256.08 1568.04 Q1249.3 1568.04 1246.72 1565.53 Q1244.15 1562.98 1244.15 1556.3 L1244.15 1536.95 L1239.85 1536.95 L1239.85 1532.4 L1244.15 1532.4 L1244.15 1522.27 L1250.03 1522.27 Z" fill="#000000" fill-rule="nonzero" fill-opacity="1" /><polyline clip-path="url(#clip512)" style="stroke:#000000; stroke-linecap:round; stroke-linejoin:round; stroke-width:2; stroke-opacity:0.1; fill:none" points="149.191,1423.18 2352.76,1423.18 "/>
<polyline clip-path="url(#clip512)" style="stroke:#000000; stroke-linecap:round; stroke-linejoin:round; stroke-width:2; stroke-opacity:0.1; fill:none" points="149.191,1193.86 2352.76,1193.86 "/>
<polyline clip-path="url(#clip512)" style="stroke:#000000; stroke-linecap:round; stroke-linejoin:round; stroke-width:2; stroke-opacity:0.1; fill:none" points="149.191,964.535 2352.76,964.535 "/>
<polyline clip-path="url(#clip512)" style="stroke:#000000; stroke-linecap:round; stroke-linejoin:round; stroke-width:2; stroke-opacity:0.1; fill:none" points="149.191,735.212 2352.76,735.212 "/>
<polyline clip-path="url(#clip512)" style="stroke:#000000; stroke-linecap:round; stroke-linejoin:round; stroke-width:2; stroke-opacity:0.1; fill:none" points="149.191,505.889 2352.76,505.889 "/>
<polyline clip-path="url(#clip512)" style="stroke:#000000; stroke-linecap:round; stroke-linejoin:round; stroke-width:2; stroke-opacity:0.1; fill:none" points="149.191,276.567 2352.76,276.567 "/>
<polyline clip-path="url(#clip512)" style="stroke:#000000; stroke-linecap:round; stroke-linejoin:round; stroke-width:2; stroke-opacity:0.1; fill:none" points="149.191,47.2441 2352.76,47.2441 "/>
<polyline clip-path="url(#clip510)" style="stroke:#000000; stroke-linecap:round; stroke-linejoin:round; stroke-width:4; stroke-opacity:1; fill:none" points="149.191,1423.18 149.191,47.2441 "/>
<polyline clip-path="url(#clip510)" style="stroke:#000000; stroke-linecap:round; stroke-linejoin:round; stroke-width:4; stroke-opacity:1; fill:none" points="149.191,1423.18 168.089,1423.18 "/>
<polyline clip-path="url(#clip510)" style="stroke:#000000; stroke-linecap:round; stroke-linejoin:round; stroke-width:4; stroke-opacity:1; fill:none" points="149.191,1193.86 168.089,1193.86 "/>
<polyline clip-path="url(#clip510)" style="stroke:#000000; stroke-linecap:round; stroke-linejoin:round; stroke-width:4; stroke-opacity:1; fill:none" points="149.191,964.535 168.089,964.535 "/>
<polyline clip-path="url(#clip510)" style="stroke:#000000; stroke-linecap:round; stroke-linejoin:round; stroke-width:4; stroke-opacity:1; fill:none" points="149.191,735.212 168.089,735.212 "/>
<polyline clip-path="url(#clip510)" style="stroke:#000000; stroke-linecap:round; stroke-linejoin:round; stroke-width:4; stroke-opacity:1; fill:none" points="149.191,505.889 168.089,505.889 "/>
<polyline clip-path="url(#clip510)" style="stroke:#000000; stroke-linecap:round; stroke-linejoin:round; stroke-width:4; stroke-opacity:1; fill:none" points="149.191,276.567 168.089,276.567 "/>
<polyline clip-path="url(#clip510)" style="stroke:#000000; stroke-linecap:round; stroke-linejoin:round; stroke-width:4; stroke-opacity:1; fill:none" points="149.191,47.2441 168.089,47.2441 "/>
<path clip-path="url(#clip510)" d="M51.3162 1423.63 L80.992 1423.63 L80.992 1427.57 L51.3162 1427.57 L51.3162 1423.63 Z" fill="#000000" fill-rule="nonzero" fill-opacity="1" /><path clip-path="url(#clip510)" d="M101.663 1421.32 Q98.515 1421.32 96.6632 1423.47 Q94.8345 1425.62 94.8345 1429.37 Q94.8345 1433.1 96.6632 1435.27 Q98.515 1437.43 101.663 1437.43 Q104.811 1437.43 106.64 1435.27 Q108.492 1433.1 108.492 1429.37 Q108.492 1425.62 106.64 1423.47 Q104.811 1421.32 101.663 1421.32 M110.946 1406.66 L110.946 1410.92 Q109.186 1410.09 107.381 1409.65 Q105.598 1409.21 103.839 1409.21 Q99.2095 1409.21 96.7558 1412.33 Q94.3252 1415.46 93.978 1421.78 Q95.3437 1419.77 97.4039 1418.7 Q99.4641 1417.61 101.941 1417.61 Q107.149 1417.61 110.158 1420.78 Q113.191 1423.93 113.191 1429.37 Q113.191 1434.7 110.043 1437.91 Q106.895 1441.13 101.663 1441.13 Q95.6678 1441.13 92.4965 1436.55 Q89.3253 1431.94 89.3253 1423.21 Q89.3253 1415.02 93.2141 1410.16 Q97.103 1405.27 103.654 1405.27 Q105.413 1405.27 107.196 1405.62 Q109.001 1405.97 110.946 1406.66 Z" fill="#000000" fill-rule="nonzero" fill-opacity="1" /><path clip-path="url(#clip510)" d="M50.9921 1194.31 L80.6679 1194.31 L80.6679 1198.24 L50.9921 1198.24 L50.9921 1194.31 Z" fill="#000000" fill-rule="nonzero" fill-opacity="1" /><path clip-path="url(#clip510)" d="M103.608 1180.65 L91.8021 1199.1 L103.608 1199.1 L103.608 1180.65 M102.381 1176.58 L108.26 1176.58 L108.26 1199.1 L113.191 1199.1 L113.191 1202.99 L108.26 1202.99 L108.26 1211.14 L103.608 1211.14 L103.608 1202.99 L88.0058 1202.99 L88.0058 1198.48 L102.381 1176.58 Z" fill="#000000" fill-rule="nonzero" fill-opacity="1" /><path clip-path="url(#clip510)" d="M53.0754 964.986 L82.7512 964.986 L82.7512 968.921 L53.0754 968.921 L53.0754 964.986 Z" fill="#000000" fill-rule="nonzero" fill-opacity="1" /><path clip-path="url(#clip510)" d="M96.8715 977.879 L113.191 977.879 L113.191 981.815 L91.2465 981.815 L91.2465 977.879 Q93.9086 975.125 98.4919 970.495 Q103.098 965.842 104.279 964.5 Q106.524 961.977 107.404 960.241 Q108.307 958.481 108.307 956.792 Q108.307 954.037 106.362 952.301 Q104.441 950.565 101.339 950.565 Q99.14 950.565 96.6863 951.329 Q94.2558 952.093 91.478 953.643 L91.478 948.921 Q94.3021 947.787 96.7558 947.208 Q99.2095 946.63 101.246 946.63 Q106.617 946.63 109.811 949.315 Q113.006 952 113.006 956.491 Q113.006 958.62 112.196 960.542 Q111.408 962.44 109.302 965.032 Q108.723 965.704 105.621 968.921 Q102.52 972.116 96.8715 977.879 Z" fill="#000000" fill-rule="nonzero" fill-opacity="1" /><path clip-path="url(#clip510)" d="M101.246 721.011 Q97.6354 721.011 95.8067 724.575 Q94.0012 728.117 94.0012 735.247 Q94.0012 742.353 95.8067 745.918 Q97.6354 749.46 101.246 749.46 Q104.881 749.46 106.686 745.918 Q108.515 742.353 108.515 735.247 Q108.515 728.117 106.686 724.575 Q104.881 721.011 101.246 721.011 M101.246 717.307 Q107.057 717.307 110.112 721.913 Q113.191 726.497 113.191 735.247 Q113.191 743.973 110.112 748.58 Q107.057 753.163 101.246 753.163 Q95.4363 753.163 92.3576 748.58 Q89.3021 743.973 89.3021 735.247 Q89.3021 726.497 92.3576 721.913 Q95.4363 717.307 101.246 717.307 Z" fill="#000000" fill-rule="nonzero" fill-opacity="1" /><path clip-path="url(#clip510)" d="M96.8715 519.234 L113.191 519.234 L113.191 523.169 L91.2465 523.169 L91.2465 519.234 Q93.9086 516.48 98.4919 511.85 Q103.098 507.197 104.279 505.855 Q106.524 503.331 107.404 501.595 Q108.307 499.836 108.307 498.146 Q108.307 495.392 106.362 493.656 Q104.441 491.92 101.339 491.92 Q99.14 491.92 96.6863 492.683 Q94.2558 493.447 91.478 494.998 L91.478 490.276 Q94.3021 489.142 96.7558 488.563 Q99.2095 487.984 101.246 487.984 Q106.617 487.984 109.811 490.67 Q113.006 493.355 113.006 497.845 Q113.006 499.975 112.196 501.896 Q111.408 503.794 109.302 506.387 Q108.723 507.058 105.621 510.276 Q102.52 513.47 96.8715 519.234 Z" fill="#000000" fill-rule="nonzero" fill-opacity="1" /><path clip-path="url(#clip510)" d="M103.608 263.361 L91.8021 281.81 L103.608 281.81 L103.608 263.361 M102.381 259.287 L108.26 259.287 L108.26 281.81 L113.191 281.81 L113.191 285.699 L108.26 285.699 L108.26 293.847 L103.608 293.847 L103.608 285.699 L88.0058 285.699 L88.0058 281.185 L102.381 259.287 Z" fill="#000000" fill-rule="nonzero" fill-opacity="1" /><path clip-path="url(#clip510)" d="M101.663 45.3807 Q98.515 45.3807 96.6632 47.5334 Q94.8345 49.6862 94.8345 53.4362 Q94.8345 57.163 96.6632 59.3389 Q98.515 61.4917 101.663 61.4917 Q104.811 61.4917 106.64 59.3389 Q108.492 57.163 108.492 53.4362 Q108.492 49.6862 106.64 47.5334 Q104.811 45.3807 101.663 45.3807 M110.946 30.728 L110.946 34.9872 Q109.186 34.1539 107.381 33.7141 Q105.598 33.2743 103.839 33.2743 Q99.2095 33.2743 96.7558 36.3992 Q94.3252 39.5242 93.978 45.8436 Q95.3437 43.8298 97.4039 42.765 Q99.4641 41.677 101.941 41.677 Q107.149 41.677 110.158 44.8483 Q113.191 47.9964 113.191 53.4362 Q113.191 58.7602 110.043 61.9778 Q106.895 65.1954 101.663 65.1954 Q95.6678 65.1954 92.4965 60.6121 Q89.3253 56.0056 89.3253 47.2788 Q89.3253 39.0844 93.2141 34.2233 Q97.103 29.3391 103.654 29.3391 Q105.413 29.3391 107.196 29.6863 Q109.001 30.0335 110.946 30.728 Z" fill="#000000" fill-rule="nonzero" fill-opacity="1" /><polyline clip-path="url(#clip512)" style="stroke:#009af9; stroke-linecap:round; stroke-linejoin:round; stroke-width:12; stroke-opacity:1; fill:none" points="149.191,1193.86 151.945,1193.75 154.7,1193.43 157.454,1192.91 160.209,1192.2 162.963,1191.3 165.718,1190.22 168.472,1188.97 171.227,1187.55 173.981,1185.98 176.735,1184.26 179.49,1182.4 182.244,1180.4 184.999,1178.27 187.753,1176.02 190.508,1173.65 193.262,1171.17 196.017,1168.59 198.771,1165.91 201.526,1163.14 204.28,1160.28 207.034,1157.34 209.789,1154.32 212.543,1151.23 215.298,1148.07 218.052,1144.85 220.807,1141.57 223.561,1138.24 226.316,1134.86 229.07,1131.43 231.825,1127.95 234.579,1124.44 237.333,1120.89 240.088,1117.31 242.842,1113.7 245.597,1110.06 248.351,1106.39 251.106,1102.7 253.86,1098.99 256.615,1095.26 259.369,1091.52 262.124,1087.75 264.878,1083.98 267.632,1080.19 270.387,1076.4 273.141,1072.59 275.896,1068.78 278.65,1064.96 281.405,1061.13 284.159,1057.3 286.914,1053.46 289.668,1049.62 292.423,1045.78 295.177,1041.93 297.932,1038.08 300.686,1034.23 303.44,1030.38 306.195,1026.52 308.949,1022.67 311.704,1018.81 314.458,1014.96 317.213,1011.1 319.967,1007.25 322.722,1003.39 325.476,999.533 328.231,995.676 330.985,991.82 333.739,987.964 336.494,984.109 339.248,980.253 342.003,976.397 344.757,972.541 347.512,968.684 350.266,964.828 353.021,960.971 355.775,957.115 358.53,953.259 361.284,949.402 364.038,945.546 366.793,941.69 369.547,937.834 372.302,933.979 375.056,930.124 377.811,926.269 380.565,922.415 383.32,918.562 386.074,914.71 388.829,910.859 391.583,907.009 394.337,903.16 397.092,899.313 399.846,895.468 402.601,891.624 405.355,887.783 408.11,883.944 410.864,880.108 413.619,876.275 416.373,872.445 419.128,868.618 421.882,864.795 424.636,860.977 427.391,857.162 430.145,853.353 432.9,849.548 435.654,845.749 438.409,841.956 441.163,838.169 443.918,834.387 446.672,830.613 449.427,826.846 452.181,823.086 454.936,819.334 457.69,815.589 460.444,811.853 463.199,808.126 465.953,804.408 468.708,800.698 471.462,796.999 474.217,793.31 476.971,789.631 479.726,785.962 482.48,782.305 485.235,778.658 487.989,775.024 490.743,771.401 493.498,767.791 496.252,764.194 499.007,760.609 501.761,757.038 504.516,753.48 507.27,749.936 510.025,746.406 512.779,742.891 515.534,739.39 518.288,735.904 521.042,732.433 523.797,728.977 526.551,725.537 529.306,722.113 532.06,718.704 534.815,715.312 537.569,711.936 540.324,708.577 543.078,705.234 545.833,701.909 548.587,698.601 551.341,695.31 554.096,692.036 556.85,688.78 559.605,685.542 562.359,682.322 565.114,679.12 567.868,675.936 570.623,672.771 573.377,669.624 576.132,666.495 578.886,663.386 581.641,660.294 584.395,657.222 587.149,654.169 589.904,651.134 592.658,648.119 595.413,645.123 598.167,642.146 600.922,639.188 603.676,636.249 606.431,633.33 609.185,630.43 611.94,627.55 614.694,624.689 617.448,621.847 620.203,619.025 622.957,616.222 625.712,613.439 628.466,610.675 631.221,607.93 633.975,605.205 636.73,602.499 639.484,599.812 642.239,597.144 644.993,594.496 647.747,591.868 650.502,589.258 653.256,586.667 656.011,584.096 658.765,581.544 661.52,579.011 664.274,576.497 667.029,574.002 669.783,571.526 672.538,569.068 675.292,566.63 678.046,564.21 680.801,561.809 683.555,559.426 686.31,557.063 689.064,554.717 691.819,552.39 694.573,550.081 697.328,547.791 700.082,545.519 702.837,543.264 705.591,541.028 708.345,538.81 711.1,536.609 713.854,534.426 716.609,532.261 719.363,530.113 722.118,527.983 724.872,525.87 727.627,523.773 730.381,521.694 733.136,519.632 735.89,517.587 738.645,515.558 741.399,513.546 744.153,511.55 746.908,509.571 749.662,507.608 752.417,505.662 755.171,503.731 757.926,501.817 760.68,499.918 763.435,498.035 766.189,496.168 768.944,494.316 771.698,492.48 774.452,490.659 777.207,488.853 779.961,487.062 782.716,485.287 785.47,483.526 788.225,481.78 790.979,480.048 793.734,478.331 796.488,476.629 799.243,474.94 801.997,473.266 804.751,471.606 807.506,469.96 810.26,468.328 813.015,466.71 815.769,465.105 818.524,463.514 821.278,461.936 824.033,460.371 826.787,458.82 829.542,457.281 832.296,455.756 835.05,454.244 837.805,452.744 840.559,451.257 843.314,449.782 846.068,448.32 848.823,446.87 851.577,445.433 854.332,444.007 857.086,442.594 859.841,441.192 862.595,439.802 865.349,438.424 868.104,437.057 870.858,435.702 873.613,434.358 876.367,433.025 879.122,431.704 881.876,430.393 884.631,429.094 887.385,427.805 890.14,426.527 892.894,425.259 895.649,424.002 898.403,422.756 901.157,421.52 903.912,420.293 906.666,419.078 909.421,417.872 912.175,416.676 914.93,415.49 917.684,414.313 920.439,413.147 923.193,411.99 925.948,410.842 928.702,409.704 931.456,408.575 934.211,407.455 936.965,406.345 939.72,405.243 942.474,404.151 945.229,403.067 947.983,401.992 950.738,400.926 953.492,399.868 956.247,398.819 959.001,397.778 961.755,396.745 964.51,395.721 967.264,394.705 970.019,393.697 972.773,392.698 975.528,391.706 978.282,390.722 981.037,389.745 983.791,388.777 986.546,387.816 989.3,386.863 992.054,385.917 994.809,384.978 997.563,384.047 1000.32,383.123 1003.07,382.206 1005.83,381.297 1008.58,380.394 1011.34,379.499 1014.09,378.61 1016.84,377.728 1019.6,376.853 1022.35,375.984 1025.11,375.122 1027.86,374.267 1030.62,373.418 1033.37,372.576 1036.13,371.74 1038.88,370.91 1041.63,370.086 1044.39,369.269 1047.14,368.458 1049.9,367.652 1052.65,366.853 1055.41,366.06 1058.16,365.272 1060.92,364.49 1063.67,363.714 1066.42,362.944 1069.18,362.179 1071.93,361.42 1074.69,360.666 1077.44,359.918 1080.2,359.175 1082.95,358.437 1085.71,357.705 1088.46,356.978 1091.21,356.256 1093.97,355.54 1096.72,354.828 1099.48,354.121 1102.23,353.419 1104.99,352.723 1107.74,352.031 1110.5,351.344 1113.25,350.661 1116.01,349.983 1118.76,349.31 1121.51,348.642 1124.27,347.978 1127.02,347.319 1129.78,346.664 1132.53,346.013 1135.29,345.367 1138.04,344.726 1140.8,344.088 1143.55,343.455 1146.3,342.826 1149.06,342.201 1151.81,341.581 1154.57,340.964 1157.32,340.352 1160.08,339.743 1162.83,339.139 1165.59,338.538 1168.34,337.942 1171.09,337.349 1173.85,336.76 1176.6,336.174 1179.36,335.593 1182.11,335.015 1184.87,334.441 1187.62,333.87 1190.38,333.303 1193.13,332.74 1195.88,332.18 1198.64,331.623 1201.39,331.07 1204.15,330.52 1206.9,329.974 1209.66,329.431 1212.41,328.891 1215.17,328.355 1217.92,327.822 1220.67,327.291 1223.43,326.765 1226.18,326.241 1228.94,325.72 1231.69,325.202 1234.45,324.688 1237.2,324.176 1239.96,323.667 1242.71,323.162 1245.46,322.659 1248.22,322.159 1250.97,321.662 1253.73,321.168 1256.48,320.676 1259.24,320.187 1261.99,319.701 1264.75,319.218 1267.5,318.737 1270.25,318.259 1273.01,317.784 1275.76,317.311 1278.52,316.841 1281.27,316.373 1284.03,315.908 1286.78,315.445 1289.54,314.985 1292.29,314.527 1295.04,314.071 1297.8,313.618 1300.55,313.168 1303.31,312.719 1306.06,312.273 1308.82,311.83 1311.57,311.388 1314.33,310.949 1317.08,310.512 1319.83,310.077 1322.59,309.645 1325.34,309.214 1328.1,308.786 1330.85,308.36 1333.61,307.936 1336.36,307.514 1339.12,307.094 1341.87,306.676 1344.62,306.26 1347.38,305.847 1350.13,305.435 1352.89,305.025 1355.64,304.617 1358.4,304.212 1361.15,303.808 1363.91,303.406 1366.66,303.005 1369.41,302.607 1372.17,302.211 1374.92,301.816 1377.68,301.423 1380.43,301.032 1383.19,300.643 1385.94,300.255 1388.7,299.87 1391.45,299.485 1394.21,299.103 1396.96,298.722 1399.71,298.343 1402.47,297.966 1405.22,297.59 1407.98,297.216 1410.73,296.844 1413.49,296.473 1416.24,296.103 1419,295.736 1421.75,295.369 1424.5,295.005 1427.26,294.641 1430.01,294.28 1432.77,293.92 1435.52,293.561 1438.28,293.204 1441.03,292.848 1443.79,292.493 1446.54,292.141 1449.29,291.789 1452.05,291.439 1454.8,291.09 1457.56,290.743 1460.31,290.397 1463.07,290.052 1465.82,289.709 1468.58,289.367 1471.33,289.026 1474.08,288.686 1476.84,288.348 1479.59,288.011 1482.35,287.676 1485.1,287.341 1487.86,287.008 1490.61,286.676 1493.37,286.346 1496.12,286.016 1498.87,285.688 1501.63,285.361 1504.38,285.035 1507.14,284.71 1509.89,284.386 1512.65,284.063 1515.4,283.742 1518.16,283.422 1520.91,283.102 1523.66,282.784 1526.42,282.467 1529.17,282.151 1531.93,281.836 1534.68,281.522 1537.44,281.209 1540.19,280.898 1542.95,280.587 1545.7,280.277 1548.45,279.968 1551.21,279.66 1553.96,279.353 1556.72,279.048 1559.47,278.743 1562.23,278.439 1564.98,278.136 1567.74,277.834 1570.49,277.532 1573.24,277.232 1576,276.933 1578.75,276.635 1581.51,276.337 1584.26,276.04 1587.02,275.745 1589.77,275.45 1592.53,275.156 1595.28,274.863 1598.03,274.57 1600.79,274.279 1603.54,273.988 1606.3,273.699 1609.05,273.41 1611.81,273.122 1614.56,272.834 1617.32,272.548 1620.07,272.262 1622.82,271.977 1625.58,271.693 1628.33,271.409 1631.09,271.127 1633.84,270.845 1636.6,270.564 1639.35,270.284 1642.11,270.004 1644.86,269.725 1647.62,269.447 1650.37,269.17 1653.12,268.893 1655.88,268.617 1658.63,268.342 1661.39,268.068 1664.14,267.794 1666.9,267.521 1669.65,267.248 1672.41,266.977 1675.16,266.706 1677.91,266.435 1680.67,266.165 1683.42,265.896 1686.18,265.628 1688.93,265.36 1691.69,265.093 1694.44,264.827 1697.2,264.561 1699.95,264.296 1702.7,264.031 1705.46,263.767 1708.21,263.504 1710.97,263.241 1713.72,262.979 1716.48,262.717 1719.23,262.456 1721.99,262.196 1724.74,261.936 1727.49,261.677 1730.25,261.418 1733,261.16 1735.76,260.902 1738.51,260.645 1741.27,260.389 1744.02,260.133 1746.78,259.878 1749.53,259.623 1752.28,259.369 1755.04,259.115 1757.79,258.862 1760.55,258.609 1763.3,258.357 1766.06,258.105 1768.81,257.854 1771.57,257.604 1774.32,257.353 1777.07,257.104 1779.83,256.855 1782.58,256.606 1785.34,256.358 1788.09,256.11 1790.85,255.863 1793.6,255.616 1796.36,255.37 1799.11,255.124 1801.86,254.879 1804.62,254.634 1807.37,254.39 1810.13,254.146 1812.88,253.903 1815.64,253.66 1818.39,253.417 1821.15,253.175 1823.9,252.933 1826.65,252.692 1829.41,252.451 1832.16,252.211 1834.92,251.971 1837.67,251.731 1840.43,251.492 1843.18,251.253 1845.94,251.015 1848.69,250.777 1851.44,250.539 1854.2,250.302 1856.95,250.066 1859.71,249.829 1862.46,249.593 1865.22,249.358 1867.97,249.123 1870.73,248.888 1873.48,248.653 1876.23,248.419 1878.99,248.186 1881.74,247.952 1884.5,247.719 1887.25,247.487 1890.01,247.255 1892.76,247.023 1895.52,246.791 1898.27,246.56 1901.03,246.329 1903.78,246.099 1906.53,245.869 1909.29,245.639 1912.04,245.41 1914.8,245.181 1917.55,244.952 1920.31,244.723 1923.06,244.495 1925.82,244.268 1928.57,244.04 1931.32,243.813 1934.08,243.586 1936.83,243.36 1939.59,243.134 1942.34,242.908 1945.1,242.682 1947.85,242.457 1950.61,242.232 1953.36,242.008 1956.11,241.784 1958.87,241.56 1961.62,241.336 1964.38,241.112 1967.13,240.889 1969.89,240.667 1972.64,240.444 1975.4,240.222 1978.15,240 1980.9,239.778 1983.66,239.557 1986.41,239.336 1989.17,239.115 1991.92,238.895 1994.68,238.674 1997.43,238.455 2000.19,238.235 2002.94,238.015 2005.69,237.796 2008.45,237.578 2011.2,237.359 2013.96,237.141 2016.71,236.923 2019.47,236.705 2022.22,236.487 2024.98,236.27 2027.73,236.053 2030.48,235.836 2033.24,235.62 2035.99,235.404 2038.75,235.188 2041.5,234.972 2044.26,234.757 2047.01,234.541 2049.77,234.326 2052.52,234.112 2055.27,233.897 2058.03,233.683 2060.78,233.469 2063.54,233.255 2066.29,233.041 2069.05,232.828 2071.8,232.615 2074.56,232.402 2077.31,232.19 2080.06,231.977 2082.82,231.765 2085.57,231.553 2088.33,231.341 2091.08,231.13 2093.84,230.918 2096.59,230.707 2099.35,230.496 2102.1,230.286 2104.85,230.075 2107.61,229.865 2110.36,229.655 2113.12,229.445 2115.87,229.236 2118.63,229.026 2121.38,228.817 2124.14,228.608 2126.89,228.399 2129.64,228.191 2132.4,227.982 2135.15,227.774 2137.91,227.566 2140.66,227.359 2143.42,227.151 2146.17,226.944 2148.93,226.736 2151.68,226.529 2154.44,226.323 2157.19,226.116 2159.94,225.91 2162.7,225.703 2165.45,225.497 2168.21,225.291 2170.96,225.086 2173.72,224.88 2176.47,224.675 2179.23,224.47 2181.98,224.265 2184.73,224.06 2187.49,223.856 2190.24,223.651 2193,223.447 2195.75,223.243 2198.51,223.039 2201.26,222.835 2204.02,222.632 2206.77,222.428 2209.52,222.225 2212.28,222.022 2215.03,221.819 2217.79,221.616 2220.54,221.414 2223.3,221.212 2226.05,221.009 2228.81,220.807 2231.56,220.605 2234.31,220.404 2237.07,220.202 2239.82,220.001 2242.58,219.799 2245.33,219.598 2248.09,219.397 2250.84,219.197 2253.6,218.996 2256.35,218.795 2259.1,218.595 2261.86,218.395 2264.61,218.195 2267.37,217.995 2270.12,217.795 2272.88,217.596 2275.63,217.396 2278.39,217.197 2281.14,216.998 2283.89,216.799 2286.65,216.6 2289.4,216.401 2292.16,216.203 2294.91,216.004 2297.67,215.806 2300.42,215.608 2303.18,215.41 2305.93,215.212 2308.68,215.014 2311.44,214.817 2314.19,214.619 2316.95,214.422 2319.7,214.225 2322.46,214.028 2325.21,213.831 2327.97,213.634 2330.72,213.438 2333.47,213.241 2336.23,213.045 2338.98,212.849 2341.74,212.652 2344.49,212.456 2347.25,212.261 2350,212.065 2352.76,211.869 "/>
<polyline clip-path="url(#clip512)" style="stroke:#e26f46; stroke-linecap:round; stroke-linejoin:round; stroke-width:12; stroke-opacity:1; fill:none" points="149.191,735.212 151.945,713.805 154.7,693.197 157.454,673.379 160.209,654.342 162.963,636.075 165.718,618.566 168.472,601.803 171.227,585.773 173.981,570.463 176.735,555.859 179.49,541.945 182.244,528.707 184.999,516.127 187.753,504.191 190.508,492.879 193.262,482.176 196.017,472.064 198.771,462.524 201.526,453.538 204.28,445.088 207.034,437.155 209.789,429.72 212.543,422.763 215.298,416.266 218.052,410.21 220.807,404.575 223.561,399.343 226.316,394.495 229.07,390.013 231.825,385.879 234.579,382.075 237.333,378.583 240.088,375.384 242.842,372.463 245.597,369.802 248.351,367.385 251.106,365.197 253.86,363.222 256.615,361.446 259.369,359.853 262.124,358.431 264.878,357.165 267.632,356.045 270.387,355.057 273.141,354.191 275.896,353.434 278.65,352.778 281.405,352.212 284.159,351.726 286.914,351.313 289.668,350.963 292.423,350.669 295.177,350.425 297.932,350.225 300.686,350.063 303.44,349.935 306.195,349.834 308.949,349.757 311.704,349.7 314.458,349.658 317.213,349.629 319.967,349.61 322.722,349.597 325.476,349.59 328.231,349.585 330.985,349.583 333.739,349.581 336.494,349.579 339.248,349.577 342.003,349.576 344.757,349.575 347.512,349.575 350.266,349.574 353.021,349.575 355.775,349.577 358.53,349.582 361.284,349.591 364.038,349.605 366.793,349.625 369.547,349.652 372.302,349.688 375.056,349.733 377.811,349.789 380.565,349.856 383.32,349.937 386.074,350.033 388.829,350.143 391.583,350.271 394.337,350.417 397.092,350.581 399.846,350.767 402.601,350.975 405.355,351.206 408.11,351.461 410.864,351.743 413.619,352.051 416.373,352.387 419.128,352.751 421.882,353.145 424.636,353.568 427.391,354.022 430.145,354.507 432.9,355.024 435.654,355.573 438.409,356.154 441.163,356.768 443.918,357.416 446.672,358.097 449.427,358.813 452.181,359.562 454.936,360.345 457.69,361.162 460.444,362.014 463.199,362.9 465.953,363.82 468.708,364.774 471.462,365.762 474.217,366.784 476.971,367.839 479.726,368.927 482.48,370.048 485.235,371.2 487.989,372.385 490.743,373.601 493.498,374.847 496.252,376.123 499.007,377.429 501.761,378.763 504.516,380.126 507.27,381.517 510.025,382.935 512.779,384.38 515.534,385.851 518.288,387.347 521.042,388.867 523.797,390.41 526.551,391.977 529.306,393.565 532.06,395.176 534.815,396.807 537.569,398.458 540.324,400.128 543.078,401.818 545.833,403.525 548.587,405.249 551.341,406.99 554.096,408.747 556.85,410.519 559.605,412.306 562.359,414.106 565.114,415.92 567.868,417.746 570.623,419.584 573.377,421.433 576.132,423.292 578.886,425.161 581.641,427.04 584.395,428.926 587.149,430.821 589.904,432.723 592.658,434.631 595.413,436.545 598.167,438.464 600.922,440.388 603.676,442.316 606.431,444.247 609.185,446.182 611.94,448.119 614.694,450.058 617.448,451.998 620.203,453.94 622.957,455.882 625.712,457.824 628.466,459.766 631.221,461.707 633.975,463.646 636.73,465.584 639.484,467.521 642.239,469.454 644.993,471.385 647.747,473.312 650.502,475.236 653.256,477.156 656.011,479.072 658.765,480.982 661.52,482.888 664.274,484.789 667.029,486.684 669.783,488.572 672.538,490.455 675.292,492.331 678.046,494.2 680.801,496.063 683.555,497.917 686.31,499.765 689.064,501.604 691.819,503.436 694.573,505.259 697.328,507.073 700.082,508.879 702.837,510.677 705.591,512.465 708.345,514.244 711.1,516.013 713.854,517.773 716.609,519.523 719.363,521.264 722.118,522.995 724.872,524.716 727.627,526.427 730.381,528.127 733.136,529.817 735.89,531.497 738.645,533.166 741.399,534.825 744.153,536.473 746.908,538.11 749.662,539.737 752.417,541.352 755.171,542.956 757.926,544.55 760.68,546.132 763.435,547.703 766.189,549.263 768.944,550.812 771.698,552.35 774.452,553.876 777.207,555.391 779.961,556.895 782.716,558.388 785.47,559.869 788.225,561.34 790.979,562.798 793.734,564.246 796.488,565.682 799.243,567.107 801.997,568.521 804.751,569.923 807.506,571.315 810.26,572.694 813.015,574.063 815.769,575.42 818.524,576.766 821.278,578.101 824.033,579.425 826.787,580.737 829.542,582.039 832.296,583.329 835.05,584.608 837.805,585.876 840.559,587.133 843.314,588.379 846.068,589.614 848.823,590.838 851.577,592.052 854.332,593.254 857.086,594.446 859.841,595.627 862.595,596.798 865.349,597.957 868.104,599.107 870.858,600.246 873.613,601.375 876.367,602.493 879.122,603.601 881.876,604.698 884.631,605.786 887.385,606.864 890.14,607.931 892.894,608.989 895.649,610.037 898.403,611.075 901.157,612.103 903.912,613.121 906.666,614.13 909.421,615.129 912.175,616.118 914.93,617.099 917.684,618.069 920.439,619.031 923.193,619.983 925.948,620.926 928.702,621.86 931.456,622.785 934.211,623.701 936.965,624.608 939.72,625.506 942.474,626.396 945.229,627.277 947.983,628.149 950.738,629.013 953.492,629.868 956.247,630.715 959.001,631.553 961.755,632.384 964.51,633.206 967.264,634.02 970.019,634.826 972.773,635.623 975.528,636.413 978.282,637.196 981.037,637.97 983.791,638.736 986.546,639.495 989.3,640.247 992.054,640.99 994.809,641.727 997.563,642.456 1000.32,643.177 1003.07,643.891 1005.83,644.598 1008.58,645.298 1011.34,645.991 1014.09,646.677 1016.84,647.356 1019.6,648.028 1022.35,648.693 1025.11,649.352 1027.86,650.003 1030.62,650.648 1033.37,651.287 1036.13,651.919 1038.88,652.544 1041.63,653.164 1044.39,653.776 1047.14,654.383 1049.9,654.983 1052.65,655.578 1055.41,656.166 1058.16,656.748 1060.92,657.324 1063.67,657.894 1066.42,658.458 1069.18,659.017 1071.93,659.57 1074.69,660.117 1077.44,660.659 1080.2,661.195 1082.95,661.725 1085.71,662.25 1088.46,662.77 1091.21,663.285 1093.97,663.794 1096.72,664.298 1099.48,664.796 1102.23,665.29 1104.99,665.779 1107.74,666.262 1110.5,666.741 1113.25,667.215 1116.01,667.684 1118.76,668.148 1121.51,668.607 1124.27,669.062 1127.02,669.512 1129.78,669.957 1132.53,670.398 1135.29,670.834 1138.04,671.266 1140.8,671.693 1143.55,672.116 1146.3,672.534 1149.06,672.949 1151.81,673.359 1154.57,673.764 1157.32,674.166 1160.08,674.563 1162.83,674.957 1165.59,675.346 1168.34,675.732 1171.09,676.113 1173.85,676.49 1176.6,676.864 1179.36,677.234 1182.11,677.6 1184.87,677.962 1187.62,678.321 1190.38,678.675 1193.13,679.027 1195.88,679.374 1198.64,679.718 1201.39,680.059 1204.15,680.396 1206.9,680.73 1209.66,681.06 1212.41,681.387 1215.17,681.71 1217.92,682.03 1220.67,682.347 1223.43,682.661 1226.18,682.972 1228.94,683.279 1231.69,683.583 1234.45,683.884 1237.2,684.183 1239.96,684.478 1242.71,684.77 1245.46,685.059 1248.22,685.345 1250.97,685.629 1253.73,685.909 1256.48,686.187 1259.24,686.462 1261.99,686.734 1264.75,687.003 1267.5,687.27 1270.25,687.534 1273.01,687.795 1275.76,688.054 1278.52,688.31 1281.27,688.564 1284.03,688.815 1286.78,689.064 1289.54,689.31 1292.29,689.553 1295.04,689.794 1297.8,690.033 1300.55,690.27 1303.31,690.504 1306.06,690.736 1308.82,690.965 1311.57,691.192 1314.33,691.417 1317.08,691.64 1319.83,691.861 1322.59,692.079 1325.34,692.295 1328.1,692.509 1330.85,692.721 1333.61,692.931 1336.36,693.139 1339.12,693.345 1341.87,693.548 1344.62,693.75 1347.38,693.95 1350.13,694.148 1352.89,694.344 1355.64,694.538 1358.4,694.73 1361.15,694.92 1363.91,695.108 1366.66,695.294 1369.41,695.479 1372.17,695.662 1374.92,695.843 1377.68,696.022 1380.43,696.2 1383.19,696.376 1385.94,696.55 1388.7,696.723 1391.45,696.893 1394.21,697.063 1396.96,697.23 1399.71,697.396 1402.47,697.561 1405.22,697.723 1407.98,697.885 1410.73,698.044 1413.49,698.203 1416.24,698.359 1419,698.514 1421.75,698.668 1424.5,698.82 1427.26,698.971 1430.01,699.12 1432.77,699.268 1435.52,699.415 1438.28,699.56 1441.03,699.704 1443.79,699.846 1446.54,699.987 1449.29,700.127 1452.05,700.265 1454.8,700.402 1457.56,700.538 1460.31,700.672 1463.07,700.805 1465.82,700.937 1468.58,701.068 1471.33,701.197 1474.08,701.326 1476.84,701.453 1479.59,701.579 1482.35,701.703 1485.1,701.827 1487.86,701.949 1490.61,702.07 1493.37,702.191 1496.12,702.31 1498.87,702.427 1501.63,702.544 1504.38,702.66 1507.14,702.775 1509.89,702.888 1512.65,703.001 1515.4,703.113 1518.16,703.223 1520.91,703.333 1523.66,703.441 1526.42,703.549 1529.17,703.655 1531.93,703.761 1534.68,703.865 1537.44,703.969 1540.19,704.072 1542.95,704.174 1545.7,704.275 1548.45,704.375 1551.21,704.474 1553.96,704.572 1556.72,704.67 1559.47,704.766 1562.23,704.862 1564.98,704.956 1567.74,705.05 1570.49,705.144 1573.24,705.236 1576,705.327 1578.75,705.418 1581.51,705.508 1584.26,705.597 1587.02,705.685 1589.77,705.773 1592.53,705.86 1595.28,705.946 1598.03,706.031 1600.79,706.116 1603.54,706.2 1606.3,706.283 1609.05,706.365 1611.81,706.447 1614.56,706.528 1617.32,706.608 1620.07,706.688 1622.82,706.767 1625.58,706.845 1628.33,706.922 1631.09,706.999 1633.84,707.075 1636.6,707.151 1639.35,707.226 1642.11,707.3 1644.86,707.374 1647.62,707.447 1650.37,707.519 1653.12,707.591 1655.88,707.662 1658.63,707.733 1661.39,707.803 1664.14,707.872 1666.9,707.941 1669.65,708.009 1672.41,708.077 1675.16,708.144 1677.91,708.21 1680.67,708.276 1683.42,708.342 1686.18,708.406 1688.93,708.471 1691.69,708.535 1694.44,708.598 1697.2,708.661 1699.95,708.723 1702.7,708.784 1705.46,708.846 1708.21,708.906 1710.97,708.967 1713.72,709.026 1716.48,709.086 1719.23,709.144 1721.99,709.203 1724.74,709.26 1727.49,709.318 1730.25,709.375 1733,709.431 1735.76,709.487 1738.51,709.542 1741.27,709.597 1744.02,709.652 1746.78,709.706 1749.53,709.76 1752.28,709.813 1755.04,709.866 1757.79,709.918 1760.55,709.97 1763.3,710.022 1766.06,710.073 1768.81,710.124 1771.57,710.174 1774.32,710.224 1777.07,710.274 1779.83,710.323 1782.58,710.372 1785.34,710.42 1788.09,710.468 1790.85,710.516 1793.6,710.563 1796.36,710.61 1799.11,710.656 1801.86,710.703 1804.62,710.748 1807.37,710.794 1810.13,710.839 1812.88,710.884 1815.64,710.928 1818.39,710.972 1821.15,711.016 1823.9,711.059 1826.65,711.102 1829.41,711.145 1832.16,711.187 1834.92,711.229 1837.67,711.271 1840.43,711.312 1843.18,711.354 1845.94,711.394 1848.69,711.435 1851.44,711.475 1854.2,711.515 1856.95,711.555 1859.71,711.594 1862.46,711.633 1865.22,711.672 1867.97,711.71 1870.73,711.748 1873.48,711.786 1876.23,711.823 1878.99,711.861 1881.74,711.898 1884.5,711.935 1887.25,711.971 1890.01,712.007 1892.76,712.043 1895.52,712.079 1898.27,712.114 1901.03,712.15 1903.78,712.184 1906.53,712.219 1909.29,712.254 1912.04,712.288 1914.8,712.322 1917.55,712.355 1920.31,712.389 1923.06,712.422 1925.82,712.455 1928.57,712.488 1931.32,712.52 1934.08,712.553 1936.83,712.585 1939.59,712.616 1942.34,712.648 1945.1,712.679 1947.85,712.711 1950.61,712.742 1953.36,712.772 1956.11,712.803 1958.87,712.833 1961.62,712.863 1964.38,712.893 1967.13,712.923 1969.89,712.952 1972.64,712.982 1975.4,713.011 1978.15,713.04 1980.9,713.068 1983.66,713.097 1986.41,713.125 1989.17,713.153 1991.92,713.181 1994.68,713.209 1997.43,713.237 2000.19,713.264 2002.94,713.291 2005.69,713.318 2008.45,713.345 2011.2,713.371 2013.96,713.398 2016.71,713.424 2019.47,713.45 2022.22,713.476 2024.98,713.502 2027.73,713.527 2030.48,713.553 2033.24,713.578 2035.99,713.603 2038.75,713.628 2041.5,713.653 2044.26,713.677 2047.01,713.701 2049.77,713.726 2052.52,713.75 2055.27,713.774 2058.03,713.797 2060.78,713.821 2063.54,713.845 2066.29,713.868 2069.05,713.891 2071.8,713.914 2074.56,713.937 2077.31,713.96 2080.06,713.982 2082.82,714.005 2085.57,714.027 2088.33,714.049 2091.08,714.071 2093.84,714.093 2096.59,714.115 2099.35,714.136 2102.1,714.158 2104.85,714.179 2107.61,714.2 2110.36,714.221 2113.12,714.242 2115.87,714.263 2118.63,714.283 2121.38,714.304 2124.14,714.324 2126.89,714.345 2129.64,714.365 2132.4,714.385 2135.15,714.405 2137.91,714.424 2140.66,714.444 2143.42,714.464 2146.17,714.483 2148.93,714.502 2151.68,714.521 2154.44,714.541 2157.19,714.559 2159.94,714.578 2162.7,714.597 2165.45,714.616 2168.21,714.634 2170.96,714.652 2173.72,714.671 2176.47,714.689 2179.23,714.707 2181.98,714.725 2184.73,714.743 2187.49,714.76 2190.24,714.778 2193,714.796 2195.75,714.813 2198.51,714.83 2201.26,714.848 2204.02,714.865 2206.77,714.882 2209.52,714.899 2212.28,714.915 2215.03,714.932 2217.79,714.949 2220.54,714.965 2223.3,714.982 2226.05,714.998 2228.81,715.014 2231.56,715.031 2234.31,715.047 2237.07,715.063 2239.82,715.078 2242.58,715.094 2245.33,715.11 2248.09,715.126 2250.84,715.141 2253.6,715.157 2256.35,715.172 2259.1,715.187 2261.86,715.202 2264.61,715.217 2267.37,715.233 2270.12,715.247 2272.88,715.262 2275.63,715.277 2278.39,715.292 2281.14,715.306 2283.89,715.321 2286.65,715.335 2289.4,715.35 2292.16,715.364 2294.91,715.378 2297.67,715.392 2300.42,715.407 2303.18,715.421 2305.93,715.434 2308.68,715.448 2311.44,715.462 2314.19,715.476 2316.95,715.489 2319.7,715.503 2322.46,715.516 2325.21,715.53 2327.97,715.543 2330.72,715.556 2333.47,715.57 2336.23,715.583 2338.98,715.596 2341.74,715.609 2344.49,715.622 2347.25,715.635 2350,715.647 2352.76,715.66 "/>
<polyline clip-path="url(#clip512)" style="stroke:#3da44d; stroke-linecap:round; stroke-linejoin:round; stroke-width:12; stroke-opacity:1; fill:none" points="149.191,429.138 151.945,432.943 154.7,436.805 157.454,440.722 160.209,444.693 162.963,448.716 165.718,452.791 168.472,456.916 171.227,461.09 173.981,465.312 176.735,469.579 179.49,473.89 182.244,478.244 184.999,482.639 187.753,487.073 190.508,491.545 193.262,496.053 196.017,500.594 198.771,505.167 201.526,509.771 204.28,514.402 207.034,519.06 209.789,523.741 212.543,528.444 215.298,533.168 218.052,537.909 220.807,542.665 223.561,547.435 226.316,552.216 229.07,557.006 231.825,561.803 234.579,566.605 237.333,571.409 240.088,576.213 242.842,581.015 245.597,585.814 248.351,590.606 251.106,595.389 253.86,600.162 256.615,604.923 259.369,609.669 262.124,614.398 264.878,619.108 267.632,623.798 270.387,628.465 273.141,633.108 275.896,637.724 278.65,642.312 281.405,646.871 284.159,651.397 286.914,655.891 289.668,660.349 292.423,664.771 295.177,669.155 297.932,673.5 300.686,677.804 303.44,682.066 306.195,686.285 308.949,690.46 311.704,694.589 314.458,698.671 317.213,702.706 319.967,706.692 322.722,710.628 325.476,714.514 328.231,718.35 330.985,722.133 333.739,725.864 336.494,729.542 339.248,733.167 342.003,736.738 344.757,740.254 347.512,743.715 350.266,747.122 353.021,750.473 355.775,753.769 358.53,757.009 361.284,760.193 364.038,763.322 366.793,766.395 369.547,769.412 372.302,772.373 375.056,775.279 377.811,778.129 380.565,780.924 383.32,783.664 386.074,786.349 388.829,788.98 391.583,791.557 394.337,794.08 397.092,796.549 399.846,798.966 402.601,801.33 405.355,803.642 408.11,805.902 410.864,808.111 413.619,810.27 416.373,812.378 419.128,814.437 421.882,816.447 424.636,818.408 427.391,820.322 430.145,822.188 432.9,824.008 435.654,825.782 438.409,827.511 441.163,829.195 443.918,830.834 446.672,832.431 449.427,833.984 452.181,835.496 454.936,836.966 457.69,838.395 460.444,839.784 463.199,841.133 465.953,842.444 468.708,843.716 471.462,844.951 474.217,846.149 476.971,847.311 479.726,848.437 482.48,849.528 485.235,850.585 487.989,851.609 490.743,852.599 493.498,853.557 496.252,854.483 499.007,855.378 501.761,856.242 504.516,857.077 507.27,857.881 510.025,858.658 512.779,859.406 515.534,860.126 518.288,860.819 521.042,861.486 523.797,862.127 526.551,862.742 529.306,863.332 532.06,863.898 534.815,864.441 537.569,864.96 540.324,865.456 543.078,865.929 545.833,866.381 548.587,866.812 551.341,867.222 554.096,867.611 556.85,867.98 559.605,868.33 562.359,868.66 565.114,868.972 567.868,869.266 570.623,869.542 573.377,869.801 576.132,870.042 578.886,870.267 581.641,870.476 584.395,870.669 587.149,870.846 589.904,871.008 592.658,871.156 595.413,871.289 598.167,871.408 600.922,871.513 603.676,871.605 606.431,871.684 609.185,871.75 611.94,871.804 614.694,871.846 617.448,871.875 620.203,871.893 622.957,871.9 625.712,871.896 628.466,871.882 631.221,871.856 633.975,871.821 636.73,871.776 639.484,871.721 642.239,871.656 644.993,871.583 647.747,871.5 650.502,871.409 653.256,871.309 656.011,871.201 658.765,871.085 661.52,870.961 664.274,870.83 667.029,870.691 669.783,870.545 672.538,870.391 675.292,870.231 678.046,870.064 680.801,869.891 683.555,869.712 686.31,869.526 689.064,869.334 691.819,869.137 694.573,868.933 697.328,868.725 700.082,868.511 702.837,868.292 705.591,868.068 708.345,867.839 711.1,867.605 713.854,867.366 716.609,867.123 719.363,866.876 722.118,866.625 724.872,866.369 727.627,866.11 730.381,865.846 733.136,865.579 735.89,865.309 738.645,865.035 741.399,864.757 744.153,864.476 746.908,864.192 749.662,863.905 752.417,863.615 755.171,863.322 757.926,863.026 760.68,862.728 763.435,862.427 766.189,862.124 768.944,861.818 771.698,861.51 774.452,861.199 777.207,860.887 779.961,860.572 782.716,860.255 785.47,859.937 788.225,859.616 790.979,859.294 793.734,858.97 796.488,858.644 799.243,858.317 801.997,857.989 804.751,857.658 807.506,857.327 810.26,856.994 813.015,856.66 815.769,856.325 818.524,855.988 821.278,855.651 824.033,855.313 826.787,854.973 829.542,854.633 832.296,854.292 835.05,853.95 837.805,853.607 840.559,853.263 843.314,852.919 846.068,852.574 848.823,852.229 851.577,851.883 854.332,851.536 857.086,851.19 859.841,850.842 862.595,850.495 865.349,850.147 868.104,849.798 870.858,849.45 873.613,849.101 876.367,848.752 879.122,848.403 881.876,848.054 884.631,847.704 887.385,847.355 890.14,847.006 892.894,846.656 895.649,846.307 898.403,845.958 901.157,845.609 903.912,845.26 906.666,844.911 909.421,844.562 912.175,844.214 914.93,843.865 917.684,843.517 920.439,843.17 923.193,842.822 925.948,842.475 928.702,842.129 931.456,841.782 934.211,841.436 936.965,841.091 939.72,840.745 942.474,840.401 945.229,840.057 947.983,839.713 950.738,839.37 953.492,839.027 956.247,838.685 959.001,838.343 961.755,838.002 964.51,837.662 967.264,837.322 970.019,836.983 972.773,836.644 975.528,836.306 978.282,835.969 981.037,835.632 983.791,835.297 986.546,834.961 989.3,834.627 992.054,834.293 994.809,833.96 997.563,833.628 1000.32,833.296 1003.07,832.966 1005.83,832.636 1008.58,832.307 1011.34,831.978 1014.09,831.651 1016.84,831.324 1019.6,830.998 1022.35,830.673 1025.11,830.349 1027.86,830.026 1030.62,829.703 1033.37,829.382 1036.13,829.061 1038.88,828.741 1041.63,828.422 1044.39,828.104 1047.14,827.787 1049.9,827.471 1052.65,827.156 1055.41,826.841 1058.16,826.528 1060.92,826.215 1063.67,825.904 1066.42,825.593 1069.18,825.283 1071.93,824.975 1074.69,824.667 1077.44,824.36 1080.2,824.054 1082.95,823.749 1085.71,823.445 1088.46,823.143 1091.21,822.841 1093.97,822.54 1096.72,822.24 1099.48,821.941 1102.23,821.643 1104.99,821.346 1107.74,821.05 1110.5,820.755 1113.25,820.461 1116.01,820.168 1118.76,819.876 1121.51,819.585 1124.27,819.295 1127.02,819.006 1129.78,818.718 1132.53,818.431 1135.29,818.145 1138.04,817.86 1140.8,817.576 1143.55,817.294 1146.3,817.012 1149.06,816.731 1151.81,816.451 1154.57,816.172 1157.32,815.895 1160.08,815.618 1162.83,815.342 1165.59,815.068 1168.34,814.794 1171.09,814.521 1173.85,814.25 1176.6,813.979 1179.36,813.709 1182.11,813.441 1184.87,813.173 1187.62,812.907 1190.38,812.641 1193.13,812.377 1195.88,812.113 1198.64,811.851 1201.39,811.589 1204.15,811.329 1206.9,811.069 1209.66,810.811 1212.41,810.554 1215.17,810.297 1217.92,810.042 1220.67,809.787 1223.43,809.534 1226.18,809.282 1228.94,809.03 1231.69,808.78 1234.45,808.53 1237.2,808.282 1239.96,808.035 1242.71,807.788 1245.46,807.543 1248.22,807.298 1250.97,807.055 1253.73,806.812 1256.48,806.571 1259.24,806.33 1261.99,806.091 1264.75,805.852 1267.5,805.615 1270.25,805.378 1273.01,805.143 1275.76,804.908 1278.52,804.674 1281.27,804.442 1284.03,804.21 1286.78,803.979 1289.54,803.749 1292.29,803.52 1295.04,803.292 1297.8,803.065 1300.55,802.839 1303.31,802.614 1306.06,802.39 1308.82,802.167 1311.57,801.944 1314.33,801.723 1317.08,801.503 1319.83,801.283 1322.59,801.064 1325.34,800.847 1328.1,800.63 1330.85,800.414 1333.61,800.199 1336.36,799.985 1339.12,799.772 1341.87,799.56 1344.62,799.349 1347.38,799.138 1350.13,798.929 1352.89,798.72 1355.64,798.512 1358.4,798.306 1361.15,798.1 1363.91,797.895 1366.66,797.69 1369.41,797.487 1372.17,797.285 1374.92,797.083 1377.68,796.882 1380.43,796.682 1383.19,796.483 1385.94,796.285 1388.7,796.088 1391.45,795.892 1394.21,795.696 1396.96,795.501 1399.71,795.308 1402.47,795.114 1405.22,794.922 1407.98,794.731 1410.73,794.54 1413.49,794.351 1416.24,794.162 1419,793.974 1421.75,793.786 1424.5,793.6 1427.26,793.414 1430.01,793.23 1432.77,793.046 1435.52,792.862 1438.28,792.68 1441.03,792.498 1443.79,792.317 1446.54,792.137 1449.29,791.958 1452.05,791.78 1454.8,791.602 1457.56,791.425 1460.31,791.249 1463.07,791.074 1465.82,790.899 1468.58,790.725 1471.33,790.552 1474.08,790.38 1476.84,790.208 1479.59,790.037 1482.35,789.867 1485.1,789.698 1487.86,789.53 1490.61,789.362 1493.37,789.195 1496.12,789.028 1498.87,788.863 1501.63,788.698 1504.38,788.534 1507.14,788.37 1509.89,788.208 1512.65,788.046 1515.4,787.884 1518.16,787.724 1520.91,787.564 1523.66,787.405 1526.42,787.246 1529.17,787.088 1531.93,786.931 1534.68,786.775 1537.44,786.619 1540.19,786.464 1542.95,786.31 1545.7,786.156 1548.45,786.003 1551.21,785.851 1553.96,785.7 1556.72,785.549 1559.47,785.398 1562.23,785.249 1564.98,785.1 1567.74,784.951 1570.49,784.804 1573.24,784.657 1576,784.511 1578.75,784.365 1581.51,784.22 1584.26,784.075 1587.02,783.932 1589.77,783.789 1592.53,783.646 1595.28,783.504 1598.03,783.363 1600.79,783.222 1603.54,783.082 1606.3,782.943 1609.05,782.804 1611.81,782.666 1614.56,782.528 1617.32,782.392 1620.07,782.255 1622.82,782.119 1625.58,781.984 1628.33,781.85 1631.09,781.716 1633.84,781.582 1636.6,781.45 1639.35,781.318 1642.11,781.186 1644.86,781.055 1647.62,780.924 1650.37,780.795 1653.12,780.665 1655.88,780.537 1658.63,780.408 1661.39,780.281 1664.14,780.154 1666.9,780.027 1669.65,779.901 1672.41,779.776 1675.16,779.651 1677.91,779.527 1680.67,779.403 1683.42,779.28 1686.18,779.158 1688.93,779.036 1691.69,778.914 1694.44,778.793 1697.2,778.673 1699.95,778.553 1702.7,778.433 1705.46,778.314 1708.21,778.196 1710.97,778.078 1713.72,777.961 1716.48,777.844 1719.23,777.728 1721.99,777.612 1724.74,777.496 1727.49,777.382 1730.25,777.267 1733,777.154 1735.76,777.04 1738.51,776.928 1741.27,776.815 1744.02,776.703 1746.78,776.592 1749.53,776.481 1752.28,776.371 1755.04,776.261 1757.79,776.152 1760.55,776.043 1763.3,775.934 1766.06,775.827 1768.81,775.719 1771.57,775.612 1774.32,775.506 1777.07,775.399 1779.83,775.294 1782.58,775.189 1785.34,775.084 1788.09,774.98 1790.85,774.876 1793.6,774.773 1796.36,774.67 1799.11,774.567 1801.86,774.465 1804.62,774.364 1807.37,774.263 1810.13,774.162 1812.88,774.062 1815.64,773.962 1818.39,773.863 1821.15,773.764 1823.9,773.665 1826.65,773.567 1829.41,773.47 1832.16,773.372 1834.92,773.276 1837.67,773.179 1840.43,773.083 1843.18,772.988 1845.94,772.893 1848.69,772.798 1851.44,772.704 1854.2,772.61 1856.95,772.516 1859.71,772.423 1862.46,772.331 1865.22,772.238 1867.97,772.146 1870.73,772.055 1873.48,771.964 1876.23,771.873 1878.99,771.783 1881.74,771.693 1884.5,771.603 1887.25,771.514 1890.01,771.425 1892.76,771.337 1895.52,771.249 1898.27,771.161 1901.03,771.074 1903.78,770.987 1906.53,770.901 1909.29,770.815 1912.04,770.729 1914.8,770.644 1917.55,770.558 1920.31,770.474 1923.06,770.39 1925.82,770.306 1928.57,770.222 1931.32,770.139 1934.08,770.056 1936.83,769.973 1939.59,769.891 1942.34,769.81 1945.1,769.728 1947.85,769.647 1950.61,769.566 1953.36,769.486 1956.11,769.406 1958.87,769.326 1961.62,769.247 1964.38,769.168 1967.13,769.089 1969.89,769.01 1972.64,768.932 1975.4,768.855 1978.15,768.777 1980.9,768.7 1983.66,768.624 1986.41,768.547 1989.17,768.471 1991.92,768.395 1994.68,768.32 1997.43,768.245 2000.19,768.17 2002.94,768.095 2005.69,768.021 2008.45,767.947 2011.2,767.874 2013.96,767.801 2016.71,767.728 2019.47,767.655 2022.22,767.583 2024.98,767.511 2027.73,767.439 2030.48,767.368 2033.24,767.297 2035.99,767.226 2038.75,767.155 2041.5,767.085 2044.26,767.015 2047.01,766.946 2049.77,766.876 2052.52,766.807 2055.27,766.739 2058.03,766.67 2060.78,766.602 2063.54,766.534 2066.29,766.466 2069.05,766.399 2071.8,766.332 2074.56,766.265 2077.31,766.199 2080.06,766.133 2082.82,766.067 2085.57,766.001 2088.33,765.936 2091.08,765.871 2093.84,765.806 2096.59,765.741 2099.35,765.677 2102.1,765.613 2104.85,765.549 2107.61,765.486 2110.36,765.423 2113.12,765.36 2115.87,765.297 2118.63,765.234 2121.38,765.172 2124.14,765.11 2126.89,765.049 2129.64,764.987 2132.4,764.926 2135.15,764.865 2137.91,764.805 2140.66,764.744 2143.42,764.684 2146.17,764.624 2148.93,764.565 2151.68,764.505 2154.44,764.446 2157.19,764.387 2159.94,764.328 2162.7,764.27 2165.45,764.212 2168.21,764.154 2170.96,764.096 2173.72,764.039 2176.47,763.982 2179.23,763.924 2181.98,763.868 2184.73,763.811 2187.49,763.755 2190.24,763.699 2193,763.643 2195.75,763.587 2198.51,763.532 2201.26,763.477 2204.02,763.422 2206.77,763.367 2209.52,763.313 2212.28,763.259 2215.03,763.205 2217.79,763.151 2220.54,763.097 2223.3,763.044 2226.05,762.991 2228.81,762.938 2231.56,762.885 2234.31,762.832 2237.07,762.78 2239.82,762.728 2242.58,762.676 2245.33,762.625 2248.09,762.573 2250.84,762.522 2253.6,762.471 2256.35,762.42 2259.1,762.369 2261.86,762.319 2264.61,762.269 2267.37,762.219 2270.12,762.169 2272.88,762.119 2275.63,762.07 2278.39,762.021 2281.14,761.972 2283.89,761.923 2286.65,761.874 2289.4,761.826 2292.16,761.778 2294.91,761.73 2297.67,761.682 2300.42,761.634 2303.18,761.587 2305.93,761.54 2308.68,761.493 2311.44,761.446 2314.19,761.399 2316.95,761.353 2319.7,761.306 2322.46,761.26 2325.21,761.214 2327.97,761.168 2330.72,761.123 2333.47,761.078 2336.23,761.032 2338.98,760.987 2341.74,760.942 2344.49,760.898 2347.25,760.853 2350,760.809 2352.76,760.765 "/>
<path clip-path="url(#clip510)" d="M1969.85 1377.32 L2279.3 1377.32 L2279.3 1169.96 L1969.85 1169.96  Z" fill="#ffffff" fill-rule="evenodd" fill-opacity="1"/>
<polyline clip-path="url(#clip510)" style="stroke:#000000; stroke-linecap:round; stroke-linejoin:round; stroke-width:4; stroke-opacity:1; fill:none" points="1969.85,1377.32 2279.3,1377.32 2279.3,1169.96 1969.85,1169.96 1969.85,1377.32 "/>
<polyline clip-path="url(#clip510)" style="stroke:#009af9; stroke-linecap:round; stroke-linejoin:round; stroke-width:12; stroke-opacity:1; fill:none" points="1994.33,1221.8 2141.24,1221.8 "/>
<path clip-path="url(#clip510)" d="M2165.72 1228.84 L2165.72 1213.15 L2169.98 1213.15 L2169.98 1228.68 Q2169.98 1232.36 2171.42 1234.21 Q2172.85 1236.04 2175.72 1236.04 Q2179.17 1236.04 2181.16 1233.84 Q2183.18 1231.64 2183.18 1227.85 L2183.18 1213.15 L2187.44 1213.15 L2187.44 1239.08 L2183.18 1239.08 L2183.18 1235.09 Q2181.63 1237.45 2179.57 1238.61 Q2177.53 1239.75 2174.82 1239.75 Q2170.35 1239.75 2168.04 1236.97 Q2165.72 1234.19 2165.72 1228.84 M2176.44 1212.52 L2176.44 1212.52 Z" fill="#000000" fill-rule="nonzero" fill-opacity="1" /><path clip-path="url(#clip510)" d="M2195.82 1203.06 L2205.63 1203.06 L2205.63 1206.37 L2200.07 1206.37 L2200.07 1242.02 L2205.63 1242.02 L2205.63 1245.33 L2195.82 1245.33 L2195.82 1203.06 Z" fill="#000000" fill-rule="nonzero" fill-opacity="1" /><path clip-path="url(#clip510)" d="M2216.12 1235.14 L2223.76 1235.14 L2223.76 1208.77 L2215.44 1210.44 L2215.44 1206.18 L2223.71 1204.52 L2228.38 1204.52 L2228.38 1235.14 L2236.02 1235.14 L2236.02 1239.08 L2216.12 1239.08 L2216.12 1235.14 Z" fill="#000000" fill-rule="nonzero" fill-opacity="1" /><path clip-path="url(#clip510)" d="M2254.82 1203.06 L2254.82 1245.33 L2245 1245.33 L2245 1242.02 L2250.54 1242.02 L2250.54 1206.37 L2245 1206.37 L2245 1203.06 L2254.82 1203.06 Z" fill="#000000" fill-rule="nonzero" fill-opacity="1" /><polyline clip-path="url(#clip510)" style="stroke:#e26f46; stroke-linecap:round; stroke-linejoin:round; stroke-width:12; stroke-opacity:1; fill:none" points="1994.33,1273.64 2141.24,1273.64 "/>
<path clip-path="url(#clip510)" d="M2165.72 1280.68 L2165.72 1264.99 L2169.98 1264.99 L2169.98 1280.52 Q2169.98 1284.2 2171.42 1286.05 Q2172.85 1287.88 2175.72 1287.88 Q2179.17 1287.88 2181.16 1285.68 Q2183.18 1283.48 2183.18 1279.69 L2183.18 1264.99 L2187.44 1264.99 L2187.44 1290.92 L2183.18 1290.92 L2183.18 1286.93 Q2181.63 1289.29 2179.57 1290.45 Q2177.53 1291.59 2174.82 1291.59 Q2170.35 1291.59 2168.04 1288.81 Q2165.72 1286.03 2165.72 1280.68 M2176.44 1264.36 L2176.44 1264.36 Z" fill="#000000" fill-rule="nonzero" fill-opacity="1" /><path clip-path="url(#clip510)" d="M2195.82 1254.9 L2205.63 1254.9 L2205.63 1258.21 L2200.07 1258.21 L2200.07 1293.86 L2205.63 1293.86 L2205.63 1297.17 L2195.82 1297.17 L2195.82 1254.9 Z" fill="#000000" fill-rule="nonzero" fill-opacity="1" /><path clip-path="url(#clip510)" d="M2219.33 1286.98 L2235.65 1286.98 L2235.65 1290.92 L2213.71 1290.92 L2213.71 1286.98 Q2216.37 1284.23 2220.95 1279.6 Q2225.56 1274.94 2226.74 1273.6 Q2228.99 1271.08 2229.87 1269.34 Q2230.77 1267.58 2230.77 1265.89 Q2230.77 1263.14 2228.82 1261.4 Q2226.9 1259.67 2223.8 1259.67 Q2221.6 1259.67 2219.15 1260.43 Q2216.72 1261.19 2213.94 1262.74 L2213.94 1258.02 Q2216.76 1256.89 2219.22 1256.31 Q2221.67 1255.73 2223.71 1255.73 Q2229.08 1255.73 2232.27 1258.42 Q2235.47 1261.1 2235.47 1265.59 Q2235.47 1267.72 2234.66 1269.64 Q2233.87 1271.54 2231.76 1274.13 Q2231.19 1274.8 2228.08 1278.02 Q2224.98 1281.22 2219.33 1286.98 Z" fill="#000000" fill-rule="nonzero" fill-opacity="1" /><path clip-path="url(#clip510)" d="M2254.82 1254.9 L2254.82 1297.17 L2245 1297.17 L2245 1293.86 L2250.54 1293.86 L2250.54 1258.21 L2245 1258.21 L2245 1254.9 L2254.82 1254.9 Z" fill="#000000" fill-rule="nonzero" fill-opacity="1" /><polyline clip-path="url(#clip510)" style="stroke:#3da44d; stroke-linecap:round; stroke-linejoin:round; stroke-width:12; stroke-opacity:1; fill:none" points="1994.33,1325.48 2141.24,1325.48 "/>
<path clip-path="url(#clip510)" d="M2165.72 1332.52 L2165.72 1316.83 L2169.98 1316.83 L2169.98 1332.36 Q2169.98 1336.04 2171.42 1337.89 Q2172.85 1339.72 2175.72 1339.72 Q2179.17 1339.72 2181.16 1337.52 Q2183.18 1335.32 2183.18 1331.53 L2183.18 1316.83 L2187.44 1316.83 L2187.44 1342.76 L2183.18 1342.76 L2183.18 1338.77 Q2181.63 1341.13 2179.57 1342.29 Q2177.53 1343.43 2174.82 1343.43 Q2170.35 1343.43 2168.04 1340.65 Q2165.72 1337.87 2165.72 1332.52 M2176.44 1316.2 L2176.44 1316.2 Z" fill="#000000" fill-rule="nonzero" fill-opacity="1" /><path clip-path="url(#clip510)" d="M2206.44 1306.78 Q2203.34 1312.11 2201.83 1317.32 Q2200.33 1322.52 2200.33 1327.87 Q2200.33 1333.22 2201.83 1338.47 Q2203.36 1343.7 2206.44 1349.01 L2202.74 1349.01 Q2199.26 1343.57 2197.53 1338.31 Q2195.82 1333.06 2195.82 1327.87 Q2195.82 1322.71 2197.53 1317.48 Q2199.24 1312.25 2202.74 1306.78 L2206.44 1306.78 Z" fill="#000000" fill-rule="nonzero" fill-opacity="1" /><path clip-path="url(#clip510)" d="M2218.92 1309.47 L2218.92 1316.83 L2227.69 1316.83 L2227.69 1320.14 L2218.92 1320.14 L2218.92 1334.21 Q2218.92 1337.38 2219.77 1338.29 Q2220.65 1339.19 2223.32 1339.19 L2227.69 1339.19 L2227.69 1342.76 L2223.32 1342.76 Q2218.38 1342.76 2216.51 1340.93 Q2214.63 1339.07 2214.63 1334.21 L2214.63 1320.14 L2211.51 1320.14 L2211.51 1316.83 L2214.63 1316.83 L2214.63 1309.47 L2218.92 1309.47 Z" fill="#000000" fill-rule="nonzero" fill-opacity="1" /><path clip-path="url(#clip510)" d="M2232.62 1306.78 L2236.32 1306.78 Q2239.8 1312.25 2241.51 1317.48 Q2243.25 1322.71 2243.25 1327.87 Q2243.25 1333.06 2241.51 1338.31 Q2239.8 1343.57 2236.32 1349.01 L2232.62 1349.01 Q2235.7 1343.7 2237.2 1338.47 Q2238.73 1333.22 2238.73 1327.87 Q2238.73 1322.52 2237.2 1317.32 Q2235.7 1312.11 2232.62 1306.78 Z" fill="#000000" fill-rule="nonzero" fill-opacity="1" /></svg>
