<?xml version="1.0" encoding="utf-8"?>
<svg xmlns="http://www.w3.org/2000/svg" xmlns:xlink="http://www.w3.org/1999/xlink" width="600" height="400" viewBox="0 0 2400 1600">
<defs>
  <clipPath id="clip740">
    <rect x="0" y="0" width="2400" height="1600"/>
  </clipPath>
</defs>
<path clip-path="url(#clip740)" d="M0 1600 L2400 1600 L2400 0 L0 0  Z" fill="#ffffff" fill-rule="evenodd" fill-opacity="1"/>
<defs>
  <clipPath id="clip741">
    <rect x="480" y="0" width="1681" height="1600"/>
  </clipPath>
</defs>
<path clip-path="url(#clip740)" d="M149.191 1423.18 L2352.76 1423.18 L2352.76 47.2441 L149.191 47.2441  Z" fill="#ffffff" fill-rule="evenodd" fill-opacity="1"/>
<defs>
  <clipPath id="clip742">
    <rect x="149" y="47" width="2205" height="1377"/>
  </clipPath>
</defs>
<polyline clip-path="url(#clip742)" style="stroke:#000000; stroke-linecap:round; stroke-linejoin:round; stroke-width:2; stroke-opacity:0.1; fill:none" points="149.191,1423.18 149.191,47.2441 "/>
<polyline clip-path="url(#clip742)" style="stroke:#000000; stroke-linecap:round; stroke-linejoin:round; stroke-width:2; stroke-opacity:0.1; fill:none" points="700.082,1423.18 700.082,47.2441 "/>
<polyline clip-path="url(#clip742)" style="stroke:#000000; stroke-linecap:round; stroke-linejoin:round; stroke-width:2; stroke-opacity:0.1; fill:none" points="1250.97,1423.18 1250.97,47.2441 "/>
<polyline clip-path="url(#clip742)" style="stroke:#000000; stroke-linecap:round; stroke-linejoin:round; stroke-width:2; stroke-opacity:0.1; fill:none" points="1801.86,1423.18 1801.86,47.2441 "/>
<polyline clip-path="url(#clip742)" style="stroke:#000000; stroke-linecap:round; stroke-linejoin:round; stroke-width:2; stroke-opacity:0.1; fill:none" points="2352.76,1423.18 2352.76,47.2441 "/>
<polyline clip-path="url(#clip740)" style="stroke:#000000; stroke-linecap:round; stroke-linejoin:round; stroke-width:4; stroke-opacity:1; fill:none" points="149.191,1423.18 2352.76,1423.18 "/>
<polyline clip-path="url(#clip740)" style="stroke:#000000; stroke-linecap:round; stroke-linejoin:round; stroke-width:4; stroke-opacity:1; fill:none" points="149.191,1423.18 149.191,1404.28 "/>
<polyline clip-path="url(#clip740)" style="stroke:#000000; stroke-linecap:round; stroke-linejoin:round; stroke-width:4; stroke-opacity:1; fill:none" points="700.082,1423.18 700.082,1404.28 "/>
<polyline clip-path="url(#clip740)" style="stroke:#000000; stroke-linecap:round; stroke-linejoin:round; stroke-width:4; stroke-opacity:1; fill:none" points="1250.97,1423.18 1250.97,1404.28 "/>
<polyline clip-path="url(#clip740)" style="stroke:#000000; stroke-linecap:round; stroke-linejoin:round; stroke-width:4; stroke-opacity:1; fill:none" points="1801.86,1423.18 1801.86,1404.28 "/>
<polyline clip-path="url(#clip740)" style="stroke:#000000; stroke-linecap:round; stroke-linejoin:round; stroke-width:4; stroke-opacity:1; fill:none" points="2352.76,1423.18 2352.76,1404.28 "/>
<path clip-path="url(#clip740)" d="M149.191 1454.1 Q145.58 1454.1 143.751 1457.66 Q141.946 1461.2 141.946 1468.33 Q141.946 1475.44 143.751 1479.01 Q145.58 1482.55 149.191 1482.55 Q152.825 1482.55 154.631 1479.01 Q156.459 1475.44 156.459 1468.33 Q156.459 1461.2 154.631 1457.66 Q152.825 1454.1 149.191 1454.1 M149.191 1450.39 Q155.001 1450.39 158.057 1455 Q161.135 1459.58 161.135 1468.33 Q161.135 1477.06 158.057 1481.67 Q155.001 1486.25 149.191 1486.25 Q143.381 1486.25 140.302 1481.67 Q137.246 1477.06 137.246 1468.33 Q137.246 1459.58 140.302 1455 Q143.381 1450.39 149.191 1450.39 Z" fill="#000000" fill-rule="nonzero" fill-opacity="1" /><path clip-path="url(#clip740)" d="M694.735 1481.64 L711.054 1481.64 L711.054 1485.58 L689.11 1485.58 L689.11 1481.64 Q691.772 1478.89 696.355 1474.26 Q700.962 1469.61 702.142 1468.27 Q704.388 1465.74 705.267 1464.01 Q706.17 1462.25 706.17 1460.56 Q706.17 1457.8 704.226 1456.07 Q702.304 1454.33 699.203 1454.33 Q697.003 1454.33 694.55 1455.09 Q692.119 1455.86 689.341 1457.41 L689.341 1452.69 Q692.166 1451.55 694.619 1450.97 Q697.073 1450.39 699.11 1450.39 Q704.48 1450.39 707.675 1453.08 Q710.869 1455.77 710.869 1460.26 Q710.869 1462.39 710.059 1464.31 Q709.272 1466.2 707.165 1468.8 Q706.587 1469.47 703.485 1472.69 Q700.383 1475.88 694.735 1481.64 Z" fill="#000000" fill-rule="nonzero" fill-opacity="1" /><path clip-path="url(#clip740)" d="M1253.98 1455.09 L1242.18 1473.54 L1253.98 1473.54 L1253.98 1455.09 M1252.76 1451.02 L1258.64 1451.02 L1258.64 1473.54 L1263.57 1473.54 L1263.57 1477.43 L1258.64 1477.43 L1258.64 1485.58 L1253.98 1485.58 L1253.98 1477.43 L1238.38 1477.43 L1238.38 1472.92 L1252.76 1451.02 Z" fill="#000000" fill-rule="nonzero" fill-opacity="1" /><path clip-path="url(#clip740)" d="M1802.27 1466.44 Q1799.12 1466.44 1797.27 1468.59 Q1795.44 1470.74 1795.44 1474.49 Q1795.44 1478.22 1797.27 1480.39 Q1799.12 1482.55 1802.27 1482.55 Q1805.42 1482.55 1807.25 1480.39 Q1809.1 1478.22 1809.1 1474.49 Q1809.1 1470.74 1807.25 1468.59 Q1805.42 1466.44 1802.27 1466.44 M1811.55 1451.78 L1811.55 1456.04 Q1809.79 1455.21 1807.99 1454.77 Q1806.2 1454.33 1804.45 1454.33 Q1799.82 1454.33 1797.36 1457.45 Q1794.93 1460.58 1794.58 1466.9 Q1795.95 1464.89 1798.01 1463.82 Q1800.07 1462.73 1802.55 1462.73 Q1807.76 1462.73 1810.77 1465.9 Q1813.8 1469.05 1813.8 1474.49 Q1813.8 1479.82 1810.65 1483.03 Q1807.5 1486.25 1802.27 1486.25 Q1796.27 1486.25 1793.1 1481.67 Q1789.93 1477.06 1789.93 1468.33 Q1789.93 1460.14 1793.82 1455.28 Q1797.71 1450.39 1804.26 1450.39 Q1806.02 1450.39 1807.8 1450.74 Q1809.61 1451.09 1811.55 1451.78 Z" fill="#000000" fill-rule="nonzero" fill-opacity="1" /><path clip-path="url(#clip740)" d="M2352.76 1469.17 Q2349.42 1469.17 2347.5 1470.95 Q2345.6 1472.73 2345.6 1475.86 Q2345.6 1478.98 2347.5 1480.77 Q2349.42 1482.55 2352.76 1482.55 Q2356.09 1482.55 2358.01 1480.77 Q2359.93 1478.96 2359.93 1475.86 Q2359.93 1472.73 2358.01 1470.95 Q2356.11 1469.17 2352.76 1469.17 M2348.08 1467.18 Q2345.07 1466.44 2343.38 1464.38 Q2341.71 1462.32 2341.71 1459.35 Q2341.71 1455.21 2344.65 1452.8 Q2347.62 1450.39 2352.76 1450.39 Q2357.92 1450.39 2360.86 1452.8 Q2363.8 1455.21 2363.8 1459.35 Q2363.8 1462.32 2362.11 1464.38 Q2360.44 1466.44 2357.45 1467.18 Q2360.83 1467.96 2362.71 1470.26 Q2364.61 1472.55 2364.61 1475.86 Q2364.61 1480.88 2361.53 1483.57 Q2358.47 1486.25 2352.76 1486.25 Q2347.04 1486.25 2343.96 1483.57 Q2340.9 1480.88 2340.9 1475.86 Q2340.9 1472.55 2342.8 1470.26 Q2344.7 1467.96 2348.08 1467.18 M2346.37 1459.79 Q2346.37 1462.48 2348.03 1463.98 Q2349.72 1465.49 2352.76 1465.49 Q2355.77 1465.49 2357.45 1463.98 Q2359.17 1462.48 2359.17 1459.79 Q2359.17 1457.11 2357.45 1455.6 Q2355.77 1454.1 2352.76 1454.1 Q2349.72 1454.1 2348.03 1455.6 Q2346.37 1457.11 2346.37 1459.79 Z" fill="#000000" fill-rule="nonzero" fill-opacity="1" /><path clip-path="url(#clip740)" d="M1250.03 1522.27 L1250.03 1532.4 L1262.1 1532.4 L1262.1 1536.95 L1250.03 1536.95 L1250.03 1556.3 Q1250.03 1560.66 1251.21 1561.9 Q1252.42 1563.14 1256.08 1563.14 L1262.1 1563.14 L1262.1 1568.04 L1256.08 1568.04 Q1249.3 1568.04 1246.72 1565.53 Q1244.15 1562.98 1244.15 1556.3 L1244.15 1536.95 L1239.85 1536.95 L1239.85 1532.4 L1244.15 1532.4 L1244.15 1522.27 L1250.03 1522.27 Z" fill="#000000" fill-rule="nonzero" fill-opacity="1" /><polyline clip-path="url(#clip742)" style="stroke:#000000; stroke-linecap:round; stroke-linejoin:round; stroke-width:2; stroke-opacity:0.1; fill:none" points="149.191,1423.18 2352.76,1423.18 "/>
<polyline clip-path="url(#clip742)" style="stroke:#000000; stroke-linecap:round; stroke-linejoin:round; stroke-width:2; stroke-opacity:0.1; fill:none" points="149.191,1193.86 2352.76,1193.86 "/>
<polyline clip-path="url(#clip742)" style="stroke:#000000; stroke-linecap:round; stroke-linejoin:round; stroke-width:2; stroke-opacity:0.1; fill:none" points="149.191,964.535 2352.76,964.535 "/>
<polyline clip-path="url(#clip742)" style="stroke:#000000; stroke-linecap:round; stroke-linejoin:round; stroke-width:2; stroke-opacity:0.1; fill:none" points="149.191,735.212 2352.76,735.212 "/>
<polyline clip-path="url(#clip742)" style="stroke:#000000; stroke-linecap:round; stroke-linejoin:round; stroke-width:2; stroke-opacity:0.1; fill:none" points="149.191,505.889 2352.76,505.889 "/>
<polyline clip-path="url(#clip742)" style="stroke:#000000; stroke-linecap:round; stroke-linejoin:round; stroke-width:2; stroke-opacity:0.1; fill:none" points="149.191,276.567 2352.76,276.567 "/>
<polyline clip-path="url(#clip742)" style="stroke:#000000; stroke-linecap:round; stroke-linejoin:round; stroke-width:2; stroke-opacity:0.1; fill:none" points="149.191,47.2441 2352.76,47.2441 "/>
<polyline clip-path="url(#clip740)" style="stroke:#000000; stroke-linecap:round; stroke-linejoin:round; stroke-width:4; stroke-opacity:1; fill:none" points="149.191,1423.18 149.191,47.2441 "/>
<polyline clip-path="url(#clip740)" style="stroke:#000000; stroke-linecap:round; stroke-linejoin:round; stroke-width:4; stroke-opacity:1; fill:none" points="149.191,1423.18 168.089,1423.18 "/>
<polyline clip-path="url(#clip740)" style="stroke:#000000; stroke-linecap:round; stroke-linejoin:round; stroke-width:4; stroke-opacity:1; fill:none" points="149.191,1193.86 168.089,1193.86 "/>
<polyline clip-path="url(#clip740)" style="stroke:#000000; stroke-linecap:round; stroke-linejoin:round; stroke-width:4; stroke-opacity:1; fill:none" points="149.191,964.535 168.089,964.535 "/>
<polyline clip-path="url(#clip740)" style="stroke:#000000; stroke-linecap:round; stroke-linejoin:round; stroke-width:4; stroke-opacity:1; fill:none" points="149.191,735.212 168.089,735.212 "/>
<polyline clip-path="url(#clip740)" style="stroke:#000000; stroke-linecap:round; stroke-linejoin:round; stroke-width:4; stroke-opacity:1; fill:none" points="149.191,505.889 168.089,505.889 "/>
<polyline clip-path="url(#clip740)" style="stroke:#000000; stroke-linecap:round; stroke-linejoin:round; stroke-width:4; stroke-opacity:1; fill:none" points="149.191,276.567 168.089,276.567 "/>
<polyline clip-path="url(#clip740)" style="stroke:#000000; stroke-linecap:round; stroke-linejoin:round; stroke-width:4; stroke-opacity:1; fill:none" points="149.191,47.2441 168.089,47.2441 "/>
<path clip-path="url(#clip740)" d="M51.3162 1423.63 L80.992 1423.63 L80.992 1427.57 L51.3162 1427.57 L51.3162 1423.63 Z" fill="#000000" fill-rule="nonzero" fill-opacity="1" /><path clip-path="url(#clip740)" d="M101.663 1421.32 Q98.515 1421.32 96.6632 1423.47 Q94.8345 1425.62 94.8345 1429.37 Q94.8345 1433.1 96.6632 1435.27 Q98.515 1437.43 101.663 1437.43 Q104.811 1437.43 106.64 1435.27 Q108.492 1433.1 108.492 1429.37 Q108.492 1425.62 106.64 1423.47 Q104.811 1421.32 101.663 1421.32 M110.946 1406.66 L110.946 1410.92 Q109.186 1410.09 107.381 1409.65 Q105.598 1409.21 103.839 1409.21 Q99.2095 1409.21 96.7558 1412.33 Q94.3252 1415.46 93.978 1421.78 Q95.3437 1419.77 97.4039 1418.7 Q99.4641 1417.61 101.941 1417.61 Q107.149 1417.61 110.158 1420.78 Q113.191 1423.93 113.191 1429.37 Q113.191 1434.7 110.043 1437.91 Q106.895 1441.13 101.663 1441.13 Q95.6678 1441.13 92.4965 1436.55 Q89.3253 1431.94 89.3253 1423.21 Q89.3253 1415.02 93.2141 1410.16 Q97.103 1405.27 103.654 1405.27 Q105.413 1405.27 107.196 1405.62 Q109.001 1405.97 110.946 1406.66 Z" fill="#000000" fill-rule="nonzero" fill-opacity="1" /><path clip-path="url(#clip740)" d="M50.9921 1194.31 L80.6679 1194.31 L80.6679 1198.24 L50.9921 1198.24 L50.9921 1194.31 Z" fill="#000000" fill-rule="nonzero" fill-opacity="1" /><path clip-path="url(#clip740)" d="M103.608 1180.65 L91.8021 1199.1 L103.608 1199.1 L103.608 1180.65 M102.381 1176.58 L108.26 1176.58 L108.26 1199.1 L113.191 1199.1 L113.191 1202.99 L108.26 1202.99 L108.26 1211.14 L103.608 1211.14 L103.608 1202.99 L88.0058 1202.99 L88.0058 1198.48 L102.381 1176.58 Z" fill="#000000" fill-rule="nonzero" fill-opacity="1" /><path clip-path="url(#clip740)" d="M53.0754 964.986 L82.7512 964.986 L82.7512 968.921 L53.0754 968.921 L53.0754 964.986 Z" fill="#000000" fill-rule="nonzero" fill-opacity="1" /><path clip-path="url(#clip740)" d="M96.8715 977.879 L113.191 977.879 L113.191 981.815 L91.2465 981.815 L91.2465 977.879 Q93.9086 975.125 98.4919 970.495 Q103.098 965.842 104.279 964.5 Q106.524 961.977 107.404 960.241 Q108.307 958.481 108.307 956.792 Q108.307 954.037 106.362 952.301 Q104.441 950.565 101.339 950.565 Q99.14 950.565 96.6863 951.329 Q94.2558 952.093 91.478 953.643 L91.478 948.921 Q94.3021 947.787 96.7558 947.208 Q99.2095 946.63 101.246 946.63 Q106.617 946.63 109.811 949.315 Q113.006 952 113.006 956.491 Q113.006 958.62 112.196 960.542 Q111.408 962.44 109.302 965.032 Q108.723 965.704 105.621 968.921 Q102.52 972.116 96.8715 977.879 Z" fill="#000000" fill-rule="nonzero" fill-opacity="1" /><path clip-path="url(#clip740)" d="M101.246 721.011 Q97.6354 721.011 95.8067 724.575 Q94.0012 728.117 94.0012 735.247 Q94.0012 742.353 95.8067 745.918 Q97.6354 749.46 101.246 749.46 Q104.881 749.46 106.686 745.918 Q108.515 742.353 108.515 735.247 Q108.515 728.117 106.686 724.575 Q104.881 721.011 101.246 721.011 M101.246 717.307 Q107.057 717.307 110.112 721.913 Q113.191 726.497 113.191 735.247 Q113.191 743.973 110.112 748.58 Q107.057 753.163 101.246 753.163 Q95.4363 753.163 92.3576 748.58 Q89.3021 743.973 89.3021 735.247 Q89.3021 726.497 92.3576 721.913 Q95.4363 717.307 101.246 717.307 Z" fill="#000000" fill-rule="nonzero" fill-opacity="1" /><path clip-path="url(#clip740)" d="M96.8715 519.234 L113.191 519.234 L113.191 523.169 L91.2465 523.169 L91.2465 519.234 Q93.9086 516.48 98.4919 511.85 Q103.098 507.197 104.279 505.855 Q106.524 503.331 107.404 501.595 Q108.307 499.836 108.307 498.146 Q108.307 495.392 106.362 493.656 Q104.441 491.92 101.339 491.92 Q99.14 491.92 96.6863 492.683 Q94.2558 493.447 91.478 494.998 L91.478 490.276 Q94.3021 489.142 96.7558 488.563 Q99.2095 487.984 101.246 487.984 Q106.617 487.984 109.811 490.67 Q113.006 493.355 113.006 497.845 Q113.006 499.975 112.196 501.896 Q111.408 503.794 109.302 506.387 Q108.723 507.058 105.621 510.276 Q102.52 513.47 96.8715 519.234 Z" fill="#000000" fill-rule="nonzero" fill-opacity="1" /><path clip-path="url(#clip740)" d="M103.608 263.361 L91.8021 281.81 L103.608 281.81 L103.608 263.361 M102.381 259.287 L108.26 259.287 L108.26 281.81 L113.191 281.81 L113.191 285.699 L108.26 285.699 L108.26 293.847 L103.608 293.847 L103.608 285.699 L88.0058 285.699 L88.0058 281.185 L102.381 259.287 Z" fill="#000000" fill-rule="nonzero" fill-opacity="1" /><path clip-path="url(#clip740)" d="M101.663 45.3807 Q98.515 45.3807 96.6632 47.5334 Q94.8345 49.6862 94.8345 53.4362 Q94.8345 57.163 96.6632 59.3389 Q98.515 61.4917 101.663 61.4917 Q104.811 61.4917 106.64 59.3389 Q108.492 57.163 108.492 53.4362 Q108.492 49.6862 106.64 47.5334 Q104.811 45.3807 101.663 45.3807 M110.946 30.728 L110.946 34.9872 Q109.186 34.1539 107.381 33.7141 Q105.598 33.2743 103.839 33.2743 Q99.2095 33.2743 96.7558 36.3992 Q94.3252 39.5242 93.978 45.8436 Q95.3437 43.8298 97.4039 42.765 Q99.4641 41.677 101.941 41.677 Q107.149 41.677 110.158 44.8483 Q113.191 47.9964 113.191 53.4362 Q113.191 58.7602 110.043 61.9778 Q106.895 65.1954 101.663 65.1954 Q95.6678 65.1954 92.4965 60.6121 Q89.3253 56.0056 89.3253 47.2788 Q89.3253 39.0844 93.2141 34.2233 Q97.103 29.3391 103.654 29.3391 Q105.413 29.3391 107.196 29.6863 Q109.001 30.0335 110.946 30.728 Z" fill="#000000" fill-rule="nonzero" fill-opacity="1" /><polyline clip-path="url(#clip742)" style="stroke:#009af9; stroke-linecap:round; stroke-linejoin:round; stroke-width:12; stroke-opacity:1; fill:none" points="149.191,1193.86 151.945,1193.83 154.7,1193.73 157.454,1193.57 160.209,1193.35 162.963,1193.08 165.718,1192.74 168.472,1192.34 171.227,1191.89 173.981,1191.38 176.735,1190.82 179.49,1190.2 182.244,1189.53 184.999,1188.81 187.753,1188.04 190.508,1187.22 193.262,1186.34 196.017,1185.43 198.771,1184.46 201.526,1183.45 204.28,1182.4 207.034,1181.3 209.789,1180.15 212.543,1178.97 215.298,1177.75 218.052,1176.48 220.807,1175.18 223.561,1173.84 226.316,1172.46 229.07,1171.04 231.825,1169.59 234.579,1168.1 237.333,1166.59 240.088,1165.03 242.842,1163.45 245.597,1161.84 248.351,1160.19 251.106,1158.52 253.86,1156.81 256.615,1155.08 259.369,1153.32 262.124,1151.54 264.878,1149.73 267.632,1147.89 270.387,1146.03 273.141,1144.15 275.896,1142.25 278.65,1140.32 281.405,1138.37 284.159,1136.4 286.914,1134.41 289.668,1132.4 292.423,1130.37 295.177,1128.33 297.932,1126.27 300.686,1124.19 303.44,1122.09 306.195,1119.98 308.949,1117.85 311.704,1115.71 314.458,1113.55 317.213,1111.38 319.967,1109.2 322.722,1107 325.476,1104.79 328.231,1102.57 330.985,1100.34 333.739,1098.1 336.494,1095.85 339.248,1093.59 342.003,1091.31 344.757,1089.03 347.512,1086.74 350.266,1084.45 353.021,1082.14 355.775,1079.83 358.53,1077.5 361.284,1075.18 364.038,1072.84 366.793,1070.5 369.547,1068.15 372.302,1065.8 375.056,1063.44 377.811,1061.08 380.565,1058.71 383.32,1056.34 386.074,1053.96 388.829,1051.58 391.583,1049.19 394.337,1046.8 397.092,1044.41 399.846,1042.01 402.601,1039.61 405.355,1037.21 408.11,1034.8 410.864,1032.39 413.619,1029.98 416.373,1027.56 419.128,1025.15 421.882,1022.73 424.636,1020.31 427.391,1017.89 430.145,1015.46 432.9,1013.04 435.654,1010.61 438.409,1008.18 441.163,1005.75 443.918,1003.32 446.672,1000.89 449.427,998.457 452.181,996.023 454.936,993.589 457.69,991.153 460.444,988.718 463.199,986.281 465.953,983.844 468.708,981.406 471.462,978.968 474.217,976.529 476.971,974.091 479.726,971.651 482.48,969.211 485.235,966.772 487.989,964.331 490.743,961.89 493.498,959.449 496.252,957.008 499.007,954.567 501.761,952.126 504.516,949.684 507.27,947.243 510.025,944.801 512.779,942.359 515.534,939.917 518.288,937.476 521.042,935.033 523.797,932.591 526.551,930.149 529.306,927.707 532.06,925.265 534.815,922.823 537.569,920.381 540.324,917.938 543.078,915.496 545.833,913.054 548.587,910.611 551.341,908.169 554.096,905.727 556.85,903.285 559.605,900.843 562.359,898.4 565.114,895.958 567.868,893.516 570.623,891.074 573.377,888.632 576.132,886.19 578.886,883.748 581.641,881.306 584.395,878.864 587.149,876.422 589.904,873.98 592.658,871.539 595.413,869.097 598.167,866.655 600.922,864.213 603.676,861.771 606.431,859.329 609.185,856.887 611.94,854.445 614.694,852.004 617.448,849.562 620.203,847.12 622.957,844.678 625.712,842.237 628.466,839.795 631.221,837.354 633.975,834.912 636.73,832.471 639.484,830.03 642.239,827.589 644.993,825.148 647.747,822.707 650.502,820.267 653.256,817.826 656.011,815.386 658.765,812.947 661.52,810.507 664.274,808.068 667.029,805.629 669.783,803.19 672.538,800.752 675.292,798.314 678.046,795.876 680.801,793.439 683.555,791.002 686.31,788.566 689.064,786.13 691.819,783.695 694.573,781.26 697.328,778.826 700.082,776.393 702.837,773.96 705.591,771.527 708.345,769.096 711.1,766.665 713.854,764.234 716.609,761.805 719.363,759.377 722.118,756.949 724.872,754.522 727.627,752.096 730.381,749.671 733.136,747.246 735.89,744.823 738.645,742.401 741.399,739.98 744.153,737.561 746.908,735.142 749.662,732.724 752.417,730.308 755.171,727.893 757.926,725.48 760.68,723.068 763.435,720.657 766.189,718.247 768.944,715.839 771.698,713.433 774.452,711.028 777.207,708.625 779.961,706.223 782.716,703.824 785.47,701.425 788.225,699.029 790.979,696.635 793.734,694.242 796.488,691.852 799.243,689.463 801.997,687.076 804.751,684.692 807.506,682.309 810.26,679.929 813.015,677.551 815.769,675.175 818.524,672.802 821.278,670.431 824.033,668.062 826.787,665.696 829.542,663.332 832.296,660.971 835.05,658.613 837.805,656.257 840.559,653.903 843.314,651.553 846.068,649.205 848.823,646.86 851.577,644.518 854.332,642.179 857.086,639.843 859.841,637.51 862.595,635.18 865.349,632.853 868.104,630.53 870.858,628.209 873.613,625.892 876.367,623.578 879.122,621.267 881.876,618.96 884.631,616.656 887.385,614.356 890.14,612.059 892.894,609.766 895.649,607.476 898.403,605.19 901.157,602.908 903.912,600.63 906.666,598.355 909.421,596.085 912.175,593.818 914.93,591.555 917.684,589.296 920.439,587.042 923.193,584.791 925.948,582.544 928.702,580.302 931.456,578.064 934.211,575.831 936.965,573.602 939.72,571.376 942.474,569.156 945.229,566.94 947.983,564.728 950.738,562.521 953.492,560.319 956.247,558.122 959.001,555.929 961.755,553.741 964.51,551.557 967.264,549.379 970.019,547.205 972.773,545.037 975.528,542.873 978.282,540.715 981.037,538.561 983.791,536.413 986.546,534.27 989.3,532.132 992.054,529.999 994.809,527.872 997.563,525.75 1000.32,523.633 1003.07,521.522 1005.83,519.416 1008.58,517.315 1011.34,515.22 1014.09,513.131 1016.84,511.047 1019.6,508.969 1022.35,506.897 1025.11,504.83 1027.86,502.769 1030.62,500.714 1033.37,498.664 1036.13,496.621 1038.88,494.584 1041.63,492.552 1044.39,490.526 1047.14,488.507 1049.9,486.493 1052.65,484.486 1055.41,482.485 1058.16,480.49 1060.92,478.501 1063.67,476.518 1066.42,474.542 1069.18,472.572 1071.93,470.608 1074.69,468.651 1077.44,466.7 1080.2,464.755 1082.95,462.817 1085.71,460.885 1088.46,458.961 1091.21,457.042 1093.97,455.13 1096.72,453.225 1099.48,451.327 1102.23,449.435 1104.99,447.55 1107.74,445.672 1110.5,443.801 1113.25,441.936 1116.01,440.078 1118.76,438.227 1121.51,436.384 1124.27,434.547 1127.02,432.717 1129.78,430.894 1132.53,429.078 1135.29,427.269 1138.04,425.467 1140.8,423.672 1143.55,421.885 1146.3,420.105 1149.06,418.331 1151.81,416.565 1154.57,414.807 1157.32,413.056 1160.08,411.312 1162.83,409.575 1165.59,407.846 1168.34,406.124 1171.09,404.409 1173.85,402.702 1176.6,401.003 1179.36,399.311 1182.11,397.626 1184.87,395.949 1187.62,394.279 1190.38,392.618 1193.13,390.964 1195.88,389.317 1198.64,387.678 1201.39,386.046 1204.15,384.423 1206.9,382.807 1209.66,381.199 1212.41,379.598 1215.17,378.006 1217.92,376.421 1220.67,374.844 1223.43,373.275 1226.18,371.714 1228.94,370.16 1231.69,368.615 1234.45,367.078 1237.2,365.548 1239.96,364.027 1242.71,362.513 1245.46,361.008 1248.22,359.51 1250.97,358.021 1253.73,356.539 1256.48,355.066 1259.24,353.601 1261.99,352.144 1264.75,350.695 1267.5,349.254 1270.25,347.821 1273.01,346.397 1275.76,344.98 1278.52,343.572 1281.27,342.173 1284.03,340.781 1286.78,339.397 1289.54,338.022 1292.29,336.656 1295.04,335.297 1297.8,333.947 1300.55,332.605 1303.31,331.271 1306.06,329.946 1308.82,328.629 1311.57,327.321 1314.33,326.021 1317.08,324.729 1319.83,323.446 1322.59,322.171 1325.34,320.905 1328.1,319.647 1330.85,318.398 1333.61,317.157 1336.36,315.925 1339.12,314.701 1341.87,313.485 1344.62,312.279 1347.38,311.08 1350.13,309.891 1352.89,308.71 1355.64,307.537 1358.4,306.373 1361.15,305.218 1363.91,304.072 1366.66,302.933 1369.41,301.804 1372.17,300.683 1374.92,299.571 1377.68,298.468 1380.43,297.373 1383.19,296.287 1385.94,295.21 1388.7,294.142 1391.45,293.082 1394.21,292.031 1396.96,290.988 1399.71,289.955 1402.47,288.93 1405.22,287.914 1407.98,286.906 1410.73,285.908 1413.49,284.918 1416.24,283.937 1419,282.965 1421.75,282.002 1424.5,281.048 1427.26,280.102 1430.01,279.165 1432.77,278.238 1435.52,277.319 1438.28,276.408 1441.03,275.507 1443.79,274.615 1446.54,273.731 1449.29,272.857 1452.05,271.991 1454.8,271.134 1457.56,270.286 1460.31,269.447 1463.07,268.617 1465.82,267.796 1468.58,266.984 1471.33,266.181 1474.08,265.387 1476.84,264.601 1479.59,263.825 1482.35,263.057 1485.1,262.299 1487.86,261.55 1490.61,260.809 1493.37,260.078 1496.12,259.355 1498.87,258.641 1501.63,257.937 1504.38,257.241 1507.14,256.555 1509.89,255.877 1512.65,255.209 1515.4,254.549 1518.16,253.898 1520.91,253.257 1523.66,252.624 1526.42,252.001 1529.17,251.386 1531.93,250.781 1534.68,250.184 1537.44,249.597 1540.19,249.018 1542.95,248.449 1545.7,247.889 1548.45,247.337 1551.21,246.795 1553.96,246.262 1556.72,245.738 1559.47,245.222 1562.23,244.716 1564.98,244.219 1567.74,243.731 1570.49,243.252 1573.24,242.782 1576,242.321 1578.75,241.869 1581.51,241.426 1584.26,240.992 1587.02,240.567 1589.77,240.151 1592.53,239.745 1595.28,239.347 1598.03,238.958 1600.79,238.579 1603.54,238.209 1606.3,237.847 1609.05,237.495 1611.81,237.152 1614.56,236.818 1617.32,236.493 1620.07,236.177 1622.82,235.87 1625.58,235.572 1628.33,235.283 1631.09,235.004 1633.84,234.733 1636.6,234.471 1639.35,234.219 1642.11,233.975 1644.86,233.741 1647.62,233.516 1650.37,233.3 1653.12,233.092 1655.88,232.894 1658.63,232.705 1661.39,232.525 1664.14,232.354 1666.9,232.193 1669.65,232.04 1672.41,231.896 1675.16,231.761 1677.91,231.636 1680.67,231.519 1683.42,231.412 1686.18,231.313 1688.93,231.224 1691.69,231.144 1694.44,231.072 1697.2,231.01 1699.95,230.957 1702.7,230.913 1705.46,230.878 1708.21,230.852 1710.97,230.835 1713.72,230.827 1716.48,230.828 1719.23,230.838 1721.99,230.857 1724.74,230.886 1727.49,230.923 1730.25,230.969 1733,231.025 1735.76,231.089 1738.51,231.163 1741.27,231.245 1744.02,231.337 1746.78,231.437 1749.53,231.547 1752.28,231.665 1755.04,231.793 1757.79,231.929 1760.55,232.075 1763.3,232.23 1766.06,232.393 1768.81,232.566 1771.57,232.748 1774.32,232.938 1777.07,233.138 1779.83,233.347 1782.58,233.564 1785.34,233.791 1788.09,234.027 1790.85,234.271 1793.6,234.525 1796.36,234.788 1799.11,235.059 1801.86,235.34 1804.62,235.629 1807.37,235.928 1810.13,236.236 1812.88,236.552 1815.64,236.878 1818.39,237.212 1821.15,237.556 1823.9,237.908 1826.65,238.269 1829.41,238.639 1832.16,239.019 1834.92,239.407 1837.67,239.804 1840.43,240.21 1843.18,240.625 1845.94,241.049 1848.69,241.482 1851.44,241.924 1854.2,242.375 1856.95,242.834 1859.71,243.303 1862.46,243.78 1865.22,244.267 1867.97,244.762 1870.73,245.266 1873.48,245.78 1876.23,246.302 1878.99,246.833 1881.74,247.372 1884.5,247.921 1887.25,248.479 1890.01,249.045 1892.76,249.621 1895.52,250.205 1898.27,250.798 1901.03,251.4 1903.78,252.011 1906.53,252.63 1909.29,253.259 1912.04,253.896 1914.8,254.542 1917.55,255.198 1920.31,255.861 1923.06,256.534 1925.82,257.216 1928.57,257.906 1931.32,258.605 1934.08,259.313 1936.83,260.03 1939.59,260.756 1942.34,261.49 1945.1,262.233 1947.85,262.986 1950.61,263.746 1953.36,264.516 1956.11,265.294 1958.87,266.081 1961.62,266.877 1964.38,267.682 1967.13,268.495 1969.89,269.317 1972.64,270.148 1975.4,270.988 1978.15,271.836 1980.9,272.694 1983.66,273.56 1986.41,274.434 1989.17,275.318 1991.92,276.21 1994.68,277.111 1997.43,278.02 2000.19,278.939 2002.94,279.866 2005.69,280.802 2008.45,281.746 2011.2,282.699 2013.96,283.661 2016.71,284.632 2019.47,285.611 2022.22,286.599 2024.98,287.595 2027.73,288.601 2030.48,289.615 2033.24,290.637 2035.99,291.669 2038.75,292.709 2041.5,293.757 2044.26,294.815 2047.01,295.881 2049.77,296.955 2052.52,298.038 2055.27,299.13 2058.03,300.231 2060.78,301.34 2063.54,302.458 2066.29,303.584 2069.05,304.719 2071.8,305.863 2074.56,307.015 2077.31,308.175 2080.06,309.345 2082.82,310.523 2085.57,311.709 2088.33,312.905 2091.08,314.108 2093.84,315.32 2096.59,316.541 2099.35,317.771 2102.1,319.009 2104.85,320.255 2107.61,321.51 2110.36,322.774 2113.12,324.046 2115.87,325.327 2118.63,326.616 2121.38,327.914 2124.14,329.22 2126.89,330.535 2129.64,331.858 2132.4,333.191 2135.15,334.531 2137.91,335.88 2140.66,337.237 2143.42,338.603 2146.17,339.978 2148.93,341.36 2151.68,342.752 2154.44,344.151 2157.19,345.56 2159.94,346.977 2162.7,348.402 2165.45,349.836 2168.21,351.278 2170.96,352.728 2173.72,354.187 2176.47,355.655 2179.23,357.131 2181.98,358.615 2184.73,360.108 2187.49,361.609 2190.24,363.119 2193,364.637 2195.75,366.163 2198.51,367.698 2201.26,369.242 2204.02,370.793 2206.77,372.353 2209.52,373.922 2212.28,375.499 2215.03,377.084 2217.79,378.678 2220.54,380.28 2223.3,381.89 2226.05,383.509 2228.81,385.136 2231.56,386.771 2234.31,388.415 2237.07,390.067 2239.82,391.728 2242.58,393.396 2245.33,395.074 2248.09,396.759 2250.84,398.453 2253.6,400.155 2256.35,401.865 2259.1,403.584 2261.86,405.311 2264.61,407.047 2267.37,408.79 2270.12,410.542 2272.88,412.302 2275.63,414.071 2278.39,415.848 2281.14,417.633 2283.89,419.426 2286.65,421.228 2289.4,423.038 2292.16,424.855 2294.91,426.682 2297.67,428.517 2300.42,430.36 2303.18,432.211 2305.93,434.07 2308.68,435.938 2311.44,437.813 2314.19,439.697 2316.95,441.59 2319.7,443.49 2322.46,445.399 2325.21,447.316 2327.97,449.241 2330.72,451.174 2333.47,453.116 2336.23,455.065 2338.98,457.023 2341.74,458.989 2344.49,460.963 2347.25,462.945 2350,464.935 2352.76,466.935 "/>
<polyline clip-path="url(#clip742)" style="stroke:#e26f46; stroke-linecap:round; stroke-linejoin:round; stroke-width:12; stroke-opacity:1; fill:none" points="149.191,735.212 151.945,728.832 154.7,722.559 157.454,716.393 160.209,710.332 162.963,704.378 165.718,698.529 168.472,692.785 171.227,687.146 173.981,681.611 176.735,676.181 179.49,670.854 182.244,665.629 184.999,660.507 187.753,655.487 190.508,650.568 193.262,645.749 196.017,641.03 198.771,636.41 201.526,631.888 204.28,627.464 207.034,623.137 209.789,618.905 212.543,614.769 215.298,610.727 218.052,606.778 220.807,602.921 223.561,599.156 226.316,595.481 229.07,591.895 231.825,588.398 234.579,584.988 237.333,581.665 240.088,578.427 242.842,575.273 245.597,572.201 248.351,569.212 251.106,566.303 253.86,563.474 256.615,560.723 259.369,558.049 262.124,555.451 264.878,552.928 267.632,550.478 270.387,548.101 273.141,545.795 275.896,543.559 278.65,541.391 281.405,539.291 284.159,537.257 286.914,535.288 289.668,533.382 292.423,531.539 295.177,529.756 297.932,528.033 300.686,526.369 303.44,524.762 306.195,523.211 308.949,521.715 311.704,520.273 314.458,518.882 317.213,517.542 319.967,516.252 322.722,515.011 325.476,513.817 328.231,512.668 330.985,511.565 333.739,510.505 336.494,509.488 339.248,508.512 342.003,507.577 344.757,506.68 347.512,505.822 350.266,505 353.021,504.214 355.775,503.463 358.53,502.745 361.284,502.06 364.038,501.406 366.793,500.783 369.547,500.19 372.302,499.624 375.056,499.087 377.811,498.575 380.565,498.089 383.32,497.628 386.074,497.191 388.829,496.776 391.583,496.384 394.337,496.012 397.092,495.661 399.846,495.33 402.601,495.017 405.355,494.722 408.11,494.445 410.864,494.184 413.619,493.938 416.373,493.708 419.128,493.492 421.882,493.29 424.636,493.102 427.391,492.925 430.145,492.76 432.9,492.607 435.654,492.465 438.409,492.332 441.163,492.209 443.918,492.095 446.672,491.99 449.427,491.893 452.181,491.803 454.936,491.721 457.69,491.646 460.444,491.576 463.199,491.513 465.953,491.455 468.708,491.403 471.462,491.355 474.217,491.312 476.971,491.273 479.726,491.238 482.48,491.206 485.235,491.178 487.989,491.153 490.743,491.131 493.498,491.111 496.252,491.094 499.007,491.079 501.761,491.065 504.516,491.053 507.27,491.043 510.025,491.035 512.779,491.027 515.534,491.021 518.288,491.016 521.042,491.012 523.797,491.009 526.551,491.006 529.306,491.005 532.06,491.003 534.815,491.002 537.569,491.002 540.324,491.002 543.078,491.002 545.833,491.002 548.587,491.003 551.341,491.003 554.096,491.004 556.85,491.004 559.605,491.005 562.359,491.005 565.114,491.005 567.868,491.006 570.623,491.006 573.377,491.006 576.132,491.007 578.886,491.007 581.641,491.007 584.395,491.007 587.149,491.008 589.904,491.008 592.658,491.009 595.413,491.01 598.167,491.011 600.922,491.012 603.676,491.014 606.431,491.017 609.185,491.02 611.94,491.024 614.694,491.028 617.448,491.033 620.203,491.039 622.957,491.046 625.712,491.054 628.466,491.062 631.221,491.072 633.975,491.082 636.73,491.094 639.484,491.108 642.239,491.122 644.993,491.138 647.747,491.156 650.502,491.175 653.256,491.196 656.011,491.219 658.765,491.243 661.52,491.27 664.274,491.298 667.029,491.328 669.783,491.361 672.538,491.396 675.292,491.433 678.046,491.472 680.801,491.514 683.555,491.558 686.31,491.605 689.064,491.654 691.819,491.706 694.573,491.761 697.328,491.819 700.082,491.879 702.837,491.943 705.591,492.009 708.345,492.079 711.1,492.151 713.854,492.227 716.609,492.306 719.363,492.389 722.118,492.474 724.872,492.563 727.627,492.656 730.381,492.752 733.136,492.852 735.89,492.955 738.645,493.063 741.399,493.173 744.153,493.288 746.908,493.407 749.662,493.529 752.417,493.656 755.171,493.786 757.926,493.921 760.68,494.059 763.435,494.202 766.189,494.349 768.944,494.501 771.698,494.656 774.452,494.816 777.207,494.98 779.961,495.149 782.716,495.322 785.47,495.5 788.225,495.682 790.979,495.868 793.734,496.059 796.488,496.255 799.243,496.455 801.997,496.659 804.751,496.869 807.506,497.082 810.26,497.301 813.015,497.524 815.769,497.752 818.524,497.984 821.278,498.222 824.033,498.463 826.787,498.71 829.542,498.961 832.296,499.218 835.05,499.478 837.805,499.744 840.559,500.014 843.314,500.29 846.068,500.57 848.823,500.855 851.577,501.144 854.332,501.439 857.086,501.738 859.841,502.042 862.595,502.351 865.349,502.665 868.104,502.983 870.858,503.307 873.613,503.635 876.367,503.968 879.122,504.306 881.876,504.649 884.631,504.997 887.385,505.349 890.14,505.706 892.894,506.068 895.649,506.435 898.403,506.807 901.157,507.183 903.912,507.565 906.666,507.951 909.421,508.342 912.175,508.737 914.93,509.137 917.684,509.542 920.439,509.952 923.193,510.367 925.948,510.786 928.702,511.21 931.456,511.638 934.211,512.071 936.965,512.509 939.72,512.951 942.474,513.398 945.229,513.85 947.983,514.306 950.738,514.766 953.492,515.231 956.247,515.701 959.001,516.175 961.755,516.653 964.51,517.136 967.264,517.623 970.019,518.114 972.773,518.61 975.528,519.11 978.282,519.615 981.037,520.123 983.791,520.636 986.546,521.154 989.3,521.675 992.054,522.201 994.809,522.731 997.563,523.265 1000.32,523.803 1003.07,524.345 1005.83,524.892 1008.58,525.442 1011.34,525.996 1014.09,526.555 1016.84,527.117 1019.6,527.684 1022.35,528.254 1025.11,528.828 1027.86,529.406 1030.62,529.988 1033.37,530.573 1036.13,531.163 1038.88,531.756 1041.63,532.353 1044.39,532.953 1047.14,533.558 1049.9,534.166 1052.65,534.777 1055.41,535.392 1058.16,536.011 1060.92,536.633 1063.67,537.259 1066.42,537.888 1069.18,538.521 1071.93,539.157 1074.69,539.797 1077.44,540.44 1080.2,541.086 1082.95,541.736 1085.71,542.389 1088.46,543.045 1091.21,543.705 1093.97,544.368 1096.72,545.034 1099.48,545.703 1102.23,546.375 1104.99,547.051 1107.74,547.729 1110.5,548.411 1113.25,549.096 1116.01,549.784 1118.76,550.474 1121.51,551.168 1124.27,551.865 1127.02,552.564 1129.78,553.267 1132.53,553.972 1135.29,554.68 1138.04,555.392 1140.8,556.105 1143.55,556.822 1146.3,557.541 1149.06,558.263 1151.81,558.988 1154.57,559.716 1157.32,560.446 1160.08,561.178 1162.83,561.914 1165.59,562.652 1168.34,563.392 1171.09,564.135 1173.85,564.88 1176.6,565.628 1179.36,566.378 1182.11,567.131 1184.87,567.886 1187.62,568.644 1190.38,569.403 1193.13,570.165 1195.88,570.93 1198.64,571.696 1201.39,572.465 1204.15,573.236 1206.9,574.009 1209.66,574.785 1212.41,575.562 1215.17,576.342 1217.92,577.124 1220.67,577.907 1223.43,578.693 1226.18,579.481 1228.94,580.271 1231.69,581.063 1234.45,581.857 1237.2,582.652 1239.96,583.45 1242.71,584.249 1245.46,585.051 1248.22,585.854 1250.97,586.659 1253.73,587.466 1256.48,588.275 1259.24,589.085 1261.99,589.897 1264.75,590.711 1267.5,591.527 1270.25,592.344 1273.01,593.163 1275.76,593.984 1278.52,594.806 1281.27,595.63 1284.03,596.455 1286.78,597.282 1289.54,598.111 1292.29,598.941 1295.04,599.773 1297.8,600.606 1300.55,601.44 1303.31,602.276 1306.06,603.114 1308.82,603.952 1311.57,604.793 1314.33,605.634 1317.08,606.477 1319.83,607.321 1322.59,608.167 1325.34,609.014 1328.1,609.862 1330.85,610.712 1333.61,611.562 1336.36,612.414 1339.12,613.267 1341.87,614.122 1344.62,614.977 1347.38,615.834 1350.13,616.692 1352.89,617.551 1355.64,618.411 1358.4,619.272 1361.15,620.134 1363.91,620.997 1366.66,621.862 1369.41,622.727 1372.17,623.593 1374.92,624.461 1377.68,625.329 1380.43,626.198 1383.19,627.069 1385.94,627.94 1388.7,628.812 1391.45,629.685 1394.21,630.559 1396.96,631.434 1399.71,632.31 1402.47,633.186 1405.22,634.063 1407.98,634.942 1410.73,635.82 1413.49,636.7 1416.24,637.581 1419,638.462 1421.75,639.344 1424.5,640.227 1427.26,641.11 1430.01,641.995 1432.77,642.879 1435.52,643.765 1438.28,644.651 1441.03,645.538 1443.79,646.426 1446.54,647.314 1449.29,648.203 1452.05,649.092 1454.8,649.982 1457.56,650.873 1460.31,651.764 1463.07,652.655 1465.82,653.548 1468.58,654.44 1471.33,655.334 1474.08,656.227 1476.84,657.122 1479.59,658.016 1482.35,658.912 1485.1,659.807 1487.86,660.703 1490.61,661.6 1493.37,662.497 1496.12,663.394 1498.87,664.292 1501.63,665.19 1504.38,666.089 1507.14,666.988 1509.89,667.888 1512.65,668.787 1515.4,669.687 1518.16,670.588 1520.91,671.489 1523.66,672.389 1526.42,673.291 1529.17,674.193 1531.93,675.094 1534.68,675.997 1537.44,676.9 1540.19,677.802 1542.95,678.705 1545.7,679.609 1548.45,680.512 1551.21,681.416 1553.96,682.32 1556.72,683.224 1559.47,684.129 1562.23,685.033 1564.98,685.938 1567.74,686.843 1570.49,687.749 1573.24,688.654 1576,689.56 1578.75,690.465 1581.51,691.371 1584.26,692.277 1587.02,693.183 1589.77,694.089 1592.53,694.996 1595.28,695.902 1598.03,696.809 1600.79,697.715 1603.54,698.622 1606.3,699.529 1609.05,700.435 1611.81,701.342 1614.56,702.249 1617.32,703.156 1620.07,704.063 1622.82,704.97 1625.58,705.877 1628.33,706.784 1631.09,707.691 1633.84,708.598 1636.6,709.505 1639.35,710.412 1642.11,711.319 1644.86,712.226 1647.62,713.133 1650.37,714.04 1653.12,714.947 1655.88,715.854 1658.63,716.761 1661.39,717.668 1664.14,718.574 1666.9,719.481 1669.65,720.388 1672.41,721.294 1675.16,722.201 1677.91,723.107 1680.67,724.013 1683.42,724.919 1686.18,725.826 1688.93,726.732 1691.69,727.637 1694.44,728.543 1697.2,729.449 1699.95,730.354 1702.7,731.26 1705.46,732.165 1708.21,733.07 1710.97,733.975 1713.72,734.88 1716.48,735.785 1719.23,736.689 1721.99,737.593 1724.74,738.498 1727.49,739.402 1730.25,740.305 1733,741.209 1735.76,742.113 1738.51,743.016 1741.27,743.919 1744.02,744.822 1746.78,745.724 1749.53,746.627 1752.28,747.529 1755.04,748.431 1757.79,749.333 1760.55,750.235 1763.3,751.136 1766.06,752.037 1768.81,752.938 1771.57,753.839 1774.32,754.739 1777.07,755.639 1779.83,756.539 1782.58,757.439 1785.34,758.338 1788.09,759.237 1790.85,760.136 1793.6,761.035 1796.36,761.933 1799.11,762.831 1801.86,763.729 1804.62,764.627 1807.37,765.524 1810.13,766.421 1812.88,767.318 1815.64,768.214 1818.39,769.11 1821.15,770.006 1823.9,770.901 1826.65,771.796 1829.41,772.691 1832.16,773.586 1834.92,774.48 1837.67,775.374 1840.43,776.268 1843.18,777.161 1845.94,778.054 1848.69,778.946 1851.44,779.839 1854.2,780.731 1856.95,781.622 1859.71,782.514 1862.46,783.405 1865.22,784.295 1867.97,785.185 1870.73,786.075 1873.48,786.965 1876.23,787.854 1878.99,788.743 1881.74,789.631 1884.5,790.52 1887.25,791.408 1890.01,792.295 1892.76,793.182 1895.52,794.069 1898.27,794.955 1901.03,795.841 1903.78,796.727 1906.53,797.612 1909.29,798.497 1912.04,799.381 1914.8,800.265 1917.55,801.149 1920.31,802.033 1923.06,802.916 1925.82,803.798 1928.57,804.681 1931.32,805.562 1934.08,806.444 1936.83,807.325 1939.59,808.206 1942.34,809.086 1945.1,809.965 1947.85,810.845 1950.61,811.724 1953.36,812.603 1956.11,813.481 1958.87,814.36 1961.62,815.237 1964.38,816.114 1967.13,816.991 1969.89,817.867 1972.64,818.743 1975.4,819.619 1978.15,820.494 1980.9,821.369 1983.66,822.243 1986.41,823.117 1989.17,823.991 1991.92,824.864 1994.68,825.736 1997.43,826.609 2000.19,827.48 2002.94,828.352 2005.69,829.223 2008.45,830.094 2011.2,830.964 2013.96,831.833 2016.71,832.703 2019.47,833.572 2022.22,834.44 2024.98,835.308 2027.73,836.176 2030.48,837.043 2033.24,837.91 2035.99,838.776 2038.75,839.642 2041.5,840.508 2044.26,841.373 2047.01,842.238 2049.77,843.102 2052.52,843.966 2055.27,844.829 2058.03,845.692 2060.78,846.555 2063.54,847.417 2066.29,848.278 2069.05,849.14 2071.8,850 2074.56,850.861 2077.31,851.721 2080.06,852.58 2082.82,853.439 2085.57,854.298 2088.33,855.156 2091.08,856.014 2093.84,856.871 2096.59,857.728 2099.35,858.584 2102.1,859.44 2104.85,860.296 2107.61,861.151 2110.36,862.006 2113.12,862.86 2115.87,863.714 2118.63,864.567 2121.38,865.42 2124.14,866.273 2126.89,867.125 2129.64,867.976 2132.4,868.827 2135.15,869.678 2137.91,870.528 2140.66,871.378 2143.42,872.228 2146.17,873.077 2148.93,873.925 2151.68,874.773 2154.44,875.621 2157.19,876.468 2159.94,877.315 2162.7,878.161 2165.45,879.007 2168.21,879.852 2170.96,880.697 2173.72,881.542 2176.47,882.386 2179.23,883.23 2181.98,884.073 2184.73,884.915 2187.49,885.758 2190.24,886.6 2193,887.441 2195.75,888.282 2198.51,889.123 2201.26,889.963 2204.02,890.802 2206.77,891.641 2209.52,892.48 2212.28,893.318 2215.03,894.156 2217.79,894.994 2220.54,895.831 2223.3,896.667 2226.05,897.503 2228.81,898.339 2231.56,899.174 2234.31,900.009 2237.07,900.843 2239.82,901.677 2242.58,902.51 2245.33,903.343 2248.09,904.176 2250.84,905.008 2253.6,905.839 2256.35,906.671 2259.1,907.501 2261.86,908.332 2264.61,909.162 2267.37,909.991 2270.12,910.82 2272.88,911.648 2275.63,912.476 2278.39,913.304 2281.14,914.131 2283.89,914.958 2286.65,915.785 2289.4,916.61 2292.16,917.436 2294.91,918.261 2297.67,919.085 2300.42,919.909 2303.18,920.733 2305.93,921.556 2308.68,922.379 2311.44,923.201 2314.19,924.023 2316.95,924.845 2319.7,925.666 2322.46,926.487 2325.21,927.307 2327.97,928.127 2330.72,928.946 2333.47,929.765 2336.23,930.583 2338.98,931.401 2341.74,932.219 2344.49,933.036 2347.25,933.853 2350,934.669 2352.76,935.485 "/>
<polyline clip-path="url(#clip742)" style="stroke:#3da44d; stroke-linecap:round; stroke-linejoin:round; stroke-width:12; stroke-opacity:1; fill:none" points="149.191,531.467 151.945,532.601 154.7,533.745 157.454,534.9 160.209,536.065 162.963,537.24 165.718,538.426 168.472,539.622 171.227,540.827 173.981,542.043 176.735,543.268 179.49,544.503 182.244,545.747 184.999,547.001 187.753,548.265 190.508,549.537 193.262,550.818 196.017,552.109 198.771,553.408 201.526,554.715 204.28,556.031 207.034,557.356 209.789,558.689 212.543,560.029 215.298,561.378 218.052,562.734 220.807,564.098 223.561,565.469 226.316,566.848 229.07,568.234 231.825,569.626 234.579,571.025 237.333,572.431 240.088,573.843 242.842,575.261 245.597,576.686 248.351,578.116 251.106,579.552 253.86,580.993 256.615,582.439 259.369,583.891 262.124,585.347 264.878,586.809 267.632,588.274 270.387,589.744 273.141,591.218 275.896,592.696 278.65,594.178 281.405,595.663 284.159,597.152 286.914,598.644 289.668,600.138 292.423,601.636 295.177,603.136 297.932,604.638 300.686,606.142 303.44,607.649 306.195,609.157 308.949,610.666 311.704,612.177 314.458,613.689 317.213,615.203 319.967,616.716 322.722,618.231 325.476,619.746 328.231,621.261 330.985,622.776 333.739,624.291 336.494,625.805 339.248,627.319 342.003,628.832 344.757,630.344 347.512,631.856 350.266,633.365 353.021,634.874 355.775,636.381 358.53,637.886 361.284,639.388 364.038,640.889 366.793,642.388 369.547,643.884 372.302,645.377 375.056,646.867 377.811,648.355 380.565,649.839 383.32,651.32 386.074,652.798 388.829,654.272 391.583,655.742 394.337,657.209 397.092,658.671 399.846,660.129 402.601,661.583 405.355,663.032 408.11,664.477 410.864,665.917 413.619,667.353 416.373,668.783 419.128,670.208 421.882,671.628 424.636,673.043 427.391,674.452 430.145,675.856 432.9,677.254 435.654,678.647 438.409,680.033 441.163,681.414 443.918,682.788 446.672,684.157 449.427,685.519 452.181,686.874 454.936,688.224 457.69,689.567 460.444,690.903 463.199,692.233 465.953,693.555 468.708,694.872 471.462,696.181 474.217,697.483 476.971,698.778 479.726,700.067 482.48,701.348 485.235,702.621 487.989,703.888 490.743,705.147 493.498,706.399 496.252,707.644 499.007,708.881 501.761,710.111 504.516,711.333 507.27,712.548 510.025,713.755 512.779,714.954 515.534,716.146 518.288,717.33 521.042,718.506 523.797,719.675 526.551,720.836 529.306,721.989 532.06,723.134 534.815,724.272 537.569,725.401 540.324,726.523 543.078,727.637 545.833,728.743 548.587,729.842 551.341,730.932 554.096,732.014 556.85,733.089 559.605,734.156 562.359,735.215 565.114,736.266 567.868,737.309 570.623,738.344 573.377,739.371 576.132,740.391 578.886,741.403 581.641,742.407 584.395,743.403 587.149,744.391 589.904,745.372 592.658,746.344 595.413,747.309 598.167,748.267 600.922,749.216 603.676,750.158 606.431,751.092 609.185,752.019 611.94,752.938 614.694,753.849 617.448,754.753 620.203,755.649 622.957,756.538 625.712,757.419 628.466,758.293 631.221,759.159 633.975,760.018 636.73,760.87 639.484,761.714 642.239,762.552 644.993,763.381 647.747,764.204 650.502,765.019 653.256,765.828 656.011,766.629 658.765,767.423 661.52,768.21 664.274,768.99 667.029,769.763 669.783,770.529 672.538,771.288 675.292,772.041 678.046,772.787 680.801,773.525 683.555,774.258 686.31,774.983 689.064,775.702 691.819,776.414 694.573,777.12 697.328,777.819 700.082,778.512 702.837,779.198 705.591,779.878 708.345,780.552 711.1,781.219 713.854,781.88 716.609,782.535 719.363,783.183 722.118,783.826 724.872,784.462 727.627,785.093 730.381,785.717 733.136,786.336 735.89,786.948 738.645,787.555 741.399,788.156 744.153,788.751 746.908,789.34 749.662,789.924 752.417,790.502 755.171,791.074 757.926,791.641 760.68,792.202 763.435,792.758 766.189,793.309 768.944,793.854 771.698,794.394 774.452,794.928 777.207,795.457 779.961,795.981 782.716,796.5 785.47,797.014 788.225,797.522 790.979,798.026 793.734,798.524 796.488,799.018 799.243,799.507 801.997,799.99 804.751,800.469 807.506,800.943 810.26,801.413 813.015,801.878 815.769,802.338 818.524,802.793 821.278,803.244 824.033,803.69 826.787,804.132 829.542,804.569 832.296,805.002 835.05,805.43 837.805,805.854 840.559,806.274 843.314,806.69 846.068,807.101 848.823,807.508 851.577,807.911 854.332,808.31 857.086,808.704 859.841,809.095 862.595,809.481 865.349,809.864 868.104,810.243 870.858,810.618 873.613,810.988 876.367,811.355 879.122,811.719 881.876,812.078 884.631,812.434 887.385,812.786 890.14,813.134 892.894,813.479 895.649,813.82 898.403,814.158 901.157,814.492 903.912,814.823 906.666,815.15 909.421,815.473 912.175,815.794 914.93,816.111 917.684,816.424 920.439,816.734 923.193,817.041 925.948,817.345 928.702,817.646 931.456,817.943 934.211,818.237 936.965,818.528 939.72,818.816 942.474,819.101 945.229,819.383 947.983,819.662 950.738,819.938 953.492,820.211 956.247,820.481 959.001,820.748 961.755,821.012 964.51,821.274 967.264,821.532 970.019,821.788 972.773,822.041 975.528,822.291 978.282,822.539 981.037,822.784 983.791,823.026 986.546,823.266 989.3,823.503 992.054,823.737 994.809,823.969 997.563,824.199 1000.32,824.426 1003.07,824.65 1005.83,824.872 1008.58,825.092 1011.34,825.309 1014.09,825.524 1016.84,825.736 1019.6,825.946 1022.35,826.154 1025.11,826.359 1027.86,826.562 1030.62,826.763 1033.37,826.962 1036.13,827.158 1038.88,827.353 1041.63,827.545 1044.39,827.735 1047.14,827.923 1049.9,828.108 1052.65,828.292 1055.41,828.474 1058.16,828.653 1060.92,828.831 1063.67,829.006 1066.42,829.18 1069.18,829.352 1071.93,829.521 1074.69,829.689 1077.44,829.855 1080.2,830.019 1082.95,830.181 1085.71,830.341 1088.46,830.5 1091.21,830.656 1093.97,830.811 1096.72,830.964 1099.48,831.115 1102.23,831.265 1104.99,831.413 1107.74,831.559 1110.5,831.703 1113.25,831.846 1116.01,831.987 1118.76,832.126 1121.51,832.264 1124.27,832.4 1127.02,832.535 1129.78,832.668 1132.53,832.799 1135.29,832.929 1138.04,833.057 1140.8,833.184 1143.55,833.309 1146.3,833.433 1149.06,833.555 1151.81,833.676 1154.57,833.796 1157.32,833.914 1160.08,834.03 1162.83,834.145 1165.59,834.259 1168.34,834.371 1171.09,834.482 1173.85,834.592 1176.6,834.7 1179.36,834.807 1182.11,834.913 1184.87,835.018 1187.62,835.121 1190.38,835.223 1193.13,835.323 1195.88,835.422 1198.64,835.52 1201.39,835.617 1204.15,835.713 1206.9,835.807 1209.66,835.901 1212.41,835.993 1215.17,836.084 1217.92,836.173 1220.67,836.262 1223.43,836.35 1226.18,836.436 1228.94,836.521 1231.69,836.605 1234.45,836.688 1237.2,836.77 1239.96,836.851 1242.71,836.931 1245.46,837.01 1248.22,837.088 1250.97,837.164 1253.73,837.24 1256.48,837.315 1259.24,837.389 1261.99,837.462 1264.75,837.533 1267.5,837.604 1270.25,837.674 1273.01,837.743 1275.76,837.811 1278.52,837.878 1281.27,837.944 1284.03,838.009 1286.78,838.074 1289.54,838.137 1292.29,838.199 1295.04,838.261 1297.8,838.322 1300.55,838.382 1303.31,838.441 1306.06,838.499 1308.82,838.557 1311.57,838.613 1314.33,838.669 1317.08,838.724 1319.83,838.778 1322.59,838.831 1325.34,838.884 1328.1,838.936 1330.85,838.987 1333.61,839.037 1336.36,839.086 1339.12,839.135 1341.87,839.183 1344.62,839.231 1347.38,839.277 1350.13,839.323 1352.89,839.368 1355.64,839.412 1358.4,839.456 1361.15,839.499 1363.91,839.542 1366.66,839.583 1369.41,839.624 1372.17,839.665 1374.92,839.704 1377.68,839.743 1380.43,839.782 1383.19,839.82 1385.94,839.857 1388.7,839.893 1391.45,839.929 1394.21,839.964 1396.96,839.999 1399.71,840.033 1402.47,840.067 1405.22,840.099 1407.98,840.132 1410.73,840.163 1413.49,840.195 1416.24,840.225 1419,840.255 1421.75,840.285 1424.5,840.314 1427.26,840.342 1430.01,840.37 1432.77,840.397 1435.52,840.424 1438.28,840.45 1441.03,840.476 1443.79,840.501 1446.54,840.526 1449.29,840.55 1452.05,840.574 1454.8,840.597 1457.56,840.62 1460.31,840.642 1463.07,840.664 1465.82,840.685 1468.58,840.706 1471.33,840.727 1474.08,840.746 1476.84,840.766 1479.59,840.785 1482.35,840.804 1485.1,840.822 1487.86,840.839 1490.61,840.857 1493.37,840.874 1496.12,840.89 1498.87,840.906 1501.63,840.922 1504.38,840.937 1507.14,840.952 1509.89,840.966 1512.65,840.98 1515.4,840.994 1518.16,841.007 1520.91,841.02 1523.66,841.032 1526.42,841.044 1529.17,841.056 1531.93,841.067 1534.68,841.078 1537.44,841.089 1540.19,841.099 1542.95,841.109 1545.7,841.119 1548.45,841.128 1551.21,841.137 1553.96,841.145 1556.72,841.154 1559.47,841.161 1562.23,841.169 1564.98,841.176 1567.74,841.183 1570.49,841.19 1573.24,841.196 1576,841.202 1578.75,841.207 1581.51,841.213 1584.26,841.218 1587.02,841.222 1589.77,841.227 1592.53,841.231 1595.28,841.235 1598.03,841.238 1600.79,841.242 1603.54,841.245 1606.3,841.247 1609.05,841.25 1611.81,841.252 1614.56,841.254 1617.32,841.255 1620.07,841.257 1622.82,841.258 1625.58,841.259 1628.33,841.259 1631.09,841.26 1633.84,841.26 1636.6,841.26 1639.35,841.259 1642.11,841.259 1644.86,841.258 1647.62,841.257 1650.37,841.255 1653.12,841.254 1655.88,841.252 1658.63,841.25 1661.39,841.248 1664.14,841.245 1666.9,841.242 1669.65,841.239 1672.41,841.236 1675.16,841.233 1677.91,841.229 1680.67,841.226 1683.42,841.222 1686.18,841.218 1688.93,841.213 1691.69,841.209 1694.44,841.204 1697.2,841.199 1699.95,841.194 1702.7,841.188 1705.46,841.183 1708.21,841.177 1710.97,841.171 1713.72,841.165 1716.48,841.159 1719.23,841.152 1721.99,841.146 1724.74,841.139 1727.49,841.132 1730.25,841.125 1733,841.118 1735.76,841.11 1738.51,841.103 1741.27,841.095 1744.02,841.087 1746.78,841.079 1749.53,841.071 1752.28,841.062 1755.04,841.054 1757.79,841.045 1760.55,841.036 1763.3,841.027 1766.06,841.018 1768.81,841.009 1771.57,840.999 1774.32,840.99 1777.07,840.98 1779.83,840.97 1782.58,840.96 1785.34,840.95 1788.09,840.94 1790.85,840.929 1793.6,840.919 1796.36,840.908 1799.11,840.897 1801.86,840.886 1804.62,840.875 1807.37,840.864 1810.13,840.853 1812.88,840.842 1815.64,840.83 1818.39,840.819 1821.15,840.807 1823.9,840.795 1826.65,840.783 1829.41,840.771 1832.16,840.759 1834.92,840.747 1837.67,840.734 1840.43,840.722 1843.18,840.709 1845.94,840.697 1848.69,840.684 1851.44,840.671 1854.2,840.658 1856.95,840.645 1859.71,840.632 1862.46,840.618 1865.22,840.605 1867.97,840.591 1870.73,840.578 1873.48,840.564 1876.23,840.551 1878.99,840.537 1881.74,840.523 1884.5,840.509 1887.25,840.495 1890.01,840.481 1892.76,840.467 1895.52,840.452 1898.27,840.438 1901.03,840.423 1903.78,840.409 1906.53,840.394 1909.29,840.38 1912.04,840.365 1914.8,840.35 1917.55,840.335 1920.31,840.32 1923.06,840.305 1925.82,840.29 1928.57,840.275 1931.32,840.26 1934.08,840.244 1936.83,840.229 1939.59,840.213 1942.34,840.198 1945.1,840.182 1947.85,840.167 1950.61,840.151 1953.36,840.135 1956.11,840.119 1958.87,840.104 1961.62,840.088 1964.38,840.072 1967.13,840.056 1969.89,840.04 1972.64,840.023 1975.4,840.007 1978.15,839.991 1980.9,839.975 1983.66,839.958 1986.41,839.942 1989.17,839.926 1991.92,839.909 1994.68,839.893 1997.43,839.876 2000.19,839.859 2002.94,839.843 2005.69,839.826 2008.45,839.809 2011.2,839.792 2013.96,839.776 2016.71,839.759 2019.47,839.742 2022.22,839.725 2024.98,839.708 2027.73,839.691 2030.48,839.674 2033.24,839.657 2035.99,839.64 2038.75,839.623 2041.5,839.605 2044.26,839.588 2047.01,839.571 2049.77,839.554 2052.52,839.536 2055.27,839.519 2058.03,839.501 2060.78,839.484 2063.54,839.467 2066.29,839.449 2069.05,839.432 2071.8,839.414 2074.56,839.397 2077.31,839.379 2080.06,839.361 2082.82,839.344 2085.57,839.326 2088.33,839.308 2091.08,839.291 2093.84,839.273 2096.59,839.255 2099.35,839.237 2102.1,839.22 2104.85,839.202 2107.61,839.184 2110.36,839.166 2113.12,839.148 2115.87,839.13 2118.63,839.112 2121.38,839.094 2124.14,839.077 2126.89,839.059 2129.64,839.041 2132.4,839.023 2135.15,839.005 2137.91,838.987 2140.66,838.969 2143.42,838.951 2146.17,838.932 2148.93,838.914 2151.68,838.896 2154.44,838.878 2157.19,838.86 2159.94,838.842 2162.7,838.824 2165.45,838.806 2168.21,838.788 2170.96,838.769 2173.72,838.751 2176.47,838.733 2179.23,838.715 2181.98,838.697 2184.73,838.678 2187.49,838.66 2190.24,838.642 2193,838.624 2195.75,838.606 2198.51,838.587 2201.26,838.569 2204.02,838.551 2206.77,838.533 2209.52,838.514 2212.28,838.496 2215.03,838.478 2217.79,838.46 2220.54,838.441 2223.3,838.423 2226.05,838.405 2228.81,838.387 2231.56,838.368 2234.31,838.35 2237.07,838.332 2239.82,838.314 2242.58,838.295 2245.33,838.277 2248.09,838.259 2250.84,838.241 2253.6,838.222 2256.35,838.204 2259.1,838.186 2261.86,838.167 2264.61,838.149 2267.37,838.131 2270.12,838.113 2272.88,838.095 2275.63,838.076 2278.39,838.058 2281.14,838.04 2283.89,838.022 2286.65,838.003 2289.4,837.985 2292.16,837.967 2294.91,837.949 2297.67,837.931 2300.42,837.912 2303.18,837.894 2305.93,837.876 2308.68,837.858 2311.44,837.84 2314.19,837.821 2316.95,837.803 2319.7,837.785 2322.46,837.767 2325.21,837.749 2327.97,837.731 2330.72,837.713 2333.47,837.695 2336.23,837.676 2338.98,837.658 2341.74,837.64 2344.49,837.622 2347.25,837.604 2350,837.586 2352.76,837.568 "/>
<path clip-path="url(#clip740)" d="M222.643 300.469 L532.096 300.469 L532.096 93.1086 L222.643 93.1086  Z" fill="#ffffff" fill-rule="evenodd" fill-opacity="1"/>
<polyline clip-path="url(#clip740)" style="stroke:#000000; stroke-linecap:round; stroke-linejoin:round; stroke-width:4; stroke-opacity:1; fill:none" points="222.643,300.469 532.096,300.469 532.096,93.1086 222.643,93.1086 222.643,300.469 "/>
<polyline clip-path="url(#clip740)" style="stroke:#009af9; stroke-linecap:round; stroke-linejoin:round; stroke-width:12; stroke-opacity:1; fill:none" points="247.127,144.949 394.031,144.949 "/>
<path clip-path="url(#clip740)" d="M418.515 151.997 L418.515 136.303 L422.775 136.303 L422.775 151.835 Q422.775 155.516 424.21 157.368 Q425.645 159.196 428.515 159.196 Q431.964 159.196 433.955 156.997 Q435.969 154.798 435.969 151.002 L435.969 136.303 L440.228 136.303 L440.228 162.229 L435.969 162.229 L435.969 158.247 Q434.418 160.608 432.358 161.766 Q430.321 162.9 427.613 162.9 Q423.145 162.9 420.83 160.122 Q418.515 157.344 418.515 151.997 M429.233 135.678 L429.233 135.678 Z" fill="#000000" fill-rule="nonzero" fill-opacity="1" /><path clip-path="url(#clip740)" d="M448.608 126.21 L458.423 126.21 L458.423 129.52 L452.867 129.52 L452.867 165.168 L458.423 165.168 L458.423 168.479 L448.608 168.479 L448.608 126.21 Z" fill="#000000" fill-rule="nonzero" fill-opacity="1" /><path clip-path="url(#clip740)" d="M468.909 158.293 L476.548 158.293 L476.548 131.928 L468.237 133.595 L468.237 129.335 L476.501 127.669 L481.177 127.669 L481.177 158.293 L488.816 158.293 L488.816 162.229 L468.909 162.229 L468.909 158.293 Z" fill="#000000" fill-rule="nonzero" fill-opacity="1" /><path clip-path="url(#clip740)" d="M507.612 126.21 L507.612 168.479 L497.797 168.479 L497.797 165.168 L503.33 165.168 L503.33 129.52 L497.797 129.52 L497.797 126.21 L507.612 126.21 Z" fill="#000000" fill-rule="nonzero" fill-opacity="1" /><polyline clip-path="url(#clip740)" style="stroke:#e26f46; stroke-linecap:round; stroke-linejoin:round; stroke-width:12; stroke-opacity:1; fill:none" points="247.127,196.789 394.031,196.789 "/>
<path clip-path="url(#clip740)" d="M418.515 203.837 L418.515 188.143 L422.775 188.143 L422.775 203.675 Q422.775 207.356 424.21 209.208 Q425.645 211.036 428.515 211.036 Q431.964 211.036 433.955 208.837 Q435.969 206.638 435.969 202.842 L435.969 188.143 L440.228 188.143 L440.228 214.069 L435.969 214.069 L435.969 210.087 Q434.418 212.448 432.358 213.606 Q430.321 214.74 427.613 214.74 Q423.145 214.74 420.83 211.962 Q418.515 209.184 418.515 203.837 M429.233 187.518 L429.233 187.518 Z" fill="#000000" fill-rule="nonzero" fill-opacity="1" /><path clip-path="url(#clip740)" d="M448.608 178.05 L458.423 178.05 L458.423 181.36 L452.867 181.36 L452.867 217.008 L458.423 217.008 L458.423 220.319 L448.608 220.319 L448.608 178.05 Z" fill="#000000" fill-rule="nonzero" fill-opacity="1" /><path clip-path="url(#clip740)" d="M472.126 210.133 L488.446 210.133 L488.446 214.069 L466.501 214.069 L466.501 210.133 Q469.163 207.379 473.747 202.749 Q478.353 198.096 479.534 196.754 Q481.779 194.231 482.659 192.495 Q483.561 190.735 483.561 189.046 Q483.561 186.291 481.617 184.555 Q479.696 182.819 476.594 182.819 Q474.395 182.819 471.941 183.583 Q469.511 184.347 466.733 185.897 L466.733 181.175 Q469.557 180.041 472.011 179.462 Q474.464 178.884 476.501 178.884 Q481.872 178.884 485.066 181.569 Q488.26 184.254 488.26 188.745 Q488.26 190.874 487.45 192.796 Q486.663 194.694 484.557 197.286 Q483.978 197.958 480.876 201.175 Q477.774 204.37 472.126 210.133 Z" fill="#000000" fill-rule="nonzero" fill-opacity="1" /><path clip-path="url(#clip740)" d="M507.612 178.05 L507.612 220.319 L497.797 220.319 L497.797 217.008 L503.33 217.008 L503.33 181.36 L497.797 181.36 L497.797 178.05 L507.612 178.05 Z" fill="#000000" fill-rule="nonzero" fill-opacity="1" /><polyline clip-path="url(#clip740)" style="stroke:#3da44d; stroke-linecap:round; stroke-linejoin:round; stroke-width:12; stroke-opacity:1; fill:none" points="247.127,248.629 394.031,248.629 "/>
<path clip-path="url(#clip740)" d="M418.515 255.677 L418.515 239.983 L422.775 239.983 L422.775 255.515 Q422.775 259.196 424.21 261.048 Q425.645 262.876 428.515 262.876 Q431.964 262.876 433.955 260.677 Q435.969 258.478 435.969 254.682 L435.969 239.983 L440.228 239.983 L440.228 265.909 L435.969 265.909 L435.969 261.927 Q434.418 264.288 432.358 265.446 Q430.321 266.58 427.613 266.58 Q423.145 266.58 420.83 263.802 Q418.515 261.024 418.515 255.677 M429.233 239.358 L429.233 239.358 Z" fill="#000000" fill-rule="nonzero" fill-opacity="1" /><path clip-path="url(#clip740)" d="M459.233 229.937 Q456.131 235.261 454.626 240.469 Q453.122 245.677 453.122 251.024 Q453.122 256.372 454.626 261.626 Q456.154 266.858 459.233 272.159 L455.529 272.159 Q452.057 266.719 450.321 261.464 Q448.608 256.21 448.608 251.024 Q448.608 245.862 450.321 240.631 Q452.034 235.4 455.529 229.937 L459.233 229.937 Z" fill="#000000" fill-rule="nonzero" fill-opacity="1" /><path clip-path="url(#clip740)" d="M471.71 232.622 L471.71 239.983 L480.483 239.983 L480.483 243.293 L471.71 243.293 L471.71 257.367 Q471.71 260.538 472.566 261.441 Q473.446 262.344 476.108 262.344 L480.483 262.344 L480.483 265.909 L476.108 265.909 Q471.177 265.909 469.302 264.08 Q467.427 262.228 467.427 257.367 L467.427 243.293 L464.302 243.293 L464.302 239.983 L467.427 239.983 L467.427 232.622 L471.71 232.622 Z" fill="#000000" fill-rule="nonzero" fill-opacity="1" /><path clip-path="url(#clip740)" d="M485.413 229.937 L489.117 229.937 Q492.589 235.4 494.302 240.631 Q496.038 245.862 496.038 251.024 Q496.038 256.21 494.302 261.464 Q492.589 266.719 489.117 272.159 L485.413 272.159 Q488.492 266.858 489.997 261.626 Q491.524 256.372 491.524 251.024 Q491.524 245.677 489.997 240.469 Q488.492 235.261 485.413 229.937 Z" fill="#000000" fill-rule="nonzero" fill-opacity="1" /></svg>
