<?xml version="1.0" encoding="utf-8"?>
<svg xmlns="http://www.w3.org/2000/svg" xmlns:xlink="http://www.w3.org/1999/xlink" width="600" height="400" viewBox="0 0 2400 1600">
<defs>
  <clipPath id="clip910">
    <rect x="0" y="0" width="2400" height="1600"/>
  </clipPath>
</defs>
<path clip-path="url(#clip910)" d="M0 1600 L2400 1600 L2400 0 L0 0  Z" fill="#ffffff" fill-rule="evenodd" fill-opacity="1"/>
<defs>
  <clipPath id="clip911">
    <rect x="480" y="0" width="1681" height="1600"/>
  </clipPath>
</defs>
<path clip-path="url(#clip910)" d="M149.191 1423.18 L2352.76 1423.18 L2352.76 47.2441 L149.191 47.2441  Z" fill="#ffffff" fill-rule="evenodd" fill-opacity="1"/>
<defs>
  <clipPath id="clip912">
    <rect x="149" y="47" width="2205" height="1377"/>
  </clipPath>
</defs>
<polyline clip-path="url(#clip912)" style="stroke:#000000; stroke-linecap:round; stroke-linejoin:round; stroke-width:2; stroke-opacity:0.1; fill:none" points="149.191,1423.18 149.191,47.2441 "/>
<polyline clip-path="url(#clip912)" style="stroke:#000000; stroke-linecap:round; stroke-linejoin:round; stroke-width:2; stroke-opacity:0.1; fill:none" points="700.082,1423.18 700.082,47.2441 "/>
<polyline clip-path="url(#clip912)" style="stroke:#000000; stroke-linecap:round; stroke-linejoin:round; stroke-width:2; stroke-opacity:0.1; fill:none" points="1250.97,1423.18 1250.97,47.2441 "/>
<polyline clip-path="url(#clip912)" style="stroke:#000000; stroke-linecap:round; stroke-linejoin:round; stroke-width:2; stroke-opacity:0.1; fill:none" points="1801.86,1423.18 1801.86,47.2441 "/>
<polyline clip-path="url(#clip912)" style="stroke:#000000; stroke-linecap:round; stroke-linejoin:round; stroke-width:2; stroke-opacity:0.1; fill:none" points="2352.76,1423.18 2352.76,47.2441 "/>
<polyline clip-path="url(#clip912)" style="stroke:#000000; stroke-linecap:round; stroke-linejoin:round; stroke-width:2; stroke-opacity:0.1; fill:none" points="149.191,1423.18 2352.76,1423.18 "/>
<polyline clip-path="url(#clip912)" style="stroke:#000000; stroke-linecap:round; stroke-linejoin:round; stroke-width:2; stroke-opacity:0.1; fill:none" points="149.191,1193.86 2352.76,1193.86 "/>
<polyline clip-path="url(#clip912)" style="stroke:#000000; stroke-linecap:round; stroke-linejoin:round; stroke-width:2; stroke-opacity:0.1; fill:none" points="149.191,964.535 2352.76,964.535 "/>
<polyline clip-path="url(#clip912)" style="stroke:#000000; stroke-linecap:round; stroke-linejoin:round; stroke-width:2; stroke-opacity:0.1; fill:none" points="149.191,735.212 2352.76,735.212 "/>
<polyline clip-path="url(#clip912)" style="stroke:#000000; stroke-linecap:round; stroke-linejoin:round; stroke-width:2; stroke-opacity:0.1; fill:none" points="149.191,505.889 2352.76,505.889 "/>
<polyline clip-path="url(#clip912)" style="stroke:#000000; stroke-linecap:round; stroke-linejoin:round; stroke-width:2; stroke-opacity:0.1; fill:none" points="149.191,276.567 2352.76,276.567 "/>
<polyline clip-path="url(#clip912)" style="stroke:#000000; stroke-linecap:round; stroke-linejoin:round; stroke-width:2; stroke-opacity:0.1; fill:none" points="149.191,47.2441 2352.76,47.2441 "/>
<polyline clip-path="url(#clip910)" style="stroke:#000000; stroke-linecap:round; stroke-linejoin:round; stroke-width:4; stroke-opacity:1; fill:none" points="149.191,1423.18 2352.76,1423.18 "/>
<polyline clip-path="url(#clip910)" style="stroke:#000000; stroke-linecap:round; stroke-linejoin:round; stroke-width:4; stroke-opacity:1; fill:none" points="149.191,1423.18 149.191,1404.28 "/>
<polyline clip-path="url(#clip910)" style="stroke:#000000; stroke-linecap:round; stroke-linejoin:round; stroke-width:4; stroke-opacity:1; fill:none" points="700.082,1423.18 700.082,1404.28 "/>
<polyline clip-path="url(#clip910)" style="stroke:#000000; stroke-linecap:round; stroke-linejoin:round; stroke-width:4; stroke-opacity:1; fill:none" points="1250.97,1423.18 1250.97,1404.28 "/>
<polyline clip-path="url(#clip910)" style="stroke:#000000; stroke-linecap:round; stroke-linejoin:round; stroke-width:4; stroke-opacity:1; fill:none" points="1801.86,1423.18 1801.86,1404.28 "/>
<polyline clip-path="url(#clip910)" style="stroke:#000000; stroke-linecap:round; stroke-linejoin:round; stroke-width:4; stroke-opacity:1; fill:none" points="2352.76,1423.18 2352.76,1404.28 "/>
<path clip-path="url(#clip910)" d="M149.191 1454.1 Q145.58 1454.1 143.751 1457.66 Q141.946 1461.2 141.946 1468.33 Q141.946 1475.44 143.751 1479.01 Q145.58 1482.55 149.191 1482.55 Q152.825 1482.55 154.631 1479.01 Q156.459 1475.44 156.459 1468.33 Q156.459 1461.2 154.631 1457.66 Q152.825 1454.1 149.191 1454.1 M149.191 1450.39 Q155.001 1450.39 158.057 1455 Q161.135 1459.58 161.135 1468.33 Q161.135 1477.06 158.057 1481.67 Q155.001 1486.25 149.191 1486.25 Q143.381 1486.25 140.302 1481.67 Q137.246 1477.06 137.246 1468.33 Q137.246 1459.58 140.302 1455 Q143.381 1450.39 149.191 1450.39 Z" fill="#000000" fill-rule="nonzero" fill-opacity="1" /><path clip-path="url(#clip910)" d="M694.735 1481.64 L711.054 1481.64 L711.054 1485.58 L689.11 1485.58 L689.11 1481.64 Q691.772 1478.89 696.355 1474.26 Q700.962 1469.61 702.142 1468.27 Q704.388 1465.74 705.267 1464.01 Q706.17 1462.25 706.17 1460.56 Q706.17 1457.8 704.226 1456.07 Q702.304 1454.33 699.203 1454.33 Q697.003 1454.33 694.55 1455.09 Q692.119 1455.86 689.341 1457.41 L689.341 1452.69 Q692.166 1451.55 694.619 1450.97 Q697.073 1450.39 699.11 1450.39 Q704.48 1450.39 707.675 1453.08 Q710.869 1455.77 710.869 1460.26 Q710.869 1462.39 710.059 1464.31 Q709.272 1466.2 707.165 1468.8 Q706.587 1469.47 703.485 1472.69 Q700.383 1475.88 694.735 1481.64 Z" fill="#000000" fill-rule="nonzero" fill-opacity="1" /><path clip-path="url(#clip910)" d="M1253.98 1455.09 L1242.18 1473.54 L1253.98 1473.54 L1253.98 1455.09 M1252.76 1451.02 L1258.64 1451.02 L1258.64 1473.54 L1263.57 1473.54 L1263.57 1477.43 L1258.64 1477.43 L1258.64 1485.58 L1253.98 1485.58 L1253.98 1477.43 L1238.38 1477.43 L1238.38 1472.92 L1252.76 1451.02 Z" fill="#000000" fill-rule="nonzero" fill-opacity="1" /><path clip-path="url(#clip910)" d="M1802.27 1466.44 Q1799.12 1466.44 1797.27 1468.59 Q1795.44 1470.74 1795.44 1474.49 Q1795.44 1478.22 1797.27 1480.39 Q1799.12 1482.55 1802.27 1482.55 Q1805.42 1482.55 1807.25 1480.39 Q1809.1 1478.22 1809.1 1474.49 Q1809.1 1470.74 1807.25 1468.59 Q1805.42 1466.44 1802.27 1466.44 M1811.55 1451.78 L1811.55 1456.04 Q1809.79 1455.21 1807.99 1454.77 Q1806.2 1454.33 1804.45 1454.33 Q1799.82 1454.33 1797.36 1457.45 Q1794.93 1460.58 1794.58 1466.9 Q1795.95 1464.89 1798.01 1463.82 Q1800.07 1462.73 1802.55 1462.73 Q1807.76 1462.73 1810.77 1465.9 Q1813.8 1469.05 1813.8 1474.49 Q1813.8 1479.82 1810.65 1483.03 Q1807.5 1486.25 1802.27 1486.25 Q1796.27 1486.25 1793.1 1481.67 Q1789.93 1477.06 1789.93 1468.33 Q1789.93 1460.14 1793.82 1455.28 Q1797.71 1450.39 1804.26 1450.39 Q1806.02 1450.39 1807.8 1450.74 Q1809.61 1451.09 1811.55 1451.78 Z" fill="#000000" fill-rule="nonzero" fill-opacity="1" /><path clip-path="url(#clip910)" d="M2352.76 1469.17 Q2349.42 1469.17 2347.5 1470.95 Q2345.6 1472.73 2345.6 1475.86 Q2345.6 1478.98 2347.5 1480.77 Q2349.42 1482.55 2352.76 1482.55 Q2356.09 1482.55 2358.01 1480.77 Q2359.93 1478.96 2359.93 1475.86 Q2359.93 1472.73 2358.01 1470.95 Q2356.11 1469.17 2352.76 1469.17 M2348.08 1467.18 Q2345.07 1466.44 2343.38 1464.38 Q2341.71 1462.32 2341.71 1459.35 Q2341.71 1455.21 2344.65 1452.8 Q2347.62 1450.39 2352.76 1450.39 Q2357.92 1450.39 2360.86 1452.8 Q2363.8 1455.21 2363.8 1459.35 Q2363.8 1462.32 2362.11 1464.38 Q2360.44 1466.44 2357.45 1467.18 Q2360.83 1467.96 2362.71 1470.26 Q2364.61 1472.55 2364.61 1475.86 Q2364.61 1480.88 2361.53 1483.57 Q2358.47 1486.25 2352.76 1486.25 Q2347.04 1486.25 2343.96 1483.57 Q2340.9 1480.88 2340.9 1475.86 Q2340.9 1472.55 2342.8 1470.26 Q2344.7 1467.96 2348.08 1467.18 M2346.37 1459.79 Q2346.37 1462.48 2348.03 1463.98 Q2349.72 1465.49 2352.76 1465.49 Q2355.77 1465.49 2357.45 1463.98 Q2359.17 1462.48 2359.17 1459.79 Q2359.17 1457.11 2357.45 1455.6 Q2355.77 1454.1 2352.76 1454.1 Q2349.72 1454.1 2348.03 1455.6 Q2346.37 1457.11 2346.37 1459.79 Z" fill="#000000" fill-rule="nonzero" fill-opacity="1" /><path clip-path="url(#clip910)" d="M1250.03 1522.27 L1250.03 1532.4 L1262.1 1532.4 L1262.1 1536.95 L1250.03 1536.95 L1250.03 1556.3 Q1250.03 1560.66 1251.21 1561.9 Q1252.42 1563.14 1256.08 1563.14 L1262.1 1563.14 L1262.1 1568.04 L1256.08 1568.04 Q1249.3 1568.04 1246.72 1565.53 Q1244.15 1562.98 1244.15 1556.3 L1244.15 1536.95 L1239.85 1536.95 L1239.85 1532.4 L1244.15 1532.4 L1244.15 1522.27 L1250.03 1522.27 Z" fill="#000000" fill-rule="nonzero" fill-opacity="1" /><polyline clip-path="url(#clip910)" style="stroke:#000000; stroke-linecap:round; stroke-linejoin:round; stroke-width:4; stroke-opacity:1; fill:none" points="149.191,1423.18 149.191,47.2441 "/>
<polyline clip-path="url(#clip910)" style="stroke:#000000; stroke-linecap:round; stroke-linejoin:round; stroke-width:4; stroke-opacity:1; fill:none" points="149.191,1423.18 168.089,1423.18 "/>
<polyline clip-path="url(#clip910)" style="stroke:#000000; stroke-linecap:round; stroke-linejoin:round; stroke-width:4; stroke-opacity:1; fill:none" points="149.191,1193.86 168.089,1193.86 "/>
<polyline clip-path="url(#clip910)" style="stroke:#000000; stroke-linecap:round; stroke-linejoin:round; stroke-width:4; stroke-opacity:1; fill:none" points="149.191,964.535 168.089,964.535 "/>
<polyline clip-path="url(#clip910)" style="stroke:#000000; stroke-linecap:round; stroke-linejoin:round; stroke-width:4; stroke-opacity:1; fill:none" points="149.191,735.212 168.089,735.212 "/>
<polyline clip-path="url(#clip910)" style="stroke:#000000; stroke-linecap:round; stroke-linejoin:round; stroke-width:4; stroke-opacity:1; fill:none" points="149.191,505.889 168.089,505.889 "/>
<polyline clip-path="url(#clip910)" style="stroke:#000000; stroke-linecap:round; stroke-linejoin:round; stroke-width:4; stroke-opacity:1; fill:none" points="149.191,276.567 168.089,276.567 "/>
<polyline clip-path="url(#clip910)" style="stroke:#000000; stroke-linecap:round; stroke-linejoin:round; stroke-width:4; stroke-opacity:1; fill:none" points="149.191,47.2441 168.089,47.2441 "/>
<path clip-path="url(#clip910)" d="M51.3162 1423.63 L80.992 1423.63 L80.992 1427.57 L51.3162 1427.57 L51.3162 1423.63 Z" fill="#000000" fill-rule="nonzero" fill-opacity="1" /><path clip-path="url(#clip910)" d="M101.663 1421.32 Q98.515 1421.32 96.6632 1423.47 Q94.8345 1425.62 94.8345 1429.37 Q94.8345 1433.1 96.6632 1435.27 Q98.515 1437.43 101.663 1437.43 Q104.811 1437.43 106.64 1435.27 Q108.492 1433.1 108.492 1429.37 Q108.492 1425.62 106.64 1423.47 Q104.811 1421.32 101.663 1421.32 M110.946 1406.66 L110.946 1410.92 Q109.186 1410.09 107.381 1409.65 Q105.598 1409.21 103.839 1409.21 Q99.2095 1409.21 96.7558 1412.33 Q94.3252 1415.46 93.978 1421.78 Q95.3437 1419.77 97.4039 1418.7 Q99.4641 1417.61 101.941 1417.61 Q107.149 1417.61 110.158 1420.78 Q113.191 1423.93 113.191 1429.37 Q113.191 1434.7 110.043 1437.91 Q106.895 1441.13 101.663 1441.13 Q95.6678 1441.13 92.4965 1436.55 Q89.3253 1431.94 89.3253 1423.21 Q89.3253 1415.02 93.2141 1410.16 Q97.103 1405.27 103.654 1405.27 Q105.413 1405.27 107.196 1405.62 Q109.001 1405.97 110.946 1406.66 Z" fill="#000000" fill-rule="nonzero" fill-opacity="1" /><path clip-path="url(#clip910)" d="M50.9921 1194.31 L80.6679 1194.31 L80.6679 1198.24 L50.9921 1198.24 L50.9921 1194.31 Z" fill="#000000" fill-rule="nonzero" fill-opacity="1" /><path clip-path="url(#clip910)" d="M103.608 1180.65 L91.8021 1199.1 L103.608 1199.1 L103.608 1180.65 M102.381 1176.58 L108.26 1176.58 L108.26 1199.1 L113.191 1199.1 L113.191 1202.99 L108.26 1202.99 L108.26 1211.14 L103.608 1211.14 L103.608 1202.99 L88.0058 1202.99 L88.0058 1198.48 L102.381 1176.58 Z" fill="#000000" fill-rule="nonzero" fill-opacity="1" /><path clip-path="url(#clip910)" d="M53.0754 964.986 L82.7512 964.986 L82.7512 968.921 L53.0754 968.921 L53.0754 964.986 Z" fill="#000000" fill-rule="nonzero" fill-opacity="1" /><path clip-path="url(#clip910)" d="M96.8715 977.879 L113.191 977.879 L113.191 981.815 L91.2465 981.815 L91.2465 977.879 Q93.9086 975.125 98.4919 970.495 Q103.098 965.842 104.279 964.5 Q106.524 961.977 107.404 960.241 Q108.307 958.481 108.307 956.792 Q108.307 954.037 106.362 952.301 Q104.441 950.565 101.339 950.565 Q99.14 950.565 96.6863 951.329 Q94.2558 952.093 91.478 953.643 L91.478 948.921 Q94.3021 947.787 96.7558 947.208 Q99.2095 946.63 101.246 946.63 Q106.617 946.63 109.811 949.315 Q113.006 952 113.006 956.491 Q113.006 958.62 112.196 960.542 Q111.408 962.44 109.302 965.032 Q108.723 965.704 105.621 968.921 Q102.52 972.116 96.8715 977.879 Z" fill="#000000" fill-rule="nonzero" fill-opacity="1" /><path clip-path="url(#clip910)" d="M101.246 721.011 Q97.6354 721.011 95.8067 724.575 Q94.0012 728.117 94.0012 735.247 Q94.0012 742.353 95.8067 745.918 Q97.6354 749.46 101.246 749.46 Q104.881 749.46 106.686 745.918 Q108.515 742.353 108.515 735.247 Q108.515 728.117 106.686 724.575 Q104.881 721.011 101.246 721.011 M101.246 717.307 Q107.057 717.307 110.112 721.913 Q113.191 726.497 113.191 735.247 Q113.191 743.973 110.112 748.58 Q107.057 753.163 101.246 753.163 Q95.4363 753.163 92.3576 748.58 Q89.3021 743.973 89.3021 735.247 Q89.3021 726.497 92.3576 721.913 Q95.4363 717.307 101.246 717.307 Z" fill="#000000" fill-rule="nonzero" fill-opacity="1" /><path clip-path="url(#clip910)" d="M96.8715 519.234 L113.191 519.234 L113.191 523.169 L91.2465 523.169 L91.2465 519.234 Q93.9086 516.48 98.4919 511.85 Q103.098 507.197 104.279 505.855 Q106.524 503.331 107.404 501.595 Q108.307 499.836 108.307 498.146 Q108.307 495.392 106.362 493.656 Q104.441 491.92 101.339 491.92 Q99.14 491.92 96.6863 492.683 Q94.2558 493.447 91.478 494.998 L91.478 490.276 Q94.3021 489.142 96.7558 488.563 Q99.2095 487.984 101.246 487.984 Q106.617 487.984 109.811 490.67 Q113.006 493.355 113.006 497.845 Q113.006 499.975 112.196 501.896 Q111.408 503.794 109.302 506.387 Q108.723 507.058 105.621 510.276 Q102.52 513.47 96.8715 519.234 Z" fill="#000000" fill-rule="nonzero" fill-opacity="1" /><path clip-path="url(#clip910)" d="M103.608 263.361 L91.8021 281.81 L103.608 281.81 L103.608 263.361 M102.381 259.287 L108.26 259.287 L108.26 281.81 L113.191 281.81 L113.191 285.699 L108.26 285.699 L108.26 293.847 L103.608 293.847 L103.608 285.699 L88.0058 285.699 L88.0058 281.185 L102.381 259.287 Z" fill="#000000" fill-rule="nonzero" fill-opacity="1" /><path clip-path="url(#clip910)" d="M101.663 45.3807 Q98.515 45.3807 96.6632 47.5334 Q94.8345 49.6862 94.8345 53.4362 Q94.8345 57.163 96.6632 59.3389 Q98.515 61.4917 101.663 61.4917 Q104.811 61.4917 106.64 59.3389 Q108.492 57.163 108.492 53.4362 Q108.492 49.6862 106.64 47.5334 Q104.811 45.3807 101.663 45.3807 M110.946 30.728 L110.946 34.9872 Q109.186 34.1539 107.381 33.7141 Q105.598 33.2743 103.839 33.2743 Q99.2095 33.2743 96.7558 36.3992 Q94.3252 39.5242 93.978 45.8436 Q95.3437 43.8298 97.4039 42.765 Q99.4641 41.677 101.941 41.677 Q107.149 41.677 110.158 44.8483 Q113.191 47.9964 113.191 53.4362 Q113.191 58.7602 110.043 61.9778 Q106.895 65.1954 101.663 65.1954 Q95.6678 65.1954 92.4965 60.6121 Q89.3253 56.0056 89.3253 47.2788 Q89.3253 39.0844 93.2141 34.2233 Q97.103 29.3391 103.654 29.3391 Q105.413 29.3391 107.196 29.6863 Q109.001 30.0335 110.946 30.728 Z" fill="#000000" fill-rule="nonzero" fill-opacity="1" /><polyline clip-path="url(#clip912)" style="stroke:#009af9; stroke-linecap:round; stroke-linejoin:round; stroke-width:12; stroke-opacity:1; fill:none" points="149.191,1193.86 151.945,1193.7 154.7,1193.23 157.454,1192.48 160.209,1191.48 162.963,1190.24 165.718,1188.79 168.472,1187.14 171.227,1185.33 173.981,1183.37 176.735,1181.27 179.49,1179.05 182.244,1176.72 184.999,1174.31 187.753,1171.82 190.508,1169.26 193.262,1166.65 196.017,1163.99 198.771,1161.29 201.526,1158.55 204.28,1155.79 207.034,1153.01 209.789,1150.2 212.543,1147.39 215.298,1144.56 218.052,1141.73 220.807,1138.88 223.561,1136.04 226.316,1133.19 229.07,1130.34 231.825,1127.49 234.579,1124.63 237.333,1121.78 240.088,1118.92 242.842,1116.07 245.597,1113.21 248.351,1110.36 251.106,1107.51 253.86,1104.65 256.615,1101.8 259.369,1098.94 262.124,1096.09 264.878,1093.23 267.632,1090.38 270.387,1087.53 273.141,1084.67 275.896,1081.82 278.65,1078.97 281.405,1076.12 284.159,1073.28 286.914,1070.43 289.668,1067.59 292.423,1064.75 295.177,1061.92 297.932,1059.09 300.686,1056.26 303.44,1053.44 306.195,1050.63 308.949,1047.82 311.704,1045.01 314.458,1042.21 317.213,1039.42 319.967,1036.64 322.722,1033.86 325.476,1031.09 328.231,1028.33 330.985,1025.58 333.739,1022.84 336.494,1020.1 339.248,1017.38 342.003,1014.66 344.757,1011.95 347.512,1009.25 350.266,1006.56 353.021,1003.88 355.775,1001.21 358.53,998.556 361.284,995.906 364.038,993.267 366.793,990.639 369.547,988.02 372.302,985.412 375.056,982.814 377.811,980.226 380.565,977.649 383.32,975.082 386.074,972.525 388.829,969.978 391.583,967.442 394.337,964.916 397.092,962.4 399.846,959.894 402.601,957.399 405.355,954.913 408.11,952.438 410.864,949.972 413.619,947.516 416.373,945.071 419.128,942.635 421.882,940.208 424.636,937.792 427.391,935.385 430.145,932.987 432.9,930.599 435.654,928.219 438.409,925.85 441.163,923.489 443.918,921.137 446.672,918.794 449.427,916.46 452.181,914.135 454.936,911.818 457.69,909.51 460.444,907.211 463.199,904.92 465.953,902.637 468.708,900.363 471.462,898.097 474.217,895.839 476.971,893.589 479.726,891.346 482.48,889.112 485.235,886.886 487.989,884.667 490.743,882.456 493.498,880.253 496.252,878.057 499.007,875.868 501.761,873.687 504.516,871.513 507.27,869.347 510.025,867.187 512.779,865.035 515.534,862.89 518.288,860.751 521.042,858.62 523.797,856.495 526.551,854.377 529.306,852.266 532.06,850.161 534.815,848.063 537.569,845.972 540.324,843.887 543.078,841.808 545.833,839.736 548.587,837.67 551.341,835.61 554.096,833.556 556.85,831.509 559.605,829.468 562.359,827.432 565.114,825.403 567.868,823.38 570.623,821.363 573.377,819.352 576.132,817.346 578.886,815.346 581.641,813.352 584.395,811.364 587.149,809.382 589.904,807.405 592.658,805.434 595.413,803.468 598.167,801.508 600.922,799.553 603.676,797.604 606.431,795.66 609.185,793.722 611.94,791.789 614.694,789.861 617.448,787.939 620.203,786.021 622.957,784.11 625.712,782.203 628.466,780.302 631.221,778.405 633.975,776.514 636.73,774.628 639.484,772.747 642.239,770.871 644.993,769 647.747,767.134 650.502,765.273 653.256,763.418 656.011,761.567 658.765,759.721 661.52,757.88 664.274,756.043 667.029,754.212 669.783,752.385 672.538,750.564 675.292,748.747 678.046,746.935 680.801,745.127 683.555,743.325 686.31,741.527 689.064,739.734 691.819,737.945 694.573,736.161 697.328,734.382 700.082,732.608 702.837,730.838 705.591,729.073 708.345,727.312 711.1,725.557 713.854,723.805 716.609,722.058 719.363,720.316 722.118,718.578 724.872,716.845 727.627,715.117 730.381,713.393 733.136,711.673 735.89,709.958 738.645,708.247 741.399,706.541 744.153,704.839 746.908,703.142 749.662,701.449 752.417,699.761 755.171,698.076 757.926,696.397 760.68,694.722 763.435,693.051 766.189,691.384 768.944,689.722 771.698,688.064 774.452,686.411 777.207,684.761 779.961,683.117 782.716,681.476 785.47,679.84 788.225,678.208 790.979,676.58 793.734,674.957 796.488,673.338 799.243,671.723 801.997,670.113 804.751,668.506 807.506,666.904 810.26,665.307 813.015,663.713 815.769,662.124 818.524,660.539 821.278,658.958 824.033,657.382 826.787,655.809 829.542,654.241 832.296,652.677 835.05,651.118 837.805,649.562 840.559,648.011 843.314,646.464 846.068,644.921 848.823,643.382 851.577,641.848 854.332,640.317 857.086,638.791 859.841,637.269 862.595,635.751 865.349,634.237 868.104,632.728 870.858,631.222 873.613,629.721 876.367,628.224 879.122,626.731 881.876,625.242 884.631,623.757 887.385,622.276 890.14,620.8 892.894,619.327 895.649,617.859 898.403,616.395 901.157,614.935 903.912,613.479 906.666,612.027 909.421,610.58 912.175,609.136 914.93,607.696 917.684,606.261 920.439,604.83 923.193,603.402 925.948,601.979 928.702,600.56 931.456,599.145 934.211,597.734 936.965,596.327 939.72,594.925 942.474,593.526 945.229,592.131 947.983,590.741 950.738,589.354 953.492,587.972 956.247,586.593 959.001,585.219 961.755,583.849 964.51,582.483 967.264,581.121 970.019,579.762 972.773,578.408 975.528,577.059 978.282,575.713 981.037,574.371 983.791,573.033 986.546,571.699 989.3,570.37 992.054,569.044 994.809,567.722 997.563,566.405 1000.32,565.091 1003.07,563.782 1005.83,562.476 1008.58,561.175 1011.34,559.877 1014.09,558.584 1016.84,557.295 1019.6,556.009 1022.35,554.728 1025.11,553.451 1027.86,552.178 1030.62,550.909 1033.37,549.643 1036.13,548.382 1038.88,547.126 1041.63,545.873 1044.39,544.623 1047.14,543.378 1049.9,542.137 1052.65,540.9 1055.41,539.668 1058.16,538.439 1060.92,537.214 1063.67,535.993 1066.42,534.776 1069.18,533.564 1071.93,532.355 1074.69,531.15 1077.44,529.95 1080.2,528.753 1082.95,527.56 1085.71,526.372 1088.46,525.187 1091.21,524.006 1093.97,522.83 1096.72,521.657 1099.48,520.489 1102.23,519.324 1104.99,518.164 1107.74,517.008 1110.5,515.855 1113.25,514.707 1116.01,513.562 1118.76,512.422 1121.51,511.286 1124.27,510.153 1127.02,509.025 1129.78,507.901 1132.53,506.781 1135.29,505.664 1138.04,504.552 1140.8,503.444 1143.55,502.34 1146.3,501.24 1149.06,500.143 1151.81,499.051 1154.57,497.963 1157.32,496.879 1160.08,495.799 1162.83,494.723 1165.59,493.651 1168.34,492.583 1171.09,491.519 1173.85,490.459 1176.6,489.403 1179.36,488.351 1182.11,487.303 1184.87,486.26 1187.62,485.22 1190.38,484.184 1193.13,483.152 1195.88,482.124 1198.64,481.101 1201.39,480.081 1204.15,479.065 1206.9,478.054 1209.66,477.046 1212.41,476.042 1215.17,475.043 1217.92,474.047 1220.67,473.055 1223.43,472.068 1226.18,471.084 1228.94,470.105 1231.69,469.129 1234.45,468.158 1237.2,467.191 1239.96,466.227 1242.71,465.268 1245.46,464.312 1248.22,463.361 1250.97,462.414 1253.73,461.471 1256.48,460.531 1259.24,459.596 1261.99,458.665 1264.75,457.738 1267.5,456.815 1270.25,455.896 1273.01,454.981 1275.76,454.07 1278.52,453.163 1281.27,452.26 1284.03,451.361 1286.78,450.466 1289.54,449.575 1292.29,448.689 1295.04,447.806 1297.8,446.927 1300.55,446.053 1303.31,445.182 1306.06,444.315 1308.82,443.452 1311.57,442.594 1314.33,441.74 1317.08,440.89 1319.83,440.043 1322.59,439.201 1325.34,438.362 1328.1,437.528 1330.85,436.698 1333.61,435.872 1336.36,435.05 1339.12,434.232 1341.87,433.418 1344.62,432.607 1347.38,431.802 1350.13,431 1352.89,430.202 1355.64,429.408 1358.4,428.618 1361.15,427.833 1363.91,427.051 1366.66,426.274 1369.41,425.5 1372.17,424.731 1374.92,423.965 1377.68,423.204 1380.43,422.447 1383.19,421.694 1385.94,420.944 1388.7,420.199 1391.45,419.458 1394.21,418.721 1396.96,417.988 1399.71,417.26 1402.47,416.535 1405.22,415.814 1407.98,415.097 1410.73,414.385 1413.49,413.676 1416.24,412.972 1419,412.272 1421.75,411.575 1424.5,410.883 1427.26,410.195 1430.01,409.511 1432.77,408.831 1435.52,408.155 1438.28,407.483 1441.03,406.815 1443.79,406.151 1446.54,405.492 1449.29,404.836 1452.05,404.185 1454.8,403.537 1457.56,402.894 1460.31,402.255 1463.07,401.619 1465.82,400.988 1468.58,400.361 1471.33,399.738 1474.08,399.119 1476.84,398.505 1479.59,397.894 1482.35,397.287 1485.1,396.685 1487.86,396.087 1490.61,395.492 1493.37,394.902 1496.12,394.316 1498.87,393.734 1501.63,393.156 1504.38,392.582 1507.14,392.012 1509.89,391.446 1512.65,390.885 1515.4,390.327 1518.16,389.774 1520.91,389.225 1523.66,388.68 1526.42,388.138 1529.17,387.601 1531.93,387.069 1534.68,386.54 1537.44,386.015 1540.19,385.495 1542.95,384.978 1545.7,384.466 1548.45,383.958 1551.21,383.453 1553.96,382.953 1556.72,382.457 1559.47,381.966 1562.23,381.478 1564.98,380.994 1567.74,380.515 1570.49,380.04 1573.24,379.568 1576,379.101 1578.75,378.638 1581.51,378.179 1584.26,377.725 1587.02,377.274 1589.77,376.827 1592.53,376.385 1595.28,375.947 1598.03,375.513 1600.79,375.083 1603.54,374.657 1606.3,374.235 1609.05,373.817 1611.81,373.404 1614.56,372.994 1617.32,372.589 1620.07,372.188 1622.82,371.791 1625.58,371.398 1628.33,371.009 1631.09,370.625 1633.84,370.244 1636.6,369.868 1639.35,369.496 1642.11,369.128 1644.86,368.764 1647.62,368.404 1650.37,368.049 1653.12,367.697 1655.88,367.35 1658.63,367.007 1661.39,366.668 1664.14,366.333 1666.9,366.002 1669.65,365.675 1672.41,365.353 1675.16,365.035 1677.91,364.721 1680.67,364.411 1683.42,364.105 1686.18,363.803 1688.93,363.506 1691.69,363.212 1694.44,362.923 1697.2,362.638 1699.95,362.357 1702.7,362.08 1705.46,361.808 1708.21,361.539 1710.97,361.275 1713.72,361.015 1716.48,360.759 1719.23,360.508 1721.99,360.26 1724.74,360.017 1727.49,359.777 1730.25,359.542 1733,359.312 1735.76,359.085 1738.51,358.862 1741.27,358.644 1744.02,358.43 1746.78,358.22 1749.53,358.014 1752.28,357.812 1755.04,357.615 1757.79,357.422 1760.55,357.233 1763.3,357.048 1766.06,356.867 1768.81,356.691 1771.57,356.518 1774.32,356.35 1777.07,356.186 1779.83,356.026 1782.58,355.871 1785.34,355.719 1788.09,355.572 1790.85,355.429 1793.6,355.291 1796.36,355.156 1799.11,355.026 1801.86,354.899 1804.62,354.777 1807.37,354.66 1810.13,354.546 1812.88,354.437 1815.64,354.331 1818.39,354.23 1821.15,354.134 1823.9,354.041 1826.65,353.953 1829.41,353.869 1832.16,353.789 1834.92,353.713 1837.67,353.641 1840.43,353.574 1843.18,353.511 1845.94,353.452 1848.69,353.398 1851.44,353.347 1854.2,353.301 1856.95,353.259 1859.71,353.221 1862.46,353.188 1865.22,353.158 1867.97,353.133 1870.73,353.112 1873.48,353.096 1876.23,353.083 1878.99,353.075 1881.74,353.071 1884.5,353.072 1887.25,353.076 1890.01,353.085 1892.76,353.098 1895.52,353.115 1898.27,353.136 1901.03,353.162 1903.78,353.192 1906.53,353.226 1909.29,353.265 1912.04,353.307 1914.8,353.354 1917.55,353.405 1920.31,353.461 1923.06,353.52 1925.82,353.584 1928.57,353.652 1931.32,353.725 1934.08,353.802 1936.83,353.882 1939.59,353.968 1942.34,354.057 1945.1,354.151 1947.85,354.249 1950.61,354.351 1953.36,354.457 1956.11,354.568 1958.87,354.683 1961.62,354.802 1964.38,354.926 1967.13,355.053 1969.89,355.185 1972.64,355.322 1975.4,355.462 1978.15,355.607 1980.9,355.756 1983.66,355.909 1986.41,356.067 1989.17,356.229 1991.92,356.395 1994.68,356.565 1997.43,356.74 2000.19,356.919 2002.94,357.102 2005.69,357.29 2008.45,357.482 2011.2,357.678 2013.96,357.878 2016.71,358.083 2019.47,358.292 2022.22,358.505 2024.98,358.723 2027.73,358.945 2030.48,359.171 2033.24,359.401 2035.99,359.636 2038.75,359.875 2041.5,360.118 2044.26,360.366 2047.01,360.618 2049.77,360.874 2052.52,361.135 2055.27,361.399 2058.03,361.668 2060.78,361.942 2063.54,362.22 2066.29,362.501 2069.05,362.788 2071.8,363.079 2074.56,363.373 2077.31,363.673 2080.06,363.976 2082.82,364.284 2085.57,364.596 2088.33,364.913 2091.08,365.234 2093.84,365.559 2096.59,365.888 2099.35,366.222 2102.1,366.56 2104.85,366.902 2107.61,367.249 2110.36,367.6 2113.12,367.955 2115.87,368.315 2118.63,368.679 2121.38,369.047 2124.14,369.42 2126.89,369.797 2129.64,370.178 2132.4,370.564 2135.15,370.954 2137.91,371.348 2140.66,371.747 2143.42,372.15 2146.17,372.557 2148.93,372.969 2151.68,373.385 2154.44,373.805 2157.19,374.23 2159.94,374.659 2162.7,375.092 2165.45,375.53 2168.21,375.972 2170.96,376.419 2173.72,376.869 2176.47,377.325 2179.23,377.784 2181.98,378.248 2184.73,378.716 2187.49,379.189 2190.24,379.665 2193,380.147 2195.75,380.632 2198.51,381.122 2201.26,381.616 2204.02,382.115 2206.77,382.618 2209.52,383.126 2212.28,383.637 2215.03,384.154 2217.79,384.674 2220.54,385.199 2223.3,385.728 2226.05,386.262 2228.81,386.8 2231.56,387.342 2234.31,387.889 2237.07,388.44 2239.82,388.995 2242.58,389.555 2245.33,390.119 2248.09,390.688 2250.84,391.261 2253.6,391.838 2256.35,392.42 2259.1,393.006 2261.86,393.597 2264.61,394.191 2267.37,394.791 2270.12,395.394 2272.88,396.003 2275.63,396.615 2278.39,397.232 2281.14,397.853 2283.89,398.479 2286.65,399.108 2289.4,399.743 2292.16,400.381 2294.91,401.025 2297.67,401.672 2300.42,402.325 2303.18,402.981 2305.93,403.642 2308.68,404.307 2311.44,404.976 2314.19,405.651 2316.95,406.33 2319.7,407.012 2322.46,407.699 2325.21,408.391 2327.97,409.087 2330.72,409.788 2333.47,410.493 2336.23,411.202 2338.98,411.916 2341.74,412.634 2344.49,413.356 2347.25,414.083 2350,414.815 2352.76,415.551 "/>
<polyline clip-path="url(#clip912)" style="stroke:#e26f46; stroke-linecap:round; stroke-linejoin:round; stroke-width:12; stroke-opacity:1; fill:none" points="149.191,735.212 151.945,703.406 154.7,674.082 157.454,647.181 160.209,622.63 162.963,600.34 165.718,580.212 168.472,562.136 171.227,545.993 173.981,531.661 176.735,519.011 179.49,507.913 182.244,498.24 184.999,489.865 187.753,482.662 190.508,476.513 193.262,471.304 196.017,466.926 198.771,463.28 201.526,460.273 204.28,457.818 207.034,455.838 209.789,454.26 212.543,453.022 215.298,452.069 218.052,451.35 220.807,450.821 223.561,450.441 226.316,450.178 229.07,450.001 231.825,449.887 234.579,449.818 237.333,449.781 240.088,449.762 242.842,449.754 245.597,449.752 248.351,449.752 251.106,449.754 253.86,449.757 256.615,449.762 259.369,449.77 262.124,449.785 264.878,449.813 267.632,449.857 270.387,449.923 273.141,450.013 275.896,450.131 278.65,450.281 281.405,450.465 284.159,450.685 286.914,450.944 289.668,451.243 292.423,451.583 295.177,451.965 297.932,452.388 300.686,452.853 303.44,453.359 306.195,453.904 308.949,454.489 311.704,455.111 314.458,455.77 317.213,456.463 319.967,457.188 322.722,457.945 325.476,458.73 328.231,459.542 330.985,460.38 333.739,461.242 336.494,462.126 339.248,463.03 342.003,463.953 344.757,464.893 347.512,465.848 350.266,466.817 353.021,467.799 355.775,468.791 358.53,469.793 361.284,470.803 364.038,471.819 366.793,472.84 369.547,473.865 372.302,474.893 375.056,475.923 377.811,476.955 380.565,477.987 383.32,479.018 386.074,480.049 388.829,481.077 391.583,482.103 394.337,483.125 397.092,484.144 399.846,485.158 402.601,486.168 405.355,487.171 408.11,488.169 410.864,489.161 413.619,490.146 416.373,491.124 419.128,492.095 421.882,493.058 424.636,494.013 427.391,494.961 430.145,495.901 432.9,496.832 435.654,497.756 438.409,498.671 441.163,499.579 443.918,500.477 446.672,501.368 449.427,502.249 452.181,503.123 454.936,503.988 457.69,504.844 460.444,505.693 463.199,506.533 465.953,507.365 468.708,508.188 471.462,509.004 474.217,509.812 476.971,510.612 479.726,511.403 482.48,512.188 485.235,512.964 487.989,513.733 490.743,514.494 493.498,515.248 496.252,515.994 499.007,516.733 501.761,517.465 504.516,518.19 507.27,518.908 510.025,519.619 512.779,520.324 515.534,521.022 518.288,521.713 521.042,522.398 523.797,523.077 526.551,523.75 529.306,524.417 532.06,525.078 534.815,525.733 537.569,526.383 540.324,527.028 543.078,527.667 545.833,528.3 548.587,528.929 551.341,529.552 554.096,530.17 556.85,530.784 559.605,531.393 562.359,531.997 565.114,532.596 567.868,533.191 570.623,533.782 573.377,534.368 576.132,534.95 578.886,535.528 581.641,536.102 584.395,536.672 587.149,537.239 589.904,537.801 592.658,538.36 595.413,538.915 598.167,539.467 600.922,540.015 603.676,540.56 606.431,541.102 609.185,541.64 611.94,542.175 614.694,542.707 617.448,543.237 620.203,543.763 622.957,544.286 625.712,544.807 628.466,545.325 631.221,545.84 633.975,546.352 636.73,546.862 639.484,547.37 642.239,547.875 644.993,548.377 647.747,548.878 650.502,549.376 653.256,549.872 656.011,550.365 658.765,550.857 661.52,551.346 664.274,551.833 667.029,552.319 669.783,552.802 672.538,553.284 675.292,553.763 678.046,554.241 680.801,554.717 683.555,555.191 686.31,555.664 689.064,556.135 691.819,556.604 694.573,557.072 697.328,557.538 700.082,558.003 702.837,558.466 705.591,558.928 708.345,559.388 711.1,559.847 713.854,560.304 716.609,560.76 719.363,561.215 722.118,561.669 724.872,562.121 727.627,562.572 730.381,563.022 733.136,563.471 735.89,563.918 738.645,564.365 741.399,564.81 744.153,565.255 746.908,565.698 749.662,566.14 752.417,566.581 755.171,567.022 757.926,567.461 760.68,567.899 763.435,568.337 766.189,568.774 768.944,569.209 771.698,569.644 774.452,570.078 777.207,570.512 779.961,570.944 782.716,571.376 785.47,571.807 788.225,572.237 790.979,572.667 793.734,573.096 796.488,573.524 799.243,573.952 801.997,574.379 804.751,574.805 807.506,575.23 810.26,575.655 813.015,576.08 815.769,576.504 818.524,576.927 821.278,577.35 824.033,577.772 826.787,578.193 829.542,578.615 832.296,579.035 835.05,579.455 837.805,579.875 840.559,580.294 843.314,580.712 846.068,581.13 848.823,581.548 851.577,581.965 854.332,582.382 857.086,582.799 859.841,583.215 862.595,583.63 865.349,584.046 868.104,584.46 870.858,584.875 873.613,585.289 876.367,585.703 879.122,586.116 881.876,586.529 884.631,586.942 887.385,587.354 890.14,587.766 892.894,588.178 895.649,588.59 898.403,589.001 901.157,589.412 903.912,589.822 906.666,590.233 909.421,590.643 912.175,591.052 914.93,591.462 917.684,591.871 920.439,592.28 923.193,592.689 925.948,593.098 928.702,593.506 931.456,593.914 934.211,594.322 936.965,594.73 939.72,595.137 942.474,595.544 945.229,595.952 947.983,596.358 950.738,596.765 953.492,597.172 956.247,597.578 959.001,597.984 961.755,598.39 964.51,598.796 967.264,599.202 970.019,599.608 972.773,600.013 975.528,600.418 978.282,600.823 981.037,601.229 983.791,601.633 986.546,602.038 989.3,602.443 992.054,602.847 994.809,603.252 997.563,603.656 1000.32,604.06 1003.07,604.465 1005.83,604.869 1008.58,605.272 1011.34,605.676 1014.09,606.08 1016.84,606.484 1019.6,606.887 1022.35,607.291 1025.11,607.694 1027.86,608.097 1030.62,608.5 1033.37,608.904 1036.13,609.307 1038.88,609.71 1041.63,610.113 1044.39,610.516 1047.14,610.918 1049.9,611.321 1052.65,611.724 1055.41,612.126 1058.16,612.529 1060.92,612.932 1063.67,613.334 1066.42,613.737 1069.18,614.139 1071.93,614.541 1074.69,614.944 1077.44,615.346 1080.2,615.748 1082.95,616.15 1085.71,616.553 1088.46,616.955 1091.21,617.357 1093.97,617.759 1096.72,618.161 1099.48,618.563 1102.23,618.965 1104.99,619.367 1107.74,619.769 1110.5,620.171 1113.25,620.573 1116.01,620.975 1118.76,621.377 1121.51,621.779 1124.27,622.181 1127.02,622.583 1129.78,622.985 1132.53,623.387 1135.29,623.789 1138.04,624.191 1140.8,624.593 1143.55,624.995 1146.3,625.397 1149.06,625.799 1151.81,626.201 1154.57,626.603 1157.32,627.005 1160.08,627.407 1162.83,627.809 1165.59,628.211 1168.34,628.613 1171.09,629.015 1173.85,629.417 1176.6,629.819 1179.36,630.221 1182.11,630.623 1184.87,631.025 1187.62,631.427 1190.38,631.83 1193.13,632.232 1195.88,632.634 1198.64,633.036 1201.39,633.439 1204.15,633.841 1206.9,634.243 1209.66,634.646 1212.41,635.048 1215.17,635.451 1217.92,635.853 1220.67,636.256 1223.43,636.658 1226.18,637.061 1228.94,637.463 1231.69,637.866 1234.45,638.269 1237.2,638.672 1239.96,639.074 1242.71,639.477 1245.46,639.88 1248.22,640.283 1250.97,640.686 1253.73,641.089 1256.48,641.492 1259.24,641.895 1261.99,642.298 1264.75,642.702 1267.5,643.105 1270.25,643.508 1273.01,643.912 1275.76,644.315 1278.52,644.718 1281.27,645.122 1284.03,645.526 1286.78,645.929 1289.54,646.333 1292.29,646.737 1295.04,647.14 1297.8,647.544 1300.55,647.948 1303.31,648.352 1306.06,648.756 1308.82,649.16 1311.57,649.564 1314.33,649.969 1317.08,650.373 1319.83,650.777 1322.59,651.182 1325.34,651.586 1328.1,651.991 1330.85,652.395 1333.61,652.8 1336.36,653.205 1339.12,653.609 1341.87,654.014 1344.62,654.419 1347.38,654.824 1350.13,655.229 1352.89,655.634 1355.64,656.039 1358.4,656.445 1361.15,656.85 1363.91,657.255 1366.66,657.661 1369.41,658.066 1372.17,658.472 1374.92,658.877 1377.68,659.283 1380.43,659.689 1383.19,660.095 1385.94,660.501 1388.7,660.907 1391.45,661.313 1394.21,661.719 1396.96,662.125 1399.71,662.532 1402.47,662.938 1405.22,663.344 1407.98,663.751 1410.73,664.157 1413.49,664.564 1416.24,664.971 1419,665.378 1421.75,665.785 1424.5,666.192 1427.26,666.599 1430.01,667.006 1432.77,667.413 1435.52,667.82 1438.28,668.228 1441.03,668.635 1443.79,669.043 1446.54,669.45 1449.29,669.858 1452.05,670.266 1454.8,670.674 1457.56,671.082 1460.31,671.49 1463.07,671.898 1465.82,672.306 1468.58,672.714 1471.33,673.123 1474.08,673.531 1476.84,673.94 1479.59,674.348 1482.35,674.757 1485.1,675.166 1487.86,675.575 1490.61,675.984 1493.37,676.393 1496.12,676.802 1498.87,677.211 1501.63,677.62 1504.38,678.03 1507.14,678.439 1509.89,678.849 1512.65,679.258 1515.4,679.668 1518.16,680.078 1520.91,680.488 1523.66,680.898 1526.42,681.308 1529.17,681.718 1531.93,682.128 1534.68,682.539 1537.44,682.949 1540.19,683.36 1542.95,683.77 1545.7,684.181 1548.45,684.592 1551.21,685.003 1553.96,685.414 1556.72,685.825 1559.47,686.236 1562.23,686.647 1564.98,687.059 1567.74,687.47 1570.49,687.882 1573.24,688.293 1576,688.705 1578.75,689.117 1581.51,689.529 1584.26,689.941 1587.02,690.353 1589.77,690.765 1592.53,691.177 1595.28,691.59 1598.03,692.002 1600.79,692.415 1603.54,692.828 1606.3,693.24 1609.05,693.653 1611.81,694.066 1614.56,694.479 1617.32,694.892 1620.07,695.306 1622.82,695.719 1625.58,696.132 1628.33,696.546 1631.09,696.96 1633.84,697.374 1636.6,697.787 1639.35,698.201 1642.11,698.615 1644.86,699.029 1647.62,699.444 1650.37,699.858 1653.12,700.272 1655.88,700.687 1658.63,701.102 1661.39,701.516 1664.14,701.931 1666.9,702.346 1669.65,702.761 1672.41,703.176 1675.16,703.591 1677.91,704.007 1680.67,704.422 1683.42,704.838 1686.18,705.253 1688.93,705.669 1691.69,706.085 1694.44,706.501 1697.2,706.917 1699.95,707.333 1702.7,707.749 1705.46,708.166 1708.21,708.582 1710.97,708.999 1713.72,709.415 1716.48,709.832 1719.23,710.249 1721.99,710.666 1724.74,711.083 1727.49,711.5 1730.25,711.917 1733,712.335 1735.76,712.752 1738.51,713.17 1741.27,713.588 1744.02,714.006 1746.78,714.423 1749.53,714.841 1752.28,715.259 1755.04,715.677 1757.79,716.096 1760.55,716.514 1763.3,716.933 1766.06,717.351 1768.81,717.77 1771.57,718.189 1774.32,718.608 1777.07,719.027 1779.83,719.446 1782.58,719.865 1785.34,720.285 1788.09,720.704 1790.85,721.124 1793.6,721.543 1796.36,721.963 1799.11,722.383 1801.86,722.803 1804.62,723.223 1807.37,723.643 1810.13,724.064 1812.88,724.484 1815.64,724.905 1818.39,725.325 1821.15,725.746 1823.9,726.167 1826.65,726.588 1829.41,727.009 1832.16,727.43 1834.92,727.851 1837.67,728.273 1840.43,728.694 1843.18,729.116 1845.94,729.537 1848.69,729.959 1851.44,730.381 1854.2,730.803 1856.95,731.225 1859.71,731.647 1862.46,732.07 1865.22,732.492 1867.97,732.915 1870.73,733.337 1873.48,733.76 1876.23,734.183 1878.99,734.606 1881.74,735.029 1884.5,735.452 1887.25,735.876 1890.01,736.299 1892.76,736.723 1895.52,737.146 1898.27,737.57 1901.03,737.994 1903.78,738.418 1906.53,738.842 1909.29,739.266 1912.04,739.69 1914.8,740.115 1917.55,740.539 1920.31,740.964 1923.06,741.389 1925.82,741.814 1928.57,742.239 1931.32,742.664 1934.08,743.089 1936.83,743.514 1939.59,743.939 1942.34,744.365 1945.1,744.791 1947.85,745.216 1950.61,745.642 1953.36,746.068 1956.11,746.494 1958.87,746.92 1961.62,747.347 1964.38,747.773 1967.13,748.199 1969.89,748.626 1972.64,749.053 1975.4,749.48 1978.15,749.907 1980.9,750.334 1983.66,750.761 1986.41,751.188 1989.17,751.615 1991.92,752.043 1994.68,752.471 1997.43,752.898 2000.19,753.326 2002.94,753.754 2005.69,754.182 2008.45,754.61 2011.2,755.039 2013.96,755.467 2016.71,755.895 2019.47,756.324 2022.22,756.753 2024.98,757.182 2027.73,757.611 2030.48,758.04 2033.24,758.469 2035.99,758.898 2038.75,759.327 2041.5,759.757 2044.26,760.187 2047.01,760.616 2049.77,761.046 2052.52,761.476 2055.27,761.906 2058.03,762.336 2060.78,762.767 2063.54,763.197 2066.29,763.627 2069.05,764.058 2071.8,764.489 2074.56,764.92 2077.31,765.351 2080.06,765.782 2082.82,766.213 2085.57,766.644 2088.33,767.076 2091.08,767.507 2093.84,767.939 2096.59,768.371 2099.35,768.802 2102.1,769.234 2104.85,769.666 2107.61,770.099 2110.36,770.531 2113.12,770.963 2115.87,771.396 2118.63,771.829 2121.38,772.261 2124.14,772.694 2126.89,773.127 2129.64,773.56 2132.4,773.993 2135.15,774.427 2137.91,774.86 2140.66,775.294 2143.42,775.728 2146.17,776.161 2148.93,776.595 2151.68,777.029 2154.44,777.463 2157.19,777.898 2159.94,778.332 2162.7,778.766 2165.45,779.201 2168.21,779.636 2170.96,780.07 2173.72,780.505 2176.47,780.94 2179.23,781.375 2181.98,781.811 2184.73,782.246 2187.49,782.682 2190.24,783.117 2193,783.553 2195.75,783.989 2198.51,784.425 2201.26,784.861 2204.02,785.297 2206.77,785.733 2209.52,786.17 2212.28,786.606 2215.03,787.043 2217.79,787.479 2220.54,787.916 2223.3,788.353 2226.05,788.79 2228.81,789.228 2231.56,789.665 2234.31,790.102 2237.07,790.54 2239.82,790.977 2242.58,791.415 2245.33,791.853 2248.09,792.291 2250.84,792.729 2253.6,793.167 2256.35,793.606 2259.1,794.044 2261.86,794.483 2264.61,794.921 2267.37,795.36 2270.12,795.799 2272.88,796.238 2275.63,796.677 2278.39,797.116 2281.14,797.556 2283.89,797.995 2286.65,798.434 2289.4,798.874 2292.16,799.314 2294.91,799.754 2297.67,800.194 2300.42,800.635 2303.18,801.074 2305.93,801.515 2308.68,801.955 2311.44,802.396 2314.19,802.837 2316.95,803.278 2319.7,803.719 2322.46,804.16 2325.21,804.601 2327.97,805.042 2330.72,805.483 2333.47,805.925 2336.23,806.367 2338.98,806.808 2341.74,807.25 2344.49,807.692 2347.25,808.134 2350,808.576 2352.76,809.019 "/>
<polyline clip-path="url(#clip912)" style="stroke:#3da44d; stroke-linecap:round; stroke-linejoin:round; stroke-width:12; stroke-opacity:1; fill:none" points="149.191,383.609 151.945,392.722 154.7,402.153 157.454,411.872 160.209,421.851 162.963,432.058 165.718,442.463 168.472,453.036 171.227,463.744 173.981,474.556 176.735,485.441 179.49,496.37 182.244,507.314 184.999,518.244 187.753,529.136 190.508,539.969 193.262,550.721 196.017,561.377 198.771,571.922 201.526,582.344 204.28,592.634 207.034,602.783 209.789,612.785 212.543,622.632 215.298,632.319 218.052,641.839 220.807,651.185 223.561,660.353 226.316,669.334 229.07,678.121 231.825,686.709 234.579,695.088 237.333,703.253 240.088,711.194 242.842,718.904 245.597,726.376 248.351,733.602 251.106,740.575 253.86,747.287 256.615,753.734 259.369,759.911 262.124,765.813 264.878,771.44 267.632,776.791 270.387,781.867 273.141,786.671 275.896,791.207 278.65,795.482 281.405,799.502 284.159,803.277 286.914,806.814 289.668,810.123 292.423,813.215 295.177,816.099 297.932,818.786 300.686,821.285 303.44,823.607 306.195,825.761 308.949,827.757 311.704,829.604 314.458,831.31 317.213,832.883 319.967,834.332 322.722,835.663 325.476,836.884 328.231,838.001 330.985,839.02 333.739,839.947 336.494,840.787 339.248,841.547 342.003,842.23 344.757,842.841 347.512,843.385 350.266,843.865 353.021,844.286 355.775,844.651 358.53,844.964 361.284,845.227 364.038,845.444 366.793,845.617 369.547,845.75 372.302,845.845 375.056,845.904 377.811,845.93 380.565,845.924 383.32,845.889 386.074,845.828 388.829,845.74 391.583,845.629 394.337,845.497 397.092,845.343 399.846,845.171 402.601,844.981 405.355,844.775 408.11,844.554 410.864,844.319 413.619,844.071 416.373,843.812 419.128,843.542 421.882,843.263 424.636,842.974 427.391,842.678 430.145,842.375 432.9,842.065 435.654,841.75 438.409,841.429 441.163,841.105 443.918,840.776 446.672,840.445 449.427,840.111 452.181,839.774 454.936,839.436 457.69,839.097 460.444,838.757 463.199,838.417 465.953,838.076 468.708,837.736 471.462,837.397 474.217,837.058 476.971,836.721 479.726,836.385 482.48,836.05 485.235,835.718 487.989,835.388 490.743,835.06 493.498,834.734 496.252,834.412 499.007,834.092 501.761,833.775 504.516,833.461 507.27,833.15 510.025,832.843 512.779,832.539 515.534,832.238 518.288,831.941 521.042,831.647 523.797,831.357 526.551,831.071 529.306,830.789 532.06,830.51 534.815,830.235 537.569,829.965 540.324,829.697 543.078,829.434 545.833,829.175 548.587,828.919 551.341,828.668 554.096,828.42 556.85,828.176 559.605,827.936 562.359,827.7 565.114,827.468 567.868,827.239 570.623,827.015 573.377,826.793 576.132,826.576 578.886,826.363 581.641,826.153 584.395,825.946 587.149,825.744 589.904,825.545 592.658,825.349 595.413,825.157 598.167,824.968 600.922,824.783 603.676,824.601 606.431,824.422 609.185,824.247 611.94,824.075 614.694,823.906 617.448,823.74 620.203,823.578 622.957,823.418 625.712,823.261 628.466,823.108 631.221,822.957 633.975,822.809 636.73,822.664 639.484,822.522 642.239,822.382 644.993,822.246 647.747,822.111 650.502,821.98 653.256,821.851 656.011,821.725 658.765,821.601 661.52,821.479 664.274,821.36 667.029,821.243 669.783,821.129 672.538,821.017 675.292,820.907 678.046,820.799 680.801,820.694 683.555,820.59 686.31,820.489 689.064,820.389 691.819,820.292 694.573,820.197 697.328,820.103 700.082,820.012 702.837,819.922 705.591,819.834 708.345,819.748 711.1,819.664 713.854,819.581 716.609,819.5 719.363,819.421 722.118,819.344 724.872,819.268 727.627,819.193 730.381,819.12 733.136,819.049 735.89,818.979 738.645,818.91 741.399,818.843 744.153,818.778 746.908,818.713 749.662,818.65 752.417,818.589 755.171,818.528 757.926,818.469 760.68,818.411 763.435,818.355 766.189,818.299 768.944,818.245 771.698,818.192 774.452,818.14 777.207,818.089 779.961,818.039 782.716,817.99 785.47,817.942 788.225,817.896 790.979,817.85 793.734,817.805 796.488,817.761 799.243,817.718 801.997,817.676 804.751,817.635 807.506,817.595 810.26,817.556 813.015,817.517 815.769,817.479 818.524,817.443 821.278,817.406 824.033,817.371 826.787,817.337 829.542,817.303 832.296,817.27 835.05,817.238 837.805,817.206 840.559,817.175 843.314,817.145 846.068,817.115 848.823,817.086 851.577,817.058 854.332,817.03 857.086,817.003 859.841,816.977 862.595,816.951 865.349,816.926 868.104,816.901 870.858,816.877 873.613,816.853 876.367,816.83 879.122,816.808 881.876,816.786 884.631,816.764 887.385,816.743 890.14,816.722 892.894,816.702 895.649,816.683 898.403,816.664 901.157,816.645 903.912,816.627 906.666,816.609 909.421,816.591 912.175,816.574 914.93,816.558 917.684,816.541 920.439,816.526 923.193,816.51 925.948,816.495 928.702,816.48 931.456,816.466 934.211,816.452 936.965,816.438 939.72,816.425 942.474,816.412 945.229,816.4 947.983,816.387 950.738,816.375 953.492,816.364 956.247,816.352 959.001,816.341 961.755,816.33 964.51,816.32 967.264,816.31 970.019,816.3 972.773,816.29 975.528,816.28 978.282,816.271 981.037,816.262 983.791,816.254 986.546,816.245 989.3,816.237 992.054,816.229 994.809,816.222 997.563,816.214 1000.32,816.207 1003.07,816.2 1005.83,816.193 1008.58,816.187 1011.34,816.18 1014.09,816.174 1016.84,816.168 1019.6,816.162 1022.35,816.157 1025.11,816.151 1027.86,816.146 1030.62,816.141 1033.37,816.136 1036.13,816.132 1038.88,816.127 1041.63,816.123 1044.39,816.119 1047.14,816.115 1049.9,816.111 1052.65,816.107 1055.41,816.104 1058.16,816.1 1060.92,816.097 1063.67,816.094 1066.42,816.091 1069.18,816.088 1071.93,816.086 1074.69,816.083 1077.44,816.081 1080.2,816.079 1082.95,816.077 1085.71,816.075 1088.46,816.073 1091.21,816.071 1093.97,816.069 1096.72,816.068 1099.48,816.067 1102.23,816.065 1104.99,816.064 1107.74,816.063 1110.5,816.062 1113.25,816.062 1116.01,816.061 1118.76,816.06 1121.51,816.06 1124.27,816.06 1127.02,816.059 1129.78,816.059 1132.53,816.059 1135.29,816.059 1138.04,816.059 1140.8,816.06 1143.55,816.06 1146.3,816.06 1149.06,816.061 1151.81,816.061 1154.57,816.062 1157.32,816.063 1160.08,816.064 1162.83,816.065 1165.59,816.066 1168.34,816.067 1171.09,816.068 1173.85,816.069 1176.6,816.07 1179.36,816.072 1182.11,816.073 1184.87,816.075 1187.62,816.076 1190.38,816.078 1193.13,816.08 1195.88,816.082 1198.64,816.083 1201.39,816.085 1204.15,816.087 1206.9,816.089 1209.66,816.092 1212.41,816.094 1215.17,816.096 1217.92,816.098 1220.67,816.101 1223.43,816.103 1226.18,816.106 1228.94,816.108 1231.69,816.111 1234.45,816.114 1237.2,816.116 1239.96,816.119 1242.71,816.122 1245.46,816.125 1248.22,816.128 1250.97,816.131 1253.73,816.134 1256.48,816.137 1259.24,816.14 1261.99,816.143 1264.75,816.146 1267.5,816.15 1270.25,816.153 1273.01,816.156 1275.76,816.16 1278.52,816.163 1281.27,816.167 1284.03,816.17 1286.78,816.174 1289.54,816.178 1292.29,816.181 1295.04,816.185 1297.8,816.189 1300.55,816.193 1303.31,816.196 1306.06,816.2 1308.82,816.204 1311.57,816.208 1314.33,816.212 1317.08,816.216 1319.83,816.22 1322.59,816.224 1325.34,816.229 1328.1,816.233 1330.85,816.237 1333.61,816.241 1336.36,816.245 1339.12,816.25 1341.87,816.254 1344.62,816.259 1347.38,816.263 1350.13,816.267 1352.89,816.272 1355.64,816.276 1358.4,816.281 1361.15,816.286 1363.91,816.29 1366.66,816.295 1369.41,816.299 1372.17,816.304 1374.92,816.309 1377.68,816.314 1380.43,816.318 1383.19,816.323 1385.94,816.328 1388.7,816.333 1391.45,816.338 1394.21,816.343 1396.96,816.348 1399.71,816.353 1402.47,816.358 1405.22,816.363 1407.98,816.368 1410.73,816.373 1413.49,816.378 1416.24,816.383 1419,816.388 1421.75,816.393 1424.5,816.399 1427.26,816.404 1430.01,816.409 1432.77,816.414 1435.52,816.419 1438.28,816.425 1441.03,816.43 1443.79,816.436 1446.54,816.441 1449.29,816.446 1452.05,816.452 1454.8,816.457 1457.56,816.463 1460.31,816.468 1463.07,816.474 1465.82,816.479 1468.58,816.485 1471.33,816.49 1474.08,816.496 1476.84,816.501 1479.59,816.507 1482.35,816.513 1485.1,816.518 1487.86,816.524 1490.61,816.53 1493.37,816.535 1496.12,816.541 1498.87,816.547 1501.63,816.553 1504.38,816.558 1507.14,816.564 1509.89,816.57 1512.65,816.576 1515.4,816.582 1518.16,816.588 1520.91,816.593 1523.66,816.599 1526.42,816.605 1529.17,816.611 1531.93,816.617 1534.68,816.623 1537.44,816.629 1540.19,816.635 1542.95,816.641 1545.7,816.647 1548.45,816.653 1551.21,816.659 1553.96,816.665 1556.72,816.671 1559.47,816.677 1562.23,816.683 1564.98,816.69 1567.74,816.696 1570.49,816.702 1573.24,816.708 1576,816.714 1578.75,816.72 1581.51,816.727 1584.26,816.733 1587.02,816.739 1589.77,816.745 1592.53,816.752 1595.28,816.758 1598.03,816.764 1600.79,816.77 1603.54,816.777 1606.3,816.783 1609.05,816.789 1611.81,816.796 1614.56,816.802 1617.32,816.808 1620.07,816.815 1622.82,816.821 1625.58,816.827 1628.33,816.834 1631.09,816.84 1633.84,816.847 1636.6,816.853 1639.35,816.86 1642.11,816.866 1644.86,816.872 1647.62,816.879 1650.37,816.885 1653.12,816.892 1655.88,816.898 1658.63,816.905 1661.39,816.911 1664.14,816.918 1666.9,816.924 1669.65,816.931 1672.41,816.938 1675.16,816.944 1677.91,816.951 1680.67,816.957 1683.42,816.964 1686.18,816.971 1688.93,816.977 1691.69,816.984 1694.44,816.99 1697.2,816.997 1699.95,817.004 1702.7,817.01 1705.46,817.017 1708.21,817.024 1710.97,817.03 1713.72,817.037 1716.48,817.044 1719.23,817.05 1721.99,817.057 1724.74,817.064 1727.49,817.071 1730.25,817.077 1733,817.084 1735.76,817.091 1738.51,817.098 1741.27,817.104 1744.02,817.111 1746.78,817.118 1749.53,817.125 1752.28,817.131 1755.04,817.138 1757.79,817.145 1760.55,817.152 1763.3,817.159 1766.06,817.166 1768.81,817.172 1771.57,817.179 1774.32,817.186 1777.07,817.193 1779.83,817.2 1782.58,817.207 1785.34,817.213 1788.09,817.22 1790.85,817.227 1793.6,817.234 1796.36,817.241 1799.11,817.248 1801.86,817.255 1804.62,817.262 1807.37,817.269 1810.13,817.276 1812.88,817.282 1815.64,817.289 1818.39,817.296 1821.15,817.303 1823.9,817.31 1826.65,817.317 1829.41,817.324 1832.16,817.331 1834.92,817.338 1837.67,817.345 1840.43,817.352 1843.18,817.359 1845.94,817.366 1848.69,817.373 1851.44,817.38 1854.2,817.387 1856.95,817.394 1859.71,817.401 1862.46,817.408 1865.22,817.415 1867.97,817.422 1870.73,817.429 1873.48,817.436 1876.23,817.443 1878.99,817.45 1881.74,817.457 1884.5,817.464 1887.25,817.471 1890.01,817.478 1892.76,817.485 1895.52,817.492 1898.27,817.499 1901.03,817.506 1903.78,817.513 1906.53,817.521 1909.29,817.528 1912.04,817.535 1914.8,817.542 1917.55,817.549 1920.31,817.556 1923.06,817.563 1925.82,817.57 1928.57,817.577 1931.32,817.584 1934.08,817.591 1936.83,817.599 1939.59,817.606 1942.34,817.613 1945.1,817.62 1947.85,817.627 1950.61,817.634 1953.36,817.641 1956.11,817.648 1958.87,817.655 1961.62,817.663 1964.38,817.67 1967.13,817.677 1969.89,817.684 1972.64,817.691 1975.4,817.698 1978.15,817.705 1980.9,817.713 1983.66,817.72 1986.41,817.727 1989.17,817.734 1991.92,817.741 1994.68,817.748 1997.43,817.755 2000.19,817.763 2002.94,817.77 2005.69,817.777 2008.45,817.784 2011.2,817.791 2013.96,817.798 2016.71,817.806 2019.47,817.813 2022.22,817.82 2024.98,817.827 2027.73,817.834 2030.48,817.841 2033.24,817.849 2035.99,817.856 2038.75,817.863 2041.5,817.87 2044.26,817.877 2047.01,817.885 2049.77,817.892 2052.52,817.899 2055.27,817.906 2058.03,817.913 2060.78,817.921 2063.54,817.928 2066.29,817.935 2069.05,817.942 2071.8,817.949 2074.56,817.956 2077.31,817.964 2080.06,817.971 2082.82,817.978 2085.57,817.985 2088.33,817.992 2091.08,818 2093.84,818.007 2096.59,818.014 2099.35,818.021 2102.1,818.028 2104.85,818.036 2107.61,818.043 2110.36,818.05 2113.12,818.057 2115.87,818.065 2118.63,818.072 2121.38,818.079 2124.14,818.086 2126.89,818.093 2129.64,818.101 2132.4,818.108 2135.15,818.115 2137.91,818.122 2140.66,818.129 2143.42,818.137 2146.17,818.144 2148.93,818.151 2151.68,818.158 2154.44,818.165 2157.19,818.173 2159.94,818.18 2162.7,818.187 2165.45,818.194 2168.21,818.202 2170.96,818.209 2173.72,818.216 2176.47,818.223 2179.23,818.23 2181.98,818.238 2184.73,818.245 2187.49,818.252 2190.24,818.259 2193,818.266 2195.75,818.274 2198.51,818.281 2201.26,818.288 2204.02,818.295 2206.77,818.302 2209.52,818.31 2212.28,818.317 2215.03,818.324 2217.79,818.331 2220.54,818.338 2223.3,818.346 2226.05,818.353 2228.81,818.36 2231.56,818.367 2234.31,818.374 2237.07,818.382 2239.82,818.389 2242.58,818.396 2245.33,818.403 2248.09,818.411 2250.84,818.418 2253.6,818.425 2256.35,818.432 2259.1,818.439 2261.86,818.447 2264.61,818.454 2267.37,818.461 2270.12,818.468 2272.88,818.475 2275.63,818.482 2278.39,818.49 2281.14,818.497 2283.89,818.504 2286.65,818.511 2289.4,818.518 2292.16,818.526 2294.91,818.533 2297.67,818.54 2300.42,818.547 2303.18,818.554 2305.93,818.561 2308.68,818.569 2311.44,818.576 2314.19,818.583 2316.95,818.59 2319.7,818.597 2322.46,818.605 2325.21,818.612 2327.97,818.619 2330.72,818.626 2333.47,818.633 2336.23,818.64 2338.98,818.648 2341.74,818.655 2344.49,818.662 2347.25,818.669 2350,818.676 2352.76,818.683 "/>
<path clip-path="url(#clip910)" d="M1969.85 1377.32 L2279.3 1377.32 L2279.3 1169.96 L1969.85 1169.96  Z" fill="#ffffff" fill-rule="evenodd" fill-opacity="1"/>
<polyline clip-path="url(#clip910)" style="stroke:#000000; stroke-linecap:round; stroke-linejoin:round; stroke-width:4; stroke-opacity:1; fill:none" points="1969.85,1377.32 2279.3,1377.32 2279.3,1169.96 1969.85,1169.96 1969.85,1377.32 "/>
<polyline clip-path="url(#clip910)" style="stroke:#009af9; stroke-linecap:round; stroke-linejoin:round; stroke-width:12; stroke-opacity:1; fill:none" points="1994.33,1221.8 2141.24,1221.8 "/>
<path clip-path="url(#clip910)" d="M2165.72 1228.84 L2165.72 1213.15 L2169.98 1213.15 L2169.98 1228.68 Q2169.98 1232.36 2171.42 1234.21 Q2172.85 1236.04 2175.72 1236.04 Q2179.17 1236.04 2181.16 1233.84 Q2183.18 1231.64 2183.18 1227.85 L2183.18 1213.15 L2187.44 1213.15 L2187.44 1239.08 L2183.18 1239.08 L2183.18 1235.09 Q2181.63 1237.45 2179.57 1238.61 Q2177.53 1239.75 2174.82 1239.75 Q2170.35 1239.75 2168.04 1236.97 Q2165.72 1234.19 2165.72 1228.84 M2176.44 1212.52 L2176.44 1212.52 Z" fill="#000000" fill-rule="nonzero" fill-opacity="1" /><path clip-path="url(#clip910)" d="M2195.82 1203.06 L2205.63 1203.06 L2205.63 1206.37 L2200.07 1206.37 L2200.07 1242.02 L2205.63 1242.02 L2205.63 1245.33 L2195.82 1245.33 L2195.82 1203.06 Z" fill="#000000" fill-rule="nonzero" fill-opacity="1" /><path clip-path="url(#clip910)" d="M2216.12 1235.14 L2223.76 1235.14 L2223.76 1208.77 L2215.44 1210.44 L2215.44 1206.18 L2223.71 1204.52 L2228.38 1204.52 L2228.38 1235.14 L2236.02 1235.14 L2236.02 1239.08 L2216.12 1239.08 L2216.12 1235.14 Z" fill="#000000" fill-rule="nonzero" fill-opacity="1" /><path clip-path="url(#clip910)" d="M2254.82 1203.06 L2254.82 1245.33 L2245 1245.33 L2245 1242.02 L2250.54 1242.02 L2250.54 1206.37 L2245 1206.37 L2245 1203.06 L2254.82 1203.06 Z" fill="#000000" fill-rule="nonzero" fill-opacity="1" /><polyline clip-path="url(#clip910)" style="stroke:#e26f46; stroke-linecap:round; stroke-linejoin:round; stroke-width:12; stroke-opacity:1; fill:none" points="1994.33,1273.64 2141.24,1273.64 "/>
<path clip-path="url(#clip910)" d="M2165.72 1280.68 L2165.72 1264.99 L2169.98 1264.99 L2169.98 1280.52 Q2169.98 1284.2 2171.42 1286.05 Q2172.85 1287.88 2175.72 1287.88 Q2179.17 1287.88 2181.16 1285.68 Q2183.18 1283.48 2183.18 1279.69 L2183.18 1264.99 L2187.44 1264.99 L2187.44 1290.92 L2183.18 1290.92 L2183.18 1286.93 Q2181.63 1289.29 2179.57 1290.45 Q2177.53 1291.59 2174.82 1291.59 Q2170.35 1291.59 2168.04 1288.81 Q2165.72 1286.03 2165.72 1280.68 M2176.44 1264.36 L2176.44 1264.36 Z" fill="#000000" fill-rule="nonzero" fill-opacity="1" /><path clip-path="url(#clip910)" d="M2195.82 1254.9 L2205.63 1254.9 L2205.63 1258.21 L2200.07 1258.21 L2200.07 1293.86 L2205.63 1293.86 L2205.63 1297.17 L2195.82 1297.17 L2195.82 1254.9 Z" fill="#000000" fill-rule="nonzero" fill-opacity="1" /><path clip-path="url(#clip910)" d="M2219.33 1286.98 L2235.65 1286.98 L2235.65 1290.92 L2213.71 1290.92 L2213.71 1286.98 Q2216.37 1284.23 2220.95 1279.6 Q2225.56 1274.94 2226.74 1273.6 Q2228.99 1271.08 2229.87 1269.34 Q2230.77 1267.58 2230.77 1265.89 Q2230.77 1263.14 2228.82 1261.4 Q2226.9 1259.67 2223.8 1259.67 Q2221.6 1259.67 2219.15 1260.43 Q2216.72 1261.19 2213.94 1262.74 L2213.94 1258.02 Q2216.76 1256.89 2219.22 1256.31 Q2221.67 1255.73 2223.71 1255.73 Q2229.08 1255.73 2232.27 1258.42 Q2235.47 1261.1 2235.47 1265.59 Q2235.47 1267.72 2234.66 1269.64 Q2233.87 1271.54 2231.76 1274.13 Q2231.19 1274.8 2228.08 1278.02 Q2224.98 1281.22 2219.33 1286.98 Z" fill="#000000" fill-rule="nonzero" fill-opacity="1" /><path clip-path="url(#clip910)" d="M2254.82 1254.9 L2254.82 1297.17 L2245 1297.17 L2245 1293.86 L2250.54 1293.86 L2250.54 1258.21 L2245 1258.21 L2245 1254.9 L2254.82 1254.9 Z" fill="#000000" fill-rule="nonzero" fill-opacity="1" /><polyline clip-path="url(#clip910)" style="stroke:#3da44d; stroke-linecap:round; stroke-linejoin:round; stroke-width:12; stroke-opacity:1; fill:none" points="1994.33,1325.48 2141.24,1325.48 "/>
<path clip-path="url(#clip910)" d="M2165.72 1332.52 L2165.72 1316.83 L2169.98 1316.83 L2169.98 1332.36 Q2169.98 1336.04 2171.42 1337.89 Q2172.85 1339.72 2175.72 1339.72 Q2179.17 1339.72 2181.16 1337.52 Q2183.18 1335.32 2183.18 1331.53 L2183.18 1316.83 L2187.44 1316.83 L2187.44 1342.76 L2183.18 1342.76 L2183.18 1338.77 Q2181.63 1341.13 2179.57 1342.29 Q2177.53 1343.43 2174.82 1343.43 Q2170.35 1343.43 2168.04 1340.65 Q2165.72 1337.87 2165.72 1332.52 M2176.44 1316.2 L2176.44 1316.2 Z" fill="#000000" fill-rule="nonzero" fill-opacity="1" /><path clip-path="url(#clip910)" d="M2206.44 1306.78 Q2203.34 1312.11 2201.83 1317.32 Q2200.33 1322.52 2200.33 1327.87 Q2200.33 1333.22 2201.83 1338.47 Q2203.36 1343.7 2206.44 1349.01 L2202.74 1349.01 Q2199.26 1343.57 2197.53 1338.31 Q2195.82 1333.06 2195.82 1327.87 Q2195.82 1322.71 2197.53 1317.48 Q2199.24 1312.25 2202.74 1306.78 L2206.44 1306.78 Z" fill="#000000" fill-rule="nonzero" fill-opacity="1" /><path clip-path="url(#clip910)" d="M2218.92 1309.47 L2218.92 1316.83 L2227.69 1316.83 L2227.69 1320.14 L2218.92 1320.14 L2218.92 1334.21 Q2218.92 1337.38 2219.77 1338.29 Q2220.65 1339.19 2223.32 1339.19 L2227.69 1339.19 L2227.69 1342.76 L2223.32 1342.76 Q2218.38 1342.76 2216.51 1340.93 Q2214.63 1339.07 2214.63 1334.21 L2214.63 1320.14 L2211.51 1320.14 L2211.51 1316.83 L2214.63 1316.83 L2214.63 1309.47 L2218.92 1309.47 Z" fill="#000000" fill-rule="nonzero" fill-opacity="1" /><path clip-path="url(#clip910)" d="M2232.62 1306.78 L2236.32 1306.78 Q2239.8 1312.25 2241.51 1317.48 Q2243.25 1322.71 2243.25 1327.87 Q2243.25 1333.06 2241.51 1338.31 Q2239.8 1343.57 2236.32 1349.01 L2232.62 1349.01 Q2235.7 1343.7 2237.2 1338.47 Q2238.73 1333.22 2238.73 1327.87 Q2238.73 1322.52 2237.2 1317.32 Q2235.7 1312.11 2232.62 1306.78 Z" fill="#000000" fill-rule="nonzero" fill-opacity="1" /></svg>
