<?xml version="1.0" encoding="utf-8"?>
<svg xmlns="http://www.w3.org/2000/svg" xmlns:xlink="http://www.w3.org/1999/xlink" width="600" height="400" viewBox="0 0 2400 1600">
<defs>
  <clipPath id="clip340">
    <rect x="0" y="0" width="2400" height="1600"/>
  </clipPath>
</defs>
<path clip-path="url(#clip340)" d="M0 1600 L2400 1600 L2400 0 L0 0  Z" fill="#ffffff" fill-rule="evenodd" fill-opacity="1"/>
<defs>
  <clipPath id="clip341">
    <rect x="480" y="0" width="1681" height="1600"/>
  </clipPath>
</defs>
<path clip-path="url(#clip340)" d="M186.274 1486.45 L2352.76 1486.45 L2352.76 47.2441 L186.274 47.2441  Z" fill="#ffffff" fill-rule="evenodd" fill-opacity="1"/>
<defs>
  <clipPath id="clip342">
    <rect x="186" y="47" width="2167" height="1440"/>
  </clipPath>
</defs>
<polyline clip-path="url(#clip342)" style="stroke:#000000; stroke-linecap:round; stroke-linejoin:round; stroke-width:2; stroke-opacity:0.1; fill:none" points="226.945,1486.45 226.945,47.2441 "/>
<polyline clip-path="url(#clip342)" style="stroke:#000000; stroke-linecap:round; stroke-linejoin:round; stroke-width:2; stroke-opacity:0.1; fill:none" points="743.069,1486.45 743.069,47.2441 "/>
<polyline clip-path="url(#clip342)" style="stroke:#000000; stroke-linecap:round; stroke-linejoin:round; stroke-width:2; stroke-opacity:0.1; fill:none" points="1259.19,1486.45 1259.19,47.2441 "/>
<polyline clip-path="url(#clip342)" style="stroke:#000000; stroke-linecap:round; stroke-linejoin:round; stroke-width:2; stroke-opacity:0.1; fill:none" points="1775.32,1486.45 1775.32,47.2441 "/>
<polyline clip-path="url(#clip342)" style="stroke:#000000; stroke-linecap:round; stroke-linejoin:round; stroke-width:2; stroke-opacity:0.1; fill:none" points="2291.44,1486.45 2291.44,47.2441 "/>
<polyline clip-path="url(#clip342)" style="stroke:#000000; stroke-linecap:round; stroke-linejoin:round; stroke-width:2; stroke-opacity:0.1; fill:none" points="186.274,1445.72 2352.76,1445.72 "/>
<polyline clip-path="url(#clip342)" style="stroke:#000000; stroke-linecap:round; stroke-linejoin:round; stroke-width:2; stroke-opacity:0.1; fill:none" points="186.274,1106.28 2352.76,1106.28 "/>
<polyline clip-path="url(#clip342)" style="stroke:#000000; stroke-linecap:round; stroke-linejoin:round; stroke-width:2; stroke-opacity:0.1; fill:none" points="186.274,766.85 2352.76,766.85 "/>
<polyline clip-path="url(#clip342)" style="stroke:#000000; stroke-linecap:round; stroke-linejoin:round; stroke-width:2; stroke-opacity:0.1; fill:none" points="186.274,427.416 2352.76,427.416 "/>
<polyline clip-path="url(#clip342)" style="stroke:#000000; stroke-linecap:round; stroke-linejoin:round; stroke-width:2; stroke-opacity:0.1; fill:none" points="186.274,87.9833 2352.76,87.9833 "/>
<polyline clip-path="url(#clip340)" style="stroke:#000000; stroke-linecap:round; stroke-linejoin:round; stroke-width:4; stroke-opacity:1; fill:none" points="186.274,1486.45 2352.76,1486.45 "/>
<polyline clip-path="url(#clip340)" style="stroke:#000000; stroke-linecap:round; stroke-linejoin:round; stroke-width:4; stroke-opacity:1; fill:none" points="226.945,1486.45 226.945,1467.55 "/>
<polyline clip-path="url(#clip340)" style="stroke:#000000; stroke-linecap:round; stroke-linejoin:round; stroke-width:4; stroke-opacity:1; fill:none" points="743.069,1486.45 743.069,1467.55 "/>
<polyline clip-path="url(#clip340)" style="stroke:#000000; stroke-linecap:round; stroke-linejoin:round; stroke-width:4; stroke-opacity:1; fill:none" points="1259.19,1486.45 1259.19,1467.55 "/>
<polyline clip-path="url(#clip340)" style="stroke:#000000; stroke-linecap:round; stroke-linejoin:round; stroke-width:4; stroke-opacity:1; fill:none" points="1775.32,1486.45 1775.32,1467.55 "/>
<polyline clip-path="url(#clip340)" style="stroke:#000000; stroke-linecap:round; stroke-linejoin:round; stroke-width:4; stroke-opacity:1; fill:none" points="2291.44,1486.45 2291.44,1467.55 "/>
<path clip-path="url(#clip340)" d="M204.329 1517.37 Q200.718 1517.37 198.889 1520.93 Q197.084 1524.47 197.084 1531.6 Q197.084 1538.71 198.889 1542.27 Q200.718 1545.82 204.329 1545.82 Q207.963 1545.82 209.769 1542.27 Q211.597 1538.71 211.597 1531.6 Q211.597 1524.47 209.769 1520.93 Q207.963 1517.37 204.329 1517.37 M204.329 1513.66 Q210.139 1513.66 213.195 1518.27 Q216.273 1522.85 216.273 1531.6 Q216.273 1540.33 213.195 1544.94 Q210.139 1549.52 204.329 1549.52 Q198.519 1549.52 195.44 1544.94 Q192.385 1540.33 192.385 1531.6 Q192.385 1522.85 195.44 1518.27 Q198.519 1513.66 204.329 1513.66 Z" fill="#000000" fill-rule="nonzero" fill-opacity="1" /><path clip-path="url(#clip340)" d="M224.491 1542.97 L229.375 1542.97 L229.375 1548.85 L224.491 1548.85 L224.491 1542.97 Z" fill="#000000" fill-rule="nonzero" fill-opacity="1" /><path clip-path="url(#clip340)" d="M249.56 1517.37 Q245.949 1517.37 244.12 1520.93 Q242.315 1524.47 242.315 1531.6 Q242.315 1538.71 244.12 1542.27 Q245.949 1545.82 249.56 1545.82 Q253.194 1545.82 255 1542.27 Q256.829 1538.71 256.829 1531.6 Q256.829 1524.47 255 1520.93 Q253.194 1517.37 249.56 1517.37 M249.56 1513.66 Q255.37 1513.66 258.426 1518.27 Q261.505 1522.85 261.505 1531.6 Q261.505 1540.33 258.426 1544.94 Q255.37 1549.52 249.56 1549.52 Q243.75 1549.52 240.671 1544.94 Q237.616 1540.33 237.616 1531.6 Q237.616 1522.85 240.671 1518.27 Q243.75 1513.66 249.56 1513.66 Z" fill="#000000" fill-rule="nonzero" fill-opacity="1" /><path clip-path="url(#clip340)" d="M714.805 1544.91 L731.124 1544.91 L731.124 1548.85 L709.18 1548.85 L709.18 1544.91 Q711.842 1542.16 716.425 1537.53 Q721.032 1532.88 722.212 1531.53 Q724.458 1529.01 725.337 1527.27 Q726.24 1525.51 726.24 1523.82 Q726.24 1521.07 724.295 1519.33 Q722.374 1517.6 719.272 1517.6 Q717.073 1517.6 714.62 1518.36 Q712.189 1519.13 709.411 1520.68 L709.411 1515.95 Q712.235 1514.82 714.689 1514.24 Q717.143 1513.66 719.18 1513.66 Q724.55 1513.66 727.745 1516.35 Q730.939 1519.03 730.939 1523.52 Q730.939 1525.65 730.129 1527.57 Q729.342 1529.47 727.235 1532.07 Q726.657 1532.74 723.555 1535.95 Q720.453 1539.15 714.805 1544.91 Z" fill="#000000" fill-rule="nonzero" fill-opacity="1" /><path clip-path="url(#clip340)" d="M740.939 1542.97 L745.823 1542.97 L745.823 1548.85 L740.939 1548.85 L740.939 1542.97 Z" fill="#000000" fill-rule="nonzero" fill-opacity="1" /><path clip-path="url(#clip340)" d="M756.055 1514.29 L774.411 1514.29 L774.411 1518.22 L760.337 1518.22 L760.337 1526.7 Q761.355 1526.35 762.374 1526.19 Q763.392 1526 764.411 1526 Q770.198 1526 773.578 1529.17 Q776.957 1532.34 776.957 1537.76 Q776.957 1543.34 773.485 1546.44 Q770.013 1549.52 763.693 1549.52 Q761.517 1549.52 759.249 1549.15 Q757.004 1548.78 754.596 1548.04 L754.596 1543.34 Q756.68 1544.47 758.902 1545.03 Q761.124 1545.58 763.601 1545.58 Q767.605 1545.58 769.943 1543.48 Q772.281 1541.37 772.281 1537.76 Q772.281 1534.15 769.943 1532.04 Q767.605 1529.94 763.601 1529.94 Q761.726 1529.94 759.851 1530.35 Q757.999 1530.77 756.055 1531.65 L756.055 1514.29 Z" fill="#000000" fill-rule="nonzero" fill-opacity="1" /><path clip-path="url(#clip340)" d="M1226.36 1514.29 L1244.71 1514.29 L1244.71 1518.22 L1230.64 1518.22 L1230.64 1526.7 Q1231.66 1526.35 1232.68 1526.19 Q1233.69 1526 1234.71 1526 Q1240.5 1526 1243.88 1529.17 Q1247.26 1532.34 1247.26 1537.76 Q1247.26 1543.34 1243.79 1546.44 Q1240.32 1549.52 1234 1549.52 Q1231.82 1549.52 1229.55 1549.15 Q1227.31 1548.78 1224.9 1548.04 L1224.9 1543.34 Q1226.98 1544.47 1229.2 1545.03 Q1231.43 1545.58 1233.9 1545.58 Q1237.91 1545.58 1240.25 1543.48 Q1242.58 1541.37 1242.58 1537.76 Q1242.58 1534.15 1240.25 1532.04 Q1237.91 1529.94 1233.9 1529.94 Q1232.03 1529.94 1230.15 1530.35 Q1228.3 1530.77 1226.36 1531.65 L1226.36 1514.29 Z" fill="#000000" fill-rule="nonzero" fill-opacity="1" /><path clip-path="url(#clip340)" d="M1256.47 1542.97 L1261.36 1542.97 L1261.36 1548.85 L1256.47 1548.85 L1256.47 1542.97 Z" fill="#000000" fill-rule="nonzero" fill-opacity="1" /><path clip-path="url(#clip340)" d="M1281.54 1517.37 Q1277.93 1517.37 1276.1 1520.93 Q1274.3 1524.47 1274.3 1531.6 Q1274.3 1538.71 1276.1 1542.27 Q1277.93 1545.82 1281.54 1545.82 Q1285.18 1545.82 1286.98 1542.27 Q1288.81 1538.71 1288.81 1531.6 Q1288.81 1524.47 1286.98 1520.93 Q1285.18 1517.37 1281.54 1517.37 M1281.54 1513.66 Q1287.35 1513.66 1290.41 1518.27 Q1293.49 1522.85 1293.49 1531.6 Q1293.49 1540.33 1290.41 1544.94 Q1287.35 1549.52 1281.54 1549.52 Q1275.73 1549.52 1272.65 1544.94 Q1269.6 1540.33 1269.6 1531.6 Q1269.6 1522.85 1272.65 1518.27 Q1275.73 1513.66 1281.54 1513.66 Z" fill="#000000" fill-rule="nonzero" fill-opacity="1" /><path clip-path="url(#clip340)" d="M1741.64 1514.29 L1763.86 1514.29 L1763.86 1516.28 L1751.31 1548.85 L1746.43 1548.85 L1758.23 1518.22 L1741.64 1518.22 L1741.64 1514.29 Z" fill="#000000" fill-rule="nonzero" fill-opacity="1" /><path clip-path="url(#clip340)" d="M1772.98 1542.97 L1777.86 1542.97 L1777.86 1548.85 L1772.98 1548.85 L1772.98 1542.97 Z" fill="#000000" fill-rule="nonzero" fill-opacity="1" /><path clip-path="url(#clip340)" d="M1788.09 1514.29 L1806.45 1514.29 L1806.45 1518.22 L1792.38 1518.22 L1792.38 1526.7 Q1793.4 1526.35 1794.41 1526.19 Q1795.43 1526 1796.45 1526 Q1802.24 1526 1805.62 1529.17 Q1809 1532.34 1809 1537.76 Q1809 1543.34 1805.52 1546.44 Q1802.05 1549.52 1795.73 1549.52 Q1793.56 1549.52 1791.29 1549.15 Q1789.04 1548.78 1786.64 1548.04 L1786.64 1543.34 Q1788.72 1544.47 1790.94 1545.03 Q1793.16 1545.58 1795.64 1545.58 Q1799.65 1545.58 1801.98 1543.48 Q1804.32 1541.37 1804.32 1537.76 Q1804.32 1534.15 1801.98 1532.04 Q1799.65 1529.94 1795.64 1529.94 Q1793.77 1529.94 1791.89 1530.35 Q1790.04 1530.77 1788.09 1531.65 L1788.09 1514.29 Z" fill="#000000" fill-rule="nonzero" fill-opacity="1" /><path clip-path="url(#clip340)" d="M2243.51 1544.91 L2251.15 1544.91 L2251.15 1518.55 L2242.84 1520.21 L2242.84 1515.95 L2251.1 1514.29 L2255.78 1514.29 L2255.78 1544.91 L2263.42 1544.91 L2263.42 1548.85 L2243.51 1548.85 L2243.51 1544.91 Z" fill="#000000" fill-rule="nonzero" fill-opacity="1" /><path clip-path="url(#clip340)" d="M2282.86 1517.37 Q2279.25 1517.37 2277.42 1520.93 Q2275.62 1524.47 2275.62 1531.6 Q2275.62 1538.71 2277.42 1542.27 Q2279.25 1545.82 2282.86 1545.82 Q2286.5 1545.82 2288.3 1542.27 Q2290.13 1538.71 2290.13 1531.6 Q2290.13 1524.47 2288.3 1520.93 Q2286.5 1517.37 2282.86 1517.37 M2282.86 1513.66 Q2288.67 1513.66 2291.73 1518.27 Q2294.81 1522.85 2294.81 1531.6 Q2294.81 1540.33 2291.73 1544.94 Q2288.67 1549.52 2282.86 1549.52 Q2277.05 1549.52 2273.98 1544.94 Q2270.92 1540.33 2270.92 1531.6 Q2270.92 1522.85 2273.98 1518.27 Q2277.05 1513.66 2282.86 1513.66 Z" fill="#000000" fill-rule="nonzero" fill-opacity="1" /><path clip-path="url(#clip340)" d="M2303.03 1542.97 L2307.91 1542.97 L2307.91 1548.85 L2303.03 1548.85 L2303.03 1542.97 Z" fill="#000000" fill-rule="nonzero" fill-opacity="1" /><path clip-path="url(#clip340)" d="M2328.1 1517.37 Q2324.48 1517.37 2322.66 1520.93 Q2320.85 1524.47 2320.85 1531.6 Q2320.85 1538.71 2322.66 1542.27 Q2324.48 1545.82 2328.1 1545.82 Q2331.73 1545.82 2333.54 1542.27 Q2335.36 1538.71 2335.36 1531.6 Q2335.36 1524.47 2333.54 1520.93 Q2331.73 1517.37 2328.1 1517.37 M2328.1 1513.66 Q2333.91 1513.66 2336.96 1518.27 Q2340.04 1522.85 2340.04 1531.6 Q2340.04 1540.33 2336.96 1544.94 Q2333.91 1549.52 2328.1 1549.52 Q2322.29 1549.52 2319.21 1544.94 Q2316.15 1540.33 2316.15 1531.6 Q2316.15 1522.85 2319.21 1518.27 Q2322.29 1513.66 2328.1 1513.66 Z" fill="#000000" fill-rule="nonzero" fill-opacity="1" /><polyline clip-path="url(#clip340)" style="stroke:#000000; stroke-linecap:round; stroke-linejoin:round; stroke-width:4; stroke-opacity:1; fill:none" points="186.274,1486.45 186.274,47.2441 "/>
<polyline clip-path="url(#clip340)" style="stroke:#000000; stroke-linecap:round; stroke-linejoin:round; stroke-width:4; stroke-opacity:1; fill:none" points="186.274,1445.72 205.172,1445.72 "/>
<polyline clip-path="url(#clip340)" style="stroke:#000000; stroke-linecap:round; stroke-linejoin:round; stroke-width:4; stroke-opacity:1; fill:none" points="186.274,1106.28 205.172,1106.28 "/>
<polyline clip-path="url(#clip340)" style="stroke:#000000; stroke-linecap:round; stroke-linejoin:round; stroke-width:4; stroke-opacity:1; fill:none" points="186.274,766.85 205.172,766.85 "/>
<polyline clip-path="url(#clip340)" style="stroke:#000000; stroke-linecap:round; stroke-linejoin:round; stroke-width:4; stroke-opacity:1; fill:none" points="186.274,427.416 205.172,427.416 "/>
<polyline clip-path="url(#clip340)" style="stroke:#000000; stroke-linecap:round; stroke-linejoin:round; stroke-width:4; stroke-opacity:1; fill:none" points="186.274,87.9833 205.172,87.9833 "/>
<path clip-path="url(#clip340)" d="M62.9365 1431.51 Q59.3254 1431.51 57.4967 1435.08 Q55.6912 1438.62 55.6912 1445.75 Q55.6912 1452.86 57.4967 1456.42 Q59.3254 1459.96 62.9365 1459.96 Q66.5707 1459.96 68.3763 1456.42 Q70.205 1452.86 70.205 1445.75 Q70.205 1438.62 68.3763 1435.08 Q66.5707 1431.51 62.9365 1431.51 M62.9365 1427.81 Q68.7467 1427.81 71.8022 1432.42 Q74.8809 1437 74.8809 1445.75 Q74.8809 1454.48 71.8022 1459.08 Q68.7467 1463.67 62.9365 1463.67 Q57.1264 1463.67 54.0477 1459.08 Q50.9921 1454.48 50.9921 1445.75 Q50.9921 1437 54.0477 1432.42 Q57.1264 1427.81 62.9365 1427.81 Z" fill="#000000" fill-rule="nonzero" fill-opacity="1" /><path clip-path="url(#clip340)" d="M83.0984 1457.12 L87.9827 1457.12 L87.9827 1463 L83.0984 1463 L83.0984 1457.12 Z" fill="#000000" fill-rule="nonzero" fill-opacity="1" /><path clip-path="url(#clip340)" d="M108.168 1431.51 Q104.557 1431.51 102.728 1435.08 Q100.922 1438.62 100.922 1445.75 Q100.922 1452.86 102.728 1456.42 Q104.557 1459.96 108.168 1459.96 Q111.802 1459.96 113.608 1456.42 Q115.436 1452.86 115.436 1445.75 Q115.436 1438.62 113.608 1435.08 Q111.802 1431.51 108.168 1431.51 M108.168 1427.81 Q113.978 1427.81 117.033 1432.42 Q120.112 1437 120.112 1445.75 Q120.112 1454.48 117.033 1459.08 Q113.978 1463.67 108.168 1463.67 Q102.358 1463.67 99.2789 1459.08 Q96.2234 1454.48 96.2234 1445.75 Q96.2234 1437 99.2789 1432.42 Q102.358 1427.81 108.168 1427.81 Z" fill="#000000" fill-rule="nonzero" fill-opacity="1" /><path clip-path="url(#clip340)" d="M138.33 1431.51 Q134.719 1431.51 132.89 1435.08 Q131.084 1438.62 131.084 1445.75 Q131.084 1452.86 132.89 1456.42 Q134.719 1459.96 138.33 1459.96 Q141.964 1459.96 143.769 1456.42 Q145.598 1452.86 145.598 1445.75 Q145.598 1438.62 143.769 1435.08 Q141.964 1431.51 138.33 1431.51 M138.33 1427.81 Q144.14 1427.81 147.195 1432.42 Q150.274 1437 150.274 1445.75 Q150.274 1454.48 147.195 1459.08 Q144.14 1463.67 138.33 1463.67 Q132.519 1463.67 129.441 1459.08 Q126.385 1454.48 126.385 1445.75 Q126.385 1437 129.441 1432.42 Q132.519 1427.81 138.33 1427.81 Z" fill="#000000" fill-rule="nonzero" fill-opacity="1" /><path clip-path="url(#clip340)" d="M63.9319 1092.08 Q60.3208 1092.08 58.4921 1095.65 Q56.6865 1099.19 56.6865 1106.32 Q56.6865 1113.42 58.4921 1116.99 Q60.3208 1120.53 63.9319 1120.53 Q67.5661 1120.53 69.3717 1116.99 Q71.2004 1113.42 71.2004 1106.32 Q71.2004 1099.19 69.3717 1095.65 Q67.5661 1092.08 63.9319 1092.08 M63.9319 1088.38 Q69.742 1088.38 72.7976 1092.98 Q75.8763 1097.57 75.8763 1106.32 Q75.8763 1115.04 72.7976 1119.65 Q69.742 1124.23 63.9319 1124.23 Q58.1217 1124.23 55.043 1119.65 Q51.9875 1115.04 51.9875 1106.32 Q51.9875 1097.57 55.043 1092.98 Q58.1217 1088.38 63.9319 1088.38 Z" fill="#000000" fill-rule="nonzero" fill-opacity="1" /><path clip-path="url(#clip340)" d="M84.0938 1117.68 L88.978 1117.68 L88.978 1123.56 L84.0938 1123.56 L84.0938 1117.68 Z" fill="#000000" fill-rule="nonzero" fill-opacity="1" /><path clip-path="url(#clip340)" d="M103.191 1119.63 L119.51 1119.63 L119.51 1123.56 L97.566 1123.56 L97.566 1119.63 Q100.228 1116.87 104.811 1112.24 Q109.418 1107.59 110.598 1106.25 Q112.844 1103.72 113.723 1101.99 Q114.626 1100.23 114.626 1098.54 Q114.626 1095.78 112.682 1094.05 Q110.76 1092.31 107.658 1092.31 Q105.459 1092.31 103.006 1093.08 Q100.575 1093.84 97.7974 1095.39 L97.7974 1090.67 Q100.621 1089.54 103.075 1088.96 Q105.529 1088.38 107.566 1088.38 Q112.936 1088.38 116.131 1091.06 Q119.325 1093.75 119.325 1098.24 Q119.325 1100.37 118.515 1102.29 Q117.728 1104.19 115.621 1106.78 Q115.043 1107.45 111.941 1110.67 Q108.839 1113.86 103.191 1119.63 Z" fill="#000000" fill-rule="nonzero" fill-opacity="1" /><path clip-path="url(#clip340)" d="M129.371 1089 L147.728 1089 L147.728 1092.94 L133.654 1092.94 L133.654 1101.41 Q134.672 1101.06 135.691 1100.9 Q136.709 1100.72 137.728 1100.72 Q143.515 1100.72 146.894 1103.89 Q150.274 1107.06 150.274 1112.47 Q150.274 1118.05 146.802 1121.16 Q143.33 1124.23 137.01 1124.23 Q134.834 1124.23 132.566 1123.86 Q130.32 1123.49 127.913 1122.75 L127.913 1118.05 Q129.996 1119.19 132.219 1119.74 Q134.441 1120.3 136.918 1120.3 Q140.922 1120.3 143.26 1118.19 Q145.598 1116.09 145.598 1112.47 Q145.598 1108.86 143.26 1106.76 Q140.922 1104.65 136.918 1104.65 Q135.043 1104.65 133.168 1105.07 Q131.316 1105.48 129.371 1106.36 L129.371 1089 Z" fill="#000000" fill-rule="nonzero" fill-opacity="1" /><path clip-path="url(#clip340)" d="M62.9365 752.648 Q59.3254 752.648 57.4967 756.213 Q55.6912 759.755 55.6912 766.884 Q55.6912 773.991 57.4967 777.555 Q59.3254 781.097 62.9365 781.097 Q66.5707 781.097 68.3763 777.555 Q70.205 773.991 70.205 766.884 Q70.205 759.755 68.3763 756.213 Q66.5707 752.648 62.9365 752.648 M62.9365 748.945 Q68.7467 748.945 71.8022 753.551 Q74.8809 758.134 74.8809 766.884 Q74.8809 775.611 71.8022 780.217 Q68.7467 784.801 62.9365 784.801 Q57.1264 784.801 54.0477 780.217 Q50.9921 775.611 50.9921 766.884 Q50.9921 758.134 54.0477 753.551 Q57.1264 748.945 62.9365 748.945 Z" fill="#000000" fill-rule="nonzero" fill-opacity="1" /><path clip-path="url(#clip340)" d="M83.0984 778.25 L87.9827 778.25 L87.9827 784.13 L83.0984 784.13 L83.0984 778.25 Z" fill="#000000" fill-rule="nonzero" fill-opacity="1" /><path clip-path="url(#clip340)" d="M98.2141 749.57 L116.57 749.57 L116.57 753.505 L102.496 753.505 L102.496 761.977 Q103.515 761.63 104.534 761.468 Q105.552 761.282 106.571 761.282 Q112.358 761.282 115.737 764.454 Q119.117 767.625 119.117 773.042 Q119.117 778.62 115.645 781.722 Q112.172 784.801 105.853 784.801 Q103.677 784.801 101.409 784.43 Q99.1632 784.06 96.7558 783.319 L96.7558 778.62 Q98.8391 779.755 101.061 780.31 Q103.284 780.866 105.76 780.866 Q109.765 780.866 112.103 778.759 Q114.441 776.653 114.441 773.042 Q114.441 769.431 112.103 767.324 Q109.765 765.218 105.76 765.218 Q103.885 765.218 102.01 765.634 Q100.159 766.051 98.2141 766.931 L98.2141 749.57 Z" fill="#000000" fill-rule="nonzero" fill-opacity="1" /><path clip-path="url(#clip340)" d="M138.33 752.648 Q134.719 752.648 132.89 756.213 Q131.084 759.755 131.084 766.884 Q131.084 773.991 132.89 777.555 Q134.719 781.097 138.33 781.097 Q141.964 781.097 143.769 777.555 Q145.598 773.991 145.598 766.884 Q145.598 759.755 143.769 756.213 Q141.964 752.648 138.33 752.648 M138.33 748.945 Q144.14 748.945 147.195 753.551 Q150.274 758.134 150.274 766.884 Q150.274 775.611 147.195 780.217 Q144.14 784.801 138.33 784.801 Q132.519 784.801 129.441 780.217 Q126.385 775.611 126.385 766.884 Q126.385 758.134 129.441 753.551 Q132.519 748.945 138.33 748.945 Z" fill="#000000" fill-rule="nonzero" fill-opacity="1" /><path clip-path="url(#clip340)" d="M63.9319 413.215 Q60.3208 413.215 58.4921 416.78 Q56.6865 420.322 56.6865 427.451 Q56.6865 434.558 58.4921 438.122 Q60.3208 441.664 63.9319 441.664 Q67.5661 441.664 69.3717 438.122 Q71.2004 434.558 71.2004 427.451 Q71.2004 420.322 69.3717 416.78 Q67.5661 413.215 63.9319 413.215 M63.9319 409.511 Q69.742 409.511 72.7976 414.118 Q75.8763 418.701 75.8763 427.451 Q75.8763 436.178 72.7976 440.784 Q69.742 445.368 63.9319 445.368 Q58.1217 445.368 55.043 440.784 Q51.9875 436.178 51.9875 427.451 Q51.9875 418.701 55.043 414.118 Q58.1217 409.511 63.9319 409.511 Z" fill="#000000" fill-rule="nonzero" fill-opacity="1" /><path clip-path="url(#clip340)" d="M84.0938 438.817 L88.978 438.817 L88.978 444.696 L84.0938 444.696 L84.0938 438.817 Z" fill="#000000" fill-rule="nonzero" fill-opacity="1" /><path clip-path="url(#clip340)" d="M97.9826 410.136 L120.205 410.136 L120.205 412.127 L107.658 444.696 L102.774 444.696 L114.58 414.072 L97.9826 414.072 L97.9826 410.136 Z" fill="#000000" fill-rule="nonzero" fill-opacity="1" /><path clip-path="url(#clip340)" d="M129.371 410.136 L147.728 410.136 L147.728 414.072 L133.654 414.072 L133.654 422.544 Q134.672 422.197 135.691 422.034 Q136.709 421.849 137.728 421.849 Q143.515 421.849 146.894 425.021 Q150.274 428.192 150.274 433.609 Q150.274 439.187 146.802 442.289 Q143.33 445.368 137.01 445.368 Q134.834 445.368 132.566 444.997 Q130.32 444.627 127.913 443.886 L127.913 439.187 Q129.996 440.321 132.219 440.877 Q134.441 441.433 136.918 441.433 Q140.922 441.433 143.26 439.326 Q145.598 437.22 145.598 433.609 Q145.598 429.997 143.26 427.891 Q140.922 425.784 136.918 425.784 Q135.043 425.784 133.168 426.201 Q131.316 426.618 129.371 427.497 L129.371 410.136 Z" fill="#000000" fill-rule="nonzero" fill-opacity="1" /><path clip-path="url(#clip340)" d="M53.7467 101.328 L61.3856 101.328 L61.3856 74.9626 L53.0754 76.6292 L53.0754 72.37 L61.3393 70.7033 L66.0152 70.7033 L66.0152 101.328 L73.654 101.328 L73.654 105.263 L53.7467 105.263 L53.7467 101.328 Z" fill="#000000" fill-rule="nonzero" fill-opacity="1" /><path clip-path="url(#clip340)" d="M83.0984 99.3837 L87.9827 99.3837 L87.9827 105.263 L83.0984 105.263 L83.0984 99.3837 Z" fill="#000000" fill-rule="nonzero" fill-opacity="1" /><path clip-path="url(#clip340)" d="M108.168 73.782 Q104.557 73.782 102.728 77.3468 Q100.922 80.8885 100.922 88.018 Q100.922 95.1245 102.728 98.6893 Q104.557 102.231 108.168 102.231 Q111.802 102.231 113.608 98.6893 Q115.436 95.1245 115.436 88.018 Q115.436 80.8885 113.608 77.3468 Q111.802 73.782 108.168 73.782 M108.168 70.0783 Q113.978 70.0783 117.033 74.6848 Q120.112 79.2681 120.112 88.018 Q120.112 96.7448 117.033 101.351 Q113.978 105.935 108.168 105.935 Q102.358 105.935 99.2789 101.351 Q96.2234 96.7448 96.2234 88.018 Q96.2234 79.2681 99.2789 74.6848 Q102.358 70.0783 108.168 70.0783 Z" fill="#000000" fill-rule="nonzero" fill-opacity="1" /><path clip-path="url(#clip340)" d="M138.33 73.782 Q134.719 73.782 132.89 77.3468 Q131.084 80.8885 131.084 88.018 Q131.084 95.1245 132.89 98.6893 Q134.719 102.231 138.33 102.231 Q141.964 102.231 143.769 98.6893 Q145.598 95.1245 145.598 88.018 Q145.598 80.8885 143.769 77.3468 Q141.964 73.782 138.33 73.782 M138.33 70.0783 Q144.14 70.0783 147.195 74.6848 Q150.274 79.2681 150.274 88.018 Q150.274 96.7448 147.195 101.351 Q144.14 105.935 138.33 105.935 Q132.519 105.935 129.441 101.351 Q126.385 96.7448 126.385 88.018 Q126.385 79.2681 129.441 74.6848 Q132.519 70.0783 138.33 70.0783 Z" fill="#000000" fill-rule="nonzero" fill-opacity="1" /><polyline clip-path="url(#clip342)" style="stroke:#009af9; stroke-linecap:round; stroke-linejoin:round; stroke-width:4; stroke-opacity:1; fill:none" points="247.59,1445.72 268.234,1174.33 288.879,956.768 309.524,783.048 330.169,644.173 350.814,533.007 371.459,443.993 392.104,372.741 412.749,315.734 433.394,270.142 454.039,233.687 474.684,204.54 495.329,181.235 515.974,162.598 536.619,147.693 557.264,135.77 577.909,126.231 598.554,118.598 619.199,112.49 639.844,107.601 660.489,103.688 681.134,100.556 701.779,98.0485 722.424,96.041 743.069,94.4337 763.713,93.1468 784.358,92.1165 805.003,91.2915 825.648,90.6309 846.293,90.102 866.938,89.6784 887.583,89.3393 908.228,89.0677 928.873,88.8502 949.518,88.6761 970.163,88.5367 990.808,88.425 1011.45,88.3356 1032.1,88.264 1052.74,88.2067 1073.39,88.1608 1094.03,88.124 1114.68,88.0946 1135.32,88.071 1155.97,88.0522 1176.61,88.037 1197.26,88.0249 1217.9,88.0152 1238.55,88.0075 1259.19,88.0013 1279.84,87.9963 1300.48,87.9923 1321.13,87.9891 1341.77,87.9866 1362.42,87.9845 1383.06,87.9829 1403.71,87.9815 1424.35,87.9805 1445,87.9797 1465.64,87.979 1486.29,87.9785 1506.93,87.978 1527.58,87.9777 1548.22,87.9774 1568.87,87.9772 1589.51,87.977 1610.16,87.9769 1630.8,87.9767 1651.45,87.9766 1672.09,87.9766 1692.74,87.9765 1713.38,87.9765 1734.03,87.9764 1754.67,87.9764 1775.32,87.9764 1795.96,87.9764 1816.61,87.9763 1837.25,87.9763 1857.9,87.9763 1878.54,87.9763 1899.19,87.9763 1919.83,87.9763 1940.48,87.9763 1961.12,87.9763 1981.77,87.9763 2002.41,87.9763 2023.06,87.9763 2043.7,87.9763 2064.35,87.9763 2084.99,87.9763 2105.64,87.9763 2126.28,87.9763 2146.93,87.9763 2167.57,87.9763 2188.22,87.9763 2208.86,87.9763 2229.51,87.9763 2250.15,87.9763 2270.8,87.9763 2291.44,87.9763 "/>
<circle clip-path="url(#clip342)" cx="247.59" cy="1445.72" r="14.4" fill="#e26f46" fill-rule="evenodd" fill-opacity="1" stroke="#000000" stroke-opacity="1" stroke-width="3.2"/>
<circle clip-path="url(#clip342)" cx="268.234" cy="1174.17" r="14.4" fill="#e26f46" fill-rule="evenodd" fill-opacity="1" stroke="#000000" stroke-opacity="1" stroke-width="3.2"/>
<circle clip-path="url(#clip342)" cx="288.879" cy="956.932" r="14.4" fill="#e26f46" fill-rule="evenodd" fill-opacity="1" stroke="#000000" stroke-opacity="1" stroke-width="3.2"/>
<circle clip-path="url(#clip342)" cx="309.524" cy="783.142" r="14.4" fill="#e26f46" fill-rule="evenodd" fill-opacity="1" stroke="#000000" stroke-opacity="1" stroke-width="3.2"/>
<circle clip-path="url(#clip342)" cx="330.169" cy="644.11" r="14.4" fill="#e26f46" fill-rule="evenodd" fill-opacity="1" stroke="#000000" stroke-opacity="1" stroke-width="3.2"/>
<circle clip-path="url(#clip342)" cx="350.814" cy="532.885" r="14.4" fill="#e26f46" fill-rule="evenodd" fill-opacity="1" stroke="#000000" stroke-opacity="1" stroke-width="3.2"/>
<circle clip-path="url(#clip342)" cx="371.459" cy="443.905" r="14.4" fill="#e26f46" fill-rule="evenodd" fill-opacity="1" stroke="#000000" stroke-opacity="1" stroke-width="3.2"/>
<circle clip-path="url(#clip342)" cx="392.104" cy="372.72" r="14.4" fill="#e26f46" fill-rule="evenodd" fill-opacity="1" stroke="#000000" stroke-opacity="1" stroke-width="3.2"/>
<circle clip-path="url(#clip342)" cx="412.749" cy="315.773" r="14.4" fill="#e26f46" fill-rule="evenodd" fill-opacity="1" stroke="#000000" stroke-opacity="1" stroke-width="3.2"/>
<circle clip-path="url(#clip342)" cx="433.394" cy="270.215" r="14.4" fill="#e26f46" fill-rule="evenodd" fill-opacity="1" stroke="#000000" stroke-opacity="1" stroke-width="3.2"/>
<circle clip-path="url(#clip342)" cx="454.039" cy="233.769" r="14.4" fill="#e26f46" fill-rule="evenodd" fill-opacity="1" stroke="#000000" stroke-opacity="1" stroke-width="3.2"/>
<circle clip-path="url(#clip342)" cx="474.684" cy="204.612" r="14.4" fill="#e26f46" fill-rule="evenodd" fill-opacity="1" stroke="#000000" stroke-opacity="1" stroke-width="3.2"/>
<circle clip-path="url(#clip342)" cx="495.329" cy="181.286" r="14.4" fill="#e26f46" fill-rule="evenodd" fill-opacity="1" stroke="#000000" stroke-opacity="1" stroke-width="3.2"/>
<circle clip-path="url(#clip342)" cx="515.974" cy="162.625" r="14.4" fill="#e26f46" fill-rule="evenodd" fill-opacity="1" stroke="#000000" stroke-opacity="1" stroke-width="3.2"/>
<circle clip-path="url(#clip342)" cx="536.619" cy="147.697" r="14.4" fill="#e26f46" fill-rule="evenodd" fill-opacity="1" stroke="#000000" stroke-opacity="1" stroke-width="3.2"/>
<circle clip-path="url(#clip342)" cx="557.264" cy="135.754" r="14.4" fill="#e26f46" fill-rule="evenodd" fill-opacity="1" stroke="#000000" stroke-opacity="1" stroke-width="3.2"/>
<circle clip-path="url(#clip342)" cx="577.909" cy="126.2" r="14.4" fill="#e26f46" fill-rule="evenodd" fill-opacity="1" stroke="#000000" stroke-opacity="1" stroke-width="3.2"/>
<circle clip-path="url(#clip342)" cx="598.554" cy="118.557" r="14.4" fill="#e26f46" fill-rule="evenodd" fill-opacity="1" stroke="#000000" stroke-opacity="1" stroke-width="3.2"/>
<circle clip-path="url(#clip342)" cx="619.199" cy="112.442" r="14.4" fill="#e26f46" fill-rule="evenodd" fill-opacity="1" stroke="#000000" stroke-opacity="1" stroke-width="3.2"/>
<circle clip-path="url(#clip342)" cx="639.844" cy="107.55" r="14.4" fill="#e26f46" fill-rule="evenodd" fill-opacity="1" stroke="#000000" stroke-opacity="1" stroke-width="3.2"/>
<circle clip-path="url(#clip342)" cx="660.489" cy="103.637" r="14.4" fill="#e26f46" fill-rule="evenodd" fill-opacity="1" stroke="#000000" stroke-opacity="1" stroke-width="3.2"/>
<circle clip-path="url(#clip342)" cx="681.134" cy="100.506" r="14.4" fill="#e26f46" fill-rule="evenodd" fill-opacity="1" stroke="#000000" stroke-opacity="1" stroke-width="3.2"/>
<circle clip-path="url(#clip342)" cx="701.779" cy="98.0016" r="14.4" fill="#e26f46" fill-rule="evenodd" fill-opacity="1" stroke="#000000" stroke-opacity="1" stroke-width="3.2"/>
<circle clip-path="url(#clip342)" cx="722.424" cy="95.998" r="14.4" fill="#e26f46" fill-rule="evenodd" fill-opacity="1" stroke="#000000" stroke-opacity="1" stroke-width="3.2"/>
<circle clip-path="url(#clip342)" cx="743.069" cy="94.395" r="14.4" fill="#e26f46" fill-rule="evenodd" fill-opacity="1" stroke="#000000" stroke-opacity="1" stroke-width="3.2"/>
<circle clip-path="url(#clip342)" cx="763.713" cy="93.1127" r="14.4" fill="#e26f46" fill-rule="evenodd" fill-opacity="1" stroke="#000000" stroke-opacity="1" stroke-width="3.2"/>
<circle clip-path="url(#clip342)" cx="784.358" cy="92.0868" r="14.4" fill="#e26f46" fill-rule="evenodd" fill-opacity="1" stroke="#000000" stroke-opacity="1" stroke-width="3.2"/>
<circle clip-path="url(#clip342)" cx="805.003" cy="91.2661" r="14.4" fill="#e26f46" fill-rule="evenodd" fill-opacity="1" stroke="#000000" stroke-opacity="1" stroke-width="3.2"/>
<circle clip-path="url(#clip342)" cx="825.648" cy="90.6096" r="14.4" fill="#e26f46" fill-rule="evenodd" fill-opacity="1" stroke="#000000" stroke-opacity="1" stroke-width="3.2"/>
<circle clip-path="url(#clip342)" cx="846.293" cy="90.0843" r="14.4" fill="#e26f46" fill-rule="evenodd" fill-opacity="1" stroke="#000000" stroke-opacity="1" stroke-width="3.2"/>
<circle clip-path="url(#clip342)" cx="866.938" cy="89.6641" r="14.4" fill="#e26f46" fill-rule="evenodd" fill-opacity="1" stroke="#000000" stroke-opacity="1" stroke-width="3.2"/>
<circle clip-path="url(#clip342)" cx="887.583" cy="89.328" r="14.4" fill="#e26f46" fill-rule="evenodd" fill-opacity="1" stroke="#000000" stroke-opacity="1" stroke-width="3.2"/>
<circle clip-path="url(#clip342)" cx="908.228" cy="89.059" r="14.4" fill="#e26f46" fill-rule="evenodd" fill-opacity="1" stroke="#000000" stroke-opacity="1" stroke-width="3.2"/>
<circle clip-path="url(#clip342)" cx="928.873" cy="88.8439" r="14.4" fill="#e26f46" fill-rule="evenodd" fill-opacity="1" stroke="#000000" stroke-opacity="1" stroke-width="3.2"/>
<circle clip-path="url(#clip342)" cx="949.518" cy="88.6718" r="14.4" fill="#e26f46" fill-rule="evenodd" fill-opacity="1" stroke="#000000" stroke-opacity="1" stroke-width="3.2"/>
<circle clip-path="url(#clip342)" cx="970.163" cy="88.5341" r="14.4" fill="#e26f46" fill-rule="evenodd" fill-opacity="1" stroke="#000000" stroke-opacity="1" stroke-width="3.2"/>
<circle clip-path="url(#clip342)" cx="990.808" cy="88.4239" r="14.4" fill="#e26f46" fill-rule="evenodd" fill-opacity="1" stroke="#000000" stroke-opacity="1" stroke-width="3.2"/>
<circle clip-path="url(#clip342)" cx="1011.45" cy="88.3358" r="14.4" fill="#e26f46" fill-rule="evenodd" fill-opacity="1" stroke="#000000" stroke-opacity="1" stroke-width="3.2"/>
<circle clip-path="url(#clip342)" cx="1032.1" cy="88.2653" r="14.4" fill="#e26f46" fill-rule="evenodd" fill-opacity="1" stroke="#000000" stroke-opacity="1" stroke-width="3.2"/>
<circle clip-path="url(#clip342)" cx="1052.74" cy="88.2089" r="14.4" fill="#e26f46" fill-rule="evenodd" fill-opacity="1" stroke="#000000" stroke-opacity="1" stroke-width="3.2"/>
<circle clip-path="url(#clip342)" cx="1073.39" cy="88.1638" r="14.4" fill="#e26f46" fill-rule="evenodd" fill-opacity="1" stroke="#000000" stroke-opacity="1" stroke-width="3.2"/>
<circle clip-path="url(#clip342)" cx="1094.03" cy="88.1277" r="14.4" fill="#e26f46" fill-rule="evenodd" fill-opacity="1" stroke="#000000" stroke-opacity="1" stroke-width="3.2"/>
<circle clip-path="url(#clip342)" cx="1114.68" cy="88.0988" r="14.4" fill="#e26f46" fill-rule="evenodd" fill-opacity="1" stroke="#000000" stroke-opacity="1" stroke-width="3.2"/>
<circle clip-path="url(#clip342)" cx="1135.32" cy="88.0757" r="14.4" fill="#e26f46" fill-rule="evenodd" fill-opacity="1" stroke="#000000" stroke-opacity="1" stroke-width="3.2"/>
<circle clip-path="url(#clip342)" cx="1155.97" cy="88.0572" r="14.4" fill="#e26f46" fill-rule="evenodd" fill-opacity="1" stroke="#000000" stroke-opacity="1" stroke-width="3.2"/>
<circle clip-path="url(#clip342)" cx="1176.61" cy="88.0425" r="14.4" fill="#e26f46" fill-rule="evenodd" fill-opacity="1" stroke="#000000" stroke-opacity="1" stroke-width="3.2"/>
<circle clip-path="url(#clip342)" cx="1197.26" cy="88.0306" r="14.4" fill="#e26f46" fill-rule="evenodd" fill-opacity="1" stroke="#000000" stroke-opacity="1" stroke-width="3.2"/>
<circle clip-path="url(#clip342)" cx="1217.9" cy="88.0212" r="14.4" fill="#e26f46" fill-rule="evenodd" fill-opacity="1" stroke="#000000" stroke-opacity="1" stroke-width="3.2"/>
<circle clip-path="url(#clip342)" cx="1238.55" cy="88.0136" r="14.4" fill="#e26f46" fill-rule="evenodd" fill-opacity="1" stroke="#000000" stroke-opacity="1" stroke-width="3.2"/>
<circle clip-path="url(#clip342)" cx="1259.19" cy="88.0075" r="14.4" fill="#e26f46" fill-rule="evenodd" fill-opacity="1" stroke="#000000" stroke-opacity="1" stroke-width="3.2"/>
<circle clip-path="url(#clip342)" cx="1279.84" cy="88.0027" r="14.4" fill="#e26f46" fill-rule="evenodd" fill-opacity="1" stroke="#000000" stroke-opacity="1" stroke-width="3.2"/>
<circle clip-path="url(#clip342)" cx="1300.48" cy="87.9988" r="14.4" fill="#e26f46" fill-rule="evenodd" fill-opacity="1" stroke="#000000" stroke-opacity="1" stroke-width="3.2"/>
<circle clip-path="url(#clip342)" cx="1321.13" cy="87.9957" r="14.4" fill="#e26f46" fill-rule="evenodd" fill-opacity="1" stroke="#000000" stroke-opacity="1" stroke-width="3.2"/>
<circle clip-path="url(#clip342)" cx="1341.77" cy="87.9932" r="14.4" fill="#e26f46" fill-rule="evenodd" fill-opacity="1" stroke="#000000" stroke-opacity="1" stroke-width="3.2"/>
<circle clip-path="url(#clip342)" cx="1362.42" cy="87.9913" r="14.4" fill="#e26f46" fill-rule="evenodd" fill-opacity="1" stroke="#000000" stroke-opacity="1" stroke-width="3.2"/>
<circle clip-path="url(#clip342)" cx="1383.06" cy="87.9897" r="14.4" fill="#e26f46" fill-rule="evenodd" fill-opacity="1" stroke="#000000" stroke-opacity="1" stroke-width="3.2"/>
<circle clip-path="url(#clip342)" cx="1403.71" cy="87.9884" r="14.4" fill="#e26f46" fill-rule="evenodd" fill-opacity="1" stroke="#000000" stroke-opacity="1" stroke-width="3.2"/>
<circle clip-path="url(#clip342)" cx="1424.35" cy="87.9874" r="14.4" fill="#e26f46" fill-rule="evenodd" fill-opacity="1" stroke="#000000" stroke-opacity="1" stroke-width="3.2"/>
<circle clip-path="url(#clip342)" cx="1445" cy="87.9866" r="14.4" fill="#e26f46" fill-rule="evenodd" fill-opacity="1" stroke="#000000" stroke-opacity="1" stroke-width="3.2"/>
<circle clip-path="url(#clip342)" cx="1465.64" cy="87.9859" r="14.4" fill="#e26f46" fill-rule="evenodd" fill-opacity="1" stroke="#000000" stroke-opacity="1" stroke-width="3.2"/>
<circle clip-path="url(#clip342)" cx="1486.29" cy="87.9854" r="14.4" fill="#e26f46" fill-rule="evenodd" fill-opacity="1" stroke="#000000" stroke-opacity="1" stroke-width="3.2"/>
<circle clip-path="url(#clip342)" cx="1506.93" cy="87.985" r="14.4" fill="#e26f46" fill-rule="evenodd" fill-opacity="1" stroke="#000000" stroke-opacity="1" stroke-width="3.2"/>
<circle clip-path="url(#clip342)" cx="1527.58" cy="87.9847" r="14.4" fill="#e26f46" fill-rule="evenodd" fill-opacity="1" stroke="#000000" stroke-opacity="1" stroke-width="3.2"/>
<circle clip-path="url(#clip342)" cx="1548.22" cy="87.9844" r="14.4" fill="#e26f46" fill-rule="evenodd" fill-opacity="1" stroke="#000000" stroke-opacity="1" stroke-width="3.2"/>
<circle clip-path="url(#clip342)" cx="1568.87" cy="87.9842" r="14.4" fill="#e26f46" fill-rule="evenodd" fill-opacity="1" stroke="#000000" stroke-opacity="1" stroke-width="3.2"/>
<circle clip-path="url(#clip342)" cx="1589.51" cy="87.984" r="14.4" fill="#e26f46" fill-rule="evenodd" fill-opacity="1" stroke="#000000" stroke-opacity="1" stroke-width="3.2"/>
<circle clip-path="url(#clip342)" cx="1610.16" cy="87.9839" r="14.4" fill="#e26f46" fill-rule="evenodd" fill-opacity="1" stroke="#000000" stroke-opacity="1" stroke-width="3.2"/>
<circle clip-path="url(#clip342)" cx="1630.8" cy="87.9838" r="14.4" fill="#e26f46" fill-rule="evenodd" fill-opacity="1" stroke="#000000" stroke-opacity="1" stroke-width="3.2"/>
<circle clip-path="url(#clip342)" cx="1651.45" cy="87.9837" r="14.4" fill="#e26f46" fill-rule="evenodd" fill-opacity="1" stroke="#000000" stroke-opacity="1" stroke-width="3.2"/>
<circle clip-path="url(#clip342)" cx="1672.09" cy="87.9836" r="14.4" fill="#e26f46" fill-rule="evenodd" fill-opacity="1" stroke="#000000" stroke-opacity="1" stroke-width="3.2"/>
<circle clip-path="url(#clip342)" cx="1692.74" cy="87.9835" r="14.4" fill="#e26f46" fill-rule="evenodd" fill-opacity="1" stroke="#000000" stroke-opacity="1" stroke-width="3.2"/>
<circle clip-path="url(#clip342)" cx="1713.38" cy="87.9835" r="14.4" fill="#e26f46" fill-rule="evenodd" fill-opacity="1" stroke="#000000" stroke-opacity="1" stroke-width="3.2"/>
<circle clip-path="url(#clip342)" cx="1734.03" cy="87.9835" r="14.4" fill="#e26f46" fill-rule="evenodd" fill-opacity="1" stroke="#000000" stroke-opacity="1" stroke-width="3.2"/>
<circle clip-path="url(#clip342)" cx="1754.67" cy="87.9834" r="14.4" fill="#e26f46" fill-rule="evenodd" fill-opacity="1" stroke="#000000" stroke-opacity="1" stroke-width="3.2"/>
<circle clip-path="url(#clip342)" cx="1775.32" cy="87.9834" r="14.4" fill="#e26f46" fill-rule="evenodd" fill-opacity="1" stroke="#000000" stroke-opacity="1" stroke-width="3.2"/>
<circle clip-path="url(#clip342)" cx="1795.96" cy="87.9834" r="14.4" fill="#e26f46" fill-rule="evenodd" fill-opacity="1" stroke="#000000" stroke-opacity="1" stroke-width="3.2"/>
<circle clip-path="url(#clip342)" cx="1816.61" cy="87.9834" r="14.4" fill="#e26f46" fill-rule="evenodd" fill-opacity="1" stroke="#000000" stroke-opacity="1" stroke-width="3.2"/>
<circle clip-path="url(#clip342)" cx="1837.25" cy="87.9834" r="14.4" fill="#e26f46" fill-rule="evenodd" fill-opacity="1" stroke="#000000" stroke-opacity="1" stroke-width="3.2"/>
<circle clip-path="url(#clip342)" cx="1857.9" cy="87.9834" r="14.4" fill="#e26f46" fill-rule="evenodd" fill-opacity="1" stroke="#000000" stroke-opacity="1" stroke-width="3.2"/>
<circle clip-path="url(#clip342)" cx="1878.54" cy="87.9833" r="14.4" fill="#e26f46" fill-rule="evenodd" fill-opacity="1" stroke="#000000" stroke-opacity="1" stroke-width="3.2"/>
<circle clip-path="url(#clip342)" cx="1899.19" cy="87.9833" r="14.4" fill="#e26f46" fill-rule="evenodd" fill-opacity="1" stroke="#000000" stroke-opacity="1" stroke-width="3.2"/>
<circle clip-path="url(#clip342)" cx="1919.83" cy="87.9833" r="14.4" fill="#e26f46" fill-rule="evenodd" fill-opacity="1" stroke="#000000" stroke-opacity="1" stroke-width="3.2"/>
<circle clip-path="url(#clip342)" cx="1940.48" cy="87.9833" r="14.4" fill="#e26f46" fill-rule="evenodd" fill-opacity="1" stroke="#000000" stroke-opacity="1" stroke-width="3.2"/>
<circle clip-path="url(#clip342)" cx="1961.12" cy="87.9833" r="14.4" fill="#e26f46" fill-rule="evenodd" fill-opacity="1" stroke="#000000" stroke-opacity="1" stroke-width="3.2"/>
<circle clip-path="url(#clip342)" cx="1981.77" cy="87.9833" r="14.4" fill="#e26f46" fill-rule="evenodd" fill-opacity="1" stroke="#000000" stroke-opacity="1" stroke-width="3.2"/>
<circle clip-path="url(#clip342)" cx="2002.41" cy="87.9833" r="14.4" fill="#e26f46" fill-rule="evenodd" fill-opacity="1" stroke="#000000" stroke-opacity="1" stroke-width="3.2"/>
<circle clip-path="url(#clip342)" cx="2023.06" cy="87.9833" r="14.4" fill="#e26f46" fill-rule="evenodd" fill-opacity="1" stroke="#000000" stroke-opacity="1" stroke-width="3.2"/>
<circle clip-path="url(#clip342)" cx="2043.7" cy="87.9833" r="14.4" fill="#e26f46" fill-rule="evenodd" fill-opacity="1" stroke="#000000" stroke-opacity="1" stroke-width="3.2"/>
<circle clip-path="url(#clip342)" cx="2064.35" cy="87.9833" r="14.4" fill="#e26f46" fill-rule="evenodd" fill-opacity="1" stroke="#000000" stroke-opacity="1" stroke-width="3.2"/>
<circle clip-path="url(#clip342)" cx="2084.99" cy="87.9833" r="14.4" fill="#e26f46" fill-rule="evenodd" fill-opacity="1" stroke="#000000" stroke-opacity="1" stroke-width="3.2"/>
<circle clip-path="url(#clip342)" cx="2105.64" cy="87.9833" r="14.4" fill="#e26f46" fill-rule="evenodd" fill-opacity="1" stroke="#000000" stroke-opacity="1" stroke-width="3.2"/>
<circle clip-path="url(#clip342)" cx="2126.28" cy="87.9833" r="14.4" fill="#e26f46" fill-rule="evenodd" fill-opacity="1" stroke="#000000" stroke-opacity="1" stroke-width="3.2"/>
<circle clip-path="url(#clip342)" cx="2146.93" cy="87.9833" r="14.4" fill="#e26f46" fill-rule="evenodd" fill-opacity="1" stroke="#000000" stroke-opacity="1" stroke-width="3.2"/>
<circle clip-path="url(#clip342)" cx="2167.57" cy="87.9833" r="14.4" fill="#e26f46" fill-rule="evenodd" fill-opacity="1" stroke="#000000" stroke-opacity="1" stroke-width="3.2"/>
<circle clip-path="url(#clip342)" cx="2188.22" cy="87.9833" r="14.4" fill="#e26f46" fill-rule="evenodd" fill-opacity="1" stroke="#000000" stroke-opacity="1" stroke-width="3.2"/>
<circle clip-path="url(#clip342)" cx="2208.86" cy="87.9833" r="14.4" fill="#e26f46" fill-rule="evenodd" fill-opacity="1" stroke="#000000" stroke-opacity="1" stroke-width="3.2"/>
<circle clip-path="url(#clip342)" cx="2229.51" cy="87.9833" r="14.4" fill="#e26f46" fill-rule="evenodd" fill-opacity="1" stroke="#000000" stroke-opacity="1" stroke-width="3.2"/>
<circle clip-path="url(#clip342)" cx="2250.15" cy="87.9833" r="14.4" fill="#e26f46" fill-rule="evenodd" fill-opacity="1" stroke="#000000" stroke-opacity="1" stroke-width="3.2"/>
<circle clip-path="url(#clip342)" cx="2270.8" cy="87.9833" r="14.4" fill="#e26f46" fill-rule="evenodd" fill-opacity="1" stroke="#000000" stroke-opacity="1" stroke-width="3.2"/>
<circle clip-path="url(#clip342)" cx="2291.44" cy="87.9833" r="14.4" fill="#e26f46" fill-rule="evenodd" fill-opacity="1" stroke="#000000" stroke-opacity="1" stroke-width="3.2"/>
<path clip-path="url(#clip340)" d="M2011.46 1438.47 L2280.54 1438.47 L2280.54 1282.95 L2011.46 1282.95  Z" fill="#ffffff" fill-rule="evenodd" fill-opacity="1"/>
<polyline clip-path="url(#clip340)" style="stroke:#000000; stroke-linecap:round; stroke-linejoin:round; stroke-width:4; stroke-opacity:1; fill:none" points="2011.46,1438.47 2280.54,1438.47 2280.54,1282.95 2011.46,1282.95 2011.46,1438.47 "/>
<polyline clip-path="url(#clip340)" style="stroke:#009af9; stroke-linecap:round; stroke-linejoin:round; stroke-width:4; stroke-opacity:1; fill:none" points="2035.53,1334.79 2179.97,1334.79 "/>
<path clip-path="url(#clip340)" d="M2217.88 1354.48 Q2216.07 1359.11 2214.36 1360.52 Q2212.65 1361.94 2209.78 1361.94 L2206.38 1361.94 L2206.38 1358.37 L2208.88 1358.37 Q2210.63 1358.37 2211.61 1357.54 Q2212.58 1356.7 2213.76 1353.6 L2214.52 1351.66 L2204.04 1326.15 L2208.55 1326.15 L2216.65 1346.43 L2224.76 1326.15 L2229.27 1326.15 L2217.88 1354.48 Z" fill="#000000" fill-rule="nonzero" fill-opacity="1" /><path clip-path="url(#clip340)" d="M2236.56 1348.14 L2244.2 1348.14 L2244.2 1321.77 L2235.89 1323.44 L2235.89 1319.18 L2244.15 1317.51 L2248.83 1317.51 L2248.83 1348.14 L2256.47 1348.14 L2256.47 1352.07 L2236.56 1352.07 L2236.56 1348.14 Z" fill="#000000" fill-rule="nonzero" fill-opacity="1" /><circle clip-path="url(#clip340)" cx="2107.75" cy="1386.63" r="20.48" fill="#e26f46" fill-rule="evenodd" fill-opacity="1" stroke="#000000" stroke-opacity="1" stroke-width="4.55111"/>
<path clip-path="url(#clip340)" d="M2217.88 1406.32 Q2216.07 1410.95 2214.36 1412.36 Q2212.65 1413.78 2209.78 1413.78 L2206.38 1413.78 L2206.38 1410.21 L2208.88 1410.21 Q2210.63 1410.21 2211.61 1409.38 Q2212.58 1408.54 2213.76 1405.44 L2214.52 1403.5 L2204.04 1377.99 L2208.55 1377.99 L2216.65 1398.27 L2224.76 1377.99 L2229.27 1377.99 L2217.88 1406.32 Z" fill="#000000" fill-rule="nonzero" fill-opacity="1" /><path clip-path="url(#clip340)" d="M2239.78 1399.98 L2256.1 1399.98 L2256.1 1403.91 L2234.15 1403.91 L2234.15 1399.98 Q2236.82 1397.22 2241.4 1392.6 Q2246 1387.94 2247.19 1386.6 Q2249.43 1384.08 2250.31 1382.34 Q2251.21 1380.58 2251.21 1378.89 Q2251.21 1376.14 2249.27 1374.4 Q2247.35 1372.66 2244.25 1372.66 Q2242.05 1372.66 2239.59 1373.43 Q2237.16 1374.19 2234.38 1375.74 L2234.38 1371.02 Q2237.21 1369.89 2239.66 1369.31 Q2242.12 1368.73 2244.15 1368.73 Q2249.52 1368.73 2252.72 1371.41 Q2255.91 1374.1 2255.91 1378.59 Q2255.91 1380.72 2255.1 1382.64 Q2254.32 1384.54 2252.21 1387.13 Q2251.63 1387.8 2248.53 1391.02 Q2245.43 1394.22 2239.78 1399.98 Z" fill="#000000" fill-rule="nonzero" fill-opacity="1" /></svg>
