<?xml version="1.0" encoding="utf-8"?>
<svg xmlns="http://www.w3.org/2000/svg" xmlns:xlink="http://www.w3.org/1999/xlink" width="600" height="400" viewBox="0 0 2400 1600">
<defs>
  <clipPath id="clip700">
    <rect x="0" y="0" width="2400" height="1600"/>
  </clipPath>
</defs>
<path clip-path="url(#clip700)" d="M0 1600 L2400 1600 L2400 0 L0 0  Z" fill="#ffffff" fill-rule="evenodd" fill-opacity="1"/>
<defs>
  <clipPath id="clip701">
    <rect x="480" y="0" width="1681" height="1600"/>
  </clipPath>
</defs>
<path clip-path="url(#clip700)" d="M149.191 1423.18 L2352.76 1423.18 L2352.76 47.2441 L149.191 47.2441  Z" fill="#ffffff" fill-rule="evenodd" fill-opacity="1"/>
<defs>
  <clipPath id="clip702">
    <rect x="149" y="47" width="2205" height="1377"/>
  </clipPath>
</defs>
<polyline clip-path="url(#clip702)" style="stroke:#000000; stroke-linecap:round; stroke-linejoin:round; stroke-width:2; stroke-opacity:0.1; fill:none" points="149.191,1423.18 149.191,47.2441 "/>
<polyline clip-path="url(#clip702)" style="stroke:#000000; stroke-linecap:round; stroke-linejoin:round; stroke-width:2; stroke-opacity:0.1; fill:none" points="700.082,1423.18 700.082,47.2441 "/>
<polyline clip-path="url(#clip702)" style="stroke:#000000; stroke-linecap:round; stroke-linejoin:round; stroke-width:2; stroke-opacity:0.1; fill:none" points="1250.97,1423.18 1250.97,47.2441 "/>
<polyline clip-path="url(#clip702)" style="stroke:#000000; stroke-linecap:round; stroke-linejoin:round; stroke-width:2; stroke-opacity:0.1; fill:none" points="1801.86,1423.18 1801.86,47.2441 "/>
<polyline clip-path="url(#clip702)" style="stroke:#000000; stroke-linecap:round; stroke-linejoin:round; stroke-width:2; stroke-opacity:0.1; fill:none" points="2352.76,1423.18 2352.76,47.2441 "/>
<polyline clip-path="url(#clip702)" style="stroke:#000000; stroke-linecap:round; stroke-linejoin:round; stroke-width:2; stroke-opacity:0.1; fill:none" points="149.191,1423.18 2352.76,1423.18 "/>
<polyline clip-path="url(#clip702)" style="stroke:#000000; stroke-linecap:round; stroke-linejoin:round; stroke-width:2; stroke-opacity:0.1; fill:none" points="149.191,1193.86 2352.76,1193.86 "/>
<polyline clip-path="url(#clip702)" style="stroke:#000000; stroke-linecap:round; stroke-linejoin:round; stroke-width:2; stroke-opacity:0.1; fill:none" points="149.191,964.535 2352.76,964.535 "/>
<polyline clip-path="url(#clip702)" style="stroke:#000000; stroke-linecap:round; stroke-linejoin:round; stroke-width:2; stroke-opacity:0.1; fill:none" points="149.191,735.212 2352.76,735.212 "/>
<polyline clip-path="url(#clip702)" style="stroke:#000000; stroke-linecap:round; stroke-linejoin:round; stroke-width:2; stroke-opacity:0.1; fill:none" points="149.191,505.889 2352.76,505.889 "/>
<polyline clip-path="url(#clip702)" style="stroke:#000000; stroke-linecap:round; stroke-linejoin:round; stroke-width:2; stroke-opacity:0.1; fill:none" points="149.191,276.567 2352.76,276.567 "/>
<polyline clip-path="url(#clip702)" style="stroke:#000000; stroke-linecap:round; stroke-linejoin:round; stroke-width:2; stroke-opacity:0.1; fill:none" points="149.191,47.2441 2352.76,47.2441 "/>
<polyline clip-path="url(#clip700)" style="stroke:#000000; stroke-linecap:round; stroke-linejoin:round; stroke-width:4; stroke-opacity:1; fill:none" points="149.191,1423.18 2352.76,1423.18 "/>
<polyline clip-path="url(#clip700)" style="stroke:#000000; stroke-linecap:round; stroke-linejoin:round; stroke-width:4; stroke-opacity:1; fill:none" points="149.191,1423.18 149.191,1404.28 "/>
<polyline clip-path="url(#clip700)" style="stroke:#000000; stroke-linecap:round; stroke-linejoin:round; stroke-width:4; stroke-opacity:1; fill:none" points="700.082,1423.18 700.082,1404.28 "/>
<polyline clip-path="url(#clip700)" style="stroke:#000000; stroke-linecap:round; stroke-linejoin:round; stroke-width:4; stroke-opacity:1; fill:none" points="1250.97,1423.18 1250.97,1404.28 "/>
<polyline clip-path="url(#clip700)" style="stroke:#000000; stroke-linecap:round; stroke-linejoin:round; stroke-width:4; stroke-opacity:1; fill:none" points="1801.86,1423.18 1801.86,1404.28 "/>
<polyline clip-path="url(#clip700)" style="stroke:#000000; stroke-linecap:round; stroke-linejoin:round; stroke-width:4; stroke-opacity:1; fill:none" points="2352.76,1423.18 2352.76,1404.28 "/>
<path clip-path="url(#clip700)" d="M149.191 1454.1 Q145.58 1454.1 143.751 1457.66 Q141.946 1461.2 141.946 1468.33 Q141.946 1475.44 143.751 1479.01 Q145.58 1482.55 149.191 1482.55 Q152.825 1482.55 154.631 1479.01 Q156.459 1475.44 156.459 1468.33 Q156.459 1461.2 154.631 1457.66 Q152.825 1454.1 149.191 1454.1 M149.191 1450.39 Q155.001 1450.39 158.057 1455 Q161.135 1459.58 161.135 1468.33 Q161.135 1477.06 158.057 1481.67 Q155.001 1486.25 149.191 1486.25 Q143.381 1486.25 140.302 1481.67 Q137.246 1477.06 137.246 1468.33 Q137.246 1459.58 140.302 1455 Q143.381 1450.39 149.191 1450.39 Z" fill="#000000" fill-rule="nonzero" fill-opacity="1" /><path clip-path="url(#clip700)" d="M694.735 1481.64 L711.054 1481.64 L711.054 1485.58 L689.11 1485.58 L689.11 1481.64 Q691.772 1478.89 696.355 1474.26 Q700.962 1469.61 702.142 1468.27 Q704.388 1465.74 705.267 1464.01 Q706.17 1462.25 706.17 1460.56 Q706.17 1457.8 704.226 1456.07 Q702.304 1454.33 699.203 1454.33 Q697.003 1454.33 694.55 1455.09 Q692.119 1455.86 689.341 1457.41 L689.341 1452.69 Q692.166 1451.55 694.619 1450.97 Q697.073 1450.39 699.11 1450.39 Q704.48 1450.39 707.675 1453.08 Q710.869 1455.77 710.869 1460.26 Q710.869 1462.39 710.059 1464.31 Q709.272 1466.2 707.165 1468.8 Q706.587 1469.47 703.485 1472.69 Q700.383 1475.88 694.735 1481.64 Z" fill="#000000" fill-rule="nonzero" fill-opacity="1" /><path clip-path="url(#clip700)" d="M1253.98 1455.09 L1242.18 1473.54 L1253.98 1473.54 L1253.98 1455.09 M1252.76 1451.02 L1258.64 1451.02 L1258.64 1473.54 L1263.57 1473.54 L1263.57 1477.43 L1258.64 1477.43 L1258.64 1485.58 L1253.98 1485.58 L1253.98 1477.43 L1238.38 1477.43 L1238.38 1472.92 L1252.76 1451.02 Z" fill="#000000" fill-rule="nonzero" fill-opacity="1" /><path clip-path="url(#clip700)" d="M1802.27 1466.44 Q1799.12 1466.44 1797.27 1468.59 Q1795.44 1470.74 1795.44 1474.49 Q1795.44 1478.22 1797.27 1480.39 Q1799.12 1482.55 1802.27 1482.55 Q1805.42 1482.55 1807.25 1480.39 Q1809.1 1478.22 1809.1 1474.49 Q1809.1 1470.74 1807.25 1468.59 Q1805.42 1466.44 1802.27 1466.44 M1811.55 1451.78 L1811.55 1456.04 Q1809.79 1455.21 1807.99 1454.77 Q1806.2 1454.33 1804.45 1454.33 Q1799.82 1454.33 1797.36 1457.45 Q1794.93 1460.58 1794.58 1466.9 Q1795.95 1464.89 1798.01 1463.82 Q1800.07 1462.73 1802.55 1462.73 Q1807.76 1462.73 1810.77 1465.9 Q1813.8 1469.05 1813.8 1474.49 Q1813.8 1479.82 1810.65 1483.03 Q1807.5 1486.25 1802.27 1486.25 Q1796.27 1486.25 1793.1 1481.67 Q1789.93 1477.06 1789.93 1468.33 Q1789.93 1460.14 1793.82 1455.28 Q1797.71 1450.39 1804.26 1450.39 Q1806.02 1450.39 1807.8 1450.74 Q1809.61 1451.09 1811.55 1451.78 Z" fill="#000000" fill-rule="nonzero" fill-opacity="1" /><path clip-path="url(#clip700)" d="M2352.76 1469.17 Q2349.42 1469.17 2347.5 1470.95 Q2345.6 1472.73 2345.6 1475.86 Q2345.6 1478.98 2347.5 1480.77 Q2349.42 1482.55 2352.76 1482.55 Q2356.09 1482.55 2358.01 1480.77 Q2359.93 1478.96 2359.93 1475.86 Q2359.93 1472.73 2358.01 1470.95 Q2356.11 1469.17 2352.76 1469.17 M2348.08 1467.18 Q2345.07 1466.44 2343.38 1464.38 Q2341.71 1462.32 2341.71 1459.35 Q2341.71 1455.21 2344.65 1452.8 Q2347.62 1450.39 2352.76 1450.39 Q2357.92 1450.39 2360.86 1452.8 Q2363.8 1455.21 2363.8 1459.35 Q2363.8 1462.32 2362.11 1464.38 Q2360.44 1466.44 2357.45 1467.18 Q2360.83 1467.96 2362.71 1470.26 Q2364.61 1472.55 2364.61 1475.86 Q2364.61 1480.88 2361.53 1483.57 Q2358.47 1486.25 2352.76 1486.25 Q2347.04 1486.25 2343.96 1483.57 Q2340.9 1480.88 2340.9 1475.86 Q2340.9 1472.55 2342.8 1470.26 Q2344.7 1467.96 2348.08 1467.18 M2346.37 1459.79 Q2346.37 1462.48 2348.03 1463.98 Q2349.72 1465.49 2352.76 1465.49 Q2355.77 1465.49 2357.45 1463.98 Q2359.17 1462.48 2359.17 1459.79 Q2359.17 1457.11 2357.45 1455.6 Q2355.77 1454.1 2352.76 1454.1 Q2349.72 1454.1 2348.03 1455.6 Q2346.37 1457.11 2346.37 1459.79 Z" fill="#000000" fill-rule="nonzero" fill-opacity="1" /><path clip-path="url(#clip700)" d="M1250.03 1522.27 L1250.03 1532.4 L1262.1 1532.4 L1262.1 1536.95 L1250.03 1536.95 L1250.03 1556.3 Q1250.03 1560.66 1251.21 1561.9 Q1252.42 1563.14 1256.08 1563.14 L1262.1 1563.14 L1262.1 1568.04 L1256.08 1568.04 Q1249.3 1568.04 1246.72 1565.53 Q1244.15 1562.98 1244.15 1556.3 L1244.15 1536.95 L1239.85 1536.95 L1239.85 1532.4 L1244.15 1532.4 L1244.15 1522.27 L1250.03 1522.27 Z" fill="#000000" fill-rule="nonzero" fill-opacity="1" /><polyline clip-path="url(#clip700)" style="stroke:#000000; stroke-linecap:round; stroke-linejoin:round; stroke-width:4; stroke-opacity:1; fill:none" points="149.191,1423.18 149.191,47.2441 "/>
<polyline clip-path="url(#clip700)" style="stroke:#000000; stroke-linecap:round; stroke-linejoin:round; stroke-width:4; stroke-opacity:1; fill:none" points="149.191,1423.18 168.089,1423.18 "/>
<polyline clip-path="url(#clip700)" style="stroke:#000000; stroke-linecap:round; stroke-linejoin:round; stroke-width:4; stroke-opacity:1; fill:none" points="149.191,1193.86 168.089,1193.86 "/>
<polyline clip-path="url(#clip700)" style="stroke:#000000; stroke-linecap:round; stroke-linejoin:round; stroke-width:4; stroke-opacity:1; fill:none" points="149.191,964.535 168.089,964.535 "/>
<polyline clip-path="url(#clip700)" style="stroke:#000000; stroke-linecap:round; stroke-linejoin:round; stroke-width:4; stroke-opacity:1; fill:none" points="149.191,735.212 168.089,735.212 "/>
<polyline clip-path="url(#clip700)" style="stroke:#000000; stroke-linecap:round; stroke-linejoin:round; stroke-width:4; stroke-opacity:1; fill:none" points="149.191,505.889 168.089,505.889 "/>
<polyline clip-path="url(#clip700)" style="stroke:#000000; stroke-linecap:round; stroke-linejoin:round; stroke-width:4; stroke-opacity:1; fill:none" points="149.191,276.567 168.089,276.567 "/>
<polyline clip-path="url(#clip700)" style="stroke:#000000; stroke-linecap:round; stroke-linejoin:round; stroke-width:4; stroke-opacity:1; fill:none" points="149.191,47.2441 168.089,47.2441 "/>
<path clip-path="url(#clip700)" d="M51.3162 1423.63 L80.992 1423.63 L80.992 1427.57 L51.3162 1427.57 L51.3162 1423.63 Z" fill="#000000" fill-rule="nonzero" fill-opacity="1" /><path clip-path="url(#clip700)" d="M101.663 1421.32 Q98.515 1421.32 96.6632 1423.47 Q94.8345 1425.62 94.8345 1429.37 Q94.8345 1433.1 96.6632 1435.27 Q98.515 1437.43 101.663 1437.43 Q104.811 1437.43 106.64 1435.27 Q108.492 1433.1 108.492 1429.37 Q108.492 1425.62 106.64 1423.47 Q104.811 1421.32 101.663 1421.32 M110.946 1406.66 L110.946 1410.92 Q109.186 1410.09 107.381 1409.65 Q105.598 1409.21 103.839 1409.21 Q99.2095 1409.21 96.7558 1412.33 Q94.3252 1415.46 93.978 1421.78 Q95.3437 1419.77 97.4039 1418.7 Q99.4641 1417.61 101.941 1417.61 Q107.149 1417.61 110.158 1420.78 Q113.191 1423.93 113.191 1429.37 Q113.191 1434.7 110.043 1437.91 Q106.895 1441.13 101.663 1441.13 Q95.6678 1441.13 92.4965 1436.55 Q89.3253 1431.94 89.3253 1423.21 Q89.3253 1415.02 93.2141 1410.16 Q97.103 1405.27 103.654 1405.27 Q105.413 1405.27 107.196 1405.62 Q109.001 1405.97 110.946 1406.66 Z" fill="#000000" fill-rule="nonzero" fill-opacity="1" /><path clip-path="url(#clip700)" d="M50.9921 1194.31 L80.6679 1194.31 L80.6679 1198.24 L50.9921 1198.24 L50.9921 1194.31 Z" fill="#000000" fill-rule="nonzero" fill-opacity="1" /><path clip-path="url(#clip700)" d="M103.608 1180.65 L91.8021 1199.1 L103.608 1199.1 L103.608 1180.65 M102.381 1176.58 L108.26 1176.58 L108.26 1199.1 L113.191 1199.1 L113.191 1202.99 L108.26 1202.99 L108.26 1211.14 L103.608 1211.14 L103.608 1202.99 L88.0058 1202.99 L88.0058 1198.48 L102.381 1176.58 Z" fill="#000000" fill-rule="nonzero" fill-opacity="1" /><path clip-path="url(#clip700)" d="M53.0754 964.986 L82.7512 964.986 L82.7512 968.921 L53.0754 968.921 L53.0754 964.986 Z" fill="#000000" fill-rule="nonzero" fill-opacity="1" /><path clip-path="url(#clip700)" d="M96.8715 977.879 L113.191 977.879 L113.191 981.815 L91.2465 981.815 L91.2465 977.879 Q93.9086 975.125 98.4919 970.495 Q103.098 965.842 104.279 964.5 Q106.524 961.977 107.404 960.241 Q108.307 958.481 108.307 956.792 Q108.307 954.037 106.362 952.301 Q104.441 950.565 101.339 950.565 Q99.14 950.565 96.6863 951.329 Q94.2558 952.093 91.478 953.643 L91.478 948.921 Q94.3021 947.787 96.7558 947.208 Q99.2095 946.63 101.246 946.63 Q106.617 946.63 109.811 949.315 Q113.006 952 113.006 956.491 Q113.006 958.62 112.196 960.542 Q111.408 962.44 109.302 965.032 Q108.723 965.704 105.621 968.921 Q102.52 972.116 96.8715 977.879 Z" fill="#000000" fill-rule="nonzero" fill-opacity="1" /><path clip-path="url(#clip700)" d="M101.246 721.011 Q97.6354 721.011 95.8067 724.575 Q94.0012 728.117 94.0012 735.247 Q94.0012 742.353 95.8067 745.918 Q97.6354 749.46 101.246 749.46 Q104.881 749.46 106.686 745.918 Q108.515 742.353 108.515 735.247 Q108.515 728.117 106.686 724.575 Q104.881 721.011 101.246 721.011 M101.246 717.307 Q107.057 717.307 110.112 721.913 Q113.191 726.497 113.191 735.247 Q113.191 743.973 110.112 748.58 Q107.057 753.163 101.246 753.163 Q95.4363 753.163 92.3576 748.58 Q89.3021 743.973 89.3021 735.247 Q89.3021 726.497 92.3576 721.913 Q95.4363 717.307 101.246 717.307 Z" fill="#000000" fill-rule="nonzero" fill-opacity="1" /><path clip-path="url(#clip700)" d="M96.8715 519.234 L113.191 519.234 L113.191 523.169 L91.2465 523.169 L91.2465 519.234 Q93.9086 516.48 98.4919 511.85 Q103.098 507.197 104.279 505.855 Q106.524 503.331 107.404 501.595 Q108.307 499.836 108.307 498.146 Q108.307 495.392 106.362 493.656 Q104.441 491.92 101.339 491.92 Q99.14 491.92 96.6863 492.683 Q94.2558 493.447 91.478 494.998 L91.478 490.276 Q94.3021 489.142 96.7558 488.563 Q99.2095 487.984 101.246 487.984 Q106.617 487.984 109.811 490.67 Q113.006 493.355 113.006 497.845 Q113.006 499.975 112.196 501.896 Q111.408 503.794 109.302 506.387 Q108.723 507.058 105.621 510.276 Q102.52 513.47 96.8715 519.234 Z" fill="#000000" fill-rule="nonzero" fill-opacity="1" /><path clip-path="url(#clip700)" d="M103.608 263.361 L91.8021 281.81 L103.608 281.81 L103.608 263.361 M102.381 259.287 L108.26 259.287 L108.26 281.81 L113.191 281.81 L113.191 285.699 L108.26 285.699 L108.26 293.847 L103.608 293.847 L103.608 285.699 L88.0058 285.699 L88.0058 281.185 L102.381 259.287 Z" fill="#000000" fill-rule="nonzero" fill-opacity="1" /><path clip-path="url(#clip700)" d="M101.663 45.3807 Q98.515 45.3807 96.6632 47.5334 Q94.8345 49.6862 94.8345 53.4362 Q94.8345 57.163 96.6632 59.3389 Q98.515 61.4917 101.663 61.4917 Q104.811 61.4917 106.64 59.3389 Q108.492 57.163 108.492 53.4362 Q108.492 49.6862 106.64 47.5334 Q104.811 45.3807 101.663 45.3807 M110.946 30.728 L110.946 34.9872 Q109.186 34.1539 107.381 33.7141 Q105.598 33.2743 103.839 33.2743 Q99.2095 33.2743 96.7558 36.3992 Q94.3252 39.5242 93.978 45.8436 Q95.3437 43.8298 97.4039 42.765 Q99.4641 41.677 101.941 41.677 Q107.149 41.677 110.158 44.8483 Q113.191 47.9964 113.191 53.4362 Q113.191 58.7602 110.043 61.9778 Q106.895 65.1954 101.663 65.1954 Q95.6678 65.1954 92.4965 60.6121 Q89.3253 56.0056 89.3253 47.2788 Q89.3253 39.0844 93.2141 34.2233 Q97.103 29.3391 103.654 29.3391 Q105.413 29.3391 107.196 29.6863 Q109.001 30.0335 110.946 30.728 Z" fill="#000000" fill-rule="nonzero" fill-opacity="1" /><polyline clip-path="url(#clip702)" style="stroke:#009af9; stroke-linecap:round; stroke-linejoin:round; stroke-width:12; stroke-opacity:1; fill:none" points="149.191,1193.86 151.945,1193.66 154.7,1193.08 157.454,1192.13 160.209,1190.82 162.963,1189.16 165.718,1187.18 168.472,1184.89 171.227,1182.31 173.981,1179.45 176.735,1176.34 179.49,1172.99 182.244,1169.42 184.999,1165.65 187.753,1161.71 190.508,1157.6 193.262,1153.35 196.017,1148.97 198.771,1144.49 201.526,1139.9 204.28,1135.24 207.034,1130.51 209.789,1125.72 212.543,1120.88 215.298,1116.01 218.052,1111.1 220.807,1106.18 223.561,1101.23 226.316,1096.28 229.07,1091.31 231.825,1086.34 234.579,1081.36 237.333,1076.39 240.088,1071.41 242.842,1066.42 245.597,1061.44 248.351,1056.46 251.106,1051.48 253.86,1046.5 256.615,1041.51 259.369,1036.53 262.124,1031.55 264.878,1026.57 267.632,1021.59 270.387,1016.61 273.141,1011.63 275.896,1006.66 278.65,1001.68 281.405,996.71 284.159,991.742 286.914,986.779 289.668,981.822 292.423,976.871 295.177,971.928 297.932,966.993 300.686,962.068 303.44,957.155 306.195,952.254 308.949,947.366 311.704,942.493 314.458,937.637 317.213,932.798 319.967,927.977 322.722,923.176 325.476,918.396 328.231,913.637 330.985,908.902 333.739,904.191 336.494,899.505 339.248,894.845 342.003,890.213 344.757,885.608 347.512,881.032 350.266,876.486 353.021,871.972 355.775,867.488 358.53,863.037 361.284,858.619 364.038,854.235 366.793,849.885 369.547,845.57 372.302,841.291 375.056,837.048 377.811,832.841 380.565,828.671 383.32,824.538 386.074,820.443 388.829,816.385 391.583,812.366 394.337,808.385 397.092,804.443 399.846,800.539 402.601,796.675 405.355,792.849 408.11,789.063 410.864,785.316 413.619,781.609 416.373,777.941 419.128,774.311 421.882,770.721 424.636,767.171 427.391,763.659 430.145,760.187 432.9,756.753 435.654,753.358 438.409,750.001 441.163,746.683 443.918,743.403 446.672,740.161 449.427,736.956 452.181,733.789 454.936,730.66 457.69,727.567 460.444,724.51 463.199,721.491 465.953,718.507 468.708,715.559 471.462,712.647 474.217,709.77 476.971,706.928 479.726,704.121 482.48,701.348 485.235,698.609 487.989,695.903 490.743,693.23 493.498,690.591 496.252,687.984 499.007,685.409 501.761,682.865 504.516,680.353 507.27,677.871 510.025,675.42 512.779,672.999 515.534,670.608 518.288,668.247 521.042,665.914 523.797,663.61 526.551,661.334 529.306,659.085 532.06,656.865 534.815,654.671 537.569,652.504 540.324,650.364 543.078,648.249 545.833,646.16 548.587,644.096 551.341,642.056 554.096,640.042 556.85,638.051 559.605,636.084 562.359,634.141 565.114,632.22 567.868,630.323 570.623,628.447 573.377,626.594 576.132,624.762 578.886,622.951 581.641,621.162 584.395,619.392 587.149,617.644 589.904,615.915 592.658,614.206 595.413,612.515 598.167,610.844 600.922,609.192 603.676,607.558 606.431,605.942 609.185,604.344 611.94,602.763 614.694,601.199 617.448,599.653 620.203,598.122 622.957,596.609 625.712,595.111 628.466,593.629 631.221,592.163 633.975,590.712 636.73,589.276 639.484,587.855 642.239,586.448 644.993,585.056 647.747,583.677 650.502,582.313 653.256,580.962 656.011,579.624 658.765,578.299 661.52,576.988 664.274,575.688 667.029,574.402 669.783,573.127 672.538,571.865 675.292,570.615 678.046,569.376 680.801,568.148 683.555,566.932 686.31,565.726 689.064,564.532 691.819,563.348 694.573,562.175 697.328,561.012 700.082,559.859 702.837,558.716 705.591,557.583 708.345,556.46 711.1,555.346 713.854,554.241 716.609,553.145 719.363,552.059 722.118,550.981 724.872,549.913 727.627,548.852 730.381,547.8 733.136,546.757 735.89,545.721 738.645,544.694 741.399,543.674 744.153,542.662 746.908,541.658 749.662,540.662 752.417,539.673 755.171,538.691 757.926,537.716 760.68,536.749 763.435,535.788 766.189,534.834 768.944,533.887 771.698,532.947 774.452,532.013 777.207,531.085 779.961,530.164 782.716,529.249 785.47,528.341 788.225,527.438 790.979,526.541 793.734,525.65 796.488,524.765 799.243,523.885 801.997,523.011 804.751,522.143 807.506,521.28 810.26,520.422 813.015,519.569 815.769,518.722 818.524,517.879 821.278,517.042 824.033,516.21 826.787,515.382 829.542,514.559 832.296,513.741 835.05,512.928 837.805,512.119 840.559,511.315 843.314,510.515 846.068,509.719 848.823,508.928 851.577,508.141 854.332,507.358 857.086,506.58 859.841,505.805 862.595,505.035 865.349,504.268 868.104,503.506 870.858,502.747 873.613,501.993 876.367,501.242 879.122,500.495 881.876,499.751 884.631,499.012 887.385,498.276 890.14,497.543 892.894,496.814 895.649,496.088 898.403,495.366 901.157,494.647 903.912,493.932 906.666,493.22 909.421,492.511 912.175,491.805 914.93,491.102 917.684,490.403 920.439,489.707 923.193,489.013 925.948,488.323 928.702,487.636 931.456,486.951 934.211,486.27 936.965,485.591 939.72,484.916 942.474,484.243 945.229,483.573 947.983,482.906 950.738,482.241 953.492,481.579 956.247,480.92 959.001,480.263 961.755,479.609 964.51,478.958 967.264,478.309 970.019,477.662 972.773,477.018 975.528,476.377 978.282,475.738 981.037,475.101 983.791,474.467 986.546,473.835 989.3,473.205 992.054,472.578 994.809,471.953 997.563,471.33 1000.32,470.709 1003.07,470.091 1005.83,469.475 1008.58,468.861 1011.34,468.249 1014.09,467.639 1016.84,467.031 1019.6,466.426 1022.35,465.822 1025.11,465.221 1027.86,464.621 1030.62,464.024 1033.37,463.428 1036.13,462.835 1038.88,462.243 1041.63,461.653 1044.39,461.066 1047.14,460.48 1049.9,459.896 1052.65,459.314 1055.41,458.734 1058.16,458.155 1060.92,457.579 1063.67,457.004 1066.42,456.431 1069.18,455.86 1071.93,455.291 1074.69,454.723 1077.44,454.157 1080.2,453.593 1082.95,453.031 1085.71,452.47 1088.46,451.911 1091.21,451.353 1093.97,450.798 1096.72,450.243 1099.48,449.691 1102.23,449.14 1104.99,448.591 1107.74,448.043 1110.5,447.497 1113.25,446.952 1116.01,446.409 1118.76,445.868 1121.51,445.328 1124.27,444.789 1127.02,444.252 1129.78,443.717 1132.53,443.183 1135.29,442.651 1138.04,442.12 1140.8,441.59 1143.55,441.062 1146.3,440.535 1149.06,440.01 1151.81,439.486 1154.57,438.964 1157.32,438.443 1160.08,437.923 1162.83,437.405 1165.59,436.888 1168.34,436.373 1171.09,435.859 1173.85,435.346 1176.6,434.834 1179.36,434.324 1182.11,433.815 1184.87,433.308 1187.62,432.802 1190.38,432.297 1193.13,431.793 1195.88,431.291 1198.64,430.79 1201.39,430.29 1204.15,429.791 1206.9,429.294 1209.66,428.798 1212.41,428.303 1215.17,427.809 1217.92,427.317 1220.67,426.826 1223.43,426.336 1226.18,425.847 1228.94,425.359 1231.69,424.873 1234.45,424.387 1237.2,423.903 1239.96,423.42 1242.71,422.939 1245.46,422.458 1248.22,421.979 1250.97,421.5 1253.73,421.023 1256.48,420.547 1259.24,420.072 1261.99,419.598 1264.75,419.126 1267.5,418.654 1270.25,418.184 1273.01,417.714 1275.76,417.246 1278.52,416.779 1281.27,416.313 1284.03,415.848 1286.78,415.384 1289.54,414.921 1292.29,414.46 1295.04,413.999 1297.8,413.539 1300.55,413.081 1303.31,412.624 1306.06,412.167 1308.82,411.712 1311.57,411.257 1314.33,410.804 1317.08,410.352 1319.83,409.901 1322.59,409.45 1325.34,409.001 1328.1,408.553 1330.85,408.106 1333.61,407.66 1336.36,407.214 1339.12,406.77 1341.87,406.327 1344.62,405.885 1347.38,405.444 1350.13,405.003 1352.89,404.564 1355.64,404.126 1358.4,403.689 1361.15,403.252 1363.91,402.817 1366.66,402.383 1369.41,401.949 1372.17,401.517 1374.92,401.085 1377.68,400.655 1380.43,400.225 1383.19,399.796 1385.94,399.369 1388.7,398.942 1391.45,398.516 1394.21,398.091 1396.96,397.667 1399.71,397.244 1402.47,396.822 1405.22,396.401 1407.98,395.98 1410.73,395.561 1413.49,395.142 1416.24,394.725 1419,394.308 1421.75,393.892 1424.5,393.477 1427.26,393.063 1430.01,392.65 1432.77,392.238 1435.52,391.827 1438.28,391.416 1441.03,391.007 1443.79,390.598 1446.54,390.19 1449.29,389.784 1452.05,389.378 1454.8,388.972 1457.56,388.568 1460.31,388.165 1463.07,387.762 1465.82,387.36 1468.58,386.96 1471.33,386.56 1474.08,386.16 1476.84,385.762 1479.59,385.365 1482.35,384.968 1485.1,384.572 1487.86,384.178 1490.61,383.784 1493.37,383.39 1496.12,382.998 1498.87,382.606 1501.63,382.216 1504.38,381.826 1507.14,381.437 1509.89,381.049 1512.65,380.661 1515.4,380.275 1518.16,379.889 1520.91,379.504 1523.66,379.12 1526.42,378.737 1529.17,378.354 1531.93,377.973 1534.68,377.592 1537.44,377.212 1540.19,376.833 1542.95,376.454 1545.7,376.077 1548.45,375.7 1551.21,375.324 1553.96,374.949 1556.72,374.574 1559.47,374.201 1562.23,373.828 1564.98,373.456 1567.74,373.085 1570.49,372.714 1573.24,372.345 1576,371.976 1578.75,371.608 1581.51,371.241 1584.26,370.875 1587.02,370.509 1589.77,370.144 1592.53,369.78 1595.28,369.417 1598.03,369.054 1600.79,368.693 1603.54,368.332 1606.3,367.972 1609.05,367.612 1611.81,367.254 1614.56,366.896 1617.32,366.539 1620.07,366.182 1622.82,365.827 1625.58,365.472 1628.33,365.118 1631.09,364.765 1633.84,364.412 1636.6,364.061 1639.35,363.71 1642.11,363.36 1644.86,363.01 1647.62,362.662 1650.37,362.314 1653.12,361.966 1655.88,361.62 1658.63,361.274 1661.39,360.93 1664.14,360.585 1666.9,360.242 1669.65,359.899 1672.41,359.558 1675.16,359.217 1677.91,358.876 1680.67,358.537 1683.42,358.198 1686.18,357.86 1688.93,357.522 1691.69,357.185 1694.44,356.85 1697.2,356.514 1699.95,356.18 1702.7,355.846 1705.46,355.513 1708.21,355.181 1710.97,354.85 1713.72,354.519 1716.48,354.189 1719.23,353.86 1721.99,353.531 1724.74,353.203 1727.49,352.876 1730.25,352.55 1733,352.224 1735.76,351.9 1738.51,351.575 1741.27,351.252 1744.02,350.929 1746.78,350.607 1749.53,350.286 1752.28,349.966 1755.04,349.646 1757.79,349.327 1760.55,349.008 1763.3,348.691 1766.06,348.374 1768.81,348.058 1771.57,347.742 1774.32,347.427 1777.07,347.113 1779.83,346.8 1782.58,346.487 1785.34,346.176 1788.09,345.864 1790.85,345.554 1793.6,345.244 1796.36,344.935 1799.11,344.627 1801.86,344.319 1804.62,344.012 1807.37,343.706 1810.13,343.401 1812.88,343.096 1815.64,342.792 1818.39,342.488 1821.15,342.186 1823.9,341.884 1826.65,341.582 1829.41,341.282 1832.16,340.982 1834.92,340.683 1837.67,340.385 1840.43,340.087 1843.18,339.79 1845.94,339.493 1848.69,339.198 1851.44,338.903 1854.2,338.609 1856.95,338.315 1859.71,338.022 1862.46,337.73 1865.22,337.439 1867.97,337.148 1870.73,336.858 1873.48,336.569 1876.23,336.28 1878.99,335.992 1881.74,335.705 1884.5,335.418 1887.25,335.132 1890.01,334.847 1892.76,334.563 1895.52,334.279 1898.27,333.996 1901.03,333.713 1903.78,333.432 1906.53,333.151 1909.29,332.87 1912.04,332.591 1914.8,332.312 1917.55,332.033 1920.31,331.756 1923.06,331.479 1925.82,331.203 1928.57,330.927 1931.32,330.652 1934.08,330.378 1936.83,330.105 1939.59,329.832 1942.34,329.56 1945.1,329.288 1947.85,329.018 1950.61,328.748 1953.36,328.478 1956.11,328.21 1958.87,327.942 1961.62,327.675 1964.38,327.408 1967.13,327.142 1969.89,326.877 1972.64,326.612 1975.4,326.348 1978.15,326.085 1980.9,325.822 1983.66,325.561 1986.41,325.299 1989.17,325.039 1991.92,324.779 1994.68,324.52 1997.43,324.262 2000.19,324.004 2002.94,323.747 2005.69,323.49 2008.45,323.235 2011.2,322.98 2013.96,322.725 2016.71,322.472 2019.47,322.218 2022.22,321.966 2024.98,321.714 2027.73,321.463 2030.48,321.213 2033.24,320.963 2035.99,320.714 2038.75,320.466 2041.5,320.219 2044.26,319.972 2047.01,319.725 2049.77,319.48 2052.52,319.235 2055.27,318.99 2058.03,318.747 2060.78,318.504 2063.54,318.262 2066.29,318.02 2069.05,317.779 2071.8,317.539 2074.56,317.299 2077.31,317.06 2080.06,316.822 2082.82,316.585 2085.57,316.348 2088.33,316.112 2091.08,315.876 2093.84,315.641 2096.59,315.407 2099.35,315.173 2102.1,314.94 2104.85,314.708 2107.61,314.477 2110.36,314.246 2113.12,314.016 2115.87,313.786 2118.63,313.557 2121.38,313.329 2124.14,313.101 2126.89,312.874 2129.64,312.648 2132.4,312.423 2135.15,312.198 2137.91,311.974 2140.66,311.75 2143.42,311.527 2146.17,311.305 2148.93,311.083 2151.68,310.862 2154.44,310.642 2157.19,310.423 2159.94,310.204 2162.7,309.985 2165.45,309.768 2168.21,309.551 2170.96,309.335 2173.72,309.119 2176.47,308.904 2179.23,308.69 2181.98,308.476 2184.73,308.263 2187.49,308.051 2190.24,307.839 2193,307.628 2195.75,307.418 2198.51,307.208 2201.26,306.999 2204.02,306.791 2206.77,306.583 2209.52,306.376 2212.28,306.17 2215.03,305.964 2217.79,305.759 2220.54,305.555 2223.3,305.351 2226.05,305.148 2228.81,304.945 2231.56,304.744 2234.31,304.543 2237.07,304.342 2239.82,304.142 2242.58,303.943 2245.33,303.745 2248.09,303.547 2250.84,303.35 2253.6,303.153 2256.35,302.958 2259.1,302.762 2261.86,302.568 2264.61,302.374 2267.37,302.181 2270.12,301.988 2272.88,301.796 2275.63,301.605 2278.39,301.414 2281.14,301.225 2283.89,301.035 2286.65,300.847 2289.4,300.659 2292.16,300.471 2294.91,300.285 2297.67,300.099 2300.42,299.913 2303.18,299.729 2305.93,299.545 2308.68,299.361 2311.44,299.178 2314.19,298.996 2316.95,298.815 2319.7,298.634 2322.46,298.454 2325.21,298.275 2327.97,298.096 2330.72,297.918 2333.47,297.74 2336.23,297.563 2338.98,297.387 2341.74,297.212 2344.49,297.037 2347.25,296.862 2350,296.689 2352.76,296.516 "/>
<polyline clip-path="url(#clip702)" style="stroke:#e26f46; stroke-linecap:round; stroke-linejoin:round; stroke-width:12; stroke-opacity:1; fill:none" points="149.191,735.212 151.945,696.12 154.7,658.263 157.454,621.753 160.209,586.697 162.963,553.196 165.718,521.34 168.472,491.209 171.227,462.869 173.981,436.374 176.735,411.762 179.49,389.053 182.244,368.251 184.999,349.341 187.753,332.291 190.508,317.055 193.262,303.563 196.017,291.726 198.771,281.45 201.526,272.631 204.28,265.159 207.034,258.914 209.789,253.768 212.543,249.589 215.298,246.256 218.052,243.646 220.807,241.646 223.561,240.15 226.316,239.064 229.07,238.302 231.825,237.789 234.579,237.456 237.333,237.246 240.088,237.126 242.842,237.067 245.597,237.048 248.351,237.051 251.106,237.062 253.86,237.074 256.615,237.083 259.369,237.09 262.124,237.101 264.878,237.126 267.632,237.18 270.387,237.275 273.141,237.415 275.896,237.613 278.65,237.876 281.405,238.215 284.159,238.638 286.914,239.152 289.668,239.764 292.423,240.479 295.177,241.304 297.932,242.241 300.686,243.295 303.44,244.47 306.195,245.767 308.949,247.189 311.704,248.733 314.458,250.398 317.213,252.183 319.967,254.087 322.722,256.108 325.476,258.243 328.231,260.491 330.985,262.849 333.739,265.314 336.494,267.884 339.248,270.555 342.003,273.324 344.757,276.187 347.512,279.141 350.266,282.181 353.021,285.303 355.775,288.503 358.53,291.775 361.284,295.116 364.038,298.519 366.793,301.983 369.547,305.502 372.302,309.073 375.056,312.693 377.811,316.356 380.565,320.061 383.32,323.801 386.074,327.575 388.829,331.378 391.583,335.208 394.337,339.06 397.092,342.932 399.846,346.82 402.601,350.722 405.355,354.634 408.11,358.554 410.864,362.479 413.619,366.406 416.373,370.333 419.128,374.257 421.882,378.177 424.636,382.089 427.391,385.992 430.145,389.883 432.9,393.76 435.654,397.622 438.409,401.468 441.163,405.295 443.918,409.102 446.672,412.888 449.427,416.651 452.181,420.39 454.936,424.103 457.69,427.79 460.444,431.449 463.199,435.079 465.953,438.679 468.708,442.249 471.462,445.786 474.217,449.291 476.971,452.762 479.726,456.2 482.48,459.602 485.235,462.97 487.989,466.301 490.743,469.596 493.498,472.854 496.252,476.076 499.007,479.26 501.761,482.406 504.516,485.515 507.27,488.586 510.025,491.619 512.779,494.614 515.534,497.57 518.288,500.488 521.042,503.368 523.797,506.209 526.551,509.012 529.306,511.776 532.06,514.503 534.815,517.191 537.569,519.842 540.324,522.455 543.078,525.03 545.833,527.568 548.587,530.069 551.341,532.533 554.096,534.96 556.85,537.351 559.605,539.706 562.359,542.024 565.114,544.307 567.868,546.555 570.623,548.767 573.377,550.945 576.132,553.088 578.886,555.198 581.641,557.273 584.395,559.316 587.149,561.326 589.904,563.304 592.658,565.249 595.413,567.163 598.167,569.046 600.922,570.898 603.676,572.719 606.431,574.51 609.185,576.272 611.94,578.004 614.694,579.708 617.448,581.383 620.203,583.031 622.957,584.651 625.712,586.243 628.466,587.81 631.221,589.349 633.975,590.863 636.73,592.352 639.484,593.815 642.239,595.254 644.993,596.669 647.747,598.059 650.502,599.427 653.256,600.771 656.011,602.092 658.765,603.391 661.52,604.668 664.274,605.923 667.029,607.157 669.783,608.37 672.538,609.562 675.292,610.734 678.046,611.887 680.801,613.02 683.555,614.133 686.31,615.228 689.064,616.305 691.819,617.363 694.573,618.403 697.328,619.426 700.082,620.431 702.837,621.42 705.591,622.392 708.345,623.348 711.1,624.288 713.854,625.213 716.609,626.122 719.363,627.016 722.118,627.895 724.872,628.76 727.627,629.611 730.381,630.448 733.136,631.271 735.89,632.08 738.645,632.877 741.399,633.66 744.153,634.431 746.908,635.19 749.662,635.936 752.417,636.67 755.171,637.392 757.926,638.103 760.68,638.802 763.435,639.491 766.189,640.168 768.944,640.835 771.698,641.491 774.452,642.136 777.207,642.772 779.961,643.398 782.716,644.014 785.47,644.62 788.225,645.217 790.979,645.805 793.734,646.384 796.488,646.954 799.243,647.515 801.997,648.068 804.751,648.613 807.506,649.149 810.26,649.678 813.015,650.199 815.769,650.712 818.524,651.217 821.278,651.715 824.033,652.206 826.787,652.69 829.542,653.166 832.296,653.636 835.05,654.1 837.805,654.556 840.559,655.006 843.314,655.45 846.068,655.888 848.823,656.32 851.577,656.745 854.332,657.165 857.086,657.579 859.841,657.988 862.595,658.391 865.349,658.788 868.104,659.18 870.858,659.567 873.613,659.948 876.367,660.325 879.122,660.696 881.876,661.063 884.631,661.425 887.385,661.782 890.14,662.135 892.894,662.483 895.649,662.826 898.403,663.166 901.157,663.501 903.912,663.832 906.666,664.158 909.421,664.481 912.175,664.8 914.93,665.114 917.684,665.425 920.439,665.732 923.193,666.036 925.948,666.336 928.702,666.632 931.456,666.924 934.211,667.214 936.965,667.499 939.72,667.782 942.474,668.061 945.229,668.337 947.983,668.61 950.738,668.879 953.492,669.146 956.247,669.41 959.001,669.67 961.755,669.928 964.51,670.183 967.264,670.435 970.019,670.685 972.773,670.931 975.528,671.175 978.282,671.417 981.037,671.656 983.791,671.892 986.546,672.126 989.3,672.358 992.054,672.587 994.809,672.814 997.563,673.039 1000.32,673.261 1003.07,673.481 1005.83,673.699 1008.58,673.915 1011.34,674.129 1014.09,674.341 1016.84,674.551 1019.6,674.758 1022.35,674.964 1025.11,675.168 1027.86,675.37 1030.62,675.57 1033.37,675.768 1036.13,675.965 1038.88,676.159 1041.63,676.352 1044.39,676.543 1047.14,676.733 1049.9,676.921 1052.65,677.107 1055.41,677.291 1058.16,677.474 1060.92,677.655 1063.67,677.835 1066.42,678.013 1069.18,678.19 1071.93,678.365 1074.69,678.539 1077.44,678.712 1080.2,678.883 1082.95,679.052 1085.71,679.22 1088.46,679.387 1091.21,679.553 1093.97,679.717 1096.72,679.88 1099.48,680.042 1102.23,680.203 1104.99,680.362 1107.74,680.52 1110.5,680.677 1113.25,680.833 1116.01,680.987 1118.76,681.141 1121.51,681.293 1124.27,681.444 1127.02,681.594 1129.78,681.743 1132.53,681.891 1135.29,682.038 1138.04,682.184 1140.8,682.329 1143.55,682.473 1146.3,682.615 1149.06,682.757 1151.81,682.898 1154.57,683.038 1157.32,683.177 1160.08,683.316 1162.83,683.453 1165.59,683.589 1168.34,683.725 1171.09,683.859 1173.85,683.993 1176.6,684.126 1179.36,684.258 1182.11,684.39 1184.87,684.52 1187.62,684.65 1190.38,684.779 1193.13,684.907 1195.88,685.035 1198.64,685.162 1201.39,685.288 1204.15,685.413 1206.9,685.537 1209.66,685.661 1212.41,685.785 1215.17,685.907 1217.92,686.029 1220.67,686.15 1223.43,686.271 1226.18,686.391 1228.94,686.51 1231.69,686.629 1234.45,686.747 1237.2,686.864 1239.96,686.981 1242.71,687.097 1245.46,687.213 1248.22,687.328 1250.97,687.442 1253.73,687.556 1256.48,687.67 1259.24,687.783 1261.99,687.895 1264.75,688.007 1267.5,688.118 1270.25,688.229 1273.01,688.339 1275.76,688.449 1278.52,688.558 1281.27,688.667 1284.03,688.775 1286.78,688.883 1289.54,688.99 1292.29,689.097 1295.04,689.203 1297.8,689.309 1300.55,689.414 1303.31,689.519 1306.06,689.623 1308.82,689.728 1311.57,689.831 1314.33,689.934 1317.08,690.037 1319.83,690.14 1322.59,690.242 1325.34,690.343 1328.1,690.444 1330.85,690.545 1333.61,690.646 1336.36,690.746 1339.12,690.845 1341.87,690.944 1344.62,691.043 1347.38,691.142 1350.13,691.24 1352.89,691.338 1355.64,691.435 1358.4,691.532 1361.15,691.629 1363.91,691.725 1366.66,691.821 1369.41,691.917 1372.17,692.012 1374.92,692.107 1377.68,692.202 1380.43,692.297 1383.19,692.391 1385.94,692.484 1388.7,692.578 1391.45,692.671 1394.21,692.764 1396.96,692.856 1399.71,692.949 1402.47,693.041 1405.22,693.132 1407.98,693.224 1410.73,693.315 1413.49,693.406 1416.24,693.496 1419,693.587 1421.75,693.677 1424.5,693.766 1427.26,693.856 1430.01,693.945 1432.77,694.034 1435.52,694.123 1438.28,694.211 1441.03,694.3 1443.79,694.388 1446.54,694.475 1449.29,694.563 1452.05,694.65 1454.8,694.737 1457.56,694.824 1460.31,694.911 1463.07,694.997 1465.82,695.083 1468.58,695.169 1471.33,695.255 1474.08,695.34 1476.84,695.426 1479.59,695.511 1482.35,695.596 1485.1,695.68 1487.86,695.765 1490.61,695.849 1493.37,695.933 1496.12,696.017 1498.87,696.101 1501.63,696.185 1504.38,696.268 1507.14,696.351 1509.89,696.434 1512.65,696.517 1515.4,696.599 1518.16,696.682 1520.91,696.764 1523.66,696.846 1526.42,696.928 1529.17,697.01 1531.93,697.091 1534.68,697.173 1537.44,697.254 1540.19,697.335 1542.95,697.416 1545.7,697.497 1548.45,697.577 1551.21,697.658 1553.96,697.738 1556.72,697.818 1559.47,697.898 1562.23,697.978 1564.98,698.058 1567.74,698.137 1570.49,698.217 1573.24,698.296 1576,698.375 1578.75,698.454 1581.51,698.533 1584.26,698.611 1587.02,698.69 1589.77,698.768 1592.53,698.846 1595.28,698.925 1598.03,699.003 1600.79,699.08 1603.54,699.158 1606.3,699.236 1609.05,699.313 1611.81,699.391 1614.56,699.468 1617.32,699.545 1620.07,699.622 1622.82,699.699 1625.58,699.776 1628.33,699.852 1631.09,699.929 1633.84,700.005 1636.6,700.081 1639.35,700.158 1642.11,700.234 1644.86,700.309 1647.62,700.385 1650.37,700.461 1653.12,700.537 1655.88,700.612 1658.63,700.688 1661.39,700.763 1664.14,700.838 1666.9,700.913 1669.65,700.988 1672.41,701.063 1675.16,701.138 1677.91,701.213 1680.67,701.287 1683.42,701.362 1686.18,701.436 1688.93,701.51 1691.69,701.584 1694.44,701.659 1697.2,701.733 1699.95,701.807 1702.7,701.88 1705.46,701.954 1708.21,702.028 1710.97,702.101 1713.72,702.175 1716.48,702.248 1719.23,702.321 1721.99,702.395 1724.74,702.468 1727.49,702.541 1730.25,702.614 1733,702.687 1735.76,702.76 1738.51,702.832 1741.27,702.905 1744.02,702.977 1746.78,703.05 1749.53,703.122 1752.28,703.195 1755.04,703.267 1757.79,703.339 1760.55,703.411 1763.3,703.483 1766.06,703.555 1768.81,703.627 1771.57,703.699 1774.32,703.771 1777.07,703.842 1779.83,703.914 1782.58,703.986 1785.34,704.057 1788.09,704.129 1790.85,704.2 1793.6,704.271 1796.36,704.342 1799.11,704.414 1801.86,704.485 1804.62,704.556 1807.37,704.627 1810.13,704.698 1812.88,704.768 1815.64,704.839 1818.39,704.91 1821.15,704.981 1823.9,705.051 1826.65,705.122 1829.41,705.192 1832.16,705.263 1834.92,705.333 1837.67,705.403 1840.43,705.474 1843.18,705.544 1845.94,705.614 1848.69,705.684 1851.44,705.754 1854.2,705.824 1856.95,705.894 1859.71,705.964 1862.46,706.034 1865.22,706.104 1867.97,706.173 1870.73,706.243 1873.48,706.313 1876.23,706.382 1878.99,706.452 1881.74,706.521 1884.5,706.591 1887.25,706.66 1890.01,706.73 1892.76,706.799 1895.52,706.868 1898.27,706.937 1901.03,707.006 1903.78,707.076 1906.53,707.145 1909.29,707.214 1912.04,707.283 1914.8,707.352 1917.55,707.421 1920.31,707.489 1923.06,707.558 1925.82,707.627 1928.57,707.696 1931.32,707.765 1934.08,707.833 1936.83,707.902 1939.59,707.97 1942.34,708.039 1945.1,708.107 1947.85,708.176 1950.61,708.244 1953.36,708.313 1956.11,708.381 1958.87,708.449 1961.62,708.518 1964.38,708.586 1967.13,708.654 1969.89,708.722 1972.64,708.79 1975.4,708.858 1978.15,708.926 1980.9,708.995 1983.66,709.062 1986.41,709.13 1989.17,709.198 1991.92,709.266 1994.68,709.334 1997.43,709.402 2000.19,709.47 2002.94,709.537 2005.69,709.605 2008.45,709.673 2011.2,709.74 2013.96,709.808 2016.71,709.876 2019.47,709.943 2022.22,710.011 2024.98,710.078 2027.73,710.146 2030.48,710.213 2033.24,710.28 2035.99,710.348 2038.75,710.415 2041.5,710.483 2044.26,710.55 2047.01,710.617 2049.77,710.684 2052.52,710.751 2055.27,710.819 2058.03,710.886 2060.78,710.953 2063.54,711.02 2066.29,711.087 2069.05,711.154 2071.8,711.221 2074.56,711.288 2077.31,711.355 2080.06,711.422 2082.82,711.489 2085.57,711.556 2088.33,711.623 2091.08,711.689 2093.84,711.756 2096.59,711.823 2099.35,711.89 2102.1,711.957 2104.85,712.023 2107.61,712.09 2110.36,712.157 2113.12,712.223 2115.87,712.29 2118.63,712.356 2121.38,712.423 2124.14,712.49 2126.89,712.556 2129.64,712.623 2132.4,712.689 2135.15,712.756 2137.91,712.822 2140.66,712.888 2143.42,712.955 2146.17,713.021 2148.93,713.088 2151.68,713.154 2154.44,713.22 2157.19,713.286 2159.94,713.353 2162.7,713.419 2165.45,713.485 2168.21,713.551 2170.96,713.618 2173.72,713.684 2176.47,713.75 2179.23,713.816 2181.98,713.882 2184.73,713.948 2187.49,714.014 2190.24,714.081 2193,714.147 2195.75,714.213 2198.51,714.279 2201.26,714.345 2204.02,714.411 2206.77,714.477 2209.52,714.542 2212.28,714.608 2215.03,714.674 2217.79,714.74 2220.54,714.806 2223.3,714.872 2226.05,714.938 2228.81,715.004 2231.56,715.069 2234.31,715.135 2237.07,715.201 2239.82,715.267 2242.58,715.333 2245.33,715.398 2248.09,715.464 2250.84,715.53 2253.6,715.595 2256.35,715.661 2259.1,715.727 2261.86,715.792 2264.61,715.858 2267.37,715.924 2270.12,715.989 2272.88,716.055 2275.63,716.12 2278.39,716.186 2281.14,716.252 2283.89,716.317 2286.65,716.383 2289.4,716.448 2292.16,716.514 2294.91,716.579 2297.67,716.645 2300.42,716.71 2303.18,716.775 2305.93,716.841 2308.68,716.906 2311.44,716.972 2314.19,717.037 2316.95,717.102 2319.7,717.168 2322.46,717.233 2325.21,717.299 2327.97,717.364 2330.72,717.429 2333.47,717.494 2336.23,717.56 2338.98,717.625 2341.74,717.69 2344.49,717.756 2347.25,717.821 2350,717.886 2352.76,717.951 "/>
<polyline clip-path="url(#clip702)" style="stroke:#3da44d; stroke-linecap:round; stroke-linejoin:round; stroke-width:12; stroke-opacity:1; fill:none" points="149.191,361.59 151.945,365.319 154.7,369.504 157.454,374.158 160.209,379.293 162.963,384.921 165.718,391.052 168.472,397.693 171.227,404.848 173.981,412.519 176.735,420.703 179.49,429.395 182.244,438.584 184.999,448.255 187.753,458.389 190.508,468.961 193.262,479.944 196.017,491.307 198.771,503.012 201.526,515.02 204.28,527.29 207.034,539.775 209.789,552.428 212.543,565.2 215.298,578.04 218.052,590.896 220.807,603.717 223.561,616.452 226.316,629.054 229.07,641.475 231.825,653.675 234.579,665.615 237.333,677.262 240.088,688.589 242.842,699.571 245.597,710.193 248.351,720.442 251.106,730.308 253.86,739.79 256.615,748.886 259.369,757.599 262.124,765.935 264.878,773.901 267.632,781.507 270.387,788.762 273.141,795.678 275.896,802.266 278.65,808.538 281.405,814.506 284.159,820.183 286.914,825.579 289.668,830.707 292.423,835.578 295.177,840.203 297.932,844.592 300.686,848.756 303.44,852.704 306.195,856.446 308.949,859.991 311.704,863.348 314.458,866.525 317.213,869.529 319.967,872.369 322.722,875.052 325.476,877.584 328.231,879.973 330.985,882.225 333.739,884.345 336.494,886.339 339.248,888.214 342.003,889.974 344.757,891.624 347.512,893.17 350.266,894.615 353.021,895.964 355.775,897.221 358.53,898.39 361.284,899.476 364.038,900.48 366.793,901.408 369.547,902.262 372.302,903.045 375.056,903.761 377.811,904.412 380.565,905 383.32,905.529 386.074,906.002 388.829,906.419 391.583,906.784 394.337,907.099 397.092,907.365 399.846,907.585 402.601,907.761 405.355,907.894 408.11,907.986 410.864,908.039 413.619,908.054 416.373,908.033 419.128,907.977 421.882,907.888 424.636,907.767 427.391,907.614 430.145,907.433 432.9,907.223 435.654,906.986 438.409,906.722 441.163,906.434 443.918,906.121 446.672,905.785 449.427,905.427 452.181,905.048 454.936,904.648 457.69,904.228 460.444,903.79 463.199,903.333 465.953,902.86 468.708,902.369 471.462,901.863 474.217,901.342 476.971,900.806 479.726,900.256 482.48,899.693 485.235,899.118 487.989,898.53 490.743,897.931 493.498,897.321 496.252,896.7 499.007,896.07 501.761,895.43 504.516,894.781 507.27,894.124 510.025,893.459 512.779,892.786 515.534,892.106 518.288,891.42 521.042,890.727 523.797,890.028 526.551,889.324 529.306,888.614 532.06,887.9 534.815,887.182 537.569,886.459 540.324,885.733 543.078,885.003 545.833,884.27 548.587,883.535 551.341,882.797 554.096,882.056 556.85,881.314 559.605,880.57 562.359,879.825 565.114,879.079 567.868,878.331 570.623,877.584 573.377,876.835 576.132,876.087 578.886,875.338 581.641,874.59 584.395,873.842 587.149,873.095 589.904,872.348 592.658,871.603 595.413,870.859 598.167,870.116 600.922,869.375 603.676,868.635 606.431,867.897 609.185,867.161 611.94,866.427 614.694,865.696 617.448,864.967 620.203,864.24 622.957,863.516 625.712,862.795 628.466,862.076 631.221,861.361 633.975,860.648 636.73,859.939 639.484,859.233 642.239,858.53 644.993,857.831 647.747,857.135 650.502,856.443 653.256,855.754 656.011,855.069 658.765,854.388 661.52,853.711 664.274,853.038 667.029,852.368 669.783,851.703 672.538,851.042 675.292,850.385 678.046,849.732 680.801,849.083 683.555,848.438 686.31,847.798 689.064,847.162 691.819,846.53 694.573,845.903 697.328,845.28 700.082,844.661 702.837,844.047 705.591,843.437 708.345,842.832 711.1,842.231 713.854,841.635 716.609,841.043 719.363,840.456 722.118,839.873 724.872,839.295 727.627,838.721 730.381,838.152 733.136,837.587 735.89,837.027 738.645,836.471 741.399,835.92 744.153,835.374 746.908,834.831 749.662,834.294 752.417,833.761 755.171,833.232 757.926,832.708 760.68,832.188 763.435,831.673 766.189,831.162 768.944,830.656 771.698,830.154 774.452,829.656 777.207,829.163 779.961,828.674 782.716,828.189 785.47,827.709 788.225,827.233 790.979,826.762 793.734,826.294 796.488,825.831 799.243,825.372 801.997,824.917 804.751,824.467 807.506,824.02 810.26,823.578 813.015,823.14 815.769,822.706 818.524,822.276 821.278,821.85 824.033,821.428 826.787,821.009 829.542,820.595 832.296,820.185 835.05,819.779 837.805,819.376 840.559,818.978 843.314,818.583 846.068,818.192 848.823,817.805 851.577,817.421 854.332,817.041 857.086,816.665 859.841,816.293 862.595,815.924 865.349,815.559 868.104,815.197 870.858,814.839 873.613,814.484 876.367,814.133 879.122,813.785 881.876,813.441 884.631,813.1 887.385,812.762 890.14,812.428 892.894,812.097 895.649,811.77 898.403,811.445 901.157,811.124 903.912,810.806 906.666,810.491 909.421,810.18 912.175,809.871 914.93,809.566 917.684,809.264 920.439,808.964 923.193,808.668 925.948,808.375 928.702,808.084 931.456,807.797 934.211,807.512 936.965,807.23 939.72,806.951 942.474,806.675 945.229,806.402 947.983,806.132 950.738,805.864 953.492,805.599 956.247,805.336 959.001,805.077 961.755,804.82 964.51,804.565 967.264,804.313 970.019,804.064 972.773,803.817 975.528,803.573 978.282,803.331 981.037,803.092 983.791,802.855 986.546,802.621 989.3,802.388 992.054,802.159 994.809,801.931 997.563,801.706 1000.32,801.484 1003.07,801.263 1005.83,801.045 1008.58,800.829 1011.34,800.615 1014.09,800.403 1016.84,800.194 1019.6,799.987 1022.35,799.782 1025.11,799.578 1027.86,799.377 1030.62,799.178 1033.37,798.982 1036.13,798.787 1038.88,798.594 1041.63,798.403 1044.39,798.214 1047.14,798.027 1049.9,797.841 1052.65,797.658 1055.41,797.477 1058.16,797.297 1060.92,797.12 1063.67,796.944 1066.42,796.77 1069.18,796.597 1071.93,796.427 1074.69,796.258 1077.44,796.091 1080.2,795.925 1082.95,795.762 1085.71,795.6 1088.46,795.439 1091.21,795.281 1093.97,795.123 1096.72,794.968 1099.48,794.814 1102.23,794.662 1104.99,794.511 1107.74,794.361 1110.5,794.214 1113.25,794.067 1116.01,793.923 1118.76,793.779 1121.51,793.638 1124.27,793.497 1127.02,793.358 1129.78,793.221 1132.53,793.084 1135.29,792.95 1138.04,792.816 1140.8,792.684 1143.55,792.553 1146.3,792.424 1149.06,792.296 1151.81,792.169 1154.57,792.044 1157.32,791.919 1160.08,791.796 1162.83,791.675 1165.59,791.554 1168.34,791.435 1171.09,791.317 1173.85,791.2 1176.6,791.084 1179.36,790.97 1182.11,790.856 1184.87,790.744 1187.62,790.633 1190.38,790.523 1193.13,790.414 1195.88,790.306 1198.64,790.199 1201.39,790.094 1204.15,789.989 1206.9,789.886 1209.66,789.783 1212.41,789.682 1215.17,789.581 1217.92,789.482 1220.67,789.383 1223.43,789.286 1226.18,789.189 1228.94,789.094 1231.69,788.999 1234.45,788.905 1237.2,788.813 1239.96,788.721 1242.71,788.63 1245.46,788.54 1248.22,788.451 1250.97,788.363 1253.73,788.276 1256.48,788.189 1259.24,788.104 1261.99,788.019 1264.75,787.935 1267.5,787.852 1270.25,787.77 1273.01,787.688 1275.76,787.608 1278.52,787.528 1281.27,787.449 1284.03,787.37 1286.78,787.293 1289.54,787.216 1292.29,787.14 1295.04,787.065 1297.8,786.991 1300.55,786.917 1303.31,786.844 1306.06,786.772 1308.82,786.7 1311.57,786.629 1314.33,786.559 1317.08,786.489 1319.83,786.421 1322.59,786.352 1325.34,786.285 1328.1,786.218 1330.85,786.152 1333.61,786.086 1336.36,786.022 1339.12,785.957 1341.87,785.894 1344.62,785.831 1347.38,785.768 1350.13,785.706 1352.89,785.645 1355.64,785.585 1358.4,785.525 1361.15,785.465 1363.91,785.406 1366.66,785.348 1369.41,785.29 1372.17,785.233 1374.92,785.177 1377.68,785.121 1380.43,785.065 1383.19,785.01 1385.94,784.956 1388.7,784.902 1391.45,784.848 1394.21,784.795 1396.96,784.743 1399.71,784.691 1402.47,784.64 1405.22,784.589 1407.98,784.539 1410.73,784.489 1413.49,784.439 1416.24,784.39 1419,784.342 1421.75,784.294 1424.5,784.246 1427.26,784.199 1430.01,784.152 1432.77,784.106 1435.52,784.06 1438.28,784.015 1441.03,783.97 1443.79,783.926 1446.54,783.882 1449.29,783.838 1452.05,783.795 1454.8,783.752 1457.56,783.71 1460.31,783.668 1463.07,783.626 1465.82,783.585 1468.58,783.544 1471.33,783.503 1474.08,783.463 1476.84,783.424 1479.59,783.384 1482.35,783.346 1485.1,783.307 1487.86,783.269 1490.61,783.231 1493.37,783.193 1496.12,783.156 1498.87,783.12 1501.63,783.083 1504.38,783.047 1507.14,783.011 1509.89,782.976 1512.65,782.941 1515.4,782.906 1518.16,782.871 1520.91,782.837 1523.66,782.804 1526.42,782.77 1529.17,782.737 1531.93,782.704 1534.68,782.672 1537.44,782.639 1540.19,782.607 1542.95,782.576 1545.7,782.544 1548.45,782.513 1551.21,782.482 1553.96,782.452 1556.72,782.422 1559.47,782.392 1562.23,782.362 1564.98,782.333 1567.74,782.304 1570.49,782.275 1573.24,782.246 1576,782.218 1578.75,782.19 1581.51,782.162 1584.26,782.135 1587.02,782.107 1589.77,782.08 1592.53,782.053 1595.28,782.027 1598.03,782.001 1600.79,781.975 1603.54,781.949 1606.3,781.923 1609.05,781.898 1611.81,781.873 1614.56,781.848 1617.32,781.823 1620.07,781.799 1622.82,781.775 1625.58,781.751 1628.33,781.727 1631.09,781.703 1633.84,781.68 1636.6,781.657 1639.35,781.634 1642.11,781.611 1644.86,781.589 1647.62,781.566 1650.37,781.544 1653.12,781.522 1655.88,781.501 1658.63,781.479 1661.39,781.458 1664.14,781.437 1666.9,781.416 1669.65,781.395 1672.41,781.375 1675.16,781.354 1677.91,781.334 1680.67,781.314 1683.42,781.294 1686.18,781.275 1688.93,781.255 1691.69,781.236 1694.44,781.217 1697.2,781.198 1699.95,781.179 1702.7,781.161 1705.46,781.142 1708.21,781.124 1710.97,781.106 1713.72,781.088 1716.48,781.07 1719.23,781.052 1721.99,781.035 1724.74,781.018 1727.49,781.001 1730.25,780.983 1733,780.967 1735.76,780.95 1738.51,780.933 1741.27,780.917 1744.02,780.901 1746.78,780.885 1749.53,780.869 1752.28,780.853 1755.04,780.837 1757.79,780.822 1760.55,780.806 1763.3,780.791 1766.06,780.776 1768.81,780.761 1771.57,780.746 1774.32,780.731 1777.07,780.717 1779.83,780.702 1782.58,780.688 1785.34,780.674 1788.09,780.659 1790.85,780.645 1793.6,780.632 1796.36,780.618 1799.11,780.604 1801.86,780.591 1804.62,780.577 1807.37,780.564 1810.13,780.551 1812.88,780.538 1815.64,780.525 1818.39,780.512 1821.15,780.5 1823.9,780.487 1826.65,780.475 1829.41,780.462 1832.16,780.45 1834.92,780.438 1837.67,780.426 1840.43,780.414 1843.18,780.402 1845.94,780.39 1848.69,780.379 1851.44,780.367 1854.2,780.356 1856.95,780.345 1859.71,780.333 1862.46,780.322 1865.22,780.311 1867.97,780.3 1870.73,780.289 1873.48,780.279 1876.23,780.268 1878.99,780.258 1881.74,780.247 1884.5,780.237 1887.25,780.226 1890.01,780.216 1892.76,780.206 1895.52,780.196 1898.27,780.186 1901.03,780.176 1903.78,780.167 1906.53,780.157 1909.29,780.147 1912.04,780.138 1914.8,780.128 1917.55,780.119 1920.31,780.11 1923.06,780.101 1925.82,780.091 1928.57,780.082 1931.32,780.073 1934.08,780.065 1936.83,780.056 1939.59,780.047 1942.34,780.038 1945.1,780.03 1947.85,780.021 1950.61,780.013 1953.36,780.005 1956.11,779.996 1958.87,779.988 1961.62,779.98 1964.38,779.972 1967.13,779.964 1969.89,779.956 1972.64,779.948 1975.4,779.94 1978.15,779.933 1980.9,779.925 1983.66,779.917 1986.41,779.91 1989.17,779.902 1991.92,779.895 1994.68,779.887 1997.43,779.88 2000.19,779.873 2002.94,779.866 2005.69,779.859 2008.45,779.852 2011.2,779.845 2013.96,779.838 2016.71,779.831 2019.47,779.824 2022.22,779.817 2024.98,779.811 2027.73,779.804 2030.48,779.797 2033.24,779.791 2035.99,779.784 2038.75,779.778 2041.5,779.772 2044.26,779.765 2047.01,779.759 2049.77,779.753 2052.52,779.747 2055.27,779.741 2058.03,779.735 2060.78,779.729 2063.54,779.723 2066.29,779.717 2069.05,779.711 2071.8,779.705 2074.56,779.699 2077.31,779.694 2080.06,779.688 2082.82,779.683 2085.57,779.677 2088.33,779.672 2091.08,779.666 2093.84,779.661 2096.59,779.655 2099.35,779.65 2102.1,779.645 2104.85,779.639 2107.61,779.634 2110.36,779.629 2113.12,779.624 2115.87,779.619 2118.63,779.614 2121.38,779.609 2124.14,779.604 2126.89,779.599 2129.64,779.594 2132.4,779.589 2135.15,779.585 2137.91,779.58 2140.66,779.575 2143.42,779.571 2146.17,779.566 2148.93,779.561 2151.68,779.557 2154.44,779.552 2157.19,779.548 2159.94,779.543 2162.7,779.539 2165.45,779.535 2168.21,779.53 2170.96,779.526 2173.72,779.522 2176.47,779.518 2179.23,779.513 2181.98,779.509 2184.73,779.505 2187.49,779.501 2190.24,779.497 2193,779.493 2195.75,779.489 2198.51,779.485 2201.26,779.481 2204.02,779.477 2206.77,779.474 2209.52,779.47 2212.28,779.466 2215.03,779.462 2217.79,779.459 2220.54,779.455 2223.3,779.451 2226.05,779.448 2228.81,779.444 2231.56,779.44 2234.31,779.437 2237.07,779.433 2239.82,779.43 2242.58,779.426 2245.33,779.423 2248.09,779.42 2250.84,779.416 2253.6,779.413 2256.35,779.41 2259.1,779.406 2261.86,779.403 2264.61,779.4 2267.37,779.397 2270.12,779.393 2272.88,779.39 2275.63,779.387 2278.39,779.384 2281.14,779.381 2283.89,779.378 2286.65,779.375 2289.4,779.372 2292.16,779.369 2294.91,779.366 2297.67,779.363 2300.42,779.36 2303.18,779.357 2305.93,779.354 2308.68,779.352 2311.44,779.349 2314.19,779.346 2316.95,779.343 2319.7,779.341 2322.46,779.338 2325.21,779.335 2327.97,779.332 2330.72,779.33 2333.47,779.327 2336.23,779.325 2338.98,779.322 2341.74,779.319 2344.49,779.317 2347.25,779.314 2350,779.312 2352.76,779.309 "/>
<path clip-path="url(#clip700)" d="M1969.85 1377.32 L2279.3 1377.32 L2279.3 1169.96 L1969.85 1169.96  Z" fill="#ffffff" fill-rule="evenodd" fill-opacity="1"/>
<polyline clip-path="url(#clip700)" style="stroke:#000000; stroke-linecap:round; stroke-linejoin:round; stroke-width:4; stroke-opacity:1; fill:none" points="1969.85,1377.32 2279.3,1377.32 2279.3,1169.96 1969.85,1169.96 1969.85,1377.32 "/>
<polyline clip-path="url(#clip700)" style="stroke:#009af9; stroke-linecap:round; stroke-linejoin:round; stroke-width:12; stroke-opacity:1; fill:none" points="1994.33,1221.8 2141.24,1221.8 "/>
<path clip-path="url(#clip700)" d="M2165.72 1228.84 L2165.72 1213.15 L2169.98 1213.15 L2169.98 1228.68 Q2169.98 1232.36 2171.42 1234.21 Q2172.85 1236.04 2175.72 1236.04 Q2179.17 1236.04 2181.16 1233.84 Q2183.18 1231.64 2183.18 1227.85 L2183.18 1213.15 L2187.44 1213.15 L2187.44 1239.08 L2183.18 1239.08 L2183.18 1235.09 Q2181.63 1237.45 2179.57 1238.61 Q2177.53 1239.75 2174.82 1239.75 Q2170.35 1239.75 2168.04 1236.97 Q2165.72 1234.19 2165.72 1228.84 M2176.44 1212.52 L2176.44 1212.52 Z" fill="#000000" fill-rule="nonzero" fill-opacity="1" /><path clip-path="url(#clip700)" d="M2195.82 1203.06 L2205.63 1203.06 L2205.63 1206.37 L2200.07 1206.37 L2200.07 1242.02 L2205.63 1242.02 L2205.63 1245.33 L2195.82 1245.33 L2195.82 1203.06 Z" fill="#000000" fill-rule="nonzero" fill-opacity="1" /><path clip-path="url(#clip700)" d="M2216.12 1235.14 L2223.76 1235.14 L2223.76 1208.77 L2215.44 1210.44 L2215.44 1206.18 L2223.71 1204.52 L2228.38 1204.52 L2228.38 1235.14 L2236.02 1235.14 L2236.02 1239.08 L2216.12 1239.08 L2216.12 1235.14 Z" fill="#000000" fill-rule="nonzero" fill-opacity="1" /><path clip-path="url(#clip700)" d="M2254.82 1203.06 L2254.82 1245.33 L2245 1245.33 L2245 1242.02 L2250.54 1242.02 L2250.54 1206.37 L2245 1206.37 L2245 1203.06 L2254.82 1203.06 Z" fill="#000000" fill-rule="nonzero" fill-opacity="1" /><polyline clip-path="url(#clip700)" style="stroke:#e26f46; stroke-linecap:round; stroke-linejoin:round; stroke-width:12; stroke-opacity:1; fill:none" points="1994.33,1273.64 2141.24,1273.64 "/>
<path clip-path="url(#clip700)" d="M2165.72 1280.68 L2165.72 1264.99 L2169.98 1264.99 L2169.98 1280.52 Q2169.98 1284.2 2171.42 1286.05 Q2172.85 1287.88 2175.72 1287.88 Q2179.17 1287.88 2181.16 1285.68 Q2183.18 1283.48 2183.18 1279.69 L2183.18 1264.99 L2187.44 1264.99 L2187.44 1290.92 L2183.18 1290.92 L2183.18 1286.93 Q2181.63 1289.29 2179.57 1290.45 Q2177.53 1291.59 2174.82 1291.59 Q2170.35 1291.59 2168.04 1288.81 Q2165.72 1286.03 2165.72 1280.68 M2176.44 1264.36 L2176.44 1264.36 Z" fill="#000000" fill-rule="nonzero" fill-opacity="1" /><path clip-path="url(#clip700)" d="M2195.82 1254.9 L2205.63 1254.9 L2205.63 1258.21 L2200.07 1258.21 L2200.07 1293.86 L2205.63 1293.86 L2205.63 1297.17 L2195.82 1297.17 L2195.82 1254.9 Z" fill="#000000" fill-rule="nonzero" fill-opacity="1" /><path clip-path="url(#clip700)" d="M2219.33 1286.98 L2235.65 1286.98 L2235.65 1290.92 L2213.71 1290.92 L2213.71 1286.98 Q2216.37 1284.23 2220.95 1279.6 Q2225.56 1274.94 2226.74 1273.6 Q2228.99 1271.08 2229.87 1269.34 Q2230.77 1267.58 2230.77 1265.89 Q2230.77 1263.14 2228.82 1261.4 Q2226.9 1259.67 2223.8 1259.67 Q2221.6 1259.67 2219.15 1260.43 Q2216.72 1261.19 2213.94 1262.74 L2213.94 1258.02 Q2216.76 1256.89 2219.22 1256.31 Q2221.67 1255.73 2223.71 1255.73 Q2229.08 1255.73 2232.27 1258.42 Q2235.47 1261.1 2235.47 1265.59 Q2235.47 1267.72 2234.66 1269.64 Q2233.87 1271.54 2231.76 1274.13 Q2231.19 1274.8 2228.08 1278.02 Q2224.98 1281.22 2219.33 1286.98 Z" fill="#000000" fill-rule="nonzero" fill-opacity="1" /><path clip-path="url(#clip700)" d="M2254.82 1254.9 L2254.82 1297.17 L2245 1297.17 L2245 1293.86 L2250.54 1293.86 L2250.54 1258.21 L2245 1258.21 L2245 1254.9 L2254.82 1254.9 Z" fill="#000000" fill-rule="nonzero" fill-opacity="1" /><polyline clip-path="url(#clip700)" style="stroke:#3da44d; stroke-linecap:round; stroke-linejoin:round; stroke-width:12; stroke-opacity:1; fill:none" points="1994.33,1325.48 2141.24,1325.48 "/>
<path clip-path="url(#clip700)" d="M2165.72 1332.52 L2165.72 1316.83 L2169.98 1316.83 L2169.98 1332.36 Q2169.98 1336.04 2171.42 1337.89 Q2172.85 1339.72 2175.72 1339.72 Q2179.17 1339.72 2181.16 1337.52 Q2183.18 1335.32 2183.18 1331.53 L2183.18 1316.83 L2187.44 1316.83 L2187.44 1342.76 L2183.18 1342.76 L2183.18 1338.77 Q2181.63 1341.13 2179.57 1342.29 Q2177.53 1343.43 2174.82 1343.43 Q2170.35 1343.43 2168.04 1340.65 Q2165.72 1337.87 2165.72 1332.52 M2176.44 1316.2 L2176.44 1316.2 Z" fill="#000000" fill-rule="nonzero" fill-opacity="1" /><path clip-path="url(#clip700)" d="M2206.44 1306.78 Q2203.34 1312.11 2201.83 1317.32 Q2200.33 1322.52 2200.33 1327.87 Q2200.33 1333.22 2201.83 1338.47 Q2203.36 1343.7 2206.44 1349.01 L2202.74 1349.01 Q2199.26 1343.57 2197.53 1338.31 Q2195.82 1333.06 2195.82 1327.87 Q2195.82 1322.71 2197.53 1317.48 Q2199.24 1312.25 2202.74 1306.78 L2206.44 1306.78 Z" fill="#000000" fill-rule="nonzero" fill-opacity="1" /><path clip-path="url(#clip700)" d="M2218.92 1309.47 L2218.92 1316.83 L2227.69 1316.83 L2227.69 1320.14 L2218.92 1320.14 L2218.92 1334.21 Q2218.92 1337.38 2219.77 1338.29 Q2220.65 1339.19 2223.32 1339.19 L2227.69 1339.19 L2227.69 1342.76 L2223.32 1342.76 Q2218.38 1342.76 2216.51 1340.93 Q2214.63 1339.07 2214.63 1334.21 L2214.63 1320.14 L2211.51 1320.14 L2211.51 1316.83 L2214.63 1316.83 L2214.63 1309.47 L2218.92 1309.47 Z" fill="#000000" fill-rule="nonzero" fill-opacity="1" /><path clip-path="url(#clip700)" d="M2232.62 1306.78 L2236.32 1306.78 Q2239.8 1312.25 2241.51 1317.48 Q2243.25 1322.71 2243.25 1327.87 Q2243.25 1333.06 2241.51 1338.31 Q2239.8 1343.57 2236.32 1349.01 L2232.62 1349.01 Q2235.7 1343.7 2237.2 1338.47 Q2238.73 1333.22 2238.73 1327.87 Q2238.73 1322.52 2237.2 1317.32 Q2235.7 1312.11 2232.62 1306.78 Z" fill="#000000" fill-rule="nonzero" fill-opacity="1" /></svg>
