<?xml version="1.0" encoding="utf-8"?>
<svg xmlns="http://www.w3.org/2000/svg" xmlns:xlink="http://www.w3.org/1999/xlink" width="600" height="400" viewBox="0 0 2400 1600">
<defs>
  <clipPath id="clip100">
    <rect x="0" y="0" width="2400" height="1600"/>
  </clipPath>
</defs>
<path clip-path="url(#clip100)" d="M0 1600 L2400 1600 L2400 0 L0 0  Z" fill="#ffffff" fill-rule="evenodd" fill-opacity="1"/>
<defs>
  <clipPath id="clip101">
    <rect x="480" y="0" width="1681" height="1600"/>
  </clipPath>
</defs>
<path clip-path="url(#clip100)" d="M149.191 1423.18 L2352.76 1423.18 L2352.76 47.2441 L149.191 47.2441  Z" fill="#ffffff" fill-rule="evenodd" fill-opacity="1"/>
<defs>
  <clipPath id="clip102">
    <rect x="149" y="47" width="2205" height="1377"/>
  </clipPath>
</defs>
<polyline clip-path="url(#clip102)" style="stroke:#000000; stroke-linecap:round; stroke-linejoin:round; stroke-width:2; stroke-opacity:0.1; fill:none" points="149.191,1423.18 149.191,47.2441 "/>
<polyline clip-path="url(#clip102)" style="stroke:#000000; stroke-linecap:round; stroke-linejoin:round; stroke-width:2; stroke-opacity:0.1; fill:none" points="700.082,1423.18 700.082,47.2441 "/>
<polyline clip-path="url(#clip102)" style="stroke:#000000; stroke-linecap:round; stroke-linejoin:round; stroke-width:2; stroke-opacity:0.1; fill:none" points="1250.97,1423.18 1250.97,47.2441 "/>
<polyline clip-path="url(#clip102)" style="stroke:#000000; stroke-linecap:round; stroke-linejoin:round; stroke-width:2; stroke-opacity:0.1; fill:none" points="1801.86,1423.18 1801.86,47.2441 "/>
<polyline clip-path="url(#clip102)" style="stroke:#000000; stroke-linecap:round; stroke-linejoin:round; stroke-width:2; stroke-opacity:0.1; fill:none" points="2352.76,1423.18 2352.76,47.2441 "/>
<polyline clip-path="url(#clip100)" style="stroke:#000000; stroke-linecap:round; stroke-linejoin:round; stroke-width:4; stroke-opacity:1; fill:none" points="149.191,1423.18 2352.76,1423.18 "/>
<polyline clip-path="url(#clip100)" style="stroke:#000000; stroke-linecap:round; stroke-linejoin:round; stroke-width:4; stroke-opacity:1; fill:none" points="149.191,1423.18 149.191,1404.28 "/>
<polyline clip-path="url(#clip100)" style="stroke:#000000; stroke-linecap:round; stroke-linejoin:round; stroke-width:4; stroke-opacity:1; fill:none" points="700.082,1423.18 700.082,1404.28 "/>
<polyline clip-path="url(#clip100)" style="stroke:#000000; stroke-linecap:round; stroke-linejoin:round; stroke-width:4; stroke-opacity:1; fill:none" points="1250.97,1423.18 1250.97,1404.28 "/>
<polyline clip-path="url(#clip100)" style="stroke:#000000; stroke-linecap:round; stroke-linejoin:round; stroke-width:4; stroke-opacity:1; fill:none" points="1801.86,1423.18 1801.86,1404.28 "/>
<polyline clip-path="url(#clip100)" style="stroke:#000000; stroke-linecap:round; stroke-linejoin:round; stroke-width:4; stroke-opacity:1; fill:none" points="2352.76,1423.18 2352.76,1404.28 "/>
<path clip-path="url(#clip100)" d="M149.191 1454.1 Q145.58 1454.1 143.751 1457.66 Q141.946 1461.2 141.946 1468.33 Q141.946 1475.44 143.751 1479.01 Q145.58 1482.55 149.191 1482.55 Q152.825 1482.55 154.631 1479.01 Q156.459 1475.44 156.459 1468.33 Q156.459 1461.2 154.631 1457.66 Q152.825 1454.1 149.191 1454.1 M149.191 1450.39 Q155.001 1450.39 158.057 1455 Q161.135 1459.58 161.135 1468.33 Q161.135 1477.06 158.057 1481.67 Q155.001 1486.25 149.191 1486.25 Q143.381 1486.25 140.302 1481.67 Q137.246 1477.06 137.246 1468.33 Q137.246 1459.58 140.302 1455 Q143.381 1450.39 149.191 1450.39 Z" fill="#000000" fill-rule="nonzero" fill-opacity="1" /><path clip-path="url(#clip100)" d="M694.735 1481.64 L711.054 1481.64 L711.054 1485.58 L689.11 1485.58 L689.11 1481.64 Q691.772 1478.89 696.355 1474.26 Q700.962 1469.61 702.142 1468.27 Q704.388 1465.74 705.267 1464.01 Q706.17 1462.25 706.17 1460.56 Q706.17 1457.8 704.226 1456.07 Q702.304 1454.33 699.203 1454.33 Q697.003 1454.33 694.55 1455.09 Q692.119 1455.86 689.341 1457.41 L689.341 1452.69 Q692.166 1451.55 694.619 1450.97 Q697.073 1450.39 699.11 1450.39 Q704.48 1450.39 707.675 1453.08 Q710.869 1455.77 710.869 1460.26 Q710.869 1462.39 710.059 1464.31 Q709.272 1466.2 707.165 1468.8 Q706.587 1469.47 703.485 1472.69 Q700.383 1475.88 694.735 1481.64 Z" fill="#000000" fill-rule="nonzero" fill-opacity="1" /><path clip-path="url(#clip100)" d="M1253.98 1455.09 L1242.18 1473.54 L1253.98 1473.54 L1253.98 1455.09 M1252.76 1451.02 L1258.64 1451.02 L1258.64 1473.54 L1263.57 1473.54 L1263.57 1477.43 L1258.64 1477.43 L1258.64 1485.58 L1253.98 1485.58 L1253.98 1477.43 L1238.38 1477.43 L1238.38 1472.92 L1252.76 1451.02 Z" fill="#000000" fill-rule="nonzero" fill-opacity="1" /><path clip-path="url(#clip100)" d="M1802.27 1466.44 Q1799.12 1466.44 1797.27 1468.59 Q1795.44 1470.74 1795.44 1474.49 Q1795.44 1478.22 1797.27 1480.39 Q1799.12 1482.55 1802.27 1482.55 Q1805.42 1482.55 1807.25 1480.39 Q1809.1 1478.22 1809.1 1474.49 Q1809.1 1470.74 1807.25 1468.59 Q1805.42 1466.44 1802.27 1466.44 M1811.55 1451.78 L1811.55 1456.04 Q1809.79 1455.21 1807.99 1454.77 Q1806.2 1454.33 1804.45 1454.33 Q1799.82 1454.33 1797.36 1457.45 Q1794.93 1460.58 1794.58 1466.9 Q1795.95 1464.89 1798.01 1463.82 Q1800.07 1462.73 1802.55 1462.73 Q1807.76 1462.73 1810.77 1465.9 Q1813.8 1469.05 1813.8 1474.49 Q1813.8 1479.82 1810.65 1483.03 Q1807.5 1486.25 1802.27 1486.25 Q1796.27 1486.25 1793.1 1481.67 Q1789.93 1477.06 1789.93 1468.33 Q1789.93 1460.14 1793.82 1455.28 Q1797.71 1450.39 1804.26 1450.39 Q1806.02 1450.39 1807.8 1450.74 Q1809.61 1451.09 1811.55 1451.78 Z" fill="#000000" fill-rule="nonzero" fill-opacity="1" /><path clip-path="url(#clip100)" d="M2352.76 1469.17 Q2349.42 1469.17 2347.5 1470.95 Q2345.6 1472.73 2345.6 1475.86 Q2345.6 1478.98 2347.5 1480.77 Q2349.42 1482.55 2352.76 1482.55 Q2356.09 1482.55 2358.01 1480.77 Q2359.93 1478.96 2359.93 1475.86 Q2359.93 1472.73 2358.01 1470.95 Q2356.11 1469.17 2352.76 1469.17 M2348.08 1467.18 Q2345.07 1466.44 2343.38 1464.38 Q2341.71 1462.32 2341.71 1459.35 Q2341.71 1455.21 2344.65 1452.8 Q2347.62 1450.39 2352.76 1450.39 Q2357.92 1450.39 2360.86 1452.8 Q2363.8 1455.21 2363.8 1459.35 Q2363.8 1462.32 2362.11 1464.38 Q2360.44 1466.44 2357.45 1467.18 Q2360.83 1467.96 2362.71 1470.26 Q2364.61 1472.55 2364.61 1475.86 Q2364.61 1480.88 2361.53 1483.57 Q2358.47 1486.25 2352.76 1486.25 Q2347.04 1486.25 2343.96 1483.57 Q2340.9 1480.88 2340.9 1475.86 Q2340.9 1472.55 2342.8 1470.26 Q2344.7 1467.96 2348.08 1467.18 M2346.37 1459.79 Q2346.37 1462.48 2348.03 1463.98 Q2349.72 1465.49 2352.76 1465.49 Q2355.77 1465.49 2357.45 1463.98 Q2359.17 1462.48 2359.17 1459.79 Q2359.17 1457.11 2357.45 1455.6 Q2355.77 1454.1 2352.76 1454.1 Q2349.72 1454.1 2348.03 1455.6 Q2346.37 1457.11 2346.37 1459.79 Z" fill="#000000" fill-rule="nonzero" fill-opacity="1" /><path clip-path="url(#clip100)" d="M1250.03 1522.27 L1250.03 1532.4 L1262.1 1532.4 L1262.1 1536.95 L1250.03 1536.95 L1250.03 1556.3 Q1250.03 1560.66 1251.21 1561.9 Q1252.42 1563.14 1256.08 1563.14 L1262.1 1563.14 L1262.1 1568.04 L1256.08 1568.04 Q1249.3 1568.04 1246.72 1565.53 Q1244.15 1562.98 1244.15 1556.3 L1244.15 1536.95 L1239.85 1536.95 L1239.85 1532.4 L1244.15 1532.4 L1244.15 1522.27 L1250.03 1522.27 Z" fill="#000000" fill-rule="nonzero" fill-opacity="1" /><polyline clip-path="url(#clip102)" style="stroke:#000000; stroke-linecap:round; stroke-linejoin:round; stroke-width:2; stroke-opacity:0.1; fill:none" points="149.191,1423.18 2352.76,1423.18 "/>
<polyline clip-path="url(#clip102)" style="stroke:#000000; stroke-linecap:round; stroke-linejoin:round; stroke-width:2; stroke-opacity:0.1; fill:none" points="149.191,1193.86 2352.76,1193.86 "/>
<polyline clip-path="url(#clip102)" style="stroke:#000000; stroke-linecap:round; stroke-linejoin:round; stroke-width:2; stroke-opacity:0.1; fill:none" points="149.191,964.535 2352.76,964.535 "/>
<polyline clip-path="url(#clip102)" style="stroke:#000000; stroke-linecap:round; stroke-linejoin:round; stroke-width:2; stroke-opacity:0.1; fill:none" points="149.191,735.212 2352.76,735.212 "/>
<polyline clip-path="url(#clip102)" style="stroke:#000000; stroke-linecap:round; stroke-linejoin:round; stroke-width:2; stroke-opacity:0.1; fill:none" points="149.191,505.889 2352.76,505.889 "/>
<polyline clip-path="url(#clip102)" style="stroke:#000000; stroke-linecap:round; stroke-linejoin:round; stroke-width:2; stroke-opacity:0.1; fill:none" points="149.191,276.567 2352.76,276.567 "/>
<polyline clip-path="url(#clip102)" style="stroke:#000000; stroke-linecap:round; stroke-linejoin:round; stroke-width:2; stroke-opacity:0.1; fill:none" points="149.191,47.2441 2352.76,47.2441 "/>
<polyline clip-path="url(#clip100)" style="stroke:#000000; stroke-linecap:round; stroke-linejoin:round; stroke-width:4; stroke-opacity:1; fill:none" points="149.191,1423.18 149.191,47.2441 "/>
<polyline clip-path="url(#clip100)" style="stroke:#000000; stroke-linecap:round; stroke-linejoin:round; stroke-width:4; stroke-opacity:1; fill:none" points="149.191,1423.18 168.089,1423.18 "/>
<polyline clip-path="url(#clip100)" style="stroke:#000000; stroke-linecap:round; stroke-linejoin:round; stroke-width:4; stroke-opacity:1; fill:none" points="149.191,1193.86 168.089,1193.86 "/>
<polyline clip-path="url(#clip100)" style="stroke:#000000; stroke-linecap:round; stroke-linejoin:round; stroke-width:4; stroke-opacity:1; fill:none" points="149.191,964.535 168.089,964.535 "/>
<polyline clip-path="url(#clip100)" style="stroke:#000000; stroke-linecap:round; stroke-linejoin:round; stroke-width:4; stroke-opacity:1; fill:none" points="149.191,735.212 168.089,735.212 "/>
<polyline clip-path="url(#clip100)" style="stroke:#000000; stroke-linecap:round; stroke-linejoin:round; stroke-width:4; stroke-opacity:1; fill:none" points="149.191,505.889 168.089,505.889 "/>
<polyline clip-path="url(#clip100)" style="stroke:#000000; stroke-linecap:round; stroke-linejoin:round; stroke-width:4; stroke-opacity:1; fill:none" points="149.191,276.567 168.089,276.567 "/>
<polyline clip-path="url(#clip100)" style="stroke:#000000; stroke-linecap:round; stroke-linejoin:round; stroke-width:4; stroke-opacity:1; fill:none" points="149.191,47.2441 168.089,47.2441 "/>
<path clip-path="url(#clip100)" d="M51.3162 1423.63 L80.992 1423.63 L80.992 1427.57 L51.3162 1427.57 L51.3162 1423.63 Z" fill="#000000" fill-rule="nonzero" fill-opacity="1" /><path clip-path="url(#clip100)" d="M101.663 1421.32 Q98.515 1421.32 96.6632 1423.47 Q94.8345 1425.62 94.8345 1429.37 Q94.8345 1433.1 96.6632 1435.27 Q98.515 1437.43 101.663 1437.43 Q104.811 1437.43 106.64 1435.27 Q108.492 1433.1 108.492 1429.37 Q108.492 1425.62 106.64 1423.47 Q104.811 1421.32 101.663 1421.32 M110.946 1406.66 L110.946 1410.92 Q109.186 1410.09 107.381 1409.65 Q105.598 1409.21 103.839 1409.21 Q99.2095 1409.21 96.7558 1412.33 Q94.3252 1415.46 93.978 1421.78 Q95.3437 1419.77 97.4039 1418.7 Q99.4641 1417.61 101.941 1417.61 Q107.149 1417.61 110.158 1420.78 Q113.191 1423.93 113.191 1429.37 Q113.191 1434.7 110.043 1437.91 Q106.895 1441.13 101.663 1441.13 Q95.6678 1441.13 92.4965 1436.55 Q89.3253 1431.94 89.3253 1423.21 Q89.3253 1415.02 93.2141 1410.16 Q97.103 1405.27 103.654 1405.27 Q105.413 1405.27 107.196 1405.62 Q109.001 1405.97 110.946 1406.66 Z" fill="#000000" fill-rule="nonzero" fill-opacity="1" /><path clip-path="url(#clip100)" d="M50.9921 1194.31 L80.6679 1194.31 L80.6679 1198.24 L50.9921 1198.24 L50.9921 1194.31 Z" fill="#000000" fill-rule="nonzero" fill-opacity="1" /><path clip-path="url(#clip100)" d="M103.608 1180.65 L91.8021 1199.1 L103.608 1199.1 L103.608 1180.65 M102.381 1176.58 L108.26 1176.58 L108.26 1199.1 L113.191 1199.1 L113.191 1202.99 L108.26 1202.99 L108.26 1211.14 L103.608 1211.14 L103.608 1202.99 L88.0058 1202.99 L88.0058 1198.48 L102.381 1176.58 Z" fill="#000000" fill-rule="nonzero" fill-opacity="1" /><path clip-path="url(#clip100)" d="M53.0754 964.986 L82.7512 964.986 L82.7512 968.921 L53.0754 968.921 L53.0754 964.986 Z" fill="#000000" fill-rule="nonzero" fill-opacity="1" /><path clip-path="url(#clip100)" d="M96.8715 977.879 L113.191 977.879 L113.191 981.815 L91.2465 981.815 L91.2465 977.879 Q93.9086 975.125 98.4919 970.495 Q103.098 965.842 104.279 964.5 Q106.524 961.977 107.404 960.241 Q108.307 958.481 108.307 956.792 Q108.307 954.037 106.362 952.301 Q104.441 950.565 101.339 950.565 Q99.14 950.565 96.6863 951.329 Q94.2558 952.093 91.478 953.643 L91.478 948.921 Q94.3021 947.787 96.7558 947.208 Q99.2095 946.63 101.246 946.63 Q106.617 946.63 109.811 949.315 Q113.006 952 113.006 956.491 Q113.006 958.62 112.196 960.542 Q111.408 962.44 109.302 965.032 Q108.723 965.704 105.621 968.921 Q102.52 972.116 96.8715 977.879 Z" fill="#000000" fill-rule="nonzero" fill-opacity="1" /><path clip-path="url(#clip100)" d="M101.246 721.011 Q97.6354 721.011 95.8067 724.575 Q94.0012 728.117 94.0012 735.247 Q94.0012 742.353 95.8067 745.918 Q97.6354 749.46 101.246 749.46 Q104.881 749.46 106.686 745.918 Q108.515 742.353 108.515 735.247 Q108.515 728.117 106.686 724.575 Q104.881 721.011 101.246 721.011 M101.246 717.307 Q107.057 717.307 110.112 721.913 Q113.191 726.497 113.191 735.247 Q113.191 743.973 110.112 748.58 Q107.057 753.163 101.246 753.163 Q95.4363 753.163 92.3576 748.58 Q89.3021 743.973 89.3021 735.247 Q89.3021 726.497 92.3576 721.913 Q95.4363 717.307 101.246 717.307 Z" fill="#000000" fill-rule="nonzero" fill-opacity="1" /><path clip-path="url(#clip100)" d="M96.8715 519.234 L113.191 519.234 L113.191 523.169 L91.2465 523.169 L91.2465 519.234 Q93.9086 516.48 98.4919 511.85 Q103.098 507.197 104.279 505.855 Q106.524 503.331 107.404 501.595 Q108.307 499.836 108.307 498.146 Q108.307 495.392 106.362 493.656 Q104.441 491.92 101.339 491.92 Q99.14 491.92 96.6863 492.683 Q94.2558 493.447 91.478 494.998 L91.478 490.276 Q94.3021 489.142 96.7558 488.563 Q99.2095 487.984 101.246 487.984 Q106.617 487.984 109.811 490.67 Q113.006 493.355 113.006 497.845 Q113.006 499.975 112.196 501.896 Q111.408 503.794 109.302 506.387 Q108.723 507.058 105.621 510.276 Q102.52 513.47 96.8715 519.234 Z" fill="#000000" fill-rule="nonzero" fill-opacity="1" /><path clip-path="url(#clip100)" d="M103.608 263.361 L91.8021 281.81 L103.608 281.81 L103.608 263.361 M102.381 259.287 L108.26 259.287 L108.26 281.81 L113.191 281.81 L113.191 285.699 L108.26 285.699 L108.26 293.847 L103.608 293.847 L103.608 285.699 L88.0058 285.699 L88.0058 281.185 L102.381 259.287 Z" fill="#000000" fill-rule="nonzero" fill-opacity="1" /><path clip-path="url(#clip100)" d="M101.663 45.3807 Q98.515 45.3807 96.6632 47.5334 Q94.8345 49.6862 94.8345 53.4362 Q94.8345 57.163 96.6632 59.3389 Q98.515 61.4917 101.663 61.4917 Q104.811 61.4917 106.64 59.3389 Q108.492 57.163 108.492 53.4362 Q108.492 49.6862 106.64 47.5334 Q104.811 45.3807 101.663 45.3807 M110.946 30.728 L110.946 34.9872 Q109.186 34.1539 107.381 33.7141 Q105.598 33.2743 103.839 33.2743 Q99.2095 33.2743 96.7558 36.3992 Q94.3252 39.5242 93.978 45.8436 Q95.3437 43.8298 97.4039 42.765 Q99.4641 41.677 101.941 41.677 Q107.149 41.677 110.158 44.8483 Q113.191 47.9964 113.191 53.4362 Q113.191 58.7602 110.043 61.9778 Q106.895 65.1954 101.663 65.1954 Q95.6678 65.1954 92.4965 60.6121 Q89.3253 56.0056 89.3253 47.2788 Q89.3253 39.0844 93.2141 34.2233 Q97.103 29.3391 103.654 29.3391 Q105.413 29.3391 107.196 29.6863 Q109.001 30.0335 110.946 30.728 Z" fill="#000000" fill-rule="nonzero" fill-opacity="1" /><polyline clip-path="url(#clip102)" style="stroke:#009af9; stroke-linecap:round; stroke-linejoin:round; stroke-width:12; stroke-opacity:1; fill:none" points="149.191,1193.86 151.945,1193.25 154.7,1191.59 157.454,1189.08 160.209,1185.89 162.963,1182.17 165.718,1178.04 168.472,1173.6 171.227,1168.91 173.981,1164.05 176.735,1159.05 179.49,1153.96 182.244,1148.8 184.999,1143.59 187.753,1138.35 190.508,1133.09 193.262,1127.82 196.017,1122.54 198.771,1117.25 201.526,1111.97 204.28,1106.68 207.034,1101.39 209.789,1096.1 212.543,1090.82 215.298,1085.53 218.052,1080.24 220.807,1074.95 223.561,1069.66 226.316,1064.38 229.07,1059.09 231.825,1053.81 234.579,1048.52 237.333,1043.25 240.088,1037.97 242.842,1032.7 245.597,1027.44 248.351,1022.18 251.106,1016.93 253.86,1011.69 256.615,1006.46 259.369,1001.24 262.124,996.039 264.878,990.849 267.632,985.674 270.387,980.516 273.141,975.375 275.896,970.252 278.65,965.15 281.405,960.068 284.159,955.007 286.914,949.97 289.668,944.956 292.423,939.967 295.177,935.003 297.932,930.065 300.686,925.153 303.44,920.269 306.195,915.413 308.949,910.585 311.704,905.787 314.458,901.018 317.213,896.279 319.967,891.57 322.722,886.893 325.476,882.246 328.231,877.631 330.985,873.048 333.739,868.496 336.494,863.977 339.248,859.49 342.003,855.036 344.757,850.614 347.512,846.224 350.266,841.868 353.021,837.544 355.775,833.253 358.53,828.995 361.284,824.77 364.038,820.577 366.793,816.418 369.547,812.291 372.302,808.196 375.056,804.134 377.811,800.105 380.565,796.109 383.32,792.144 386.074,788.212 388.829,784.312 391.583,780.444 394.337,776.607 397.092,772.803 399.846,769.029 402.601,765.287 405.355,761.576 408.11,757.895 410.864,754.245 413.619,750.625 416.373,747.036 419.128,743.477 421.882,739.947 424.636,736.448 427.391,732.977 430.145,729.536 432.9,726.124 435.654,722.741 438.409,719.386 441.163,716.06 443.918,712.762 446.672,709.492 449.427,706.249 452.181,703.034 454.936,699.847 457.69,696.686 460.444,693.552 463.199,690.445 465.953,687.365 468.708,684.31 471.462,681.282 474.217,678.279 476.971,675.302 479.726,672.35 482.48,669.424 485.235,666.522 487.989,663.644 490.743,660.792 493.498,657.963 496.252,655.159 499.007,652.378 501.761,649.621 504.516,646.887 507.27,644.177 510.025,641.49 512.779,638.825 515.534,636.183 518.288,633.563 521.042,630.966 523.797,628.391 526.551,625.837 529.306,623.305 532.06,620.795 534.815,618.306 537.569,615.838 540.324,613.39 543.078,610.964 545.833,608.558 548.587,606.172 551.341,603.807 554.096,601.461 556.85,599.135 559.605,596.829 562.359,594.542 565.114,592.274 567.868,590.026 570.623,587.796 573.377,585.585 576.132,583.393 578.886,581.219 581.641,579.064 584.395,576.926 587.149,574.806 589.904,572.704 592.658,570.62 595.413,568.553 598.167,566.504 600.922,564.471 603.676,562.456 606.431,560.457 609.185,558.475 611.94,556.51 614.694,554.56 617.448,552.628 620.203,550.711 622.957,548.81 625.712,546.925 628.466,545.056 631.221,543.202 633.975,541.364 636.73,539.54 639.484,537.732 642.239,535.939 644.993,534.161 647.747,532.398 650.502,530.649 653.256,528.914 656.011,527.194 658.765,525.488 661.52,523.796 664.274,522.119 667.029,520.455 669.783,518.804 672.538,517.167 675.292,515.544 678.046,513.934 680.801,512.337 683.555,510.754 686.31,509.183 689.064,507.625 691.819,506.08 694.573,504.548 697.328,503.028 700.082,501.52 702.837,500.025 705.591,498.542 708.345,497.071 711.1,495.612 713.854,494.165 716.609,492.73 719.363,491.306 722.118,489.894 724.872,488.493 727.627,487.104 730.381,485.726 733.136,484.359 735.89,483.004 738.645,481.659 741.399,480.325 744.153,479.002 746.908,477.689 749.662,476.387 752.417,475.096 755.171,473.815 757.926,472.544 760.68,471.284 763.435,470.034 766.189,468.793 768.944,467.563 771.698,466.342 774.452,465.132 777.207,463.931 779.961,462.739 782.716,461.558 785.47,460.385 788.225,459.222 790.979,458.068 793.734,456.924 796.488,455.788 799.243,454.662 801.997,453.544 804.751,452.436 807.506,451.336 810.26,450.245 813.015,449.162 815.769,448.089 818.524,447.023 821.278,445.966 824.033,444.918 826.787,443.877 829.542,442.845 832.296,441.821 835.05,440.805 837.805,439.797 840.559,438.797 843.314,437.805 846.068,436.82 848.823,435.843 851.577,434.874 854.332,433.913 857.086,432.958 859.841,432.012 862.595,431.073 865.349,430.141 868.104,429.216 870.858,428.298 873.613,427.388 876.367,426.484 879.122,425.588 881.876,424.698 884.631,423.815 887.385,422.939 890.14,422.07 892.894,421.207 895.649,420.351 898.403,419.502 901.157,418.659 903.912,417.823 906.666,416.992 909.421,416.169 912.175,415.351 914.93,414.54 917.684,413.735 920.439,412.936 923.193,412.143 925.948,411.356 928.702,410.575 931.456,409.799 934.211,409.03 936.965,408.266 939.72,407.508 942.474,406.756 945.229,406.01 947.983,405.269 950.738,404.533 953.492,403.803 956.247,403.079 959.001,402.36 961.755,401.646 964.51,400.937 967.264,400.234 970.019,399.536 972.773,398.843 975.528,398.155 978.282,397.472 981.037,396.795 983.791,396.122 986.546,395.454 989.3,394.791 992.054,394.133 994.809,393.479 997.563,392.831 1000.32,392.187 1003.07,391.547 1005.83,390.913 1008.58,390.282 1011.34,389.657 1014.09,389.036 1016.84,388.419 1019.6,387.807 1022.35,387.199 1025.11,386.595 1027.86,385.996 1030.62,385.401 1033.37,384.81 1036.13,384.224 1038.88,383.641 1041.63,383.063 1044.39,382.489 1047.14,381.919 1049.9,381.352 1052.65,380.79 1055.41,380.232 1058.16,379.677 1060.92,379.126 1063.67,378.579 1066.42,378.036 1069.18,377.497 1071.93,376.961 1074.69,376.429 1077.44,375.901 1080.2,375.376 1082.95,374.855 1085.71,374.337 1088.46,373.823 1091.21,373.312 1093.97,372.805 1096.72,372.301 1099.48,371.801 1102.23,371.304 1104.99,370.81 1107.74,370.319 1110.5,369.832 1113.25,369.348 1116.01,368.867 1118.76,368.389 1121.51,367.914 1124.27,367.442 1127.02,366.974 1129.78,366.508 1132.53,366.046 1135.29,365.586 1138.04,365.13 1140.8,364.676 1143.55,364.225 1146.3,363.777 1149.06,363.332 1151.81,362.89 1154.57,362.451 1157.32,362.014 1160.08,361.58 1162.83,361.148 1165.59,360.72 1168.34,360.294 1171.09,359.871 1173.85,359.45 1176.6,359.032 1179.36,358.616 1182.11,358.203 1184.87,357.792 1187.62,357.384 1190.38,356.979 1193.13,356.576 1195.88,356.175 1198.64,355.776 1201.39,355.38 1204.15,354.987 1206.9,354.596 1209.66,354.207 1212.41,353.82 1215.17,353.435 1217.92,353.053 1220.67,352.673 1223.43,352.295 1226.18,351.92 1228.94,351.546 1231.69,351.175 1234.45,350.806 1237.2,350.439 1239.96,350.074 1242.71,349.711 1245.46,349.35 1248.22,348.991 1250.97,348.634 1253.73,348.279 1256.48,347.926 1259.24,347.574 1261.99,347.225 1264.75,346.878 1267.5,346.532 1270.25,346.189 1273.01,345.847 1275.76,345.507 1278.52,345.169 1281.27,344.832 1284.03,344.498 1286.78,344.165 1289.54,343.834 1292.29,343.504 1295.04,343.177 1297.8,342.851 1300.55,342.526 1303.31,342.204 1306.06,341.883 1308.82,341.563 1311.57,341.245 1314.33,340.929 1317.08,340.614 1319.83,340.301 1322.59,339.99 1325.34,339.679 1328.1,339.371 1330.85,339.064 1333.61,338.758 1336.36,338.454 1339.12,338.151 1341.87,337.85 1344.62,337.55 1347.38,337.252 1350.13,336.955 1352.89,336.659 1355.64,336.364 1358.4,336.071 1361.15,335.78 1363.91,335.489 1366.66,335.2 1369.41,334.912 1372.17,334.626 1374.92,334.341 1377.68,334.057 1380.43,333.774 1383.19,333.492 1385.94,333.212 1388.7,332.933 1391.45,332.655 1394.21,332.378 1396.96,332.102 1399.71,331.828 1402.47,331.554 1405.22,331.282 1407.98,331.011 1410.73,330.741 1413.49,330.472 1416.24,330.204 1419,329.937 1421.75,329.671 1424.5,329.407 1427.26,329.143 1430.01,328.88 1432.77,328.619 1435.52,328.358 1438.28,328.098 1441.03,327.839 1443.79,327.582 1446.54,327.325 1449.29,327.069 1452.05,326.814 1454.8,326.56 1457.56,326.307 1460.31,326.054 1463.07,325.803 1465.82,325.553 1468.58,325.303 1471.33,325.054 1474.08,324.806 1476.84,324.559 1479.59,324.313 1482.35,324.068 1485.1,323.823 1487.86,323.58 1490.61,323.337 1493.37,323.095 1496.12,322.853 1498.87,322.613 1501.63,322.373 1504.38,322.134 1507.14,321.896 1509.89,321.658 1512.65,321.422 1515.4,321.185 1518.16,320.95 1520.91,320.716 1523.66,320.482 1526.42,320.249 1529.17,320.016 1531.93,319.784 1534.68,319.553 1537.44,319.323 1540.19,319.093 1542.95,318.864 1545.7,318.635 1548.45,318.408 1551.21,318.18 1553.96,317.954 1556.72,317.728 1559.47,317.502 1562.23,317.278 1564.98,317.053 1567.74,316.83 1570.49,316.607 1573.24,316.384 1576,316.162 1578.75,315.941 1581.51,315.72 1584.26,315.5 1587.02,315.281 1589.77,315.061 1592.53,314.843 1595.28,314.625 1598.03,314.407 1600.79,314.19 1603.54,313.974 1606.3,313.758 1609.05,313.542 1611.81,313.327 1614.56,313.113 1617.32,312.899 1620.07,312.685 1622.82,312.472 1625.58,312.259 1628.33,312.047 1631.09,311.835 1633.84,311.624 1636.6,311.413 1639.35,311.203 1642.11,310.993 1644.86,310.783 1647.62,310.574 1650.37,310.366 1653.12,310.157 1655.88,309.949 1658.63,309.742 1661.39,309.535 1664.14,309.328 1666.9,309.122 1669.65,308.916 1672.41,308.71 1675.16,308.505 1677.91,308.3 1680.67,308.096 1683.42,307.892 1686.18,307.688 1688.93,307.485 1691.69,307.282 1694.44,307.079 1697.2,306.877 1699.95,306.675 1702.7,306.473 1705.46,306.272 1708.21,306.071 1710.97,305.87 1713.72,305.67 1716.48,305.47 1719.23,305.27 1721.99,305.07 1724.74,304.871 1727.49,304.672 1730.25,304.473 1733,304.275 1735.76,304.077 1738.51,303.879 1741.27,303.682 1744.02,303.485 1746.78,303.288 1749.53,303.091 1752.28,302.894 1755.04,302.698 1757.79,302.502 1760.55,302.307 1763.3,302.111 1766.06,301.916 1768.81,301.721 1771.57,301.526 1774.32,301.332 1777.07,301.138 1779.83,300.944 1782.58,300.75 1785.34,300.556 1788.09,300.363 1790.85,300.17 1793.6,299.977 1796.36,299.784 1799.11,299.591 1801.86,299.399 1804.62,299.207 1807.37,299.015 1810.13,298.823 1812.88,298.632 1815.64,298.44 1818.39,298.249 1821.15,298.058 1823.9,297.867 1826.65,297.677 1829.41,297.486 1832.16,297.296 1834.92,297.106 1837.67,296.916 1840.43,296.727 1843.18,296.537 1845.94,296.348 1848.69,296.158 1851.44,295.969 1854.2,295.78 1856.95,295.592 1859.71,295.403 1862.46,295.215 1865.22,295.026 1867.97,294.838 1870.73,294.65 1873.48,294.462 1876.23,294.275 1878.99,294.087 1881.74,293.9 1884.5,293.712 1887.25,293.525 1890.01,293.338 1892.76,293.152 1895.52,292.965 1898.27,292.778 1901.03,292.592 1903.78,292.405 1906.53,292.219 1909.29,292.033 1912.04,291.847 1914.8,291.661 1917.55,291.476 1920.31,291.29 1923.06,291.105 1925.82,290.919 1928.57,290.734 1931.32,290.549 1934.08,290.364 1936.83,290.179 1939.59,289.994 1942.34,289.809 1945.1,289.625 1947.85,289.44 1950.61,289.256 1953.36,289.071 1956.11,288.887 1958.87,288.703 1961.62,288.519 1964.38,288.335 1967.13,288.151 1969.89,287.967 1972.64,287.783 1975.4,287.6 1978.15,287.416 1980.9,287.233 1983.66,287.049 1986.41,286.866 1989.17,286.683 1991.92,286.5 1994.68,286.317 1997.43,286.134 2000.19,285.951 2002.94,285.768 2005.69,285.585 2008.45,285.403 2011.2,285.22 2013.96,285.037 2016.71,284.855 2019.47,284.673 2022.22,284.49 2024.98,284.308 2027.73,284.126 2030.48,283.944 2033.24,283.761 2035.99,283.579 2038.75,283.397 2041.5,283.216 2044.26,283.034 2047.01,282.852 2049.77,282.67 2052.52,282.489 2055.27,282.307 2058.03,282.125 2060.78,281.944 2063.54,281.762 2066.29,281.581 2069.05,281.4 2071.8,281.218 2074.56,281.037 2077.31,280.856 2080.06,280.675 2082.82,280.494 2085.57,280.312 2088.33,280.131 2091.08,279.95 2093.84,279.77 2096.59,279.589 2099.35,279.408 2102.1,279.227 2104.85,279.046 2107.61,278.865 2110.36,278.685 2113.12,278.504 2115.87,278.323 2118.63,278.143 2121.38,277.962 2124.14,277.782 2126.89,277.601 2129.64,277.421 2132.4,277.24 2135.15,277.06 2137.91,276.879 2140.66,276.699 2143.42,276.519 2146.17,276.339 2148.93,276.158 2151.68,275.978 2154.44,275.798 2157.19,275.618 2159.94,275.438 2162.7,275.257 2165.45,275.077 2168.21,274.897 2170.96,274.717 2173.72,274.537 2176.47,274.357 2179.23,274.177 2181.98,273.997 2184.73,273.817 2187.49,273.637 2190.24,273.457 2193,273.278 2195.75,273.098 2198.51,272.918 2201.26,272.738 2204.02,272.558 2206.77,272.379 2209.52,272.199 2212.28,272.019 2215.03,271.839 2217.79,271.66 2220.54,271.48 2223.3,271.3 2226.05,271.121 2228.81,270.941 2231.56,270.761 2234.31,270.582 2237.07,270.402 2239.82,270.222 2242.58,270.043 2245.33,269.863 2248.09,269.684 2250.84,269.504 2253.6,269.325 2256.35,269.145 2259.1,268.966 2261.86,268.786 2264.61,268.607 2267.37,268.427 2270.12,268.248 2272.88,268.068 2275.63,267.889 2278.39,267.71 2281.14,267.53 2283.89,267.351 2286.65,267.171 2289.4,266.992 2292.16,266.813 2294.91,266.633 2297.67,266.454 2300.42,266.275 2303.18,266.095 2305.93,265.916 2308.68,265.737 2311.44,265.558 2314.19,265.378 2316.95,265.199 2319.7,265.02 2322.46,264.841 2325.21,264.661 2327.97,264.482 2330.72,264.303 2333.47,264.124 2336.23,263.945 2338.98,263.765 2341.74,263.586 2344.49,263.407 2347.25,263.228 2350,263.049 2352.76,262.87 "/>
<polyline clip-path="url(#clip102)" style="stroke:#e26f46; stroke-linecap:round; stroke-linejoin:round; stroke-width:12; stroke-opacity:1; fill:none" points="149.191,735.212 151.945,618.022 154.7,523.359 157.454,447.693 160.209,387.867 162.963,341.101 165.718,304.984 168.472,277.44 171.227,256.718 173.981,241.362 176.735,230.175 179.49,222.17 182.244,216.557 184.999,212.714 187.753,210.163 190.508,208.537 193.262,207.541 196.017,206.957 198.771,206.641 201.526,206.484 204.28,206.42 207.034,206.404 209.789,206.406 212.543,206.408 215.298,206.406 218.052,206.41 220.807,206.427 223.561,206.469 226.316,206.549 229.07,206.68 231.825,206.873 234.579,207.139 237.333,207.488 240.088,207.93 242.842,208.471 245.597,209.121 248.351,209.883 251.106,210.762 253.86,211.757 256.615,212.871 259.369,214.104 262.124,215.456 264.878,216.925 267.632,218.512 270.387,220.212 273.141,222.025 275.896,223.947 278.65,225.974 281.405,228.102 284.159,230.326 286.914,232.64 289.668,235.041 292.423,237.525 295.177,240.087 297.932,242.721 300.686,245.424 303.44,248.191 306.195,251.017 308.949,253.899 311.704,256.831 314.458,259.811 317.213,262.834 319.967,265.896 322.722,268.993 325.476,272.123 328.231,275.28 330.985,278.463 333.739,281.668 336.494,284.892 339.248,288.131 342.003,291.384 344.757,294.647 347.512,297.919 350.266,301.198 353.021,304.482 355.775,307.767 358.53,311.054 361.284,314.339 364.038,317.621 366.793,320.899 369.547,324.17 372.302,327.434 375.056,330.689 377.811,333.934 380.565,337.168 383.32,340.389 386.074,343.596 388.829,346.79 391.583,349.968 394.337,353.13 397.092,356.275 399.846,359.404 402.601,362.514 405.355,365.607 408.11,368.682 410.864,371.737 413.619,374.773 416.373,377.789 419.128,380.785 421.882,383.761 424.636,386.716 427.391,389.649 430.145,392.562 432.9,395.454 435.654,398.324 438.409,401.173 441.163,404 443.918,406.806 446.672,409.589 449.427,412.351 452.181,415.091 454.936,417.808 457.69,420.504 460.444,423.178 463.199,425.829 465.953,428.459 468.708,431.067 471.462,433.653 474.217,436.217 476.971,438.759 479.726,441.28 482.48,443.78 485.235,446.258 487.989,448.715 490.743,451.151 493.498,453.566 496.252,455.959 499.007,458.332 501.761,460.684 504.516,463.016 507.27,465.327 510.025,467.618 512.779,469.889 515.534,472.14 518.288,474.371 521.042,476.583 523.797,478.775 526.551,480.947 529.306,483.101 532.06,485.235 534.815,487.35 537.569,489.447 540.324,491.524 543.078,493.584 545.833,495.625 548.587,497.647 551.341,499.652 554.096,501.639 556.85,503.608 559.605,505.559 562.359,507.493 565.114,509.41 567.868,511.309 570.623,513.192 573.377,515.057 576.132,516.906 578.886,518.738 581.641,520.554 584.395,522.354 587.149,524.138 589.904,525.906 592.658,527.658 595.413,529.394 598.167,531.115 600.922,532.82 603.676,534.51 606.431,536.185 609.185,537.845 611.94,539.491 614.694,541.121 617.448,542.738 620.203,544.339 622.957,545.927 625.712,547.5 628.466,549.059 631.221,550.604 633.975,552.136 636.73,553.654 639.484,555.158 642.239,556.649 644.993,558.127 647.747,559.592 650.502,561.043 653.256,562.482 656.011,563.908 658.765,565.321 661.52,566.721 664.274,568.11 667.029,569.485 669.783,570.849 672.538,572.201 675.292,573.54 678.046,574.868 680.801,576.184 683.555,577.488 686.31,578.781 689.064,580.062 691.819,581.332 694.573,582.591 697.328,583.838 700.082,585.075 702.837,586.301 705.591,587.515 708.345,588.719 711.1,589.913 713.854,591.096 716.609,592.268 719.363,593.43 722.118,594.582 724.872,595.724 727.627,596.855 730.381,597.977 733.136,599.089 735.89,600.191 738.645,601.283 741.399,602.365 744.153,603.438 746.908,604.502 749.662,605.556 752.417,606.601 755.171,607.637 757.926,608.663 760.68,609.681 763.435,610.689 766.189,611.689 768.944,612.68 771.698,613.662 774.452,614.635 777.207,615.6 779.961,616.557 782.716,617.505 785.47,618.444 788.225,619.376 790.979,620.299 793.734,621.214 796.488,622.121 799.243,623.02 801.997,623.911 804.751,624.794 807.506,625.669 810.26,626.537 813.015,627.397 815.769,628.249 818.524,629.094 821.278,629.931 824.033,630.761 826.787,631.584 829.542,632.399 832.296,633.207 835.05,634.008 837.805,634.802 840.559,635.589 843.314,636.369 846.068,637.142 848.823,637.908 851.577,638.668 854.332,639.42 857.086,640.166 859.841,640.906 862.595,641.639 865.349,642.365 868.104,643.085 870.858,643.799 873.613,644.506 876.367,645.207 879.122,645.901 881.876,646.59 884.631,647.273 887.385,647.949 890.14,648.619 892.894,649.284 895.649,649.942 898.403,650.595 901.157,651.242 903.912,651.883 906.666,652.519 909.421,653.148 912.175,653.773 914.93,654.391 917.684,655.004 920.439,655.612 923.193,656.214 925.948,656.811 928.702,657.403 931.456,657.989 934.211,658.57 936.965,659.146 939.72,659.717 942.474,660.282 945.229,660.843 947.983,661.398 950.738,661.949 953.492,662.494 956.247,663.035 959.001,663.571 961.755,664.102 964.51,664.628 967.264,665.149 970.019,665.666 972.773,666.178 975.528,666.686 978.282,667.189 981.037,667.687 983.791,668.181 986.546,668.67 989.3,669.156 992.054,669.636 994.809,670.112 997.563,670.584 1000.32,671.052 1003.07,671.516 1005.83,671.975 1008.58,672.43 1011.34,672.881 1014.09,673.328 1016.84,673.77 1019.6,674.209 1022.35,674.644 1025.11,675.075 1027.86,675.501 1030.62,675.924 1033.37,676.343 1036.13,676.758 1038.88,677.17 1041.63,677.577 1044.39,677.981 1047.14,678.381 1049.9,678.778 1052.65,679.171 1055.41,679.56 1058.16,679.945 1060.92,680.327 1063.67,680.706 1066.42,681.081 1069.18,681.453 1071.93,681.821 1074.69,682.185 1077.44,682.547 1080.2,682.905 1082.95,683.259 1085.71,683.611 1088.46,683.959 1091.21,684.304 1093.97,684.645 1096.72,684.984 1099.48,685.319 1102.23,685.651 1104.99,685.98 1107.74,686.306 1110.5,686.629 1113.25,686.949 1116.01,687.266 1118.76,687.58 1121.51,687.891 1124.27,688.2 1127.02,688.505 1129.78,688.807 1132.53,689.107 1135.29,689.404 1138.04,689.697 1140.8,689.989 1143.55,690.277 1146.3,690.563 1149.06,690.846 1151.81,691.126 1154.57,691.404 1157.32,691.679 1160.08,691.951 1162.83,692.221 1165.59,692.488 1168.34,692.753 1171.09,693.015 1173.85,693.275 1176.6,693.532 1179.36,693.787 1182.11,694.04 1184.87,694.289 1187.62,694.537 1190.38,694.782 1193.13,695.025 1195.88,695.265 1198.64,695.504 1201.39,695.74 1204.15,695.973 1206.9,696.204 1209.66,696.434 1212.41,696.66 1215.17,696.885 1217.92,697.108 1220.67,697.328 1223.43,697.546 1226.18,697.762 1228.94,697.976 1231.69,698.188 1234.45,698.398 1237.2,698.606 1239.96,698.811 1242.71,699.015 1245.46,699.217 1248.22,699.417 1250.97,699.615 1253.73,699.81 1256.48,700.004 1259.24,700.196 1261.99,700.387 1264.75,700.575 1267.5,700.761 1270.25,700.946 1273.01,701.129 1275.76,701.31 1278.52,701.489 1281.27,701.666 1284.03,701.842 1286.78,702.015 1289.54,702.188 1292.29,702.358 1295.04,702.527 1297.8,702.694 1300.55,702.859 1303.31,703.022 1306.06,703.184 1308.82,703.345 1311.57,703.504 1314.33,703.661 1317.08,703.816 1319.83,703.97 1322.59,704.123 1325.34,704.274 1328.1,704.423 1330.85,704.571 1333.61,704.717 1336.36,704.862 1339.12,705.005 1341.87,705.147 1344.62,705.287 1347.38,705.426 1350.13,705.564 1352.89,705.7 1355.64,705.835 1358.4,705.968 1361.15,706.1 1363.91,706.231 1366.66,706.36 1369.41,706.488 1372.17,706.615 1374.92,706.74 1377.68,706.864 1380.43,706.987 1383.19,707.108 1385.94,707.229 1388.7,707.348 1391.45,707.465 1394.21,707.582 1396.96,707.697 1399.71,707.811 1402.47,707.924 1405.22,708.036 1407.98,708.146 1410.73,708.256 1413.49,708.364 1416.24,708.471 1419,708.577 1421.75,708.682 1424.5,708.785 1427.26,708.888 1430.01,708.99 1432.77,709.09 1435.52,709.19 1438.28,709.288 1441.03,709.385 1443.79,709.481 1446.54,709.577 1449.29,709.671 1452.05,709.764 1454.8,709.856 1457.56,709.948 1460.31,710.038 1463.07,710.127 1465.82,710.216 1468.58,710.303 1471.33,710.389 1474.08,710.475 1476.84,710.56 1479.59,710.643 1482.35,710.726 1485.1,710.808 1487.86,710.889 1490.61,710.969 1493.37,711.048 1496.12,711.127 1498.87,711.204 1501.63,711.281 1504.38,711.356 1507.14,711.431 1509.89,711.506 1512.65,711.579 1515.4,711.651 1518.16,711.723 1520.91,711.794 1523.66,711.864 1526.42,711.934 1529.17,712.002 1531.93,712.07 1534.68,712.137 1537.44,712.203 1540.19,712.269 1542.95,712.334 1545.7,712.398 1548.45,712.461 1551.21,712.524 1553.96,712.586 1556.72,712.647 1559.47,712.708 1562.23,712.767 1564.98,712.827 1567.74,712.885 1570.49,712.943 1573.24,713 1576,713.057 1578.75,713.113 1581.51,713.168 1584.26,713.223 1587.02,713.277 1589.77,713.33 1592.53,713.383 1595.28,713.435 1598.03,713.487 1600.79,713.538 1603.54,713.588 1606.3,713.638 1609.05,713.687 1611.81,713.736 1614.56,713.784 1617.32,713.831 1620.07,713.878 1622.82,713.925 1625.58,713.971 1628.33,714.016 1631.09,714.061 1633.84,714.105 1636.6,714.149 1639.35,714.192 1642.11,714.235 1644.86,714.277 1647.62,714.318 1650.37,714.36 1653.12,714.4 1655.88,714.44 1658.63,714.48 1661.39,714.519 1664.14,714.558 1666.9,714.596 1669.65,714.634 1672.41,714.672 1675.16,714.708 1677.91,714.745 1680.67,714.781 1683.42,714.817 1686.18,714.852 1688.93,714.886 1691.69,714.921 1694.44,714.955 1697.2,714.988 1699.95,715.021 1702.7,715.054 1705.46,715.086 1708.21,715.118 1710.97,715.149 1713.72,715.18 1716.48,715.211 1719.23,715.241 1721.99,715.271 1724.74,715.301 1727.49,715.33 1730.25,715.359 1733,715.387 1735.76,715.415 1738.51,715.443 1741.27,715.47 1744.02,715.497 1746.78,715.524 1749.53,715.55 1752.28,715.576 1755.04,715.602 1757.79,715.627 1760.55,715.652 1763.3,715.677 1766.06,715.701 1768.81,715.725 1771.57,715.749 1774.32,715.773 1777.07,715.796 1779.83,715.819 1782.58,715.841 1785.34,715.864 1788.09,715.886 1790.85,715.907 1793.6,715.929 1796.36,715.95 1799.11,715.971 1801.86,715.991 1804.62,716.012 1807.37,716.032 1810.13,716.052 1812.88,716.071 1815.64,716.091 1818.39,716.11 1821.15,716.128 1823.9,716.147 1826.65,716.165 1829.41,716.183 1832.16,716.201 1834.92,716.219 1837.67,716.236 1840.43,716.253 1843.18,716.27 1845.94,716.287 1848.69,716.303 1851.44,716.319 1854.2,716.335 1856.95,716.351 1859.71,716.367 1862.46,716.382 1865.22,716.397 1867.97,716.412 1870.73,716.427 1873.48,716.441 1876.23,716.456 1878.99,716.47 1881.74,716.484 1884.5,716.497 1887.25,716.511 1890.01,716.524 1892.76,716.537 1895.52,716.55 1898.27,716.563 1901.03,716.576 1903.78,716.588 1906.53,716.6 1909.29,716.612 1912.04,716.624 1914.8,716.636 1917.55,716.647 1920.31,716.659 1923.06,716.67 1925.82,716.681 1928.57,716.692 1931.32,716.703 1934.08,716.713 1936.83,716.724 1939.59,716.734 1942.34,716.744 1945.1,716.754 1947.85,716.764 1950.61,716.774 1953.36,716.783 1956.11,716.793 1958.87,716.802 1961.62,716.811 1964.38,716.82 1967.13,716.829 1969.89,716.838 1972.64,716.846 1975.4,716.855 1978.15,716.863 1980.9,716.871 1983.66,716.879 1986.41,716.887 1989.17,716.895 1991.92,716.903 1994.68,716.911 1997.43,716.918 2000.19,716.925 2002.94,716.933 2005.69,716.94 2008.45,716.947 2011.2,716.954 2013.96,716.961 2016.71,716.967 2019.47,716.974 2022.22,716.98 2024.98,716.987 2027.73,716.993 2030.48,716.999 2033.24,717.005 2035.99,717.011 2038.75,717.017 2041.5,717.023 2044.26,717.028 2047.01,717.034 2049.77,717.04 2052.52,717.045 2055.27,717.05 2058.03,717.055 2060.78,717.061 2063.54,717.066 2066.29,717.071 2069.05,717.076 2071.8,717.08 2074.56,717.085 2077.31,717.09 2080.06,717.094 2082.82,717.099 2085.57,717.103 2088.33,717.107 2091.08,717.112 2093.84,717.116 2096.59,717.12 2099.35,717.124 2102.1,717.128 2104.85,717.132 2107.61,717.136 2110.36,717.139 2113.12,717.143 2115.87,717.147 2118.63,717.15 2121.38,717.154 2124.14,717.157 2126.89,717.161 2129.64,717.164 2132.4,717.167 2135.15,717.17 2137.91,717.174 2140.66,717.177 2143.42,717.18 2146.17,717.183 2148.93,717.186 2151.68,717.188 2154.44,717.191 2157.19,717.194 2159.94,717.197 2162.7,717.199 2165.45,717.202 2168.21,717.204 2170.96,717.207 2173.72,717.209 2176.47,717.212 2179.23,717.214 2181.98,717.217 2184.73,717.219 2187.49,717.221 2190.24,717.223 2193,717.225 2195.75,717.228 2198.51,717.23 2201.26,717.232 2204.02,717.234 2206.77,717.236 2209.52,717.238 2212.28,717.239 2215.03,717.241 2217.79,717.243 2220.54,717.245 2223.3,717.247 2226.05,717.248 2228.81,717.25 2231.56,717.252 2234.31,717.253 2237.07,717.255 2239.82,717.256 2242.58,717.258 2245.33,717.259 2248.09,717.261 2250.84,717.262 2253.6,717.264 2256.35,717.265 2259.1,717.266 2261.86,717.268 2264.61,717.269 2267.37,717.27 2270.12,717.271 2272.88,717.273 2275.63,717.274 2278.39,717.275 2281.14,717.276 2283.89,717.277 2286.65,717.278 2289.4,717.279 2292.16,717.28 2294.91,717.281 2297.67,717.282 2300.42,717.283 2303.18,717.284 2305.93,717.285 2308.68,717.286 2311.44,717.287 2314.19,717.288 2316.95,717.289 2319.7,717.289 2322.46,717.29 2325.21,717.291 2327.97,717.292 2330.72,717.292 2333.47,717.293 2336.23,717.294 2338.98,717.294 2341.74,717.295 2344.49,717.296 2347.25,717.296 2350,717.297 2352.76,717.298 "/>
<polyline clip-path="url(#clip102)" style="stroke:#3da44d; stroke-linecap:round; stroke-linejoin:round; stroke-width:12; stroke-opacity:1; fill:none" points="149.191,180.653 151.945,217.885 154.7,254.284 157.454,289.716 160.209,324.068 162.963,357.247 165.718,389.179 168.472,419.808 171.227,449.096 173.981,477.021 176.735,503.574 179.49,528.762 182.244,552.602 184.999,575.119 187.753,596.351 190.508,616.339 193.262,635.129 196.017,652.773 198.771,669.324 201.526,684.838 204.28,699.369 207.034,712.973 209.789,725.705 212.543,737.616 215.298,748.758 218.052,759.18 220.807,768.926 223.561,778.042 226.316,786.567 229.07,794.542 231.825,802.001 234.579,808.978 237.333,815.504 240.088,821.609 242.842,827.319 245.597,832.661 248.351,837.655 251.106,842.326 253.86,846.692 256.615,850.772 259.369,854.584 262.124,858.143 264.878,861.465 267.632,864.565 270.387,867.454 273.141,870.146 275.896,872.652 278.65,874.983 281.405,877.149 284.159,879.16 286.914,881.024 289.668,882.75 292.423,884.346 295.177,885.82 297.932,887.178 300.686,888.427 303.44,889.574 306.195,890.624 308.949,891.583 311.704,892.456 314.458,893.248 317.213,893.964 319.967,894.609 322.722,895.186 325.476,895.7 328.231,896.154 330.985,896.551 333.739,896.895 336.494,897.19 339.248,897.438 342.003,897.641 344.757,897.804 347.512,897.927 350.266,898.013 353.021,898.065 355.775,898.085 358.53,898.074 361.284,898.034 364.038,897.968 366.793,897.877 369.547,897.761 372.302,897.624 375.056,897.466 377.811,897.288 380.565,897.092 383.32,896.879 386.074,896.65 388.829,896.406 391.583,896.147 394.337,895.876 397.092,895.592 399.846,895.297 402.601,894.991 405.355,894.674 408.11,894.349 410.864,894.015 413.619,893.672 416.373,893.322 419.128,892.965 421.882,892.602 424.636,892.232 427.391,891.857 430.145,891.477 432.9,891.092 435.654,890.702 438.409,890.308 441.163,889.911 443.918,889.51 446.672,889.106 449.427,888.699 452.181,888.29 454.936,887.878 457.69,887.464 460.444,887.048 463.199,886.631 465.953,886.212 468.708,885.791 471.462,885.37 474.217,884.947 476.971,884.524 479.726,884.1 482.48,883.675 485.235,883.25 487.989,882.824 490.743,882.398 493.498,881.973 496.252,881.547 499.007,881.121 501.761,880.695 504.516,880.27 507.27,879.845 510.025,879.42 512.779,878.996 515.534,878.572 518.288,878.149 521.042,877.727 523.797,877.305 526.551,876.884 529.306,876.464 532.06,876.044 534.815,875.626 537.569,875.208 540.324,874.791 543.078,874.375 545.833,873.96 548.587,873.547 551.341,873.134 554.096,872.722 556.85,872.311 559.605,871.902 562.359,871.494 565.114,871.086 567.868,870.68 570.623,870.275 573.377,869.871 576.132,869.469 578.886,869.067 581.641,868.667 584.395,868.268 587.149,867.871 589.904,867.474 592.658,867.079 595.413,866.685 598.167,866.292 600.922,865.9 603.676,865.51 606.431,865.121 609.185,864.733 611.94,864.347 614.694,863.962 617.448,863.578 620.203,863.195 622.957,862.813 625.712,862.433 628.466,862.054 631.221,861.676 633.975,861.3 636.73,860.924 639.484,860.55 642.239,860.177 644.993,859.806 647.747,859.435 650.502,859.066 653.256,858.698 656.011,858.331 658.765,857.966 661.52,857.601 664.274,857.238 667.029,856.876 669.783,856.515 672.538,856.156 675.292,855.797 678.046,855.44 680.801,855.084 683.555,854.729 686.31,854.375 689.064,854.023 691.819,853.671 694.573,853.321 697.328,852.971 700.082,852.623 702.837,852.276 705.591,851.93 708.345,851.585 711.1,851.242 713.854,850.899 716.609,850.557 719.363,850.217 722.118,849.877 724.872,849.539 727.627,849.202 730.381,848.865 733.136,848.53 735.89,848.196 738.645,847.863 741.399,847.53 744.153,847.199 746.908,846.869 749.662,846.54 752.417,846.212 755.171,845.885 757.926,845.558 760.68,845.233 763.435,844.909 766.189,844.586 768.944,844.264 771.698,843.942 774.452,843.622 777.207,843.302 779.961,842.984 782.716,842.666 785.47,842.35 788.225,842.034 790.979,841.719 793.734,841.405 796.488,841.092 799.243,840.78 801.997,840.469 804.751,840.159 807.506,839.849 810.26,839.541 813.015,839.233 815.769,838.926 818.524,838.62 821.278,838.315 824.033,838.011 826.787,837.707 829.542,837.405 832.296,837.103 835.05,836.802 837.805,836.502 840.559,836.203 843.314,835.904 846.068,835.607 848.823,835.31 851.577,835.014 854.332,834.719 857.086,834.424 859.841,834.131 862.595,833.838 865.349,833.546 868.104,833.255 870.858,832.964 873.613,832.674 876.367,832.385 879.122,832.097 881.876,831.81 884.631,831.523 887.385,831.237 890.14,830.952 892.894,830.667 895.649,830.384 898.403,830.101 901.157,829.818 903.912,829.537 906.666,829.256 909.421,828.976 912.175,828.697 914.93,828.418 917.684,828.14 920.439,827.863 923.193,827.586 925.948,827.31 928.702,827.035 931.456,826.761 934.211,826.487 936.965,826.214 939.72,825.941 942.474,825.669 945.229,825.398 947.983,825.128 950.738,824.858 953.492,824.589 956.247,824.321 959.001,824.053 961.755,823.786 964.51,823.519 967.264,823.253 970.019,822.988 972.773,822.724 975.528,822.46 978.282,822.197 981.037,821.934 983.791,821.672 986.546,821.411 989.3,821.15 992.054,820.89 994.809,820.63 997.563,820.372 1000.32,820.113 1003.07,819.856 1005.83,819.599 1008.58,819.342 1011.34,819.086 1014.09,818.831 1016.84,818.577 1019.6,818.323 1022.35,818.069 1025.11,817.816 1027.86,817.564 1030.62,817.313 1033.37,817.062 1036.13,816.811 1038.88,816.561 1041.63,816.312 1044.39,816.063 1047.14,815.815 1049.9,815.568 1052.65,815.321 1055.41,815.074 1058.16,814.828 1060.92,814.583 1063.67,814.339 1066.42,814.094 1069.18,813.851 1071.93,813.608 1074.69,813.365 1077.44,813.123 1080.2,812.882 1082.95,812.641 1085.71,812.401 1088.46,812.161 1091.21,811.922 1093.97,811.684 1096.72,811.445 1099.48,811.208 1102.23,810.971 1104.99,810.735 1107.74,810.499 1110.5,810.263 1113.25,810.028 1116.01,809.794 1118.76,809.56 1121.51,809.327 1124.27,809.094 1127.02,808.862 1129.78,808.63 1132.53,808.399 1135.29,808.169 1138.04,807.938 1140.8,807.709 1143.55,807.48 1146.3,807.251 1149.06,807.023 1151.81,806.796 1154.57,806.569 1157.32,806.342 1160.08,806.116 1162.83,805.89 1165.59,805.665 1168.34,805.441 1171.09,805.217 1173.85,804.993 1176.6,804.77 1179.36,804.548 1182.11,804.326 1184.87,804.104 1187.62,803.883 1190.38,803.663 1193.13,803.443 1195.88,803.223 1198.64,803.004 1201.39,802.785 1204.15,802.567 1206.9,802.35 1209.66,802.133 1212.41,801.916 1215.17,801.7 1217.92,801.484 1220.67,801.269 1223.43,801.054 1226.18,800.84 1228.94,800.626 1231.69,800.413 1234.45,800.2 1237.2,799.987 1239.96,799.776 1242.71,799.564 1245.46,799.353 1248.22,799.143 1250.97,798.933 1253.73,798.723 1256.48,798.514 1259.24,798.305 1261.99,798.097 1264.75,797.89 1267.5,797.682 1270.25,797.475 1273.01,797.269 1275.76,797.063 1278.52,796.858 1281.27,796.653 1284.03,796.448 1286.78,796.244 1289.54,796.041 1292.29,795.838 1295.04,795.635 1297.8,795.433 1300.55,795.231 1303.31,795.029 1306.06,794.829 1308.82,794.628 1311.57,794.428 1314.33,794.229 1317.08,794.029 1319.83,793.831 1322.59,793.632 1325.34,793.435 1328.1,793.237 1330.85,793.04 1333.61,792.844 1336.36,792.648 1339.12,792.452 1341.87,792.257 1344.62,792.062 1347.38,791.868 1350.13,791.674 1352.89,791.481 1355.64,791.288 1358.4,791.095 1361.15,790.903 1363.91,790.711 1366.66,790.52 1369.41,790.329 1372.17,790.138 1374.92,789.948 1377.68,789.759 1380.43,789.57 1383.19,789.381 1385.94,789.193 1388.7,789.005 1391.45,788.817 1394.21,788.63 1396.96,788.443 1399.71,788.257 1402.47,788.071 1405.22,787.886 1407.98,787.701 1410.73,787.516 1413.49,787.332 1416.24,787.149 1419,786.965 1421.75,786.782 1424.5,786.6 1427.26,786.418 1430.01,786.236 1432.77,786.055 1435.52,785.874 1438.28,785.693 1441.03,785.513 1443.79,785.334 1446.54,785.155 1449.29,784.976 1452.05,784.797 1454.8,784.619 1457.56,784.442 1460.31,784.264 1463.07,784.088 1465.82,783.911 1468.58,783.735 1471.33,783.559 1474.08,783.384 1476.84,783.209 1479.59,783.035 1482.35,782.861 1485.1,782.687 1487.86,782.514 1490.61,782.341 1493.37,782.169 1496.12,781.997 1498.87,781.825 1501.63,781.654 1504.38,781.483 1507.14,781.312 1509.89,781.142 1512.65,780.973 1515.4,780.803 1518.16,780.634 1520.91,780.466 1523.66,780.298 1526.42,780.13 1529.17,779.962 1531.93,779.795 1534.68,779.629 1537.44,779.462 1540.19,779.297 1542.95,779.131 1545.7,778.966 1548.45,778.801 1551.21,778.637 1553.96,778.473 1556.72,778.309 1559.47,778.146 1562.23,777.983 1564.98,777.821 1567.74,777.659 1570.49,777.497 1573.24,777.336 1576,777.175 1578.75,777.014 1581.51,776.854 1584.26,776.694 1587.02,776.535 1589.77,776.375 1592.53,776.217 1595.28,776.058 1598.03,775.9 1600.79,775.743 1603.54,775.585 1606.3,775.429 1609.05,775.272 1611.81,775.116 1614.56,774.96 1617.32,774.805 1620.07,774.649 1622.82,774.495 1625.58,774.34 1628.33,774.186 1631.09,774.033 1633.84,773.88 1636.6,773.727 1639.35,773.574 1642.11,773.422 1644.86,773.27 1647.62,773.119 1650.37,772.967 1653.12,772.817 1655.88,772.666 1658.63,772.516 1661.39,772.366 1664.14,772.217 1666.9,772.068 1669.65,771.919 1672.41,771.771 1675.16,771.623 1677.91,771.476 1680.67,771.328 1683.42,771.181 1686.18,771.035 1688.93,770.889 1691.69,770.743 1694.44,770.597 1697.2,770.452 1699.95,770.307 1702.7,770.163 1705.46,770.019 1708.21,769.875 1710.97,769.731 1713.72,769.588 1716.48,769.446 1719.23,769.303 1721.99,769.161 1724.74,769.019 1727.49,768.878 1730.25,768.737 1733,768.596 1735.76,768.456 1738.51,768.316 1741.27,768.176 1744.02,768.037 1746.78,767.897 1749.53,767.759 1752.28,767.62 1755.04,767.482 1757.79,767.345 1760.55,767.207 1763.3,767.07 1766.06,766.933 1768.81,766.797 1771.57,766.661 1774.32,766.525 1777.07,766.39 1779.83,766.255 1782.58,766.12 1785.34,765.985 1788.09,765.851 1790.85,765.718 1793.6,765.584 1796.36,765.451 1799.11,765.318 1801.86,765.186 1804.62,765.053 1807.37,764.922 1810.13,764.79 1812.88,764.659 1815.64,764.528 1818.39,764.397 1821.15,764.267 1823.9,764.137 1826.65,764.008 1829.41,763.878 1832.16,763.749 1834.92,763.621 1837.67,763.492 1840.43,763.364 1843.18,763.236 1845.94,763.109 1848.69,762.982 1851.44,762.855 1854.2,762.729 1856.95,762.602 1859.71,762.477 1862.46,762.351 1865.22,762.226 1867.97,762.101 1870.73,761.976 1873.48,761.852 1876.23,761.728 1878.99,761.604 1881.74,761.481 1884.5,761.358 1887.25,761.235 1890.01,761.112 1892.76,760.99 1895.52,760.868 1898.27,760.746 1901.03,760.625 1903.78,760.504 1906.53,760.383 1909.29,760.263 1912.04,760.143 1914.8,760.023 1917.55,759.904 1920.31,759.784 1923.06,759.665 1925.82,759.547 1928.57,759.428 1931.32,759.31 1934.08,759.193 1936.83,759.075 1939.59,758.958 1942.34,758.841 1945.1,758.725 1947.85,758.608 1950.61,758.492 1953.36,758.377 1956.11,758.261 1958.87,758.146 1961.62,758.031 1964.38,757.917 1967.13,757.802 1969.89,757.688 1972.64,757.575 1975.4,757.461 1978.15,757.348 1980.9,757.235 1983.66,757.123 1986.41,757.01 1989.17,756.898 1991.92,756.787 1994.68,756.675 1997.43,756.564 2000.19,756.453 2002.94,756.342 2005.69,756.232 2008.45,756.122 2011.2,756.012 2013.96,755.903 2016.71,755.793 2019.47,755.684 2022.22,755.576 2024.98,755.467 2027.73,755.359 2030.48,755.251 2033.24,755.144 2035.99,755.036 2038.75,754.929 2041.5,754.823 2044.26,754.716 2047.01,754.61 2049.77,754.504 2052.52,754.398 2055.27,754.293 2058.03,754.187 2060.78,754.083 2063.54,753.978 2066.29,753.874 2069.05,753.769 2071.8,753.666 2074.56,753.562 2077.31,753.459 2080.06,753.356 2082.82,753.253 2085.57,753.15 2088.33,753.048 2091.08,752.946 2093.84,752.844 2096.59,752.743 2099.35,752.641 2102.1,752.54 2104.85,752.44 2107.61,752.339 2110.36,752.239 2113.12,752.139 2115.87,752.039 2118.63,751.94 2121.38,751.841 2124.14,751.742 2126.89,751.643 2129.64,751.544 2132.4,751.446 2135.15,751.348 2137.91,751.251 2140.66,751.153 2143.42,751.056 2146.17,750.959 2148.93,750.862 2151.68,750.766 2154.44,750.67 2157.19,750.574 2159.94,750.478 2162.7,750.382 2165.45,750.287 2168.21,750.192 2170.96,750.097 2173.72,750.003 2176.47,749.909 2179.23,749.815 2181.98,749.721 2184.73,749.627 2187.49,749.534 2190.24,749.441 2193,749.348 2195.75,749.256 2198.51,749.163 2201.26,749.071 2204.02,748.979 2206.77,748.888 2209.52,748.796 2212.28,748.705 2215.03,748.614 2217.79,748.523 2220.54,748.433 2223.3,748.343 2226.05,748.253 2228.81,748.163 2231.56,748.073 2234.31,747.984 2237.07,747.895 2239.82,747.806 2242.58,747.718 2245.33,747.629 2248.09,747.541 2250.84,747.453 2253.6,747.365 2256.35,747.278 2259.1,747.191 2261.86,747.104 2264.61,747.017 2267.37,746.93 2270.12,746.844 2272.88,746.758 2275.63,746.672 2278.39,746.586 2281.14,746.501 2283.89,746.415 2286.65,746.33 2289.4,746.246 2292.16,746.161 2294.91,746.077 2297.67,745.992 2300.42,745.908 2303.18,745.825 2305.93,745.741 2308.68,745.658 2311.44,745.575 2314.19,745.492 2316.95,745.409 2319.7,745.327 2322.46,745.245 2325.21,745.163 2327.97,745.081 2330.72,744.999 2333.47,744.918 2336.23,744.837 2338.98,744.756 2341.74,744.675 2344.49,744.595 2347.25,744.514 2350,744.434 2352.76,744.354 "/>
<path clip-path="url(#clip100)" d="M1969.85 1377.32 L2279.3 1377.32 L2279.3 1169.96 L1969.85 1169.96  Z" fill="#ffffff" fill-rule="evenodd" fill-opacity="1"/>
<polyline clip-path="url(#clip100)" style="stroke:#000000; stroke-linecap:round; stroke-linejoin:round; stroke-width:4; stroke-opacity:1; fill:none" points="1969.85,1377.32 2279.3,1377.32 2279.3,1169.96 1969.85,1169.96 1969.85,1377.32 "/>
<polyline clip-path="url(#clip100)" style="stroke:#009af9; stroke-linecap:round; stroke-linejoin:round; stroke-width:12; stroke-opacity:1; fill:none" points="1994.33,1221.8 2141.24,1221.8 "/>
<path clip-path="url(#clip100)" d="M2165.72 1228.84 L2165.72 1213.15 L2169.98 1213.15 L2169.98 1228.68 Q2169.98 1232.36 2171.42 1234.21 Q2172.85 1236.04 2175.72 1236.04 Q2179.17 1236.04 2181.16 1233.84 Q2183.18 1231.64 2183.18 1227.85 L2183.18 1213.15 L2187.44 1213.15 L2187.44 1239.08 L2183.18 1239.08 L2183.18 1235.09 Q2181.63 1237.45 2179.57 1238.61 Q2177.53 1239.75 2174.82 1239.75 Q2170.35 1239.75 2168.04 1236.97 Q2165.72 1234.19 2165.72 1228.84 M2176.44 1212.52 L2176.44 1212.52 Z" fill="#000000" fill-rule="nonzero" fill-opacity="1" /><path clip-path="url(#clip100)" d="M2195.82 1203.06 L2205.63 1203.06 L2205.63 1206.37 L2200.07 1206.37 L2200.07 1242.02 L2205.63 1242.02 L2205.63 1245.33 L2195.82 1245.33 L2195.82 1203.06 Z" fill="#000000" fill-rule="nonzero" fill-opacity="1" /><path clip-path="url(#clip100)" d="M2216.12 1235.14 L2223.76 1235.14 L2223.76 1208.77 L2215.44 1210.44 L2215.44 1206.18 L2223.71 1204.52 L2228.38 1204.52 L2228.38 1235.14 L2236.02 1235.14 L2236.02 1239.08 L2216.12 1239.08 L2216.12 1235.14 Z" fill="#000000" fill-rule="nonzero" fill-opacity="1" /><path clip-path="url(#clip100)" d="M2254.82 1203.06 L2254.82 1245.33 L2245 1245.33 L2245 1242.02 L2250.54 1242.02 L2250.54 1206.37 L2245 1206.37 L2245 1203.06 L2254.82 1203.06 Z" fill="#000000" fill-rule="nonzero" fill-opacity="1" /><polyline clip-path="url(#clip100)" style="stroke:#e26f46; stroke-linecap:round; stroke-linejoin:round; stroke-width:12; stroke-opacity:1; fill:none" points="1994.33,1273.64 2141.24,1273.64 "/>
<path clip-path="url(#clip100)" d="M2165.72 1280.68 L2165.72 1264.99 L2169.98 1264.99 L2169.98 1280.52 Q2169.98 1284.2 2171.42 1286.05 Q2172.85 1287.88 2175.72 1287.88 Q2179.17 1287.88 2181.16 1285.68 Q2183.18 1283.48 2183.18 1279.69 L2183.18 1264.99 L2187.44 1264.99 L2187.44 1290.92 L2183.18 1290.92 L2183.18 1286.93 Q2181.63 1289.29 2179.57 1290.45 Q2177.53 1291.59 2174.82 1291.59 Q2170.35 1291.59 2168.04 1288.81 Q2165.72 1286.03 2165.72 1280.68 M2176.44 1264.36 L2176.44 1264.36 Z" fill="#000000" fill-rule="nonzero" fill-opacity="1" /><path clip-path="url(#clip100)" d="M2195.82 1254.9 L2205.63 1254.9 L2205.63 1258.21 L2200.07 1258.21 L2200.07 1293.86 L2205.63 1293.86 L2205.63 1297.17 L2195.82 1297.17 L2195.82 1254.9 Z" fill="#000000" fill-rule="nonzero" fill-opacity="1" /><path clip-path="url(#clip100)" d="M2219.33 1286.98 L2235.65 1286.98 L2235.65 1290.92 L2213.71 1290.92 L2213.71 1286.98 Q2216.37 1284.23 2220.95 1279.6 Q2225.56 1274.94 2226.74 1273.6 Q2228.99 1271.08 2229.87 1269.34 Q2230.77 1267.58 2230.77 1265.89 Q2230.77 1263.14 2228.82 1261.4 Q2226.9 1259.67 2223.8 1259.67 Q2221.6 1259.67 2219.15 1260.43 Q2216.72 1261.19 2213.94 1262.74 L2213.94 1258.02 Q2216.76 1256.89 2219.22 1256.31 Q2221.67 1255.73 2223.71 1255.73 Q2229.08 1255.73 2232.27 1258.42 Q2235.47 1261.1 2235.47 1265.59 Q2235.47 1267.72 2234.66 1269.64 Q2233.87 1271.54 2231.76 1274.13 Q2231.19 1274.8 2228.08 1278.02 Q2224.98 1281.22 2219.33 1286.98 Z" fill="#000000" fill-rule="nonzero" fill-opacity="1" /><path clip-path="url(#clip100)" d="M2254.82 1254.9 L2254.82 1297.17 L2245 1297.17 L2245 1293.86 L2250.54 1293.86 L2250.54 1258.21 L2245 1258.21 L2245 1254.9 L2254.82 1254.9 Z" fill="#000000" fill-rule="nonzero" fill-opacity="1" /><polyline clip-path="url(#clip100)" style="stroke:#3da44d; stroke-linecap:round; stroke-linejoin:round; stroke-width:12; stroke-opacity:1; fill:none" points="1994.33,1325.48 2141.24,1325.48 "/>
<path clip-path="url(#clip100)" d="M2165.72 1332.52 L2165.72 1316.83 L2169.98 1316.83 L2169.98 1332.36 Q2169.98 1336.04 2171.42 1337.89 Q2172.85 1339.72 2175.72 1339.72 Q2179.17 1339.72 2181.16 1337.52 Q2183.18 1335.32 2183.18 1331.53 L2183.18 1316.83 L2187.44 1316.83 L2187.44 1342.76 L2183.18 1342.76 L2183.18 1338.77 Q2181.63 1341.13 2179.57 1342.29 Q2177.53 1343.43 2174.82 1343.43 Q2170.35 1343.43 2168.04 1340.65 Q2165.72 1337.87 2165.72 1332.52 M2176.44 1316.2 L2176.44 1316.2 Z" fill="#000000" fill-rule="nonzero" fill-opacity="1" /><path clip-path="url(#clip100)" d="M2206.44 1306.78 Q2203.34 1312.11 2201.83 1317.32 Q2200.33 1322.52 2200.33 1327.87 Q2200.33 1333.22 2201.83 1338.47 Q2203.36 1343.7 2206.44 1349.01 L2202.74 1349.01 Q2199.26 1343.57 2197.53 1338.31 Q2195.82 1333.06 2195.82 1327.87 Q2195.82 1322.71 2197.53 1317.48 Q2199.24 1312.25 2202.74 1306.78 L2206.44 1306.78 Z" fill="#000000" fill-rule="nonzero" fill-opacity="1" /><path clip-path="url(#clip100)" d="M2218.92 1309.47 L2218.92 1316.83 L2227.69 1316.83 L2227.69 1320.14 L2218.92 1320.14 L2218.92 1334.21 Q2218.92 1337.38 2219.77 1338.29 Q2220.65 1339.19 2223.32 1339.19 L2227.69 1339.19 L2227.69 1342.76 L2223.32 1342.76 Q2218.38 1342.76 2216.51 1340.93 Q2214.63 1339.07 2214.63 1334.21 L2214.63 1320.14 L2211.51 1320.14 L2211.51 1316.83 L2214.63 1316.83 L2214.63 1309.47 L2218.92 1309.47 Z" fill="#000000" fill-rule="nonzero" fill-opacity="1" /><path clip-path="url(#clip100)" d="M2232.62 1306.78 L2236.32 1306.78 Q2239.8 1312.25 2241.51 1317.48 Q2243.25 1322.71 2243.25 1327.87 Q2243.25 1333.06 2241.51 1338.31 Q2239.8 1343.57 2236.32 1349.01 L2232.62 1349.01 Q2235.7 1343.7 2237.2 1338.47 Q2238.73 1333.22 2238.73 1327.87 Q2238.73 1322.52 2237.2 1317.32 Q2235.7 1312.11 2232.62 1306.78 Z" fill="#000000" fill-rule="nonzero" fill-opacity="1" /></svg>
