<?xml version="1.0" encoding="utf-8"?>
<svg xmlns="http://www.w3.org/2000/svg" xmlns:xlink="http://www.w3.org/1999/xlink" width="600" height="400" viewBox="0 0 2400 1600">
<defs>
  <clipPath id="clip750">
    <rect x="0" y="0" width="2400" height="1600"/>
  </clipPath>
</defs>
<path clip-path="url(#clip750)" d="M0 1600 L2400 1600 L2400 0 L0 0  Z" fill="#ffffff" fill-rule="evenodd" fill-opacity="1"/>
<defs>
  <clipPath id="clip751">
    <rect x="480" y="0" width="1681" height="1600"/>
  </clipPath>
</defs>
<path clip-path="url(#clip750)" d="M149.191 1423.18 L2352.76 1423.18 L2352.76 47.2441 L149.191 47.2441  Z" fill="#ffffff" fill-rule="evenodd" fill-opacity="1"/>
<defs>
  <clipPath id="clip752">
    <rect x="149" y="47" width="2205" height="1377"/>
  </clipPath>
</defs>
<polyline clip-path="url(#clip752)" style="stroke:#000000; stroke-linecap:round; stroke-linejoin:round; stroke-width:2; stroke-opacity:0.1; fill:none" points="149.191,1423.18 149.191,47.2441 "/>
<polyline clip-path="url(#clip752)" style="stroke:#000000; stroke-linecap:round; stroke-linejoin:round; stroke-width:2; stroke-opacity:0.1; fill:none" points="700.082,1423.18 700.082,47.2441 "/>
<polyline clip-path="url(#clip752)" style="stroke:#000000; stroke-linecap:round; stroke-linejoin:round; stroke-width:2; stroke-opacity:0.1; fill:none" points="1250.97,1423.18 1250.97,47.2441 "/>
<polyline clip-path="url(#clip752)" style="stroke:#000000; stroke-linecap:round; stroke-linejoin:round; stroke-width:2; stroke-opacity:0.1; fill:none" points="1801.86,1423.18 1801.86,47.2441 "/>
<polyline clip-path="url(#clip752)" style="stroke:#000000; stroke-linecap:round; stroke-linejoin:round; stroke-width:2; stroke-opacity:0.1; fill:none" points="2352.76,1423.18 2352.76,47.2441 "/>
<polyline clip-path="url(#clip750)" style="stroke:#000000; stroke-linecap:round; stroke-linejoin:round; stroke-width:4; stroke-opacity:1; fill:none" points="149.191,1423.18 2352.76,1423.18 "/>
<polyline clip-path="url(#clip750)" style="stroke:#000000; stroke-linecap:round; stroke-linejoin:round; stroke-width:4; stroke-opacity:1; fill:none" points="149.191,1423.18 149.191,1404.28 "/>
<polyline clip-path="url(#clip750)" style="stroke:#000000; stroke-linecap:round; stroke-linejoin:round; stroke-width:4; stroke-opacity:1; fill:none" points="700.082,1423.18 700.082,1404.28 "/>
<polyline clip-path="url(#clip750)" style="stroke:#000000; stroke-linecap:round; stroke-linejoin:round; stroke-width:4; stroke-opacity:1; fill:none" points="1250.97,1423.18 1250.97,1404.28 "/>
<polyline clip-path="url(#clip750)" style="stroke:#000000; stroke-linecap:round; stroke-linejoin:round; stroke-width:4; stroke-opacity:1; fill:none" points="1801.86,1423.18 1801.86,1404.28 "/>
<polyline clip-path="url(#clip750)" style="stroke:#000000; stroke-linecap:round; stroke-linejoin:round; stroke-width:4; stroke-opacity:1; fill:none" points="2352.76,1423.18 2352.76,1404.28 "/>
<path clip-path="url(#clip750)" d="M149.191 1454.1 Q145.58 1454.1 143.751 1457.66 Q141.946 1461.2 141.946 1468.33 Q141.946 1475.44 143.751 1479.01 Q145.58 1482.55 149.191 1482.55 Q152.825 1482.55 154.631 1479.01 Q156.459 1475.44 156.459 1468.33 Q156.459 1461.2 154.631 1457.66 Q152.825 1454.1 149.191 1454.1 M149.191 1450.39 Q155.001 1450.39 158.057 1455 Q161.135 1459.58 161.135 1468.33 Q161.135 1477.06 158.057 1481.67 Q155.001 1486.25 149.191 1486.25 Q143.381 1486.25 140.302 1481.67 Q137.246 1477.06 137.246 1468.33 Q137.246 1459.58 140.302 1455 Q143.381 1450.39 149.191 1450.39 Z" fill="#000000" fill-rule="nonzero" fill-opacity="1" /><path clip-path="url(#clip750)" d="M694.735 1481.64 L711.054 1481.64 L711.054 1485.58 L689.11 1485.58 L689.11 1481.64 Q691.772 1478.89 696.355 1474.26 Q700.962 1469.61 702.142 1468.27 Q704.388 1465.74 705.267 1464.01 Q706.17 1462.25 706.17 1460.56 Q706.17 1457.8 704.226 1456.07 Q702.304 1454.33 699.203 1454.33 Q697.003 1454.33 694.55 1455.09 Q692.119 1455.86 689.341 1457.41 L689.341 1452.69 Q692.166 1451.55 694.619 1450.97 Q697.073 1450.39 699.11 1450.39 Q704.48 1450.39 707.675 1453.08 Q710.869 1455.77 710.869 1460.26 Q710.869 1462.39 710.059 1464.31 Q709.272 1466.2 707.165 1468.8 Q706.587 1469.47 703.485 1472.69 Q700.383 1475.88 694.735 1481.64 Z" fill="#000000" fill-rule="nonzero" fill-opacity="1" /><path clip-path="url(#clip750)" d="M1253.98 1455.09 L1242.18 1473.54 L1253.98 1473.54 L1253.98 1455.09 M1252.76 1451.02 L1258.64 1451.02 L1258.64 1473.54 L1263.57 1473.54 L1263.57 1477.43 L1258.64 1477.43 L1258.64 1485.58 L1253.98 1485.58 L1253.98 1477.43 L1238.38 1477.43 L1238.38 1472.92 L1252.76 1451.02 Z" fill="#000000" fill-rule="nonzero" fill-opacity="1" /><path clip-path="url(#clip750)" d="M1802.27 1466.44 Q1799.12 1466.44 1797.27 1468.59 Q1795.44 1470.74 1795.44 1474.49 Q1795.44 1478.22 1797.27 1480.39 Q1799.12 1482.55 1802.27 1482.55 Q1805.42 1482.55 1807.25 1480.39 Q1809.1 1478.22 1809.1 1474.49 Q1809.1 1470.74 1807.25 1468.59 Q1805.42 1466.44 1802.27 1466.44 M1811.55 1451.78 L1811.55 1456.04 Q1809.79 1455.21 1807.99 1454.77 Q1806.2 1454.33 1804.45 1454.33 Q1799.82 1454.33 1797.36 1457.45 Q1794.93 1460.58 1794.58 1466.9 Q1795.95 1464.89 1798.01 1463.82 Q1800.07 1462.73 1802.55 1462.73 Q1807.76 1462.73 1810.77 1465.9 Q1813.8 1469.05 1813.8 1474.49 Q1813.8 1479.82 1810.65 1483.03 Q1807.5 1486.25 1802.27 1486.25 Q1796.27 1486.25 1793.1 1481.67 Q1789.93 1477.06 1789.93 1468.33 Q1789.93 1460.14 1793.82 1455.28 Q1797.71 1450.39 1804.26 1450.39 Q1806.02 1450.39 1807.8 1450.74 Q1809.61 1451.09 1811.55 1451.78 Z" fill="#000000" fill-rule="nonzero" fill-opacity="1" /><path clip-path="url(#clip750)" d="M2352.76 1469.17 Q2349.42 1469.17 2347.5 1470.95 Q2345.6 1472.73 2345.6 1475.86 Q2345.6 1478.98 2347.5 1480.77 Q2349.42 1482.55 2352.76 1482.55 Q2356.09 1482.55 2358.01 1480.77 Q2359.93 1478.96 2359.93 1475.86 Q2359.93 1472.73 2358.01 1470.95 Q2356.11 1469.17 2352.76 1469.17 M2348.08 1467.18 Q2345.07 1466.44 2343.38 1464.38 Q2341.71 1462.32 2341.71 1459.35 Q2341.71 1455.21 2344.65 1452.8 Q2347.62 1450.39 2352.76 1450.39 Q2357.92 1450.39 2360.86 1452.8 Q2363.8 1455.21 2363.8 1459.35 Q2363.8 1462.32 2362.11 1464.38 Q2360.44 1466.44 2357.45 1467.18 Q2360.83 1467.96 2362.71 1470.26 Q2364.61 1472.55 2364.61 1475.86 Q2364.61 1480.88 2361.53 1483.57 Q2358.47 1486.25 2352.76 1486.25 Q2347.04 1486.25 2343.96 1483.57 Q2340.9 1480.88 2340.9 1475.86 Q2340.9 1472.55 2342.8 1470.26 Q2344.7 1467.96 2348.08 1467.18 M2346.37 1459.79 Q2346.37 1462.48 2348.03 1463.98 Q2349.72 1465.49 2352.76 1465.49 Q2355.77 1465.49 2357.45 1463.98 Q2359.17 1462.48 2359.17 1459.79 Q2359.17 1457.11 2357.45 1455.6 Q2355.77 1454.1 2352.76 1454.1 Q2349.72 1454.1 2348.03 1455.6 Q2346.37 1457.11 2346.37 1459.79 Z" fill="#000000" fill-rule="nonzero" fill-opacity="1" /><path clip-path="url(#clip750)" d="M1250.03 1522.27 L1250.03 1532.4 L1262.1 1532.4 L1262.1 1536.95 L1250.03 1536.95 L1250.03 1556.3 Q1250.03 1560.66 1251.21 1561.9 Q1252.42 1563.14 1256.08 1563.14 L1262.1 1563.14 L1262.1 1568.04 L1256.08 1568.04 Q1249.3 1568.04 1246.72 1565.53 Q1244.15 1562.98 1244.15 1556.3 L1244.15 1536.95 L1239.85 1536.95 L1239.85 1532.4 L1244.15 1532.4 L1244.15 1522.27 L1250.03 1522.27 Z" fill="#000000" fill-rule="nonzero" fill-opacity="1" /><polyline clip-path="url(#clip752)" style="stroke:#000000; stroke-linecap:round; stroke-linejoin:round; stroke-width:2; stroke-opacity:0.1; fill:none" points="149.191,1423.18 2352.76,1423.18 "/>
<polyline clip-path="url(#clip752)" style="stroke:#000000; stroke-linecap:round; stroke-linejoin:round; stroke-width:2; stroke-opacity:0.1; fill:none" points="149.191,1193.86 2352.76,1193.86 "/>
<polyline clip-path="url(#clip752)" style="stroke:#000000; stroke-linecap:round; stroke-linejoin:round; stroke-width:2; stroke-opacity:0.1; fill:none" points="149.191,964.535 2352.76,964.535 "/>
<polyline clip-path="url(#clip752)" style="stroke:#000000; stroke-linecap:round; stroke-linejoin:round; stroke-width:2; stroke-opacity:0.1; fill:none" points="149.191,735.212 2352.76,735.212 "/>
<polyline clip-path="url(#clip752)" style="stroke:#000000; stroke-linecap:round; stroke-linejoin:round; stroke-width:2; stroke-opacity:0.1; fill:none" points="149.191,505.889 2352.76,505.889 "/>
<polyline clip-path="url(#clip752)" style="stroke:#000000; stroke-linecap:round; stroke-linejoin:round; stroke-width:2; stroke-opacity:0.1; fill:none" points="149.191,276.567 2352.76,276.567 "/>
<polyline clip-path="url(#clip752)" style="stroke:#000000; stroke-linecap:round; stroke-linejoin:round; stroke-width:2; stroke-opacity:0.1; fill:none" points="149.191,47.2441 2352.76,47.2441 "/>
<polyline clip-path="url(#clip750)" style="stroke:#000000; stroke-linecap:round; stroke-linejoin:round; stroke-width:4; stroke-opacity:1; fill:none" points="149.191,1423.18 149.191,47.2441 "/>
<polyline clip-path="url(#clip750)" style="stroke:#000000; stroke-linecap:round; stroke-linejoin:round; stroke-width:4; stroke-opacity:1; fill:none" points="149.191,1423.18 168.089,1423.18 "/>
<polyline clip-path="url(#clip750)" style="stroke:#000000; stroke-linecap:round; stroke-linejoin:round; stroke-width:4; stroke-opacity:1; fill:none" points="149.191,1193.86 168.089,1193.86 "/>
<polyline clip-path="url(#clip750)" style="stroke:#000000; stroke-linecap:round; stroke-linejoin:round; stroke-width:4; stroke-opacity:1; fill:none" points="149.191,964.535 168.089,964.535 "/>
<polyline clip-path="url(#clip750)" style="stroke:#000000; stroke-linecap:round; stroke-linejoin:round; stroke-width:4; stroke-opacity:1; fill:none" points="149.191,735.212 168.089,735.212 "/>
<polyline clip-path="url(#clip750)" style="stroke:#000000; stroke-linecap:round; stroke-linejoin:round; stroke-width:4; stroke-opacity:1; fill:none" points="149.191,505.889 168.089,505.889 "/>
<polyline clip-path="url(#clip750)" style="stroke:#000000; stroke-linecap:round; stroke-linejoin:round; stroke-width:4; stroke-opacity:1; fill:none" points="149.191,276.567 168.089,276.567 "/>
<polyline clip-path="url(#clip750)" style="stroke:#000000; stroke-linecap:round; stroke-linejoin:round; stroke-width:4; stroke-opacity:1; fill:none" points="149.191,47.2441 168.089,47.2441 "/>
<path clip-path="url(#clip750)" d="M51.3162 1423.63 L80.992 1423.63 L80.992 1427.57 L51.3162 1427.57 L51.3162 1423.63 Z" fill="#000000" fill-rule="nonzero" fill-opacity="1" /><path clip-path="url(#clip750)" d="M101.663 1421.32 Q98.515 1421.32 96.6632 1423.47 Q94.8345 1425.62 94.8345 1429.37 Q94.8345 1433.1 96.6632 1435.27 Q98.515 1437.43 101.663 1437.43 Q104.811 1437.43 106.64 1435.27 Q108.492 1433.1 108.492 1429.37 Q108.492 1425.62 106.64 1423.47 Q104.811 1421.32 101.663 1421.32 M110.946 1406.66 L110.946 1410.92 Q109.186 1410.09 107.381 1409.65 Q105.598 1409.21 103.839 1409.21 Q99.2095 1409.21 96.7558 1412.33 Q94.3252 1415.46 93.978 1421.78 Q95.3437 1419.77 97.4039 1418.7 Q99.4641 1417.61 101.941 1417.61 Q107.149 1417.61 110.158 1420.78 Q113.191 1423.93 113.191 1429.37 Q113.191 1434.7 110.043 1437.91 Q106.895 1441.13 101.663 1441.13 Q95.6678 1441.13 92.4965 1436.55 Q89.3253 1431.94 89.3253 1423.21 Q89.3253 1415.02 93.2141 1410.16 Q97.103 1405.27 103.654 1405.27 Q105.413 1405.27 107.196 1405.62 Q109.001 1405.97 110.946 1406.66 Z" fill="#000000" fill-rule="nonzero" fill-opacity="1" /><path clip-path="url(#clip750)" d="M50.9921 1194.31 L80.6679 1194.31 L80.6679 1198.24 L50.9921 1198.24 L50.9921 1194.31 Z" fill="#000000" fill-rule="nonzero" fill-opacity="1" /><path clip-path="url(#clip750)" d="M103.608 1180.65 L91.8021 1199.1 L103.608 1199.1 L103.608 1180.65 M102.381 1176.58 L108.26 1176.58 L108.26 1199.1 L113.191 1199.1 L113.191 1202.99 L108.26 1202.99 L108.26 1211.14 L103.608 1211.14 L103.608 1202.99 L88.0058 1202.99 L88.0058 1198.48 L102.381 1176.58 Z" fill="#000000" fill-rule="nonzero" fill-opacity="1" /><path clip-path="url(#clip750)" d="M53.0754 964.986 L82.7512 964.986 L82.7512 968.921 L53.0754 968.921 L53.0754 964.986 Z" fill="#000000" fill-rule="nonzero" fill-opacity="1" /><path clip-path="url(#clip750)" d="M96.8715 977.879 L113.191 977.879 L113.191 981.815 L91.2465 981.815 L91.2465 977.879 Q93.9086 975.125 98.4919 970.495 Q103.098 965.842 104.279 964.5 Q106.524 961.977 107.404 960.241 Q108.307 958.481 108.307 956.792 Q108.307 954.037 106.362 952.301 Q104.441 950.565 101.339 950.565 Q99.14 950.565 96.6863 951.329 Q94.2558 952.093 91.478 953.643 L91.478 948.921 Q94.3021 947.787 96.7558 947.208 Q99.2095 946.63 101.246 946.63 Q106.617 946.63 109.811 949.315 Q113.006 952 113.006 956.491 Q113.006 958.62 112.196 960.542 Q111.408 962.44 109.302 965.032 Q108.723 965.704 105.621 968.921 Q102.52 972.116 96.8715 977.879 Z" fill="#000000" fill-rule="nonzero" fill-opacity="1" /><path clip-path="url(#clip750)" d="M101.246 721.011 Q97.6354 721.011 95.8067 724.575 Q94.0012 728.117 94.0012 735.247 Q94.0012 742.353 95.8067 745.918 Q97.6354 749.46 101.246 749.46 Q104.881 749.46 106.686 745.918 Q108.515 742.353 108.515 735.247 Q108.515 728.117 106.686 724.575 Q104.881 721.011 101.246 721.011 M101.246 717.307 Q107.057 717.307 110.112 721.913 Q113.191 726.497 113.191 735.247 Q113.191 743.973 110.112 748.58 Q107.057 753.163 101.246 753.163 Q95.4363 753.163 92.3576 748.58 Q89.3021 743.973 89.3021 735.247 Q89.3021 726.497 92.3576 721.913 Q95.4363 717.307 101.246 717.307 Z" fill="#000000" fill-rule="nonzero" fill-opacity="1" /><path clip-path="url(#clip750)" d="M96.8715 519.234 L113.191 519.234 L113.191 523.169 L91.2465 523.169 L91.2465 519.234 Q93.9086 516.48 98.4919 511.85 Q103.098 507.197 104.279 505.855 Q106.524 503.331 107.404 501.595 Q108.307 499.836 108.307 498.146 Q108.307 495.392 106.362 493.656 Q104.441 491.92 101.339 491.92 Q99.14 491.92 96.6863 492.683 Q94.2558 493.447 91.478 494.998 L91.478 490.276 Q94.3021 489.142 96.7558 488.563 Q99.2095 487.984 101.246 487.984 Q106.617 487.984 109.811 490.67 Q113.006 493.355 113.006 497.845 Q113.006 499.975 112.196 501.896 Q111.408 503.794 109.302 506.387 Q108.723 507.058 105.621 510.276 Q102.52 513.47 96.8715 519.234 Z" fill="#000000" fill-rule="nonzero" fill-opacity="1" /><path clip-path="url(#clip750)" d="M103.608 263.361 L91.8021 281.81 L103.608 281.81 L103.608 263.361 M102.381 259.287 L108.26 259.287 L108.26 281.81 L113.191 281.81 L113.191 285.699 L108.26 285.699 L108.26 293.847 L103.608 293.847 L103.608 285.699 L88.0058 285.699 L88.0058 281.185 L102.381 259.287 Z" fill="#000000" fill-rule="nonzero" fill-opacity="1" /><path clip-path="url(#clip750)" d="M101.663 45.3807 Q98.515 45.3807 96.6632 47.5334 Q94.8345 49.6862 94.8345 53.4362 Q94.8345 57.163 96.6632 59.3389 Q98.515 61.4917 101.663 61.4917 Q104.811 61.4917 106.64 59.3389 Q108.492 57.163 108.492 53.4362 Q108.492 49.6862 106.64 47.5334 Q104.811 45.3807 101.663 45.3807 M110.946 30.728 L110.946 34.9872 Q109.186 34.1539 107.381 33.7141 Q105.598 33.2743 103.839 33.2743 Q99.2095 33.2743 96.7558 36.3992 Q94.3252 39.5242 93.978 45.8436 Q95.3437 43.8298 97.4039 42.765 Q99.4641 41.677 101.941 41.677 Q107.149 41.677 110.158 44.8483 Q113.191 47.9964 113.191 53.4362 Q113.191 58.7602 110.043 61.9778 Q106.895 65.1954 101.663 65.1954 Q95.6678 65.1954 92.4965 60.6121 Q89.3253 56.0056 89.3253 47.2788 Q89.3253 39.0844 93.2141 34.2233 Q97.103 29.3391 103.654 29.3391 Q105.413 29.3391 107.196 29.6863 Q109.001 30.0335 110.946 30.728 Z" fill="#000000" fill-rule="nonzero" fill-opacity="1" /><polyline clip-path="url(#clip752)" style="stroke:#009af9; stroke-linecap:round; stroke-linejoin:round; stroke-width:12; stroke-opacity:1; fill:none" points="149.191,1193.86 151.945,1193.84 154.7,1193.79 157.454,1193.71 160.209,1193.59 162.963,1193.45 165.718,1193.27 168.472,1193.06 171.227,1192.82 173.981,1192.55 176.735,1192.25 179.49,1191.92 182.244,1191.56 184.999,1191.17 187.753,1190.75 190.508,1190.31 193.262,1189.83 196.017,1189.33 198.771,1188.81 201.526,1188.26 204.28,1187.68 207.034,1187.07 209.789,1186.44 212.543,1185.79 215.298,1185.11 218.052,1184.41 220.807,1183.68 223.561,1182.93 226.316,1182.16 229.07,1181.37 231.825,1180.55 234.579,1179.71 237.333,1178.85 240.088,1177.97 242.842,1177.07 245.597,1176.14 248.351,1175.2 251.106,1174.24 253.86,1173.26 256.615,1172.26 259.369,1171.24 262.124,1170.2 264.878,1169.15 267.632,1168.07 270.387,1166.98 273.141,1165.88 275.896,1164.75 278.65,1163.62 281.405,1162.46 284.159,1161.29 286.914,1160.1 289.668,1158.9 292.423,1157.69 295.177,1156.46 297.932,1155.21 300.686,1153.96 303.44,1152.69 306.195,1151.4 308.949,1150.11 311.704,1148.8 314.458,1147.47 317.213,1146.14 319.967,1144.8 322.722,1143.44 325.476,1142.07 328.231,1140.69 330.985,1139.3 333.739,1137.9 336.494,1136.49 339.248,1135.07 342.003,1133.64 344.757,1132.21 347.512,1130.76 350.266,1129.3 353.021,1127.84 355.775,1126.36 358.53,1124.88 361.284,1123.39 364.038,1121.89 366.793,1120.38 369.547,1118.87 372.302,1117.35 375.056,1115.82 377.811,1114.29 380.565,1112.75 383.32,1111.2 386.074,1109.65 388.829,1108.09 391.583,1106.52 394.337,1104.95 397.092,1103.38 399.846,1101.79 402.601,1100.21 405.355,1098.62 408.11,1097.02 410.864,1095.42 413.619,1093.81 416.373,1092.2 419.128,1090.58 421.882,1088.96 424.636,1087.34 427.391,1085.71 430.145,1084.08 432.9,1082.45 435.654,1080.81 438.409,1079.17 441.163,1077.52 443.918,1075.88 446.672,1074.22 449.427,1072.57 452.181,1070.91 454.936,1069.25 457.69,1067.59 460.444,1065.93 463.199,1064.26 465.953,1062.59 468.708,1060.92 471.462,1059.25 474.217,1057.57 476.971,1055.89 479.726,1054.21 482.48,1052.53 485.235,1050.85 487.989,1049.16 490.743,1047.47 493.498,1045.79 496.252,1044.1 499.007,1042.41 501.761,1040.71 504.516,1039.02 507.27,1037.32 510.025,1035.63 512.779,1033.93 515.534,1032.23 518.288,1030.53 521.042,1028.83 523.797,1027.13 526.551,1025.43 529.306,1023.73 532.06,1022.02 534.815,1020.32 537.569,1018.61 540.324,1016.91 543.078,1015.2 545.833,1013.49 548.587,1011.78 551.341,1010.08 554.096,1008.37 556.85,1006.66 559.605,1004.95 562.359,1003.24 565.114,1001.53 567.868,999.816 570.623,998.104 573.377,996.392 576.132,994.68 578.886,992.967 581.641,991.255 584.395,989.542 587.149,987.828 589.904,986.115 592.658,984.401 595.413,982.687 598.167,980.973 600.922,979.259 603.676,977.545 606.431,975.83 609.185,974.116 611.94,972.401 614.694,970.686 617.448,968.972 620.203,967.257 622.957,965.542 625.712,963.827 628.466,962.112 631.221,960.397 633.975,958.682 636.73,956.966 639.484,955.251 642.239,953.536 644.993,951.821 647.747,950.106 650.502,948.391 653.256,946.675 656.011,944.96 658.765,943.245 661.52,941.529 664.274,939.814 667.029,938.098 669.783,936.383 672.538,934.667 675.292,932.952 678.046,931.236 680.801,929.521 683.555,927.805 686.31,926.09 689.064,924.374 691.819,922.659 694.573,920.943 697.328,919.227 700.082,917.512 702.837,915.796 705.591,914.081 708.345,912.365 711.1,910.65 713.854,908.934 716.609,907.218 719.363,905.503 722.118,903.787 724.872,902.072 727.627,900.356 730.381,898.64 733.136,896.925 735.89,895.209 738.645,893.494 741.399,891.778 744.153,890.062 746.908,888.347 749.662,886.631 752.417,884.916 755.171,883.2 757.926,881.484 760.68,879.769 763.435,878.053 766.189,876.338 768.944,874.622 771.698,872.907 774.452,871.191 777.207,869.476 779.961,867.76 782.716,866.045 785.47,864.329 788.225,862.614 790.979,860.899 793.734,859.183 796.488,857.468 799.243,855.753 801.997,854.038 804.751,852.322 807.506,850.608 810.26,848.893 813.015,847.178 815.769,845.463 818.524,843.748 821.278,842.033 824.033,840.318 826.787,838.604 829.542,836.889 832.296,835.175 835.05,833.461 837.805,831.746 840.559,830.032 843.314,828.318 846.068,826.604 848.823,824.89 851.577,823.176 854.332,821.463 857.086,819.749 859.841,818.036 862.595,816.323 865.349,814.61 868.104,812.897 870.858,811.185 873.613,809.472 876.367,807.76 879.122,806.048 881.876,804.336 884.631,802.625 887.385,800.913 890.14,799.202 892.894,797.492 895.649,795.781 898.403,794.071 901.157,792.361 903.912,790.651 906.666,788.942 909.421,787.233 912.175,785.525 914.93,783.816 917.684,782.108 920.439,780.401 923.193,778.694 925.948,776.987 928.702,775.281 931.456,773.575 934.211,771.869 936.965,770.164 939.72,768.46 942.474,766.755 945.229,765.052 947.983,763.349 950.738,761.646 953.492,759.944 956.247,758.243 959.001,756.542 961.755,754.841 964.51,753.142 967.264,751.442 970.019,749.744 972.773,748.046 975.528,746.349 978.282,744.652 981.037,742.956 983.791,741.261 986.546,739.566 989.3,737.872 992.054,736.18 994.809,734.487 997.563,732.796 1000.32,731.105 1003.07,729.415 1005.83,727.726 1008.58,726.038 1011.34,724.35 1014.09,722.664 1016.84,720.978 1019.6,719.294 1022.35,717.61 1025.11,715.927 1027.86,714.245 1030.62,712.565 1033.37,710.885 1036.13,709.206 1038.88,707.528 1041.63,705.852 1044.39,704.176 1047.14,702.502 1049.9,700.828 1052.65,699.156 1055.41,697.485 1058.16,695.815 1060.92,694.147 1063.67,692.479 1066.42,690.813 1069.18,689.148 1071.93,687.485 1074.69,685.823 1077.44,684.162 1080.2,682.502 1082.95,680.844 1085.71,679.187 1088.46,677.531 1091.21,675.877 1093.97,674.225 1096.72,672.574 1099.48,670.924 1102.23,669.276 1104.99,667.63 1107.74,665.985 1110.5,664.342 1113.25,662.7 1116.01,661.06 1118.76,659.421 1121.51,657.785 1124.27,656.149 1127.02,654.516 1129.78,652.885 1132.53,651.255 1135.29,649.627 1138.04,648 1140.8,646.376 1143.55,644.754 1146.3,643.133 1149.06,641.514 1151.81,639.897 1154.57,638.282 1157.32,636.67 1160.08,635.059 1162.83,633.45 1165.59,631.843 1168.34,630.238 1171.09,628.636 1173.85,627.035 1176.6,625.437 1179.36,623.84 1182.11,622.246 1184.87,620.654 1187.62,619.065 1190.38,617.477 1193.13,615.892 1195.88,614.31 1198.64,612.729 1201.39,611.151 1204.15,609.575 1206.9,608.002 1209.66,606.431 1212.41,604.863 1215.17,603.297 1217.92,601.733 1220.67,600.172 1223.43,598.614 1226.18,597.058 1228.94,595.504 1231.69,593.954 1234.45,592.406 1237.2,590.86 1239.96,589.318 1242.71,587.778 1245.46,586.24 1248.22,584.706 1250.97,583.175 1253.73,581.645 1256.48,580.12 1259.24,578.596 1261.99,577.076 1264.75,575.559 1267.5,574.045 1270.25,572.533 1273.01,571.025 1275.76,569.519 1278.52,568.017 1281.27,566.517 1284.03,565.021 1286.78,563.528 1289.54,562.038 1292.29,560.551 1295.04,559.068 1297.8,557.587 1300.55,556.11 1303.31,554.636 1306.06,553.166 1308.82,551.698 1311.57,550.234 1314.33,548.774 1317.08,547.317 1319.83,545.863 1322.59,544.412 1325.34,542.965 1328.1,541.522 1330.85,540.083 1333.61,538.646 1336.36,537.213 1339.12,535.785 1341.87,534.359 1344.62,532.937 1347.38,531.519 1350.13,530.105 1352.89,528.694 1355.64,527.287 1358.4,525.884 1361.15,524.485 1363.91,523.089 1366.66,521.697 1369.41,520.31 1372.17,518.926 1374.92,517.546 1377.68,516.17 1380.43,514.798 1383.19,513.43 1385.94,512.066 1388.7,510.706 1391.45,509.351 1394.21,507.999 1396.96,506.652 1399.71,505.308 1402.47,503.969 1405.22,502.634 1407.98,501.304 1410.73,499.977 1413.49,498.655 1416.24,497.337 1419,496.024 1421.75,494.715 1424.5,493.41 1427.26,492.11 1430.01,490.814 1432.77,489.523 1435.52,488.236 1438.28,486.954 1441.03,485.676 1443.79,484.403 1446.54,483.134 1449.29,481.87 1452.05,480.611 1454.8,479.357 1457.56,478.107 1460.31,476.861 1463.07,475.621 1465.82,474.385 1468.58,473.155 1471.33,471.929 1474.08,470.708 1476.84,469.491 1479.59,468.28 1482.35,467.074 1485.1,465.872 1487.86,464.676 1490.61,463.484 1493.37,462.298 1496.12,461.117 1498.87,459.94 1501.63,458.769 1504.38,457.603 1507.14,456.442 1509.89,455.287 1512.65,454.136 1515.4,452.991 1518.16,451.851 1520.91,450.717 1523.66,449.587 1526.42,448.463 1529.17,447.345 1531.93,446.231 1534.68,445.124 1537.44,444.021 1540.19,442.924 1542.95,441.833 1545.7,440.747 1548.45,439.667 1551.21,438.592 1553.96,437.523 1556.72,436.459 1559.47,435.401 1562.23,434.349 1564.98,433.302 1567.74,432.262 1570.49,431.226 1573.24,430.197 1576,429.173 1578.75,428.156 1581.51,427.144 1584.26,426.138 1587.02,425.138 1589.77,424.143 1592.53,423.155 1595.28,422.173 1598.03,421.196 1600.79,420.226 1603.54,419.262 1606.3,418.304 1609.05,417.351 1611.81,416.406 1614.56,415.466 1617.32,414.532 1620.07,413.604 1622.82,412.683 1625.58,411.768 1628.33,410.859 1631.09,409.957 1633.84,409.061 1636.6,408.171 1639.35,407.287 1642.11,406.41 1644.86,405.539 1647.62,404.675 1650.37,403.817 1653.12,402.966 1655.88,402.121 1658.63,401.283 1661.39,400.451 1664.14,399.626 1666.9,398.807 1669.65,397.996 1672.41,397.19 1675.16,396.392 1677.91,395.6 1680.67,394.815 1683.42,394.037 1686.18,393.265 1688.93,392.5 1691.69,391.742 1694.44,390.991 1697.2,390.247 1699.95,389.51 1702.7,388.779 1705.46,388.056 1708.21,387.339 1710.97,386.63 1713.72,385.928 1716.48,385.232 1719.23,384.544 1721.99,383.863 1724.74,383.189 1727.49,382.522 1730.25,381.862 1733,381.209 1735.76,380.564 1738.51,379.926 1741.27,379.295 1744.02,378.671 1746.78,378.055 1749.53,377.446 1752.28,376.845 1755.04,376.25 1757.79,375.664 1760.55,375.084 1763.3,374.512 1766.06,373.948 1768.81,373.391 1771.57,372.842 1774.32,372.3 1777.07,371.765 1779.83,371.239 1782.58,370.72 1785.34,370.208 1788.09,369.704 1790.85,369.208 1793.6,368.72 1796.36,368.239 1799.11,367.766 1801.86,367.301 1804.62,366.844 1807.37,366.395 1810.13,365.953 1812.88,365.519 1815.64,365.093 1818.39,364.675 1821.15,364.265 1823.9,363.863 1826.65,363.469 1829.41,363.083 1832.16,362.705 1834.92,362.336 1837.67,361.974 1840.43,361.62 1843.18,361.274 1845.94,360.937 1848.69,360.608 1851.44,360.287 1854.2,359.974 1856.95,359.669 1859.71,359.373 1862.46,359.085 1865.22,358.805 1867.97,358.534 1870.73,358.271 1873.48,358.016 1876.23,357.77 1878.99,357.532 1881.74,357.303 1884.5,357.082 1887.25,356.87 1890.01,356.666 1892.76,356.47 1895.52,356.284 1898.27,356.105 1901.03,355.936 1903.78,355.775 1906.53,355.623 1909.29,355.479 1912.04,355.344 1914.8,355.218 1917.55,355.101 1920.31,354.992 1923.06,354.892 1925.82,354.801 1928.57,354.719 1931.32,354.645 1934.08,354.581 1936.83,354.525 1939.59,354.479 1942.34,354.441 1945.1,354.412 1947.85,354.393 1950.61,354.382 1953.36,354.38 1956.11,354.387 1958.87,354.404 1961.62,354.43 1964.38,354.464 1967.13,354.508 1969.89,354.561 1972.64,354.623 1975.4,354.695 1978.15,354.775 1980.9,354.865 1983.66,354.964 1986.41,355.073 1989.17,355.191 1991.92,355.318 1994.68,355.454 1997.43,355.6 2000.19,355.756 2002.94,355.92 2005.69,356.094 2008.45,356.278 2011.2,356.471 2013.96,356.674 2016.71,356.886 2019.47,357.108 2022.22,357.34 2024.98,357.581 2027.73,357.831 2030.48,358.092 2033.24,358.362 2035.99,358.641 2038.75,358.931 2041.5,359.23 2044.26,359.539 2047.01,359.857 2049.77,360.186 2052.52,360.524 2055.27,360.872 2058.03,361.23 2060.78,361.598 2063.54,361.976 2066.29,362.364 2069.05,362.762 2071.8,363.169 2074.56,363.587 2077.31,364.015 2080.06,364.452 2082.82,364.9 2085.57,365.358 2088.33,365.826 2091.08,366.304 2093.84,366.792 2096.59,367.291 2099.35,367.8 2102.1,368.318 2104.85,368.848 2107.61,369.387 2110.36,369.936 2113.12,370.496 2115.87,371.067 2118.63,371.647 2121.38,372.238 2124.14,372.839 2126.89,373.451 2129.64,374.073 2132.4,374.706 2135.15,375.349 2137.91,376.002 2140.66,376.666 2143.42,377.341 2146.17,378.026 2148.93,378.721 2151.68,379.428 2154.44,380.145 2157.19,380.872 2159.94,381.61 2162.7,382.359 2165.45,383.118 2168.21,383.889 2170.96,384.67 2173.72,385.462 2176.47,386.264 2179.23,387.077 2181.98,387.901 2184.73,388.736 2187.49,389.582 2190.24,390.439 2193,391.306 2195.75,392.185 2198.51,393.074 2201.26,393.975 2204.02,394.887 2206.77,395.808 2209.52,396.742 2212.28,397.686 2215.03,398.642 2217.79,399.608 2220.54,400.586 2223.3,401.575 2226.05,402.575 2228.81,403.586 2231.56,404.608 2234.31,405.642 2237.07,406.687 2239.82,407.742 2242.58,408.81 2245.33,409.889 2248.09,410.978 2250.84,412.08 2253.6,413.192 2256.35,414.316 2259.1,415.451 2261.86,416.598 2264.61,417.756 2267.37,418.926 2270.12,420.107 2272.88,421.3 2275.63,422.504 2278.39,423.719 2281.14,424.946 2283.89,426.185 2286.65,427.435 2289.4,428.697 2292.16,429.971 2294.91,431.256 2297.67,432.553 2300.42,433.861 2303.18,435.182 2305.93,436.514 2308.68,437.857 2311.44,439.213 2314.19,440.58 2316.95,441.959 2319.7,443.35 2322.46,444.753 2325.21,446.168 2327.97,447.594 2330.72,449.033 2333.47,450.483 2336.23,451.945 2338.98,453.42 2341.74,454.906 2344.49,456.404 2347.25,457.914 2350,459.437 2352.76,460.971 "/>
<polyline clip-path="url(#clip752)" style="stroke:#e26f46; stroke-linecap:round; stroke-linejoin:round; stroke-width:12; stroke-opacity:1; fill:none" points="149.191,735.212 151.945,731.875 154.7,728.578 157.454,725.321 160.209,722.105 162.963,718.929 165.718,715.793 168.472,712.697 171.227,709.641 173.981,706.625 176.735,703.649 179.49,700.714 182.244,697.818 184.999,694.962 187.753,692.146 190.508,689.369 193.262,686.632 196.017,683.935 198.771,681.277 201.526,678.658 204.28,676.078 207.034,673.538 209.789,671.036 212.543,668.572 215.298,666.147 218.052,663.761 220.807,661.412 223.561,659.102 226.316,656.829 229.07,654.594 231.825,652.396 234.579,650.235 237.333,648.111 240.088,646.023 242.842,643.972 245.597,641.957 248.351,639.978 251.106,638.034 253.86,636.126 256.615,634.253 259.369,632.414 262.124,630.61 264.878,628.84 267.632,627.104 270.387,625.402 273.141,623.732 275.896,622.096 278.65,620.492 281.405,618.921 284.159,617.381 286.914,615.873 289.668,614.397 292.423,612.951 295.177,611.535 297.932,610.15 300.686,608.795 303.44,607.47 306.195,606.173 308.949,604.905 311.704,603.666 314.458,602.455 317.213,601.271 319.967,600.115 322.722,598.985 325.476,597.882 328.231,596.806 330.985,595.755 333.739,594.729 336.494,593.728 339.248,592.752 342.003,591.801 344.757,590.873 347.512,589.968 350.266,589.087 353.021,588.229 355.775,587.393 358.53,586.578 361.284,585.786 364.038,585.015 366.793,584.264 369.547,583.535 372.302,582.825 375.056,582.135 377.811,581.464 380.565,580.813 383.32,580.18 386.074,579.565 388.829,578.968 391.583,578.389 394.337,577.827 397.092,577.282 399.846,576.753 402.601,576.241 405.355,575.744 408.11,575.263 410.864,574.797 413.619,574.345 416.373,573.908 419.128,573.485 421.882,573.076 424.636,572.681 427.391,572.298 430.145,571.929 432.9,571.572 435.654,571.227 438.409,570.894 441.163,570.573 443.918,570.263 446.672,569.964 449.427,569.676 452.181,569.398 454.936,569.13 457.69,568.873 460.444,568.625 463.199,568.386 465.953,568.157 468.708,567.936 471.462,567.724 474.217,567.521 476.971,567.325 479.726,567.138 482.48,566.958 485.235,566.785 487.989,566.62 490.743,566.462 493.498,566.31 496.252,566.165 499.007,566.027 501.761,565.894 504.516,565.767 507.27,565.647 510.025,565.531 512.779,565.421 515.534,565.316 518.288,565.216 521.042,565.121 523.797,565.03 526.551,564.944 529.306,564.862 532.06,564.784 534.815,564.71 537.569,564.64 540.324,564.574 543.078,564.511 545.833,564.452 548.587,564.396 551.341,564.343 554.096,564.293 556.85,564.247 559.605,564.202 562.359,564.161 565.114,564.122 567.868,564.086 570.623,564.051 573.377,564.019 576.132,563.989 578.886,563.962 581.641,563.936 584.395,563.911 587.149,563.889 589.904,563.868 592.658,563.849 595.413,563.831 598.167,563.814 600.922,563.799 603.676,563.785 606.431,563.772 609.185,563.76 611.94,563.749 614.694,563.739 617.448,563.73 620.203,563.722 622.957,563.714 625.712,563.708 628.466,563.701 631.221,563.696 633.975,563.691 636.73,563.686 639.484,563.682 642.239,563.678 644.993,563.675 647.747,563.672 650.502,563.67 653.256,563.667 656.011,563.665 658.765,563.664 661.52,563.662 664.274,563.661 667.029,563.66 669.783,563.659 672.538,563.658 675.292,563.658 678.046,563.657 680.801,563.657 683.555,563.656 686.31,563.656 689.064,563.656 691.819,563.655 694.573,563.655 697.328,563.655 700.082,563.655 702.837,563.655 705.591,563.654 708.345,563.654 711.1,563.654 713.854,563.654 716.609,563.654 719.363,563.654 722.118,563.654 724.872,563.654 727.627,563.654 730.381,563.654 733.136,563.655 735.89,563.655 738.645,563.655 741.399,563.655 744.153,563.656 746.908,563.656 749.662,563.657 752.417,563.657 755.171,563.658 757.926,563.659 760.68,563.659 763.435,563.66 766.189,563.662 768.944,563.663 771.698,563.664 774.452,563.666 777.207,563.668 779.961,563.67 782.716,563.672 785.47,563.674 788.225,563.677 790.979,563.68 793.734,563.683 796.488,563.687 799.243,563.69 801.997,563.695 804.751,563.699 807.506,563.704 810.26,563.709 813.015,563.715 815.769,563.721 818.524,563.727 821.278,563.734 824.033,563.742 826.787,563.75 829.542,563.758 832.296,563.767 835.05,563.777 837.805,563.787 840.559,563.798 843.314,563.81 846.068,563.822 848.823,563.835 851.577,563.848 854.332,563.863 857.086,563.878 859.841,563.894 862.595,563.91 865.349,563.928 868.104,563.946 870.858,563.965 873.613,563.985 876.367,564.005 879.122,564.027 881.876,564.05 884.631,564.073 887.385,564.098 890.14,564.123 892.894,564.15 895.649,564.177 898.403,564.206 901.157,564.236 903.912,564.267 906.666,564.299 909.421,564.332 912.175,564.366 914.93,564.401 917.684,564.438 920.439,564.475 923.193,564.514 925.948,564.555 928.702,564.596 931.456,564.639 934.211,564.683 936.965,564.729 939.72,564.775 942.474,564.824 945.229,564.873 947.983,564.924 950.738,564.976 953.492,565.03 956.247,565.085 959.001,565.142 961.755,565.2 964.51,565.26 967.264,565.321 970.019,565.384 972.773,565.448 975.528,565.514 978.282,565.581 981.037,565.65 983.791,565.721 986.546,565.793 989.3,565.867 992.054,565.942 994.809,566.02 997.563,566.098 1000.32,566.179 1003.07,566.261 1005.83,566.346 1008.58,566.431 1011.34,566.519 1014.09,566.608 1016.84,566.7 1019.6,566.793 1022.35,566.887 1025.11,566.984 1027.86,567.083 1030.62,567.183 1033.37,567.285 1036.13,567.389 1038.88,567.496 1041.63,567.604 1044.39,567.713 1047.14,567.825 1049.9,567.939 1052.65,568.055 1055.41,568.173 1058.16,568.292 1060.92,568.414 1063.67,568.538 1066.42,568.664 1069.18,568.792 1071.93,568.922 1074.69,569.054 1077.44,569.188 1080.2,569.324 1082.95,569.462 1085.71,569.602 1088.46,569.745 1091.21,569.889 1093.97,570.036 1096.72,570.185 1099.48,570.336 1102.23,570.489 1104.99,570.645 1107.74,570.802 1110.5,570.962 1113.25,571.124 1116.01,571.288 1118.76,571.455 1121.51,571.623 1124.27,571.794 1127.02,571.967 1129.78,572.142 1132.53,572.32 1135.29,572.5 1138.04,572.682 1140.8,572.867 1143.55,573.053 1146.3,573.242 1149.06,573.433 1151.81,573.627 1154.57,573.823 1157.32,574.021 1160.08,574.222 1162.83,574.425 1165.59,574.63 1168.34,574.837 1171.09,575.047 1173.85,575.26 1176.6,575.474 1179.36,575.691 1182.11,575.911 1184.87,576.133 1187.62,576.357 1190.38,576.583 1193.13,576.812 1195.88,577.044 1198.64,577.277 1201.39,577.514 1204.15,577.752 1206.9,577.993 1209.66,578.237 1212.41,578.483 1215.17,578.731 1217.92,578.982 1220.67,579.235 1223.43,579.491 1226.18,579.749 1228.94,580.009 1231.69,580.272 1234.45,580.538 1237.2,580.806 1239.96,581.076 1242.71,581.349 1245.46,581.625 1248.22,581.903 1250.97,582.183 1253.73,582.466 1256.48,582.752 1259.24,583.04 1261.99,583.33 1264.75,583.623 1267.5,583.918 1270.25,584.216 1273.01,584.517 1275.76,584.82 1278.52,585.125 1281.27,585.433 1284.03,585.744 1286.78,586.057 1289.54,586.373 1292.29,586.691 1295.04,587.012 1297.8,587.335 1300.55,587.661 1303.31,587.989 1306.06,588.32 1308.82,588.653 1311.57,588.989 1314.33,589.328 1317.08,589.669 1319.83,590.013 1322.59,590.359 1325.34,590.708 1328.1,591.059 1330.85,591.413 1333.61,591.769 1336.36,592.128 1339.12,592.489 1341.87,592.854 1344.62,593.22 1347.38,593.589 1350.13,593.961 1352.89,594.335 1355.64,594.712 1358.4,595.092 1361.15,595.473 1363.91,595.858 1366.66,596.245 1369.41,596.635 1372.17,597.027 1374.92,597.422 1377.68,597.819 1380.43,598.219 1383.19,598.622 1385.94,599.027 1388.7,599.434 1391.45,599.845 1394.21,600.257 1396.96,600.673 1399.71,601.091 1402.47,601.511 1405.22,601.934 1407.98,602.36 1410.73,602.788 1413.49,603.219 1416.24,603.652 1419,604.088 1421.75,604.526 1424.5,604.967 1427.26,605.411 1430.01,605.857 1432.77,606.306 1435.52,606.757 1438.28,607.211 1441.03,607.667 1443.79,608.126 1446.54,608.587 1449.29,609.051 1452.05,609.518 1454.8,609.987 1457.56,610.459 1460.31,610.933 1463.07,611.41 1465.82,611.889 1468.58,612.371 1471.33,612.856 1474.08,613.343 1476.84,613.832 1479.59,614.324 1482.35,614.819 1485.1,615.316 1487.86,615.816 1490.61,616.318 1493.37,616.823 1496.12,617.33 1498.87,617.84 1501.63,618.353 1504.38,618.868 1507.14,619.385 1509.89,619.905 1512.65,620.428 1515.4,620.953 1518.16,621.481 1520.91,622.011 1523.66,622.544 1526.42,623.079 1529.17,623.617 1531.93,624.157 1534.68,624.7 1537.44,625.245 1540.19,625.793 1542.95,626.343 1545.7,626.896 1548.45,627.452 1551.21,628.01 1553.96,628.57 1556.72,629.133 1559.47,629.699 1562.23,630.267 1564.98,630.837 1567.74,631.41 1570.49,631.985 1573.24,632.564 1576,633.144 1578.75,633.727 1581.51,634.313 1584.26,634.901 1587.02,635.491 1589.77,636.084 1592.53,636.68 1595.28,637.278 1598.03,637.878 1600.79,638.481 1603.54,639.087 1606.3,639.695 1609.05,640.305 1611.81,640.918 1614.56,641.533 1617.32,642.151 1620.07,642.772 1622.82,643.394 1625.58,644.02 1628.33,644.647 1631.09,645.278 1633.84,645.91 1636.6,646.546 1639.35,647.183 1642.11,647.823 1644.86,648.466 1647.62,649.111 1650.37,649.758 1653.12,650.408 1655.88,651.061 1658.63,651.716 1661.39,652.373 1664.14,653.033 1666.9,653.695 1669.65,654.359 1672.41,655.026 1675.16,655.696 1677.91,656.368 1680.67,657.042 1683.42,657.719 1686.18,658.398 1688.93,659.08 1691.69,659.764 1694.44,660.451 1697.2,661.139 1699.95,661.831 1702.7,662.524 1705.46,663.22 1708.21,663.919 1710.97,664.62 1713.72,665.323 1716.48,666.029 1719.23,666.738 1721.99,667.448 1724.74,668.161 1727.49,668.877 1730.25,669.594 1733,670.315 1735.76,671.037 1738.51,671.762 1741.27,672.489 1744.02,673.219 1746.78,673.951 1749.53,674.686 1752.28,675.423 1755.04,676.162 1757.79,676.903 1760.55,677.647 1763.3,678.394 1766.06,679.143 1768.81,679.894 1771.57,680.647 1774.32,681.403 1777.07,682.161 1779.83,682.922 1782.58,683.685 1785.34,684.45 1788.09,685.217 1790.85,685.987 1793.6,686.76 1796.36,687.534 1799.11,688.311 1801.86,689.091 1804.62,689.872 1807.37,690.656 1810.13,691.443 1812.88,692.231 1815.64,693.022 1818.39,693.816 1821.15,694.611 1823.9,695.409 1826.65,696.21 1829.41,697.012 1832.16,697.817 1834.92,698.625 1837.67,699.434 1840.43,700.246 1843.18,701.06 1845.94,701.877 1848.69,702.695 1851.44,703.517 1854.2,704.34 1856.95,705.166 1859.71,705.994 1862.46,706.824 1865.22,707.657 1867.97,708.491 1870.73,709.329 1873.48,710.168 1876.23,711.01 1878.99,711.854 1881.74,712.7 1884.5,713.549 1887.25,714.399 1890.01,715.253 1892.76,716.108 1895.52,716.966 1898.27,717.826 1901.03,718.688 1903.78,719.552 1906.53,720.419 1909.29,721.288 1912.04,722.159 1914.8,723.033 1917.55,723.908 1920.31,724.786 1923.06,725.667 1925.82,726.549 1928.57,727.434 1931.32,728.321 1934.08,729.21 1936.83,730.101 1939.59,730.995 1942.34,731.891 1945.1,732.789 1947.85,733.689 1950.61,734.592 1953.36,735.497 1956.11,736.404 1958.87,737.313 1961.62,738.225 1964.38,739.138 1967.13,740.054 1969.89,740.973 1972.64,741.893 1975.4,742.815 1978.15,743.74 1980.9,744.667 1983.66,745.596 1986.41,746.528 1989.17,747.461 1991.92,748.397 1994.68,749.335 1997.43,750.275 2000.19,751.218 2002.94,752.162 2005.69,753.109 2008.45,754.058 2011.2,755.009 2013.96,755.962 2016.71,756.918 2019.47,757.875 2022.22,758.835 2024.98,759.797 2027.73,760.761 2030.48,761.728 2033.24,762.696 2035.99,763.667 2038.75,764.64 2041.5,765.615 2044.26,766.592 2047.01,767.571 2049.77,768.553 2052.52,769.536 2055.27,770.522 2058.03,771.51 2060.78,772.5 2063.54,773.492 2066.29,774.487 2069.05,775.483 2071.8,776.482 2074.56,777.483 2077.31,778.486 2080.06,779.491 2082.82,780.498 2085.57,781.507 2088.33,782.519 2091.08,783.532 2093.84,784.548 2096.59,785.566 2099.35,786.586 2102.1,787.608 2104.85,788.632 2107.61,789.659 2110.36,790.687 2113.12,791.718 2115.87,792.75 2118.63,793.785 2121.38,794.822 2124.14,795.861 2126.89,796.902 2129.64,797.945 2132.4,798.991 2135.15,800.038 2137.91,801.087 2140.66,802.139 2143.42,803.192 2146.17,804.248 2148.93,805.306 2151.68,806.366 2154.44,807.428 2157.19,808.492 2159.94,809.559 2162.7,810.627 2165.45,811.697 2168.21,812.77 2170.96,813.844 2173.72,814.921 2176.47,815.999 2179.23,817.08 2181.98,818.163 2184.73,819.248 2187.49,820.335 2190.24,821.423 2193,822.514 2195.75,823.608 2198.51,824.703 2201.26,825.8 2204.02,826.9 2206.77,828 2209.52,829.104 2212.28,830.209 2215.03,831.317 2217.79,832.426 2220.54,833.537 2223.3,834.651 2226.05,835.767 2228.81,836.884 2231.56,838.004 2234.31,839.126 2237.07,840.25 2239.82,841.375 2242.58,842.503 2245.33,843.633 2248.09,844.764 2250.84,845.899 2253.6,847.034 2256.35,848.172 2259.1,849.312 2261.86,850.454 2264.61,851.598 2267.37,852.744 2270.12,853.892 2272.88,855.042 2275.63,856.194 2278.39,857.348 2281.14,858.504 2283.89,859.662 2286.65,860.822 2289.4,861.984 2292.16,863.148 2294.91,864.314 2297.67,865.482 2300.42,866.652 2303.18,867.824 2305.93,868.998 2308.68,870.174 2311.44,871.352 2314.19,872.531 2316.95,873.713 2319.7,874.897 2322.46,876.083 2325.21,877.271 2327.97,878.46 2330.72,879.652 2333.47,880.846 2336.23,882.042 2338.98,883.239 2341.74,884.439 2344.49,885.64 2347.25,886.844 2350,888.049 2352.76,889.257 "/>
<polyline clip-path="url(#clip752)" style="stroke:#3da44d; stroke-linecap:round; stroke-linejoin:round; stroke-width:12; stroke-opacity:1; fill:none" points="149.191,571.179 151.945,571.835 154.7,572.498 157.454,573.166 160.209,573.839 162.963,574.518 165.718,575.203 168.472,575.893 171.227,576.588 173.981,577.289 176.735,577.996 179.49,578.707 182.244,579.424 184.999,580.147 187.753,580.874 190.508,581.607 193.262,582.344 196.017,583.087 198.771,583.835 201.526,584.588 204.28,585.346 207.034,586.108 209.789,586.875 212.543,587.647 215.298,588.424 218.052,589.205 220.807,589.991 223.561,590.781 226.316,591.576 229.07,592.375 231.825,593.178 234.579,593.986 237.333,594.797 240.088,595.613 242.842,596.432 245.597,597.256 248.351,598.083 251.106,598.914 253.86,599.749 256.615,600.587 259.369,601.429 262.124,602.274 264.878,603.123 267.632,603.975 270.387,604.83 273.141,605.688 275.896,606.55 278.65,607.414 281.405,608.281 284.159,609.151 286.914,610.024 289.668,610.899 292.423,611.777 295.177,612.657 297.932,613.54 300.686,614.424 303.44,615.311 306.195,616.201 308.949,617.092 311.704,617.985 314.458,618.88 317.213,619.777 319.967,620.675 322.722,621.575 325.476,622.477 328.231,623.38 330.985,624.284 333.739,625.189 336.494,626.096 339.248,627.004 342.003,627.913 344.757,628.822 347.512,629.733 350.266,630.644 353.021,631.556 355.775,632.468 358.53,633.382 361.284,634.295 364.038,635.209 366.793,636.123 369.547,637.037 372.302,637.951 375.056,638.866 377.811,639.78 380.565,640.694 383.32,641.608 386.074,642.522 388.829,643.435 391.583,644.348 394.337,645.261 397.092,646.172 399.846,647.084 402.601,647.994 405.355,648.904 408.11,649.813 410.864,650.721 413.619,651.628 416.373,652.534 419.128,653.438 421.882,654.342 424.636,655.244 427.391,656.145 430.145,657.045 432.9,657.943 435.654,658.84 438.409,659.735 441.163,660.629 443.918,661.521 446.672,662.411 449.427,663.3 452.181,664.186 454.936,665.071 457.69,665.954 460.444,666.835 463.199,667.714 465.953,668.59 468.708,669.465 471.462,670.338 474.217,671.208 476.971,672.076 479.726,672.941 482.48,673.805 485.235,674.666 487.989,675.524 490.743,676.38 493.498,677.234 496.252,678.085 499.007,678.933 501.761,679.779 504.516,680.622 507.27,681.463 510.025,682.3 512.779,683.135 515.534,683.968 518.288,684.797 521.042,685.624 523.797,686.447 526.551,687.268 529.306,688.086 532.06,688.901 534.815,689.713 537.569,690.522 540.324,691.328 543.078,692.13 545.833,692.93 548.587,693.727 551.341,694.521 554.096,695.311 556.85,696.098 559.605,696.883 562.359,697.664 565.114,698.441 567.868,699.216 570.623,699.987 573.377,700.756 576.132,701.52 578.886,702.282 581.641,703.04 584.395,703.796 587.149,704.547 589.904,705.296 592.658,706.041 595.413,706.783 598.167,707.521 600.922,708.256 603.676,708.988 606.431,709.717 609.185,710.442 611.94,711.164 614.694,711.882 617.448,712.597 620.203,713.309 622.957,714.017 625.712,714.722 628.466,715.424 631.221,716.122 633.975,716.817 636.73,717.508 639.484,718.196 642.239,718.881 644.993,719.562 647.747,720.24 650.502,720.915 653.256,721.586 656.011,722.254 658.765,722.918 661.52,723.58 664.274,724.237 667.029,724.892 669.783,725.543 672.538,726.191 675.292,726.835 678.046,727.476 680.801,728.114 683.555,728.749 686.31,729.38 689.064,730.008 691.819,730.633 694.573,731.254 697.328,731.872 700.082,732.487 702.837,733.098 705.591,733.707 708.345,734.312 711.1,734.914 713.854,735.512 716.609,736.108 719.363,736.7 722.118,737.289 724.872,737.875 727.627,738.458 730.381,739.037 733.136,739.614 735.89,740.187 738.645,740.757 741.399,741.324 744.153,741.888 746.908,742.449 749.662,743.007 752.417,743.562 755.171,744.114 757.926,744.662 760.68,745.208 763.435,745.751 766.189,746.29 768.944,746.827 771.698,747.361 774.452,747.891 777.207,748.419 779.961,748.944 782.716,749.466 785.47,749.985 788.225,750.502 790.979,751.015 793.734,751.525 796.488,752.033 799.243,752.538 801.997,753.04 804.751,753.539 807.506,754.035 810.26,754.529 813.015,755.02 815.769,755.508 818.524,755.993 821.278,756.476 824.033,756.956 826.787,757.433 829.542,757.908 832.296,758.38 835.05,758.849 837.805,759.316 840.559,759.78 843.314,760.241 846.068,760.7 848.823,761.156 851.577,761.61 854.332,762.061 857.086,762.51 859.841,762.956 862.595,763.4 865.349,763.841 868.104,764.28 870.858,764.716 873.613,765.15 876.367,765.581 879.122,766.01 881.876,766.436 884.631,766.86 887.385,767.282 890.14,767.702 892.894,768.119 895.649,768.533 898.403,768.946 901.157,769.356 903.912,769.764 906.666,770.169 909.421,770.573 912.175,770.974 914.93,771.373 917.684,771.769 920.439,772.164 923.193,772.556 925.948,772.946 928.702,773.334 931.456,773.719 934.211,774.103 936.965,774.485 939.72,774.864 942.474,775.241 945.229,775.616 947.983,775.989 950.738,776.361 953.492,776.73 956.247,777.097 959.001,777.462 961.755,777.824 964.51,778.185 967.264,778.544 970.019,778.901 972.773,779.257 975.528,779.61 978.282,779.961 981.037,780.31 983.791,780.658 986.546,781.003 989.3,781.347 992.054,781.689 994.809,782.028 997.563,782.367 1000.32,782.703 1003.07,783.037 1005.83,783.37 1008.58,783.701 1011.34,784.03 1014.09,784.357 1016.84,784.683 1019.6,785.006 1022.35,785.328 1025.11,785.649 1027.86,785.967 1030.62,786.284 1033.37,786.6 1036.13,786.913 1038.88,787.225 1041.63,787.535 1044.39,787.844 1047.14,788.151 1049.9,788.456 1052.65,788.76 1055.41,789.062 1058.16,789.363 1060.92,789.662 1063.67,789.959 1066.42,790.255 1069.18,790.549 1071.93,790.842 1074.69,791.133 1077.44,791.423 1080.2,791.711 1082.95,791.998 1085.71,792.283 1088.46,792.567 1091.21,792.85 1093.97,793.13 1096.72,793.41 1099.48,793.688 1102.23,793.964 1104.99,794.24 1107.74,794.513 1110.5,794.786 1113.25,795.057 1116.01,795.326 1118.76,795.594 1121.51,795.861 1124.27,796.127 1127.02,796.391 1129.78,796.654 1132.53,796.915 1135.29,797.176 1138.04,797.434 1140.8,797.692 1143.55,797.948 1146.3,798.203 1149.06,798.457 1151.81,798.71 1154.57,798.961 1157.32,799.211 1160.08,799.46 1162.83,799.707 1165.59,799.954 1168.34,800.199 1171.09,800.443 1173.85,800.685 1176.6,800.927 1179.36,801.167 1182.11,801.407 1184.87,801.645 1187.62,801.882 1190.38,802.117 1193.13,802.352 1195.88,802.585 1198.64,802.818 1201.39,803.049 1204.15,803.279 1206.9,803.508 1209.66,803.736 1212.41,803.963 1215.17,804.189 1217.92,804.413 1220.67,804.637 1223.43,804.859 1226.18,805.081 1228.94,805.301 1231.69,805.521 1234.45,805.739 1237.2,805.957 1239.96,806.173 1242.71,806.388 1245.46,806.603 1248.22,806.816 1250.97,807.028 1253.73,807.24 1256.48,807.45 1259.24,807.66 1261.99,807.868 1264.75,808.076 1267.5,808.282 1270.25,808.488 1273.01,808.693 1275.76,808.897 1278.52,809.099 1281.27,809.301 1284.03,809.502 1286.78,809.703 1289.54,809.902 1292.29,810.1 1295.04,810.297 1297.8,810.494 1300.55,810.69 1303.31,810.885 1306.06,811.078 1308.82,811.272 1311.57,811.464 1314.33,811.655 1317.08,811.846 1319.83,812.035 1322.59,812.224 1325.34,812.412 1328.1,812.6 1330.85,812.786 1333.61,812.972 1336.36,813.156 1339.12,813.34 1341.87,813.524 1344.62,813.706 1347.38,813.888 1350.13,814.068 1352.89,814.249 1355.64,814.428 1358.4,814.606 1361.15,814.784 1363.91,814.961 1366.66,815.137 1369.41,815.313 1372.17,815.488 1374.92,815.662 1377.68,815.835 1380.43,816.008 1383.19,816.18 1385.94,816.351 1388.7,816.521 1391.45,816.691 1394.21,816.86 1396.96,817.029 1399.71,817.196 1402.47,817.363 1405.22,817.53 1407.98,817.695 1410.73,817.86 1413.49,818.024 1416.24,818.188 1419,818.351 1421.75,818.513 1424.5,818.675 1427.26,818.836 1430.01,818.996 1432.77,819.156 1435.52,819.315 1438.28,819.473 1441.03,819.631 1443.79,819.788 1446.54,819.945 1449.29,820.101 1452.05,820.256 1454.8,820.411 1457.56,820.565 1460.31,820.718 1463.07,820.871 1465.82,821.024 1468.58,821.175 1471.33,821.326 1474.08,821.477 1476.84,821.627 1479.59,821.776 1482.35,821.925 1485.1,822.073 1487.86,822.221 1490.61,822.368 1493.37,822.515 1496.12,822.661 1498.87,822.806 1501.63,822.951 1504.38,823.095 1507.14,823.239 1509.89,823.382 1512.65,823.525 1515.4,823.667 1518.16,823.809 1520.91,823.95 1523.66,824.091 1526.42,824.231 1529.17,824.37 1531.93,824.509 1534.68,824.648 1537.44,824.786 1540.19,824.924 1542.95,825.061 1545.7,825.197 1548.45,825.333 1551.21,825.469 1553.96,825.604 1556.72,825.739 1559.47,825.873 1562.23,826.006 1564.98,826.139 1567.74,826.272 1570.49,826.404 1573.24,826.536 1576,826.667 1578.75,826.798 1581.51,826.928 1584.26,827.058 1587.02,827.188 1589.77,827.317 1592.53,827.445 1595.28,827.573 1598.03,827.701 1600.79,827.828 1603.54,827.955 1606.3,828.081 1609.05,828.207 1611.81,828.333 1614.56,828.458 1617.32,828.582 1620.07,828.706 1622.82,828.83 1625.58,828.954 1628.33,829.076 1631.09,829.199 1633.84,829.321 1636.6,829.443 1639.35,829.564 1642.11,829.685 1644.86,829.805 1647.62,829.925 1650.37,830.045 1653.12,830.164 1655.88,830.283 1658.63,830.402 1661.39,830.52 1664.14,830.638 1666.9,830.755 1669.65,830.872 1672.41,830.989 1675.16,831.105 1677.91,831.22 1680.67,831.336 1683.42,831.451 1686.18,831.566 1688.93,831.68 1691.69,831.794 1694.44,831.908 1697.2,832.021 1699.95,832.134 1702.7,832.246 1705.46,832.358 1708.21,832.47 1710.97,832.582 1713.72,832.693 1716.48,832.804 1719.23,832.914 1721.99,833.024 1724.74,833.134 1727.49,833.243 1730.25,833.352 1733,833.461 1735.76,833.569 1738.51,833.678 1741.27,833.785 1744.02,833.893 1746.78,834 1749.53,834.107 1752.28,834.213 1755.04,834.319 1757.79,834.425 1760.55,834.53 1763.3,834.635 1766.06,834.74 1768.81,834.845 1771.57,834.949 1774.32,835.053 1777.07,835.156 1779.83,835.26 1782.58,835.363 1785.34,835.465 1788.09,835.568 1790.85,835.67 1793.6,835.772 1796.36,835.873 1799.11,835.974 1801.86,836.075 1804.62,836.176 1807.37,836.276 1810.13,836.376 1812.88,836.476 1815.64,836.575 1818.39,836.675 1821.15,836.773 1823.9,836.872 1826.65,836.97 1829.41,837.068 1832.16,837.166 1834.92,837.264 1837.67,837.361 1840.43,837.458 1843.18,837.554 1845.94,837.651 1848.69,837.747 1851.44,837.843 1854.2,837.938 1856.95,838.034 1859.71,838.129 1862.46,838.224 1865.22,838.318 1867.97,838.412 1870.73,838.507 1873.48,838.6 1876.23,838.694 1878.99,838.787 1881.74,838.88 1884.5,838.973 1887.25,839.065 1890.01,839.158 1892.76,839.25 1895.52,839.341 1898.27,839.433 1901.03,839.524 1903.78,839.615 1906.53,839.706 1909.29,839.797 1912.04,839.887 1914.8,839.977 1917.55,840.067 1920.31,840.156 1923.06,840.246 1925.82,840.335 1928.57,840.424 1931.32,840.513 1934.08,840.601 1936.83,840.689 1939.59,840.777 1942.34,840.865 1945.1,840.952 1947.85,841.04 1950.61,841.127 1953.36,841.214 1956.11,841.3 1958.87,841.387 1961.62,841.473 1964.38,841.559 1967.13,841.645 1969.89,841.73 1972.64,841.816 1975.4,841.901 1978.15,841.986 1980.9,842.07 1983.66,842.155 1986.41,842.239 1989.17,842.323 1991.92,842.407 1994.68,842.491 1997.43,842.574 2000.19,842.657 2002.94,842.74 2005.69,842.823 2008.45,842.906 2011.2,842.988 2013.96,843.07 2016.71,843.152 2019.47,843.234 2022.22,843.316 2024.98,843.397 2027.73,843.479 2030.48,843.56 2033.24,843.64 2035.99,843.721 2038.75,843.802 2041.5,843.882 2044.26,843.962 2047.01,844.042 2049.77,844.121 2052.52,844.201 2055.27,844.28 2058.03,844.359 2060.78,844.438 2063.54,844.517 2066.29,844.596 2069.05,844.674 2071.8,844.752 2074.56,844.83 2077.31,844.908 2080.06,844.986 2082.82,845.063 2085.57,845.141 2088.33,845.218 2091.08,845.295 2093.84,845.372 2096.59,845.448 2099.35,845.525 2102.1,845.601 2104.85,845.677 2107.61,845.753 2110.36,845.829 2113.12,845.904 2115.87,845.98 2118.63,846.055 2121.38,846.13 2124.14,846.205 2126.89,846.28 2129.64,846.354 2132.4,846.429 2135.15,846.503 2137.91,846.577 2140.66,846.651 2143.42,846.725 2146.17,846.798 2148.93,846.872 2151.68,846.945 2154.44,847.018 2157.19,847.091 2159.94,847.164 2162.7,847.236 2165.45,847.309 2168.21,847.381 2170.96,847.453 2173.72,847.525 2176.47,847.597 2179.23,847.669 2181.98,847.74 2184.73,847.812 2187.49,847.883 2190.24,847.954 2193,848.025 2195.75,848.096 2198.51,848.166 2201.26,848.237 2204.02,848.307 2206.77,848.377 2209.52,848.447 2212.28,848.517 2215.03,848.587 2217.79,848.656 2220.54,848.726 2223.3,848.795 2226.05,848.864 2228.81,848.933 2231.56,849.002 2234.31,849.071 2237.07,849.14 2239.82,849.208 2242.58,849.276 2245.33,849.344 2248.09,849.412 2250.84,849.48 2253.6,849.548 2256.35,849.616 2259.1,849.683 2261.86,849.75 2264.61,849.818 2267.37,849.885 2270.12,849.952 2272.88,850.018 2275.63,850.085 2278.39,850.152 2281.14,850.218 2283.89,850.284 2286.65,850.35 2289.4,850.416 2292.16,850.482 2294.91,850.548 2297.67,850.614 2300.42,850.679 2303.18,850.744 2305.93,850.809 2308.68,850.875 2311.44,850.94 2314.19,851.004 2316.95,851.069 2319.7,851.134 2322.46,851.198 2325.21,851.262 2327.97,851.327 2330.72,851.391 2333.47,851.454 2336.23,851.518 2338.98,851.582 2341.74,851.646 2344.49,851.709 2347.25,851.772 2350,851.836 2352.76,851.899 "/>
<path clip-path="url(#clip750)" d="M222.643 300.469 L532.096 300.469 L532.096 93.1086 L222.643 93.1086  Z" fill="#ffffff" fill-rule="evenodd" fill-opacity="1"/>
<polyline clip-path="url(#clip750)" style="stroke:#000000; stroke-linecap:round; stroke-linejoin:round; stroke-width:4; stroke-opacity:1; fill:none" points="222.643,300.469 532.096,300.469 532.096,93.1086 222.643,93.1086 222.643,300.469 "/>
<polyline clip-path="url(#clip750)" style="stroke:#009af9; stroke-linecap:round; stroke-linejoin:round; stroke-width:12; stroke-opacity:1; fill:none" points="247.127,144.949 394.031,144.949 "/>
<path clip-path="url(#clip750)" d="M418.515 151.997 L418.515 136.303 L422.775 136.303 L422.775 151.835 Q422.775 155.516 424.21 157.368 Q425.645 159.196 428.515 159.196 Q431.964 159.196 433.955 156.997 Q435.969 154.798 435.969 151.002 L435.969 136.303 L440.228 136.303 L440.228 162.229 L435.969 162.229 L435.969 158.247 Q434.418 160.608 432.358 161.766 Q430.321 162.9 427.613 162.9 Q423.145 162.9 420.83 160.122 Q418.515 157.344 418.515 151.997 M429.233 135.678 L429.233 135.678 Z" fill="#000000" fill-rule="nonzero" fill-opacity="1" /><path clip-path="url(#clip750)" d="M448.608 126.21 L458.423 126.21 L458.423 129.52 L452.867 129.52 L452.867 165.168 L458.423 165.168 L458.423 168.479 L448.608 168.479 L448.608 126.21 Z" fill="#000000" fill-rule="nonzero" fill-opacity="1" /><path clip-path="url(#clip750)" d="M468.909 158.293 L476.548 158.293 L476.548 131.928 L468.237 133.595 L468.237 129.335 L476.501 127.669 L481.177 127.669 L481.177 158.293 L488.816 158.293 L488.816 162.229 L468.909 162.229 L468.909 158.293 Z" fill="#000000" fill-rule="nonzero" fill-opacity="1" /><path clip-path="url(#clip750)" d="M507.612 126.21 L507.612 168.479 L497.797 168.479 L497.797 165.168 L503.33 165.168 L503.33 129.52 L497.797 129.52 L497.797 126.21 L507.612 126.21 Z" fill="#000000" fill-rule="nonzero" fill-opacity="1" /><polyline clip-path="url(#clip750)" style="stroke:#e26f46; stroke-linecap:round; stroke-linejoin:round; stroke-width:12; stroke-opacity:1; fill:none" points="247.127,196.789 394.031,196.789 "/>
<path clip-path="url(#clip750)" d="M418.515 203.837 L418.515 188.143 L422.775 188.143 L422.775 203.675 Q422.775 207.356 424.21 209.208 Q425.645 211.036 428.515 211.036 Q431.964 211.036 433.955 208.837 Q435.969 206.638 435.969 202.842 L435.969 188.143 L440.228 188.143 L440.228 214.069 L435.969 214.069 L435.969 210.087 Q434.418 212.448 432.358 213.606 Q430.321 214.74 427.613 214.74 Q423.145 214.74 420.83 211.962 Q418.515 209.184 418.515 203.837 M429.233 187.518 L429.233 187.518 Z" fill="#000000" fill-rule="nonzero" fill-opacity="1" /><path clip-path="url(#clip750)" d="M448.608 178.05 L458.423 178.05 L458.423 181.36 L452.867 181.36 L452.867 217.008 L458.423 217.008 L458.423 220.319 L448.608 220.319 L448.608 178.05 Z" fill="#000000" fill-rule="nonzero" fill-opacity="1" /><path clip-path="url(#clip750)" d="M472.126 210.133 L488.446 210.133 L488.446 214.069 L466.501 214.069 L466.501 210.133 Q469.163 207.379 473.747 202.749 Q478.353 198.096 479.534 196.754 Q481.779 194.231 482.659 192.495 Q483.561 190.735 483.561 189.046 Q483.561 186.291 481.617 184.555 Q479.696 182.819 476.594 182.819 Q474.395 182.819 471.941 183.583 Q469.511 184.347 466.733 185.897 L466.733 181.175 Q469.557 180.041 472.011 179.462 Q474.464 178.884 476.501 178.884 Q481.872 178.884 485.066 181.569 Q488.26 184.254 488.26 188.745 Q488.26 190.874 487.45 192.796 Q486.663 194.694 484.557 197.286 Q483.978 197.958 480.876 201.175 Q477.774 204.37 472.126 210.133 Z" fill="#000000" fill-rule="nonzero" fill-opacity="1" /><path clip-path="url(#clip750)" d="M507.612 178.05 L507.612 220.319 L497.797 220.319 L497.797 217.008 L503.33 217.008 L503.33 181.36 L497.797 181.36 L497.797 178.05 L507.612 178.05 Z" fill="#000000" fill-rule="nonzero" fill-opacity="1" /><polyline clip-path="url(#clip750)" style="stroke:#3da44d; stroke-linecap:round; stroke-linejoin:round; stroke-width:12; stroke-opacity:1; fill:none" points="247.127,248.629 394.031,248.629 "/>
<path clip-path="url(#clip750)" d="M418.515 255.677 L418.515 239.983 L422.775 239.983 L422.775 255.515 Q422.775 259.196 424.21 261.048 Q425.645 262.876 428.515 262.876 Q431.964 262.876 433.955 260.677 Q435.969 258.478 435.969 254.682 L435.969 239.983 L440.228 239.983 L440.228 265.909 L435.969 265.909 L435.969 261.927 Q434.418 264.288 432.358 265.446 Q430.321 266.58 427.613 266.58 Q423.145 266.58 420.83 263.802 Q418.515 261.024 418.515 255.677 M429.233 239.358 L429.233 239.358 Z" fill="#000000" fill-rule="nonzero" fill-opacity="1" /><path clip-path="url(#clip750)" d="M459.233 229.937 Q456.131 235.261 454.626 240.469 Q453.122 245.677 453.122 251.024 Q453.122 256.372 454.626 261.626 Q456.154 266.858 459.233 272.159 L455.529 272.159 Q452.057 266.719 450.321 261.464 Q448.608 256.21 448.608 251.024 Q448.608 245.862 450.321 240.631 Q452.034 235.4 455.529 229.937 L459.233 229.937 Z" fill="#000000" fill-rule="nonzero" fill-opacity="1" /><path clip-path="url(#clip750)" d="M471.71 232.622 L471.71 239.983 L480.483 239.983 L480.483 243.293 L471.71 243.293 L471.71 257.367 Q471.71 260.538 472.566 261.441 Q473.446 262.344 476.108 262.344 L480.483 262.344 L480.483 265.909 L476.108 265.909 Q471.177 265.909 469.302 264.08 Q467.427 262.228 467.427 257.367 L467.427 243.293 L464.302 243.293 L464.302 239.983 L467.427 239.983 L467.427 232.622 L471.71 232.622 Z" fill="#000000" fill-rule="nonzero" fill-opacity="1" /><path clip-path="url(#clip750)" d="M485.413 229.937 L489.117 229.937 Q492.589 235.4 494.302 240.631 Q496.038 245.862 496.038 251.024 Q496.038 256.21 494.302 261.464 Q492.589 266.719 489.117 272.159 L485.413 272.159 Q488.492 266.858 489.997 261.626 Q491.524 256.372 491.524 251.024 Q491.524 245.677 489.997 240.469 Q488.492 235.261 485.413 229.937 Z" fill="#000000" fill-rule="nonzero" fill-opacity="1" /></svg>
