<?xml version="1.0" encoding="utf-8"?>
<svg xmlns="http://www.w3.org/2000/svg" xmlns:xlink="http://www.w3.org/1999/xlink" width="600" height="400" viewBox="0 0 2400 1600">
<defs>
  <clipPath id="clip000">
    <rect x="0" y="0" width="2400" height="1600"/>
  </clipPath>
</defs>
<path clip-path="url(#clip000)" d="M0 1600 L2400 1600 L2400 0 L0 0  Z" fill="#ffffff" fill-rule="evenodd" fill-opacity="1"/>
<defs>
  <clipPath id="clip001">
    <rect x="149" y="47" width="2205" height="1377"/>
  </clipPath>
</defs>
<path clip-path="url(#clip000)" d="M149.191 1423.18 L2352.76 1423.18 L2352.76 47.2441 L149.191 47.2441  Z" fill="#ffffff" fill-rule="evenodd" fill-opacity="1"/>
<polyline clip-path="url(#clip001)" style="stroke:#000000; stroke-linecap:round; stroke-linejoin:round; stroke-width:2; stroke-opacity:0.1; fill:none" points="149.191,1423.18 149.191,47.2441 "/>
<polyline clip-path="url(#clip001)" style="stroke:#000000; stroke-linecap:round; stroke-linejoin:round; stroke-width:2; stroke-opacity:0.1; fill:none" points="700.082,1423.18 700.082,47.2441 "/>
<polyline clip-path="url(#clip001)" style="stroke:#000000; stroke-linecap:round; stroke-linejoin:round; stroke-width:2; stroke-opacity:0.1; fill:none" points="1250.97,1423.18 1250.97,47.2441 "/>
<polyline clip-path="url(#clip001)" style="stroke:#000000; stroke-linecap:round; stroke-linejoin:round; stroke-width:2; stroke-opacity:0.1; fill:none" points="1801.86,1423.18 1801.86,47.2441 "/>
<polyline clip-path="url(#clip001)" style="stroke:#000000; stroke-linecap:round; stroke-linejoin:round; stroke-width:2; stroke-opacity:0.1; fill:none" points="2352.76,1423.18 2352.76,47.2441 "/>
<polyline clip-path="url(#clip001)" style="stroke:#000000; stroke-linecap:round; stroke-linejoin:round; stroke-width:2; stroke-opacity:0.1; fill:none" points="149.191,1423.18 2352.76,1423.18 "/>
<polyline clip-path="url(#clip001)" style="stroke:#000000; stroke-linecap:round; stroke-linejoin:round; stroke-width:2; stroke-opacity:0.1; fill:none" points="149.191,1193.86 2352.76,1193.86 "/>
<polyline clip-path="url(#clip001)" style="stroke:#000000; stroke-linecap:round; stroke-linejoin:round; stroke-width:2; stroke-opacity:0.1; fill:none" points="149.191,964.535 2352.76,964.535 "/>
<polyline clip-path="url(#clip001)" style="stroke:#000000; stroke-linecap:round; stroke-linejoin:round; stroke-width:2; stroke-opacity:0.1; fill:none" points="149.191,735.212 2352.76,735.212 "/>
<polyline clip-path="url(#clip001)" style="stroke:#000000; stroke-linecap:round; stroke-linejoin:round; stroke-width:2; stroke-opacity:0.1; fill:none" points="149.191,505.889 2352.76,505.889 "/>
<polyline clip-path="url(#clip001)" style="stroke:#000000; stroke-linecap:round; stroke-linejoin:round; stroke-width:2; stroke-opacity:0.1; fill:none" points="149.191,276.567 2352.76,276.567 "/>
<polyline clip-path="url(#clip001)" style="stroke:#000000; stroke-linecap:round; stroke-linejoin:round; stroke-width:2; stroke-opacity:0.1; fill:none" points="149.191,47.2441 2352.76,47.2441 "/>
<polyline clip-path="url(#clip000)" style="stroke:#000000; stroke-linecap:round; stroke-linejoin:round; stroke-width:4; stroke-opacity:1; fill:none" points="149.191,1423.18 2352.76,1423.18 "/>
<polyline clip-path="url(#clip000)" style="stroke:#000000; stroke-linecap:round; stroke-linejoin:round; stroke-width:4; stroke-opacity:1; fill:none" points="149.191,1423.18 149.191,1404.28 "/>
<polyline clip-path="url(#clip000)" style="stroke:#000000; stroke-linecap:round; stroke-linejoin:round; stroke-width:4; stroke-opacity:1; fill:none" points="700.082,1423.18 700.082,1404.28 "/>
<polyline clip-path="url(#clip000)" style="stroke:#000000; stroke-linecap:round; stroke-linejoin:round; stroke-width:4; stroke-opacity:1; fill:none" points="1250.97,1423.18 1250.97,1404.28 "/>
<polyline clip-path="url(#clip000)" style="stroke:#000000; stroke-linecap:round; stroke-linejoin:round; stroke-width:4; stroke-opacity:1; fill:none" points="1801.86,1423.18 1801.86,1404.28 "/>
<polyline clip-path="url(#clip000)" style="stroke:#000000; stroke-linecap:round; stroke-linejoin:round; stroke-width:4; stroke-opacity:1; fill:none" points="2352.76,1423.18 2352.76,1404.28 "/>
<path clip-path="url(#clip000)" d="M149.191 1454.1 Q145.58 1454.1 143.751 1457.66 Q141.946 1461.2 141.946 1468.33 Q141.946 1475.44 143.751 1479.01 Q145.58 1482.55 149.191 1482.55 Q152.825 1482.55 154.631 1479.01 Q156.459 1475.44 156.459 1468.33 Q156.459 1461.2 154.631 1457.66 Q152.825 1454.1 149.191 1454.1 M149.191 1450.39 Q155.001 1450.39 158.057 1455 Q161.135 1459.58 161.135 1468.33 Q161.135 1477.06 158.057 1481.67 Q155.001 1486.25 149.191 1486.25 Q143.381 1486.25 140.302 1481.67 Q137.246 1477.06 137.246 1468.33 Q137.246 1459.58 140.302 1455 Q143.381 1450.39 149.191 1450.39 Z" fill="#000000" fill-rule="nonzero" fill-opacity="1" /><path clip-path="url(#clip000)" d="M694.735 1481.64 L711.054 1481.64 L711.054 1485.58 L689.11 1485.58 L689.11 1481.64 Q691.772 1478.89 696.355 1474.26 Q700.962 1469.61 702.142 1468.27 Q704.388 1465.74 705.267 1464.01 Q706.17 1462.25 706.17 1460.56 Q706.17 1457.8 704.226 1456.07 Q702.304 1454.33 699.203 1454.33 Q697.003 1454.33 694.55 1455.09 Q692.119 1455.86 689.341 1457.41 L689.341 1452.69 Q692.166 1451.55 694.619 1450.97 Q697.073 1450.39 699.11 1450.39 Q704.48 1450.39 707.675 1453.08 Q710.869 1455.77 710.869 1460.26 Q710.869 1462.39 710.059 1464.31 Q709.272 1466.2 707.165 1468.8 Q706.587 1469.47 703.485 1472.69 Q700.383 1475.88 694.735 1481.64 Z" fill="#000000" fill-rule="nonzero" fill-opacity="1" /><path clip-path="url(#clip000)" d="M1253.98 1455.09 L1242.18 1473.54 L1253.98 1473.54 L1253.98 1455.09 M1252.76 1451.02 L1258.64 1451.02 L1258.64 1473.54 L1263.57 1473.54 L1263.57 1477.43 L1258.64 1477.43 L1258.64 1485.58 L1253.98 1485.58 L1253.98 1477.43 L1238.38 1477.43 L1238.38 1472.92 L1252.76 1451.02 Z" fill="#000000" fill-rule="nonzero" fill-opacity="1" /><path clip-path="url(#clip000)" d="M1802.27 1466.44 Q1799.12 1466.44 1797.27 1468.59 Q1795.44 1470.74 1795.44 1474.49 Q1795.44 1478.22 1797.27 1480.39 Q1799.12 1482.55 1802.27 1482.55 Q1805.42 1482.55 1807.25 1480.39 Q1809.1 1478.22 1809.1 1474.49 Q1809.1 1470.74 1807.25 1468.59 Q1805.42 1466.44 1802.27 1466.44 M1811.55 1451.78 L1811.55 1456.04 Q1809.79 1455.21 1807.99 1454.77 Q1806.2 1454.33 1804.45 1454.33 Q1799.82 1454.33 1797.36 1457.45 Q1794.93 1460.58 1794.58 1466.9 Q1795.95 1464.89 1798.01 1463.82 Q1800.07 1462.73 1802.55 1462.73 Q1807.76 1462.73 1810.77 1465.9 Q1813.8 1469.05 1813.8 1474.49 Q1813.8 1479.82 1810.65 1483.03 Q1807.5 1486.25 1802.27 1486.25 Q1796.27 1486.25 1793.1 1481.67 Q1789.93 1477.06 1789.93 1468.33 Q1789.93 1460.14 1793.82 1455.28 Q1797.71 1450.39 1804.26 1450.39 Q1806.02 1450.39 1807.8 1450.74 Q1809.61 1451.09 1811.55 1451.78 Z" fill="#000000" fill-rule="nonzero" fill-opacity="1" /><path clip-path="url(#clip000)" d="M2352.76 1469.17 Q2349.42 1469.17 2347.5 1470.95 Q2345.6 1472.73 2345.6 1475.86 Q2345.6 1478.98 2347.5 1480.77 Q2349.42 1482.55 2352.76 1482.55 Q2356.09 1482.55 2358.01 1480.77 Q2359.93 1478.96 2359.93 1475.86 Q2359.93 1472.73 2358.01 1470.95 Q2356.11 1469.17 2352.76 1469.17 M2348.08 1467.18 Q2345.07 1466.44 2343.38 1464.38 Q2341.71 1462.32 2341.71 1459.35 Q2341.71 1455.21 2344.65 1452.8 Q2347.62 1450.39 2352.76 1450.39 Q2357.92 1450.39 2360.86 1452.8 Q2363.8 1455.21 2363.8 1459.35 Q2363.8 1462.32 2362.11 1464.38 Q2360.44 1466.44 2357.45 1467.18 Q2360.83 1467.96 2362.71 1470.26 Q2364.61 1472.55 2364.61 1475.86 Q2364.61 1480.88 2361.53 1483.57 Q2358.47 1486.25 2352.76 1486.25 Q2347.04 1486.25 2343.96 1483.57 Q2340.9 1480.88 2340.9 1475.86 Q2340.9 1472.55 2342.8 1470.26 Q2344.7 1467.96 2348.08 1467.18 M2346.37 1459.79 Q2346.37 1462.48 2348.03 1463.98 Q2349.72 1465.49 2352.76 1465.49 Q2355.77 1465.49 2357.45 1463.98 Q2359.17 1462.48 2359.17 1459.79 Q2359.17 1457.11 2357.45 1455.6 Q2355.77 1454.1 2352.76 1454.1 Q2349.72 1454.1 2348.03 1455.6 Q2346.37 1457.11 2346.37 1459.79 Z" fill="#000000" fill-rule="nonzero" fill-opacity="1" /><path clip-path="url(#clip000)" d="M1250.03 1522.27 L1250.03 1532.4 L1262.1 1532.4 L1262.1 1536.95 L1250.03 1536.95 L1250.03 1556.3 Q1250.03 1560.66 1251.21 1561.9 Q1252.42 1563.14 1256.08 1563.14 L1262.1 1563.14 L1262.1 1568.04 L1256.08 1568.04 Q1249.3 1568.04 1246.72 1565.53 Q1244.15 1562.98 1244.15 1556.3 L1244.15 1536.95 L1239.85 1536.95 L1239.85 1532.4 L1244.15 1532.4 L1244.15 1522.27 L1250.03 1522.27 Z" fill="#000000" fill-rule="nonzero" fill-opacity="1" /><polyline clip-path="url(#clip000)" style="stroke:#000000; stroke-linecap:round; stroke-linejoin:round; stroke-width:4; stroke-opacity:1; fill:none" points="149.191,1423.18 149.191,47.2441 "/>
<polyline clip-path="url(#clip000)" style="stroke:#000000; stroke-linecap:round; stroke-linejoin:round; stroke-width:4; stroke-opacity:1; fill:none" points="149.191,1423.18 168.089,1423.18 "/>
<polyline clip-path="url(#clip000)" style="stroke:#000000; stroke-linecap:round; stroke-linejoin:round; stroke-width:4; stroke-opacity:1; fill:none" points="149.191,1193.86 168.089,1193.86 "/>
<polyline clip-path="url(#clip000)" style="stroke:#000000; stroke-linecap:round; stroke-linejoin:round; stroke-width:4; stroke-opacity:1; fill:none" points="149.191,964.535 168.089,964.535 "/>
<polyline clip-path="url(#clip000)" style="stroke:#000000; stroke-linecap:round; stroke-linejoin:round; stroke-width:4; stroke-opacity:1; fill:none" points="149.191,735.212 168.089,735.212 "/>
<polyline clip-path="url(#clip000)" style="stroke:#000000; stroke-linecap:round; stroke-linejoin:round; stroke-width:4; stroke-opacity:1; fill:none" points="149.191,505.889 168.089,505.889 "/>
<polyline clip-path="url(#clip000)" style="stroke:#000000; stroke-linecap:round; stroke-linejoin:round; stroke-width:4; stroke-opacity:1; fill:none" points="149.191,276.567 168.089,276.567 "/>
<polyline clip-path="url(#clip000)" style="stroke:#000000; stroke-linecap:round; stroke-linejoin:round; stroke-width:4; stroke-opacity:1; fill:none" points="149.191,47.2441 168.089,47.2441 "/>
<path clip-path="url(#clip000)" d="M51.3162 1423.63 L80.992 1423.63 L80.992 1427.57 L51.3162 1427.57 L51.3162 1423.63 Z" fill="#000000" fill-rule="nonzero" fill-opacity="1" /><path clip-path="url(#clip000)" d="M101.663 1421.32 Q98.515 1421.32 96.6632 1423.47 Q94.8345 1425.62 94.8345 1429.37 Q94.8345 1433.1 96.6632 1435.27 Q98.515 1437.43 101.663 1437.43 Q104.811 1437.43 106.64 1435.27 Q108.492 1433.1 108.492 1429.37 Q108.492 1425.62 106.64 1423.47 Q104.811 1421.32 101.663 1421.32 M110.946 1406.66 L110.946 1410.92 Q109.186 1410.09 107.381 1409.65 Q105.598 1409.21 103.839 1409.21 Q99.2095 1409.21 96.7558 1412.33 Q94.3252 1415.46 93.978 1421.78 Q95.3437 1419.77 97.4039 1418.7 Q99.4641 1417.61 101.941 1417.61 Q107.149 1417.61 110.158 1420.78 Q113.191 1423.93 113.191 1429.37 Q113.191 1434.7 110.043 1437.91 Q106.895 1441.13 101.663 1441.13 Q95.6678 1441.13 92.4965 1436.55 Q89.3253 1431.94 89.3253 1423.21 Q89.3253 1415.02 93.2141 1410.16 Q97.103 1405.27 103.654 1405.27 Q105.413 1405.27 107.196 1405.62 Q109.001 1405.97 110.946 1406.66 Z" fill="#000000" fill-rule="nonzero" fill-opacity="1" /><path clip-path="url(#clip000)" d="M50.9921 1194.31 L80.6679 1194.31 L80.6679 1198.24 L50.9921 1198.24 L50.9921 1194.31 Z" fill="#000000" fill-rule="nonzero" fill-opacity="1" /><path clip-path="url(#clip000)" d="M103.608 1180.65 L91.8021 1199.1 L103.608 1199.1 L103.608 1180.65 M102.381 1176.58 L108.26 1176.58 L108.26 1199.1 L113.191 1199.1 L113.191 1202.99 L108.26 1202.99 L108.26 1211.14 L103.608 1211.14 L103.608 1202.99 L88.0058 1202.99 L88.0058 1198.48 L102.381 1176.58 Z" fill="#000000" fill-rule="nonzero" fill-opacity="1" /><path clip-path="url(#clip000)" d="M53.0754 964.986 L82.7512 964.986 L82.7512 968.921 L53.0754 968.921 L53.0754 964.986 Z" fill="#000000" fill-rule="nonzero" fill-opacity="1" /><path clip-path="url(#clip000)" d="M96.8715 977.879 L113.191 977.879 L113.191 981.815 L91.2465 981.815 L91.2465 977.879 Q93.9086 975.125 98.4919 970.495 Q103.098 965.842 104.279 964.5 Q106.524 961.977 107.404 960.241 Q108.307 958.481 108.307 956.792 Q108.307 954.037 106.362 952.301 Q104.441 950.565 101.339 950.565 Q99.14 950.565 96.6863 951.329 Q94.2558 952.093 91.478 953.643 L91.478 948.921 Q94.3021 947.787 96.7558 947.208 Q99.2095 946.63 101.246 946.63 Q106.617 946.63 109.811 949.315 Q113.006 952 113.006 956.491 Q113.006 958.62 112.196 960.542 Q111.408 962.44 109.302 965.032 Q108.723 965.704 105.621 968.921 Q102.52 972.116 96.8715 977.879 Z" fill="#000000" fill-rule="nonzero" fill-opacity="1" /><path clip-path="url(#clip000)" d="M101.246 721.011 Q97.6354 721.011 95.8067 724.575 Q94.0012 728.117 94.0012 735.247 Q94.0012 742.353 95.8067 745.918 Q97.6354 749.46 101.246 749.46 Q104.881 749.46 106.686 745.918 Q108.515 742.353 108.515 735.247 Q108.515 728.117 106.686 724.575 Q104.881 721.011 101.246 721.011 M101.246 717.307 Q107.057 717.307 110.112 721.913 Q113.191 726.497 113.191 735.247 Q113.191 743.973 110.112 748.58 Q107.057 753.163 101.246 753.163 Q95.4363 753.163 92.3576 748.58 Q89.3021 743.973 89.3021 735.247 Q89.3021 726.497 92.3576 721.913 Q95.4363 717.307 101.246 717.307 Z" fill="#000000" fill-rule="nonzero" fill-opacity="1" /><path clip-path="url(#clip000)" d="M96.8715 519.234 L113.191 519.234 L113.191 523.169 L91.2465 523.169 L91.2465 519.234 Q93.9086 516.48 98.4919 511.85 Q103.098 507.197 104.279 505.855 Q106.524 503.331 107.404 501.595 Q108.307 499.836 108.307 498.146 Q108.307 495.392 106.362 493.656 Q104.441 491.92 101.339 491.92 Q99.14 491.92 96.6863 492.683 Q94.2558 493.447 91.478 494.998 L91.478 490.276 Q94.3021 489.142 96.7558 488.563 Q99.2095 487.984 101.246 487.984 Q106.617 487.984 109.811 490.67 Q113.006 493.355 113.006 497.845 Q113.006 499.975 112.196 501.896 Q111.408 503.794 109.302 506.387 Q108.723 507.058 105.621 510.276 Q102.52 513.47 96.8715 519.234 Z" fill="#000000" fill-rule="nonzero" fill-opacity="1" /><path clip-path="url(#clip000)" d="M103.608 263.361 L91.8021 281.81 L103.608 281.81 L103.608 263.361 M102.381 259.287 L108.26 259.287 L108.26 281.81 L113.191 281.81 L113.191 285.699 L108.26 285.699 L108.26 293.847 L103.608 293.847 L103.608 285.699 L88.0058 285.699 L88.0058 281.185 L102.381 259.287 Z" fill="#000000" fill-rule="nonzero" fill-opacity="1" /><path clip-path="url(#clip000)" d="M101.663 45.3807 Q98.515 45.3807 96.6632 47.5334 Q94.8345 49.6862 94.8345 53.4362 Q94.8345 57.163 96.6632 59.3389 Q98.515 61.4917 101.663 61.4917 Q104.811 61.4917 106.64 59.3389 Q108.492 57.163 108.492 53.4362 Q108.492 49.6862 106.64 47.5334 Q104.811 45.3807 101.663 45.3807 M110.946 30.728 L110.946 34.9872 Q109.186 34.1539 107.381 33.7141 Q105.598 33.2743 103.839 33.2743 Q99.2095 33.2743 96.7558 36.3992 Q94.3252 39.5242 93.978 45.8436 Q95.3437 43.8298 97.4039 42.765 Q99.4641 41.677 101.941 41.677 Q107.149 41.677 110.158 44.8483 Q113.191 47.9964 113.191 53.4362 Q113.191 58.7602 110.043 61.9778 Q106.895 65.1954 101.663 65.1954 Q95.6678 65.1954 92.4965 60.6121 Q89.3253 56.0056 89.3253 47.2788 Q89.3253 39.0844 93.2141 34.2233 Q97.103 29.3391 103.654 29.3391 Q105.413 29.3391 107.196 29.6863 Q109.001 30.0335 110.946 30.728 Z" fill="#000000" fill-rule="nonzero" fill-opacity="1" /><polyline clip-path="url(#clip001)" style="stroke:#009af9; stroke-linecap:round; stroke-linejoin:round; stroke-width:12; stroke-opacity:1; fill:none" points="149.191,1193.86 151.945,1191.98 154.7,1187.6 157.454,1182.07 160.209,1176.09 162.963,1169.98 165.718,1163.84 168.472,1157.7 171.227,1151.56 173.981,1145.42 176.735,1139.28 179.49,1133.16 182.244,1127.06 184.999,1120.99 187.753,1114.95 190.508,1108.95 193.262,1102.99 196.017,1097.08 198.771,1091.21 201.526,1085.39 204.28,1079.62 207.034,1073.89 209.789,1068.2 212.543,1062.57 215.298,1056.98 218.052,1051.43 220.807,1045.92 223.561,1040.46 226.316,1035.04 229.07,1029.67 231.825,1024.33 234.579,1019.03 237.333,1013.77 240.088,1008.55 242.842,1003.38 245.597,998.233 248.351,993.13 251.106,988.063 253.86,983.034 256.615,978.042 259.369,973.086 262.124,968.166 264.878,963.282 267.632,958.434 270.387,953.621 273.141,948.844 275.896,944.101 278.65,939.393 281.405,934.719 284.159,930.079 286.914,925.473 289.668,920.901 292.423,916.362 295.177,911.856 297.932,907.383 300.686,902.943 303.44,898.535 306.195,894.159 308.949,889.815 311.704,885.503 314.458,881.222 317.213,876.973 319.967,872.754 322.722,868.566 325.476,864.409 328.231,860.281 330.985,856.184 333.739,852.116 336.494,848.078 339.248,844.069 342.003,840.089 344.757,836.138 347.512,832.216 350.266,828.322 353.021,824.455 355.775,820.617 358.53,816.806 361.284,813.023 364.038,809.267 366.793,805.538 369.547,801.835 372.302,798.159 375.056,794.51 377.811,790.886 380.565,787.289 383.32,783.717 386.074,780.171 388.829,776.65 391.583,773.154 394.337,769.683 397.092,766.237 399.846,762.815 402.601,759.417 405.355,756.044 408.11,752.695 410.864,749.369 413.619,746.067 416.373,742.788 419.128,739.532 421.882,736.3 424.636,733.09 427.391,729.903 430.145,726.738 432.9,723.596 435.654,720.476 438.409,717.378 441.163,714.302 443.918,711.247 446.672,708.214 449.427,705.202 452.181,702.211 454.936,699.241 457.69,696.292 460.444,693.364 463.199,690.457 465.953,687.569 468.708,684.702 471.462,681.856 474.217,679.029 476.971,676.221 479.726,673.434 482.48,670.666 485.235,667.917 487.989,665.188 490.743,662.478 493.498,659.786 496.252,657.114 499.007,654.46 501.761,651.825 504.516,649.208 507.27,646.609 510.025,644.029 512.779,641.466 515.534,638.922 518.288,636.395 521.042,633.886 523.797,631.395 526.551,628.92 529.306,626.463 532.06,624.024 534.815,621.601 537.569,619.195 540.324,616.806 543.078,614.434 545.833,612.078 548.587,609.739 551.341,607.416 554.096,605.109 556.85,602.818 559.605,600.543 562.359,598.284 565.114,596.042 567.868,593.814 570.623,591.602 573.377,589.406 576.132,587.225 578.886,585.059 581.641,582.909 584.395,580.773 587.149,578.653 589.904,576.547 592.658,574.456 595.413,572.38 598.167,570.318 600.922,568.271 603.676,566.238 606.431,564.219 609.185,562.214 611.94,560.224 614.694,558.247 617.448,556.285 620.203,554.336 622.957,552.401 625.712,550.479 628.466,548.571 631.221,546.677 633.975,544.795 636.73,542.927 639.484,541.072 642.239,539.231 644.993,537.402 647.747,535.586 650.502,533.783 653.256,531.992 656.011,530.214 658.765,528.449 661.52,526.696 664.274,524.956 667.029,523.228 669.783,521.512 672.538,519.808 675.292,518.117 678.046,516.437 680.801,514.769 683.555,513.113 686.31,511.469 689.064,509.836 691.819,508.215 694.573,506.606 697.328,505.008 700.082,503.421 702.837,501.845 705.591,500.281 708.345,498.728 711.1,497.186 713.854,495.655 716.609,494.135 719.363,492.626 722.118,491.127 724.872,489.64 727.627,488.162 730.381,486.696 733.136,485.24 735.89,483.794 738.645,482.359 741.399,480.934 744.153,479.519 746.908,478.114 749.662,476.72 752.417,475.335 755.171,473.96 757.926,472.596 760.68,471.241 763.435,469.895 766.189,468.56 768.944,467.234 771.698,465.918 774.452,464.611 777.207,463.313 779.961,462.025 782.716,460.747 785.47,459.477 788.225,458.217 790.979,456.966 793.734,455.723 796.488,454.49 799.243,453.266 801.997,452.051 804.751,450.844 807.506,449.646 810.26,448.457 813.015,447.277 815.769,446.105 818.524,444.942 821.278,443.787 824.033,442.64 826.787,441.502 829.542,440.372 832.296,439.251 835.05,438.137 837.805,437.032 840.559,435.935 843.314,434.846 846.068,433.764 848.823,432.691 851.577,431.625 854.332,430.567 857.086,429.517 859.841,428.475 862.595,427.44 865.349,426.413 868.104,425.394 870.858,424.382 873.613,423.377 876.367,422.379 879.122,421.389 881.876,420.407 884.631,419.431 887.385,418.463 890.14,417.501 892.894,416.547 895.649,415.6 898.403,414.66 901.157,413.727 903.912,412.8 906.666,411.881 909.421,410.968 912.175,410.062 914.93,409.162 917.684,408.269 920.439,407.383 923.193,406.504 925.948,405.63 928.702,404.764 931.456,403.903 934.211,403.05 936.965,402.202 939.72,401.361 942.474,400.525 945.229,399.697 947.983,398.874 950.738,398.057 953.492,397.246 956.247,396.442 959.001,395.643 961.755,394.85 964.51,394.063 967.264,393.282 970.019,392.507 972.773,391.737 975.528,390.974 978.282,390.216 981.037,389.463 983.791,388.716 986.546,387.975 989.3,387.239 992.054,386.508 994.809,385.783 997.563,385.064 1000.32,384.35 1003.07,383.641 1005.83,382.937 1008.58,382.238 1011.34,381.545 1014.09,380.857 1016.84,380.174 1019.6,379.496 1022.35,378.823 1025.11,378.156 1027.86,377.493 1030.62,376.835 1033.37,376.182 1036.13,375.534 1038.88,374.89 1041.63,374.252 1044.39,373.618 1047.14,372.989 1049.9,372.364 1052.65,371.745 1055.41,371.129 1058.16,370.519 1060.92,369.913 1063.67,369.311 1066.42,368.714 1069.18,368.122 1071.93,367.533 1074.69,366.949 1077.44,366.37 1080.2,365.795 1082.95,365.224 1085.71,364.657 1088.46,364.095 1091.21,363.536 1093.97,362.982 1096.72,362.432 1099.48,361.886 1102.23,361.344 1104.99,360.806 1107.74,360.272 1110.5,359.742 1113.25,359.216 1116.01,358.694 1118.76,358.176 1121.51,357.661 1124.27,357.151 1127.02,356.644 1129.78,356.14 1132.53,355.641 1135.29,355.145 1138.04,354.653 1140.8,354.165 1143.55,353.68 1146.3,353.198 1149.06,352.721 1151.81,352.246 1154.57,351.776 1157.32,351.308 1160.08,350.844 1162.83,350.384 1165.59,349.927 1168.34,349.473 1171.09,349.023 1173.85,348.576 1176.6,348.132 1179.36,347.691 1182.11,347.254 1184.87,346.819 1187.62,346.389 1190.38,345.961 1193.13,345.536 1195.88,345.114 1198.64,344.696 1201.39,344.28 1204.15,343.868 1206.9,343.458 1209.66,343.051 1212.41,342.648 1215.17,342.247 1217.92,341.85 1220.67,341.455 1223.43,341.063 1226.18,340.674 1228.94,340.287 1231.69,339.904 1234.45,339.523 1237.2,339.145 1239.96,338.769 1242.71,338.397 1245.46,338.027 1248.22,337.66 1250.97,337.295 1253.73,336.933 1256.48,336.573 1259.24,336.217 1261.99,335.862 1264.75,335.51 1267.5,335.161 1270.25,334.814 1273.01,334.47 1275.76,334.128 1278.52,333.788 1281.27,333.451 1284.03,333.117 1286.78,332.784 1289.54,332.454 1292.29,332.126 1295.04,331.801 1297.8,331.478 1300.55,331.157 1303.31,330.839 1306.06,330.522 1308.82,330.208 1311.57,329.896 1314.33,329.586 1317.08,329.279 1319.83,328.973 1322.59,328.67 1325.34,328.369 1328.1,328.07 1330.85,327.773 1333.61,327.478 1336.36,327.185 1339.12,326.894 1341.87,326.605 1344.62,326.318 1347.38,326.033 1350.13,325.749 1352.89,325.468 1355.64,325.189 1358.4,324.912 1361.15,324.636 1363.91,324.363 1366.66,324.091 1369.41,323.821 1372.17,323.553 1374.92,323.287 1377.68,323.022 1380.43,322.76 1383.19,322.499 1385.94,322.239 1388.7,321.982 1391.45,321.726 1394.21,321.472 1396.96,321.219 1399.71,320.969 1402.47,320.72 1405.22,320.472 1407.98,320.226 1410.73,319.982 1413.49,319.739 1416.24,319.498 1419,319.259 1421.75,319.021 1424.5,318.784 1427.26,318.549 1430.01,318.316 1432.77,318.084 1435.52,317.853 1438.28,317.624 1441.03,317.397 1443.79,317.171 1446.54,316.946 1449.29,316.723 1452.05,316.501 1454.8,316.28 1457.56,316.061 1460.31,315.843 1463.07,315.627 1465.82,315.412 1468.58,315.198 1471.33,314.985 1474.08,314.774 1476.84,314.564 1479.59,314.356 1482.35,314.148 1485.1,313.942 1487.86,313.737 1490.61,313.533 1493.37,313.331 1496.12,313.13 1498.87,312.93 1501.63,312.731 1504.38,312.533 1507.14,312.337 1509.89,312.141 1512.65,311.947 1515.4,311.754 1518.16,311.562 1520.91,311.371 1523.66,311.181 1526.42,310.992 1529.17,310.804 1531.93,310.618 1534.68,310.432 1537.44,310.248 1540.19,310.064 1542.95,309.882 1545.7,309.7 1548.45,309.52 1551.21,309.34 1553.96,309.162 1556.72,308.984 1559.47,308.808 1562.23,308.632 1564.98,308.458 1567.74,308.284 1570.49,308.111 1573.24,307.939 1576,307.769 1578.75,307.599 1581.51,307.43 1584.26,307.261 1587.02,307.094 1589.77,306.928 1592.53,306.762 1595.28,306.597 1598.03,306.433 1600.79,306.271 1603.54,306.108 1606.3,305.947 1609.05,305.787 1611.81,305.627 1614.56,305.468 1617.32,305.31 1620.07,305.152 1622.82,304.996 1625.58,304.84 1628.33,304.685 1631.09,304.531 1633.84,304.377 1636.6,304.224 1639.35,304.072 1642.11,303.921 1644.86,303.77 1647.62,303.62 1650.37,303.471 1653.12,303.322 1655.88,303.174 1658.63,303.027 1661.39,302.88 1664.14,302.735 1666.9,302.589 1669.65,302.445 1672.41,302.301 1675.16,302.157 1677.91,302.015 1680.67,301.873 1683.42,301.731 1686.18,301.59 1688.93,301.45 1691.69,301.31 1694.44,301.171 1697.2,301.033 1699.95,300.895 1702.7,300.758 1705.46,300.621 1708.21,300.485 1710.97,300.349 1713.72,300.214 1716.48,300.079 1719.23,299.945 1721.99,299.812 1724.74,299.679 1727.49,299.546 1730.25,299.415 1733,299.283 1735.76,299.152 1738.51,299.022 1741.27,298.892 1744.02,298.762 1746.78,298.633 1749.53,298.505 1752.28,298.377 1755.04,298.249 1757.79,298.122 1760.55,297.996 1763.3,297.869 1766.06,297.744 1768.81,297.618 1771.57,297.493 1774.32,297.369 1777.07,297.245 1779.83,297.121 1782.58,296.998 1785.34,296.875 1788.09,296.753 1790.85,296.631 1793.6,296.509 1796.36,296.388 1799.11,296.267 1801.86,296.147 1804.62,296.027 1807.37,295.907 1810.13,295.788 1812.88,295.669 1815.64,295.55 1818.39,295.432 1821.15,295.314 1823.9,295.196 1826.65,295.079 1829.41,294.962 1832.16,294.845 1834.92,294.729 1837.67,294.613 1840.43,294.498 1843.18,294.382 1845.94,294.267 1848.69,294.152 1851.44,294.038 1854.2,293.924 1856.95,293.81 1859.71,293.697 1862.46,293.583 1865.22,293.47 1867.97,293.358 1870.73,293.245 1873.48,293.133 1876.23,293.021 1878.99,292.91 1881.74,292.798 1884.5,292.687 1887.25,292.577 1890.01,292.466 1892.76,292.356 1895.52,292.246 1898.27,292.136 1901.03,292.026 1903.78,291.917 1906.53,291.808 1909.29,291.699 1912.04,291.59 1914.8,291.482 1917.55,291.373 1920.31,291.265 1923.06,291.158 1925.82,291.05 1928.57,290.943 1931.32,290.835 1934.08,290.728 1936.83,290.622 1939.59,290.515 1942.34,290.409 1945.1,290.303 1947.85,290.197 1950.61,290.091 1953.36,289.985 1956.11,289.88 1958.87,289.774 1961.62,289.669 1964.38,289.565 1967.13,289.46 1969.89,289.355 1972.64,289.251 1975.4,289.147 1978.15,289.043 1980.9,288.939 1983.66,288.835 1986.41,288.732 1989.17,288.628 1991.92,288.525 1994.68,288.422 1997.43,288.319 2000.19,288.216 2002.94,288.113 2005.69,288.011 2008.45,287.909 2011.2,287.806 2013.96,287.704 2016.71,287.602 2019.47,287.501 2022.22,287.399 2024.98,287.297 2027.73,287.196 2030.48,287.095 2033.24,286.994 2035.99,286.893 2038.75,286.792 2041.5,286.691 2044.26,286.59 2047.01,286.489 2049.77,286.389 2052.52,286.289 2055.27,286.188 2058.03,286.088 2060.78,285.988 2063.54,285.888 2066.29,285.788 2069.05,285.688 2071.8,285.589 2074.56,285.489 2077.31,285.39 2080.06,285.29 2082.82,285.191 2085.57,285.092 2088.33,284.993 2091.08,284.894 2093.84,284.795 2096.59,284.696 2099.35,284.597 2102.1,284.498 2104.85,284.4 2107.61,284.301 2110.36,284.203 2113.12,284.104 2115.87,284.006 2118.63,283.908 2121.38,283.81 2124.14,283.712 2126.89,283.614 2129.64,283.516 2132.4,283.418 2135.15,283.32 2137.91,283.222 2140.66,283.124 2143.42,283.027 2146.17,282.929 2148.93,282.832 2151.68,282.734 2154.44,282.637 2157.19,282.539 2159.94,282.442 2162.7,282.345 2165.45,282.248 2168.21,282.15 2170.96,282.053 2173.72,281.956 2176.47,281.859 2179.23,281.762 2181.98,281.665 2184.73,281.569 2187.49,281.472 2190.24,281.375 2193,281.278 2195.75,281.181 2198.51,281.085 2201.26,280.988 2204.02,280.892 2206.77,280.795 2209.52,280.699 2212.28,280.602 2215.03,280.506 2217.79,280.409 2220.54,280.313 2223.3,280.217 2226.05,280.12 2228.81,280.024 2231.56,279.928 2234.31,279.831 2237.07,279.735 2239.82,279.639 2242.58,279.543 2245.33,279.447 2248.09,279.351 2250.84,279.255 2253.6,279.159 2256.35,279.063 2259.1,278.967 2261.86,278.871 2264.61,278.775 2267.37,278.679 2270.12,278.583 2272.88,278.487 2275.63,278.391 2278.39,278.295 2281.14,278.2 2283.89,278.104 2286.65,278.008 2289.4,277.912 2292.16,277.817 2294.91,277.721 2297.67,277.625 2300.42,277.529 2303.18,277.434 2305.93,277.338 2308.68,277.242 2311.44,277.147 2314.19,277.051 2316.95,276.956 2319.7,276.86 2322.46,276.764 2325.21,276.669 2327.97,276.573 2330.72,276.478 2333.47,276.382 2336.23,276.287 2338.98,276.191 2341.74,276.096 2344.49,276 2347.25,275.905 2350,275.809 2352.76,275.714 "/>
<polyline clip-path="url(#clip001)" style="stroke:#e26f46; stroke-linecap:round; stroke-linejoin:round; stroke-width:12; stroke-opacity:1; fill:none" points="149.191,735.212 151.945,393.899 154.7,223.437 157.454,152.04 160.209,127.945 162.963,121.916 165.718,121.041 168.472,120.999 171.227,121.045 173.981,121.387 176.735,122.336 179.49,124.031 182.244,126.477 184.999,129.584 187.753,133.225 190.508,137.265 193.262,141.59 196.017,146.102 198.771,150.718 201.526,155.377 204.28,160.041 207.034,164.682 209.789,169.277 212.543,173.808 215.298,178.266 218.052,182.646 220.807,186.95 223.561,191.185 226.316,195.352 229.07,199.454 231.825,203.496 234.579,207.482 237.333,211.416 240.088,215.303 242.842,219.145 245.597,222.947 248.351,226.711 251.106,230.44 253.86,234.136 256.615,237.8 259.369,241.435 262.124,245.04 264.878,248.617 267.632,252.167 270.387,255.69 273.141,259.188 275.896,262.661 278.65,266.108 281.405,269.531 284.159,272.93 286.914,276.305 289.668,279.655 292.423,282.981 295.177,286.282 297.932,289.558 300.686,292.81 303.44,296.037 306.195,299.24 308.949,302.418 311.704,305.571 314.458,308.7 317.213,311.805 319.967,314.886 322.722,317.942 325.476,320.974 328.231,323.982 330.985,326.966 333.739,329.926 336.494,332.862 339.248,335.775 342.003,338.664 344.757,341.53 347.512,344.373 350.266,347.193 353.021,349.99 355.775,352.765 358.53,355.517 361.284,358.247 364.038,360.954 366.793,363.641 369.547,366.305 372.302,368.948 375.056,371.57 377.811,374.171 380.565,376.751 383.32,379.311 386.074,381.85 388.829,384.37 391.583,386.869 394.337,389.348 397.092,391.808 399.846,394.249 402.601,396.67 405.355,399.073 408.11,401.457 410.864,403.822 413.619,406.168 416.373,408.497 419.128,410.807 421.882,413.1 424.636,415.375 427.391,417.633 430.145,419.873 432.9,422.096 435.654,424.302 438.409,426.492 441.163,428.665 443.918,430.822 446.672,432.962 449.427,435.086 452.181,437.195 454.936,439.288 457.69,441.365 460.444,443.427 463.199,445.473 465.953,447.505 468.708,449.521 471.462,451.523 474.217,453.51 476.971,455.483 479.726,457.441 482.48,459.384 485.235,461.314 487.989,463.23 490.743,465.132 493.498,467.02 496.252,468.895 499.007,470.756 501.761,472.604 504.516,474.439 507.27,476.26 510.025,478.069 512.779,479.865 515.534,481.648 518.288,483.418 521.042,485.177 523.797,486.922 526.551,488.656 529.306,490.377 532.06,492.087 534.815,493.784 537.569,495.47 540.324,497.144 543.078,498.806 545.833,500.457 548.587,502.096 551.341,503.724 554.096,505.341 556.85,506.947 559.605,508.542 562.359,510.126 565.114,511.699 567.868,513.261 570.623,514.812 573.377,516.354 576.132,517.884 578.886,519.404 581.641,520.914 584.395,522.413 587.149,523.903 589.904,525.382 592.658,526.852 595.413,528.311 598.167,529.761 600.922,531.201 603.676,532.631 606.431,534.051 609.185,535.462 611.94,536.864 614.694,538.256 617.448,539.639 620.203,541.012 622.957,542.377 625.712,543.732 628.466,545.078 631.221,546.416 633.975,547.744 636.73,549.063 639.484,550.374 642.239,551.676 644.993,552.969 647.747,554.254 650.502,555.53 653.256,556.798 656.011,558.057 658.765,559.308 661.52,560.551 664.274,561.785 667.029,563.012 669.783,564.23 672.538,565.44 675.292,566.642 678.046,567.836 680.801,569.022 683.555,570.201 686.31,571.371 689.064,572.534 691.819,573.689 694.573,574.837 697.328,575.977 700.082,577.109 702.837,578.234 705.591,579.352 708.345,580.462 711.1,581.564 713.854,582.66 716.609,583.748 719.363,584.829 722.118,585.903 724.872,586.969 727.627,588.029 730.381,589.082 733.136,590.127 735.89,591.166 738.645,592.198 741.399,593.222 744.153,594.241 746.908,595.252 749.662,596.256 752.417,597.254 755.171,598.246 757.926,599.23 760.68,600.208 763.435,601.18 766.189,602.145 768.944,603.104 771.698,604.056 774.452,605.002 777.207,605.941 779.961,606.874 782.716,607.801 785.47,608.722 788.225,609.637 790.979,610.545 793.734,611.447 796.488,612.343 799.243,613.233 801.997,614.118 804.751,614.996 807.506,615.868 810.26,616.734 813.015,617.595 815.769,618.449 818.524,619.298 821.278,620.141 824.033,620.978 826.787,621.81 829.542,622.636 832.296,623.456 835.05,624.271 837.805,625.08 840.559,625.884 843.314,626.682 846.068,627.475 848.823,628.262 851.577,629.044 854.332,629.82 857.086,630.591 859.841,631.357 862.595,632.118 865.349,632.873 868.104,633.623 870.858,634.368 873.613,635.108 876.367,635.842 879.122,636.572 881.876,637.296 884.631,638.016 887.385,638.73 890.14,639.44 892.894,640.144 895.649,640.844 898.403,641.539 901.157,642.229 903.912,642.914 906.666,643.594 909.421,644.27 912.175,644.94 914.93,645.606 917.684,646.268 920.439,646.924 923.193,647.576 925.948,648.224 928.702,648.866 931.456,649.505 934.211,650.138 936.965,650.768 939.72,651.392 942.474,652.013 945.229,652.629 947.983,653.24 950.738,653.847 953.492,654.45 956.247,655.048 959.001,655.643 961.755,656.232 964.51,656.818 967.264,657.399 970.019,657.977 972.773,658.55 975.528,659.118 978.282,659.683 981.037,660.244 983.791,660.8 986.546,661.353 989.3,661.902 992.054,662.446 994.809,662.987 997.563,663.523 1000.32,664.056 1003.07,664.585 1005.83,665.11 1008.58,665.631 1011.34,666.148 1014.09,666.661 1016.84,667.171 1019.6,667.677 1022.35,668.179 1025.11,668.677 1027.86,669.172 1030.62,669.663 1033.37,670.15 1036.13,670.634 1038.88,671.114 1041.63,671.591 1044.39,672.064 1047.14,672.533 1049.9,672.999 1052.65,673.462 1055.41,673.921 1058.16,674.376 1060.92,674.828 1063.67,675.277 1066.42,675.722 1069.18,676.164 1071.93,676.603 1074.69,677.038 1077.44,677.47 1080.2,677.899 1082.95,678.324 1085.71,678.746 1088.46,679.165 1091.21,679.581 1093.97,679.994 1096.72,680.403 1099.48,680.81 1102.23,681.213 1104.99,681.613 1107.74,682.01 1110.5,682.404 1113.25,682.795 1116.01,683.183 1118.76,683.568 1121.51,683.95 1124.27,684.329 1127.02,684.705 1129.78,685.078 1132.53,685.448 1135.29,685.816 1138.04,686.18 1140.8,686.542 1143.55,686.901 1146.3,687.257 1149.06,687.61 1151.81,687.96 1154.57,688.308 1157.32,688.653 1160.08,688.995 1162.83,689.335 1165.59,689.672 1168.34,690.006 1171.09,690.338 1173.85,690.667 1176.6,690.993 1179.36,691.317 1182.11,691.638 1184.87,691.957 1187.62,692.273 1190.38,692.586 1193.13,692.897 1195.88,693.206 1198.64,693.512 1201.39,693.816 1204.15,694.117 1206.9,694.416 1209.66,694.712 1212.41,695.006 1215.17,695.298 1217.92,695.587 1220.67,695.874 1223.43,696.159 1226.18,696.441 1228.94,696.721 1231.69,696.999 1234.45,697.274 1237.2,697.548 1239.96,697.819 1242.71,698.087 1245.46,698.354 1248.22,698.618 1250.97,698.881 1253.73,699.141 1256.48,699.399 1259.24,699.654 1261.99,699.908 1264.75,700.16 1267.5,700.409 1270.25,700.657 1273.01,700.902 1275.76,701.146 1278.52,701.387 1281.27,701.627 1284.03,701.864 1286.78,702.099 1289.54,702.333 1292.29,702.564 1295.04,702.794 1297.8,703.021 1300.55,703.247 1303.31,703.471 1306.06,703.693 1308.82,703.913 1311.57,704.131 1314.33,704.348 1317.08,704.562 1319.83,704.775 1322.59,704.986 1325.34,705.195 1328.1,705.402 1330.85,705.608 1333.61,705.811 1336.36,706.013 1339.12,706.214 1341.87,706.412 1344.62,706.609 1347.38,706.804 1350.13,706.998 1352.89,707.19 1355.64,707.38 1358.4,707.569 1361.15,707.755 1363.91,707.941 1366.66,708.124 1369.41,708.307 1372.17,708.487 1374.92,708.666 1377.68,708.843 1380.43,709.019 1383.19,709.193 1385.94,709.366 1388.7,709.537 1391.45,709.707 1394.21,709.875 1396.96,710.042 1399.71,710.207 1402.47,710.371 1405.22,710.534 1407.98,710.694 1410.73,710.854 1413.49,711.012 1416.24,711.169 1419,711.324 1421.75,711.478 1424.5,711.63 1427.26,711.781 1430.01,711.931 1432.77,712.08 1435.52,712.227 1438.28,712.373 1441.03,712.517 1443.79,712.66 1446.54,712.802 1449.29,712.943 1452.05,713.082 1454.8,713.22 1457.56,713.357 1460.31,713.492 1463.07,713.627 1465.82,713.76 1468.58,713.892 1471.33,714.022 1474.08,714.152 1476.84,714.28 1479.59,714.407 1482.35,714.533 1485.1,714.658 1487.86,714.781 1490.61,714.904 1493.37,715.025 1496.12,715.145 1498.87,715.264 1501.63,715.382 1504.38,715.499 1507.14,715.615 1509.89,715.73 1512.65,715.843 1515.4,715.956 1518.16,716.067 1520.91,716.178 1523.66,716.287 1526.42,716.395 1529.17,716.503 1531.93,716.609 1534.68,716.714 1537.44,716.819 1540.19,716.922 1542.95,717.024 1545.7,717.126 1548.45,717.226 1551.21,717.326 1553.96,717.424 1556.72,717.522 1559.47,717.618 1562.23,717.714 1564.98,717.808 1567.74,717.902 1570.49,717.995 1573.24,718.087 1576,718.178 1578.75,718.268 1581.51,718.357 1584.26,718.446 1587.02,718.533 1589.77,718.62 1592.53,718.706 1595.28,718.791 1598.03,718.875 1600.79,718.958 1603.54,719.041 1606.3,719.122 1609.05,719.203 1611.81,719.283 1614.56,719.362 1617.32,719.44 1620.07,719.518 1622.82,719.595 1625.58,719.671 1628.33,719.746 1631.09,719.821 1633.84,719.894 1636.6,719.967 1639.35,720.04 1642.11,720.111 1644.86,720.182 1647.62,720.252 1650.37,720.321 1653.12,720.39 1655.88,720.458 1658.63,720.525 1661.39,720.591 1664.14,720.657 1666.9,720.722 1669.65,720.787 1672.41,720.85 1675.16,720.913 1677.91,720.976 1680.67,721.038 1683.42,721.099 1686.18,721.159 1688.93,721.219 1691.69,721.278 1694.44,721.337 1697.2,721.395 1699.95,721.452 1702.7,721.508 1705.46,721.564 1708.21,721.62 1710.97,721.675 1713.72,721.729 1716.48,721.783 1719.23,721.836 1721.99,721.888 1724.74,721.94 1727.49,721.991 1730.25,722.042 1733,722.092 1735.76,722.142 1738.51,722.191 1741.27,722.239 1744.02,722.287 1746.78,722.335 1749.53,722.382 1752.28,722.428 1755.04,722.474 1757.79,722.519 1760.55,722.564 1763.3,722.609 1766.06,722.652 1768.81,722.696 1771.57,722.738 1774.32,722.781 1777.07,722.823 1779.83,722.864 1782.58,722.905 1785.34,722.945 1788.09,722.985 1790.85,723.025 1793.6,723.064 1796.36,723.102 1799.11,723.14 1801.86,723.178 1804.62,723.215 1807.37,723.252 1810.13,723.288 1812.88,723.324 1815.64,723.359 1818.39,723.394 1821.15,723.429 1823.9,723.463 1826.65,723.497 1829.41,723.53 1832.16,723.563 1834.92,723.596 1837.67,723.628 1840.43,723.66 1843.18,723.691 1845.94,723.722 1848.69,723.753 1851.44,723.783 1854.2,723.813 1856.95,723.842 1859.71,723.871 1862.46,723.9 1865.22,723.929 1867.97,723.957 1870.73,723.984 1873.48,724.012 1876.23,724.039 1878.99,724.065 1881.74,724.091 1884.5,724.117 1887.25,724.143 1890.01,724.168 1892.76,724.193 1895.52,724.218 1898.27,724.242 1901.03,724.266 1903.78,724.29 1906.53,724.313 1909.29,724.336 1912.04,724.359 1914.8,724.382 1917.55,724.404 1920.31,724.426 1923.06,724.447 1925.82,724.469 1928.57,724.49 1931.32,724.51 1934.08,724.531 1936.83,724.551 1939.59,724.571 1942.34,724.59 1945.1,724.61 1947.85,724.629 1950.61,724.648 1953.36,724.666 1956.11,724.684 1958.87,724.703 1961.62,724.72 1964.38,724.738 1967.13,724.755 1969.89,724.772 1972.64,724.789 1975.4,724.805 1978.15,724.822 1980.9,724.838 1983.66,724.854 1986.41,724.869 1989.17,724.885 1991.92,724.9 1994.68,724.915 1997.43,724.929 2000.19,724.944 2002.94,724.958 2005.69,724.972 2008.45,724.986 2011.2,725 2013.96,725.013 2016.71,725.026 2019.47,725.039 2022.22,725.052 2024.98,725.065 2027.73,725.077 2030.48,725.089 2033.24,725.101 2035.99,725.113 2038.75,725.125 2041.5,725.136 2044.26,725.147 2047.01,725.158 2049.77,725.169 2052.52,725.18 2055.27,725.191 2058.03,725.201 2060.78,725.211 2063.54,725.221 2066.29,725.231 2069.05,725.241 2071.8,725.251 2074.56,725.26 2077.31,725.269 2080.06,725.278 2082.82,725.287 2085.57,725.296 2088.33,725.305 2091.08,725.313 2093.84,725.322 2096.59,725.33 2099.35,725.338 2102.1,725.346 2104.85,725.354 2107.61,725.361 2110.36,725.369 2113.12,725.376 2115.87,725.383 2118.63,725.39 2121.38,725.397 2124.14,725.404 2126.89,725.411 2129.64,725.417 2132.4,725.424 2135.15,725.43 2137.91,725.437 2140.66,725.443 2143.42,725.449 2146.17,725.454 2148.93,725.46 2151.68,725.466 2154.44,725.471 2157.19,725.477 2159.94,725.482 2162.7,725.487 2165.45,725.493 2168.21,725.498 2170.96,725.503 2173.72,725.507 2176.47,725.512 2179.23,725.517 2181.98,725.521 2184.73,725.526 2187.49,725.53 2190.24,725.534 2193,725.538 2195.75,725.543 2198.51,725.547 2201.26,725.55 2204.02,725.554 2206.77,725.558 2209.52,725.562 2212.28,725.565 2215.03,725.569 2217.79,725.572 2220.54,725.576 2223.3,725.579 2226.05,725.582 2228.81,725.585 2231.56,725.588 2234.31,725.591 2237.07,725.594 2239.82,725.597 2242.58,725.6 2245.33,725.602 2248.09,725.605 2250.84,725.608 2253.6,725.61 2256.35,725.613 2259.1,725.615 2261.86,725.617 2264.61,725.62 2267.37,725.622 2270.12,725.624 2272.88,725.626 2275.63,725.628 2278.39,725.63 2281.14,725.632 2283.89,725.634 2286.65,725.636 2289.4,725.638 2292.16,725.64 2294.91,725.641 2297.67,725.643 2300.42,725.645 2303.18,725.646 2305.93,725.648 2308.68,725.649 2311.44,725.651 2314.19,725.652 2316.95,725.653 2319.7,725.655 2322.46,725.656 2325.21,725.657 2327.97,725.659 2330.72,725.66 2333.47,725.661 2336.23,725.662 2338.98,725.663 2341.74,725.664 2344.49,725.665 2347.25,725.666 2350,725.667 2352.76,725.668 "/>
<polyline clip-path="url(#clip001)" style="stroke:#3da44d; stroke-linecap:round; stroke-linejoin:round; stroke-width:12; stroke-opacity:1; fill:none" points="149.191,-106.048 151.945,51.7377 154.7,209.799 157.454,357.086 160.209,485.618 162.963,591.925 165.718,676.38 168.472,741.596 171.227,790.985 173.981,827.877 176.735,855.143 179.49,875.097 182.244,889.542 184.999,899.855 187.753,907.076 190.508,911.987 193.262,915.177 196.017,917.092 198.771,918.067 201.526,918.359 204.28,918.162 207.034,917.625 209.789,916.862 212.543,915.957 215.298,914.975 218.052,913.963 220.807,912.954 223.561,911.971 226.316,911.03 229.07,910.139 231.825,909.302 234.579,908.52 237.333,907.792 240.088,907.115 242.842,906.485 245.597,905.896 248.351,905.343 251.106,904.823 253.86,904.33 256.615,903.86 259.369,903.408 262.124,902.972 264.878,902.547 267.632,902.132 270.387,901.723 273.141,901.32 275.896,900.919 278.65,900.521 281.405,900.123 284.159,899.725 286.914,899.325 289.668,898.925 292.423,898.523 295.177,898.119 297.932,897.713 300.686,897.305 303.44,896.895 306.195,896.483 308.949,896.07 311.704,895.654 314.458,895.237 317.213,894.819 319.967,894.4 322.722,893.98 325.476,893.559 328.231,893.138 330.985,892.716 333.739,892.295 336.494,891.874 339.248,891.453 342.003,891.032 344.757,890.612 347.512,890.193 350.266,889.775 353.021,889.358 355.775,888.942 358.53,888.528 361.284,888.115 364.038,887.703 366.793,887.293 369.547,886.884 372.302,886.477 375.056,886.072 377.811,885.669 380.565,885.268 383.32,884.868 386.074,884.47 388.829,884.074 391.583,883.68 394.337,883.288 397.092,882.898 399.846,882.51 402.601,882.124 405.355,881.741 408.11,881.358 410.864,880.978 413.619,880.6 416.373,880.224 419.128,879.85 421.882,879.478 424.636,879.108 427.391,878.74 430.145,878.374 432.9,878.01 435.654,877.647 438.409,877.287 441.163,876.928 443.918,876.572 446.672,876.217 449.427,875.864 452.181,875.513 454.936,875.163 457.69,874.816 460.444,874.47 463.199,874.126 465.953,873.784 468.708,873.443 471.462,873.104 474.217,872.767 476.971,872.432 479.726,872.098 482.48,871.766 485.235,871.435 487.989,871.106 490.743,870.779 493.498,870.453 496.252,870.129 499.007,869.806 501.761,869.485 504.516,869.165 507.27,868.847 510.025,868.53 512.779,868.214 515.534,867.9 518.288,867.587 521.042,867.276 523.797,866.966 526.551,866.658 529.306,866.351 532.06,866.045 534.815,865.74 537.569,865.437 540.324,865.135 543.078,864.834 545.833,864.534 548.587,864.236 551.341,863.939 554.096,863.643 556.85,863.348 559.605,863.054 562.359,862.762 565.114,862.47 567.868,862.18 570.623,861.89 573.377,861.602 576.132,861.315 578.886,861.029 581.641,860.744 584.395,860.46 587.149,860.177 589.904,859.895 592.658,859.613 595.413,859.333 598.167,859.054 600.922,858.776 603.676,858.498 606.431,858.222 609.185,857.946 611.94,857.671 614.694,857.397 617.448,857.124 620.203,856.852 622.957,856.581 625.712,856.31 628.466,856.04 631.221,855.771 633.975,855.503 636.73,855.236 639.484,854.969 642.239,854.703 644.993,854.438 647.747,854.173 650.502,853.909 653.256,853.646 656.011,853.384 658.765,853.122 661.52,852.861 664.274,852.601 667.029,852.341 669.783,852.082 672.538,851.823 675.292,851.565 678.046,851.308 680.801,851.051 683.555,850.795 686.31,850.54 689.064,850.285 691.819,850.03 694.573,849.776 697.328,849.523 700.082,849.27 702.837,849.018 705.591,848.766 708.345,848.515 711.1,848.264 713.854,848.014 716.609,847.765 719.363,847.515 722.118,847.267 724.872,847.019 727.627,846.771 730.381,846.523 733.136,846.277 735.89,846.03 738.645,845.784 741.399,845.539 744.153,845.293 746.908,845.049 749.662,844.805 752.417,844.561 755.171,844.317 757.926,844.074 760.68,843.832 763.435,843.589 766.189,843.347 768.944,843.106 771.698,842.865 774.452,842.624 777.207,842.384 779.961,842.144 782.716,841.904 785.47,841.665 788.225,841.426 790.979,841.187 793.734,840.949 796.488,840.711 799.243,840.474 801.997,840.237 804.751,840 807.506,839.763 810.26,839.527 813.015,839.291 815.769,839.055 818.524,838.82 821.278,838.585 824.033,838.351 826.787,838.116 829.542,837.882 832.296,837.648 835.05,837.415 837.805,837.182 840.559,836.949 843.314,836.717 846.068,836.484 848.823,836.252 851.577,836.021 854.332,835.789 857.086,835.558 859.841,835.327 862.595,835.097 865.349,834.867 868.104,834.637 870.858,834.407 873.613,834.177 876.367,833.948 879.122,833.72 881.876,833.491 884.631,833.262 887.385,833.034 890.14,832.807 892.894,832.579 895.649,832.352 898.403,832.125 901.157,831.898 903.912,831.671 906.666,831.445 909.421,831.219 912.175,830.994 914.93,830.768 917.684,830.543 920.439,830.318 923.193,830.093 925.948,829.869 928.702,829.645 931.456,829.421 934.211,829.197 936.965,828.974 939.72,828.751 942.474,828.528 945.229,828.305 947.983,828.083 950.738,827.861 953.492,827.639 956.247,827.417 959.001,827.196 961.755,826.975 964.51,826.754 967.264,826.533 970.019,826.313 972.773,826.093 975.528,825.873 978.282,825.654 981.037,825.434 983.791,825.215 986.546,824.996 989.3,824.778 992.054,824.56 994.809,824.342 997.563,824.124 1000.32,823.906 1003.07,823.689 1005.83,823.472 1008.58,823.255 1011.34,823.039 1014.09,822.823 1016.84,822.607 1019.6,822.391 1022.35,822.175 1025.11,821.96 1027.86,821.745 1030.62,821.531 1033.37,821.316 1036.13,821.102 1038.88,820.888 1041.63,820.675 1044.39,820.461 1047.14,820.248 1049.9,820.035 1052.65,819.823 1055.41,819.61 1058.16,819.398 1060.92,819.186 1063.67,818.975 1066.42,818.764 1069.18,818.553 1071.93,818.342 1074.69,818.131 1077.44,817.921 1080.2,817.711 1082.95,817.502 1085.71,817.292 1088.46,817.083 1091.21,816.874 1093.97,816.666 1096.72,816.458 1099.48,816.249 1102.23,816.042 1104.99,815.834 1107.74,815.627 1110.5,815.42 1113.25,815.213 1116.01,815.007 1118.76,814.801 1121.51,814.595 1124.27,814.389 1127.02,814.184 1129.78,813.979 1132.53,813.774 1135.29,813.57 1138.04,813.366 1140.8,813.162 1143.55,812.958 1146.3,812.755 1149.06,812.552 1151.81,812.349 1154.57,812.146 1157.32,811.944 1160.08,811.742 1162.83,811.54 1165.59,811.339 1168.34,811.138 1171.09,810.937 1173.85,810.736 1176.6,810.536 1179.36,810.336 1182.11,810.136 1184.87,809.937 1187.62,809.738 1190.38,809.539 1193.13,809.34 1195.88,809.142 1198.64,808.944 1201.39,808.746 1204.15,808.548 1206.9,808.351 1209.66,808.154 1212.41,807.958 1215.17,807.761 1217.92,807.565 1220.67,807.369 1223.43,807.174 1226.18,806.979 1228.94,806.784 1231.69,806.589 1234.45,806.395 1237.2,806.201 1239.96,806.007 1242.71,805.813 1245.46,805.62 1248.22,805.427 1250.97,805.234 1253.73,805.042 1256.48,804.85 1259.24,804.658 1261.99,804.467 1264.75,804.275 1267.5,804.084 1270.25,803.894 1273.01,803.703 1275.76,803.513 1278.52,803.323 1281.27,803.134 1284.03,802.945 1286.78,802.756 1289.54,802.567 1292.29,802.378 1295.04,802.19 1297.8,802.002 1300.55,801.815 1303.31,801.628 1306.06,801.441 1308.82,801.254 1311.57,801.067 1314.33,800.881 1317.08,800.695 1319.83,800.51 1322.59,800.324 1325.34,800.139 1328.1,799.954 1330.85,799.77 1333.61,799.586 1336.36,799.402 1339.12,799.218 1341.87,799.035 1344.62,798.852 1347.38,798.669 1350.13,798.486 1352.89,798.304 1355.64,798.122 1358.4,797.94 1361.15,797.759 1363.91,797.577 1366.66,797.397 1369.41,797.216 1372.17,797.036 1374.92,796.856 1377.68,796.676 1380.43,796.496 1383.19,796.317 1385.94,796.138 1388.7,795.959 1391.45,795.781 1394.21,795.602 1396.96,795.425 1399.71,795.247 1402.47,795.07 1405.22,794.892 1407.98,794.716 1410.73,794.539 1413.49,794.363 1416.24,794.187 1419,794.011 1421.75,793.835 1424.5,793.66 1427.26,793.485 1430.01,793.31 1432.77,793.136 1435.52,792.961 1438.28,792.788 1441.03,792.614 1443.79,792.44 1446.54,792.267 1449.29,792.094 1452.05,791.922 1454.8,791.749 1457.56,791.577 1460.31,791.405 1463.07,791.234 1465.82,791.062 1468.58,790.891 1471.33,790.72 1474.08,790.55 1476.84,790.379 1479.59,790.209 1482.35,790.039 1485.1,789.87 1487.86,789.7 1490.61,789.531 1493.37,789.362 1496.12,789.194 1498.87,789.025 1501.63,788.857 1504.38,788.689 1507.14,788.522 1509.89,788.354 1512.65,788.187 1515.4,788.02 1518.16,787.854 1520.91,787.687 1523.66,787.521 1526.42,787.355 1529.17,787.189 1531.93,787.024 1534.68,786.859 1537.44,786.694 1540.19,786.529 1542.95,786.365 1545.7,786.2 1548.45,786.036 1551.21,785.873 1553.96,785.709 1556.72,785.546 1559.47,785.383 1562.23,785.22 1564.98,785.057 1567.74,784.895 1570.49,784.733 1573.24,784.571 1576,784.409 1578.75,784.247 1581.51,784.086 1584.26,783.925 1587.02,783.764 1589.77,783.604 1592.53,783.443 1595.28,783.283 1598.03,783.123 1600.79,782.964 1603.54,782.804 1606.3,782.645 1609.05,782.486 1611.81,782.327 1614.56,782.169 1617.32,782.01 1620.07,781.852 1622.82,781.694 1625.58,781.536 1628.33,781.379 1631.09,781.222 1633.84,781.065 1636.6,780.908 1639.35,780.751 1642.11,780.595 1644.86,780.439 1647.62,780.283 1650.37,780.127 1653.12,779.971 1655.88,779.816 1658.63,779.661 1661.39,779.506 1664.14,779.351 1666.9,779.196 1669.65,779.042 1672.41,778.888 1675.16,778.734 1677.91,778.58 1680.67,778.427 1683.42,778.273 1686.18,778.12 1688.93,777.967 1691.69,777.815 1694.44,777.662 1697.2,777.51 1699.95,777.358 1702.7,777.206 1705.46,777.054 1708.21,776.902 1710.97,776.751 1713.72,776.6 1716.48,776.449 1719.23,776.298 1721.99,776.148 1724.74,775.997 1727.49,775.847 1730.25,775.697 1733,775.547 1735.76,775.398 1738.51,775.248 1741.27,775.099 1744.02,774.95 1746.78,774.801 1749.53,774.653 1752.28,774.504 1755.04,774.356 1757.79,774.208 1760.55,774.06 1763.3,773.912 1766.06,773.764 1768.81,773.617 1771.57,773.47 1774.32,773.323 1777.07,773.176 1779.83,773.029 1782.58,772.883 1785.34,772.737 1788.09,772.59 1790.85,772.444 1793.6,772.299 1796.36,772.153 1799.11,772.008 1801.86,771.863 1804.62,771.717 1807.37,771.573 1810.13,771.428 1812.88,771.283 1815.64,771.139 1818.39,770.995 1821.15,770.851 1823.9,770.707 1826.65,770.563 1829.41,770.42 1832.16,770.276 1834.92,770.133 1837.67,769.99 1840.43,769.847 1843.18,769.705 1845.94,769.562 1848.69,769.42 1851.44,769.278 1854.2,769.136 1856.95,768.994 1859.71,768.852 1862.46,768.711 1865.22,768.569 1867.97,768.428 1870.73,768.287 1873.48,768.146 1876.23,768.006 1878.99,767.865 1881.74,767.725 1884.5,767.584 1887.25,767.444 1890.01,767.304 1892.76,767.165 1895.52,767.025 1898.27,766.886 1901.03,766.746 1903.78,766.607 1906.53,766.468 1909.29,766.33 1912.04,766.191 1914.8,766.052 1917.55,765.914 1920.31,765.776 1923.06,765.638 1925.82,765.5 1928.57,765.362 1931.32,765.225 1934.08,765.087 1936.83,764.95 1939.59,764.813 1942.34,764.676 1945.1,764.539 1947.85,764.402 1950.61,764.266 1953.36,764.13 1956.11,763.993 1958.87,763.857 1961.62,763.721 1964.38,763.586 1967.13,763.45 1969.89,763.314 1972.64,763.179 1975.4,763.044 1978.15,762.909 1980.9,762.774 1983.66,762.639 1986.41,762.504 1989.17,762.37 1991.92,762.236 1994.68,762.101 1997.43,761.967 2000.19,761.833 2002.94,761.7 2005.69,761.566 2008.45,761.433 2011.2,761.299 2013.96,761.166 2016.71,761.033 2019.47,760.9 2022.22,760.767 2024.98,760.635 2027.73,760.502 2030.48,760.37 2033.24,760.237 2035.99,760.105 2038.75,759.973 2041.5,759.842 2044.26,759.71 2047.01,759.578 2049.77,759.447 2052.52,759.316 2055.27,759.184 2058.03,759.053 2060.78,758.923 2063.54,758.792 2066.29,758.661 2069.05,758.531 2071.8,758.4 2074.56,758.27 2077.31,758.14 2080.06,758.01 2082.82,757.88 2085.57,757.751 2088.33,757.621 2091.08,757.492 2093.84,757.362 2096.59,757.233 2099.35,757.104 2102.1,756.975 2104.85,756.846 2107.61,756.718 2110.36,756.589 2113.12,756.461 2115.87,756.332 2118.63,756.204 2121.38,756.076 2124.14,755.948 2126.89,755.821 2129.64,755.693 2132.4,755.566 2135.15,755.438 2137.91,755.311 2140.66,755.184 2143.42,755.057 2146.17,754.93 2148.93,754.803 2151.68,754.676 2154.44,754.55 2157.19,754.424 2159.94,754.297 2162.7,754.171 2165.45,754.045 2168.21,753.919 2170.96,753.793 2173.72,753.668 2176.47,753.542 2179.23,753.417 2181.98,753.292 2184.73,753.167 2187.49,753.042 2190.24,752.917 2193,752.792 2195.75,752.667 2198.51,752.543 2201.26,752.418 2204.02,752.294 2206.77,752.17 2209.52,752.046 2212.28,751.922 2215.03,751.798 2217.79,751.674 2220.54,751.55 2223.3,751.427 2226.05,751.304 2228.81,751.18 2231.56,751.057 2234.31,750.934 2237.07,750.811 2239.82,750.688 2242.58,750.566 2245.33,750.443 2248.09,750.321 2250.84,750.199 2253.6,750.076 2256.35,749.954 2259.1,749.832 2261.86,749.711 2264.61,749.589 2267.37,749.467 2270.12,749.346 2272.88,749.224 2275.63,749.103 2278.39,748.982 2281.14,748.861 2283.89,748.74 2286.65,748.619 2289.4,748.498 2292.16,748.378 2294.91,748.257 2297.67,748.137 2300.42,748.017 2303.18,747.897 2305.93,747.777 2308.68,747.657 2311.44,747.537 2314.19,747.417 2316.95,747.298 2319.7,747.178 2322.46,747.059 2325.21,746.94 2327.97,746.82 2330.72,746.701 2333.47,746.582 2336.23,746.464 2338.98,746.345 2341.74,746.226 2344.49,746.108 2347.25,745.99 2350,745.871 2352.76,745.753 "/>
<path clip-path="url(#clip000)" d="M1969.85 1377.32 L2279.3 1377.32 L2279.3 1169.96 L1969.85 1169.96  Z" fill="#ffffff" fill-rule="evenodd" fill-opacity="1"/>
<polyline clip-path="url(#clip000)" style="stroke:#000000; stroke-linecap:round; stroke-linejoin:round; stroke-width:4; stroke-opacity:1; fill:none" points="1969.85,1377.32 2279.3,1377.32 2279.3,1169.96 1969.85,1169.96 1969.85,1377.32 "/>
<polyline clip-path="url(#clip000)" style="stroke:#009af9; stroke-linecap:round; stroke-linejoin:round; stroke-width:12; stroke-opacity:1; fill:none" points="1994.33,1221.8 2141.24,1221.8 "/>
<path clip-path="url(#clip000)" d="M2165.72 1228.84 L2165.72 1213.15 L2169.98 1213.15 L2169.98 1228.68 Q2169.98 1232.36 2171.42 1234.21 Q2172.85 1236.04 2175.72 1236.04 Q2179.17 1236.04 2181.16 1233.84 Q2183.18 1231.64 2183.18 1227.85 L2183.18 1213.15 L2187.44 1213.15 L2187.44 1239.08 L2183.18 1239.08 L2183.18 1235.09 Q2181.63 1237.45 2179.57 1238.61 Q2177.53 1239.75 2174.82 1239.75 Q2170.35 1239.75 2168.04 1236.97 Q2165.72 1234.19 2165.72 1228.84 M2176.44 1212.52 L2176.44 1212.52 Z" fill="#000000" fill-rule="nonzero" fill-opacity="1" /><path clip-path="url(#clip000)" d="M2195.82 1203.06 L2205.63 1203.06 L2205.63 1206.37 L2200.07 1206.37 L2200.07 1242.02 L2205.63 1242.02 L2205.63 1245.33 L2195.82 1245.33 L2195.82 1203.06 Z" fill="#000000" fill-rule="nonzero" fill-opacity="1" /><path clip-path="url(#clip000)" d="M2216.12 1235.14 L2223.76 1235.14 L2223.76 1208.77 L2215.44 1210.44 L2215.44 1206.18 L2223.71 1204.52 L2228.38 1204.52 L2228.38 1235.14 L2236.02 1235.14 L2236.02 1239.08 L2216.12 1239.08 L2216.12 1235.14 Z" fill="#000000" fill-rule="nonzero" fill-opacity="1" /><path clip-path="url(#clip000)" d="M2254.82 1203.06 L2254.82 1245.33 L2245 1245.33 L2245 1242.02 L2250.54 1242.02 L2250.54 1206.37 L2245 1206.37 L2245 1203.06 L2254.82 1203.06 Z" fill="#000000" fill-rule="nonzero" fill-opacity="1" /><polyline clip-path="url(#clip000)" style="stroke:#e26f46; stroke-linecap:round; stroke-linejoin:round; stroke-width:12; stroke-opacity:1; fill:none" points="1994.33,1273.64 2141.24,1273.64 "/>
<path clip-path="url(#clip000)" d="M2165.72 1280.68 L2165.72 1264.99 L2169.98 1264.99 L2169.98 1280.52 Q2169.98 1284.2 2171.42 1286.05 Q2172.85 1287.88 2175.72 1287.88 Q2179.17 1287.88 2181.16 1285.68 Q2183.18 1283.48 2183.18 1279.69 L2183.18 1264.99 L2187.44 1264.99 L2187.44 1290.92 L2183.18 1290.92 L2183.18 1286.93 Q2181.63 1289.29 2179.57 1290.45 Q2177.53 1291.59 2174.82 1291.59 Q2170.35 1291.59 2168.04 1288.81 Q2165.72 1286.03 2165.72 1280.68 M2176.44 1264.36 L2176.44 1264.36 Z" fill="#000000" fill-rule="nonzero" fill-opacity="1" /><path clip-path="url(#clip000)" d="M2195.82 1254.9 L2205.63 1254.9 L2205.63 1258.21 L2200.07 1258.21 L2200.07 1293.86 L2205.63 1293.86 L2205.63 1297.17 L2195.82 1297.17 L2195.82 1254.9 Z" fill="#000000" fill-rule="nonzero" fill-opacity="1" /><path clip-path="url(#clip000)" d="M2219.33 1286.98 L2235.65 1286.98 L2235.65 1290.92 L2213.71 1290.92 L2213.71 1286.98 Q2216.37 1284.23 2220.95 1279.6 Q2225.56 1274.94 2226.74 1273.6 Q2228.99 1271.08 2229.87 1269.34 Q2230.77 1267.58 2230.77 1265.89 Q2230.77 1263.14 2228.82 1261.4 Q2226.9 1259.67 2223.8 1259.67 Q2221.6 1259.67 2219.15 1260.43 Q2216.72 1261.19 2213.94 1262.74 L2213.94 1258.02 Q2216.76 1256.89 2219.22 1256.31 Q2221.67 1255.73 2223.71 1255.73 Q2229.08 1255.73 2232.27 1258.42 Q2235.47 1261.1 2235.47 1265.59 Q2235.47 1267.72 2234.66 1269.64 Q2233.87 1271.54 2231.76 1274.13 Q2231.19 1274.8 2228.08 1278.02 Q2224.98 1281.22 2219.33 1286.98 Z" fill="#000000" fill-rule="nonzero" fill-opacity="1" /><path clip-path="url(#clip000)" d="M2254.82 1254.9 L2254.82 1297.17 L2245 1297.17 L2245 1293.86 L2250.54 1293.86 L2250.54 1258.21 L2245 1258.21 L2245 1254.9 L2254.82 1254.9 Z" fill="#000000" fill-rule="nonzero" fill-opacity="1" /><polyline clip-path="url(#clip000)" style="stroke:#3da44d; stroke-linecap:round; stroke-linejoin:round; stroke-width:12; stroke-opacity:1; fill:none" points="1994.33,1325.48 2141.24,1325.48 "/>
<path clip-path="url(#clip000)" d="M2165.72 1332.52 L2165.72 1316.83 L2169.98 1316.83 L2169.98 1332.36 Q2169.98 1336.04 2171.42 1337.89 Q2172.85 1339.72 2175.72 1339.72 Q2179.17 1339.72 2181.16 1337.52 Q2183.18 1335.32 2183.18 1331.53 L2183.18 1316.83 L2187.44 1316.83 L2187.44 1342.76 L2183.18 1342.76 L2183.18 1338.77 Q2181.63 1341.13 2179.57 1342.29 Q2177.53 1343.43 2174.82 1343.43 Q2170.35 1343.43 2168.04 1340.65 Q2165.72 1337.87 2165.72 1332.52 M2176.44 1316.2 L2176.44 1316.2 Z" fill="#000000" fill-rule="nonzero" fill-opacity="1" /><path clip-path="url(#clip000)" d="M2206.44 1306.78 Q2203.34 1312.11 2201.83 1317.32 Q2200.33 1322.52 2200.33 1327.87 Q2200.33 1333.22 2201.83 1338.47 Q2203.36 1343.7 2206.44 1349.01 L2202.74 1349.01 Q2199.26 1343.57 2197.53 1338.31 Q2195.82 1333.06 2195.82 1327.87 Q2195.82 1322.71 2197.53 1317.48 Q2199.24 1312.25 2202.74 1306.78 L2206.44 1306.78 Z" fill="#000000" fill-rule="nonzero" fill-opacity="1" /><path clip-path="url(#clip000)" d="M2218.92 1309.47 L2218.92 1316.83 L2227.69 1316.83 L2227.69 1320.14 L2218.92 1320.14 L2218.92 1334.21 Q2218.92 1337.38 2219.77 1338.29 Q2220.65 1339.19 2223.32 1339.19 L2227.69 1339.19 L2227.69 1342.76 L2223.32 1342.76 Q2218.38 1342.76 2216.51 1340.93 Q2214.63 1339.07 2214.63 1334.21 L2214.63 1320.14 L2211.51 1320.14 L2211.51 1316.83 L2214.63 1316.83 L2214.63 1309.47 L2218.92 1309.47 Z" fill="#000000" fill-rule="nonzero" fill-opacity="1" /><path clip-path="url(#clip000)" d="M2232.62 1306.78 L2236.32 1306.78 Q2239.8 1312.25 2241.51 1317.48 Q2243.25 1322.71 2243.25 1327.87 Q2243.25 1333.06 2241.51 1338.31 Q2239.8 1343.57 2236.32 1349.01 L2232.62 1349.01 Q2235.7 1343.7 2237.2 1338.47 Q2238.73 1333.22 2238.73 1327.87 Q2238.73 1322.52 2237.2 1317.32 Q2235.7 1312.11 2232.62 1306.78 Z" fill="#000000" fill-rule="nonzero" fill-opacity="1" /></svg>
