<?xml version="1.0" encoding="utf-8"?>
<svg xmlns="http://www.w3.org/2000/svg" xmlns:xlink="http://www.w3.org/1999/xlink" width="600" height="400" viewBox="0 0 2400 1600">
<defs>
  <clipPath id="clip070">
    <rect x="0" y="0" width="2400" height="1600"/>
  </clipPath>
</defs>
<path clip-path="url(#clip070)" d="M0 1600 L2400 1600 L2400 0 L0 0  Z" fill="#ffffff" fill-rule="evenodd" fill-opacity="1"/>
<defs>
  <clipPath id="clip071">
    <rect x="480" y="0" width="1681" height="1600"/>
  </clipPath>
</defs>
<path clip-path="url(#clip070)" d="M149.191 1423.18 L2352.76 1423.18 L2352.76 47.2441 L149.191 47.2441  Z" fill="#ffffff" fill-rule="evenodd" fill-opacity="1"/>
<defs>
  <clipPath id="clip072">
    <rect x="149" y="47" width="2205" height="1377"/>
  </clipPath>
</defs>
<polyline clip-path="url(#clip072)" style="stroke:#000000; stroke-linecap:round; stroke-linejoin:round; stroke-width:2; stroke-opacity:0.1; fill:none" points="149.191,1423.18 149.191,47.2441 "/>
<polyline clip-path="url(#clip072)" style="stroke:#000000; stroke-linecap:round; stroke-linejoin:round; stroke-width:2; stroke-opacity:0.1; fill:none" points="700.082,1423.18 700.082,47.2441 "/>
<polyline clip-path="url(#clip072)" style="stroke:#000000; stroke-linecap:round; stroke-linejoin:round; stroke-width:2; stroke-opacity:0.1; fill:none" points="1250.97,1423.18 1250.97,47.2441 "/>
<polyline clip-path="url(#clip072)" style="stroke:#000000; stroke-linecap:round; stroke-linejoin:round; stroke-width:2; stroke-opacity:0.1; fill:none" points="1801.86,1423.18 1801.86,47.2441 "/>
<polyline clip-path="url(#clip072)" style="stroke:#000000; stroke-linecap:round; stroke-linejoin:round; stroke-width:2; stroke-opacity:0.1; fill:none" points="2352.76,1423.18 2352.76,47.2441 "/>
<polyline clip-path="url(#clip072)" style="stroke:#000000; stroke-linecap:round; stroke-linejoin:round; stroke-width:2; stroke-opacity:0.1; fill:none" points="149.191,1423.18 2352.76,1423.18 "/>
<polyline clip-path="url(#clip072)" style="stroke:#000000; stroke-linecap:round; stroke-linejoin:round; stroke-width:2; stroke-opacity:0.1; fill:none" points="149.191,1193.86 2352.76,1193.86 "/>
<polyline clip-path="url(#clip072)" style="stroke:#000000; stroke-linecap:round; stroke-linejoin:round; stroke-width:2; stroke-opacity:0.1; fill:none" points="149.191,964.535 2352.76,964.535 "/>
<polyline clip-path="url(#clip072)" style="stroke:#000000; stroke-linecap:round; stroke-linejoin:round; stroke-width:2; stroke-opacity:0.1; fill:none" points="149.191,735.212 2352.76,735.212 "/>
<polyline clip-path="url(#clip072)" style="stroke:#000000; stroke-linecap:round; stroke-linejoin:round; stroke-width:2; stroke-opacity:0.1; fill:none" points="149.191,505.889 2352.76,505.889 "/>
<polyline clip-path="url(#clip072)" style="stroke:#000000; stroke-linecap:round; stroke-linejoin:round; stroke-width:2; stroke-opacity:0.1; fill:none" points="149.191,276.567 2352.76,276.567 "/>
<polyline clip-path="url(#clip072)" style="stroke:#000000; stroke-linecap:round; stroke-linejoin:round; stroke-width:2; stroke-opacity:0.1; fill:none" points="149.191,47.2441 2352.76,47.2441 "/>
<polyline clip-path="url(#clip070)" style="stroke:#000000; stroke-linecap:round; stroke-linejoin:round; stroke-width:4; stroke-opacity:1; fill:none" points="149.191,1423.18 2352.76,1423.18 "/>
<polyline clip-path="url(#clip070)" style="stroke:#000000; stroke-linecap:round; stroke-linejoin:round; stroke-width:4; stroke-opacity:1; fill:none" points="149.191,1423.18 149.191,1404.28 "/>
<polyline clip-path="url(#clip070)" style="stroke:#000000; stroke-linecap:round; stroke-linejoin:round; stroke-width:4; stroke-opacity:1; fill:none" points="700.082,1423.18 700.082,1404.28 "/>
<polyline clip-path="url(#clip070)" style="stroke:#000000; stroke-linecap:round; stroke-linejoin:round; stroke-width:4; stroke-opacity:1; fill:none" points="1250.97,1423.18 1250.97,1404.28 "/>
<polyline clip-path="url(#clip070)" style="stroke:#000000; stroke-linecap:round; stroke-linejoin:round; stroke-width:4; stroke-opacity:1; fill:none" points="1801.86,1423.18 1801.86,1404.28 "/>
<polyline clip-path="url(#clip070)" style="stroke:#000000; stroke-linecap:round; stroke-linejoin:round; stroke-width:4; stroke-opacity:1; fill:none" points="2352.76,1423.18 2352.76,1404.28 "/>
<path clip-path="url(#clip070)" d="M149.191 1454.1 Q145.58 1454.1 143.751 1457.66 Q141.946 1461.2 141.946 1468.33 Q141.946 1475.44 143.751 1479.01 Q145.58 1482.55 149.191 1482.55 Q152.825 1482.55 154.631 1479.01 Q156.459 1475.44 156.459 1468.33 Q156.459 1461.2 154.631 1457.66 Q152.825 1454.1 149.191 1454.1 M149.191 1450.39 Q155.001 1450.39 158.057 1455 Q161.135 1459.58 161.135 1468.33 Q161.135 1477.06 158.057 1481.67 Q155.001 1486.25 149.191 1486.25 Q143.381 1486.25 140.302 1481.67 Q137.246 1477.06 137.246 1468.33 Q137.246 1459.58 140.302 1455 Q143.381 1450.39 149.191 1450.39 Z" fill="#000000" fill-rule="nonzero" fill-opacity="1" /><path clip-path="url(#clip070)" d="M694.735 1481.64 L711.054 1481.64 L711.054 1485.58 L689.11 1485.58 L689.11 1481.64 Q691.772 1478.89 696.355 1474.26 Q700.962 1469.61 702.142 1468.27 Q704.388 1465.74 705.267 1464.01 Q706.17 1462.25 706.17 1460.56 Q706.17 1457.8 704.226 1456.07 Q702.304 1454.33 699.203 1454.33 Q697.003 1454.33 694.55 1455.09 Q692.119 1455.86 689.341 1457.41 L689.341 1452.69 Q692.166 1451.55 694.619 1450.97 Q697.073 1450.39 699.11 1450.39 Q704.48 1450.39 707.675 1453.08 Q710.869 1455.77 710.869 1460.26 Q710.869 1462.39 710.059 1464.31 Q709.272 1466.2 707.165 1468.8 Q706.587 1469.47 703.485 1472.69 Q700.383 1475.88 694.735 1481.64 Z" fill="#000000" fill-rule="nonzero" fill-opacity="1" /><path clip-path="url(#clip070)" d="M1253.98 1455.09 L1242.18 1473.54 L1253.98 1473.54 L1253.98 1455.09 M1252.76 1451.02 L1258.64 1451.02 L1258.64 1473.54 L1263.57 1473.54 L1263.57 1477.43 L1258.64 1477.43 L1258.64 1485.58 L1253.98 1485.58 L1253.98 1477.43 L1238.38 1477.43 L1238.38 1472.92 L1252.76 1451.02 Z" fill="#000000" fill-rule="nonzero" fill-opacity="1" /><path clip-path="url(#clip070)" d="M1802.27 1466.44 Q1799.12 1466.44 1797.27 1468.59 Q1795.44 1470.74 1795.44 1474.49 Q1795.44 1478.22 1797.27 1480.39 Q1799.12 1482.55 1802.27 1482.55 Q1805.42 1482.55 1807.25 1480.39 Q1809.1 1478.22 1809.1 1474.49 Q1809.1 1470.74 1807.25 1468.59 Q1805.42 1466.44 1802.27 1466.44 M1811.55 1451.78 L1811.55 1456.04 Q1809.79 1455.21 1807.99 1454.77 Q1806.2 1454.33 1804.45 1454.33 Q1799.82 1454.33 1797.36 1457.45 Q1794.93 1460.58 1794.58 1466.9 Q1795.95 1464.89 1798.01 1463.82 Q1800.07 1462.73 1802.55 1462.73 Q1807.76 1462.73 1810.77 1465.9 Q1813.8 1469.05 1813.8 1474.49 Q1813.8 1479.82 1810.65 1483.03 Q1807.5 1486.25 1802.27 1486.25 Q1796.27 1486.25 1793.1 1481.67 Q1789.93 1477.06 1789.93 1468.33 Q1789.93 1460.14 1793.82 1455.28 Q1797.71 1450.39 1804.26 1450.39 Q1806.02 1450.39 1807.8 1450.74 Q1809.61 1451.09 1811.55 1451.78 Z" fill="#000000" fill-rule="nonzero" fill-opacity="1" /><path clip-path="url(#clip070)" d="M2352.76 1469.17 Q2349.42 1469.17 2347.5 1470.95 Q2345.6 1472.73 2345.6 1475.86 Q2345.6 1478.98 2347.5 1480.77 Q2349.42 1482.55 2352.76 1482.55 Q2356.09 1482.55 2358.01 1480.77 Q2359.93 1478.96 2359.93 1475.86 Q2359.93 1472.73 2358.01 1470.95 Q2356.11 1469.17 2352.76 1469.17 M2348.08 1467.18 Q2345.07 1466.44 2343.38 1464.38 Q2341.71 1462.32 2341.71 1459.35 Q2341.71 1455.21 2344.65 1452.8 Q2347.62 1450.39 2352.76 1450.39 Q2357.92 1450.39 2360.86 1452.8 Q2363.8 1455.21 2363.8 1459.35 Q2363.8 1462.32 2362.11 1464.38 Q2360.44 1466.44 2357.45 1467.18 Q2360.83 1467.96 2362.71 1470.26 Q2364.61 1472.55 2364.61 1475.86 Q2364.61 1480.88 2361.53 1483.57 Q2358.47 1486.25 2352.76 1486.25 Q2347.04 1486.25 2343.96 1483.57 Q2340.9 1480.88 2340.9 1475.86 Q2340.9 1472.55 2342.8 1470.26 Q2344.7 1467.96 2348.08 1467.18 M2346.37 1459.79 Q2346.37 1462.48 2348.03 1463.98 Q2349.72 1465.49 2352.76 1465.49 Q2355.77 1465.49 2357.45 1463.98 Q2359.17 1462.48 2359.17 1459.79 Q2359.17 1457.11 2357.45 1455.6 Q2355.77 1454.1 2352.76 1454.1 Q2349.72 1454.1 2348.03 1455.6 Q2346.37 1457.11 2346.37 1459.79 Z" fill="#000000" fill-rule="nonzero" fill-opacity="1" /><path clip-path="url(#clip070)" d="M1250.03 1522.27 L1250.03 1532.4 L1262.1 1532.4 L1262.1 1536.95 L1250.03 1536.95 L1250.03 1556.3 Q1250.03 1560.66 1251.21 1561.9 Q1252.42 1563.14 1256.08 1563.14 L1262.1 1563.14 L1262.1 1568.04 L1256.08 1568.04 Q1249.3 1568.04 1246.72 1565.53 Q1244.15 1562.98 1244.15 1556.3 L1244.15 1536.95 L1239.85 1536.95 L1239.85 1532.4 L1244.15 1532.4 L1244.15 1522.27 L1250.03 1522.27 Z" fill="#000000" fill-rule="nonzero" fill-opacity="1" /><polyline clip-path="url(#clip070)" style="stroke:#000000; stroke-linecap:round; stroke-linejoin:round; stroke-width:4; stroke-opacity:1; fill:none" points="149.191,1423.18 149.191,47.2441 "/>
<polyline clip-path="url(#clip070)" style="stroke:#000000; stroke-linecap:round; stroke-linejoin:round; stroke-width:4; stroke-opacity:1; fill:none" points="149.191,1423.18 168.089,1423.18 "/>
<polyline clip-path="url(#clip070)" style="stroke:#000000; stroke-linecap:round; stroke-linejoin:round; stroke-width:4; stroke-opacity:1; fill:none" points="149.191,1193.86 168.089,1193.86 "/>
<polyline clip-path="url(#clip070)" style="stroke:#000000; stroke-linecap:round; stroke-linejoin:round; stroke-width:4; stroke-opacity:1; fill:none" points="149.191,964.535 168.089,964.535 "/>
<polyline clip-path="url(#clip070)" style="stroke:#000000; stroke-linecap:round; stroke-linejoin:round; stroke-width:4; stroke-opacity:1; fill:none" points="149.191,735.212 168.089,735.212 "/>
<polyline clip-path="url(#clip070)" style="stroke:#000000; stroke-linecap:round; stroke-linejoin:round; stroke-width:4; stroke-opacity:1; fill:none" points="149.191,505.889 168.089,505.889 "/>
<polyline clip-path="url(#clip070)" style="stroke:#000000; stroke-linecap:round; stroke-linejoin:round; stroke-width:4; stroke-opacity:1; fill:none" points="149.191,276.567 168.089,276.567 "/>
<polyline clip-path="url(#clip070)" style="stroke:#000000; stroke-linecap:round; stroke-linejoin:round; stroke-width:4; stroke-opacity:1; fill:none" points="149.191,47.2441 168.089,47.2441 "/>
<path clip-path="url(#clip070)" d="M51.3162 1423.63 L80.992 1423.63 L80.992 1427.57 L51.3162 1427.57 L51.3162 1423.63 Z" fill="#000000" fill-rule="nonzero" fill-opacity="1" /><path clip-path="url(#clip070)" d="M101.663 1421.32 Q98.515 1421.32 96.6632 1423.47 Q94.8345 1425.62 94.8345 1429.37 Q94.8345 1433.1 96.6632 1435.27 Q98.515 1437.43 101.663 1437.43 Q104.811 1437.43 106.64 1435.27 Q108.492 1433.1 108.492 1429.37 Q108.492 1425.62 106.64 1423.47 Q104.811 1421.32 101.663 1421.32 M110.946 1406.66 L110.946 1410.92 Q109.186 1410.09 107.381 1409.65 Q105.598 1409.21 103.839 1409.21 Q99.2095 1409.21 96.7558 1412.33 Q94.3252 1415.46 93.978 1421.78 Q95.3437 1419.77 97.4039 1418.7 Q99.4641 1417.61 101.941 1417.61 Q107.149 1417.61 110.158 1420.78 Q113.191 1423.93 113.191 1429.37 Q113.191 1434.7 110.043 1437.91 Q106.895 1441.13 101.663 1441.13 Q95.6678 1441.13 92.4965 1436.55 Q89.3253 1431.94 89.3253 1423.21 Q89.3253 1415.02 93.2141 1410.16 Q97.103 1405.27 103.654 1405.27 Q105.413 1405.27 107.196 1405.62 Q109.001 1405.97 110.946 1406.66 Z" fill="#000000" fill-rule="nonzero" fill-opacity="1" /><path clip-path="url(#clip070)" d="M50.9921 1194.31 L80.6679 1194.31 L80.6679 1198.24 L50.9921 1198.24 L50.9921 1194.31 Z" fill="#000000" fill-rule="nonzero" fill-opacity="1" /><path clip-path="url(#clip070)" d="M103.608 1180.65 L91.8021 1199.1 L103.608 1199.1 L103.608 1180.65 M102.381 1176.58 L108.26 1176.58 L108.26 1199.1 L113.191 1199.1 L113.191 1202.99 L108.26 1202.99 L108.26 1211.14 L103.608 1211.14 L103.608 1202.99 L88.0058 1202.99 L88.0058 1198.48 L102.381 1176.58 Z" fill="#000000" fill-rule="nonzero" fill-opacity="1" /><path clip-path="url(#clip070)" d="M53.0754 964.986 L82.7512 964.986 L82.7512 968.921 L53.0754 968.921 L53.0754 964.986 Z" fill="#000000" fill-rule="nonzero" fill-opacity="1" /><path clip-path="url(#clip070)" d="M96.8715 977.879 L113.191 977.879 L113.191 981.815 L91.2465 981.815 L91.2465 977.879 Q93.9086 975.125 98.4919 970.495 Q103.098 965.842 104.279 964.5 Q106.524 961.977 107.404 960.241 Q108.307 958.481 108.307 956.792 Q108.307 954.037 106.362 952.301 Q104.441 950.565 101.339 950.565 Q99.14 950.565 96.6863 951.329 Q94.2558 952.093 91.478 953.643 L91.478 948.921 Q94.3021 947.787 96.7558 947.208 Q99.2095 946.63 101.246 946.63 Q106.617 946.63 109.811 949.315 Q113.006 952 113.006 956.491 Q113.006 958.62 112.196 960.542 Q111.408 962.44 109.302 965.032 Q108.723 965.704 105.621 968.921 Q102.52 972.116 96.8715 977.879 Z" fill="#000000" fill-rule="nonzero" fill-opacity="1" /><path clip-path="url(#clip070)" d="M101.246 721.011 Q97.6354 721.011 95.8067 724.575 Q94.0012 728.117 94.0012 735.247 Q94.0012 742.353 95.8067 745.918 Q97.6354 749.46 101.246 749.46 Q104.881 749.46 106.686 745.918 Q108.515 742.353 108.515 735.247 Q108.515 728.117 106.686 724.575 Q104.881 721.011 101.246 721.011 M101.246 717.307 Q107.057 717.307 110.112 721.913 Q113.191 726.497 113.191 735.247 Q113.191 743.973 110.112 748.58 Q107.057 753.163 101.246 753.163 Q95.4363 753.163 92.3576 748.58 Q89.3021 743.973 89.3021 735.247 Q89.3021 726.497 92.3576 721.913 Q95.4363 717.307 101.246 717.307 Z" fill="#000000" fill-rule="nonzero" fill-opacity="1" /><path clip-path="url(#clip070)" d="M96.8715 519.234 L113.191 519.234 L113.191 523.169 L91.2465 523.169 L91.2465 519.234 Q93.9086 516.48 98.4919 511.85 Q103.098 507.197 104.279 505.855 Q106.524 503.331 107.404 501.595 Q108.307 499.836 108.307 498.146 Q108.307 495.392 106.362 493.656 Q104.441 491.92 101.339 491.92 Q99.14 491.92 96.6863 492.683 Q94.2558 493.447 91.478 494.998 L91.478 490.276 Q94.3021 489.142 96.7558 488.563 Q99.2095 487.984 101.246 487.984 Q106.617 487.984 109.811 490.67 Q113.006 493.355 113.006 497.845 Q113.006 499.975 112.196 501.896 Q111.408 503.794 109.302 506.387 Q108.723 507.058 105.621 510.276 Q102.52 513.47 96.8715 519.234 Z" fill="#000000" fill-rule="nonzero" fill-opacity="1" /><path clip-path="url(#clip070)" d="M103.608 263.361 L91.8021 281.81 L103.608 281.81 L103.608 263.361 M102.381 259.287 L108.26 259.287 L108.26 281.81 L113.191 281.81 L113.191 285.699 L108.26 285.699 L108.26 293.847 L103.608 293.847 L103.608 285.699 L88.0058 285.699 L88.0058 281.185 L102.381 259.287 Z" fill="#000000" fill-rule="nonzero" fill-opacity="1" /><path clip-path="url(#clip070)" d="M101.663 45.3807 Q98.515 45.3807 96.6632 47.5334 Q94.8345 49.6862 94.8345 53.4362 Q94.8345 57.163 96.6632 59.3389 Q98.515 61.4917 101.663 61.4917 Q104.811 61.4917 106.64 59.3389 Q108.492 57.163 108.492 53.4362 Q108.492 49.6862 106.64 47.5334 Q104.811 45.3807 101.663 45.3807 M110.946 30.728 L110.946 34.9872 Q109.186 34.1539 107.381 33.7141 Q105.598 33.2743 103.839 33.2743 Q99.2095 33.2743 96.7558 36.3992 Q94.3252 39.5242 93.978 45.8436 Q95.3437 43.8298 97.4039 42.765 Q99.4641 41.677 101.941 41.677 Q107.149 41.677 110.158 44.8483 Q113.191 47.9964 113.191 53.4362 Q113.191 58.7602 110.043 61.9778 Q106.895 65.1954 101.663 65.1954 Q95.6678 65.1954 92.4965 60.6121 Q89.3253 56.0056 89.3253 47.2788 Q89.3253 39.0844 93.2141 34.2233 Q97.103 29.3391 103.654 29.3391 Q105.413 29.3391 107.196 29.6863 Q109.001 30.0335 110.946 30.728 Z" fill="#000000" fill-rule="nonzero" fill-opacity="1" /><polyline clip-path="url(#clip072)" style="stroke:#009af9; stroke-linecap:round; stroke-linejoin:round; stroke-width:12; stroke-opacity:1; fill:none" points="149.191,1193.86 151.945,1193.65 154.7,1193.06 157.454,1192.08 160.209,1190.74 162.963,1189.07 165.718,1187.08 168.472,1184.79 171.227,1182.22 173.981,1179.39 176.735,1176.32 179.49,1173.03 182.244,1169.55 184.999,1165.88 187.753,1162.04 190.508,1158.06 193.262,1153.95 196.017,1149.72 198.771,1145.39 201.526,1140.96 204.28,1136.46 207.034,1131.89 209.789,1127.27 212.543,1122.59 215.298,1117.88 218.052,1113.13 220.807,1108.36 223.561,1103.56 226.316,1098.75 229.07,1093.93 231.825,1089.09 234.579,1084.25 237.333,1079.4 240.088,1074.55 242.842,1069.7 245.597,1064.84 248.351,1059.99 251.106,1055.14 253.86,1050.28 256.615,1045.43 259.369,1040.57 262.124,1035.72 264.878,1030.86 267.632,1026.01 270.387,1021.15 273.141,1016.3 275.896,1011.45 278.65,1006.59 281.405,1001.74 284.159,996.891 286.914,992.044 289.668,987.199 292.423,982.358 295.177,977.522 297.932,972.69 300.686,967.865 303.44,963.046 306.195,958.234 308.949,953.432 311.704,948.638 314.458,943.855 317.213,939.084 319.967,934.324 322.722,929.577 325.476,924.844 328.231,920.126 330.985,915.423 333.739,910.736 336.494,906.067 339.248,901.415 342.003,896.783 344.757,892.169 347.512,887.577 350.266,883.004 353.021,878.454 355.775,873.925 358.53,869.42 361.284,864.937 364.038,860.478 366.793,856.044 369.547,851.634 372.302,847.249 375.056,842.89 377.811,838.557 380.565,834.25 383.32,829.97 386.074,825.717 388.829,821.492 391.583,817.294 394.337,813.123 397.092,808.981 399.846,804.868 402.601,800.783 405.355,796.726 408.11,792.698 410.864,788.7 413.619,784.73 416.373,780.789 419.128,776.878 421.882,772.996 424.636,769.143 427.391,765.319 430.145,761.525 432.9,757.76 435.654,754.025 438.409,750.319 441.163,746.642 443.918,742.994 446.672,739.376 449.427,735.787 452.181,732.227 454.936,728.696 457.69,725.194 460.444,721.721 463.199,718.277 465.953,714.862 468.708,711.475 471.462,708.117 474.217,704.787 476.971,701.486 479.726,698.213 482.48,694.967 485.235,691.75 487.989,688.56 490.743,685.397 493.498,682.262 496.252,679.153 499.007,676.072 501.761,673.017 504.516,669.989 507.27,666.988 510.025,664.013 512.779,661.064 515.534,658.141 518.288,655.243 521.042,652.371 523.797,649.525 526.551,646.703 529.306,643.907 532.06,641.136 534.815,638.389 537.569,635.666 540.324,632.968 543.078,630.294 545.833,627.643 548.587,625.016 551.341,622.413 554.096,619.833 556.85,617.276 559.605,614.742 562.359,612.23 565.114,609.741 567.868,607.274 570.623,604.83 573.377,602.407 576.132,600.006 578.886,597.626 581.641,595.267 584.395,592.93 587.149,590.613 589.904,588.317 592.658,586.042 595.413,583.787 598.167,581.552 600.922,579.337 603.676,577.141 606.431,574.965 609.185,572.809 611.94,570.672 614.694,568.553 617.448,566.454 620.203,564.373 622.957,562.31 625.712,560.266 628.466,558.24 631.221,556.232 633.975,554.241 636.73,552.268 639.484,550.312 642.239,548.374 644.993,546.452 647.747,544.548 650.502,542.66 653.256,540.788 656.011,538.933 658.765,537.094 661.52,535.271 664.274,533.464 667.029,531.673 669.783,529.897 672.538,528.137 675.292,526.391 678.046,524.661 680.801,522.946 683.555,521.245 686.31,519.559 689.064,517.888 691.819,516.23 694.573,514.587 697.328,512.958 700.082,511.343 702.837,509.741 705.591,508.153 708.345,506.579 711.1,505.017 713.854,503.469 716.609,501.934 719.363,500.411 722.118,498.902 724.872,497.405 727.627,495.92 730.381,494.447 733.136,492.987 735.89,491.539 738.645,490.103 741.399,488.679 744.153,487.266 746.908,485.865 749.662,484.476 752.417,483.097 755.171,481.73 757.926,480.375 760.68,479.03 763.435,477.696 766.189,476.372 768.944,475.06 771.698,473.758 774.452,472.466 777.207,471.185 779.961,469.914 782.716,468.653 785.47,467.402 788.225,466.161 790.979,464.93 793.734,463.708 796.488,462.497 799.243,461.294 801.997,460.101 804.751,458.918 807.506,457.743 810.26,456.578 813.015,455.421 815.769,454.274 818.524,453.135 821.278,452.005 824.033,450.884 826.787,449.772 829.542,448.668 832.296,447.572 835.05,446.484 837.805,445.405 840.559,444.334 843.314,443.271 846.068,442.216 848.823,441.169 851.577,440.13 854.332,439.098 857.086,438.074 859.841,437.058 862.595,436.049 865.349,435.048 868.104,434.054 870.858,433.067 873.613,432.087 876.367,431.115 879.122,430.15 881.876,429.192 884.631,428.24 887.385,427.296 890.14,426.359 892.894,425.428 895.649,424.504 898.403,423.587 901.157,422.676 903.912,421.771 906.666,420.873 909.421,419.982 912.175,419.097 914.93,418.218 917.684,417.345 920.439,416.478 923.193,415.618 925.948,414.763 928.702,413.914 931.456,413.072 934.211,412.235 936.965,411.404 939.72,410.579 942.474,409.759 945.229,408.946 947.983,408.137 950.738,407.335 953.492,406.538 956.247,405.746 959.001,404.96 961.755,404.179 964.51,403.403 967.264,402.633 970.019,401.868 972.773,401.108 975.528,400.353 978.282,399.604 981.037,398.859 983.791,398.119 986.546,397.384 989.3,396.655 992.054,395.93 994.809,395.209 997.563,394.494 1000.32,393.783 1003.07,393.077 1005.83,392.376 1008.58,391.679 1011.34,390.987 1014.09,390.299 1016.84,389.616 1019.6,388.937 1022.35,388.263 1025.11,387.593 1027.86,386.927 1030.62,386.266 1033.37,385.609 1036.13,384.956 1038.88,384.307 1041.63,383.663 1044.39,383.022 1047.14,382.386 1049.9,381.754 1052.65,381.126 1055.41,380.501 1058.16,379.881 1060.92,379.265 1063.67,378.652 1066.42,378.044 1069.18,377.439 1071.93,376.838 1074.69,376.241 1077.44,375.647 1080.2,375.057 1082.95,374.471 1085.71,373.889 1088.46,373.31 1091.21,372.735 1093.97,372.163 1096.72,371.595 1099.48,371.031 1102.23,370.47 1104.99,369.912 1107.74,369.358 1110.5,368.807 1113.25,368.26 1116.01,367.716 1118.76,367.176 1121.51,366.639 1124.27,366.105 1127.02,365.574 1129.78,365.047 1132.53,364.523 1135.29,364.002 1138.04,363.484 1140.8,362.97 1143.55,362.458 1146.3,361.95 1149.06,361.444 1151.81,360.942 1154.57,360.443 1157.32,359.947 1160.08,359.454 1162.83,358.964 1165.59,358.476 1168.34,357.992 1171.09,357.511 1173.85,357.032 1176.6,356.557 1179.36,356.084 1182.11,355.614 1184.87,355.147 1187.62,354.683 1190.38,354.221 1193.13,353.762 1195.88,353.306 1198.64,352.853 1201.39,352.403 1204.15,351.955 1206.9,351.509 1209.66,351.067 1212.41,350.627 1215.17,350.19 1217.92,349.755 1220.67,349.323 1223.43,348.893 1226.18,348.466 1228.94,348.041 1231.69,347.619 1234.45,347.2 1237.2,346.783 1239.96,346.368 1242.71,345.956 1245.46,345.546 1248.22,345.139 1250.97,344.734 1253.73,344.331 1256.48,343.931 1259.24,343.533 1261.99,343.138 1264.75,342.744 1267.5,342.353 1270.25,341.965 1273.01,341.578 1275.76,341.194 1278.52,340.812 1281.27,340.433 1284.03,340.055 1286.78,339.68 1289.54,339.307 1292.29,338.936 1295.04,338.567 1297.8,338.201 1300.55,337.836 1303.31,337.474 1306.06,337.114 1308.82,336.756 1311.57,336.4 1314.33,336.046 1317.08,335.694 1319.83,335.344 1322.59,334.996 1325.34,334.65 1328.1,334.306 1330.85,333.965 1333.61,333.625 1336.36,333.287 1339.12,332.951 1341.87,332.617 1344.62,332.285 1347.38,331.955 1350.13,331.627 1352.89,331.301 1355.64,330.976 1358.4,330.654 1361.15,330.333 1363.91,330.014 1366.66,329.698 1369.41,329.383 1372.17,329.069 1374.92,328.758 1377.68,328.449 1380.43,328.141 1383.19,327.835 1385.94,327.531 1388.7,327.229 1391.45,326.928 1394.21,326.629 1396.96,326.332 1399.71,326.037 1402.47,325.743 1405.22,325.451 1407.98,325.161 1410.73,324.872 1413.49,324.586 1416.24,324.3 1419,324.017 1421.75,323.735 1424.5,323.455 1427.26,323.176 1430.01,322.899 1432.77,322.624 1435.52,322.35 1438.28,322.078 1441.03,321.808 1443.79,321.539 1446.54,321.272 1449.29,321.006 1452.05,320.742 1454.8,320.479 1457.56,320.218 1460.31,319.959 1463.07,319.701 1465.82,319.444 1468.58,319.189 1471.33,318.936 1474.08,318.684 1476.84,318.434 1479.59,318.185 1482.35,317.937 1485.1,317.691 1487.86,317.447 1490.61,317.204 1493.37,316.962 1496.12,316.722 1498.87,316.483 1501.63,316.246 1504.38,316.01 1507.14,315.775 1509.89,315.542 1512.65,315.31 1515.4,315.08 1518.16,314.851 1520.91,314.624 1523.66,314.397 1526.42,314.173 1529.17,313.949 1531.93,313.727 1534.68,313.506 1537.44,313.287 1540.19,313.069 1542.95,312.852 1545.7,312.636 1548.45,312.422 1551.21,312.209 1553.96,311.998 1556.72,311.787 1559.47,311.578 1562.23,311.37 1564.98,311.164 1567.74,310.959 1570.49,310.755 1573.24,310.552 1576,310.35 1578.75,310.15 1581.51,309.951 1584.26,309.753 1587.02,309.557 1589.77,309.361 1592.53,309.167 1595.28,308.974 1598.03,308.783 1600.79,308.592 1603.54,308.403 1606.3,308.214 1609.05,308.027 1611.81,307.841 1614.56,307.657 1617.32,307.473 1620.07,307.291 1622.82,307.11 1625.58,306.93 1628.33,306.751 1631.09,306.573 1633.84,306.396 1636.6,306.22 1639.35,306.046 1642.11,305.873 1644.86,305.7 1647.62,305.529 1650.37,305.359 1653.12,305.19 1655.88,305.022 1658.63,304.855 1661.39,304.69 1664.14,304.525 1666.9,304.362 1669.65,304.199 1672.41,304.038 1675.16,303.877 1677.91,303.718 1680.67,303.56 1683.42,303.402 1686.18,303.246 1688.93,303.091 1691.69,302.937 1694.44,302.784 1697.2,302.632 1699.95,302.48 1702.7,302.33 1705.46,302.181 1708.21,302.033 1710.97,301.886 1713.72,301.74 1716.48,301.595 1719.23,301.451 1721.99,301.308 1724.74,301.166 1727.49,301.024 1730.25,300.884 1733,300.745 1735.76,300.607 1738.51,300.469 1741.27,300.333 1744.02,300.198 1746.78,300.063 1749.53,299.929 1752.28,299.797 1755.04,299.665 1757.79,299.534 1760.55,299.404 1763.3,299.276 1766.06,299.147 1768.81,299.02 1771.57,298.894 1774.32,298.769 1777.07,298.644 1779.83,298.521 1782.58,298.398 1785.34,298.277 1788.09,298.156 1790.85,298.036 1793.6,297.917 1796.36,297.798 1799.11,297.681 1801.86,297.565 1804.62,297.449 1807.37,297.334 1810.13,297.22 1812.88,297.107 1815.64,296.995 1818.39,296.884 1821.15,296.773 1823.9,296.664 1826.65,296.555 1829.41,296.447 1832.16,296.34 1834.92,296.233 1837.67,296.128 1840.43,296.023 1843.18,295.919 1845.94,295.816 1848.69,295.714 1851.44,295.612 1854.2,295.512 1856.95,295.412 1859.71,295.313 1862.46,295.214 1865.22,295.117 1867.97,295.02 1870.73,294.924 1873.48,294.829 1876.23,294.735 1878.99,294.641 1881.74,294.548 1884.5,294.456 1887.25,294.365 1890.01,294.275 1892.76,294.185 1895.52,294.096 1898.27,294.008 1901.03,293.92 1903.78,293.833 1906.53,293.747 1909.29,293.662 1912.04,293.577 1914.8,293.494 1917.55,293.41 1920.31,293.328 1923.06,293.246 1925.82,293.166 1928.57,293.085 1931.32,293.006 1934.08,292.927 1936.83,292.849 1939.59,292.772 1942.34,292.695 1945.1,292.619 1947.85,292.544 1950.61,292.47 1953.36,292.396 1956.11,292.323 1958.87,292.25 1961.62,292.178 1964.38,292.107 1967.13,292.037 1969.89,291.967 1972.64,291.898 1975.4,291.83 1978.15,291.762 1980.9,291.695 1983.66,291.629 1986.41,291.563 1989.17,291.498 1991.92,291.434 1994.68,291.37 1997.43,291.307 2000.19,291.245 2002.94,291.183 2005.69,291.122 2008.45,291.061 2011.2,291.002 2013.96,290.942 2016.71,290.884 2019.47,290.826 2022.22,290.769 2024.98,290.712 2027.73,290.656 2030.48,290.601 2033.24,290.546 2035.99,290.492 2038.75,290.439 2041.5,290.386 2044.26,290.333 2047.01,290.282 2049.77,290.231 2052.52,290.18 2055.27,290.131 2058.03,290.081 2060.78,290.033 2063.54,289.985 2066.29,289.937 2069.05,289.891 2071.8,289.844 2074.56,289.799 2077.31,289.754 2080.06,289.71 2082.82,289.666 2085.57,289.622 2088.33,289.58 2091.08,289.538 2093.84,289.496 2096.59,289.455 2099.35,289.415 2102.1,289.375 2104.85,289.336 2107.61,289.298 2110.36,289.26 2113.12,289.222 2115.87,289.185 2118.63,289.149 2121.38,289.113 2124.14,289.078 2126.89,289.043 2129.64,289.009 2132.4,288.976 2135.15,288.943 2137.91,288.91 2140.66,288.878 2143.42,288.847 2146.17,288.816 2148.93,288.786 2151.68,288.756 2154.44,288.727 2157.19,288.698 2159.94,288.67 2162.7,288.642 2165.45,288.615 2168.21,288.589 2170.96,288.563 2173.72,288.537 2176.47,288.512 2179.23,288.488 2181.98,288.464 2184.73,288.441 2187.49,288.418 2190.24,288.395 2193,288.373 2195.75,288.352 2198.51,288.331 2201.26,288.311 2204.02,288.291 2206.77,288.272 2209.52,288.253 2212.28,288.235 2215.03,288.217 2217.79,288.199 2220.54,288.183 2223.3,288.166 2226.05,288.151 2228.81,288.135 2231.56,288.12 2234.31,288.106 2237.07,288.092 2239.82,288.079 2242.58,288.066 2245.33,288.053 2248.09,288.041 2250.84,288.03 2253.6,288.019 2256.35,288.009 2259.1,287.999 2261.86,287.989 2264.61,287.98 2267.37,287.971 2270.12,287.963 2272.88,287.955 2275.63,287.948 2278.39,287.941 2281.14,287.935 2283.89,287.929 2286.65,287.924 2289.4,287.919 2292.16,287.915 2294.91,287.911 2297.67,287.907 2300.42,287.904 2303.18,287.901 2305.93,287.899 2308.68,287.898 2311.44,287.896 2314.19,287.895 2316.95,287.895 2319.7,287.895 2322.46,287.896 2325.21,287.897 2327.97,287.898 2330.72,287.9 2333.47,287.902 2336.23,287.905 2338.98,287.908 2341.74,287.911 2344.49,287.915 2347.25,287.92 2350,287.925 2352.76,287.93 "/>
<polyline clip-path="url(#clip072)" style="stroke:#e26f46; stroke-linecap:round; stroke-linejoin:round; stroke-width:12; stroke-opacity:1; fill:none" points="149.191,735.212 151.945,694.82 154.7,656.178 157.454,619.378 160.209,584.493 162.963,551.578 165.718,520.668 168.472,491.78 171.227,464.913 173.981,440.05 176.735,417.157 179.49,396.188 182.244,377.085 184.999,359.778 187.753,344.187 190.508,330.225 193.262,317.801 196.017,306.821 198.771,297.188 201.526,288.8 204.28,281.556 207.034,275.357 209.789,270.102 212.543,265.695 215.298,262.044 218.052,259.061 220.807,256.659 223.561,254.76 226.316,253.285 229.07,252.166 231.825,251.338 234.579,250.746 237.333,250.338 240.088,250.072 242.842,249.909 245.597,249.817 248.351,249.771 251.106,249.75 253.86,249.741 256.615,249.737 259.369,249.736 262.124,249.732 264.878,249.73 267.632,249.736 270.387,249.758 273.141,249.803 275.896,249.877 278.65,249.987 281.405,250.141 284.159,250.344 286.914,250.604 289.668,250.926 292.423,251.318 295.177,251.787 297.932,252.336 300.686,252.97 303.44,253.689 306.195,254.495 308.949,255.389 311.704,256.372 314.458,257.445 317.213,258.607 319.967,259.857 322.722,261.196 325.476,262.623 328.231,264.135 330.985,265.732 333.739,267.411 336.494,269.17 339.248,271.007 342.003,272.917 344.757,274.899 347.512,276.948 350.266,279.064 353.021,281.243 355.775,283.483 358.53,285.779 361.284,288.13 364.038,290.533 366.793,292.984 369.547,295.481 372.302,298.022 375.056,300.603 377.811,303.222 380.565,305.877 383.32,308.565 386.074,311.284 388.829,314.031 391.583,316.805 394.337,319.602 397.092,322.422 399.846,325.261 402.601,328.118 405.355,330.99 408.11,333.876 410.864,336.775 413.619,339.683 416.373,342.6 419.128,345.524 421.882,348.454 424.636,351.388 427.391,354.325 430.145,357.264 432.9,360.204 435.654,363.143 438.409,366.079 441.163,369.013 443.918,371.943 446.672,374.868 449.427,377.786 452.181,380.698 454.936,383.602 457.69,386.497 460.444,389.382 463.199,392.257 465.953,395.121 468.708,397.973 471.462,400.812 474.217,403.639 476.971,406.452 479.726,409.251 482.48,412.035 485.235,414.805 487.989,417.559 490.743,420.298 493.498,423.021 496.252,425.727 499.007,428.417 501.761,431.09 504.516,433.745 507.27,436.383 510.025,439.003 512.779,441.604 515.534,444.188 518.288,446.753 521.042,449.299 523.797,451.827 526.551,454.336 529.306,456.826 532.06,459.296 534.815,461.747 537.569,464.179 540.324,466.592 543.078,468.984 545.833,471.358 548.587,473.711 551.341,476.045 554.096,478.359 556.85,480.653 559.605,482.928 562.359,485.182 565.114,487.417 567.868,489.633 570.623,491.828 573.377,494.004 576.132,496.16 578.886,498.297 581.641,500.414 584.395,502.512 587.149,504.59 589.904,506.649 592.658,508.689 595.413,510.709 598.167,512.711 600.922,514.693 603.676,516.656 606.431,518.601 609.185,520.527 611.94,522.434 614.694,524.323 617.448,526.194 620.203,528.046 622.957,529.88 625.712,531.696 628.466,533.494 631.221,535.275 633.975,537.037 636.73,538.782 639.484,540.51 642.239,542.221 644.993,543.914 647.747,545.59 650.502,547.249 653.256,548.891 656.011,550.517 658.765,552.126 661.52,553.719 664.274,555.295 667.029,556.855 669.783,558.399 672.538,559.927 675.292,561.44 678.046,562.937 680.801,564.418 683.555,565.884 686.31,567.334 689.064,568.77 691.819,570.191 694.573,571.597 697.328,572.988 700.082,574.365 702.837,575.727 705.591,577.075 708.345,578.409 711.1,579.729 713.854,581.036 716.609,582.329 719.363,583.609 722.118,584.875 724.872,586.127 727.627,587.367 730.381,588.594 733.136,589.808 735.89,591.009 738.645,592.198 741.399,593.374 744.153,594.538 746.908,595.69 749.662,596.83 752.417,597.957 755.171,599.074 757.926,600.178 760.68,601.271 763.435,602.353 766.189,603.423 768.944,604.483 771.698,605.531 774.452,606.568 777.207,607.595 779.961,608.611 782.716,609.617 785.47,610.612 788.225,611.597 790.979,612.571 793.734,613.536 796.488,614.491 799.243,615.436 801.997,616.371 804.751,617.297 807.506,618.213 810.26,619.12 813.015,620.017 815.769,620.906 818.524,621.785 821.278,622.656 824.033,623.517 826.787,624.37 829.542,625.215 832.296,626.05 835.05,626.878 837.805,627.697 840.559,628.508 843.314,629.311 846.068,630.105 848.823,630.892 851.577,631.671 854.332,632.442 857.086,633.206 859.841,633.962 862.595,634.711 865.349,635.452 868.104,636.186 870.858,636.913 873.613,637.633 876.367,638.345 879.122,639.051 881.876,639.75 884.631,640.442 887.385,641.127 890.14,641.806 892.894,642.479 895.649,643.144 898.403,643.804 901.157,644.457 903.912,645.104 906.666,645.745 909.421,646.38 912.175,647.009 914.93,647.632 917.684,648.249 920.439,648.861 923.193,649.467 925.948,650.067 928.702,650.661 931.456,651.25 934.211,651.834 936.965,652.412 939.72,652.985 942.474,653.552 945.229,654.115 947.983,654.672 950.738,655.224 953.492,655.771 956.247,656.314 959.001,656.851 961.755,657.384 964.51,657.911 967.264,658.434 970.019,658.953 972.773,659.466 975.528,659.975 978.282,660.48 981.037,660.98 983.791,661.476 986.546,661.968 989.3,662.455 992.054,662.938 994.809,663.417 997.563,663.891 1000.32,664.362 1003.07,664.828 1005.83,665.291 1008.58,665.75 1011.34,666.204 1014.09,666.655 1016.84,667.102 1019.6,667.546 1022.35,667.985 1025.11,668.421 1027.86,668.853 1030.62,669.282 1033.37,669.707 1036.13,670.129 1038.88,670.547 1041.63,670.962 1044.39,671.373 1047.14,671.782 1049.9,672.186 1052.65,672.588 1055.41,672.986 1058.16,673.381 1060.92,673.773 1063.67,674.162 1066.42,674.548 1069.18,674.931 1071.93,675.311 1074.69,675.687 1077.44,676.061 1080.2,676.432 1082.95,676.8 1085.71,677.165 1088.46,677.528 1091.21,677.887 1093.97,678.244 1096.72,678.598 1099.48,678.95 1102.23,679.298 1104.99,679.644 1107.74,679.988 1110.5,680.329 1113.25,680.667 1116.01,681.003 1118.76,681.336 1121.51,681.666 1124.27,681.995 1127.02,682.32 1129.78,682.644 1132.53,682.965 1135.29,683.283 1138.04,683.6 1140.8,683.914 1143.55,684.226 1146.3,684.535 1149.06,684.842 1151.81,685.147 1154.57,685.45 1157.32,685.751 1160.08,686.05 1162.83,686.346 1165.59,686.641 1168.34,686.933 1171.09,687.223 1173.85,687.511 1176.6,687.797 1179.36,688.082 1182.11,688.364 1184.87,688.644 1187.62,688.922 1190.38,689.199 1193.13,689.473 1195.88,689.746 1198.64,690.016 1201.39,690.285 1204.15,690.552 1206.9,690.817 1209.66,691.081 1212.41,691.342 1215.17,691.602 1217.92,691.86 1220.67,692.117 1223.43,692.371 1226.18,692.624 1228.94,692.876 1231.69,693.126 1234.45,693.374 1237.2,693.62 1239.96,693.865 1242.71,694.108 1245.46,694.35 1248.22,694.59 1250.97,694.828 1253.73,695.065 1256.48,695.301 1259.24,695.535 1261.99,695.767 1264.75,695.998 1267.5,696.228 1270.25,696.456 1273.01,696.683 1275.76,696.908 1278.52,697.132 1281.27,697.354 1284.03,697.575 1286.78,697.795 1289.54,698.013 1292.29,698.23 1295.04,698.446 1297.8,698.66 1300.55,698.874 1303.31,699.085 1306.06,699.296 1308.82,699.505 1311.57,699.713 1314.33,699.92 1317.08,700.125 1319.83,700.33 1322.59,700.533 1325.34,700.735 1328.1,700.935 1330.85,701.135 1333.61,701.333 1336.36,701.53 1339.12,701.726 1341.87,701.921 1344.62,702.115 1347.38,702.307 1350.13,702.499 1352.89,702.689 1355.64,702.879 1358.4,703.067 1361.15,703.254 1363.91,703.44 1366.66,703.625 1369.41,703.809 1372.17,703.991 1374.92,704.173 1377.68,704.354 1380.43,704.534 1383.19,704.712 1385.94,704.89 1388.7,705.067 1391.45,705.243 1394.21,705.417 1396.96,705.591 1399.71,705.764 1402.47,705.936 1405.22,706.107 1407.98,706.277 1410.73,706.446 1413.49,706.614 1416.24,706.781 1419,706.948 1421.75,707.113 1424.5,707.278 1427.26,707.441 1430.01,707.604 1432.77,707.766 1435.52,707.927 1438.28,708.087 1441.03,708.246 1443.79,708.405 1446.54,708.562 1449.29,708.719 1452.05,708.875 1454.8,709.03 1457.56,709.184 1460.31,709.338 1463.07,709.49 1465.82,709.642 1468.58,709.793 1471.33,709.944 1474.08,710.093 1476.84,710.242 1479.59,710.39 1482.35,710.537 1485.1,710.683 1487.86,710.829 1490.61,710.974 1493.37,711.118 1496.12,711.261 1498.87,711.404 1501.63,711.546 1504.38,711.687 1507.14,711.828 1509.89,711.967 1512.65,712.106 1515.4,712.245 1518.16,712.382 1520.91,712.52 1523.66,712.656 1526.42,712.791 1529.17,712.926 1531.93,713.061 1534.68,713.194 1537.44,713.327 1540.19,713.46 1542.95,713.591 1545.7,713.722 1548.45,713.853 1551.21,713.982 1553.96,714.112 1556.72,714.24 1559.47,714.368 1562.23,714.495 1564.98,714.622 1567.74,714.748 1570.49,714.873 1573.24,714.998 1576,715.122 1578.75,715.246 1581.51,715.369 1584.26,715.491 1587.02,715.613 1589.77,715.735 1592.53,715.855 1595.28,715.976 1598.03,716.095 1600.79,716.214 1603.54,716.333 1606.3,716.451 1609.05,716.568 1611.81,716.685 1614.56,716.801 1617.32,716.917 1620.07,717.032 1622.82,717.147 1625.58,717.261 1628.33,717.375 1631.09,717.488 1633.84,717.6 1636.6,717.712 1639.35,717.824 1642.11,717.935 1644.86,718.046 1647.62,718.156 1650.37,718.265 1653.12,718.374 1655.88,718.483 1658.63,718.591 1661.39,718.699 1664.14,718.806 1666.9,718.913 1669.65,719.019 1672.41,719.124 1675.16,719.23 1677.91,719.334 1680.67,719.439 1683.42,719.543 1686.18,719.646 1688.93,719.749 1691.69,719.851 1694.44,719.953 1697.2,720.055 1699.95,720.156 1702.7,720.257 1705.46,720.357 1708.21,720.457 1710.97,720.556 1713.72,720.655 1716.48,720.753 1719.23,720.851 1721.99,720.949 1724.74,721.046 1727.49,721.143 1730.25,721.239 1733,721.335 1735.76,721.431 1738.51,721.526 1741.27,721.621 1744.02,721.715 1746.78,721.809 1749.53,721.903 1752.28,721.996 1755.04,722.089 1757.79,722.181 1760.55,722.273 1763.3,722.365 1766.06,722.456 1768.81,722.547 1771.57,722.637 1774.32,722.727 1777.07,722.817 1779.83,722.906 1782.58,722.995 1785.34,723.084 1788.09,723.172 1790.85,723.26 1793.6,723.347 1796.36,723.434 1799.11,723.521 1801.86,723.607 1804.62,723.693 1807.37,723.779 1810.13,723.864 1812.88,723.949 1815.64,724.034 1818.39,724.118 1821.15,724.202 1823.9,724.286 1826.65,724.369 1829.41,724.452 1832.16,724.535 1834.92,724.617 1837.67,724.699 1840.43,724.78 1843.18,724.862 1845.94,724.942 1848.69,725.023 1851.44,725.103 1854.2,725.183 1856.95,725.263 1859.71,725.342 1862.46,725.421 1865.22,725.5 1867.97,725.578 1870.73,725.657 1873.48,725.734 1876.23,725.812 1878.99,725.889 1881.74,725.966 1884.5,726.042 1887.25,726.119 1890.01,726.195 1892.76,726.27 1895.52,726.346 1898.27,726.421 1901.03,726.495 1903.78,726.57 1906.53,726.644 1909.29,726.718 1912.04,726.792 1914.8,726.865 1917.55,726.938 1920.31,727.011 1923.06,727.084 1925.82,727.156 1928.57,727.228 1931.32,727.299 1934.08,727.371 1936.83,727.442 1939.59,727.513 1942.34,727.584 1945.1,727.654 1947.85,727.724 1950.61,727.794 1953.36,727.863 1956.11,727.933 1958.87,728.002 1961.62,728.07 1964.38,728.139 1967.13,728.207 1969.89,728.275 1972.64,728.343 1975.4,728.411 1978.15,728.478 1980.9,728.545 1983.66,728.612 1986.41,728.678 1989.17,728.744 1991.92,728.811 1994.68,728.876 1997.43,728.942 2000.19,729.007 2002.94,729.072 2005.69,729.137 2008.45,729.202 2011.2,729.266 2013.96,729.33 2016.71,729.394 2019.47,729.458 2022.22,729.521 2024.98,729.585 2027.73,729.648 2030.48,729.71 2033.24,729.773 2035.99,729.835 2038.75,729.897 2041.5,729.959 2044.26,730.021 2047.01,730.082 2049.77,730.144 2052.52,730.205 2055.27,730.265 2058.03,730.326 2060.78,730.386 2063.54,730.446 2066.29,730.506 2069.05,730.566 2071.8,730.626 2074.56,730.685 2077.31,730.744 2080.06,730.803 2082.82,730.862 2085.57,730.92 2088.33,730.978 2091.08,731.036 2093.84,731.094 2096.59,731.152 2099.35,731.209 2102.1,731.267 2104.85,731.324 2107.61,731.381 2110.36,731.437 2113.12,731.494 2115.87,731.55 2118.63,731.606 2121.38,731.662 2124.14,731.718 2126.89,731.773 2129.64,731.829 2132.4,731.884 2135.15,731.939 2137.91,731.994 2140.66,732.048 2143.42,732.103 2146.17,732.157 2148.93,732.211 2151.68,732.265 2154.44,732.318 2157.19,732.372 2159.94,732.425 2162.7,732.478 2165.45,732.531 2168.21,732.584 2170.96,732.637 2173.72,732.689 2176.47,732.741 2179.23,732.794 2181.98,732.845 2184.73,732.897 2187.49,732.949 2190.24,733 2193,733.051 2195.75,733.103 2198.51,733.153 2201.26,733.204 2204.02,733.255 2206.77,733.305 2209.52,733.355 2212.28,733.405 2215.03,733.455 2217.79,733.505 2220.54,733.555 2223.3,733.604 2226.05,733.654 2228.81,733.703 2231.56,733.752 2234.31,733.8 2237.07,733.849 2239.82,733.898 2242.58,733.946 2245.33,733.994 2248.09,734.042 2250.84,734.09 2253.6,734.138 2256.35,734.185 2259.1,734.233 2261.86,734.28 2264.61,734.327 2267.37,734.374 2270.12,734.421 2272.88,734.468 2275.63,734.514 2278.39,734.561 2281.14,734.607 2283.89,734.653 2286.65,734.699 2289.4,734.745 2292.16,734.79 2294.91,734.836 2297.67,734.881 2300.42,734.927 2303.18,734.972 2305.93,735.017 2308.68,735.062 2311.44,735.106 2314.19,735.151 2316.95,735.195 2319.7,735.24 2322.46,735.284 2325.21,735.328 2327.97,735.372 2330.72,735.416 2333.47,735.459 2336.23,735.503 2338.98,735.546 2341.74,735.589 2344.49,735.632 2347.25,735.675 2350,735.718 2352.76,735.761 "/>
<polyline clip-path="url(#clip072)" style="stroke:#3da44d; stroke-linecap:round; stroke-linejoin:round; stroke-width:12; stroke-opacity:1; fill:none" points="149.191,356.751 151.945,362.018 154.7,367.767 157.454,373.979 160.209,380.636 162.963,387.715 165.718,395.193 168.472,403.047 171.227,411.252 173.981,419.782 176.735,428.614 179.49,437.723 182.244,447.085 184.999,456.677 187.753,466.477 190.508,476.467 193.262,486.625 196.017,496.937 198.771,507.384 201.526,517.951 204.28,528.624 207.034,539.389 209.789,550.232 212.543,561.138 215.298,572.093 218.052,583.082 220.807,594.089 223.561,605.095 226.316,616.084 229.07,627.034 231.825,637.923 234.579,648.727 237.333,659.421 240.088,669.979 242.842,680.371 245.597,690.57 248.351,700.549 251.106,710.28 253.86,719.738 256.615,728.903 259.369,737.756 262.124,746.282 264.878,754.47 267.632,762.315 270.387,769.813 273.141,776.965 275.896,783.776 278.65,790.251 281.405,796.4 284.159,802.232 286.914,807.759 289.668,812.992 292.423,817.945 295.177,822.63 297.932,827.059 300.686,831.245 303.44,835.2 306.195,838.936 308.949,842.463 311.704,845.793 314.458,848.935 317.213,851.9 319.967,854.696 322.722,857.334 325.476,859.819 328.231,862.162 330.985,864.368 333.739,866.445 336.494,868.4 339.248,870.239 342.003,871.967 344.757,873.591 347.512,875.116 350.266,876.546 353.021,877.886 355.775,879.142 358.53,880.316 361.284,881.413 364.038,882.438 366.793,883.392 369.547,884.281 372.302,885.107 375.056,885.872 377.811,886.581 380.565,887.235 383.32,887.838 386.074,888.391 388.829,888.898 391.583,889.36 394.337,889.779 397.092,890.158 399.846,890.498 402.601,890.801 405.355,891.069 408.11,891.304 410.864,891.506 413.619,891.678 416.373,891.821 419.128,891.936 421.882,892.025 424.636,892.088 427.391,892.128 430.145,892.144 432.9,892.138 435.654,892.111 438.409,892.064 441.163,891.998 443.918,891.913 446.672,891.811 449.427,891.693 452.181,891.558 454.936,891.408 457.69,891.244 460.444,891.065 463.199,890.874 465.953,890.669 468.708,890.453 471.462,890.224 474.217,889.985 476.971,889.735 479.726,889.475 482.48,889.206 485.235,888.927 487.989,888.639 490.743,888.343 493.498,888.039 496.252,887.727 499.007,887.408 501.761,887.081 504.516,886.748 507.27,886.409 510.025,886.063 512.779,885.712 515.534,885.355 518.288,884.993 521.042,884.626 523.797,884.254 526.551,883.877 529.306,883.496 532.06,883.111 534.815,882.722 537.569,882.329 540.324,881.933 543.078,881.533 545.833,881.13 548.587,880.724 551.341,880.315 554.096,879.903 556.85,879.489 559.605,879.073 562.359,878.654 565.114,878.233 567.868,877.81 570.623,877.385 573.377,876.958 576.132,876.529 578.886,876.099 581.641,875.668 584.395,875.235 587.149,874.801 589.904,874.366 592.658,873.93 595.413,873.493 598.167,873.055 600.922,872.616 603.676,872.177 606.431,871.737 609.185,871.296 611.94,870.855 614.694,870.414 617.448,869.973 620.203,869.531 622.957,869.089 625.712,868.647 628.466,868.204 631.221,867.762 633.975,867.32 636.73,866.878 639.484,866.437 642.239,865.996 644.993,865.555 647.747,865.114 650.502,864.674 653.256,864.234 656.011,863.795 658.765,863.356 661.52,862.918 664.274,862.481 667.029,862.044 669.783,861.608 672.538,861.173 675.292,860.739 678.046,860.305 680.801,859.873 683.555,859.442 686.31,859.011 689.064,858.581 691.819,858.153 694.573,857.726 697.328,857.299 700.082,856.874 702.837,856.45 705.591,856.027 708.345,855.606 711.1,855.186 713.854,854.767 716.609,854.349 719.363,853.933 722.118,853.518 724.872,853.104 727.627,852.692 730.381,852.281 733.136,851.872 735.89,851.464 738.645,851.058 741.399,850.653 744.153,850.25 746.908,849.848 749.662,849.448 752.417,849.049 755.171,848.652 757.926,848.257 760.68,847.863 763.435,847.471 766.189,847.08 768.944,846.692 771.698,846.304 774.452,845.919 777.207,845.535 779.961,845.153 782.716,844.773 785.47,844.394 788.225,844.018 790.979,843.642 793.734,843.269 796.488,842.897 799.243,842.528 801.997,842.16 804.751,841.793 807.506,841.429 810.26,841.066 813.015,840.705 815.769,840.346 818.524,839.989 821.278,839.633 824.033,839.28 826.787,838.928 829.542,838.578 832.296,838.23 835.05,837.883 837.805,837.539 840.559,837.196 843.314,836.855 846.068,836.516 848.823,836.178 851.577,835.843 854.332,835.509 857.086,835.177 859.841,834.847 862.595,834.519 865.349,834.193 868.104,833.868 870.858,833.545 873.613,833.224 876.367,832.905 879.122,832.588 881.876,832.272 884.631,831.958 887.385,831.646 890.14,831.336 892.894,831.027 895.649,830.72 898.403,830.416 901.157,830.112 903.912,829.811 906.666,829.511 909.421,829.213 912.175,828.917 914.93,828.622 917.684,828.33 920.439,828.038 923.193,827.749 925.948,827.461 928.702,827.175 931.456,826.891 934.211,826.609 936.965,826.328 939.72,826.048 942.474,825.771 945.229,825.495 947.983,825.22 950.738,824.948 953.492,824.677 956.247,824.407 959.001,824.139 961.755,823.873 964.51,823.609 967.264,823.346 970.019,823.084 972.773,822.824 975.528,822.566 978.282,822.309 981.037,822.054 983.791,821.8 986.546,821.548 989.3,821.297 992.054,821.048 994.809,820.8 997.563,820.554 1000.32,820.309 1003.07,820.066 1005.83,819.824 1008.58,819.584 1011.34,819.345 1014.09,819.108 1016.84,818.872 1019.6,818.637 1022.35,818.404 1025.11,818.172 1027.86,817.942 1030.62,817.713 1033.37,817.485 1036.13,817.259 1038.88,817.034 1041.63,816.81 1044.39,816.588 1047.14,816.367 1049.9,816.147 1052.65,815.929 1055.41,815.712 1058.16,815.496 1060.92,815.282 1063.67,815.069 1066.42,814.857 1069.18,814.646 1071.93,814.436 1074.69,814.228 1077.44,814.021 1080.2,813.815 1082.95,813.611 1085.71,813.408 1088.46,813.205 1091.21,813.004 1093.97,812.805 1096.72,812.606 1099.48,812.408 1102.23,812.212 1104.99,812.017 1107.74,811.823 1110.5,811.63 1113.25,811.438 1116.01,811.247 1118.76,811.057 1121.51,810.869 1124.27,810.681 1127.02,810.495 1129.78,810.309 1132.53,810.125 1135.29,809.942 1138.04,809.76 1140.8,809.578 1143.55,809.398 1146.3,809.219 1149.06,809.041 1151.81,808.864 1154.57,808.687 1157.32,808.512 1160.08,808.338 1162.83,808.165 1165.59,807.992 1168.34,807.821 1171.09,807.651 1173.85,807.481 1176.6,807.313 1179.36,807.145 1182.11,806.978 1184.87,806.813 1187.62,806.648 1190.38,806.484 1193.13,806.321 1195.88,806.158 1198.64,805.997 1201.39,805.836 1204.15,805.677 1206.9,805.518 1209.66,805.36 1212.41,805.203 1215.17,805.047 1217.92,804.891 1220.67,804.737 1223.43,804.583 1226.18,804.43 1228.94,804.278 1231.69,804.126 1234.45,803.976 1237.2,803.826 1239.96,803.677 1242.71,803.529 1245.46,803.381 1248.22,803.234 1250.97,803.088 1253.73,802.943 1256.48,802.798 1259.24,802.655 1261.99,802.512 1264.75,802.369 1267.5,802.228 1270.25,802.087 1273.01,801.947 1275.76,801.807 1278.52,801.668 1281.27,801.53 1284.03,801.393 1286.78,801.256 1289.54,801.12 1292.29,800.984 1295.04,800.85 1297.8,800.716 1300.55,800.582 1303.31,800.449 1306.06,800.317 1308.82,800.186 1311.57,800.055 1314.33,799.925 1317.08,799.795 1319.83,799.666 1322.59,799.537 1325.34,799.41 1328.1,799.283 1330.85,799.156 1333.61,799.03 1336.36,798.905 1339.12,798.78 1341.87,798.656 1344.62,798.532 1347.38,798.409 1350.13,798.286 1352.89,798.164 1355.64,798.043 1358.4,797.922 1361.15,797.802 1363.91,797.682 1366.66,797.563 1369.41,797.444 1372.17,797.326 1374.92,797.209 1377.68,797.092 1380.43,796.975 1383.19,796.859 1385.94,796.744 1388.7,796.629 1391.45,796.514 1394.21,796.4 1396.96,796.287 1399.71,796.174 1402.47,796.061 1405.22,795.949 1407.98,795.838 1410.73,795.727 1413.49,795.616 1416.24,795.506 1419,795.397 1421.75,795.288 1424.5,795.179 1427.26,795.071 1430.01,794.963 1432.77,794.856 1435.52,794.749 1438.28,794.643 1441.03,794.537 1443.79,794.431 1446.54,794.326 1449.29,794.222 1452.05,794.117 1454.8,794.014 1457.56,793.91 1460.31,793.808 1463.07,793.705 1465.82,793.603 1468.58,793.502 1471.33,793.4 1474.08,793.3 1476.84,793.199 1479.59,793.099 1482.35,793 1485.1,792.9 1487.86,792.802 1490.61,792.703 1493.37,792.605 1496.12,792.508 1498.87,792.41 1501.63,792.314 1504.38,792.217 1507.14,792.121 1509.89,792.025 1512.65,791.93 1515.4,791.835 1518.16,791.741 1520.91,791.646 1523.66,791.552 1526.42,791.459 1529.17,791.366 1531.93,791.273 1534.68,791.181 1537.44,791.089 1540.19,790.997 1542.95,790.905 1545.7,790.814 1548.45,790.724 1551.21,790.633 1553.96,790.543 1556.72,790.454 1559.47,790.364 1562.23,790.275 1564.98,790.187 1567.74,790.098 1570.49,790.01 1573.24,789.923 1576,789.835 1578.75,789.748 1581.51,789.661 1584.26,789.575 1587.02,789.489 1589.77,789.403 1592.53,789.318 1595.28,789.232 1598.03,789.148 1600.79,789.063 1603.54,788.979 1606.3,788.895 1609.05,788.811 1611.81,788.728 1614.56,788.645 1617.32,788.562 1620.07,788.479 1622.82,788.397 1625.58,788.315 1628.33,788.234 1631.09,788.152 1633.84,788.071 1636.6,787.991 1639.35,787.91 1642.11,787.83 1644.86,787.75 1647.62,787.67 1650.37,787.591 1653.12,787.512 1655.88,787.433 1658.63,787.354 1661.39,787.276 1664.14,787.198 1666.9,787.12 1669.65,787.043 1672.41,786.965 1675.16,786.888 1677.91,786.812 1680.67,786.735 1683.42,786.659 1686.18,786.583 1688.93,786.507 1691.69,786.432 1694.44,786.357 1697.2,786.282 1699.95,786.207 1702.7,786.133 1705.46,786.058 1708.21,785.984 1710.97,785.911 1713.72,785.837 1716.48,785.764 1719.23,785.691 1721.99,785.618 1724.74,785.546 1727.49,785.473 1730.25,785.401 1733,785.329 1735.76,785.258 1738.51,785.186 1741.27,785.115 1744.02,785.044 1746.78,784.973 1749.53,784.903 1752.28,784.833 1755.04,784.763 1757.79,784.693 1760.55,784.623 1763.3,784.554 1766.06,784.485 1768.81,784.416 1771.57,784.347 1774.32,784.279 1777.07,784.21 1779.83,784.142 1782.58,784.074 1785.34,784.007 1788.09,783.939 1790.85,783.872 1793.6,783.805 1796.36,783.738 1799.11,783.671 1801.86,783.605 1804.62,783.539 1807.37,783.473 1810.13,783.407 1812.88,783.341 1815.64,783.276 1818.39,783.211 1821.15,783.146 1823.9,783.081 1826.65,783.016 1829.41,782.952 1832.16,782.888 1834.92,782.824 1837.67,782.76 1840.43,782.696 1843.18,782.633 1845.94,782.569 1848.69,782.506 1851.44,782.443 1854.2,782.381 1856.95,782.318 1859.71,782.256 1862.46,782.194 1865.22,782.132 1867.97,782.07 1870.73,782.008 1873.48,781.947 1876.23,781.886 1878.99,781.825 1881.74,781.764 1884.5,781.703 1887.25,781.642 1890.01,781.582 1892.76,781.522 1895.52,781.462 1898.27,781.402 1901.03,781.342 1903.78,781.283 1906.53,781.224 1909.29,781.164 1912.04,781.106 1914.8,781.047 1917.55,780.988 1920.31,780.93 1923.06,780.871 1925.82,780.813 1928.57,780.755 1931.32,780.698 1934.08,780.64 1936.83,780.582 1939.59,780.525 1942.34,780.468 1945.1,780.411 1947.85,780.354 1950.61,780.298 1953.36,780.241 1956.11,780.185 1958.87,780.129 1961.62,780.073 1964.38,780.017 1967.13,779.961 1969.89,779.906 1972.64,779.85 1975.4,779.795 1978.15,779.74 1980.9,779.685 1983.66,779.63 1986.41,779.576 1989.17,779.521 1991.92,779.467 1994.68,779.413 1997.43,779.359 2000.19,779.305 2002.94,779.251 2005.69,779.198 2008.45,779.144 2011.2,779.091 2013.96,779.038 2016.71,778.985 2019.47,778.932 2022.22,778.879 2024.98,778.827 2027.73,778.775 2030.48,778.722 2033.24,778.67 2035.99,778.618 2038.75,778.567 2041.5,778.515 2044.26,778.463 2047.01,778.412 2049.77,778.361 2052.52,778.31 2055.27,778.259 2058.03,778.208 2060.78,778.157 2063.54,778.107 2066.29,778.056 2069.05,778.006 2071.8,777.956 2074.56,777.906 2077.31,777.856 2080.06,777.806 2082.82,777.757 2085.57,777.707 2088.33,777.658 2091.08,777.609 2093.84,777.56 2096.59,777.511 2099.35,777.462 2102.1,777.414 2104.85,777.365 2107.61,777.317 2110.36,777.268 2113.12,777.22 2115.87,777.172 2118.63,777.124 2121.38,777.077 2124.14,777.029 2126.89,776.982 2129.64,776.934 2132.4,776.887 2135.15,776.84 2137.91,776.793 2140.66,776.746 2143.42,776.7 2146.17,776.653 2148.93,776.607 2151.68,776.56 2154.44,776.514 2157.19,776.468 2159.94,776.422 2162.7,776.376 2165.45,776.33 2168.21,776.285 2170.96,776.239 2173.72,776.194 2176.47,776.149 2179.23,776.104 2181.98,776.059 2184.73,776.014 2187.49,775.969 2190.24,775.924 2193,775.88 2195.75,775.836 2198.51,775.791 2201.26,775.747 2204.02,775.703 2206.77,775.659 2209.52,775.615 2212.28,775.572 2215.03,775.528 2217.79,775.485 2220.54,775.441 2223.3,775.398 2226.05,775.355 2228.81,775.312 2231.56,775.269 2234.31,775.227 2237.07,775.184 2239.82,775.141 2242.58,775.099 2245.33,775.057 2248.09,775.014 2250.84,774.972 2253.6,774.93 2256.35,774.889 2259.1,774.847 2261.86,774.805 2264.61,774.764 2267.37,774.722 2270.12,774.681 2272.88,774.64 2275.63,774.599 2278.39,774.558 2281.14,774.517 2283.89,774.476 2286.65,774.435 2289.4,774.395 2292.16,774.354 2294.91,774.314 2297.67,774.274 2300.42,774.234 2303.18,774.194 2305.93,774.154 2308.68,774.114 2311.44,774.074 2314.19,774.035 2316.95,773.995 2319.7,773.956 2322.46,773.917 2325.21,773.878 2327.97,773.839 2330.72,773.8 2333.47,773.761 2336.23,773.722 2338.98,773.683 2341.74,773.645 2344.49,773.606 2347.25,773.568 2350,773.53 2352.76,773.492 "/>
<path clip-path="url(#clip070)" d="M1969.85 1377.32 L2279.3 1377.32 L2279.3 1169.96 L1969.85 1169.96  Z" fill="#ffffff" fill-rule="evenodd" fill-opacity="1"/>
<polyline clip-path="url(#clip070)" style="stroke:#000000; stroke-linecap:round; stroke-linejoin:round; stroke-width:4; stroke-opacity:1; fill:none" points="1969.85,1377.32 2279.3,1377.32 2279.3,1169.96 1969.85,1169.96 1969.85,1377.32 "/>
<polyline clip-path="url(#clip070)" style="stroke:#009af9; stroke-linecap:round; stroke-linejoin:round; stroke-width:12; stroke-opacity:1; fill:none" points="1994.33,1221.8 2141.24,1221.8 "/>
<path clip-path="url(#clip070)" d="M2165.72 1228.84 L2165.72 1213.15 L2169.98 1213.15 L2169.98 1228.68 Q2169.98 1232.36 2171.42 1234.21 Q2172.85 1236.04 2175.72 1236.04 Q2179.17 1236.04 2181.16 1233.84 Q2183.18 1231.64 2183.18 1227.85 L2183.18 1213.15 L2187.44 1213.15 L2187.44 1239.08 L2183.18 1239.08 L2183.18 1235.09 Q2181.63 1237.45 2179.57 1238.61 Q2177.53 1239.75 2174.82 1239.75 Q2170.35 1239.75 2168.04 1236.97 Q2165.72 1234.19 2165.72 1228.84 M2176.44 1212.52 L2176.44 1212.52 Z" fill="#000000" fill-rule="nonzero" fill-opacity="1" /><path clip-path="url(#clip070)" d="M2195.82 1203.06 L2205.63 1203.06 L2205.63 1206.37 L2200.07 1206.37 L2200.07 1242.02 L2205.63 1242.02 L2205.63 1245.33 L2195.82 1245.33 L2195.82 1203.06 Z" fill="#000000" fill-rule="nonzero" fill-opacity="1" /><path clip-path="url(#clip070)" d="M2216.12 1235.14 L2223.76 1235.14 L2223.76 1208.77 L2215.44 1210.44 L2215.44 1206.18 L2223.71 1204.52 L2228.38 1204.52 L2228.38 1235.14 L2236.02 1235.14 L2236.02 1239.08 L2216.12 1239.08 L2216.12 1235.14 Z" fill="#000000" fill-rule="nonzero" fill-opacity="1" /><path clip-path="url(#clip070)" d="M2254.82 1203.06 L2254.82 1245.33 L2245 1245.33 L2245 1242.02 L2250.54 1242.02 L2250.54 1206.37 L2245 1206.37 L2245 1203.06 L2254.82 1203.06 Z" fill="#000000" fill-rule="nonzero" fill-opacity="1" /><polyline clip-path="url(#clip070)" style="stroke:#e26f46; stroke-linecap:round; stroke-linejoin:round; stroke-width:12; stroke-opacity:1; fill:none" points="1994.33,1273.64 2141.24,1273.64 "/>
<path clip-path="url(#clip070)" d="M2165.72 1280.68 L2165.72 1264.99 L2169.98 1264.99 L2169.98 1280.52 Q2169.98 1284.2 2171.42 1286.05 Q2172.85 1287.88 2175.72 1287.88 Q2179.17 1287.88 2181.16 1285.68 Q2183.18 1283.48 2183.18 1279.69 L2183.18 1264.99 L2187.44 1264.99 L2187.44 1290.92 L2183.18 1290.92 L2183.18 1286.93 Q2181.63 1289.29 2179.57 1290.45 Q2177.53 1291.59 2174.82 1291.59 Q2170.35 1291.59 2168.04 1288.81 Q2165.72 1286.03 2165.72 1280.68 M2176.44 1264.36 L2176.44 1264.36 Z" fill="#000000" fill-rule="nonzero" fill-opacity="1" /><path clip-path="url(#clip070)" d="M2195.82 1254.9 L2205.63 1254.9 L2205.63 1258.21 L2200.07 1258.21 L2200.07 1293.86 L2205.63 1293.86 L2205.63 1297.17 L2195.82 1297.17 L2195.82 1254.9 Z" fill="#000000" fill-rule="nonzero" fill-opacity="1" /><path clip-path="url(#clip070)" d="M2219.33 1286.98 L2235.65 1286.98 L2235.65 1290.92 L2213.71 1290.92 L2213.71 1286.98 Q2216.37 1284.23 2220.95 1279.6 Q2225.56 1274.94 2226.74 1273.6 Q2228.99 1271.08 2229.87 1269.34 Q2230.77 1267.58 2230.77 1265.89 Q2230.77 1263.14 2228.82 1261.4 Q2226.9 1259.67 2223.8 1259.67 Q2221.6 1259.67 2219.15 1260.43 Q2216.72 1261.19 2213.94 1262.74 L2213.94 1258.02 Q2216.76 1256.89 2219.22 1256.31 Q2221.67 1255.73 2223.71 1255.73 Q2229.08 1255.73 2232.27 1258.42 Q2235.47 1261.1 2235.47 1265.59 Q2235.47 1267.72 2234.66 1269.64 Q2233.87 1271.54 2231.76 1274.13 Q2231.19 1274.8 2228.08 1278.02 Q2224.98 1281.22 2219.33 1286.98 Z" fill="#000000" fill-rule="nonzero" fill-opacity="1" /><path clip-path="url(#clip070)" d="M2254.82 1254.9 L2254.82 1297.17 L2245 1297.17 L2245 1293.86 L2250.54 1293.86 L2250.54 1258.21 L2245 1258.21 L2245 1254.9 L2254.82 1254.9 Z" fill="#000000" fill-rule="nonzero" fill-opacity="1" /><polyline clip-path="url(#clip070)" style="stroke:#3da44d; stroke-linecap:round; stroke-linejoin:round; stroke-width:12; stroke-opacity:1; fill:none" points="1994.33,1325.48 2141.24,1325.48 "/>
<path clip-path="url(#clip070)" d="M2165.72 1332.52 L2165.72 1316.83 L2169.98 1316.83 L2169.98 1332.36 Q2169.98 1336.04 2171.42 1337.89 Q2172.85 1339.72 2175.72 1339.72 Q2179.17 1339.72 2181.16 1337.52 Q2183.18 1335.32 2183.18 1331.53 L2183.18 1316.83 L2187.44 1316.83 L2187.44 1342.76 L2183.18 1342.76 L2183.18 1338.77 Q2181.63 1341.13 2179.57 1342.29 Q2177.53 1343.43 2174.82 1343.43 Q2170.35 1343.43 2168.04 1340.65 Q2165.72 1337.87 2165.72 1332.52 M2176.44 1316.2 L2176.44 1316.2 Z" fill="#000000" fill-rule="nonzero" fill-opacity="1" /><path clip-path="url(#clip070)" d="M2206.44 1306.78 Q2203.34 1312.11 2201.83 1317.32 Q2200.33 1322.52 2200.33 1327.87 Q2200.33 1333.22 2201.83 1338.47 Q2203.36 1343.7 2206.44 1349.01 L2202.74 1349.01 Q2199.26 1343.57 2197.53 1338.31 Q2195.82 1333.06 2195.82 1327.87 Q2195.82 1322.71 2197.53 1317.48 Q2199.24 1312.25 2202.74 1306.78 L2206.44 1306.78 Z" fill="#000000" fill-rule="nonzero" fill-opacity="1" /><path clip-path="url(#clip070)" d="M2218.92 1309.47 L2218.92 1316.83 L2227.69 1316.83 L2227.69 1320.14 L2218.92 1320.14 L2218.92 1334.21 Q2218.92 1337.38 2219.77 1338.29 Q2220.65 1339.19 2223.32 1339.19 L2227.69 1339.19 L2227.69 1342.76 L2223.32 1342.76 Q2218.38 1342.76 2216.51 1340.93 Q2214.63 1339.07 2214.63 1334.21 L2214.63 1320.14 L2211.51 1320.14 L2211.51 1316.83 L2214.63 1316.83 L2214.63 1309.47 L2218.92 1309.47 Z" fill="#000000" fill-rule="nonzero" fill-opacity="1" /><path clip-path="url(#clip070)" d="M2232.62 1306.78 L2236.32 1306.78 Q2239.8 1312.25 2241.51 1317.48 Q2243.25 1322.71 2243.25 1327.87 Q2243.25 1333.06 2241.51 1338.31 Q2239.8 1343.57 2236.32 1349.01 L2232.62 1349.01 Q2235.7 1343.7 2237.2 1338.47 Q2238.73 1333.22 2238.73 1327.87 Q2238.73 1322.52 2237.2 1317.32 Q2235.7 1312.11 2232.62 1306.78 Z" fill="#000000" fill-rule="nonzero" fill-opacity="1" /></svg>
