<?xml version="1.0" encoding="utf-8"?>
<svg xmlns="http://www.w3.org/2000/svg" xmlns:xlink="http://www.w3.org/1999/xlink" width="600" height="400" viewBox="0 0 2400 1600">
<defs>
  <clipPath id="clip490">
    <rect x="0" y="0" width="2400" height="1600"/>
  </clipPath>
</defs>
<path clip-path="url(#clip490)" d="M0 1600 L2400 1600 L2400 0 L0 0  Z" fill="#ffffff" fill-rule="evenodd" fill-opacity="1"/>
<defs>
  <clipPath id="clip491">
    <rect x="480" y="0" width="1681" height="1600"/>
  </clipPath>
</defs>
<path clip-path="url(#clip490)" d="M149.191 1423.18 L2352.76 1423.18 L2352.76 47.2441 L149.191 47.2441  Z" fill="#ffffff" fill-rule="evenodd" fill-opacity="1"/>
<defs>
  <clipPath id="clip492">
    <rect x="149" y="47" width="2205" height="1377"/>
  </clipPath>
</defs>
<polyline clip-path="url(#clip492)" style="stroke:#000000; stroke-linecap:round; stroke-linejoin:round; stroke-width:2; stroke-opacity:0.1; fill:none" points="149.191,1423.18 149.191,47.2441 "/>
<polyline clip-path="url(#clip492)" style="stroke:#000000; stroke-linecap:round; stroke-linejoin:round; stroke-width:2; stroke-opacity:0.1; fill:none" points="700.082,1423.18 700.082,47.2441 "/>
<polyline clip-path="url(#clip492)" style="stroke:#000000; stroke-linecap:round; stroke-linejoin:round; stroke-width:2; stroke-opacity:0.1; fill:none" points="1250.97,1423.18 1250.97,47.2441 "/>
<polyline clip-path="url(#clip492)" style="stroke:#000000; stroke-linecap:round; stroke-linejoin:round; stroke-width:2; stroke-opacity:0.1; fill:none" points="1801.86,1423.18 1801.86,47.2441 "/>
<polyline clip-path="url(#clip492)" style="stroke:#000000; stroke-linecap:round; stroke-linejoin:round; stroke-width:2; stroke-opacity:0.1; fill:none" points="2352.76,1423.18 2352.76,47.2441 "/>
<polyline clip-path="url(#clip490)" style="stroke:#000000; stroke-linecap:round; stroke-linejoin:round; stroke-width:4; stroke-opacity:1; fill:none" points="149.191,1423.18 2352.76,1423.18 "/>
<polyline clip-path="url(#clip490)" style="stroke:#000000; stroke-linecap:round; stroke-linejoin:round; stroke-width:4; stroke-opacity:1; fill:none" points="149.191,1423.18 149.191,1404.28 "/>
<polyline clip-path="url(#clip490)" style="stroke:#000000; stroke-linecap:round; stroke-linejoin:round; stroke-width:4; stroke-opacity:1; fill:none" points="700.082,1423.18 700.082,1404.28 "/>
<polyline clip-path="url(#clip490)" style="stroke:#000000; stroke-linecap:round; stroke-linejoin:round; stroke-width:4; stroke-opacity:1; fill:none" points="1250.97,1423.18 1250.97,1404.28 "/>
<polyline clip-path="url(#clip490)" style="stroke:#000000; stroke-linecap:round; stroke-linejoin:round; stroke-width:4; stroke-opacity:1; fill:none" points="1801.86,1423.18 1801.86,1404.28 "/>
<polyline clip-path="url(#clip490)" style="stroke:#000000; stroke-linecap:round; stroke-linejoin:round; stroke-width:4; stroke-opacity:1; fill:none" points="2352.76,1423.18 2352.76,1404.28 "/>
<path clip-path="url(#clip490)" d="M149.191 1454.1 Q145.58 1454.1 143.751 1457.66 Q141.946 1461.2 141.946 1468.33 Q141.946 1475.44 143.751 1479.01 Q145.58 1482.55 149.191 1482.55 Q152.825 1482.55 154.631 1479.01 Q156.459 1475.44 156.459 1468.33 Q156.459 1461.2 154.631 1457.66 Q152.825 1454.1 149.191 1454.1 M149.191 1450.39 Q155.001 1450.39 158.057 1455 Q161.135 1459.58 161.135 1468.33 Q161.135 1477.06 158.057 1481.67 Q155.001 1486.25 149.191 1486.25 Q143.381 1486.25 140.302 1481.67 Q137.246 1477.06 137.246 1468.33 Q137.246 1459.58 140.302 1455 Q143.381 1450.39 149.191 1450.39 Z" fill="#000000" fill-rule="nonzero" fill-opacity="1" /><path clip-path="url(#clip490)" d="M694.735 1481.64 L711.054 1481.64 L711.054 1485.58 L689.11 1485.58 L689.11 1481.64 Q691.772 1478.89 696.355 1474.26 Q700.962 1469.61 702.142 1468.27 Q704.388 1465.74 705.267 1464.01 Q706.17 1462.25 706.17 1460.56 Q706.17 1457.8 704.226 1456.07 Q702.304 1454.33 699.203 1454.33 Q697.003 1454.33 694.55 1455.09 Q692.119 1455.86 689.341 1457.41 L689.341 1452.69 Q692.166 1451.55 694.619 1450.97 Q697.073 1450.39 699.11 1450.39 Q704.48 1450.39 707.675 1453.08 Q710.869 1455.77 710.869 1460.26 Q710.869 1462.39 710.059 1464.31 Q709.272 1466.2 707.165 1468.8 Q706.587 1469.47 703.485 1472.69 Q700.383 1475.88 694.735 1481.64 Z" fill="#000000" fill-rule="nonzero" fill-opacity="1" /><path clip-path="url(#clip490)" d="M1253.98 1455.09 L1242.18 1473.54 L1253.98 1473.54 L1253.98 1455.09 M1252.76 1451.02 L1258.64 1451.02 L1258.64 1473.54 L1263.57 1473.54 L1263.57 1477.43 L1258.64 1477.43 L1258.64 1485.58 L1253.98 1485.58 L1253.98 1477.43 L1238.38 1477.43 L1238.38 1472.92 L1252.76 1451.02 Z" fill="#000000" fill-rule="nonzero" fill-opacity="1" /><path clip-path="url(#clip490)" d="M1802.27 1466.44 Q1799.12 1466.44 1797.27 1468.59 Q1795.44 1470.74 1795.44 1474.49 Q1795.44 1478.22 1797.27 1480.39 Q1799.12 1482.55 1802.27 1482.55 Q1805.42 1482.55 1807.25 1480.39 Q1809.1 1478.22 1809.1 1474.49 Q1809.1 1470.74 1807.25 1468.59 Q1805.42 1466.44 1802.27 1466.44 M1811.55 1451.78 L1811.55 1456.04 Q1809.79 1455.21 1807.99 1454.77 Q1806.2 1454.33 1804.45 1454.33 Q1799.82 1454.33 1797.36 1457.45 Q1794.93 1460.58 1794.58 1466.9 Q1795.95 1464.89 1798.01 1463.82 Q1800.07 1462.73 1802.55 1462.73 Q1807.76 1462.73 1810.77 1465.9 Q1813.8 1469.05 1813.8 1474.49 Q1813.8 1479.82 1810.65 1483.03 Q1807.5 1486.25 1802.27 1486.25 Q1796.27 1486.25 1793.1 1481.67 Q1789.93 1477.06 1789.93 1468.33 Q1789.93 1460.14 1793.82 1455.28 Q1797.71 1450.39 1804.26 1450.39 Q1806.02 1450.39 1807.8 1450.74 Q1809.61 1451.09 1811.55 1451.78 Z" fill="#000000" fill-rule="nonzero" fill-opacity="1" /><path clip-path="url(#clip490)" d="M2352.76 1469.17 Q2349.42 1469.17 2347.5 1470.95 Q2345.6 1472.73 2345.6 1475.86 Q2345.6 1478.98 2347.5 1480.77 Q2349.42 1482.55 2352.76 1482.55 Q2356.09 1482.55 2358.01 1480.77 Q2359.93 1478.96 2359.93 1475.86 Q2359.93 1472.73 2358.01 1470.95 Q2356.11 1469.17 2352.76 1469.17 M2348.08 1467.18 Q2345.07 1466.44 2343.38 1464.38 Q2341.71 1462.32 2341.71 1459.35 Q2341.71 1455.21 2344.65 1452.8 Q2347.62 1450.39 2352.76 1450.39 Q2357.92 1450.39 2360.86 1452.8 Q2363.8 1455.21 2363.8 1459.35 Q2363.8 1462.32 2362.11 1464.38 Q2360.44 1466.44 2357.45 1467.18 Q2360.83 1467.96 2362.71 1470.26 Q2364.61 1472.55 2364.61 1475.86 Q2364.61 1480.88 2361.53 1483.57 Q2358.47 1486.25 2352.76 1486.25 Q2347.04 1486.25 2343.96 1483.57 Q2340.9 1480.88 2340.9 1475.86 Q2340.9 1472.55 2342.8 1470.26 Q2344.7 1467.96 2348.08 1467.18 M2346.37 1459.79 Q2346.37 1462.48 2348.03 1463.98 Q2349.72 1465.49 2352.76 1465.49 Q2355.77 1465.49 2357.45 1463.98 Q2359.17 1462.48 2359.17 1459.79 Q2359.17 1457.11 2357.45 1455.6 Q2355.77 1454.1 2352.76 1454.1 Q2349.72 1454.1 2348.03 1455.6 Q2346.37 1457.11 2346.37 1459.79 Z" fill="#000000" fill-rule="nonzero" fill-opacity="1" /><path clip-path="url(#clip490)" d="M1250.03 1522.27 L1250.03 1532.4 L1262.1 1532.4 L1262.1 1536.95 L1250.03 1536.95 L1250.03 1556.3 Q1250.03 1560.66 1251.21 1561.9 Q1252.42 1563.14 1256.08 1563.14 L1262.1 1563.14 L1262.1 1568.04 L1256.08 1568.04 Q1249.3 1568.04 1246.72 1565.53 Q1244.15 1562.98 1244.15 1556.3 L1244.15 1536.95 L1239.85 1536.95 L1239.85 1532.4 L1244.15 1532.4 L1244.15 1522.27 L1250.03 1522.27 Z" fill="#000000" fill-rule="nonzero" fill-opacity="1" /><polyline clip-path="url(#clip492)" style="stroke:#000000; stroke-linecap:round; stroke-linejoin:round; stroke-width:2; stroke-opacity:0.1; fill:none" points="149.191,1423.18 2352.76,1423.18 "/>
<polyline clip-path="url(#clip492)" style="stroke:#000000; stroke-linecap:round; stroke-linejoin:round; stroke-width:2; stroke-opacity:0.1; fill:none" points="149.191,1193.86 2352.76,1193.86 "/>
<polyline clip-path="url(#clip492)" style="stroke:#000000; stroke-linecap:round; stroke-linejoin:round; stroke-width:2; stroke-opacity:0.1; fill:none" points="149.191,964.535 2352.76,964.535 "/>
<polyline clip-path="url(#clip492)" style="stroke:#000000; stroke-linecap:round; stroke-linejoin:round; stroke-width:2; stroke-opacity:0.1; fill:none" points="149.191,735.212 2352.76,735.212 "/>
<polyline clip-path="url(#clip492)" style="stroke:#000000; stroke-linecap:round; stroke-linejoin:round; stroke-width:2; stroke-opacity:0.1; fill:none" points="149.191,505.889 2352.76,505.889 "/>
<polyline clip-path="url(#clip492)" style="stroke:#000000; stroke-linecap:round; stroke-linejoin:round; stroke-width:2; stroke-opacity:0.1; fill:none" points="149.191,276.567 2352.76,276.567 "/>
<polyline clip-path="url(#clip492)" style="stroke:#000000; stroke-linecap:round; stroke-linejoin:round; stroke-width:2; stroke-opacity:0.1; fill:none" points="149.191,47.2441 2352.76,47.2441 "/>
<polyline clip-path="url(#clip490)" style="stroke:#000000; stroke-linecap:round; stroke-linejoin:round; stroke-width:4; stroke-opacity:1; fill:none" points="149.191,1423.18 149.191,47.2441 "/>
<polyline clip-path="url(#clip490)" style="stroke:#000000; stroke-linecap:round; stroke-linejoin:round; stroke-width:4; stroke-opacity:1; fill:none" points="149.191,1423.18 168.089,1423.18 "/>
<polyline clip-path="url(#clip490)" style="stroke:#000000; stroke-linecap:round; stroke-linejoin:round; stroke-width:4; stroke-opacity:1; fill:none" points="149.191,1193.86 168.089,1193.86 "/>
<polyline clip-path="url(#clip490)" style="stroke:#000000; stroke-linecap:round; stroke-linejoin:round; stroke-width:4; stroke-opacity:1; fill:none" points="149.191,964.535 168.089,964.535 "/>
<polyline clip-path="url(#clip490)" style="stroke:#000000; stroke-linecap:round; stroke-linejoin:round; stroke-width:4; stroke-opacity:1; fill:none" points="149.191,735.212 168.089,735.212 "/>
<polyline clip-path="url(#clip490)" style="stroke:#000000; stroke-linecap:round; stroke-linejoin:round; stroke-width:4; stroke-opacity:1; fill:none" points="149.191,505.889 168.089,505.889 "/>
<polyline clip-path="url(#clip490)" style="stroke:#000000; stroke-linecap:round; stroke-linejoin:round; stroke-width:4; stroke-opacity:1; fill:none" points="149.191,276.567 168.089,276.567 "/>
<polyline clip-path="url(#clip490)" style="stroke:#000000; stroke-linecap:round; stroke-linejoin:round; stroke-width:4; stroke-opacity:1; fill:none" points="149.191,47.2441 168.089,47.2441 "/>
<path clip-path="url(#clip490)" d="M51.3162 1423.63 L80.992 1423.63 L80.992 1427.57 L51.3162 1427.57 L51.3162 1423.63 Z" fill="#000000" fill-rule="nonzero" fill-opacity="1" /><path clip-path="url(#clip490)" d="M101.663 1421.32 Q98.515 1421.32 96.6632 1423.47 Q94.8345 1425.62 94.8345 1429.37 Q94.8345 1433.1 96.6632 1435.27 Q98.515 1437.43 101.663 1437.43 Q104.811 1437.43 106.64 1435.27 Q108.492 1433.1 108.492 1429.37 Q108.492 1425.62 106.64 1423.47 Q104.811 1421.32 101.663 1421.32 M110.946 1406.66 L110.946 1410.92 Q109.186 1410.09 107.381 1409.65 Q105.598 1409.21 103.839 1409.21 Q99.2095 1409.21 96.7558 1412.33 Q94.3252 1415.46 93.978 1421.78 Q95.3437 1419.77 97.4039 1418.7 Q99.4641 1417.61 101.941 1417.61 Q107.149 1417.61 110.158 1420.78 Q113.191 1423.93 113.191 1429.37 Q113.191 1434.7 110.043 1437.91 Q106.895 1441.13 101.663 1441.13 Q95.6678 1441.13 92.4965 1436.55 Q89.3253 1431.94 89.3253 1423.21 Q89.3253 1415.02 93.2141 1410.16 Q97.103 1405.27 103.654 1405.27 Q105.413 1405.27 107.196 1405.62 Q109.001 1405.97 110.946 1406.66 Z" fill="#000000" fill-rule="nonzero" fill-opacity="1" /><path clip-path="url(#clip490)" d="M50.9921 1194.31 L80.6679 1194.31 L80.6679 1198.24 L50.9921 1198.24 L50.9921 1194.31 Z" fill="#000000" fill-rule="nonzero" fill-opacity="1" /><path clip-path="url(#clip490)" d="M103.608 1180.65 L91.8021 1199.1 L103.608 1199.1 L103.608 1180.65 M102.381 1176.58 L108.26 1176.58 L108.26 1199.1 L113.191 1199.1 L113.191 1202.99 L108.26 1202.99 L108.26 1211.14 L103.608 1211.14 L103.608 1202.99 L88.0058 1202.99 L88.0058 1198.48 L102.381 1176.58 Z" fill="#000000" fill-rule="nonzero" fill-opacity="1" /><path clip-path="url(#clip490)" d="M53.0754 964.986 L82.7512 964.986 L82.7512 968.921 L53.0754 968.921 L53.0754 964.986 Z" fill="#000000" fill-rule="nonzero" fill-opacity="1" /><path clip-path="url(#clip490)" d="M96.8715 977.879 L113.191 977.879 L113.191 981.815 L91.2465 981.815 L91.2465 977.879 Q93.9086 975.125 98.4919 970.495 Q103.098 965.842 104.279 964.5 Q106.524 961.977 107.404 960.241 Q108.307 958.481 108.307 956.792 Q108.307 954.037 106.362 952.301 Q104.441 950.565 101.339 950.565 Q99.14 950.565 96.6863 951.329 Q94.2558 952.093 91.478 953.643 L91.478 948.921 Q94.3021 947.787 96.7558 947.208 Q99.2095 946.63 101.246 946.63 Q106.617 946.63 109.811 949.315 Q113.006 952 113.006 956.491 Q113.006 958.62 112.196 960.542 Q111.408 962.44 109.302 965.032 Q108.723 965.704 105.621 968.921 Q102.52 972.116 96.8715 977.879 Z" fill="#000000" fill-rule="nonzero" fill-opacity="1" /><path clip-path="url(#clip490)" d="M101.246 721.011 Q97.6354 721.011 95.8067 724.575 Q94.0012 728.117 94.0012 735.247 Q94.0012 742.353 95.8067 745.918 Q97.6354 749.46 101.246 749.46 Q104.881 749.46 106.686 745.918 Q108.515 742.353 108.515 735.247 Q108.515 728.117 106.686 724.575 Q104.881 721.011 101.246 721.011 M101.246 717.307 Q107.057 717.307 110.112 721.913 Q113.191 726.497 113.191 735.247 Q113.191 743.973 110.112 748.58 Q107.057 753.163 101.246 753.163 Q95.4363 753.163 92.3576 748.58 Q89.3021 743.973 89.3021 735.247 Q89.3021 726.497 92.3576 721.913 Q95.4363 717.307 101.246 717.307 Z" fill="#000000" fill-rule="nonzero" fill-opacity="1" /><path clip-path="url(#clip490)" d="M96.8715 519.234 L113.191 519.234 L113.191 523.169 L91.2465 523.169 L91.2465 519.234 Q93.9086 516.48 98.4919 511.85 Q103.098 507.197 104.279 505.855 Q106.524 503.331 107.404 501.595 Q108.307 499.836 108.307 498.146 Q108.307 495.392 106.362 493.656 Q104.441 491.92 101.339 491.92 Q99.14 491.92 96.6863 492.683 Q94.2558 493.447 91.478 494.998 L91.478 490.276 Q94.3021 489.142 96.7558 488.563 Q99.2095 487.984 101.246 487.984 Q106.617 487.984 109.811 490.67 Q113.006 493.355 113.006 497.845 Q113.006 499.975 112.196 501.896 Q111.408 503.794 109.302 506.387 Q108.723 507.058 105.621 510.276 Q102.52 513.47 96.8715 519.234 Z" fill="#000000" fill-rule="nonzero" fill-opacity="1" /><path clip-path="url(#clip490)" d="M103.608 263.361 L91.8021 281.81 L103.608 281.81 L103.608 263.361 M102.381 259.287 L108.26 259.287 L108.26 281.81 L113.191 281.81 L113.191 285.699 L108.26 285.699 L108.26 293.847 L103.608 293.847 L103.608 285.699 L88.0058 285.699 L88.0058 281.185 L102.381 259.287 Z" fill="#000000" fill-rule="nonzero" fill-opacity="1" /><path clip-path="url(#clip490)" d="M101.663 45.3807 Q98.515 45.3807 96.6632 47.5334 Q94.8345 49.6862 94.8345 53.4362 Q94.8345 57.163 96.6632 59.3389 Q98.515 61.4917 101.663 61.4917 Q104.811 61.4917 106.64 59.3389 Q108.492 57.163 108.492 53.4362 Q108.492 49.6862 106.64 47.5334 Q104.811 45.3807 101.663 45.3807 M110.946 30.728 L110.946 34.9872 Q109.186 34.1539 107.381 33.7141 Q105.598 33.2743 103.839 33.2743 Q99.2095 33.2743 96.7558 36.3992 Q94.3252 39.5242 93.978 45.8436 Q95.3437 43.8298 97.4039 42.765 Q99.4641 41.677 101.941 41.677 Q107.149 41.677 110.158 44.8483 Q113.191 47.9964 113.191 53.4362 Q113.191 58.7602 110.043 61.9778 Q106.895 65.1954 101.663 65.1954 Q95.6678 65.1954 92.4965 60.6121 Q89.3253 56.0056 89.3253 47.2788 Q89.3253 39.0844 93.2141 34.2233 Q97.103 29.3391 103.654 29.3391 Q105.413 29.3391 107.196 29.6863 Q109.001 30.0335 110.946 30.728 Z" fill="#000000" fill-rule="nonzero" fill-opacity="1" /><polyline clip-path="url(#clip492)" style="stroke:#009af9; stroke-linecap:round; stroke-linejoin:round; stroke-width:12; stroke-opacity:1; fill:none" points="149.191,1193.86 151.945,1193.78 154.7,1193.56 157.454,1193.2 160.209,1192.7 162.963,1192.08 165.718,1191.33 168.472,1190.47 171.227,1189.49 173.981,1188.41 176.735,1187.22 179.49,1185.93 182.244,1184.55 184.999,1183.08 187.753,1181.53 190.508,1179.9 193.262,1178.19 196.017,1176.4 198.771,1174.55 201.526,1172.63 204.28,1170.64 207.034,1168.6 209.789,1166.5 212.543,1164.34 215.298,1162.14 218.052,1159.88 220.807,1157.58 223.561,1155.24 226.316,1152.86 229.07,1150.44 231.825,1147.98 234.579,1145.49 237.333,1142.97 240.088,1140.41 242.842,1137.83 245.597,1135.22 248.351,1132.59 251.106,1129.93 253.86,1127.25 256.615,1124.55 259.369,1121.83 262.124,1119.1 264.878,1116.34 267.632,1113.58 270.387,1110.79 273.141,1108 275.896,1105.19 278.65,1102.37 281.405,1099.54 284.159,1096.7 286.914,1093.85 289.668,1090.99 292.423,1088.13 295.177,1085.26 297.932,1082.38 300.686,1079.5 303.44,1076.61 306.195,1073.71 308.949,1070.82 311.704,1067.92 314.458,1065.01 317.213,1062.1 319.967,1059.19 322.722,1056.28 325.476,1053.36 328.231,1050.44 330.985,1047.52 333.739,1044.6 336.494,1041.68 339.248,1038.76 342.003,1035.83 344.757,1032.91 347.512,1029.98 350.266,1027.05 353.021,1024.13 355.775,1021.2 358.53,1018.27 361.284,1015.34 364.038,1012.41 366.793,1009.48 369.547,1006.55 372.302,1003.62 375.056,1000.69 377.811,997.765 380.565,994.835 383.32,991.905 386.074,988.976 388.829,986.046 391.583,983.116 394.337,980.186 397.092,977.256 399.846,974.327 402.601,971.397 405.355,968.468 408.11,965.538 410.864,962.609 413.619,959.679 416.373,956.749 419.128,953.82 421.882,950.89 424.636,947.961 427.391,945.031 430.145,942.101 432.9,939.172 435.654,936.242 438.409,933.313 441.163,930.383 443.918,927.454 446.672,924.525 449.427,921.596 452.181,918.667 454.936,915.738 457.69,912.81 460.444,909.882 463.199,906.954 465.953,904.027 468.708,901.1 471.462,898.173 474.217,895.247 476.971,892.322 479.726,889.397 482.48,886.473 485.235,883.549 487.989,880.626 490.743,877.705 493.498,874.784 496.252,871.864 499.007,868.945 501.761,866.027 504.516,863.11 507.27,860.195 510.025,857.281 512.779,854.368 515.534,851.457 518.288,848.548 521.042,845.64 523.797,842.734 526.551,839.829 529.306,836.927 532.06,834.027 534.815,831.129 537.569,828.233 540.324,825.34 543.078,822.449 545.833,819.56 548.587,816.674 551.341,813.791 554.096,810.911 556.85,808.033 559.605,805.159 562.359,802.288 565.114,799.42 567.868,796.555 570.623,793.694 573.377,790.837 576.132,787.983 578.886,785.132 581.641,782.286 584.395,779.443 587.149,776.605 589.904,773.77 592.658,770.94 595.413,768.114 598.167,765.292 600.922,762.475 603.676,759.663 606.431,756.855 609.185,754.052 611.94,751.254 614.694,748.461 617.448,745.673 620.203,742.89 622.957,740.113 625.712,737.341 628.466,734.574 631.221,731.813 633.975,729.058 636.73,726.308 639.484,723.564 642.239,720.827 644.993,718.095 647.747,715.37 650.502,712.65 653.256,709.937 656.011,707.231 658.765,704.53 661.52,701.837 664.274,699.15 667.029,696.47 669.783,693.796 672.538,691.13 675.292,688.47 678.046,685.818 680.801,683.172 683.555,680.534 686.31,677.903 689.064,675.279 691.819,672.662 694.573,670.053 697.328,667.452 700.082,664.858 702.837,662.272 705.591,659.693 708.345,657.122 711.1,654.559 713.854,652.004 716.609,649.457 719.363,646.918 722.118,644.387 724.872,641.864 727.627,639.349 730.381,636.842 733.136,634.344 735.89,631.854 738.645,629.372 741.399,626.899 744.153,624.434 746.908,621.978 749.662,619.53 752.417,617.091 755.171,614.66 757.926,612.238 760.68,609.825 763.435,607.421 766.189,605.025 768.944,602.639 771.698,600.261 774.452,597.892 777.207,595.532 779.961,593.181 782.716,590.839 785.47,588.506 788.225,586.183 790.979,583.868 793.734,581.563 796.488,579.266 799.243,576.979 801.997,574.701 804.751,572.432 807.506,570.172 810.26,567.922 813.015,565.681 815.769,563.45 818.524,561.227 821.278,559.015 824.033,556.811 826.787,554.617 829.542,552.432 832.296,550.257 835.05,548.091 837.805,545.935 840.559,543.788 843.314,541.65 846.068,539.522 848.823,537.404 851.577,535.295 854.332,533.195 857.086,531.105 859.841,529.025 862.595,526.954 865.349,524.892 868.104,522.84 870.858,520.798 873.613,518.765 876.367,516.741 879.122,514.728 881.876,512.723 884.631,510.729 887.385,508.744 890.14,506.768 892.894,504.802 895.649,502.846 898.403,500.899 901.157,498.962 903.912,497.034 906.666,495.116 909.421,493.207 912.175,491.308 914.93,489.419 917.684,487.539 920.439,485.668 923.193,483.808 925.948,481.956 928.702,480.114 931.456,478.282 934.211,476.459 936.965,474.646 939.72,472.842 942.474,471.048 945.229,469.263 947.983,467.488 950.738,465.722 953.492,463.966 956.247,462.218 959.001,460.481 961.755,458.753 964.51,457.034 967.264,455.325 970.019,453.624 972.773,451.934 975.528,450.253 978.282,448.58 981.037,446.917 983.791,445.264 986.546,443.62 989.3,441.985 992.054,440.359 994.809,438.743 997.563,437.135 1000.32,435.537 1003.07,433.948 1005.83,432.369 1008.58,430.798 1011.34,429.236 1014.09,427.683 1016.84,426.139 1019.6,424.605 1022.35,423.079 1025.11,421.563 1027.86,420.055 1030.62,418.556 1033.37,417.066 1036.13,415.586 1038.88,414.114 1041.63,412.65 1044.39,411.196 1047.14,409.751 1049.9,408.314 1052.65,406.886 1055.41,405.467 1058.16,404.057 1060.92,402.655 1063.67,401.262 1066.42,399.878 1069.18,398.503 1071.93,397.136 1074.69,395.777 1077.44,394.427 1080.2,393.086 1082.95,391.753 1085.71,390.429 1088.46,389.113 1091.21,387.806 1093.97,386.507 1096.72,385.216 1099.48,383.934 1102.23,382.661 1104.99,381.395 1107.74,380.138 1110.5,378.889 1113.25,377.648 1116.01,376.416 1118.76,375.192 1121.51,373.976 1124.27,372.768 1127.02,371.568 1129.78,370.376 1132.53,369.193 1135.29,368.017 1138.04,366.85 1140.8,365.69 1143.55,364.539 1146.3,363.395 1149.06,362.259 1151.81,361.132 1154.57,360.012 1157.32,358.899 1160.08,357.795 1162.83,356.699 1165.59,355.61 1168.34,354.529 1171.09,353.456 1173.85,352.39 1176.6,351.332 1179.36,350.282 1182.11,349.239 1184.87,348.204 1187.62,347.176 1190.38,346.156 1193.13,345.144 1195.88,344.139 1198.64,343.141 1201.39,342.15 1204.15,341.168 1206.9,340.192 1209.66,339.224 1212.41,338.263 1215.17,337.309 1217.92,336.363 1220.67,335.424 1223.43,334.492 1226.18,333.567 1228.94,332.649 1231.69,331.738 1234.45,330.835 1237.2,329.938 1239.96,329.049 1242.71,328.166 1245.46,327.291 1248.22,326.422 1250.97,325.561 1253.73,324.706 1256.48,323.858 1259.24,323.017 1261.99,322.182 1264.75,321.355 1267.5,320.534 1270.25,319.719 1273.01,318.912 1275.76,318.111 1278.52,317.317 1281.27,316.529 1284.03,315.748 1286.78,314.974 1289.54,314.206 1292.29,313.444 1295.04,312.69 1297.8,311.941 1300.55,311.199 1303.31,310.463 1306.06,309.734 1308.82,309.011 1311.57,308.294 1314.33,307.584 1317.08,306.88 1319.83,306.182 1322.59,305.49 1325.34,304.805 1328.1,304.125 1330.85,303.452 1333.61,302.785 1336.36,302.124 1339.12,301.469 1341.87,300.82 1344.62,300.177 1347.38,299.54 1350.13,298.908 1352.89,298.283 1355.64,297.664 1358.4,297.051 1361.15,296.443 1363.91,295.841 1366.66,295.245 1369.41,294.655 1372.17,294.07 1374.92,293.491 1377.68,292.918 1380.43,292.351 1383.19,291.789 1385.94,291.233 1388.7,290.682 1391.45,290.137 1394.21,289.598 1396.96,289.064 1399.71,288.535 1402.47,288.012 1405.22,287.494 1407.98,286.982 1410.73,286.475 1413.49,285.974 1416.24,285.477 1419,284.987 1421.75,284.501 1424.5,284.021 1427.26,283.546 1430.01,283.076 1432.77,282.611 1435.52,282.152 1438.28,281.697 1441.03,281.248 1443.79,280.804 1446.54,280.365 1449.29,279.931 1452.05,279.502 1454.8,279.078 1457.56,278.659 1460.31,278.245 1463.07,277.836 1465.82,277.431 1468.58,277.032 1471.33,276.638 1474.08,276.248 1476.84,275.863 1479.59,275.483 1482.35,275.108 1485.1,274.738 1487.86,274.372 1490.61,274.011 1493.37,273.654 1496.12,273.303 1498.87,272.955 1501.63,272.613 1504.38,272.275 1507.14,271.942 1509.89,271.613 1512.65,271.289 1515.4,270.969 1518.16,270.654 1520.91,270.343 1523.66,270.036 1526.42,269.734 1529.17,269.437 1531.93,269.144 1534.68,268.855 1537.44,268.57 1540.19,268.29 1542.95,268.014 1545.7,267.742 1548.45,267.475 1551.21,267.212 1553.96,266.953 1556.72,266.698 1559.47,266.447 1562.23,266.201 1564.98,265.958 1567.74,265.72 1570.49,265.486 1573.24,265.255 1576,265.029 1578.75,264.807 1581.51,264.589 1584.26,264.375 1587.02,264.164 1589.77,263.958 1592.53,263.756 1595.28,263.557 1598.03,263.362 1600.79,263.172 1603.54,262.985 1606.3,262.801 1609.05,262.622 1611.81,262.446 1614.56,262.275 1617.32,262.106 1620.07,261.942 1622.82,261.781 1625.58,261.624 1628.33,261.471 1631.09,261.321 1633.84,261.175 1636.6,261.033 1639.35,260.894 1642.11,260.759 1644.86,260.627 1647.62,260.499 1650.37,260.374 1653.12,260.253 1655.88,260.135 1658.63,260.021 1661.39,259.91 1664.14,259.803 1666.9,259.699 1669.65,259.599 1672.41,259.501 1675.16,259.408 1677.91,259.317 1680.67,259.23 1683.42,259.146 1686.18,259.066 1688.93,258.988 1691.69,258.914 1694.44,258.844 1697.2,258.776 1699.95,258.712 1702.7,258.651 1705.46,258.593 1708.21,258.538 1710.97,258.486 1713.72,258.438 1716.48,258.392 1719.23,258.35 1721.99,258.31 1724.74,258.274 1727.49,258.241 1730.25,258.211 1733,258.184 1735.76,258.16 1738.51,258.138 1741.27,258.12 1744.02,258.105 1746.78,258.093 1749.53,258.083 1752.28,258.077 1755.04,258.073 1757.79,258.072 1760.55,258.074 1763.3,258.079 1766.06,258.087 1768.81,258.098 1771.57,258.111 1774.32,258.127 1777.07,258.146 1779.83,258.168 1782.58,258.192 1785.34,258.219 1788.09,258.249 1790.85,258.282 1793.6,258.317 1796.36,258.355 1799.11,258.395 1801.86,258.438 1804.62,258.484 1807.37,258.532 1810.13,258.583 1812.88,258.637 1815.64,258.693 1818.39,258.751 1821.15,258.813 1823.9,258.876 1826.65,258.943 1829.41,259.011 1832.16,259.082 1834.92,259.156 1837.67,259.232 1840.43,259.311 1843.18,259.392 1845.94,259.475 1848.69,259.561 1851.44,259.649 1854.2,259.739 1856.95,259.832 1859.71,259.927 1862.46,260.025 1865.22,260.125 1867.97,260.227 1870.73,260.332 1873.48,260.438 1876.23,260.547 1878.99,260.659 1881.74,260.772 1884.5,260.888 1887.25,261.006 1890.01,261.126 1892.76,261.249 1895.52,261.373 1898.27,261.5 1901.03,261.629 1903.78,261.76 1906.53,261.893 1909.29,262.029 1912.04,262.166 1914.8,262.306 1917.55,262.447 1920.31,262.591 1923.06,262.737 1925.82,262.885 1928.57,263.035 1931.32,263.186 1934.08,263.341 1936.83,263.496 1939.59,263.654 1942.34,263.814 1945.1,263.976 1947.85,264.14 1950.61,264.306 1953.36,264.474 1956.11,264.644 1958.87,264.816 1961.62,264.989 1964.38,265.165 1967.13,265.342 1969.89,265.521 1972.64,265.703 1975.4,265.886 1978.15,266.071 1980.9,266.257 1983.66,266.446 1986.41,266.636 1989.17,266.829 1991.92,267.023 1994.68,267.218 1997.43,267.416 2000.19,267.615 2002.94,267.817 2005.69,268.02 2008.45,268.224 2011.2,268.431 2013.96,268.639 2016.71,268.849 2019.47,269.06 2022.22,269.273 2024.98,269.488 2027.73,269.705 2030.48,269.923 2033.24,270.143 2035.99,270.364 2038.75,270.588 2041.5,270.812 2044.26,271.039 2047.01,271.267 2049.77,271.497 2052.52,271.728 2055.27,271.961 2058.03,272.195 2060.78,272.431 2063.54,272.669 2066.29,272.908 2069.05,273.148 2071.8,273.39 2074.56,273.634 2077.31,273.879 2080.06,274.126 2082.82,274.374 2085.57,274.624 2088.33,274.875 2091.08,275.128 2093.84,275.382 2096.59,275.637 2099.35,275.894 2102.1,276.153 2104.85,276.413 2107.61,276.674 2110.36,276.937 2113.12,277.201 2115.87,277.467 2118.63,277.733 2121.38,278.002 2124.14,278.271 2126.89,278.542 2129.64,278.815 2132.4,279.089 2135.15,279.364 2137.91,279.64 2140.66,279.918 2143.42,280.197 2146.17,280.478 2148.93,280.759 2151.68,281.042 2154.44,281.327 2157.19,281.612 2159.94,281.899 2162.7,282.187 2165.45,282.477 2168.21,282.767 2170.96,283.059 2173.72,283.352 2176.47,283.647 2179.23,283.942 2181.98,284.239 2184.73,284.537 2187.49,284.836 2190.24,285.137 2193,285.438 2195.75,285.741 2198.51,286.045 2201.26,286.35 2204.02,286.657 2206.77,286.964 2209.52,287.273 2212.28,287.583 2215.03,287.894 2217.79,288.206 2220.54,288.519 2223.3,288.833 2226.05,289.148 2228.81,289.465 2231.56,289.783 2234.31,290.101 2237.07,290.421 2239.82,290.742 2242.58,291.064 2245.33,291.387 2248.09,291.711 2250.84,292.036 2253.6,292.362 2256.35,292.689 2259.1,293.018 2261.86,293.347 2264.61,293.677 2267.37,294.008 2270.12,294.341 2272.88,294.674 2275.63,295.008 2278.39,295.344 2281.14,295.68 2283.89,296.017 2286.65,296.356 2289.4,296.695 2292.16,297.035 2294.91,297.376 2297.67,297.718 2300.42,298.061 2303.18,298.405 2305.93,298.75 2308.68,299.096 2311.44,299.443 2314.19,299.791 2316.95,300.14 2319.7,300.489 2322.46,300.84 2325.21,301.191 2327.97,301.543 2330.72,301.897 2333.47,302.251 2336.23,302.606 2338.98,302.961 2341.74,303.318 2344.49,303.676 2347.25,304.034 2350,304.394 2352.76,304.754 "/>
<polyline clip-path="url(#clip492)" style="stroke:#e26f46; stroke-linecap:round; stroke-linejoin:round; stroke-width:12; stroke-opacity:1; fill:none" points="149.191,735.212 151.945,720.281 154.7,705.969 157.454,692.257 160.209,679.125 162.963,666.554 165.718,654.526 168.472,643.023 171.227,632.026 173.981,621.52 176.735,611.487 179.49,601.911 182.244,592.775 184.999,584.065 187.753,575.765 190.508,567.86 193.262,560.335 196.017,553.177 198.771,546.373 201.526,539.907 204.28,533.769 207.034,527.945 209.789,522.422 212.543,517.189 215.298,512.234 218.052,507.545 220.807,503.112 223.561,498.924 226.316,494.971 229.07,491.242 231.825,487.728 234.579,484.419 237.333,481.306 240.088,478.38 242.842,475.632 245.597,473.055 248.351,470.64 251.106,468.379 253.86,466.265 256.615,464.291 259.369,462.448 262.124,460.731 264.878,459.133 267.632,457.648 270.387,456.268 273.141,454.99 275.896,453.806 278.65,452.711 281.405,451.701 284.159,450.771 286.914,449.914 289.668,449.128 292.423,448.407 295.177,447.747 297.932,447.145 300.686,446.597 303.44,446.099 306.195,445.647 308.949,445.239 311.704,444.87 314.458,444.539 317.213,444.242 319.967,443.976 322.722,443.739 325.476,443.528 328.231,443.341 330.985,443.176 333.739,443.032 336.494,442.905 339.248,442.795 342.003,442.699 344.757,442.617 347.512,442.547 350.266,442.487 353.021,442.437 355.775,442.394 358.53,442.359 361.284,442.33 364.038,442.307 366.793,442.289 369.547,442.274 372.302,442.264 375.056,442.256 377.811,442.251 380.565,442.247 383.32,442.245 386.074,442.244 388.829,442.244 391.583,442.244 394.337,442.245 397.092,442.245 399.846,442.246 402.601,442.246 405.355,442.246 408.11,442.245 410.864,442.245 413.619,442.244 416.373,442.244 419.128,442.244 421.882,442.245 424.636,442.247 427.391,442.249 430.145,442.252 432.9,442.256 435.654,442.262 438.409,442.269 441.163,442.278 443.918,442.289 446.672,442.303 449.427,442.319 452.181,442.339 454.936,442.361 457.69,442.387 460.444,442.417 463.199,442.451 465.953,442.49 468.708,442.533 471.462,442.58 474.217,442.633 476.971,442.691 479.726,442.754 482.48,442.823 485.235,442.898 487.989,442.98 490.743,443.067 493.498,443.162 496.252,443.263 499.007,443.372 501.761,443.487 504.516,443.611 507.27,443.742 510.025,443.881 512.779,444.028 515.534,444.184 518.288,444.348 521.042,444.521 523.797,444.704 526.551,444.895 529.306,445.095 532.06,445.304 534.815,445.523 537.569,445.752 540.324,445.99 543.078,446.237 545.833,446.494 548.587,446.761 551.341,447.038 554.096,447.324 556.85,447.62 559.605,447.927 562.359,448.243 565.114,448.569 567.868,448.906 570.623,449.252 573.377,449.609 576.132,449.975 578.886,450.352 581.641,450.739 584.395,451.136 587.149,451.543 589.904,451.96 592.658,452.388 595.413,452.825 598.167,453.272 600.922,453.73 603.676,454.197 606.431,454.674 609.185,455.162 611.94,455.658 614.694,456.165 617.448,456.682 620.203,457.207 622.957,457.743 625.712,458.288 628.466,458.842 631.221,459.406 633.975,459.979 636.73,460.56 639.484,461.151 642.239,461.751 644.993,462.359 647.747,462.976 650.502,463.602 653.256,464.236 656.011,464.878 658.765,465.528 661.52,466.187 664.274,466.854 667.029,467.528 669.783,468.211 672.538,468.901 675.292,469.599 678.046,470.304 680.801,471.016 683.555,471.736 686.31,472.463 689.064,473.197 691.819,473.938 694.573,474.685 697.328,475.439 700.082,476.199 702.837,476.966 705.591,477.74 708.345,478.519 711.1,479.304 713.854,480.095 716.609,480.893 719.363,481.695 722.118,482.504 724.872,483.317 727.627,484.137 730.381,484.961 733.136,485.79 735.89,486.625 738.645,487.464 741.399,488.308 744.153,489.157 746.908,490.011 749.662,490.868 752.417,491.731 755.171,492.597 757.926,493.468 760.68,494.342 763.435,495.221 766.189,496.103 768.944,496.989 771.698,497.878 774.452,498.771 777.207,499.667 779.961,500.567 782.716,501.47 785.47,502.376 788.225,503.284 790.979,504.196 793.734,505.11 796.488,506.027 799.243,506.946 801.997,507.868 804.751,508.793 807.506,509.719 810.26,510.648 813.015,511.578 815.769,512.511 818.524,513.446 821.278,514.382 824.033,515.32 826.787,516.26 829.542,517.202 832.296,518.145 835.05,519.089 837.805,520.034 840.559,520.981 843.314,521.929 846.068,522.879 848.823,523.829 851.577,524.78 854.332,525.732 857.086,526.685 859.841,527.639 862.595,528.593 865.349,529.548 868.104,530.503 870.858,531.459 873.613,532.415 876.367,533.372 879.122,534.328 881.876,535.285 884.631,536.242 887.385,537.2 890.14,538.157 892.894,539.114 895.649,540.071 898.403,541.027 901.157,541.984 903.912,542.94 906.666,543.896 909.421,544.852 912.175,545.807 914.93,546.761 917.684,547.715 920.439,548.668 923.193,549.621 925.948,550.573 928.702,551.524 931.456,552.474 934.211,553.423 936.965,554.372 939.72,555.319 942.474,556.265 945.229,557.211 947.983,558.155 950.738,559.098 953.492,560.04 956.247,560.981 959.001,561.92 961.755,562.858 964.51,563.795 967.264,564.73 970.019,565.664 972.773,566.596 975.528,567.527 978.282,568.457 981.037,569.385 983.791,570.311 986.546,571.235 989.3,572.158 992.054,573.079 994.809,573.999 997.563,574.916 1000.32,575.832 1003.07,576.747 1005.83,577.659 1008.58,578.569 1011.34,579.478 1014.09,580.385 1016.84,581.289 1019.6,582.192 1022.35,583.093 1025.11,583.992 1027.86,584.889 1030.62,585.783 1033.37,586.676 1036.13,587.566 1038.88,588.455 1041.63,589.341 1044.39,590.225 1047.14,591.107 1049.9,591.986 1052.65,592.863 1055.41,593.738 1058.16,594.611 1060.92,595.482 1063.67,596.35 1066.42,597.216 1069.18,598.079 1071.93,598.94 1074.69,599.799 1077.44,600.656 1080.2,601.51 1082.95,602.361 1085.71,603.21 1088.46,604.057 1091.21,604.902 1093.97,605.743 1096.72,606.583 1099.48,607.42 1102.23,608.254 1104.99,609.086 1107.74,609.915 1110.5,610.742 1113.25,611.566 1116.01,612.388 1118.76,613.207 1121.51,614.024 1124.27,614.838 1127.02,615.649 1129.78,616.458 1132.53,617.264 1135.29,618.068 1138.04,618.869 1140.8,619.667 1143.55,620.463 1146.3,621.256 1149.06,622.046 1151.81,622.834 1154.57,623.619 1157.32,624.401 1160.08,625.181 1162.83,625.958 1165.59,626.732 1168.34,627.503 1171.09,628.272 1173.85,629.038 1176.6,629.802 1179.36,630.562 1182.11,631.32 1184.87,632.076 1187.62,632.828 1190.38,633.578 1193.13,634.325 1195.88,635.069 1198.64,635.811 1201.39,636.55 1204.15,637.285 1206.9,638.019 1209.66,638.749 1212.41,639.477 1215.17,640.202 1217.92,640.925 1220.67,641.644 1223.43,642.361 1226.18,643.075 1228.94,643.786 1231.69,644.495 1234.45,645.201 1237.2,645.904 1239.96,646.604 1242.71,647.302 1245.46,647.996 1248.22,648.688 1250.97,649.378 1253.73,650.065 1256.48,650.749 1259.24,651.43 1261.99,652.108 1264.75,652.784 1267.5,653.457 1270.25,654.128 1273.01,654.795 1275.76,655.46 1278.52,656.122 1281.27,656.782 1284.03,657.438 1286.78,658.092 1289.54,658.744 1292.29,659.392 1295.04,660.038 1297.8,660.681 1300.55,661.322 1303.31,661.96 1306.06,662.595 1308.82,663.227 1311.57,663.857 1314.33,664.484 1317.08,665.109 1319.83,665.731 1322.59,666.35 1325.34,666.966 1328.1,667.58 1330.85,668.192 1333.61,668.8 1336.36,669.406 1339.12,670.01 1341.87,670.61 1344.62,671.209 1347.38,671.804 1350.13,672.397 1352.89,672.987 1355.64,673.575 1358.4,674.161 1361.15,674.743 1363.91,675.323 1366.66,675.901 1369.41,676.476 1372.17,677.048 1374.92,677.618 1377.68,678.185 1380.43,678.75 1383.19,679.313 1385.94,679.872 1388.7,680.43 1391.45,680.984 1394.21,681.537 1396.96,682.086 1399.71,682.634 1402.47,683.178 1405.22,683.721 1407.98,684.26 1410.73,684.798 1413.49,685.333 1416.24,685.865 1419,686.395 1421.75,686.923 1424.5,687.448 1427.26,687.971 1430.01,688.491 1432.77,689.009 1435.52,689.524 1438.28,690.037 1441.03,690.548 1443.79,691.056 1446.54,691.562 1449.29,692.066 1452.05,692.567 1454.8,693.066 1457.56,693.562 1460.31,694.056 1463.07,694.548 1465.82,695.038 1468.58,695.525 1471.33,696.01 1474.08,696.492 1476.84,696.972 1479.59,697.45 1482.35,697.926 1485.1,698.399 1487.86,698.87 1490.61,699.339 1493.37,699.806 1496.12,700.27 1498.87,700.732 1501.63,701.192 1504.38,701.649 1507.14,702.105 1509.89,702.558 1512.65,703.009 1515.4,703.458 1518.16,703.904 1520.91,704.349 1523.66,704.791 1526.42,705.231 1529.17,705.669 1531.93,706.105 1534.68,706.538 1537.44,706.97 1540.19,707.399 1542.95,707.827 1545.7,708.252 1548.45,708.674 1551.21,709.096 1553.96,709.514 1556.72,709.931 1559.47,710.346 1562.23,710.758 1564.98,711.169 1567.74,711.578 1570.49,711.984 1573.24,712.389 1576,712.791 1578.75,713.192 1581.51,713.59 1584.26,713.986 1587.02,714.381 1589.77,714.774 1592.53,715.164 1595.28,715.553 1598.03,715.939 1600.79,716.324 1603.54,716.707 1606.3,717.088 1609.05,717.467 1611.81,717.843 1614.56,718.219 1617.32,718.592 1620.07,718.963 1622.82,719.332 1625.58,719.7 1628.33,720.065 1631.09,720.429 1633.84,720.791 1636.6,721.151 1639.35,721.509 1642.11,721.865 1644.86,722.22 1647.62,722.573 1650.37,722.923 1653.12,723.273 1655.88,723.62 1658.63,723.965 1661.39,724.309 1664.14,724.651 1666.9,724.991 1669.65,725.33 1672.41,725.666 1675.16,726.001 1677.91,726.334 1680.67,726.666 1683.42,726.996 1686.18,727.324 1688.93,727.65 1691.69,727.975 1694.44,728.297 1697.2,728.619 1699.95,728.938 1702.7,729.256 1705.46,729.572 1708.21,729.887 1710.97,730.2 1713.72,730.511 1716.48,730.821 1719.23,731.129 1721.99,731.435 1724.74,731.74 1727.49,732.044 1730.25,732.345 1733,732.645 1735.76,732.944 1738.51,733.241 1741.27,733.536 1744.02,733.83 1746.78,734.122 1749.53,734.412 1752.28,734.702 1755.04,734.989 1757.79,735.275 1760.55,735.56 1763.3,735.843 1766.06,736.124 1768.81,736.404 1771.57,736.683 1774.32,736.96 1777.07,737.236 1779.83,737.51 1782.58,737.782 1785.34,738.054 1788.09,738.323 1790.85,738.592 1793.6,738.858 1796.36,739.124 1799.11,739.388 1801.86,739.65 1804.62,739.912 1807.37,740.171 1810.13,740.43 1812.88,740.687 1815.64,740.942 1818.39,741.197 1821.15,741.449 1823.9,741.701 1826.65,741.951 1829.41,742.2 1832.16,742.447 1834.92,742.693 1837.67,742.938 1840.43,743.182 1843.18,743.424 1845.94,743.665 1848.69,743.904 1851.44,744.142 1854.2,744.379 1856.95,744.615 1859.71,744.849 1862.46,745.082 1865.22,745.314 1867.97,745.545 1870.73,745.774 1873.48,746.002 1876.23,746.229 1878.99,746.454 1881.74,746.679 1884.5,746.902 1887.25,747.123 1890.01,747.344 1892.76,747.564 1895.52,747.782 1898.27,747.999 1901.03,748.215 1903.78,748.429 1906.53,748.643 1909.29,748.855 1912.04,749.066 1914.8,749.276 1917.55,749.485 1920.31,749.693 1923.06,749.899 1925.82,750.105 1928.57,750.309 1931.32,750.512 1934.08,750.714 1936.83,750.915 1939.59,751.115 1942.34,751.314 1945.1,751.511 1947.85,751.708 1950.61,751.903 1953.36,752.097 1956.11,752.291 1958.87,752.483 1961.62,752.674 1964.38,752.864 1967.13,753.053 1969.89,753.241 1972.64,753.428 1975.4,753.614 1978.15,753.799 1980.9,753.982 1983.66,754.165 1986.41,754.347 1989.17,754.528 1991.92,754.707 1994.68,754.886 1997.43,755.064 2000.19,755.241 2002.94,755.416 2005.69,755.591 2008.45,755.765 2011.2,755.938 2013.96,756.11 2016.71,756.281 2019.47,756.451 2022.22,756.62 2024.98,756.788 2027.73,756.955 2030.48,757.121 2033.24,757.286 2035.99,757.451 2038.75,757.614 2041.5,757.777 2044.26,757.938 2047.01,758.099 2049.77,758.259 2052.52,758.417 2055.27,758.575 2058.03,758.733 2060.78,758.889 2063.54,759.044 2066.29,759.199 2069.05,759.352 2071.8,759.505 2074.56,759.657 2077.31,759.808 2080.06,759.958 2082.82,760.107 2085.57,760.256 2088.33,760.403 2091.08,760.55 2093.84,760.696 2096.59,760.841 2099.35,760.985 2102.1,761.129 2104.85,761.271 2107.61,761.413 2110.36,761.554 2113.12,761.695 2115.87,761.834 2118.63,761.973 2121.38,762.111 2124.14,762.248 2126.89,762.384 2129.64,762.519 2132.4,762.654 2135.15,762.788 2137.91,762.921 2140.66,763.054 2143.42,763.186 2146.17,763.317 2148.93,763.447 2151.68,763.576 2154.44,763.705 2157.19,763.833 2159.94,763.96 2162.7,764.087 2165.45,764.213 2168.21,764.338 2170.96,764.462 2173.72,764.586 2176.47,764.709 2179.23,764.831 2181.98,764.953 2184.73,765.074 2187.49,765.194 2190.24,765.313 2193,765.432 2195.75,765.55 2198.51,765.668 2201.26,765.784 2204.02,765.901 2206.77,766.016 2209.52,766.131 2212.28,766.245 2215.03,766.358 2217.79,766.471 2220.54,766.583 2223.3,766.695 2226.05,766.806 2228.81,766.916 2231.56,767.026 2234.31,767.135 2237.07,767.243 2239.82,767.351 2242.58,767.458 2245.33,767.564 2248.09,767.67 2250.84,767.775 2253.6,767.88 2256.35,767.984 2259.1,768.088 2261.86,768.191 2264.61,768.293 2267.37,768.394 2270.12,768.496 2272.88,768.596 2275.63,768.696 2278.39,768.795 2281.14,768.894 2283.89,768.992 2286.65,769.09 2289.4,769.187 2292.16,769.284 2294.91,769.38 2297.67,769.475 2300.42,769.57 2303.18,769.664 2305.93,769.758 2308.68,769.851 2311.44,769.944 2314.19,770.036 2316.95,770.127 2319.7,770.219 2322.46,770.309 2325.21,770.399 2327.97,770.489 2330.72,770.578 2333.47,770.666 2336.23,770.754 2338.98,770.841 2341.74,770.928 2344.49,771.015 2347.25,771.101 2350,771.186 2352.76,771.271 "/>
<polyline clip-path="url(#clip492)" style="stroke:#3da44d; stroke-linecap:round; stroke-linejoin:round; stroke-width:12; stroke-opacity:1; fill:none" points="149.191,463.562 151.945,467.352 154.7,471.127 157.454,474.886 160.209,478.629 162.963,482.357 165.718,486.07 168.472,489.766 171.227,493.447 173.981,497.113 176.735,500.762 179.49,504.396 182.244,508.013 184.999,511.615 187.753,515.201 190.508,518.771 193.262,522.324 196.017,525.861 198.771,529.382 201.526,532.887 204.28,536.375 207.034,539.846 209.789,543.301 212.543,546.739 215.298,550.16 218.052,553.564 220.807,556.951 223.561,560.32 226.316,563.672 229.07,567.006 231.825,570.323 234.579,573.621 237.333,576.902 240.088,580.164 242.842,583.408 245.597,586.633 248.351,589.84 251.106,593.028 253.86,596.196 256.615,599.345 259.369,602.475 262.124,605.586 264.878,608.676 267.632,611.747 270.387,614.797 273.141,617.827 275.896,620.836 278.65,623.825 281.405,626.793 284.159,629.74 286.914,632.665 289.668,635.569 292.423,638.451 295.177,641.312 297.932,644.151 300.686,646.967 303.44,649.762 306.195,652.534 308.949,655.283 311.704,658.01 314.458,660.714 317.213,663.394 319.967,666.052 322.722,668.687 325.476,671.298 328.231,673.885 330.985,676.449 333.739,678.989 336.494,681.506 339.248,683.998 342.003,686.467 344.757,688.911 347.512,691.332 350.266,693.728 353.021,696.1 355.775,698.448 358.53,700.771 361.284,703.07 364.038,705.344 366.793,707.594 369.547,709.82 372.302,712.021 375.056,714.198 377.811,716.35 380.565,718.478 383.32,720.582 386.074,722.661 388.829,724.715 391.583,726.746 394.337,728.752 397.092,730.734 399.846,732.692 402.601,734.625 405.355,736.535 408.11,738.421 410.864,740.283 413.619,742.121 416.373,743.936 419.128,745.727 421.882,747.495 424.636,749.239 427.391,750.96 430.145,752.658 432.9,754.333 435.654,755.985 438.409,757.615 441.163,759.222 443.918,760.807 446.672,762.369 449.427,763.909 452.181,765.428 454.936,766.924 457.69,768.399 460.444,769.853 463.199,771.285 465.953,772.696 468.708,774.086 471.462,775.456 474.217,776.804 476.971,778.133 479.726,779.441 482.48,780.73 485.235,781.998 487.989,783.247 490.743,784.476 493.498,785.686 496.252,786.877 499.007,788.049 501.761,789.203 504.516,790.338 507.27,791.455 510.025,792.553 512.779,793.634 515.534,794.697 518.288,795.743 521.042,796.771 523.797,797.782 526.551,798.777 529.306,799.754 532.06,800.716 534.815,801.66 537.569,802.589 540.324,803.502 543.078,804.399 545.833,805.281 548.587,806.147 551.341,806.998 554.096,807.835 556.85,808.656 559.605,809.463 562.359,810.256 565.114,811.034 567.868,811.799 570.623,812.549 573.377,813.286 576.132,814.01 578.886,814.72 581.641,815.418 584.395,816.102 587.149,816.774 589.904,817.433 592.658,818.08 595.413,818.715 598.167,819.337 600.922,819.948 603.676,820.547 606.431,821.135 609.185,821.711 611.94,822.277 614.694,822.831 617.448,823.374 620.203,823.907 622.957,824.429 625.712,824.94 628.466,825.442 631.221,825.933 633.975,826.415 636.73,826.886 639.484,827.348 642.239,827.801 644.993,828.244 647.747,828.678 650.502,829.103 653.256,829.519 656.011,829.926 658.765,830.325 661.52,830.715 664.274,831.096 667.029,831.47 669.783,831.835 672.538,832.192 675.292,832.541 678.046,832.883 680.801,833.217 683.555,833.543 686.31,833.862 689.064,834.174 691.819,834.478 694.573,834.775 697.328,835.066 700.082,835.349 702.837,835.626 705.591,835.896 708.345,836.16 711.1,836.417 713.854,836.668 716.609,836.912 719.363,837.151 722.118,837.383 724.872,837.61 727.627,837.83 730.381,838.045 733.136,838.254 735.89,838.458 738.645,838.656 741.399,838.849 744.153,839.036 746.908,839.218 749.662,839.395 752.417,839.567 755.171,839.734 757.926,839.896 760.68,840.053 763.435,840.205 766.189,840.353 768.944,840.496 771.698,840.635 774.452,840.769 777.207,840.898 779.961,841.024 782.716,841.145 785.47,841.262 788.225,841.375 790.979,841.483 793.734,841.588 796.488,841.689 799.243,841.786 801.997,841.879 804.751,841.968 807.506,842.054 810.26,842.136 813.015,842.214 815.769,842.289 818.524,842.361 821.278,842.429 824.033,842.494 826.787,842.555 829.542,842.614 832.296,842.669 835.05,842.72 837.805,842.769 840.559,842.815 843.314,842.858 846.068,842.897 848.823,842.934 851.577,842.968 854.332,842.999 857.086,843.028 859.841,843.054 862.595,843.076 865.349,843.097 868.104,843.115 870.858,843.13 873.613,843.142 876.367,843.153 879.122,843.16 881.876,843.166 884.631,843.169 887.385,843.169 890.14,843.168 892.894,843.164 895.649,843.158 898.403,843.149 901.157,843.139 903.912,843.126 906.666,843.111 909.421,843.095 912.175,843.076 914.93,843.055 917.684,843.032 920.439,843.008 923.193,842.981 925.948,842.953 928.702,842.922 931.456,842.89 934.211,842.856 936.965,842.821 939.72,842.783 942.474,842.744 945.229,842.704 947.983,842.661 950.738,842.617 953.492,842.572 956.247,842.524 959.001,842.476 961.755,842.425 964.51,842.373 967.264,842.32 970.019,842.265 972.773,842.209 975.528,842.152 978.282,842.093 981.037,842.032 983.791,841.971 986.546,841.908 989.3,841.843 992.054,841.778 994.809,841.711 997.563,841.642 1000.32,841.573 1003.07,841.502 1005.83,841.431 1008.58,841.358 1011.34,841.284 1014.09,841.208 1016.84,841.132 1019.6,841.055 1022.35,840.976 1025.11,840.896 1027.86,840.816 1030.62,840.734 1033.37,840.651 1036.13,840.567 1038.88,840.483 1041.63,840.397 1044.39,840.31 1047.14,840.223 1049.9,840.134 1052.65,840.045 1055.41,839.954 1058.16,839.863 1060.92,839.771 1063.67,839.678 1066.42,839.584 1069.18,839.489 1071.93,839.394 1074.69,839.298 1077.44,839.201 1080.2,839.103 1082.95,839.004 1085.71,838.905 1088.46,838.805 1091.21,838.704 1093.97,838.602 1096.72,838.5 1099.48,838.397 1102.23,838.293 1104.99,838.189 1107.74,838.084 1110.5,837.978 1113.25,837.872 1116.01,837.765 1118.76,837.657 1121.51,837.549 1124.27,837.44 1127.02,837.331 1129.78,837.221 1132.53,837.11 1135.29,836.999 1138.04,836.888 1140.8,836.775 1143.55,836.662 1146.3,836.549 1149.06,836.435 1151.81,836.321 1154.57,836.206 1157.32,836.091 1160.08,835.975 1162.83,835.859 1165.59,835.742 1168.34,835.625 1171.09,835.507 1173.85,835.389 1176.6,835.27 1179.36,835.151 1182.11,835.032 1184.87,834.912 1187.62,834.792 1190.38,834.671 1193.13,834.55 1195.88,834.428 1198.64,834.307 1201.39,834.184 1204.15,834.062 1206.9,833.939 1209.66,833.815 1212.41,833.692 1215.17,833.568 1217.92,833.443 1220.67,833.319 1223.43,833.194 1226.18,833.068 1228.94,832.943 1231.69,832.817 1234.45,832.691 1237.2,832.564 1239.96,832.437 1242.71,832.31 1245.46,832.183 1248.22,832.055 1250.97,831.927 1253.73,831.799 1256.48,831.671 1259.24,831.542 1261.99,831.413 1264.75,831.284 1267.5,831.154 1270.25,831.025 1273.01,830.895 1275.76,830.765 1278.52,830.634 1281.27,830.504 1284.03,830.373 1286.78,830.242 1289.54,830.111 1292.29,829.98 1295.04,829.848 1297.8,829.716 1300.55,829.584 1303.31,829.452 1306.06,829.32 1308.82,829.188 1311.57,829.055 1314.33,828.922 1317.08,828.789 1319.83,828.656 1322.59,828.523 1325.34,828.39 1328.1,828.256 1330.85,828.123 1333.61,827.989 1336.36,827.855 1339.12,827.721 1341.87,827.587 1344.62,827.452 1347.38,827.318 1350.13,827.184 1352.89,827.049 1355.64,826.914 1358.4,826.779 1361.15,826.644 1363.91,826.509 1366.66,826.374 1369.41,826.239 1372.17,826.104 1374.92,825.968 1377.68,825.833 1380.43,825.697 1383.19,825.562 1385.94,825.426 1388.7,825.29 1391.45,825.154 1394.21,825.019 1396.96,824.883 1399.71,824.747 1402.47,824.611 1405.22,824.474 1407.98,824.338 1410.73,824.202 1413.49,824.066 1416.24,823.93 1419,823.793 1421.75,823.657 1424.5,823.521 1427.26,823.384 1430.01,823.248 1432.77,823.111 1435.52,822.975 1438.28,822.838 1441.03,822.702 1443.79,822.565 1446.54,822.429 1449.29,822.292 1452.05,822.155 1454.8,822.019 1457.56,821.882 1460.31,821.745 1463.07,821.609 1465.82,821.472 1468.58,821.336 1471.33,821.199 1474.08,821.062 1476.84,820.926 1479.59,820.789 1482.35,820.653 1485.1,820.516 1487.86,820.38 1490.61,820.243 1493.37,820.107 1496.12,819.97 1498.87,819.834 1501.63,819.697 1504.38,819.561 1507.14,819.425 1509.89,819.288 1512.65,819.152 1515.4,819.016 1518.16,818.88 1520.91,818.743 1523.66,818.607 1526.42,818.471 1529.17,818.335 1531.93,818.199 1534.68,818.063 1537.44,817.927 1540.19,817.791 1542.95,817.656 1545.7,817.52 1548.45,817.384 1551.21,817.249 1553.96,817.113 1556.72,816.978 1559.47,816.842 1562.23,816.707 1564.98,816.571 1567.74,816.436 1570.49,816.301 1573.24,816.166 1576,816.031 1578.75,815.896 1581.51,815.761 1584.26,815.626 1587.02,815.491 1589.77,815.357 1592.53,815.222 1595.28,815.087 1598.03,814.953 1600.79,814.819 1603.54,814.684 1606.3,814.55 1609.05,814.416 1611.81,814.282 1614.56,814.148 1617.32,814.014 1620.07,813.881 1622.82,813.747 1625.58,813.613 1628.33,813.48 1631.09,813.346 1633.84,813.213 1636.6,813.08 1639.35,812.947 1642.11,812.814 1644.86,812.681 1647.62,812.548 1650.37,812.415 1653.12,812.283 1655.88,812.15 1658.63,812.018 1661.39,811.886 1664.14,811.754 1666.9,811.621 1669.65,811.49 1672.41,811.358 1675.16,811.226 1677.91,811.094 1680.67,810.963 1683.42,810.831 1686.18,810.7 1688.93,810.569 1691.69,810.438 1694.44,810.307 1697.2,810.176 1699.95,810.045 1702.7,809.915 1705.46,809.784 1708.21,809.654 1710.97,809.524 1713.72,809.394 1716.48,809.264 1719.23,809.134 1721.99,809.004 1724.74,808.874 1727.49,808.745 1730.25,808.616 1733,808.486 1735.76,808.357 1738.51,808.228 1741.27,808.099 1744.02,807.971 1746.78,807.842 1749.53,807.714 1752.28,807.585 1755.04,807.457 1757.79,807.329 1760.55,807.201 1763.3,807.073 1766.06,806.946 1768.81,806.818 1771.57,806.691 1774.32,806.564 1777.07,806.436 1779.83,806.31 1782.58,806.183 1785.34,806.056 1788.09,805.929 1790.85,805.803 1793.6,805.677 1796.36,805.551 1799.11,805.425 1801.86,805.299 1804.62,805.173 1807.37,805.047 1810.13,804.922 1812.88,804.797 1815.64,804.672 1818.39,804.547 1821.15,804.422 1823.9,804.297 1826.65,804.172 1829.41,804.048 1832.16,803.924 1834.92,803.8 1837.67,803.676 1840.43,803.552 1843.18,803.428 1845.94,803.305 1848.69,803.181 1851.44,803.058 1854.2,802.935 1856.95,802.812 1859.71,802.689 1862.46,802.567 1865.22,802.444 1867.97,802.322 1870.73,802.2 1873.48,802.078 1876.23,801.956 1878.99,801.834 1881.74,801.713 1884.5,801.591 1887.25,801.47 1890.01,801.349 1892.76,801.228 1895.52,801.107 1898.27,800.987 1901.03,800.866 1903.78,800.746 1906.53,800.626 1909.29,800.506 1912.04,800.386 1914.8,800.266 1917.55,800.147 1920.31,800.027 1923.06,799.908 1925.82,799.789 1928.57,799.67 1931.32,799.552 1934.08,799.433 1936.83,799.315 1939.59,799.196 1942.34,799.078 1945.1,798.96 1947.85,798.843 1950.61,798.725 1953.36,798.608 1956.11,798.49 1958.87,798.373 1961.62,798.256 1964.38,798.139 1967.13,798.023 1969.89,797.906 1972.64,797.79 1975.4,797.674 1978.15,797.558 1980.9,797.442 1983.66,797.326 1986.41,797.211 1989.17,797.095 1991.92,796.98 1994.68,796.865 1997.43,796.75 2000.19,796.636 2002.94,796.521 2005.69,796.407 2008.45,796.293 2011.2,796.179 2013.96,796.065 2016.71,795.951 2019.47,795.837 2022.22,795.724 2024.98,795.611 2027.73,795.498 2030.48,795.385 2033.24,795.272 2035.99,795.16 2038.75,795.047 2041.5,794.935 2044.26,794.823 2047.01,794.711 2049.77,794.599 2052.52,794.488 2055.27,794.376 2058.03,794.265 2060.78,794.154 2063.54,794.043 2066.29,793.932 2069.05,793.822 2071.8,793.711 2074.56,793.601 2077.31,793.491 2080.06,793.381 2082.82,793.271 2085.57,793.162 2088.33,793.052 2091.08,792.943 2093.84,792.834 2096.59,792.725 2099.35,792.616 2102.1,792.508 2104.85,792.399 2107.61,792.291 2110.36,792.183 2113.12,792.075 2115.87,791.967 2118.63,791.86 2121.38,791.752 2124.14,791.645 2126.89,791.538 2129.64,791.431 2132.4,791.324 2135.15,791.218 2137.91,791.111 2140.66,791.005 2143.42,790.899 2146.17,790.793 2148.93,790.687 2151.68,790.582 2154.44,790.476 2157.19,790.371 2159.94,790.266 2162.7,790.161 2165.45,790.056 2168.21,789.951 2170.96,789.847 2173.72,789.743 2176.47,789.639 2179.23,789.535 2181.98,789.431 2184.73,789.327 2187.49,789.224 2190.24,789.12 2193,789.017 2195.75,788.914 2198.51,788.812 2201.26,788.709 2204.02,788.606 2206.77,788.504 2209.52,788.402 2212.28,788.3 2215.03,788.198 2217.79,788.097 2220.54,787.995 2223.3,787.894 2226.05,787.793 2228.81,787.692 2231.56,787.591 2234.31,787.49 2237.07,787.39 2239.82,787.289 2242.58,787.189 2245.33,787.089 2248.09,786.989 2250.84,786.889 2253.6,786.79 2256.35,786.691 2259.1,786.591 2261.86,786.492 2264.61,786.394 2267.37,786.295 2270.12,786.196 2272.88,786.098 2275.63,786 2278.39,785.902 2281.14,785.804 2283.89,785.706 2286.65,785.608 2289.4,785.511 2292.16,785.414 2294.91,785.317 2297.67,785.22 2300.42,785.123 2303.18,785.026 2305.93,784.93 2308.68,784.833 2311.44,784.737 2314.19,784.641 2316.95,784.546 2319.7,784.45 2322.46,784.354 2325.21,784.259 2327.97,784.164 2330.72,784.069 2333.47,783.974 2336.23,783.879 2338.98,783.785 2341.74,783.69 2344.49,783.596 2347.25,783.502 2350,783.408 2352.76,783.314 "/>
<path clip-path="url(#clip490)" d="M222.643 300.469 L532.096 300.469 L532.096 93.1086 L222.643 93.1086  Z" fill="#ffffff" fill-rule="evenodd" fill-opacity="1"/>
<polyline clip-path="url(#clip490)" style="stroke:#000000; stroke-linecap:round; stroke-linejoin:round; stroke-width:4; stroke-opacity:1; fill:none" points="222.643,300.469 532.096,300.469 532.096,93.1086 222.643,93.1086 222.643,300.469 "/>
<polyline clip-path="url(#clip490)" style="stroke:#009af9; stroke-linecap:round; stroke-linejoin:round; stroke-width:12; stroke-opacity:1; fill:none" points="247.127,144.949 394.031,144.949 "/>
<path clip-path="url(#clip490)" d="M418.515 151.997 L418.515 136.303 L422.775 136.303 L422.775 151.835 Q422.775 155.516 424.21 157.368 Q425.645 159.196 428.515 159.196 Q431.964 159.196 433.955 156.997 Q435.969 154.798 435.969 151.002 L435.969 136.303 L440.228 136.303 L440.228 162.229 L435.969 162.229 L435.969 158.247 Q434.418 160.608 432.358 161.766 Q430.321 162.9 427.613 162.9 Q423.145 162.9 420.83 160.122 Q418.515 157.344 418.515 151.997 M429.233 135.678 L429.233 135.678 Z" fill="#000000" fill-rule="nonzero" fill-opacity="1" /><path clip-path="url(#clip490)" d="M448.608 126.21 L458.423 126.21 L458.423 129.52 L452.867 129.52 L452.867 165.168 L458.423 165.168 L458.423 168.479 L448.608 168.479 L448.608 126.21 Z" fill="#000000" fill-rule="nonzero" fill-opacity="1" /><path clip-path="url(#clip490)" d="M468.909 158.293 L476.548 158.293 L476.548 131.928 L468.237 133.595 L468.237 129.335 L476.501 127.669 L481.177 127.669 L481.177 158.293 L488.816 158.293 L488.816 162.229 L468.909 162.229 L468.909 158.293 Z" fill="#000000" fill-rule="nonzero" fill-opacity="1" /><path clip-path="url(#clip490)" d="M507.612 126.21 L507.612 168.479 L497.797 168.479 L497.797 165.168 L503.33 165.168 L503.33 129.52 L497.797 129.52 L497.797 126.21 L507.612 126.21 Z" fill="#000000" fill-rule="nonzero" fill-opacity="1" /><polyline clip-path="url(#clip490)" style="stroke:#e26f46; stroke-linecap:round; stroke-linejoin:round; stroke-width:12; stroke-opacity:1; fill:none" points="247.127,196.789 394.031,196.789 "/>
<path clip-path="url(#clip490)" d="M418.515 203.837 L418.515 188.143 L422.775 188.143 L422.775 203.675 Q422.775 207.356 424.21 209.208 Q425.645 211.036 428.515 211.036 Q431.964 211.036 433.955 208.837 Q435.969 206.638 435.969 202.842 L435.969 188.143 L440.228 188.143 L440.228 214.069 L435.969 214.069 L435.969 210.087 Q434.418 212.448 432.358 213.606 Q430.321 214.74 427.613 214.74 Q423.145 214.74 420.83 211.962 Q418.515 209.184 418.515 203.837 M429.233 187.518 L429.233 187.518 Z" fill="#000000" fill-rule="nonzero" fill-opacity="1" /><path clip-path="url(#clip490)" d="M448.608 178.05 L458.423 178.05 L458.423 181.36 L452.867 181.36 L452.867 217.008 L458.423 217.008 L458.423 220.319 L448.608 220.319 L448.608 178.05 Z" fill="#000000" fill-rule="nonzero" fill-opacity="1" /><path clip-path="url(#clip490)" d="M472.126 210.133 L488.446 210.133 L488.446 214.069 L466.501 214.069 L466.501 210.133 Q469.163 207.379 473.747 202.749 Q478.353 198.096 479.534 196.754 Q481.779 194.231 482.659 192.495 Q483.561 190.735 483.561 189.046 Q483.561 186.291 481.617 184.555 Q479.696 182.819 476.594 182.819 Q474.395 182.819 471.941 183.583 Q469.511 184.347 466.733 185.897 L466.733 181.175 Q469.557 180.041 472.011 179.462 Q474.464 178.884 476.501 178.884 Q481.872 178.884 485.066 181.569 Q488.26 184.254 488.26 188.745 Q488.26 190.874 487.45 192.796 Q486.663 194.694 484.557 197.286 Q483.978 197.958 480.876 201.175 Q477.774 204.37 472.126 210.133 Z" fill="#000000" fill-rule="nonzero" fill-opacity="1" /><path clip-path="url(#clip490)" d="M507.612 178.05 L507.612 220.319 L497.797 220.319 L497.797 217.008 L503.33 217.008 L503.33 181.36 L497.797 181.36 L497.797 178.05 L507.612 178.05 Z" fill="#000000" fill-rule="nonzero" fill-opacity="1" /><polyline clip-path="url(#clip490)" style="stroke:#3da44d; stroke-linecap:round; stroke-linejoin:round; stroke-width:12; stroke-opacity:1; fill:none" points="247.127,248.629 394.031,248.629 "/>
<path clip-path="url(#clip490)" d="M418.515 255.677 L418.515 239.983 L422.775 239.983 L422.775 255.515 Q422.775 259.196 424.21 261.048 Q425.645 262.876 428.515 262.876 Q431.964 262.876 433.955 260.677 Q435.969 258.478 435.969 254.682 L435.969 239.983 L440.228 239.983 L440.228 265.909 L435.969 265.909 L435.969 261.927 Q434.418 264.288 432.358 265.446 Q430.321 266.58 427.613 266.58 Q423.145 266.58 420.83 263.802 Q418.515 261.024 418.515 255.677 M429.233 239.358 L429.233 239.358 Z" fill="#000000" fill-rule="nonzero" fill-opacity="1" /><path clip-path="url(#clip490)" d="M459.233 229.937 Q456.131 235.261 454.626 240.469 Q453.122 245.677 453.122 251.024 Q453.122 256.372 454.626 261.626 Q456.154 266.858 459.233 272.159 L455.529 272.159 Q452.057 266.719 450.321 261.464 Q448.608 256.21 448.608 251.024 Q448.608 245.862 450.321 240.631 Q452.034 235.4 455.529 229.937 L459.233 229.937 Z" fill="#000000" fill-rule="nonzero" fill-opacity="1" /><path clip-path="url(#clip490)" d="M471.71 232.622 L471.71 239.983 L480.483 239.983 L480.483 243.293 L471.71 243.293 L471.71 257.367 Q471.71 260.538 472.566 261.441 Q473.446 262.344 476.108 262.344 L480.483 262.344 L480.483 265.909 L476.108 265.909 Q471.177 265.909 469.302 264.08 Q467.427 262.228 467.427 257.367 L467.427 243.293 L464.302 243.293 L464.302 239.983 L467.427 239.983 L467.427 232.622 L471.71 232.622 Z" fill="#000000" fill-rule="nonzero" fill-opacity="1" /><path clip-path="url(#clip490)" d="M485.413 229.937 L489.117 229.937 Q492.589 235.4 494.302 240.631 Q496.038 245.862 496.038 251.024 Q496.038 256.21 494.302 261.464 Q492.589 266.719 489.117 272.159 L485.413 272.159 Q488.492 266.858 489.997 261.626 Q491.524 256.372 491.524 251.024 Q491.524 245.677 489.997 240.469 Q488.492 235.261 485.413 229.937 Z" fill="#000000" fill-rule="nonzero" fill-opacity="1" /></svg>
