<?xml version="1.0" encoding="utf-8"?>
<svg xmlns="http://www.w3.org/2000/svg" xmlns:xlink="http://www.w3.org/1999/xlink" width="600" height="400" viewBox="0 0 2400 1600">
<defs>
  <clipPath id="clip150">
    <rect x="0" y="0" width="2400" height="1600"/>
  </clipPath>
</defs>
<path clip-path="url(#clip150)" d="M0 1600 L2400 1600 L2400 0 L0 0  Z" fill="#ffffff" fill-rule="evenodd" fill-opacity="1"/>
<defs>
  <clipPath id="clip151">
    <rect x="480" y="0" width="1681" height="1600"/>
  </clipPath>
</defs>
<path clip-path="url(#clip150)" d="M186.274 1486.45 L2352.76 1486.45 L2352.76 47.2441 L186.274 47.2441  Z" fill="#ffffff" fill-rule="evenodd" fill-opacity="1"/>
<defs>
  <clipPath id="clip152">
    <rect x="186" y="47" width="2167" height="1440"/>
  </clipPath>
</defs>
<polyline clip-path="url(#clip152)" style="stroke:#000000; stroke-linecap:round; stroke-linejoin:round; stroke-width:2; stroke-opacity:0.1; fill:none" points="226.945,1486.45 226.945,47.2441 "/>
<polyline clip-path="url(#clip152)" style="stroke:#000000; stroke-linecap:round; stroke-linejoin:round; stroke-width:2; stroke-opacity:0.1; fill:none" points="743.069,1486.45 743.069,47.2441 "/>
<polyline clip-path="url(#clip152)" style="stroke:#000000; stroke-linecap:round; stroke-linejoin:round; stroke-width:2; stroke-opacity:0.1; fill:none" points="1259.19,1486.45 1259.19,47.2441 "/>
<polyline clip-path="url(#clip152)" style="stroke:#000000; stroke-linecap:round; stroke-linejoin:round; stroke-width:2; stroke-opacity:0.1; fill:none" points="1775.32,1486.45 1775.32,47.2441 "/>
<polyline clip-path="url(#clip152)" style="stroke:#000000; stroke-linecap:round; stroke-linejoin:round; stroke-width:2; stroke-opacity:0.1; fill:none" points="2291.44,1486.45 2291.44,47.2441 "/>
<polyline clip-path="url(#clip150)" style="stroke:#000000; stroke-linecap:round; stroke-linejoin:round; stroke-width:4; stroke-opacity:1; fill:none" points="186.274,1486.45 2352.76,1486.45 "/>
<polyline clip-path="url(#clip150)" style="stroke:#000000; stroke-linecap:round; stroke-linejoin:round; stroke-width:4; stroke-opacity:1; fill:none" points="226.945,1486.45 226.945,1467.55 "/>
<polyline clip-path="url(#clip150)" style="stroke:#000000; stroke-linecap:round; stroke-linejoin:round; stroke-width:4; stroke-opacity:1; fill:none" points="743.069,1486.45 743.069,1467.55 "/>
<polyline clip-path="url(#clip150)" style="stroke:#000000; stroke-linecap:round; stroke-linejoin:round; stroke-width:4; stroke-opacity:1; fill:none" points="1259.19,1486.45 1259.19,1467.55 "/>
<polyline clip-path="url(#clip150)" style="stroke:#000000; stroke-linecap:round; stroke-linejoin:round; stroke-width:4; stroke-opacity:1; fill:none" points="1775.32,1486.45 1775.32,1467.55 "/>
<polyline clip-path="url(#clip150)" style="stroke:#000000; stroke-linecap:round; stroke-linejoin:round; stroke-width:4; stroke-opacity:1; fill:none" points="2291.44,1486.45 2291.44,1467.55 "/>
<path clip-path="url(#clip150)" d="M204.329 1517.37 Q200.718 1517.37 198.889 1520.93 Q197.084 1524.47 197.084 1531.6 Q197.084 1538.71 198.889 1542.27 Q200.718 1545.82 204.329 1545.82 Q207.963 1545.82 209.769 1542.27 Q211.597 1538.71 211.597 1531.6 Q211.597 1524.47 209.769 1520.93 Q207.963 1517.37 204.329 1517.37 M204.329 1513.66 Q210.139 1513.66 213.195 1518.27 Q216.273 1522.85 216.273 1531.6 Q216.273 1540.33 213.195 1544.94 Q210.139 1549.52 204.329 1549.52 Q198.519 1549.52 195.44 1544.94 Q192.385 1540.33 192.385 1531.6 Q192.385 1522.85 195.44 1518.27 Q198.519 1513.66 204.329 1513.66 Z" fill="#000000" fill-rule="nonzero" fill-opacity="1" /><path clip-path="url(#clip150)" d="M224.491 1542.97 L229.375 1542.97 L229.375 1548.85 L224.491 1548.85 L224.491 1542.97 Z" fill="#000000" fill-rule="nonzero" fill-opacity="1" /><path clip-path="url(#clip150)" d="M249.56 1517.37 Q245.949 1517.37 244.12 1520.93 Q242.315 1524.47 242.315 1531.6 Q242.315 1538.71 244.12 1542.27 Q245.949 1545.82 249.56 1545.82 Q253.194 1545.82 255 1542.27 Q256.829 1538.71 256.829 1531.6 Q256.829 1524.47 255 1520.93 Q253.194 1517.37 249.56 1517.37 M249.56 1513.66 Q255.37 1513.66 258.426 1518.27 Q261.505 1522.85 261.505 1531.6 Q261.505 1540.33 258.426 1544.94 Q255.37 1549.52 249.56 1549.52 Q243.75 1549.52 240.671 1544.94 Q237.616 1540.33 237.616 1531.6 Q237.616 1522.85 240.671 1518.27 Q243.75 1513.66 249.56 1513.66 Z" fill="#000000" fill-rule="nonzero" fill-opacity="1" /><path clip-path="url(#clip150)" d="M714.805 1544.91 L731.124 1544.91 L731.124 1548.85 L709.18 1548.85 L709.18 1544.91 Q711.842 1542.16 716.425 1537.53 Q721.032 1532.88 722.212 1531.53 Q724.458 1529.01 725.337 1527.27 Q726.24 1525.51 726.24 1523.82 Q726.24 1521.07 724.295 1519.33 Q722.374 1517.6 719.272 1517.6 Q717.073 1517.6 714.62 1518.36 Q712.189 1519.13 709.411 1520.68 L709.411 1515.95 Q712.235 1514.82 714.689 1514.24 Q717.143 1513.66 719.18 1513.66 Q724.55 1513.66 727.745 1516.35 Q730.939 1519.03 730.939 1523.52 Q730.939 1525.65 730.129 1527.57 Q729.342 1529.47 727.235 1532.07 Q726.657 1532.74 723.555 1535.95 Q720.453 1539.15 714.805 1544.91 Z" fill="#000000" fill-rule="nonzero" fill-opacity="1" /><path clip-path="url(#clip150)" d="M740.939 1542.97 L745.823 1542.97 L745.823 1548.85 L740.939 1548.85 L740.939 1542.97 Z" fill="#000000" fill-rule="nonzero" fill-opacity="1" /><path clip-path="url(#clip150)" d="M756.055 1514.29 L774.411 1514.29 L774.411 1518.22 L760.337 1518.22 L760.337 1526.7 Q761.355 1526.35 762.374 1526.19 Q763.392 1526 764.411 1526 Q770.198 1526 773.578 1529.17 Q776.957 1532.34 776.957 1537.76 Q776.957 1543.34 773.485 1546.44 Q770.013 1549.52 763.693 1549.52 Q761.517 1549.52 759.249 1549.15 Q757.004 1548.78 754.596 1548.04 L754.596 1543.34 Q756.68 1544.47 758.902 1545.03 Q761.124 1545.58 763.601 1545.58 Q767.605 1545.58 769.943 1543.48 Q772.281 1541.37 772.281 1537.76 Q772.281 1534.15 769.943 1532.04 Q767.605 1529.94 763.601 1529.94 Q761.726 1529.94 759.851 1530.35 Q757.999 1530.77 756.055 1531.65 L756.055 1514.29 Z" fill="#000000" fill-rule="nonzero" fill-opacity="1" /><path clip-path="url(#clip150)" d="M1226.36 1514.29 L1244.71 1514.29 L1244.71 1518.22 L1230.64 1518.22 L1230.64 1526.7 Q1231.66 1526.35 1232.68 1526.19 Q1233.69 1526 1234.71 1526 Q1240.5 1526 1243.88 1529.17 Q1247.26 1532.34 1247.26 1537.76 Q1247.26 1543.34 1243.79 1546.44 Q1240.32 1549.52 1234 1549.52 Q1231.82 1549.52 1229.55 1549.15 Q1227.31 1548.78 1224.9 1548.04 L1224.9 1543.34 Q1226.98 1544.47 1229.2 1545.03 Q1231.43 1545.58 1233.9 1545.58 Q1237.91 1545.58 1240.25 1543.48 Q1242.58 1541.37 1242.58 1537.76 Q1242.58 1534.15 1240.25 1532.04 Q1237.91 1529.94 1233.9 1529.94 Q1232.03 1529.94 1230.15 1530.35 Q1228.3 1530.77 1226.36 1531.65 L1226.36 1514.29 Z" fill="#000000" fill-rule="nonzero" fill-opacity="1" /><path clip-path="url(#clip150)" d="M1256.47 1542.97 L1261.36 1542.97 L1261.36 1548.85 L1256.47 1548.85 L1256.47 1542.97 Z" fill="#000000" fill-rule="nonzero" fill-opacity="1" /><path clip-path="url(#clip150)" d="M1281.54 1517.37 Q1277.93 1517.37 1276.1 1520.93 Q1274.3 1524.47 1274.3 1531.6 Q1274.3 1538.71 1276.1 1542.27 Q1277.93 1545.82 1281.54 1545.82 Q1285.18 1545.82 1286.98 1542.27 Q1288.81 1538.71 1288.81 1531.6 Q1288.81 1524.47 1286.98 1520.93 Q1285.18 1517.37 1281.54 1517.37 M1281.54 1513.66 Q1287.35 1513.66 1290.41 1518.27 Q1293.49 1522.85 1293.49 1531.6 Q1293.49 1540.33 1290.41 1544.94 Q1287.35 1549.52 1281.54 1549.52 Q1275.73 1549.52 1272.65 1544.94 Q1269.6 1540.33 1269.6 1531.6 Q1269.6 1522.85 1272.65 1518.27 Q1275.73 1513.66 1281.54 1513.66 Z" fill="#000000" fill-rule="nonzero" fill-opacity="1" /><path clip-path="url(#clip150)" d="M1741.64 1514.29 L1763.86 1514.29 L1763.86 1516.28 L1751.31 1548.85 L1746.43 1548.85 L1758.23 1518.22 L1741.64 1518.22 L1741.64 1514.29 Z" fill="#000000" fill-rule="nonzero" fill-opacity="1" /><path clip-path="url(#clip150)" d="M1772.98 1542.97 L1777.86 1542.97 L1777.86 1548.85 L1772.98 1548.85 L1772.98 1542.97 Z" fill="#000000" fill-rule="nonzero" fill-opacity="1" /><path clip-path="url(#clip150)" d="M1788.09 1514.29 L1806.45 1514.29 L1806.45 1518.22 L1792.38 1518.22 L1792.38 1526.7 Q1793.4 1526.35 1794.41 1526.19 Q1795.43 1526 1796.45 1526 Q1802.24 1526 1805.62 1529.17 Q1809 1532.34 1809 1537.76 Q1809 1543.34 1805.52 1546.44 Q1802.05 1549.52 1795.73 1549.52 Q1793.56 1549.52 1791.29 1549.15 Q1789.04 1548.78 1786.64 1548.04 L1786.64 1543.34 Q1788.72 1544.47 1790.94 1545.03 Q1793.16 1545.58 1795.64 1545.58 Q1799.65 1545.58 1801.98 1543.48 Q1804.32 1541.37 1804.32 1537.76 Q1804.32 1534.15 1801.98 1532.04 Q1799.65 1529.94 1795.64 1529.94 Q1793.77 1529.94 1791.89 1530.35 Q1790.04 1530.77 1788.09 1531.65 L1788.09 1514.29 Z" fill="#000000" fill-rule="nonzero" fill-opacity="1" /><path clip-path="url(#clip150)" d="M2243.51 1544.91 L2251.15 1544.91 L2251.15 1518.55 L2242.84 1520.21 L2242.84 1515.95 L2251.1 1514.29 L2255.78 1514.29 L2255.78 1544.91 L2263.42 1544.91 L2263.42 1548.85 L2243.51 1548.85 L2243.51 1544.91 Z" fill="#000000" fill-rule="nonzero" fill-opacity="1" /><path clip-path="url(#clip150)" d="M2282.86 1517.37 Q2279.25 1517.37 2277.42 1520.93 Q2275.62 1524.47 2275.62 1531.6 Q2275.62 1538.71 2277.42 1542.27 Q2279.25 1545.82 2282.86 1545.82 Q2286.5 1545.82 2288.3 1542.27 Q2290.13 1538.71 2290.13 1531.6 Q2290.13 1524.47 2288.3 1520.93 Q2286.5 1517.37 2282.86 1517.37 M2282.86 1513.66 Q2288.67 1513.66 2291.73 1518.27 Q2294.81 1522.85 2294.81 1531.6 Q2294.81 1540.33 2291.73 1544.94 Q2288.67 1549.52 2282.86 1549.52 Q2277.05 1549.52 2273.98 1544.94 Q2270.92 1540.33 2270.92 1531.6 Q2270.92 1522.85 2273.98 1518.27 Q2277.05 1513.66 2282.86 1513.66 Z" fill="#000000" fill-rule="nonzero" fill-opacity="1" /><path clip-path="url(#clip150)" d="M2303.03 1542.97 L2307.91 1542.97 L2307.91 1548.85 L2303.03 1548.85 L2303.03 1542.97 Z" fill="#000000" fill-rule="nonzero" fill-opacity="1" /><path clip-path="url(#clip150)" d="M2328.1 1517.37 Q2324.48 1517.37 2322.66 1520.93 Q2320.85 1524.47 2320.85 1531.6 Q2320.85 1538.71 2322.66 1542.27 Q2324.48 1545.82 2328.1 1545.82 Q2331.73 1545.82 2333.54 1542.27 Q2335.36 1538.71 2335.36 1531.6 Q2335.36 1524.47 2333.54 1520.93 Q2331.73 1517.37 2328.1 1517.37 M2328.1 1513.66 Q2333.91 1513.66 2336.96 1518.27 Q2340.04 1522.85 2340.04 1531.6 Q2340.04 1540.33 2336.96 1544.94 Q2333.91 1549.52 2328.1 1549.52 Q2322.29 1549.52 2319.21 1544.94 Q2316.15 1540.33 2316.15 1531.6 Q2316.15 1522.85 2319.21 1518.27 Q2322.29 1513.66 2328.1 1513.66 Z" fill="#000000" fill-rule="nonzero" fill-opacity="1" /><polyline clip-path="url(#clip152)" style="stroke:#000000; stroke-linecap:round; stroke-linejoin:round; stroke-width:2; stroke-opacity:0.1; fill:none" points="186.274,1445.72 2352.76,1445.72 "/>
<polyline clip-path="url(#clip152)" style="stroke:#000000; stroke-linecap:round; stroke-linejoin:round; stroke-width:2; stroke-opacity:0.1; fill:none" points="186.274,1106.34 2352.76,1106.34 "/>
<polyline clip-path="url(#clip152)" style="stroke:#000000; stroke-linecap:round; stroke-linejoin:round; stroke-width:2; stroke-opacity:0.1; fill:none" points="186.274,766.966 2352.76,766.966 "/>
<polyline clip-path="url(#clip152)" style="stroke:#000000; stroke-linecap:round; stroke-linejoin:round; stroke-width:2; stroke-opacity:0.1; fill:none" points="186.274,427.591 2352.76,427.591 "/>
<polyline clip-path="url(#clip152)" style="stroke:#000000; stroke-linecap:round; stroke-linejoin:round; stroke-width:2; stroke-opacity:0.1; fill:none" points="186.274,88.2158 2352.76,88.2158 "/>
<polyline clip-path="url(#clip150)" style="stroke:#000000; stroke-linecap:round; stroke-linejoin:round; stroke-width:4; stroke-opacity:1; fill:none" points="186.274,1486.45 186.274,47.2441 "/>
<polyline clip-path="url(#clip150)" style="stroke:#000000; stroke-linecap:round; stroke-linejoin:round; stroke-width:4; stroke-opacity:1; fill:none" points="186.274,1445.72 205.172,1445.72 "/>
<polyline clip-path="url(#clip150)" style="stroke:#000000; stroke-linecap:round; stroke-linejoin:round; stroke-width:4; stroke-opacity:1; fill:none" points="186.274,1106.34 205.172,1106.34 "/>
<polyline clip-path="url(#clip150)" style="stroke:#000000; stroke-linecap:round; stroke-linejoin:round; stroke-width:4; stroke-opacity:1; fill:none" points="186.274,766.966 205.172,766.966 "/>
<polyline clip-path="url(#clip150)" style="stroke:#000000; stroke-linecap:round; stroke-linejoin:round; stroke-width:4; stroke-opacity:1; fill:none" points="186.274,427.591 205.172,427.591 "/>
<polyline clip-path="url(#clip150)" style="stroke:#000000; stroke-linecap:round; stroke-linejoin:round; stroke-width:4; stroke-opacity:1; fill:none" points="186.274,88.2158 205.172,88.2158 "/>
<path clip-path="url(#clip150)" d="M62.9365 1431.51 Q59.3254 1431.51 57.4967 1435.08 Q55.6912 1438.62 55.6912 1445.75 Q55.6912 1452.86 57.4967 1456.42 Q59.3254 1459.96 62.9365 1459.96 Q66.5707 1459.96 68.3763 1456.42 Q70.205 1452.86 70.205 1445.75 Q70.205 1438.62 68.3763 1435.08 Q66.5707 1431.51 62.9365 1431.51 M62.9365 1427.81 Q68.7467 1427.81 71.8022 1432.42 Q74.8809 1437 74.8809 1445.75 Q74.8809 1454.48 71.8022 1459.08 Q68.7467 1463.67 62.9365 1463.67 Q57.1264 1463.67 54.0477 1459.08 Q50.9921 1454.48 50.9921 1445.75 Q50.9921 1437 54.0477 1432.42 Q57.1264 1427.81 62.9365 1427.81 Z" fill="#000000" fill-rule="nonzero" fill-opacity="1" /><path clip-path="url(#clip150)" d="M83.0984 1457.12 L87.9827 1457.12 L87.9827 1463 L83.0984 1463 L83.0984 1457.12 Z" fill="#000000" fill-rule="nonzero" fill-opacity="1" /><path clip-path="url(#clip150)" d="M108.168 1431.51 Q104.557 1431.51 102.728 1435.08 Q100.922 1438.62 100.922 1445.75 Q100.922 1452.86 102.728 1456.42 Q104.557 1459.96 108.168 1459.96 Q111.802 1459.96 113.608 1456.42 Q115.436 1452.86 115.436 1445.75 Q115.436 1438.62 113.608 1435.08 Q111.802 1431.51 108.168 1431.51 M108.168 1427.81 Q113.978 1427.81 117.033 1432.42 Q120.112 1437 120.112 1445.75 Q120.112 1454.48 117.033 1459.08 Q113.978 1463.67 108.168 1463.67 Q102.358 1463.67 99.2789 1459.08 Q96.2234 1454.48 96.2234 1445.75 Q96.2234 1437 99.2789 1432.42 Q102.358 1427.81 108.168 1427.81 Z" fill="#000000" fill-rule="nonzero" fill-opacity="1" /><path clip-path="url(#clip150)" d="M138.33 1431.51 Q134.719 1431.51 132.89 1435.08 Q131.084 1438.62 131.084 1445.75 Q131.084 1452.86 132.89 1456.42 Q134.719 1459.96 138.33 1459.96 Q141.964 1459.96 143.769 1456.42 Q145.598 1452.86 145.598 1445.75 Q145.598 1438.62 143.769 1435.08 Q141.964 1431.51 138.33 1431.51 M138.33 1427.81 Q144.14 1427.81 147.195 1432.42 Q150.274 1437 150.274 1445.75 Q150.274 1454.48 147.195 1459.08 Q144.14 1463.67 138.33 1463.67 Q132.519 1463.67 129.441 1459.08 Q126.385 1454.48 126.385 1445.75 Q126.385 1437 129.441 1432.42 Q132.519 1427.81 138.33 1427.81 Z" fill="#000000" fill-rule="nonzero" fill-opacity="1" /><path clip-path="url(#clip150)" d="M63.9319 1092.14 Q60.3208 1092.14 58.4921 1095.7 Q56.6865 1099.25 56.6865 1106.38 Q56.6865 1113.48 58.4921 1117.05 Q60.3208 1120.59 63.9319 1120.59 Q67.5661 1120.59 69.3717 1117.05 Q71.2004 1113.48 71.2004 1106.38 Q71.2004 1099.25 69.3717 1095.7 Q67.5661 1092.14 63.9319 1092.14 M63.9319 1088.44 Q69.742 1088.44 72.7976 1093.04 Q75.8763 1097.63 75.8763 1106.38 Q75.8763 1115.1 72.7976 1119.71 Q69.742 1124.29 63.9319 1124.29 Q58.1217 1124.29 55.043 1119.71 Q51.9875 1115.1 51.9875 1106.38 Q51.9875 1097.63 55.043 1093.04 Q58.1217 1088.44 63.9319 1088.44 Z" fill="#000000" fill-rule="nonzero" fill-opacity="1" /><path clip-path="url(#clip150)" d="M84.0938 1117.74 L88.978 1117.74 L88.978 1123.62 L84.0938 1123.62 L84.0938 1117.74 Z" fill="#000000" fill-rule="nonzero" fill-opacity="1" /><path clip-path="url(#clip150)" d="M103.191 1119.69 L119.51 1119.69 L119.51 1123.62 L97.566 1123.62 L97.566 1119.69 Q100.228 1116.93 104.811 1112.3 Q109.418 1107.65 110.598 1106.31 Q112.844 1103.78 113.723 1102.05 Q114.626 1100.29 114.626 1098.6 Q114.626 1095.84 112.682 1094.11 Q110.76 1092.37 107.658 1092.37 Q105.459 1092.37 103.006 1093.13 Q100.575 1093.9 97.7974 1095.45 L97.7974 1090.73 Q100.621 1089.59 103.075 1089.01 Q105.529 1088.44 107.566 1088.44 Q112.936 1088.44 116.131 1091.12 Q119.325 1093.81 119.325 1098.3 Q119.325 1100.43 118.515 1102.35 Q117.728 1104.25 115.621 1106.84 Q115.043 1107.51 111.941 1110.73 Q108.839 1113.92 103.191 1119.69 Z" fill="#000000" fill-rule="nonzero" fill-opacity="1" /><path clip-path="url(#clip150)" d="M129.371 1089.06 L147.728 1089.06 L147.728 1093 L133.654 1093 L133.654 1101.47 Q134.672 1101.12 135.691 1100.96 Q136.709 1100.77 137.728 1100.77 Q143.515 1100.77 146.894 1103.94 Q150.274 1107.12 150.274 1112.53 Q150.274 1118.11 146.802 1121.21 Q143.33 1124.29 137.01 1124.29 Q134.834 1124.29 132.566 1123.92 Q130.32 1123.55 127.913 1122.81 L127.913 1118.11 Q129.996 1119.25 132.219 1119.8 Q134.441 1120.36 136.918 1120.36 Q140.922 1120.36 143.26 1118.25 Q145.598 1116.14 145.598 1112.53 Q145.598 1108.92 143.26 1106.82 Q140.922 1104.71 136.918 1104.71 Q135.043 1104.71 133.168 1105.13 Q131.316 1105.54 129.371 1106.42 L129.371 1089.06 Z" fill="#000000" fill-rule="nonzero" fill-opacity="1" /><path clip-path="url(#clip150)" d="M62.9365 752.764 Q59.3254 752.764 57.4967 756.329 Q55.6912 759.871 55.6912 767 Q55.6912 774.107 57.4967 777.672 Q59.3254 781.213 62.9365 781.213 Q66.5707 781.213 68.3763 777.672 Q70.205 774.107 70.205 767 Q70.205 759.871 68.3763 756.329 Q66.5707 752.764 62.9365 752.764 M62.9365 749.061 Q68.7467 749.061 71.8022 753.667 Q74.8809 758.251 74.8809 767 Q74.8809 775.727 71.8022 780.334 Q68.7467 784.917 62.9365 784.917 Q57.1264 784.917 54.0477 780.334 Q50.9921 775.727 50.9921 767 Q50.9921 758.251 54.0477 753.667 Q57.1264 749.061 62.9365 749.061 Z" fill="#000000" fill-rule="nonzero" fill-opacity="1" /><path clip-path="url(#clip150)" d="M83.0984 778.366 L87.9827 778.366 L87.9827 784.246 L83.0984 784.246 L83.0984 778.366 Z" fill="#000000" fill-rule="nonzero" fill-opacity="1" /><path clip-path="url(#clip150)" d="M98.2141 749.686 L116.57 749.686 L116.57 753.621 L102.496 753.621 L102.496 762.093 Q103.515 761.746 104.534 761.584 Q105.552 761.399 106.571 761.399 Q112.358 761.399 115.737 764.57 Q119.117 767.741 119.117 773.158 Q119.117 778.737 115.645 781.838 Q112.172 784.917 105.853 784.917 Q103.677 784.917 101.409 784.547 Q99.1632 784.176 96.7558 783.436 L96.7558 778.737 Q98.8391 779.871 101.061 780.426 Q103.284 780.982 105.76 780.982 Q109.765 780.982 112.103 778.875 Q114.441 776.769 114.441 773.158 Q114.441 769.547 112.103 767.44 Q109.765 765.334 105.76 765.334 Q103.885 765.334 102.01 765.75 Q100.159 766.167 98.2141 767.047 L98.2141 749.686 Z" fill="#000000" fill-rule="nonzero" fill-opacity="1" /><path clip-path="url(#clip150)" d="M138.33 752.764 Q134.719 752.764 132.89 756.329 Q131.084 759.871 131.084 767 Q131.084 774.107 132.89 777.672 Q134.719 781.213 138.33 781.213 Q141.964 781.213 143.769 777.672 Q145.598 774.107 145.598 767 Q145.598 759.871 143.769 756.329 Q141.964 752.764 138.33 752.764 M138.33 749.061 Q144.14 749.061 147.195 753.667 Q150.274 758.251 150.274 767 Q150.274 775.727 147.195 780.334 Q144.14 784.917 138.33 784.917 Q132.519 784.917 129.441 780.334 Q126.385 775.727 126.385 767 Q126.385 758.251 129.441 753.667 Q132.519 749.061 138.33 749.061 Z" fill="#000000" fill-rule="nonzero" fill-opacity="1" /><path clip-path="url(#clip150)" d="M63.9319 413.389 Q60.3208 413.389 58.4921 416.954 Q56.6865 420.496 56.6865 427.625 Q56.6865 434.732 58.4921 438.297 Q60.3208 441.838 63.9319 441.838 Q67.5661 441.838 69.3717 438.297 Q71.2004 434.732 71.2004 427.625 Q71.2004 420.496 69.3717 416.954 Q67.5661 413.389 63.9319 413.389 M63.9319 409.686 Q69.742 409.686 72.7976 414.292 Q75.8763 418.876 75.8763 427.625 Q75.8763 436.352 72.7976 440.959 Q69.742 445.542 63.9319 445.542 Q58.1217 445.542 55.043 440.959 Q51.9875 436.352 51.9875 427.625 Q51.9875 418.876 55.043 414.292 Q58.1217 409.686 63.9319 409.686 Z" fill="#000000" fill-rule="nonzero" fill-opacity="1" /><path clip-path="url(#clip150)" d="M84.0938 438.991 L88.978 438.991 L88.978 444.871 L84.0938 444.871 L84.0938 438.991 Z" fill="#000000" fill-rule="nonzero" fill-opacity="1" /><path clip-path="url(#clip150)" d="M97.9826 410.311 L120.205 410.311 L120.205 412.301 L107.658 444.871 L102.774 444.871 L114.58 414.246 L97.9826 414.246 L97.9826 410.311 Z" fill="#000000" fill-rule="nonzero" fill-opacity="1" /><path clip-path="url(#clip150)" d="M129.371 410.311 L147.728 410.311 L147.728 414.246 L133.654 414.246 L133.654 422.718 Q134.672 422.371 135.691 422.209 Q136.709 422.024 137.728 422.024 Q143.515 422.024 146.894 425.195 Q150.274 428.366 150.274 433.783 Q150.274 439.362 146.802 442.463 Q143.33 445.542 137.01 445.542 Q134.834 445.542 132.566 445.172 Q130.32 444.801 127.913 444.061 L127.913 439.362 Q129.996 440.496 132.219 441.051 Q134.441 441.607 136.918 441.607 Q140.922 441.607 143.26 439.5 Q145.598 437.394 145.598 433.783 Q145.598 430.172 143.26 428.065 Q140.922 425.959 136.918 425.959 Q135.043 425.959 133.168 426.375 Q131.316 426.792 129.371 427.672 L129.371 410.311 Z" fill="#000000" fill-rule="nonzero" fill-opacity="1" /><path clip-path="url(#clip150)" d="M53.7467 101.561 L61.3856 101.561 L61.3856 75.195 L53.0754 76.8617 L53.0754 72.6024 L61.3393 70.9358 L66.0152 70.9358 L66.0152 101.561 L73.654 101.561 L73.654 105.496 L53.7467 105.496 L53.7467 101.561 Z" fill="#000000" fill-rule="nonzero" fill-opacity="1" /><path clip-path="url(#clip150)" d="M83.0984 99.6162 L87.9827 99.6162 L87.9827 105.496 L83.0984 105.496 L83.0984 99.6162 Z" fill="#000000" fill-rule="nonzero" fill-opacity="1" /><path clip-path="url(#clip150)" d="M108.168 74.0145 Q104.557 74.0145 102.728 77.5793 Q100.922 81.1209 100.922 88.2505 Q100.922 95.3569 102.728 98.9217 Q104.557 102.463 108.168 102.463 Q111.802 102.463 113.608 98.9217 Q115.436 95.3569 115.436 88.2505 Q115.436 81.1209 113.608 77.5793 Q111.802 74.0145 108.168 74.0145 M108.168 70.3108 Q113.978 70.3108 117.033 74.9172 Q120.112 79.5005 120.112 88.2505 Q120.112 96.9773 117.033 101.584 Q113.978 106.167 108.168 106.167 Q102.358 106.167 99.2789 101.584 Q96.2234 96.9773 96.2234 88.2505 Q96.2234 79.5005 99.2789 74.9172 Q102.358 70.3108 108.168 70.3108 Z" fill="#000000" fill-rule="nonzero" fill-opacity="1" /><path clip-path="url(#clip150)" d="M138.33 74.0145 Q134.719 74.0145 132.89 77.5793 Q131.084 81.1209 131.084 88.2505 Q131.084 95.3569 132.89 98.9217 Q134.719 102.463 138.33 102.463 Q141.964 102.463 143.769 98.9217 Q145.598 95.3569 145.598 88.2505 Q145.598 81.1209 143.769 77.5793 Q141.964 74.0145 138.33 74.0145 M138.33 70.3108 Q144.14 70.3108 147.195 74.9172 Q150.274 79.5005 150.274 88.2505 Q150.274 96.9773 147.195 101.584 Q144.14 106.167 138.33 106.167 Q132.519 106.167 129.441 101.584 Q126.385 96.9773 126.385 88.2505 Q126.385 79.5005 129.441 74.9172 Q132.519 70.3108 138.33 70.3108 Z" fill="#000000" fill-rule="nonzero" fill-opacity="1" /><polyline clip-path="url(#clip152)" style="stroke:#009af9; stroke-linecap:round; stroke-linejoin:round; stroke-width:4; stroke-opacity:1; fill:none" points="247.59,1445.72 268.234,1179.44 288.879,960.221 309.524,783.322 330.169,642.188 350.814,530.155 371.459,441.323 392.104,370.819 412.749,314.752 433.394,270.067 454.039,234.373 474.684,205.804 495.329,182.896 515.974,164.5 536.619,149.707 557.264,137.8 577.909,128.206 598.554,120.47 619.199,114.229 639.844,109.192 660.489,105.124 681.134,101.839 701.779,99.1837 722.424,97.038 743.069,95.3039 763.713,93.902 784.358,92.7686 805.003,91.8521 825.648,91.1111 846.293,90.5119 866.938,90.0272 887.583,89.635 908.228,89.3179 928.873,89.0615 949.518,88.8542 970.163,88.6864 990.808,88.5507 1011.45,88.4411 1032.1,88.3524 1052.74,88.2805 1073.39,88.2223 1094.03,88.1752 1114.68,88.137 1135.32,88.1062 1155.97,88.0816 1176.61,88.0616 1197.26,88.0454 1217.9,88.0321 1238.55,88.0216 1259.19,88.0132 1279.84,88.0059 1300.48,87.9999 1321.13,87.9957 1341.77,87.9926 1362.42,87.99 1383.06,87.9874 1403.71,87.9853 1424.35,87.9837 1445,87.9823 1465.64,87.981 1486.29,87.9798 1506.93,87.9789 1527.58,87.9784 1548.22,87.9782 1568.87,87.9784 1589.51,87.9785 1610.16,87.9784 1630.8,87.9781 1651.45,87.9779 1672.09,87.9776 1692.74,87.9772 1713.38,87.9769 1734.03,87.9766 1754.67,87.9764 1775.32,87.9763 1795.96,87.9764 1816.61,87.9766 1837.25,87.9769 1857.9,87.9771 1878.54,87.9769 1899.19,87.9769 1919.83,87.9768 1940.48,87.9768 1961.12,87.9768 1981.77,87.9768 2002.41,87.9768 2023.06,87.9768 2043.7,87.9768 2064.35,87.9766 2084.99,87.9766 2105.64,87.9766 2126.28,87.9766 2146.93,87.9766 2167.57,87.9764 2188.22,87.9764 2208.86,87.9764 2229.51,87.9764 2250.15,87.9764 2270.8,87.9764 2291.44,87.9764 "/>
<circle clip-path="url(#clip152)" cx="247.59" cy="1445.72" r="14.4" fill="#e26f46" fill-rule="evenodd" fill-opacity="1" stroke="#000000" stroke-opacity="1" stroke-width="3.2"/>
<circle clip-path="url(#clip152)" cx="268.234" cy="1174.22" r="14.4" fill="#e26f46" fill-rule="evenodd" fill-opacity="1" stroke="#000000" stroke-opacity="1" stroke-width="3.2"/>
<circle clip-path="url(#clip152)" cx="288.879" cy="957.016" r="14.4" fill="#e26f46" fill-rule="evenodd" fill-opacity="1" stroke="#000000" stroke-opacity="1" stroke-width="3.2"/>
<circle clip-path="url(#clip152)" cx="309.524" cy="783.256" r="14.4" fill="#e26f46" fill-rule="evenodd" fill-opacity="1" stroke="#000000" stroke-opacity="1" stroke-width="3.2"/>
<circle clip-path="url(#clip152)" cx="330.169" cy="644.248" r="14.4" fill="#e26f46" fill-rule="evenodd" fill-opacity="1" stroke="#000000" stroke-opacity="1" stroke-width="3.2"/>
<circle clip-path="url(#clip152)" cx="350.814" cy="533.041" r="14.4" fill="#e26f46" fill-rule="evenodd" fill-opacity="1" stroke="#000000" stroke-opacity="1" stroke-width="3.2"/>
<circle clip-path="url(#clip152)" cx="371.459" cy="444.076" r="14.4" fill="#e26f46" fill-rule="evenodd" fill-opacity="1" stroke="#000000" stroke-opacity="1" stroke-width="3.2"/>
<circle clip-path="url(#clip152)" cx="392.104" cy="372.904" r="14.4" fill="#e26f46" fill-rule="evenodd" fill-opacity="1" stroke="#000000" stroke-opacity="1" stroke-width="3.2"/>
<circle clip-path="url(#clip152)" cx="412.749" cy="315.966" r="14.4" fill="#e26f46" fill-rule="evenodd" fill-opacity="1" stroke="#000000" stroke-opacity="1" stroke-width="3.2"/>
<circle clip-path="url(#clip152)" cx="433.394" cy="270.416" r="14.4" fill="#e26f46" fill-rule="evenodd" fill-opacity="1" stroke="#000000" stroke-opacity="1" stroke-width="3.2"/>
<circle clip-path="url(#clip152)" cx="454.039" cy="233.976" r="14.4" fill="#e26f46" fill-rule="evenodd" fill-opacity="1" stroke="#000000" stroke-opacity="1" stroke-width="3.2"/>
<circle clip-path="url(#clip152)" cx="474.684" cy="204.824" r="14.4" fill="#e26f46" fill-rule="evenodd" fill-opacity="1" stroke="#000000" stroke-opacity="1" stroke-width="3.2"/>
<circle clip-path="url(#clip152)" cx="495.329" cy="181.503" r="14.4" fill="#e26f46" fill-rule="evenodd" fill-opacity="1" stroke="#000000" stroke-opacity="1" stroke-width="3.2"/>
<circle clip-path="url(#clip152)" cx="515.974" cy="162.845" r="14.4" fill="#e26f46" fill-rule="evenodd" fill-opacity="1" stroke="#000000" stroke-opacity="1" stroke-width="3.2"/>
<circle clip-path="url(#clip152)" cx="536.619" cy="147.919" r="14.4" fill="#e26f46" fill-rule="evenodd" fill-opacity="1" stroke="#000000" stroke-opacity="1" stroke-width="3.2"/>
<circle clip-path="url(#clip152)" cx="557.264" cy="135.979" r="14.4" fill="#e26f46" fill-rule="evenodd" fill-opacity="1" stroke="#000000" stroke-opacity="1" stroke-width="3.2"/>
<circle clip-path="url(#clip152)" cx="577.909" cy="126.426" r="14.4" fill="#e26f46" fill-rule="evenodd" fill-opacity="1" stroke="#000000" stroke-opacity="1" stroke-width="3.2"/>
<circle clip-path="url(#clip152)" cx="598.554" cy="118.784" r="14.4" fill="#e26f46" fill-rule="evenodd" fill-opacity="1" stroke="#000000" stroke-opacity="1" stroke-width="3.2"/>
<circle clip-path="url(#clip152)" cx="619.199" cy="112.67" r="14.4" fill="#e26f46" fill-rule="evenodd" fill-opacity="1" stroke="#000000" stroke-opacity="1" stroke-width="3.2"/>
<circle clip-path="url(#clip152)" cx="639.844" cy="107.779" r="14.4" fill="#e26f46" fill-rule="evenodd" fill-opacity="1" stroke="#000000" stroke-opacity="1" stroke-width="3.2"/>
<circle clip-path="url(#clip152)" cx="660.489" cy="103.867" r="14.4" fill="#e26f46" fill-rule="evenodd" fill-opacity="1" stroke="#000000" stroke-opacity="1" stroke-width="3.2"/>
<circle clip-path="url(#clip152)" cx="681.134" cy="100.737" r="14.4" fill="#e26f46" fill-rule="evenodd" fill-opacity="1" stroke="#000000" stroke-opacity="1" stroke-width="3.2"/>
<circle clip-path="url(#clip152)" cx="701.779" cy="98.2324" r="14.4" fill="#e26f46" fill-rule="evenodd" fill-opacity="1" stroke="#000000" stroke-opacity="1" stroke-width="3.2"/>
<circle clip-path="url(#clip152)" cx="722.424" cy="96.229" r="14.4" fill="#e26f46" fill-rule="evenodd" fill-opacity="1" stroke="#000000" stroke-opacity="1" stroke-width="3.2"/>
<circle clip-path="url(#clip152)" cx="743.069" cy="94.6264" r="14.4" fill="#e26f46" fill-rule="evenodd" fill-opacity="1" stroke="#000000" stroke-opacity="1" stroke-width="3.2"/>
<circle clip-path="url(#clip152)" cx="763.713" cy="93.3443" r="14.4" fill="#e26f46" fill-rule="evenodd" fill-opacity="1" stroke="#000000" stroke-opacity="1" stroke-width="3.2"/>
<circle clip-path="url(#clip152)" cx="784.358" cy="92.3186" r="14.4" fill="#e26f46" fill-rule="evenodd" fill-opacity="1" stroke="#000000" stroke-opacity="1" stroke-width="3.2"/>
<circle clip-path="url(#clip152)" cx="805.003" cy="91.498" r="14.4" fill="#e26f46" fill-rule="evenodd" fill-opacity="1" stroke="#000000" stroke-opacity="1" stroke-width="3.2"/>
<circle clip-path="url(#clip152)" cx="825.648" cy="90.8416" r="14.4" fill="#e26f46" fill-rule="evenodd" fill-opacity="1" stroke="#000000" stroke-opacity="1" stroke-width="3.2"/>
<circle clip-path="url(#clip152)" cx="846.293" cy="90.3164" r="14.4" fill="#e26f46" fill-rule="evenodd" fill-opacity="1" stroke="#000000" stroke-opacity="1" stroke-width="3.2"/>
<circle clip-path="url(#clip152)" cx="866.938" cy="89.8963" r="14.4" fill="#e26f46" fill-rule="evenodd" fill-opacity="1" stroke="#000000" stroke-opacity="1" stroke-width="3.2"/>
<circle clip-path="url(#clip152)" cx="887.583" cy="89.5602" r="14.4" fill="#e26f46" fill-rule="evenodd" fill-opacity="1" stroke="#000000" stroke-opacity="1" stroke-width="3.2"/>
<circle clip-path="url(#clip152)" cx="908.228" cy="89.2913" r="14.4" fill="#e26f46" fill-rule="evenodd" fill-opacity="1" stroke="#000000" stroke-opacity="1" stroke-width="3.2"/>
<circle clip-path="url(#clip152)" cx="928.873" cy="89.0762" r="14.4" fill="#e26f46" fill-rule="evenodd" fill-opacity="1" stroke="#000000" stroke-opacity="1" stroke-width="3.2"/>
<circle clip-path="url(#clip152)" cx="949.518" cy="88.9041" r="14.4" fill="#e26f46" fill-rule="evenodd" fill-opacity="1" stroke="#000000" stroke-opacity="1" stroke-width="3.2"/>
<circle clip-path="url(#clip152)" cx="970.163" cy="88.7665" r="14.4" fill="#e26f46" fill-rule="evenodd" fill-opacity="1" stroke="#000000" stroke-opacity="1" stroke-width="3.2"/>
<circle clip-path="url(#clip152)" cx="990.808" cy="88.6564" r="14.4" fill="#e26f46" fill-rule="evenodd" fill-opacity="1" stroke="#000000" stroke-opacity="1" stroke-width="3.2"/>
<circle clip-path="url(#clip152)" cx="1011.45" cy="88.5682" r="14.4" fill="#e26f46" fill-rule="evenodd" fill-opacity="1" stroke="#000000" stroke-opacity="1" stroke-width="3.2"/>
<circle clip-path="url(#clip152)" cx="1032.1" cy="88.4977" r="14.4" fill="#e26f46" fill-rule="evenodd" fill-opacity="1" stroke="#000000" stroke-opacity="1" stroke-width="3.2"/>
<circle clip-path="url(#clip152)" cx="1052.74" cy="88.4414" r="14.4" fill="#e26f46" fill-rule="evenodd" fill-opacity="1" stroke="#000000" stroke-opacity="1" stroke-width="3.2"/>
<circle clip-path="url(#clip152)" cx="1073.39" cy="88.3962" r="14.4" fill="#e26f46" fill-rule="evenodd" fill-opacity="1" stroke="#000000" stroke-opacity="1" stroke-width="3.2"/>
<circle clip-path="url(#clip152)" cx="1094.03" cy="88.3601" r="14.4" fill="#e26f46" fill-rule="evenodd" fill-opacity="1" stroke="#000000" stroke-opacity="1" stroke-width="3.2"/>
<circle clip-path="url(#clip152)" cx="1114.68" cy="88.3312" r="14.4" fill="#e26f46" fill-rule="evenodd" fill-opacity="1" stroke="#000000" stroke-opacity="1" stroke-width="3.2"/>
<circle clip-path="url(#clip152)" cx="1135.32" cy="88.3082" r="14.4" fill="#e26f46" fill-rule="evenodd" fill-opacity="1" stroke="#000000" stroke-opacity="1" stroke-width="3.2"/>
<circle clip-path="url(#clip152)" cx="1155.97" cy="88.2897" r="14.4" fill="#e26f46" fill-rule="evenodd" fill-opacity="1" stroke="#000000" stroke-opacity="1" stroke-width="3.2"/>
<circle clip-path="url(#clip152)" cx="1176.61" cy="88.2749" r="14.4" fill="#e26f46" fill-rule="evenodd" fill-opacity="1" stroke="#000000" stroke-opacity="1" stroke-width="3.2"/>
<circle clip-path="url(#clip152)" cx="1197.26" cy="88.2631" r="14.4" fill="#e26f46" fill-rule="evenodd" fill-opacity="1" stroke="#000000" stroke-opacity="1" stroke-width="3.2"/>
<circle clip-path="url(#clip152)" cx="1217.9" cy="88.2536" r="14.4" fill="#e26f46" fill-rule="evenodd" fill-opacity="1" stroke="#000000" stroke-opacity="1" stroke-width="3.2"/>
<circle clip-path="url(#clip152)" cx="1238.55" cy="88.246" r="14.4" fill="#e26f46" fill-rule="evenodd" fill-opacity="1" stroke="#000000" stroke-opacity="1" stroke-width="3.2"/>
<circle clip-path="url(#clip152)" cx="1259.19" cy="88.24" r="14.4" fill="#e26f46" fill-rule="evenodd" fill-opacity="1" stroke="#000000" stroke-opacity="1" stroke-width="3.2"/>
<circle clip-path="url(#clip152)" cx="1279.84" cy="88.2351" r="14.4" fill="#e26f46" fill-rule="evenodd" fill-opacity="1" stroke="#000000" stroke-opacity="1" stroke-width="3.2"/>
<circle clip-path="url(#clip152)" cx="1300.48" cy="88.2313" r="14.4" fill="#e26f46" fill-rule="evenodd" fill-opacity="1" stroke="#000000" stroke-opacity="1" stroke-width="3.2"/>
<circle clip-path="url(#clip152)" cx="1321.13" cy="88.2282" r="14.4" fill="#e26f46" fill-rule="evenodd" fill-opacity="1" stroke="#000000" stroke-opacity="1" stroke-width="3.2"/>
<circle clip-path="url(#clip152)" cx="1341.77" cy="88.2257" r="14.4" fill="#e26f46" fill-rule="evenodd" fill-opacity="1" stroke="#000000" stroke-opacity="1" stroke-width="3.2"/>
<circle clip-path="url(#clip152)" cx="1362.42" cy="88.2237" r="14.4" fill="#e26f46" fill-rule="evenodd" fill-opacity="1" stroke="#000000" stroke-opacity="1" stroke-width="3.2"/>
<circle clip-path="url(#clip152)" cx="1383.06" cy="88.2221" r="14.4" fill="#e26f46" fill-rule="evenodd" fill-opacity="1" stroke="#000000" stroke-opacity="1" stroke-width="3.2"/>
<circle clip-path="url(#clip152)" cx="1403.71" cy="88.2209" r="14.4" fill="#e26f46" fill-rule="evenodd" fill-opacity="1" stroke="#000000" stroke-opacity="1" stroke-width="3.2"/>
<circle clip-path="url(#clip152)" cx="1424.35" cy="88.2198" r="14.4" fill="#e26f46" fill-rule="evenodd" fill-opacity="1" stroke="#000000" stroke-opacity="1" stroke-width="3.2"/>
<circle clip-path="url(#clip152)" cx="1445" cy="88.219" r="14.4" fill="#e26f46" fill-rule="evenodd" fill-opacity="1" stroke="#000000" stroke-opacity="1" stroke-width="3.2"/>
<circle clip-path="url(#clip152)" cx="1465.64" cy="88.2184" r="14.4" fill="#e26f46" fill-rule="evenodd" fill-opacity="1" stroke="#000000" stroke-opacity="1" stroke-width="3.2"/>
<circle clip-path="url(#clip152)" cx="1486.29" cy="88.2179" r="14.4" fill="#e26f46" fill-rule="evenodd" fill-opacity="1" stroke="#000000" stroke-opacity="1" stroke-width="3.2"/>
<circle clip-path="url(#clip152)" cx="1506.93" cy="88.2175" r="14.4" fill="#e26f46" fill-rule="evenodd" fill-opacity="1" stroke="#000000" stroke-opacity="1" stroke-width="3.2"/>
<circle clip-path="url(#clip152)" cx="1527.58" cy="88.2171" r="14.4" fill="#e26f46" fill-rule="evenodd" fill-opacity="1" stroke="#000000" stroke-opacity="1" stroke-width="3.2"/>
<circle clip-path="url(#clip152)" cx="1548.22" cy="88.2168" r="14.4" fill="#e26f46" fill-rule="evenodd" fill-opacity="1" stroke="#000000" stroke-opacity="1" stroke-width="3.2"/>
<circle clip-path="url(#clip152)" cx="1568.87" cy="88.2167" r="14.4" fill="#e26f46" fill-rule="evenodd" fill-opacity="1" stroke="#000000" stroke-opacity="1" stroke-width="3.2"/>
<circle clip-path="url(#clip152)" cx="1589.51" cy="88.2164" r="14.4" fill="#e26f46" fill-rule="evenodd" fill-opacity="1" stroke="#000000" stroke-opacity="1" stroke-width="3.2"/>
<circle clip-path="url(#clip152)" cx="1610.16" cy="88.2163" r="14.4" fill="#e26f46" fill-rule="evenodd" fill-opacity="1" stroke="#000000" stroke-opacity="1" stroke-width="3.2"/>
<circle clip-path="url(#clip152)" cx="1630.8" cy="88.2162" r="14.4" fill="#e26f46" fill-rule="evenodd" fill-opacity="1" stroke="#000000" stroke-opacity="1" stroke-width="3.2"/>
<circle clip-path="url(#clip152)" cx="1651.45" cy="88.2161" r="14.4" fill="#e26f46" fill-rule="evenodd" fill-opacity="1" stroke="#000000" stroke-opacity="1" stroke-width="3.2"/>
<circle clip-path="url(#clip152)" cx="1672.09" cy="88.216" r="14.4" fill="#e26f46" fill-rule="evenodd" fill-opacity="1" stroke="#000000" stroke-opacity="1" stroke-width="3.2"/>
<circle clip-path="url(#clip152)" cx="1692.74" cy="88.216" r="14.4" fill="#e26f46" fill-rule="evenodd" fill-opacity="1" stroke="#000000" stroke-opacity="1" stroke-width="3.2"/>
<circle clip-path="url(#clip152)" cx="1713.38" cy="88.2159" r="14.4" fill="#e26f46" fill-rule="evenodd" fill-opacity="1" stroke="#000000" stroke-opacity="1" stroke-width="3.2"/>
<circle clip-path="url(#clip152)" cx="1734.03" cy="88.2159" r="14.4" fill="#e26f46" fill-rule="evenodd" fill-opacity="1" stroke="#000000" stroke-opacity="1" stroke-width="3.2"/>
<circle clip-path="url(#clip152)" cx="1754.67" cy="88.2159" r="14.4" fill="#e26f46" fill-rule="evenodd" fill-opacity="1" stroke="#000000" stroke-opacity="1" stroke-width="3.2"/>
<circle clip-path="url(#clip152)" cx="1775.32" cy="88.2159" r="14.4" fill="#e26f46" fill-rule="evenodd" fill-opacity="1" stroke="#000000" stroke-opacity="1" stroke-width="3.2"/>
<circle clip-path="url(#clip152)" cx="1795.96" cy="88.2159" r="14.4" fill="#e26f46" fill-rule="evenodd" fill-opacity="1" stroke="#000000" stroke-opacity="1" stroke-width="3.2"/>
<circle clip-path="url(#clip152)" cx="1816.61" cy="88.2159" r="14.4" fill="#e26f46" fill-rule="evenodd" fill-opacity="1" stroke="#000000" stroke-opacity="1" stroke-width="3.2"/>
<circle clip-path="url(#clip152)" cx="1837.25" cy="88.2159" r="14.4" fill="#e26f46" fill-rule="evenodd" fill-opacity="1" stroke="#000000" stroke-opacity="1" stroke-width="3.2"/>
<circle clip-path="url(#clip152)" cx="1857.9" cy="88.2158" r="14.4" fill="#e26f46" fill-rule="evenodd" fill-opacity="1" stroke="#000000" stroke-opacity="1" stroke-width="3.2"/>
<circle clip-path="url(#clip152)" cx="1878.54" cy="88.2158" r="14.4" fill="#e26f46" fill-rule="evenodd" fill-opacity="1" stroke="#000000" stroke-opacity="1" stroke-width="3.2"/>
<circle clip-path="url(#clip152)" cx="1899.19" cy="88.2158" r="14.4" fill="#e26f46" fill-rule="evenodd" fill-opacity="1" stroke="#000000" stroke-opacity="1" stroke-width="3.2"/>
<circle clip-path="url(#clip152)" cx="1919.83" cy="88.2158" r="14.4" fill="#e26f46" fill-rule="evenodd" fill-opacity="1" stroke="#000000" stroke-opacity="1" stroke-width="3.2"/>
<circle clip-path="url(#clip152)" cx="1940.48" cy="88.2158" r="14.4" fill="#e26f46" fill-rule="evenodd" fill-opacity="1" stroke="#000000" stroke-opacity="1" stroke-width="3.2"/>
<circle clip-path="url(#clip152)" cx="1961.12" cy="88.2158" r="14.4" fill="#e26f46" fill-rule="evenodd" fill-opacity="1" stroke="#000000" stroke-opacity="1" stroke-width="3.2"/>
<circle clip-path="url(#clip152)" cx="1981.77" cy="88.2158" r="14.4" fill="#e26f46" fill-rule="evenodd" fill-opacity="1" stroke="#000000" stroke-opacity="1" stroke-width="3.2"/>
<circle clip-path="url(#clip152)" cx="2002.41" cy="88.2158" r="14.4" fill="#e26f46" fill-rule="evenodd" fill-opacity="1" stroke="#000000" stroke-opacity="1" stroke-width="3.2"/>
<circle clip-path="url(#clip152)" cx="2023.06" cy="88.2158" r="14.4" fill="#e26f46" fill-rule="evenodd" fill-opacity="1" stroke="#000000" stroke-opacity="1" stroke-width="3.2"/>
<circle clip-path="url(#clip152)" cx="2043.7" cy="88.2158" r="14.4" fill="#e26f46" fill-rule="evenodd" fill-opacity="1" stroke="#000000" stroke-opacity="1" stroke-width="3.2"/>
<circle clip-path="url(#clip152)" cx="2064.35" cy="88.2158" r="14.4" fill="#e26f46" fill-rule="evenodd" fill-opacity="1" stroke="#000000" stroke-opacity="1" stroke-width="3.2"/>
<circle clip-path="url(#clip152)" cx="2084.99" cy="88.2158" r="14.4" fill="#e26f46" fill-rule="evenodd" fill-opacity="1" stroke="#000000" stroke-opacity="1" stroke-width="3.2"/>
<circle clip-path="url(#clip152)" cx="2105.64" cy="88.2158" r="14.4" fill="#e26f46" fill-rule="evenodd" fill-opacity="1" stroke="#000000" stroke-opacity="1" stroke-width="3.2"/>
<circle clip-path="url(#clip152)" cx="2126.28" cy="88.2158" r="14.4" fill="#e26f46" fill-rule="evenodd" fill-opacity="1" stroke="#000000" stroke-opacity="1" stroke-width="3.2"/>
<circle clip-path="url(#clip152)" cx="2146.93" cy="88.2158" r="14.4" fill="#e26f46" fill-rule="evenodd" fill-opacity="1" stroke="#000000" stroke-opacity="1" stroke-width="3.2"/>
<circle clip-path="url(#clip152)" cx="2167.57" cy="88.2158" r="14.4" fill="#e26f46" fill-rule="evenodd" fill-opacity="1" stroke="#000000" stroke-opacity="1" stroke-width="3.2"/>
<circle clip-path="url(#clip152)" cx="2188.22" cy="88.2158" r="14.4" fill="#e26f46" fill-rule="evenodd" fill-opacity="1" stroke="#000000" stroke-opacity="1" stroke-width="3.2"/>
<circle clip-path="url(#clip152)" cx="2208.86" cy="88.2158" r="14.4" fill="#e26f46" fill-rule="evenodd" fill-opacity="1" stroke="#000000" stroke-opacity="1" stroke-width="3.2"/>
<circle clip-path="url(#clip152)" cx="2229.51" cy="88.2158" r="14.4" fill="#e26f46" fill-rule="evenodd" fill-opacity="1" stroke="#000000" stroke-opacity="1" stroke-width="3.2"/>
<circle clip-path="url(#clip152)" cx="2250.15" cy="88.2158" r="14.4" fill="#e26f46" fill-rule="evenodd" fill-opacity="1" stroke="#000000" stroke-opacity="1" stroke-width="3.2"/>
<circle clip-path="url(#clip152)" cx="2270.8" cy="88.2158" r="14.4" fill="#e26f46" fill-rule="evenodd" fill-opacity="1" stroke="#000000" stroke-opacity="1" stroke-width="3.2"/>
<circle clip-path="url(#clip152)" cx="2291.44" cy="88.2158" r="14.4" fill="#e26f46" fill-rule="evenodd" fill-opacity="1" stroke="#000000" stroke-opacity="1" stroke-width="3.2"/>
<path clip-path="url(#clip150)" d="M2011.46 1438.47 L2280.54 1438.47 L2280.54 1282.95 L2011.46 1282.95  Z" fill="#ffffff" fill-rule="evenodd" fill-opacity="1"/>
<polyline clip-path="url(#clip150)" style="stroke:#000000; stroke-linecap:round; stroke-linejoin:round; stroke-width:4; stroke-opacity:1; fill:none" points="2011.46,1438.47 2280.54,1438.47 2280.54,1282.95 2011.46,1282.95 2011.46,1438.47 "/>
<polyline clip-path="url(#clip150)" style="stroke:#009af9; stroke-linecap:round; stroke-linejoin:round; stroke-width:4; stroke-opacity:1; fill:none" points="2035.53,1334.79 2179.97,1334.79 "/>
<path clip-path="url(#clip150)" d="M2217.88 1354.48 Q2216.07 1359.11 2214.36 1360.52 Q2212.65 1361.94 2209.78 1361.94 L2206.38 1361.94 L2206.38 1358.37 L2208.88 1358.37 Q2210.63 1358.37 2211.61 1357.54 Q2212.58 1356.7 2213.76 1353.6 L2214.52 1351.66 L2204.04 1326.15 L2208.55 1326.15 L2216.65 1346.43 L2224.76 1326.15 L2229.27 1326.15 L2217.88 1354.48 Z" fill="#000000" fill-rule="nonzero" fill-opacity="1" /><path clip-path="url(#clip150)" d="M2236.56 1348.14 L2244.2 1348.14 L2244.2 1321.77 L2235.89 1323.44 L2235.89 1319.18 L2244.15 1317.51 L2248.83 1317.51 L2248.83 1348.14 L2256.47 1348.14 L2256.47 1352.07 L2236.56 1352.07 L2236.56 1348.14 Z" fill="#000000" fill-rule="nonzero" fill-opacity="1" /><circle clip-path="url(#clip150)" cx="2107.75" cy="1386.63" r="20.48" fill="#e26f46" fill-rule="evenodd" fill-opacity="1" stroke="#000000" stroke-opacity="1" stroke-width="4.55111"/>
<path clip-path="url(#clip150)" d="M2217.88 1406.32 Q2216.07 1410.95 2214.36 1412.36 Q2212.65 1413.78 2209.78 1413.78 L2206.38 1413.78 L2206.38 1410.21 L2208.88 1410.21 Q2210.63 1410.21 2211.61 1409.38 Q2212.58 1408.54 2213.76 1405.44 L2214.52 1403.5 L2204.04 1377.99 L2208.55 1377.99 L2216.65 1398.27 L2224.76 1377.99 L2229.27 1377.99 L2217.88 1406.32 Z" fill="#000000" fill-rule="nonzero" fill-opacity="1" /><path clip-path="url(#clip150)" d="M2239.78 1399.98 L2256.1 1399.98 L2256.1 1403.91 L2234.15 1403.91 L2234.15 1399.98 Q2236.82 1397.22 2241.4 1392.6 Q2246 1387.94 2247.19 1386.6 Q2249.43 1384.08 2250.31 1382.34 Q2251.21 1380.58 2251.21 1378.89 Q2251.21 1376.14 2249.27 1374.4 Q2247.35 1372.66 2244.25 1372.66 Q2242.05 1372.66 2239.59 1373.43 Q2237.16 1374.19 2234.38 1375.74 L2234.38 1371.02 Q2237.21 1369.89 2239.66 1369.31 Q2242.12 1368.73 2244.15 1368.73 Q2249.52 1368.73 2252.72 1371.41 Q2255.91 1374.1 2255.91 1378.59 Q2255.91 1380.72 2255.1 1382.64 Q2254.32 1384.54 2252.21 1387.13 Q2251.63 1387.8 2248.53 1391.02 Q2245.43 1394.22 2239.78 1399.98 Z" fill="#000000" fill-rule="nonzero" fill-opacity="1" /></svg>
