<?xml version="1.0" encoding="utf-8"?>
<svg xmlns="http://www.w3.org/2000/svg" xmlns:xlink="http://www.w3.org/1999/xlink" width="600" height="400" viewBox="0 0 2400 1600">
<defs>
  <clipPath id="clip870">
    <rect x="0" y="0" width="2400" height="1600"/>
  </clipPath>
</defs>
<path clip-path="url(#clip870)" d="M0 1600 L2400 1600 L2400 0 L0 0  Z" fill="#ffffff" fill-rule="evenodd" fill-opacity="1"/>
<defs>
  <clipPath id="clip871">
    <rect x="149" y="47" width="2205" height="1377"/>
  </clipPath>
</defs>
<path clip-path="url(#clip870)" d="M149.191 1423.18 L2352.76 1423.18 L2352.76 47.2441 L149.191 47.2441  Z" fill="#ffffff" fill-rule="evenodd" fill-opacity="1"/>
<polyline clip-path="url(#clip871)" style="stroke:#000000; stroke-linecap:round; stroke-linejoin:round; stroke-width:2; stroke-opacity:0.1; fill:none" points="149.191,1423.18 149.191,47.2441 "/>
<polyline clip-path="url(#clip871)" style="stroke:#000000; stroke-linecap:round; stroke-linejoin:round; stroke-width:2; stroke-opacity:0.1; fill:none" points="700.082,1423.18 700.082,47.2441 "/>
<polyline clip-path="url(#clip871)" style="stroke:#000000; stroke-linecap:round; stroke-linejoin:round; stroke-width:2; stroke-opacity:0.1; fill:none" points="1250.97,1423.18 1250.97,47.2441 "/>
<polyline clip-path="url(#clip871)" style="stroke:#000000; stroke-linecap:round; stroke-linejoin:round; stroke-width:2; stroke-opacity:0.1; fill:none" points="1801.86,1423.18 1801.86,47.2441 "/>
<polyline clip-path="url(#clip871)" style="stroke:#000000; stroke-linecap:round; stroke-linejoin:round; stroke-width:2; stroke-opacity:0.1; fill:none" points="2352.76,1423.18 2352.76,47.2441 "/>
<polyline clip-path="url(#clip871)" style="stroke:#000000; stroke-linecap:round; stroke-linejoin:round; stroke-width:2; stroke-opacity:0.1; fill:none" points="149.191,1423.18 2352.76,1423.18 "/>
<polyline clip-path="url(#clip871)" style="stroke:#000000; stroke-linecap:round; stroke-linejoin:round; stroke-width:2; stroke-opacity:0.1; fill:none" points="149.191,1193.86 2352.76,1193.86 "/>
<polyline clip-path="url(#clip871)" style="stroke:#000000; stroke-linecap:round; stroke-linejoin:round; stroke-width:2; stroke-opacity:0.1; fill:none" points="149.191,964.535 2352.76,964.535 "/>
<polyline clip-path="url(#clip871)" style="stroke:#000000; stroke-linecap:round; stroke-linejoin:round; stroke-width:2; stroke-opacity:0.1; fill:none" points="149.191,735.212 2352.76,735.212 "/>
<polyline clip-path="url(#clip871)" style="stroke:#000000; stroke-linecap:round; stroke-linejoin:round; stroke-width:2; stroke-opacity:0.1; fill:none" points="149.191,505.889 2352.76,505.889 "/>
<polyline clip-path="url(#clip871)" style="stroke:#000000; stroke-linecap:round; stroke-linejoin:round; stroke-width:2; stroke-opacity:0.1; fill:none" points="149.191,276.567 2352.76,276.567 "/>
<polyline clip-path="url(#clip871)" style="stroke:#000000; stroke-linecap:round; stroke-linejoin:round; stroke-width:2; stroke-opacity:0.1; fill:none" points="149.191,47.2441 2352.76,47.2441 "/>
<polyline clip-path="url(#clip870)" style="stroke:#000000; stroke-linecap:round; stroke-linejoin:round; stroke-width:4; stroke-opacity:1; fill:none" points="149.191,1423.18 2352.76,1423.18 "/>
<polyline clip-path="url(#clip870)" style="stroke:#000000; stroke-linecap:round; stroke-linejoin:round; stroke-width:4; stroke-opacity:1; fill:none" points="149.191,1423.18 149.191,1404.28 "/>
<polyline clip-path="url(#clip870)" style="stroke:#000000; stroke-linecap:round; stroke-linejoin:round; stroke-width:4; stroke-opacity:1; fill:none" points="700.082,1423.18 700.082,1404.28 "/>
<polyline clip-path="url(#clip870)" style="stroke:#000000; stroke-linecap:round; stroke-linejoin:round; stroke-width:4; stroke-opacity:1; fill:none" points="1250.97,1423.18 1250.97,1404.28 "/>
<polyline clip-path="url(#clip870)" style="stroke:#000000; stroke-linecap:round; stroke-linejoin:round; stroke-width:4; stroke-opacity:1; fill:none" points="1801.86,1423.18 1801.86,1404.28 "/>
<polyline clip-path="url(#clip870)" style="stroke:#000000; stroke-linecap:round; stroke-linejoin:round; stroke-width:4; stroke-opacity:1; fill:none" points="2352.76,1423.18 2352.76,1404.28 "/>
<path clip-path="url(#clip870)" d="M149.191 1454.1 Q145.58 1454.1 143.751 1457.66 Q141.946 1461.2 141.946 1468.33 Q141.946 1475.44 143.751 1479.01 Q145.58 1482.55 149.191 1482.55 Q152.825 1482.55 154.631 1479.01 Q156.459 1475.44 156.459 1468.33 Q156.459 1461.2 154.631 1457.66 Q152.825 1454.1 149.191 1454.1 M149.191 1450.39 Q155.001 1450.39 158.057 1455 Q161.135 1459.58 161.135 1468.33 Q161.135 1477.06 158.057 1481.67 Q155.001 1486.25 149.191 1486.25 Q143.381 1486.25 140.302 1481.67 Q137.246 1477.06 137.246 1468.33 Q137.246 1459.58 140.302 1455 Q143.381 1450.39 149.191 1450.39 Z" fill="#000000" fill-rule="nonzero" fill-opacity="1" /><path clip-path="url(#clip870)" d="M694.735 1481.64 L711.054 1481.64 L711.054 1485.58 L689.11 1485.58 L689.11 1481.64 Q691.772 1478.89 696.355 1474.26 Q700.962 1469.61 702.142 1468.27 Q704.388 1465.74 705.267 1464.01 Q706.17 1462.25 706.17 1460.56 Q706.17 1457.8 704.226 1456.07 Q702.304 1454.33 699.203 1454.33 Q697.003 1454.33 694.55 1455.09 Q692.119 1455.86 689.341 1457.41 L689.341 1452.69 Q692.166 1451.55 694.619 1450.97 Q697.073 1450.39 699.11 1450.39 Q704.48 1450.39 707.675 1453.08 Q710.869 1455.77 710.869 1460.26 Q710.869 1462.39 710.059 1464.31 Q709.272 1466.2 707.165 1468.8 Q706.587 1469.47 703.485 1472.69 Q700.383 1475.88 694.735 1481.64 Z" fill="#000000" fill-rule="nonzero" fill-opacity="1" /><path clip-path="url(#clip870)" d="M1253.98 1455.09 L1242.18 1473.54 L1253.98 1473.54 L1253.98 1455.09 M1252.76 1451.02 L1258.64 1451.02 L1258.64 1473.54 L1263.57 1473.54 L1263.57 1477.43 L1258.64 1477.43 L1258.64 1485.58 L1253.98 1485.58 L1253.98 1477.43 L1238.38 1477.43 L1238.38 1472.92 L1252.76 1451.02 Z" fill="#000000" fill-rule="nonzero" fill-opacity="1" /><path clip-path="url(#clip870)" d="M1802.27 1466.44 Q1799.12 1466.44 1797.27 1468.59 Q1795.44 1470.74 1795.44 1474.49 Q1795.44 1478.22 1797.27 1480.39 Q1799.12 1482.55 1802.27 1482.55 Q1805.42 1482.55 1807.25 1480.39 Q1809.1 1478.22 1809.1 1474.49 Q1809.1 1470.74 1807.25 1468.59 Q1805.42 1466.44 1802.27 1466.44 M1811.55 1451.78 L1811.55 1456.04 Q1809.79 1455.21 1807.99 1454.77 Q1806.2 1454.33 1804.45 1454.33 Q1799.82 1454.33 1797.36 1457.45 Q1794.93 1460.58 1794.58 1466.9 Q1795.95 1464.89 1798.01 1463.82 Q1800.07 1462.73 1802.55 1462.73 Q1807.76 1462.73 1810.77 1465.9 Q1813.8 1469.05 1813.8 1474.49 Q1813.8 1479.82 1810.65 1483.03 Q1807.5 1486.25 1802.27 1486.25 Q1796.27 1486.25 1793.1 1481.67 Q1789.93 1477.06 1789.93 1468.33 Q1789.93 1460.14 1793.82 1455.28 Q1797.71 1450.39 1804.26 1450.39 Q1806.02 1450.39 1807.8 1450.74 Q1809.61 1451.09 1811.55 1451.78 Z" fill="#000000" fill-rule="nonzero" fill-opacity="1" /><path clip-path="url(#clip870)" d="M2352.76 1469.17 Q2349.42 1469.17 2347.5 1470.95 Q2345.6 1472.73 2345.6 1475.86 Q2345.6 1478.98 2347.5 1480.77 Q2349.42 1482.55 2352.76 1482.55 Q2356.09 1482.55 2358.01 1480.77 Q2359.93 1478.96 2359.93 1475.86 Q2359.93 1472.73 2358.01 1470.95 Q2356.11 1469.17 2352.76 1469.17 M2348.08 1467.18 Q2345.07 1466.44 2343.38 1464.38 Q2341.71 1462.32 2341.71 1459.35 Q2341.71 1455.21 2344.65 1452.8 Q2347.62 1450.39 2352.76 1450.39 Q2357.92 1450.39 2360.86 1452.8 Q2363.8 1455.21 2363.8 1459.35 Q2363.8 1462.32 2362.11 1464.38 Q2360.44 1466.44 2357.45 1467.18 Q2360.83 1467.96 2362.71 1470.26 Q2364.61 1472.55 2364.61 1475.86 Q2364.61 1480.88 2361.53 1483.57 Q2358.47 1486.25 2352.76 1486.25 Q2347.04 1486.25 2343.96 1483.57 Q2340.9 1480.88 2340.9 1475.86 Q2340.9 1472.55 2342.8 1470.26 Q2344.7 1467.96 2348.08 1467.18 M2346.37 1459.79 Q2346.37 1462.48 2348.03 1463.98 Q2349.72 1465.49 2352.76 1465.49 Q2355.77 1465.49 2357.45 1463.98 Q2359.17 1462.48 2359.17 1459.79 Q2359.17 1457.11 2357.45 1455.6 Q2355.77 1454.1 2352.76 1454.1 Q2349.72 1454.1 2348.03 1455.6 Q2346.37 1457.11 2346.37 1459.79 Z" fill="#000000" fill-rule="nonzero" fill-opacity="1" /><path clip-path="url(#clip870)" d="M1250.03 1522.27 L1250.03 1532.4 L1262.1 1532.4 L1262.1 1536.95 L1250.03 1536.95 L1250.03 1556.3 Q1250.03 1560.66 1251.21 1561.9 Q1252.42 1563.14 1256.08 1563.14 L1262.1 1563.14 L1262.1 1568.04 L1256.08 1568.04 Q1249.3 1568.04 1246.72 1565.53 Q1244.15 1562.98 1244.15 1556.3 L1244.15 1536.95 L1239.85 1536.95 L1239.85 1532.4 L1244.15 1532.4 L1244.15 1522.27 L1250.03 1522.27 Z" fill="#000000" fill-rule="nonzero" fill-opacity="1" /><polyline clip-path="url(#clip870)" style="stroke:#000000; stroke-linecap:round; stroke-linejoin:round; stroke-width:4; stroke-opacity:1; fill:none" points="149.191,1423.18 149.191,47.2441 "/>
<polyline clip-path="url(#clip870)" style="stroke:#000000; stroke-linecap:round; stroke-linejoin:round; stroke-width:4; stroke-opacity:1; fill:none" points="149.191,1423.18 168.089,1423.18 "/>
<polyline clip-path="url(#clip870)" style="stroke:#000000; stroke-linecap:round; stroke-linejoin:round; stroke-width:4; stroke-opacity:1; fill:none" points="149.191,1193.86 168.089,1193.86 "/>
<polyline clip-path="url(#clip870)" style="stroke:#000000; stroke-linecap:round; stroke-linejoin:round; stroke-width:4; stroke-opacity:1; fill:none" points="149.191,964.535 168.089,964.535 "/>
<polyline clip-path="url(#clip870)" style="stroke:#000000; stroke-linecap:round; stroke-linejoin:round; stroke-width:4; stroke-opacity:1; fill:none" points="149.191,735.212 168.089,735.212 "/>
<polyline clip-path="url(#clip870)" style="stroke:#000000; stroke-linecap:round; stroke-linejoin:round; stroke-width:4; stroke-opacity:1; fill:none" points="149.191,505.889 168.089,505.889 "/>
<polyline clip-path="url(#clip870)" style="stroke:#000000; stroke-linecap:round; stroke-linejoin:round; stroke-width:4; stroke-opacity:1; fill:none" points="149.191,276.567 168.089,276.567 "/>
<polyline clip-path="url(#clip870)" style="stroke:#000000; stroke-linecap:round; stroke-linejoin:round; stroke-width:4; stroke-opacity:1; fill:none" points="149.191,47.2441 168.089,47.2441 "/>
<path clip-path="url(#clip870)" d="M51.3162 1423.63 L80.992 1423.63 L80.992 1427.57 L51.3162 1427.57 L51.3162 1423.63 Z" fill="#000000" fill-rule="nonzero" fill-opacity="1" /><path clip-path="url(#clip870)" d="M101.663 1421.32 Q98.515 1421.32 96.6632 1423.47 Q94.8345 1425.62 94.8345 1429.37 Q94.8345 1433.1 96.6632 1435.27 Q98.515 1437.43 101.663 1437.43 Q104.811 1437.43 106.64 1435.27 Q108.492 1433.1 108.492 1429.37 Q108.492 1425.62 106.64 1423.47 Q104.811 1421.32 101.663 1421.32 M110.946 1406.66 L110.946 1410.92 Q109.186 1410.09 107.381 1409.65 Q105.598 1409.21 103.839 1409.21 Q99.2095 1409.21 96.7558 1412.33 Q94.3252 1415.46 93.978 1421.78 Q95.3437 1419.77 97.4039 1418.7 Q99.4641 1417.61 101.941 1417.61 Q107.149 1417.61 110.158 1420.78 Q113.191 1423.93 113.191 1429.37 Q113.191 1434.7 110.043 1437.91 Q106.895 1441.13 101.663 1441.13 Q95.6678 1441.13 92.4965 1436.55 Q89.3253 1431.94 89.3253 1423.21 Q89.3253 1415.02 93.2141 1410.16 Q97.103 1405.27 103.654 1405.27 Q105.413 1405.27 107.196 1405.62 Q109.001 1405.97 110.946 1406.66 Z" fill="#000000" fill-rule="nonzero" fill-opacity="1" /><path clip-path="url(#clip870)" d="M50.9921 1194.31 L80.6679 1194.31 L80.6679 1198.24 L50.9921 1198.24 L50.9921 1194.31 Z" fill="#000000" fill-rule="nonzero" fill-opacity="1" /><path clip-path="url(#clip870)" d="M103.608 1180.65 L91.8021 1199.1 L103.608 1199.1 L103.608 1180.65 M102.381 1176.58 L108.26 1176.58 L108.26 1199.1 L113.191 1199.1 L113.191 1202.99 L108.26 1202.99 L108.26 1211.14 L103.608 1211.14 L103.608 1202.99 L88.0058 1202.99 L88.0058 1198.48 L102.381 1176.58 Z" fill="#000000" fill-rule="nonzero" fill-opacity="1" /><path clip-path="url(#clip870)" d="M53.0754 964.986 L82.7512 964.986 L82.7512 968.921 L53.0754 968.921 L53.0754 964.986 Z" fill="#000000" fill-rule="nonzero" fill-opacity="1" /><path clip-path="url(#clip870)" d="M96.8715 977.879 L113.191 977.879 L113.191 981.815 L91.2465 981.815 L91.2465 977.879 Q93.9086 975.125 98.4919 970.495 Q103.098 965.842 104.279 964.5 Q106.524 961.977 107.404 960.241 Q108.307 958.481 108.307 956.792 Q108.307 954.037 106.362 952.301 Q104.441 950.565 101.339 950.565 Q99.14 950.565 96.6863 951.329 Q94.2558 952.093 91.478 953.643 L91.478 948.921 Q94.3021 947.787 96.7558 947.208 Q99.2095 946.63 101.246 946.63 Q106.617 946.63 109.811 949.315 Q113.006 952 113.006 956.491 Q113.006 958.62 112.196 960.542 Q111.408 962.44 109.302 965.032 Q108.723 965.704 105.621 968.921 Q102.52 972.116 96.8715 977.879 Z" fill="#000000" fill-rule="nonzero" fill-opacity="1" /><path clip-path="url(#clip870)" d="M101.246 721.011 Q97.6354 721.011 95.8067 724.575 Q94.0012 728.117 94.0012 735.247 Q94.0012 742.353 95.8067 745.918 Q97.6354 749.46 101.246 749.46 Q104.881 749.46 106.686 745.918 Q108.515 742.353 108.515 735.247 Q108.515 728.117 106.686 724.575 Q104.881 721.011 101.246 721.011 M101.246 717.307 Q107.057 717.307 110.112 721.913 Q113.191 726.497 113.191 735.247 Q113.191 743.973 110.112 748.58 Q107.057 753.163 101.246 753.163 Q95.4363 753.163 92.3576 748.58 Q89.3021 743.973 89.3021 735.247 Q89.3021 726.497 92.3576 721.913 Q95.4363 717.307 101.246 717.307 Z" fill="#000000" fill-rule="nonzero" fill-opacity="1" /><path clip-path="url(#clip870)" d="M96.8715 519.234 L113.191 519.234 L113.191 523.169 L91.2465 523.169 L91.2465 519.234 Q93.9086 516.48 98.4919 511.85 Q103.098 507.197 104.279 505.855 Q106.524 503.331 107.404 501.595 Q108.307 499.836 108.307 498.146 Q108.307 495.392 106.362 493.656 Q104.441 491.92 101.339 491.92 Q99.14 491.92 96.6863 492.683 Q94.2558 493.447 91.478 494.998 L91.478 490.276 Q94.3021 489.142 96.7558 488.563 Q99.2095 487.984 101.246 487.984 Q106.617 487.984 109.811 490.67 Q113.006 493.355 113.006 497.845 Q113.006 499.975 112.196 501.896 Q111.408 503.794 109.302 506.387 Q108.723 507.058 105.621 510.276 Q102.52 513.47 96.8715 519.234 Z" fill="#000000" fill-rule="nonzero" fill-opacity="1" /><path clip-path="url(#clip870)" d="M103.608 263.361 L91.8021 281.81 L103.608 281.81 L103.608 263.361 M102.381 259.287 L108.26 259.287 L108.26 281.81 L113.191 281.81 L113.191 285.699 L108.26 285.699 L108.26 293.847 L103.608 293.847 L103.608 285.699 L88.0058 285.699 L88.0058 281.185 L102.381 259.287 Z" fill="#000000" fill-rule="nonzero" fill-opacity="1" /><path clip-path="url(#clip870)" d="M101.663 45.3807 Q98.515 45.3807 96.6632 47.5334 Q94.8345 49.6862 94.8345 53.4362 Q94.8345 57.163 96.6632 59.3389 Q98.515 61.4917 101.663 61.4917 Q104.811 61.4917 106.64 59.3389 Q108.492 57.163 108.492 53.4362 Q108.492 49.6862 106.64 47.5334 Q104.811 45.3807 101.663 45.3807 M110.946 30.728 L110.946 34.9872 Q109.186 34.1539 107.381 33.7141 Q105.598 33.2743 103.839 33.2743 Q99.2095 33.2743 96.7558 36.3992 Q94.3252 39.5242 93.978 45.8436 Q95.3437 43.8298 97.4039 42.765 Q99.4641 41.677 101.941 41.677 Q107.149 41.677 110.158 44.8483 Q113.191 47.9964 113.191 53.4362 Q113.191 58.7602 110.043 61.9778 Q106.895 65.1954 101.663 65.1954 Q95.6678 65.1954 92.4965 60.6121 Q89.3253 56.0056 89.3253 47.2788 Q89.3253 39.0844 93.2141 34.2233 Q97.103 29.3391 103.654 29.3391 Q105.413 29.3391 107.196 29.6863 Q109.001 30.0335 110.946 30.728 Z" fill="#000000" fill-rule="nonzero" fill-opacity="1" /><polyline clip-path="url(#clip871)" style="stroke:#009af9; stroke-linecap:round; stroke-linejoin:round; stroke-width:12; stroke-opacity:1; fill:none" points="149.191,1193.86 151.945,1191.46 154.7,1186.83 157.454,1181.69 160.209,1176.46 162.963,1171.21 165.718,1165.97 168.472,1160.73 171.227,1155.49 173.981,1150.25 176.735,1145.01 179.49,1139.76 182.244,1134.52 184.999,1129.28 187.753,1124.04 190.508,1118.8 193.262,1113.56 196.017,1108.31 198.771,1103.07 201.526,1097.83 204.28,1092.59 207.034,1087.35 209.789,1082.11 212.543,1076.86 215.298,1071.62 218.052,1066.38 220.807,1061.14 223.561,1055.9 226.316,1050.66 229.07,1045.43 231.825,1040.19 234.579,1034.96 237.333,1029.73 240.088,1024.5 242.842,1019.28 245.597,1014.07 248.351,1008.87 251.106,1003.67 253.86,998.489 256.615,993.318 259.369,988.161 262.124,983.019 264.878,977.894 267.632,972.789 270.387,967.704 273.141,962.642 275.896,957.603 278.65,952.59 281.405,947.604 284.159,942.646 286.914,937.717 289.668,932.818 292.423,927.951 295.177,923.117 297.932,918.316 300.686,913.549 303.44,908.817 306.195,904.121 308.949,899.461 311.704,894.837 314.458,890.25 317.213,885.701 319.967,881.189 322.722,876.715 325.476,872.278 328.231,867.88 330.985,863.518 333.739,859.195 336.494,854.909 339.248,850.66 342.003,846.448 344.757,842.273 347.512,838.135 350.266,834.034 353.021,829.968 355.775,825.939 358.53,821.944 361.284,817.985 364.038,814.061 366.793,810.171 369.547,806.315 372.302,802.493 375.056,798.703 377.811,794.946 380.565,791.221 383.32,787.528 386.074,783.867 388.829,780.236 391.583,776.636 394.337,773.066 397.092,769.526 399.846,766.015 402.601,762.533 405.355,759.08 408.11,755.655 410.864,752.258 413.619,748.888 416.373,745.545 419.128,742.229 421.882,738.939 424.636,735.676 427.391,732.438 430.145,729.225 432.9,726.037 435.654,722.874 438.409,719.736 441.163,716.621 443.918,713.53 446.672,710.462 449.427,707.418 452.181,704.397 454.936,701.398 457.69,698.421 460.444,695.466 463.199,692.534 465.953,689.623 468.708,686.733 471.462,683.864 474.217,681.016 476.971,678.189 479.726,675.382 482.48,672.596 485.235,669.829 487.989,667.083 490.743,664.355 493.498,661.648 496.252,658.959 499.007,656.289 501.761,653.638 504.516,651.006 507.27,648.392 510.025,645.797 512.779,643.219 515.534,640.66 518.288,638.118 521.042,635.594 523.797,633.087 526.551,630.598 529.306,628.126 532.06,625.671 534.815,623.233 537.569,620.812 540.324,618.407 543.078,616.019 545.833,613.647 548.587,611.291 551.341,608.952 554.096,606.628 556.85,604.321 559.605,602.029 562.359,599.753 565.114,597.492 567.868,595.247 570.623,593.017 573.377,590.802 576.132,588.602 578.886,586.418 581.641,584.248 584.395,582.093 587.149,579.952 589.904,577.827 592.658,575.715 595.413,573.618 598.167,571.536 600.922,569.467 603.676,567.413 606.431,565.372 609.185,563.346 611.94,561.333 614.694,559.334 617.448,557.349 620.203,555.377 622.957,553.419 625.712,551.474 628.466,549.543 631.221,547.624 633.975,545.719 636.73,543.827 639.484,541.948 642.239,540.081 644.993,538.228 647.747,536.387 650.502,534.559 653.256,532.744 656.011,530.941 658.765,529.151 661.52,527.373 664.274,525.607 667.029,523.854 669.783,522.113 672.538,520.384 675.292,518.667 678.046,516.962 680.801,515.269 683.555,513.588 686.31,511.918 689.064,510.26 691.819,508.614 694.573,506.979 697.328,505.356 700.082,503.745 702.837,502.144 705.591,500.555 708.345,498.977 711.1,497.411 713.854,495.855 716.609,494.311 719.363,492.777 722.118,491.255 724.872,489.743 727.627,488.242 730.381,486.752 733.136,485.272 735.89,483.803 738.645,482.345 741.399,480.897 744.153,479.459 746.908,478.032 749.662,476.615 752.417,475.208 755.171,473.812 757.926,472.426 760.68,471.049 763.435,469.683 766.189,468.327 768.944,466.98 771.698,465.643 774.452,464.317 777.207,462.999 779.961,461.692 782.716,460.394 785.47,459.106 788.225,457.826 790.979,456.557 793.734,455.297 796.488,454.046 799.243,452.805 801.997,451.572 804.751,450.349 807.506,449.135 810.26,447.93 813.015,446.734 815.769,445.547 818.524,444.369 821.278,443.199 824.033,442.039 826.787,440.887 829.542,439.743 832.296,438.609 835.05,437.483 837.805,436.365 840.559,435.256 843.314,434.155 846.068,433.063 848.823,431.979 851.577,430.903 854.332,429.835 857.086,428.776 859.841,427.724 862.595,426.681 865.349,425.645 868.104,424.618 870.858,423.598 873.613,422.587 876.367,421.582 879.122,420.586 881.876,419.598 884.631,418.617 887.385,417.643 890.14,416.677 892.894,415.719 895.649,414.768 898.403,413.824 901.157,412.888 903.912,411.959 906.666,411.037 909.421,410.123 912.175,409.215 914.93,408.315 917.684,407.422 920.439,406.535 923.193,405.656 925.948,404.783 928.702,403.918 931.456,403.059 934.211,402.207 936.965,401.362 939.72,400.523 942.474,399.691 945.229,398.865 947.983,398.046 950.738,397.234 953.492,396.428 956.247,395.628 959.001,394.835 961.755,394.048 964.51,393.267 967.264,392.492 970.019,391.724 972.773,390.961 975.528,390.205 978.282,389.455 981.037,388.711 983.791,387.972 986.546,387.24 989.3,386.513 992.054,385.793 994.809,385.078 997.563,384.368 1000.32,383.665 1003.07,382.967 1005.83,382.275 1008.58,381.588 1011.34,380.907 1014.09,380.231 1016.84,379.56 1019.6,378.895 1022.35,378.236 1025.11,377.581 1027.86,376.932 1030.62,376.288 1033.37,375.65 1036.13,375.016 1038.88,374.388 1041.63,373.764 1044.39,373.146 1047.14,372.533 1049.9,371.924 1052.65,371.321 1055.41,370.722 1058.16,370.128 1060.92,369.539 1063.67,368.955 1066.42,368.375 1069.18,367.8 1071.93,367.229 1074.69,366.664 1077.44,366.102 1080.2,365.546 1082.95,364.993 1085.71,364.446 1088.46,363.902 1091.21,363.363 1093.97,362.829 1096.72,362.298 1099.48,361.772 1102.23,361.25 1104.99,360.732 1107.74,360.219 1110.5,359.71 1113.25,359.204 1116.01,358.703 1118.76,358.206 1121.51,357.712 1124.27,357.223 1127.02,356.738 1129.78,356.256 1132.53,355.779 1135.29,355.305 1138.04,354.835 1140.8,354.368 1143.55,353.906 1146.3,353.447 1149.06,352.992 1151.81,352.54 1154.57,352.092 1157.32,351.647 1160.08,351.206 1162.83,350.769 1165.59,350.335 1168.34,349.904 1171.09,349.477 1173.85,349.053 1176.6,348.633 1179.36,348.216 1182.11,347.802 1184.87,347.391 1187.62,346.984 1190.38,346.579 1193.13,346.178 1195.88,345.78 1198.64,345.385 1201.39,344.993 1204.15,344.605 1206.9,344.219 1209.66,343.836 1212.41,343.456 1215.17,343.079 1217.92,342.705 1220.67,342.334 1223.43,341.965 1226.18,341.6 1228.94,341.237 1231.69,340.877 1234.45,340.52 1237.2,340.165 1239.96,339.813 1242.71,339.464 1245.46,339.117 1248.22,338.773 1250.97,338.432 1253.73,338.093 1256.48,337.756 1259.24,337.422 1261.99,337.09 1264.75,336.761 1267.5,336.435 1270.25,336.11 1273.01,335.788 1275.76,335.469 1278.52,335.151 1281.27,334.836 1284.03,334.524 1286.78,334.213 1289.54,333.905 1292.29,333.599 1295.04,333.295 1297.8,332.993 1300.55,332.693 1303.31,332.395 1306.06,332.1 1308.82,331.806 1311.57,331.515 1314.33,331.225 1317.08,330.938 1319.83,330.652 1322.59,330.369 1325.34,330.087 1328.1,329.807 1330.85,329.529 1333.61,329.253 1336.36,328.979 1339.12,328.706 1341.87,328.435 1344.62,328.167 1347.38,327.899 1350.13,327.634 1352.89,327.37 1355.64,327.108 1358.4,326.848 1361.15,326.589 1363.91,326.332 1366.66,326.076 1369.41,325.822 1372.17,325.57 1374.92,325.319 1377.68,325.07 1380.43,324.822 1383.19,324.576 1385.94,324.331 1388.7,324.087 1391.45,323.845 1394.21,323.605 1396.96,323.366 1399.71,323.128 1402.47,322.892 1405.22,322.657 1407.98,322.423 1410.73,322.191 1413.49,321.96 1416.24,321.73 1419,321.501 1421.75,321.274 1424.5,321.048 1427.26,320.823 1430.01,320.6 1432.77,320.377 1435.52,320.156 1438.28,319.936 1441.03,319.717 1443.79,319.499 1446.54,319.282 1449.29,319.067 1452.05,318.852 1454.8,318.639 1457.56,318.427 1460.31,318.215 1463.07,318.005 1465.82,317.796 1468.58,317.588 1471.33,317.38 1474.08,317.174 1476.84,316.969 1479.59,316.764 1482.35,316.561 1485.1,316.358 1487.86,316.157 1490.61,315.956 1493.37,315.756 1496.12,315.557 1498.87,315.359 1501.63,315.162 1504.38,314.965 1507.14,314.77 1509.89,314.575 1512.65,314.381 1515.4,314.188 1518.16,313.995 1520.91,313.804 1523.66,313.613 1526.42,313.422 1529.17,313.233 1531.93,313.044 1534.68,312.856 1537.44,312.668 1540.19,312.482 1542.95,312.296 1545.7,312.11 1548.45,311.925 1551.21,311.741 1553.96,311.558 1556.72,311.375 1559.47,311.193 1562.23,311.011 1564.98,310.83 1567.74,310.65 1570.49,310.47 1573.24,310.29 1576,310.111 1578.75,309.933 1581.51,309.756 1584.26,309.578 1587.02,309.402 1589.77,309.226 1592.53,309.05 1595.28,308.875 1598.03,308.7 1600.79,308.526 1603.54,308.352 1606.3,308.179 1609.05,308.006 1611.81,307.834 1614.56,307.662 1617.32,307.49 1620.07,307.319 1622.82,307.149 1625.58,306.978 1628.33,306.809 1631.09,306.639 1633.84,306.47 1636.6,306.301 1639.35,306.133 1642.11,305.965 1644.86,305.797 1647.62,305.63 1650.37,305.463 1653.12,305.296 1655.88,305.13 1658.63,304.964 1661.39,304.798 1664.14,304.633 1666.9,304.468 1669.65,304.303 1672.41,304.139 1675.16,303.974 1677.91,303.81 1680.67,303.647 1683.42,303.483 1686.18,303.32 1688.93,303.157 1691.69,302.995 1694.44,302.832 1697.2,302.67 1699.95,302.508 1702.7,302.346 1705.46,302.185 1708.21,302.023 1710.97,301.862 1713.72,301.701 1716.48,301.541 1719.23,301.38 1721.99,301.22 1724.74,301.06 1727.49,300.9 1730.25,300.74 1733,300.58 1735.76,300.421 1738.51,300.262 1741.27,300.102 1744.02,299.943 1746.78,299.785 1749.53,299.626 1752.28,299.467 1755.04,299.309 1757.79,299.151 1760.55,298.993 1763.3,298.835 1766.06,298.677 1768.81,298.519 1771.57,298.361 1774.32,298.204 1777.07,298.046 1779.83,297.889 1782.58,297.732 1785.34,297.575 1788.09,297.418 1790.85,297.261 1793.6,297.104 1796.36,296.947 1799.11,296.791 1801.86,296.634 1804.62,296.478 1807.37,296.321 1810.13,296.165 1812.88,296.009 1815.64,295.853 1818.39,295.697 1821.15,295.541 1823.9,295.385 1826.65,295.229 1829.41,295.073 1832.16,294.918 1834.92,294.762 1837.67,294.606 1840.43,294.451 1843.18,294.296 1845.94,294.14 1848.69,293.985 1851.44,293.83 1854.2,293.674 1856.95,293.519 1859.71,293.364 1862.46,293.209 1865.22,293.054 1867.97,292.899 1870.73,292.744 1873.48,292.589 1876.23,292.434 1878.99,292.279 1881.74,292.124 1884.5,291.969 1887.25,291.814 1890.01,291.659 1892.76,291.504 1895.52,291.35 1898.27,291.195 1901.03,291.04 1903.78,290.885 1906.53,290.731 1909.29,290.576 1912.04,290.422 1914.8,290.267 1917.55,290.112 1920.31,289.958 1923.06,289.803 1925.82,289.649 1928.57,289.494 1931.32,289.34 1934.08,289.185 1936.83,289.031 1939.59,288.876 1942.34,288.722 1945.1,288.568 1947.85,288.413 1950.61,288.259 1953.36,288.105 1956.11,287.95 1958.87,287.796 1961.62,287.642 1964.38,287.487 1967.13,287.333 1969.89,287.179 1972.64,287.025 1975.4,286.871 1978.15,286.716 1980.9,286.562 1983.66,286.408 1986.41,286.254 1989.17,286.1 1991.92,285.946 1994.68,285.792 1997.43,285.637 2000.19,285.483 2002.94,285.329 2005.69,285.175 2008.45,285.021 2011.2,284.867 2013.96,284.713 2016.71,284.559 2019.47,284.405 2022.22,284.251 2024.98,284.097 2027.73,283.943 2030.48,283.789 2033.24,283.635 2035.99,283.481 2038.75,283.327 2041.5,283.173 2044.26,283.019 2047.01,282.865 2049.77,282.711 2052.52,282.557 2055.27,282.403 2058.03,282.249 2060.78,282.095 2063.54,281.941 2066.29,281.787 2069.05,281.633 2071.8,281.479 2074.56,281.325 2077.31,281.171 2080.06,281.017 2082.82,280.863 2085.57,280.709 2088.33,280.555 2091.08,280.402 2093.84,280.248 2096.59,280.094 2099.35,279.94 2102.1,279.786 2104.85,279.632 2107.61,279.478 2110.36,279.324 2113.12,279.17 2115.87,279.016 2118.63,278.862 2121.38,278.708 2124.14,278.554 2126.89,278.4 2129.64,278.246 2132.4,278.092 2135.15,277.937 2137.91,277.783 2140.66,277.629 2143.42,277.475 2146.17,277.321 2148.93,277.167 2151.68,277.013 2154.44,276.859 2157.19,276.705 2159.94,276.551 2162.7,276.397 2165.45,276.242 2168.21,276.088 2170.96,275.934 2173.72,275.78 2176.47,275.626 2179.23,275.471 2181.98,275.317 2184.73,275.163 2187.49,275.009 2190.24,274.854 2193,274.7 2195.75,274.546 2198.51,274.392 2201.26,274.237 2204.02,274.083 2206.77,273.929 2209.52,273.774 2212.28,273.62 2215.03,273.465 2217.79,273.311 2220.54,273.157 2223.3,273.002 2226.05,272.848 2228.81,272.693 2231.56,272.539 2234.31,272.384 2237.07,272.23 2239.82,272.075 2242.58,271.92 2245.33,271.766 2248.09,271.611 2250.84,271.457 2253.6,271.302 2256.35,271.147 2259.1,270.992 2261.86,270.838 2264.61,270.683 2267.37,270.528 2270.12,270.373 2272.88,270.219 2275.63,270.064 2278.39,269.909 2281.14,269.754 2283.89,269.599 2286.65,269.444 2289.4,269.289 2292.16,269.134 2294.91,268.979 2297.67,268.824 2300.42,268.669 2303.18,268.514 2305.93,268.359 2308.68,268.204 2311.44,268.048 2314.19,267.893 2316.95,267.738 2319.7,267.583 2322.46,267.428 2325.21,267.272 2327.97,267.117 2330.72,266.962 2333.47,266.806 2336.23,266.651 2338.98,266.495 2341.74,266.34 2344.49,266.184 2347.25,266.029 2350,265.873 2352.76,265.718 "/>
<polyline clip-path="url(#clip871)" style="stroke:#e26f46; stroke-linecap:round; stroke-linejoin:round; stroke-width:12; stroke-opacity:1; fill:none" points="149.191,735.212 151.945,335.834 154.7,233.692 157.454,214.007 160.209,211.257 162.963,211.022 165.718,211.013 168.472,211.015 171.227,211.02 173.981,211.029 176.735,211.037 179.49,211.042 182.244,211.046 184.999,211.048 187.753,211.049 190.508,211.049 193.262,211.049 196.017,211.05 198.771,211.05 201.526,211.052 204.28,211.055 207.034,211.06 209.789,211.068 212.543,211.081 215.298,211.103 218.052,211.139 220.807,211.196 223.561,211.281 226.316,211.403 229.07,211.575 231.825,211.807 234.579,212.114 237.333,212.508 240.088,213.002 242.842,213.61 245.597,214.344 248.351,215.214 251.106,216.231 253.86,217.401 256.615,218.73 259.369,220.222 262.124,221.878 264.878,223.701 267.632,225.687 270.387,227.835 273.141,230.143 275.896,232.605 278.65,235.213 281.405,237.958 284.159,240.83 286.914,243.823 289.668,246.926 292.423,250.13 295.177,253.428 297.932,256.811 300.686,260.27 303.44,263.796 306.195,267.381 308.949,271.017 311.704,274.695 314.458,278.407 317.213,282.145 319.967,285.9 322.722,289.665 325.476,293.437 328.231,297.208 330.985,300.976 333.739,304.734 336.494,308.479 339.248,312.207 342.003,315.915 344.757,319.598 347.512,323.255 350.266,326.881 353.021,330.475 355.775,334.035 358.53,337.559 361.284,341.045 364.038,344.492 366.793,347.9 369.547,351.267 372.302,354.593 375.056,357.879 377.811,361.124 380.565,364.327 383.32,367.487 386.074,370.607 388.829,373.684 391.583,376.721 394.337,379.718 397.092,382.674 399.846,385.59 402.601,388.467 405.355,391.306 408.11,394.106 410.864,396.868 413.619,399.593 416.373,402.281 419.128,404.933 421.882,407.55 424.636,410.132 427.391,412.68 430.145,415.194 432.9,417.676 435.654,420.126 438.409,422.544 441.163,424.932 443.918,427.291 446.672,429.621 449.427,431.923 452.181,434.197 454.936,436.443 457.69,438.664 460.444,440.858 463.199,443.027 465.953,445.172 468.708,447.293 471.462,449.39 474.217,451.464 476.971,453.515 479.726,455.545 482.48,457.554 485.235,459.541 487.989,461.508 490.743,463.455 493.498,465.383 496.252,467.292 499.007,469.183 501.761,471.055 504.516,472.909 507.27,474.747 510.025,476.567 512.779,478.371 515.534,480.158 518.288,481.93 521.042,483.686 523.797,485.427 526.551,487.154 529.306,488.865 532.06,490.563 534.815,492.246 537.569,493.916 540.324,495.572 543.078,497.215 545.833,498.846 548.587,500.463 551.341,502.069 554.096,503.662 556.85,505.243 559.605,506.812 562.359,508.37 565.114,509.916 567.868,511.452 570.623,512.976 573.377,514.489 576.132,515.992 578.886,517.484 581.641,518.966 584.395,520.438 587.149,521.899 589.904,523.351 592.658,524.793 595.413,526.226 598.167,527.649 600.922,529.063 603.676,530.468 606.431,531.863 609.185,533.25 611.94,534.628 614.694,535.998 617.448,537.359 620.203,538.711 622.957,540.055 625.712,541.391 628.466,542.719 631.221,544.038 633.975,545.35 636.73,546.654 639.484,547.949 642.239,549.238 644.993,550.518 647.747,551.791 650.502,553.056 653.256,554.314 656.011,555.564 658.765,556.807 661.52,558.043 664.274,559.271 667.029,560.493 669.783,561.707 672.538,562.914 675.292,564.115 678.046,565.308 680.801,566.494 683.555,567.674 686.31,568.847 689.064,570.013 691.819,571.172 694.573,572.325 697.328,573.47 700.082,574.61 702.837,575.743 705.591,576.869 708.345,577.989 711.1,579.102 713.854,580.209 716.609,581.31 719.363,582.404 722.118,583.492 724.872,584.574 727.627,585.649 730.381,586.718 733.136,587.781 735.89,588.838 738.645,589.889 741.399,590.934 744.153,591.973 746.908,593.006 749.662,594.033 752.417,595.054 755.171,596.068 757.926,597.078 760.68,598.081 763.435,599.078 766.189,600.07 768.944,601.055 771.698,602.035 774.452,603.01 777.207,603.978 779.961,604.941 782.716,605.898 785.47,606.849 788.225,607.795 790.979,608.736 793.734,609.67 796.488,610.599 799.243,611.523 801.997,612.441 804.751,613.353 807.506,614.26 810.26,615.162 813.015,616.057 815.769,616.948 818.524,617.833 821.278,618.713 824.033,619.587 826.787,620.456 829.542,621.319 832.296,622.177 835.05,623.03 837.805,623.878 840.559,624.72 843.314,625.557 846.068,626.389 848.823,627.216 851.577,628.037 854.332,628.853 857.086,629.664 859.841,630.47 862.595,631.271 865.349,632.066 868.104,632.857 870.858,633.642 873.613,634.422 876.367,635.198 879.122,635.968 881.876,636.733 884.631,637.493 887.385,638.248 890.14,638.999 892.894,639.744 895.649,640.484 898.403,641.22 901.157,641.95 903.912,642.676 906.666,643.397 909.421,644.113 912.175,644.824 914.93,645.53 917.684,646.232 920.439,646.928 923.193,647.62 925.948,648.308 928.702,648.99 931.456,649.668 934.211,650.341 936.965,651.01 939.72,651.673 942.474,652.333 945.229,652.987 947.983,653.637 950.738,654.282 953.492,654.923 956.247,655.56 959.001,656.191 961.755,656.819 964.51,657.441 967.264,658.06 970.019,658.673 972.773,659.283 975.528,659.888 978.282,660.488 981.037,661.085 983.791,661.676 986.546,662.264 989.3,662.847 992.054,663.426 994.809,664 997.563,664.571 1000.32,665.137 1003.07,665.698 1005.83,666.256 1008.58,666.809 1011.34,667.358 1014.09,667.903 1016.84,668.444 1019.6,668.981 1022.35,669.513 1025.11,670.042 1027.86,670.566 1030.62,671.086 1033.37,671.603 1036.13,672.115 1038.88,672.623 1041.63,673.127 1044.39,673.628 1047.14,674.124 1049.9,674.616 1052.65,675.105 1055.41,675.589 1058.16,676.07 1060.92,676.546 1063.67,677.019 1066.42,677.488 1069.18,677.953 1071.93,678.415 1074.69,678.872 1077.44,679.326 1080.2,679.776 1082.95,680.223 1085.71,680.665 1088.46,681.104 1091.21,681.54 1093.97,681.972 1096.72,682.4 1099.48,682.824 1102.23,683.245 1104.99,683.663 1107.74,684.076 1110.5,684.487 1113.25,684.894 1116.01,685.297 1118.76,685.697 1121.51,686.093 1124.27,686.486 1127.02,686.876 1129.78,687.262 1132.53,687.645 1135.29,688.024 1138.04,688.4 1140.8,688.773 1143.55,689.142 1146.3,689.509 1149.06,689.871 1151.81,690.231 1154.57,690.588 1157.32,690.941 1160.08,691.291 1162.83,691.638 1165.59,691.982 1168.34,692.322 1171.09,692.66 1173.85,692.994 1176.6,693.325 1179.36,693.654 1182.11,693.979 1184.87,694.301 1187.62,694.62 1190.38,694.936 1193.13,695.25 1195.88,695.56 1198.64,695.867 1201.39,696.171 1204.15,696.473 1206.9,696.772 1209.66,697.067 1212.41,697.36 1215.17,697.65 1217.92,697.937 1220.67,698.222 1223.43,698.504 1226.18,698.782 1228.94,699.059 1231.69,699.332 1234.45,699.603 1237.2,699.871 1239.96,700.136 1242.71,700.399 1245.46,700.659 1248.22,700.916 1250.97,701.171 1253.73,701.423 1256.48,701.673 1259.24,701.92 1261.99,702.165 1264.75,702.407 1267.5,702.646 1270.25,702.883 1273.01,703.118 1275.76,703.35 1278.52,703.58 1281.27,703.807 1284.03,704.032 1286.78,704.254 1289.54,704.474 1292.29,704.692 1295.04,704.907 1297.8,705.12 1300.55,705.331 1303.31,705.539 1306.06,705.746 1308.82,705.95 1311.57,706.151 1314.33,706.351 1317.08,706.548 1319.83,706.743 1322.59,706.936 1325.34,707.126 1328.1,707.315 1330.85,707.501 1333.61,707.686 1336.36,707.868 1339.12,708.048 1341.87,708.226 1344.62,708.402 1347.38,708.576 1350.13,708.748 1352.89,708.918 1355.64,709.086 1358.4,709.252 1361.15,709.416 1363.91,709.578 1366.66,709.738 1369.41,709.896 1372.17,710.052 1374.92,710.207 1377.68,710.359 1380.43,710.51 1383.19,710.659 1385.94,710.806 1388.7,710.951 1391.45,711.095 1394.21,711.236 1396.96,711.376 1399.71,711.515 1402.47,711.651 1405.22,711.786 1407.98,711.919 1410.73,712.05 1413.49,712.18 1416.24,712.308 1419,712.434 1421.75,712.559 1424.5,712.682 1427.26,712.803 1430.01,712.923 1432.77,713.042 1435.52,713.158 1438.28,713.274 1441.03,713.387 1443.79,713.5 1446.54,713.61 1449.29,713.719 1452.05,713.827 1454.8,713.933 1457.56,714.038 1460.31,714.142 1463.07,714.244 1465.82,714.344 1468.58,714.444 1471.33,714.541 1474.08,714.638 1476.84,714.733 1479.59,714.827 1482.35,714.919 1485.1,715.01 1487.86,715.1 1490.61,715.189 1493.37,715.276 1496.12,715.362 1498.87,715.447 1501.63,715.531 1504.38,715.613 1507.14,715.694 1509.89,715.774 1512.65,715.853 1515.4,715.93 1518.16,716.007 1520.91,716.082 1523.66,716.156 1526.42,716.229 1529.17,716.301 1531.93,716.372 1534.68,716.441 1537.44,716.51 1540.19,716.577 1542.95,716.644 1545.7,716.709 1548.45,716.773 1551.21,716.837 1553.96,716.899 1556.72,716.96 1559.47,717.021 1562.23,717.08 1564.98,717.138 1567.74,717.196 1570.49,717.252 1573.24,717.308 1576,717.362 1578.75,717.416 1581.51,717.469 1584.26,717.521 1587.02,717.572 1589.77,717.622 1592.53,717.671 1595.28,717.719 1598.03,717.767 1600.79,717.814 1603.54,717.859 1606.3,717.904 1609.05,717.949 1611.81,717.992 1614.56,718.035 1617.32,718.077 1620.07,718.118 1622.82,718.158 1625.58,718.198 1628.33,718.237 1631.09,718.275 1633.84,718.312 1636.6,718.349 1639.35,718.385 1642.11,718.421 1644.86,718.455 1647.62,718.489 1650.37,718.523 1653.12,718.555 1655.88,718.587 1658.63,718.619 1661.39,718.65 1664.14,718.68 1666.9,718.709 1669.65,718.738 1672.41,718.767 1675.16,718.794 1677.91,718.822 1680.67,718.848 1683.42,718.874 1686.18,718.9 1688.93,718.925 1691.69,718.949 1694.44,718.973 1697.2,718.997 1699.95,719.019 1702.7,719.042 1705.46,719.064 1708.21,719.085 1710.97,719.106 1713.72,719.126 1716.48,719.146 1719.23,719.166 1721.99,719.185 1724.74,719.204 1727.49,719.222 1730.25,719.24 1733,719.257 1735.76,719.274 1738.51,719.29 1741.27,719.306 1744.02,719.322 1746.78,719.337 1749.53,719.352 1752.28,719.367 1755.04,719.381 1757.79,719.395 1760.55,719.408 1763.3,719.421 1766.06,719.434 1768.81,719.447 1771.57,719.459 1774.32,719.47 1777.07,719.482 1779.83,719.493 1782.58,719.504 1785.34,719.514 1788.09,719.525 1790.85,719.535 1793.6,719.544 1796.36,719.554 1799.11,719.563 1801.86,719.572 1804.62,719.58 1807.37,719.589 1810.13,719.597 1812.88,719.605 1815.64,719.612 1818.39,719.619 1821.15,719.627 1823.9,719.633 1826.65,719.64 1829.41,719.647 1832.16,719.653 1834.92,719.659 1837.67,719.665 1840.43,719.67 1843.18,719.676 1845.94,719.681 1848.69,719.686 1851.44,719.691 1854.2,719.696 1856.95,719.7 1859.71,719.705 1862.46,719.709 1865.22,719.713 1867.97,719.717 1870.73,719.721 1873.48,719.725 1876.23,719.728 1878.99,719.732 1881.74,719.735 1884.5,719.738 1887.25,719.741 1890.01,719.744 1892.76,719.747 1895.52,719.749 1898.27,719.752 1901.03,719.754 1903.78,719.757 1906.53,719.759 1909.29,719.761 1912.04,719.763 1914.8,719.765 1917.55,719.767 1920.31,719.769 1923.06,719.77 1925.82,719.772 1928.57,719.773 1931.32,719.775 1934.08,719.776 1936.83,719.778 1939.59,719.779 1942.34,719.78 1945.1,719.781 1947.85,719.782 1950.61,719.783 1953.36,719.784 1956.11,719.785 1958.87,719.786 1961.62,719.786 1964.38,719.787 1967.13,719.788 1969.89,719.788 1972.64,719.789 1975.4,719.789 1978.15,719.79 1980.9,719.79 1983.66,719.791 1986.41,719.791 1989.17,719.791 1991.92,719.792 1994.68,719.792 1997.43,719.792 2000.19,719.792 2002.94,719.793 2005.69,719.793 2008.45,719.793 2011.2,719.793 2013.96,719.793 2016.71,719.793 2019.47,719.793 2022.22,719.793 2024.98,719.793 2027.73,719.793 2030.48,719.793 2033.24,719.793 2035.99,719.793 2038.75,719.793 2041.5,719.793 2044.26,719.793 2047.01,719.793 2049.77,719.793 2052.52,719.793 2055.27,719.793 2058.03,719.793 2060.78,719.793 2063.54,719.793 2066.29,719.792 2069.05,719.792 2071.8,719.792 2074.56,719.792 2077.31,719.792 2080.06,719.792 2082.82,719.792 2085.57,719.792 2088.33,719.792 2091.08,719.792 2093.84,719.791 2096.59,719.791 2099.35,719.791 2102.1,719.791 2104.85,719.791 2107.61,719.791 2110.36,719.791 2113.12,719.791 2115.87,719.791 2118.63,719.79 2121.38,719.79 2124.14,719.79 2126.89,719.79 2129.64,719.79 2132.4,719.79 2135.15,719.79 2137.91,719.79 2140.66,719.789 2143.42,719.789 2146.17,719.789 2148.93,719.789 2151.68,719.789 2154.44,719.789 2157.19,719.788 2159.94,719.788 2162.7,719.788 2165.45,719.788 2168.21,719.787 2170.96,719.787 2173.72,719.787 2176.47,719.787 2179.23,719.786 2181.98,719.786 2184.73,719.786 2187.49,719.785 2190.24,719.785 2193,719.784 2195.75,719.784 2198.51,719.783 2201.26,719.783 2204.02,719.782 2206.77,719.782 2209.52,719.781 2212.28,719.78 2215.03,719.78 2217.79,719.779 2220.54,719.778 2223.3,719.777 2226.05,719.776 2228.81,719.775 2231.56,719.775 2234.31,719.773 2237.07,719.772 2239.82,719.771 2242.58,719.77 2245.33,719.769 2248.09,719.767 2250.84,719.766 2253.6,719.765 2256.35,719.763 2259.1,719.761 2261.86,719.76 2264.61,719.758 2267.37,719.756 2270.12,719.754 2272.88,719.752 2275.63,719.75 2278.39,719.748 2281.14,719.745 2283.89,719.743 2286.65,719.74 2289.4,719.738 2292.16,719.735 2294.91,719.732 2297.67,719.729 2300.42,719.726 2303.18,719.723 2305.93,719.72 2308.68,719.716 2311.44,719.713 2314.19,719.709 2316.95,719.705 2319.7,719.701 2322.46,719.697 2325.21,719.693 2327.97,719.688 2330.72,719.684 2333.47,719.679 2336.23,719.674 2338.98,719.669 2341.74,719.664 2344.49,719.659 2347.25,719.653 2350,719.647 2352.76,719.641 "/>
<polyline clip-path="url(#clip871)" style="stroke:#3da44d; stroke-linecap:round; stroke-linejoin:round; stroke-width:12; stroke-opacity:1; fill:none" points="149.191,-230.208 151.945,99.3544 154.7,354.486 157.454,529.132 160.209,637.742 162.963,700.406 165.718,734.035 168.472,750.341 171.227,756.742 173.981,757.736 176.735,756.005 179.49,753.133 182.244,750.05 184.999,747.297 187.753,745.179 190.508,743.862 193.262,743.42 196.017,743.874 198.771,745.207 201.526,747.377 204.28,750.329 207.034,753.994 209.789,758.295 212.543,763.152 215.298,768.482 218.052,774.202 220.807,780.229 223.561,786.484 226.316,792.892 229.07,799.383 231.825,805.893 234.579,812.365 237.333,818.747 240.088,824.995 242.842,831.073 245.597,836.949 248.351,842.599 251.106,848.004 253.86,853.15 256.615,858.026 259.369,862.628 262.124,866.952 264.878,870.999 267.632,874.773 270.387,878.278 273.141,881.52 275.896,884.507 278.65,887.248 281.405,889.752 284.159,892.029 286.914,894.089 289.668,895.942 292.423,897.6 295.177,899.072 297.932,900.368 300.686,901.499 303.44,902.475 306.195,903.305 308.949,903.999 311.704,904.565 314.458,905.012 317.213,905.348 319.967,905.582 322.722,905.72 325.476,905.769 328.231,905.738 330.985,905.631 333.739,905.455 336.494,905.216 339.248,904.919 342.003,904.569 344.757,904.172 347.512,903.731 350.266,903.251 353.021,902.736 355.775,902.189 358.53,901.615 361.284,901.016 364.038,900.394 366.793,899.754 369.547,899.098 372.302,898.428 375.056,897.745 377.811,897.053 380.565,896.354 383.32,895.648 386.074,894.938 388.829,894.225 391.583,893.51 394.337,892.795 397.092,892.081 399.846,891.368 402.601,890.659 405.355,889.952 408.11,889.25 410.864,888.553 413.619,887.862 416.373,887.177 419.128,886.498 421.882,885.827 424.636,885.163 427.391,884.506 430.145,883.858 432.9,883.218 435.654,882.586 438.409,881.963 441.163,881.348 443.918,880.743 446.672,880.146 449.427,879.558 452.181,878.979 454.936,878.409 457.69,877.848 460.444,877.296 463.199,876.753 465.953,876.218 468.708,875.692 471.462,875.175 474.217,874.666 476.971,874.166 479.726,873.674 482.48,873.19 485.235,872.714 487.989,872.246 490.743,871.785 493.498,871.333 496.252,870.887 499.007,870.449 501.761,870.018 504.516,869.595 507.27,869.178 510.025,868.767 512.779,868.364 515.534,867.966 518.288,867.575 521.042,867.19 523.797,866.811 526.551,866.438 529.306,866.07 532.06,865.707 534.815,865.35 537.569,864.999 540.324,864.652 543.078,864.31 545.833,863.973 548.587,863.641 551.341,863.313 554.096,862.99 556.85,862.67 559.605,862.355 562.359,862.044 565.114,861.737 567.868,861.433 570.623,861.133 573.377,860.837 576.132,860.544 578.886,860.254 581.641,859.968 584.395,859.684 587.149,859.404 589.904,859.126 592.658,858.851 595.413,858.579 598.167,858.31 600.922,858.043 603.676,857.778 606.431,857.516 609.185,857.256 611.94,856.998 614.694,856.743 617.448,856.489 620.203,856.237 622.957,855.988 625.712,855.74 628.466,855.493 631.221,855.249 633.975,855.006 636.73,854.764 639.484,854.524 642.239,854.286 644.993,854.049 647.747,853.813 650.502,853.578 653.256,853.345 656.011,853.113 658.765,852.882 661.52,852.652 664.274,852.423 667.029,852.195 669.783,851.968 672.538,851.741 675.292,851.516 678.046,851.291 680.801,851.067 683.555,850.844 686.31,850.622 689.064,850.4 691.819,850.179 694.573,849.958 697.328,849.739 700.082,849.519 702.837,849.3 705.591,849.082 708.345,848.864 711.1,848.646 713.854,848.429 716.609,848.212 719.363,847.995 722.118,847.779 724.872,847.564 727.627,847.348 730.381,847.133 733.136,846.917 735.89,846.702 738.645,846.488 741.399,846.273 744.153,846.059 746.908,845.845 749.662,845.631 752.417,845.417 755.171,845.203 757.926,844.989 760.68,844.775 763.435,844.562 766.189,844.348 768.944,844.134 771.698,843.921 774.452,843.707 777.207,843.494 779.961,843.28 782.716,843.067 785.47,842.853 788.225,842.639 790.979,842.425 793.734,842.212 796.488,841.998 799.243,841.784 801.997,841.57 804.751,841.356 807.506,841.141 810.26,840.927 813.015,840.713 815.769,840.498 818.524,840.283 821.278,840.068 824.033,839.854 826.787,839.638 829.542,839.423 832.296,839.208 835.05,838.992 837.805,838.777 840.559,838.561 843.314,838.345 846.068,838.129 848.823,837.913 851.577,837.696 854.332,837.479 857.086,837.262 859.841,837.045 862.595,836.828 865.349,836.611 868.104,836.393 870.858,836.175 873.613,835.957 876.367,835.739 879.122,835.521 881.876,835.302 884.631,835.083 887.385,834.864 890.14,834.645 892.894,834.426 895.649,834.206 898.403,833.987 901.157,833.767 903.912,833.546 906.666,833.326 909.421,833.106 912.175,832.885 914.93,832.664 917.684,832.443 920.439,832.221 923.193,832 925.948,831.778 928.702,831.556 931.456,831.334 934.211,831.111 936.965,830.889 939.72,830.666 942.474,830.443 945.229,830.22 947.983,829.997 950.738,829.773 953.492,829.549 956.247,829.325 959.001,829.101 961.755,828.877 964.51,828.652 967.264,828.427 970.019,828.202 972.773,827.977 975.528,827.752 978.282,827.527 981.037,827.301 983.791,827.075 986.546,826.849 989.3,826.623 992.054,826.397 994.809,826.17 997.563,825.943 1000.32,825.716 1003.07,825.489 1005.83,825.262 1008.58,825.034 1011.34,824.807 1014.09,824.579 1016.84,824.351 1019.6,824.123 1022.35,823.895 1025.11,823.666 1027.86,823.438 1030.62,823.209 1033.37,822.98 1036.13,822.751 1038.88,822.522 1041.63,822.292 1044.39,822.063 1047.14,821.833 1049.9,821.603 1052.65,821.373 1055.41,821.143 1058.16,820.913 1060.92,820.682 1063.67,820.452 1066.42,820.221 1069.18,819.99 1071.93,819.759 1074.69,819.528 1077.44,819.297 1080.2,819.065 1082.95,818.834 1085.71,818.602 1088.46,818.371 1091.21,818.139 1093.97,817.907 1096.72,817.675 1099.48,817.442 1102.23,817.21 1104.99,816.978 1107.74,816.745 1110.5,816.512 1113.25,816.279 1116.01,816.046 1118.76,815.813 1121.51,815.58 1124.27,815.347 1127.02,815.114 1129.78,814.88 1132.53,814.647 1135.29,814.413 1138.04,814.179 1140.8,813.945 1143.55,813.711 1146.3,813.477 1149.06,813.243 1151.81,813.009 1154.57,812.775 1157.32,812.54 1160.08,812.306 1162.83,812.071 1165.59,811.837 1168.34,811.602 1171.09,811.367 1173.85,811.132 1176.6,810.897 1179.36,810.662 1182.11,810.427 1184.87,810.192 1187.62,809.957 1190.38,809.721 1193.13,809.486 1195.88,809.251 1198.64,809.015 1201.39,808.779 1204.15,808.544 1206.9,808.308 1209.66,808.072 1212.41,807.837 1215.17,807.601 1217.92,807.365 1220.67,807.129 1223.43,806.893 1226.18,806.657 1228.94,806.421 1231.69,806.184 1234.45,805.948 1237.2,805.712 1239.96,805.476 1242.71,805.239 1245.46,805.003 1248.22,804.766 1250.97,804.53 1253.73,804.293 1256.48,804.057 1259.24,803.82 1261.99,803.584 1264.75,803.347 1267.5,803.11 1270.25,802.873 1273.01,802.637 1275.76,802.4 1278.52,802.163 1281.27,801.926 1284.03,801.689 1286.78,801.453 1289.54,801.216 1292.29,800.979 1295.04,800.742 1297.8,800.505 1300.55,800.268 1303.31,800.031 1306.06,799.794 1308.82,799.557 1311.57,799.32 1314.33,799.083 1317.08,798.846 1319.83,798.609 1322.59,798.371 1325.34,798.134 1328.1,797.897 1330.85,797.66 1333.61,797.423 1336.36,797.186 1339.12,796.949 1341.87,796.712 1344.62,796.475 1347.38,796.238 1350.13,796 1352.89,795.763 1355.64,795.526 1358.4,795.289 1361.15,795.052 1363.91,794.815 1366.66,794.578 1369.41,794.341 1372.17,794.104 1374.92,793.867 1377.68,793.63 1380.43,793.393 1383.19,793.156 1385.94,792.919 1388.7,792.682 1391.45,792.445 1394.21,792.208 1396.96,791.971 1399.71,791.734 1402.47,791.497 1405.22,791.26 1407.98,791.023 1410.73,790.786 1413.49,790.55 1416.24,790.313 1419,790.076 1421.75,789.839 1424.5,789.603 1427.26,789.366 1430.01,789.129 1432.77,788.893 1435.52,788.656 1438.28,788.42 1441.03,788.183 1443.79,787.946 1446.54,787.71 1449.29,787.474 1452.05,787.237 1454.8,787.001 1457.56,786.765 1460.31,786.528 1463.07,786.292 1465.82,786.056 1468.58,785.82 1471.33,785.584 1474.08,785.348 1476.84,785.111 1479.59,784.875 1482.35,784.64 1485.1,784.404 1487.86,784.168 1490.61,783.932 1493.37,783.696 1496.12,783.461 1498.87,783.225 1501.63,782.989 1504.38,782.754 1507.14,782.518 1509.89,782.283 1512.65,782.047 1515.4,781.812 1518.16,781.577 1520.91,781.341 1523.66,781.106 1526.42,780.871 1529.17,780.636 1531.93,780.401 1534.68,780.166 1537.44,779.931 1540.19,779.696 1542.95,779.462 1545.7,779.227 1548.45,778.992 1551.21,778.758 1553.96,778.523 1556.72,778.289 1559.47,778.054 1562.23,777.82 1564.98,777.586 1567.74,777.351 1570.49,777.117 1573.24,776.883 1576,776.649 1578.75,776.415 1581.51,776.181 1584.26,775.948 1587.02,775.714 1589.77,775.48 1592.53,775.247 1595.28,775.013 1598.03,774.78 1600.79,774.546 1603.54,774.313 1606.3,774.08 1609.05,773.847 1611.81,773.614 1614.56,773.381 1617.32,773.148 1620.07,772.915 1622.82,772.682 1625.58,772.45 1628.33,772.217 1631.09,771.984 1633.84,771.752 1636.6,771.52 1639.35,771.287 1642.11,771.055 1644.86,770.823 1647.62,770.591 1650.37,770.359 1653.12,770.127 1655.88,769.896 1658.63,769.664 1661.39,769.432 1664.14,769.201 1666.9,768.97 1669.65,768.738 1672.41,768.507 1675.16,768.276 1677.91,768.045 1680.67,767.814 1683.42,767.583 1686.18,767.352 1688.93,767.122 1691.69,766.891 1694.44,766.661 1697.2,766.43 1699.95,766.2 1702.7,765.97 1705.46,765.74 1708.21,765.51 1710.97,765.28 1713.72,765.05 1716.48,764.82 1719.23,764.591 1721.99,764.361 1724.74,764.132 1727.49,763.902 1730.25,763.673 1733,763.444 1735.76,763.215 1738.51,762.986 1741.27,762.757 1744.02,762.529 1746.78,762.3 1749.53,762.072 1752.28,761.843 1755.04,761.615 1757.79,761.387 1760.55,761.159 1763.3,760.931 1766.06,760.703 1768.81,760.475 1771.57,760.248 1774.32,760.02 1777.07,759.793 1779.83,759.565 1782.58,759.338 1785.34,759.111 1788.09,758.884 1790.85,758.657 1793.6,758.43 1796.36,758.204 1799.11,757.977 1801.86,757.751 1804.62,757.525 1807.37,757.298 1810.13,757.072 1812.88,756.847 1815.64,756.621 1818.39,756.395 1821.15,756.169 1823.9,755.944 1826.65,755.719 1829.41,755.493 1832.16,755.268 1834.92,755.043 1837.67,754.818 1840.43,754.593 1843.18,754.369 1845.94,754.144 1848.69,753.92 1851.44,753.696 1854.2,753.472 1856.95,753.248 1859.71,753.024 1862.46,752.8 1865.22,752.576 1867.97,752.353 1870.73,752.129 1873.48,751.906 1876.23,751.683 1878.99,751.46 1881.74,751.237 1884.5,751.014 1887.25,750.792 1890.01,750.569 1892.76,750.347 1895.52,750.124 1898.27,749.902 1901.03,749.68 1903.78,749.459 1906.53,749.237 1909.29,749.015 1912.04,748.794 1914.8,748.572 1917.55,748.351 1920.31,748.13 1923.06,747.909 1925.82,747.688 1928.57,747.468 1931.32,747.247 1934.08,747.027 1936.83,746.807 1939.59,746.586 1942.34,746.366 1945.1,746.147 1947.85,745.927 1950.61,745.707 1953.36,745.488 1956.11,745.269 1958.87,745.049 1961.62,744.83 1964.38,744.612 1967.13,744.393 1969.89,744.174 1972.64,743.956 1975.4,743.737 1978.15,743.519 1980.9,743.301 1983.66,743.083 1986.41,742.866 1989.17,742.648 1991.92,742.43 1994.68,742.213 1997.43,741.996 2000.19,741.779 2002.94,741.562 2005.69,741.345 2008.45,741.129 2011.2,740.912 2013.96,740.696 2016.71,740.48 2019.47,740.264 2022.22,740.048 2024.98,739.832 2027.73,739.617 2030.48,739.401 2033.24,739.186 2035.99,738.971 2038.75,738.756 2041.5,738.541 2044.26,738.326 2047.01,738.112 2049.77,737.898 2052.52,737.683 2055.27,737.469 2058.03,737.255 2060.78,737.042 2063.54,736.828 2066.29,736.615 2069.05,736.401 2071.8,736.188 2074.56,735.975 2077.31,735.762 2080.06,735.55 2082.82,735.337 2085.57,735.125 2088.33,734.913 2091.08,734.701 2093.84,734.489 2096.59,734.277 2099.35,734.065 2102.1,733.854 2104.85,733.643 2107.61,733.432 2110.36,733.221 2113.12,733.01 2115.87,732.799 2118.63,732.589 2121.38,732.378 2124.14,732.168 2126.89,731.958 2129.64,731.748 2132.4,731.539 2135.15,731.329 2137.91,731.12 2140.66,730.911 2143.42,730.702 2146.17,730.493 2148.93,730.284 2151.68,730.076 2154.44,729.867 2157.19,729.659 2159.94,729.451 2162.7,729.243 2165.45,729.035 2168.21,728.828 2170.96,728.621 2173.72,728.413 2176.47,728.206 2179.23,727.999 2181.98,727.793 2184.73,727.586 2187.49,727.38 2190.24,727.174 2193,726.968 2195.75,726.762 2198.51,726.556 2201.26,726.35 2204.02,726.145 2206.77,725.94 2209.52,725.735 2212.28,725.53 2215.03,725.325 2217.79,725.121 2220.54,724.917 2223.3,724.712 2226.05,724.508 2228.81,724.304 2231.56,724.101 2234.31,723.897 2237.07,723.694 2239.82,723.491 2242.58,723.288 2245.33,723.085 2248.09,722.882 2250.84,722.68 2253.6,722.478 2256.35,722.276 2259.1,722.074 2261.86,721.872 2264.61,721.67 2267.37,721.469 2270.12,721.268 2272.88,721.067 2275.63,720.866 2278.39,720.665 2281.14,720.465 2283.89,720.264 2286.65,720.064 2289.4,719.864 2292.16,719.664 2294.91,719.465 2297.67,719.265 2300.42,719.066 2303.18,718.867 2305.93,718.668 2308.68,718.469 2311.44,718.27 2314.19,718.072 2316.95,717.874 2319.7,717.676 2322.46,717.478 2325.21,717.28 2327.97,717.083 2330.72,716.886 2333.47,716.688 2336.23,716.491 2338.98,716.295 2341.74,716.098 2344.49,715.902 2347.25,715.706 2350,715.509 2352.76,715.314 "/>
<path clip-path="url(#clip870)" d="M1969.85 1377.32 L2279.3 1377.32 L2279.3 1169.96 L1969.85 1169.96  Z" fill="#ffffff" fill-rule="evenodd" fill-opacity="1"/>
<polyline clip-path="url(#clip870)" style="stroke:#000000; stroke-linecap:round; stroke-linejoin:round; stroke-width:4; stroke-opacity:1; fill:none" points="1969.85,1377.32 2279.3,1377.32 2279.3,1169.96 1969.85,1169.96 1969.85,1377.32 "/>
<polyline clip-path="url(#clip870)" style="stroke:#009af9; stroke-linecap:round; stroke-linejoin:round; stroke-width:12; stroke-opacity:1; fill:none" points="1994.33,1221.8 2141.24,1221.8 "/>
<path clip-path="url(#clip870)" d="M2165.72 1228.84 L2165.72 1213.15 L2169.98 1213.15 L2169.98 1228.68 Q2169.98 1232.36 2171.42 1234.21 Q2172.85 1236.04 2175.72 1236.04 Q2179.17 1236.04 2181.16 1233.84 Q2183.18 1231.64 2183.18 1227.85 L2183.18 1213.15 L2187.44 1213.15 L2187.44 1239.08 L2183.18 1239.08 L2183.18 1235.09 Q2181.63 1237.45 2179.57 1238.61 Q2177.53 1239.75 2174.82 1239.75 Q2170.35 1239.75 2168.04 1236.97 Q2165.72 1234.19 2165.72 1228.84 M2176.44 1212.52 L2176.44 1212.52 Z" fill="#000000" fill-rule="nonzero" fill-opacity="1" /><path clip-path="url(#clip870)" d="M2195.82 1203.06 L2205.63 1203.06 L2205.63 1206.37 L2200.07 1206.37 L2200.07 1242.02 L2205.63 1242.02 L2205.63 1245.33 L2195.82 1245.33 L2195.82 1203.06 Z" fill="#000000" fill-rule="nonzero" fill-opacity="1" /><path clip-path="url(#clip870)" d="M2216.12 1235.14 L2223.76 1235.14 L2223.76 1208.77 L2215.44 1210.44 L2215.44 1206.18 L2223.71 1204.52 L2228.38 1204.52 L2228.38 1235.14 L2236.02 1235.14 L2236.02 1239.08 L2216.12 1239.08 L2216.12 1235.14 Z" fill="#000000" fill-rule="nonzero" fill-opacity="1" /><path clip-path="url(#clip870)" d="M2254.82 1203.06 L2254.82 1245.33 L2245 1245.33 L2245 1242.02 L2250.54 1242.02 L2250.54 1206.37 L2245 1206.37 L2245 1203.06 L2254.82 1203.06 Z" fill="#000000" fill-rule="nonzero" fill-opacity="1" /><polyline clip-path="url(#clip870)" style="stroke:#e26f46; stroke-linecap:round; stroke-linejoin:round; stroke-width:12; stroke-opacity:1; fill:none" points="1994.33,1273.64 2141.24,1273.64 "/>
<path clip-path="url(#clip870)" d="M2165.72 1280.68 L2165.72 1264.99 L2169.98 1264.99 L2169.98 1280.52 Q2169.98 1284.2 2171.42 1286.05 Q2172.85 1287.88 2175.72 1287.88 Q2179.17 1287.88 2181.16 1285.68 Q2183.18 1283.48 2183.18 1279.69 L2183.18 1264.99 L2187.44 1264.99 L2187.44 1290.92 L2183.18 1290.92 L2183.18 1286.93 Q2181.63 1289.29 2179.57 1290.45 Q2177.53 1291.59 2174.82 1291.59 Q2170.35 1291.59 2168.04 1288.81 Q2165.72 1286.03 2165.72 1280.68 M2176.44 1264.36 L2176.44 1264.36 Z" fill="#000000" fill-rule="nonzero" fill-opacity="1" /><path clip-path="url(#clip870)" d="M2195.82 1254.9 L2205.63 1254.9 L2205.63 1258.21 L2200.07 1258.21 L2200.07 1293.86 L2205.63 1293.86 L2205.63 1297.17 L2195.82 1297.17 L2195.82 1254.9 Z" fill="#000000" fill-rule="nonzero" fill-opacity="1" /><path clip-path="url(#clip870)" d="M2219.33 1286.98 L2235.65 1286.98 L2235.65 1290.92 L2213.71 1290.92 L2213.71 1286.98 Q2216.37 1284.23 2220.95 1279.6 Q2225.56 1274.94 2226.74 1273.6 Q2228.99 1271.08 2229.87 1269.34 Q2230.77 1267.58 2230.77 1265.89 Q2230.77 1263.14 2228.82 1261.4 Q2226.9 1259.67 2223.8 1259.67 Q2221.6 1259.67 2219.15 1260.43 Q2216.72 1261.19 2213.94 1262.74 L2213.94 1258.02 Q2216.76 1256.89 2219.22 1256.31 Q2221.67 1255.73 2223.71 1255.73 Q2229.08 1255.73 2232.27 1258.42 Q2235.47 1261.1 2235.47 1265.59 Q2235.47 1267.72 2234.66 1269.64 Q2233.87 1271.54 2231.76 1274.13 Q2231.19 1274.8 2228.08 1278.02 Q2224.98 1281.22 2219.33 1286.98 Z" fill="#000000" fill-rule="nonzero" fill-opacity="1" /><path clip-path="url(#clip870)" d="M2254.82 1254.9 L2254.82 1297.17 L2245 1297.17 L2245 1293.86 L2250.54 1293.86 L2250.54 1258.21 L2245 1258.21 L2245 1254.9 L2254.82 1254.9 Z" fill="#000000" fill-rule="nonzero" fill-opacity="1" /><polyline clip-path="url(#clip870)" style="stroke:#3da44d; stroke-linecap:round; stroke-linejoin:round; stroke-width:12; stroke-opacity:1; fill:none" points="1994.33,1325.48 2141.24,1325.48 "/>
<path clip-path="url(#clip870)" d="M2165.72 1332.52 L2165.72 1316.83 L2169.98 1316.83 L2169.98 1332.36 Q2169.98 1336.04 2171.42 1337.89 Q2172.85 1339.72 2175.72 1339.72 Q2179.17 1339.72 2181.16 1337.52 Q2183.18 1335.32 2183.18 1331.53 L2183.18 1316.83 L2187.44 1316.83 L2187.44 1342.76 L2183.18 1342.76 L2183.18 1338.77 Q2181.63 1341.13 2179.57 1342.29 Q2177.53 1343.43 2174.82 1343.43 Q2170.35 1343.43 2168.04 1340.65 Q2165.72 1337.87 2165.72 1332.52 M2176.44 1316.2 L2176.44 1316.2 Z" fill="#000000" fill-rule="nonzero" fill-opacity="1" /><path clip-path="url(#clip870)" d="M2206.44 1306.78 Q2203.34 1312.11 2201.83 1317.32 Q2200.33 1322.52 2200.33 1327.87 Q2200.33 1333.22 2201.83 1338.47 Q2203.36 1343.7 2206.44 1349.01 L2202.74 1349.01 Q2199.26 1343.57 2197.53 1338.31 Q2195.82 1333.06 2195.82 1327.87 Q2195.82 1322.71 2197.53 1317.48 Q2199.24 1312.25 2202.74 1306.78 L2206.44 1306.78 Z" fill="#000000" fill-rule="nonzero" fill-opacity="1" /><path clip-path="url(#clip870)" d="M2218.92 1309.47 L2218.92 1316.83 L2227.69 1316.83 L2227.69 1320.14 L2218.92 1320.14 L2218.92 1334.21 Q2218.92 1337.38 2219.77 1338.29 Q2220.65 1339.19 2223.32 1339.19 L2227.69 1339.19 L2227.69 1342.76 L2223.32 1342.76 Q2218.38 1342.76 2216.51 1340.93 Q2214.63 1339.07 2214.63 1334.21 L2214.63 1320.14 L2211.51 1320.14 L2211.51 1316.83 L2214.63 1316.83 L2214.63 1309.47 L2218.92 1309.47 Z" fill="#000000" fill-rule="nonzero" fill-opacity="1" /><path clip-path="url(#clip870)" d="M2232.62 1306.78 L2236.32 1306.78 Q2239.8 1312.25 2241.51 1317.48 Q2243.25 1322.71 2243.25 1327.87 Q2243.25 1333.06 2241.51 1338.31 Q2239.8 1343.57 2236.32 1349.01 L2232.62 1349.01 Q2235.7 1343.7 2237.2 1338.47 Q2238.73 1333.22 2238.73 1327.87 Q2238.73 1322.52 2237.2 1317.32 Q2235.7 1312.11 2232.62 1306.78 Z" fill="#000000" fill-rule="nonzero" fill-opacity="1" /></svg>
