<?xml version="1.0" encoding="utf-8"?>
<svg xmlns="http://www.w3.org/2000/svg" xmlns:xlink="http://www.w3.org/1999/xlink" width="600" height="400" viewBox="0 0 2400 1600">
<defs>
  <clipPath id="clip730">
    <rect x="0" y="0" width="2400" height="1600"/>
  </clipPath>
</defs>
<path clip-path="url(#clip730)" d="M0 1600 L2400 1600 L2400 0 L0 0  Z" fill="#ffffff" fill-rule="evenodd" fill-opacity="1"/>
<defs>
  <clipPath id="clip731">
    <rect x="480" y="0" width="1681" height="1600"/>
  </clipPath>
</defs>
<path clip-path="url(#clip730)" d="M149.191 1423.18 L2352.76 1423.18 L2352.76 47.2441 L149.191 47.2441  Z" fill="#ffffff" fill-rule="evenodd" fill-opacity="1"/>
<defs>
  <clipPath id="clip732">
    <rect x="149" y="47" width="2205" height="1377"/>
  </clipPath>
</defs>
<polyline clip-path="url(#clip732)" style="stroke:#000000; stroke-linecap:round; stroke-linejoin:round; stroke-width:2; stroke-opacity:0.1; fill:none" points="149.191,1423.18 149.191,47.2441 "/>
<polyline clip-path="url(#clip732)" style="stroke:#000000; stroke-linecap:round; stroke-linejoin:round; stroke-width:2; stroke-opacity:0.1; fill:none" points="700.082,1423.18 700.082,47.2441 "/>
<polyline clip-path="url(#clip732)" style="stroke:#000000; stroke-linecap:round; stroke-linejoin:round; stroke-width:2; stroke-opacity:0.1; fill:none" points="1250.97,1423.18 1250.97,47.2441 "/>
<polyline clip-path="url(#clip732)" style="stroke:#000000; stroke-linecap:round; stroke-linejoin:round; stroke-width:2; stroke-opacity:0.1; fill:none" points="1801.86,1423.18 1801.86,47.2441 "/>
<polyline clip-path="url(#clip732)" style="stroke:#000000; stroke-linecap:round; stroke-linejoin:round; stroke-width:2; stroke-opacity:0.1; fill:none" points="2352.76,1423.18 2352.76,47.2441 "/>
<polyline clip-path="url(#clip732)" style="stroke:#000000; stroke-linecap:round; stroke-linejoin:round; stroke-width:2; stroke-opacity:0.1; fill:none" points="149.191,1423.18 2352.76,1423.18 "/>
<polyline clip-path="url(#clip732)" style="stroke:#000000; stroke-linecap:round; stroke-linejoin:round; stroke-width:2; stroke-opacity:0.1; fill:none" points="149.191,1193.86 2352.76,1193.86 "/>
<polyline clip-path="url(#clip732)" style="stroke:#000000; stroke-linecap:round; stroke-linejoin:round; stroke-width:2; stroke-opacity:0.1; fill:none" points="149.191,964.535 2352.76,964.535 "/>
<polyline clip-path="url(#clip732)" style="stroke:#000000; stroke-linecap:round; stroke-linejoin:round; stroke-width:2; stroke-opacity:0.1; fill:none" points="149.191,735.212 2352.76,735.212 "/>
<polyline clip-path="url(#clip732)" style="stroke:#000000; stroke-linecap:round; stroke-linejoin:round; stroke-width:2; stroke-opacity:0.1; fill:none" points="149.191,505.889 2352.76,505.889 "/>
<polyline clip-path="url(#clip732)" style="stroke:#000000; stroke-linecap:round; stroke-linejoin:round; stroke-width:2; stroke-opacity:0.1; fill:none" points="149.191,276.567 2352.76,276.567 "/>
<polyline clip-path="url(#clip732)" style="stroke:#000000; stroke-linecap:round; stroke-linejoin:round; stroke-width:2; stroke-opacity:0.1; fill:none" points="149.191,47.2441 2352.76,47.2441 "/>
<polyline clip-path="url(#clip730)" style="stroke:#000000; stroke-linecap:round; stroke-linejoin:round; stroke-width:4; stroke-opacity:1; fill:none" points="149.191,1423.18 2352.76,1423.18 "/>
<polyline clip-path="url(#clip730)" style="stroke:#000000; stroke-linecap:round; stroke-linejoin:round; stroke-width:4; stroke-opacity:1; fill:none" points="149.191,1423.18 149.191,1404.28 "/>
<polyline clip-path="url(#clip730)" style="stroke:#000000; stroke-linecap:round; stroke-linejoin:round; stroke-width:4; stroke-opacity:1; fill:none" points="700.082,1423.18 700.082,1404.28 "/>
<polyline clip-path="url(#clip730)" style="stroke:#000000; stroke-linecap:round; stroke-linejoin:round; stroke-width:4; stroke-opacity:1; fill:none" points="1250.97,1423.18 1250.97,1404.28 "/>
<polyline clip-path="url(#clip730)" style="stroke:#000000; stroke-linecap:round; stroke-linejoin:round; stroke-width:4; stroke-opacity:1; fill:none" points="1801.86,1423.18 1801.86,1404.28 "/>
<polyline clip-path="url(#clip730)" style="stroke:#000000; stroke-linecap:round; stroke-linejoin:round; stroke-width:4; stroke-opacity:1; fill:none" points="2352.76,1423.18 2352.76,1404.28 "/>
<path clip-path="url(#clip730)" d="M149.191 1454.1 Q145.58 1454.1 143.751 1457.66 Q141.946 1461.2 141.946 1468.33 Q141.946 1475.44 143.751 1479.01 Q145.58 1482.55 149.191 1482.55 Q152.825 1482.55 154.631 1479.01 Q156.459 1475.44 156.459 1468.33 Q156.459 1461.2 154.631 1457.66 Q152.825 1454.1 149.191 1454.1 M149.191 1450.39 Q155.001 1450.39 158.057 1455 Q161.135 1459.58 161.135 1468.33 Q161.135 1477.06 158.057 1481.67 Q155.001 1486.25 149.191 1486.25 Q143.381 1486.25 140.302 1481.67 Q137.246 1477.06 137.246 1468.33 Q137.246 1459.58 140.302 1455 Q143.381 1450.39 149.191 1450.39 Z" fill="#000000" fill-rule="nonzero" fill-opacity="1" /><path clip-path="url(#clip730)" d="M694.735 1481.64 L711.054 1481.64 L711.054 1485.58 L689.11 1485.58 L689.11 1481.64 Q691.772 1478.89 696.355 1474.26 Q700.962 1469.61 702.142 1468.27 Q704.388 1465.74 705.267 1464.01 Q706.17 1462.25 706.17 1460.56 Q706.17 1457.8 704.226 1456.07 Q702.304 1454.33 699.203 1454.33 Q697.003 1454.33 694.55 1455.09 Q692.119 1455.86 689.341 1457.41 L689.341 1452.69 Q692.166 1451.55 694.619 1450.97 Q697.073 1450.39 699.11 1450.39 Q704.48 1450.39 707.675 1453.08 Q710.869 1455.77 710.869 1460.26 Q710.869 1462.39 710.059 1464.31 Q709.272 1466.2 707.165 1468.8 Q706.587 1469.47 703.485 1472.69 Q700.383 1475.88 694.735 1481.64 Z" fill="#000000" fill-rule="nonzero" fill-opacity="1" /><path clip-path="url(#clip730)" d="M1253.98 1455.09 L1242.18 1473.54 L1253.98 1473.54 L1253.98 1455.09 M1252.76 1451.02 L1258.64 1451.02 L1258.64 1473.54 L1263.57 1473.54 L1263.57 1477.43 L1258.64 1477.43 L1258.64 1485.58 L1253.98 1485.58 L1253.98 1477.43 L1238.38 1477.43 L1238.38 1472.92 L1252.76 1451.02 Z" fill="#000000" fill-rule="nonzero" fill-opacity="1" /><path clip-path="url(#clip730)" d="M1802.27 1466.44 Q1799.12 1466.44 1797.27 1468.59 Q1795.44 1470.74 1795.44 1474.49 Q1795.44 1478.22 1797.27 1480.39 Q1799.12 1482.55 1802.27 1482.55 Q1805.42 1482.55 1807.25 1480.39 Q1809.1 1478.22 1809.1 1474.49 Q1809.1 1470.74 1807.25 1468.59 Q1805.42 1466.44 1802.27 1466.44 M1811.55 1451.78 L1811.55 1456.04 Q1809.79 1455.21 1807.99 1454.77 Q1806.2 1454.33 1804.45 1454.33 Q1799.82 1454.33 1797.36 1457.45 Q1794.93 1460.58 1794.58 1466.9 Q1795.95 1464.89 1798.01 1463.82 Q1800.07 1462.73 1802.55 1462.73 Q1807.76 1462.73 1810.77 1465.9 Q1813.8 1469.05 1813.8 1474.49 Q1813.8 1479.82 1810.65 1483.03 Q1807.5 1486.25 1802.27 1486.25 Q1796.27 1486.25 1793.1 1481.67 Q1789.93 1477.06 1789.93 1468.33 Q1789.93 1460.14 1793.82 1455.28 Q1797.71 1450.39 1804.26 1450.39 Q1806.02 1450.39 1807.8 1450.74 Q1809.61 1451.09 1811.55 1451.78 Z" fill="#000000" fill-rule="nonzero" fill-opacity="1" /><path clip-path="url(#clip730)" d="M2352.76 1469.17 Q2349.42 1469.17 2347.5 1470.95 Q2345.6 1472.73 2345.6 1475.86 Q2345.6 1478.98 2347.5 1480.77 Q2349.42 1482.55 2352.76 1482.55 Q2356.09 1482.55 2358.01 1480.77 Q2359.93 1478.96 2359.93 1475.86 Q2359.93 1472.73 2358.01 1470.95 Q2356.11 1469.17 2352.76 1469.17 M2348.08 1467.18 Q2345.07 1466.44 2343.38 1464.38 Q2341.71 1462.32 2341.71 1459.35 Q2341.71 1455.21 2344.65 1452.8 Q2347.62 1450.39 2352.76 1450.39 Q2357.92 1450.39 2360.86 1452.8 Q2363.8 1455.21 2363.8 1459.35 Q2363.8 1462.32 2362.11 1464.38 Q2360.44 1466.44 2357.45 1467.18 Q2360.83 1467.96 2362.71 1470.26 Q2364.61 1472.55 2364.61 1475.86 Q2364.61 1480.88 2361.53 1483.57 Q2358.47 1486.25 2352.76 1486.25 Q2347.04 1486.25 2343.96 1483.57 Q2340.9 1480.88 2340.9 1475.86 Q2340.9 1472.55 2342.8 1470.26 Q2344.7 1467.96 2348.08 1467.18 M2346.37 1459.79 Q2346.37 1462.48 2348.03 1463.98 Q2349.72 1465.49 2352.76 1465.49 Q2355.77 1465.49 2357.45 1463.98 Q2359.17 1462.48 2359.17 1459.79 Q2359.17 1457.11 2357.45 1455.6 Q2355.77 1454.1 2352.76 1454.1 Q2349.72 1454.1 2348.03 1455.6 Q2346.37 1457.11 2346.37 1459.79 Z" fill="#000000" fill-rule="nonzero" fill-opacity="1" /><path clip-path="url(#clip730)" d="M1250.03 1522.27 L1250.03 1532.4 L1262.1 1532.4 L1262.1 1536.95 L1250.03 1536.95 L1250.03 1556.3 Q1250.03 1560.66 1251.21 1561.9 Q1252.42 1563.14 1256.08 1563.14 L1262.1 1563.14 L1262.1 1568.04 L1256.08 1568.04 Q1249.3 1568.04 1246.72 1565.53 Q1244.15 1562.98 1244.15 1556.3 L1244.15 1536.95 L1239.85 1536.95 L1239.85 1532.4 L1244.15 1532.4 L1244.15 1522.27 L1250.03 1522.27 Z" fill="#000000" fill-rule="nonzero" fill-opacity="1" /><polyline clip-path="url(#clip730)" style="stroke:#000000; stroke-linecap:round; stroke-linejoin:round; stroke-width:4; stroke-opacity:1; fill:none" points="149.191,1423.18 149.191,47.2441 "/>
<polyline clip-path="url(#clip730)" style="stroke:#000000; stroke-linecap:round; stroke-linejoin:round; stroke-width:4; stroke-opacity:1; fill:none" points="149.191,1423.18 168.089,1423.18 "/>
<polyline clip-path="url(#clip730)" style="stroke:#000000; stroke-linecap:round; stroke-linejoin:round; stroke-width:4; stroke-opacity:1; fill:none" points="149.191,1193.86 168.089,1193.86 "/>
<polyline clip-path="url(#clip730)" style="stroke:#000000; stroke-linecap:round; stroke-linejoin:round; stroke-width:4; stroke-opacity:1; fill:none" points="149.191,964.535 168.089,964.535 "/>
<polyline clip-path="url(#clip730)" style="stroke:#000000; stroke-linecap:round; stroke-linejoin:round; stroke-width:4; stroke-opacity:1; fill:none" points="149.191,735.212 168.089,735.212 "/>
<polyline clip-path="url(#clip730)" style="stroke:#000000; stroke-linecap:round; stroke-linejoin:round; stroke-width:4; stroke-opacity:1; fill:none" points="149.191,505.889 168.089,505.889 "/>
<polyline clip-path="url(#clip730)" style="stroke:#000000; stroke-linecap:round; stroke-linejoin:round; stroke-width:4; stroke-opacity:1; fill:none" points="149.191,276.567 168.089,276.567 "/>
<polyline clip-path="url(#clip730)" style="stroke:#000000; stroke-linecap:round; stroke-linejoin:round; stroke-width:4; stroke-opacity:1; fill:none" points="149.191,47.2441 168.089,47.2441 "/>
<path clip-path="url(#clip730)" d="M51.3162 1423.63 L80.992 1423.63 L80.992 1427.57 L51.3162 1427.57 L51.3162 1423.63 Z" fill="#000000" fill-rule="nonzero" fill-opacity="1" /><path clip-path="url(#clip730)" d="M101.663 1421.32 Q98.515 1421.32 96.6632 1423.47 Q94.8345 1425.62 94.8345 1429.37 Q94.8345 1433.1 96.6632 1435.27 Q98.515 1437.43 101.663 1437.43 Q104.811 1437.43 106.64 1435.27 Q108.492 1433.1 108.492 1429.37 Q108.492 1425.62 106.64 1423.47 Q104.811 1421.32 101.663 1421.32 M110.946 1406.66 L110.946 1410.92 Q109.186 1410.09 107.381 1409.65 Q105.598 1409.21 103.839 1409.21 Q99.2095 1409.21 96.7558 1412.33 Q94.3252 1415.46 93.978 1421.78 Q95.3437 1419.77 97.4039 1418.7 Q99.4641 1417.61 101.941 1417.61 Q107.149 1417.61 110.158 1420.78 Q113.191 1423.93 113.191 1429.37 Q113.191 1434.7 110.043 1437.91 Q106.895 1441.13 101.663 1441.13 Q95.6678 1441.13 92.4965 1436.55 Q89.3253 1431.94 89.3253 1423.21 Q89.3253 1415.02 93.2141 1410.16 Q97.103 1405.27 103.654 1405.27 Q105.413 1405.27 107.196 1405.62 Q109.001 1405.97 110.946 1406.66 Z" fill="#000000" fill-rule="nonzero" fill-opacity="1" /><path clip-path="url(#clip730)" d="M50.9921 1194.31 L80.6679 1194.31 L80.6679 1198.24 L50.9921 1198.24 L50.9921 1194.31 Z" fill="#000000" fill-rule="nonzero" fill-opacity="1" /><path clip-path="url(#clip730)" d="M103.608 1180.65 L91.8021 1199.1 L103.608 1199.1 L103.608 1180.65 M102.381 1176.58 L108.26 1176.58 L108.26 1199.1 L113.191 1199.1 L113.191 1202.99 L108.26 1202.99 L108.26 1211.14 L103.608 1211.14 L103.608 1202.99 L88.0058 1202.99 L88.0058 1198.48 L102.381 1176.58 Z" fill="#000000" fill-rule="nonzero" fill-opacity="1" /><path clip-path="url(#clip730)" d="M53.0754 964.986 L82.7512 964.986 L82.7512 968.921 L53.0754 968.921 L53.0754 964.986 Z" fill="#000000" fill-rule="nonzero" fill-opacity="1" /><path clip-path="url(#clip730)" d="M96.8715 977.879 L113.191 977.879 L113.191 981.815 L91.2465 981.815 L91.2465 977.879 Q93.9086 975.125 98.4919 970.495 Q103.098 965.842 104.279 964.5 Q106.524 961.977 107.404 960.241 Q108.307 958.481 108.307 956.792 Q108.307 954.037 106.362 952.301 Q104.441 950.565 101.339 950.565 Q99.14 950.565 96.6863 951.329 Q94.2558 952.093 91.478 953.643 L91.478 948.921 Q94.3021 947.787 96.7558 947.208 Q99.2095 946.63 101.246 946.63 Q106.617 946.63 109.811 949.315 Q113.006 952 113.006 956.491 Q113.006 958.62 112.196 960.542 Q111.408 962.44 109.302 965.032 Q108.723 965.704 105.621 968.921 Q102.52 972.116 96.8715 977.879 Z" fill="#000000" fill-rule="nonzero" fill-opacity="1" /><path clip-path="url(#clip730)" d="M101.246 721.011 Q97.6354 721.011 95.8067 724.575 Q94.0012 728.117 94.0012 735.247 Q94.0012 742.353 95.8067 745.918 Q97.6354 749.46 101.246 749.46 Q104.881 749.46 106.686 745.918 Q108.515 742.353 108.515 735.247 Q108.515 728.117 106.686 724.575 Q104.881 721.011 101.246 721.011 M101.246 717.307 Q107.057 717.307 110.112 721.913 Q113.191 726.497 113.191 735.247 Q113.191 743.973 110.112 748.58 Q107.057 753.163 101.246 753.163 Q95.4363 753.163 92.3576 748.58 Q89.3021 743.973 89.3021 735.247 Q89.3021 726.497 92.3576 721.913 Q95.4363 717.307 101.246 717.307 Z" fill="#000000" fill-rule="nonzero" fill-opacity="1" /><path clip-path="url(#clip730)" d="M96.8715 519.234 L113.191 519.234 L113.191 523.169 L91.2465 523.169 L91.2465 519.234 Q93.9086 516.48 98.4919 511.85 Q103.098 507.197 104.279 505.855 Q106.524 503.331 107.404 501.595 Q108.307 499.836 108.307 498.146 Q108.307 495.392 106.362 493.656 Q104.441 491.92 101.339 491.92 Q99.14 491.92 96.6863 492.683 Q94.2558 493.447 91.478 494.998 L91.478 490.276 Q94.3021 489.142 96.7558 488.563 Q99.2095 487.984 101.246 487.984 Q106.617 487.984 109.811 490.67 Q113.006 493.355 113.006 497.845 Q113.006 499.975 112.196 501.896 Q111.408 503.794 109.302 506.387 Q108.723 507.058 105.621 510.276 Q102.52 513.47 96.8715 519.234 Z" fill="#000000" fill-rule="nonzero" fill-opacity="1" /><path clip-path="url(#clip730)" d="M103.608 263.361 L91.8021 281.81 L103.608 281.81 L103.608 263.361 M102.381 259.287 L108.26 259.287 L108.26 281.81 L113.191 281.81 L113.191 285.699 L108.26 285.699 L108.26 293.847 L103.608 293.847 L103.608 285.699 L88.0058 285.699 L88.0058 281.185 L102.381 259.287 Z" fill="#000000" fill-rule="nonzero" fill-opacity="1" /><path clip-path="url(#clip730)" d="M101.663 45.3807 Q98.515 45.3807 96.6632 47.5334 Q94.8345 49.6862 94.8345 53.4362 Q94.8345 57.163 96.6632 59.3389 Q98.515 61.4917 101.663 61.4917 Q104.811 61.4917 106.64 59.3389 Q108.492 57.163 108.492 53.4362 Q108.492 49.6862 106.64 47.5334 Q104.811 45.3807 101.663 45.3807 M110.946 30.728 L110.946 34.9872 Q109.186 34.1539 107.381 33.7141 Q105.598 33.2743 103.839 33.2743 Q99.2095 33.2743 96.7558 36.3992 Q94.3252 39.5242 93.978 45.8436 Q95.3437 43.8298 97.4039 42.765 Q99.4641 41.677 101.941 41.677 Q107.149 41.677 110.158 44.8483 Q113.191 47.9964 113.191 53.4362 Q113.191 58.7602 110.043 61.9778 Q106.895 65.1954 101.663 65.1954 Q95.6678 65.1954 92.4965 60.6121 Q89.3253 56.0056 89.3253 47.2788 Q89.3253 39.0844 93.2141 34.2233 Q97.103 29.3391 103.654 29.3391 Q105.413 29.3391 107.196 29.6863 Q109.001 30.0335 110.946 30.728 Z" fill="#000000" fill-rule="nonzero" fill-opacity="1" /><polyline clip-path="url(#clip732)" style="stroke:#009af9; stroke-linecap:round; stroke-linejoin:round; stroke-width:12; stroke-opacity:1; fill:none" points="149.191,1193.86 151.945,1193.83 154.7,1193.74 157.454,1193.58 160.209,1193.36 162.963,1193.08 165.718,1192.74 168.472,1192.33 171.227,1191.85 173.981,1191.31 176.735,1190.71 179.49,1190.04 182.244,1189.3 184.999,1188.5 187.753,1187.64 190.508,1186.71 193.262,1185.72 196.017,1184.67 198.771,1183.56 201.526,1182.4 204.28,1181.17 207.034,1179.89 209.789,1178.55 212.543,1177.16 215.298,1175.72 218.052,1174.23 220.807,1172.69 223.561,1171.1 226.316,1169.47 229.07,1167.79 231.825,1166.07 234.579,1164.32 237.333,1162.52 240.088,1160.69 242.842,1158.83 245.597,1156.93 248.351,1155 251.106,1153.04 253.86,1151.06 256.615,1149.05 259.369,1147.01 262.124,1144.95 264.878,1142.87 267.632,1140.77 270.387,1138.65 273.141,1136.51 275.896,1134.36 278.65,1132.19 281.405,1130 284.159,1127.81 286.914,1125.6 289.668,1123.38 292.423,1121.15 295.177,1118.91 297.932,1116.66 300.686,1114.4 303.44,1112.14 306.195,1109.87 308.949,1107.59 311.704,1105.31 314.458,1103.02 317.213,1100.73 319.967,1098.44 322.722,1096.14 325.476,1093.83 328.231,1091.53 330.985,1089.22 333.739,1086.91 336.494,1084.59 339.248,1082.28 342.003,1079.96 344.757,1077.64 347.512,1075.32 350.266,1073 353.021,1070.67 355.775,1068.35 358.53,1066.02 361.284,1063.7 364.038,1061.37 366.793,1059.04 369.547,1056.71 372.302,1054.39 375.056,1052.06 377.811,1049.73 380.565,1047.4 383.32,1045.07 386.074,1042.74 388.829,1040.41 391.583,1038.08 394.337,1035.76 397.092,1033.43 399.846,1031.1 402.601,1028.77 405.355,1026.43 408.11,1024.1 410.864,1021.77 413.619,1019.44 416.373,1017.11 419.128,1014.78 421.882,1012.45 424.636,1010.12 427.391,1007.79 430.145,1005.46 432.9,1003.13 435.654,1000.8 438.409,998.471 441.163,996.141 443.918,993.81 446.672,991.48 449.427,989.15 452.181,986.819 454.936,984.489 457.69,982.159 460.444,979.828 463.199,977.498 465.953,975.168 468.708,972.837 471.462,970.507 474.217,968.177 476.971,965.847 479.726,963.516 482.48,961.186 485.235,958.856 487.989,956.525 490.743,954.195 493.498,951.865 496.252,949.535 499.007,947.205 501.761,944.875 504.516,942.545 507.27,940.215 510.025,937.885 512.779,935.556 515.534,933.226 518.288,930.896 521.042,928.567 523.797,926.238 526.551,923.909 529.306,921.58 532.06,919.251 534.815,916.922 537.569,914.594 540.324,912.266 543.078,909.938 545.833,907.61 548.587,905.283 551.341,902.955 554.096,900.628 556.85,898.302 559.605,895.975 562.359,893.649 565.114,891.324 567.868,888.998 570.623,886.673 573.377,884.349 576.132,882.025 578.886,879.701 581.641,877.378 584.395,875.055 587.149,872.734 589.904,870.412 592.658,868.091 595.413,865.77 598.167,863.45 600.922,861.131 603.676,858.813 606.431,856.495 609.185,854.177 611.94,851.861 614.694,849.545 617.448,847.23 620.203,844.916 622.957,842.602 625.712,840.29 628.466,837.978 631.221,835.667 633.975,833.357 636.73,831.048 639.484,828.74 642.239,826.433 644.993,824.127 647.747,821.823 650.502,819.519 653.256,817.216 656.011,814.915 658.765,812.615 661.52,810.315 664.274,808.018 667.029,805.721 669.783,803.426 672.538,801.132 675.292,798.839 678.046,796.548 680.801,794.258 683.555,791.97 686.31,789.683 689.064,787.397 691.819,785.114 694.573,782.831 697.328,780.551 700.082,778.272 702.837,775.994 705.591,773.718 708.345,771.444 711.1,769.172 713.854,766.901 716.609,764.632 719.363,762.366 722.118,760.1 724.872,757.837 727.627,755.576 730.381,753.317 733.136,751.059 735.89,748.804 738.645,746.551 741.399,744.299 744.153,742.05 746.908,739.803 749.662,737.558 752.417,735.316 755.171,733.076 757.926,730.837 760.68,728.602 763.435,726.368 766.189,724.137 768.944,721.908 771.698,719.682 774.452,717.458 777.207,715.236 779.961,713.017 782.716,710.801 785.47,708.588 788.225,706.376 790.979,704.168 793.734,701.962 796.488,699.759 799.243,697.558 801.997,695.361 804.751,693.166 807.506,690.974 810.26,688.785 813.015,686.598 815.769,684.415 818.524,682.235 821.278,680.057 824.033,677.883 826.787,675.712 829.542,673.543 832.296,671.378 835.05,669.216 837.805,667.057 840.559,664.901 843.314,662.749 846.068,660.599 848.823,658.453 851.577,656.311 854.332,654.171 857.086,652.035 859.841,649.902 862.595,647.773 865.349,645.647 868.104,643.525 870.858,641.406 873.613,639.291 876.367,637.179 879.122,635.071 881.876,632.966 884.631,630.865 887.385,628.768 890.14,626.674 892.894,624.584 895.649,622.498 898.403,620.416 901.157,618.337 903.912,616.262 906.666,614.191 909.421,612.124 912.175,610.061 914.93,608.002 917.684,605.946 920.439,603.895 923.193,601.848 925.948,599.804 928.702,597.765 931.456,595.73 934.211,593.699 936.965,591.672 939.72,589.649 942.474,587.63 945.229,585.616 947.983,583.605 950.738,581.599 953.492,579.598 956.247,577.6 959.001,575.607 961.755,573.618 964.51,571.634 967.264,569.654 970.019,567.678 972.773,565.707 975.528,563.74 978.282,561.778 981.037,559.82 983.791,557.867 986.546,555.918 989.3,553.974 992.054,552.034 994.809,550.099 997.563,548.169 1000.32,546.244 1003.07,544.322 1005.83,542.406 1008.58,540.494 1011.34,538.587 1014.09,536.685 1016.84,534.788 1019.6,532.895 1022.35,531.008 1025.11,529.125 1027.86,527.247 1030.62,525.374 1033.37,523.506 1036.13,521.642 1038.88,519.784 1041.63,517.93 1044.39,516.082 1047.14,514.238 1049.9,512.4 1052.65,510.566 1055.41,508.738 1058.16,506.915 1060.92,505.096 1063.67,503.283 1066.42,501.475 1069.18,499.672 1071.93,497.874 1074.69,496.082 1077.44,494.294 1080.2,492.512 1082.95,490.735 1085.71,488.963 1088.46,487.196 1091.21,485.435 1093.97,483.679 1096.72,481.928 1099.48,480.183 1102.23,478.442 1104.99,476.708 1107.74,474.978 1110.5,473.254 1113.25,471.535 1116.01,469.822 1118.76,468.114 1121.51,466.411 1124.27,464.714 1127.02,463.023 1129.78,461.337 1132.53,459.656 1135.29,457.981 1138.04,456.311 1140.8,454.647 1143.55,452.989 1146.3,451.336 1149.06,449.688 1151.81,448.046 1154.57,446.41 1157.32,444.779 1160.08,443.154 1162.83,441.535 1165.59,439.921 1168.34,438.313 1171.09,436.711 1173.85,435.114 1176.6,433.523 1179.36,431.937 1182.11,430.358 1184.87,428.784 1187.62,427.216 1190.38,425.653 1193.13,424.097 1195.88,422.546 1198.64,421.001 1201.39,419.461 1204.15,417.928 1206.9,416.4 1209.66,414.878 1212.41,413.362 1215.17,411.852 1217.92,410.348 1220.67,408.85 1223.43,407.357 1226.18,405.87 1228.94,404.39 1231.69,402.915 1234.45,401.446 1237.2,399.983 1239.96,398.526 1242.71,397.075 1245.46,395.63 1248.22,394.191 1250.97,392.757 1253.73,391.33 1256.48,389.909 1259.24,388.494 1261.99,387.084 1264.75,385.681 1267.5,384.284 1270.25,382.893 1273.01,381.508 1275.76,380.129 1278.52,378.756 1281.27,377.389 1284.03,376.028 1286.78,374.673 1289.54,373.325 1292.29,371.982 1295.04,370.645 1297.8,369.315 1300.55,367.991 1303.31,366.673 1306.06,365.361 1308.82,364.055 1311.57,362.755 1314.33,361.462 1317.08,360.174 1319.83,358.893 1322.59,357.617 1325.34,356.348 1328.1,355.086 1330.85,353.829 1333.61,352.578 1336.36,351.334 1339.12,350.096 1341.87,348.864 1344.62,347.638 1347.38,346.419 1350.13,345.206 1352.89,343.999 1355.64,342.798 1358.4,341.604 1361.15,340.415 1363.91,339.233 1366.66,338.058 1369.41,336.888 1372.17,335.725 1374.92,334.568 1377.68,333.417 1380.43,332.273 1383.19,331.135 1385.94,330.003 1388.7,328.877 1391.45,327.758 1394.21,326.645 1396.96,325.538 1399.71,324.438 1402.47,323.344 1405.22,322.256 1407.98,321.174 1410.73,320.099 1413.49,319.03 1416.24,317.968 1419,316.912 1421.75,315.862 1424.5,314.818 1427.26,313.781 1430.01,312.75 1432.77,311.725 1435.52,310.707 1438.28,309.695 1441.03,308.69 1443.79,307.691 1446.54,306.698 1449.29,305.712 1452.05,304.731 1454.8,303.758 1457.56,302.79 1460.31,301.829 1463.07,300.875 1465.82,299.927 1468.58,298.985 1471.33,298.049 1474.08,297.12 1476.84,296.197 1479.59,295.281 1482.35,294.371 1485.1,293.468 1487.86,292.57 1490.61,291.68 1493.37,290.795 1496.12,289.917 1498.87,289.046 1501.63,288.18 1504.38,287.322 1507.14,286.469 1509.89,285.623 1512.65,284.784 1515.4,283.951 1518.16,283.124 1520.91,282.303 1523.66,281.489 1526.42,280.682 1529.17,279.881 1531.93,279.086 1534.68,278.298 1537.44,277.516 1540.19,276.741 1542.95,275.972 1545.7,275.209 1548.45,274.453 1551.21,273.703 1553.96,272.96 1556.72,272.223 1559.47,271.492 1562.23,270.768 1564.98,270.051 1567.74,269.339 1570.49,268.635 1573.24,267.936 1576,267.244 1578.75,266.559 1581.51,265.88 1584.26,265.207 1587.02,264.541 1589.77,263.881 1592.53,263.228 1595.28,262.581 1598.03,261.94 1600.79,261.306 1603.54,260.679 1606.3,260.058 1609.05,259.443 1611.81,258.834 1614.56,258.233 1617.32,257.637 1620.07,257.048 1622.82,256.465 1625.58,255.889 1628.33,255.319 1631.09,254.756 1633.84,254.199 1636.6,253.648 1639.35,253.104 1642.11,252.567 1644.86,252.035 1647.62,251.51 1650.37,250.992 1653.12,250.48 1655.88,249.974 1658.63,249.475 1661.39,248.982 1664.14,248.496 1666.9,248.016 1669.65,247.542 1672.41,247.075 1675.16,246.615 1677.91,246.16 1680.67,245.712 1683.42,245.271 1686.18,244.835 1688.93,244.407 1691.69,243.984 1694.44,243.568 1697.2,243.159 1699.95,242.756 1702.7,242.359 1705.46,241.969 1708.21,241.584 1710.97,241.207 1713.72,240.836 1716.48,240.471 1719.23,240.112 1721.99,239.76 1724.74,239.414 1727.49,239.075 1730.25,238.742 1733,238.415 1735.76,238.095 1738.51,237.781 1741.27,237.473 1744.02,237.172 1746.78,236.878 1749.53,236.589 1752.28,236.307 1755.04,236.031 1757.79,235.762 1760.55,235.499 1763.3,235.243 1766.06,234.992 1768.81,234.748 1771.57,234.511 1774.32,234.28 1777.07,234.055 1779.83,233.836 1782.58,233.624 1785.34,233.418 1788.09,233.219 1790.85,233.025 1793.6,232.839 1796.36,232.658 1799.11,232.484 1801.86,232.316 1804.62,232.154 1807.37,231.999 1810.13,231.85 1812.88,231.708 1815.64,231.571 1818.39,231.441 1821.15,231.318 1823.9,231.2 1826.65,231.089 1829.41,230.984 1832.16,230.886 1834.92,230.794 1837.67,230.708 1840.43,230.628 1843.18,230.555 1845.94,230.488 1848.69,230.427 1851.44,230.372 1854.2,230.324 1856.95,230.282 1859.71,230.246 1862.46,230.217 1865.22,230.194 1867.97,230.177 1870.73,230.166 1873.48,230.162 1876.23,230.164 1878.99,230.172 1881.74,230.186 1884.5,230.207 1887.25,230.234 1890.01,230.267 1892.76,230.306 1895.52,230.352 1898.27,230.404 1901.03,230.462 1903.78,230.526 1906.53,230.597 1909.29,230.673 1912.04,230.756 1914.8,230.845 1917.55,230.941 1920.31,231.042 1923.06,231.15 1925.82,231.264 1928.57,231.384 1931.32,231.511 1934.08,231.643 1936.83,231.782 1939.59,231.927 1942.34,232.078 1945.1,232.235 1947.85,232.399 1950.61,232.569 1953.36,232.745 1956.11,232.927 1958.87,233.115 1961.62,233.309 1964.38,233.51 1967.13,233.717 1969.89,233.929 1972.64,234.148 1975.4,234.374 1978.15,234.605 1980.9,234.842 1983.66,235.086 1986.41,235.336 1989.17,235.592 1991.92,235.854 1994.68,236.122 1997.43,236.396 2000.19,236.676 2002.94,236.963 2005.69,237.256 2008.45,237.555 2011.2,237.859 2013.96,238.17 2016.71,238.487 2019.47,238.811 2022.22,239.14 2024.98,239.475 2027.73,239.817 2030.48,240.164 2033.24,240.518 2035.99,240.878 2038.75,241.243 2041.5,241.616 2044.26,241.993 2047.01,242.377 2049.77,242.767 2052.52,243.164 2055.27,243.566 2058.03,243.974 2060.78,244.388 2063.54,244.809 2066.29,245.235 2069.05,245.668 2071.8,246.106 2074.56,246.551 2077.31,247.001 2080.06,247.458 2082.82,247.92 2085.57,248.389 2088.33,248.864 2091.08,249.344 2093.84,249.831 2096.59,250.324 2099.35,250.823 2102.1,251.327 2104.85,251.838 2107.61,252.354 2110.36,252.877 2113.12,253.406 2115.87,253.94 2118.63,254.481 2121.38,255.027 2124.14,255.58 2126.89,256.139 2129.64,256.703 2132.4,257.274 2135.15,257.85 2137.91,258.432 2140.66,259.021 2143.42,259.615 2146.17,260.215 2148.93,260.821 2151.68,261.433 2154.44,262.051 2157.19,262.675 2159.94,263.305 2162.7,263.941 2165.45,264.583 2168.21,265.23 2170.96,265.884 2173.72,266.543 2176.47,267.208 2179.23,267.879 2181.98,268.557 2184.73,269.24 2187.49,269.929 2190.24,270.623 2193,271.324 2195.75,272.031 2198.51,272.743 2201.26,273.461 2204.02,274.185 2206.77,274.915 2209.52,275.651 2212.28,276.393 2215.03,277.14 2217.79,277.894 2220.54,278.653 2223.3,279.418 2226.05,280.189 2228.81,280.966 2231.56,281.749 2234.31,282.537 2237.07,283.331 2239.82,284.132 2242.58,284.938 2245.33,285.749 2248.09,286.567 2250.84,287.39 2253.6,288.219 2256.35,289.054 2259.1,289.895 2261.86,290.742 2264.61,291.594 2267.37,292.452 2270.12,293.316 2272.88,294.186 2275.63,295.062 2278.39,295.943 2281.14,296.83 2283.89,297.723 2286.65,298.622 2289.4,299.526 2292.16,300.436 2294.91,301.352 2297.67,302.274 2300.42,303.201 2303.18,304.134 2305.93,305.073 2308.68,306.018 2311.44,306.968 2314.19,307.924 2316.95,308.886 2319.7,309.853 2322.46,310.827 2325.21,311.806 2327.97,312.79 2330.72,313.781 2333.47,314.777 2336.23,315.779 2338.98,316.786 2341.74,317.799 2344.49,318.818 2347.25,319.843 2350,320.873 2352.76,321.909 "/>
<polyline clip-path="url(#clip732)" style="stroke:#e26f46; stroke-linecap:round; stroke-linejoin:round; stroke-width:12; stroke-opacity:1; fill:none" points="149.191,735.212 151.945,729.128 154.7,722.943 157.454,716.668 160.209,710.318 162.963,703.905 165.718,697.443 168.472,690.948 171.227,684.432 173.981,677.911 176.735,671.4 179.49,664.913 182.244,658.464 184.999,652.066 187.753,645.734 190.508,639.479 193.262,633.315 196.017,627.253 198.771,621.304 201.526,615.477 204.28,609.783 207.034,604.229 209.789,598.822 212.543,593.57 215.298,588.478 218.052,583.551 220.807,578.794 223.561,574.209 226.316,569.8 229.07,565.569 231.825,561.515 234.579,557.638 237.333,553.937 240.088,550.411 242.842,547.058 245.597,543.875 248.351,540.86 251.106,538.01 253.86,535.32 256.615,532.788 259.369,530.407 262.124,528.175 264.878,526.084 267.632,524.129 270.387,522.304 273.141,520.603 275.896,519.021 278.65,517.552 281.405,516.191 284.159,514.93 286.914,513.766 289.668,512.691 292.423,511.701 295.177,510.791 297.932,509.955 300.686,509.189 303.44,508.488 306.195,507.848 308.949,507.264 311.704,506.732 314.458,506.249 317.213,505.811 319.967,505.413 322.722,505.053 325.476,504.726 328.231,504.431 330.985,504.165 333.739,503.926 336.494,503.712 339.248,503.52 342.003,503.35 344.757,503.198 347.512,503.064 350.266,502.945 353.021,502.841 355.775,502.749 358.53,502.669 361.284,502.599 364.038,502.538 366.793,502.484 369.547,502.438 372.302,502.398 375.056,502.363 377.811,502.333 380.565,502.306 383.32,502.283 386.074,502.264 388.829,502.247 391.583,502.232 394.337,502.22 397.092,502.21 399.846,502.203 402.601,502.197 405.355,502.192 408.11,502.188 410.864,502.184 413.619,502.182 416.373,502.18 419.128,502.179 421.882,502.178 424.636,502.178 427.391,502.177 430.145,502.177 432.9,502.178 435.654,502.178 438.409,502.178 441.163,502.178 443.918,502.179 446.672,502.179 449.427,502.179 452.181,502.179 454.936,502.179 457.69,502.179 460.444,502.18 463.199,502.18 465.953,502.18 468.708,502.181 471.462,502.181 474.217,502.182 476.971,502.183 479.726,502.185 482.48,502.187 485.235,502.189 487.989,502.192 490.743,502.195 493.498,502.199 496.252,502.203 499.007,502.209 501.761,502.214 504.516,502.221 507.27,502.228 510.025,502.237 512.779,502.246 515.534,502.256 518.288,502.267 521.042,502.28 523.797,502.293 526.551,502.308 529.306,502.324 532.06,502.341 534.815,502.359 537.569,502.379 540.324,502.401 543.078,502.423 545.833,502.448 548.587,502.474 551.341,502.501 554.096,502.53 556.85,502.561 559.605,502.594 562.359,502.628 565.114,502.664 567.868,502.702 570.623,502.742 573.377,502.784 576.132,502.828 578.886,502.874 581.641,502.922 584.395,502.972 587.149,503.024 589.904,503.078 592.658,503.135 595.413,503.194 598.167,503.255 600.922,503.319 603.676,503.384 606.431,503.453 609.185,503.523 611.94,503.597 614.694,503.672 617.448,503.75 620.203,503.831 622.957,503.915 625.712,504 628.466,504.089 631.221,504.18 633.975,504.274 636.73,504.371 639.484,504.47 642.239,504.572 644.993,504.677 647.747,504.784 650.502,504.894 653.256,505.007 656.011,505.123 658.765,505.242 661.52,505.364 664.274,505.488 667.029,505.616 669.783,505.746 672.538,505.879 675.292,506.015 678.046,506.155 680.801,506.297 683.555,506.442 686.31,506.59 689.064,506.741 691.819,506.895 694.573,507.052 697.328,507.212 700.082,507.375 702.837,507.542 705.591,507.711 708.345,507.883 711.1,508.059 713.854,508.237 716.609,508.419 719.363,508.603 722.118,508.791 724.872,508.982 727.627,509.176 730.381,509.373 733.136,509.574 735.89,509.777 738.645,509.984 741.399,510.193 744.153,510.406 746.908,510.622 749.662,510.841 752.417,511.063 755.171,511.288 757.926,511.517 760.68,511.748 763.435,511.983 766.189,512.221 768.944,512.461 771.698,512.705 774.452,512.953 777.207,513.203 779.961,513.456 782.716,513.712 785.47,513.972 788.225,514.234 790.979,514.5 793.734,514.769 796.488,515.04 799.243,515.315 801.997,515.593 804.751,515.873 807.506,516.157 810.26,516.444 813.015,516.734 815.769,517.027 818.524,517.323 821.278,517.621 824.033,517.923 826.787,518.228 829.542,518.536 832.296,518.846 835.05,519.16 837.805,519.477 840.559,519.796 843.314,520.118 846.068,520.444 848.823,520.772 851.577,521.103 854.332,521.437 857.086,521.773 859.841,522.113 862.595,522.455 865.349,522.801 868.104,523.149 870.858,523.499 873.613,523.853 876.367,524.209 879.122,524.568 881.876,524.93 884.631,525.294 887.385,525.662 890.14,526.032 892.894,526.404 895.649,526.779 898.403,527.157 901.157,527.538 903.912,527.921 906.666,528.307 909.421,528.695 912.175,529.086 914.93,529.48 917.684,529.876 920.439,530.275 923.193,530.676 925.948,531.079 928.702,531.486 931.456,531.894 934.211,532.306 936.965,532.719 939.72,533.135 942.474,533.554 945.229,533.975 947.983,534.398 950.738,534.824 953.492,535.252 956.247,535.682 959.001,536.115 961.755,536.55 964.51,536.988 967.264,537.428 970.019,537.87 972.773,538.314 975.528,538.761 978.282,539.209 981.037,539.66 983.791,540.113 986.546,540.569 989.3,541.026 992.054,541.486 994.809,541.948 997.563,542.412 1000.32,542.878 1003.07,543.346 1005.83,543.816 1008.58,544.288 1011.34,544.763 1014.09,545.239 1016.84,545.717 1019.6,546.198 1022.35,546.68 1025.11,547.164 1027.86,547.651 1030.62,548.139 1033.37,548.629 1036.13,549.121 1038.88,549.615 1041.63,550.111 1044.39,550.609 1047.14,551.108 1049.9,551.609 1052.65,552.113 1055.41,552.618 1058.16,553.124 1060.92,553.633 1063.67,554.143 1066.42,554.655 1069.18,555.169 1071.93,555.684 1074.69,556.201 1077.44,556.72 1080.2,557.241 1082.95,557.763 1085.71,558.287 1088.46,558.812 1091.21,559.339 1093.97,559.868 1096.72,560.398 1099.48,560.929 1102.23,561.463 1104.99,561.998 1107.74,562.534 1110.5,563.072 1113.25,563.611 1116.01,564.152 1118.76,564.694 1121.51,565.238 1124.27,565.783 1127.02,566.33 1129.78,566.878 1132.53,567.427 1135.29,567.978 1138.04,568.53 1140.8,569.083 1143.55,569.638 1146.3,570.195 1149.06,570.752 1151.81,571.311 1154.57,571.871 1157.32,572.432 1160.08,572.995 1162.83,573.559 1165.59,574.124 1168.34,574.69 1171.09,575.258 1173.85,575.827 1176.6,576.397 1179.36,576.968 1182.11,577.54 1184.87,578.113 1187.62,578.688 1190.38,579.264 1193.13,579.841 1195.88,580.419 1198.64,580.998 1201.39,581.578 1204.15,582.159 1206.9,582.741 1209.66,583.324 1212.41,583.909 1215.17,584.494 1217.92,585.08 1220.67,585.668 1223.43,586.256 1226.18,586.845 1228.94,587.436 1231.69,588.027 1234.45,588.619 1237.2,589.212 1239.96,589.806 1242.71,590.401 1245.46,590.997 1248.22,591.593 1250.97,592.191 1253.73,592.789 1256.48,593.388 1259.24,593.989 1261.99,594.59 1264.75,595.191 1267.5,595.794 1270.25,596.397 1273.01,597.001 1275.76,597.606 1278.52,598.212 1281.27,598.819 1284.03,599.426 1286.78,600.034 1289.54,600.642 1292.29,601.252 1295.04,601.862 1297.8,602.473 1300.55,603.084 1303.31,603.697 1306.06,604.309 1308.82,604.923 1311.57,605.537 1314.33,606.152 1317.08,606.768 1319.83,607.384 1322.59,608 1325.34,608.618 1328.1,609.235 1330.85,609.854 1333.61,610.473 1336.36,611.093 1339.12,611.713 1341.87,612.334 1344.62,612.955 1347.38,613.577 1350.13,614.199 1352.89,614.822 1355.64,615.445 1358.4,616.069 1361.15,616.694 1363.91,617.318 1366.66,617.944 1369.41,618.57 1372.17,619.196 1374.92,619.823 1377.68,620.45 1380.43,621.077 1383.19,621.705 1385.94,622.334 1388.7,622.963 1391.45,623.592 1394.21,624.222 1396.96,624.852 1399.71,625.482 1402.47,626.113 1405.22,626.744 1407.98,627.376 1410.73,628.008 1413.49,628.64 1416.24,629.273 1419,629.906 1421.75,630.539 1424.5,631.173 1427.26,631.807 1430.01,632.441 1432.77,633.076 1435.52,633.711 1438.28,634.346 1441.03,634.981 1443.79,635.617 1446.54,636.253 1449.29,636.889 1452.05,637.526 1454.8,638.163 1457.56,638.8 1460.31,639.437 1463.07,640.075 1465.82,640.713 1468.58,641.35 1471.33,641.989 1474.08,642.627 1476.84,643.266 1479.59,643.905 1482.35,644.544 1485.1,645.183 1487.86,645.822 1490.61,646.462 1493.37,647.101 1496.12,647.741 1498.87,648.381 1501.63,649.022 1504.38,649.662 1507.14,650.302 1509.89,650.943 1512.65,651.584 1515.4,652.225 1518.16,652.866 1520.91,653.507 1523.66,654.148 1526.42,654.789 1529.17,655.431 1531.93,656.072 1534.68,656.714 1537.44,657.356 1540.19,657.997 1542.95,658.639 1545.7,659.281 1548.45,659.923 1551.21,660.565 1553.96,661.207 1556.72,661.85 1559.47,662.492 1562.23,663.134 1564.98,663.776 1567.74,664.419 1570.49,665.061 1573.24,665.703 1576,666.346 1578.75,666.988 1581.51,667.63 1584.26,668.273 1587.02,668.915 1589.77,669.558 1592.53,670.2 1595.28,670.842 1598.03,671.485 1600.79,672.127 1603.54,672.769 1606.3,673.412 1609.05,674.054 1611.81,674.696 1614.56,675.338 1617.32,675.98 1620.07,676.623 1622.82,677.265 1625.58,677.907 1628.33,678.548 1631.09,679.19 1633.84,679.832 1636.6,680.474 1639.35,681.116 1642.11,681.757 1644.86,682.399 1647.62,683.04 1650.37,683.681 1653.12,684.322 1655.88,684.964 1658.63,685.605 1661.39,686.246 1664.14,686.886 1666.9,687.527 1669.65,688.168 1672.41,688.808 1675.16,689.449 1677.91,690.089 1680.67,690.729 1683.42,691.369 1686.18,692.01 1688.93,692.649 1691.69,693.289 1694.44,693.928 1697.2,694.568 1699.95,695.207 1702.7,695.846 1705.46,696.485 1708.21,697.124 1710.97,697.762 1713.72,698.401 1716.48,699.04 1719.23,699.678 1721.99,700.316 1724.74,700.954 1727.49,701.592 1730.25,702.229 1733,702.866 1735.76,703.504 1738.51,704.141 1741.27,704.777 1744.02,705.414 1746.78,706.051 1749.53,706.687 1752.28,707.323 1755.04,707.959 1757.79,708.594 1760.55,709.23 1763.3,709.865 1766.06,710.5 1768.81,711.135 1771.57,711.77 1774.32,712.404 1777.07,713.039 1779.83,713.673 1782.58,714.306 1785.34,714.94 1788.09,715.574 1790.85,716.207 1793.6,716.84 1796.36,717.472 1799.11,718.105 1801.86,718.737 1804.62,719.369 1807.37,720.001 1810.13,720.633 1812.88,721.264 1815.64,721.895 1818.39,722.526 1821.15,723.157 1823.9,723.787 1826.65,724.417 1829.41,725.047 1832.16,725.677 1834.92,726.306 1837.67,726.935 1840.43,727.564 1843.18,728.193 1845.94,728.821 1848.69,729.45 1851.44,730.077 1854.2,730.705 1856.95,731.332 1859.71,731.96 1862.46,732.586 1865.22,733.213 1867.97,733.839 1870.73,734.465 1873.48,735.091 1876.23,735.717 1878.99,736.342 1881.74,736.967 1884.5,737.592 1887.25,738.216 1890.01,738.84 1892.76,739.464 1895.52,740.088 1898.27,740.711 1901.03,741.334 1903.78,741.957 1906.53,742.579 1909.29,743.201 1912.04,743.823 1914.8,744.445 1917.55,745.066 1920.31,745.687 1923.06,746.308 1925.82,746.928 1928.57,747.548 1931.32,748.168 1934.08,748.787 1936.83,749.407 1939.59,750.025 1942.34,750.644 1945.1,751.262 1947.85,751.88 1950.61,752.498 1953.36,753.115 1956.11,753.732 1958.87,754.349 1961.62,754.966 1964.38,755.582 1967.13,756.198 1969.89,756.813 1972.64,757.428 1975.4,758.043 1978.15,758.658 1980.9,759.272 1983.66,759.886 1986.41,760.5 1989.17,761.113 1991.92,761.726 1994.68,762.338 1997.43,762.951 2000.19,763.563 2002.94,764.174 2005.69,764.786 2008.45,765.397 2011.2,766.008 2013.96,766.618 2016.71,767.228 2019.47,767.838 2022.22,768.447 2024.98,769.056 2027.73,769.665 2030.48,770.273 2033.24,770.882 2035.99,771.489 2038.75,772.097 2041.5,772.704 2044.26,773.311 2047.01,773.917 2049.77,774.523 2052.52,775.129 2055.27,775.734 2058.03,776.339 2060.78,776.944 2063.54,777.548 2066.29,778.152 2069.05,778.756 2071.8,779.36 2074.56,779.963 2077.31,780.565 2080.06,781.168 2082.82,781.77 2085.57,782.371 2088.33,782.973 2091.08,783.574 2093.84,784.174 2096.59,784.775 2099.35,785.375 2102.1,785.974 2104.85,786.574 2107.61,787.172 2110.36,787.771 2113.12,788.369 2115.87,788.967 2118.63,789.565 2121.38,790.162 2124.14,790.759 2126.89,791.355 2129.64,791.952 2132.4,792.548 2135.15,793.143 2137.91,793.738 2140.66,794.333 2143.42,794.927 2146.17,795.522 2148.93,796.115 2151.68,796.709 2154.44,797.302 2157.19,797.895 2159.94,798.487 2162.7,799.079 2165.45,799.671 2168.21,800.262 2170.96,800.853 2173.72,801.444 2176.47,802.034 2179.23,802.624 2181.98,803.214 2184.73,803.803 2187.49,804.392 2190.24,804.98 2193,805.569 2195.75,806.157 2198.51,806.744 2201.26,807.331 2204.02,807.918 2206.77,808.505 2209.52,809.091 2212.28,809.677 2215.03,810.262 2217.79,810.847 2220.54,811.432 2223.3,812.016 2226.05,812.6 2228.81,813.184 2231.56,813.768 2234.31,814.351 2237.07,814.933 2239.82,815.516 2242.58,816.098 2245.33,816.679 2248.09,817.26 2250.84,817.841 2253.6,818.422 2256.35,819.002 2259.1,819.582 2261.86,820.162 2264.61,820.741 2267.37,821.32 2270.12,821.898 2272.88,822.476 2275.63,823.054 2278.39,823.632 2281.14,824.209 2283.89,824.785 2286.65,825.362 2289.4,825.938 2292.16,826.514 2294.91,827.089 2297.67,827.664 2300.42,828.239 2303.18,828.813 2305.93,829.387 2308.68,829.961 2311.44,830.534 2314.19,831.107 2316.95,831.679 2319.7,832.252 2322.46,832.824 2325.21,833.395 2327.97,833.966 2330.72,834.537 2333.47,835.108 2336.23,835.678 2338.98,836.248 2341.74,836.817 2344.49,837.387 2347.25,837.955 2350,838.524 2352.76,839.092 "/>
<polyline clip-path="url(#clip732)" style="stroke:#3da44d; stroke-linecap:round; stroke-linejoin:round; stroke-width:12; stroke-opacity:1; fill:none" points="149.191,535.819 151.945,534.647 154.7,533.615 157.454,532.728 160.209,531.988 162.963,531.399 165.718,530.963 168.472,530.679 171.227,530.549 173.981,530.572 176.735,530.747 179.49,531.073 182.244,531.548 184.999,532.169 187.753,532.935 190.508,533.842 193.262,534.886 196.017,536.066 198.771,537.375 201.526,538.812 204.28,540.372 207.034,542.051 209.789,543.845 212.543,545.749 215.298,547.759 218.052,549.871 220.807,552.08 223.561,554.381 226.316,556.77 229.07,559.243 231.825,561.793 234.579,564.416 237.333,567.108 240.088,569.862 242.842,572.675 245.597,575.541 248.351,578.455 251.106,581.411 253.86,584.405 256.615,587.432 259.369,590.486 262.124,593.562 264.878,596.656 267.632,599.763 270.387,602.877 273.141,605.995 275.896,609.112 278.65,612.223 281.405,615.325 284.159,618.413 286.914,621.485 289.668,624.536 292.423,627.563 295.177,630.564 297.932,633.535 300.686,636.474 303.44,639.379 306.195,642.247 308.949,645.077 311.704,647.868 314.458,650.617 317.213,653.324 319.967,655.988 322.722,658.608 325.476,661.183 328.231,663.713 330.985,666.197 333.739,668.636 336.494,671.03 339.248,673.378 342.003,675.682 344.757,677.94 347.512,680.154 350.266,682.324 353.021,684.451 355.775,686.535 358.53,688.577 361.284,690.578 364.038,692.538 366.793,694.458 369.547,696.34 372.302,698.183 375.056,699.989 377.811,701.759 380.565,703.493 383.32,705.192 386.074,706.857 388.829,708.49 391.583,710.09 394.337,711.658 397.092,713.197 399.846,714.705 402.601,716.184 405.355,717.635 408.11,719.059 410.864,720.456 413.619,721.827 416.373,723.173 419.128,724.494 421.882,725.791 424.636,727.065 427.391,728.317 430.145,729.546 432.9,730.754 435.654,731.942 438.409,733.109 441.163,734.256 443.918,735.384 446.672,736.494 449.427,737.585 452.181,738.659 454.936,739.715 457.69,740.755 460.444,741.779 463.199,742.786 465.953,743.778 468.708,744.755 471.462,745.718 474.217,746.666 476.971,747.6 479.726,748.52 482.48,749.427 485.235,750.322 487.989,751.203 490.743,752.072 493.498,752.929 496.252,753.775 499.007,754.608 501.761,755.431 504.516,756.242 507.27,757.043 510.025,757.833 512.779,758.613 515.534,759.383 518.288,760.143 521.042,760.894 523.797,761.635 526.551,762.366 529.306,763.089 532.06,763.803 534.815,764.508 537.569,765.204 540.324,765.893 543.078,766.573 545.833,767.244 548.587,767.908 551.341,768.565 554.096,769.213 556.85,769.854 559.605,770.488 562.359,771.115 565.114,771.734 567.868,772.347 570.623,772.952 573.377,773.551 576.132,774.144 578.886,774.729 581.641,775.309 584.395,775.882 587.149,776.448 589.904,777.009 592.658,777.564 595.413,778.112 598.167,778.655 600.922,779.192 603.676,779.724 606.431,780.25 609.185,780.77 611.94,781.285 614.694,781.794 617.448,782.299 620.203,782.798 622.957,783.291 625.712,783.78 628.466,784.264 631.221,784.743 633.975,785.217 636.73,785.686 639.484,786.15 642.239,786.61 644.993,787.065 647.747,787.516 650.502,787.961 653.256,788.403 656.011,788.84 658.765,789.273 661.52,789.701 664.274,790.125 667.029,790.545 669.783,790.961 672.538,791.373 675.292,791.781 678.046,792.184 680.801,792.584 683.555,792.98 686.31,793.372 689.064,793.76 691.819,794.144 694.573,794.524 697.328,794.901 700.082,795.274 702.837,795.644 705.591,796.01 708.345,796.372 711.1,796.731 713.854,797.086 716.609,797.438 719.363,797.786 722.118,798.132 724.872,798.473 727.627,798.812 730.381,799.147 733.136,799.479 735.89,799.808 738.645,800.133 741.399,800.456 744.153,800.775 746.908,801.091 749.662,801.405 752.417,801.715 755.171,802.022 757.926,802.326 760.68,802.628 763.435,802.926 766.189,803.222 768.944,803.514 771.698,803.804 774.452,804.091 777.207,804.376 779.961,804.657 782.716,804.936 785.47,805.213 788.225,805.486 790.979,805.757 793.734,806.025 796.488,806.291 799.243,806.554 801.997,806.815 804.751,807.073 807.506,807.329 810.26,807.582 813.015,807.833 815.769,808.081 818.524,808.327 821.278,808.571 824.033,808.812 826.787,809.051 829.542,809.288 832.296,809.522 835.05,809.754 837.805,809.984 840.559,810.211 843.314,810.437 846.068,810.66 848.823,810.881 851.577,811.1 854.332,811.317 857.086,811.531 859.841,811.744 862.595,811.954 865.349,812.163 868.104,812.369 870.858,812.574 873.613,812.776 876.367,812.976 879.122,813.175 881.876,813.371 884.631,813.566 887.385,813.759 890.14,813.949 892.894,814.138 895.649,814.325 898.403,814.511 901.157,814.694 903.912,814.876 906.666,815.056 909.421,815.234 912.175,815.41 914.93,815.584 917.684,815.757 920.439,815.928 923.193,816.098 925.948,816.265 928.702,816.432 931.456,816.596 934.211,816.759 936.965,816.92 939.72,817.079 942.474,817.237 945.229,817.394 947.983,817.548 950.738,817.702 953.492,817.853 956.247,818.004 959.001,818.152 961.755,818.299 964.51,818.445 967.264,818.589 970.019,818.732 972.773,818.873 975.528,819.013 978.282,819.151 981.037,819.288 983.791,819.424 986.546,819.558 989.3,819.691 992.054,819.823 994.809,819.953 997.563,820.082 1000.32,820.209 1003.07,820.335 1005.83,820.46 1008.58,820.584 1011.34,820.706 1014.09,820.827 1016.84,820.947 1019.6,821.065 1022.35,821.183 1025.11,821.299 1027.86,821.414 1030.62,821.527 1033.37,821.64 1036.13,821.751 1038.88,821.861 1041.63,821.97 1044.39,822.078 1047.14,822.184 1049.9,822.29 1052.65,822.394 1055.41,822.498 1058.16,822.6 1060.92,822.701 1063.67,822.801 1066.42,822.9 1069.18,822.997 1071.93,823.094 1074.69,823.19 1077.44,823.285 1080.2,823.378 1082.95,823.471 1085.71,823.563 1088.46,823.653 1091.21,823.743 1093.97,823.832 1096.72,823.919 1099.48,824.006 1102.23,824.092 1104.99,824.177 1107.74,824.261 1110.5,824.343 1113.25,824.426 1116.01,824.507 1118.76,824.587 1121.51,824.666 1124.27,824.744 1127.02,824.822 1129.78,824.899 1132.53,824.974 1135.29,825.049 1138.04,825.123 1140.8,825.196 1143.55,825.269 1146.3,825.34 1149.06,825.411 1151.81,825.481 1154.57,825.55 1157.32,825.618 1160.08,825.686 1162.83,825.752 1165.59,825.818 1168.34,825.883 1171.09,825.948 1173.85,826.011 1176.6,826.074 1179.36,826.136 1182.11,826.197 1184.87,826.258 1187.62,826.318 1190.38,826.377 1193.13,826.435 1195.88,826.493 1198.64,826.55 1201.39,826.606 1204.15,826.662 1206.9,826.717 1209.66,826.771 1212.41,826.825 1215.17,826.877 1217.92,826.93 1220.67,826.981 1223.43,827.032 1226.18,827.082 1228.94,827.132 1231.69,827.181 1234.45,827.229 1237.2,827.277 1239.96,827.324 1242.71,827.371 1245.46,827.417 1248.22,827.462 1250.97,827.506 1253.73,827.551 1256.48,827.594 1259.24,827.637 1261.99,827.679 1264.75,827.721 1267.5,827.762 1270.25,827.803 1273.01,827.843 1275.76,827.883 1278.52,827.922 1281.27,827.96 1284.03,827.998 1286.78,828.035 1289.54,828.072 1292.29,828.108 1295.04,828.144 1297.8,828.179 1300.55,828.214 1303.31,828.248 1306.06,828.282 1308.82,828.315 1311.57,828.348 1314.33,828.381 1317.08,828.412 1319.83,828.444 1322.59,828.474 1325.34,828.505 1328.1,828.535 1330.85,828.564 1333.61,828.593 1336.36,828.622 1339.12,828.65 1341.87,828.677 1344.62,828.704 1347.38,828.731 1350.13,828.757 1352.89,828.783 1355.64,828.809 1358.4,828.834 1361.15,828.858 1363.91,828.883 1366.66,828.906 1369.41,828.93 1372.17,828.953 1374.92,828.975 1377.68,828.997 1380.43,829.019 1383.19,829.04 1385.94,829.061 1388.7,829.082 1391.45,829.102 1394.21,829.122 1396.96,829.141 1399.71,829.16 1402.47,829.179 1405.22,829.197 1407.98,829.215 1410.73,829.233 1413.49,829.25 1416.24,829.267 1419,829.283 1421.75,829.3 1424.5,829.315 1427.26,829.331 1430.01,829.346 1432.77,829.361 1435.52,829.375 1438.28,829.39 1441.03,829.403 1443.79,829.417 1446.54,829.43 1449.29,829.443 1452.05,829.456 1454.8,829.468 1457.56,829.48 1460.31,829.491 1463.07,829.503 1465.82,829.514 1468.58,829.524 1471.33,829.535 1474.08,829.545 1476.84,829.555 1479.59,829.564 1482.35,829.574 1485.1,829.582 1487.86,829.591 1490.61,829.6 1493.37,829.608 1496.12,829.616 1498.87,829.623 1501.63,829.63 1504.38,829.638 1507.14,829.644 1509.89,829.651 1512.65,829.657 1515.4,829.663 1518.16,829.669 1520.91,829.674 1523.66,829.68 1526.42,829.685 1529.17,829.689 1531.93,829.694 1534.68,829.698 1537.44,829.702 1540.19,829.706 1542.95,829.709 1545.7,829.713 1548.45,829.716 1551.21,829.719 1553.96,829.721 1556.72,829.724 1559.47,829.726 1562.23,829.728 1564.98,829.729 1567.74,829.731 1570.49,829.732 1573.24,829.733 1576,829.734 1578.75,829.735 1581.51,829.735 1584.26,829.735 1587.02,829.735 1589.77,829.735 1592.53,829.735 1595.28,829.734 1598.03,829.734 1600.79,829.733 1603.54,829.731 1606.3,829.73 1609.05,829.729 1611.81,829.727 1614.56,829.725 1617.32,829.723 1620.07,829.72 1622.82,829.718 1625.58,829.715 1628.33,829.712 1631.09,829.709 1633.84,829.706 1636.6,829.703 1639.35,829.699 1642.11,829.696 1644.86,829.692 1647.62,829.688 1650.37,829.683 1653.12,829.679 1655.88,829.675 1658.63,829.67 1661.39,829.665 1664.14,829.66 1666.9,829.655 1669.65,829.649 1672.41,829.644 1675.16,829.638 1677.91,829.632 1680.67,829.627 1683.42,829.62 1686.18,829.614 1688.93,829.608 1691.69,829.601 1694.44,829.595 1697.2,829.588 1699.95,829.581 1702.7,829.574 1705.46,829.566 1708.21,829.559 1710.97,829.551 1713.72,829.544 1716.48,829.536 1719.23,829.528 1721.99,829.52 1724.74,829.512 1727.49,829.504 1730.25,829.495 1733,829.486 1735.76,829.478 1738.51,829.469 1741.27,829.46 1744.02,829.451 1746.78,829.442 1749.53,829.432 1752.28,829.423 1755.04,829.414 1757.79,829.404 1760.55,829.394 1763.3,829.384 1766.06,829.374 1768.81,829.364 1771.57,829.354 1774.32,829.344 1777.07,829.333 1779.83,829.323 1782.58,829.312 1785.34,829.301 1788.09,829.29 1790.85,829.279 1793.6,829.268 1796.36,829.257 1799.11,829.246 1801.86,829.235 1804.62,829.223 1807.37,829.212 1810.13,829.2 1812.88,829.188 1815.64,829.176 1818.39,829.164 1821.15,829.152 1823.9,829.14 1826.65,829.128 1829.41,829.116 1832.16,829.103 1834.92,829.091 1837.67,829.078 1840.43,829.066 1843.18,829.053 1845.94,829.04 1848.69,829.027 1851.44,829.014 1854.2,829.001 1856.95,828.988 1859.71,828.975 1862.46,828.961 1865.22,828.948 1867.97,828.935 1870.73,828.921 1873.48,828.907 1876.23,828.894 1878.99,828.88 1881.74,828.866 1884.5,828.852 1887.25,828.838 1890.01,828.824 1892.76,828.81 1895.52,828.796 1898.27,828.782 1901.03,828.767 1903.78,828.753 1906.53,828.738 1909.29,828.724 1912.04,828.709 1914.8,828.695 1917.55,828.68 1920.31,828.665 1923.06,828.65 1925.82,828.635 1928.57,828.62 1931.32,828.605 1934.08,828.59 1936.83,828.575 1939.59,828.56 1942.34,828.545 1945.1,828.529 1947.85,828.514 1950.61,828.498 1953.36,828.483 1956.11,828.467 1958.87,828.452 1961.62,828.436 1964.38,828.421 1967.13,828.405 1969.89,828.389 1972.64,828.373 1975.4,828.357 1978.15,828.341 1980.9,828.325 1983.66,828.309 1986.41,828.293 1989.17,828.277 1991.92,828.261 1994.68,828.245 1997.43,828.228 2000.19,828.212 2002.94,828.196 2005.69,828.179 2008.45,828.163 2011.2,828.146 2013.96,828.13 2016.71,828.113 2019.47,828.097 2022.22,828.08 2024.98,828.063 2027.73,828.047 2030.48,828.03 2033.24,828.013 2035.99,827.996 2038.75,827.98 2041.5,827.963 2044.26,827.946 2047.01,827.929 2049.77,827.912 2052.52,827.895 2055.27,827.878 2058.03,827.861 2060.78,827.843 2063.54,827.826 2066.29,827.809 2069.05,827.792 2071.8,827.775 2074.56,827.757 2077.31,827.74 2080.06,827.723 2082.82,827.705 2085.57,827.688 2088.33,827.671 2091.08,827.653 2093.84,827.636 2096.59,827.618 2099.35,827.601 2102.1,827.583 2104.85,827.565 2107.61,827.548 2110.36,827.53 2113.12,827.513 2115.87,827.495 2118.63,827.477 2121.38,827.46 2124.14,827.442 2126.89,827.424 2129.64,827.406 2132.4,827.389 2135.15,827.371 2137.91,827.353 2140.66,827.335 2143.42,827.317 2146.17,827.299 2148.93,827.282 2151.68,827.264 2154.44,827.246 2157.19,827.228 2159.94,827.21 2162.7,827.192 2165.45,827.174 2168.21,827.156 2170.96,827.138 2173.72,827.12 2176.47,827.102 2179.23,827.084 2181.98,827.066 2184.73,827.048 2187.49,827.03 2190.24,827.011 2193,826.993 2195.75,826.975 2198.51,826.957 2201.26,826.939 2204.02,826.921 2206.77,826.903 2209.52,826.884 2212.28,826.866 2215.03,826.848 2217.79,826.83 2220.54,826.812 2223.3,826.793 2226.05,826.775 2228.81,826.757 2231.56,826.739 2234.31,826.721 2237.07,826.702 2239.82,826.684 2242.58,826.666 2245.33,826.648 2248.09,826.629 2250.84,826.611 2253.6,826.593 2256.35,826.575 2259.1,826.556 2261.86,826.538 2264.61,826.52 2267.37,826.502 2270.12,826.483 2272.88,826.465 2275.63,826.447 2278.39,826.428 2281.14,826.41 2283.89,826.392 2286.65,826.374 2289.4,826.355 2292.16,826.337 2294.91,826.319 2297.67,826.301 2300.42,826.282 2303.18,826.264 2305.93,826.246 2308.68,826.228 2311.44,826.209 2314.19,826.191 2316.95,826.173 2319.7,826.154 2322.46,826.136 2325.21,826.118 2327.97,826.1 2330.72,826.082 2333.47,826.063 2336.23,826.045 2338.98,826.027 2341.74,826.009 2344.49,825.99 2347.25,825.972 2350,825.954 2352.76,825.936 "/>
<path clip-path="url(#clip730)" d="M222.643 300.469 L532.096 300.469 L532.096 93.1086 L222.643 93.1086  Z" fill="#ffffff" fill-rule="evenodd" fill-opacity="1"/>
<polyline clip-path="url(#clip730)" style="stroke:#000000; stroke-linecap:round; stroke-linejoin:round; stroke-width:4; stroke-opacity:1; fill:none" points="222.643,300.469 532.096,300.469 532.096,93.1086 222.643,93.1086 222.643,300.469 "/>
<polyline clip-path="url(#clip730)" style="stroke:#009af9; stroke-linecap:round; stroke-linejoin:round; stroke-width:12; stroke-opacity:1; fill:none" points="247.127,144.949 394.031,144.949 "/>
<path clip-path="url(#clip730)" d="M418.515 151.997 L418.515 136.303 L422.775 136.303 L422.775 151.835 Q422.775 155.516 424.21 157.368 Q425.645 159.196 428.515 159.196 Q431.964 159.196 433.955 156.997 Q435.969 154.798 435.969 151.002 L435.969 136.303 L440.228 136.303 L440.228 162.229 L435.969 162.229 L435.969 158.247 Q434.418 160.608 432.358 161.766 Q430.321 162.9 427.613 162.9 Q423.145 162.9 420.83 160.122 Q418.515 157.344 418.515 151.997 M429.233 135.678 L429.233 135.678 Z" fill="#000000" fill-rule="nonzero" fill-opacity="1" /><path clip-path="url(#clip730)" d="M448.608 126.21 L458.423 126.21 L458.423 129.52 L452.867 129.52 L452.867 165.168 L458.423 165.168 L458.423 168.479 L448.608 168.479 L448.608 126.21 Z" fill="#000000" fill-rule="nonzero" fill-opacity="1" /><path clip-path="url(#clip730)" d="M468.909 158.293 L476.548 158.293 L476.548 131.928 L468.237 133.595 L468.237 129.335 L476.501 127.669 L481.177 127.669 L481.177 158.293 L488.816 158.293 L488.816 162.229 L468.909 162.229 L468.909 158.293 Z" fill="#000000" fill-rule="nonzero" fill-opacity="1" /><path clip-path="url(#clip730)" d="M507.612 126.21 L507.612 168.479 L497.797 168.479 L497.797 165.168 L503.33 165.168 L503.33 129.52 L497.797 129.52 L497.797 126.21 L507.612 126.21 Z" fill="#000000" fill-rule="nonzero" fill-opacity="1" /><polyline clip-path="url(#clip730)" style="stroke:#e26f46; stroke-linecap:round; stroke-linejoin:round; stroke-width:12; stroke-opacity:1; fill:none" points="247.127,196.789 394.031,196.789 "/>
<path clip-path="url(#clip730)" d="M418.515 203.837 L418.515 188.143 L422.775 188.143 L422.775 203.675 Q422.775 207.356 424.21 209.208 Q425.645 211.036 428.515 211.036 Q431.964 211.036 433.955 208.837 Q435.969 206.638 435.969 202.842 L435.969 188.143 L440.228 188.143 L440.228 214.069 L435.969 214.069 L435.969 210.087 Q434.418 212.448 432.358 213.606 Q430.321 214.74 427.613 214.74 Q423.145 214.74 420.83 211.962 Q418.515 209.184 418.515 203.837 M429.233 187.518 L429.233 187.518 Z" fill="#000000" fill-rule="nonzero" fill-opacity="1" /><path clip-path="url(#clip730)" d="M448.608 178.05 L458.423 178.05 L458.423 181.36 L452.867 181.36 L452.867 217.008 L458.423 217.008 L458.423 220.319 L448.608 220.319 L448.608 178.05 Z" fill="#000000" fill-rule="nonzero" fill-opacity="1" /><path clip-path="url(#clip730)" d="M472.126 210.133 L488.446 210.133 L488.446 214.069 L466.501 214.069 L466.501 210.133 Q469.163 207.379 473.747 202.749 Q478.353 198.096 479.534 196.754 Q481.779 194.231 482.659 192.495 Q483.561 190.735 483.561 189.046 Q483.561 186.291 481.617 184.555 Q479.696 182.819 476.594 182.819 Q474.395 182.819 471.941 183.583 Q469.511 184.347 466.733 185.897 L466.733 181.175 Q469.557 180.041 472.011 179.462 Q474.464 178.884 476.501 178.884 Q481.872 178.884 485.066 181.569 Q488.26 184.254 488.26 188.745 Q488.26 190.874 487.45 192.796 Q486.663 194.694 484.557 197.286 Q483.978 197.958 480.876 201.175 Q477.774 204.37 472.126 210.133 Z" fill="#000000" fill-rule="nonzero" fill-opacity="1" /><path clip-path="url(#clip730)" d="M507.612 178.05 L507.612 220.319 L497.797 220.319 L497.797 217.008 L503.33 217.008 L503.33 181.36 L497.797 181.36 L497.797 178.05 L507.612 178.05 Z" fill="#000000" fill-rule="nonzero" fill-opacity="1" /><polyline clip-path="url(#clip730)" style="stroke:#3da44d; stroke-linecap:round; stroke-linejoin:round; stroke-width:12; stroke-opacity:1; fill:none" points="247.127,248.629 394.031,248.629 "/>
<path clip-path="url(#clip730)" d="M418.515 255.677 L418.515 239.983 L422.775 239.983 L422.775 255.515 Q422.775 259.196 424.21 261.048 Q425.645 262.876 428.515 262.876 Q431.964 262.876 433.955 260.677 Q435.969 258.478 435.969 254.682 L435.969 239.983 L440.228 239.983 L440.228 265.909 L435.969 265.909 L435.969 261.927 Q434.418 264.288 432.358 265.446 Q430.321 266.58 427.613 266.58 Q423.145 266.58 420.83 263.802 Q418.515 261.024 418.515 255.677 M429.233 239.358 L429.233 239.358 Z" fill="#000000" fill-rule="nonzero" fill-opacity="1" /><path clip-path="url(#clip730)" d="M459.233 229.937 Q456.131 235.261 454.626 240.469 Q453.122 245.677 453.122 251.024 Q453.122 256.372 454.626 261.626 Q456.154 266.858 459.233 272.159 L455.529 272.159 Q452.057 266.719 450.321 261.464 Q448.608 256.21 448.608 251.024 Q448.608 245.862 450.321 240.631 Q452.034 235.4 455.529 229.937 L459.233 229.937 Z" fill="#000000" fill-rule="nonzero" fill-opacity="1" /><path clip-path="url(#clip730)" d="M471.71 232.622 L471.71 239.983 L480.483 239.983 L480.483 243.293 L471.71 243.293 L471.71 257.367 Q471.71 260.538 472.566 261.441 Q473.446 262.344 476.108 262.344 L480.483 262.344 L480.483 265.909 L476.108 265.909 Q471.177 265.909 469.302 264.08 Q467.427 262.228 467.427 257.367 L467.427 243.293 L464.302 243.293 L464.302 239.983 L467.427 239.983 L467.427 232.622 L471.71 232.622 Z" fill="#000000" fill-rule="nonzero" fill-opacity="1" /><path clip-path="url(#clip730)" d="M485.413 229.937 L489.117 229.937 Q492.589 235.4 494.302 240.631 Q496.038 245.862 496.038 251.024 Q496.038 256.21 494.302 261.464 Q492.589 266.719 489.117 272.159 L485.413 272.159 Q488.492 266.858 489.997 261.626 Q491.524 256.372 491.524 251.024 Q491.524 245.677 489.997 240.469 Q488.492 235.261 485.413 229.937 Z" fill="#000000" fill-rule="nonzero" fill-opacity="1" /></svg>
