<?xml version="1.0" encoding="utf-8"?>
<svg xmlns="http://www.w3.org/2000/svg" xmlns:xlink="http://www.w3.org/1999/xlink" width="600" height="400" viewBox="0 0 2400 1600">
<defs>
  <clipPath id="clip100">
    <rect x="0" y="0" width="2400" height="1600"/>
  </clipPath>
</defs>
<path clip-path="url(#clip100)" d="M0 1600 L2400 1600 L2400 0 L0 0  Z" fill="#ffffff" fill-rule="evenodd" fill-opacity="1"/>
<defs>
  <clipPath id="clip101">
    <rect x="480" y="0" width="1681" height="1600"/>
  </clipPath>
</defs>
<path clip-path="url(#clip100)" d="M149.191 1423.18 L2352.76 1423.18 L2352.76 47.2441 L149.191 47.2441  Z" fill="#ffffff" fill-rule="evenodd" fill-opacity="1"/>
<defs>
  <clipPath id="clip102">
    <rect x="149" y="47" width="2205" height="1377"/>
  </clipPath>
</defs>
<polyline clip-path="url(#clip102)" style="stroke:#000000; stroke-linecap:round; stroke-linejoin:round; stroke-width:2; stroke-opacity:0.1; fill:none" points="149.191,1423.18 149.191,47.2441 "/>
<polyline clip-path="url(#clip102)" style="stroke:#000000; stroke-linecap:round; stroke-linejoin:round; stroke-width:2; stroke-opacity:0.1; fill:none" points="700.082,1423.18 700.082,47.2441 "/>
<polyline clip-path="url(#clip102)" style="stroke:#000000; stroke-linecap:round; stroke-linejoin:round; stroke-width:2; stroke-opacity:0.1; fill:none" points="1250.97,1423.18 1250.97,47.2441 "/>
<polyline clip-path="url(#clip102)" style="stroke:#000000; stroke-linecap:round; stroke-linejoin:round; stroke-width:2; stroke-opacity:0.1; fill:none" points="1801.86,1423.18 1801.86,47.2441 "/>
<polyline clip-path="url(#clip102)" style="stroke:#000000; stroke-linecap:round; stroke-linejoin:round; stroke-width:2; stroke-opacity:0.1; fill:none" points="2352.76,1423.18 2352.76,47.2441 "/>
<polyline clip-path="url(#clip102)" style="stroke:#000000; stroke-linecap:round; stroke-linejoin:round; stroke-width:2; stroke-opacity:0.1; fill:none" points="149.191,1423.18 2352.76,1423.18 "/>
<polyline clip-path="url(#clip102)" style="stroke:#000000; stroke-linecap:round; stroke-linejoin:round; stroke-width:2; stroke-opacity:0.1; fill:none" points="149.191,1193.86 2352.76,1193.86 "/>
<polyline clip-path="url(#clip102)" style="stroke:#000000; stroke-linecap:round; stroke-linejoin:round; stroke-width:2; stroke-opacity:0.1; fill:none" points="149.191,964.535 2352.76,964.535 "/>
<polyline clip-path="url(#clip102)" style="stroke:#000000; stroke-linecap:round; stroke-linejoin:round; stroke-width:2; stroke-opacity:0.1; fill:none" points="149.191,735.212 2352.76,735.212 "/>
<polyline clip-path="url(#clip102)" style="stroke:#000000; stroke-linecap:round; stroke-linejoin:round; stroke-width:2; stroke-opacity:0.1; fill:none" points="149.191,505.889 2352.76,505.889 "/>
<polyline clip-path="url(#clip102)" style="stroke:#000000; stroke-linecap:round; stroke-linejoin:round; stroke-width:2; stroke-opacity:0.1; fill:none" points="149.191,276.567 2352.76,276.567 "/>
<polyline clip-path="url(#clip102)" style="stroke:#000000; stroke-linecap:round; stroke-linejoin:round; stroke-width:2; stroke-opacity:0.1; fill:none" points="149.191,47.2441 2352.76,47.2441 "/>
<polyline clip-path="url(#clip100)" style="stroke:#000000; stroke-linecap:round; stroke-linejoin:round; stroke-width:4; stroke-opacity:1; fill:none" points="149.191,1423.18 2352.76,1423.18 "/>
<polyline clip-path="url(#clip100)" style="stroke:#000000; stroke-linecap:round; stroke-linejoin:round; stroke-width:4; stroke-opacity:1; fill:none" points="149.191,1423.18 149.191,1404.28 "/>
<polyline clip-path="url(#clip100)" style="stroke:#000000; stroke-linecap:round; stroke-linejoin:round; stroke-width:4; stroke-opacity:1; fill:none" points="700.082,1423.18 700.082,1404.28 "/>
<polyline clip-path="url(#clip100)" style="stroke:#000000; stroke-linecap:round; stroke-linejoin:round; stroke-width:4; stroke-opacity:1; fill:none" points="1250.97,1423.18 1250.97,1404.28 "/>
<polyline clip-path="url(#clip100)" style="stroke:#000000; stroke-linecap:round; stroke-linejoin:round; stroke-width:4; stroke-opacity:1; fill:none" points="1801.86,1423.18 1801.86,1404.28 "/>
<polyline clip-path="url(#clip100)" style="stroke:#000000; stroke-linecap:round; stroke-linejoin:round; stroke-width:4; stroke-opacity:1; fill:none" points="2352.76,1423.18 2352.76,1404.28 "/>
<path clip-path="url(#clip100)" d="M149.191 1454.1 Q145.58 1454.1 143.751 1457.66 Q141.946 1461.2 141.946 1468.33 Q141.946 1475.44 143.751 1479.01 Q145.58 1482.55 149.191 1482.55 Q152.825 1482.55 154.631 1479.01 Q156.459 1475.44 156.459 1468.33 Q156.459 1461.2 154.631 1457.66 Q152.825 1454.1 149.191 1454.1 M149.191 1450.39 Q155.001 1450.39 158.057 1455 Q161.135 1459.58 161.135 1468.33 Q161.135 1477.06 158.057 1481.67 Q155.001 1486.25 149.191 1486.25 Q143.381 1486.25 140.302 1481.67 Q137.246 1477.06 137.246 1468.33 Q137.246 1459.58 140.302 1455 Q143.381 1450.39 149.191 1450.39 Z" fill="#000000" fill-rule="nonzero" fill-opacity="1" /><path clip-path="url(#clip100)" d="M694.735 1481.64 L711.054 1481.64 L711.054 1485.58 L689.11 1485.58 L689.11 1481.64 Q691.772 1478.89 696.355 1474.26 Q700.962 1469.61 702.142 1468.27 Q704.388 1465.74 705.267 1464.01 Q706.17 1462.25 706.17 1460.56 Q706.17 1457.8 704.226 1456.07 Q702.304 1454.33 699.203 1454.33 Q697.003 1454.33 694.55 1455.09 Q692.119 1455.86 689.341 1457.41 L689.341 1452.69 Q692.166 1451.55 694.619 1450.97 Q697.073 1450.39 699.11 1450.39 Q704.48 1450.39 707.675 1453.08 Q710.869 1455.77 710.869 1460.26 Q710.869 1462.39 710.059 1464.31 Q709.272 1466.2 707.165 1468.8 Q706.587 1469.47 703.485 1472.69 Q700.383 1475.88 694.735 1481.64 Z" fill="#000000" fill-rule="nonzero" fill-opacity="1" /><path clip-path="url(#clip100)" d="M1253.98 1455.09 L1242.18 1473.54 L1253.98 1473.54 L1253.98 1455.09 M1252.76 1451.02 L1258.64 1451.02 L1258.64 1473.54 L1263.57 1473.54 L1263.57 1477.43 L1258.64 1477.43 L1258.64 1485.58 L1253.98 1485.58 L1253.98 1477.43 L1238.38 1477.43 L1238.38 1472.92 L1252.76 1451.02 Z" fill="#000000" fill-rule="nonzero" fill-opacity="1" /><path clip-path="url(#clip100)" d="M1802.27 1466.44 Q1799.12 1466.44 1797.27 1468.59 Q1795.44 1470.74 1795.44 1474.49 Q1795.44 1478.22 1797.27 1480.39 Q1799.12 1482.55 1802.27 1482.55 Q1805.42 1482.55 1807.25 1480.39 Q1809.1 1478.22 1809.1 1474.49 Q1809.1 1470.74 1807.25 1468.59 Q1805.42 1466.44 1802.27 1466.44 M1811.55 1451.78 L1811.55 1456.04 Q1809.79 1455.21 1807.99 1454.77 Q1806.2 1454.33 1804.45 1454.33 Q1799.82 1454.33 1797.36 1457.45 Q1794.93 1460.58 1794.58 1466.9 Q1795.95 1464.89 1798.01 1463.82 Q1800.07 1462.73 1802.55 1462.73 Q1807.76 1462.73 1810.77 1465.9 Q1813.8 1469.05 1813.8 1474.49 Q1813.8 1479.82 1810.65 1483.03 Q1807.5 1486.25 1802.27 1486.25 Q1796.27 1486.25 1793.1 1481.67 Q1789.93 1477.06 1789.93 1468.33 Q1789.93 1460.14 1793.82 1455.28 Q1797.71 1450.39 1804.26 1450.39 Q1806.02 1450.39 1807.8 1450.74 Q1809.61 1451.09 1811.55 1451.78 Z" fill="#000000" fill-rule="nonzero" fill-opacity="1" /><path clip-path="url(#clip100)" d="M2352.76 1469.17 Q2349.42 1469.17 2347.5 1470.95 Q2345.6 1472.73 2345.6 1475.86 Q2345.6 1478.98 2347.5 1480.77 Q2349.42 1482.55 2352.76 1482.55 Q2356.09 1482.55 2358.01 1480.77 Q2359.93 1478.96 2359.93 1475.86 Q2359.93 1472.73 2358.01 1470.95 Q2356.11 1469.17 2352.76 1469.17 M2348.08 1467.18 Q2345.07 1466.44 2343.38 1464.38 Q2341.71 1462.32 2341.71 1459.35 Q2341.71 1455.21 2344.65 1452.8 Q2347.62 1450.39 2352.76 1450.39 Q2357.92 1450.39 2360.86 1452.8 Q2363.8 1455.21 2363.8 1459.35 Q2363.8 1462.32 2362.11 1464.38 Q2360.44 1466.44 2357.45 1467.18 Q2360.83 1467.96 2362.71 1470.26 Q2364.61 1472.55 2364.61 1475.86 Q2364.61 1480.88 2361.53 1483.57 Q2358.47 1486.25 2352.76 1486.25 Q2347.04 1486.25 2343.96 1483.57 Q2340.9 1480.88 2340.9 1475.86 Q2340.9 1472.55 2342.8 1470.26 Q2344.7 1467.96 2348.08 1467.18 M2346.37 1459.79 Q2346.37 1462.48 2348.03 1463.98 Q2349.72 1465.49 2352.76 1465.49 Q2355.77 1465.49 2357.45 1463.98 Q2359.17 1462.48 2359.17 1459.79 Q2359.17 1457.11 2357.45 1455.6 Q2355.77 1454.1 2352.76 1454.1 Q2349.72 1454.1 2348.03 1455.6 Q2346.37 1457.11 2346.37 1459.79 Z" fill="#000000" fill-rule="nonzero" fill-opacity="1" /><path clip-path="url(#clip100)" d="M1250.03 1522.27 L1250.03 1532.4 L1262.1 1532.4 L1262.1 1536.95 L1250.03 1536.95 L1250.03 1556.3 Q1250.03 1560.66 1251.21 1561.9 Q1252.42 1563.14 1256.08 1563.14 L1262.1 1563.14 L1262.1 1568.04 L1256.08 1568.04 Q1249.3 1568.04 1246.72 1565.53 Q1244.15 1562.98 1244.15 1556.3 L1244.15 1536.95 L1239.85 1536.95 L1239.85 1532.4 L1244.15 1532.4 L1244.15 1522.27 L1250.03 1522.27 Z" fill="#000000" fill-rule="nonzero" fill-opacity="1" /><polyline clip-path="url(#clip100)" style="stroke:#000000; stroke-linecap:round; stroke-linejoin:round; stroke-width:4; stroke-opacity:1; fill:none" points="149.191,1423.18 149.191,47.2441 "/>
<polyline clip-path="url(#clip100)" style="stroke:#000000; stroke-linecap:round; stroke-linejoin:round; stroke-width:4; stroke-opacity:1; fill:none" points="149.191,1423.18 168.089,1423.18 "/>
<polyline clip-path="url(#clip100)" style="stroke:#000000; stroke-linecap:round; stroke-linejoin:round; stroke-width:4; stroke-opacity:1; fill:none" points="149.191,1193.86 168.089,1193.86 "/>
<polyline clip-path="url(#clip100)" style="stroke:#000000; stroke-linecap:round; stroke-linejoin:round; stroke-width:4; stroke-opacity:1; fill:none" points="149.191,964.535 168.089,964.535 "/>
<polyline clip-path="url(#clip100)" style="stroke:#000000; stroke-linecap:round; stroke-linejoin:round; stroke-width:4; stroke-opacity:1; fill:none" points="149.191,735.212 168.089,735.212 "/>
<polyline clip-path="url(#clip100)" style="stroke:#000000; stroke-linecap:round; stroke-linejoin:round; stroke-width:4; stroke-opacity:1; fill:none" points="149.191,505.889 168.089,505.889 "/>
<polyline clip-path="url(#clip100)" style="stroke:#000000; stroke-linecap:round; stroke-linejoin:round; stroke-width:4; stroke-opacity:1; fill:none" points="149.191,276.567 168.089,276.567 "/>
<polyline clip-path="url(#clip100)" style="stroke:#000000; stroke-linecap:round; stroke-linejoin:round; stroke-width:4; stroke-opacity:1; fill:none" points="149.191,47.2441 168.089,47.2441 "/>
<path clip-path="url(#clip100)" d="M51.3162 1423.63 L80.992 1423.63 L80.992 1427.57 L51.3162 1427.57 L51.3162 1423.63 Z" fill="#000000" fill-rule="nonzero" fill-opacity="1" /><path clip-path="url(#clip100)" d="M101.663 1421.32 Q98.515 1421.32 96.6632 1423.47 Q94.8345 1425.62 94.8345 1429.37 Q94.8345 1433.1 96.6632 1435.27 Q98.515 1437.43 101.663 1437.43 Q104.811 1437.43 106.64 1435.27 Q108.492 1433.1 108.492 1429.37 Q108.492 1425.62 106.64 1423.47 Q104.811 1421.32 101.663 1421.32 M110.946 1406.66 L110.946 1410.92 Q109.186 1410.09 107.381 1409.65 Q105.598 1409.21 103.839 1409.21 Q99.2095 1409.21 96.7558 1412.33 Q94.3252 1415.46 93.978 1421.78 Q95.3437 1419.77 97.4039 1418.7 Q99.4641 1417.61 101.941 1417.61 Q107.149 1417.61 110.158 1420.78 Q113.191 1423.93 113.191 1429.37 Q113.191 1434.7 110.043 1437.91 Q106.895 1441.13 101.663 1441.13 Q95.6678 1441.13 92.4965 1436.55 Q89.3253 1431.94 89.3253 1423.21 Q89.3253 1415.02 93.2141 1410.16 Q97.103 1405.27 103.654 1405.27 Q105.413 1405.27 107.196 1405.62 Q109.001 1405.97 110.946 1406.66 Z" fill="#000000" fill-rule="nonzero" fill-opacity="1" /><path clip-path="url(#clip100)" d="M50.9921 1194.31 L80.6679 1194.31 L80.6679 1198.24 L50.9921 1198.24 L50.9921 1194.31 Z" fill="#000000" fill-rule="nonzero" fill-opacity="1" /><path clip-path="url(#clip100)" d="M103.608 1180.65 L91.8021 1199.1 L103.608 1199.1 L103.608 1180.65 M102.381 1176.58 L108.26 1176.58 L108.26 1199.1 L113.191 1199.1 L113.191 1202.99 L108.26 1202.99 L108.26 1211.14 L103.608 1211.14 L103.608 1202.99 L88.0058 1202.99 L88.0058 1198.48 L102.381 1176.58 Z" fill="#000000" fill-rule="nonzero" fill-opacity="1" /><path clip-path="url(#clip100)" d="M53.0754 964.986 L82.7512 964.986 L82.7512 968.921 L53.0754 968.921 L53.0754 964.986 Z" fill="#000000" fill-rule="nonzero" fill-opacity="1" /><path clip-path="url(#clip100)" d="M96.8715 977.879 L113.191 977.879 L113.191 981.815 L91.2465 981.815 L91.2465 977.879 Q93.9086 975.125 98.4919 970.495 Q103.098 965.842 104.279 964.5 Q106.524 961.977 107.404 960.241 Q108.307 958.481 108.307 956.792 Q108.307 954.037 106.362 952.301 Q104.441 950.565 101.339 950.565 Q99.14 950.565 96.6863 951.329 Q94.2558 952.093 91.478 953.643 L91.478 948.921 Q94.3021 947.787 96.7558 947.208 Q99.2095 946.63 101.246 946.63 Q106.617 946.63 109.811 949.315 Q113.006 952 113.006 956.491 Q113.006 958.62 112.196 960.542 Q111.408 962.44 109.302 965.032 Q108.723 965.704 105.621 968.921 Q102.52 972.116 96.8715 977.879 Z" fill="#000000" fill-rule="nonzero" fill-opacity="1" /><path clip-path="url(#clip100)" d="M101.246 721.011 Q97.6354 721.011 95.8067 724.575 Q94.0012 728.117 94.0012 735.247 Q94.0012 742.353 95.8067 745.918 Q97.6354 749.46 101.246 749.46 Q104.881 749.46 106.686 745.918 Q108.515 742.353 108.515 735.247 Q108.515 728.117 106.686 724.575 Q104.881 721.011 101.246 721.011 M101.246 717.307 Q107.057 717.307 110.112 721.913 Q113.191 726.497 113.191 735.247 Q113.191 743.973 110.112 748.58 Q107.057 753.163 101.246 753.163 Q95.4363 753.163 92.3576 748.58 Q89.3021 743.973 89.3021 735.247 Q89.3021 726.497 92.3576 721.913 Q95.4363 717.307 101.246 717.307 Z" fill="#000000" fill-rule="nonzero" fill-opacity="1" /><path clip-path="url(#clip100)" d="M96.8715 519.234 L113.191 519.234 L113.191 523.169 L91.2465 523.169 L91.2465 519.234 Q93.9086 516.48 98.4919 511.85 Q103.098 507.197 104.279 505.855 Q106.524 503.331 107.404 501.595 Q108.307 499.836 108.307 498.146 Q108.307 495.392 106.362 493.656 Q104.441 491.92 101.339 491.92 Q99.14 491.92 96.6863 492.683 Q94.2558 493.447 91.478 494.998 L91.478 490.276 Q94.3021 489.142 96.7558 488.563 Q99.2095 487.984 101.246 487.984 Q106.617 487.984 109.811 490.67 Q113.006 493.355 113.006 497.845 Q113.006 499.975 112.196 501.896 Q111.408 503.794 109.302 506.387 Q108.723 507.058 105.621 510.276 Q102.52 513.47 96.8715 519.234 Z" fill="#000000" fill-rule="nonzero" fill-opacity="1" /><path clip-path="url(#clip100)" d="M103.608 263.361 L91.8021 281.81 L103.608 281.81 L103.608 263.361 M102.381 259.287 L108.26 259.287 L108.26 281.81 L113.191 281.81 L113.191 285.699 L108.26 285.699 L108.26 293.847 L103.608 293.847 L103.608 285.699 L88.0058 285.699 L88.0058 281.185 L102.381 259.287 Z" fill="#000000" fill-rule="nonzero" fill-opacity="1" /><path clip-path="url(#clip100)" d="M101.663 45.3807 Q98.515 45.3807 96.6632 47.5334 Q94.8345 49.6862 94.8345 53.4362 Q94.8345 57.163 96.6632 59.3389 Q98.515 61.4917 101.663 61.4917 Q104.811 61.4917 106.64 59.3389 Q108.492 57.163 108.492 53.4362 Q108.492 49.6862 106.64 47.5334 Q104.811 45.3807 101.663 45.3807 M110.946 30.728 L110.946 34.9872 Q109.186 34.1539 107.381 33.7141 Q105.598 33.2743 103.839 33.2743 Q99.2095 33.2743 96.7558 36.3992 Q94.3252 39.5242 93.978 45.8436 Q95.3437 43.8298 97.4039 42.765 Q99.4641 41.677 101.941 41.677 Q107.149 41.677 110.158 44.8483 Q113.191 47.9964 113.191 53.4362 Q113.191 58.7602 110.043 61.9778 Q106.895 65.1954 101.663 65.1954 Q95.6678 65.1954 92.4965 60.6121 Q89.3253 56.0056 89.3253 47.2788 Q89.3253 39.0844 93.2141 34.2233 Q97.103 29.3391 103.654 29.3391 Q105.413 29.3391 107.196 29.6863 Q109.001 30.0335 110.946 30.728 Z" fill="#000000" fill-rule="nonzero" fill-opacity="1" /><polyline clip-path="url(#clip102)" style="stroke:#009af9; stroke-linecap:round; stroke-linejoin:round; stroke-width:12; stroke-opacity:1; fill:none" points="149.191,1193.86 151.945,1193.49 154.7,1192.46 157.454,1190.83 160.209,1188.69 162.963,1186.14 165.718,1183.23 168.472,1180.05 171.227,1176.65 173.981,1173.1 176.735,1169.44 179.49,1165.7 182.244,1161.91 184.999,1158.09 187.753,1154.25 190.508,1150.41 193.262,1146.56 196.017,1142.71 198.771,1138.86 201.526,1135.01 204.28,1131.16 207.034,1127.31 209.789,1123.46 212.543,1119.61 215.298,1115.76 218.052,1111.92 220.807,1108.07 223.561,1104.23 226.316,1100.39 229.07,1096.56 231.825,1092.73 234.579,1088.91 237.333,1085.1 240.088,1081.29 242.842,1077.5 245.597,1073.71 248.351,1069.93 251.106,1066.16 253.86,1062.4 256.615,1058.66 259.369,1054.92 262.124,1051.19 264.878,1047.48 267.632,1043.78 270.387,1040.09 273.141,1036.42 275.896,1032.75 278.65,1029.1 281.405,1025.47 284.159,1021.84 286.914,1018.23 289.668,1014.64 292.423,1011.05 295.177,1007.48 297.932,1003.93 300.686,1000.38 303.44,996.856 306.195,993.341 308.949,989.84 311.704,986.352 314.458,982.879 317.213,979.419 319.967,975.973 322.722,972.541 325.476,969.123 328.231,965.719 330.985,962.328 333.739,958.951 336.494,955.588 339.248,952.238 342.003,948.902 344.757,945.579 347.512,942.27 350.266,938.975 353.021,935.693 355.775,932.424 358.53,929.169 361.284,925.927 364.038,922.699 366.793,919.483 369.547,916.281 372.302,913.092 375.056,909.915 377.811,906.752 380.565,903.602 383.32,900.464 386.074,897.339 388.829,894.227 391.583,891.127 394.337,888.04 397.092,884.966 399.846,881.904 402.601,878.854 405.355,875.817 408.11,872.792 410.864,869.779 413.619,866.778 416.373,863.79 419.128,860.813 421.882,857.848 424.636,854.895 427.391,851.954 430.145,849.025 432.9,846.108 435.654,843.202 438.409,840.308 441.163,837.425 443.918,834.554 446.672,831.694 449.427,828.845 452.181,826.008 454.936,823.182 457.69,820.367 460.444,817.564 463.199,814.771 465.953,811.99 468.708,809.219 471.462,806.459 474.217,803.71 476.971,800.972 479.726,798.244 482.48,795.528 485.235,792.821 487.989,790.126 490.743,787.441 493.498,784.766 496.252,782.102 499.007,779.448 501.761,776.805 504.516,774.172 507.27,771.549 510.025,768.936 512.779,766.333 515.534,763.74 518.288,761.158 521.042,758.585 523.797,756.022 526.551,753.469 529.306,750.926 532.06,748.393 534.815,745.869 537.569,743.355 540.324,740.851 543.078,738.357 545.833,735.871 548.587,733.396 551.341,730.93 554.096,728.473 556.85,726.026 559.605,723.588 562.359,721.159 565.114,718.739 567.868,716.329 570.623,713.928 573.377,711.536 576.132,709.153 578.886,706.779 581.641,704.414 584.395,702.058 587.149,699.711 589.904,697.373 592.658,695.043 595.413,692.723 598.167,690.411 600.922,688.107 603.676,685.813 606.431,683.527 609.185,681.25 611.94,678.981 614.694,676.721 617.448,674.469 620.203,672.226 622.957,669.991 625.712,667.765 628.466,665.546 631.221,663.336 633.975,661.135 636.73,658.942 639.484,656.756 642.239,654.579 644.993,652.41 647.747,650.25 650.502,648.097 653.256,645.952 656.011,643.815 658.765,641.687 661.52,639.566 664.274,637.453 667.029,635.347 669.783,633.25 672.538,631.161 675.292,629.079 678.046,627.005 680.801,624.938 683.555,622.88 686.31,620.828 689.064,618.785 691.819,616.749 694.573,614.721 697.328,612.7 700.082,610.686 702.837,608.68 705.591,606.682 708.345,604.69 711.1,602.707 713.854,600.73 716.609,598.761 719.363,596.799 722.118,594.844 724.872,592.897 727.627,590.956 730.381,589.023 733.136,587.097 735.89,585.178 738.645,583.266 741.399,581.362 744.153,579.463 746.908,577.573 749.662,575.689 752.417,573.812 755.171,571.942 757.926,570.079 760.68,568.223 763.435,566.373 766.189,564.531 768.944,562.695 771.698,560.866 774.452,559.043 777.207,557.228 779.961,555.419 782.716,553.616 785.47,551.821 788.225,550.032 790.979,548.249 793.734,546.473 796.488,544.704 799.243,542.941 801.997,541.185 804.751,539.435 807.506,537.692 810.26,535.955 813.015,534.224 815.769,532.5 818.524,530.782 821.278,529.071 824.033,527.366 826.787,525.667 829.542,523.975 832.296,522.288 835.05,520.608 837.805,518.935 840.559,517.267 843.314,515.606 846.068,513.95 848.823,512.301 851.577,510.658 854.332,509.021 857.086,507.391 859.841,505.766 862.595,504.147 865.349,502.534 868.104,500.928 870.858,499.327 873.613,497.732 876.367,496.144 879.122,494.561 881.876,492.984 884.631,491.413 887.385,489.848 890.14,488.288 892.894,486.735 895.649,485.187 898.403,483.645 901.157,482.109 903.912,480.579 906.666,479.054 909.421,477.535 912.175,476.022 914.93,474.515 917.684,473.013 920.439,471.517 923.193,470.026 925.948,468.542 928.702,467.063 931.456,465.589 934.211,464.121 936.965,462.658 939.72,461.201 942.474,459.75 945.229,458.304 947.983,456.864 950.738,455.429 953.492,454 956.247,452.576 959.001,451.157 961.755,449.744 964.51,448.337 967.264,446.934 970.019,445.538 972.773,444.146 975.528,442.76 978.282,441.379 981.037,440.004 983.791,438.634 986.546,437.269 989.3,435.909 992.054,434.555 994.809,433.206 997.563,431.862 1000.32,430.524 1003.07,429.19 1005.83,427.862 1008.58,426.539 1011.34,425.222 1014.09,423.909 1016.84,422.602 1019.6,421.3 1022.35,420.003 1025.11,418.711 1027.86,417.424 1030.62,416.142 1033.37,414.866 1036.13,413.594 1038.88,412.328 1041.63,411.066 1044.39,409.81 1047.14,408.559 1049.9,407.312 1052.65,406.071 1055.41,404.834 1058.16,403.603 1060.92,402.377 1063.67,401.155 1066.42,399.939 1069.18,398.727 1071.93,397.521 1074.69,396.319 1077.44,395.122 1080.2,393.93 1082.95,392.743 1085.71,391.561 1088.46,390.384 1091.21,389.211 1093.97,388.044 1096.72,386.881 1099.48,385.723 1102.23,384.57 1104.99,383.422 1107.74,382.278 1110.5,381.139 1113.25,380.006 1116.01,378.876 1118.76,377.752 1121.51,376.632 1124.27,375.517 1127.02,374.407 1129.78,373.302 1132.53,372.201 1135.29,371.105 1138.04,370.013 1140.8,368.927 1143.55,367.845 1146.3,366.767 1149.06,365.695 1151.81,364.627 1154.57,363.563 1157.32,362.504 1160.08,361.45 1162.83,360.4 1165.59,359.356 1168.34,358.315 1171.09,357.279 1173.85,356.248 1176.6,355.221 1179.36,354.199 1182.11,353.182 1184.87,352.169 1187.62,351.16 1190.38,350.156 1193.13,349.157 1195.88,348.162 1198.64,347.172 1201.39,346.186 1204.15,345.204 1206.9,344.227 1209.66,343.255 1212.41,342.287 1215.17,341.323 1217.92,340.364 1220.67,339.409 1223.43,338.459 1226.18,337.513 1228.94,336.572 1231.69,335.635 1234.45,334.702 1237.2,333.774 1239.96,332.85 1242.71,331.931 1245.46,331.016 1248.22,330.105 1250.97,329.199 1253.73,328.297 1256.48,327.399 1259.24,326.506 1261.99,325.617 1264.75,324.732 1267.5,323.852 1270.25,322.976 1273.01,322.104 1275.76,321.237 1278.52,320.374 1281.27,319.515 1284.03,318.66 1286.78,317.81 1289.54,316.964 1292.29,316.122 1295.04,315.285 1297.8,314.451 1300.55,313.623 1303.31,312.798 1306.06,311.977 1308.82,311.161 1311.57,310.349 1314.33,309.541 1317.08,308.738 1319.83,307.938 1322.59,307.143 1325.34,306.352 1328.1,305.565 1330.85,304.783 1333.61,304.004 1336.36,303.23 1339.12,302.46 1341.87,301.694 1344.62,300.932 1347.38,300.175 1350.13,299.421 1352.89,298.671 1355.64,297.927 1358.4,297.185 1361.15,296.448 1363.91,295.715 1366.66,294.987 1369.41,294.262 1372.17,293.542 1374.92,292.825 1377.68,292.113 1380.43,291.405 1383.19,290.7 1385.94,290 1388.7,289.304 1391.45,288.612 1394.21,287.924 1396.96,287.241 1399.71,286.561 1402.47,285.885 1405.22,285.213 1407.98,284.546 1410.73,283.882 1413.49,283.223 1416.24,282.567 1419,281.915 1421.75,281.268 1424.5,280.624 1427.26,279.985 1430.01,279.35 1432.77,278.718 1435.52,278.091 1438.28,277.467 1441.03,276.848 1443.79,276.232 1446.54,275.62 1449.29,275.013 1452.05,274.409 1454.8,273.81 1457.56,273.214 1460.31,272.622 1463.07,272.034 1465.82,271.451 1468.58,270.871 1471.33,270.295 1474.08,269.723 1476.84,269.155 1479.59,268.59 1482.35,268.03 1485.1,267.474 1487.86,266.922 1490.61,266.373 1493.37,265.829 1496.12,265.288 1498.87,264.751 1501.63,264.218 1504.38,263.689 1507.14,263.164 1509.89,262.643 1512.65,262.126 1515.4,261.612 1518.16,261.103 1520.91,260.597 1523.66,260.095 1526.42,259.597 1529.17,259.103 1531.93,258.613 1534.68,258.127 1537.44,257.644 1540.19,257.165 1542.95,256.69 1545.7,256.219 1548.45,255.752 1551.21,255.289 1553.96,254.829 1556.72,254.374 1559.47,253.922 1562.23,253.474 1564.98,253.029 1567.74,252.589 1570.49,252.152 1573.24,251.72 1576,251.291 1578.75,250.865 1581.51,250.444 1584.26,250.026 1587.02,249.612 1589.77,249.202 1592.53,248.796 1595.28,248.393 1598.03,247.995 1600.79,247.6 1603.54,247.209 1606.3,246.821 1609.05,246.437 1611.81,246.058 1614.56,245.681 1617.32,245.309 1620.07,244.94 1622.82,244.576 1625.58,244.214 1628.33,243.857 1631.09,243.503 1633.84,243.153 1636.6,242.807 1639.35,242.465 1642.11,242.126 1644.86,241.791 1647.62,241.46 1650.37,241.132 1653.12,240.808 1655.88,240.488 1658.63,240.172 1661.39,239.859 1664.14,239.55 1666.9,239.245 1669.65,238.943 1672.41,238.645 1675.16,238.351 1677.91,238.06 1680.67,237.774 1683.42,237.49 1686.18,237.211 1688.93,236.935 1691.69,236.663 1694.44,236.395 1697.2,236.13 1699.95,235.869 1702.7,235.611 1705.46,235.358 1708.21,235.108 1710.97,234.861 1713.72,234.619 1716.48,234.38 1719.23,234.144 1721.99,233.912 1724.74,233.684 1727.49,233.46 1730.25,233.239 1733,233.022 1735.76,232.808 1738.51,232.599 1741.27,232.392 1744.02,232.19 1746.78,231.991 1749.53,231.796 1752.28,231.604 1755.04,231.416 1757.79,231.232 1760.55,231.051 1763.3,230.874 1766.06,230.7 1768.81,230.53 1771.57,230.364 1774.32,230.201 1777.07,230.042 1779.83,229.887 1782.58,229.735 1785.34,229.587 1788.09,229.442 1790.85,229.301 1793.6,229.163 1796.36,229.03 1799.11,228.899 1801.86,228.773 1804.62,228.65 1807.37,228.53 1810.13,228.414 1812.88,228.302 1815.64,228.193 1818.39,228.088 1821.15,227.987 1823.9,227.889 1826.65,227.794 1829.41,227.704 1832.16,227.616 1834.92,227.533 1837.67,227.453 1840.43,227.376 1843.18,227.303 1845.94,227.234 1848.69,227.168 1851.44,227.106 1854.2,227.047 1856.95,226.992 1859.71,226.94 1862.46,226.892 1865.22,226.848 1867.97,226.807 1870.73,226.769 1873.48,226.735 1876.23,226.705 1878.99,226.678 1881.74,226.655 1884.5,226.635 1887.25,226.619 1890.01,226.607 1892.76,226.598 1895.52,226.592 1898.27,226.59 1901.03,226.592 1903.78,226.597 1906.53,226.605 1909.29,226.617 1912.04,226.633 1914.8,226.652 1917.55,226.675 1920.31,226.701 1923.06,226.731 1925.82,226.764 1928.57,226.801 1931.32,226.841 1934.08,226.885 1936.83,226.932 1939.59,226.983 1942.34,227.037 1945.1,227.095 1947.85,227.157 1950.61,227.221 1953.36,227.29 1956.11,227.361 1958.87,227.437 1961.62,227.516 1964.38,227.598 1967.13,227.684 1969.89,227.773 1972.64,227.866 1975.4,227.962 1978.15,228.062 1980.9,228.165 1983.66,228.272 1986.41,228.382 1989.17,228.496 1991.92,228.613 1994.68,228.734 1997.43,228.858 2000.19,228.986 2002.94,229.117 2005.69,229.251 2008.45,229.389 2011.2,229.531 2013.96,229.676 2016.71,229.824 2019.47,229.976 2022.22,230.132 2024.98,230.29 2027.73,230.453 2030.48,230.619 2033.24,230.788 2035.99,230.961 2038.75,231.137 2041.5,231.316 2044.26,231.499 2047.01,231.686 2049.77,231.876 2052.52,232.069 2055.27,232.266 2058.03,232.467 2060.78,232.67 2063.54,232.878 2066.29,233.088 2069.05,233.303 2071.8,233.52 2074.56,233.741 2077.31,233.966 2080.06,234.194 2082.82,234.425 2085.57,234.66 2088.33,234.898 2091.08,235.14 2093.84,235.385 2096.59,235.633 2099.35,235.885 2102.1,236.141 2104.85,236.399 2107.61,236.662 2110.36,236.927 2113.12,237.197 2115.87,237.469 2118.63,237.745 2121.38,238.024 2124.14,238.307 2126.89,238.594 2129.64,238.883 2132.4,239.176 2135.15,239.473 2137.91,239.773 2140.66,240.076 2143.42,240.383 2146.17,240.693 2148.93,241.006 2151.68,241.324 2154.44,241.644 2157.19,241.968 2159.94,242.295 2162.7,242.626 2165.45,242.959 2168.21,243.297 2170.96,243.638 2173.72,243.982 2176.47,244.33 2179.23,244.681 2181.98,245.035 2184.73,245.393 2187.49,245.755 2190.24,246.119 2193,246.487 2195.75,246.859 2198.51,247.233 2201.26,247.612 2204.02,247.994 2206.77,248.379 2209.52,248.767 2212.28,249.159 2215.03,249.554 2217.79,249.953 2220.54,250.355 2223.3,250.76 2226.05,251.169 2228.81,251.581 2231.56,251.997 2234.31,252.416 2237.07,252.838 2239.82,253.264 2242.58,253.693 2245.33,254.126 2248.09,254.561 2250.84,255.001 2253.6,255.443 2256.35,255.889 2259.1,256.338 2261.86,256.792 2264.61,257.248 2267.37,257.707 2270.12,258.17 2272.88,258.636 2275.63,259.106 2278.39,259.579 2281.14,260.056 2283.89,260.535 2286.65,261.019 2289.4,261.505 2292.16,261.995 2294.91,262.488 2297.67,262.985 2300.42,263.485 2303.18,263.989 2305.93,264.495 2308.68,265.005 2311.44,265.519 2314.19,266.036 2316.95,266.556 2319.7,267.08 2322.46,267.607 2325.21,268.137 2327.97,268.671 2330.72,269.208 2333.47,269.748 2336.23,270.292 2338.98,270.839 2341.74,271.39 2344.49,271.943 2347.25,272.501 2350,273.061 2352.76,273.625 "/>
<polyline clip-path="url(#clip102)" style="stroke:#e26f46; stroke-linecap:round; stroke-linejoin:round; stroke-width:12; stroke-opacity:1; fill:none" points="149.191,735.212 151.945,663.776 154.7,600.584 157.454,545.761 160.209,499.231 162.963,460.697 165.718,429.647 168.472,405.387 171.227,387.073 173.981,373.766 176.735,364.504 179.49,358.374 182.244,354.54 184.999,352.302 187.753,351.106 190.508,350.531 193.262,350.293 196.017,350.211 198.771,350.195 201.526,350.201 204.28,350.208 207.034,350.216 209.789,350.246 212.543,350.319 215.298,350.447 218.052,350.643 220.807,350.915 223.561,351.268 226.316,351.704 229.07,352.222 231.825,352.819 234.579,353.493 237.333,354.237 240.088,355.047 242.842,355.918 245.597,356.845 248.351,357.824 251.106,358.849 253.86,359.918 256.615,361.025 259.369,362.167 262.124,363.339 264.878,364.54 267.632,365.765 270.387,367.012 273.141,368.279 275.896,369.565 278.65,370.866 281.405,372.182 284.159,373.51 286.914,374.849 289.668,376.197 292.423,377.552 295.177,378.915 297.932,380.282 300.686,381.654 303.44,383.03 306.195,384.408 308.949,385.788 311.704,387.17 314.458,388.552 317.213,389.935 319.967,391.316 322.722,392.696 325.476,394.075 328.231,395.452 330.985,396.826 333.739,398.197 336.494,399.565 339.248,400.93 342.003,402.291 344.757,403.647 347.512,404.999 350.266,406.346 353.021,407.688 355.775,409.026 358.53,410.357 361.284,411.684 364.038,413.005 366.793,414.32 369.547,415.629 372.302,416.932 375.056,418.23 377.811,419.521 380.565,420.806 383.32,422.086 386.074,423.359 388.829,424.625 391.583,425.886 394.337,427.14 397.092,428.388 399.846,429.63 402.601,430.865 405.355,432.095 408.11,433.318 410.864,434.535 413.619,435.745 416.373,436.95 419.128,438.148 421.882,439.34 424.636,440.526 427.391,441.706 430.145,442.879 432.9,444.047 435.654,445.209 438.409,446.364 441.163,447.514 443.918,448.657 446.672,449.795 449.427,450.927 452.181,452.053 454.936,453.173 457.69,454.288 460.444,455.396 463.199,456.5 465.953,457.597 468.708,458.689 471.462,459.776 474.217,460.857 476.971,461.933 479.726,463.003 482.48,464.068 485.235,465.128 487.989,466.182 490.743,467.232 493.498,468.276 496.252,469.314 499.007,470.348 501.761,471.377 504.516,472.4 507.27,473.419 510.025,474.433 512.779,475.442 515.534,476.446 518.288,477.445 521.042,478.439 523.797,479.428 526.551,480.413 529.306,481.393 532.06,482.368 534.815,483.339 537.569,484.305 540.324,485.267 543.078,486.224 545.833,487.176 548.587,488.124 551.341,489.068 554.096,490.007 556.85,490.942 559.605,491.872 562.359,492.799 565.114,493.721 567.868,494.638 570.623,495.552 573.377,496.461 576.132,497.366 578.886,498.267 581.641,499.164 584.395,500.057 587.149,500.946 589.904,501.83 592.658,502.711 595.413,503.588 598.167,504.461 600.922,505.33 603.676,506.195 606.431,507.057 609.185,507.914 611.94,508.768 614.694,509.618 617.448,510.464 620.203,511.307 622.957,512.145 625.712,512.981 628.466,513.812 631.221,514.64 633.975,515.464 636.73,516.285 639.484,517.103 642.239,517.916 644.993,518.727 647.747,519.533 650.502,520.337 653.256,521.137 656.011,521.934 658.765,522.727 661.52,523.517 664.274,524.303 667.029,525.087 669.783,525.867 672.538,526.644 675.292,527.417 678.046,528.188 680.801,528.955 683.555,529.719 686.31,530.48 689.064,531.238 691.819,531.993 694.573,532.745 697.328,533.494 700.082,534.239 702.837,534.982 705.591,535.722 708.345,536.459 711.1,537.193 713.854,537.924 716.609,538.652 719.363,539.377 722.118,540.1 724.872,540.819 727.627,541.536 730.381,542.25 733.136,542.962 735.89,543.67 738.645,544.376 741.399,545.079 744.153,545.78 746.908,546.478 749.662,547.173 752.417,547.866 755.171,548.556 757.926,549.243 760.68,549.928 763.435,550.61 766.189,551.29 768.944,551.968 771.698,552.643 774.452,553.315 777.207,553.985 779.961,554.653 782.716,555.318 785.47,555.981 788.225,556.641 790.979,557.299 793.734,557.955 796.488,558.609 799.243,559.26 801.997,559.909 804.751,560.555 807.506,561.2 810.26,561.842 813.015,562.482 815.769,563.119 818.524,563.755 821.278,564.388 824.033,565.02 826.787,565.649 829.542,566.276 832.296,566.901 835.05,567.524 837.805,568.144 840.559,568.763 843.314,569.38 846.068,569.994 848.823,570.607 851.577,571.218 854.332,571.827 857.086,572.433 859.841,573.038 862.595,573.641 865.349,574.242 868.104,574.841 870.858,575.438 873.613,576.034 876.367,576.627 879.122,577.219 881.876,577.809 884.631,578.397 887.385,578.983 890.14,579.567 892.894,580.15 895.649,580.731 898.403,581.31 901.157,581.887 903.912,582.463 906.666,583.037 909.421,583.609 912.175,584.18 914.93,584.749 917.684,585.316 920.439,585.882 923.193,586.446 925.948,587.008 928.702,587.569 931.456,588.128 934.211,588.686 936.965,589.242 939.72,589.797 942.474,590.35 945.229,590.901 947.983,591.451 950.738,592 953.492,592.546 956.247,593.092 959.001,593.636 961.755,594.178 964.51,594.72 967.264,595.259 970.019,595.797 972.773,596.334 975.528,596.87 978.282,597.404 981.037,597.936 983.791,598.467 986.546,598.997 989.3,599.526 992.054,600.053 994.809,600.579 997.563,601.103 1000.32,601.627 1003.07,602.149 1005.83,602.669 1008.58,603.189 1011.34,603.707 1014.09,604.223 1016.84,604.739 1019.6,605.253 1022.35,605.766 1025.11,606.278 1027.86,606.788 1030.62,607.298 1033.37,607.806 1036.13,608.313 1038.88,608.819 1041.63,609.323 1044.39,609.826 1047.14,610.329 1049.9,610.83 1052.65,611.33 1055.41,611.829 1058.16,612.326 1060.92,612.823 1063.67,613.318 1066.42,613.813 1069.18,614.306 1071.93,614.798 1074.69,615.29 1077.44,615.78 1080.2,616.269 1082.95,616.757 1085.71,617.243 1088.46,617.729 1091.21,618.214 1093.97,618.698 1096.72,619.181 1099.48,619.662 1102.23,620.143 1104.99,620.623 1107.74,621.102 1110.5,621.58 1113.25,622.056 1116.01,622.532 1118.76,623.007 1121.51,623.481 1124.27,623.954 1127.02,624.426 1129.78,624.897 1132.53,625.367 1135.29,625.837 1138.04,626.305 1140.8,626.773 1143.55,627.239 1146.3,627.705 1149.06,628.169 1151.81,628.633 1154.57,629.096 1157.32,629.558 1160.08,630.02 1162.83,630.48 1165.59,630.94 1168.34,631.398 1171.09,631.856 1173.85,632.313 1176.6,632.769 1179.36,633.225 1182.11,633.679 1184.87,634.133 1187.62,634.586 1190.38,635.038 1193.13,635.49 1195.88,635.94 1198.64,636.39 1201.39,636.839 1204.15,637.287 1206.9,637.735 1209.66,638.182 1212.41,638.628 1215.17,639.073 1217.92,639.517 1220.67,639.961 1223.43,640.404 1226.18,640.846 1228.94,641.288 1231.69,641.729 1234.45,642.169 1237.2,642.608 1239.96,643.047 1242.71,643.485 1245.46,643.922 1248.22,644.359 1250.97,644.795 1253.73,645.23 1256.48,645.665 1259.24,646.099 1261.99,646.532 1264.75,646.965 1267.5,647.397 1270.25,647.828 1273.01,648.259 1275.76,648.689 1278.52,649.118 1281.27,649.547 1284.03,649.975 1286.78,650.403 1289.54,650.829 1292.29,651.256 1295.04,651.681 1297.8,652.107 1300.55,652.531 1303.31,652.955 1306.06,653.378 1308.82,653.801 1311.57,654.223 1314.33,654.644 1317.08,655.065 1319.83,655.485 1322.59,655.905 1325.34,656.324 1328.1,656.743 1330.85,657.161 1333.61,657.578 1336.36,657.995 1339.12,658.412 1341.87,658.828 1344.62,659.243 1347.38,659.657 1350.13,660.072 1352.89,660.485 1355.64,660.898 1358.4,661.311 1361.15,661.723 1363.91,662.135 1366.66,662.546 1369.41,662.956 1372.17,663.366 1374.92,663.776 1377.68,664.185 1380.43,664.593 1383.19,665.001 1385.94,665.409 1388.7,665.816 1391.45,666.222 1394.21,666.628 1396.96,667.034 1399.71,667.439 1402.47,667.844 1405.22,668.248 1407.98,668.652 1410.73,669.055 1413.49,669.458 1416.24,669.86 1419,670.262 1421.75,670.663 1424.5,671.064 1427.26,671.465 1430.01,671.865 1432.77,672.264 1435.52,672.663 1438.28,673.062 1441.03,673.46 1443.79,673.858 1446.54,674.256 1449.29,674.653 1452.05,675.049 1454.8,675.445 1457.56,675.841 1460.31,676.236 1463.07,676.631 1465.82,677.026 1468.58,677.42 1471.33,677.814 1474.08,678.207 1476.84,678.6 1479.59,678.992 1482.35,679.384 1485.1,679.776 1487.86,680.167 1490.61,680.558 1493.37,680.949 1496.12,681.339 1498.87,681.728 1501.63,682.118 1504.38,682.507 1507.14,682.895 1509.89,683.284 1512.65,683.671 1515.4,684.059 1518.16,684.446 1520.91,684.833 1523.66,685.219 1526.42,685.605 1529.17,685.991 1531.93,686.376 1534.68,686.761 1537.44,687.146 1540.19,687.53 1542.95,687.914 1545.7,688.298 1548.45,688.681 1551.21,689.064 1553.96,689.447 1556.72,689.829 1559.47,690.211 1562.23,690.592 1564.98,690.974 1567.74,691.355 1570.49,691.735 1573.24,692.115 1576,692.495 1578.75,692.875 1581.51,693.254 1584.26,693.633 1587.02,694.012 1589.77,694.391 1592.53,694.769 1595.28,695.146 1598.03,695.524 1600.79,695.901 1603.54,696.278 1606.3,696.655 1609.05,697.031 1611.81,697.407 1614.56,697.783 1617.32,698.158 1620.07,698.533 1622.82,698.908 1625.58,699.282 1628.33,699.657 1631.09,700.031 1633.84,700.404 1636.6,700.778 1639.35,701.151 1642.11,701.524 1644.86,701.896 1647.62,702.269 1650.37,702.641 1653.12,703.013 1655.88,703.384 1658.63,703.755 1661.39,704.126 1664.14,704.497 1666.9,704.867 1669.65,705.238 1672.41,705.608 1675.16,705.977 1677.91,706.347 1680.67,706.716 1683.42,707.085 1686.18,707.453 1688.93,707.822 1691.69,708.19 1694.44,708.558 1697.2,708.926 1699.95,709.293 1702.7,709.66 1705.46,710.027 1708.21,710.394 1710.97,710.76 1713.72,711.127 1716.48,711.493 1719.23,711.858 1721.99,712.224 1724.74,712.589 1727.49,712.954 1730.25,713.319 1733,713.684 1735.76,714.048 1738.51,714.412 1741.27,714.776 1744.02,715.14 1746.78,715.503 1749.53,715.867 1752.28,716.23 1755.04,716.593 1757.79,716.955 1760.55,717.318 1763.3,717.68 1766.06,718.042 1768.81,718.404 1771.57,718.765 1774.32,719.127 1777.07,719.488 1779.83,719.849 1782.58,720.209 1785.34,720.57 1788.09,720.93 1790.85,721.29 1793.6,721.65 1796.36,722.01 1799.11,722.369 1801.86,722.729 1804.62,723.088 1807.37,723.447 1810.13,723.806 1812.88,724.164 1815.64,724.522 1818.39,724.881 1821.15,725.239 1823.9,725.596 1826.65,725.954 1829.41,726.311 1832.16,726.669 1834.92,727.026 1837.67,727.382 1840.43,727.739 1843.18,728.096 1845.94,728.452 1848.69,728.808 1851.44,729.164 1854.2,729.52 1856.95,729.875 1859.71,730.231 1862.46,730.586 1865.22,730.941 1867.97,731.296 1870.73,731.651 1873.48,732.005 1876.23,732.36 1878.99,732.714 1881.74,733.068 1884.5,733.422 1887.25,733.776 1890.01,734.129 1892.76,734.483 1895.52,734.836 1898.27,735.189 1901.03,735.542 1903.78,735.895 1906.53,736.247 1909.29,736.6 1912.04,736.952 1914.8,737.304 1917.55,737.656 1920.31,738.008 1923.06,738.359 1925.82,738.711 1928.57,739.062 1931.32,739.413 1934.08,739.764 1936.83,740.115 1939.59,740.466 1942.34,740.817 1945.1,741.167 1947.85,741.517 1950.61,741.867 1953.36,742.217 1956.11,742.567 1958.87,742.917 1961.62,743.267 1964.38,743.616 1967.13,743.965 1969.89,744.314 1972.64,744.663 1975.4,745.012 1978.15,745.361 1980.9,745.71 1983.66,746.058 1986.41,746.406 1989.17,746.755 1991.92,747.103 1994.68,747.45 1997.43,747.798 2000.19,748.146 2002.94,748.493 2005.69,748.841 2008.45,749.188 2011.2,749.535 2013.96,749.882 2016.71,750.229 2019.47,750.576 2022.22,750.922 2024.98,751.269 2027.73,751.615 2030.48,751.961 2033.24,752.307 2035.99,752.653 2038.75,752.999 2041.5,753.345 2044.26,753.691 2047.01,754.036 2049.77,754.382 2052.52,754.727 2055.27,755.072 2058.03,755.417 2060.78,755.762 2063.54,756.107 2066.29,756.451 2069.05,756.796 2071.8,757.14 2074.56,757.485 2077.31,757.829 2080.06,758.173 2082.82,758.517 2085.57,758.861 2088.33,759.205 2091.08,759.548 2093.84,759.892 2096.59,760.235 2099.35,760.579 2102.1,760.922 2104.85,761.265 2107.61,761.608 2110.36,761.951 2113.12,762.294 2115.87,762.636 2118.63,762.979 2121.38,763.322 2124.14,763.664 2126.89,764.006 2129.64,764.348 2132.4,764.691 2135.15,765.033 2137.91,765.374 2140.66,765.716 2143.42,766.058 2146.17,766.399 2148.93,766.741 2151.68,767.082 2154.44,767.424 2157.19,767.765 2159.94,768.106 2162.7,768.447 2165.45,768.788 2168.21,769.129 2170.96,769.469 2173.72,769.81 2176.47,770.151 2179.23,770.491 2181.98,770.831 2184.73,771.172 2187.49,771.512 2190.24,771.852 2193,772.192 2195.75,772.532 2198.51,772.871 2201.26,773.211 2204.02,773.551 2206.77,773.89 2209.52,774.23 2212.28,774.569 2215.03,774.908 2217.79,775.248 2220.54,775.587 2223.3,775.926 2226.05,776.265 2228.81,776.604 2231.56,776.942 2234.31,777.281 2237.07,777.62 2239.82,777.958 2242.58,778.297 2245.33,778.635 2248.09,778.973 2250.84,779.311 2253.6,779.649 2256.35,779.988 2259.1,780.325 2261.86,780.663 2264.61,781.001 2267.37,781.339 2270.12,781.676 2272.88,782.014 2275.63,782.351 2278.39,782.689 2281.14,783.026 2283.89,783.363 2286.65,783.7 2289.4,784.038 2292.16,784.375 2294.91,784.712 2297.67,785.048 2300.42,785.385 2303.18,785.722 2305.93,786.059 2308.68,786.395 2311.44,786.732 2314.19,787.068 2316.95,787.404 2319.7,787.741 2322.46,788.077 2325.21,788.413 2327.97,788.749 2330.72,789.085 2333.47,789.421 2336.23,789.757 2338.98,790.092 2341.74,790.428 2344.49,790.764 2347.25,791.099 2350,791.435 2352.76,791.77 "/>
<polyline clip-path="url(#clip102)" style="stroke:#3da44d; stroke-linecap:round; stroke-linejoin:round; stroke-width:12; stroke-opacity:1; fill:none" points="149.191,272.259 151.945,289.495 154.7,308.707 157.454,329.898 160.209,353.013 162.963,377.929 165.718,404.452 168.472,432.314 171.227,461.18 173.981,490.662 176.735,520.328 179.49,549.733 182.244,578.444 184.999,606.064 187.753,632.256 190.508,656.761 193.262,679.405 196.017,700.095 198.771,718.815 201.526,735.612 204.28,750.576 207.034,763.831 209.789,775.518 212.543,785.788 215.298,794.788 218.052,802.661 220.807,809.542 223.561,815.55 226.316,820.797 229.07,825.38 231.825,829.385 234.579,832.887 237.333,835.953 240.088,838.64 242.842,840.997 245.597,843.066 248.351,844.886 251.106,846.488 253.86,847.898 256.615,849.143 259.369,850.24 262.124,851.209 264.878,852.064 267.632,852.819 270.387,853.484 273.141,854.07 275.896,854.586 278.65,855.038 281.405,855.433 284.159,855.777 286.914,856.075 289.668,856.33 292.423,856.548 295.177,856.73 297.932,856.881 300.686,857.003 303.44,857.098 306.195,857.168 308.949,857.216 311.704,857.243 314.458,857.251 317.213,857.24 319.967,857.214 322.722,857.172 325.476,857.116 328.231,857.046 330.985,856.965 333.739,856.873 336.494,856.77 339.248,856.657 342.003,856.536 344.757,856.407 347.512,856.27 350.266,856.127 353.021,855.977 355.775,855.821 358.53,855.66 361.284,855.494 364.038,855.324 366.793,855.15 369.547,854.972 372.302,854.791 375.056,854.607 377.811,854.42 380.565,854.231 383.32,854.04 386.074,853.848 388.829,853.653 391.583,853.458 394.337,853.261 397.092,853.063 399.846,852.864 402.601,852.665 405.355,852.465 408.11,852.265 410.864,852.065 413.619,851.864 416.373,851.664 419.128,851.464 421.882,851.263 424.636,851.063 427.391,850.863 430.145,850.664 432.9,850.465 435.654,850.266 438.409,850.068 441.163,849.871 443.918,849.674 446.672,849.478 449.427,849.282 452.181,849.087 454.936,848.893 457.69,848.699 460.444,848.507 463.199,848.315 465.953,848.123 468.708,847.933 471.462,847.743 474.217,847.554 476.971,847.366 479.726,847.179 482.48,846.992 485.235,846.806 487.989,846.621 490.743,846.437 493.498,846.254 496.252,846.071 499.007,845.89 501.761,845.709 504.516,845.528 507.27,845.349 510.025,845.17 512.779,844.992 515.534,844.815 518.288,844.639 521.042,844.463 523.797,844.288 526.551,844.114 529.306,843.941 532.06,843.768 534.815,843.596 537.569,843.425 540.324,843.254 543.078,843.085 545.833,842.915 548.587,842.747 551.341,842.579 554.096,842.412 556.85,842.246 559.605,842.08 562.359,841.915 565.114,841.751 567.868,841.588 570.623,841.425 573.377,841.262 576.132,841.101 578.886,840.94 581.641,840.78 584.395,840.62 587.149,840.461 589.904,840.303 592.658,840.145 595.413,839.988 598.167,839.831 600.922,839.676 603.676,839.521 606.431,839.366 609.185,839.212 611.94,839.059 614.694,838.907 617.448,838.755 620.203,838.604 622.957,838.453 625.712,838.303 628.466,838.154 631.221,838.005 633.975,837.857 636.73,837.709 639.484,837.562 642.239,837.416 644.993,837.271 647.747,837.126 650.502,836.981 653.256,836.838 656.011,836.694 658.765,836.552 661.52,836.41 664.274,836.269 667.029,836.128 669.783,835.988 672.538,835.849 675.292,835.71 678.046,835.572 680.801,835.435 683.555,835.298 686.31,835.162 689.064,835.026 691.819,834.891 694.573,834.757 697.328,834.623 700.082,834.49 702.837,834.358 705.591,834.226 708.345,834.095 711.1,833.964 713.854,833.834 716.609,833.705 719.363,833.576 722.118,833.448 724.872,833.32 727.627,833.194 730.381,833.067 733.136,832.942 735.89,832.817 738.645,832.692 741.399,832.568 744.153,832.445 746.908,832.323 749.662,832.201 752.417,832.079 755.171,831.958 757.926,831.838 760.68,831.719 763.435,831.6 766.189,831.482 768.944,831.364 771.698,831.247 774.452,831.13 777.207,831.014 779.961,830.899 782.716,830.784 785.47,830.67 788.225,830.556 790.979,830.444 793.734,830.331 796.488,830.219 799.243,830.108 801.997,829.998 804.751,829.888 807.506,829.778 810.26,829.669 813.015,829.561 815.769,829.453 818.524,829.346 821.278,829.24 824.033,829.134 826.787,829.028 829.542,828.924 832.296,828.819 835.05,828.716 837.805,828.613 840.559,828.51 843.314,828.408 846.068,828.307 848.823,828.206 851.577,828.105 854.332,828.005 857.086,827.906 859.841,827.808 862.595,827.709 865.349,827.612 868.104,827.515 870.858,827.418 873.613,827.322 876.367,827.227 879.122,827.132 881.876,827.037 884.631,826.944 887.385,826.85 890.14,826.757 892.894,826.665 895.649,826.573 898.403,826.482 901.157,826.391 903.912,826.301 906.666,826.212 909.421,826.122 912.175,826.034 914.93,825.945 917.684,825.858 920.439,825.771 923.193,825.684 925.948,825.598 928.702,825.512 931.456,825.427 934.211,825.342 936.965,825.258 939.72,825.174 942.474,825.091 945.229,825.008 947.983,824.925 950.738,824.844 953.492,824.762 956.247,824.681 959.001,824.601 961.755,824.521 964.51,824.441 967.264,824.362 970.019,824.284 972.773,824.205 975.528,824.128 978.282,824.05 981.037,823.974 983.791,823.897 986.546,823.821 989.3,823.746 992.054,823.671 994.809,823.596 997.563,823.522 1000.32,823.448 1003.07,823.375 1005.83,823.302 1008.58,823.229 1011.34,823.157 1014.09,823.086 1016.84,823.015 1019.6,822.944 1022.35,822.873 1025.11,822.803 1027.86,822.734 1030.62,822.665 1033.37,822.596 1036.13,822.527 1038.88,822.459 1041.63,822.392 1044.39,822.325 1047.14,822.258 1049.9,822.192 1052.65,822.126 1055.41,822.06 1058.16,821.995 1060.92,821.93 1063.67,821.865 1066.42,821.801 1069.18,821.737 1071.93,821.674 1074.69,821.611 1077.44,821.549 1080.2,821.486 1082.95,821.424 1085.71,821.363 1088.46,821.302 1091.21,821.241 1093.97,821.18 1096.72,821.12 1099.48,821.061 1102.23,821.001 1104.99,820.942 1107.74,820.883 1110.5,820.825 1113.25,820.767 1116.01,820.709 1118.76,820.652 1121.51,820.595 1124.27,820.538 1127.02,820.482 1129.78,820.426 1132.53,820.37 1135.29,820.315 1138.04,820.26 1140.8,820.205 1143.55,820.151 1146.3,820.097 1149.06,820.043 1151.81,819.989 1154.57,819.936 1157.32,819.883 1160.08,819.831 1162.83,819.779 1165.59,819.727 1168.34,819.675 1171.09,819.624 1173.85,819.573 1176.6,819.522 1179.36,819.472 1182.11,819.421 1184.87,819.372 1187.62,819.322 1190.38,819.273 1193.13,819.224 1195.88,819.175 1198.64,819.127 1201.39,819.079 1204.15,819.031 1206.9,818.983 1209.66,818.936 1212.41,818.889 1215.17,818.842 1217.92,818.796 1220.67,818.749 1223.43,818.704 1226.18,818.658 1228.94,818.612 1231.69,818.567 1234.45,818.522 1237.2,818.478 1239.96,818.433 1242.71,818.389 1245.46,818.345 1248.22,818.302 1250.97,818.259 1253.73,818.215 1256.48,818.173 1259.24,818.13 1261.99,818.088 1264.75,818.046 1267.5,818.004 1270.25,817.962 1273.01,817.921 1275.76,817.88 1278.52,817.839 1281.27,817.798 1284.03,817.758 1286.78,817.717 1289.54,817.677 1292.29,817.638 1295.04,817.598 1297.8,817.559 1300.55,817.52 1303.31,817.481 1306.06,817.442 1308.82,817.404 1311.57,817.366 1314.33,817.328 1317.08,817.29 1319.83,817.253 1322.59,817.215 1325.34,817.178 1328.1,817.141 1330.85,817.105 1333.61,817.068 1336.36,817.032 1339.12,816.996 1341.87,816.96 1344.62,816.924 1347.38,816.889 1350.13,816.854 1352.89,816.819 1355.64,816.784 1358.4,816.749 1361.15,816.715 1363.91,816.681 1366.66,816.647 1369.41,816.613 1372.17,816.579 1374.92,816.546 1377.68,816.512 1380.43,816.479 1383.19,816.446 1385.94,816.414 1388.7,816.381 1391.45,816.349 1394.21,816.317 1396.96,816.285 1399.71,816.253 1402.47,816.221 1405.22,816.19 1407.98,816.159 1410.73,816.128 1413.49,816.097 1416.24,816.066 1419,816.035 1421.75,816.005 1424.5,815.975 1427.26,815.945 1430.01,815.915 1432.77,815.885 1435.52,815.856 1438.28,815.826 1441.03,815.797 1443.79,815.768 1446.54,815.739 1449.29,815.711 1452.05,815.682 1454.8,815.654 1457.56,815.625 1460.31,815.597 1463.07,815.569 1465.82,815.542 1468.58,815.514 1471.33,815.487 1474.08,815.459 1476.84,815.432 1479.59,815.405 1482.35,815.378 1485.1,815.352 1487.86,815.325 1490.61,815.299 1493.37,815.272 1496.12,815.246 1498.87,815.22 1501.63,815.195 1504.38,815.169 1507.14,815.143 1509.89,815.118 1512.65,815.093 1515.4,815.068 1518.16,815.043 1520.91,815.018 1523.66,814.993 1526.42,814.969 1529.17,814.944 1531.93,814.92 1534.68,814.896 1537.44,814.872 1540.19,814.848 1542.95,814.824 1545.7,814.801 1548.45,814.777 1551.21,814.754 1553.96,814.731 1556.72,814.708 1559.47,814.685 1562.23,814.662 1564.98,814.639 1567.74,814.617 1570.49,814.594 1573.24,814.572 1576,814.55 1578.75,814.528 1581.51,814.506 1584.26,814.484 1587.02,814.462 1589.77,814.44 1592.53,814.419 1595.28,814.398 1598.03,814.376 1600.79,814.355 1603.54,814.334 1606.3,814.313 1609.05,814.293 1611.81,814.272 1614.56,814.251 1617.32,814.231 1620.07,814.211 1622.82,814.19 1625.58,814.17 1628.33,814.15 1631.09,814.13 1633.84,814.111 1636.6,814.091 1639.35,814.071 1642.11,814.052 1644.86,814.033 1647.62,814.013 1650.37,813.994 1653.12,813.975 1655.88,813.956 1658.63,813.937 1661.39,813.919 1664.14,813.9 1666.9,813.881 1669.65,813.863 1672.41,813.845 1675.16,813.826 1677.91,813.808 1680.67,813.79 1683.42,813.772 1686.18,813.755 1688.93,813.737 1691.69,813.719 1694.44,813.702 1697.2,813.684 1699.95,813.667 1702.7,813.65 1705.46,813.632 1708.21,813.615 1710.97,813.598 1713.72,813.581 1716.48,813.565 1719.23,813.548 1721.99,813.531 1724.74,813.515 1727.49,813.498 1730.25,813.482 1733,813.466 1735.76,813.45 1738.51,813.433 1741.27,813.417 1744.02,813.402 1746.78,813.386 1749.53,813.37 1752.28,813.354 1755.04,813.339 1757.79,813.323 1760.55,813.308 1763.3,813.292 1766.06,813.277 1768.81,813.262 1771.57,813.247 1774.32,813.232 1777.07,813.217 1779.83,813.202 1782.58,813.187 1785.34,813.173 1788.09,813.158 1790.85,813.144 1793.6,813.129 1796.36,813.115 1799.11,813.101 1801.86,813.086 1804.62,813.072 1807.37,813.058 1810.13,813.044 1812.88,813.03 1815.64,813.016 1818.39,813.003 1821.15,812.989 1823.9,812.975 1826.65,812.962 1829.41,812.948 1832.16,812.935 1834.92,812.921 1837.67,812.908 1840.43,812.895 1843.18,812.882 1845.94,812.869 1848.69,812.856 1851.44,812.843 1854.2,812.83 1856.95,812.817 1859.71,812.805 1862.46,812.792 1865.22,812.779 1867.97,812.767 1870.73,812.754 1873.48,812.742 1876.23,812.73 1878.99,812.717 1881.74,812.705 1884.5,812.693 1887.25,812.681 1890.01,812.669 1892.76,812.657 1895.52,812.645 1898.27,812.633 1901.03,812.622 1903.78,812.61 1906.53,812.598 1909.29,812.587 1912.04,812.575 1914.8,812.564 1917.55,812.552 1920.31,812.541 1923.06,812.53 1925.82,812.519 1928.57,812.508 1931.32,812.496 1934.08,812.485 1936.83,812.474 1939.59,812.464 1942.34,812.453 1945.1,812.442 1947.85,812.431 1950.61,812.42 1953.36,812.41 1956.11,812.399 1958.87,812.389 1961.62,812.378 1964.38,812.368 1967.13,812.357 1969.89,812.347 1972.64,812.337 1975.4,812.327 1978.15,812.317 1980.9,812.306 1983.66,812.296 1986.41,812.286 1989.17,812.277 1991.92,812.267 1994.68,812.257 1997.43,812.247 2000.19,812.237 2002.94,812.228 2005.69,812.218 2008.45,812.208 2011.2,812.199 2013.96,812.189 2016.71,812.18 2019.47,812.171 2022.22,812.161 2024.98,812.152 2027.73,812.143 2030.48,812.134 2033.24,812.124 2035.99,812.115 2038.75,812.106 2041.5,812.097 2044.26,812.088 2047.01,812.079 2049.77,812.07 2052.52,812.062 2055.27,812.053 2058.03,812.044 2060.78,812.036 2063.54,812.027 2066.29,812.018 2069.05,812.01 2071.8,812.001 2074.56,811.993 2077.31,811.984 2080.06,811.976 2082.82,811.968 2085.57,811.959 2088.33,811.951 2091.08,811.943 2093.84,811.935 2096.59,811.927 2099.35,811.919 2102.1,811.91 2104.85,811.902 2107.61,811.895 2110.36,811.887 2113.12,811.879 2115.87,811.871 2118.63,811.863 2121.38,811.855 2124.14,811.848 2126.89,811.84 2129.64,811.832 2132.4,811.825 2135.15,811.817 2137.91,811.81 2140.66,811.802 2143.42,811.795 2146.17,811.787 2148.93,811.78 2151.68,811.773 2154.44,811.765 2157.19,811.758 2159.94,811.751 2162.7,811.744 2165.45,811.736 2168.21,811.729 2170.96,811.722 2173.72,811.715 2176.47,811.708 2179.23,811.701 2181.98,811.694 2184.73,811.687 2187.49,811.681 2190.24,811.674 2193,811.667 2195.75,811.66 2198.51,811.653 2201.26,811.647 2204.02,811.64 2206.77,811.634 2209.52,811.627 2212.28,811.62 2215.03,811.614 2217.79,811.607 2220.54,811.601 2223.3,811.594 2226.05,811.588 2228.81,811.582 2231.56,811.575 2234.31,811.569 2237.07,811.563 2239.82,811.557 2242.58,811.55 2245.33,811.544 2248.09,811.538 2250.84,811.532 2253.6,811.526 2256.35,811.52 2259.1,811.514 2261.86,811.508 2264.61,811.502 2267.37,811.496 2270.12,811.49 2272.88,811.484 2275.63,811.478 2278.39,811.472 2281.14,811.467 2283.89,811.461 2286.65,811.455 2289.4,811.45 2292.16,811.444 2294.91,811.438 2297.67,811.433 2300.42,811.427 2303.18,811.421 2305.93,811.416 2308.68,811.41 2311.44,811.405 2314.19,811.4 2316.95,811.394 2319.7,811.389 2322.46,811.383 2325.21,811.378 2327.97,811.373 2330.72,811.367 2333.47,811.362 2336.23,811.357 2338.98,811.352 2341.74,811.347 2344.49,811.341 2347.25,811.336 2350,811.331 2352.76,811.326 "/>
<path clip-path="url(#clip100)" d="M1969.85 1377.32 L2279.3 1377.32 L2279.3 1169.96 L1969.85 1169.96  Z" fill="#ffffff" fill-rule="evenodd" fill-opacity="1"/>
<polyline clip-path="url(#clip100)" style="stroke:#000000; stroke-linecap:round; stroke-linejoin:round; stroke-width:4; stroke-opacity:1; fill:none" points="1969.85,1377.32 2279.3,1377.32 2279.3,1169.96 1969.85,1169.96 1969.85,1377.32 "/>
<polyline clip-path="url(#clip100)" style="stroke:#009af9; stroke-linecap:round; stroke-linejoin:round; stroke-width:12; stroke-opacity:1; fill:none" points="1994.33,1221.8 2141.24,1221.8 "/>
<path clip-path="url(#clip100)" d="M2165.72 1228.84 L2165.72 1213.15 L2169.98 1213.15 L2169.98 1228.68 Q2169.98 1232.36 2171.42 1234.21 Q2172.85 1236.04 2175.72 1236.04 Q2179.17 1236.04 2181.16 1233.84 Q2183.18 1231.64 2183.18 1227.85 L2183.18 1213.15 L2187.44 1213.15 L2187.44 1239.08 L2183.18 1239.08 L2183.18 1235.09 Q2181.63 1237.45 2179.57 1238.61 Q2177.53 1239.75 2174.82 1239.75 Q2170.35 1239.75 2168.04 1236.97 Q2165.72 1234.19 2165.72 1228.84 M2176.44 1212.52 L2176.44 1212.52 Z" fill="#000000" fill-rule="nonzero" fill-opacity="1" /><path clip-path="url(#clip100)" d="M2195.82 1203.06 L2205.63 1203.06 L2205.63 1206.37 L2200.07 1206.37 L2200.07 1242.02 L2205.63 1242.02 L2205.63 1245.33 L2195.82 1245.33 L2195.82 1203.06 Z" fill="#000000" fill-rule="nonzero" fill-opacity="1" /><path clip-path="url(#clip100)" d="M2216.12 1235.14 L2223.76 1235.14 L2223.76 1208.77 L2215.44 1210.44 L2215.44 1206.18 L2223.71 1204.52 L2228.38 1204.52 L2228.38 1235.14 L2236.02 1235.14 L2236.02 1239.08 L2216.12 1239.08 L2216.12 1235.14 Z" fill="#000000" fill-rule="nonzero" fill-opacity="1" /><path clip-path="url(#clip100)" d="M2254.82 1203.06 L2254.82 1245.33 L2245 1245.33 L2245 1242.02 L2250.54 1242.02 L2250.54 1206.37 L2245 1206.37 L2245 1203.06 L2254.82 1203.06 Z" fill="#000000" fill-rule="nonzero" fill-opacity="1" /><polyline clip-path="url(#clip100)" style="stroke:#e26f46; stroke-linecap:round; stroke-linejoin:round; stroke-width:12; stroke-opacity:1; fill:none" points="1994.33,1273.64 2141.24,1273.64 "/>
<path clip-path="url(#clip100)" d="M2165.72 1280.68 L2165.72 1264.99 L2169.98 1264.99 L2169.98 1280.52 Q2169.98 1284.2 2171.42 1286.05 Q2172.85 1287.88 2175.72 1287.88 Q2179.17 1287.88 2181.16 1285.68 Q2183.18 1283.48 2183.18 1279.69 L2183.18 1264.99 L2187.44 1264.99 L2187.44 1290.92 L2183.18 1290.92 L2183.18 1286.93 Q2181.63 1289.29 2179.57 1290.45 Q2177.53 1291.59 2174.82 1291.59 Q2170.35 1291.59 2168.04 1288.81 Q2165.72 1286.03 2165.72 1280.68 M2176.44 1264.36 L2176.44 1264.36 Z" fill="#000000" fill-rule="nonzero" fill-opacity="1" /><path clip-path="url(#clip100)" d="M2195.82 1254.9 L2205.63 1254.9 L2205.63 1258.21 L2200.07 1258.21 L2200.07 1293.86 L2205.63 1293.86 L2205.63 1297.17 L2195.82 1297.17 L2195.82 1254.9 Z" fill="#000000" fill-rule="nonzero" fill-opacity="1" /><path clip-path="url(#clip100)" d="M2219.33 1286.98 L2235.65 1286.98 L2235.65 1290.92 L2213.71 1290.92 L2213.71 1286.98 Q2216.37 1284.23 2220.95 1279.6 Q2225.56 1274.94 2226.74 1273.6 Q2228.99 1271.08 2229.87 1269.34 Q2230.77 1267.58 2230.77 1265.89 Q2230.77 1263.14 2228.82 1261.4 Q2226.9 1259.67 2223.8 1259.67 Q2221.6 1259.67 2219.15 1260.43 Q2216.72 1261.19 2213.94 1262.74 L2213.94 1258.02 Q2216.76 1256.89 2219.22 1256.31 Q2221.67 1255.73 2223.71 1255.73 Q2229.08 1255.73 2232.27 1258.42 Q2235.47 1261.1 2235.47 1265.59 Q2235.47 1267.72 2234.66 1269.64 Q2233.87 1271.54 2231.76 1274.13 Q2231.19 1274.8 2228.08 1278.02 Q2224.98 1281.22 2219.33 1286.98 Z" fill="#000000" fill-rule="nonzero" fill-opacity="1" /><path clip-path="url(#clip100)" d="M2254.82 1254.9 L2254.82 1297.17 L2245 1297.17 L2245 1293.86 L2250.54 1293.86 L2250.54 1258.21 L2245 1258.21 L2245 1254.9 L2254.82 1254.9 Z" fill="#000000" fill-rule="nonzero" fill-opacity="1" /><polyline clip-path="url(#clip100)" style="stroke:#3da44d; stroke-linecap:round; stroke-linejoin:round; stroke-width:12; stroke-opacity:1; fill:none" points="1994.33,1325.48 2141.24,1325.48 "/>
<path clip-path="url(#clip100)" d="M2165.72 1332.52 L2165.72 1316.83 L2169.98 1316.83 L2169.98 1332.36 Q2169.98 1336.04 2171.42 1337.89 Q2172.85 1339.72 2175.72 1339.72 Q2179.17 1339.72 2181.16 1337.52 Q2183.18 1335.32 2183.18 1331.53 L2183.18 1316.83 L2187.44 1316.83 L2187.44 1342.76 L2183.18 1342.76 L2183.18 1338.77 Q2181.63 1341.13 2179.57 1342.29 Q2177.53 1343.43 2174.82 1343.43 Q2170.35 1343.43 2168.04 1340.65 Q2165.72 1337.87 2165.72 1332.52 M2176.44 1316.2 L2176.44 1316.2 Z" fill="#000000" fill-rule="nonzero" fill-opacity="1" /><path clip-path="url(#clip100)" d="M2206.44 1306.78 Q2203.34 1312.11 2201.83 1317.32 Q2200.33 1322.52 2200.33 1327.87 Q2200.33 1333.22 2201.83 1338.47 Q2203.36 1343.7 2206.44 1349.01 L2202.74 1349.01 Q2199.26 1343.57 2197.53 1338.31 Q2195.82 1333.06 2195.82 1327.87 Q2195.82 1322.71 2197.53 1317.48 Q2199.24 1312.25 2202.74 1306.78 L2206.44 1306.78 Z" fill="#000000" fill-rule="nonzero" fill-opacity="1" /><path clip-path="url(#clip100)" d="M2218.92 1309.47 L2218.92 1316.83 L2227.69 1316.83 L2227.69 1320.14 L2218.92 1320.14 L2218.92 1334.21 Q2218.92 1337.38 2219.77 1338.29 Q2220.65 1339.19 2223.32 1339.19 L2227.69 1339.19 L2227.69 1342.76 L2223.32 1342.76 Q2218.38 1342.76 2216.51 1340.93 Q2214.63 1339.07 2214.63 1334.21 L2214.63 1320.14 L2211.51 1320.14 L2211.51 1316.83 L2214.63 1316.83 L2214.63 1309.47 L2218.92 1309.47 Z" fill="#000000" fill-rule="nonzero" fill-opacity="1" /><path clip-path="url(#clip100)" d="M2232.62 1306.78 L2236.32 1306.78 Q2239.8 1312.25 2241.51 1317.48 Q2243.25 1322.71 2243.25 1327.87 Q2243.25 1333.06 2241.51 1338.31 Q2239.8 1343.57 2236.32 1349.01 L2232.62 1349.01 Q2235.7 1343.7 2237.2 1338.47 Q2238.73 1333.22 2238.73 1327.87 Q2238.73 1322.52 2237.2 1317.32 Q2235.7 1312.11 2232.62 1306.78 Z" fill="#000000" fill-rule="nonzero" fill-opacity="1" /></svg>
