<?xml version="1.0" encoding="utf-8"?>
<svg xmlns="http://www.w3.org/2000/svg" xmlns:xlink="http://www.w3.org/1999/xlink" width="600" height="400" viewBox="0 0 2400 1600">
<defs>
  <clipPath id="clip410">
    <rect x="0" y="0" width="2400" height="1600"/>
  </clipPath>
</defs>
<path clip-path="url(#clip410)" d="M0 1600 L2400 1600 L2400 0 L0 0  Z" fill="#ffffff" fill-rule="evenodd" fill-opacity="1"/>
<defs>
  <clipPath id="clip411">
    <rect x="149" y="47" width="2205" height="1377"/>
  </clipPath>
</defs>
<path clip-path="url(#clip410)" d="M149.191 1423.18 L2352.76 1423.18 L2352.76 47.2441 L149.191 47.2441  Z" fill="#ffffff" fill-rule="evenodd" fill-opacity="1"/>
<polyline clip-path="url(#clip411)" style="stroke:#000000; stroke-linecap:round; stroke-linejoin:round; stroke-width:2; stroke-opacity:0.1; fill:none" points="149.191,1423.18 149.191,47.2441 "/>
<polyline clip-path="url(#clip411)" style="stroke:#000000; stroke-linecap:round; stroke-linejoin:round; stroke-width:2; stroke-opacity:0.1; fill:none" points="700.082,1423.18 700.082,47.2441 "/>
<polyline clip-path="url(#clip411)" style="stroke:#000000; stroke-linecap:round; stroke-linejoin:round; stroke-width:2; stroke-opacity:0.1; fill:none" points="1250.97,1423.18 1250.97,47.2441 "/>
<polyline clip-path="url(#clip411)" style="stroke:#000000; stroke-linecap:round; stroke-linejoin:round; stroke-width:2; stroke-opacity:0.1; fill:none" points="1801.86,1423.18 1801.86,47.2441 "/>
<polyline clip-path="url(#clip411)" style="stroke:#000000; stroke-linecap:round; stroke-linejoin:round; stroke-width:2; stroke-opacity:0.1; fill:none" points="2352.76,1423.18 2352.76,47.2441 "/>
<polyline clip-path="url(#clip411)" style="stroke:#000000; stroke-linecap:round; stroke-linejoin:round; stroke-width:2; stroke-opacity:0.1; fill:none" points="149.191,1423.18 2352.76,1423.18 "/>
<polyline clip-path="url(#clip411)" style="stroke:#000000; stroke-linecap:round; stroke-linejoin:round; stroke-width:2; stroke-opacity:0.1; fill:none" points="149.191,1193.86 2352.76,1193.86 "/>
<polyline clip-path="url(#clip411)" style="stroke:#000000; stroke-linecap:round; stroke-linejoin:round; stroke-width:2; stroke-opacity:0.1; fill:none" points="149.191,964.535 2352.76,964.535 "/>
<polyline clip-path="url(#clip411)" style="stroke:#000000; stroke-linecap:round; stroke-linejoin:round; stroke-width:2; stroke-opacity:0.1; fill:none" points="149.191,735.212 2352.76,735.212 "/>
<polyline clip-path="url(#clip411)" style="stroke:#000000; stroke-linecap:round; stroke-linejoin:round; stroke-width:2; stroke-opacity:0.1; fill:none" points="149.191,505.889 2352.76,505.889 "/>
<polyline clip-path="url(#clip411)" style="stroke:#000000; stroke-linecap:round; stroke-linejoin:round; stroke-width:2; stroke-opacity:0.1; fill:none" points="149.191,276.567 2352.76,276.567 "/>
<polyline clip-path="url(#clip411)" style="stroke:#000000; stroke-linecap:round; stroke-linejoin:round; stroke-width:2; stroke-opacity:0.1; fill:none" points="149.191,47.2441 2352.76,47.2441 "/>
<polyline clip-path="url(#clip410)" style="stroke:#000000; stroke-linecap:round; stroke-linejoin:round; stroke-width:4; stroke-opacity:1; fill:none" points="149.191,1423.18 2352.76,1423.18 "/>
<polyline clip-path="url(#clip410)" style="stroke:#000000; stroke-linecap:round; stroke-linejoin:round; stroke-width:4; stroke-opacity:1; fill:none" points="149.191,1423.18 149.191,1404.28 "/>
<polyline clip-path="url(#clip410)" style="stroke:#000000; stroke-linecap:round; stroke-linejoin:round; stroke-width:4; stroke-opacity:1; fill:none" points="700.082,1423.18 700.082,1404.28 "/>
<polyline clip-path="url(#clip410)" style="stroke:#000000; stroke-linecap:round; stroke-linejoin:round; stroke-width:4; stroke-opacity:1; fill:none" points="1250.97,1423.18 1250.97,1404.28 "/>
<polyline clip-path="url(#clip410)" style="stroke:#000000; stroke-linecap:round; stroke-linejoin:round; stroke-width:4; stroke-opacity:1; fill:none" points="1801.86,1423.18 1801.86,1404.28 "/>
<polyline clip-path="url(#clip410)" style="stroke:#000000; stroke-linecap:round; stroke-linejoin:round; stroke-width:4; stroke-opacity:1; fill:none" points="2352.76,1423.18 2352.76,1404.28 "/>
<path clip-path="url(#clip410)" d="M149.191 1454.1 Q145.58 1454.1 143.751 1457.66 Q141.946 1461.2 141.946 1468.33 Q141.946 1475.44 143.751 1479.01 Q145.58 1482.55 149.191 1482.55 Q152.825 1482.55 154.631 1479.01 Q156.459 1475.44 156.459 1468.33 Q156.459 1461.2 154.631 1457.66 Q152.825 1454.1 149.191 1454.1 M149.191 1450.39 Q155.001 1450.39 158.057 1455 Q161.135 1459.58 161.135 1468.33 Q161.135 1477.06 158.057 1481.67 Q155.001 1486.25 149.191 1486.25 Q143.381 1486.25 140.302 1481.67 Q137.246 1477.06 137.246 1468.33 Q137.246 1459.58 140.302 1455 Q143.381 1450.39 149.191 1450.39 Z" fill="#000000" fill-rule="nonzero" fill-opacity="1" /><path clip-path="url(#clip410)" d="M694.735 1481.64 L711.054 1481.64 L711.054 1485.58 L689.11 1485.58 L689.11 1481.64 Q691.772 1478.89 696.355 1474.26 Q700.962 1469.61 702.142 1468.27 Q704.388 1465.74 705.267 1464.01 Q706.17 1462.25 706.17 1460.56 Q706.17 1457.8 704.226 1456.07 Q702.304 1454.33 699.203 1454.33 Q697.003 1454.33 694.55 1455.09 Q692.119 1455.86 689.341 1457.41 L689.341 1452.69 Q692.166 1451.55 694.619 1450.97 Q697.073 1450.39 699.11 1450.39 Q704.48 1450.39 707.675 1453.08 Q710.869 1455.77 710.869 1460.26 Q710.869 1462.39 710.059 1464.31 Q709.272 1466.2 707.165 1468.8 Q706.587 1469.47 703.485 1472.69 Q700.383 1475.88 694.735 1481.64 Z" fill="#000000" fill-rule="nonzero" fill-opacity="1" /><path clip-path="url(#clip410)" d="M1253.98 1455.09 L1242.18 1473.54 L1253.98 1473.54 L1253.98 1455.09 M1252.76 1451.02 L1258.64 1451.02 L1258.64 1473.54 L1263.57 1473.54 L1263.57 1477.43 L1258.64 1477.43 L1258.64 1485.58 L1253.98 1485.58 L1253.98 1477.43 L1238.38 1477.43 L1238.38 1472.92 L1252.76 1451.02 Z" fill="#000000" fill-rule="nonzero" fill-opacity="1" /><path clip-path="url(#clip410)" d="M1802.27 1466.44 Q1799.12 1466.44 1797.27 1468.59 Q1795.44 1470.74 1795.44 1474.49 Q1795.44 1478.22 1797.27 1480.39 Q1799.12 1482.55 1802.27 1482.55 Q1805.42 1482.55 1807.25 1480.39 Q1809.1 1478.22 1809.1 1474.49 Q1809.1 1470.74 1807.25 1468.59 Q1805.42 1466.44 1802.27 1466.44 M1811.55 1451.78 L1811.55 1456.04 Q1809.79 1455.21 1807.99 1454.77 Q1806.2 1454.33 1804.45 1454.33 Q1799.82 1454.33 1797.36 1457.45 Q1794.93 1460.58 1794.58 1466.9 Q1795.95 1464.89 1798.01 1463.82 Q1800.07 1462.73 1802.55 1462.73 Q1807.76 1462.73 1810.77 1465.9 Q1813.8 1469.05 1813.8 1474.49 Q1813.8 1479.82 1810.65 1483.03 Q1807.5 1486.25 1802.27 1486.25 Q1796.27 1486.25 1793.1 1481.67 Q1789.93 1477.06 1789.93 1468.33 Q1789.93 1460.14 1793.82 1455.28 Q1797.71 1450.39 1804.26 1450.39 Q1806.02 1450.39 1807.8 1450.74 Q1809.61 1451.09 1811.55 1451.78 Z" fill="#000000" fill-rule="nonzero" fill-opacity="1" /><path clip-path="url(#clip410)" d="M2352.76 1469.17 Q2349.42 1469.17 2347.5 1470.95 Q2345.6 1472.73 2345.6 1475.86 Q2345.6 1478.98 2347.5 1480.77 Q2349.42 1482.55 2352.76 1482.55 Q2356.09 1482.55 2358.01 1480.77 Q2359.93 1478.96 2359.93 1475.86 Q2359.93 1472.73 2358.01 1470.95 Q2356.11 1469.17 2352.76 1469.17 M2348.08 1467.18 Q2345.07 1466.44 2343.38 1464.38 Q2341.71 1462.32 2341.71 1459.35 Q2341.71 1455.21 2344.65 1452.8 Q2347.62 1450.39 2352.76 1450.39 Q2357.92 1450.39 2360.86 1452.8 Q2363.8 1455.21 2363.8 1459.35 Q2363.8 1462.32 2362.11 1464.38 Q2360.44 1466.44 2357.45 1467.18 Q2360.83 1467.96 2362.71 1470.26 Q2364.61 1472.55 2364.61 1475.86 Q2364.61 1480.88 2361.53 1483.57 Q2358.47 1486.25 2352.76 1486.25 Q2347.04 1486.25 2343.96 1483.57 Q2340.9 1480.88 2340.9 1475.86 Q2340.9 1472.55 2342.8 1470.26 Q2344.7 1467.96 2348.08 1467.18 M2346.37 1459.79 Q2346.37 1462.48 2348.03 1463.98 Q2349.72 1465.49 2352.76 1465.49 Q2355.77 1465.49 2357.45 1463.98 Q2359.17 1462.48 2359.17 1459.79 Q2359.17 1457.11 2357.45 1455.6 Q2355.77 1454.1 2352.76 1454.1 Q2349.72 1454.1 2348.03 1455.6 Q2346.37 1457.11 2346.37 1459.79 Z" fill="#000000" fill-rule="nonzero" fill-opacity="1" /><path clip-path="url(#clip410)" d="M1250.03 1522.27 L1250.03 1532.4 L1262.1 1532.4 L1262.1 1536.95 L1250.03 1536.95 L1250.03 1556.3 Q1250.03 1560.66 1251.21 1561.9 Q1252.42 1563.14 1256.08 1563.14 L1262.1 1563.14 L1262.1 1568.04 L1256.08 1568.04 Q1249.3 1568.04 1246.72 1565.53 Q1244.15 1562.98 1244.15 1556.3 L1244.15 1536.95 L1239.85 1536.95 L1239.85 1532.4 L1244.15 1532.4 L1244.15 1522.27 L1250.03 1522.27 Z" fill="#000000" fill-rule="nonzero" fill-opacity="1" /><polyline clip-path="url(#clip410)" style="stroke:#000000; stroke-linecap:round; stroke-linejoin:round; stroke-width:4; stroke-opacity:1; fill:none" points="149.191,1423.18 149.191,47.2441 "/>
<polyline clip-path="url(#clip410)" style="stroke:#000000; stroke-linecap:round; stroke-linejoin:round; stroke-width:4; stroke-opacity:1; fill:none" points="149.191,1423.18 168.089,1423.18 "/>
<polyline clip-path="url(#clip410)" style="stroke:#000000; stroke-linecap:round; stroke-linejoin:round; stroke-width:4; stroke-opacity:1; fill:none" points="149.191,1193.86 168.089,1193.86 "/>
<polyline clip-path="url(#clip410)" style="stroke:#000000; stroke-linecap:round; stroke-linejoin:round; stroke-width:4; stroke-opacity:1; fill:none" points="149.191,964.535 168.089,964.535 "/>
<polyline clip-path="url(#clip410)" style="stroke:#000000; stroke-linecap:round; stroke-linejoin:round; stroke-width:4; stroke-opacity:1; fill:none" points="149.191,735.212 168.089,735.212 "/>
<polyline clip-path="url(#clip410)" style="stroke:#000000; stroke-linecap:round; stroke-linejoin:round; stroke-width:4; stroke-opacity:1; fill:none" points="149.191,505.889 168.089,505.889 "/>
<polyline clip-path="url(#clip410)" style="stroke:#000000; stroke-linecap:round; stroke-linejoin:round; stroke-width:4; stroke-opacity:1; fill:none" points="149.191,276.567 168.089,276.567 "/>
<polyline clip-path="url(#clip410)" style="stroke:#000000; stroke-linecap:round; stroke-linejoin:round; stroke-width:4; stroke-opacity:1; fill:none" points="149.191,47.2441 168.089,47.2441 "/>
<path clip-path="url(#clip410)" d="M51.3162 1423.63 L80.992 1423.63 L80.992 1427.57 L51.3162 1427.57 L51.3162 1423.63 Z" fill="#000000" fill-rule="nonzero" fill-opacity="1" /><path clip-path="url(#clip410)" d="M101.663 1421.32 Q98.515 1421.32 96.6632 1423.47 Q94.8345 1425.62 94.8345 1429.37 Q94.8345 1433.1 96.6632 1435.27 Q98.515 1437.43 101.663 1437.43 Q104.811 1437.43 106.64 1435.27 Q108.492 1433.1 108.492 1429.37 Q108.492 1425.62 106.64 1423.47 Q104.811 1421.32 101.663 1421.32 M110.946 1406.66 L110.946 1410.92 Q109.186 1410.09 107.381 1409.65 Q105.598 1409.21 103.839 1409.21 Q99.2095 1409.21 96.7558 1412.33 Q94.3252 1415.46 93.978 1421.78 Q95.3437 1419.77 97.4039 1418.7 Q99.4641 1417.61 101.941 1417.61 Q107.149 1417.61 110.158 1420.78 Q113.191 1423.93 113.191 1429.37 Q113.191 1434.7 110.043 1437.91 Q106.895 1441.13 101.663 1441.13 Q95.6678 1441.13 92.4965 1436.55 Q89.3253 1431.94 89.3253 1423.21 Q89.3253 1415.02 93.2141 1410.16 Q97.103 1405.27 103.654 1405.27 Q105.413 1405.27 107.196 1405.62 Q109.001 1405.97 110.946 1406.66 Z" fill="#000000" fill-rule="nonzero" fill-opacity="1" /><path clip-path="url(#clip410)" d="M50.9921 1194.31 L80.6679 1194.31 L80.6679 1198.24 L50.9921 1198.24 L50.9921 1194.31 Z" fill="#000000" fill-rule="nonzero" fill-opacity="1" /><path clip-path="url(#clip410)" d="M103.608 1180.65 L91.8021 1199.1 L103.608 1199.1 L103.608 1180.65 M102.381 1176.58 L108.26 1176.58 L108.26 1199.1 L113.191 1199.1 L113.191 1202.99 L108.26 1202.99 L108.26 1211.14 L103.608 1211.14 L103.608 1202.99 L88.0058 1202.99 L88.0058 1198.48 L102.381 1176.58 Z" fill="#000000" fill-rule="nonzero" fill-opacity="1" /><path clip-path="url(#clip410)" d="M53.0754 964.986 L82.7512 964.986 L82.7512 968.921 L53.0754 968.921 L53.0754 964.986 Z" fill="#000000" fill-rule="nonzero" fill-opacity="1" /><path clip-path="url(#clip410)" d="M96.8715 977.879 L113.191 977.879 L113.191 981.815 L91.2465 981.815 L91.2465 977.879 Q93.9086 975.125 98.4919 970.495 Q103.098 965.842 104.279 964.5 Q106.524 961.977 107.404 960.241 Q108.307 958.481 108.307 956.792 Q108.307 954.037 106.362 952.301 Q104.441 950.565 101.339 950.565 Q99.14 950.565 96.6863 951.329 Q94.2558 952.093 91.478 953.643 L91.478 948.921 Q94.3021 947.787 96.7558 947.208 Q99.2095 946.63 101.246 946.63 Q106.617 946.63 109.811 949.315 Q113.006 952 113.006 956.491 Q113.006 958.62 112.196 960.542 Q111.408 962.44 109.302 965.032 Q108.723 965.704 105.621 968.921 Q102.52 972.116 96.8715 977.879 Z" fill="#000000" fill-rule="nonzero" fill-opacity="1" /><path clip-path="url(#clip410)" d="M101.246 721.011 Q97.6354 721.011 95.8067 724.575 Q94.0012 728.117 94.0012 735.247 Q94.0012 742.353 95.8067 745.918 Q97.6354 749.46 101.246 749.46 Q104.881 749.46 106.686 745.918 Q108.515 742.353 108.515 735.247 Q108.515 728.117 106.686 724.575 Q104.881 721.011 101.246 721.011 M101.246 717.307 Q107.057 717.307 110.112 721.913 Q113.191 726.497 113.191 735.247 Q113.191 743.973 110.112 748.58 Q107.057 753.163 101.246 753.163 Q95.4363 753.163 92.3576 748.58 Q89.3021 743.973 89.3021 735.247 Q89.3021 726.497 92.3576 721.913 Q95.4363 717.307 101.246 717.307 Z" fill="#000000" fill-rule="nonzero" fill-opacity="1" /><path clip-path="url(#clip410)" d="M96.8715 519.234 L113.191 519.234 L113.191 523.169 L91.2465 523.169 L91.2465 519.234 Q93.9086 516.48 98.4919 511.85 Q103.098 507.197 104.279 505.855 Q106.524 503.331 107.404 501.595 Q108.307 499.836 108.307 498.146 Q108.307 495.392 106.362 493.656 Q104.441 491.92 101.339 491.92 Q99.14 491.92 96.6863 492.683 Q94.2558 493.447 91.478 494.998 L91.478 490.276 Q94.3021 489.142 96.7558 488.563 Q99.2095 487.984 101.246 487.984 Q106.617 487.984 109.811 490.67 Q113.006 493.355 113.006 497.845 Q113.006 499.975 112.196 501.896 Q111.408 503.794 109.302 506.387 Q108.723 507.058 105.621 510.276 Q102.52 513.47 96.8715 519.234 Z" fill="#000000" fill-rule="nonzero" fill-opacity="1" /><path clip-path="url(#clip410)" d="M103.608 263.361 L91.8021 281.81 L103.608 281.81 L103.608 263.361 M102.381 259.287 L108.26 259.287 L108.26 281.81 L113.191 281.81 L113.191 285.699 L108.26 285.699 L108.26 293.847 L103.608 293.847 L103.608 285.699 L88.0058 285.699 L88.0058 281.185 L102.381 259.287 Z" fill="#000000" fill-rule="nonzero" fill-opacity="1" /><path clip-path="url(#clip410)" d="M101.663 45.3807 Q98.515 45.3807 96.6632 47.5334 Q94.8345 49.6862 94.8345 53.4362 Q94.8345 57.163 96.6632 59.3389 Q98.515 61.4917 101.663 61.4917 Q104.811 61.4917 106.64 59.3389 Q108.492 57.163 108.492 53.4362 Q108.492 49.6862 106.64 47.5334 Q104.811 45.3807 101.663 45.3807 M110.946 30.728 L110.946 34.9872 Q109.186 34.1539 107.381 33.7141 Q105.598 33.2743 103.839 33.2743 Q99.2095 33.2743 96.7558 36.3992 Q94.3252 39.5242 93.978 45.8436 Q95.3437 43.8298 97.4039 42.765 Q99.4641 41.677 101.941 41.677 Q107.149 41.677 110.158 44.8483 Q113.191 47.9964 113.191 53.4362 Q113.191 58.7602 110.043 61.9778 Q106.895 65.1954 101.663 65.1954 Q95.6678 65.1954 92.4965 60.6121 Q89.3253 56.0056 89.3253 47.2788 Q89.3253 39.0844 93.2141 34.2233 Q97.103 29.3391 103.654 29.3391 Q105.413 29.3391 107.196 29.6863 Q109.001 30.0335 110.946 30.728 Z" fill="#000000" fill-rule="nonzero" fill-opacity="1" /><polyline clip-path="url(#clip411)" style="stroke:#009af9; stroke-linecap:round; stroke-linejoin:round; stroke-width:12; stroke-opacity:1; fill:none" points="149.191,1193.86 151.945,1191 154.7,1186.01 157.454,1180.75 160.209,1175.47 162.963,1170.2 165.718,1164.92 168.472,1159.65 171.227,1154.38 173.981,1149.11 176.735,1143.84 179.49,1138.57 182.244,1133.31 184.999,1128.04 187.753,1122.77 190.508,1117.5 193.262,1112.23 196.017,1106.96 198.771,1101.7 201.526,1096.43 204.28,1091.16 207.034,1085.89 209.789,1080.62 212.543,1075.35 215.298,1070.08 218.052,1064.81 220.807,1059.54 223.561,1054.27 226.316,1049 229.07,1043.73 231.825,1038.47 234.579,1033.2 237.333,1027.93 240.088,1022.67 242.842,1017.41 245.597,1012.16 248.351,1006.91 251.106,1001.68 253.86,996.453 256.615,991.244 259.369,986.05 262.124,980.875 264.878,975.721 267.632,970.59 270.387,965.484 273.141,960.407 275.896,955.359 278.65,950.342 281.405,945.357 284.159,940.407 286.914,935.491 289.668,930.612 292.423,925.769 295.177,920.965 297.932,916.198 300.686,911.471 303.44,906.783 306.195,902.135 308.949,897.527 311.704,892.958 314.458,888.43 317.213,883.942 319.967,879.494 322.722,875.085 325.476,870.716 328.231,866.386 330.985,862.094 333.739,857.842 336.494,853.627 339.248,849.451 342.003,845.312 344.757,841.211 347.512,837.146 350.266,833.117 353.021,829.125 355.775,825.168 358.53,821.246 361.284,817.358 364.038,813.504 366.793,809.684 369.547,805.896 372.302,802.14 375.056,798.416 377.811,794.724 380.565,791.062 383.32,787.431 386.074,783.83 388.829,780.258 391.583,776.716 394.337,773.202 397.092,769.716 399.846,766.258 402.601,762.827 405.355,759.423 408.11,756.046 410.864,752.695 413.619,749.37 416.373,746.07 419.128,742.795 421.882,739.545 424.636,736.319 427.391,733.117 430.145,729.939 432.9,726.784 435.654,723.652 438.409,720.543 441.163,717.456 443.918,714.391 446.672,711.348 449.427,708.327 452.181,705.327 454.936,702.348 457.69,699.39 460.444,696.452 463.199,693.535 465.953,690.638 468.708,687.761 471.462,684.903 474.217,682.065 476.971,679.247 479.726,676.447 482.48,673.666 485.235,670.904 487.989,668.16 490.743,665.435 493.498,662.727 496.252,660.038 499.007,657.366 501.761,654.712 504.516,652.076 507.27,649.456 510.025,646.854 512.779,644.269 515.534,641.7 518.288,639.149 521.042,636.614 523.797,634.095 526.551,631.593 529.306,629.107 532.06,626.638 534.815,624.184 537.569,621.746 540.324,619.324 543.078,616.918 545.833,614.528 548.587,612.152 551.341,609.793 554.096,607.448 556.85,605.119 559.605,602.804 562.359,600.505 565.114,598.221 567.868,595.951 570.623,593.696 573.377,591.456 576.132,589.23 578.886,587.019 581.641,584.822 584.395,582.64 587.149,580.472 589.904,578.317 592.658,576.177 595.413,574.051 598.167,571.939 600.922,569.841 603.676,567.756 606.431,565.685 609.185,563.628 611.94,561.584 614.694,559.554 617.448,557.537 620.203,555.534 622.957,553.544 625.712,551.567 628.466,549.603 631.221,547.653 633.975,545.715 636.73,543.79 639.484,541.878 642.239,539.98 644.993,538.094 647.747,536.221 650.502,534.36 653.256,532.512 656.011,530.677 658.765,528.854 661.52,527.044 664.274,525.246 667.029,523.46 669.783,521.687 672.538,519.926 675.292,518.177 678.046,516.44 680.801,514.715 683.555,513.002 686.31,511.301 689.064,509.612 691.819,507.935 694.573,506.27 697.328,504.616 700.082,502.974 702.837,501.344 705.591,499.725 708.345,498.118 711.1,496.522 713.854,494.938 716.609,493.365 719.363,491.803 722.118,490.253 724.872,488.713 727.627,487.185 730.381,485.668 733.136,484.162 735.89,482.667 738.645,481.183 741.399,479.709 744.153,478.247 746.908,476.795 749.662,475.354 752.417,473.923 755.171,472.503 757.926,471.094 760.68,469.695 763.435,468.307 766.189,466.929 768.944,465.561 771.698,464.204 774.452,462.857 777.207,461.52 779.961,460.193 782.716,458.876 785.47,457.569 788.225,456.272 790.979,454.985 793.734,453.708 796.488,452.441 799.243,451.183 801.997,449.936 804.751,448.697 807.506,447.469 810.26,446.25 813.015,445.04 815.769,443.84 818.524,442.649 821.278,441.468 824.033,440.296 826.787,439.133 829.542,437.979 832.296,436.835 835.05,435.699 837.805,434.573 840.559,433.455 843.314,432.346 846.068,431.247 848.823,430.155 851.577,429.073 854.332,427.999 857.086,426.934 859.841,425.878 862.595,424.83 865.349,423.791 868.104,422.76 870.858,421.737 873.613,420.723 876.367,419.717 879.122,418.719 881.876,417.729 884.631,416.747 887.385,415.774 890.14,414.808 892.894,413.851 895.649,412.901 898.403,411.959 901.157,411.025 903.912,410.099 906.666,409.18 909.421,408.269 912.175,407.366 914.93,406.47 917.684,405.581 920.439,404.7 923.193,403.827 925.948,402.96 928.702,402.101 931.456,401.25 934.211,400.405 936.965,399.568 939.72,398.737 942.474,397.914 945.229,397.097 947.983,396.288 950.738,395.485 953.492,394.69 956.247,393.901 959.001,393.118 961.755,392.343 964.51,391.573 967.264,390.811 970.019,390.055 972.773,389.306 975.528,388.563 978.282,387.826 981.037,387.095 983.791,386.371 986.546,385.653 989.3,384.942 992.054,384.236 994.809,383.536 997.563,382.843 1000.32,382.155 1003.07,381.474 1005.83,380.798 1008.58,380.128 1011.34,379.464 1014.09,378.805 1016.84,378.153 1019.6,377.505 1022.35,376.864 1025.11,376.228 1027.86,375.597 1030.62,374.972 1033.37,374.353 1036.13,373.739 1038.88,373.13 1041.63,372.526 1044.39,371.928 1047.14,371.334 1049.9,370.746 1052.65,370.163 1055.41,369.585 1058.16,369.012 1060.92,368.444 1063.67,367.881 1066.42,367.323 1069.18,366.769 1071.93,366.221 1074.69,365.677 1077.44,365.138 1080.2,364.603 1082.95,364.073 1085.71,363.548 1088.46,363.027 1091.21,362.51 1093.97,361.998 1096.72,361.491 1099.48,360.988 1102.23,360.489 1104.99,359.994 1107.74,359.504 1110.5,359.018 1113.25,358.536 1116.01,358.058 1118.76,357.584 1121.51,357.114 1124.27,356.649 1127.02,356.187 1129.78,355.729 1132.53,355.275 1135.29,354.825 1138.04,354.378 1140.8,353.936 1143.55,353.497 1146.3,353.062 1149.06,352.63 1151.81,352.203 1154.57,351.778 1157.32,351.357 1160.08,350.94 1162.83,350.527 1165.59,350.116 1168.34,349.709 1171.09,349.306 1173.85,348.906 1176.6,348.509 1179.36,348.115 1182.11,347.724 1184.87,347.337 1187.62,346.953 1190.38,346.572 1193.13,346.194 1195.88,345.82 1198.64,345.448 1201.39,345.079 1204.15,344.713 1206.9,344.35 1209.66,343.99 1212.41,343.633 1215.17,343.279 1217.92,342.927 1220.67,342.578 1223.43,342.232 1226.18,341.889 1228.94,341.548 1231.69,341.21 1234.45,340.875 1237.2,340.542 1239.96,340.212 1242.71,339.884 1245.46,339.559 1248.22,339.236 1250.97,338.916 1253.73,338.598 1256.48,338.282 1259.24,337.969 1261.99,337.658 1264.75,337.349 1267.5,337.043 1270.25,336.739 1273.01,336.437 1275.76,336.137 1278.52,335.84 1281.27,335.544 1284.03,335.251 1286.78,334.96 1289.54,334.67 1292.29,334.383 1295.04,334.098 1297.8,333.815 1300.55,333.533 1303.31,333.254 1306.06,332.977 1308.82,332.701 1311.57,332.427 1314.33,332.155 1317.08,331.885 1319.83,331.617 1322.59,331.35 1325.34,331.085 1328.1,330.822 1330.85,330.561 1333.61,330.301 1336.36,330.043 1339.12,329.786 1341.87,329.531 1344.62,329.278 1347.38,329.026 1350.13,328.776 1352.89,328.527 1355.64,328.28 1358.4,328.035 1361.15,327.79 1363.91,327.547 1366.66,327.306 1369.41,327.066 1372.17,326.827 1374.92,326.59 1377.68,326.354 1380.43,326.12 1383.19,325.887 1385.94,325.655 1388.7,325.424 1391.45,325.194 1394.21,324.966 1396.96,324.739 1399.71,324.513 1402.47,324.289 1405.22,324.065 1407.98,323.843 1410.73,323.622 1413.49,323.402 1416.24,323.183 1419,322.965 1421.75,322.748 1424.5,322.532 1427.26,322.318 1430.01,322.104 1432.77,321.891 1435.52,321.68 1438.28,321.469 1441.03,321.259 1443.79,321.05 1446.54,320.842 1449.29,320.635 1452.05,320.429 1454.8,320.224 1457.56,320.019 1460.31,319.816 1463.07,319.613 1465.82,319.411 1468.58,319.21 1471.33,319.009 1474.08,318.81 1476.84,318.611 1479.59,318.413 1482.35,318.216 1485.1,318.019 1487.86,317.824 1490.61,317.629 1493.37,317.434 1496.12,317.24 1498.87,317.047 1501.63,316.855 1504.38,316.663 1507.14,316.472 1509.89,316.281 1512.65,316.092 1515.4,315.902 1518.16,315.714 1520.91,315.526 1523.66,315.338 1526.42,315.151 1529.17,314.965 1531.93,314.779 1534.68,314.593 1537.44,314.408 1540.19,314.224 1542.95,314.04 1545.7,313.857 1548.45,313.674 1551.21,313.492 1553.96,313.31 1556.72,313.128 1559.47,312.947 1562.23,312.767 1564.98,312.587 1567.74,312.407 1570.49,312.227 1573.24,312.049 1576,311.87 1578.75,311.692 1581.51,311.514 1584.26,311.337 1587.02,311.16 1589.77,310.984 1592.53,310.807 1595.28,310.631 1598.03,310.456 1600.79,310.281 1603.54,310.106 1606.3,309.932 1609.05,309.757 1611.81,309.583 1614.56,309.41 1617.32,309.236 1620.07,309.063 1622.82,308.891 1625.58,308.718 1628.33,308.546 1631.09,308.374 1633.84,308.202 1636.6,308.031 1639.35,307.859 1642.11,307.688 1644.86,307.518 1647.62,307.347 1650.37,307.177 1653.12,307.007 1655.88,306.837 1658.63,306.667 1661.39,306.498 1664.14,306.328 1666.9,306.159 1669.65,305.99 1672.41,305.822 1675.16,305.653 1677.91,305.485 1680.67,305.317 1683.42,305.149 1686.18,304.981 1688.93,304.814 1691.69,304.646 1694.44,304.479 1697.2,304.312 1699.95,304.145 1702.7,303.978 1705.46,303.811 1708.21,303.645 1710.97,303.479 1713.72,303.312 1716.48,303.146 1719.23,302.98 1721.99,302.814 1724.74,302.649 1727.49,302.483 1730.25,302.317 1733,302.152 1735.76,301.987 1738.51,301.822 1741.27,301.657 1744.02,301.492 1746.78,301.327 1749.53,301.162 1752.28,300.997 1755.04,300.833 1757.79,300.668 1760.55,300.504 1763.3,300.339 1766.06,300.175 1768.81,300.011 1771.57,299.847 1774.32,299.683 1777.07,299.519 1779.83,299.355 1782.58,299.191 1785.34,299.027 1788.09,298.863 1790.85,298.7 1793.6,298.536 1796.36,298.372 1799.11,298.209 1801.86,298.045 1804.62,297.882 1807.37,297.718 1810.13,297.555 1812.88,297.392 1815.64,297.228 1818.39,297.065 1821.15,296.902 1823.9,296.739 1826.65,296.575 1829.41,296.412 1832.16,296.249 1834.92,296.086 1837.67,295.923 1840.43,295.76 1843.18,295.597 1845.94,295.434 1848.69,295.271 1851.44,295.108 1854.2,294.945 1856.95,294.782 1859.71,294.619 1862.46,294.456 1865.22,294.293 1867.97,294.13 1870.73,293.967 1873.48,293.804 1876.23,293.641 1878.99,293.478 1881.74,293.316 1884.5,293.153 1887.25,292.99 1890.01,292.827 1892.76,292.664 1895.52,292.501 1898.27,292.338 1901.03,292.175 1903.78,292.012 1906.53,291.849 1909.29,291.687 1912.04,291.524 1914.8,291.361 1917.55,291.198 1920.31,291.035 1923.06,290.872 1925.82,290.709 1928.57,290.546 1931.32,290.383 1934.08,290.22 1936.83,290.057 1939.59,289.894 1942.34,289.731 1945.1,289.568 1947.85,289.405 1950.61,289.242 1953.36,289.079 1956.11,288.916 1958.87,288.753 1961.62,288.59 1964.38,288.427 1967.13,288.264 1969.89,288.101 1972.64,287.938 1975.4,287.775 1978.15,287.612 1980.9,287.449 1983.66,287.286 1986.41,287.123 1989.17,286.96 1991.92,286.797 1994.68,286.634 1997.43,286.471 2000.19,286.308 2002.94,286.145 2005.69,285.982 2008.45,285.819 2011.2,285.656 2013.96,285.494 2016.71,285.331 2019.47,285.168 2022.22,285.005 2024.98,284.842 2027.73,284.679 2030.48,284.516 2033.24,284.353 2035.99,284.191 2038.75,284.028 2041.5,283.865 2044.26,283.702 2047.01,283.54 2049.77,283.377 2052.52,283.214 2055.27,283.051 2058.03,282.888 2060.78,282.726 2063.54,282.563 2066.29,282.4 2069.05,282.237 2071.8,282.075 2074.56,281.912 2077.31,281.749 2080.06,281.586 2082.82,281.423 2085.57,281.261 2088.33,281.098 2091.08,280.935 2093.84,280.772 2096.59,280.61 2099.35,280.447 2102.1,280.284 2104.85,280.121 2107.61,279.958 2110.36,279.796 2113.12,279.633 2115.87,279.47 2118.63,279.307 2121.38,279.145 2124.14,278.982 2126.89,278.819 2129.64,278.656 2132.4,278.493 2135.15,278.331 2137.91,278.168 2140.66,278.005 2143.42,277.842 2146.17,277.68 2148.93,277.517 2151.68,277.354 2154.44,277.191 2157.19,277.028 2159.94,276.866 2162.7,276.703 2165.45,276.54 2168.21,276.377 2170.96,276.214 2173.72,276.052 2176.47,275.889 2179.23,275.726 2181.98,275.563 2184.73,275.4 2187.49,275.238 2190.24,275.075 2193,274.912 2195.75,274.749 2198.51,274.586 2201.26,274.423 2204.02,274.26 2206.77,274.097 2209.52,273.935 2212.28,273.772 2215.03,273.609 2217.79,273.446 2220.54,273.283 2223.3,273.12 2226.05,272.957 2228.81,272.794 2231.56,272.631 2234.31,272.468 2237.07,272.305 2239.82,272.142 2242.58,271.979 2245.33,271.816 2248.09,271.653 2250.84,271.49 2253.6,271.327 2256.35,271.163 2259.1,271 2261.86,270.837 2264.61,270.674 2267.37,270.511 2270.12,270.347 2272.88,270.184 2275.63,270.021 2278.39,269.858 2281.14,269.694 2283.89,269.531 2286.65,269.368 2289.4,269.204 2292.16,269.041 2294.91,268.877 2297.67,268.714 2300.42,268.55 2303.18,268.387 2305.93,268.223 2308.68,268.06 2311.44,267.896 2314.19,267.732 2316.95,267.569 2319.7,267.405 2322.46,267.241 2325.21,267.077 2327.97,266.913 2330.72,266.749 2333.47,266.585 2336.23,266.421 2338.98,266.258 2341.74,266.093 2344.49,265.929 2347.25,265.765 2350,265.601 2352.76,265.437 "/>
<polyline clip-path="url(#clip411)" style="stroke:#e26f46; stroke-linecap:round; stroke-linejoin:round; stroke-width:12; stroke-opacity:1; fill:none" points="149.191,735.212 151.945,282.367 154.7,213.092 157.454,207.825 160.209,207.732 162.963,207.766 165.718,207.909 168.472,208.091 171.227,208.235 173.981,208.319 176.735,208.357 179.49,208.37 182.244,208.373 184.999,208.373 187.753,208.374 190.508,208.373 193.262,208.368 196.017,208.358 198.771,208.343 201.526,208.326 204.28,208.307 207.034,208.291 209.789,208.283 212.543,208.284 215.298,208.287 218.052,208.287 220.807,208.283 223.561,208.281 226.316,208.288 229.07,208.318 231.825,208.389 234.579,208.523 237.333,208.744 240.088,209.082 242.842,209.569 245.597,210.229 248.351,211.086 251.106,212.155 253.86,213.449 256.615,214.976 259.369,216.74 262.124,218.741 264.878,220.971 267.632,223.423 270.387,226.08 273.141,228.925 275.896,231.943 278.65,235.12 281.405,238.442 284.159,241.891 286.914,245.452 289.668,249.11 292.423,252.851 295.177,256.663 297.932,260.533 300.686,264.449 303.44,268.401 306.195,272.378 308.949,276.372 311.704,280.373 314.458,284.373 317.213,288.365 319.967,292.345 322.722,296.308 325.476,300.25 328.231,304.166 330.985,308.053 333.739,311.907 336.494,315.724 339.248,319.503 342.003,323.241 344.757,326.935 347.512,330.584 350.266,334.185 353.021,337.739 355.775,341.244 358.53,344.699 361.284,348.104 364.038,351.46 366.793,354.767 369.547,358.025 372.302,361.236 375.056,364.399 377.811,367.513 380.565,370.58 383.32,373.601 386.074,376.575 388.829,379.504 391.583,382.389 394.337,385.23 397.092,388.028 399.846,390.783 402.601,393.498 405.355,396.172 408.11,398.806 410.864,401.402 413.619,403.959 416.373,406.48 419.128,408.964 421.882,411.413 424.636,413.827 427.391,416.208 430.145,418.557 432.9,420.873 435.654,423.16 438.409,425.416 441.163,427.643 443.918,429.842 446.672,432.013 449.427,434.158 452.181,436.276 454.936,438.369 457.69,440.437 460.444,442.481 463.199,444.501 465.953,446.5 468.708,448.475 471.462,450.43 474.217,452.364 476.971,454.277 479.726,456.171 482.48,458.045 485.235,459.901 487.989,461.739 490.743,463.56 493.498,465.363 496.252,467.15 499.007,468.921 501.761,470.676 504.516,472.415 507.27,474.14 510.025,475.851 512.779,477.547 515.534,479.23 518.288,480.899 521.042,482.555 523.797,484.199 526.551,485.83 529.306,487.449 532.06,489.056 534.815,490.652 537.569,492.236 540.324,493.809 543.078,495.372 545.833,496.924 548.587,498.466 551.341,499.998 554.096,501.52 556.85,503.033 559.605,504.536 562.359,506.029 565.114,507.514 567.868,508.99 570.623,510.457 573.377,511.916 576.132,513.366 578.886,514.808 581.641,516.241 584.395,517.667 587.149,519.085 589.904,520.496 592.658,521.899 595.413,523.294 598.167,524.682 600.922,526.063 603.676,527.437 606.431,528.804 609.185,530.164 611.94,531.518 614.694,532.864 617.448,534.204 620.203,535.538 622.957,536.865 625.712,538.185 628.466,539.5 631.221,540.808 633.975,542.109 636.73,543.405 639.484,544.695 642.239,545.978 644.993,547.255 647.747,548.527 650.502,549.792 653.256,551.052 656.011,552.306 658.765,553.554 661.52,554.796 664.274,556.033 667.029,557.264 669.783,558.489 672.538,559.709 675.292,560.923 678.046,562.131 680.801,563.334 683.555,564.531 686.31,565.723 689.064,566.909 691.819,568.09 694.573,569.265 697.328,570.435 700.082,571.599 702.837,572.758 705.591,573.911 708.345,575.059 711.1,576.201 713.854,577.338 716.609,578.47 719.363,579.596 722.118,580.717 724.872,581.833 727.627,582.943 730.381,584.048 733.136,585.148 735.89,586.242 738.645,587.331 741.399,588.415 744.153,589.493 746.908,590.566 749.662,591.634 752.417,592.696 755.171,593.754 757.926,594.806 760.68,595.852 763.435,596.894 766.189,597.93 768.944,598.96 771.698,599.986 774.452,601.006 777.207,602.021 779.961,603.031 782.716,604.035 785.47,605.034 788.225,606.027 790.979,607.016 793.734,607.999 796.488,608.977 799.243,609.949 801.997,610.916 804.751,611.878 807.506,612.834 810.26,613.785 813.015,614.731 815.769,615.672 818.524,616.607 821.278,617.537 824.033,618.461 826.787,619.38 829.542,620.294 832.296,621.203 835.05,622.106 837.805,623.004 840.559,623.897 843.314,624.784 846.068,625.666 848.823,626.543 851.577,627.414 854.332,628.28 857.086,629.141 859.841,629.997 862.595,630.847 865.349,631.692 868.104,632.531 870.858,633.366 873.613,634.195 876.367,635.019 879.122,635.837 881.876,636.65 884.631,637.458 887.385,638.261 890.14,639.059 892.894,639.851 895.649,640.638 898.403,641.42 901.157,642.196 903.912,642.967 906.666,643.734 909.421,644.494 912.175,645.25 914.93,646.001 917.684,646.746 920.439,647.486 923.193,648.221 925.948,648.951 928.702,649.676 931.456,650.395 934.211,651.11 936.965,651.819 939.72,652.523 942.474,653.222 945.229,653.917 947.983,654.606 950.738,655.29 953.492,655.968 956.247,656.642 959.001,657.311 961.755,657.975 964.51,658.634 967.264,659.287 970.019,659.936 972.773,660.58 975.528,661.219 978.282,661.853 981.037,662.482 983.791,663.106 986.546,663.726 989.3,664.34 992.054,664.95 994.809,665.554 997.563,666.154 1000.32,666.749 1003.07,667.34 1005.83,667.925 1008.58,668.506 1011.34,669.082 1014.09,669.653 1016.84,670.22 1019.6,670.781 1022.35,671.338 1025.11,671.891 1027.86,672.439 1030.62,672.982 1033.37,673.52 1036.13,674.054 1038.88,674.583 1041.63,675.108 1044.39,675.628 1047.14,676.144 1049.9,676.655 1052.65,677.162 1055.41,677.664 1058.16,678.162 1060.92,678.656 1063.67,679.145 1066.42,679.63 1069.18,680.11 1071.93,680.586 1074.69,681.058 1077.44,681.525 1080.2,681.988 1082.95,682.447 1085.71,682.902 1088.46,683.353 1091.21,683.799 1093.97,684.241 1096.72,684.679 1099.48,685.113 1102.23,685.543 1104.99,685.969 1107.74,686.391 1110.5,686.809 1113.25,687.223 1116.01,687.632 1118.76,688.038 1121.51,688.44 1124.27,688.838 1127.02,689.232 1129.78,689.622 1132.53,690.009 1135.29,690.391 1138.04,690.77 1140.8,691.145 1143.55,691.516 1146.3,691.883 1149.06,692.247 1151.81,692.607 1154.57,692.963 1157.32,693.316 1160.08,693.665 1162.83,694.01 1165.59,694.352 1168.34,694.69 1171.09,695.025 1173.85,695.356 1176.6,695.684 1179.36,696.008 1182.11,696.329 1184.87,696.647 1187.62,696.96 1190.38,697.271 1193.13,697.578 1195.88,697.882 1198.64,698.183 1201.39,698.48 1204.15,698.774 1206.9,699.064 1209.66,699.352 1212.41,699.636 1215.17,699.917 1217.92,700.195 1220.67,700.47 1223.43,700.742 1226.18,701.01 1228.94,701.276 1231.69,701.538 1234.45,701.798 1237.2,702.054 1239.96,702.308 1242.71,702.558 1245.46,702.806 1248.22,703.051 1250.97,703.293 1253.73,703.531 1256.48,703.768 1259.24,704.001 1261.99,704.231 1264.75,704.459 1267.5,704.684 1270.25,704.907 1273.01,705.126 1275.76,705.343 1278.52,705.557 1281.27,705.769 1284.03,705.978 1286.78,706.185 1289.54,706.388 1292.29,706.59 1295.04,706.789 1297.8,706.985 1300.55,707.179 1303.31,707.371 1306.06,707.56 1308.82,707.746 1311.57,707.931 1314.33,708.113 1317.08,708.292 1319.83,708.469 1322.59,708.644 1325.34,708.817 1328.1,708.987 1330.85,709.155 1333.61,709.321 1336.36,709.485 1339.12,709.647 1341.87,709.806 1344.62,709.963 1347.38,710.118 1350.13,710.271 1352.89,710.422 1355.64,710.571 1358.4,710.718 1361.15,710.863 1363.91,711.005 1366.66,711.146 1369.41,711.285 1372.17,711.422 1374.92,711.557 1377.68,711.69 1380.43,711.821 1383.19,711.951 1385.94,712.078 1388.7,712.204 1391.45,712.328 1394.21,712.45 1396.96,712.57 1399.71,712.689 1402.47,712.806 1405.22,712.921 1407.98,713.034 1410.73,713.146 1413.49,713.256 1416.24,713.364 1419,713.471 1421.75,713.576 1424.5,713.68 1427.26,713.782 1430.01,713.882 1432.77,713.981 1435.52,714.079 1438.28,714.175 1441.03,714.269 1443.79,714.362 1446.54,714.453 1449.29,714.543 1452.05,714.632 1454.8,714.719 1457.56,714.805 1460.31,714.889 1463.07,714.972 1465.82,715.054 1468.58,715.135 1471.33,715.214 1474.08,715.292 1476.84,715.368 1479.59,715.443 1482.35,715.517 1485.1,715.59 1487.86,715.662 1490.61,715.732 1493.37,715.801 1496.12,715.869 1498.87,715.936 1501.63,716.001 1504.38,716.066 1507.14,716.129 1509.89,716.192 1512.65,716.253 1515.4,716.313 1518.16,716.372 1520.91,716.43 1523.66,716.487 1526.42,716.543 1529.17,716.598 1531.93,716.652 1534.68,716.705 1537.44,716.757 1540.19,716.808 1542.95,716.858 1545.7,716.907 1548.45,716.956 1551.21,717.003 1553.96,717.049 1556.72,717.095 1559.47,717.14 1562.23,717.184 1564.98,717.227 1567.74,717.269 1570.49,717.31 1573.24,717.351 1576,717.39 1578.75,717.429 1581.51,717.468 1584.26,717.505 1587.02,717.542 1589.77,717.578 1592.53,717.613 1595.28,717.647 1598.03,717.681 1600.79,717.714 1603.54,717.747 1606.3,717.778 1609.05,717.809 1611.81,717.84 1614.56,717.87 1617.32,717.899 1620.07,717.927 1622.82,717.955 1625.58,717.983 1628.33,718.01 1631.09,718.036 1633.84,718.061 1636.6,718.086 1639.35,718.111 1642.11,718.135 1644.86,718.158 1647.62,718.181 1650.37,718.204 1653.12,718.225 1655.88,718.247 1658.63,718.268 1661.39,718.288 1664.14,718.308 1666.9,718.327 1669.65,718.346 1672.41,718.365 1675.16,718.383 1677.91,718.4 1680.67,718.417 1683.42,718.434 1686.18,718.45 1688.93,718.466 1691.69,718.482 1694.44,718.497 1697.2,718.512 1699.95,718.526 1702.7,718.54 1705.46,718.553 1708.21,718.566 1710.97,718.579 1713.72,718.592 1716.48,718.604 1719.23,718.616 1721.99,718.627 1724.74,718.638 1727.49,718.649 1730.25,718.66 1733,718.67 1735.76,718.68 1738.51,718.689 1741.27,718.699 1744.02,718.708 1746.78,718.716 1749.53,718.725 1752.28,718.733 1755.04,718.741 1757.79,718.749 1760.55,718.756 1763.3,718.764 1766.06,718.771 1768.81,718.777 1771.57,718.784 1774.32,718.79 1777.07,718.796 1779.83,718.802 1782.58,718.808 1785.34,718.813 1788.09,718.819 1790.85,718.824 1793.6,718.829 1796.36,718.834 1799.11,718.838 1801.86,718.843 1804.62,718.847 1807.37,718.851 1810.13,718.855 1812.88,718.858 1815.64,718.862 1818.39,718.866 1821.15,718.869 1823.9,718.872 1826.65,718.875 1829.41,718.878 1832.16,718.881 1834.92,718.884 1837.67,718.886 1840.43,718.889 1843.18,718.891 1845.94,718.893 1848.69,718.895 1851.44,718.897 1854.2,718.899 1856.95,718.901 1859.71,718.903 1862.46,718.905 1865.22,718.906 1867.97,718.908 1870.73,718.909 1873.48,718.911 1876.23,718.912 1878.99,718.913 1881.74,718.915 1884.5,718.916 1887.25,718.917 1890.01,718.918 1892.76,718.919 1895.52,718.92 1898.27,718.92 1901.03,718.921 1903.78,718.922 1906.53,718.923 1909.29,718.923 1912.04,718.924 1914.8,718.925 1917.55,718.925 1920.31,718.926 1923.06,718.926 1925.82,718.927 1928.57,718.927 1931.32,718.928 1934.08,718.928 1936.83,718.929 1939.59,718.929 1942.34,718.929 1945.1,718.93 1947.85,718.93 1950.61,718.93 1953.36,718.93 1956.11,718.931 1958.87,718.931 1961.62,718.931 1964.38,718.931 1967.13,718.932 1969.89,718.932 1972.64,718.932 1975.4,718.932 1978.15,718.932 1980.9,718.933 1983.66,718.933 1986.41,718.933 1989.17,718.933 1991.92,718.933 1994.68,718.933 1997.43,718.933 2000.19,718.934 2002.94,718.934 2005.69,718.934 2008.45,718.934 2011.2,718.934 2013.96,718.934 2016.71,718.934 2019.47,718.934 2022.22,718.934 2024.98,718.934 2027.73,718.934 2030.48,718.934 2033.24,718.934 2035.99,718.934 2038.75,718.934 2041.5,718.934 2044.26,718.934 2047.01,718.935 2049.77,718.935 2052.52,718.935 2055.27,718.935 2058.03,718.935 2060.78,718.935 2063.54,718.935 2066.29,718.935 2069.05,718.935 2071.8,718.935 2074.56,718.935 2077.31,718.935 2080.06,718.935 2082.82,718.935 2085.57,718.935 2088.33,718.935 2091.08,718.935 2093.84,718.935 2096.59,718.935 2099.35,718.935 2102.1,718.935 2104.85,718.935 2107.61,718.935 2110.36,718.935 2113.12,718.935 2115.87,718.934 2118.63,718.934 2121.38,718.934 2124.14,718.934 2126.89,718.934 2129.64,718.934 2132.4,718.934 2135.15,718.934 2137.91,718.933 2140.66,718.933 2143.42,718.933 2146.17,718.933 2148.93,718.933 2151.68,718.932 2154.44,718.932 2157.19,718.932 2159.94,718.931 2162.7,718.931 2165.45,718.931 2168.21,718.93 2170.96,718.93 2173.72,718.929 2176.47,718.929 2179.23,718.928 2181.98,718.928 2184.73,718.927 2187.49,718.927 2190.24,718.926 2193,718.925 2195.75,718.925 2198.51,718.924 2201.26,718.923 2204.02,718.922 2206.77,718.922 2209.52,718.921 2212.28,718.92 2215.03,718.919 2217.79,718.918 2220.54,718.917 2223.3,718.916 2226.05,718.914 2228.81,718.913 2231.56,718.912 2234.31,718.911 2237.07,718.909 2239.82,718.908 2242.58,718.906 2245.33,718.905 2248.09,718.903 2250.84,718.902 2253.6,718.9 2256.35,718.898 2259.1,718.896 2261.86,718.894 2264.61,718.892 2267.37,718.89 2270.12,718.888 2272.88,718.886 2275.63,718.884 2278.39,718.882 2281.14,718.879 2283.89,718.877 2286.65,718.874 2289.4,718.871 2292.16,718.869 2294.91,718.866 2297.67,718.863 2300.42,718.86 2303.18,718.857 2305.93,718.854 2308.68,718.851 2311.44,718.847 2314.19,718.844 2316.95,718.84 2319.7,718.837 2322.46,718.833 2325.21,718.829 2327.97,718.825 2330.72,718.821 2333.47,718.817 2336.23,718.813 2338.98,718.809 2341.74,718.804 2344.49,718.8 2347.25,718.795 2350,718.79 2352.76,718.785 "/>
<polyline clip-path="url(#clip411)" style="stroke:#3da44d; stroke-linecap:round; stroke-linejoin:round; stroke-width:12; stroke-opacity:1; fill:none" points="149.191,-318.596 151.945,130.938 154.7,455.467 157.454,646.814 160.209,743.026 162.963,784.292 165.718,797.073 168.472,795.9 171.227,788.201 173.981,777.698 176.735,766.277 179.49,754.934 182.244,744.23 184.999,734.507 187.753,725.997 190.508,718.867 193.262,713.241 196.017,709.213 198.771,706.847 201.526,706.175 204.28,707.195 207.034,709.87 209.789,714.125 212.543,719.848 215.298,726.89 218.052,735.073 220.807,744.194 223.561,754.037 226.316,764.38 229.07,775.006 231.825,785.713 234.579,796.32 237.333,806.673 240.088,816.642 242.842,826.131 245.597,835.07 248.351,843.411 251.106,851.132 253.86,858.226 256.615,864.701 259.369,870.575 262.124,875.875 264.878,880.632 267.632,884.88 270.387,888.655 273.141,891.993 275.896,894.929 278.65,897.497 281.405,899.729 284.159,901.654 286.914,903.301 289.668,904.694 292.423,905.858 295.177,906.814 297.932,907.582 300.686,908.178 303.44,908.62 306.195,908.922 308.949,909.098 311.704,909.16 314.458,909.118 317.213,908.982 319.967,908.763 322.722,908.468 325.476,908.104 328.231,907.679 330.985,907.199 333.739,906.67 336.494,906.097 339.248,905.485 342.003,904.839 344.757,904.162 347.512,903.459 350.266,902.732 353.021,901.986 355.775,901.223 358.53,900.446 361.284,899.657 364.038,898.86 366.793,898.054 369.547,897.244 372.302,896.43 375.056,895.615 377.811,894.799 380.565,893.984 383.32,893.171 386.074,892.362 388.829,891.558 391.583,890.759 394.337,889.967 397.092,889.181 399.846,888.404 402.601,887.634 405.355,886.874 408.11,886.124 410.864,885.383 413.619,884.653 416.373,883.933 419.128,883.224 421.882,882.526 424.636,881.84 427.391,881.165 430.145,880.502 432.9,879.85 435.654,879.21 438.409,878.582 441.163,877.965 443.918,877.361 446.672,876.767 449.427,876.186 452.181,875.616 454.936,875.057 457.69,874.51 460.444,873.974 463.199,873.449 465.953,872.935 468.708,872.432 471.462,871.939 474.217,871.457 476.971,870.984 479.726,870.522 482.48,870.07 485.235,869.627 487.989,869.194 490.743,868.77 493.498,868.355 496.252,867.948 499.007,867.551 501.761,867.161 504.516,866.78 507.27,866.407 510.025,866.042 512.779,865.684 515.534,865.333 518.288,864.99 521.042,864.654 523.797,864.324 526.551,864.001 529.306,863.684 532.06,863.374 534.815,863.069 537.569,862.77 540.324,862.477 543.078,862.189 545.833,861.906 548.587,861.629 551.341,861.356 554.096,861.088 556.85,860.825 559.605,860.566 562.359,860.311 565.114,860.06 567.868,859.814 570.623,859.571 573.377,859.331 576.132,859.095 578.886,858.863 581.641,858.633 584.395,858.407 587.149,858.184 589.904,857.963 592.658,857.746 595.413,857.531 598.167,857.318 600.922,857.107 603.676,856.899 606.431,856.693 609.185,856.489 611.94,856.287 614.694,856.087 617.448,855.889 620.203,855.692 622.957,855.497 625.712,855.303 628.466,855.111 631.221,854.92 633.975,854.73 636.73,854.541 639.484,854.354 642.239,854.167 644.993,853.981 647.747,853.796 650.502,853.612 653.256,853.429 656.011,853.246 658.765,853.064 661.52,852.882 664.274,852.701 667.029,852.521 669.783,852.34 672.538,852.16 675.292,851.981 678.046,851.801 680.801,851.622 683.555,851.443 686.31,851.264 689.064,851.085 691.819,850.906 694.573,850.727 697.328,850.548 700.082,850.369 702.837,850.19 705.591,850.01 708.345,849.83 711.1,849.651 713.854,849.471 716.609,849.29 719.363,849.109 722.118,848.928 724.872,848.747 727.627,848.565 730.381,848.383 733.136,848.2 735.89,848.017 738.645,847.834 741.399,847.649 744.153,847.465 746.908,847.28 749.662,847.094 752.417,846.908 755.171,846.721 757.926,846.533 760.68,846.345 763.435,846.157 766.189,845.967 768.944,845.777 771.698,845.587 774.452,845.396 777.207,845.204 779.961,845.011 782.716,844.818 785.47,844.624 788.225,844.429 790.979,844.233 793.734,844.037 796.488,843.84 799.243,843.643 801.997,843.444 804.751,843.245 807.506,843.045 810.26,842.844 813.015,842.643 815.769,842.441 818.524,842.238 821.278,842.034 824.033,841.83 826.787,841.624 829.542,841.418 832.296,841.211 835.05,841.004 837.805,840.796 840.559,840.587 843.314,840.377 846.068,840.166 848.823,839.954 851.577,839.742 854.332,839.529 857.086,839.315 859.841,839.101 862.595,838.886 865.349,838.67 868.104,838.453 870.858,838.235 873.613,838.017 876.367,837.798 879.122,837.578 881.876,837.357 884.631,837.136 887.385,836.914 890.14,836.691 892.894,836.468 895.649,836.243 898.403,836.018 901.157,835.793 903.912,835.566 906.666,835.339 909.421,835.111 912.175,834.883 914.93,834.654 917.684,834.424 920.439,834.193 923.193,833.962 925.948,833.73 928.702,833.497 931.456,833.264 934.211,833.03 936.965,832.795 939.72,832.56 942.474,832.324 945.229,832.088 947.983,831.851 950.738,831.613 953.492,831.374 956.247,831.135 959.001,830.896 961.755,830.656 964.51,830.415 967.264,830.173 970.019,829.932 972.773,829.689 975.528,829.446 978.282,829.202 981.037,828.958 983.791,828.713 986.546,828.468 989.3,828.222 992.054,827.976 994.809,827.729 997.563,827.481 1000.32,827.233 1003.07,826.985 1005.83,826.736 1008.58,826.486 1011.34,826.236 1014.09,825.986 1016.84,825.735 1019.6,825.484 1022.35,825.232 1025.11,824.98 1027.86,824.727 1030.62,824.474 1033.37,824.221 1036.13,823.966 1038.88,823.712 1041.63,823.457 1044.39,823.202 1047.14,822.946 1049.9,822.69 1052.65,822.434 1055.41,822.177 1058.16,821.92 1060.92,821.662 1063.67,821.405 1066.42,821.146 1069.18,820.887 1071.93,820.629 1074.69,820.369 1077.44,820.11 1080.2,819.85 1082.95,819.589 1085.71,819.329 1088.46,819.068 1091.21,818.807 1093.97,818.545 1096.72,818.283 1099.48,818.021 1102.23,817.759 1104.99,817.496 1107.74,817.233 1110.5,816.97 1113.25,816.707 1116.01,816.443 1118.76,816.18 1121.51,815.915 1124.27,815.651 1127.02,815.386 1129.78,815.122 1132.53,814.857 1135.29,814.591 1138.04,814.326 1140.8,814.06 1143.55,813.795 1146.3,813.529 1149.06,813.263 1151.81,812.996 1154.57,812.73 1157.32,812.463 1160.08,812.196 1162.83,811.929 1165.59,811.662 1168.34,811.395 1171.09,811.127 1173.85,810.86 1176.6,810.592 1179.36,810.324 1182.11,810.057 1184.87,809.789 1187.62,809.52 1190.38,809.252 1193.13,808.984 1195.88,808.715 1198.64,808.447 1201.39,808.178 1204.15,807.91 1206.9,807.641 1209.66,807.372 1212.41,807.103 1215.17,806.835 1217.92,806.565 1220.67,806.297 1223.43,806.027 1226.18,805.758 1228.94,805.489 1231.69,805.22 1234.45,804.951 1237.2,804.682 1239.96,804.412 1242.71,804.143 1245.46,803.874 1248.22,803.605 1250.97,803.335 1253.73,803.066 1256.48,802.797 1259.24,802.527 1261.99,802.258 1264.75,801.989 1267.5,801.72 1270.25,801.451 1273.01,801.182 1275.76,800.912 1278.52,800.643 1281.27,800.374 1284.03,800.105 1286.78,799.837 1289.54,799.568 1292.29,799.299 1295.04,799.03 1297.8,798.762 1300.55,798.493 1303.31,798.224 1306.06,797.956 1308.82,797.688 1311.57,797.419 1314.33,797.151 1317.08,796.883 1319.83,796.615 1322.59,796.347 1325.34,796.079 1328.1,795.811 1330.85,795.544 1333.61,795.276 1336.36,795.009 1339.12,794.742 1341.87,794.474 1344.62,794.207 1347.38,793.941 1350.13,793.674 1352.89,793.407 1355.64,793.141 1358.4,792.874 1361.15,792.608 1363.91,792.342 1366.66,792.076 1369.41,791.81 1372.17,791.544 1374.92,791.279 1377.68,791.014 1380.43,790.749 1383.19,790.484 1385.94,790.219 1388.7,789.954 1391.45,789.689 1394.21,789.425 1396.96,789.161 1399.71,788.897 1402.47,788.633 1405.22,788.37 1407.98,788.106 1410.73,787.843 1413.49,787.58 1416.24,787.317 1419,787.055 1421.75,786.792 1424.5,786.53 1427.26,786.268 1430.01,786.006 1432.77,785.744 1435.52,785.483 1438.28,785.222 1441.03,784.961 1443.79,784.7 1446.54,784.439 1449.29,784.179 1452.05,783.919 1454.8,783.659 1457.56,783.399 1460.31,783.14 1463.07,782.881 1465.82,782.622 1468.58,782.363 1471.33,782.105 1474.08,781.846 1476.84,781.589 1479.59,781.331 1482.35,781.073 1485.1,780.816 1487.86,780.559 1490.61,780.302 1493.37,780.046 1496.12,779.79 1498.87,779.534 1501.63,779.278 1504.38,779.022 1507.14,778.767 1509.89,778.512 1512.65,778.258 1515.4,778.003 1518.16,777.749 1520.91,777.495 1523.66,777.242 1526.42,776.988 1529.17,776.735 1531.93,776.482 1534.68,776.23 1537.44,775.978 1540.19,775.726 1542.95,775.474 1545.7,775.223 1548.45,774.972 1551.21,774.721 1553.96,774.471 1556.72,774.22 1559.47,773.971 1562.23,773.721 1564.98,773.472 1567.74,773.222 1570.49,772.974 1573.24,772.725 1576,772.477 1578.75,772.229 1581.51,771.982 1584.26,771.735 1587.02,771.488 1589.77,771.241 1592.53,770.995 1595.28,770.749 1598.03,770.503 1600.79,770.258 1603.54,770.012 1606.3,769.768 1609.05,769.523 1611.81,769.279 1614.56,769.035 1617.32,768.792 1620.07,768.549 1622.82,768.306 1625.58,768.063 1628.33,767.821 1631.09,767.579 1633.84,767.338 1636.6,767.096 1639.35,766.855 1642.11,766.615 1644.86,766.374 1647.62,766.135 1650.37,765.895 1653.12,765.656 1655.88,765.417 1658.63,765.178 1661.39,764.94 1664.14,764.702 1666.9,764.464 1669.65,764.227 1672.41,763.99 1675.16,763.753 1677.91,763.517 1680.67,763.281 1683.42,763.045 1686.18,762.81 1688.93,762.575 1691.69,762.341 1694.44,762.106 1697.2,761.872 1699.95,761.639 1702.7,761.406 1705.46,761.173 1708.21,760.94 1710.97,760.708 1713.72,760.476 1716.48,760.245 1719.23,760.013 1721.99,759.783 1724.74,759.552 1727.49,759.322 1730.25,759.092 1733,758.863 1735.76,758.634 1738.51,758.405 1741.27,758.177 1744.02,757.949 1746.78,757.721 1749.53,757.494 1752.28,757.267 1755.04,757.04 1757.79,756.814 1760.55,756.588 1763.3,756.363 1766.06,756.138 1768.81,755.913 1771.57,755.688 1774.32,755.464 1777.07,755.24 1779.83,755.017 1782.58,754.794 1785.34,754.571 1788.09,754.349 1790.85,754.127 1793.6,753.906 1796.36,753.684 1799.11,753.463 1801.86,753.243 1804.62,753.023 1807.37,752.803 1810.13,752.584 1812.88,752.365 1815.64,752.146 1818.39,751.928 1821.15,751.71 1823.9,751.492 1826.65,751.275 1829.41,751.058 1832.16,750.842 1834.92,750.625 1837.67,750.41 1840.43,750.194 1843.18,749.979 1845.94,749.764 1848.69,749.55 1851.44,749.336 1854.2,749.123 1856.95,748.909 1859.71,748.697 1862.46,748.484 1865.22,748.272 1867.97,748.06 1870.73,747.849 1873.48,747.638 1876.23,747.427 1878.99,747.217 1881.74,747.007 1884.5,746.798 1887.25,746.588 1890.01,746.38 1892.76,746.171 1895.52,745.963 1898.27,745.756 1901.03,745.548 1903.78,745.341 1906.53,745.135 1909.29,744.928 1912.04,744.723 1914.8,744.517 1917.55,744.312 1920.31,744.108 1923.06,743.903 1925.82,743.699 1928.57,743.496 1931.32,743.292 1934.08,743.089 1936.83,742.887 1939.59,742.685 1942.34,742.483 1945.1,742.282 1947.85,742.081 1950.61,741.88 1953.36,741.68 1956.11,741.48 1958.87,741.28 1961.62,741.081 1964.38,740.882 1967.13,740.684 1969.89,740.486 1972.64,740.288 1975.4,740.091 1978.15,739.894 1980.9,739.697 1983.66,739.501 1986.41,739.305 1989.17,739.11 1991.92,738.915 1994.68,738.72 1997.43,738.526 2000.19,738.332 2002.94,738.138 2005.69,737.945 2008.45,737.752 2011.2,737.56 2013.96,737.367 2016.71,737.176 2019.47,736.984 2022.22,736.793 2024.98,736.603 2027.73,736.412 2030.48,736.223 2033.24,736.033 2035.99,735.844 2038.75,735.655 2041.5,735.467 2044.26,735.279 2047.01,735.091 2049.77,734.904 2052.52,734.717 2055.27,734.53 2058.03,734.344 2060.78,734.158 2063.54,733.973 2066.29,733.787 2069.05,733.603 2071.8,733.418 2074.56,733.234 2077.31,733.051 2080.06,732.867 2082.82,732.685 2085.57,732.502 2088.33,732.32 2091.08,732.138 2093.84,731.957 2096.59,731.776 2099.35,731.595 2102.1,731.414 2104.85,731.235 2107.61,731.055 2110.36,730.876 2113.12,730.697 2115.87,730.518 2118.63,730.34 2121.38,730.162 2124.14,729.985 2126.89,729.808 2129.64,729.631 2132.4,729.455 2135.15,729.279 2137.91,729.104 2140.66,728.928 2143.42,728.753 2146.17,728.579 2148.93,728.405 2151.68,728.231 2154.44,728.058 2157.19,727.884 2159.94,727.712 2162.7,727.539 2165.45,727.368 2168.21,727.196 2170.96,727.025 2173.72,726.854 2176.47,726.683 2179.23,726.513 2181.98,726.343 2184.73,726.174 2187.49,726.005 2190.24,725.836 2193,725.668 2195.75,725.5 2198.51,725.332 2201.26,725.165 2204.02,724.998 2206.77,724.831 2209.52,724.665 2212.28,724.499 2215.03,724.334 2217.79,724.168 2220.54,724.004 2223.3,723.839 2226.05,723.675 2228.81,723.511 2231.56,723.348 2234.31,723.185 2237.07,723.022 2239.82,722.86 2242.58,722.698 2245.33,722.536 2248.09,722.375 2250.84,722.214 2253.6,722.054 2256.35,721.894 2259.1,721.734 2261.86,721.574 2264.61,721.415 2267.37,721.256 2270.12,721.098 2272.88,720.94 2275.63,720.782 2278.39,720.625 2281.14,720.468 2283.89,720.311 2286.65,720.155 2289.4,719.999 2292.16,719.843 2294.91,719.688 2297.67,719.533 2300.42,719.378 2303.18,719.224 2305.93,719.07 2308.68,718.917 2311.44,718.764 2314.19,718.611 2316.95,718.458 2319.7,718.306 2322.46,718.154 2325.21,718.003 2327.97,717.852 2330.72,717.701 2333.47,717.55 2336.23,717.4 2338.98,717.251 2341.74,717.101 2344.49,716.952 2347.25,716.804 2350,716.655 2352.76,716.507 "/>
<path clip-path="url(#clip410)" d="M1969.85 1377.32 L2279.3 1377.32 L2279.3 1169.96 L1969.85 1169.96  Z" fill="#ffffff" fill-rule="evenodd" fill-opacity="1"/>
<polyline clip-path="url(#clip410)" style="stroke:#000000; stroke-linecap:round; stroke-linejoin:round; stroke-width:4; stroke-opacity:1; fill:none" points="1969.85,1377.32 2279.3,1377.32 2279.3,1169.96 1969.85,1169.96 1969.85,1377.32 "/>
<polyline clip-path="url(#clip410)" style="stroke:#009af9; stroke-linecap:round; stroke-linejoin:round; stroke-width:12; stroke-opacity:1; fill:none" points="1994.33,1221.8 2141.24,1221.8 "/>
<path clip-path="url(#clip410)" d="M2165.72 1228.84 L2165.72 1213.15 L2169.98 1213.15 L2169.98 1228.68 Q2169.98 1232.36 2171.42 1234.21 Q2172.85 1236.04 2175.72 1236.04 Q2179.17 1236.04 2181.16 1233.84 Q2183.18 1231.64 2183.18 1227.85 L2183.18 1213.15 L2187.44 1213.15 L2187.44 1239.08 L2183.18 1239.08 L2183.18 1235.09 Q2181.63 1237.45 2179.57 1238.61 Q2177.53 1239.75 2174.82 1239.75 Q2170.35 1239.75 2168.04 1236.97 Q2165.72 1234.19 2165.72 1228.84 M2176.44 1212.52 L2176.44 1212.52 Z" fill="#000000" fill-rule="nonzero" fill-opacity="1" /><path clip-path="url(#clip410)" d="M2195.82 1203.06 L2205.63 1203.06 L2205.63 1206.37 L2200.07 1206.37 L2200.07 1242.02 L2205.63 1242.02 L2205.63 1245.33 L2195.82 1245.33 L2195.82 1203.06 Z" fill="#000000" fill-rule="nonzero" fill-opacity="1" /><path clip-path="url(#clip410)" d="M2216.12 1235.14 L2223.76 1235.14 L2223.76 1208.77 L2215.44 1210.44 L2215.44 1206.18 L2223.71 1204.52 L2228.38 1204.52 L2228.38 1235.14 L2236.02 1235.14 L2236.02 1239.08 L2216.12 1239.08 L2216.12 1235.14 Z" fill="#000000" fill-rule="nonzero" fill-opacity="1" /><path clip-path="url(#clip410)" d="M2254.82 1203.06 L2254.82 1245.33 L2245 1245.33 L2245 1242.02 L2250.54 1242.02 L2250.54 1206.37 L2245 1206.37 L2245 1203.06 L2254.82 1203.06 Z" fill="#000000" fill-rule="nonzero" fill-opacity="1" /><polyline clip-path="url(#clip410)" style="stroke:#e26f46; stroke-linecap:round; stroke-linejoin:round; stroke-width:12; stroke-opacity:1; fill:none" points="1994.33,1273.64 2141.24,1273.64 "/>
<path clip-path="url(#clip410)" d="M2165.72 1280.68 L2165.72 1264.99 L2169.98 1264.99 L2169.98 1280.52 Q2169.98 1284.2 2171.42 1286.05 Q2172.85 1287.88 2175.72 1287.88 Q2179.17 1287.88 2181.16 1285.68 Q2183.18 1283.48 2183.18 1279.69 L2183.18 1264.99 L2187.44 1264.99 L2187.44 1290.92 L2183.18 1290.92 L2183.18 1286.93 Q2181.63 1289.29 2179.57 1290.45 Q2177.53 1291.59 2174.82 1291.59 Q2170.35 1291.59 2168.04 1288.81 Q2165.72 1286.03 2165.72 1280.68 M2176.44 1264.36 L2176.44 1264.36 Z" fill="#000000" fill-rule="nonzero" fill-opacity="1" /><path clip-path="url(#clip410)" d="M2195.82 1254.9 L2205.63 1254.9 L2205.63 1258.21 L2200.07 1258.21 L2200.07 1293.86 L2205.63 1293.86 L2205.63 1297.17 L2195.82 1297.17 L2195.82 1254.9 Z" fill="#000000" fill-rule="nonzero" fill-opacity="1" /><path clip-path="url(#clip410)" d="M2219.33 1286.98 L2235.65 1286.98 L2235.65 1290.92 L2213.71 1290.92 L2213.71 1286.98 Q2216.37 1284.23 2220.95 1279.6 Q2225.56 1274.94 2226.74 1273.6 Q2228.99 1271.08 2229.87 1269.34 Q2230.77 1267.58 2230.77 1265.89 Q2230.77 1263.14 2228.82 1261.4 Q2226.9 1259.67 2223.8 1259.67 Q2221.6 1259.67 2219.15 1260.43 Q2216.72 1261.19 2213.94 1262.74 L2213.94 1258.02 Q2216.76 1256.89 2219.22 1256.31 Q2221.67 1255.73 2223.71 1255.73 Q2229.08 1255.73 2232.27 1258.42 Q2235.47 1261.1 2235.47 1265.59 Q2235.47 1267.72 2234.66 1269.64 Q2233.87 1271.54 2231.76 1274.13 Q2231.19 1274.8 2228.08 1278.02 Q2224.98 1281.22 2219.33 1286.98 Z" fill="#000000" fill-rule="nonzero" fill-opacity="1" /><path clip-path="url(#clip410)" d="M2254.82 1254.9 L2254.82 1297.17 L2245 1297.17 L2245 1293.86 L2250.54 1293.86 L2250.54 1258.21 L2245 1258.21 L2245 1254.9 L2254.82 1254.9 Z" fill="#000000" fill-rule="nonzero" fill-opacity="1" /><polyline clip-path="url(#clip410)" style="stroke:#3da44d; stroke-linecap:round; stroke-linejoin:round; stroke-width:12; stroke-opacity:1; fill:none" points="1994.33,1325.48 2141.24,1325.48 "/>
<path clip-path="url(#clip410)" d="M2165.72 1332.52 L2165.72 1316.83 L2169.98 1316.83 L2169.98 1332.36 Q2169.98 1336.04 2171.42 1337.89 Q2172.85 1339.72 2175.72 1339.72 Q2179.17 1339.72 2181.16 1337.52 Q2183.18 1335.32 2183.18 1331.53 L2183.18 1316.83 L2187.44 1316.83 L2187.44 1342.76 L2183.18 1342.76 L2183.18 1338.77 Q2181.63 1341.13 2179.57 1342.29 Q2177.53 1343.43 2174.82 1343.43 Q2170.35 1343.43 2168.04 1340.65 Q2165.72 1337.87 2165.72 1332.52 M2176.44 1316.2 L2176.44 1316.2 Z" fill="#000000" fill-rule="nonzero" fill-opacity="1" /><path clip-path="url(#clip410)" d="M2206.44 1306.78 Q2203.34 1312.11 2201.83 1317.32 Q2200.33 1322.52 2200.33 1327.87 Q2200.33 1333.22 2201.83 1338.47 Q2203.36 1343.7 2206.44 1349.01 L2202.74 1349.01 Q2199.26 1343.57 2197.53 1338.31 Q2195.82 1333.06 2195.82 1327.87 Q2195.82 1322.71 2197.53 1317.48 Q2199.24 1312.25 2202.74 1306.78 L2206.44 1306.78 Z" fill="#000000" fill-rule="nonzero" fill-opacity="1" /><path clip-path="url(#clip410)" d="M2218.92 1309.47 L2218.92 1316.83 L2227.69 1316.83 L2227.69 1320.14 L2218.92 1320.14 L2218.92 1334.21 Q2218.92 1337.38 2219.77 1338.29 Q2220.65 1339.19 2223.32 1339.19 L2227.69 1339.19 L2227.69 1342.76 L2223.32 1342.76 Q2218.38 1342.76 2216.51 1340.93 Q2214.63 1339.07 2214.63 1334.21 L2214.63 1320.14 L2211.51 1320.14 L2211.51 1316.83 L2214.63 1316.83 L2214.63 1309.47 L2218.92 1309.47 Z" fill="#000000" fill-rule="nonzero" fill-opacity="1" /><path clip-path="url(#clip410)" d="M2232.62 1306.78 L2236.32 1306.78 Q2239.8 1312.25 2241.51 1317.48 Q2243.25 1322.71 2243.25 1327.87 Q2243.25 1333.06 2241.51 1338.31 Q2239.8 1343.57 2236.32 1349.01 L2232.62 1349.01 Q2235.7 1343.7 2237.2 1338.47 Q2238.73 1333.22 2238.73 1327.87 Q2238.73 1322.52 2237.2 1317.32 Q2235.7 1312.11 2232.62 1306.78 Z" fill="#000000" fill-rule="nonzero" fill-opacity="1" /></svg>
