<?xml version="1.0" encoding="utf-8"?>
<svg xmlns="http://www.w3.org/2000/svg" xmlns:xlink="http://www.w3.org/1999/xlink" width="600" height="400" viewBox="0 0 2400 1600">
<defs>
  <clipPath id="clip960">
    <rect x="0" y="0" width="2400" height="1600"/>
  </clipPath>
</defs>
<path clip-path="url(#clip960)" d="M0 1600 L2400 1600 L2400 0 L0 0  Z" fill="#ffffff" fill-rule="evenodd" fill-opacity="1"/>
<defs>
  <clipPath id="clip961">
    <rect x="480" y="0" width="1681" height="1600"/>
  </clipPath>
</defs>
<path clip-path="url(#clip960)" d="M149.191 1423.18 L2352.76 1423.18 L2352.76 47.2441 L149.191 47.2441  Z" fill="#ffffff" fill-rule="evenodd" fill-opacity="1"/>
<defs>
  <clipPath id="clip962">
    <rect x="149" y="47" width="2205" height="1377"/>
  </clipPath>
</defs>
<polyline clip-path="url(#clip962)" style="stroke:#000000; stroke-linecap:round; stroke-linejoin:round; stroke-width:2; stroke-opacity:0.1; fill:none" points="149.191,1423.18 149.191,47.2441 "/>
<polyline clip-path="url(#clip962)" style="stroke:#000000; stroke-linecap:round; stroke-linejoin:round; stroke-width:2; stroke-opacity:0.1; fill:none" points="700.082,1423.18 700.082,47.2441 "/>
<polyline clip-path="url(#clip962)" style="stroke:#000000; stroke-linecap:round; stroke-linejoin:round; stroke-width:2; stroke-opacity:0.1; fill:none" points="1250.97,1423.18 1250.97,47.2441 "/>
<polyline clip-path="url(#clip962)" style="stroke:#000000; stroke-linecap:round; stroke-linejoin:round; stroke-width:2; stroke-opacity:0.1; fill:none" points="1801.86,1423.18 1801.86,47.2441 "/>
<polyline clip-path="url(#clip962)" style="stroke:#000000; stroke-linecap:round; stroke-linejoin:round; stroke-width:2; stroke-opacity:0.1; fill:none" points="2352.76,1423.18 2352.76,47.2441 "/>
<polyline clip-path="url(#clip960)" style="stroke:#000000; stroke-linecap:round; stroke-linejoin:round; stroke-width:4; stroke-opacity:1; fill:none" points="149.191,1423.18 2352.76,1423.18 "/>
<polyline clip-path="url(#clip960)" style="stroke:#000000; stroke-linecap:round; stroke-linejoin:round; stroke-width:4; stroke-opacity:1; fill:none" points="149.191,1423.18 149.191,1404.28 "/>
<polyline clip-path="url(#clip960)" style="stroke:#000000; stroke-linecap:round; stroke-linejoin:round; stroke-width:4; stroke-opacity:1; fill:none" points="700.082,1423.18 700.082,1404.28 "/>
<polyline clip-path="url(#clip960)" style="stroke:#000000; stroke-linecap:round; stroke-linejoin:round; stroke-width:4; stroke-opacity:1; fill:none" points="1250.97,1423.18 1250.97,1404.28 "/>
<polyline clip-path="url(#clip960)" style="stroke:#000000; stroke-linecap:round; stroke-linejoin:round; stroke-width:4; stroke-opacity:1; fill:none" points="1801.86,1423.18 1801.86,1404.28 "/>
<polyline clip-path="url(#clip960)" style="stroke:#000000; stroke-linecap:round; stroke-linejoin:round; stroke-width:4; stroke-opacity:1; fill:none" points="2352.76,1423.18 2352.76,1404.28 "/>
<path clip-path="url(#clip960)" d="M149.191 1454.1 Q145.58 1454.1 143.751 1457.66 Q141.946 1461.2 141.946 1468.33 Q141.946 1475.44 143.751 1479.01 Q145.58 1482.55 149.191 1482.55 Q152.825 1482.55 154.631 1479.01 Q156.459 1475.44 156.459 1468.33 Q156.459 1461.2 154.631 1457.66 Q152.825 1454.1 149.191 1454.1 M149.191 1450.39 Q155.001 1450.39 158.057 1455 Q161.135 1459.58 161.135 1468.33 Q161.135 1477.06 158.057 1481.67 Q155.001 1486.25 149.191 1486.25 Q143.381 1486.25 140.302 1481.67 Q137.246 1477.06 137.246 1468.33 Q137.246 1459.58 140.302 1455 Q143.381 1450.39 149.191 1450.39 Z" fill="#000000" fill-rule="nonzero" fill-opacity="1" /><path clip-path="url(#clip960)" d="M694.735 1481.64 L711.054 1481.64 L711.054 1485.58 L689.11 1485.58 L689.11 1481.64 Q691.772 1478.89 696.355 1474.26 Q700.962 1469.61 702.142 1468.27 Q704.388 1465.74 705.267 1464.01 Q706.17 1462.25 706.17 1460.56 Q706.17 1457.8 704.226 1456.07 Q702.304 1454.33 699.203 1454.33 Q697.003 1454.33 694.55 1455.09 Q692.119 1455.86 689.341 1457.41 L689.341 1452.69 Q692.166 1451.55 694.619 1450.97 Q697.073 1450.39 699.11 1450.39 Q704.48 1450.39 707.675 1453.08 Q710.869 1455.77 710.869 1460.26 Q710.869 1462.39 710.059 1464.31 Q709.272 1466.2 707.165 1468.8 Q706.587 1469.47 703.485 1472.69 Q700.383 1475.88 694.735 1481.64 Z" fill="#000000" fill-rule="nonzero" fill-opacity="1" /><path clip-path="url(#clip960)" d="M1253.98 1455.09 L1242.18 1473.54 L1253.98 1473.54 L1253.98 1455.09 M1252.76 1451.02 L1258.64 1451.02 L1258.64 1473.54 L1263.57 1473.54 L1263.57 1477.43 L1258.64 1477.43 L1258.64 1485.58 L1253.98 1485.58 L1253.98 1477.43 L1238.38 1477.43 L1238.38 1472.92 L1252.76 1451.02 Z" fill="#000000" fill-rule="nonzero" fill-opacity="1" /><path clip-path="url(#clip960)" d="M1802.27 1466.44 Q1799.12 1466.44 1797.27 1468.59 Q1795.44 1470.74 1795.44 1474.49 Q1795.44 1478.22 1797.27 1480.39 Q1799.12 1482.55 1802.27 1482.55 Q1805.42 1482.55 1807.25 1480.39 Q1809.1 1478.22 1809.1 1474.49 Q1809.1 1470.74 1807.25 1468.59 Q1805.42 1466.44 1802.27 1466.44 M1811.55 1451.78 L1811.55 1456.04 Q1809.79 1455.21 1807.99 1454.77 Q1806.2 1454.33 1804.45 1454.33 Q1799.82 1454.33 1797.36 1457.45 Q1794.93 1460.58 1794.58 1466.9 Q1795.95 1464.89 1798.01 1463.82 Q1800.07 1462.73 1802.55 1462.73 Q1807.76 1462.73 1810.77 1465.9 Q1813.8 1469.05 1813.8 1474.49 Q1813.8 1479.82 1810.65 1483.03 Q1807.5 1486.25 1802.27 1486.25 Q1796.27 1486.25 1793.1 1481.67 Q1789.93 1477.06 1789.93 1468.33 Q1789.93 1460.14 1793.82 1455.28 Q1797.71 1450.39 1804.26 1450.39 Q1806.02 1450.39 1807.8 1450.74 Q1809.61 1451.09 1811.55 1451.78 Z" fill="#000000" fill-rule="nonzero" fill-opacity="1" /><path clip-path="url(#clip960)" d="M2352.76 1469.17 Q2349.42 1469.17 2347.5 1470.95 Q2345.6 1472.73 2345.6 1475.86 Q2345.6 1478.98 2347.5 1480.77 Q2349.42 1482.55 2352.76 1482.55 Q2356.09 1482.55 2358.01 1480.77 Q2359.93 1478.96 2359.93 1475.86 Q2359.93 1472.73 2358.01 1470.95 Q2356.11 1469.17 2352.76 1469.17 M2348.08 1467.18 Q2345.07 1466.44 2343.38 1464.38 Q2341.71 1462.32 2341.71 1459.35 Q2341.71 1455.21 2344.65 1452.8 Q2347.62 1450.39 2352.76 1450.39 Q2357.92 1450.39 2360.86 1452.8 Q2363.8 1455.21 2363.8 1459.35 Q2363.8 1462.32 2362.11 1464.38 Q2360.44 1466.44 2357.45 1467.18 Q2360.83 1467.96 2362.71 1470.26 Q2364.61 1472.55 2364.61 1475.86 Q2364.61 1480.88 2361.53 1483.57 Q2358.47 1486.25 2352.76 1486.25 Q2347.04 1486.25 2343.96 1483.57 Q2340.9 1480.88 2340.9 1475.86 Q2340.9 1472.55 2342.8 1470.26 Q2344.7 1467.96 2348.08 1467.18 M2346.37 1459.79 Q2346.37 1462.48 2348.03 1463.98 Q2349.72 1465.49 2352.76 1465.49 Q2355.77 1465.49 2357.45 1463.98 Q2359.17 1462.48 2359.17 1459.79 Q2359.17 1457.11 2357.45 1455.6 Q2355.77 1454.1 2352.76 1454.1 Q2349.72 1454.1 2348.03 1455.6 Q2346.37 1457.11 2346.37 1459.79 Z" fill="#000000" fill-rule="nonzero" fill-opacity="1" /><path clip-path="url(#clip960)" d="M1250.03 1522.27 L1250.03 1532.4 L1262.1 1532.4 L1262.1 1536.95 L1250.03 1536.95 L1250.03 1556.3 Q1250.03 1560.66 1251.21 1561.9 Q1252.42 1563.14 1256.08 1563.14 L1262.1 1563.14 L1262.1 1568.04 L1256.08 1568.04 Q1249.3 1568.04 1246.72 1565.53 Q1244.15 1562.98 1244.15 1556.3 L1244.15 1536.95 L1239.85 1536.95 L1239.85 1532.4 L1244.15 1532.4 L1244.15 1522.27 L1250.03 1522.27 Z" fill="#000000" fill-rule="nonzero" fill-opacity="1" /><polyline clip-path="url(#clip962)" style="stroke:#000000; stroke-linecap:round; stroke-linejoin:round; stroke-width:2; stroke-opacity:0.1; fill:none" points="149.191,1423.18 2352.76,1423.18 "/>
<polyline clip-path="url(#clip962)" style="stroke:#000000; stroke-linecap:round; stroke-linejoin:round; stroke-width:2; stroke-opacity:0.1; fill:none" points="149.191,1193.86 2352.76,1193.86 "/>
<polyline clip-path="url(#clip962)" style="stroke:#000000; stroke-linecap:round; stroke-linejoin:round; stroke-width:2; stroke-opacity:0.1; fill:none" points="149.191,964.535 2352.76,964.535 "/>
<polyline clip-path="url(#clip962)" style="stroke:#000000; stroke-linecap:round; stroke-linejoin:round; stroke-width:2; stroke-opacity:0.1; fill:none" points="149.191,735.212 2352.76,735.212 "/>
<polyline clip-path="url(#clip962)" style="stroke:#000000; stroke-linecap:round; stroke-linejoin:round; stroke-width:2; stroke-opacity:0.1; fill:none" points="149.191,505.889 2352.76,505.889 "/>
<polyline clip-path="url(#clip962)" style="stroke:#000000; stroke-linecap:round; stroke-linejoin:round; stroke-width:2; stroke-opacity:0.1; fill:none" points="149.191,276.567 2352.76,276.567 "/>
<polyline clip-path="url(#clip962)" style="stroke:#000000; stroke-linecap:round; stroke-linejoin:round; stroke-width:2; stroke-opacity:0.1; fill:none" points="149.191,47.2441 2352.76,47.2441 "/>
<polyline clip-path="url(#clip960)" style="stroke:#000000; stroke-linecap:round; stroke-linejoin:round; stroke-width:4; stroke-opacity:1; fill:none" points="149.191,1423.18 149.191,47.2441 "/>
<polyline clip-path="url(#clip960)" style="stroke:#000000; stroke-linecap:round; stroke-linejoin:round; stroke-width:4; stroke-opacity:1; fill:none" points="149.191,1423.18 168.089,1423.18 "/>
<polyline clip-path="url(#clip960)" style="stroke:#000000; stroke-linecap:round; stroke-linejoin:round; stroke-width:4; stroke-opacity:1; fill:none" points="149.191,1193.86 168.089,1193.86 "/>
<polyline clip-path="url(#clip960)" style="stroke:#000000; stroke-linecap:round; stroke-linejoin:round; stroke-width:4; stroke-opacity:1; fill:none" points="149.191,964.535 168.089,964.535 "/>
<polyline clip-path="url(#clip960)" style="stroke:#000000; stroke-linecap:round; stroke-linejoin:round; stroke-width:4; stroke-opacity:1; fill:none" points="149.191,735.212 168.089,735.212 "/>
<polyline clip-path="url(#clip960)" style="stroke:#000000; stroke-linecap:round; stroke-linejoin:round; stroke-width:4; stroke-opacity:1; fill:none" points="149.191,505.889 168.089,505.889 "/>
<polyline clip-path="url(#clip960)" style="stroke:#000000; stroke-linecap:round; stroke-linejoin:round; stroke-width:4; stroke-opacity:1; fill:none" points="149.191,276.567 168.089,276.567 "/>
<polyline clip-path="url(#clip960)" style="stroke:#000000; stroke-linecap:round; stroke-linejoin:round; stroke-width:4; stroke-opacity:1; fill:none" points="149.191,47.2441 168.089,47.2441 "/>
<path clip-path="url(#clip960)" d="M51.3162 1423.63 L80.992 1423.63 L80.992 1427.57 L51.3162 1427.57 L51.3162 1423.63 Z" fill="#000000" fill-rule="nonzero" fill-opacity="1" /><path clip-path="url(#clip960)" d="M101.663 1421.32 Q98.515 1421.32 96.6632 1423.47 Q94.8345 1425.62 94.8345 1429.37 Q94.8345 1433.1 96.6632 1435.27 Q98.515 1437.43 101.663 1437.43 Q104.811 1437.43 106.64 1435.27 Q108.492 1433.1 108.492 1429.37 Q108.492 1425.62 106.64 1423.47 Q104.811 1421.32 101.663 1421.32 M110.946 1406.66 L110.946 1410.92 Q109.186 1410.09 107.381 1409.65 Q105.598 1409.21 103.839 1409.21 Q99.2095 1409.21 96.7558 1412.33 Q94.3252 1415.46 93.978 1421.78 Q95.3437 1419.77 97.4039 1418.7 Q99.4641 1417.61 101.941 1417.61 Q107.149 1417.61 110.158 1420.78 Q113.191 1423.93 113.191 1429.37 Q113.191 1434.7 110.043 1437.91 Q106.895 1441.13 101.663 1441.13 Q95.6678 1441.13 92.4965 1436.55 Q89.3253 1431.94 89.3253 1423.21 Q89.3253 1415.02 93.2141 1410.16 Q97.103 1405.27 103.654 1405.27 Q105.413 1405.27 107.196 1405.62 Q109.001 1405.97 110.946 1406.66 Z" fill="#000000" fill-rule="nonzero" fill-opacity="1" /><path clip-path="url(#clip960)" d="M50.9921 1194.31 L80.6679 1194.31 L80.6679 1198.24 L50.9921 1198.24 L50.9921 1194.31 Z" fill="#000000" fill-rule="nonzero" fill-opacity="1" /><path clip-path="url(#clip960)" d="M103.608 1180.65 L91.8021 1199.1 L103.608 1199.1 L103.608 1180.65 M102.381 1176.58 L108.26 1176.58 L108.26 1199.1 L113.191 1199.1 L113.191 1202.99 L108.26 1202.99 L108.26 1211.14 L103.608 1211.14 L103.608 1202.99 L88.0058 1202.99 L88.0058 1198.48 L102.381 1176.58 Z" fill="#000000" fill-rule="nonzero" fill-opacity="1" /><path clip-path="url(#clip960)" d="M53.0754 964.986 L82.7512 964.986 L82.7512 968.921 L53.0754 968.921 L53.0754 964.986 Z" fill="#000000" fill-rule="nonzero" fill-opacity="1" /><path clip-path="url(#clip960)" d="M96.8715 977.879 L113.191 977.879 L113.191 981.815 L91.2465 981.815 L91.2465 977.879 Q93.9086 975.125 98.4919 970.495 Q103.098 965.842 104.279 964.5 Q106.524 961.977 107.404 960.241 Q108.307 958.481 108.307 956.792 Q108.307 954.037 106.362 952.301 Q104.441 950.565 101.339 950.565 Q99.14 950.565 96.6863 951.329 Q94.2558 952.093 91.478 953.643 L91.478 948.921 Q94.3021 947.787 96.7558 947.208 Q99.2095 946.63 101.246 946.63 Q106.617 946.63 109.811 949.315 Q113.006 952 113.006 956.491 Q113.006 958.62 112.196 960.542 Q111.408 962.44 109.302 965.032 Q108.723 965.704 105.621 968.921 Q102.52 972.116 96.8715 977.879 Z" fill="#000000" fill-rule="nonzero" fill-opacity="1" /><path clip-path="url(#clip960)" d="M101.246 721.011 Q97.6354 721.011 95.8067 724.575 Q94.0012 728.117 94.0012 735.247 Q94.0012 742.353 95.8067 745.918 Q97.6354 749.46 101.246 749.46 Q104.881 749.46 106.686 745.918 Q108.515 742.353 108.515 735.247 Q108.515 728.117 106.686 724.575 Q104.881 721.011 101.246 721.011 M101.246 717.307 Q107.057 717.307 110.112 721.913 Q113.191 726.497 113.191 735.247 Q113.191 743.973 110.112 748.58 Q107.057 753.163 101.246 753.163 Q95.4363 753.163 92.3576 748.58 Q89.3021 743.973 89.3021 735.247 Q89.3021 726.497 92.3576 721.913 Q95.4363 717.307 101.246 717.307 Z" fill="#000000" fill-rule="nonzero" fill-opacity="1" /><path clip-path="url(#clip960)" d="M96.8715 519.234 L113.191 519.234 L113.191 523.169 L91.2465 523.169 L91.2465 519.234 Q93.9086 516.48 98.4919 511.85 Q103.098 507.197 104.279 505.855 Q106.524 503.331 107.404 501.595 Q108.307 499.836 108.307 498.146 Q108.307 495.392 106.362 493.656 Q104.441 491.92 101.339 491.92 Q99.14 491.92 96.6863 492.683 Q94.2558 493.447 91.478 494.998 L91.478 490.276 Q94.3021 489.142 96.7558 488.563 Q99.2095 487.984 101.246 487.984 Q106.617 487.984 109.811 490.67 Q113.006 493.355 113.006 497.845 Q113.006 499.975 112.196 501.896 Q111.408 503.794 109.302 506.387 Q108.723 507.058 105.621 510.276 Q102.52 513.47 96.8715 519.234 Z" fill="#000000" fill-rule="nonzero" fill-opacity="1" /><path clip-path="url(#clip960)" d="M103.608 263.361 L91.8021 281.81 L103.608 281.81 L103.608 263.361 M102.381 259.287 L108.26 259.287 L108.26 281.81 L113.191 281.81 L113.191 285.699 L108.26 285.699 L108.26 293.847 L103.608 293.847 L103.608 285.699 L88.0058 285.699 L88.0058 281.185 L102.381 259.287 Z" fill="#000000" fill-rule="nonzero" fill-opacity="1" /><path clip-path="url(#clip960)" d="M101.663 45.3807 Q98.515 45.3807 96.6632 47.5334 Q94.8345 49.6862 94.8345 53.4362 Q94.8345 57.163 96.6632 59.3389 Q98.515 61.4917 101.663 61.4917 Q104.811 61.4917 106.64 59.3389 Q108.492 57.163 108.492 53.4362 Q108.492 49.6862 106.64 47.5334 Q104.811 45.3807 101.663 45.3807 M110.946 30.728 L110.946 34.9872 Q109.186 34.1539 107.381 33.7141 Q105.598 33.2743 103.839 33.2743 Q99.2095 33.2743 96.7558 36.3992 Q94.3252 39.5242 93.978 45.8436 Q95.3437 43.8298 97.4039 42.765 Q99.4641 41.677 101.941 41.677 Q107.149 41.677 110.158 44.8483 Q113.191 47.9964 113.191 53.4362 Q113.191 58.7602 110.043 61.9778 Q106.895 65.1954 101.663 65.1954 Q95.6678 65.1954 92.4965 60.6121 Q89.3253 56.0056 89.3253 47.2788 Q89.3253 39.0844 93.2141 34.2233 Q97.103 29.3391 103.654 29.3391 Q105.413 29.3391 107.196 29.6863 Q109.001 30.0335 110.946 30.728 Z" fill="#000000" fill-rule="nonzero" fill-opacity="1" /><polyline clip-path="url(#clip962)" style="stroke:#009af9; stroke-linecap:round; stroke-linejoin:round; stroke-width:12; stroke-opacity:1; fill:none" points="149.191,1193.86 151.945,1192.93 154.7,1190.47 157.454,1186.9 160.209,1182.57 162.963,1177.73 165.718,1172.57 168.472,1167.23 171.227,1161.79 173.981,1156.29 176.735,1150.78 179.49,1145.26 182.244,1139.74 184.999,1134.21 187.753,1128.69 190.508,1123.17 193.262,1117.65 196.017,1112.13 198.771,1106.61 201.526,1101.1 204.28,1095.6 207.034,1090.11 209.789,1084.63 212.543,1079.17 215.298,1073.73 218.052,1068.31 220.807,1062.92 223.561,1057.54 226.316,1052.2 229.07,1046.88 231.825,1041.59 234.579,1036.33 237.333,1031.09 240.088,1025.89 242.842,1020.72 245.597,1015.58 248.351,1010.47 251.106,1005.4 253.86,1000.35 256.615,995.336 259.369,990.354 262.124,985.404 264.878,980.485 267.632,975.598 270.387,970.742 273.141,965.917 275.896,961.123 278.65,956.359 281.405,951.627 284.159,946.925 286.914,942.253 289.668,937.611 292.423,932.999 295.177,928.416 297.932,923.863 300.686,919.339 303.44,914.843 306.195,910.377 308.949,905.939 311.704,901.529 314.458,897.148 317.213,892.794 319.967,888.469 322.722,884.171 325.476,879.9 328.231,875.657 330.985,871.44 333.739,867.251 336.494,863.088 339.248,858.953 342.003,854.843 344.757,850.76 347.512,846.703 350.266,842.672 353.021,838.667 355.775,834.687 358.53,830.733 361.284,826.805 364.038,822.902 366.793,819.024 369.547,815.172 372.302,811.344 375.056,807.541 377.811,803.763 380.565,800.009 383.32,796.28 386.074,792.575 388.829,788.895 391.583,785.239 394.337,781.606 397.092,777.998 399.846,774.413 402.601,770.852 405.355,767.315 408.11,763.801 410.864,760.31 413.619,756.843 416.373,753.399 419.128,749.977 421.882,746.579 424.636,743.203 427.391,739.851 430.145,736.52 432.9,733.212 435.654,729.927 438.409,726.664 441.163,723.423 443.918,720.204 446.672,717.007 449.427,713.832 452.181,710.678 454.936,707.547 457.69,704.437 460.444,701.348 463.199,698.281 465.953,695.235 468.708,692.21 471.462,689.206 474.217,686.223 476.971,683.261 479.726,680.319 482.48,677.398 485.235,674.498 487.989,671.618 490.743,668.758 493.498,665.919 496.252,663.099 499.007,660.3 501.761,657.52 504.516,654.76 507.27,652.02 510.025,649.3 512.779,646.598 515.534,643.917 518.288,641.254 521.042,638.611 523.797,635.986 526.551,633.381 529.306,630.794 532.06,628.226 534.815,625.677 537.569,623.146 540.324,620.634 543.078,618.14 545.833,615.664 548.587,613.206 551.341,610.766 554.096,608.344 556.85,605.94 559.605,603.553 562.359,601.184 565.114,598.833 567.868,596.499 570.623,594.182 573.377,591.883 576.132,589.6 578.886,587.335 581.641,585.086 584.395,582.854 587.149,580.638 589.904,578.44 592.658,576.257 595.413,574.091 598.167,571.941 600.922,569.808 603.676,567.69 606.431,565.588 609.185,563.503 611.94,561.432 614.694,559.378 617.448,557.339 620.203,555.316 622.957,553.307 625.712,551.314 628.466,549.337 631.221,547.374 633.975,545.426 636.73,543.493 639.484,541.575 642.239,539.672 644.993,537.783 647.747,535.908 650.502,534.048 653.256,532.202 656.011,530.371 658.765,528.553 661.52,526.75 664.274,524.96 667.029,523.184 669.783,521.422 672.538,519.674 675.292,517.938 678.046,516.217 680.801,514.509 683.555,512.814 686.31,511.132 689.064,509.463 691.819,507.808 694.573,506.165 697.328,504.535 700.082,502.917 702.837,501.313 705.591,499.72 708.345,498.141 711.1,496.573 713.854,495.018 716.609,493.475 719.363,491.944 722.118,490.426 724.872,488.919 727.627,487.423 730.381,485.94 733.136,484.468 735.89,483.008 738.645,481.559 741.399,480.122 744.153,478.696 746.908,477.281 749.662,475.878 752.417,474.485 755.171,473.104 757.926,471.733 760.68,470.373 763.435,469.024 766.189,467.686 768.944,466.359 771.698,465.041 774.452,463.735 777.207,462.438 779.961,461.152 782.716,459.877 785.47,458.611 788.225,457.355 790.979,456.11 793.734,454.874 796.488,453.648 799.243,452.432 801.997,451.226 804.751,450.029 807.506,448.842 810.26,447.664 813.015,446.495 815.769,445.336 818.524,444.186 821.278,443.046 824.033,441.914 826.787,440.792 829.542,439.678 832.296,438.574 835.05,437.478 837.805,436.391 840.559,435.312 843.314,434.243 846.068,433.182 848.823,432.129 851.577,431.085 854.332,430.049 857.086,429.021 859.841,428.002 862.595,426.991 865.349,425.988 868.104,424.993 870.858,424.005 873.613,423.026 876.367,422.055 879.122,421.091 881.876,420.135 884.631,419.187 887.385,418.247 890.14,417.314 892.894,416.388 895.649,415.47 898.403,414.559 901.157,413.655 903.912,412.759 906.666,411.87 909.421,410.988 912.175,410.113 914.93,409.245 917.684,408.384 920.439,407.53 923.193,406.682 925.948,405.842 928.702,405.008 931.456,404.181 934.211,403.36 936.965,402.546 939.72,401.739 942.474,400.937 945.229,400.143 947.983,399.354 950.738,398.572 953.492,397.796 956.247,397.027 959.001,396.263 961.755,395.506 964.51,394.754 967.264,394.008 970.019,393.269 972.773,392.535 975.528,391.807 978.282,391.085 981.037,390.369 983.791,389.658 986.546,388.953 989.3,388.253 992.054,387.559 994.809,386.871 997.563,386.188 1000.32,385.51 1003.07,384.838 1005.83,384.171 1008.58,383.509 1011.34,382.852 1014.09,382.201 1016.84,381.555 1019.6,380.913 1022.35,380.277 1025.11,379.646 1027.86,379.02 1030.62,378.398 1033.37,377.782 1036.13,377.17 1038.88,376.563 1041.63,375.961 1044.39,375.364 1047.14,374.771 1049.9,374.183 1052.65,373.599 1055.41,373.02 1058.16,372.445 1060.92,371.875 1063.67,371.309 1066.42,370.748 1069.18,370.191 1071.93,369.638 1074.69,369.089 1077.44,368.545 1080.2,368.005 1082.95,367.469 1085.71,366.936 1088.46,366.409 1091.21,365.885 1093.97,365.365 1096.72,364.849 1099.48,364.336 1102.23,363.828 1104.99,363.324 1107.74,362.823 1110.5,362.326 1113.25,361.833 1116.01,361.344 1118.76,360.858 1121.51,360.376 1124.27,359.897 1127.02,359.422 1129.78,358.95 1132.53,358.482 1135.29,358.018 1138.04,357.557 1140.8,357.099 1143.55,356.644 1146.3,356.193 1149.06,355.745 1151.81,355.301 1154.57,354.86 1157.32,354.421 1160.08,353.986 1162.83,353.555 1165.59,353.126 1168.34,352.7 1171.09,352.278 1173.85,351.858 1176.6,351.442 1179.36,351.028 1182.11,350.617 1184.87,350.209 1187.62,349.804 1190.38,349.402 1193.13,349.003 1195.88,348.607 1198.64,348.213 1201.39,347.822 1204.15,347.434 1206.9,347.048 1209.66,346.666 1212.41,346.285 1215.17,345.908 1217.92,345.533 1220.67,345.16 1223.43,344.79 1226.18,344.423 1228.94,344.058 1231.69,343.696 1234.45,343.336 1237.2,342.978 1239.96,342.623 1242.71,342.27 1245.46,341.92 1248.22,341.572 1250.97,341.226 1253.73,340.882 1256.48,340.541 1259.24,340.202 1261.99,339.865 1264.75,339.53 1267.5,339.198 1270.25,338.867 1273.01,338.539 1275.76,338.212 1278.52,337.888 1281.27,337.566 1284.03,337.246 1286.78,336.928 1289.54,336.612 1292.29,336.297 1295.04,335.985 1297.8,335.675 1300.55,335.366 1303.31,335.06 1306.06,334.755 1308.82,334.452 1311.57,334.151 1314.33,333.852 1317.08,333.555 1319.83,333.259 1322.59,332.965 1325.34,332.673 1328.1,332.383 1330.85,332.094 1333.61,331.807 1336.36,331.522 1339.12,331.238 1341.87,330.956 1344.62,330.675 1347.38,330.396 1350.13,330.119 1352.89,329.843 1355.64,329.569 1358.4,329.296 1361.15,329.025 1363.91,328.755 1366.66,328.487 1369.41,328.22 1372.17,327.955 1374.92,327.691 1377.68,327.428 1380.43,327.167 1383.19,326.907 1385.94,326.649 1388.7,326.392 1391.45,326.136 1394.21,325.881 1396.96,325.628 1399.71,325.376 1402.47,325.126 1405.22,324.876 1407.98,324.628 1410.73,324.381 1413.49,324.136 1416.24,323.891 1419,323.648 1421.75,323.406 1424.5,323.165 1427.26,322.925 1430.01,322.686 1432.77,322.448 1435.52,322.212 1438.28,321.976 1441.03,321.742 1443.79,321.509 1446.54,321.276 1449.29,321.045 1452.05,320.815 1454.8,320.586 1457.56,320.357 1460.31,320.13 1463.07,319.904 1465.82,319.678 1468.58,319.454 1471.33,319.231 1474.08,319.008 1476.84,318.787 1479.59,318.566 1482.35,318.346 1485.1,318.127 1487.86,317.909 1490.61,317.692 1493.37,317.476 1496.12,317.26 1498.87,317.045 1501.63,316.832 1504.38,316.618 1507.14,316.406 1509.89,316.195 1512.65,315.984 1515.4,315.774 1518.16,315.565 1520.91,315.357 1523.66,315.149 1526.42,314.942 1529.17,314.736 1531.93,314.53 1534.68,314.325 1537.44,314.121 1540.19,313.918 1542.95,313.715 1545.7,313.513 1548.45,313.312 1551.21,313.111 1553.96,312.911 1556.72,312.712 1559.47,312.513 1562.23,312.315 1564.98,312.117 1567.74,311.92 1570.49,311.724 1573.24,311.528 1576,311.333 1578.75,311.138 1581.51,310.944 1584.26,310.751 1587.02,310.558 1589.77,310.366 1592.53,310.174 1595.28,309.983 1598.03,309.792 1600.79,309.602 1603.54,309.412 1606.3,309.223 1609.05,309.034 1611.81,308.846 1614.56,308.658 1617.32,308.471 1620.07,308.284 1622.82,308.097 1625.58,307.911 1628.33,307.726 1631.09,307.541 1633.84,307.356 1636.6,307.172 1639.35,306.988 1642.11,306.805 1644.86,306.622 1647.62,306.44 1650.37,306.258 1653.12,306.076 1655.88,305.895 1658.63,305.714 1661.39,305.533 1664.14,305.353 1666.9,305.173 1669.65,304.994 1672.41,304.815 1675.16,304.636 1677.91,304.458 1680.67,304.28 1683.42,304.102 1686.18,303.924 1688.93,303.747 1691.69,303.571 1694.44,303.394 1697.2,303.218 1699.95,303.042 1702.7,302.867 1705.46,302.692 1708.21,302.517 1710.97,302.342 1713.72,302.168 1716.48,301.994 1719.23,301.82 1721.99,301.647 1724.74,301.474 1727.49,301.301 1730.25,301.128 1733,300.956 1735.76,300.784 1738.51,300.612 1741.27,300.44 1744.02,300.269 1746.78,300.097 1749.53,299.926 1752.28,299.756 1755.04,299.585 1757.79,299.415 1760.55,299.245 1763.3,299.075 1766.06,298.905 1768.81,298.736 1771.57,298.566 1774.32,298.397 1777.07,298.228 1779.83,298.06 1782.58,297.891 1785.34,297.723 1788.09,297.555 1790.85,297.387 1793.6,297.219 1796.36,297.051 1799.11,296.884 1801.86,296.716 1804.62,296.549 1807.37,296.382 1810.13,296.215 1812.88,296.049 1815.64,295.882 1818.39,295.716 1821.15,295.55 1823.9,295.384 1826.65,295.218 1829.41,295.052 1832.16,294.886 1834.92,294.72 1837.67,294.555 1840.43,294.39 1843.18,294.224 1845.94,294.059 1848.69,293.894 1851.44,293.73 1854.2,293.565 1856.95,293.4 1859.71,293.236 1862.46,293.071 1865.22,292.907 1867.97,292.743 1870.73,292.579 1873.48,292.414 1876.23,292.251 1878.99,292.087 1881.74,291.923 1884.5,291.759 1887.25,291.596 1890.01,291.432 1892.76,291.269 1895.52,291.106 1898.27,290.942 1901.03,290.779 1903.78,290.616 1906.53,290.453 1909.29,290.29 1912.04,290.127 1914.8,289.965 1917.55,289.802 1920.31,289.639 1923.06,289.477 1925.82,289.314 1928.57,289.152 1931.32,288.989 1934.08,288.827 1936.83,288.665 1939.59,288.503 1942.34,288.341 1945.1,288.179 1947.85,288.017 1950.61,287.855 1953.36,287.693 1956.11,287.531 1958.87,287.369 1961.62,287.208 1964.38,287.046 1967.13,286.885 1969.89,286.723 1972.64,286.562 1975.4,286.4 1978.15,286.239 1980.9,286.078 1983.66,285.916 1986.41,285.755 1989.17,285.594 1991.92,285.433 1994.68,285.272 1997.43,285.111 2000.19,284.95 2002.94,284.788 2005.69,284.628 2008.45,284.467 2011.2,284.306 2013.96,284.145 2016.71,283.984 2019.47,283.823 2022.22,283.662 2024.98,283.502 2027.73,283.341 2030.48,283.18 2033.24,283.019 2035.99,282.859 2038.75,282.698 2041.5,282.538 2044.26,282.377 2047.01,282.216 2049.77,282.056 2052.52,281.895 2055.27,281.735 2058.03,281.574 2060.78,281.414 2063.54,281.254 2066.29,281.093 2069.05,280.933 2071.8,280.772 2074.56,280.612 2077.31,280.452 2080.06,280.291 2082.82,280.131 2085.57,279.971 2088.33,279.811 2091.08,279.65 2093.84,279.49 2096.59,279.33 2099.35,279.17 2102.1,279.009 2104.85,278.849 2107.61,278.689 2110.36,278.529 2113.12,278.369 2115.87,278.209 2118.63,278.048 2121.38,277.888 2124.14,277.728 2126.89,277.568 2129.64,277.408 2132.4,277.248 2135.15,277.088 2137.91,276.928 2140.66,276.768 2143.42,276.608 2146.17,276.448 2148.93,276.288 2151.68,276.128 2154.44,275.967 2157.19,275.807 2159.94,275.647 2162.7,275.487 2165.45,275.327 2168.21,275.167 2170.96,275.007 2173.72,274.847 2176.47,274.687 2179.23,274.527 2181.98,274.367 2184.73,274.207 2187.49,274.047 2190.24,273.887 2193,273.727 2195.75,273.567 2198.51,273.407 2201.26,273.247 2204.02,273.087 2206.77,272.927 2209.52,272.767 2212.28,272.607 2215.03,272.447 2217.79,272.287 2220.54,272.127 2223.3,271.967 2226.05,271.807 2228.81,271.648 2231.56,271.488 2234.31,271.328 2237.07,271.168 2239.82,271.008 2242.58,270.848 2245.33,270.688 2248.09,270.528 2250.84,270.368 2253.6,270.208 2256.35,270.048 2259.1,269.888 2261.86,269.728 2264.61,269.568 2267.37,269.408 2270.12,269.248 2272.88,269.088 2275.63,268.928 2278.39,268.768 2281.14,268.608 2283.89,268.448 2286.65,268.288 2289.4,268.128 2292.16,267.968 2294.91,267.808 2297.67,267.648 2300.42,267.488 2303.18,267.328 2305.93,267.168 2308.68,267.008 2311.44,266.848 2314.19,266.688 2316.95,266.528 2319.7,266.368 2322.46,266.208 2325.21,266.048 2327.97,265.888 2330.72,265.728 2333.47,265.568 2336.23,265.408 2338.98,265.248 2341.74,265.088 2344.49,264.928 2347.25,264.768 2350,264.608 2352.76,264.448 "/>
<polyline clip-path="url(#clip962)" style="stroke:#e26f46; stroke-linecap:round; stroke-linejoin:round; stroke-width:12; stroke-opacity:1; fill:none" points="149.191,735.212 151.945,558.097 154.7,427.541 157.454,335.155 160.209,272.719 162.963,232.672 165.718,208.485 168.472,194.865 171.227,187.859 173.981,184.648 176.735,183.367 179.49,182.973 182.244,182.907 184.999,182.907 187.753,182.906 190.508,182.941 193.262,183.076 196.017,183.372 198.771,183.874 201.526,184.619 204.28,185.63 207.034,186.904 209.789,188.428 212.543,190.19 215.298,192.173 218.052,194.359 220.807,196.725 223.561,199.25 226.316,201.907 229.07,204.677 231.825,207.542 234.579,210.487 237.333,213.496 240.088,216.556 242.842,219.655 245.597,222.784 248.351,225.932 251.106,229.094 253.86,232.262 256.615,235.431 259.369,238.597 262.124,241.755 264.878,244.904 267.632,248.041 270.387,251.164 273.141,254.271 275.896,257.36 278.65,260.43 281.405,263.481 284.159,266.51 286.914,269.518 289.668,272.505 292.423,275.471 295.177,278.416 297.932,281.341 300.686,284.245 303.44,287.129 306.195,289.993 308.949,292.838 311.704,295.663 314.458,298.469 317.213,301.257 319.967,304.027 322.722,306.779 325.476,309.514 328.231,312.232 330.985,314.933 333.739,317.618 336.494,320.288 339.248,322.941 342.003,325.58 344.757,328.203 347.512,330.812 350.266,333.407 353.021,335.987 355.775,338.555 358.53,341.108 361.284,343.649 364.038,346.177 366.793,348.692 369.547,351.194 372.302,353.684 375.056,356.161 377.811,358.626 380.565,361.08 383.32,363.521 386.074,365.951 388.829,368.369 391.583,370.775 394.337,373.171 397.092,375.555 399.846,377.927 402.601,380.289 405.355,382.64 408.11,384.98 410.864,387.309 413.619,389.627 416.373,391.934 419.128,394.231 421.882,396.517 424.636,398.793 427.391,401.058 430.145,403.312 432.9,405.556 435.654,407.789 438.409,410.012 441.163,412.224 443.918,414.426 446.672,416.617 449.427,418.798 452.181,420.968 454.936,423.128 457.69,425.277 460.444,427.416 463.199,429.545 465.953,431.662 468.708,433.77 471.462,435.867 474.217,437.953 476.971,440.029 479.726,442.095 482.48,444.15 485.235,446.195 487.989,448.229 490.743,450.252 493.498,452.266 496.252,454.268 499.007,456.261 501.761,458.242 504.516,460.214 507.27,462.175 510.025,464.125 512.779,466.065 515.534,467.994 518.288,469.913 521.042,471.822 523.797,473.72 526.551,475.607 529.306,477.485 532.06,479.351 534.815,481.208 537.569,483.054 540.324,484.889 543.078,486.714 545.833,488.528 548.587,490.333 551.341,492.126 554.096,493.91 556.85,495.683 559.605,497.445 562.359,499.198 565.114,500.939 567.868,502.671 570.623,504.392 573.377,506.103 576.132,507.804 578.886,509.494 581.641,511.174 584.395,512.844 587.149,514.504 589.904,516.154 592.658,517.793 595.413,519.422 598.167,521.042 600.922,522.651 603.676,524.25 606.431,525.839 609.185,527.418 611.94,528.987 614.694,530.546 617.448,532.096 620.203,533.635 622.957,535.164 625.712,536.684 628.466,538.194 631.221,539.694 633.975,541.184 636.73,542.664 639.484,544.135 642.239,545.596 644.993,547.048 647.747,548.49 650.502,549.922 653.256,551.345 656.011,552.758 658.765,554.162 661.52,555.556 664.274,556.941 667.029,558.317 669.783,559.683 672.538,561.04 675.292,562.387 678.046,563.726 680.801,565.055 683.555,566.375 686.31,567.686 689.064,568.988 691.819,570.281 694.573,571.565 697.328,572.839 700.082,574.105 702.837,575.362 705.591,576.611 708.345,577.85 711.1,579.081 713.854,580.303 716.609,581.516 719.363,582.721 722.118,583.916 724.872,585.104 727.627,586.283 730.381,587.454 733.136,588.616 735.89,589.77 738.645,590.915 741.399,592.052 744.153,593.181 746.908,594.302 749.662,595.414 752.417,596.518 755.171,597.614 757.926,598.703 760.68,599.783 763.435,600.855 766.189,601.919 768.944,602.975 771.698,604.024 774.452,605.064 777.207,606.097 779.961,607.123 782.716,608.14 785.47,609.15 788.225,610.152 790.979,611.147 793.734,612.134 796.488,613.114 799.243,614.086 801.997,615.051 804.751,616.009 807.506,616.959 810.26,617.902 813.015,618.838 815.769,619.767 818.524,620.689 821.278,621.603 824.033,622.511 826.787,623.411 829.542,624.304 832.296,625.191 835.05,626.071 837.805,626.943 840.559,627.809 843.314,628.668 846.068,629.521 848.823,630.367 851.577,631.206 854.332,632.038 857.086,632.864 859.841,633.684 862.595,634.497 865.349,635.303 868.104,636.103 870.858,636.897 873.613,637.685 876.367,638.466 879.122,639.24 881.876,640.009 884.631,640.772 887.385,641.528 890.14,642.278 892.894,643.022 895.649,643.76 898.403,644.493 901.157,645.219 903.912,645.939 906.666,646.654 909.421,647.362 912.175,648.065 914.93,648.762 917.684,649.453 920.439,650.139 923.193,650.819 925.948,651.494 928.702,652.162 931.456,652.826 934.211,653.484 936.965,654.136 939.72,654.783 942.474,655.425 945.229,656.061 947.983,656.692 950.738,657.317 953.492,657.938 956.247,658.553 959.001,659.163 961.755,659.768 964.51,660.368 967.264,660.963 970.019,661.552 972.773,662.137 975.528,662.717 978.282,663.291 981.037,663.861 983.791,664.426 986.546,664.986 989.3,665.542 992.054,666.092 994.809,666.638 997.563,667.18 1000.32,667.716 1003.07,668.248 1005.83,668.775 1008.58,669.298 1011.34,669.816 1014.09,670.33 1016.84,670.839 1019.6,671.343 1022.35,671.844 1025.11,672.34 1027.86,672.831 1030.62,673.318 1033.37,673.801 1036.13,674.28 1038.88,674.754 1041.63,675.225 1044.39,675.691 1047.14,676.153 1049.9,676.611 1052.65,677.064 1055.41,677.514 1058.16,677.96 1060.92,678.401 1063.67,678.839 1066.42,679.273 1069.18,679.703 1071.93,680.129 1074.69,680.551 1077.44,680.969 1080.2,681.384 1082.95,681.794 1085.71,682.201 1088.46,682.605 1091.21,683.004 1093.97,683.4 1096.72,683.793 1099.48,684.181 1102.23,684.566 1104.99,684.948 1107.74,685.326 1110.5,685.701 1113.25,686.072 1116.01,686.439 1118.76,686.804 1121.51,687.165 1124.27,687.522 1127.02,687.876 1129.78,688.227 1132.53,688.575 1135.29,688.919 1138.04,689.26 1140.8,689.598 1143.55,689.933 1146.3,690.264 1149.06,690.593 1151.81,690.918 1154.57,691.24 1157.32,691.559 1160.08,691.875 1162.83,692.188 1165.59,692.498 1168.34,692.805 1171.09,693.109 1173.85,693.411 1176.6,693.709 1179.36,694.004 1182.11,694.297 1184.87,694.586 1187.62,694.873 1190.38,695.157 1193.13,695.439 1195.88,695.717 1198.64,695.993 1201.39,696.266 1204.15,696.537 1206.9,696.805 1209.66,697.07 1212.41,697.332 1215.17,697.592 1217.92,697.85 1220.67,698.104 1223.43,698.357 1226.18,698.607 1228.94,698.854 1231.69,699.099 1234.45,699.341 1237.2,699.581 1239.96,699.818 1242.71,700.053 1245.46,700.286 1248.22,700.516 1250.97,700.744 1253.73,700.97 1256.48,701.193 1259.24,701.415 1261.99,701.633 1264.75,701.85 1267.5,702.064 1270.25,702.277 1273.01,702.487 1275.76,702.694 1278.52,702.9 1281.27,703.104 1284.03,703.305 1286.78,703.505 1289.54,703.702 1292.29,703.897 1295.04,704.09 1297.8,704.281 1300.55,704.471 1303.31,704.658 1306.06,704.843 1308.82,705.026 1311.57,705.207 1314.33,705.387 1317.08,705.564 1319.83,705.74 1322.59,705.913 1325.34,706.085 1328.1,706.255 1330.85,706.423 1333.61,706.589 1336.36,706.754 1339.12,706.917 1341.87,707.077 1344.62,707.237 1347.38,707.394 1350.13,707.55 1352.89,707.704 1355.64,707.856 1358.4,708.007 1361.15,708.156 1363.91,708.303 1366.66,708.449 1369.41,708.593 1372.17,708.736 1374.92,708.876 1377.68,709.016 1380.43,709.154 1383.19,709.29 1385.94,709.424 1388.7,709.558 1391.45,709.689 1394.21,709.82 1396.96,709.948 1399.71,710.076 1402.47,710.201 1405.22,710.326 1407.98,710.449 1410.73,710.57 1413.49,710.69 1416.24,710.809 1419,710.926 1421.75,711.042 1424.5,711.157 1427.26,711.271 1430.01,711.383 1432.77,711.493 1435.52,711.603 1438.28,711.711 1441.03,711.818 1443.79,711.923 1446.54,712.028 1449.29,712.131 1452.05,712.233 1454.8,712.334 1457.56,712.433 1460.31,712.532 1463.07,712.629 1465.82,712.725 1468.58,712.82 1471.33,712.913 1474.08,713.006 1476.84,713.097 1479.59,713.188 1482.35,713.277 1485.1,713.365 1487.86,713.452 1490.61,713.538 1493.37,713.623 1496.12,713.707 1498.87,713.79 1501.63,713.872 1504.38,713.953 1507.14,714.033 1509.89,714.112 1512.65,714.189 1515.4,714.266 1518.16,714.342 1520.91,714.417 1523.66,714.491 1526.42,714.564 1529.17,714.637 1531.93,714.708 1534.68,714.778 1537.44,714.848 1540.19,714.916 1542.95,714.984 1545.7,715.051 1548.45,715.117 1551.21,715.182 1553.96,715.246 1556.72,715.31 1559.47,715.372 1562.23,715.434 1564.98,715.495 1567.74,715.555 1570.49,715.614 1573.24,715.673 1576,715.731 1578.75,715.788 1581.51,715.844 1584.26,715.899 1587.02,715.954 1589.77,716.008 1592.53,716.061 1595.28,716.114 1598.03,716.166 1600.79,716.217 1603.54,716.267 1606.3,716.317 1609.05,716.366 1611.81,716.415 1614.56,716.462 1617.32,716.509 1620.07,716.556 1622.82,716.602 1625.58,716.647 1628.33,716.691 1631.09,716.735 1633.84,716.778 1636.6,716.821 1639.35,716.863 1642.11,716.904 1644.86,716.945 1647.62,716.986 1650.37,717.025 1653.12,717.064 1655.88,717.103 1658.63,717.141 1661.39,717.178 1664.14,717.215 1666.9,717.251 1669.65,717.287 1672.41,717.322 1675.16,717.357 1677.91,717.391 1680.67,717.425 1683.42,717.458 1686.18,717.491 1688.93,717.523 1691.69,717.555 1694.44,717.586 1697.2,717.617 1699.95,717.647 1702.7,717.677 1705.46,717.706 1708.21,717.735 1710.97,717.764 1713.72,717.792 1716.48,717.819 1719.23,717.846 1721.99,717.873 1724.74,717.899 1727.49,717.925 1730.25,717.95 1733,717.975 1735.76,718 1738.51,718.024 1741.27,718.048 1744.02,718.072 1746.78,718.095 1749.53,718.117 1752.28,718.14 1755.04,718.161 1757.79,718.183 1760.55,718.204 1763.3,718.225 1766.06,718.246 1768.81,718.266 1771.57,718.286 1774.32,718.305 1777.07,718.324 1779.83,718.343 1782.58,718.362 1785.34,718.38 1788.09,718.398 1790.85,718.415 1793.6,718.433 1796.36,718.45 1799.11,718.466 1801.86,718.483 1804.62,718.499 1807.37,718.514 1810.13,718.53 1812.88,718.545 1815.64,718.56 1818.39,718.575 1821.15,718.589 1823.9,718.604 1826.65,718.617 1829.41,718.631 1832.16,718.645 1834.92,718.658 1837.67,718.671 1840.43,718.683 1843.18,718.696 1845.94,718.708 1848.69,718.72 1851.44,718.732 1854.2,718.743 1856.95,718.755 1859.71,718.766 1862.46,718.777 1865.22,718.787 1867.97,718.798 1870.73,718.808 1873.48,718.818 1876.23,718.828 1878.99,718.838 1881.74,718.847 1884.5,718.857 1887.25,718.866 1890.01,718.875 1892.76,718.883 1895.52,718.892 1898.27,718.9 1901.03,718.909 1903.78,718.917 1906.53,718.925 1909.29,718.932 1912.04,718.94 1914.8,718.947 1917.55,718.955 1920.31,718.962 1923.06,718.969 1925.82,718.976 1928.57,718.982 1931.32,718.989 1934.08,718.995 1936.83,719.001 1939.59,719.007 1942.34,719.013 1945.1,719.019 1947.85,719.025 1950.61,719.03 1953.36,719.036 1956.11,719.041 1958.87,719.046 1961.62,719.051 1964.38,719.056 1967.13,719.061 1969.89,719.066 1972.64,719.07 1975.4,719.075 1978.15,719.079 1980.9,719.083 1983.66,719.087 1986.41,719.092 1989.17,719.095 1991.92,719.099 1994.68,719.103 1997.43,719.107 2000.19,719.11 2002.94,719.114 2005.69,719.117 2008.45,719.12 2011.2,719.124 2013.96,719.127 2016.71,719.13 2019.47,719.133 2022.22,719.136 2024.98,719.139 2027.73,719.141 2030.48,719.144 2033.24,719.146 2035.99,719.149 2038.75,719.151 2041.5,719.154 2044.26,719.156 2047.01,719.158 2049.77,719.16 2052.52,719.163 2055.27,719.165 2058.03,719.167 2060.78,719.168 2063.54,719.17 2066.29,719.172 2069.05,719.174 2071.8,719.176 2074.56,719.177 2077.31,719.179 2080.06,719.18 2082.82,719.182 2085.57,719.183 2088.33,719.185 2091.08,719.186 2093.84,719.187 2096.59,719.188 2099.35,719.19 2102.1,719.191 2104.85,719.192 2107.61,719.193 2110.36,719.194 2113.12,719.195 2115.87,719.196 2118.63,719.197 2121.38,719.198 2124.14,719.198 2126.89,719.199 2129.64,719.2 2132.4,719.201 2135.15,719.202 2137.91,719.202 2140.66,719.203 2143.42,719.204 2146.17,719.204 2148.93,719.205 2151.68,719.205 2154.44,719.206 2157.19,719.206 2159.94,719.207 2162.7,719.207 2165.45,719.208 2168.21,719.208 2170.96,719.208 2173.72,719.209 2176.47,719.209 2179.23,719.209 2181.98,719.21 2184.73,719.21 2187.49,719.21 2190.24,719.211 2193,719.211 2195.75,719.211 2198.51,719.211 2201.26,719.212 2204.02,719.212 2206.77,719.212 2209.52,719.212 2212.28,719.212 2215.03,719.212 2217.79,719.213 2220.54,719.213 2223.3,719.213 2226.05,719.213 2228.81,719.213 2231.56,719.213 2234.31,719.213 2237.07,719.213 2239.82,719.214 2242.58,719.214 2245.33,719.214 2248.09,719.214 2250.84,719.214 2253.6,719.214 2256.35,719.214 2259.1,719.214 2261.86,719.214 2264.61,719.214 2267.37,719.214 2270.12,719.214 2272.88,719.214 2275.63,719.214 2278.39,719.214 2281.14,719.214 2283.89,719.214 2286.65,719.214 2289.4,719.214 2292.16,719.214 2294.91,719.214 2297.67,719.214 2300.42,719.215 2303.18,719.215 2305.93,719.215 2308.68,719.215 2311.44,719.215 2314.19,719.215 2316.95,719.215 2319.7,719.215 2322.46,719.215 2325.21,719.215 2327.97,719.215 2330.72,719.215 2333.47,719.215 2336.23,719.215 2338.98,719.215 2341.74,719.215 2344.49,719.215 2347.25,719.215 2350,719.215 2352.76,719.215 "/>
<polyline clip-path="url(#clip962)" style="stroke:#3da44d; stroke-linecap:round; stroke-linejoin:round; stroke-width:12; stroke-opacity:1; fill:none" points="149.191,91.2429 151.945,149.99 154.7,210.204 157.454,271.013 160.209,331.471 162.963,390.599 165.718,447.449 168.472,501.181 171.227,551.13 173.981,596.842 176.735,638.091 179.49,674.855 182.244,707.278 184.999,735.621 187.753,760.221 190.508,781.45 193.262,799.686 196.017,815.292 198.771,828.609 201.526,839.942 204.28,849.566 207.034,857.722 209.789,864.617 212.543,870.434 215.298,875.327 218.052,879.43 220.807,882.858 223.561,885.709 226.316,888.066 229.07,890 231.825,891.574 234.579,892.84 237.333,893.842 240.088,894.619 242.842,895.205 245.597,895.628 248.351,895.912 251.106,896.078 253.86,896.144 256.615,896.127 259.369,896.038 262.124,895.891 264.878,895.695 267.632,895.458 270.387,895.189 273.141,894.892 275.896,894.574 278.65,894.24 281.405,893.892 284.159,893.536 286.914,893.172 289.668,892.805 292.423,892.436 295.177,892.067 297.932,891.698 300.686,891.332 303.44,890.97 306.195,890.611 308.949,890.257 311.704,889.908 314.458,889.564 317.213,889.227 319.967,888.894 322.722,888.568 325.476,888.248 328.231,887.933 330.985,887.625 333.739,887.322 336.494,887.024 339.248,886.732 342.003,886.445 344.757,886.163 347.512,885.885 350.266,885.612 353.021,885.344 355.775,885.079 358.53,884.819 361.284,884.561 364.038,884.308 366.793,884.057 369.547,883.809 372.302,883.564 375.056,883.321 377.811,883.081 380.565,882.843 383.32,882.607 386.074,882.372 388.829,882.14 391.583,881.908 394.337,881.678 397.092,881.449 399.846,881.221 402.601,880.993 405.355,880.767 408.11,880.541 410.864,880.315 413.619,880.09 416.373,879.865 419.128,879.64 421.882,879.416 424.636,879.191 427.391,878.967 430.145,878.742 432.9,878.517 435.654,878.291 438.409,878.066 441.163,877.839 443.918,877.613 446.672,877.386 449.427,877.158 452.181,876.93 454.936,876.701 457.69,876.472 460.444,876.242 463.199,876.011 465.953,875.779 468.708,875.547 471.462,875.314 474.217,875.08 476.971,874.846 479.726,874.61 482.48,874.374 485.235,874.137 487.989,873.899 490.743,873.66 493.498,873.42 496.252,873.179 499.007,872.938 501.761,872.695 504.516,872.452 507.27,872.208 510.025,871.963 512.779,871.717 515.534,871.471 518.288,871.223 521.042,870.975 523.797,870.726 526.551,870.476 529.306,870.225 532.06,869.973 534.815,869.721 537.569,869.468 540.324,869.214 543.078,868.959 545.833,868.703 548.587,868.447 551.341,868.19 554.096,867.932 556.85,867.674 559.605,867.414 562.359,867.155 565.114,866.894 567.868,866.633 570.623,866.371 573.377,866.109 576.132,865.846 578.886,865.582 581.641,865.318 584.395,865.053 587.149,864.787 589.904,864.521 592.658,864.255 595.413,863.988 598.167,863.72 600.922,863.452 603.676,863.184 606.431,862.915 609.185,862.646 611.94,862.376 614.694,862.105 617.448,861.835 620.203,861.564 622.957,861.292 625.712,861.02 628.466,860.748 631.221,860.476 633.975,860.203 636.73,859.929 639.484,859.656 642.239,859.382 644.993,859.108 647.747,858.834 650.502,858.559 653.256,858.284 656.011,858.009 658.765,857.734 661.52,857.458 664.274,857.182 667.029,856.906 669.783,856.63 672.538,856.354 675.292,856.077 678.046,855.801 680.801,855.524 683.555,855.247 686.31,854.97 689.064,854.693 691.819,854.416 694.573,854.138 697.328,853.861 700.082,853.583 702.837,853.306 705.591,853.028 708.345,852.751 711.1,852.473 713.854,852.195 716.609,851.917 719.363,851.639 722.118,851.362 724.872,851.084 727.627,850.806 730.381,850.528 733.136,850.25 735.89,849.973 738.645,849.695 741.399,849.417 744.153,849.14 746.908,848.862 749.662,848.584 752.417,848.307 755.171,848.029 757.926,847.752 760.68,847.475 763.435,847.198 766.189,846.921 768.944,846.644 771.698,846.367 774.452,846.09 777.207,845.813 779.961,845.537 782.716,845.261 785.47,844.984 788.225,844.708 790.979,844.432 793.734,844.156 796.488,843.881 799.243,843.605 801.997,843.33 804.751,843.054 807.506,842.779 810.26,842.504 813.015,842.23 815.769,841.955 818.524,841.681 821.278,841.407 824.033,841.133 826.787,840.859 829.542,840.585 832.296,840.312 835.05,840.038 837.805,839.765 840.559,839.493 843.314,839.22 846.068,838.948 848.823,838.675 851.577,838.403 854.332,838.132 857.086,837.86 859.841,837.589 862.595,837.318 865.349,837.047 868.104,836.776 870.858,836.506 873.613,836.236 876.367,835.966 879.122,835.696 881.876,835.427 884.631,835.158 887.385,834.889 890.14,834.62 892.894,834.352 895.649,834.083 898.403,833.816 901.157,833.548 903.912,833.281 906.666,833.013 909.421,832.747 912.175,832.48 914.93,832.214 917.684,831.948 920.439,831.682 923.193,831.416 925.948,831.151 928.702,830.886 931.456,830.622 934.211,830.357 936.965,830.093 939.72,829.829 942.474,829.566 945.229,829.302 947.983,829.039 950.738,828.777 953.492,828.514 956.247,828.252 959.001,827.99 961.755,827.729 964.51,827.468 967.264,827.207 970.019,826.946 972.773,826.686 975.528,826.426 978.282,826.166 981.037,825.906 983.791,825.647 986.546,825.388 989.3,825.13 992.054,824.872 994.809,824.614 997.563,824.356 1000.32,824.099 1003.07,823.842 1005.83,823.585 1008.58,823.328 1011.34,823.072 1014.09,822.816 1016.84,822.561 1019.6,822.306 1022.35,822.051 1025.11,821.796 1027.86,821.542 1030.62,821.288 1033.37,821.034 1036.13,820.781 1038.88,820.528 1041.63,820.275 1044.39,820.023 1047.14,819.771 1049.9,819.519 1052.65,819.268 1055.41,819.017 1058.16,818.766 1060.92,818.515 1063.67,818.265 1066.42,818.015 1069.18,817.766 1071.93,817.517 1074.69,817.268 1077.44,817.019 1080.2,816.771 1082.95,816.523 1085.71,816.276 1088.46,816.028 1091.21,815.781 1093.97,815.535 1096.72,815.289 1099.48,815.043 1102.23,814.797 1104.99,814.552 1107.74,814.307 1110.5,814.062 1113.25,813.818 1116.01,813.574 1118.76,813.33 1121.51,813.087 1124.27,812.844 1127.02,812.601 1129.78,812.359 1132.53,812.117 1135.29,811.875 1138.04,811.633 1140.8,811.392 1143.55,811.152 1146.3,810.911 1149.06,810.671 1151.81,810.432 1154.57,810.192 1157.32,809.953 1160.08,809.714 1162.83,809.476 1165.59,809.238 1168.34,809 1171.09,808.763 1173.85,808.526 1176.6,808.289 1179.36,808.052 1182.11,807.816 1184.87,807.58 1187.62,807.345 1190.38,807.11 1193.13,806.875 1195.88,806.641 1198.64,806.407 1201.39,806.173 1204.15,805.939 1206.9,805.706 1209.66,805.474 1212.41,805.241 1215.17,805.009 1217.92,804.777 1220.67,804.546 1223.43,804.315 1226.18,804.084 1228.94,803.854 1231.69,803.623 1234.45,803.394 1237.2,803.164 1239.96,802.935 1242.71,802.706 1245.46,802.478 1248.22,802.25 1250.97,802.022 1253.73,801.795 1256.48,801.567 1259.24,801.341 1261.99,801.114 1264.75,800.888 1267.5,800.662 1270.25,800.437 1273.01,800.212 1275.76,799.987 1278.52,799.763 1281.27,799.538 1284.03,799.315 1286.78,799.091 1289.54,798.868 1292.29,798.645 1295.04,798.423 1297.8,798.201 1300.55,797.979 1303.31,797.758 1306.06,797.537 1308.82,797.316 1311.57,797.095 1314.33,796.875 1317.08,796.655 1319.83,796.436 1322.59,796.217 1325.34,795.998 1328.1,795.78 1330.85,795.562 1333.61,795.344 1336.36,795.126 1339.12,794.909 1341.87,794.692 1344.62,794.476 1347.38,794.26 1350.13,794.044 1352.89,793.829 1355.64,793.613 1358.4,793.399 1361.15,793.184 1363.91,792.97 1366.66,792.756 1369.41,792.543 1372.17,792.33 1374.92,792.117 1377.68,791.904 1380.43,791.692 1383.19,791.48 1385.94,791.269 1388.7,791.058 1391.45,790.847 1394.21,790.636 1396.96,790.426 1399.71,790.216 1402.47,790.007 1405.22,789.798 1407.98,789.589 1410.73,789.38 1413.49,789.172 1416.24,788.964 1419,788.757 1421.75,788.55 1424.5,788.343 1427.26,788.136 1430.01,787.93 1432.77,787.724 1435.52,787.518 1438.28,787.313 1441.03,787.108 1443.79,786.904 1446.54,786.699 1449.29,786.495 1452.05,786.292 1454.8,786.088 1457.56,785.885 1460.31,785.683 1463.07,785.481 1465.82,785.278 1468.58,785.077 1471.33,784.875 1474.08,784.674 1476.84,784.474 1479.59,784.273 1482.35,784.073 1485.1,783.874 1487.86,783.674 1490.61,783.475 1493.37,783.276 1496.12,783.078 1498.87,782.88 1501.63,782.682 1504.38,782.484 1507.14,782.287 1509.89,782.09 1512.65,781.894 1515.4,781.698 1518.16,781.502 1520.91,781.306 1523.66,781.111 1526.42,780.916 1529.17,780.722 1531.93,780.527 1534.68,780.333 1537.44,780.14 1540.19,779.946 1542.95,779.753 1545.7,779.561 1548.45,779.368 1551.21,779.176 1553.96,778.984 1556.72,778.793 1559.47,778.602 1562.23,778.411 1564.98,778.221 1567.74,778.03 1570.49,777.841 1573.24,777.651 1576,777.462 1578.75,777.273 1581.51,777.084 1584.26,776.896 1587.02,776.708 1589.77,776.52 1592.53,776.333 1595.28,776.146 1598.03,775.959 1600.79,775.773 1603.54,775.587 1606.3,775.401 1609.05,775.215 1611.81,775.03 1614.56,774.845 1617.32,774.661 1620.07,774.476 1622.82,774.293 1625.58,774.109 1628.33,773.926 1631.09,773.743 1633.84,773.56 1636.6,773.377 1639.35,773.195 1642.11,773.014 1644.86,772.832 1647.62,772.651 1650.37,772.47 1653.12,772.289 1655.88,772.109 1658.63,771.929 1661.39,771.75 1664.14,771.57 1666.9,771.391 1669.65,771.212 1672.41,771.034 1675.16,770.856 1677.91,770.678 1680.67,770.5 1683.42,770.323 1686.18,770.146 1688.93,769.97 1691.69,769.793 1694.44,769.617 1697.2,769.441 1699.95,769.266 1702.7,769.091 1705.46,768.916 1708.21,768.741 1710.97,768.567 1713.72,768.393 1716.48,768.22 1719.23,768.046 1721.99,767.873 1724.74,767.7 1727.49,767.528 1730.25,767.356 1733,767.184 1735.76,767.012 1738.51,766.841 1741.27,766.67 1744.02,766.499 1746.78,766.329 1749.53,766.158 1752.28,765.989 1755.04,765.819 1757.79,765.65 1760.55,765.481 1763.3,765.312 1766.06,765.144 1768.81,764.976 1771.57,764.808 1774.32,764.64 1777.07,764.473 1779.83,764.306 1782.58,764.139 1785.34,763.973 1788.09,763.807 1790.85,763.641 1793.6,763.476 1796.36,763.31 1799.11,763.145 1801.86,762.981 1804.62,762.816 1807.37,762.652 1810.13,762.488 1812.88,762.325 1815.64,762.162 1818.39,761.999 1821.15,761.836 1823.9,761.674 1826.65,761.511 1829.41,761.35 1832.16,761.188 1834.92,761.027 1837.67,760.866 1840.43,760.705 1843.18,760.545 1845.94,760.384 1848.69,760.224 1851.44,760.065 1854.2,759.906 1856.95,759.746 1859.71,759.588 1862.46,759.429 1865.22,759.271 1867.97,759.113 1870.73,758.955 1873.48,758.798 1876.23,758.641 1878.99,758.484 1881.74,758.327 1884.5,758.171 1887.25,758.015 1890.01,757.859 1892.76,757.703 1895.52,757.548 1898.27,757.393 1901.03,757.239 1903.78,757.084 1906.53,756.93 1909.29,756.776 1912.04,756.622 1914.8,756.469 1917.55,756.316 1920.31,756.163 1923.06,756.011 1925.82,755.858 1928.57,755.706 1931.32,755.554 1934.08,755.403 1936.83,755.252 1939.59,755.101 1942.34,754.95 1945.1,754.8 1947.85,754.649 1950.61,754.499 1953.36,754.35 1956.11,754.2 1958.87,754.051 1961.62,753.902 1964.38,753.754 1967.13,753.605 1969.89,753.457 1972.64,753.309 1975.4,753.162 1978.15,753.014 1980.9,752.867 1983.66,752.721 1986.41,752.574 1989.17,752.428 1991.92,752.282 1994.68,752.136 1997.43,751.99 2000.19,751.845 2002.94,751.7 2005.69,751.555 2008.45,751.411 2011.2,751.266 2013.96,751.122 2016.71,750.979 2019.47,750.835 2022.22,750.692 2024.98,750.549 2027.73,750.406 2030.48,750.263 2033.24,750.121 2035.99,749.979 2038.75,749.837 2041.5,749.696 2044.26,749.555 2047.01,749.414 2049.77,749.273 2052.52,749.132 2055.27,748.992 2058.03,748.852 2060.78,748.712 2063.54,748.572 2066.29,748.433 2069.05,748.294 2071.8,748.155 2074.56,748.017 2077.31,747.878 2080.06,747.74 2082.82,747.602 2085.57,747.465 2088.33,747.327 2091.08,747.19 2093.84,747.053 2096.59,746.917 2099.35,746.78 2102.1,746.644 2104.85,746.508 2107.61,746.372 2110.36,746.237 2113.12,746.102 2115.87,745.967 2118.63,745.832 2121.38,745.697 2124.14,745.563 2126.89,745.429 2129.64,745.295 2132.4,745.162 2135.15,745.028 2137.91,744.895 2140.66,744.762 2143.42,744.63 2146.17,744.497 2148.93,744.365 2151.68,744.233 2154.44,744.101 2157.19,743.97 2159.94,743.838 2162.7,743.707 2165.45,743.577 2168.21,743.446 2170.96,743.316 2173.72,743.186 2176.47,743.056 2179.23,742.926 2181.98,742.797 2184.73,742.667 2187.49,742.538 2190.24,742.41 2193,742.281 2195.75,742.153 2198.51,742.025 2201.26,741.897 2204.02,741.769 2206.77,741.642 2209.52,741.514 2212.28,741.387 2215.03,741.261 2217.79,741.134 2220.54,741.008 2223.3,740.882 2226.05,740.756 2228.81,740.63 2231.56,740.505 2234.31,740.379 2237.07,740.254 2239.82,740.13 2242.58,740.005 2245.33,739.881 2248.09,739.756 2250.84,739.632 2253.6,739.509 2256.35,739.385 2259.1,739.262 2261.86,739.139 2264.61,739.016 2267.37,738.893 2270.12,738.771 2272.88,738.649 2275.63,738.527 2278.39,738.405 2281.14,738.283 2283.89,738.162 2286.65,738.041 2289.4,737.92 2292.16,737.799 2294.91,737.679 2297.67,737.558 2300.42,737.438 2303.18,737.318 2305.93,737.199 2308.68,737.079 2311.44,736.96 2314.19,736.841 2316.95,736.722 2319.7,736.603 2322.46,736.485 2325.21,736.366 2327.97,736.248 2330.72,736.131 2333.47,736.013 2336.23,735.895 2338.98,735.778 2341.74,735.661 2344.49,735.544 2347.25,735.428 2350,735.311 2352.76,735.195 "/>
<path clip-path="url(#clip960)" d="M1969.85 1377.32 L2279.3 1377.32 L2279.3 1169.96 L1969.85 1169.96  Z" fill="#ffffff" fill-rule="evenodd" fill-opacity="1"/>
<polyline clip-path="url(#clip960)" style="stroke:#000000; stroke-linecap:round; stroke-linejoin:round; stroke-width:4; stroke-opacity:1; fill:none" points="1969.85,1377.32 2279.3,1377.32 2279.3,1169.96 1969.85,1169.96 1969.85,1377.32 "/>
<polyline clip-path="url(#clip960)" style="stroke:#009af9; stroke-linecap:round; stroke-linejoin:round; stroke-width:12; stroke-opacity:1; fill:none" points="1994.33,1221.8 2141.24,1221.8 "/>
<path clip-path="url(#clip960)" d="M2165.72 1228.84 L2165.72 1213.15 L2169.98 1213.15 L2169.98 1228.68 Q2169.98 1232.36 2171.42 1234.21 Q2172.85 1236.04 2175.72 1236.04 Q2179.17 1236.04 2181.16 1233.84 Q2183.18 1231.64 2183.18 1227.85 L2183.18 1213.15 L2187.44 1213.15 L2187.44 1239.08 L2183.18 1239.08 L2183.18 1235.09 Q2181.63 1237.45 2179.57 1238.61 Q2177.53 1239.75 2174.82 1239.75 Q2170.35 1239.75 2168.04 1236.97 Q2165.72 1234.19 2165.72 1228.84 M2176.44 1212.52 L2176.44 1212.52 Z" fill="#000000" fill-rule="nonzero" fill-opacity="1" /><path clip-path="url(#clip960)" d="M2195.82 1203.06 L2205.63 1203.06 L2205.63 1206.37 L2200.07 1206.37 L2200.07 1242.02 L2205.63 1242.02 L2205.63 1245.33 L2195.82 1245.33 L2195.82 1203.06 Z" fill="#000000" fill-rule="nonzero" fill-opacity="1" /><path clip-path="url(#clip960)" d="M2216.12 1235.14 L2223.76 1235.14 L2223.76 1208.77 L2215.44 1210.44 L2215.44 1206.18 L2223.71 1204.52 L2228.38 1204.52 L2228.38 1235.14 L2236.02 1235.14 L2236.02 1239.08 L2216.12 1239.08 L2216.12 1235.14 Z" fill="#000000" fill-rule="nonzero" fill-opacity="1" /><path clip-path="url(#clip960)" d="M2254.82 1203.06 L2254.82 1245.33 L2245 1245.33 L2245 1242.02 L2250.54 1242.02 L2250.54 1206.37 L2245 1206.37 L2245 1203.06 L2254.82 1203.06 Z" fill="#000000" fill-rule="nonzero" fill-opacity="1" /><polyline clip-path="url(#clip960)" style="stroke:#e26f46; stroke-linecap:round; stroke-linejoin:round; stroke-width:12; stroke-opacity:1; fill:none" points="1994.33,1273.64 2141.24,1273.64 "/>
<path clip-path="url(#clip960)" d="M2165.72 1280.68 L2165.72 1264.99 L2169.98 1264.99 L2169.98 1280.52 Q2169.98 1284.2 2171.42 1286.05 Q2172.85 1287.88 2175.72 1287.88 Q2179.17 1287.88 2181.16 1285.68 Q2183.18 1283.48 2183.18 1279.69 L2183.18 1264.99 L2187.44 1264.99 L2187.44 1290.92 L2183.18 1290.92 L2183.18 1286.93 Q2181.63 1289.29 2179.57 1290.45 Q2177.53 1291.59 2174.82 1291.59 Q2170.35 1291.59 2168.04 1288.81 Q2165.72 1286.03 2165.72 1280.68 M2176.44 1264.36 L2176.44 1264.36 Z" fill="#000000" fill-rule="nonzero" fill-opacity="1" /><path clip-path="url(#clip960)" d="M2195.82 1254.9 L2205.63 1254.9 L2205.63 1258.21 L2200.07 1258.21 L2200.07 1293.86 L2205.63 1293.86 L2205.63 1297.17 L2195.82 1297.17 L2195.82 1254.9 Z" fill="#000000" fill-rule="nonzero" fill-opacity="1" /><path clip-path="url(#clip960)" d="M2219.33 1286.98 L2235.65 1286.98 L2235.65 1290.92 L2213.71 1290.92 L2213.71 1286.98 Q2216.37 1284.23 2220.95 1279.6 Q2225.56 1274.94 2226.74 1273.6 Q2228.99 1271.08 2229.87 1269.34 Q2230.77 1267.58 2230.77 1265.89 Q2230.77 1263.14 2228.82 1261.4 Q2226.9 1259.67 2223.8 1259.67 Q2221.6 1259.67 2219.15 1260.43 Q2216.72 1261.19 2213.94 1262.74 L2213.94 1258.02 Q2216.76 1256.89 2219.22 1256.31 Q2221.67 1255.73 2223.71 1255.73 Q2229.08 1255.73 2232.27 1258.42 Q2235.47 1261.1 2235.47 1265.59 Q2235.47 1267.72 2234.66 1269.64 Q2233.87 1271.54 2231.76 1274.13 Q2231.19 1274.8 2228.08 1278.02 Q2224.98 1281.22 2219.33 1286.98 Z" fill="#000000" fill-rule="nonzero" fill-opacity="1" /><path clip-path="url(#clip960)" d="M2254.82 1254.9 L2254.82 1297.17 L2245 1297.17 L2245 1293.86 L2250.54 1293.86 L2250.54 1258.21 L2245 1258.21 L2245 1254.9 L2254.82 1254.9 Z" fill="#000000" fill-rule="nonzero" fill-opacity="1" /><polyline clip-path="url(#clip960)" style="stroke:#3da44d; stroke-linecap:round; stroke-linejoin:round; stroke-width:12; stroke-opacity:1; fill:none" points="1994.33,1325.48 2141.24,1325.48 "/>
<path clip-path="url(#clip960)" d="M2165.72 1332.52 L2165.72 1316.83 L2169.98 1316.83 L2169.98 1332.36 Q2169.98 1336.04 2171.42 1337.89 Q2172.85 1339.72 2175.72 1339.72 Q2179.17 1339.72 2181.16 1337.52 Q2183.18 1335.32 2183.18 1331.53 L2183.18 1316.83 L2187.44 1316.83 L2187.44 1342.76 L2183.18 1342.76 L2183.18 1338.77 Q2181.63 1341.13 2179.57 1342.29 Q2177.53 1343.43 2174.82 1343.43 Q2170.35 1343.43 2168.04 1340.65 Q2165.72 1337.87 2165.72 1332.52 M2176.44 1316.2 L2176.44 1316.2 Z" fill="#000000" fill-rule="nonzero" fill-opacity="1" /><path clip-path="url(#clip960)" d="M2206.44 1306.78 Q2203.34 1312.11 2201.83 1317.32 Q2200.33 1322.52 2200.33 1327.87 Q2200.33 1333.22 2201.83 1338.47 Q2203.36 1343.7 2206.44 1349.01 L2202.74 1349.01 Q2199.26 1343.57 2197.53 1338.31 Q2195.82 1333.06 2195.82 1327.87 Q2195.82 1322.71 2197.53 1317.48 Q2199.24 1312.25 2202.74 1306.78 L2206.44 1306.78 Z" fill="#000000" fill-rule="nonzero" fill-opacity="1" /><path clip-path="url(#clip960)" d="M2218.92 1309.47 L2218.92 1316.83 L2227.69 1316.83 L2227.69 1320.14 L2218.92 1320.14 L2218.92 1334.21 Q2218.92 1337.38 2219.77 1338.29 Q2220.65 1339.19 2223.32 1339.19 L2227.69 1339.19 L2227.69 1342.76 L2223.32 1342.76 Q2218.38 1342.76 2216.51 1340.93 Q2214.63 1339.07 2214.63 1334.21 L2214.63 1320.14 L2211.51 1320.14 L2211.51 1316.83 L2214.63 1316.83 L2214.63 1309.47 L2218.92 1309.47 Z" fill="#000000" fill-rule="nonzero" fill-opacity="1" /><path clip-path="url(#clip960)" d="M2232.62 1306.78 L2236.32 1306.78 Q2239.8 1312.25 2241.51 1317.48 Q2243.25 1322.71 2243.25 1327.87 Q2243.25 1333.06 2241.51 1338.31 Q2239.8 1343.57 2236.32 1349.01 L2232.62 1349.01 Q2235.7 1343.7 2237.2 1338.47 Q2238.73 1333.22 2238.73 1327.87 Q2238.73 1322.52 2237.2 1317.32 Q2235.7 1312.11 2232.62 1306.78 Z" fill="#000000" fill-rule="nonzero" fill-opacity="1" /></svg>
