<?xml version="1.0" encoding="utf-8"?>
<svg xmlns="http://www.w3.org/2000/svg" xmlns:xlink="http://www.w3.org/1999/xlink" width="600" height="400" viewBox="0 0 2400 1600">
<defs>
  <clipPath id="clip440">
    <rect x="0" y="0" width="2400" height="1600"/>
  </clipPath>
</defs>
<path clip-path="url(#clip440)" d="M0 1600 L2400 1600 L2400 0 L0 0  Z" fill="#ffffff" fill-rule="evenodd" fill-opacity="1"/>
<defs>
  <clipPath id="clip441">
    <rect x="480" y="0" width="1681" height="1600"/>
  </clipPath>
</defs>
<path clip-path="url(#clip440)" d="M149.191 1423.18 L2352.76 1423.18 L2352.76 47.2441 L149.191 47.2441  Z" fill="#ffffff" fill-rule="evenodd" fill-opacity="1"/>
<defs>
  <clipPath id="clip442">
    <rect x="149" y="47" width="2205" height="1377"/>
  </clipPath>
</defs>
<polyline clip-path="url(#clip442)" style="stroke:#000000; stroke-linecap:round; stroke-linejoin:round; stroke-width:2; stroke-opacity:0.1; fill:none" points="149.191,1423.18 149.191,47.2441 "/>
<polyline clip-path="url(#clip442)" style="stroke:#000000; stroke-linecap:round; stroke-linejoin:round; stroke-width:2; stroke-opacity:0.1; fill:none" points="700.082,1423.18 700.082,47.2441 "/>
<polyline clip-path="url(#clip442)" style="stroke:#000000; stroke-linecap:round; stroke-linejoin:round; stroke-width:2; stroke-opacity:0.1; fill:none" points="1250.97,1423.18 1250.97,47.2441 "/>
<polyline clip-path="url(#clip442)" style="stroke:#000000; stroke-linecap:round; stroke-linejoin:round; stroke-width:2; stroke-opacity:0.1; fill:none" points="1801.86,1423.18 1801.86,47.2441 "/>
<polyline clip-path="url(#clip442)" style="stroke:#000000; stroke-linecap:round; stroke-linejoin:round; stroke-width:2; stroke-opacity:0.1; fill:none" points="2352.76,1423.18 2352.76,47.2441 "/>
<polyline clip-path="url(#clip442)" style="stroke:#000000; stroke-linecap:round; stroke-linejoin:round; stroke-width:2; stroke-opacity:0.1; fill:none" points="149.191,1423.18 2352.76,1423.18 "/>
<polyline clip-path="url(#clip442)" style="stroke:#000000; stroke-linecap:round; stroke-linejoin:round; stroke-width:2; stroke-opacity:0.1; fill:none" points="149.191,1193.86 2352.76,1193.86 "/>
<polyline clip-path="url(#clip442)" style="stroke:#000000; stroke-linecap:round; stroke-linejoin:round; stroke-width:2; stroke-opacity:0.1; fill:none" points="149.191,964.535 2352.76,964.535 "/>
<polyline clip-path="url(#clip442)" style="stroke:#000000; stroke-linecap:round; stroke-linejoin:round; stroke-width:2; stroke-opacity:0.1; fill:none" points="149.191,735.212 2352.76,735.212 "/>
<polyline clip-path="url(#clip442)" style="stroke:#000000; stroke-linecap:round; stroke-linejoin:round; stroke-width:2; stroke-opacity:0.1; fill:none" points="149.191,505.889 2352.76,505.889 "/>
<polyline clip-path="url(#clip442)" style="stroke:#000000; stroke-linecap:round; stroke-linejoin:round; stroke-width:2; stroke-opacity:0.1; fill:none" points="149.191,276.567 2352.76,276.567 "/>
<polyline clip-path="url(#clip442)" style="stroke:#000000; stroke-linecap:round; stroke-linejoin:round; stroke-width:2; stroke-opacity:0.1; fill:none" points="149.191,47.2441 2352.76,47.2441 "/>
<polyline clip-path="url(#clip440)" style="stroke:#000000; stroke-linecap:round; stroke-linejoin:round; stroke-width:4; stroke-opacity:1; fill:none" points="149.191,1423.18 2352.76,1423.18 "/>
<polyline clip-path="url(#clip440)" style="stroke:#000000; stroke-linecap:round; stroke-linejoin:round; stroke-width:4; stroke-opacity:1; fill:none" points="149.191,1423.18 149.191,1404.28 "/>
<polyline clip-path="url(#clip440)" style="stroke:#000000; stroke-linecap:round; stroke-linejoin:round; stroke-width:4; stroke-opacity:1; fill:none" points="700.082,1423.18 700.082,1404.28 "/>
<polyline clip-path="url(#clip440)" style="stroke:#000000; stroke-linecap:round; stroke-linejoin:round; stroke-width:4; stroke-opacity:1; fill:none" points="1250.97,1423.18 1250.97,1404.28 "/>
<polyline clip-path="url(#clip440)" style="stroke:#000000; stroke-linecap:round; stroke-linejoin:round; stroke-width:4; stroke-opacity:1; fill:none" points="1801.86,1423.18 1801.86,1404.28 "/>
<polyline clip-path="url(#clip440)" style="stroke:#000000; stroke-linecap:round; stroke-linejoin:round; stroke-width:4; stroke-opacity:1; fill:none" points="2352.76,1423.18 2352.76,1404.28 "/>
<path clip-path="url(#clip440)" d="M149.191 1454.1 Q145.58 1454.1 143.751 1457.66 Q141.946 1461.2 141.946 1468.33 Q141.946 1475.44 143.751 1479.01 Q145.58 1482.55 149.191 1482.55 Q152.825 1482.55 154.631 1479.01 Q156.459 1475.44 156.459 1468.33 Q156.459 1461.2 154.631 1457.66 Q152.825 1454.1 149.191 1454.1 M149.191 1450.39 Q155.001 1450.39 158.057 1455 Q161.135 1459.58 161.135 1468.33 Q161.135 1477.06 158.057 1481.67 Q155.001 1486.25 149.191 1486.25 Q143.381 1486.25 140.302 1481.67 Q137.246 1477.06 137.246 1468.33 Q137.246 1459.58 140.302 1455 Q143.381 1450.39 149.191 1450.39 Z" fill="#000000" fill-rule="nonzero" fill-opacity="1" /><path clip-path="url(#clip440)" d="M694.735 1481.64 L711.054 1481.64 L711.054 1485.58 L689.11 1485.58 L689.11 1481.64 Q691.772 1478.89 696.355 1474.26 Q700.962 1469.61 702.142 1468.27 Q704.388 1465.74 705.267 1464.01 Q706.17 1462.25 706.17 1460.56 Q706.17 1457.8 704.226 1456.07 Q702.304 1454.33 699.203 1454.33 Q697.003 1454.33 694.55 1455.09 Q692.119 1455.86 689.341 1457.41 L689.341 1452.69 Q692.166 1451.55 694.619 1450.97 Q697.073 1450.39 699.11 1450.39 Q704.48 1450.39 707.675 1453.08 Q710.869 1455.77 710.869 1460.26 Q710.869 1462.39 710.059 1464.31 Q709.272 1466.2 707.165 1468.8 Q706.587 1469.47 703.485 1472.69 Q700.383 1475.88 694.735 1481.64 Z" fill="#000000" fill-rule="nonzero" fill-opacity="1" /><path clip-path="url(#clip440)" d="M1253.98 1455.09 L1242.18 1473.54 L1253.98 1473.54 L1253.98 1455.09 M1252.76 1451.02 L1258.64 1451.02 L1258.64 1473.54 L1263.57 1473.54 L1263.57 1477.43 L1258.64 1477.43 L1258.64 1485.58 L1253.98 1485.58 L1253.98 1477.43 L1238.38 1477.43 L1238.38 1472.92 L1252.76 1451.02 Z" fill="#000000" fill-rule="nonzero" fill-opacity="1" /><path clip-path="url(#clip440)" d="M1802.27 1466.44 Q1799.12 1466.44 1797.27 1468.59 Q1795.44 1470.74 1795.44 1474.49 Q1795.44 1478.22 1797.27 1480.39 Q1799.12 1482.55 1802.27 1482.55 Q1805.42 1482.55 1807.25 1480.39 Q1809.1 1478.22 1809.1 1474.49 Q1809.1 1470.74 1807.25 1468.59 Q1805.42 1466.44 1802.27 1466.44 M1811.55 1451.78 L1811.55 1456.04 Q1809.79 1455.21 1807.99 1454.77 Q1806.2 1454.33 1804.45 1454.33 Q1799.82 1454.33 1797.36 1457.45 Q1794.93 1460.58 1794.58 1466.9 Q1795.95 1464.89 1798.01 1463.82 Q1800.07 1462.73 1802.55 1462.73 Q1807.76 1462.73 1810.77 1465.9 Q1813.8 1469.05 1813.8 1474.49 Q1813.8 1479.82 1810.65 1483.03 Q1807.5 1486.25 1802.27 1486.25 Q1796.27 1486.25 1793.1 1481.67 Q1789.93 1477.06 1789.93 1468.33 Q1789.93 1460.14 1793.82 1455.28 Q1797.71 1450.39 1804.26 1450.39 Q1806.02 1450.39 1807.8 1450.74 Q1809.61 1451.09 1811.55 1451.78 Z" fill="#000000" fill-rule="nonzero" fill-opacity="1" /><path clip-path="url(#clip440)" d="M2352.76 1469.17 Q2349.42 1469.17 2347.5 1470.95 Q2345.6 1472.73 2345.6 1475.86 Q2345.6 1478.98 2347.5 1480.77 Q2349.42 1482.55 2352.76 1482.55 Q2356.09 1482.55 2358.01 1480.77 Q2359.93 1478.96 2359.93 1475.86 Q2359.93 1472.73 2358.01 1470.95 Q2356.11 1469.17 2352.76 1469.17 M2348.08 1467.18 Q2345.07 1466.44 2343.38 1464.38 Q2341.71 1462.32 2341.71 1459.35 Q2341.71 1455.21 2344.65 1452.8 Q2347.62 1450.39 2352.76 1450.39 Q2357.92 1450.39 2360.86 1452.8 Q2363.8 1455.21 2363.8 1459.35 Q2363.8 1462.32 2362.11 1464.38 Q2360.44 1466.44 2357.45 1467.18 Q2360.83 1467.96 2362.71 1470.26 Q2364.61 1472.55 2364.61 1475.86 Q2364.61 1480.88 2361.53 1483.57 Q2358.47 1486.25 2352.76 1486.25 Q2347.04 1486.25 2343.96 1483.57 Q2340.9 1480.88 2340.9 1475.86 Q2340.9 1472.55 2342.8 1470.26 Q2344.7 1467.96 2348.08 1467.18 M2346.37 1459.79 Q2346.37 1462.48 2348.03 1463.98 Q2349.72 1465.49 2352.76 1465.49 Q2355.77 1465.49 2357.45 1463.98 Q2359.17 1462.48 2359.17 1459.79 Q2359.17 1457.11 2357.45 1455.6 Q2355.77 1454.1 2352.76 1454.1 Q2349.72 1454.1 2348.03 1455.6 Q2346.37 1457.11 2346.37 1459.79 Z" fill="#000000" fill-rule="nonzero" fill-opacity="1" /><path clip-path="url(#clip440)" d="M1250.03 1522.27 L1250.03 1532.4 L1262.1 1532.4 L1262.1 1536.95 L1250.03 1536.95 L1250.03 1556.3 Q1250.03 1560.66 1251.21 1561.9 Q1252.42 1563.14 1256.08 1563.14 L1262.1 1563.14 L1262.1 1568.04 L1256.08 1568.04 Q1249.3 1568.04 1246.72 1565.53 Q1244.15 1562.98 1244.15 1556.3 L1244.15 1536.95 L1239.85 1536.95 L1239.85 1532.4 L1244.15 1532.4 L1244.15 1522.27 L1250.03 1522.27 Z" fill="#000000" fill-rule="nonzero" fill-opacity="1" /><polyline clip-path="url(#clip440)" style="stroke:#000000; stroke-linecap:round; stroke-linejoin:round; stroke-width:4; stroke-opacity:1; fill:none" points="149.191,1423.18 149.191,47.2441 "/>
<polyline clip-path="url(#clip440)" style="stroke:#000000; stroke-linecap:round; stroke-linejoin:round; stroke-width:4; stroke-opacity:1; fill:none" points="149.191,1423.18 168.089,1423.18 "/>
<polyline clip-path="url(#clip440)" style="stroke:#000000; stroke-linecap:round; stroke-linejoin:round; stroke-width:4; stroke-opacity:1; fill:none" points="149.191,1193.86 168.089,1193.86 "/>
<polyline clip-path="url(#clip440)" style="stroke:#000000; stroke-linecap:round; stroke-linejoin:round; stroke-width:4; stroke-opacity:1; fill:none" points="149.191,964.535 168.089,964.535 "/>
<polyline clip-path="url(#clip440)" style="stroke:#000000; stroke-linecap:round; stroke-linejoin:round; stroke-width:4; stroke-opacity:1; fill:none" points="149.191,735.212 168.089,735.212 "/>
<polyline clip-path="url(#clip440)" style="stroke:#000000; stroke-linecap:round; stroke-linejoin:round; stroke-width:4; stroke-opacity:1; fill:none" points="149.191,505.889 168.089,505.889 "/>
<polyline clip-path="url(#clip440)" style="stroke:#000000; stroke-linecap:round; stroke-linejoin:round; stroke-width:4; stroke-opacity:1; fill:none" points="149.191,276.567 168.089,276.567 "/>
<polyline clip-path="url(#clip440)" style="stroke:#000000; stroke-linecap:round; stroke-linejoin:round; stroke-width:4; stroke-opacity:1; fill:none" points="149.191,47.2441 168.089,47.2441 "/>
<path clip-path="url(#clip440)" d="M51.3162 1423.63 L80.992 1423.63 L80.992 1427.57 L51.3162 1427.57 L51.3162 1423.63 Z" fill="#000000" fill-rule="nonzero" fill-opacity="1" /><path clip-path="url(#clip440)" d="M101.663 1421.32 Q98.515 1421.32 96.6632 1423.47 Q94.8345 1425.62 94.8345 1429.37 Q94.8345 1433.1 96.6632 1435.27 Q98.515 1437.43 101.663 1437.43 Q104.811 1437.43 106.64 1435.27 Q108.492 1433.1 108.492 1429.37 Q108.492 1425.62 106.64 1423.47 Q104.811 1421.32 101.663 1421.32 M110.946 1406.66 L110.946 1410.92 Q109.186 1410.09 107.381 1409.65 Q105.598 1409.21 103.839 1409.21 Q99.2095 1409.21 96.7558 1412.33 Q94.3252 1415.46 93.978 1421.78 Q95.3437 1419.77 97.4039 1418.7 Q99.4641 1417.61 101.941 1417.61 Q107.149 1417.61 110.158 1420.78 Q113.191 1423.93 113.191 1429.37 Q113.191 1434.7 110.043 1437.91 Q106.895 1441.13 101.663 1441.13 Q95.6678 1441.13 92.4965 1436.55 Q89.3253 1431.94 89.3253 1423.21 Q89.3253 1415.02 93.2141 1410.16 Q97.103 1405.27 103.654 1405.27 Q105.413 1405.27 107.196 1405.62 Q109.001 1405.97 110.946 1406.66 Z" fill="#000000" fill-rule="nonzero" fill-opacity="1" /><path clip-path="url(#clip440)" d="M50.9921 1194.31 L80.6679 1194.31 L80.6679 1198.24 L50.9921 1198.24 L50.9921 1194.31 Z" fill="#000000" fill-rule="nonzero" fill-opacity="1" /><path clip-path="url(#clip440)" d="M103.608 1180.65 L91.8021 1199.1 L103.608 1199.1 L103.608 1180.65 M102.381 1176.58 L108.26 1176.58 L108.26 1199.1 L113.191 1199.1 L113.191 1202.99 L108.26 1202.99 L108.26 1211.14 L103.608 1211.14 L103.608 1202.99 L88.0058 1202.99 L88.0058 1198.48 L102.381 1176.58 Z" fill="#000000" fill-rule="nonzero" fill-opacity="1" /><path clip-path="url(#clip440)" d="M53.0754 964.986 L82.7512 964.986 L82.7512 968.921 L53.0754 968.921 L53.0754 964.986 Z" fill="#000000" fill-rule="nonzero" fill-opacity="1" /><path clip-path="url(#clip440)" d="M96.8715 977.879 L113.191 977.879 L113.191 981.815 L91.2465 981.815 L91.2465 977.879 Q93.9086 975.125 98.4919 970.495 Q103.098 965.842 104.279 964.5 Q106.524 961.977 107.404 960.241 Q108.307 958.481 108.307 956.792 Q108.307 954.037 106.362 952.301 Q104.441 950.565 101.339 950.565 Q99.14 950.565 96.6863 951.329 Q94.2558 952.093 91.478 953.643 L91.478 948.921 Q94.3021 947.787 96.7558 947.208 Q99.2095 946.63 101.246 946.63 Q106.617 946.63 109.811 949.315 Q113.006 952 113.006 956.491 Q113.006 958.62 112.196 960.542 Q111.408 962.44 109.302 965.032 Q108.723 965.704 105.621 968.921 Q102.52 972.116 96.8715 977.879 Z" fill="#000000" fill-rule="nonzero" fill-opacity="1" /><path clip-path="url(#clip440)" d="M101.246 721.011 Q97.6354 721.011 95.8067 724.575 Q94.0012 728.117 94.0012 735.247 Q94.0012 742.353 95.8067 745.918 Q97.6354 749.46 101.246 749.46 Q104.881 749.46 106.686 745.918 Q108.515 742.353 108.515 735.247 Q108.515 728.117 106.686 724.575 Q104.881 721.011 101.246 721.011 M101.246 717.307 Q107.057 717.307 110.112 721.913 Q113.191 726.497 113.191 735.247 Q113.191 743.973 110.112 748.58 Q107.057 753.163 101.246 753.163 Q95.4363 753.163 92.3576 748.58 Q89.3021 743.973 89.3021 735.247 Q89.3021 726.497 92.3576 721.913 Q95.4363 717.307 101.246 717.307 Z" fill="#000000" fill-rule="nonzero" fill-opacity="1" /><path clip-path="url(#clip440)" d="M96.8715 519.234 L113.191 519.234 L113.191 523.169 L91.2465 523.169 L91.2465 519.234 Q93.9086 516.48 98.4919 511.85 Q103.098 507.197 104.279 505.855 Q106.524 503.331 107.404 501.595 Q108.307 499.836 108.307 498.146 Q108.307 495.392 106.362 493.656 Q104.441 491.92 101.339 491.92 Q99.14 491.92 96.6863 492.683 Q94.2558 493.447 91.478 494.998 L91.478 490.276 Q94.3021 489.142 96.7558 488.563 Q99.2095 487.984 101.246 487.984 Q106.617 487.984 109.811 490.67 Q113.006 493.355 113.006 497.845 Q113.006 499.975 112.196 501.896 Q111.408 503.794 109.302 506.387 Q108.723 507.058 105.621 510.276 Q102.52 513.47 96.8715 519.234 Z" fill="#000000" fill-rule="nonzero" fill-opacity="1" /><path clip-path="url(#clip440)" d="M103.608 263.361 L91.8021 281.81 L103.608 281.81 L103.608 263.361 M102.381 259.287 L108.26 259.287 L108.26 281.81 L113.191 281.81 L113.191 285.699 L108.26 285.699 L108.26 293.847 L103.608 293.847 L103.608 285.699 L88.0058 285.699 L88.0058 281.185 L102.381 259.287 Z" fill="#000000" fill-rule="nonzero" fill-opacity="1" /><path clip-path="url(#clip440)" d="M101.663 45.3807 Q98.515 45.3807 96.6632 47.5334 Q94.8345 49.6862 94.8345 53.4362 Q94.8345 57.163 96.6632 59.3389 Q98.515 61.4917 101.663 61.4917 Q104.811 61.4917 106.64 59.3389 Q108.492 57.163 108.492 53.4362 Q108.492 49.6862 106.64 47.5334 Q104.811 45.3807 101.663 45.3807 M110.946 30.728 L110.946 34.9872 Q109.186 34.1539 107.381 33.7141 Q105.598 33.2743 103.839 33.2743 Q99.2095 33.2743 96.7558 36.3992 Q94.3252 39.5242 93.978 45.8436 Q95.3437 43.8298 97.4039 42.765 Q99.4641 41.677 101.941 41.677 Q107.149 41.677 110.158 44.8483 Q113.191 47.9964 113.191 53.4362 Q113.191 58.7602 110.043 61.9778 Q106.895 65.1954 101.663 65.1954 Q95.6678 65.1954 92.4965 60.6121 Q89.3253 56.0056 89.3253 47.2788 Q89.3253 39.0844 93.2141 34.2233 Q97.103 29.3391 103.654 29.3391 Q105.413 29.3391 107.196 29.6863 Q109.001 30.0335 110.946 30.728 Z" fill="#000000" fill-rule="nonzero" fill-opacity="1" /><polyline clip-path="url(#clip442)" style="stroke:#009af9; stroke-linecap:round; stroke-linejoin:round; stroke-width:12; stroke-opacity:1; fill:none" points="149.191,1193.86 151.945,1193.78 154.7,1193.56 157.454,1193.21 160.209,1192.71 162.963,1192.08 165.718,1191.33 168.472,1190.45 171.227,1189.46 173.981,1188.36 176.735,1187.14 179.49,1185.83 182.244,1184.42 184.999,1182.92 187.753,1181.33 190.508,1179.66 193.262,1177.92 196.017,1176.1 198.771,1174.21 201.526,1172.27 204.28,1170.26 207.034,1168.2 209.789,1166.09 212.543,1163.93 215.298,1161.73 218.052,1159.49 220.807,1157.22 223.561,1154.91 226.316,1152.56 229.07,1150.2 231.825,1147.8 234.579,1145.38 237.333,1142.94 240.088,1140.48 242.842,1138.01 245.597,1135.52 248.351,1133.01 251.106,1130.5 253.86,1127.97 256.615,1125.43 259.369,1122.88 262.124,1120.33 264.878,1117.77 267.632,1115.2 270.387,1112.62 273.141,1110.05 275.896,1107.46 278.65,1104.88 281.405,1102.29 284.159,1099.7 286.914,1097.11 289.668,1094.52 292.423,1091.92 295.177,1089.32 297.932,1086.73 300.686,1084.13 303.44,1081.53 306.195,1078.93 308.949,1076.33 311.704,1073.73 314.458,1071.13 317.213,1068.52 319.967,1065.92 322.722,1063.32 325.476,1060.72 328.231,1058.11 330.985,1055.51 333.739,1052.91 336.494,1050.31 339.248,1047.7 342.003,1045.1 344.757,1042.5 347.512,1039.9 350.266,1037.29 353.021,1034.69 355.775,1032.09 358.53,1029.49 361.284,1026.88 364.038,1024.28 366.793,1021.68 369.547,1019.08 372.302,1016.47 375.056,1013.87 377.811,1011.27 380.565,1008.67 383.32,1006.06 386.074,1003.46 388.829,1000.86 391.583,998.255 394.337,995.652 397.092,993.05 399.846,990.447 402.601,987.845 405.355,985.243 408.11,982.641 410.864,980.038 413.619,977.436 416.373,974.834 419.128,972.232 421.882,969.631 424.636,967.029 427.391,964.428 430.145,961.827 432.9,959.226 435.654,956.625 438.409,954.025 441.163,951.425 443.918,948.825 446.672,946.225 449.427,943.626 452.181,941.027 454.936,938.429 457.69,935.831 460.444,933.234 463.199,930.637 465.953,928.041 468.708,925.445 471.462,922.85 474.217,920.256 476.971,917.662 479.726,915.069 482.48,912.477 485.235,909.886 487.989,907.295 490.743,904.706 493.498,902.117 496.252,899.529 499.007,896.942 501.761,894.357 504.516,891.772 507.27,889.189 510.025,886.606 512.779,884.025 515.534,881.445 518.288,878.867 521.042,876.289 523.797,873.713 526.551,871.139 529.306,868.566 532.06,865.995 534.815,863.425 537.569,860.856 540.324,858.29 543.078,855.725 545.833,853.161 548.587,850.6 551.341,848.04 554.096,845.483 556.85,842.927 559.605,840.373 562.359,837.821 565.114,835.272 567.868,832.724 570.623,830.178 573.377,827.635 576.132,825.094 578.886,822.555 581.641,820.018 584.395,817.484 587.149,814.952 589.904,812.422 592.658,809.895 595.413,807.371 598.167,804.849 600.922,802.329 603.676,799.813 606.431,797.299 609.185,794.787 611.94,792.278 614.694,789.772 617.448,787.269 620.203,784.769 622.957,782.271 625.712,779.777 628.466,777.285 631.221,774.797 633.975,772.311 636.73,769.828 639.484,767.349 642.239,764.873 644.993,762.399 647.747,759.929 650.502,757.462 653.256,754.999 656.011,752.538 658.765,750.081 661.52,747.628 664.274,745.177 667.029,742.73 669.783,740.287 672.538,737.847 675.292,735.41 678.046,732.977 680.801,730.548 683.555,728.121 686.31,725.699 689.064,723.28 691.819,720.865 694.573,718.454 697.328,716.046 700.082,713.642 702.837,711.242 705.591,708.845 708.345,706.452 711.1,704.064 713.854,701.679 716.609,699.297 719.363,696.92 722.118,694.547 724.872,692.177 727.627,689.812 730.381,687.45 733.136,685.093 735.89,682.739 738.645,680.389 741.399,678.044 744.153,675.702 746.908,673.365 749.662,671.032 752.417,668.703 755.171,666.378 757.926,664.057 760.68,661.74 763.435,659.428 766.189,657.12 768.944,654.816 771.698,652.516 774.452,650.221 777.207,647.93 779.961,645.643 782.716,643.36 785.47,641.082 788.225,638.808 790.979,636.539 793.734,634.274 796.488,632.013 799.243,629.757 801.997,627.505 804.751,625.258 807.506,623.015 810.26,620.776 813.015,618.542 815.769,616.313 818.524,614.088 821.278,611.868 824.033,609.652 826.787,607.441 829.542,605.234 832.296,603.032 835.05,600.835 837.805,598.642 840.559,596.454 843.314,594.27 846.068,592.091 848.823,589.917 851.577,587.747 854.332,585.583 857.086,583.422 859.841,581.267 862.595,579.116 865.349,576.97 868.104,574.829 870.858,572.692 873.613,570.561 876.367,568.434 879.122,566.312 881.876,564.194 884.631,562.082 887.385,559.974 890.14,557.872 892.894,555.773 895.649,553.68 898.403,551.592 901.157,549.508 903.912,547.43 906.666,545.356 909.421,543.287 912.175,541.224 914.93,539.165 917.684,537.111 920.439,535.062 923.193,533.017 925.948,530.978 928.702,528.944 931.456,526.915 934.211,524.891 936.965,522.872 939.72,520.858 942.474,518.848 945.229,516.844 947.983,514.845 950.738,512.851 953.492,510.862 956.247,508.879 959.001,506.9 961.755,504.926 964.51,502.957 967.264,500.994 970.019,499.035 972.773,497.082 975.528,495.134 978.282,493.191 981.037,491.253 983.791,489.32 986.546,487.393 989.3,485.471 992.054,483.553 994.809,481.642 997.563,479.735 1000.32,477.833 1003.07,475.937 1005.83,474.046 1008.58,472.16 1011.34,470.279 1014.09,468.404 1016.84,466.534 1019.6,464.669 1022.35,462.809 1025.11,460.955 1027.86,459.106 1030.62,457.263 1033.37,455.424 1036.13,453.591 1038.88,451.764 1041.63,449.941 1044.39,448.124 1047.14,446.313 1049.9,444.506 1052.65,442.705 1055.41,440.91 1058.16,439.12 1060.92,437.335 1063.67,435.556 1066.42,433.782 1069.18,432.014 1071.93,430.251 1074.69,428.493 1077.44,426.741 1080.2,424.995 1082.95,423.253 1085.71,421.518 1088.46,419.788 1091.21,418.063 1093.97,416.344 1096.72,414.63 1099.48,412.922 1102.23,411.22 1104.99,409.523 1107.74,407.831 1110.5,406.145 1113.25,404.465 1116.01,402.79 1118.76,401.12 1121.51,399.457 1124.27,397.799 1127.02,396.147 1129.78,394.5 1132.53,392.858 1135.29,391.223 1138.04,389.593 1140.8,387.968 1143.55,386.35 1146.3,384.737 1149.06,383.129 1151.81,381.528 1154.57,379.932 1157.32,378.341 1160.08,376.757 1162.83,375.178 1165.59,373.605 1168.34,372.038 1171.09,370.476 1173.85,368.92 1176.6,367.37 1179.36,365.826 1182.11,364.287 1184.87,362.755 1187.62,361.228 1190.38,359.706 1193.13,358.191 1195.88,356.682 1198.64,355.178 1201.39,353.68 1204.15,352.188 1206.9,350.702 1209.66,349.222 1212.41,347.747 1215.17,346.279 1217.92,344.816 1220.67,343.36 1223.43,341.909 1226.18,340.464 1228.94,339.025 1231.69,337.592 1234.45,336.165 1237.2,334.744 1239.96,333.329 1242.71,331.92 1245.46,330.517 1248.22,329.12 1250.97,327.729 1253.73,326.344 1256.48,324.965 1259.24,323.592 1261.99,322.225 1264.75,320.864 1267.5,319.509 1270.25,318.16 1273.01,316.818 1275.76,315.481 1278.52,314.151 1281.27,312.826 1284.03,311.508 1286.78,310.196 1289.54,308.89 1292.29,307.59 1295.04,306.297 1297.8,305.009 1300.55,303.728 1303.31,302.453 1306.06,301.184 1308.82,299.921 1311.57,298.665 1314.33,297.415 1317.08,296.171 1319.83,294.933 1322.59,293.702 1325.34,292.476 1328.1,291.258 1330.85,290.045 1333.61,288.839 1336.36,287.639 1339.12,286.445 1341.87,285.258 1344.62,284.077 1347.38,282.902 1350.13,281.734 1352.89,280.572 1355.64,279.417 1358.4,278.268 1361.15,277.125 1363.91,275.989 1366.66,274.859 1369.41,273.736 1372.17,272.619 1374.92,271.508 1377.68,270.404 1380.43,269.307 1383.19,268.216 1385.94,267.131 1388.7,266.053 1391.45,264.982 1394.21,263.917 1396.96,262.859 1399.71,261.807 1402.47,260.761 1405.22,259.723 1407.98,258.691 1410.73,257.665 1413.49,256.646 1416.24,255.634 1419,254.628 1421.75,253.629 1424.5,252.637 1427.26,251.652 1430.01,250.673 1432.77,249.7 1435.52,248.735 1438.28,247.776 1441.03,246.823 1443.79,245.878 1446.54,244.94 1449.29,244.008 1452.05,243.083 1454.8,242.164 1457.56,241.253 1460.31,240.348 1463.07,239.45 1465.82,238.559 1468.58,237.675 1471.33,236.797 1474.08,235.926 1476.84,235.063 1479.59,234.206 1482.35,233.356 1485.1,232.513 1487.86,231.677 1490.61,230.848 1493.37,230.025 1496.12,229.21 1498.87,228.402 1501.63,227.6 1504.38,226.806 1507.14,226.019 1509.89,225.238 1512.65,224.465 1515.4,223.699 1518.16,222.939 1520.91,222.187 1523.66,221.442 1526.42,220.704 1529.17,219.973 1531.93,219.249 1534.68,218.532 1537.44,217.823 1540.19,217.12 1542.95,216.425 1545.7,215.737 1548.45,215.056 1551.21,214.382 1553.96,213.716 1556.72,213.056 1559.47,212.404 1562.23,211.759 1564.98,211.122 1567.74,210.492 1570.49,209.868 1573.24,209.253 1576,208.644 1578.75,208.043 1581.51,207.449 1584.26,206.863 1587.02,206.284 1589.77,205.712 1592.53,205.148 1595.28,204.591 1598.03,204.041 1600.79,203.499 1603.54,202.965 1606.3,202.437 1609.05,201.918 1611.81,201.405 1614.56,200.9 1617.32,200.403 1620.07,199.913 1622.82,199.431 1625.58,198.956 1628.33,198.489 1631.09,198.03 1633.84,197.578 1636.6,197.133 1639.35,196.696 1642.11,196.267 1644.86,195.846 1647.62,195.432 1650.37,195.025 1653.12,194.627 1655.88,194.236 1658.63,193.853 1661.39,193.477 1664.14,193.109 1666.9,192.749 1669.65,192.397 1672.41,192.052 1675.16,191.716 1677.91,191.387 1680.67,191.066 1683.42,190.752 1686.18,190.447 1688.93,190.149 1691.69,189.859 1694.44,189.577 1697.2,189.303 1699.95,189.037 1702.7,188.779 1705.46,188.529 1708.21,188.286 1710.97,188.052 1713.72,187.826 1716.48,187.607 1719.23,187.397 1721.99,187.194 1724.74,187 1727.49,186.813 1730.25,186.635 1733,186.465 1735.76,186.303 1738.51,186.149 1741.27,186.003 1744.02,185.865 1746.78,185.735 1749.53,185.614 1752.28,185.5 1755.04,185.395 1757.79,185.298 1760.55,185.209 1763.3,185.129 1766.06,185.056 1768.81,184.992 1771.57,184.936 1774.32,184.889 1777.07,184.85 1779.83,184.819 1782.58,184.796 1785.34,184.782 1788.09,184.776 1790.85,184.778 1793.6,184.789 1796.36,184.809 1799.11,184.836 1801.86,184.872 1804.62,184.917 1807.37,184.97 1810.13,185.031 1812.88,185.101 1815.64,185.179 1818.39,185.266 1821.15,185.362 1823.9,185.466 1826.65,185.578 1829.41,185.699 1832.16,185.829 1834.92,185.967 1837.67,186.114 1840.43,186.27 1843.18,186.434 1845.94,186.607 1848.69,186.788 1851.44,186.978 1854.2,187.178 1856.95,187.385 1859.71,187.602 1862.46,187.827 1865.22,188.06 1867.97,188.303 1870.73,188.554 1873.48,188.815 1876.23,189.084 1878.99,189.362 1881.74,189.649 1884.5,189.944 1887.25,190.249 1890.01,190.562 1892.76,190.885 1895.52,191.216 1898.27,191.556 1901.03,191.906 1903.78,192.264 1906.53,192.631 1909.29,193.007 1912.04,193.392 1914.8,193.787 1917.55,194.19 1920.31,194.602 1923.06,195.024 1925.82,195.455 1928.57,195.894 1931.32,196.343 1934.08,196.801 1936.83,197.269 1939.59,197.745 1942.34,198.231 1945.1,198.725 1947.85,199.229 1950.61,199.743 1953.36,200.265 1956.11,200.797 1958.87,201.338 1961.62,201.888 1964.38,202.448 1967.13,203.017 1969.89,203.595 1972.64,204.183 1975.4,204.78 1978.15,205.387 1980.9,206.003 1983.66,206.628 1986.41,207.263 1989.17,207.908 1991.92,208.562 1994.68,209.225 1997.43,209.898 2000.19,210.58 2002.94,211.272 2005.69,211.973 2008.45,212.685 2011.2,213.405 2013.96,214.136 2016.71,214.875 2019.47,215.625 2022.22,216.384 2024.98,217.153 2027.73,217.932 2030.48,218.72 2033.24,219.518 2035.99,220.326 2038.75,221.143 2041.5,221.971 2044.26,222.808 2047.01,223.655 2049.77,224.511 2052.52,225.378 2055.27,226.254 2058.03,227.141 2060.78,228.037 2063.54,228.943 2066.29,229.859 2069.05,230.785 2071.8,231.721 2074.56,232.667 2077.31,233.623 2080.06,234.589 2082.82,235.564 2085.57,236.55 2088.33,237.546 2091.08,238.552 2093.84,239.569 2096.59,240.595 2099.35,241.631 2102.1,242.678 2104.85,243.734 2107.61,244.801 2110.36,245.878 2113.12,246.965 2115.87,248.063 2118.63,249.171 2121.38,250.288 2124.14,251.417 2126.89,252.555 2129.64,253.704 2132.4,254.863 2135.15,256.032 2137.91,257.212 2140.66,258.403 2143.42,259.603 2146.17,260.814 2148.93,262.035 2151.68,263.267 2154.44,264.51 2157.19,265.762 2159.94,267.026 2162.7,268.299 2165.45,269.584 2168.21,270.878 2170.96,272.184 2173.72,273.5 2176.47,274.826 2179.23,276.163 2181.98,277.511 2184.73,278.869 2187.49,280.239 2190.24,281.618 2193,283.009 2195.75,284.41 2198.51,285.822 2201.26,287.244 2204.02,288.678 2206.77,290.122 2209.52,291.577 2212.28,293.042 2215.03,294.519 2217.79,296.007 2220.54,297.505 2223.3,299.014 2226.05,300.534 2228.81,302.065 2231.56,303.607 2234.31,305.16 2237.07,306.724 2239.82,308.299 2242.58,309.884 2245.33,311.481 2248.09,313.089 2250.84,314.708 2253.6,316.338 2256.35,317.979 2259.1,319.631 2261.86,321.295 2264.61,322.969 2267.37,324.655 2270.12,326.351 2272.88,328.06 2275.63,329.779 2278.39,331.509 2281.14,333.251 2283.89,335.004 2286.65,336.768 2289.4,338.543 2292.16,340.33 2294.91,342.128 2297.67,343.937 2300.42,345.758 2303.18,347.59 2305.93,349.434 2308.68,351.289 2311.44,353.156 2314.19,355.034 2316.95,356.923 2319.7,358.824 2322.46,360.736 2325.21,362.66 2327.97,364.595 2330.72,366.543 2333.47,368.501 2336.23,370.471 2338.98,372.452 2341.74,374.446 2344.49,376.451 2347.25,378.468 2350,380.497 2352.76,382.537 "/>
<polyline clip-path="url(#clip442)" style="stroke:#e26f46; stroke-linecap:round; stroke-linejoin:round; stroke-width:12; stroke-opacity:1; fill:none" points="149.191,735.212 151.945,720.53 154.7,706.255 157.454,692.409 160.209,679.011 162.963,666.08 165.718,653.631 168.472,641.676 171.227,630.225 173.981,619.285 176.735,608.859 179.49,598.949 182.244,589.553 184.999,580.666 187.753,572.281 190.508,564.389 193.262,556.979 196.017,550.036 198.771,543.546 201.526,537.491 204.28,531.855 207.034,526.62 209.789,521.768 212.543,517.281 215.298,513.139 218.052,509.324 220.807,505.817 223.561,502.601 226.316,499.659 229.07,496.973 231.825,494.527 234.579,492.306 237.333,490.294 240.088,488.477 242.842,486.841 245.597,485.371 248.351,484.055 251.106,482.88 253.86,481.834 256.615,480.907 259.369,480.087 262.124,479.364 264.878,478.731 267.632,478.177 270.387,477.694 273.141,477.276 275.896,476.913 278.65,476.601 281.405,476.333 284.159,476.103 286.914,475.907 289.668,475.739 292.423,475.597 295.177,475.477 297.932,475.375 300.686,475.29 303.44,475.22 306.195,475.163 308.949,475.116 311.704,475.078 314.458,475.047 317.213,475.022 319.967,475.003 322.722,474.989 325.476,474.978 328.231,474.97 330.985,474.964 333.739,474.96 336.494,474.957 339.248,474.955 342.003,474.953 344.757,474.952 347.512,474.951 350.266,474.951 353.021,474.951 355.775,474.95 358.53,474.95 361.284,474.95 364.038,474.95 366.793,474.95 369.547,474.949 372.302,474.949 375.056,474.95 377.811,474.95 380.565,474.951 383.32,474.952 386.074,474.953 388.829,474.955 391.583,474.958 394.337,474.961 397.092,474.965 399.846,474.97 402.601,474.976 405.355,474.982 408.11,474.99 410.864,475 413.619,475.01 416.373,475.022 419.128,475.036 421.882,475.051 424.636,475.068 427.391,475.087 430.145,475.108 432.9,475.131 435.654,475.156 438.409,475.184 441.163,475.214 443.918,475.247 446.672,475.283 449.427,475.321 452.181,475.362 454.936,475.406 457.69,475.454 460.444,475.504 463.199,475.557 465.953,475.614 468.708,475.675 471.462,475.739 474.217,475.806 476.971,475.877 479.726,475.952 482.48,476.031 485.235,476.113 487.989,476.199 490.743,476.29 493.498,476.384 496.252,476.482 499.007,476.585 501.761,476.691 504.516,476.802 507.27,476.917 510.025,477.036 512.779,477.16 515.534,477.288 518.288,477.42 521.042,477.556 523.797,477.697 526.551,477.843 529.306,477.992 532.06,478.146 534.815,478.305 537.569,478.468 540.324,478.635 543.078,478.806 545.833,478.983 548.587,479.163 551.341,479.348 554.096,479.537 556.85,479.73 559.605,479.928 562.359,480.131 565.114,480.337 567.868,480.548 570.623,480.763 573.377,480.982 576.132,481.206 578.886,481.434 581.641,481.665 584.395,481.901 587.149,482.141 589.904,482.385 592.658,482.632 595.413,482.884 598.167,483.14 600.922,483.399 603.676,483.662 606.431,483.929 609.185,484.2 611.94,484.475 614.694,484.753 617.448,485.035 620.203,485.32 622.957,485.609 625.712,485.902 628.466,486.198 631.221,486.498 633.975,486.801 636.73,487.107 639.484,487.417 642.239,487.73 644.993,488.046 647.747,488.365 650.502,488.688 653.256,489.014 656.011,489.343 658.765,489.675 661.52,490.01 664.274,490.348 667.029,490.689 669.783,491.033 672.538,491.379 675.292,491.729 678.046,492.081 680.801,492.436 683.555,492.794 686.31,493.155 689.064,493.518 691.819,493.883 694.573,494.252 697.328,494.622 700.082,494.995 702.837,495.371 705.591,495.749 708.345,496.129 711.1,496.512 713.854,496.896 716.609,497.284 719.363,497.673 722.118,498.065 724.872,498.458 727.627,498.854 730.381,499.252 733.136,499.653 735.89,500.055 738.645,500.459 741.399,500.865 744.153,501.274 746.908,501.684 749.662,502.096 752.417,502.51 755.171,502.926 757.926,503.344 760.68,503.763 763.435,504.184 766.189,504.608 768.944,505.032 771.698,505.459 774.452,505.887 777.207,506.317 779.961,506.749 782.716,507.182 785.47,507.617 788.225,508.054 790.979,508.492 793.734,508.931 796.488,509.372 799.243,509.815 801.997,510.259 804.751,510.705 807.506,511.152 810.26,511.6 813.015,512.05 815.769,512.502 818.524,512.954 821.278,513.408 824.033,513.864 826.787,514.321 829.542,514.779 832.296,515.238 835.05,515.699 837.805,516.161 840.559,516.624 843.314,517.088 846.068,517.554 848.823,518.021 851.577,518.489 854.332,518.958 857.086,519.429 859.841,519.9 862.595,520.373 865.349,520.847 868.104,521.322 870.858,521.798 873.613,522.276 876.367,522.754 879.122,523.234 881.876,523.714 884.631,524.196 887.385,524.679 890.14,525.163 892.894,525.648 895.649,526.134 898.403,526.621 901.157,527.109 903.912,527.598 906.666,528.088 909.421,528.579 912.175,529.072 914.93,529.565 917.684,530.059 920.439,530.554 923.193,531.05 925.948,531.547 928.702,532.045 931.456,532.544 934.211,533.044 936.965,533.545 939.72,534.047 942.474,534.55 945.229,535.053 947.983,535.558 950.738,536.064 953.492,536.57 956.247,537.078 959.001,537.586 961.755,538.095 964.51,538.605 967.264,539.117 970.019,539.629 972.773,540.142 975.528,540.655 978.282,541.17 981.037,541.686 983.791,542.202 986.546,542.719 989.3,543.238 992.054,543.757 994.809,544.277 997.563,544.798 1000.32,545.32 1003.07,545.842 1005.83,546.366 1008.58,546.89 1011.34,547.415 1014.09,547.942 1016.84,548.469 1019.6,548.996 1022.35,549.525 1025.11,550.055 1027.86,550.585 1030.62,551.116 1033.37,551.648 1036.13,552.181 1038.88,552.715 1041.63,553.25 1044.39,553.785 1047.14,554.322 1049.9,554.859 1052.65,555.397 1055.41,555.936 1058.16,556.476 1060.92,557.016 1063.67,557.558 1066.42,558.1 1069.18,558.643 1071.93,559.187 1074.69,559.732 1077.44,560.277 1080.2,560.824 1082.95,561.371 1085.71,561.919 1088.46,562.468 1091.21,563.018 1093.97,563.569 1096.72,564.121 1099.48,564.673 1102.23,565.226 1104.99,565.78 1107.74,566.335 1110.5,566.891 1113.25,567.448 1116.01,568.006 1118.76,568.564 1121.51,569.123 1124.27,569.683 1127.02,570.244 1129.78,570.806 1132.53,571.369 1135.29,571.932 1138.04,572.497 1140.8,573.062 1143.55,573.628 1146.3,574.195 1149.06,574.763 1151.81,575.332 1154.57,575.902 1157.32,576.472 1160.08,577.044 1162.83,577.616 1165.59,578.189 1168.34,578.763 1171.09,579.338 1173.85,579.914 1176.6,580.491 1179.36,581.068 1182.11,581.647 1184.87,582.226 1187.62,582.807 1190.38,583.388 1193.13,583.97 1195.88,584.553 1198.64,585.137 1201.39,585.721 1204.15,586.307 1206.9,586.894 1209.66,587.481 1212.41,588.07 1215.17,588.659 1217.92,589.249 1220.67,589.841 1223.43,590.433 1226.18,591.026 1228.94,591.62 1231.69,592.215 1234.45,592.81 1237.2,593.407 1239.96,594.005 1242.71,594.603 1245.46,595.203 1248.22,595.804 1250.97,596.405 1253.73,597.008 1256.48,597.611 1259.24,598.215 1261.99,598.82 1264.75,599.427 1267.5,600.034 1270.25,600.642 1273.01,601.251 1275.76,601.861 1278.52,602.472 1281.27,603.084 1284.03,603.697 1286.78,604.311 1289.54,604.926 1292.29,605.542 1295.04,606.159 1297.8,606.777 1300.55,607.396 1303.31,608.016 1306.06,608.637 1308.82,609.259 1311.57,609.882 1314.33,610.506 1317.08,611.131 1319.83,611.756 1322.59,612.383 1325.34,613.011 1328.1,613.64 1330.85,614.27 1333.61,614.901 1336.36,615.533 1339.12,616.166 1341.87,616.8 1344.62,617.435 1347.38,618.072 1350.13,618.709 1352.89,619.347 1355.64,619.986 1358.4,620.626 1361.15,621.268 1363.91,621.91 1366.66,622.554 1369.41,623.198 1372.17,623.844 1374.92,624.49 1377.68,625.138 1380.43,625.787 1383.19,626.436 1385.94,627.087 1388.7,627.739 1391.45,628.392 1394.21,629.046 1396.96,629.701 1399.71,630.358 1402.47,631.015 1405.22,631.673 1407.98,632.333 1410.73,632.993 1413.49,633.655 1416.24,634.318 1419,634.982 1421.75,635.647 1424.5,636.313 1427.26,636.98 1430.01,637.648 1432.77,638.318 1435.52,638.988 1438.28,639.66 1441.03,640.333 1443.79,641.007 1446.54,641.682 1449.29,642.358 1452.05,643.035 1454.8,643.714 1457.56,644.394 1460.31,645.074 1463.07,645.756 1465.82,646.439 1468.58,647.123 1471.33,647.809 1474.08,648.495 1476.84,649.183 1479.59,649.872 1482.35,650.562 1485.1,651.253 1487.86,651.945 1490.61,652.639 1493.37,653.334 1496.12,654.03 1498.87,654.726 1501.63,655.425 1504.38,656.124 1507.14,656.825 1509.89,657.527 1512.65,658.23 1515.4,658.934 1518.16,659.64 1520.91,660.346 1523.66,661.054 1526.42,661.763 1529.17,662.473 1531.93,663.185 1534.68,663.898 1537.44,664.612 1540.19,665.327 1542.95,666.043 1545.7,666.761 1548.45,667.48 1551.21,668.2 1553.96,668.921 1556.72,669.644 1559.47,670.367 1562.23,671.092 1564.98,671.819 1567.74,672.546 1570.49,673.275 1573.24,674.005 1576,674.736 1578.75,675.469 1581.51,676.203 1584.26,676.938 1587.02,677.674 1589.77,678.412 1592.53,679.151 1595.28,679.891 1598.03,680.632 1600.79,681.375 1603.54,682.119 1606.3,682.865 1609.05,683.611 1611.81,684.359 1614.56,685.108 1617.32,685.859 1620.07,686.611 1622.82,687.364 1625.58,688.118 1628.33,688.874 1631.09,689.631 1633.84,690.389 1636.6,691.149 1639.35,691.91 1642.11,692.673 1644.86,693.436 1647.62,694.201 1650.37,694.967 1653.12,695.735 1655.88,696.504 1658.63,697.274 1661.39,698.046 1664.14,698.819 1666.9,699.593 1669.65,700.369 1672.41,701.146 1675.16,701.925 1677.91,702.704 1680.67,703.485 1683.42,704.268 1686.18,705.052 1688.93,705.837 1691.69,706.624 1694.44,707.412 1697.2,708.201 1699.95,708.992 1702.7,709.784 1705.46,710.577 1708.21,711.372 1710.97,712.168 1713.72,712.966 1716.48,713.765 1719.23,714.565 1721.99,715.367 1724.74,716.17 1727.49,716.975 1730.25,717.781 1733,718.588 1735.76,719.397 1738.51,720.207 1741.27,721.019 1744.02,721.832 1746.78,722.646 1749.53,723.462 1752.28,724.279 1755.04,725.098 1757.79,725.918 1760.55,726.74 1763.3,727.563 1766.06,728.387 1768.81,729.213 1771.57,730.04 1774.32,730.869 1777.07,731.699 1779.83,732.531 1782.58,733.364 1785.34,734.198 1788.09,735.034 1790.85,735.872 1793.6,736.711 1796.36,737.551 1799.11,738.393 1801.86,739.236 1804.62,740.081 1807.37,740.927 1810.13,741.775 1812.88,742.624 1815.64,743.475 1818.39,744.326 1821.15,745.18 1823.9,746.035 1826.65,746.891 1829.41,747.75 1832.16,748.609 1834.92,749.47 1837.67,750.332 1840.43,751.196 1843.18,752.062 1845.94,752.929 1848.69,753.797 1851.44,754.667 1854.2,755.539 1856.95,756.412 1859.71,757.286 1862.46,758.162 1865.22,759.039 1867.97,759.919 1870.73,760.799 1873.48,761.681 1876.23,762.565 1878.99,763.45 1881.74,764.336 1884.5,765.224 1887.25,766.114 1890.01,767.005 1892.76,767.898 1895.52,768.792 1898.27,769.688 1901.03,770.585 1903.78,771.484 1906.53,772.384 1909.29,773.286 1912.04,774.19 1914.8,775.095 1917.55,776.002 1920.31,776.91 1923.06,777.82 1925.82,778.73 1928.57,779.643 1931.32,780.558 1934.08,781.474 1936.83,782.391 1939.59,783.31 1942.34,784.231 1945.1,785.153 1947.85,786.077 1950.61,787.002 1953.36,787.929 1956.11,788.858 1958.87,789.788 1961.62,790.719 1964.38,791.653 1967.13,792.587 1969.89,793.524 1972.64,794.462 1975.4,795.401 1978.15,796.342 1980.9,797.285 1983.66,798.23 1986.41,799.175 1989.17,800.123 1991.92,801.072 1994.68,802.023 1997.43,802.975 2000.19,803.929 2002.94,804.885 2005.69,805.842 2008.45,806.801 2011.2,807.761 2013.96,808.723 2016.71,809.687 2019.47,810.652 2022.22,811.619 2024.98,812.588 2027.73,813.558 2030.48,814.529 2033.24,815.503 2035.99,816.478 2038.75,817.454 2041.5,818.433 2044.26,819.413 2047.01,820.394 2049.77,821.377 2052.52,822.362 2055.27,823.348 2058.03,824.336 2060.78,825.326 2063.54,826.318 2066.29,827.311 2069.05,828.305 2071.8,829.301 2074.56,830.299 2077.31,831.299 2080.06,832.3 2082.82,833.303 2085.57,834.308 2088.33,835.314 2091.08,836.322 2093.84,837.331 2096.59,838.342 2099.35,839.355 2102.1,840.37 2104.85,841.386 2107.61,842.404 2110.36,843.423 2113.12,844.444 2115.87,845.467 2118.63,846.492 2121.38,847.518 2124.14,848.546 2126.89,849.575 2129.64,850.606 2132.4,851.639 2135.15,852.674 2137.91,853.71 2140.66,854.748 2143.42,855.788 2146.17,856.829 2148.93,857.872 2151.68,858.917 2154.44,859.963 2157.19,861.011 2159.94,862.061 2162.7,863.112 2165.45,864.165 2168.21,865.22 2170.96,866.277 2173.72,867.335 2176.47,868.395 2179.23,869.456 2181.98,870.519 2184.73,871.584 2187.49,872.651 2190.24,873.72 2193,874.79 2195.75,875.861 2198.51,876.935 2201.26,878.01 2204.02,879.087 2206.77,880.166 2209.52,881.246 2212.28,882.328 2215.03,883.412 2217.79,884.498 2220.54,885.585 2223.3,886.674 2226.05,887.764 2228.81,888.857 2231.56,889.951 2234.31,891.047 2237.07,892.144 2239.82,893.243 2242.58,894.344 2245.33,895.447 2248.09,896.552 2250.84,897.658 2253.6,898.766 2256.35,899.875 2259.1,900.986 2261.86,902.1 2264.61,903.214 2267.37,904.331 2270.12,905.449 2272.88,906.569 2275.63,907.691 2278.39,908.814 2281.14,909.939 2283.89,911.066 2286.65,912.195 2289.4,913.325 2292.16,914.458 2294.91,915.591 2297.67,916.727 2300.42,917.864 2303.18,919.003 2305.93,920.144 2308.68,921.287 2311.44,922.431 2314.19,923.577 2316.95,924.725 2319.7,925.875 2322.46,927.026 2325.21,928.179 2327.97,929.333 2330.72,930.49 2333.47,931.648 2336.23,932.808 2338.98,933.97 2341.74,935.134 2344.49,936.299 2347.25,937.466 2350,938.635 2352.76,939.806 "/>
<polyline clip-path="url(#clip442)" style="stroke:#3da44d; stroke-linecap:round; stroke-linejoin:round; stroke-width:12; stroke-opacity:1; fill:none" points="149.191,465.775 151.945,468.183 154.7,470.779 157.454,473.561 160.209,476.527 162.963,479.672 165.718,482.992 168.472,486.481 171.227,490.132 173.981,493.935 176.735,497.881 179.49,501.96 182.244,506.159 184.999,510.468 187.753,514.873 190.508,519.362 193.262,523.922 196.017,528.541 198.771,533.208 201.526,537.912 204.28,542.641 207.034,547.389 209.789,552.146 212.543,556.906 215.298,561.664 218.052,566.416 220.807,571.157 223.561,575.885 226.316,580.597 229.07,585.291 231.825,589.965 234.579,594.616 237.333,599.242 240.088,603.839 242.842,608.404 245.597,612.932 248.351,617.419 251.106,621.86 253.86,626.25 256.615,630.582 259.369,634.853 262.124,639.056 264.878,643.186 267.632,647.24 270.387,651.212 273.141,655.099 275.896,658.898 278.65,662.606 281.405,666.22 284.159,669.74 286.914,673.165 289.668,676.494 292.423,679.728 295.177,682.867 297.932,685.912 300.686,688.865 303.44,691.727 306.195,694.501 308.949,697.188 311.704,699.792 314.458,702.314 317.213,704.758 319.967,707.126 322.722,709.421 325.476,711.646 328.231,713.804 330.985,715.897 333.739,717.929 336.494,719.902 339.248,721.819 342.003,723.682 344.757,725.495 347.512,727.258 350.266,728.976 353.021,730.649 355.775,732.281 358.53,733.873 361.284,735.427 364.038,736.945 366.793,738.43 369.547,739.881 372.302,741.303 375.056,742.694 377.811,744.058 380.565,745.395 383.32,746.707 386.074,747.995 388.829,749.259 391.583,750.502 394.337,751.723 397.092,752.924 399.846,754.105 402.601,755.267 405.355,756.412 408.11,757.538 410.864,758.648 413.619,759.741 416.373,760.818 419.128,761.879 421.882,762.925 424.636,763.956 427.391,764.972 430.145,765.975 432.9,766.962 435.654,767.937 438.409,768.897 441.163,769.844 443.918,770.777 446.672,771.698 449.427,772.605 452.181,773.499 454.936,774.381 457.69,775.249 460.444,776.105 463.199,776.949 465.953,777.78 468.708,778.599 471.462,779.405 474.217,780.2 476.971,780.982 479.726,781.752 482.48,782.51 485.235,783.257 487.989,783.991 490.743,784.714 493.498,785.425 496.252,786.124 499.007,786.813 501.761,787.489 504.516,788.155 507.27,788.809 510.025,789.452 512.779,790.085 515.534,790.706 518.288,791.317 521.042,791.917 523.797,792.506 526.551,793.085 529.306,793.654 532.06,794.213 534.815,794.761 537.569,795.3 540.324,795.829 543.078,796.348 545.833,796.858 548.587,797.359 551.341,797.85 554.096,798.332 556.85,798.805 559.605,799.269 562.359,799.725 565.114,800.171 567.868,800.61 570.623,801.04 573.377,801.462 576.132,801.876 578.886,802.282 581.641,802.68 584.395,803.071 587.149,803.454 589.904,803.83 592.658,804.198 595.413,804.559 598.167,804.914 600.922,805.261 603.676,805.602 606.431,805.936 609.185,806.264 611.94,806.585 614.694,806.9 617.448,807.209 620.203,807.512 622.957,807.809 625.712,808.101 628.466,808.386 631.221,808.666 633.975,808.941 636.73,809.21 639.484,809.474 642.239,809.733 644.993,809.987 647.747,810.237 650.502,810.481 653.256,810.72 656.011,810.955 658.765,811.186 661.52,811.412 664.274,811.634 667.029,811.851 669.783,812.065 672.538,812.274 675.292,812.479 678.046,812.681 680.801,812.878 683.555,813.072 686.31,813.263 689.064,813.449 691.819,813.633 694.573,813.813 697.328,813.989 700.082,814.162 702.837,814.332 705.591,814.499 708.345,814.663 711.1,814.824 713.854,814.982 716.609,815.138 719.363,815.29 722.118,815.44 724.872,815.587 727.627,815.731 730.381,815.873 733.136,816.012 735.89,816.149 738.645,816.284 741.399,816.416 744.153,816.546 746.908,816.674 749.662,816.8 752.417,816.923 755.171,817.045 757.926,817.164 760.68,817.282 763.435,817.397 766.189,817.511 768.944,817.623 771.698,817.733 774.452,817.841 777.207,817.948 779.961,818.053 782.716,818.156 785.47,818.258 788.225,818.358 790.979,818.456 793.734,818.554 796.488,818.649 799.243,818.744 801.997,818.837 804.751,818.928 807.506,819.018 810.26,819.107 813.015,819.195 815.769,819.282 818.524,819.367 821.278,819.451 824.033,819.534 826.787,819.616 829.542,819.697 832.296,819.777 835.05,819.856 837.805,819.933 840.559,820.01 843.314,820.086 846.068,820.161 848.823,820.235 851.577,820.308 854.332,820.38 857.086,820.452 859.841,820.523 862.595,820.592 865.349,820.662 868.104,820.73 870.858,820.798 873.613,820.864 876.367,820.931 879.122,820.996 881.876,821.061 884.631,821.125 887.385,821.189 890.14,821.252 892.894,821.314 895.649,821.376 898.403,821.438 901.157,821.498 903.912,821.559 906.666,821.618 909.421,821.677 912.175,821.736 914.93,821.794 917.684,821.852 920.439,821.909 923.193,821.966 925.948,822.023 928.702,822.079 931.456,822.135 934.211,822.19 936.965,822.245 939.72,822.3 942.474,822.354 945.229,822.408 947.983,822.461 950.738,822.514 953.492,822.567 956.247,822.62 959.001,822.672 961.755,822.724 964.51,822.776 967.264,822.828 970.019,822.879 972.773,822.93 975.528,822.981 978.282,823.031 981.037,823.082 983.791,823.132 986.546,823.182 989.3,823.231 992.054,823.281 994.809,823.33 997.563,823.379 1000.32,823.428 1003.07,823.477 1005.83,823.526 1008.58,823.574 1011.34,823.623 1014.09,823.671 1016.84,823.719 1019.6,823.767 1022.35,823.815 1025.11,823.863 1027.86,823.91 1030.62,823.958 1033.37,824.005 1036.13,824.052 1038.88,824.1 1041.63,824.147 1044.39,824.194 1047.14,824.241 1049.9,824.288 1052.65,824.335 1055.41,824.381 1058.16,824.428 1060.92,824.475 1063.67,824.521 1066.42,824.568 1069.18,824.614 1071.93,824.661 1074.69,824.707 1077.44,824.754 1080.2,824.8 1082.95,824.846 1085.71,824.893 1088.46,824.939 1091.21,824.985 1093.97,825.031 1096.72,825.078 1099.48,825.124 1102.23,825.17 1104.99,825.216 1107.74,825.263 1110.5,825.309 1113.25,825.355 1116.01,825.401 1118.76,825.447 1121.51,825.494 1124.27,825.54 1127.02,825.586 1129.78,825.632 1132.53,825.679 1135.29,825.725 1138.04,825.771 1140.8,825.818 1143.55,825.864 1146.3,825.911 1149.06,825.957 1151.81,826.004 1154.57,826.05 1157.32,826.097 1160.08,826.143 1162.83,826.19 1165.59,826.237 1168.34,826.283 1171.09,826.33 1173.85,826.377 1176.6,826.424 1179.36,826.471 1182.11,826.518 1184.87,826.565 1187.62,826.612 1190.38,826.659 1193.13,826.706 1195.88,826.753 1198.64,826.8 1201.39,826.848 1204.15,826.895 1206.9,826.943 1209.66,826.99 1212.41,827.038 1215.17,827.085 1217.92,827.133 1220.67,827.181 1223.43,827.228 1226.18,827.276 1228.94,827.324 1231.69,827.372 1234.45,827.42 1237.2,827.468 1239.96,827.516 1242.71,827.565 1245.46,827.613 1248.22,827.661 1250.97,827.71 1253.73,827.758 1256.48,827.807 1259.24,827.856 1261.99,827.904 1264.75,827.953 1267.5,828.002 1270.25,828.051 1273.01,828.1 1275.76,828.149 1278.52,828.198 1281.27,828.248 1284.03,828.297 1286.78,828.346 1289.54,828.396 1292.29,828.445 1295.04,828.495 1297.8,828.545 1300.55,828.594 1303.31,828.644 1306.06,828.694 1308.82,828.744 1311.57,828.794 1314.33,828.844 1317.08,828.895 1319.83,828.945 1322.59,828.995 1325.34,829.046 1328.1,829.096 1330.85,829.147 1333.61,829.197 1336.36,829.248 1339.12,829.299 1341.87,829.35 1344.62,829.401 1347.38,829.452 1350.13,829.503 1352.89,829.554 1355.64,829.606 1358.4,829.657 1361.15,829.708 1363.91,829.76 1366.66,829.812 1369.41,829.863 1372.17,829.915 1374.92,829.967 1377.68,830.019 1380.43,830.071 1383.19,830.123 1385.94,830.175 1388.7,830.227 1391.45,830.279 1394.21,830.332 1396.96,830.384 1399.71,830.437 1402.47,830.489 1405.22,830.542 1407.98,830.595 1410.73,830.647 1413.49,830.7 1416.24,830.753 1419,830.806 1421.75,830.859 1424.5,830.912 1427.26,830.966 1430.01,831.019 1432.77,831.072 1435.52,831.126 1438.28,831.179 1441.03,831.233 1443.79,831.287 1446.54,831.34 1449.29,831.394 1452.05,831.448 1454.8,831.502 1457.56,831.556 1460.31,831.61 1463.07,831.664 1465.82,831.718 1468.58,831.773 1471.33,831.827 1474.08,831.882 1476.84,831.936 1479.59,831.991 1482.35,832.045 1485.1,832.1 1487.86,832.155 1490.61,832.209 1493.37,832.264 1496.12,832.319 1498.87,832.374 1501.63,832.429 1504.38,832.485 1507.14,832.54 1509.89,832.595 1512.65,832.65 1515.4,832.706 1518.16,832.761 1520.91,832.817 1523.66,832.872 1526.42,832.928 1529.17,832.984 1531.93,833.04 1534.68,833.095 1537.44,833.151 1540.19,833.207 1542.95,833.263 1545.7,833.319 1548.45,833.376 1551.21,833.432 1553.96,833.488 1556.72,833.544 1559.47,833.601 1562.23,833.657 1564.98,833.714 1567.74,833.77 1570.49,833.827 1573.24,833.883 1576,833.94 1578.75,833.997 1581.51,834.054 1584.26,834.11 1587.02,834.167 1589.77,834.224 1592.53,834.281 1595.28,834.338 1598.03,834.396 1600.79,834.453 1603.54,834.51 1606.3,834.567 1609.05,834.625 1611.81,834.682 1614.56,834.739 1617.32,834.797 1620.07,834.854 1622.82,834.912 1625.58,834.97 1628.33,835.027 1631.09,835.085 1633.84,835.143 1636.6,835.201 1639.35,835.258 1642.11,835.316 1644.86,835.374 1647.62,835.432 1650.37,835.49 1653.12,835.548 1655.88,835.606 1658.63,835.665 1661.39,835.723 1664.14,835.781 1666.9,835.839 1669.65,835.898 1672.41,835.956 1675.16,836.015 1677.91,836.073 1680.67,836.131 1683.42,836.19 1686.18,836.249 1688.93,836.307 1691.69,836.366 1694.44,836.425 1697.2,836.483 1699.95,836.542 1702.7,836.601 1705.46,836.66 1708.21,836.719 1710.97,836.777 1713.72,836.836 1716.48,836.895 1719.23,836.954 1721.99,837.013 1724.74,837.073 1727.49,837.132 1730.25,837.191 1733,837.25 1735.76,837.309 1738.51,837.368 1741.27,837.428 1744.02,837.487 1746.78,837.546 1749.53,837.606 1752.28,837.665 1755.04,837.725 1757.79,837.784 1760.55,837.844 1763.3,837.903 1766.06,837.963 1768.81,838.022 1771.57,838.082 1774.32,838.141 1777.07,838.201 1779.83,838.261 1782.58,838.32 1785.34,838.38 1788.09,838.44 1790.85,838.5 1793.6,838.559 1796.36,838.619 1799.11,838.679 1801.86,838.739 1804.62,838.799 1807.37,838.859 1810.13,838.919 1812.88,838.979 1815.64,839.039 1818.39,839.099 1821.15,839.159 1823.9,839.219 1826.65,839.279 1829.41,839.339 1832.16,839.399 1834.92,839.459 1837.67,839.519 1840.43,839.579 1843.18,839.639 1845.94,839.7 1848.69,839.76 1851.44,839.82 1854.2,839.88 1856.95,839.94 1859.71,840.001 1862.46,840.061 1865.22,840.121 1867.97,840.182 1870.73,840.242 1873.48,840.302 1876.23,840.362 1878.99,840.423 1881.74,840.483 1884.5,840.544 1887.25,840.604 1890.01,840.664 1892.76,840.725 1895.52,840.785 1898.27,840.846 1901.03,840.906 1903.78,840.966 1906.53,841.027 1909.29,841.087 1912.04,841.148 1914.8,841.208 1917.55,841.269 1920.31,841.329 1923.06,841.39 1925.82,841.45 1928.57,841.511 1931.32,841.571 1934.08,841.632 1936.83,841.692 1939.59,841.753 1942.34,841.813 1945.1,841.874 1947.85,841.934 1950.61,841.995 1953.36,842.055 1956.11,842.116 1958.87,842.177 1961.62,842.237 1964.38,842.298 1967.13,842.358 1969.89,842.419 1972.64,842.479 1975.4,842.54 1978.15,842.6 1980.9,842.661 1983.66,842.721 1986.41,842.782 1989.17,842.842 1991.92,842.903 1994.68,842.963 1997.43,843.024 2000.19,843.085 2002.94,843.145 2005.69,843.206 2008.45,843.266 2011.2,843.327 2013.96,843.387 2016.71,843.448 2019.47,843.508 2022.22,843.569 2024.98,843.629 2027.73,843.69 2030.48,843.75 2033.24,843.81 2035.99,843.871 2038.75,843.931 2041.5,843.992 2044.26,844.052 2047.01,844.113 2049.77,844.173 2052.52,844.233 2055.27,844.294 2058.03,844.354 2060.78,844.415 2063.54,844.475 2066.29,844.535 2069.05,844.596 2071.8,844.656 2074.56,844.716 2077.31,844.777 2080.06,844.837 2082.82,844.897 2085.57,844.957 2088.33,845.018 2091.08,845.078 2093.84,845.138 2096.59,845.198 2099.35,845.258 2102.1,845.319 2104.85,845.379 2107.61,845.439 2110.36,845.499 2113.12,845.559 2115.87,845.619 2118.63,845.679 2121.38,845.739 2124.14,845.799 2126.89,845.859 2129.64,845.919 2132.4,845.979 2135.15,846.039 2137.91,846.099 2140.66,846.159 2143.42,846.219 2146.17,846.279 2148.93,846.339 2151.68,846.399 2154.44,846.459 2157.19,846.518 2159.94,846.578 2162.7,846.638 2165.45,846.698 2168.21,846.757 2170.96,846.817 2173.72,846.877 2176.47,846.936 2179.23,846.996 2181.98,847.056 2184.73,847.115 2187.49,847.175 2190.24,847.234 2193,847.294 2195.75,847.353 2198.51,847.413 2201.26,847.472 2204.02,847.532 2206.77,847.591 2209.52,847.65 2212.28,847.71 2215.03,847.769 2217.79,847.828 2220.54,847.888 2223.3,847.947 2226.05,848.006 2228.81,848.065 2231.56,848.124 2234.31,848.183 2237.07,848.243 2239.82,848.302 2242.58,848.361 2245.33,848.42 2248.09,848.479 2250.84,848.538 2253.6,848.596 2256.35,848.655 2259.1,848.714 2261.86,848.773 2264.61,848.832 2267.37,848.89 2270.12,848.949 2272.88,849.008 2275.63,849.067 2278.39,849.125 2281.14,849.184 2283.89,849.242 2286.65,849.301 2289.4,849.359 2292.16,849.418 2294.91,849.476 2297.67,849.535 2300.42,849.593 2303.18,849.651 2305.93,849.71 2308.68,849.768 2311.44,849.826 2314.19,849.884 2316.95,849.942 2319.7,850 2322.46,850.058 2325.21,850.116 2327.97,850.175 2330.72,850.232 2333.47,850.29 2336.23,850.348 2338.98,850.406 2341.74,850.464 2344.49,850.522 2347.25,850.579 2350,850.637 2352.76,850.695 "/>
<path clip-path="url(#clip440)" d="M222.643 300.469 L532.096 300.469 L532.096 93.1086 L222.643 93.1086  Z" fill="#ffffff" fill-rule="evenodd" fill-opacity="1"/>
<polyline clip-path="url(#clip440)" style="stroke:#000000; stroke-linecap:round; stroke-linejoin:round; stroke-width:4; stroke-opacity:1; fill:none" points="222.643,300.469 532.096,300.469 532.096,93.1086 222.643,93.1086 222.643,300.469 "/>
<polyline clip-path="url(#clip440)" style="stroke:#009af9; stroke-linecap:round; stroke-linejoin:round; stroke-width:12; stroke-opacity:1; fill:none" points="247.127,144.949 394.031,144.949 "/>
<path clip-path="url(#clip440)" d="M418.515 151.997 L418.515 136.303 L422.775 136.303 L422.775 151.835 Q422.775 155.516 424.21 157.368 Q425.645 159.196 428.515 159.196 Q431.964 159.196 433.955 156.997 Q435.969 154.798 435.969 151.002 L435.969 136.303 L440.228 136.303 L440.228 162.229 L435.969 162.229 L435.969 158.247 Q434.418 160.608 432.358 161.766 Q430.321 162.9 427.613 162.9 Q423.145 162.9 420.83 160.122 Q418.515 157.344 418.515 151.997 M429.233 135.678 L429.233 135.678 Z" fill="#000000" fill-rule="nonzero" fill-opacity="1" /><path clip-path="url(#clip440)" d="M448.608 126.21 L458.423 126.21 L458.423 129.52 L452.867 129.52 L452.867 165.168 L458.423 165.168 L458.423 168.479 L448.608 168.479 L448.608 126.21 Z" fill="#000000" fill-rule="nonzero" fill-opacity="1" /><path clip-path="url(#clip440)" d="M468.909 158.293 L476.548 158.293 L476.548 131.928 L468.237 133.595 L468.237 129.335 L476.501 127.669 L481.177 127.669 L481.177 158.293 L488.816 158.293 L488.816 162.229 L468.909 162.229 L468.909 158.293 Z" fill="#000000" fill-rule="nonzero" fill-opacity="1" /><path clip-path="url(#clip440)" d="M507.612 126.21 L507.612 168.479 L497.797 168.479 L497.797 165.168 L503.33 165.168 L503.33 129.52 L497.797 129.52 L497.797 126.21 L507.612 126.21 Z" fill="#000000" fill-rule="nonzero" fill-opacity="1" /><polyline clip-path="url(#clip440)" style="stroke:#e26f46; stroke-linecap:round; stroke-linejoin:round; stroke-width:12; stroke-opacity:1; fill:none" points="247.127,196.789 394.031,196.789 "/>
<path clip-path="url(#clip440)" d="M418.515 203.837 L418.515 188.143 L422.775 188.143 L422.775 203.675 Q422.775 207.356 424.21 209.208 Q425.645 211.036 428.515 211.036 Q431.964 211.036 433.955 208.837 Q435.969 206.638 435.969 202.842 L435.969 188.143 L440.228 188.143 L440.228 214.069 L435.969 214.069 L435.969 210.087 Q434.418 212.448 432.358 213.606 Q430.321 214.74 427.613 214.74 Q423.145 214.74 420.83 211.962 Q418.515 209.184 418.515 203.837 M429.233 187.518 L429.233 187.518 Z" fill="#000000" fill-rule="nonzero" fill-opacity="1" /><path clip-path="url(#clip440)" d="M448.608 178.05 L458.423 178.05 L458.423 181.36 L452.867 181.36 L452.867 217.008 L458.423 217.008 L458.423 220.319 L448.608 220.319 L448.608 178.05 Z" fill="#000000" fill-rule="nonzero" fill-opacity="1" /><path clip-path="url(#clip440)" d="M472.126 210.133 L488.446 210.133 L488.446 214.069 L466.501 214.069 L466.501 210.133 Q469.163 207.379 473.747 202.749 Q478.353 198.096 479.534 196.754 Q481.779 194.231 482.659 192.495 Q483.561 190.735 483.561 189.046 Q483.561 186.291 481.617 184.555 Q479.696 182.819 476.594 182.819 Q474.395 182.819 471.941 183.583 Q469.511 184.347 466.733 185.897 L466.733 181.175 Q469.557 180.041 472.011 179.462 Q474.464 178.884 476.501 178.884 Q481.872 178.884 485.066 181.569 Q488.26 184.254 488.26 188.745 Q488.26 190.874 487.45 192.796 Q486.663 194.694 484.557 197.286 Q483.978 197.958 480.876 201.175 Q477.774 204.37 472.126 210.133 Z" fill="#000000" fill-rule="nonzero" fill-opacity="1" /><path clip-path="url(#clip440)" d="M507.612 178.05 L507.612 220.319 L497.797 220.319 L497.797 217.008 L503.33 217.008 L503.33 181.36 L497.797 181.36 L497.797 178.05 L507.612 178.05 Z" fill="#000000" fill-rule="nonzero" fill-opacity="1" /><polyline clip-path="url(#clip440)" style="stroke:#3da44d; stroke-linecap:round; stroke-linejoin:round; stroke-width:12; stroke-opacity:1; fill:none" points="247.127,248.629 394.031,248.629 "/>
<path clip-path="url(#clip440)" d="M418.515 255.677 L418.515 239.983 L422.775 239.983 L422.775 255.515 Q422.775 259.196 424.21 261.048 Q425.645 262.876 428.515 262.876 Q431.964 262.876 433.955 260.677 Q435.969 258.478 435.969 254.682 L435.969 239.983 L440.228 239.983 L440.228 265.909 L435.969 265.909 L435.969 261.927 Q434.418 264.288 432.358 265.446 Q430.321 266.58 427.613 266.58 Q423.145 266.58 420.83 263.802 Q418.515 261.024 418.515 255.677 M429.233 239.358 L429.233 239.358 Z" fill="#000000" fill-rule="nonzero" fill-opacity="1" /><path clip-path="url(#clip440)" d="M459.233 229.937 Q456.131 235.261 454.626 240.469 Q453.122 245.677 453.122 251.024 Q453.122 256.372 454.626 261.626 Q456.154 266.858 459.233 272.159 L455.529 272.159 Q452.057 266.719 450.321 261.464 Q448.608 256.21 448.608 251.024 Q448.608 245.862 450.321 240.631 Q452.034 235.4 455.529 229.937 L459.233 229.937 Z" fill="#000000" fill-rule="nonzero" fill-opacity="1" /><path clip-path="url(#clip440)" d="M471.71 232.622 L471.71 239.983 L480.483 239.983 L480.483 243.293 L471.71 243.293 L471.71 257.367 Q471.71 260.538 472.566 261.441 Q473.446 262.344 476.108 262.344 L480.483 262.344 L480.483 265.909 L476.108 265.909 Q471.177 265.909 469.302 264.08 Q467.427 262.228 467.427 257.367 L467.427 243.293 L464.302 243.293 L464.302 239.983 L467.427 239.983 L467.427 232.622 L471.71 232.622 Z" fill="#000000" fill-rule="nonzero" fill-opacity="1" /><path clip-path="url(#clip440)" d="M485.413 229.937 L489.117 229.937 Q492.589 235.4 494.302 240.631 Q496.038 245.862 496.038 251.024 Q496.038 256.21 494.302 261.464 Q492.589 266.719 489.117 272.159 L485.413 272.159 Q488.492 266.858 489.997 261.626 Q491.524 256.372 491.524 251.024 Q491.524 245.677 489.997 240.469 Q488.492 235.261 485.413 229.937 Z" fill="#000000" fill-rule="nonzero" fill-opacity="1" /></svg>
