<?xml version="1.0" encoding="utf-8"?>
<svg xmlns="http://www.w3.org/2000/svg" xmlns:xlink="http://www.w3.org/1999/xlink" width="600" height="400" viewBox="0 0 2400 1600">
<defs>
  <clipPath id="clip130">
    <rect x="0" y="0" width="2400" height="1600"/>
  </clipPath>
</defs>
<path clip-path="url(#clip130)" d="M0 1600 L2400 1600 L2400 0 L0 0  Z" fill="#ffffff" fill-rule="evenodd" fill-opacity="1"/>
<defs>
  <clipPath id="clip131">
    <rect x="480" y="0" width="1681" height="1600"/>
  </clipPath>
</defs>
<path clip-path="url(#clip130)" d="M149.191 1423.18 L2352.76 1423.18 L2352.76 47.2441 L149.191 47.2441  Z" fill="#ffffff" fill-rule="evenodd" fill-opacity="1"/>
<defs>
  <clipPath id="clip132">
    <rect x="149" y="47" width="2205" height="1377"/>
  </clipPath>
</defs>
<polyline clip-path="url(#clip132)" style="stroke:#000000; stroke-linecap:round; stroke-linejoin:round; stroke-width:2; stroke-opacity:0.1; fill:none" points="149.191,1423.18 149.191,47.2441 "/>
<polyline clip-path="url(#clip132)" style="stroke:#000000; stroke-linecap:round; stroke-linejoin:round; stroke-width:2; stroke-opacity:0.1; fill:none" points="700.082,1423.18 700.082,47.2441 "/>
<polyline clip-path="url(#clip132)" style="stroke:#000000; stroke-linecap:round; stroke-linejoin:round; stroke-width:2; stroke-opacity:0.1; fill:none" points="1250.97,1423.18 1250.97,47.2441 "/>
<polyline clip-path="url(#clip132)" style="stroke:#000000; stroke-linecap:round; stroke-linejoin:round; stroke-width:2; stroke-opacity:0.1; fill:none" points="1801.86,1423.18 1801.86,47.2441 "/>
<polyline clip-path="url(#clip132)" style="stroke:#000000; stroke-linecap:round; stroke-linejoin:round; stroke-width:2; stroke-opacity:0.1; fill:none" points="2352.76,1423.18 2352.76,47.2441 "/>
<polyline clip-path="url(#clip132)" style="stroke:#000000; stroke-linecap:round; stroke-linejoin:round; stroke-width:2; stroke-opacity:0.1; fill:none" points="149.191,1423.18 2352.76,1423.18 "/>
<polyline clip-path="url(#clip132)" style="stroke:#000000; stroke-linecap:round; stroke-linejoin:round; stroke-width:2; stroke-opacity:0.1; fill:none" points="149.191,1193.86 2352.76,1193.86 "/>
<polyline clip-path="url(#clip132)" style="stroke:#000000; stroke-linecap:round; stroke-linejoin:round; stroke-width:2; stroke-opacity:0.1; fill:none" points="149.191,964.535 2352.76,964.535 "/>
<polyline clip-path="url(#clip132)" style="stroke:#000000; stroke-linecap:round; stroke-linejoin:round; stroke-width:2; stroke-opacity:0.1; fill:none" points="149.191,735.212 2352.76,735.212 "/>
<polyline clip-path="url(#clip132)" style="stroke:#000000; stroke-linecap:round; stroke-linejoin:round; stroke-width:2; stroke-opacity:0.1; fill:none" points="149.191,505.889 2352.76,505.889 "/>
<polyline clip-path="url(#clip132)" style="stroke:#000000; stroke-linecap:round; stroke-linejoin:round; stroke-width:2; stroke-opacity:0.1; fill:none" points="149.191,276.567 2352.76,276.567 "/>
<polyline clip-path="url(#clip132)" style="stroke:#000000; stroke-linecap:round; stroke-linejoin:round; stroke-width:2; stroke-opacity:0.1; fill:none" points="149.191,47.2441 2352.76,47.2441 "/>
<polyline clip-path="url(#clip130)" style="stroke:#000000; stroke-linecap:round; stroke-linejoin:round; stroke-width:4; stroke-opacity:1; fill:none" points="149.191,1423.18 2352.76,1423.18 "/>
<polyline clip-path="url(#clip130)" style="stroke:#000000; stroke-linecap:round; stroke-linejoin:round; stroke-width:4; stroke-opacity:1; fill:none" points="149.191,1423.18 149.191,1404.28 "/>
<polyline clip-path="url(#clip130)" style="stroke:#000000; stroke-linecap:round; stroke-linejoin:round; stroke-width:4; stroke-opacity:1; fill:none" points="700.082,1423.18 700.082,1404.28 "/>
<polyline clip-path="url(#clip130)" style="stroke:#000000; stroke-linecap:round; stroke-linejoin:round; stroke-width:4; stroke-opacity:1; fill:none" points="1250.97,1423.18 1250.97,1404.28 "/>
<polyline clip-path="url(#clip130)" style="stroke:#000000; stroke-linecap:round; stroke-linejoin:round; stroke-width:4; stroke-opacity:1; fill:none" points="1801.86,1423.18 1801.86,1404.28 "/>
<polyline clip-path="url(#clip130)" style="stroke:#000000; stroke-linecap:round; stroke-linejoin:round; stroke-width:4; stroke-opacity:1; fill:none" points="2352.76,1423.18 2352.76,1404.28 "/>
<path clip-path="url(#clip130)" d="M149.191 1454.1 Q145.58 1454.1 143.751 1457.66 Q141.946 1461.2 141.946 1468.33 Q141.946 1475.44 143.751 1479.01 Q145.58 1482.55 149.191 1482.55 Q152.825 1482.55 154.631 1479.01 Q156.459 1475.44 156.459 1468.33 Q156.459 1461.2 154.631 1457.66 Q152.825 1454.1 149.191 1454.1 M149.191 1450.39 Q155.001 1450.39 158.057 1455 Q161.135 1459.58 161.135 1468.33 Q161.135 1477.06 158.057 1481.67 Q155.001 1486.25 149.191 1486.25 Q143.381 1486.25 140.302 1481.67 Q137.246 1477.06 137.246 1468.33 Q137.246 1459.58 140.302 1455 Q143.381 1450.39 149.191 1450.39 Z" fill="#000000" fill-rule="nonzero" fill-opacity="1" /><path clip-path="url(#clip130)" d="M694.735 1481.64 L711.054 1481.64 L711.054 1485.58 L689.11 1485.58 L689.11 1481.64 Q691.772 1478.89 696.355 1474.26 Q700.962 1469.61 702.142 1468.27 Q704.388 1465.74 705.267 1464.01 Q706.17 1462.25 706.17 1460.56 Q706.17 1457.8 704.226 1456.07 Q702.304 1454.33 699.203 1454.33 Q697.003 1454.33 694.55 1455.09 Q692.119 1455.86 689.341 1457.41 L689.341 1452.69 Q692.166 1451.55 694.619 1450.97 Q697.073 1450.39 699.11 1450.39 Q704.48 1450.39 707.675 1453.08 Q710.869 1455.77 710.869 1460.26 Q710.869 1462.39 710.059 1464.31 Q709.272 1466.2 707.165 1468.8 Q706.587 1469.47 703.485 1472.69 Q700.383 1475.88 694.735 1481.64 Z" fill="#000000" fill-rule="nonzero" fill-opacity="1" /><path clip-path="url(#clip130)" d="M1253.98 1455.09 L1242.18 1473.54 L1253.98 1473.54 L1253.98 1455.09 M1252.76 1451.02 L1258.64 1451.02 L1258.64 1473.54 L1263.57 1473.54 L1263.57 1477.43 L1258.64 1477.43 L1258.64 1485.58 L1253.98 1485.58 L1253.98 1477.43 L1238.38 1477.43 L1238.38 1472.92 L1252.76 1451.02 Z" fill="#000000" fill-rule="nonzero" fill-opacity="1" /><path clip-path="url(#clip130)" d="M1802.27 1466.44 Q1799.12 1466.44 1797.27 1468.59 Q1795.44 1470.74 1795.44 1474.49 Q1795.44 1478.22 1797.27 1480.39 Q1799.12 1482.55 1802.27 1482.55 Q1805.42 1482.55 1807.25 1480.39 Q1809.1 1478.22 1809.1 1474.49 Q1809.1 1470.74 1807.25 1468.59 Q1805.42 1466.44 1802.27 1466.44 M1811.55 1451.78 L1811.55 1456.04 Q1809.79 1455.21 1807.99 1454.77 Q1806.2 1454.33 1804.45 1454.33 Q1799.82 1454.33 1797.36 1457.45 Q1794.93 1460.58 1794.58 1466.9 Q1795.95 1464.89 1798.01 1463.82 Q1800.07 1462.73 1802.55 1462.73 Q1807.76 1462.73 1810.77 1465.9 Q1813.8 1469.05 1813.8 1474.49 Q1813.8 1479.82 1810.65 1483.03 Q1807.5 1486.25 1802.27 1486.25 Q1796.27 1486.25 1793.1 1481.67 Q1789.93 1477.06 1789.93 1468.33 Q1789.93 1460.14 1793.82 1455.28 Q1797.71 1450.39 1804.26 1450.39 Q1806.02 1450.39 1807.8 1450.74 Q1809.61 1451.09 1811.55 1451.78 Z" fill="#000000" fill-rule="nonzero" fill-opacity="1" /><path clip-path="url(#clip130)" d="M2352.76 1469.17 Q2349.42 1469.17 2347.5 1470.95 Q2345.6 1472.73 2345.6 1475.86 Q2345.6 1478.98 2347.5 1480.77 Q2349.42 1482.55 2352.76 1482.55 Q2356.09 1482.55 2358.01 1480.77 Q2359.93 1478.96 2359.93 1475.86 Q2359.93 1472.73 2358.01 1470.95 Q2356.11 1469.17 2352.76 1469.17 M2348.08 1467.18 Q2345.07 1466.44 2343.38 1464.38 Q2341.71 1462.32 2341.71 1459.35 Q2341.71 1455.21 2344.65 1452.8 Q2347.62 1450.39 2352.76 1450.39 Q2357.92 1450.39 2360.86 1452.8 Q2363.8 1455.21 2363.8 1459.35 Q2363.8 1462.32 2362.11 1464.38 Q2360.44 1466.44 2357.45 1467.18 Q2360.83 1467.96 2362.71 1470.26 Q2364.61 1472.55 2364.61 1475.86 Q2364.61 1480.88 2361.53 1483.57 Q2358.47 1486.25 2352.76 1486.25 Q2347.04 1486.25 2343.96 1483.57 Q2340.9 1480.88 2340.9 1475.86 Q2340.9 1472.55 2342.8 1470.26 Q2344.7 1467.96 2348.08 1467.18 M2346.37 1459.79 Q2346.37 1462.48 2348.03 1463.98 Q2349.72 1465.49 2352.76 1465.49 Q2355.77 1465.49 2357.45 1463.98 Q2359.17 1462.48 2359.17 1459.79 Q2359.17 1457.11 2357.45 1455.6 Q2355.77 1454.1 2352.76 1454.1 Q2349.72 1454.1 2348.03 1455.6 Q2346.37 1457.11 2346.37 1459.79 Z" fill="#000000" fill-rule="nonzero" fill-opacity="1" /><path clip-path="url(#clip130)" d="M1250.03 1522.27 L1250.03 1532.4 L1262.1 1532.4 L1262.1 1536.95 L1250.03 1536.95 L1250.03 1556.3 Q1250.03 1560.66 1251.21 1561.9 Q1252.42 1563.14 1256.08 1563.14 L1262.1 1563.14 L1262.1 1568.04 L1256.08 1568.04 Q1249.3 1568.04 1246.72 1565.53 Q1244.15 1562.98 1244.15 1556.3 L1244.15 1536.95 L1239.85 1536.95 L1239.85 1532.4 L1244.15 1532.4 L1244.15 1522.27 L1250.03 1522.27 Z" fill="#000000" fill-rule="nonzero" fill-opacity="1" /><polyline clip-path="url(#clip130)" style="stroke:#000000; stroke-linecap:round; stroke-linejoin:round; stroke-width:4; stroke-opacity:1; fill:none" points="149.191,1423.18 149.191,47.2441 "/>
<polyline clip-path="url(#clip130)" style="stroke:#000000; stroke-linecap:round; stroke-linejoin:round; stroke-width:4; stroke-opacity:1; fill:none" points="149.191,1423.18 168.089,1423.18 "/>
<polyline clip-path="url(#clip130)" style="stroke:#000000; stroke-linecap:round; stroke-linejoin:round; stroke-width:4; stroke-opacity:1; fill:none" points="149.191,1193.86 168.089,1193.86 "/>
<polyline clip-path="url(#clip130)" style="stroke:#000000; stroke-linecap:round; stroke-linejoin:round; stroke-width:4; stroke-opacity:1; fill:none" points="149.191,964.535 168.089,964.535 "/>
<polyline clip-path="url(#clip130)" style="stroke:#000000; stroke-linecap:round; stroke-linejoin:round; stroke-width:4; stroke-opacity:1; fill:none" points="149.191,735.212 168.089,735.212 "/>
<polyline clip-path="url(#clip130)" style="stroke:#000000; stroke-linecap:round; stroke-linejoin:round; stroke-width:4; stroke-opacity:1; fill:none" points="149.191,505.889 168.089,505.889 "/>
<polyline clip-path="url(#clip130)" style="stroke:#000000; stroke-linecap:round; stroke-linejoin:round; stroke-width:4; stroke-opacity:1; fill:none" points="149.191,276.567 168.089,276.567 "/>
<polyline clip-path="url(#clip130)" style="stroke:#000000; stroke-linecap:round; stroke-linejoin:round; stroke-width:4; stroke-opacity:1; fill:none" points="149.191,47.2441 168.089,47.2441 "/>
<path clip-path="url(#clip130)" d="M51.3162 1423.63 L80.992 1423.63 L80.992 1427.57 L51.3162 1427.57 L51.3162 1423.63 Z" fill="#000000" fill-rule="nonzero" fill-opacity="1" /><path clip-path="url(#clip130)" d="M101.663 1421.32 Q98.515 1421.32 96.6632 1423.47 Q94.8345 1425.62 94.8345 1429.37 Q94.8345 1433.1 96.6632 1435.27 Q98.515 1437.43 101.663 1437.43 Q104.811 1437.43 106.64 1435.27 Q108.492 1433.1 108.492 1429.37 Q108.492 1425.62 106.64 1423.47 Q104.811 1421.32 101.663 1421.32 M110.946 1406.66 L110.946 1410.92 Q109.186 1410.09 107.381 1409.65 Q105.598 1409.21 103.839 1409.21 Q99.2095 1409.21 96.7558 1412.33 Q94.3252 1415.46 93.978 1421.78 Q95.3437 1419.77 97.4039 1418.7 Q99.4641 1417.61 101.941 1417.61 Q107.149 1417.61 110.158 1420.78 Q113.191 1423.93 113.191 1429.37 Q113.191 1434.7 110.043 1437.91 Q106.895 1441.13 101.663 1441.13 Q95.6678 1441.13 92.4965 1436.55 Q89.3253 1431.94 89.3253 1423.21 Q89.3253 1415.02 93.2141 1410.16 Q97.103 1405.27 103.654 1405.27 Q105.413 1405.27 107.196 1405.62 Q109.001 1405.97 110.946 1406.66 Z" fill="#000000" fill-rule="nonzero" fill-opacity="1" /><path clip-path="url(#clip130)" d="M50.9921 1194.31 L80.6679 1194.31 L80.6679 1198.24 L50.9921 1198.24 L50.9921 1194.31 Z" fill="#000000" fill-rule="nonzero" fill-opacity="1" /><path clip-path="url(#clip130)" d="M103.608 1180.65 L91.8021 1199.1 L103.608 1199.1 L103.608 1180.65 M102.381 1176.58 L108.26 1176.58 L108.26 1199.1 L113.191 1199.1 L113.191 1202.99 L108.26 1202.99 L108.26 1211.14 L103.608 1211.14 L103.608 1202.99 L88.0058 1202.99 L88.0058 1198.48 L102.381 1176.58 Z" fill="#000000" fill-rule="nonzero" fill-opacity="1" /><path clip-path="url(#clip130)" d="M53.0754 964.986 L82.7512 964.986 L82.7512 968.921 L53.0754 968.921 L53.0754 964.986 Z" fill="#000000" fill-rule="nonzero" fill-opacity="1" /><path clip-path="url(#clip130)" d="M96.8715 977.879 L113.191 977.879 L113.191 981.815 L91.2465 981.815 L91.2465 977.879 Q93.9086 975.125 98.4919 970.495 Q103.098 965.842 104.279 964.5 Q106.524 961.977 107.404 960.241 Q108.307 958.481 108.307 956.792 Q108.307 954.037 106.362 952.301 Q104.441 950.565 101.339 950.565 Q99.14 950.565 96.6863 951.329 Q94.2558 952.093 91.478 953.643 L91.478 948.921 Q94.3021 947.787 96.7558 947.208 Q99.2095 946.63 101.246 946.63 Q106.617 946.63 109.811 949.315 Q113.006 952 113.006 956.491 Q113.006 958.62 112.196 960.542 Q111.408 962.44 109.302 965.032 Q108.723 965.704 105.621 968.921 Q102.52 972.116 96.8715 977.879 Z" fill="#000000" fill-rule="nonzero" fill-opacity="1" /><path clip-path="url(#clip130)" d="M101.246 721.011 Q97.6354 721.011 95.8067 724.575 Q94.0012 728.117 94.0012 735.247 Q94.0012 742.353 95.8067 745.918 Q97.6354 749.46 101.246 749.46 Q104.881 749.46 106.686 745.918 Q108.515 742.353 108.515 735.247 Q108.515 728.117 106.686 724.575 Q104.881 721.011 101.246 721.011 M101.246 717.307 Q107.057 717.307 110.112 721.913 Q113.191 726.497 113.191 735.247 Q113.191 743.973 110.112 748.58 Q107.057 753.163 101.246 753.163 Q95.4363 753.163 92.3576 748.58 Q89.3021 743.973 89.3021 735.247 Q89.3021 726.497 92.3576 721.913 Q95.4363 717.307 101.246 717.307 Z" fill="#000000" fill-rule="nonzero" fill-opacity="1" /><path clip-path="url(#clip130)" d="M96.8715 519.234 L113.191 519.234 L113.191 523.169 L91.2465 523.169 L91.2465 519.234 Q93.9086 516.48 98.4919 511.85 Q103.098 507.197 104.279 505.855 Q106.524 503.331 107.404 501.595 Q108.307 499.836 108.307 498.146 Q108.307 495.392 106.362 493.656 Q104.441 491.92 101.339 491.92 Q99.14 491.92 96.6863 492.683 Q94.2558 493.447 91.478 494.998 L91.478 490.276 Q94.3021 489.142 96.7558 488.563 Q99.2095 487.984 101.246 487.984 Q106.617 487.984 109.811 490.67 Q113.006 493.355 113.006 497.845 Q113.006 499.975 112.196 501.896 Q111.408 503.794 109.302 506.387 Q108.723 507.058 105.621 510.276 Q102.52 513.47 96.8715 519.234 Z" fill="#000000" fill-rule="nonzero" fill-opacity="1" /><path clip-path="url(#clip130)" d="M103.608 263.361 L91.8021 281.81 L103.608 281.81 L103.608 263.361 M102.381 259.287 L108.26 259.287 L108.26 281.81 L113.191 281.81 L113.191 285.699 L108.26 285.699 L108.26 293.847 L103.608 293.847 L103.608 285.699 L88.0058 285.699 L88.0058 281.185 L102.381 259.287 Z" fill="#000000" fill-rule="nonzero" fill-opacity="1" /><path clip-path="url(#clip130)" d="M101.663 45.3807 Q98.515 45.3807 96.6632 47.5334 Q94.8345 49.6862 94.8345 53.4362 Q94.8345 57.163 96.6632 59.3389 Q98.515 61.4917 101.663 61.4917 Q104.811 61.4917 106.64 59.3389 Q108.492 57.163 108.492 53.4362 Q108.492 49.6862 106.64 47.5334 Q104.811 45.3807 101.663 45.3807 M110.946 30.728 L110.946 34.9872 Q109.186 34.1539 107.381 33.7141 Q105.598 33.2743 103.839 33.2743 Q99.2095 33.2743 96.7558 36.3992 Q94.3252 39.5242 93.978 45.8436 Q95.3437 43.8298 97.4039 42.765 Q99.4641 41.677 101.941 41.677 Q107.149 41.677 110.158 44.8483 Q113.191 47.9964 113.191 53.4362 Q113.191 58.7602 110.043 61.9778 Q106.895 65.1954 101.663 65.1954 Q95.6678 65.1954 92.4965 60.6121 Q89.3253 56.0056 89.3253 47.2788 Q89.3253 39.0844 93.2141 34.2233 Q97.103 29.3391 103.654 29.3391 Q105.413 29.3391 107.196 29.6863 Q109.001 30.0335 110.946 30.728 Z" fill="#000000" fill-rule="nonzero" fill-opacity="1" /><polyline clip-path="url(#clip132)" style="stroke:#009af9; stroke-linecap:round; stroke-linejoin:round; stroke-width:12; stroke-opacity:1; fill:none" points="149.191,1193.86 151.945,1193.78 154.7,1193.57 157.454,1193.21 160.209,1192.71 162.963,1192.08 165.718,1191.31 168.472,1190.41 171.227,1189.38 173.981,1188.23 176.735,1186.96 179.49,1185.57 182.244,1184.06 184.999,1182.45 187.753,1180.73 190.508,1178.91 193.262,1176.99 196.017,1174.98 198.771,1172.89 201.526,1170.71 204.28,1168.45 207.034,1166.12 209.789,1163.72 212.543,1161.26 215.298,1158.73 218.052,1156.16 220.807,1153.53 223.561,1150.86 226.316,1148.14 229.07,1145.39 231.825,1142.6 234.579,1139.79 237.333,1136.95 240.088,1134.08 242.842,1131.19 245.597,1128.29 248.351,1125.37 251.106,1122.44 253.86,1119.49 256.615,1116.54 259.369,1113.58 262.124,1110.61 264.878,1107.64 267.632,1104.66 270.387,1101.67 273.141,1098.69 275.896,1095.7 278.65,1092.71 281.405,1089.72 284.159,1086.72 286.914,1083.73 289.668,1080.74 292.423,1077.74 295.177,1074.74 297.932,1071.75 300.686,1068.75 303.44,1065.75 306.195,1062.76 308.949,1059.76 311.704,1056.76 314.458,1053.77 317.213,1050.77 319.967,1047.77 322.722,1044.78 325.476,1041.78 328.231,1038.78 330.985,1035.79 333.739,1032.79 336.494,1029.79 339.248,1026.8 342.003,1023.8 344.757,1020.8 347.512,1017.81 350.266,1014.81 353.021,1011.82 355.775,1008.82 358.53,1005.82 361.284,1002.83 364.038,999.833 366.793,996.838 369.547,993.843 372.302,990.849 375.056,987.855 377.811,984.861 380.565,981.869 383.32,978.877 386.074,975.885 388.829,972.895 391.583,969.905 394.337,966.916 397.092,963.928 399.846,960.941 402.601,957.955 405.355,954.971 408.11,951.988 410.864,949.006 413.619,946.025 416.373,943.046 419.128,940.069 421.882,937.093 424.636,934.119 427.391,931.147 430.145,928.177 432.9,925.208 435.654,922.242 438.409,919.278 441.163,916.316 443.918,913.356 446.672,910.399 449.427,907.444 452.181,904.491 454.936,901.542 457.69,898.594 460.444,895.65 463.199,892.708 465.953,889.77 468.708,886.834 471.462,883.901 474.217,880.972 476.971,878.045 479.726,875.122 482.48,872.202 485.235,869.286 487.989,866.373 490.743,863.464 493.498,860.558 496.252,857.656 499.007,854.758 501.761,851.864 504.516,848.974 507.27,846.088 510.025,843.205 512.779,840.327 515.534,837.453 518.288,834.584 521.042,831.719 523.797,828.858 526.551,826.001 529.306,823.149 532.06,820.302 534.815,817.459 537.569,814.621 540.324,811.788 543.078,808.96 545.833,806.136 548.587,803.318 551.341,800.504 554.096,797.695 556.85,794.892 559.605,792.093 562.359,789.3 565.114,786.513 567.868,783.73 570.623,780.953 573.377,778.181 576.132,775.415 578.886,772.654 581.641,769.899 584.395,767.149 587.149,764.405 589.904,761.667 592.658,758.934 595.413,756.208 598.167,753.487 600.922,750.772 603.676,748.063 606.431,745.36 609.185,742.663 611.94,739.971 614.694,737.286 617.448,734.608 620.203,731.935 622.957,729.268 625.712,726.608 628.466,723.954 631.221,721.306 633.975,718.665 636.73,716.03 639.484,713.402 642.239,710.78 644.993,708.164 647.747,705.555 650.502,702.953 653.256,700.357 656.011,697.767 658.765,695.185 661.52,692.609 664.274,690.039 667.029,687.477 669.783,684.921 672.538,682.372 675.292,679.829 678.046,677.294 680.801,674.765 683.555,672.243 686.31,669.728 689.064,667.22 691.819,664.719 694.573,662.225 697.328,659.738 700.082,657.257 702.837,654.784 705.591,652.318 708.345,649.859 711.1,647.407 713.854,644.962 716.609,642.524 719.363,640.093 722.118,637.67 724.872,635.254 727.627,632.845 730.381,630.443 733.136,628.048 735.89,625.66 738.645,623.28 741.399,620.907 744.153,618.542 746.908,616.183 749.662,613.832 752.417,611.489 755.171,609.152 757.926,606.823 760.68,604.501 763.435,602.187 766.189,599.88 768.944,597.581 771.698,595.288 774.452,593.004 777.207,590.726 779.961,588.457 782.716,586.194 785.47,583.939 788.225,581.692 790.979,579.452 793.734,577.219 796.488,574.994 799.243,572.776 801.997,570.566 804.751,568.363 807.506,566.168 810.26,563.981 813.015,561.801 815.769,559.628 818.524,557.462 821.278,555.305 824.033,553.155 826.787,551.012 829.542,548.877 832.296,546.749 835.05,544.629 837.805,542.517 840.559,540.412 843.314,538.314 846.068,536.224 848.823,534.142 851.577,532.067 854.332,530 857.086,527.94 859.841,525.888 862.595,523.844 865.349,521.807 868.104,519.777 870.858,517.756 873.613,515.741 876.367,513.734 879.122,511.735 881.876,509.744 884.631,507.76 887.385,505.783 890.14,503.814 892.894,501.853 895.649,499.899 898.403,497.953 901.157,496.014 903.912,494.083 906.666,492.159 909.421,490.243 912.175,488.334 914.93,486.433 917.684,484.54 920.439,482.654 923.193,480.776 925.948,478.905 928.702,477.042 931.456,475.186 934.211,473.338 936.965,471.497 939.72,469.664 942.474,467.838 945.229,466.02 947.983,464.21 950.738,462.407 953.492,460.611 956.247,458.823 959.001,457.043 961.755,455.27 964.51,453.504 967.264,451.747 970.019,449.996 972.773,448.253 975.528,446.518 978.282,444.79 981.037,443.069 983.791,441.356 986.546,439.651 989.3,437.953 992.054,436.262 994.809,434.579 997.563,432.903 1000.32,431.235 1003.07,429.574 1005.83,427.921 1008.58,426.275 1011.34,424.636 1014.09,423.005 1016.84,421.381 1019.6,419.765 1022.35,418.156 1025.11,416.555 1027.86,414.961 1030.62,413.374 1033.37,411.795 1036.13,410.223 1038.88,408.658 1041.63,407.101 1044.39,405.552 1047.14,404.009 1049.9,402.474 1052.65,400.946 1055.41,399.426 1058.16,397.913 1060.92,396.407 1063.67,394.909 1066.42,393.418 1069.18,391.934 1071.93,390.458 1074.69,388.989 1077.44,387.527 1080.2,386.073 1082.95,384.625 1085.71,383.186 1088.46,381.753 1091.21,380.328 1093.97,378.91 1096.72,377.499 1099.48,376.095 1102.23,374.699 1104.99,373.31 1107.74,371.928 1110.5,370.553 1113.25,369.186 1116.01,367.826 1118.76,366.473 1121.51,365.127 1124.27,363.789 1127.02,362.458 1129.78,361.134 1132.53,359.817 1135.29,358.507 1138.04,357.204 1140.8,355.909 1143.55,354.621 1146.3,353.34 1149.06,352.066 1151.81,350.799 1154.57,349.54 1157.32,348.287 1160.08,347.042 1162.83,345.804 1165.59,344.573 1168.34,343.349 1171.09,342.132 1173.85,340.922 1176.6,339.72 1179.36,338.524 1182.11,337.336 1184.87,336.154 1187.62,334.98 1190.38,333.813 1193.13,332.653 1195.88,331.5 1198.64,330.354 1201.39,329.215 1204.15,328.083 1206.9,326.958 1209.66,325.84 1212.41,324.729 1215.17,323.625 1217.92,322.529 1220.67,321.439 1223.43,320.356 1226.18,319.28 1228.94,318.211 1231.69,317.149 1234.45,316.095 1237.2,315.047 1239.96,314.006 1242.71,312.972 1245.46,311.945 1248.22,310.925 1250.97,309.912 1253.73,308.906 1256.48,307.907 1259.24,306.915 1261.99,305.929 1264.75,304.951 1267.5,303.979 1270.25,303.015 1273.01,302.057 1275.76,301.106 1278.52,300.162 1281.27,299.225 1284.03,298.295 1286.78,297.372 1289.54,296.456 1292.29,295.546 1295.04,294.644 1297.8,293.748 1300.55,292.859 1303.31,291.977 1306.06,291.102 1308.82,290.233 1311.57,289.372 1314.33,288.517 1317.08,287.669 1319.83,286.828 1322.59,285.993 1325.34,285.166 1328.1,284.345 1330.85,283.531 1333.61,282.724 1336.36,281.923 1339.12,281.13 1341.87,280.343 1344.62,279.562 1347.38,278.789 1350.13,278.022 1352.89,277.263 1355.64,276.509 1358.4,275.763 1361.15,275.023 1363.91,274.29 1366.66,273.564 1369.41,272.845 1372.17,272.132 1374.92,271.426 1377.68,270.726 1380.43,270.034 1383.19,269.348 1385.94,268.668 1388.7,267.996 1391.45,267.33 1394.21,266.671 1396.96,266.018 1399.71,265.372 1402.47,264.733 1405.22,264.1 1407.98,263.474 1410.73,262.855 1413.49,262.242 1416.24,261.636 1419,261.037 1421.75,260.444 1424.5,259.858 1427.26,259.278 1430.01,258.706 1432.77,258.139 1435.52,257.579 1438.28,257.026 1441.03,256.48 1443.79,255.94 1446.54,255.407 1449.29,254.88 1452.05,254.36 1454.8,253.846 1457.56,253.339 1460.31,252.839 1463.07,252.345 1465.82,251.857 1468.58,251.377 1471.33,250.902 1474.08,250.435 1476.84,249.973 1479.59,249.519 1482.35,249.071 1485.1,248.629 1487.86,248.194 1490.61,247.765 1493.37,247.343 1496.12,246.928 1498.87,246.519 1501.63,246.116 1504.38,245.72 1507.14,245.331 1509.89,244.947 1512.65,244.571 1515.4,244.201 1518.16,243.837 1520.91,243.48 1523.66,243.129 1526.42,242.785 1529.17,242.447 1531.93,242.116 1534.68,241.791 1537.44,241.473 1540.19,241.161 1542.95,240.855 1545.7,240.556 1548.45,240.263 1551.21,239.977 1553.96,239.697 1556.72,239.424 1559.47,239.156 1562.23,238.896 1564.98,238.642 1567.74,238.394 1570.49,238.152 1573.24,237.917 1576,237.689 1578.75,237.466 1581.51,237.251 1584.26,237.041 1587.02,236.838 1589.77,236.641 1592.53,236.451 1595.28,236.267 1598.03,236.089 1600.79,235.918 1603.54,235.753 1606.3,235.594 1609.05,235.442 1611.81,235.296 1614.56,235.156 1617.32,235.023 1620.07,234.896 1622.82,234.776 1625.58,234.661 1628.33,234.553 1631.09,234.452 1633.84,234.356 1636.6,234.267 1639.35,234.184 1642.11,234.108 1644.86,234.038 1647.62,233.974 1650.37,233.916 1653.12,233.865 1655.88,233.82 1658.63,233.781 1661.39,233.749 1664.14,233.723 1666.9,233.703 1669.65,233.689 1672.41,233.682 1675.16,233.681 1677.91,233.686 1680.67,233.697 1683.42,233.715 1686.18,233.739 1688.93,233.769 1691.69,233.805 1694.44,233.848 1697.2,233.896 1699.95,233.951 1702.7,234.013 1705.46,234.08 1708.21,234.154 1710.97,234.234 1713.72,234.32 1716.48,234.412 1719.23,234.511 1721.99,234.616 1724.74,234.726 1727.49,234.844 1730.25,234.967 1733,235.096 1735.76,235.232 1738.51,235.374 1741.27,235.522 1744.02,235.676 1746.78,235.837 1749.53,236.003 1752.28,236.176 1755.04,236.355 1757.79,236.54 1760.55,236.731 1763.3,236.929 1766.06,237.132 1768.81,237.342 1771.57,237.558 1774.32,237.78 1777.07,238.008 1779.83,238.242 1782.58,238.482 1785.34,238.729 1788.09,238.981 1790.85,239.24 1793.6,239.505 1796.36,239.776 1799.11,240.053 1801.86,240.336 1804.62,240.626 1807.37,240.921 1810.13,241.223 1812.88,241.53 1815.64,241.844 1818.39,242.164 1821.15,242.49 1823.9,242.822 1826.65,243.16 1829.41,243.504 1832.16,243.854 1834.92,244.21 1837.67,244.573 1840.43,244.941 1843.18,245.316 1845.94,245.696 1848.69,246.083 1851.44,246.476 1854.2,246.875 1856.95,247.279 1859.71,247.69 1862.46,248.107 1865.22,248.53 1867.97,248.959 1870.73,249.394 1873.48,249.835 1876.23,250.283 1878.99,250.736 1881.74,251.195 1884.5,251.66 1887.25,252.131 1890.01,252.609 1892.76,253.092 1895.52,253.581 1898.27,254.077 1901.03,254.578 1903.78,255.085 1906.53,255.599 1909.29,256.118 1912.04,256.643 1914.8,257.175 1917.55,257.712 1920.31,258.255 1923.06,258.805 1925.82,259.36 1928.57,259.921 1931.32,260.488 1934.08,261.062 1936.83,261.641 1939.59,262.226 1942.34,262.817 1945.1,263.414 1947.85,264.018 1950.61,264.627 1953.36,265.242 1956.11,265.863 1958.87,266.49 1961.62,267.122 1964.38,267.761 1967.13,268.406 1969.89,269.057 1972.64,269.714 1975.4,270.376 1978.15,271.045 1980.9,271.719 1983.66,272.399 1986.41,273.086 1989.17,273.778 1991.92,274.476 1994.68,275.18 1997.43,275.891 2000.19,276.606 2002.94,277.328 2005.69,278.056 2008.45,278.79 2011.2,279.529 2013.96,280.275 2016.71,281.026 2019.47,281.784 2022.22,282.547 2024.98,283.316 2027.73,284.091 2030.48,284.872 2033.24,285.658 2035.99,286.451 2038.75,287.25 2041.5,288.054 2044.26,288.864 2047.01,289.68 2049.77,290.503 2052.52,291.331 2055.27,292.164 2058.03,293.004 2060.78,293.849 2063.54,294.701 2066.29,295.558 2069.05,296.421 2071.8,297.29 2074.56,298.165 2077.31,299.046 2080.06,299.932 2082.82,300.824 2085.57,301.723 2088.33,302.627 2091.08,303.536 2093.84,304.452 2096.59,305.374 2099.35,306.301 2102.1,307.234 2104.85,308.173 2107.61,309.118 2110.36,310.068 2113.12,311.025 2115.87,311.987 2118.63,312.955 2121.38,313.929 2124.14,314.909 2126.89,315.894 2129.64,316.886 2132.4,317.883 2135.15,318.886 2137.91,319.894 2140.66,320.909 2143.42,321.929 2146.17,322.955 2148.93,323.987 2151.68,325.025 2154.44,326.068 2157.19,327.118 2159.94,328.173 2162.7,329.234 2165.45,330.3 2168.21,331.373 2170.96,332.451 2173.72,333.535 2176.47,334.624 2179.23,335.72 2181.98,336.821 2184.73,337.928 2187.49,339.041 2190.24,340.159 2193,341.284 2195.75,342.414 2198.51,343.549 2201.26,344.691 2204.02,345.838 2206.77,346.991 2209.52,348.15 2212.28,349.314 2215.03,350.484 2217.79,351.66 2220.54,352.842 2223.3,354.03 2226.05,355.223 2228.81,356.421 2231.56,357.626 2234.31,358.836 2237.07,360.053 2239.82,361.274 2242.58,362.501 2245.33,363.735 2248.09,364.974 2250.84,366.218 2253.6,367.469 2256.35,368.725 2259.1,369.986 2261.86,371.254 2264.61,372.527 2267.37,373.807 2270.12,375.092 2272.88,376.38 2275.63,377.676 2278.39,378.979 2281.14,380.287 2283.89,381.599 2286.65,382.918 2289.4,384.243 2292.16,385.572 2294.91,386.908 2297.67,388.25 2300.42,389.597 2303.18,390.949 2305.93,392.308 2308.68,393.672 2311.44,395.042 2314.19,396.417 2316.95,397.798 2319.7,399.186 2322.46,400.577 2325.21,401.976 2327.97,403.38 2330.72,404.789 2333.47,406.204 2336.23,407.625 2338.98,409.051 2341.74,410.484 2344.49,411.921 2347.25,413.364 2350,414.813 2352.76,416.268 "/>
<polyline clip-path="url(#clip132)" style="stroke:#e26f46; stroke-linecap:round; stroke-linejoin:round; stroke-width:12; stroke-opacity:1; fill:none" points="149.191,735.212 151.945,720.719 154.7,706.434 157.454,692.376 160.209,678.565 162.963,665.022 165.718,651.765 168.472,638.814 171.227,626.188 173.981,613.903 176.735,601.978 179.49,590.429 182.244,579.273 184.999,568.523 187.753,558.195 190.508,548.301 193.262,538.852 196.017,529.859 198.771,521.33 201.526,513.273 204.28,505.691 207.034,498.586 209.789,491.957 212.543,485.8 215.298,480.11 218.052,474.88 220.807,470.098 223.561,465.747 226.316,461.809 229.07,458.264 231.825,455.092 234.579,452.27 237.333,449.777 240.088,447.587 242.842,445.677 245.597,444.02 248.351,442.588 251.106,441.36 253.86,440.312 256.615,439.425 259.369,438.679 262.124,438.056 264.878,437.539 267.632,437.114 270.387,436.766 273.141,436.484 275.896,436.258 278.65,436.078 281.405,435.938 284.159,435.828 286.914,435.742 289.668,435.678 292.423,435.63 295.177,435.597 297.932,435.575 300.686,435.561 303.44,435.553 306.195,435.55 308.949,435.549 311.704,435.55 314.458,435.551 317.213,435.552 319.967,435.552 322.722,435.551 325.476,435.55 328.231,435.548 330.985,435.548 333.739,435.549 336.494,435.55 339.248,435.553 342.003,435.557 344.757,435.563 347.512,435.571 350.266,435.582 353.021,435.596 355.775,435.613 358.53,435.634 361.284,435.659 364.038,435.688 366.793,435.722 369.547,435.76 372.302,435.804 375.056,435.854 377.811,435.909 380.565,435.97 383.32,436.037 386.074,436.111 388.829,436.191 391.583,436.278 394.337,436.372 397.092,436.474 399.846,436.582 402.601,436.698 405.355,436.821 408.11,436.952 410.864,437.09 413.619,437.236 416.373,437.39 419.128,437.551 421.882,437.72 424.636,437.896 427.391,438.081 430.145,438.273 432.9,438.473 435.654,438.681 438.409,438.897 441.163,439.12 443.918,439.352 446.672,439.591 449.427,439.839 452.181,440.094 454.936,440.357 457.69,440.628 460.444,440.906 463.199,441.193 465.953,441.487 468.708,441.789 471.462,442.098 474.217,442.415 476.971,442.74 479.726,443.072 482.48,443.412 485.235,443.759 487.989,444.113 490.743,444.474 493.498,444.843 496.252,445.218 499.007,445.6 501.761,445.99 504.516,446.386 507.27,446.789 510.025,447.198 512.779,447.615 515.534,448.038 518.288,448.467 521.042,448.903 523.797,449.345 526.551,449.794 529.306,450.248 532.06,450.709 534.815,451.176 537.569,451.649 540.324,452.128 543.078,452.612 545.833,453.103 548.587,453.599 551.341,454.101 554.096,454.608 556.85,455.12 559.605,455.638 562.359,456.162 565.114,456.69 567.868,457.224 570.623,457.763 573.377,458.307 576.132,458.856 578.886,459.41 581.641,459.968 584.395,460.532 587.149,461.099 589.904,461.672 592.658,462.249 595.413,462.831 598.167,463.416 600.922,464.007 603.676,464.601 606.431,465.199 609.185,465.802 611.94,466.409 614.694,467.019 617.448,467.634 620.203,468.252 622.957,468.874 625.712,469.5 628.466,470.129 631.221,470.762 633.975,471.398 636.73,472.037 639.484,472.68 642.239,473.327 644.993,473.976 647.747,474.629 650.502,475.285 653.256,475.943 656.011,476.605 658.765,477.27 661.52,477.937 664.274,478.607 667.029,479.28 669.783,479.956 672.538,480.634 675.292,481.315 678.046,481.999 680.801,482.685 683.555,483.373 686.31,484.063 689.064,484.756 691.819,485.451 694.573,486.149 697.328,486.848 700.082,487.55 702.837,488.253 705.591,488.959 708.345,489.666 711.1,490.376 713.854,491.087 716.609,491.8 719.363,492.514 722.118,493.231 724.872,493.949 727.627,494.669 730.381,495.39 733.136,496.113 735.89,496.837 738.645,497.563 741.399,498.29 744.153,499.018 746.908,499.748 749.662,500.479 752.417,501.211 755.171,501.944 757.926,502.679 760.68,503.415 763.435,504.151 766.189,504.889 768.944,505.628 771.698,506.368 774.452,507.109 777.207,507.85 779.961,508.593 782.716,509.336 785.47,510.081 788.225,510.825 790.979,511.571 793.734,512.318 796.488,513.065 799.243,513.813 801.997,514.561 804.751,515.31 807.506,516.059 810.26,516.81 813.015,517.56 815.769,518.311 818.524,519.063 821.278,519.815 824.033,520.568 826.787,521.32 829.542,522.074 832.296,522.827 835.05,523.581 837.805,524.335 840.559,525.09 843.314,525.845 846.068,526.6 848.823,527.355 851.577,528.11 854.332,528.866 857.086,529.621 859.841,530.377 862.595,531.133 865.349,531.889 868.104,532.645 870.858,533.401 873.613,534.158 876.367,534.914 879.122,535.67 881.876,536.426 884.631,537.183 887.385,537.939 890.14,538.695 892.894,539.451 895.649,540.207 898.403,540.963 901.157,541.719 903.912,542.474 906.666,543.23 909.421,543.985 912.175,544.741 914.93,545.496 917.684,546.25 920.439,547.005 923.193,547.76 925.948,548.514 928.702,549.268 931.456,550.022 934.211,550.775 936.965,551.528 939.72,552.281 942.474,553.034 945.229,553.786 947.983,554.538 950.738,555.29 953.492,556.041 956.247,556.792 959.001,557.543 961.755,558.293 964.51,559.043 967.264,559.793 970.019,560.542 972.773,561.291 975.528,562.039 978.282,562.787 981.037,563.534 983.791,564.282 986.546,565.028 989.3,565.775 992.054,566.52 994.809,567.266 997.563,568.011 1000.32,568.755 1003.07,569.499 1005.83,570.243 1008.58,570.986 1011.34,571.729 1014.09,572.471 1016.84,573.212 1019.6,573.953 1022.35,574.694 1025.11,575.434 1027.86,576.174 1030.62,576.913 1033.37,577.652 1036.13,578.39 1038.88,579.128 1041.63,579.865 1044.39,580.602 1047.14,581.338 1049.9,582.073 1052.65,582.808 1055.41,583.543 1058.16,584.277 1060.92,585.01 1063.67,585.743 1066.42,586.475 1069.18,587.207 1071.93,587.938 1074.69,588.669 1077.44,589.399 1080.2,590.129 1082.95,590.858 1085.71,591.586 1088.46,592.314 1091.21,593.041 1093.97,593.768 1096.72,594.494 1099.48,595.22 1102.23,595.945 1104.99,596.67 1107.74,597.394 1110.5,598.117 1113.25,598.84 1116.01,599.562 1118.76,600.284 1121.51,601.005 1124.27,601.726 1127.02,602.446 1129.78,603.165 1132.53,603.884 1135.29,604.602 1138.04,605.32 1140.8,606.037 1143.55,606.754 1146.3,607.47 1149.06,608.185 1151.81,608.9 1154.57,609.614 1157.32,610.328 1160.08,611.041 1162.83,611.754 1165.59,612.466 1168.34,613.177 1171.09,613.888 1173.85,614.598 1176.6,615.308 1179.36,616.017 1182.11,616.725 1184.87,617.433 1187.62,618.141 1190.38,618.848 1193.13,619.554 1195.88,620.26 1198.64,620.965 1201.39,621.669 1204.15,622.373 1206.9,623.076 1209.66,623.779 1212.41,624.481 1215.17,625.183 1217.92,625.884 1220.67,626.585 1223.43,627.285 1226.18,627.984 1228.94,628.683 1231.69,629.381 1234.45,630.079 1237.2,630.776 1239.96,631.472 1242.71,632.168 1245.46,632.864 1248.22,633.559 1250.97,634.253 1253.73,634.947 1256.48,635.64 1259.24,636.333 1261.99,637.025 1264.75,637.716 1267.5,638.407 1270.25,639.098 1273.01,639.787 1275.76,640.477 1278.52,641.165 1281.27,641.854 1284.03,642.541 1286.78,643.228 1289.54,643.915 1292.29,644.601 1295.04,645.287 1297.8,645.972 1300.55,646.656 1303.31,647.34 1306.06,648.023 1308.82,648.706 1311.57,649.388 1314.33,650.07 1317.08,650.751 1319.83,651.432 1322.59,652.112 1325.34,652.792 1328.1,653.471 1330.85,654.15 1333.61,654.828 1336.36,655.506 1339.12,656.183 1341.87,656.86 1344.62,657.536 1347.38,658.211 1350.13,658.886 1352.89,659.561 1355.64,660.235 1358.4,660.909 1361.15,661.582 1363.91,662.254 1366.66,662.927 1369.41,663.598 1372.17,664.269 1374.92,664.94 1377.68,665.61 1380.43,666.28 1383.19,666.949 1385.94,667.617 1388.7,668.286 1391.45,668.953 1394.21,669.62 1396.96,670.287 1399.71,670.953 1402.47,671.619 1405.22,672.284 1407.98,672.949 1410.73,673.614 1413.49,674.277 1416.24,674.941 1419,675.604 1421.75,676.266 1424.5,676.928 1427.26,677.59 1430.01,678.251 1432.77,678.911 1435.52,679.572 1438.28,680.231 1441.03,680.891 1443.79,681.549 1446.54,682.208 1449.29,682.865 1452.05,683.523 1454.8,684.18 1457.56,684.836 1460.31,685.493 1463.07,686.148 1465.82,686.803 1468.58,687.458 1471.33,688.113 1474.08,688.766 1476.84,689.42 1479.59,690.073 1482.35,690.725 1485.1,691.378 1487.86,692.029 1490.61,692.681 1493.37,693.331 1496.12,693.982 1498.87,694.632 1501.63,695.282 1504.38,695.931 1507.14,696.579 1509.89,697.228 1512.65,697.876 1515.4,698.523 1518.16,699.17 1520.91,699.817 1523.66,700.463 1526.42,701.109 1529.17,701.755 1531.93,702.4 1534.68,703.044 1537.44,703.688 1540.19,704.332 1542.95,704.976 1545.7,705.619 1548.45,706.261 1551.21,706.904 1553.96,707.545 1556.72,708.187 1559.47,708.828 1562.23,709.468 1564.98,710.109 1567.74,710.749 1570.49,711.388 1573.24,712.027 1576,712.666 1578.75,713.304 1581.51,713.942 1584.26,714.58 1587.02,715.217 1589.77,715.854 1592.53,716.49 1595.28,717.126 1598.03,717.762 1600.79,718.397 1603.54,719.032 1606.3,719.666 1609.05,720.301 1611.81,720.934 1614.56,721.568 1617.32,722.201 1620.07,722.834 1622.82,723.466 1625.58,724.098 1628.33,724.729 1631.09,725.361 1633.84,725.991 1636.6,726.622 1639.35,727.252 1642.11,727.882 1644.86,728.511 1647.62,729.141 1650.37,729.769 1653.12,730.398 1655.88,731.026 1658.63,731.654 1661.39,732.281 1664.14,732.908 1666.9,733.535 1669.65,734.161 1672.41,734.787 1675.16,735.413 1677.91,736.038 1680.67,736.663 1683.42,737.287 1686.18,737.912 1688.93,738.535 1691.69,739.159 1694.44,739.782 1697.2,740.405 1699.95,741.028 1702.7,741.65 1705.46,742.272 1708.21,742.894 1710.97,743.515 1713.72,744.136 1716.48,744.757 1719.23,745.377 1721.99,745.997 1724.74,746.616 1727.49,747.236 1730.25,747.855 1733,748.473 1735.76,749.091 1738.51,749.71 1741.27,750.327 1744.02,750.945 1746.78,751.562 1749.53,752.179 1752.28,752.795 1755.04,753.412 1757.79,754.027 1760.55,754.643 1763.3,755.258 1766.06,755.873 1768.81,756.488 1771.57,757.102 1774.32,757.716 1777.07,758.33 1779.83,758.943 1782.58,759.556 1785.34,760.169 1788.09,760.782 1790.85,761.394 1793.6,762.006 1796.36,762.617 1799.11,763.229 1801.86,763.84 1804.62,764.45 1807.37,765.061 1810.13,765.671 1812.88,766.281 1815.64,766.89 1818.39,767.499 1821.15,768.108 1823.9,768.717 1826.65,769.325 1829.41,769.934 1832.16,770.541 1834.92,771.149 1837.67,771.756 1840.43,772.363 1843.18,772.97 1845.94,773.576 1848.69,774.182 1851.44,774.788 1854.2,775.393 1856.95,775.999 1859.71,776.604 1862.46,777.208 1865.22,777.813 1867.97,778.417 1870.73,779.021 1873.48,779.624 1876.23,780.228 1878.99,780.831 1881.74,781.433 1884.5,782.036 1887.25,782.638 1890.01,783.24 1892.76,783.841 1895.52,784.443 1898.27,785.044 1901.03,785.645 1903.78,786.245 1906.53,786.846 1909.29,787.446 1912.04,788.045 1914.8,788.645 1917.55,789.244 1920.31,789.843 1923.06,790.442 1925.82,791.04 1928.57,791.638 1931.32,792.236 1934.08,792.834 1936.83,793.431 1939.59,794.028 1942.34,794.625 1945.1,795.222 1947.85,795.818 1950.61,796.414 1953.36,797.01 1956.11,797.606 1958.87,798.201 1961.62,798.796 1964.38,799.391 1967.13,799.985 1969.89,800.58 1972.64,801.174 1975.4,801.767 1978.15,802.361 1980.9,802.954 1983.66,803.547 1986.41,804.14 1989.17,804.732 1991.92,805.325 1994.68,805.917 1997.43,806.509 2000.19,807.1 2002.94,807.691 2005.69,808.282 2008.45,808.873 2011.2,809.464 2013.96,810.054 2016.71,810.644 2019.47,811.234 2022.22,811.824 2024.98,812.413 2027.73,813.002 2030.48,813.591 2033.24,814.18 2035.99,814.768 2038.75,815.356 2041.5,815.944 2044.26,816.532 2047.01,817.119 2049.77,817.706 2052.52,818.293 2055.27,818.88 2058.03,819.466 2060.78,820.053 2063.54,820.639 2066.29,821.224 2069.05,821.81 2071.8,822.395 2074.56,822.98 2077.31,823.565 2080.06,824.15 2082.82,824.734 2085.57,825.318 2088.33,825.902 2091.08,826.486 2093.84,827.069 2096.59,827.653 2099.35,828.236 2102.1,828.819 2104.85,829.401 2107.61,829.983 2110.36,830.566 2113.12,831.147 2115.87,831.729 2118.63,832.311 2121.38,832.892 2124.14,833.473 2126.89,834.053 2129.64,834.634 2132.4,835.214 2135.15,835.794 2137.91,836.374 2140.66,836.954 2143.42,837.533 2146.17,838.113 2148.93,838.692 2151.68,839.27 2154.44,839.849 2157.19,840.427 2159.94,841.005 2162.7,841.583 2165.45,842.161 2168.21,842.739 2170.96,843.316 2173.72,843.893 2176.47,844.47 2179.23,845.046 2181.98,845.623 2184.73,846.199 2187.49,846.775 2190.24,847.351 2193,847.926 2195.75,848.502 2198.51,849.077 2201.26,849.652 2204.02,850.227 2206.77,850.801 2209.52,851.375 2212.28,851.949 2215.03,852.523 2217.79,853.097 2220.54,853.67 2223.3,854.244 2226.05,854.817 2228.81,855.389 2231.56,855.962 2234.31,856.535 2237.07,857.107 2239.82,857.679 2242.58,858.251 2245.33,858.822 2248.09,859.394 2250.84,859.965 2253.6,860.536 2256.35,861.107 2259.1,861.677 2261.86,862.247 2264.61,862.818 2267.37,863.388 2270.12,863.958 2272.88,864.527 2275.63,865.096 2278.39,865.666 2281.14,866.235 2283.89,866.804 2286.65,867.372 2289.4,867.941 2292.16,868.509 2294.91,869.077 2297.67,869.645 2300.42,870.212 2303.18,870.779 2305.93,871.347 2308.68,871.914 2311.44,872.481 2314.19,873.047 2316.95,873.613 2319.7,874.18 2322.46,874.746 2325.21,875.311 2327.97,875.877 2330.72,876.443 2333.47,877.008 2336.23,877.573 2338.98,878.138 2341.74,878.702 2344.49,879.267 2347.25,879.831 2350,880.395 2352.76,880.959 "/>
<polyline clip-path="url(#clip132)" style="stroke:#3da44d; stroke-linecap:round; stroke-linejoin:round; stroke-width:12; stroke-opacity:1; fill:none" points="149.191,467.53 151.945,468.737 154.7,470.084 157.454,471.573 160.209,473.207 162.963,474.988 165.718,476.92 168.472,479.006 171.227,481.251 173.981,483.658 176.735,486.233 179.49,488.98 182.244,491.905 184.999,495.012 187.753,498.307 190.508,501.796 193.262,505.481 196.017,509.369 198.771,513.462 201.526,517.761 204.28,522.269 207.034,526.983 209.789,531.901 212.543,537.017 215.298,542.323 218.052,547.81 220.807,553.464 223.561,559.269 226.316,565.208 229.07,571.259 231.825,577.401 234.579,583.61 237.333,589.863 240.088,596.135 242.842,602.403 245.597,608.644 248.351,614.837 251.106,620.962 253.86,627.004 256.615,632.947 259.369,638.78 262.124,644.491 264.878,650.075 267.632,655.524 270.387,660.836 273.141,666.007 275.896,671.036 278.65,675.924 281.405,680.67 284.159,685.277 286.914,689.745 289.668,694.077 292.423,698.275 295.177,702.342 297.932,706.279 300.686,710.091 303.44,713.778 306.195,717.345 308.949,720.794 311.704,724.128 314.458,727.35 317.213,730.463 319.967,733.47 322.722,736.375 325.476,739.179 328.231,741.888 330.985,744.503 333.739,747.028 336.494,749.467 339.248,751.821 342.003,754.096 344.757,756.292 347.512,758.415 350.266,760.466 353.021,762.448 355.775,764.364 358.53,766.217 361.284,768.01 364.038,769.745 366.793,771.424 369.547,773.049 372.302,774.624 375.056,776.149 377.811,777.628 380.565,779.061 383.32,780.452 386.074,781.8 388.829,783.109 391.583,784.38 394.337,785.614 397.092,786.813 399.846,787.978 402.601,789.111 405.355,790.212 408.11,791.283 410.864,792.324 413.619,793.338 416.373,794.325 419.128,795.286 421.882,796.222 424.636,797.134 427.391,798.022 430.145,798.888 432.9,799.732 435.654,800.555 438.409,801.358 441.163,802.141 443.918,802.905 446.672,803.65 449.427,804.378 452.181,805.088 454.936,805.782 457.69,806.459 460.444,807.121 463.199,807.767 465.953,808.399 468.708,809.016 471.462,809.619 474.217,810.208 476.971,810.785 479.726,811.348 482.48,811.899 485.235,812.438 487.989,812.965 490.743,813.481 493.498,813.985 496.252,814.478 499.007,814.961 501.761,815.433 504.516,815.896 507.27,816.348 510.025,816.791 512.779,817.224 515.534,817.649 518.288,818.064 521.042,818.471 523.797,818.869 526.551,819.259 529.306,819.64 532.06,820.014 534.815,820.38 537.569,820.739 540.324,821.089 543.078,821.433 545.833,821.77 548.587,822.099 551.341,822.422 554.096,822.738 556.85,823.048 559.605,823.351 562.359,823.648 565.114,823.938 567.868,824.223 570.623,824.502 573.377,824.775 576.132,825.042 578.886,825.304 581.641,825.56 584.395,825.811 587.149,826.057 589.904,826.298 592.658,826.533 595.413,826.764 598.167,826.989 600.922,827.21 603.676,827.426 606.431,827.638 609.185,827.845 611.94,828.048 614.694,828.246 617.448,828.44 620.203,828.63 622.957,828.815 625.712,828.997 628.466,829.175 631.221,829.348 633.975,829.518 636.73,829.684 639.484,829.847 642.239,830.005 644.993,830.16 647.747,830.312 650.502,830.46 653.256,830.605 656.011,830.746 658.765,830.884 661.52,831.019 664.274,831.151 667.029,831.279 669.783,831.405 672.538,831.527 675.292,831.647 678.046,831.764 680.801,831.877 683.555,831.988 686.31,832.097 689.064,832.202 691.819,832.305 694.573,832.405 697.328,832.503 700.082,832.598 702.837,832.69 705.591,832.781 708.345,832.868 711.1,832.954 713.854,833.037 716.609,833.118 719.363,833.196 722.118,833.273 724.872,833.347 727.627,833.419 730.381,833.489 733.136,833.557 735.89,833.623 738.645,833.687 741.399,833.749 744.153,833.809 746.908,833.868 749.662,833.924 752.417,833.979 755.171,834.032 757.926,834.083 760.68,834.132 763.435,834.18 766.189,834.226 768.944,834.271 771.698,834.314 774.452,834.355 777.207,834.395 779.961,834.433 782.716,834.47 785.47,834.506 788.225,834.54 790.979,834.572 793.734,834.604 796.488,834.634 799.243,834.662 801.997,834.69 804.751,834.716 807.506,834.74 810.26,834.764 813.015,834.786 815.769,834.808 818.524,834.828 821.278,834.847 824.033,834.865 826.787,834.881 829.542,834.897 832.296,834.912 835.05,834.926 837.805,834.938 840.559,834.95 843.314,834.961 846.068,834.971 848.823,834.979 851.577,834.987 854.332,834.995 857.086,835.001 859.841,835.006 862.595,835.011 865.349,835.015 868.104,835.018 870.858,835.02 873.613,835.021 876.367,835.022 879.122,835.022 881.876,835.021 884.631,835.019 887.385,835.017 890.14,835.014 892.894,835.011 895.649,835.007 898.403,835.002 901.157,834.997 903.912,834.991 906.666,834.984 909.421,834.977 912.175,834.969 914.93,834.961 917.684,834.952 920.439,834.943 923.193,834.933 925.948,834.923 928.702,834.912 931.456,834.901 934.211,834.889 936.965,834.877 939.72,834.864 942.474,834.851 945.229,834.837 947.983,834.823 950.738,834.809 953.492,834.794 956.247,834.779 959.001,834.764 961.755,834.748 964.51,834.732 967.264,834.715 970.019,834.698 972.773,834.681 975.528,834.663 978.282,834.645 981.037,834.627 983.791,834.609 986.546,834.59 989.3,834.571 992.054,834.551 994.809,834.532 997.563,834.512 1000.32,834.491 1003.07,834.471 1005.83,834.45 1008.58,834.43 1011.34,834.408 1014.09,834.387 1016.84,834.366 1019.6,834.344 1022.35,834.322 1025.11,834.3 1027.86,834.277 1030.62,834.255 1033.37,834.232 1036.13,834.209 1038.88,834.186 1041.63,834.163 1044.39,834.14 1047.14,834.116 1049.9,834.092 1052.65,834.068 1055.41,834.045 1058.16,834.02 1060.92,833.996 1063.67,833.972 1066.42,833.947 1069.18,833.923 1071.93,833.898 1074.69,833.873 1077.44,833.848 1080.2,833.823 1082.95,833.798 1085.71,833.773 1088.46,833.748 1091.21,833.722 1093.97,833.697 1096.72,833.671 1099.48,833.646 1102.23,833.62 1104.99,833.594 1107.74,833.569 1110.5,833.543 1113.25,833.517 1116.01,833.491 1118.76,833.465 1121.51,833.439 1124.27,833.413 1127.02,833.387 1129.78,833.36 1132.53,833.334 1135.29,833.308 1138.04,833.282 1140.8,833.255 1143.55,833.229 1146.3,833.203 1149.06,833.176 1151.81,833.15 1154.57,833.123 1157.32,833.097 1160.08,833.07 1162.83,833.044 1165.59,833.018 1168.34,832.991 1171.09,832.965 1173.85,832.938 1176.6,832.912 1179.36,832.885 1182.11,832.859 1184.87,832.832 1187.62,832.806 1190.38,832.779 1193.13,832.753 1195.88,832.726 1198.64,832.7 1201.39,832.674 1204.15,832.647 1206.9,832.621 1209.66,832.595 1212.41,832.568 1215.17,832.542 1217.92,832.516 1220.67,832.489 1223.43,832.463 1226.18,832.437 1228.94,832.411 1231.69,832.385 1234.45,832.359 1237.2,832.333 1239.96,832.307 1242.71,832.281 1245.46,832.255 1248.22,832.229 1250.97,832.203 1253.73,832.177 1256.48,832.151 1259.24,832.125 1261.99,832.1 1264.75,832.074 1267.5,832.048 1270.25,832.023 1273.01,831.997 1275.76,831.972 1278.52,831.946 1281.27,831.921 1284.03,831.896 1286.78,831.87 1289.54,831.845 1292.29,831.82 1295.04,831.795 1297.8,831.77 1300.55,831.745 1303.31,831.719 1306.06,831.695 1308.82,831.67 1311.57,831.645 1314.33,831.62 1317.08,831.595 1319.83,831.571 1322.59,831.546 1325.34,831.521 1328.1,831.497 1330.85,831.473 1333.61,831.448 1336.36,831.424 1339.12,831.4 1341.87,831.375 1344.62,831.351 1347.38,831.327 1350.13,831.303 1352.89,831.279 1355.64,831.255 1358.4,831.231 1361.15,831.208 1363.91,831.184 1366.66,831.16 1369.41,831.137 1372.17,831.113 1374.92,831.09 1377.68,831.066 1380.43,831.043 1383.19,831.02 1385.94,830.996 1388.7,830.973 1391.45,830.95 1394.21,830.927 1396.96,830.904 1399.71,830.881 1402.47,830.858 1405.22,830.835 1407.98,830.813 1410.73,830.79 1413.49,830.767 1416.24,830.745 1419,830.722 1421.75,830.7 1424.5,830.678 1427.26,830.655 1430.01,830.633 1432.77,830.611 1435.52,830.589 1438.28,830.567 1441.03,830.545 1443.79,830.523 1446.54,830.501 1449.29,830.48 1452.05,830.458 1454.8,830.436 1457.56,830.415 1460.31,830.393 1463.07,830.372 1465.82,830.35 1468.58,830.329 1471.33,830.308 1474.08,830.286 1476.84,830.265 1479.59,830.244 1482.35,830.223 1485.1,830.202 1487.86,830.181 1490.61,830.161 1493.37,830.14 1496.12,830.119 1498.87,830.098 1501.63,830.078 1504.38,830.057 1507.14,830.037 1509.89,830.017 1512.65,829.996 1515.4,829.976 1518.16,829.956 1520.91,829.936 1523.66,829.916 1526.42,829.896 1529.17,829.876 1531.93,829.856 1534.68,829.836 1537.44,829.816 1540.19,829.796 1542.95,829.777 1545.7,829.757 1548.45,829.738 1551.21,829.718 1553.96,829.699 1556.72,829.679 1559.47,829.66 1562.23,829.641 1564.98,829.621 1567.74,829.602 1570.49,829.583 1573.24,829.564 1576,829.545 1578.75,829.526 1581.51,829.507 1584.26,829.489 1587.02,829.47 1589.77,829.451 1592.53,829.433 1595.28,829.414 1598.03,829.396 1600.79,829.377 1603.54,829.359 1606.3,829.34 1609.05,829.322 1611.81,829.304 1614.56,829.286 1617.32,829.267 1620.07,829.249 1622.82,829.231 1625.58,829.213 1628.33,829.195 1631.09,829.178 1633.84,829.16 1636.6,829.142 1639.35,829.124 1642.11,829.107 1644.86,829.089 1647.62,829.071 1650.37,829.054 1653.12,829.037 1655.88,829.019 1658.63,829.002 1661.39,828.984 1664.14,828.967 1666.9,828.95 1669.65,828.933 1672.41,828.916 1675.16,828.899 1677.91,828.882 1680.67,828.865 1683.42,828.848 1686.18,828.831 1688.93,828.814 1691.69,828.797 1694.44,828.781 1697.2,828.764 1699.95,828.747 1702.7,828.731 1705.46,828.714 1708.21,828.698 1710.97,828.681 1713.72,828.665 1716.48,828.648 1719.23,828.632 1721.99,828.616 1724.74,828.6 1727.49,828.583 1730.25,828.567 1733,828.551 1735.76,828.535 1738.51,828.519 1741.27,828.503 1744.02,828.487 1746.78,828.471 1749.53,828.456 1752.28,828.44 1755.04,828.424 1757.79,828.408 1760.55,828.393 1763.3,828.377 1766.06,828.362 1768.81,828.346 1771.57,828.331 1774.32,828.315 1777.07,828.3 1779.83,828.284 1782.58,828.269 1785.34,828.254 1788.09,828.238 1790.85,828.223 1793.6,828.208 1796.36,828.193 1799.11,828.178 1801.86,828.163 1804.62,828.148 1807.37,828.133 1810.13,828.118 1812.88,828.103 1815.64,828.088 1818.39,828.073 1821.15,828.058 1823.9,828.044 1826.65,828.029 1829.41,828.014 1832.16,828 1834.92,827.985 1837.67,827.97 1840.43,827.956 1843.18,827.941 1845.94,827.927 1848.69,827.913 1851.44,827.898 1854.2,827.884 1856.95,827.869 1859.71,827.855 1862.46,827.841 1865.22,827.827 1867.97,827.813 1870.73,827.798 1873.48,827.784 1876.23,827.77 1878.99,827.756 1881.74,827.742 1884.5,827.728 1887.25,827.714 1890.01,827.7 1892.76,827.686 1895.52,827.672 1898.27,827.659 1901.03,827.645 1903.78,827.631 1906.53,827.617 1909.29,827.604 1912.04,827.59 1914.8,827.576 1917.55,827.563 1920.31,827.549 1923.06,827.536 1925.82,827.522 1928.57,827.509 1931.32,827.495 1934.08,827.482 1936.83,827.468 1939.59,827.455 1942.34,827.442 1945.1,827.428 1947.85,827.415 1950.61,827.402 1953.36,827.389 1956.11,827.375 1958.87,827.362 1961.62,827.349 1964.38,827.336 1967.13,827.323 1969.89,827.31 1972.64,827.297 1975.4,827.284 1978.15,827.271 1980.9,827.258 1983.66,827.245 1986.41,827.232 1989.17,827.219 1991.92,827.206 1994.68,827.193 1997.43,827.181 2000.19,827.168 2002.94,827.155 2005.69,827.142 2008.45,827.13 2011.2,827.117 2013.96,827.105 2016.71,827.092 2019.47,827.079 2022.22,827.067 2024.98,827.054 2027.73,827.042 2030.48,827.029 2033.24,827.017 2035.99,827.004 2038.75,826.992 2041.5,826.98 2044.26,826.967 2047.01,826.955 2049.77,826.943 2052.52,826.93 2055.27,826.918 2058.03,826.906 2060.78,826.894 2063.54,826.881 2066.29,826.869 2069.05,826.857 2071.8,826.845 2074.56,826.833 2077.31,826.821 2080.06,826.809 2082.82,826.797 2085.57,826.785 2088.33,826.773 2091.08,826.761 2093.84,826.749 2096.59,826.737 2099.35,826.725 2102.1,826.713 2104.85,826.701 2107.61,826.689 2110.36,826.678 2113.12,826.666 2115.87,826.654 2118.63,826.642 2121.38,826.631 2124.14,826.619 2126.89,826.607 2129.64,826.595 2132.4,826.584 2135.15,826.572 2137.91,826.561 2140.66,826.549 2143.42,826.537 2146.17,826.526 2148.93,826.514 2151.68,826.503 2154.44,826.491 2157.19,826.48 2159.94,826.468 2162.7,826.457 2165.45,826.446 2168.21,826.434 2170.96,826.423 2173.72,826.412 2176.47,826.4 2179.23,826.389 2181.98,826.378 2184.73,826.366 2187.49,826.355 2190.24,826.344 2193,826.333 2195.75,826.321 2198.51,826.31 2201.26,826.299 2204.02,826.288 2206.77,826.277 2209.52,826.266 2212.28,826.255 2215.03,826.244 2217.79,826.233 2220.54,826.222 2223.3,826.211 2226.05,826.2 2228.81,826.189 2231.56,826.178 2234.31,826.167 2237.07,826.156 2239.82,826.145 2242.58,826.134 2245.33,826.123 2248.09,826.112 2250.84,826.101 2253.6,826.091 2256.35,826.08 2259.1,826.069 2261.86,826.058 2264.61,826.048 2267.37,826.037 2270.12,826.026 2272.88,826.015 2275.63,826.005 2278.39,825.994 2281.14,825.983 2283.89,825.973 2286.65,825.962 2289.4,825.952 2292.16,825.941 2294.91,825.93 2297.67,825.92 2300.42,825.909 2303.18,825.899 2305.93,825.888 2308.68,825.878 2311.44,825.867 2314.19,825.857 2316.95,825.846 2319.7,825.836 2322.46,825.826 2325.21,825.815 2327.97,825.805 2330.72,825.794 2333.47,825.784 2336.23,825.774 2338.98,825.763 2341.74,825.753 2344.49,825.743 2347.25,825.733 2350,825.722 2352.76,825.712 "/>
<path clip-path="url(#clip130)" d="M222.643 300.469 L532.096 300.469 L532.096 93.1086 L222.643 93.1086  Z" fill="#ffffff" fill-rule="evenodd" fill-opacity="1"/>
<polyline clip-path="url(#clip130)" style="stroke:#000000; stroke-linecap:round; stroke-linejoin:round; stroke-width:4; stroke-opacity:1; fill:none" points="222.643,300.469 532.096,300.469 532.096,93.1086 222.643,93.1086 222.643,300.469 "/>
<polyline clip-path="url(#clip130)" style="stroke:#009af9; stroke-linecap:round; stroke-linejoin:round; stroke-width:12; stroke-opacity:1; fill:none" points="247.127,144.949 394.031,144.949 "/>
<path clip-path="url(#clip130)" d="M418.515 151.997 L418.515 136.303 L422.775 136.303 L422.775 151.835 Q422.775 155.516 424.21 157.368 Q425.645 159.196 428.515 159.196 Q431.964 159.196 433.955 156.997 Q435.969 154.798 435.969 151.002 L435.969 136.303 L440.228 136.303 L440.228 162.229 L435.969 162.229 L435.969 158.247 Q434.418 160.608 432.358 161.766 Q430.321 162.9 427.613 162.9 Q423.145 162.9 420.83 160.122 Q418.515 157.344 418.515 151.997 M429.233 135.678 L429.233 135.678 Z" fill="#000000" fill-rule="nonzero" fill-opacity="1" /><path clip-path="url(#clip130)" d="M448.608 126.21 L458.423 126.21 L458.423 129.52 L452.867 129.52 L452.867 165.168 L458.423 165.168 L458.423 168.479 L448.608 168.479 L448.608 126.21 Z" fill="#000000" fill-rule="nonzero" fill-opacity="1" /><path clip-path="url(#clip130)" d="M468.909 158.293 L476.548 158.293 L476.548 131.928 L468.237 133.595 L468.237 129.335 L476.501 127.669 L481.177 127.669 L481.177 158.293 L488.816 158.293 L488.816 162.229 L468.909 162.229 L468.909 158.293 Z" fill="#000000" fill-rule="nonzero" fill-opacity="1" /><path clip-path="url(#clip130)" d="M507.612 126.21 L507.612 168.479 L497.797 168.479 L497.797 165.168 L503.33 165.168 L503.33 129.52 L497.797 129.52 L497.797 126.21 L507.612 126.21 Z" fill="#000000" fill-rule="nonzero" fill-opacity="1" /><polyline clip-path="url(#clip130)" style="stroke:#e26f46; stroke-linecap:round; stroke-linejoin:round; stroke-width:12; stroke-opacity:1; fill:none" points="247.127,196.789 394.031,196.789 "/>
<path clip-path="url(#clip130)" d="M418.515 203.837 L418.515 188.143 L422.775 188.143 L422.775 203.675 Q422.775 207.356 424.21 209.208 Q425.645 211.036 428.515 211.036 Q431.964 211.036 433.955 208.837 Q435.969 206.638 435.969 202.842 L435.969 188.143 L440.228 188.143 L440.228 214.069 L435.969 214.069 L435.969 210.087 Q434.418 212.448 432.358 213.606 Q430.321 214.74 427.613 214.74 Q423.145 214.74 420.83 211.962 Q418.515 209.184 418.515 203.837 M429.233 187.518 L429.233 187.518 Z" fill="#000000" fill-rule="nonzero" fill-opacity="1" /><path clip-path="url(#clip130)" d="M448.608 178.05 L458.423 178.05 L458.423 181.36 L452.867 181.36 L452.867 217.008 L458.423 217.008 L458.423 220.319 L448.608 220.319 L448.608 178.05 Z" fill="#000000" fill-rule="nonzero" fill-opacity="1" /><path clip-path="url(#clip130)" d="M472.126 210.133 L488.446 210.133 L488.446 214.069 L466.501 214.069 L466.501 210.133 Q469.163 207.379 473.747 202.749 Q478.353 198.096 479.534 196.754 Q481.779 194.231 482.659 192.495 Q483.561 190.735 483.561 189.046 Q483.561 186.291 481.617 184.555 Q479.696 182.819 476.594 182.819 Q474.395 182.819 471.941 183.583 Q469.511 184.347 466.733 185.897 L466.733 181.175 Q469.557 180.041 472.011 179.462 Q474.464 178.884 476.501 178.884 Q481.872 178.884 485.066 181.569 Q488.26 184.254 488.26 188.745 Q488.26 190.874 487.45 192.796 Q486.663 194.694 484.557 197.286 Q483.978 197.958 480.876 201.175 Q477.774 204.37 472.126 210.133 Z" fill="#000000" fill-rule="nonzero" fill-opacity="1" /><path clip-path="url(#clip130)" d="M507.612 178.05 L507.612 220.319 L497.797 220.319 L497.797 217.008 L503.33 217.008 L503.33 181.36 L497.797 181.36 L497.797 178.05 L507.612 178.05 Z" fill="#000000" fill-rule="nonzero" fill-opacity="1" /><polyline clip-path="url(#clip130)" style="stroke:#3da44d; stroke-linecap:round; stroke-linejoin:round; stroke-width:12; stroke-opacity:1; fill:none" points="247.127,248.629 394.031,248.629 "/>
<path clip-path="url(#clip130)" d="M418.515 255.677 L418.515 239.983 L422.775 239.983 L422.775 255.515 Q422.775 259.196 424.21 261.048 Q425.645 262.876 428.515 262.876 Q431.964 262.876 433.955 260.677 Q435.969 258.478 435.969 254.682 L435.969 239.983 L440.228 239.983 L440.228 265.909 L435.969 265.909 L435.969 261.927 Q434.418 264.288 432.358 265.446 Q430.321 266.58 427.613 266.58 Q423.145 266.58 420.83 263.802 Q418.515 261.024 418.515 255.677 M429.233 239.358 L429.233 239.358 Z" fill="#000000" fill-rule="nonzero" fill-opacity="1" /><path clip-path="url(#clip130)" d="M459.233 229.937 Q456.131 235.261 454.626 240.469 Q453.122 245.677 453.122 251.024 Q453.122 256.372 454.626 261.626 Q456.154 266.858 459.233 272.159 L455.529 272.159 Q452.057 266.719 450.321 261.464 Q448.608 256.21 448.608 251.024 Q448.608 245.862 450.321 240.631 Q452.034 235.4 455.529 229.937 L459.233 229.937 Z" fill="#000000" fill-rule="nonzero" fill-opacity="1" /><path clip-path="url(#clip130)" d="M471.71 232.622 L471.71 239.983 L480.483 239.983 L480.483 243.293 L471.71 243.293 L471.71 257.367 Q471.71 260.538 472.566 261.441 Q473.446 262.344 476.108 262.344 L480.483 262.344 L480.483 265.909 L476.108 265.909 Q471.177 265.909 469.302 264.08 Q467.427 262.228 467.427 257.367 L467.427 243.293 L464.302 243.293 L464.302 239.983 L467.427 239.983 L467.427 232.622 L471.71 232.622 Z" fill="#000000" fill-rule="nonzero" fill-opacity="1" /><path clip-path="url(#clip130)" d="M485.413 229.937 L489.117 229.937 Q492.589 235.4 494.302 240.631 Q496.038 245.862 496.038 251.024 Q496.038 256.21 494.302 261.464 Q492.589 266.719 489.117 272.159 L485.413 272.159 Q488.492 266.858 489.997 261.626 Q491.524 256.372 491.524 251.024 Q491.524 245.677 489.997 240.469 Q488.492 235.261 485.413 229.937 Z" fill="#000000" fill-rule="nonzero" fill-opacity="1" /></svg>
