<?xml version="1.0" encoding="utf-8"?>
<svg xmlns="http://www.w3.org/2000/svg" xmlns:xlink="http://www.w3.org/1999/xlink" width="600" height="400" viewBox="0 0 2400 1600">
<defs>
  <clipPath id="clip130">
    <rect x="0" y="0" width="2400" height="1600"/>
  </clipPath>
</defs>
<path clip-path="url(#clip130)" d="M0 1600 L2400 1600 L2400 0 L0 0  Z" fill="#ffffff" fill-rule="evenodd" fill-opacity="1"/>
<defs>
  <clipPath id="clip131">
    <rect x="480" y="0" width="1681" height="1600"/>
  </clipPath>
</defs>
<path clip-path="url(#clip130)" d="M149.191 1423.18 L2352.76 1423.18 L2352.76 47.2441 L149.191 47.2441  Z" fill="#ffffff" fill-rule="evenodd" fill-opacity="1"/>
<defs>
  <clipPath id="clip132">
    <rect x="149" y="47" width="2205" height="1377"/>
  </clipPath>
</defs>
<polyline clip-path="url(#clip132)" style="stroke:#000000; stroke-linecap:round; stroke-linejoin:round; stroke-width:2; stroke-opacity:0.1; fill:none" points="149.191,1423.18 149.191,47.2441 "/>
<polyline clip-path="url(#clip132)" style="stroke:#000000; stroke-linecap:round; stroke-linejoin:round; stroke-width:2; stroke-opacity:0.1; fill:none" points="700.082,1423.18 700.082,47.2441 "/>
<polyline clip-path="url(#clip132)" style="stroke:#000000; stroke-linecap:round; stroke-linejoin:round; stroke-width:2; stroke-opacity:0.1; fill:none" points="1250.97,1423.18 1250.97,47.2441 "/>
<polyline clip-path="url(#clip132)" style="stroke:#000000; stroke-linecap:round; stroke-linejoin:round; stroke-width:2; stroke-opacity:0.1; fill:none" points="1801.86,1423.18 1801.86,47.2441 "/>
<polyline clip-path="url(#clip132)" style="stroke:#000000; stroke-linecap:round; stroke-linejoin:round; stroke-width:2; stroke-opacity:0.1; fill:none" points="2352.76,1423.18 2352.76,47.2441 "/>
<polyline clip-path="url(#clip132)" style="stroke:#000000; stroke-linecap:round; stroke-linejoin:round; stroke-width:2; stroke-opacity:0.1; fill:none" points="149.191,1423.18 2352.76,1423.18 "/>
<polyline clip-path="url(#clip132)" style="stroke:#000000; stroke-linecap:round; stroke-linejoin:round; stroke-width:2; stroke-opacity:0.1; fill:none" points="149.191,1193.86 2352.76,1193.86 "/>
<polyline clip-path="url(#clip132)" style="stroke:#000000; stroke-linecap:round; stroke-linejoin:round; stroke-width:2; stroke-opacity:0.1; fill:none" points="149.191,964.535 2352.76,964.535 "/>
<polyline clip-path="url(#clip132)" style="stroke:#000000; stroke-linecap:round; stroke-linejoin:round; stroke-width:2; stroke-opacity:0.1; fill:none" points="149.191,735.212 2352.76,735.212 "/>
<polyline clip-path="url(#clip132)" style="stroke:#000000; stroke-linecap:round; stroke-linejoin:round; stroke-width:2; stroke-opacity:0.1; fill:none" points="149.191,505.889 2352.76,505.889 "/>
<polyline clip-path="url(#clip132)" style="stroke:#000000; stroke-linecap:round; stroke-linejoin:round; stroke-width:2; stroke-opacity:0.1; fill:none" points="149.191,276.567 2352.76,276.567 "/>
<polyline clip-path="url(#clip132)" style="stroke:#000000; stroke-linecap:round; stroke-linejoin:round; stroke-width:2; stroke-opacity:0.1; fill:none" points="149.191,47.2441 2352.76,47.2441 "/>
<polyline clip-path="url(#clip130)" style="stroke:#000000; stroke-linecap:round; stroke-linejoin:round; stroke-width:4; stroke-opacity:1; fill:none" points="149.191,1423.18 2352.76,1423.18 "/>
<polyline clip-path="url(#clip130)" style="stroke:#000000; stroke-linecap:round; stroke-linejoin:round; stroke-width:4; stroke-opacity:1; fill:none" points="149.191,1423.18 149.191,1404.28 "/>
<polyline clip-path="url(#clip130)" style="stroke:#000000; stroke-linecap:round; stroke-linejoin:round; stroke-width:4; stroke-opacity:1; fill:none" points="700.082,1423.18 700.082,1404.28 "/>
<polyline clip-path="url(#clip130)" style="stroke:#000000; stroke-linecap:round; stroke-linejoin:round; stroke-width:4; stroke-opacity:1; fill:none" points="1250.97,1423.18 1250.97,1404.28 "/>
<polyline clip-path="url(#clip130)" style="stroke:#000000; stroke-linecap:round; stroke-linejoin:round; stroke-width:4; stroke-opacity:1; fill:none" points="1801.86,1423.18 1801.86,1404.28 "/>
<polyline clip-path="url(#clip130)" style="stroke:#000000; stroke-linecap:round; stroke-linejoin:round; stroke-width:4; stroke-opacity:1; fill:none" points="2352.76,1423.18 2352.76,1404.28 "/>
<path clip-path="url(#clip130)" d="M149.191 1454.1 Q145.58 1454.1 143.751 1457.66 Q141.946 1461.2 141.946 1468.33 Q141.946 1475.44 143.751 1479.01 Q145.58 1482.55 149.191 1482.55 Q152.825 1482.55 154.631 1479.01 Q156.459 1475.44 156.459 1468.33 Q156.459 1461.2 154.631 1457.66 Q152.825 1454.1 149.191 1454.1 M149.191 1450.39 Q155.001 1450.39 158.057 1455 Q161.135 1459.58 161.135 1468.33 Q161.135 1477.06 158.057 1481.67 Q155.001 1486.25 149.191 1486.25 Q143.381 1486.25 140.302 1481.67 Q137.246 1477.06 137.246 1468.33 Q137.246 1459.58 140.302 1455 Q143.381 1450.39 149.191 1450.39 Z" fill="#000000" fill-rule="nonzero" fill-opacity="1" /><path clip-path="url(#clip130)" d="M694.735 1481.64 L711.054 1481.64 L711.054 1485.58 L689.11 1485.58 L689.11 1481.64 Q691.772 1478.89 696.355 1474.26 Q700.962 1469.61 702.142 1468.27 Q704.388 1465.74 705.267 1464.01 Q706.17 1462.25 706.17 1460.56 Q706.17 1457.8 704.226 1456.07 Q702.304 1454.33 699.203 1454.33 Q697.003 1454.33 694.55 1455.09 Q692.119 1455.86 689.341 1457.41 L689.341 1452.69 Q692.166 1451.55 694.619 1450.97 Q697.073 1450.39 699.11 1450.39 Q704.48 1450.39 707.675 1453.08 Q710.869 1455.77 710.869 1460.26 Q710.869 1462.39 710.059 1464.31 Q709.272 1466.2 707.165 1468.8 Q706.587 1469.47 703.485 1472.69 Q700.383 1475.88 694.735 1481.64 Z" fill="#000000" fill-rule="nonzero" fill-opacity="1" /><path clip-path="url(#clip130)" d="M1253.98 1455.09 L1242.18 1473.54 L1253.98 1473.54 L1253.98 1455.09 M1252.76 1451.02 L1258.64 1451.02 L1258.64 1473.54 L1263.57 1473.54 L1263.57 1477.43 L1258.64 1477.43 L1258.64 1485.58 L1253.98 1485.58 L1253.98 1477.43 L1238.38 1477.43 L1238.38 1472.92 L1252.76 1451.02 Z" fill="#000000" fill-rule="nonzero" fill-opacity="1" /><path clip-path="url(#clip130)" d="M1802.27 1466.44 Q1799.12 1466.44 1797.27 1468.59 Q1795.44 1470.74 1795.44 1474.49 Q1795.44 1478.22 1797.27 1480.39 Q1799.12 1482.55 1802.27 1482.55 Q1805.42 1482.55 1807.25 1480.39 Q1809.1 1478.22 1809.1 1474.49 Q1809.1 1470.74 1807.25 1468.59 Q1805.42 1466.44 1802.27 1466.44 M1811.55 1451.78 L1811.55 1456.04 Q1809.79 1455.21 1807.99 1454.77 Q1806.2 1454.33 1804.45 1454.33 Q1799.82 1454.33 1797.36 1457.45 Q1794.93 1460.58 1794.58 1466.9 Q1795.95 1464.89 1798.01 1463.82 Q1800.07 1462.73 1802.55 1462.73 Q1807.76 1462.73 1810.77 1465.9 Q1813.8 1469.05 1813.8 1474.49 Q1813.8 1479.82 1810.65 1483.03 Q1807.5 1486.25 1802.27 1486.25 Q1796.27 1486.25 1793.1 1481.67 Q1789.93 1477.06 1789.93 1468.33 Q1789.93 1460.14 1793.82 1455.28 Q1797.71 1450.39 1804.26 1450.39 Q1806.02 1450.39 1807.8 1450.74 Q1809.61 1451.09 1811.55 1451.78 Z" fill="#000000" fill-rule="nonzero" fill-opacity="1" /><path clip-path="url(#clip130)" d="M2352.76 1469.17 Q2349.42 1469.17 2347.5 1470.95 Q2345.6 1472.73 2345.6 1475.86 Q2345.6 1478.98 2347.5 1480.77 Q2349.42 1482.55 2352.76 1482.55 Q2356.09 1482.55 2358.01 1480.77 Q2359.93 1478.96 2359.93 1475.86 Q2359.93 1472.73 2358.01 1470.95 Q2356.11 1469.17 2352.76 1469.17 M2348.08 1467.18 Q2345.07 1466.44 2343.38 1464.38 Q2341.71 1462.32 2341.71 1459.35 Q2341.71 1455.21 2344.65 1452.8 Q2347.62 1450.39 2352.76 1450.39 Q2357.92 1450.39 2360.86 1452.8 Q2363.8 1455.21 2363.8 1459.35 Q2363.8 1462.32 2362.11 1464.38 Q2360.44 1466.44 2357.45 1467.18 Q2360.83 1467.96 2362.71 1470.26 Q2364.61 1472.55 2364.61 1475.86 Q2364.61 1480.88 2361.53 1483.57 Q2358.47 1486.25 2352.76 1486.25 Q2347.04 1486.25 2343.96 1483.57 Q2340.9 1480.88 2340.9 1475.86 Q2340.9 1472.55 2342.8 1470.26 Q2344.7 1467.96 2348.08 1467.18 M2346.37 1459.79 Q2346.37 1462.48 2348.03 1463.98 Q2349.72 1465.49 2352.76 1465.49 Q2355.77 1465.49 2357.45 1463.98 Q2359.17 1462.48 2359.17 1459.79 Q2359.17 1457.11 2357.45 1455.6 Q2355.77 1454.1 2352.76 1454.1 Q2349.72 1454.1 2348.03 1455.6 Q2346.37 1457.11 2346.37 1459.79 Z" fill="#000000" fill-rule="nonzero" fill-opacity="1" /><path clip-path="url(#clip130)" d="M1250.03 1522.27 L1250.03 1532.4 L1262.1 1532.4 L1262.1 1536.95 L1250.03 1536.95 L1250.03 1556.3 Q1250.03 1560.66 1251.21 1561.9 Q1252.42 1563.14 1256.08 1563.14 L1262.1 1563.14 L1262.1 1568.04 L1256.08 1568.04 Q1249.3 1568.04 1246.72 1565.53 Q1244.15 1562.98 1244.15 1556.3 L1244.15 1536.95 L1239.85 1536.95 L1239.85 1532.4 L1244.15 1532.4 L1244.15 1522.27 L1250.03 1522.27 Z" fill="#000000" fill-rule="nonzero" fill-opacity="1" /><polyline clip-path="url(#clip130)" style="stroke:#000000; stroke-linecap:round; stroke-linejoin:round; stroke-width:4; stroke-opacity:1; fill:none" points="149.191,1423.18 149.191,47.2441 "/>
<polyline clip-path="url(#clip130)" style="stroke:#000000; stroke-linecap:round; stroke-linejoin:round; stroke-width:4; stroke-opacity:1; fill:none" points="149.191,1423.18 168.089,1423.18 "/>
<polyline clip-path="url(#clip130)" style="stroke:#000000; stroke-linecap:round; stroke-linejoin:round; stroke-width:4; stroke-opacity:1; fill:none" points="149.191,1193.86 168.089,1193.86 "/>
<polyline clip-path="url(#clip130)" style="stroke:#000000; stroke-linecap:round; stroke-linejoin:round; stroke-width:4; stroke-opacity:1; fill:none" points="149.191,964.535 168.089,964.535 "/>
<polyline clip-path="url(#clip130)" style="stroke:#000000; stroke-linecap:round; stroke-linejoin:round; stroke-width:4; stroke-opacity:1; fill:none" points="149.191,735.212 168.089,735.212 "/>
<polyline clip-path="url(#clip130)" style="stroke:#000000; stroke-linecap:round; stroke-linejoin:round; stroke-width:4; stroke-opacity:1; fill:none" points="149.191,505.889 168.089,505.889 "/>
<polyline clip-path="url(#clip130)" style="stroke:#000000; stroke-linecap:round; stroke-linejoin:round; stroke-width:4; stroke-opacity:1; fill:none" points="149.191,276.567 168.089,276.567 "/>
<polyline clip-path="url(#clip130)" style="stroke:#000000; stroke-linecap:round; stroke-linejoin:round; stroke-width:4; stroke-opacity:1; fill:none" points="149.191,47.2441 168.089,47.2441 "/>
<path clip-path="url(#clip130)" d="M51.3162 1423.63 L80.992 1423.63 L80.992 1427.57 L51.3162 1427.57 L51.3162 1423.63 Z" fill="#000000" fill-rule="nonzero" fill-opacity="1" /><path clip-path="url(#clip130)" d="M101.663 1421.32 Q98.515 1421.32 96.6632 1423.47 Q94.8345 1425.62 94.8345 1429.37 Q94.8345 1433.1 96.6632 1435.27 Q98.515 1437.43 101.663 1437.43 Q104.811 1437.43 106.64 1435.27 Q108.492 1433.1 108.492 1429.37 Q108.492 1425.62 106.64 1423.47 Q104.811 1421.32 101.663 1421.32 M110.946 1406.66 L110.946 1410.92 Q109.186 1410.09 107.381 1409.65 Q105.598 1409.21 103.839 1409.21 Q99.2095 1409.21 96.7558 1412.33 Q94.3252 1415.46 93.978 1421.78 Q95.3437 1419.77 97.4039 1418.7 Q99.4641 1417.61 101.941 1417.61 Q107.149 1417.61 110.158 1420.78 Q113.191 1423.93 113.191 1429.37 Q113.191 1434.7 110.043 1437.91 Q106.895 1441.13 101.663 1441.13 Q95.6678 1441.13 92.4965 1436.55 Q89.3253 1431.94 89.3253 1423.21 Q89.3253 1415.02 93.2141 1410.16 Q97.103 1405.27 103.654 1405.27 Q105.413 1405.27 107.196 1405.62 Q109.001 1405.97 110.946 1406.66 Z" fill="#000000" fill-rule="nonzero" fill-opacity="1" /><path clip-path="url(#clip130)" d="M50.9921 1194.31 L80.6679 1194.31 L80.6679 1198.24 L50.9921 1198.24 L50.9921 1194.31 Z" fill="#000000" fill-rule="nonzero" fill-opacity="1" /><path clip-path="url(#clip130)" d="M103.608 1180.65 L91.8021 1199.1 L103.608 1199.1 L103.608 1180.65 M102.381 1176.58 L108.26 1176.58 L108.26 1199.1 L113.191 1199.1 L113.191 1202.99 L108.26 1202.99 L108.26 1211.14 L103.608 1211.14 L103.608 1202.99 L88.0058 1202.99 L88.0058 1198.48 L102.381 1176.58 Z" fill="#000000" fill-rule="nonzero" fill-opacity="1" /><path clip-path="url(#clip130)" d="M53.0754 964.986 L82.7512 964.986 L82.7512 968.921 L53.0754 968.921 L53.0754 964.986 Z" fill="#000000" fill-rule="nonzero" fill-opacity="1" /><path clip-path="url(#clip130)" d="M96.8715 977.879 L113.191 977.879 L113.191 981.815 L91.2465 981.815 L91.2465 977.879 Q93.9086 975.125 98.4919 970.495 Q103.098 965.842 104.279 964.5 Q106.524 961.977 107.404 960.241 Q108.307 958.481 108.307 956.792 Q108.307 954.037 106.362 952.301 Q104.441 950.565 101.339 950.565 Q99.14 950.565 96.6863 951.329 Q94.2558 952.093 91.478 953.643 L91.478 948.921 Q94.3021 947.787 96.7558 947.208 Q99.2095 946.63 101.246 946.63 Q106.617 946.63 109.811 949.315 Q113.006 952 113.006 956.491 Q113.006 958.62 112.196 960.542 Q111.408 962.44 109.302 965.032 Q108.723 965.704 105.621 968.921 Q102.52 972.116 96.8715 977.879 Z" fill="#000000" fill-rule="nonzero" fill-opacity="1" /><path clip-path="url(#clip130)" d="M101.246 721.011 Q97.6354 721.011 95.8067 724.575 Q94.0012 728.117 94.0012 735.247 Q94.0012 742.353 95.8067 745.918 Q97.6354 749.46 101.246 749.46 Q104.881 749.46 106.686 745.918 Q108.515 742.353 108.515 735.247 Q108.515 728.117 106.686 724.575 Q104.881 721.011 101.246 721.011 M101.246 717.307 Q107.057 717.307 110.112 721.913 Q113.191 726.497 113.191 735.247 Q113.191 743.973 110.112 748.58 Q107.057 753.163 101.246 753.163 Q95.4363 753.163 92.3576 748.58 Q89.3021 743.973 89.3021 735.247 Q89.3021 726.497 92.3576 721.913 Q95.4363 717.307 101.246 717.307 Z" fill="#000000" fill-rule="nonzero" fill-opacity="1" /><path clip-path="url(#clip130)" d="M96.8715 519.234 L113.191 519.234 L113.191 523.169 L91.2465 523.169 L91.2465 519.234 Q93.9086 516.48 98.4919 511.85 Q103.098 507.197 104.279 505.855 Q106.524 503.331 107.404 501.595 Q108.307 499.836 108.307 498.146 Q108.307 495.392 106.362 493.656 Q104.441 491.92 101.339 491.92 Q99.14 491.92 96.6863 492.683 Q94.2558 493.447 91.478 494.998 L91.478 490.276 Q94.3021 489.142 96.7558 488.563 Q99.2095 487.984 101.246 487.984 Q106.617 487.984 109.811 490.67 Q113.006 493.355 113.006 497.845 Q113.006 499.975 112.196 501.896 Q111.408 503.794 109.302 506.387 Q108.723 507.058 105.621 510.276 Q102.52 513.47 96.8715 519.234 Z" fill="#000000" fill-rule="nonzero" fill-opacity="1" /><path clip-path="url(#clip130)" d="M103.608 263.361 L91.8021 281.81 L103.608 281.81 L103.608 263.361 M102.381 259.287 L108.26 259.287 L108.26 281.81 L113.191 281.81 L113.191 285.699 L108.26 285.699 L108.26 293.847 L103.608 293.847 L103.608 285.699 L88.0058 285.699 L88.0058 281.185 L102.381 259.287 Z" fill="#000000" fill-rule="nonzero" fill-opacity="1" /><path clip-path="url(#clip130)" d="M101.663 45.3807 Q98.515 45.3807 96.6632 47.5334 Q94.8345 49.6862 94.8345 53.4362 Q94.8345 57.163 96.6632 59.3389 Q98.515 61.4917 101.663 61.4917 Q104.811 61.4917 106.64 59.3389 Q108.492 57.163 108.492 53.4362 Q108.492 49.6862 106.64 47.5334 Q104.811 45.3807 101.663 45.3807 M110.946 30.728 L110.946 34.9872 Q109.186 34.1539 107.381 33.7141 Q105.598 33.2743 103.839 33.2743 Q99.2095 33.2743 96.7558 36.3992 Q94.3252 39.5242 93.978 45.8436 Q95.3437 43.8298 97.4039 42.765 Q99.4641 41.677 101.941 41.677 Q107.149 41.677 110.158 44.8483 Q113.191 47.9964 113.191 53.4362 Q113.191 58.7602 110.043 61.9778 Q106.895 65.1954 101.663 65.1954 Q95.6678 65.1954 92.4965 60.6121 Q89.3253 56.0056 89.3253 47.2788 Q89.3253 39.0844 93.2141 34.2233 Q97.103 29.3391 103.654 29.3391 Q105.413 29.3391 107.196 29.6863 Q109.001 30.0335 110.946 30.728 Z" fill="#000000" fill-rule="nonzero" fill-opacity="1" /><polyline clip-path="url(#clip132)" style="stroke:#009af9; stroke-linecap:round; stroke-linejoin:round; stroke-width:12; stroke-opacity:1; fill:none" points="149.191,1193.86 151.945,1190.77 154.7,1184.98 157.454,1178.75 160.209,1172.48 162.963,1166.21 165.718,1159.95 168.472,1153.7 171.227,1147.49 173.981,1141.31 176.735,1135.18 179.49,1129.09 182.244,1123.05 184.999,1117.05 187.753,1111.11 190.508,1105.21 193.262,1099.36 196.017,1093.56 198.771,1087.79 201.526,1082.07 204.28,1076.4 207.034,1070.76 209.789,1065.17 212.543,1059.62 215.298,1054.1 218.052,1048.63 220.807,1043.19 223.561,1037.79 226.316,1032.43 229.07,1027.11 231.825,1021.83 234.579,1016.58 237.333,1011.37 240.088,1006.19 242.842,1001.05 245.597,995.952 248.351,990.885 251.106,985.854 253.86,980.859 256.615,975.899 259.369,970.973 262.124,966.083 264.878,961.226 267.632,956.405 270.387,951.617 273.141,946.863 275.896,942.143 278.65,937.456 281.405,932.802 284.159,928.182 286.914,923.594 289.668,919.038 292.423,914.515 295.177,910.024 297.932,905.565 300.686,901.137 303.44,896.741 306.195,892.375 308.949,888.041 311.704,883.737 314.458,879.463 317.213,875.22 319.967,871.007 322.722,866.823 325.476,862.668 328.231,858.543 330.985,854.447 333.739,850.379 336.494,846.34 339.248,842.329 342.003,838.346 344.757,834.392 347.512,830.464 350.266,826.564 353.021,822.691 355.775,818.846 358.53,815.027 361.284,811.234 364.038,807.468 366.793,803.728 369.547,800.014 372.302,796.325 375.056,792.663 377.811,789.025 380.565,785.413 383.32,781.825 386.074,778.263 388.829,774.725 391.583,771.211 394.337,767.722 397.092,764.256 399.846,760.815 402.601,757.397 405.355,754.003 408.11,750.632 410.864,747.284 413.619,743.96 416.373,740.658 419.128,737.379 421.882,734.122 424.636,730.888 427.391,727.676 430.145,724.486 432.9,721.319 435.654,718.172 438.409,715.048 441.163,711.945 443.918,708.863 446.672,705.803 449.427,702.764 452.181,699.745 454.936,696.747 457.69,693.77 460.444,690.814 463.199,687.878 465.953,684.962 468.708,682.066 471.462,679.19 474.217,676.334 476.971,673.498 479.726,670.681 482.48,667.884 485.235,665.106 487.989,662.347 490.743,659.607 493.498,656.886 496.252,654.184 499.007,651.501 501.761,648.836 504.516,646.19 507.27,643.562 510.025,640.952 512.779,638.361 515.534,635.787 518.288,633.232 521.042,630.694 523.797,628.174 526.551,625.671 529.306,623.186 532.06,620.718 534.815,618.268 537.569,615.834 540.324,613.418 543.078,611.018 545.833,608.635 548.587,606.269 551.341,603.92 554.096,601.587 556.85,599.27 559.605,596.969 562.359,594.685 565.114,592.417 567.868,590.165 570.623,587.929 573.377,585.708 576.132,583.503 578.886,581.314 581.641,579.14 584.395,576.981 587.149,574.838 589.904,572.71 592.658,570.597 595.413,568.499 598.167,566.415 600.922,564.347 603.676,562.293 606.431,560.254 609.185,558.229 611.94,556.219 614.694,554.223 617.448,552.241 620.203,550.274 622.957,548.32 625.712,546.381 628.466,544.455 631.221,542.543 633.975,540.644 636.73,538.76 639.484,536.888 642.239,535.03 644.993,533.186 647.747,531.355 650.502,529.536 653.256,527.731 656.011,525.939 658.765,524.16 661.52,522.393 664.274,520.639 667.029,518.898 669.783,517.17 672.538,515.454 675.292,513.75 678.046,512.058 680.801,510.379 683.555,508.712 686.31,507.057 689.064,505.414 691.819,503.783 694.573,502.163 697.328,500.556 700.082,498.96 702.837,497.375 705.591,495.802 708.345,494.241 711.1,492.69 713.854,491.151 716.609,489.624 719.363,488.107 722.118,486.601 724.872,485.106 727.627,483.622 730.381,482.149 733.136,480.687 735.89,479.235 738.645,477.794 741.399,476.363 744.153,474.943 746.908,473.533 749.662,472.133 752.417,470.744 755.171,469.364 757.926,467.995 760.68,466.636 763.435,465.286 766.189,463.947 768.944,462.617 771.698,461.297 774.452,459.987 777.207,458.686 779.961,457.394 782.716,456.112 785.47,454.84 788.225,453.576 790.979,452.322 793.734,451.077 796.488,449.842 799.243,448.615 801.997,447.397 804.751,446.188 807.506,444.988 810.26,443.796 813.015,442.614 815.769,441.44 818.524,440.274 821.278,439.117 824.033,437.969 826.787,436.829 829.542,435.697 832.296,434.574 835.05,433.458 837.805,432.351 840.559,431.252 843.314,430.161 846.068,429.078 848.823,428.003 851.577,426.936 854.332,425.876 857.086,424.824 859.841,423.78 862.595,422.743 865.349,421.714 868.104,420.693 870.858,419.679 873.613,418.672 876.367,417.673 879.122,416.681 881.876,415.696 884.631,414.718 887.385,413.748 890.14,412.784 892.894,411.828 895.649,410.878 898.403,409.936 901.157,409 903.912,408.071 906.666,407.149 909.421,406.233 912.175,405.324 914.93,404.422 917.684,403.526 920.439,402.637 923.193,401.754 925.948,400.878 928.702,400.008 931.456,399.144 934.211,398.287 936.965,397.436 939.72,396.591 942.474,395.752 945.229,394.919 947.983,394.092 950.738,393.272 953.492,392.457 956.247,391.648 959.001,390.845 961.755,390.048 964.51,389.256 967.264,388.471 970.019,387.691 972.773,386.916 975.528,386.147 978.282,385.384 981.037,384.626 983.791,383.874 986.546,383.127 989.3,382.386 992.054,381.65 994.809,380.919 997.563,380.194 1000.32,379.473 1003.07,378.758 1005.83,378.048 1008.58,377.344 1011.34,376.644 1014.09,375.949 1016.84,375.259 1019.6,374.575 1022.35,373.895 1025.11,373.22 1027.86,372.55 1030.62,371.884 1033.37,371.224 1036.13,370.568 1038.88,369.917 1041.63,369.27 1044.39,368.629 1047.14,367.991 1049.9,367.359 1052.65,366.73 1055.41,366.107 1058.16,365.488 1060.92,364.873 1063.67,364.262 1066.42,363.656 1069.18,363.054 1071.93,362.457 1074.69,361.864 1077.44,361.275 1080.2,360.69 1082.95,360.109 1085.71,359.533 1088.46,358.96 1091.21,358.392 1093.97,357.828 1096.72,357.267 1099.48,356.711 1102.23,356.158 1104.99,355.61 1107.74,355.065 1110.5,354.525 1113.25,353.988 1116.01,353.454 1118.76,352.925 1121.51,352.399 1124.27,351.877 1127.02,351.359 1129.78,350.845 1132.53,350.334 1135.29,349.827 1138.04,349.323 1140.8,348.823 1143.55,348.326 1146.3,347.833 1149.06,347.343 1151.81,346.857 1154.57,346.374 1157.32,345.895 1160.08,345.419 1162.83,344.946 1165.59,344.477 1168.34,344.011 1171.09,343.549 1173.85,343.089 1176.6,342.633 1179.36,342.18 1182.11,341.731 1184.87,341.284 1187.62,340.841 1190.38,340.401 1193.13,339.964 1195.88,339.53 1198.64,339.099 1201.39,338.671 1204.15,338.246 1206.9,337.824 1209.66,337.405 1212.41,336.989 1215.17,336.576 1217.92,336.166 1220.67,335.759 1223.43,335.354 1226.18,334.953 1228.94,334.554 1231.69,334.158 1234.45,333.765 1237.2,333.375 1239.96,332.987 1242.71,332.602 1245.46,332.22 1248.22,331.841 1250.97,331.464 1253.73,331.09 1256.48,330.718 1259.24,330.349 1261.99,329.983 1264.75,329.619 1267.5,329.258 1270.25,328.899 1273.01,328.543 1275.76,328.189 1278.52,327.838 1281.27,327.489 1284.03,327.143 1286.78,326.799 1289.54,326.458 1292.29,326.119 1295.04,325.782 1297.8,325.448 1300.55,325.116 1303.31,324.787 1306.06,324.459 1308.82,324.134 1311.57,323.812 1314.33,323.491 1317.08,323.173 1319.83,322.857 1322.59,322.543 1325.34,322.232 1328.1,321.922 1330.85,321.615 1333.61,321.31 1336.36,321.007 1339.12,320.707 1341.87,320.408 1344.62,320.111 1347.38,319.817 1350.13,319.524 1352.89,319.234 1355.64,318.946 1358.4,318.659 1361.15,318.375 1363.91,318.093 1366.66,317.812 1369.41,317.534 1372.17,317.257 1374.92,316.983 1377.68,316.71 1380.43,316.44 1383.19,316.171 1385.94,315.904 1388.7,315.639 1391.45,315.376 1394.21,315.114 1396.96,314.855 1399.71,314.597 1402.47,314.341 1405.22,314.087 1407.98,313.834 1410.73,313.584 1413.49,313.335 1416.24,313.088 1419,312.842 1421.75,312.599 1424.5,312.357 1427.26,312.116 1430.01,311.878 1432.77,311.641 1435.52,311.406 1438.28,311.172 1441.03,310.94 1443.79,310.71 1446.54,310.481 1449.29,310.254 1452.05,310.028 1454.8,309.804 1457.56,309.582 1460.31,309.361 1463.07,309.141 1465.82,308.923 1468.58,308.707 1471.33,308.492 1474.08,308.279 1476.84,308.068 1479.59,307.857 1482.35,307.648 1485.1,307.441 1487.86,307.235 1490.61,307.031 1493.37,306.828 1496.12,306.627 1498.87,306.426 1501.63,306.228 1504.38,306.03 1507.14,305.835 1509.89,305.64 1512.65,305.447 1515.4,305.255 1518.16,305.065 1520.91,304.876 1523.66,304.688 1526.42,304.501 1529.17,304.316 1531.93,304.133 1534.68,303.95 1537.44,303.769 1540.19,303.589 1542.95,303.41 1545.7,303.233 1548.45,303.056 1551.21,302.881 1553.96,302.708 1556.72,302.535 1559.47,302.364 1562.23,302.194 1564.98,302.025 1567.74,301.857 1570.49,301.691 1573.24,301.526 1576,301.361 1578.75,301.198 1581.51,301.037 1584.26,300.876 1587.02,300.716 1589.77,300.558 1592.53,300.401 1595.28,300.244 1598.03,300.089 1600.79,299.935 1603.54,299.783 1606.3,299.631 1609.05,299.48 1611.81,299.33 1614.56,299.182 1617.32,299.034 1620.07,298.888 1622.82,298.742 1625.58,298.598 1628.33,298.454 1631.09,298.312 1633.84,298.171 1636.6,298.03 1639.35,297.891 1642.11,297.753 1644.86,297.615 1647.62,297.479 1650.37,297.343 1653.12,297.209 1655.88,297.075 1658.63,296.943 1661.39,296.811 1664.14,296.681 1666.9,296.551 1669.65,296.422 1672.41,296.294 1675.16,296.167 1677.91,296.041 1680.67,295.916 1683.42,295.791 1686.18,295.668 1688.93,295.545 1691.69,295.424 1694.44,295.303 1697.2,295.183 1699.95,295.064 1702.7,294.946 1705.46,294.828 1708.21,294.711 1710.97,294.596 1713.72,294.481 1716.48,294.367 1719.23,294.253 1721.99,294.141 1724.74,294.029 1727.49,293.918 1730.25,293.808 1733,293.699 1735.76,293.59 1738.51,293.483 1741.27,293.376 1744.02,293.269 1746.78,293.164 1749.53,293.059 1752.28,292.955 1755.04,292.852 1757.79,292.749 1760.55,292.648 1763.3,292.547 1766.06,292.446 1768.81,292.347 1771.57,292.248 1774.32,292.15 1777.07,292.052 1779.83,291.955 1782.58,291.859 1785.34,291.764 1788.09,291.669 1790.85,291.575 1793.6,291.482 1796.36,291.389 1799.11,291.297 1801.86,291.206 1804.62,291.115 1807.37,291.025 1810.13,290.935 1812.88,290.846 1815.64,290.758 1818.39,290.671 1821.15,290.584 1823.9,290.498 1826.65,290.412 1829.41,290.327 1832.16,290.242 1834.92,290.159 1837.67,290.075 1840.43,289.993 1843.18,289.911 1845.94,289.829 1848.69,289.749 1851.44,289.668 1854.2,289.589 1856.95,289.509 1859.71,289.431 1862.46,289.353 1865.22,289.276 1867.97,289.199 1870.73,289.123 1873.48,289.047 1876.23,288.972 1878.99,288.897 1881.74,288.823 1884.5,288.75 1887.25,288.677 1890.01,288.604 1892.76,288.532 1895.52,288.461 1898.27,288.39 1901.03,288.32 1903.78,288.25 1906.53,288.18 1909.29,288.112 1912.04,288.043 1914.8,287.975 1917.55,287.908 1920.31,287.841 1923.06,287.775 1925.82,287.709 1928.57,287.643 1931.32,287.578 1934.08,287.514 1936.83,287.45 1939.59,287.386 1942.34,287.323 1945.1,287.261 1947.85,287.199 1950.61,287.137 1953.36,287.076 1956.11,287.015 1958.87,286.954 1961.62,286.894 1964.38,286.835 1967.13,286.776 1969.89,286.717 1972.64,286.659 1975.4,286.601 1978.15,286.544 1980.9,286.487 1983.66,286.431 1986.41,286.375 1989.17,286.319 1991.92,286.264 1994.68,286.209 1997.43,286.155 2000.19,286.1 2002.94,286.047 2005.69,285.994 2008.45,285.941 2011.2,285.888 2013.96,285.836 2016.71,285.785 2019.47,285.733 2022.22,285.682 2024.98,285.632 2027.73,285.582 2030.48,285.532 2033.24,285.482 2035.99,285.433 2038.75,285.385 2041.5,285.336 2044.26,285.288 2047.01,285.241 2049.77,285.193 2052.52,285.146 2055.27,285.1 2058.03,285.054 2060.78,285.008 2063.54,284.962 2066.29,284.917 2069.05,284.872 2071.8,284.828 2074.56,284.783 2077.31,284.74 2080.06,284.696 2082.82,284.653 2085.57,284.61 2088.33,284.567 2091.08,284.525 2093.84,284.483 2096.59,284.441 2099.35,284.4 2102.1,284.359 2104.85,284.318 2107.61,284.278 2110.36,284.238 2113.12,284.198 2115.87,284.158 2118.63,284.119 2121.38,284.08 2124.14,284.042 2126.89,284.003 2129.64,283.965 2132.4,283.927 2135.15,283.89 2137.91,283.853 2140.66,283.816 2143.42,283.779 2146.17,283.743 2148.93,283.706 2151.68,283.671 2154.44,283.635 2157.19,283.6 2159.94,283.565 2162.7,283.53 2165.45,283.495 2168.21,283.461 2170.96,283.427 2173.72,283.393 2176.47,283.36 2179.23,283.326 2181.98,283.293 2184.73,283.261 2187.49,283.228 2190.24,283.196 2193,283.164 2195.75,283.132 2198.51,283.1 2201.26,283.069 2204.02,283.038 2206.77,283.007 2209.52,282.976 2212.28,282.946 2215.03,282.916 2217.79,282.886 2220.54,282.856 2223.3,282.827 2226.05,282.797 2228.81,282.768 2231.56,282.74 2234.31,282.711 2237.07,282.683 2239.82,282.654 2242.58,282.626 2245.33,282.599 2248.09,282.571 2250.84,282.544 2253.6,282.517 2256.35,282.49 2259.1,282.463 2261.86,282.437 2264.61,282.41 2267.37,282.384 2270.12,282.358 2272.88,282.333 2275.63,282.307 2278.39,282.282 2281.14,282.257 2283.89,282.232 2286.65,282.207 2289.4,282.183 2292.16,282.158 2294.91,282.134 2297.67,282.11 2300.42,282.086 2303.18,282.063 2305.93,282.039 2308.68,282.016 2311.44,281.993 2314.19,281.97 2316.95,281.947 2319.7,281.925 2322.46,281.903 2325.21,281.881 2327.97,281.859 2330.72,281.837 2333.47,281.815 2336.23,281.794 2338.98,281.772 2341.74,281.751 2344.49,281.73 2347.25,281.709 2350,281.689 2352.76,281.668 "/>
<polyline clip-path="url(#clip132)" style="stroke:#e26f46; stroke-linecap:round; stroke-linejoin:round; stroke-width:12; stroke-opacity:1; fill:none" points="149.191,735.212 151.945,226.231 154.7,119.814 157.454,108.575 160.209,108.276 162.963,108.449 165.718,109.558 168.472,111.939 171.227,115.367 173.981,119.5 176.735,124.044 179.49,128.791 182.244,133.61 184.999,138.412 187.753,143.148 190.508,147.797 193.262,152.351 196.017,156.809 198.771,161.174 201.526,165.45 204.28,169.646 207.034,173.769 209.789,177.827 212.543,181.825 215.298,185.77 218.052,189.668 220.807,193.522 223.561,197.337 226.316,201.117 229.07,204.865 231.825,208.583 234.579,212.273 237.333,215.937 240.088,219.576 242.842,223.191 245.597,226.782 248.351,230.352 251.106,233.899 253.86,237.425 256.615,240.93 259.369,244.413 262.124,247.876 264.878,251.317 267.632,254.737 270.387,258.135 273.141,261.51 275.896,264.864 278.65,268.195 281.405,271.503 284.159,274.788 286.914,278.05 289.668,281.289 292.423,284.504 295.177,287.696 297.932,290.863 300.686,294.008 303.44,297.128 306.195,300.224 308.949,303.297 311.704,306.345 314.458,309.37 317.213,312.371 319.967,315.348 322.722,318.302 325.476,321.233 328.231,324.14 330.985,327.024 333.739,329.885 336.494,332.723 339.248,335.538 342.003,338.332 344.757,341.103 347.512,343.853 350.266,346.58 353.021,349.287 355.775,351.972 358.53,354.637 361.284,357.281 364.038,359.904 366.793,362.507 369.547,365.091 372.302,367.654 375.056,370.198 377.811,372.723 380.565,375.228 383.32,377.715 386.074,380.183 388.829,382.633 391.583,385.065 394.337,387.479 397.092,389.875 399.846,392.254 402.601,394.616 405.355,396.96 408.11,399.288 410.864,401.599 413.619,403.894 416.373,406.173 419.128,408.436 421.882,410.683 424.636,412.914 427.391,415.13 430.145,417.331 432.9,419.516 435.654,421.687 438.409,423.843 441.163,425.984 443.918,428.11 446.672,430.223 449.427,432.321 452.181,434.405 454.936,436.475 457.69,438.532 460.444,440.575 463.199,442.604 465.953,444.62 468.708,446.623 471.462,448.613 474.217,450.59 476.971,452.554 479.726,454.505 482.48,456.444 485.235,458.37 487.989,460.283 490.743,462.185 493.498,464.074 496.252,465.951 499.007,467.816 501.761,469.669 504.516,471.511 507.27,473.34 510.025,475.159 512.779,476.965 515.534,478.76 518.288,480.544 521.042,482.316 523.797,484.077 526.551,485.827 529.306,487.566 532.06,489.294 534.815,491.01 537.569,492.716 540.324,494.412 543.078,496.096 545.833,497.77 548.587,499.433 551.341,501.086 554.096,502.728 556.85,504.36 559.605,505.982 562.359,507.593 565.114,509.194 567.868,510.785 570.623,512.366 573.377,513.936 576.132,515.497 578.886,517.048 581.641,518.589 584.395,520.12 587.149,521.641 589.904,523.153 592.658,524.655 595.413,526.147 598.167,527.63 600.922,529.103 603.676,530.567 606.431,532.021 609.185,533.466 611.94,534.902 614.694,536.328 617.448,537.745 620.203,539.153 622.957,540.552 625.712,541.942 628.466,543.323 631.221,544.694 633.975,546.057 636.73,547.411 639.484,548.756 642.239,550.093 644.993,551.42 647.747,552.739 650.502,554.049 653.256,555.35 656.011,556.643 658.765,557.927 661.52,559.203 664.274,560.47 667.029,561.728 669.783,562.979 672.538,564.221 675.292,565.454 678.046,566.679 680.801,567.896 683.555,569.105 686.31,570.306 689.064,571.498 691.819,572.683 694.573,573.859 697.328,575.027 700.082,576.188 702.837,577.34 705.591,578.485 708.345,579.621 711.1,580.75 713.854,581.871 716.609,582.985 719.363,584.09 722.118,585.188 724.872,586.279 727.627,587.362 730.381,588.437 733.136,589.505 735.89,590.565 738.645,591.618 741.399,592.663 744.153,593.701 746.908,594.732 749.662,595.756 752.417,596.772 755.171,597.781 757.926,598.783 760.68,599.778 763.435,600.765 766.189,601.746 768.944,602.72 771.698,603.687 774.452,604.647 777.207,605.599 779.961,606.546 782.716,607.485 785.47,608.417 788.225,609.343 790.979,610.262 793.734,611.175 796.488,612.081 799.243,612.98 801.997,613.873 804.751,614.759 807.506,615.639 810.26,616.512 813.015,617.379 815.769,618.24 818.524,619.094 821.278,619.942 824.033,620.784 826.787,621.62 829.542,622.449 832.296,623.273 835.05,624.09 837.805,624.902 840.559,625.707 843.314,626.506 846.068,627.3 848.823,628.087 851.577,628.869 854.332,629.645 857.086,630.415 859.841,631.18 862.595,631.939 865.349,632.692 868.104,633.439 870.858,634.181 873.613,634.918 876.367,635.649 879.122,636.374 881.876,637.094 884.631,637.809 887.385,638.518 890.14,639.222 892.894,639.921 895.649,640.614 898.403,641.302 901.157,641.985 903.912,642.663 906.666,643.336 909.421,644.004 912.175,644.666 914.93,645.324 917.684,645.977 920.439,646.625 923.193,647.268 925.948,647.906 928.702,648.539 931.456,649.168 934.211,649.792 936.965,650.411 939.72,651.025 942.474,651.635 945.229,652.24 947.983,652.841 950.738,653.437 953.492,654.029 956.247,654.616 959.001,655.199 961.755,655.777 964.51,656.351 967.264,656.921 970.019,657.486 972.773,658.047 975.528,658.604 978.282,659.157 981.037,659.705 983.791,660.25 986.546,660.79 989.3,661.326 992.054,661.858 994.809,662.387 997.563,662.911 1000.32,663.431 1003.07,663.947 1005.83,664.46 1008.58,664.968 1011.34,665.473 1014.09,665.974 1016.84,666.471 1019.6,666.965 1022.35,667.454 1025.11,667.94 1027.86,668.423 1030.62,668.902 1033.37,669.377 1036.13,669.848 1038.88,670.316 1041.63,670.781 1044.39,671.242 1047.14,671.7 1049.9,672.154 1052.65,672.605 1055.41,673.052 1058.16,673.496 1060.92,673.937 1063.67,674.374 1066.42,674.809 1069.18,675.24 1071.93,675.667 1074.69,676.092 1077.44,676.513 1080.2,676.931 1082.95,677.347 1085.71,677.759 1088.46,678.168 1091.21,678.574 1093.97,678.976 1096.72,679.376 1099.48,679.773 1102.23,680.167 1104.99,680.559 1107.74,680.947 1110.5,681.332 1113.25,681.715 1116.01,682.094 1118.76,682.471 1121.51,682.845 1124.27,683.216 1127.02,683.585 1129.78,683.951 1132.53,684.314 1135.29,684.675 1138.04,685.032 1140.8,685.388 1143.55,685.74 1146.3,686.09 1149.06,686.438 1151.81,686.783 1154.57,687.125 1157.32,687.465 1160.08,687.802 1162.83,688.137 1165.59,688.47 1168.34,688.8 1171.09,689.127 1173.85,689.453 1176.6,689.775 1179.36,690.096 1182.11,690.414 1184.87,690.73 1187.62,691.044 1190.38,691.355 1193.13,691.664 1195.88,691.971 1198.64,692.275 1201.39,692.578 1204.15,692.878 1206.9,693.176 1209.66,693.472 1212.41,693.766 1215.17,694.057 1217.92,694.347 1220.67,694.635 1223.43,694.92 1226.18,695.203 1228.94,695.485 1231.69,695.764 1234.45,696.041 1237.2,696.317 1239.96,696.59 1242.71,696.861 1245.46,697.131 1248.22,697.398 1250.97,697.664 1253.73,697.927 1256.48,698.189 1259.24,698.449 1261.99,698.707 1264.75,698.963 1267.5,699.218 1270.25,699.47 1273.01,699.721 1275.76,699.97 1278.52,700.217 1281.27,700.463 1284.03,700.706 1286.78,700.948 1289.54,701.188 1292.29,701.427 1295.04,701.664 1297.8,701.899 1300.55,702.132 1303.31,702.364 1306.06,702.594 1308.82,702.823 1311.57,703.05 1314.33,703.275 1317.08,703.499 1319.83,703.721 1322.59,703.941 1325.34,704.16 1328.1,704.378 1330.85,704.594 1333.61,704.808 1336.36,705.021 1339.12,705.233 1341.87,705.442 1344.62,705.651 1347.38,705.858 1350.13,706.063 1352.89,706.267 1355.64,706.47 1358.4,706.671 1361.15,706.871 1363.91,707.069 1366.66,707.266 1369.41,707.462 1372.17,707.656 1374.92,707.849 1377.68,708.041 1380.43,708.231 1383.19,708.42 1385.94,708.608 1388.7,708.794 1391.45,708.979 1394.21,709.163 1396.96,709.345 1399.71,709.526 1402.47,709.706 1405.22,709.885 1407.98,710.062 1410.73,710.238 1413.49,710.413 1416.24,710.587 1419,710.76 1421.75,710.931 1424.5,711.101 1427.26,711.27 1430.01,711.438 1432.77,711.605 1435.52,711.77 1438.28,711.935 1441.03,712.098 1443.79,712.26 1446.54,712.421 1449.29,712.581 1452.05,712.74 1454.8,712.897 1457.56,713.054 1460.31,713.21 1463.07,713.364 1465.82,713.517 1468.58,713.67 1471.33,713.821 1474.08,713.971 1476.84,714.12 1479.59,714.269 1482.35,714.416 1485.1,714.562 1487.86,714.707 1490.61,714.851 1493.37,714.994 1496.12,715.136 1498.87,715.277 1501.63,715.417 1504.38,715.557 1507.14,715.695 1509.89,715.832 1512.65,715.968 1515.4,716.104 1518.16,716.238 1520.91,716.372 1523.66,716.504 1526.42,716.636 1529.17,716.767 1531.93,716.897 1534.68,717.026 1537.44,717.154 1540.19,717.281 1542.95,717.407 1545.7,717.533 1548.45,717.658 1551.21,717.781 1553.96,717.904 1556.72,718.026 1559.47,718.148 1562.23,718.268 1564.98,718.387 1567.74,718.506 1570.49,718.624 1573.24,718.741 1576,718.858 1578.75,718.973 1581.51,719.088 1584.26,719.202 1587.02,719.315 1589.77,719.427 1592.53,719.539 1595.28,719.65 1598.03,719.76 1600.79,719.869 1603.54,719.977 1606.3,720.085 1609.05,720.192 1611.81,720.299 1614.56,720.404 1617.32,720.509 1620.07,720.613 1622.82,720.716 1625.58,720.819 1628.33,720.921 1631.09,721.022 1633.84,721.123 1636.6,721.223 1639.35,721.322 1642.11,721.42 1644.86,721.518 1647.62,721.615 1650.37,721.712 1653.12,721.808 1655.88,721.903 1658.63,721.997 1661.39,722.091 1664.14,722.184 1666.9,722.277 1669.65,722.369 1672.41,722.46 1675.16,722.551 1677.91,722.641 1680.67,722.73 1683.42,722.819 1686.18,722.907 1688.93,722.994 1691.69,723.081 1694.44,723.168 1697.2,723.253 1699.95,723.339 1702.7,723.423 1705.46,723.507 1708.21,723.591 1710.97,723.673 1713.72,723.756 1716.48,723.837 1719.23,723.919 1721.99,723.999 1724.74,724.079 1727.49,724.159 1730.25,724.238 1733,724.316 1735.76,724.394 1738.51,724.471 1741.27,724.548 1744.02,724.624 1746.78,724.7 1749.53,724.775 1752.28,724.85 1755.04,724.924 1757.79,724.997 1760.55,725.071 1763.3,725.143 1766.06,725.215 1768.81,725.287 1771.57,725.358 1774.32,725.429 1777.07,725.499 1779.83,725.569 1782.58,725.638 1785.34,725.707 1788.09,725.775 1790.85,725.843 1793.6,725.91 1796.36,725.977 1799.11,726.043 1801.86,726.109 1804.62,726.175 1807.37,726.24 1810.13,726.304 1812.88,726.368 1815.64,726.432 1818.39,726.495 1821.15,726.558 1823.9,726.62 1826.65,726.682 1829.41,726.744 1832.16,726.805 1834.92,726.866 1837.67,726.926 1840.43,726.986 1843.18,727.045 1845.94,727.104 1848.69,727.163 1851.44,727.221 1854.2,727.279 1856.95,727.336 1859.71,727.393 1862.46,727.45 1865.22,727.506 1867.97,727.562 1870.73,727.617 1873.48,727.672 1876.23,727.727 1878.99,727.781 1881.74,727.835 1884.5,727.888 1887.25,727.941 1890.01,727.994 1892.76,728.046 1895.52,728.098 1898.27,728.15 1901.03,728.201 1903.78,728.252 1906.53,728.303 1909.29,728.353 1912.04,728.403 1914.8,728.453 1917.55,728.502 1920.31,728.551 1923.06,728.599 1925.82,728.647 1928.57,728.695 1931.32,728.743 1934.08,728.79 1936.83,728.837 1939.59,728.883 1942.34,728.929 1945.1,728.975 1947.85,729.021 1950.61,729.066 1953.36,729.111 1956.11,729.156 1958.87,729.2 1961.62,729.244 1964.38,729.288 1967.13,729.331 1969.89,729.374 1972.64,729.417 1975.4,729.459 1978.15,729.501 1980.9,729.543 1983.66,729.585 1986.41,729.626 1989.17,729.667 1991.92,729.708 1994.68,729.748 1997.43,729.788 2000.19,729.828 2002.94,729.868 2005.69,729.907 2008.45,729.946 2011.2,729.985 2013.96,730.023 2016.71,730.061 2019.47,730.099 2022.22,730.137 2024.98,730.174 2027.73,730.211 2030.48,730.248 2033.24,730.285 2035.99,730.321 2038.75,730.357 2041.5,730.393 2044.26,730.429 2047.01,730.464 2049.77,730.499 2052.52,730.534 2055.27,730.569 2058.03,730.603 2060.78,730.637 2063.54,730.671 2066.29,730.704 2069.05,730.738 2071.8,730.771 2074.56,730.804 2077.31,730.837 2080.06,730.869 2082.82,730.901 2085.57,730.933 2088.33,730.965 2091.08,730.997 2093.84,731.028 2096.59,731.059 2099.35,731.09 2102.1,731.121 2104.85,731.151 2107.61,731.181 2110.36,731.211 2113.12,731.241 2115.87,731.271 2118.63,731.3 2121.38,731.329 2124.14,731.358 2126.89,731.387 2129.64,731.416 2132.4,731.444 2135.15,731.472 2137.91,731.5 2140.66,731.528 2143.42,731.556 2146.17,731.583 2148.93,731.61 2151.68,731.637 2154.44,731.664 2157.19,731.691 2159.94,731.717 2162.7,731.743 2165.45,731.769 2168.21,731.795 2170.96,731.821 2173.72,731.847 2176.47,731.872 2179.23,731.897 2181.98,731.922 2184.73,731.947 2187.49,731.971 2190.24,731.996 2193,732.02 2195.75,732.044 2198.51,732.068 2201.26,732.092 2204.02,732.116 2206.77,732.139 2209.52,732.163 2212.28,732.186 2215.03,732.209 2217.79,732.231 2220.54,732.254 2223.3,732.277 2226.05,732.299 2228.81,732.321 2231.56,732.343 2234.31,732.365 2237.07,732.387 2239.82,732.408 2242.58,732.43 2245.33,732.451 2248.09,732.472 2250.84,732.493 2253.6,732.514 2256.35,732.534 2259.1,732.555 2261.86,732.575 2264.61,732.596 2267.37,732.616 2270.12,732.636 2272.88,732.655 2275.63,732.675 2278.39,732.695 2281.14,732.714 2283.89,732.733 2286.65,732.752 2289.4,732.771 2292.16,732.79 2294.91,732.809 2297.67,732.828 2300.42,732.846 2303.18,732.864 2305.93,732.882 2308.68,732.901 2311.44,732.918 2314.19,732.936 2316.95,732.954 2319.7,732.972 2322.46,732.989 2325.21,733.006 2327.97,733.023 2330.72,733.041 2333.47,733.057 2336.23,733.074 2338.98,733.091 2341.74,733.108 2344.49,733.124 2347.25,733.14 2350,733.157 2352.76,733.173 "/>
<polyline clip-path="url(#clip132)" style="stroke:#3da44d; stroke-linecap:round; stroke-linejoin:round; stroke-width:12; stroke-opacity:1; fill:none" points="149.191,-317.318 151.945,63.6633 154.7,387.131 157.454,609.951 160.209,745.183 162.963,823.036 165.718,867.319 168.472,892.502 171.227,906.708 173.981,914.474 176.735,918.396 179.49,920.007 182.244,920.24 184.999,919.674 187.753,918.667 190.508,917.446 193.262,916.147 196.017,914.855 198.771,913.615 201.526,912.452 204.28,911.379 207.034,910.396 209.789,909.501 212.543,908.689 215.298,907.952 218.052,907.284 220.807,906.675 223.561,906.12 226.316,905.609 229.07,905.138 231.825,904.698 234.579,904.286 237.333,903.895 240.088,903.522 242.842,903.162 245.597,902.812 248.351,902.468 251.106,902.129 253.86,901.791 256.615,901.454 259.369,901.115 262.124,900.774 264.878,900.428 267.632,900.079 270.387,899.725 273.141,899.365 275.896,899 278.65,898.63 281.405,898.255 284.159,897.874 286.914,897.489 289.668,897.098 292.423,896.704 295.177,896.305 297.932,895.903 300.686,895.497 303.44,895.089 306.195,894.679 308.949,894.266 311.704,893.852 314.458,893.437 317.213,893.021 319.967,892.605 322.722,892.189 325.476,891.773 328.231,891.357 330.985,890.942 333.739,890.528 336.494,890.116 339.248,889.705 342.003,889.296 344.757,888.889 347.512,888.483 350.266,888.08 353.021,887.679 355.775,887.281 358.53,886.885 361.284,886.492 364.038,886.101 366.793,885.713 369.547,885.328 372.302,884.945 375.056,884.566 377.811,884.189 380.565,883.815 383.32,883.444 386.074,883.075 388.829,882.71 391.583,882.347 394.337,881.987 397.092,881.629 399.846,881.275 402.601,880.923 405.355,880.573 408.11,880.227 410.864,879.882 413.619,879.541 416.373,879.201 419.128,878.864 421.882,878.53 424.636,878.198 427.391,877.868 430.145,877.54 432.9,877.214 435.654,876.891 438.409,876.569 441.163,876.25 443.918,875.932 446.672,875.616 449.427,875.303 452.181,874.991 454.936,874.68 457.69,874.372 460.444,874.065 463.199,873.759 465.953,873.456 468.708,873.153 471.462,872.853 474.217,872.553 476.971,872.255 479.726,871.959 482.48,871.663 485.235,871.369 487.989,871.076 490.743,870.784 493.498,870.494 496.252,870.204 499.007,869.916 501.761,869.629 504.516,869.342 507.27,869.057 510.025,868.772 512.779,868.489 515.534,868.206 518.288,867.924 521.042,867.643 523.797,867.363 526.551,867.083 529.306,866.804 532.06,866.526 534.815,866.248 537.569,865.972 540.324,865.695 543.078,865.42 545.833,865.145 548.587,864.87 551.341,864.596 554.096,864.323 556.85,864.05 559.605,863.777 562.359,863.505 565.114,863.233 567.868,862.962 570.623,862.691 573.377,862.42 576.132,862.15 578.886,861.881 581.641,861.611 584.395,861.342 587.149,861.073 589.904,860.804 592.658,860.536 595.413,860.268 598.167,860 600.922,859.733 603.676,859.465 606.431,859.198 609.185,858.931 611.94,858.664 614.694,858.398 617.448,858.132 620.203,857.865 622.957,857.599 625.712,857.333 628.466,857.068 631.221,856.802 633.975,856.537 636.73,856.271 639.484,856.006 642.239,855.741 644.993,855.476 647.747,855.211 650.502,854.947 653.256,854.682 656.011,854.417 658.765,854.153 661.52,853.889 664.274,853.624 667.029,853.36 669.783,853.096 672.538,852.832 675.292,852.569 678.046,852.305 680.801,852.041 683.555,851.777 686.31,851.514 689.064,851.251 691.819,850.987 694.573,850.724 697.328,850.461 700.082,850.198 702.837,849.935 705.591,849.672 708.345,849.409 711.1,849.147 713.854,848.884 716.609,848.622 719.363,848.36 722.118,848.097 724.872,847.835 727.627,847.574 730.381,847.312 733.136,847.05 735.89,846.789 738.645,846.527 741.399,846.266 744.153,846.005 746.908,845.744 749.662,845.484 752.417,845.223 755.171,844.963 757.926,844.702 760.68,844.442 763.435,844.183 766.189,843.923 768.944,843.664 771.698,843.404 774.452,843.145 777.207,842.886 779.961,842.628 782.716,842.37 785.47,842.112 788.225,841.854 790.979,841.596 793.734,841.339 796.488,841.082 799.243,840.825 801.997,840.568 804.751,840.312 807.506,840.056 810.26,839.801 813.015,839.545 815.769,839.29 818.524,839.035 821.278,838.781 824.033,838.527 826.787,838.273 829.542,838.02 832.296,837.767 835.05,837.514 837.805,837.262 840.559,837.01 843.314,836.758 846.068,836.507 848.823,836.256 851.577,836.006 854.332,835.756 857.086,835.506 859.841,835.257 862.595,835.008 865.349,834.759 868.104,834.511 870.858,834.264 873.613,834.017 876.367,833.77 879.122,833.524 881.876,833.278 884.631,833.033 887.385,832.788 890.14,832.544 892.894,832.3 895.649,832.057 898.403,831.814 901.157,831.571 903.912,831.329 906.666,831.088 909.421,830.847 912.175,830.607 914.93,830.367 917.684,830.127 920.439,829.889 923.193,829.65 925.948,829.412 928.702,829.175 931.456,828.939 934.211,828.702 936.965,828.467 939.72,828.232 942.474,827.997 945.229,827.763 947.983,827.53 950.738,827.297 953.492,827.065 956.247,826.833 959.001,826.602 961.755,826.372 964.51,826.142 967.264,825.913 970.019,825.684 972.773,825.456 975.528,825.228 978.282,825.001 981.037,824.775 983.791,824.549 986.546,824.324 989.3,824.099 992.054,823.875 994.809,823.652 997.563,823.429 1000.32,823.207 1003.07,822.986 1005.83,822.765 1008.58,822.544 1011.34,822.325 1014.09,822.106 1016.84,821.887 1019.6,821.669 1022.35,821.452 1025.11,821.236 1027.86,821.02 1030.62,820.804 1033.37,820.59 1036.13,820.375 1038.88,820.162 1041.63,819.949 1044.39,819.737 1047.14,819.525 1049.9,819.314 1052.65,819.104 1055.41,818.894 1058.16,818.685 1060.92,818.477 1063.67,818.269 1066.42,818.062 1069.18,817.855 1071.93,817.649 1074.69,817.444 1077.44,817.239 1080.2,817.035 1082.95,816.831 1085.71,816.629 1088.46,816.426 1091.21,816.225 1093.97,816.024 1096.72,815.823 1099.48,815.624 1102.23,815.424 1104.99,815.226 1107.74,815.028 1110.5,814.831 1113.25,814.634 1116.01,814.438 1118.76,814.242 1121.51,814.047 1124.27,813.853 1127.02,813.66 1129.78,813.466 1132.53,813.274 1135.29,813.082 1138.04,812.891 1140.8,812.7 1143.55,812.51 1146.3,812.32 1149.06,812.132 1151.81,811.943 1154.57,811.755 1157.32,811.568 1160.08,811.382 1162.83,811.196 1165.59,811.01 1168.34,810.826 1171.09,810.641 1173.85,810.458 1176.6,810.275 1179.36,810.092 1182.11,809.91 1184.87,809.729 1187.62,809.548 1190.38,809.367 1193.13,809.188 1195.88,809.009 1198.64,808.83 1201.39,808.652 1204.15,808.474 1206.9,808.298 1209.66,808.121 1212.41,807.945 1215.17,807.77 1217.92,807.595 1220.67,807.421 1223.43,807.247 1226.18,807.074 1228.94,806.901 1231.69,806.729 1234.45,806.558 1237.2,806.386 1239.96,806.216 1242.71,806.046 1245.46,805.876 1248.22,805.707 1250.97,805.539 1253.73,805.371 1256.48,805.203 1259.24,805.036 1261.99,804.87 1264.75,804.704 1267.5,804.538 1270.25,804.373 1273.01,804.209 1275.76,804.045 1278.52,803.881 1281.27,803.718 1284.03,803.555 1286.78,803.393 1289.54,803.232 1292.29,803.071 1295.04,802.91 1297.8,802.75 1300.55,802.59 1303.31,802.431 1306.06,802.272 1308.82,802.114 1311.57,801.956 1314.33,801.798 1317.08,801.641 1319.83,801.485 1322.59,801.329 1325.34,801.173 1328.1,801.018 1330.85,800.863 1333.61,800.709 1336.36,800.555 1339.12,800.402 1341.87,800.249 1344.62,800.096 1347.38,799.944 1350.13,799.792 1352.89,799.641 1355.64,799.49 1358.4,799.34 1361.15,799.19 1363.91,799.04 1366.66,798.891 1369.41,798.742 1372.17,798.594 1374.92,798.446 1377.68,798.298 1380.43,798.151 1383.19,798.004 1385.94,797.858 1388.7,797.712 1391.45,797.566 1394.21,797.421 1396.96,797.276 1399.71,797.132 1402.47,796.988 1405.22,796.844 1407.98,796.701 1410.73,796.558 1413.49,796.416 1416.24,796.274 1419,796.132 1421.75,795.991 1424.5,795.85 1427.26,795.709 1430.01,795.569 1432.77,795.429 1435.52,795.29 1438.28,795.15 1441.03,795.012 1443.79,794.873 1446.54,794.735 1449.29,794.597 1452.05,794.46 1454.8,794.323 1457.56,794.186 1460.31,794.05 1463.07,793.914 1465.82,793.778 1468.58,793.643 1471.33,793.508 1474.08,793.374 1476.84,793.239 1479.59,793.105 1482.35,792.972 1485.1,792.839 1487.86,792.706 1490.61,792.573 1493.37,792.441 1496.12,792.309 1498.87,792.177 1501.63,792.046 1504.38,791.915 1507.14,791.784 1509.89,791.654 1512.65,791.524 1515.4,791.394 1518.16,791.265 1520.91,791.136 1523.66,791.007 1526.42,790.879 1529.17,790.751 1531.93,790.623 1534.68,790.495 1537.44,790.368 1540.19,790.241 1542.95,790.115 1545.7,789.988 1548.45,789.862 1551.21,789.737 1553.96,789.611 1556.72,789.486 1559.47,789.361 1562.23,789.237 1564.98,789.113 1567.74,788.989 1570.49,788.865 1573.24,788.742 1576,788.619 1578.75,788.496 1581.51,788.374 1584.26,788.251 1587.02,788.129 1589.77,788.008 1592.53,787.886 1595.28,787.765 1598.03,787.644 1600.79,787.524 1603.54,787.404 1606.3,787.284 1609.05,787.164 1611.81,787.045 1614.56,786.926 1617.32,786.807 1620.07,786.688 1622.82,786.57 1625.58,786.452 1628.33,786.334 1631.09,786.216 1633.84,786.099 1636.6,785.982 1639.35,785.865 1642.11,785.749 1644.86,785.633 1647.62,785.517 1650.37,785.401 1653.12,785.286 1655.88,785.171 1658.63,785.056 1661.39,784.941 1664.14,784.827 1666.9,784.712 1669.65,784.598 1672.41,784.485 1675.16,784.371 1677.91,784.258 1680.67,784.145 1683.42,784.033 1686.18,783.92 1688.93,783.808 1691.69,783.696 1694.44,783.585 1697.2,783.473 1699.95,783.362 1702.7,783.251 1705.46,783.14 1708.21,783.03 1710.97,782.92 1713.72,782.81 1716.48,782.7 1719.23,782.591 1721.99,782.482 1724.74,782.373 1727.49,782.264 1730.25,782.155 1733,782.047 1735.76,781.939 1738.51,781.831 1741.27,781.724 1744.02,781.616 1746.78,781.509 1749.53,781.402 1752.28,781.296 1755.04,781.189 1757.79,781.083 1760.55,780.977 1763.3,780.871 1766.06,780.766 1768.81,780.661 1771.57,780.556 1774.32,780.451 1777.07,780.346 1779.83,780.242 1782.58,780.138 1785.34,780.034 1788.09,779.93 1790.85,779.827 1793.6,779.723 1796.36,779.62 1799.11,779.518 1801.86,779.415 1804.62,779.313 1807.37,779.211 1810.13,779.109 1812.88,779.007 1815.64,778.906 1818.39,778.804 1821.15,778.703 1823.9,778.602 1826.65,778.502 1829.41,778.402 1832.16,778.301 1834.92,778.201 1837.67,778.102 1840.43,778.002 1843.18,777.903 1845.94,777.804 1848.69,777.705 1851.44,777.606 1854.2,777.508 1856.95,777.41 1859.71,777.311 1862.46,777.214 1865.22,777.116 1867.97,777.019 1870.73,776.921 1873.48,776.825 1876.23,776.728 1878.99,776.631 1881.74,776.535 1884.5,776.439 1887.25,776.343 1890.01,776.247 1892.76,776.151 1895.52,776.056 1898.27,775.961 1901.03,775.866 1903.78,775.772 1906.53,775.677 1909.29,775.583 1912.04,775.489 1914.8,775.395 1917.55,775.301 1920.31,775.208 1923.06,775.114 1925.82,775.021 1928.57,774.928 1931.32,774.836 1934.08,774.743 1936.83,774.651 1939.59,774.559 1942.34,774.467 1945.1,774.375 1947.85,774.284 1950.61,774.193 1953.36,774.101 1956.11,774.011 1958.87,773.92 1961.62,773.83 1964.38,773.739 1967.13,773.649 1969.89,773.559 1972.64,773.47 1975.4,773.38 1978.15,773.291 1980.9,773.202 1983.66,773.113 1986.41,773.024 1989.17,772.936 1991.92,772.847 1994.68,772.759 1997.43,772.671 2000.19,772.583 2002.94,772.496 2005.69,772.409 2008.45,772.321 2011.2,772.234 2013.96,772.148 2016.71,772.061 2019.47,771.975 2022.22,771.888 2024.98,771.802 2027.73,771.717 2030.48,771.631 2033.24,771.545 2035.99,771.46 2038.75,771.375 2041.5,771.29 2044.26,771.206 2047.01,771.121 2049.77,771.037 2052.52,770.953 2055.27,770.869 2058.03,770.785 2060.78,770.702 2063.54,770.618 2066.29,770.535 2069.05,770.452 2071.8,770.369 2074.56,770.286 2077.31,770.204 2080.06,770.122 2082.82,770.04 2085.57,769.958 2088.33,769.876 2091.08,769.795 2093.84,769.713 2096.59,769.632 2099.35,769.551 2102.1,769.47 2104.85,769.39 2107.61,769.309 2110.36,769.229 2113.12,769.149 2115.87,769.069 2118.63,768.99 2121.38,768.91 2124.14,768.831 2126.89,768.752 2129.64,768.673 2132.4,768.594 2135.15,768.515 2137.91,768.437 2140.66,768.359 2143.42,768.281 2146.17,768.203 2148.93,768.125 2151.68,768.048 2154.44,767.97 2157.19,767.893 2159.94,767.816 2162.7,767.739 2165.45,767.662 2168.21,767.586 2170.96,767.51 2173.72,767.434 2176.47,767.358 2179.23,767.282 2181.98,767.207 2184.73,767.131 2187.49,767.056 2190.24,766.981 2193,766.906 2195.75,766.831 2198.51,766.757 2201.26,766.683 2204.02,766.608 2206.77,766.535 2209.52,766.461 2212.28,766.387 2215.03,766.314 2217.79,766.24 2220.54,766.167 2223.3,766.094 2226.05,766.021 2228.81,765.949 2231.56,765.876 2234.31,765.804 2237.07,765.732 2239.82,765.66 2242.58,765.588 2245.33,765.517 2248.09,765.445 2250.84,765.374 2253.6,765.303 2256.35,765.232 2259.1,765.162 2261.86,765.091 2264.61,765.021 2267.37,764.95 2270.12,764.881 2272.88,764.811 2275.63,764.741 2278.39,764.671 2281.14,764.602 2283.89,764.533 2286.65,764.464 2289.4,764.395 2292.16,764.326 2294.91,764.258 2297.67,764.189 2300.42,764.121 2303.18,764.053 2305.93,763.985 2308.68,763.918 2311.44,763.85 2314.19,763.783 2316.95,763.715 2319.7,763.649 2322.46,763.582 2325.21,763.515 2327.97,763.448 2330.72,763.382 2333.47,763.316 2336.23,763.25 2338.98,763.184 2341.74,763.118 2344.49,763.053 2347.25,762.987 2350,762.922 2352.76,762.857 "/>
<path clip-path="url(#clip130)" d="M1969.85 1377.32 L2279.3 1377.32 L2279.3 1169.96 L1969.85 1169.96  Z" fill="#ffffff" fill-rule="evenodd" fill-opacity="1"/>
<polyline clip-path="url(#clip130)" style="stroke:#000000; stroke-linecap:round; stroke-linejoin:round; stroke-width:4; stroke-opacity:1; fill:none" points="1969.85,1377.32 2279.3,1377.32 2279.3,1169.96 1969.85,1169.96 1969.85,1377.32 "/>
<polyline clip-path="url(#clip130)" style="stroke:#009af9; stroke-linecap:round; stroke-linejoin:round; stroke-width:12; stroke-opacity:1; fill:none" points="1994.33,1221.8 2141.24,1221.8 "/>
<path clip-path="url(#clip130)" d="M2165.72 1228.84 L2165.72 1213.15 L2169.98 1213.15 L2169.98 1228.68 Q2169.98 1232.36 2171.42 1234.21 Q2172.85 1236.04 2175.72 1236.04 Q2179.17 1236.04 2181.16 1233.84 Q2183.18 1231.64 2183.18 1227.85 L2183.18 1213.15 L2187.44 1213.15 L2187.44 1239.08 L2183.18 1239.08 L2183.18 1235.09 Q2181.63 1237.45 2179.57 1238.61 Q2177.53 1239.75 2174.82 1239.75 Q2170.35 1239.75 2168.04 1236.97 Q2165.72 1234.19 2165.72 1228.84 M2176.44 1212.52 L2176.44 1212.52 Z" fill="#000000" fill-rule="nonzero" fill-opacity="1" /><path clip-path="url(#clip130)" d="M2195.82 1203.06 L2205.63 1203.06 L2205.63 1206.37 L2200.07 1206.37 L2200.07 1242.02 L2205.63 1242.02 L2205.63 1245.33 L2195.82 1245.33 L2195.82 1203.06 Z" fill="#000000" fill-rule="nonzero" fill-opacity="1" /><path clip-path="url(#clip130)" d="M2216.12 1235.14 L2223.76 1235.14 L2223.76 1208.77 L2215.44 1210.44 L2215.44 1206.18 L2223.71 1204.52 L2228.38 1204.52 L2228.38 1235.14 L2236.02 1235.14 L2236.02 1239.08 L2216.12 1239.08 L2216.12 1235.14 Z" fill="#000000" fill-rule="nonzero" fill-opacity="1" /><path clip-path="url(#clip130)" d="M2254.82 1203.06 L2254.82 1245.33 L2245 1245.33 L2245 1242.02 L2250.54 1242.02 L2250.54 1206.37 L2245 1206.37 L2245 1203.06 L2254.82 1203.06 Z" fill="#000000" fill-rule="nonzero" fill-opacity="1" /><polyline clip-path="url(#clip130)" style="stroke:#e26f46; stroke-linecap:round; stroke-linejoin:round; stroke-width:12; stroke-opacity:1; fill:none" points="1994.33,1273.64 2141.24,1273.64 "/>
<path clip-path="url(#clip130)" d="M2165.72 1280.68 L2165.72 1264.99 L2169.98 1264.99 L2169.98 1280.52 Q2169.98 1284.2 2171.42 1286.05 Q2172.85 1287.88 2175.72 1287.88 Q2179.17 1287.88 2181.16 1285.68 Q2183.18 1283.48 2183.18 1279.69 L2183.18 1264.99 L2187.44 1264.99 L2187.44 1290.92 L2183.18 1290.92 L2183.18 1286.93 Q2181.63 1289.29 2179.57 1290.45 Q2177.53 1291.59 2174.82 1291.59 Q2170.35 1291.59 2168.04 1288.81 Q2165.72 1286.03 2165.72 1280.68 M2176.44 1264.36 L2176.44 1264.36 Z" fill="#000000" fill-rule="nonzero" fill-opacity="1" /><path clip-path="url(#clip130)" d="M2195.82 1254.9 L2205.63 1254.9 L2205.63 1258.21 L2200.07 1258.21 L2200.07 1293.86 L2205.63 1293.86 L2205.63 1297.17 L2195.82 1297.17 L2195.82 1254.9 Z" fill="#000000" fill-rule="nonzero" fill-opacity="1" /><path clip-path="url(#clip130)" d="M2219.33 1286.98 L2235.65 1286.98 L2235.65 1290.92 L2213.71 1290.92 L2213.71 1286.98 Q2216.37 1284.23 2220.95 1279.6 Q2225.56 1274.94 2226.74 1273.6 Q2228.99 1271.08 2229.87 1269.34 Q2230.77 1267.58 2230.77 1265.89 Q2230.77 1263.14 2228.82 1261.4 Q2226.9 1259.67 2223.8 1259.67 Q2221.6 1259.67 2219.15 1260.43 Q2216.72 1261.19 2213.94 1262.74 L2213.94 1258.02 Q2216.76 1256.89 2219.22 1256.31 Q2221.67 1255.73 2223.71 1255.73 Q2229.08 1255.73 2232.27 1258.42 Q2235.47 1261.1 2235.47 1265.59 Q2235.47 1267.72 2234.66 1269.64 Q2233.87 1271.54 2231.76 1274.13 Q2231.19 1274.8 2228.08 1278.02 Q2224.98 1281.22 2219.33 1286.98 Z" fill="#000000" fill-rule="nonzero" fill-opacity="1" /><path clip-path="url(#clip130)" d="M2254.82 1254.9 L2254.82 1297.17 L2245 1297.17 L2245 1293.86 L2250.54 1293.86 L2250.54 1258.21 L2245 1258.21 L2245 1254.9 L2254.82 1254.9 Z" fill="#000000" fill-rule="nonzero" fill-opacity="1" /><polyline clip-path="url(#clip130)" style="stroke:#3da44d; stroke-linecap:round; stroke-linejoin:round; stroke-width:12; stroke-opacity:1; fill:none" points="1994.33,1325.48 2141.24,1325.48 "/>
<path clip-path="url(#clip130)" d="M2165.72 1332.52 L2165.72 1316.83 L2169.98 1316.83 L2169.98 1332.36 Q2169.98 1336.04 2171.42 1337.89 Q2172.85 1339.72 2175.72 1339.72 Q2179.17 1339.72 2181.16 1337.52 Q2183.18 1335.32 2183.18 1331.53 L2183.18 1316.83 L2187.44 1316.83 L2187.44 1342.76 L2183.18 1342.76 L2183.18 1338.77 Q2181.63 1341.13 2179.57 1342.29 Q2177.53 1343.43 2174.82 1343.43 Q2170.35 1343.43 2168.04 1340.65 Q2165.72 1337.87 2165.72 1332.52 M2176.44 1316.2 L2176.44 1316.2 Z" fill="#000000" fill-rule="nonzero" fill-opacity="1" /><path clip-path="url(#clip130)" d="M2206.44 1306.78 Q2203.34 1312.11 2201.83 1317.32 Q2200.33 1322.52 2200.33 1327.87 Q2200.33 1333.22 2201.83 1338.47 Q2203.36 1343.7 2206.44 1349.01 L2202.74 1349.01 Q2199.26 1343.57 2197.53 1338.31 Q2195.82 1333.06 2195.82 1327.87 Q2195.82 1322.71 2197.53 1317.48 Q2199.24 1312.25 2202.74 1306.78 L2206.44 1306.78 Z" fill="#000000" fill-rule="nonzero" fill-opacity="1" /><path clip-path="url(#clip130)" d="M2218.92 1309.47 L2218.92 1316.83 L2227.69 1316.83 L2227.69 1320.14 L2218.92 1320.14 L2218.92 1334.21 Q2218.92 1337.38 2219.77 1338.29 Q2220.65 1339.19 2223.32 1339.19 L2227.69 1339.19 L2227.69 1342.76 L2223.32 1342.76 Q2218.38 1342.76 2216.51 1340.93 Q2214.63 1339.07 2214.63 1334.21 L2214.63 1320.14 L2211.51 1320.14 L2211.51 1316.83 L2214.63 1316.83 L2214.63 1309.47 L2218.92 1309.47 Z" fill="#000000" fill-rule="nonzero" fill-opacity="1" /><path clip-path="url(#clip130)" d="M2232.62 1306.78 L2236.32 1306.78 Q2239.8 1312.25 2241.51 1317.48 Q2243.25 1322.71 2243.25 1327.87 Q2243.25 1333.06 2241.51 1338.31 Q2239.8 1343.57 2236.32 1349.01 L2232.62 1349.01 Q2235.7 1343.7 2237.2 1338.47 Q2238.73 1333.22 2238.73 1327.87 Q2238.73 1322.52 2237.2 1317.32 Q2235.7 1312.11 2232.62 1306.78 Z" fill="#000000" fill-rule="nonzero" fill-opacity="1" /></svg>
