<?xml version="1.0" encoding="utf-8"?>
<svg xmlns="http://www.w3.org/2000/svg" xmlns:xlink="http://www.w3.org/1999/xlink" width="600" height="400" viewBox="0 0 2400 1600">
<defs>
  <clipPath id="clip920">
    <rect x="0" y="0" width="2400" height="1600"/>
  </clipPath>
</defs>
<path clip-path="url(#clip920)" d="M0 1600 L2400 1600 L2400 0 L0 0  Z" fill="#ffffff" fill-rule="evenodd" fill-opacity="1"/>
<defs>
  <clipPath id="clip921">
    <rect x="480" y="0" width="1681" height="1600"/>
  </clipPath>
</defs>
<path clip-path="url(#clip920)" d="M149.191 1423.18 L2352.76 1423.18 L2352.76 47.2441 L149.191 47.2441  Z" fill="#ffffff" fill-rule="evenodd" fill-opacity="1"/>
<defs>
  <clipPath id="clip922">
    <rect x="149" y="47" width="2205" height="1377"/>
  </clipPath>
</defs>
<polyline clip-path="url(#clip922)" style="stroke:#000000; stroke-linecap:round; stroke-linejoin:round; stroke-width:2; stroke-opacity:0.1; fill:none" points="149.191,1423.18 149.191,47.2441 "/>
<polyline clip-path="url(#clip922)" style="stroke:#000000; stroke-linecap:round; stroke-linejoin:round; stroke-width:2; stroke-opacity:0.1; fill:none" points="700.082,1423.18 700.082,47.2441 "/>
<polyline clip-path="url(#clip922)" style="stroke:#000000; stroke-linecap:round; stroke-linejoin:round; stroke-width:2; stroke-opacity:0.1; fill:none" points="1250.97,1423.18 1250.97,47.2441 "/>
<polyline clip-path="url(#clip922)" style="stroke:#000000; stroke-linecap:round; stroke-linejoin:round; stroke-width:2; stroke-opacity:0.1; fill:none" points="1801.86,1423.18 1801.86,47.2441 "/>
<polyline clip-path="url(#clip922)" style="stroke:#000000; stroke-linecap:round; stroke-linejoin:round; stroke-width:2; stroke-opacity:0.1; fill:none" points="2352.76,1423.18 2352.76,47.2441 "/>
<polyline clip-path="url(#clip922)" style="stroke:#000000; stroke-linecap:round; stroke-linejoin:round; stroke-width:2; stroke-opacity:0.1; fill:none" points="149.191,1423.18 2352.76,1423.18 "/>
<polyline clip-path="url(#clip922)" style="stroke:#000000; stroke-linecap:round; stroke-linejoin:round; stroke-width:2; stroke-opacity:0.1; fill:none" points="149.191,1193.86 2352.76,1193.86 "/>
<polyline clip-path="url(#clip922)" style="stroke:#000000; stroke-linecap:round; stroke-linejoin:round; stroke-width:2; stroke-opacity:0.1; fill:none" points="149.191,964.535 2352.76,964.535 "/>
<polyline clip-path="url(#clip922)" style="stroke:#000000; stroke-linecap:round; stroke-linejoin:round; stroke-width:2; stroke-opacity:0.1; fill:none" points="149.191,735.212 2352.76,735.212 "/>
<polyline clip-path="url(#clip922)" style="stroke:#000000; stroke-linecap:round; stroke-linejoin:round; stroke-width:2; stroke-opacity:0.1; fill:none" points="149.191,505.889 2352.76,505.889 "/>
<polyline clip-path="url(#clip922)" style="stroke:#000000; stroke-linecap:round; stroke-linejoin:round; stroke-width:2; stroke-opacity:0.1; fill:none" points="149.191,276.567 2352.76,276.567 "/>
<polyline clip-path="url(#clip922)" style="stroke:#000000; stroke-linecap:round; stroke-linejoin:round; stroke-width:2; stroke-opacity:0.1; fill:none" points="149.191,47.2441 2352.76,47.2441 "/>
<polyline clip-path="url(#clip920)" style="stroke:#000000; stroke-linecap:round; stroke-linejoin:round; stroke-width:4; stroke-opacity:1; fill:none" points="149.191,1423.18 2352.76,1423.18 "/>
<polyline clip-path="url(#clip920)" style="stroke:#000000; stroke-linecap:round; stroke-linejoin:round; stroke-width:4; stroke-opacity:1; fill:none" points="149.191,1423.18 149.191,1404.28 "/>
<polyline clip-path="url(#clip920)" style="stroke:#000000; stroke-linecap:round; stroke-linejoin:round; stroke-width:4; stroke-opacity:1; fill:none" points="700.082,1423.18 700.082,1404.28 "/>
<polyline clip-path="url(#clip920)" style="stroke:#000000; stroke-linecap:round; stroke-linejoin:round; stroke-width:4; stroke-opacity:1; fill:none" points="1250.97,1423.18 1250.97,1404.28 "/>
<polyline clip-path="url(#clip920)" style="stroke:#000000; stroke-linecap:round; stroke-linejoin:round; stroke-width:4; stroke-opacity:1; fill:none" points="1801.86,1423.18 1801.86,1404.28 "/>
<polyline clip-path="url(#clip920)" style="stroke:#000000; stroke-linecap:round; stroke-linejoin:round; stroke-width:4; stroke-opacity:1; fill:none" points="2352.76,1423.18 2352.76,1404.28 "/>
<path clip-path="url(#clip920)" d="M149.191 1454.1 Q145.58 1454.1 143.751 1457.66 Q141.946 1461.2 141.946 1468.33 Q141.946 1475.44 143.751 1479.01 Q145.58 1482.55 149.191 1482.55 Q152.825 1482.55 154.631 1479.01 Q156.459 1475.44 156.459 1468.33 Q156.459 1461.2 154.631 1457.66 Q152.825 1454.1 149.191 1454.1 M149.191 1450.39 Q155.001 1450.39 158.057 1455 Q161.135 1459.58 161.135 1468.33 Q161.135 1477.06 158.057 1481.67 Q155.001 1486.25 149.191 1486.25 Q143.381 1486.25 140.302 1481.67 Q137.246 1477.06 137.246 1468.33 Q137.246 1459.58 140.302 1455 Q143.381 1450.39 149.191 1450.39 Z" fill="#000000" fill-rule="nonzero" fill-opacity="1" /><path clip-path="url(#clip920)" d="M694.735 1481.64 L711.054 1481.64 L711.054 1485.58 L689.11 1485.58 L689.11 1481.64 Q691.772 1478.89 696.355 1474.26 Q700.962 1469.61 702.142 1468.27 Q704.388 1465.74 705.267 1464.01 Q706.17 1462.25 706.17 1460.56 Q706.17 1457.8 704.226 1456.07 Q702.304 1454.33 699.203 1454.33 Q697.003 1454.33 694.55 1455.09 Q692.119 1455.86 689.341 1457.41 L689.341 1452.69 Q692.166 1451.55 694.619 1450.97 Q697.073 1450.39 699.11 1450.39 Q704.48 1450.39 707.675 1453.08 Q710.869 1455.77 710.869 1460.26 Q710.869 1462.39 710.059 1464.31 Q709.272 1466.2 707.165 1468.8 Q706.587 1469.47 703.485 1472.69 Q700.383 1475.88 694.735 1481.64 Z" fill="#000000" fill-rule="nonzero" fill-opacity="1" /><path clip-path="url(#clip920)" d="M1253.98 1455.09 L1242.18 1473.54 L1253.98 1473.54 L1253.98 1455.09 M1252.76 1451.02 L1258.64 1451.02 L1258.64 1473.54 L1263.57 1473.54 L1263.57 1477.43 L1258.64 1477.43 L1258.64 1485.58 L1253.98 1485.58 L1253.98 1477.43 L1238.38 1477.43 L1238.38 1472.92 L1252.76 1451.02 Z" fill="#000000" fill-rule="nonzero" fill-opacity="1" /><path clip-path="url(#clip920)" d="M1802.27 1466.44 Q1799.12 1466.44 1797.27 1468.59 Q1795.44 1470.74 1795.44 1474.49 Q1795.44 1478.22 1797.27 1480.39 Q1799.12 1482.55 1802.27 1482.55 Q1805.42 1482.55 1807.25 1480.39 Q1809.1 1478.22 1809.1 1474.49 Q1809.1 1470.74 1807.25 1468.59 Q1805.42 1466.44 1802.27 1466.44 M1811.55 1451.78 L1811.55 1456.04 Q1809.79 1455.21 1807.99 1454.77 Q1806.2 1454.33 1804.45 1454.33 Q1799.82 1454.33 1797.36 1457.45 Q1794.93 1460.58 1794.58 1466.9 Q1795.95 1464.89 1798.01 1463.82 Q1800.07 1462.73 1802.55 1462.73 Q1807.76 1462.73 1810.77 1465.9 Q1813.8 1469.05 1813.8 1474.49 Q1813.8 1479.82 1810.65 1483.03 Q1807.5 1486.25 1802.27 1486.25 Q1796.27 1486.25 1793.1 1481.67 Q1789.93 1477.06 1789.93 1468.33 Q1789.93 1460.14 1793.82 1455.28 Q1797.71 1450.39 1804.26 1450.39 Q1806.02 1450.39 1807.8 1450.74 Q1809.61 1451.09 1811.55 1451.78 Z" fill="#000000" fill-rule="nonzero" fill-opacity="1" /><path clip-path="url(#clip920)" d="M2352.76 1469.17 Q2349.42 1469.17 2347.5 1470.95 Q2345.6 1472.73 2345.6 1475.86 Q2345.6 1478.98 2347.5 1480.77 Q2349.42 1482.55 2352.76 1482.55 Q2356.09 1482.55 2358.01 1480.77 Q2359.93 1478.96 2359.93 1475.86 Q2359.93 1472.73 2358.01 1470.95 Q2356.11 1469.17 2352.76 1469.17 M2348.08 1467.18 Q2345.07 1466.44 2343.38 1464.38 Q2341.71 1462.32 2341.71 1459.35 Q2341.71 1455.21 2344.65 1452.8 Q2347.62 1450.39 2352.76 1450.39 Q2357.92 1450.39 2360.86 1452.8 Q2363.8 1455.21 2363.8 1459.35 Q2363.8 1462.32 2362.11 1464.38 Q2360.44 1466.44 2357.45 1467.18 Q2360.83 1467.96 2362.71 1470.26 Q2364.61 1472.55 2364.61 1475.86 Q2364.61 1480.88 2361.53 1483.57 Q2358.47 1486.25 2352.76 1486.25 Q2347.04 1486.25 2343.96 1483.57 Q2340.9 1480.88 2340.9 1475.86 Q2340.9 1472.55 2342.8 1470.26 Q2344.7 1467.96 2348.08 1467.18 M2346.37 1459.79 Q2346.37 1462.48 2348.03 1463.98 Q2349.72 1465.49 2352.76 1465.49 Q2355.77 1465.49 2357.45 1463.98 Q2359.17 1462.48 2359.17 1459.79 Q2359.17 1457.11 2357.45 1455.6 Q2355.77 1454.1 2352.76 1454.1 Q2349.72 1454.1 2348.03 1455.6 Q2346.37 1457.11 2346.37 1459.79 Z" fill="#000000" fill-rule="nonzero" fill-opacity="1" /><path clip-path="url(#clip920)" d="M1250.03 1522.27 L1250.03 1532.4 L1262.1 1532.4 L1262.1 1536.95 L1250.03 1536.95 L1250.03 1556.3 Q1250.03 1560.66 1251.21 1561.9 Q1252.42 1563.14 1256.08 1563.14 L1262.1 1563.14 L1262.1 1568.04 L1256.08 1568.04 Q1249.3 1568.04 1246.72 1565.53 Q1244.15 1562.98 1244.15 1556.3 L1244.15 1536.95 L1239.85 1536.95 L1239.85 1532.4 L1244.15 1532.4 L1244.15 1522.27 L1250.03 1522.27 Z" fill="#000000" fill-rule="nonzero" fill-opacity="1" /><polyline clip-path="url(#clip920)" style="stroke:#000000; stroke-linecap:round; stroke-linejoin:round; stroke-width:4; stroke-opacity:1; fill:none" points="149.191,1423.18 149.191,47.2441 "/>
<polyline clip-path="url(#clip920)" style="stroke:#000000; stroke-linecap:round; stroke-linejoin:round; stroke-width:4; stroke-opacity:1; fill:none" points="149.191,1423.18 168.089,1423.18 "/>
<polyline clip-path="url(#clip920)" style="stroke:#000000; stroke-linecap:round; stroke-linejoin:round; stroke-width:4; stroke-opacity:1; fill:none" points="149.191,1193.86 168.089,1193.86 "/>
<polyline clip-path="url(#clip920)" style="stroke:#000000; stroke-linecap:round; stroke-linejoin:round; stroke-width:4; stroke-opacity:1; fill:none" points="149.191,964.535 168.089,964.535 "/>
<polyline clip-path="url(#clip920)" style="stroke:#000000; stroke-linecap:round; stroke-linejoin:round; stroke-width:4; stroke-opacity:1; fill:none" points="149.191,735.212 168.089,735.212 "/>
<polyline clip-path="url(#clip920)" style="stroke:#000000; stroke-linecap:round; stroke-linejoin:round; stroke-width:4; stroke-opacity:1; fill:none" points="149.191,505.889 168.089,505.889 "/>
<polyline clip-path="url(#clip920)" style="stroke:#000000; stroke-linecap:round; stroke-linejoin:round; stroke-width:4; stroke-opacity:1; fill:none" points="149.191,276.567 168.089,276.567 "/>
<polyline clip-path="url(#clip920)" style="stroke:#000000; stroke-linecap:round; stroke-linejoin:round; stroke-width:4; stroke-opacity:1; fill:none" points="149.191,47.2441 168.089,47.2441 "/>
<path clip-path="url(#clip920)" d="M51.3162 1423.63 L80.992 1423.63 L80.992 1427.57 L51.3162 1427.57 L51.3162 1423.63 Z" fill="#000000" fill-rule="nonzero" fill-opacity="1" /><path clip-path="url(#clip920)" d="M101.663 1421.32 Q98.515 1421.32 96.6632 1423.47 Q94.8345 1425.62 94.8345 1429.37 Q94.8345 1433.1 96.6632 1435.27 Q98.515 1437.43 101.663 1437.43 Q104.811 1437.43 106.64 1435.27 Q108.492 1433.1 108.492 1429.37 Q108.492 1425.62 106.64 1423.47 Q104.811 1421.32 101.663 1421.32 M110.946 1406.66 L110.946 1410.92 Q109.186 1410.09 107.381 1409.65 Q105.598 1409.21 103.839 1409.21 Q99.2095 1409.21 96.7558 1412.33 Q94.3252 1415.46 93.978 1421.78 Q95.3437 1419.77 97.4039 1418.7 Q99.4641 1417.61 101.941 1417.61 Q107.149 1417.61 110.158 1420.78 Q113.191 1423.93 113.191 1429.37 Q113.191 1434.7 110.043 1437.91 Q106.895 1441.13 101.663 1441.13 Q95.6678 1441.13 92.4965 1436.55 Q89.3253 1431.94 89.3253 1423.21 Q89.3253 1415.02 93.2141 1410.16 Q97.103 1405.27 103.654 1405.27 Q105.413 1405.27 107.196 1405.62 Q109.001 1405.97 110.946 1406.66 Z" fill="#000000" fill-rule="nonzero" fill-opacity="1" /><path clip-path="url(#clip920)" d="M50.9921 1194.31 L80.6679 1194.31 L80.6679 1198.24 L50.9921 1198.24 L50.9921 1194.31 Z" fill="#000000" fill-rule="nonzero" fill-opacity="1" /><path clip-path="url(#clip920)" d="M103.608 1180.65 L91.8021 1199.1 L103.608 1199.1 L103.608 1180.65 M102.381 1176.58 L108.26 1176.58 L108.26 1199.1 L113.191 1199.1 L113.191 1202.99 L108.26 1202.99 L108.26 1211.14 L103.608 1211.14 L103.608 1202.99 L88.0058 1202.99 L88.0058 1198.48 L102.381 1176.58 Z" fill="#000000" fill-rule="nonzero" fill-opacity="1" /><path clip-path="url(#clip920)" d="M53.0754 964.986 L82.7512 964.986 L82.7512 968.921 L53.0754 968.921 L53.0754 964.986 Z" fill="#000000" fill-rule="nonzero" fill-opacity="1" /><path clip-path="url(#clip920)" d="M96.8715 977.879 L113.191 977.879 L113.191 981.815 L91.2465 981.815 L91.2465 977.879 Q93.9086 975.125 98.4919 970.495 Q103.098 965.842 104.279 964.5 Q106.524 961.977 107.404 960.241 Q108.307 958.481 108.307 956.792 Q108.307 954.037 106.362 952.301 Q104.441 950.565 101.339 950.565 Q99.14 950.565 96.6863 951.329 Q94.2558 952.093 91.478 953.643 L91.478 948.921 Q94.3021 947.787 96.7558 947.208 Q99.2095 946.63 101.246 946.63 Q106.617 946.63 109.811 949.315 Q113.006 952 113.006 956.491 Q113.006 958.62 112.196 960.542 Q111.408 962.44 109.302 965.032 Q108.723 965.704 105.621 968.921 Q102.52 972.116 96.8715 977.879 Z" fill="#000000" fill-rule="nonzero" fill-opacity="1" /><path clip-path="url(#clip920)" d="M101.246 721.011 Q97.6354 721.011 95.8067 724.575 Q94.0012 728.117 94.0012 735.247 Q94.0012 742.353 95.8067 745.918 Q97.6354 749.46 101.246 749.46 Q104.881 749.46 106.686 745.918 Q108.515 742.353 108.515 735.247 Q108.515 728.117 106.686 724.575 Q104.881 721.011 101.246 721.011 M101.246 717.307 Q107.057 717.307 110.112 721.913 Q113.191 726.497 113.191 735.247 Q113.191 743.973 110.112 748.58 Q107.057 753.163 101.246 753.163 Q95.4363 753.163 92.3576 748.58 Q89.3021 743.973 89.3021 735.247 Q89.3021 726.497 92.3576 721.913 Q95.4363 717.307 101.246 717.307 Z" fill="#000000" fill-rule="nonzero" fill-opacity="1" /><path clip-path="url(#clip920)" d="M96.8715 519.234 L113.191 519.234 L113.191 523.169 L91.2465 523.169 L91.2465 519.234 Q93.9086 516.48 98.4919 511.85 Q103.098 507.197 104.279 505.855 Q106.524 503.331 107.404 501.595 Q108.307 499.836 108.307 498.146 Q108.307 495.392 106.362 493.656 Q104.441 491.92 101.339 491.92 Q99.14 491.92 96.6863 492.683 Q94.2558 493.447 91.478 494.998 L91.478 490.276 Q94.3021 489.142 96.7558 488.563 Q99.2095 487.984 101.246 487.984 Q106.617 487.984 109.811 490.67 Q113.006 493.355 113.006 497.845 Q113.006 499.975 112.196 501.896 Q111.408 503.794 109.302 506.387 Q108.723 507.058 105.621 510.276 Q102.52 513.47 96.8715 519.234 Z" fill="#000000" fill-rule="nonzero" fill-opacity="1" /><path clip-path="url(#clip920)" d="M103.608 263.361 L91.8021 281.81 L103.608 281.81 L103.608 263.361 M102.381 259.287 L108.26 259.287 L108.26 281.81 L113.191 281.81 L113.191 285.699 L108.26 285.699 L108.26 293.847 L103.608 293.847 L103.608 285.699 L88.0058 285.699 L88.0058 281.185 L102.381 259.287 Z" fill="#000000" fill-rule="nonzero" fill-opacity="1" /><path clip-path="url(#clip920)" d="M101.663 45.3807 Q98.515 45.3807 96.6632 47.5334 Q94.8345 49.6862 94.8345 53.4362 Q94.8345 57.163 96.6632 59.3389 Q98.515 61.4917 101.663 61.4917 Q104.811 61.4917 106.64 59.3389 Q108.492 57.163 108.492 53.4362 Q108.492 49.6862 106.64 47.5334 Q104.811 45.3807 101.663 45.3807 M110.946 30.728 L110.946 34.9872 Q109.186 34.1539 107.381 33.7141 Q105.598 33.2743 103.839 33.2743 Q99.2095 33.2743 96.7558 36.3992 Q94.3252 39.5242 93.978 45.8436 Q95.3437 43.8298 97.4039 42.765 Q99.4641 41.677 101.941 41.677 Q107.149 41.677 110.158 44.8483 Q113.191 47.9964 113.191 53.4362 Q113.191 58.7602 110.043 61.9778 Q106.895 65.1954 101.663 65.1954 Q95.6678 65.1954 92.4965 60.6121 Q89.3253 56.0056 89.3253 47.2788 Q89.3253 39.0844 93.2141 34.2233 Q97.103 29.3391 103.654 29.3391 Q105.413 29.3391 107.196 29.6863 Q109.001 30.0335 110.946 30.728 Z" fill="#000000" fill-rule="nonzero" fill-opacity="1" /><polyline clip-path="url(#clip922)" style="stroke:#009af9; stroke-linecap:round; stroke-linejoin:round; stroke-width:12; stroke-opacity:1; fill:none" points="149.191,1193.86 151.945,1193.65 154.7,1193.05 157.454,1192.06 160.209,1190.7 162.963,1189 165.718,1186.95 168.472,1184.6 171.227,1181.94 173.981,1179.01 176.735,1175.81 179.49,1172.38 182.244,1168.72 184.999,1164.87 187.753,1160.82 190.508,1156.61 193.262,1152.26 196.017,1147.77 198.771,1143.16 201.526,1138.45 204.28,1133.66 207.034,1128.79 209.789,1123.86 212.543,1118.88 215.298,1113.86 218.052,1108.8 220.807,1103.72 223.561,1098.62 226.316,1093.5 229.07,1088.38 231.825,1083.24 234.579,1078.1 237.333,1072.96 240.088,1067.82 242.842,1062.67 245.597,1057.53 248.351,1052.38 251.106,1047.24 253.86,1042.09 256.615,1036.95 259.369,1031.8 262.124,1026.66 264.878,1021.52 267.632,1016.37 270.387,1011.23 273.141,1006.09 275.896,1000.95 278.65,995.819 281.405,990.689 284.159,985.566 286.914,980.448 289.668,975.339 292.423,970.238 295.177,965.148 297.932,960.069 300.686,955.004 303.44,949.952 306.195,944.917 308.949,939.897 311.704,934.896 314.458,929.914 317.213,924.952 319.967,920.012 322.722,915.093 325.476,910.198 328.231,905.327 330.985,900.482 333.739,895.662 336.494,890.869 339.248,886.103 342.003,881.365 344.757,876.657 347.512,871.977 350.266,867.328 353.021,862.709 355.775,858.122 358.53,853.566 361.284,849.042 364.038,844.55 366.793,840.09 369.547,835.664 372.302,831.27 375.056,826.91 377.811,822.583 380.565,818.289 383.32,814.03 386.074,809.804 388.829,805.613 391.583,801.455 394.337,797.332 397.092,793.243 399.846,789.189 402.601,785.168 405.355,781.182 408.11,777.231 410.864,773.313 413.619,769.429 416.373,765.58 419.128,761.764 421.882,757.982 424.636,754.233 427.391,750.519 430.145,746.838 432.9,743.19 435.654,739.575 438.409,735.994 441.163,732.445 443.918,728.929 446.672,725.445 449.427,721.994 452.181,718.575 454.936,715.188 457.69,711.833 460.444,708.51 463.199,705.217 465.953,701.957 468.708,698.727 471.462,695.528 474.217,692.359 476.971,689.221 479.726,686.114 482.48,683.036 485.235,679.987 487.989,676.969 490.743,673.979 493.498,671.018 496.252,668.087 499.007,665.183 501.761,662.308 504.516,659.46 507.27,656.641 510.025,653.849 512.779,651.084 515.534,648.347 518.288,645.636 521.042,642.952 523.797,640.294 526.551,637.662 529.306,635.056 532.06,632.475 534.815,629.92 537.569,627.39 540.324,624.885 543.078,622.404 545.833,619.948 548.587,617.515 551.341,615.107 554.096,612.722 556.85,610.361 559.605,608.023 562.359,605.708 565.114,603.415 567.868,601.145 570.623,598.897 573.377,596.671 576.132,594.467 578.886,592.284 581.641,590.122 584.395,587.982 587.149,585.862 589.904,583.762 592.658,581.683 595.413,579.624 598.167,577.585 600.922,575.566 603.676,573.566 606.431,571.585 609.185,569.623 611.94,567.68 614.694,565.755 617.448,563.848 620.203,561.96 622.957,560.089 625.712,558.236 628.466,556.401 631.221,554.583 633.975,552.782 636.73,550.997 639.484,549.229 642.239,547.478 644.993,545.743 647.747,544.024 650.502,542.32 653.256,540.632 656.011,538.96 658.765,537.303 661.52,535.661 664.274,534.034 667.029,532.421 669.783,530.823 672.538,529.239 675.292,527.669 678.046,526.114 680.801,524.572 683.555,523.043 686.31,521.528 689.064,520.027 691.819,518.538 694.573,517.062 697.328,515.599 700.082,514.149 702.837,512.711 705.591,511.285 708.345,509.871 711.1,508.469 713.854,507.079 716.609,505.701 719.363,504.334 722.118,502.978 724.872,501.633 727.627,500.3 730.381,498.977 733.136,497.666 735.89,496.364 738.645,495.073 741.399,493.793 744.153,492.522 746.908,491.262 749.662,490.012 752.417,488.771 755.171,487.54 757.926,486.319 760.68,485.106 763.435,483.904 766.189,482.71 768.944,481.526 771.698,480.35 774.452,479.183 777.207,478.025 779.961,476.876 782.716,475.735 785.47,474.603 788.225,473.479 790.979,472.363 793.734,471.255 796.488,470.155 799.243,469.063 801.997,467.978 804.751,466.902 807.506,465.832 810.26,464.771 813.015,463.717 815.769,462.67 818.524,461.63 821.278,460.597 824.033,459.572 826.787,458.553 829.542,457.541 832.296,456.536 835.05,455.538 837.805,454.546 840.559,453.56 843.314,452.582 846.068,451.609 848.823,450.643 851.577,449.683 854.332,448.729 857.086,447.781 859.841,446.839 862.595,445.903 865.349,444.972 868.104,444.048 870.858,443.129 873.613,442.216 876.367,441.308 879.122,440.406 881.876,439.51 884.631,438.618 887.385,437.733 890.14,436.852 892.894,435.976 895.649,435.106 898.403,434.241 901.157,433.381 903.912,432.526 906.666,431.676 909.421,430.83 912.175,429.99 914.93,429.154 917.684,428.323 920.439,427.497 923.193,426.676 925.948,425.859 928.702,425.046 931.456,424.238 934.211,423.434 936.965,422.635 939.72,421.84 942.474,421.05 945.229,420.264 947.983,419.482 950.738,418.704 953.492,417.93 956.247,417.161 959.001,416.395 961.755,415.634 964.51,414.876 967.264,414.123 970.019,413.373 972.773,412.627 975.528,411.886 978.282,411.147 981.037,410.413 983.791,409.683 986.546,408.956 989.3,408.233 992.054,407.513 994.809,406.797 997.563,406.085 1000.32,405.376 1003.07,404.671 1005.83,403.969 1008.58,403.271 1011.34,402.576 1014.09,401.884 1016.84,401.196 1019.6,400.511 1022.35,399.829 1025.11,399.151 1027.86,398.476 1030.62,397.804 1033.37,397.135 1036.13,396.47 1038.88,395.808 1041.63,395.148 1044.39,394.492 1047.14,393.839 1049.9,393.189 1052.65,392.542 1055.41,391.898 1058.16,391.257 1060.92,390.618 1063.67,389.983 1066.42,389.351 1069.18,388.721 1071.93,388.095 1074.69,387.471 1077.44,386.85 1080.2,386.232 1082.95,385.617 1085.71,385.004 1088.46,384.394 1091.21,383.787 1093.97,383.183 1096.72,382.581 1099.48,381.982 1102.23,381.386 1104.99,380.792 1107.74,380.201 1110.5,379.612 1113.25,379.026 1116.01,378.443 1118.76,377.863 1121.51,377.284 1124.27,376.709 1127.02,376.136 1129.78,375.566 1132.53,374.998 1135.29,374.432 1138.04,373.869 1140.8,373.309 1143.55,372.75 1146.3,372.195 1149.06,371.641 1151.81,371.09 1154.57,370.542 1157.32,369.996 1160.08,369.452 1162.83,368.91 1165.59,368.371 1168.34,367.834 1171.09,367.3 1173.85,366.768 1176.6,366.238 1179.36,365.71 1182.11,365.185 1184.87,364.662 1187.62,364.141 1190.38,363.622 1193.13,363.105 1195.88,362.591 1198.64,362.079 1201.39,361.569 1204.15,361.061 1206.9,360.556 1209.66,360.052 1212.41,359.551 1215.17,359.052 1217.92,358.555 1220.67,358.06 1223.43,357.567 1226.18,357.077 1228.94,356.588 1231.69,356.101 1234.45,355.617 1237.2,355.134 1239.96,354.654 1242.71,354.176 1245.46,353.699 1248.22,353.225 1250.97,352.753 1253.73,352.282 1256.48,351.814 1259.24,351.348 1261.99,350.883 1264.75,350.421 1267.5,349.961 1270.25,349.502 1273.01,349.046 1275.76,348.591 1278.52,348.138 1281.27,347.688 1284.03,347.239 1286.78,346.792 1289.54,346.347 1292.29,345.904 1295.04,345.462 1297.8,345.023 1300.55,344.586 1303.31,344.15 1306.06,343.716 1308.82,343.284 1311.57,342.854 1314.33,342.426 1317.08,342 1319.83,341.575 1322.59,341.153 1325.34,340.732 1328.1,340.313 1330.85,339.895 1333.61,339.48 1336.36,339.066 1339.12,338.654 1341.87,338.244 1344.62,337.836 1347.38,337.429 1350.13,337.025 1352.89,336.622 1355.64,336.22 1358.4,335.821 1361.15,335.423 1363.91,335.027 1366.66,334.633 1369.41,334.241 1372.17,333.85 1374.92,333.461 1377.68,333.074 1380.43,332.688 1383.19,332.304 1385.94,331.922 1388.7,331.542 1391.45,331.163 1394.21,330.786 1396.96,330.411 1399.71,330.037 1402.47,329.665 1405.22,329.295 1407.98,328.926 1410.73,328.56 1413.49,328.194 1416.24,327.831 1419,327.469 1421.75,327.109 1424.5,326.75 1427.26,326.393 1430.01,326.038 1432.77,325.684 1435.52,325.332 1438.28,324.981 1441.03,324.633 1443.79,324.286 1446.54,323.94 1449.29,323.596 1452.05,323.254 1454.8,322.913 1457.56,322.574 1460.31,322.237 1463.07,321.901 1465.82,321.566 1468.58,321.234 1471.33,320.903 1474.08,320.573 1476.84,320.245 1479.59,319.919 1482.35,319.594 1485.1,319.271 1487.86,318.95 1490.61,318.63 1493.37,318.311 1496.12,317.994 1498.87,317.679 1501.63,317.365 1504.38,317.053 1507.14,316.742 1509.89,316.433 1512.65,316.126 1515.4,315.82 1518.16,315.515 1520.91,315.212 1523.66,314.911 1526.42,314.611 1529.17,314.313 1531.93,314.016 1534.68,313.721 1537.44,313.427 1540.19,313.135 1542.95,312.844 1545.7,312.555 1548.45,312.267 1551.21,311.981 1553.96,311.696 1556.72,311.413 1559.47,311.131 1562.23,310.851 1564.98,310.573 1567.74,310.295 1570.49,310.02 1573.24,309.746 1576,309.473 1578.75,309.202 1581.51,308.932 1584.26,308.664 1587.02,308.397 1589.77,308.132 1592.53,307.868 1595.28,307.606 1598.03,307.345 1600.79,307.085 1603.54,306.828 1606.3,306.571 1609.05,306.316 1611.81,306.063 1614.56,305.811 1617.32,305.56 1620.07,305.311 1622.82,305.063 1625.58,304.817 1628.33,304.572 1631.09,304.329 1633.84,304.087 1636.6,303.847 1639.35,303.608 1642.11,303.37 1644.86,303.134 1647.62,302.899 1650.37,302.666 1653.12,302.434 1655.88,302.204 1658.63,301.975 1661.39,301.748 1664.14,301.522 1666.9,301.297 1669.65,301.074 1672.41,300.852 1675.16,300.632 1677.91,300.413 1680.67,300.196 1683.42,299.98 1686.18,299.765 1688.93,299.552 1691.69,299.34 1694.44,299.13 1697.2,298.921 1699.95,298.713 1702.7,298.507 1705.46,298.302 1708.21,298.099 1710.97,297.897 1713.72,297.697 1716.48,297.498 1719.23,297.3 1721.99,297.104 1724.74,296.909 1727.49,296.716 1730.25,296.524 1733,296.333 1735.76,296.144 1738.51,295.956 1741.27,295.769 1744.02,295.584 1746.78,295.401 1749.53,295.218 1752.28,295.037 1755.04,294.858 1757.79,294.68 1760.55,294.503 1763.3,294.328 1766.06,294.154 1768.81,293.981 1771.57,293.81 1774.32,293.64 1777.07,293.472 1779.83,293.305 1782.58,293.139 1785.34,292.975 1788.09,292.812 1790.85,292.65 1793.6,292.49 1796.36,292.331 1799.11,292.174 1801.86,292.018 1804.62,291.863 1807.37,291.71 1810.13,291.558 1812.88,291.407 1815.64,291.258 1818.39,291.11 1821.15,290.964 1823.9,290.819 1826.65,290.675 1829.41,290.533 1832.16,290.392 1834.92,290.252 1837.67,290.114 1840.43,289.977 1843.18,289.841 1845.94,289.707 1848.69,289.574 1851.44,289.442 1854.2,289.312 1856.95,289.183 1859.71,289.056 1862.46,288.93 1865.22,288.805 1867.97,288.682 1870.73,288.559 1873.48,288.439 1876.23,288.319 1878.99,288.201 1881.74,288.085 1884.5,287.969 1887.25,287.855 1890.01,287.743 1892.76,287.631 1895.52,287.521 1898.27,287.413 1901.03,287.306 1903.78,287.2 1906.53,287.095 1909.29,286.992 1912.04,286.89 1914.8,286.789 1917.55,286.69 1920.31,286.592 1923.06,286.495 1925.82,286.4 1928.57,286.306 1931.32,286.214 1934.08,286.122 1936.83,286.032 1939.59,285.944 1942.34,285.857 1945.1,285.771 1947.85,285.686 1950.61,285.603 1953.36,285.521 1956.11,285.44 1958.87,285.361 1961.62,285.283 1964.38,285.206 1967.13,285.131 1969.89,285.057 1972.64,284.984 1975.4,284.913 1978.15,284.843 1980.9,284.774 1983.66,284.707 1986.41,284.641 1989.17,284.576 1991.92,284.513 1994.68,284.45 1997.43,284.39 2000.19,284.33 2002.94,284.272 2005.69,284.215 2008.45,284.16 2011.2,284.105 2013.96,284.052 2016.71,284.001 2019.47,283.951 2022.22,283.902 2024.98,283.854 2027.73,283.808 2030.48,283.763 2033.24,283.719 2035.99,283.677 2038.75,283.636 2041.5,283.596 2044.26,283.557 2047.01,283.52 2049.77,283.484 2052.52,283.45 2055.27,283.417 2058.03,283.385 2060.78,283.354 2063.54,283.325 2066.29,283.297 2069.05,283.27 2071.8,283.245 2074.56,283.221 2077.31,283.198 2080.06,283.176 2082.82,283.156 2085.57,283.137 2088.33,283.12 2091.08,283.104 2093.84,283.089 2096.59,283.075 2099.35,283.063 2102.1,283.052 2104.85,283.042 2107.61,283.034 2110.36,283.027 2113.12,283.021 2115.87,283.016 2118.63,283.013 2121.38,283.011 2124.14,283.01 2126.89,283.011 2129.64,283.013 2132.4,283.016 2135.15,283.021 2137.91,283.027 2140.66,283.034 2143.42,283.043 2146.17,283.052 2148.93,283.063 2151.68,283.076 2154.44,283.089 2157.19,283.104 2159.94,283.121 2162.7,283.138 2165.45,283.157 2168.21,283.177 2170.96,283.199 2173.72,283.221 2176.47,283.245 2179.23,283.271 2181.98,283.297 2184.73,283.325 2187.49,283.354 2190.24,283.385 2193,283.417 2195.75,283.45 2198.51,283.484 2201.26,283.52 2204.02,283.556 2206.77,283.595 2209.52,283.634 2212.28,283.675 2215.03,283.717 2217.79,283.76 2220.54,283.805 2223.3,283.851 2226.05,283.898 2228.81,283.947 2231.56,283.997 2234.31,284.048 2237.07,284.1 2239.82,284.154 2242.58,284.209 2245.33,284.265 2248.09,284.322 2250.84,284.381 2253.6,284.441 2256.35,284.503 2259.1,284.565 2261.86,284.629 2264.61,284.695 2267.37,284.761 2270.12,284.829 2272.88,284.898 2275.63,284.968 2278.39,285.04 2281.14,285.113 2283.89,285.187 2286.65,285.263 2289.4,285.339 2292.16,285.417 2294.91,285.497 2297.67,285.577 2300.42,285.659 2303.18,285.743 2305.93,285.827 2308.68,285.913 2311.44,286 2314.19,286.088 2316.95,286.178 2319.7,286.269 2322.46,286.361 2325.21,286.454 2327.97,286.549 2330.72,286.645 2333.47,286.742 2336.23,286.841 2338.98,286.94 2341.74,287.042 2344.49,287.144 2347.25,287.248 2350,287.352 2352.76,287.459 "/>
<polyline clip-path="url(#clip922)" style="stroke:#e26f46; stroke-linecap:round; stroke-linejoin:round; stroke-width:12; stroke-opacity:1; fill:none" points="149.191,735.212 151.945,694.555 154.7,655.361 157.454,617.721 160.209,581.721 162.963,547.433 165.718,514.923 168.472,484.24 171.227,455.426 173.981,428.507 176.735,403.496 179.49,380.395 182.244,359.188 184.999,339.851 187.753,322.341 190.508,306.604 193.262,292.576 196.017,280.183 198.771,269.341 201.526,259.958 204.28,251.931 207.034,245.15 209.789,239.507 212.543,234.88 215.298,231.15 218.052,228.202 220.807,225.925 223.561,224.215 226.316,222.973 229.07,222.104 231.825,221.519 234.579,221.141 237.333,220.914 240.088,220.794 242.842,220.744 245.597,220.732 248.351,220.737 251.106,220.745 253.86,220.747 256.615,220.747 259.369,220.751 262.124,220.776 264.878,220.834 267.632,220.932 270.387,221.087 273.141,221.312 275.896,221.618 278.65,222.016 281.405,222.516 284.159,223.124 286.914,223.849 289.668,224.694 292.423,225.664 295.177,226.761 297.932,227.986 300.686,229.344 303.44,230.83 306.195,232.442 308.949,234.175 311.704,236.025 314.458,237.988 317.213,240.06 319.967,242.237 322.722,244.515 325.476,246.888 328.231,249.354 330.985,251.907 333.739,254.542 336.494,257.256 339.248,260.043 342.003,262.898 344.757,265.817 347.512,268.794 350.266,271.825 353.021,274.905 355.775,278.028 358.53,281.192 361.284,284.394 364.038,287.63 366.793,290.896 369.547,294.19 372.302,297.509 375.056,300.849 377.811,304.208 380.565,307.583 383.32,310.972 386.074,314.372 388.829,317.78 391.583,321.196 394.337,324.616 397.092,328.038 399.846,331.461 402.601,334.884 405.355,338.304 408.11,341.72 410.864,345.131 413.619,348.535 416.373,351.932 419.128,355.32 421.882,358.698 424.636,362.064 427.391,365.418 430.145,368.759 432.9,372.087 435.654,375.4 438.409,378.697 441.163,381.979 443.918,385.244 446.672,388.491 449.427,391.721 452.181,394.932 454.936,398.124 457.69,401.297 460.444,404.449 463.199,407.581 465.953,410.692 468.708,413.781 471.462,416.849 474.217,419.895 476.971,422.918 479.726,425.919 482.48,428.897 485.235,431.851 487.989,434.783 490.743,437.691 493.498,440.576 496.252,443.437 499.007,446.275 501.761,449.089 504.516,451.878 507.27,454.643 510.025,457.384 512.779,460.101 515.534,462.793 518.288,465.461 521.042,468.105 523.797,470.724 526.551,473.319 529.306,475.889 532.06,478.434 534.815,480.956 537.569,483.452 540.324,485.924 543.078,488.372 545.833,490.795 548.587,493.194 551.341,495.569 554.096,497.919 556.85,500.245 559.605,502.547 562.359,504.825 565.114,507.079 567.868,509.308 570.623,511.514 573.377,513.696 576.132,515.855 578.886,517.989 581.641,520.101 584.395,522.189 587.149,524.254 589.904,526.296 592.658,528.315 595.413,530.311 598.167,532.284 600.922,534.235 603.676,536.163 606.431,538.069 609.185,539.953 611.94,541.814 614.694,543.654 617.448,545.472 620.203,547.269 622.957,549.045 625.712,550.799 628.466,552.532 631.221,554.244 633.975,555.936 636.73,557.607 639.484,559.258 642.239,560.888 644.993,562.499 647.747,564.09 650.502,565.661 653.256,567.213 656.011,568.745 658.765,570.258 661.52,571.753 664.274,573.228 667.029,574.685 669.783,576.124 672.538,577.544 675.292,578.946 678.046,580.331 680.801,581.697 683.555,583.047 686.31,584.379 689.064,585.693 691.819,586.991 694.573,588.272 697.328,589.537 700.082,590.785 702.837,592.016 705.591,593.232 708.345,594.432 711.1,595.617 713.854,596.786 716.609,597.94 719.363,599.078 722.118,600.202 724.872,601.312 727.627,602.407 730.381,603.487 733.136,604.554 735.89,605.606 738.645,606.645 741.399,607.671 744.153,608.683 746.908,609.682 749.662,610.667 752.417,611.64 755.171,612.601 757.926,613.549 760.68,614.484 763.435,615.407 766.189,616.319 768.944,617.219 771.698,618.107 774.452,618.983 777.207,619.848 779.961,620.703 782.716,621.546 785.47,622.378 788.225,623.2 790.979,624.011 793.734,624.812 796.488,625.603 799.243,626.383 801.997,627.154 804.751,627.915 807.506,628.667 810.26,629.409 813.015,630.142 815.769,630.866 818.524,631.58 821.278,632.286 824.033,632.983 826.787,633.672 829.542,634.352 832.296,635.023 835.05,635.687 837.805,636.342 840.559,636.99 843.314,637.629 846.068,638.261 848.823,638.886 851.577,639.503 854.332,640.112 857.086,640.715 859.841,641.31 862.595,641.899 865.349,642.48 868.104,643.055 870.858,643.623 873.613,644.184 876.367,644.74 879.122,645.288 881.876,645.831 884.631,646.367 887.385,646.898 890.14,647.422 892.894,647.941 895.649,648.454 898.403,648.961 901.157,649.463 903.912,649.959 906.666,650.45 909.421,650.936 912.175,651.416 914.93,651.891 917.684,652.362 920.439,652.827 923.193,653.287 925.948,653.743 928.702,654.194 931.456,654.641 934.211,655.083 936.965,655.52 939.72,655.953 942.474,656.382 945.229,656.807 947.983,657.227 950.738,657.643 953.492,658.055 956.247,658.463 959.001,658.867 961.755,659.267 964.51,659.664 967.264,660.056 970.019,660.445 972.773,660.83 975.528,661.212 978.282,661.59 981.037,661.964 983.791,662.336 986.546,662.703 989.3,663.068 992.054,663.429 994.809,663.787 997.563,664.142 1000.32,664.494 1003.07,664.842 1005.83,665.188 1008.58,665.531 1011.34,665.87 1014.09,666.207 1016.84,666.541 1019.6,666.873 1022.35,667.201 1025.11,667.527 1027.86,667.851 1030.62,668.172 1033.37,668.49 1036.13,668.805 1038.88,669.119 1041.63,669.429 1044.39,669.738 1047.14,670.044 1049.9,670.348 1052.65,670.649 1055.41,670.948 1058.16,671.245 1060.92,671.54 1063.67,671.833 1066.42,672.124 1069.18,672.412 1071.93,672.699 1074.69,672.983 1077.44,673.266 1080.2,673.547 1082.95,673.825 1085.71,674.102 1088.46,674.377 1091.21,674.65 1093.97,674.922 1096.72,675.191 1099.48,675.459 1102.23,675.725 1104.99,675.989 1107.74,676.252 1110.5,676.513 1113.25,676.773 1116.01,677.03 1118.76,677.286 1121.51,677.541 1124.27,677.794 1127.02,678.045 1129.78,678.295 1132.53,678.544 1135.29,678.79 1138.04,679.036 1140.8,679.28 1143.55,679.523 1146.3,679.764 1149.06,680.004 1151.81,680.243 1154.57,680.48 1157.32,680.716 1160.08,680.951 1162.83,681.184 1165.59,681.416 1168.34,681.647 1171.09,681.877 1173.85,682.106 1176.6,682.333 1179.36,682.559 1182.11,682.784 1184.87,683.008 1187.62,683.231 1190.38,683.453 1193.13,683.673 1195.88,683.893 1198.64,684.111 1201.39,684.328 1204.15,684.545 1206.9,684.76 1209.66,684.974 1212.41,685.187 1215.17,685.4 1217.92,685.611 1220.67,685.821 1223.43,686.031 1226.18,686.239 1228.94,686.447 1231.69,686.654 1234.45,686.859 1237.2,687.064 1239.96,687.268 1242.71,687.471 1245.46,687.674 1248.22,687.875 1250.97,688.076 1253.73,688.276 1256.48,688.475 1259.24,688.673 1261.99,688.87 1264.75,689.067 1267.5,689.263 1270.25,689.458 1273.01,689.652 1275.76,689.846 1278.52,690.039 1281.27,690.231 1284.03,690.423 1286.78,690.614 1289.54,690.804 1292.29,690.993 1295.04,691.182 1297.8,691.37 1300.55,691.558 1303.31,691.745 1306.06,691.931 1308.82,692.117 1311.57,692.302 1314.33,692.486 1317.08,692.67 1319.83,692.853 1322.59,693.036 1325.34,693.218 1328.1,693.399 1330.85,693.58 1333.61,693.76 1336.36,693.94 1339.12,694.119 1341.87,694.298 1344.62,694.476 1347.38,694.654 1350.13,694.831 1352.89,695.008 1355.64,695.184 1358.4,695.359 1361.15,695.534 1363.91,695.709 1366.66,695.883 1369.41,696.056 1372.17,696.229 1374.92,696.402 1377.68,696.574 1380.43,696.746 1383.19,696.917 1385.94,697.088 1388.7,697.258 1391.45,697.428 1394.21,697.597 1396.96,697.766 1399.71,697.935 1402.47,698.103 1405.22,698.271 1407.98,698.438 1410.73,698.605 1413.49,698.772 1416.24,698.938 1419,699.104 1421.75,699.269 1424.5,699.434 1427.26,699.599 1430.01,699.763 1432.77,699.927 1435.52,700.09 1438.28,700.253 1441.03,700.416 1443.79,700.578 1446.54,700.74 1449.29,700.902 1452.05,701.063 1454.8,701.224 1457.56,701.385 1460.31,701.545 1463.07,701.705 1465.82,701.865 1468.58,702.024 1471.33,702.183 1474.08,702.342 1476.84,702.5 1479.59,702.658 1482.35,702.816 1485.1,702.973 1487.86,703.13 1490.61,703.287 1493.37,703.444 1496.12,703.6 1498.87,703.756 1501.63,703.911 1504.38,704.067 1507.14,704.222 1509.89,704.377 1512.65,704.531 1515.4,704.685 1518.16,704.839 1520.91,704.993 1523.66,705.147 1526.42,705.3 1529.17,705.453 1531.93,705.606 1534.68,705.758 1537.44,705.91 1540.19,706.062 1542.95,706.214 1545.7,706.365 1548.45,706.517 1551.21,706.668 1553.96,706.818 1556.72,706.969 1559.47,707.119 1562.23,707.269 1564.98,707.419 1567.74,707.569 1570.49,707.718 1573.24,707.868 1576,708.017 1578.75,708.165 1581.51,708.314 1584.26,708.462 1587.02,708.61 1589.77,708.758 1592.53,708.906 1595.28,709.054 1598.03,709.201 1600.79,709.348 1603.54,709.495 1606.3,709.642 1609.05,709.789 1611.81,709.935 1614.56,710.081 1617.32,710.227 1620.07,710.373 1622.82,710.519 1625.58,710.665 1628.33,710.81 1631.09,710.955 1633.84,711.1 1636.6,711.245 1639.35,711.39 1642.11,711.534 1644.86,711.679 1647.62,711.823 1650.37,711.967 1653.12,712.111 1655.88,712.254 1658.63,712.398 1661.39,712.541 1664.14,712.684 1666.9,712.827 1669.65,712.97 1672.41,713.113 1675.16,713.256 1677.91,713.398 1680.67,713.54 1683.42,713.683 1686.18,713.825 1688.93,713.967 1691.69,714.108 1694.44,714.25 1697.2,714.391 1699.95,714.533 1702.7,714.674 1705.46,714.815 1708.21,714.956 1710.97,715.096 1713.72,715.237 1716.48,715.378 1719.23,715.518 1721.99,715.658 1724.74,715.798 1727.49,715.938 1730.25,716.078 1733,716.218 1735.76,716.358 1738.51,716.497 1741.27,716.637 1744.02,716.776 1746.78,716.915 1749.53,717.054 1752.28,717.193 1755.04,717.332 1757.79,717.47 1760.55,717.609 1763.3,717.748 1766.06,717.886 1768.81,718.024 1771.57,718.162 1774.32,718.3 1777.07,718.438 1779.83,718.576 1782.58,718.714 1785.34,718.851 1788.09,718.989 1790.85,719.126 1793.6,719.264 1796.36,719.401 1799.11,719.538 1801.86,719.675 1804.62,719.812 1807.37,719.949 1810.13,720.086 1812.88,720.222 1815.64,720.359 1818.39,720.495 1821.15,720.631 1823.9,720.768 1826.65,720.904 1829.41,721.04 1832.16,721.176 1834.92,721.312 1837.67,721.448 1840.43,721.583 1843.18,721.719 1845.94,721.855 1848.69,721.99 1851.44,722.125 1854.2,722.261 1856.95,722.396 1859.71,722.531 1862.46,722.666 1865.22,722.801 1867.97,722.936 1870.73,723.071 1873.48,723.206 1876.23,723.34 1878.99,723.475 1881.74,723.609 1884.5,723.744 1887.25,723.878 1890.01,724.012 1892.76,724.147 1895.52,724.281 1898.27,724.415 1901.03,724.549 1903.78,724.683 1906.53,724.817 1909.29,724.95 1912.04,725.084 1914.8,725.218 1917.55,725.351 1920.31,725.485 1923.06,725.618 1925.82,725.752 1928.57,725.885 1931.32,726.018 1934.08,726.152 1936.83,726.285 1939.59,726.418 1942.34,726.551 1945.1,726.684 1947.85,726.817 1950.61,726.949 1953.36,727.082 1956.11,727.215 1958.87,727.348 1961.62,727.48 1964.38,727.613 1967.13,727.745 1969.89,727.878 1972.64,728.01 1975.4,728.142 1978.15,728.275 1980.9,728.407 1983.66,728.539 1986.41,728.671 1989.17,728.803 1991.92,728.935 1994.68,729.067 1997.43,729.199 2000.19,729.331 2002.94,729.462 2005.69,729.594 2008.45,729.726 2011.2,729.857 2013.96,729.989 2016.71,730.121 2019.47,730.252 2022.22,730.383 2024.98,730.515 2027.73,730.646 2030.48,730.778 2033.24,730.909 2035.99,731.04 2038.75,731.171 2041.5,731.302 2044.26,731.433 2047.01,731.564 2049.77,731.695 2052.52,731.826 2055.27,731.957 2058.03,732.088 2060.78,732.219 2063.54,732.35 2066.29,732.48 2069.05,732.611 2071.8,732.742 2074.56,732.872 2077.31,733.003 2080.06,733.133 2082.82,733.264 2085.57,733.394 2088.33,733.525 2091.08,733.655 2093.84,733.785 2096.59,733.915 2099.35,734.046 2102.1,734.176 2104.85,734.306 2107.61,734.436 2110.36,734.566 2113.12,734.696 2115.87,734.826 2118.63,734.956 2121.38,735.086 2124.14,735.216 2126.89,735.346 2129.64,735.476 2132.4,735.606 2135.15,735.735 2137.91,735.865 2140.66,735.995 2143.42,736.124 2146.17,736.254 2148.93,736.384 2151.68,736.513 2154.44,736.643 2157.19,736.772 2159.94,736.902 2162.7,737.031 2165.45,737.16 2168.21,737.29 2170.96,737.419 2173.72,737.548 2176.47,737.678 2179.23,737.807 2181.98,737.936 2184.73,738.065 2187.49,738.194 2190.24,738.324 2193,738.453 2195.75,738.582 2198.51,738.711 2201.26,738.84 2204.02,738.969 2206.77,739.098 2209.52,739.227 2212.28,739.355 2215.03,739.484 2217.79,739.613 2220.54,739.742 2223.3,739.871 2226.05,740 2228.81,740.128 2231.56,740.257 2234.31,740.386 2237.07,740.514 2239.82,740.643 2242.58,740.772 2245.33,740.9 2248.09,741.029 2250.84,741.157 2253.6,741.286 2256.35,741.414 2259.1,741.543 2261.86,741.671 2264.61,741.799 2267.37,741.928 2270.12,742.056 2272.88,742.185 2275.63,742.313 2278.39,742.441 2281.14,742.569 2283.89,742.698 2286.65,742.826 2289.4,742.954 2292.16,743.082 2294.91,743.21 2297.67,743.339 2300.42,743.467 2303.18,743.595 2305.93,743.723 2308.68,743.851 2311.44,743.979 2314.19,744.107 2316.95,744.235 2319.7,744.363 2322.46,744.491 2325.21,744.619 2327.97,744.747 2330.72,744.874 2333.47,745.002 2336.23,745.13 2338.98,745.258 2341.74,745.386 2344.49,745.514 2347.25,745.641 2350,745.769 2352.76,745.897 "/>
<polyline clip-path="url(#clip922)" style="stroke:#3da44d; stroke-linecap:round; stroke-linejoin:round; stroke-width:12; stroke-opacity:1; fill:none" points="149.191,356.372 151.945,360.739 154.7,365.52 157.454,370.718 160.209,376.338 162.963,382.382 165.718,388.853 168.472,395.749 171.227,403.07 173.981,410.813 176.735,418.975 179.49,427.548 182.244,436.529 184.999,445.908 187.753,455.677 190.508,465.827 193.262,476.347 196.017,487.225 198.771,498.446 201.526,509.995 204.28,521.852 207.034,533.993 209.789,546.393 212.543,559.019 215.298,571.834 218.052,584.799 220.807,597.868 223.561,610.992 226.316,624.119 229.07,637.195 231.825,650.167 234.579,662.981 237.333,675.584 240.088,687.93 242.842,699.975 245.597,711.678 248.351,723.008 251.106,733.937 253.86,744.443 256.615,754.511 259.369,764.129 262.124,773.293 264.878,782.001 267.632,790.257 270.387,798.067 273.141,805.44 275.896,812.388 278.65,818.923 281.405,825.06 284.159,830.816 286.914,836.206 289.668,841.247 292.423,845.957 295.177,850.352 297.932,854.449 300.686,858.264 303.44,861.815 306.195,865.115 308.949,868.181 311.704,871.026 314.458,873.665 317.213,876.109 319.967,878.372 322.722,880.465 325.476,882.399 328.231,884.185 330.985,885.831 333.739,887.347 336.494,888.742 339.248,890.024 342.003,891.199 344.757,892.275 347.512,893.258 350.266,894.155 353.021,894.97 355.775,895.71 358.53,896.378 361.284,896.98 364.038,897.519 366.793,898 369.547,898.426 372.302,898.8 375.056,899.126 377.811,899.407 380.565,899.645 383.32,899.844 386.074,900.004 388.829,900.129 391.583,900.221 394.337,900.281 397.092,900.312 399.846,900.314 402.601,900.291 405.355,900.242 408.11,900.17 410.864,900.076 413.619,899.96 416.373,899.825 419.128,899.671 421.882,899.499 424.636,899.311 427.391,899.106 430.145,898.886 432.9,898.652 435.654,898.404 438.409,898.143 441.163,897.869 443.918,897.584 446.672,897.288 449.427,896.981 452.181,896.664 454.936,896.337 457.69,896.001 460.444,895.656 463.199,895.303 465.953,894.941 468.708,894.572 471.462,894.196 474.217,893.812 476.971,893.422 479.726,893.025 482.48,892.622 485.235,892.213 487.989,891.799 490.743,891.379 493.498,890.954 496.252,890.524 499.007,890.088 501.761,889.649 504.516,889.205 507.27,888.756 510.025,888.303 512.779,887.847 515.534,887.386 518.288,886.922 521.042,886.454 523.797,885.983 526.551,885.509 529.306,885.031 532.06,884.551 534.815,884.067 537.569,883.581 540.324,883.092 543.078,882.6 545.833,882.106 548.587,881.61 551.341,881.111 554.096,880.61 556.85,880.106 559.605,879.601 562.359,879.094 565.114,878.585 567.868,878.074 570.623,877.561 573.377,877.047 576.132,876.531 578.886,876.014 581.641,875.496 584.395,874.976 587.149,874.455 589.904,873.932 592.658,873.409 595.413,872.885 598.167,872.36 600.922,871.833 603.676,871.307 606.431,870.779 609.185,870.251 611.94,869.722 614.694,869.192 617.448,868.663 620.203,868.133 622.957,867.602 625.712,867.072 628.466,866.541 631.221,866.01 633.975,865.479 636.73,864.948 639.484,864.417 642.239,863.887 644.993,863.357 647.747,862.827 650.502,862.297 653.256,861.768 656.011,861.239 658.765,860.711 661.52,860.184 664.274,859.657 667.029,859.131 669.783,858.606 672.538,858.082 675.292,857.559 678.046,857.037 680.801,856.516 683.555,855.996 686.31,855.477 689.064,854.96 691.819,854.444 694.573,853.929 697.328,853.416 700.082,852.904 702.837,852.394 705.591,851.885 708.345,851.378 711.1,850.873 713.854,850.369 716.609,849.868 719.363,849.368 722.118,848.87 724.872,848.374 727.627,847.88 730.381,847.388 733.136,846.898 735.89,846.41 738.645,845.925 741.399,845.442 744.153,844.961 746.908,844.482 749.662,844.006 752.417,843.532 755.171,843.06 757.926,842.591 760.68,842.125 763.435,841.661 766.189,841.199 768.944,840.74 771.698,840.284 774.452,839.83 777.207,839.379 779.961,838.931 782.716,838.486 785.47,838.043 788.225,837.603 790.979,837.166 793.734,836.731 796.488,836.3 799.243,835.871 801.997,835.445 804.751,835.022 807.506,834.602 810.26,834.185 813.015,833.771 815.769,833.36 818.524,832.952 821.278,832.546 824.033,832.144 826.787,831.745 829.542,831.349 832.296,830.955 835.05,830.565 837.805,830.178 840.559,829.793 843.314,829.412 846.068,829.034 848.823,828.659 851.577,828.287 854.332,827.917 857.086,827.551 859.841,827.188 862.595,826.828 865.349,826.471 868.104,826.117 870.858,825.766 873.613,825.418 876.367,825.073 879.122,824.731 881.876,824.391 884.631,824.055 887.385,823.722 890.14,823.392 892.894,823.065 895.649,822.74 898.403,822.419 901.157,822.1 903.912,821.785 906.666,821.472 909.421,821.162 912.175,820.855 914.93,820.551 917.684,820.249 920.439,819.951 923.193,819.655 925.948,819.362 928.702,819.072 931.456,818.784 934.211,818.5 936.965,818.218 939.72,817.939 942.474,817.662 945.229,817.388 947.983,817.117 950.738,816.848 953.492,816.582 956.247,816.319 959.001,816.058 961.755,815.8 964.51,815.544 967.264,815.291 970.019,815.04 972.773,814.792 975.528,814.546 978.282,814.303 981.037,814.062 983.791,813.824 986.546,813.588 989.3,813.354 992.054,813.123 994.809,812.894 997.563,812.668 1000.32,812.443 1003.07,812.221 1005.83,812.001 1008.58,811.784 1011.34,811.569 1014.09,811.355 1016.84,811.145 1019.6,810.936 1022.35,810.729 1025.11,810.525 1027.86,810.322 1030.62,810.122 1033.37,809.923 1036.13,809.727 1038.88,809.533 1041.63,809.341 1044.39,809.151 1047.14,808.962 1049.9,808.776 1052.65,808.592 1055.41,808.409 1058.16,808.229 1060.92,808.05 1063.67,807.873 1066.42,807.698 1069.18,807.525 1071.93,807.354 1074.69,807.184 1077.44,807.016 1080.2,806.85 1082.95,806.686 1085.71,806.523 1088.46,806.362 1091.21,806.203 1093.97,806.045 1096.72,805.889 1099.48,805.735 1102.23,805.582 1104.99,805.431 1107.74,805.282 1110.5,805.134 1113.25,804.987 1116.01,804.842 1118.76,804.699 1121.51,804.557 1124.27,804.416 1127.02,804.277 1129.78,804.14 1132.53,804.004 1135.29,803.869 1138.04,803.736 1140.8,803.604 1143.55,803.473 1146.3,803.344 1149.06,803.216 1151.81,803.09 1154.57,802.965 1157.32,802.841 1160.08,802.718 1162.83,802.597 1165.59,802.477 1168.34,802.358 1171.09,802.241 1173.85,802.124 1176.6,802.009 1179.36,801.895 1182.11,801.782 1184.87,801.671 1187.62,801.56 1190.38,801.451 1193.13,801.343 1195.88,801.236 1198.64,801.13 1201.39,801.025 1204.15,800.921 1206.9,800.818 1209.66,800.717 1212.41,800.616 1215.17,800.516 1217.92,800.418 1220.67,800.32 1223.43,800.224 1226.18,800.128 1228.94,800.033 1231.69,799.94 1234.45,799.847 1237.2,799.755 1239.96,799.665 1242.71,799.575 1245.46,799.486 1248.22,799.398 1250.97,799.311 1253.73,799.224 1256.48,799.139 1259.24,799.055 1261.99,798.971 1264.75,798.888 1267.5,798.806 1270.25,798.725 1273.01,798.645 1275.76,798.565 1278.52,798.487 1281.27,798.409 1284.03,798.332 1286.78,798.255 1289.54,798.18 1292.29,798.105 1295.04,798.031 1297.8,797.957 1300.55,797.885 1303.31,797.813 1306.06,797.742 1308.82,797.671 1311.57,797.602 1314.33,797.533 1317.08,797.464 1319.83,797.397 1322.59,797.33 1325.34,797.263 1328.1,797.198 1330.85,797.133 1333.61,797.068 1336.36,797.005 1339.12,796.941 1341.87,796.879 1344.62,796.817 1347.38,796.756 1350.13,796.695 1352.89,796.635 1355.64,796.576 1358.4,796.517 1361.15,796.459 1363.91,796.401 1366.66,796.344 1369.41,796.287 1372.17,796.231 1374.92,796.176 1377.68,796.121 1380.43,796.066 1383.19,796.013 1385.94,795.959 1388.7,795.906 1391.45,795.854 1394.21,795.802 1396.96,795.751 1399.71,795.7 1402.47,795.65 1405.22,795.6 1407.98,795.551 1410.73,795.502 1413.49,795.453 1416.24,795.406 1419,795.358 1421.75,795.311 1424.5,795.264 1427.26,795.218 1430.01,795.173 1432.77,795.128 1435.52,795.083 1438.28,795.038 1441.03,794.994 1443.79,794.951 1446.54,794.908 1449.29,794.865 1452.05,794.823 1454.8,794.781 1457.56,794.74 1460.31,794.698 1463.07,794.658 1465.82,794.617 1468.58,794.577 1471.33,794.538 1474.08,794.499 1476.84,794.46 1479.59,794.422 1482.35,794.383 1485.1,794.346 1487.86,794.308 1490.61,794.271 1493.37,794.235 1496.12,794.198 1498.87,794.162 1501.63,794.127 1504.38,794.091 1507.14,794.057 1509.89,794.022 1512.65,793.988 1515.4,793.954 1518.16,793.92 1520.91,793.887 1523.66,793.853 1526.42,793.821 1529.17,793.788 1531.93,793.756 1534.68,793.724 1537.44,793.693 1540.19,793.661 1542.95,793.631 1545.7,793.6 1548.45,793.569 1551.21,793.539 1553.96,793.509 1556.72,793.48 1559.47,793.451 1562.23,793.422 1564.98,793.393 1567.74,793.364 1570.49,793.336 1573.24,793.308 1576,793.28 1578.75,793.253 1581.51,793.226 1584.26,793.199 1587.02,793.172 1589.77,793.146 1592.53,793.119 1595.28,793.093 1598.03,793.068 1600.79,793.042 1603.54,793.017 1606.3,792.992 1609.05,792.967 1611.81,792.942 1614.56,792.918 1617.32,792.894 1620.07,792.87 1622.82,792.846 1625.58,792.823 1628.33,792.799 1631.09,792.776 1633.84,792.753 1636.6,792.731 1639.35,792.708 1642.11,792.686 1644.86,792.664 1647.62,792.642 1650.37,792.62 1653.12,792.599 1655.88,792.577 1658.63,792.556 1661.39,792.535 1664.14,792.515 1666.9,792.494 1669.65,792.474 1672.41,792.454 1675.16,792.434 1677.91,792.414 1680.67,792.394 1683.42,792.375 1686.18,792.355 1688.93,792.336 1691.69,792.317 1694.44,792.298 1697.2,792.28 1699.95,792.261 1702.7,792.243 1705.46,792.225 1708.21,792.207 1710.97,792.189 1713.72,792.171 1716.48,792.154 1719.23,792.137 1721.99,792.119 1724.74,792.102 1727.49,792.085 1730.25,792.069 1733,792.052 1735.76,792.036 1738.51,792.019 1741.27,792.003 1744.02,791.987 1746.78,791.971 1749.53,791.955 1752.28,791.94 1755.04,791.924 1757.79,791.909 1760.55,791.894 1763.3,791.879 1766.06,791.864 1768.81,791.849 1771.57,791.834 1774.32,791.82 1777.07,791.805 1779.83,791.791 1782.58,791.777 1785.34,791.763 1788.09,791.749 1790.85,791.735 1793.6,791.721 1796.36,791.708 1799.11,791.694 1801.86,791.681 1804.62,791.667 1807.37,791.654 1810.13,791.641 1812.88,791.628 1815.64,791.616 1818.39,791.603 1821.15,791.59 1823.9,791.578 1826.65,791.565 1829.41,791.553 1832.16,791.541 1834.92,791.529 1837.67,791.517 1840.43,791.505 1843.18,791.493 1845.94,791.482 1848.69,791.47 1851.44,791.459 1854.2,791.447 1856.95,791.436 1859.71,791.425 1862.46,791.414 1865.22,791.403 1867.97,791.392 1870.73,791.381 1873.48,791.371 1876.23,791.36 1878.99,791.349 1881.74,791.339 1884.5,791.329 1887.25,791.318 1890.01,791.308 1892.76,791.298 1895.52,791.288 1898.27,791.278 1901.03,791.268 1903.78,791.259 1906.53,791.249 1909.29,791.239 1912.04,791.23 1914.8,791.22 1917.55,791.211 1920.31,791.202 1923.06,791.193 1925.82,791.183 1928.57,791.174 1931.32,791.165 1934.08,791.157 1936.83,791.148 1939.59,791.139 1942.34,791.13 1945.1,791.122 1947.85,791.113 1950.61,791.105 1953.36,791.096 1956.11,791.088 1958.87,791.08 1961.62,791.072 1964.38,791.063 1967.13,791.055 1969.89,791.047 1972.64,791.039 1975.4,791.032 1978.15,791.024 1980.9,791.016 1983.66,791.008 1986.41,791.001 1989.17,790.993 1991.92,790.986 1994.68,790.978 1997.43,790.971 2000.19,790.964 2002.94,790.956 2005.69,790.949 2008.45,790.942 2011.2,790.935 2013.96,790.928 2016.71,790.921 2019.47,790.914 2022.22,790.907 2024.98,790.901 2027.73,790.894 2030.48,790.887 2033.24,790.881 2035.99,790.874 2038.75,790.868 2041.5,790.861 2044.26,790.855 2047.01,790.848 2049.77,790.842 2052.52,790.836 2055.27,790.83 2058.03,790.824 2060.78,790.817 2063.54,790.811 2066.29,790.805 2069.05,790.799 2071.8,790.794 2074.56,790.788 2077.31,790.782 2080.06,790.776 2082.82,790.77 2085.57,790.765 2088.33,790.759 2091.08,790.754 2093.84,790.748 2096.59,790.743 2099.35,790.737 2102.1,790.732 2104.85,790.726 2107.61,790.721 2110.36,790.716 2113.12,790.71 2115.87,790.705 2118.63,790.7 2121.38,790.695 2124.14,790.69 2126.89,790.685 2129.64,790.68 2132.4,790.675 2135.15,790.67 2137.91,790.665 2140.66,790.66 2143.42,790.656 2146.17,790.651 2148.93,790.646 2151.68,790.641 2154.44,790.637 2157.19,790.632 2159.94,790.628 2162.7,790.623 2165.45,790.619 2168.21,790.614 2170.96,790.61 2173.72,790.605 2176.47,790.601 2179.23,790.597 2181.98,790.592 2184.73,790.588 2187.49,790.584 2190.24,790.58 2193,790.576 2195.75,790.571 2198.51,790.567 2201.26,790.563 2204.02,790.559 2206.77,790.555 2209.52,790.551 2212.28,790.547 2215.03,790.543 2217.79,790.54 2220.54,790.536 2223.3,790.532 2226.05,790.528 2228.81,790.524 2231.56,790.521 2234.31,790.517 2237.07,790.513 2239.82,790.51 2242.58,790.506 2245.33,790.503 2248.09,790.499 2250.84,790.495 2253.6,790.492 2256.35,790.488 2259.1,790.485 2261.86,790.482 2264.61,790.478 2267.37,790.475 2270.12,790.472 2272.88,790.468 2275.63,790.465 2278.39,790.462 2281.14,790.458 2283.89,790.455 2286.65,790.452 2289.4,790.449 2292.16,790.446 2294.91,790.443 2297.67,790.44 2300.42,790.436 2303.18,790.433 2305.93,790.43 2308.68,790.427 2311.44,790.424 2314.19,790.421 2316.95,790.419 2319.7,790.416 2322.46,790.413 2325.21,790.41 2327.97,790.407 2330.72,790.404 2333.47,790.401 2336.23,790.399 2338.98,790.396 2341.74,790.393 2344.49,790.39 2347.25,790.388 2350,790.385 2352.76,790.382 "/>
<path clip-path="url(#clip920)" d="M1969.85 1377.32 L2279.3 1377.32 L2279.3 1169.96 L1969.85 1169.96  Z" fill="#ffffff" fill-rule="evenodd" fill-opacity="1"/>
<polyline clip-path="url(#clip920)" style="stroke:#000000; stroke-linecap:round; stroke-linejoin:round; stroke-width:4; stroke-opacity:1; fill:none" points="1969.85,1377.32 2279.3,1377.32 2279.3,1169.96 1969.85,1169.96 1969.85,1377.32 "/>
<polyline clip-path="url(#clip920)" style="stroke:#009af9; stroke-linecap:round; stroke-linejoin:round; stroke-width:12; stroke-opacity:1; fill:none" points="1994.33,1221.8 2141.24,1221.8 "/>
<path clip-path="url(#clip920)" d="M2165.72 1228.84 L2165.72 1213.15 L2169.98 1213.15 L2169.98 1228.68 Q2169.98 1232.36 2171.42 1234.21 Q2172.85 1236.04 2175.72 1236.04 Q2179.17 1236.04 2181.16 1233.84 Q2183.18 1231.64 2183.18 1227.85 L2183.18 1213.15 L2187.44 1213.15 L2187.44 1239.08 L2183.18 1239.08 L2183.18 1235.09 Q2181.63 1237.45 2179.57 1238.61 Q2177.53 1239.75 2174.82 1239.75 Q2170.35 1239.75 2168.04 1236.97 Q2165.72 1234.19 2165.72 1228.84 M2176.44 1212.52 L2176.44 1212.52 Z" fill="#000000" fill-rule="nonzero" fill-opacity="1" /><path clip-path="url(#clip920)" d="M2195.82 1203.06 L2205.63 1203.06 L2205.63 1206.37 L2200.07 1206.37 L2200.07 1242.02 L2205.63 1242.02 L2205.63 1245.33 L2195.82 1245.33 L2195.82 1203.06 Z" fill="#000000" fill-rule="nonzero" fill-opacity="1" /><path clip-path="url(#clip920)" d="M2216.12 1235.14 L2223.76 1235.14 L2223.76 1208.77 L2215.44 1210.44 L2215.44 1206.18 L2223.71 1204.52 L2228.38 1204.52 L2228.38 1235.14 L2236.02 1235.14 L2236.02 1239.08 L2216.12 1239.08 L2216.12 1235.14 Z" fill="#000000" fill-rule="nonzero" fill-opacity="1" /><path clip-path="url(#clip920)" d="M2254.82 1203.06 L2254.82 1245.33 L2245 1245.33 L2245 1242.02 L2250.54 1242.02 L2250.54 1206.37 L2245 1206.37 L2245 1203.06 L2254.82 1203.06 Z" fill="#000000" fill-rule="nonzero" fill-opacity="1" /><polyline clip-path="url(#clip920)" style="stroke:#e26f46; stroke-linecap:round; stroke-linejoin:round; stroke-width:12; stroke-opacity:1; fill:none" points="1994.33,1273.64 2141.24,1273.64 "/>
<path clip-path="url(#clip920)" d="M2165.72 1280.68 L2165.72 1264.99 L2169.98 1264.99 L2169.98 1280.52 Q2169.98 1284.2 2171.42 1286.05 Q2172.85 1287.88 2175.72 1287.88 Q2179.17 1287.88 2181.16 1285.68 Q2183.18 1283.48 2183.18 1279.69 L2183.18 1264.99 L2187.44 1264.99 L2187.44 1290.92 L2183.18 1290.92 L2183.18 1286.93 Q2181.63 1289.29 2179.57 1290.45 Q2177.53 1291.59 2174.82 1291.59 Q2170.35 1291.59 2168.04 1288.81 Q2165.72 1286.03 2165.72 1280.68 M2176.44 1264.36 L2176.44 1264.36 Z" fill="#000000" fill-rule="nonzero" fill-opacity="1" /><path clip-path="url(#clip920)" d="M2195.82 1254.9 L2205.63 1254.9 L2205.63 1258.21 L2200.07 1258.21 L2200.07 1293.86 L2205.63 1293.86 L2205.63 1297.17 L2195.82 1297.17 L2195.82 1254.9 Z" fill="#000000" fill-rule="nonzero" fill-opacity="1" /><path clip-path="url(#clip920)" d="M2219.33 1286.98 L2235.65 1286.98 L2235.65 1290.92 L2213.71 1290.92 L2213.71 1286.98 Q2216.37 1284.23 2220.95 1279.6 Q2225.56 1274.94 2226.74 1273.6 Q2228.99 1271.08 2229.87 1269.34 Q2230.77 1267.58 2230.77 1265.89 Q2230.77 1263.14 2228.82 1261.4 Q2226.9 1259.67 2223.8 1259.67 Q2221.6 1259.67 2219.15 1260.43 Q2216.72 1261.19 2213.94 1262.74 L2213.94 1258.02 Q2216.76 1256.89 2219.22 1256.31 Q2221.67 1255.73 2223.71 1255.73 Q2229.08 1255.73 2232.27 1258.42 Q2235.47 1261.1 2235.47 1265.59 Q2235.47 1267.72 2234.66 1269.64 Q2233.87 1271.54 2231.76 1274.13 Q2231.19 1274.8 2228.08 1278.02 Q2224.98 1281.22 2219.33 1286.98 Z" fill="#000000" fill-rule="nonzero" fill-opacity="1" /><path clip-path="url(#clip920)" d="M2254.82 1254.9 L2254.82 1297.17 L2245 1297.17 L2245 1293.86 L2250.54 1293.86 L2250.54 1258.21 L2245 1258.21 L2245 1254.9 L2254.82 1254.9 Z" fill="#000000" fill-rule="nonzero" fill-opacity="1" /><polyline clip-path="url(#clip920)" style="stroke:#3da44d; stroke-linecap:round; stroke-linejoin:round; stroke-width:12; stroke-opacity:1; fill:none" points="1994.33,1325.48 2141.24,1325.48 "/>
<path clip-path="url(#clip920)" d="M2165.72 1332.52 L2165.72 1316.83 L2169.98 1316.83 L2169.98 1332.36 Q2169.98 1336.04 2171.42 1337.89 Q2172.85 1339.72 2175.72 1339.72 Q2179.17 1339.72 2181.16 1337.52 Q2183.18 1335.32 2183.18 1331.53 L2183.18 1316.83 L2187.44 1316.83 L2187.44 1342.76 L2183.18 1342.76 L2183.18 1338.77 Q2181.63 1341.13 2179.57 1342.29 Q2177.53 1343.43 2174.82 1343.43 Q2170.35 1343.43 2168.04 1340.65 Q2165.72 1337.87 2165.72 1332.52 M2176.44 1316.2 L2176.44 1316.2 Z" fill="#000000" fill-rule="nonzero" fill-opacity="1" /><path clip-path="url(#clip920)" d="M2206.44 1306.78 Q2203.34 1312.11 2201.83 1317.32 Q2200.33 1322.52 2200.33 1327.87 Q2200.33 1333.22 2201.83 1338.47 Q2203.36 1343.7 2206.44 1349.01 L2202.74 1349.01 Q2199.26 1343.57 2197.53 1338.31 Q2195.82 1333.06 2195.82 1327.87 Q2195.82 1322.71 2197.53 1317.48 Q2199.24 1312.25 2202.74 1306.78 L2206.44 1306.78 Z" fill="#000000" fill-rule="nonzero" fill-opacity="1" /><path clip-path="url(#clip920)" d="M2218.92 1309.47 L2218.92 1316.83 L2227.69 1316.83 L2227.69 1320.14 L2218.92 1320.14 L2218.92 1334.21 Q2218.92 1337.38 2219.77 1338.29 Q2220.65 1339.19 2223.32 1339.19 L2227.69 1339.19 L2227.69 1342.76 L2223.32 1342.76 Q2218.38 1342.76 2216.51 1340.93 Q2214.63 1339.07 2214.63 1334.21 L2214.63 1320.14 L2211.51 1320.14 L2211.51 1316.83 L2214.63 1316.83 L2214.63 1309.47 L2218.92 1309.47 Z" fill="#000000" fill-rule="nonzero" fill-opacity="1" /><path clip-path="url(#clip920)" d="M2232.62 1306.78 L2236.32 1306.78 Q2239.8 1312.25 2241.51 1317.48 Q2243.25 1322.71 2243.25 1327.87 Q2243.25 1333.06 2241.51 1338.31 Q2239.8 1343.57 2236.32 1349.01 L2232.62 1349.01 Q2235.7 1343.7 2237.2 1338.47 Q2238.73 1333.22 2238.73 1327.87 Q2238.73 1322.52 2237.2 1317.32 Q2235.7 1312.11 2232.62 1306.78 Z" fill="#000000" fill-rule="nonzero" fill-opacity="1" /></svg>
