<?xml version="1.0" encoding="utf-8"?>
<svg xmlns="http://www.w3.org/2000/svg" xmlns:xlink="http://www.w3.org/1999/xlink" width="600" height="400" viewBox="0 0 2400 1600">
<defs>
  <clipPath id="clip910">
    <rect x="0" y="0" width="2400" height="1600"/>
  </clipPath>
</defs>
<path clip-path="url(#clip910)" d="M0 1600 L2400 1600 L2400 0 L0 0  Z" fill="#ffffff" fill-rule="evenodd" fill-opacity="1"/>
<defs>
  <clipPath id="clip911">
    <rect x="480" y="0" width="1681" height="1600"/>
  </clipPath>
</defs>
<path clip-path="url(#clip910)" d="M149.191 1423.18 L2352.76 1423.18 L2352.76 47.2441 L149.191 47.2441  Z" fill="#ffffff" fill-rule="evenodd" fill-opacity="1"/>
<defs>
  <clipPath id="clip912">
    <rect x="149" y="47" width="2205" height="1377"/>
  </clipPath>
</defs>
<polyline clip-path="url(#clip912)" style="stroke:#000000; stroke-linecap:round; stroke-linejoin:round; stroke-width:2; stroke-opacity:0.1; fill:none" points="149.191,1423.18 149.191,47.2441 "/>
<polyline clip-path="url(#clip912)" style="stroke:#000000; stroke-linecap:round; stroke-linejoin:round; stroke-width:2; stroke-opacity:0.1; fill:none" points="700.082,1423.18 700.082,47.2441 "/>
<polyline clip-path="url(#clip912)" style="stroke:#000000; stroke-linecap:round; stroke-linejoin:round; stroke-width:2; stroke-opacity:0.1; fill:none" points="1250.97,1423.18 1250.97,47.2441 "/>
<polyline clip-path="url(#clip912)" style="stroke:#000000; stroke-linecap:round; stroke-linejoin:round; stroke-width:2; stroke-opacity:0.1; fill:none" points="1801.86,1423.18 1801.86,47.2441 "/>
<polyline clip-path="url(#clip912)" style="stroke:#000000; stroke-linecap:round; stroke-linejoin:round; stroke-width:2; stroke-opacity:0.1; fill:none" points="2352.76,1423.18 2352.76,47.2441 "/>
<polyline clip-path="url(#clip910)" style="stroke:#000000; stroke-linecap:round; stroke-linejoin:round; stroke-width:4; stroke-opacity:1; fill:none" points="149.191,1423.18 2352.76,1423.18 "/>
<polyline clip-path="url(#clip910)" style="stroke:#000000; stroke-linecap:round; stroke-linejoin:round; stroke-width:4; stroke-opacity:1; fill:none" points="149.191,1423.18 149.191,1404.28 "/>
<polyline clip-path="url(#clip910)" style="stroke:#000000; stroke-linecap:round; stroke-linejoin:round; stroke-width:4; stroke-opacity:1; fill:none" points="700.082,1423.18 700.082,1404.28 "/>
<polyline clip-path="url(#clip910)" style="stroke:#000000; stroke-linecap:round; stroke-linejoin:round; stroke-width:4; stroke-opacity:1; fill:none" points="1250.97,1423.18 1250.97,1404.28 "/>
<polyline clip-path="url(#clip910)" style="stroke:#000000; stroke-linecap:round; stroke-linejoin:round; stroke-width:4; stroke-opacity:1; fill:none" points="1801.86,1423.18 1801.86,1404.28 "/>
<polyline clip-path="url(#clip910)" style="stroke:#000000; stroke-linecap:round; stroke-linejoin:round; stroke-width:4; stroke-opacity:1; fill:none" points="2352.76,1423.18 2352.76,1404.28 "/>
<path clip-path="url(#clip910)" d="M149.191 1454.1 Q145.58 1454.1 143.751 1457.66 Q141.946 1461.2 141.946 1468.33 Q141.946 1475.44 143.751 1479.01 Q145.58 1482.55 149.191 1482.55 Q152.825 1482.55 154.631 1479.01 Q156.459 1475.44 156.459 1468.33 Q156.459 1461.2 154.631 1457.66 Q152.825 1454.1 149.191 1454.1 M149.191 1450.39 Q155.001 1450.39 158.057 1455 Q161.135 1459.58 161.135 1468.33 Q161.135 1477.06 158.057 1481.67 Q155.001 1486.25 149.191 1486.25 Q143.381 1486.25 140.302 1481.67 Q137.246 1477.06 137.246 1468.33 Q137.246 1459.58 140.302 1455 Q143.381 1450.39 149.191 1450.39 Z" fill="#000000" fill-rule="nonzero" fill-opacity="1" /><path clip-path="url(#clip910)" d="M694.735 1481.64 L711.054 1481.64 L711.054 1485.58 L689.11 1485.58 L689.11 1481.64 Q691.772 1478.89 696.355 1474.26 Q700.962 1469.61 702.142 1468.27 Q704.388 1465.74 705.267 1464.01 Q706.17 1462.25 706.17 1460.56 Q706.17 1457.8 704.226 1456.07 Q702.304 1454.33 699.203 1454.33 Q697.003 1454.33 694.55 1455.09 Q692.119 1455.86 689.341 1457.41 L689.341 1452.69 Q692.166 1451.55 694.619 1450.97 Q697.073 1450.39 699.11 1450.39 Q704.48 1450.39 707.675 1453.08 Q710.869 1455.77 710.869 1460.26 Q710.869 1462.39 710.059 1464.31 Q709.272 1466.2 707.165 1468.8 Q706.587 1469.47 703.485 1472.69 Q700.383 1475.88 694.735 1481.64 Z" fill="#000000" fill-rule="nonzero" fill-opacity="1" /><path clip-path="url(#clip910)" d="M1253.98 1455.09 L1242.18 1473.54 L1253.98 1473.54 L1253.98 1455.09 M1252.76 1451.02 L1258.64 1451.02 L1258.64 1473.54 L1263.57 1473.54 L1263.57 1477.43 L1258.64 1477.43 L1258.64 1485.58 L1253.98 1485.58 L1253.98 1477.43 L1238.38 1477.43 L1238.38 1472.92 L1252.76 1451.02 Z" fill="#000000" fill-rule="nonzero" fill-opacity="1" /><path clip-path="url(#clip910)" d="M1802.27 1466.44 Q1799.12 1466.44 1797.27 1468.59 Q1795.44 1470.74 1795.44 1474.49 Q1795.44 1478.22 1797.27 1480.39 Q1799.12 1482.55 1802.27 1482.55 Q1805.42 1482.55 1807.25 1480.39 Q1809.1 1478.22 1809.1 1474.49 Q1809.1 1470.74 1807.25 1468.59 Q1805.42 1466.44 1802.27 1466.44 M1811.55 1451.78 L1811.55 1456.04 Q1809.79 1455.21 1807.99 1454.77 Q1806.2 1454.33 1804.45 1454.33 Q1799.82 1454.33 1797.36 1457.45 Q1794.93 1460.58 1794.58 1466.9 Q1795.95 1464.89 1798.01 1463.82 Q1800.07 1462.73 1802.55 1462.73 Q1807.76 1462.73 1810.77 1465.9 Q1813.8 1469.05 1813.8 1474.49 Q1813.8 1479.82 1810.65 1483.03 Q1807.5 1486.25 1802.27 1486.25 Q1796.27 1486.25 1793.1 1481.67 Q1789.93 1477.06 1789.93 1468.33 Q1789.93 1460.14 1793.82 1455.28 Q1797.71 1450.39 1804.26 1450.39 Q1806.02 1450.39 1807.8 1450.74 Q1809.61 1451.09 1811.55 1451.78 Z" fill="#000000" fill-rule="nonzero" fill-opacity="1" /><path clip-path="url(#clip910)" d="M2352.76 1469.17 Q2349.42 1469.17 2347.5 1470.95 Q2345.6 1472.73 2345.6 1475.86 Q2345.6 1478.98 2347.5 1480.77 Q2349.42 1482.55 2352.76 1482.55 Q2356.09 1482.55 2358.01 1480.77 Q2359.93 1478.96 2359.93 1475.86 Q2359.93 1472.73 2358.01 1470.95 Q2356.11 1469.17 2352.76 1469.17 M2348.08 1467.18 Q2345.07 1466.44 2343.38 1464.38 Q2341.71 1462.32 2341.71 1459.35 Q2341.71 1455.21 2344.65 1452.8 Q2347.62 1450.39 2352.76 1450.39 Q2357.92 1450.39 2360.86 1452.8 Q2363.8 1455.21 2363.8 1459.35 Q2363.8 1462.32 2362.11 1464.38 Q2360.44 1466.44 2357.45 1467.18 Q2360.83 1467.96 2362.71 1470.26 Q2364.61 1472.55 2364.61 1475.86 Q2364.61 1480.88 2361.53 1483.57 Q2358.47 1486.25 2352.76 1486.25 Q2347.04 1486.25 2343.96 1483.57 Q2340.9 1480.88 2340.9 1475.86 Q2340.9 1472.55 2342.8 1470.26 Q2344.7 1467.96 2348.08 1467.18 M2346.37 1459.79 Q2346.37 1462.48 2348.03 1463.98 Q2349.72 1465.49 2352.76 1465.49 Q2355.77 1465.49 2357.45 1463.98 Q2359.17 1462.48 2359.17 1459.79 Q2359.17 1457.11 2357.45 1455.6 Q2355.77 1454.1 2352.76 1454.1 Q2349.72 1454.1 2348.03 1455.6 Q2346.37 1457.11 2346.37 1459.79 Z" fill="#000000" fill-rule="nonzero" fill-opacity="1" /><path clip-path="url(#clip910)" d="M1250.03 1522.27 L1250.03 1532.4 L1262.1 1532.4 L1262.1 1536.95 L1250.03 1536.95 L1250.03 1556.3 Q1250.03 1560.66 1251.21 1561.9 Q1252.42 1563.14 1256.08 1563.14 L1262.1 1563.14 L1262.1 1568.04 L1256.08 1568.04 Q1249.3 1568.04 1246.72 1565.53 Q1244.15 1562.98 1244.15 1556.3 L1244.15 1536.95 L1239.85 1536.95 L1239.85 1532.4 L1244.15 1532.4 L1244.15 1522.27 L1250.03 1522.27 Z" fill="#000000" fill-rule="nonzero" fill-opacity="1" /><polyline clip-path="url(#clip912)" style="stroke:#000000; stroke-linecap:round; stroke-linejoin:round; stroke-width:2; stroke-opacity:0.1; fill:none" points="149.191,1423.18 2352.76,1423.18 "/>
<polyline clip-path="url(#clip912)" style="stroke:#000000; stroke-linecap:round; stroke-linejoin:round; stroke-width:2; stroke-opacity:0.1; fill:none" points="149.191,1193.86 2352.76,1193.86 "/>
<polyline clip-path="url(#clip912)" style="stroke:#000000; stroke-linecap:round; stroke-linejoin:round; stroke-width:2; stroke-opacity:0.1; fill:none" points="149.191,964.535 2352.76,964.535 "/>
<polyline clip-path="url(#clip912)" style="stroke:#000000; stroke-linecap:round; stroke-linejoin:round; stroke-width:2; stroke-opacity:0.1; fill:none" points="149.191,735.212 2352.76,735.212 "/>
<polyline clip-path="url(#clip912)" style="stroke:#000000; stroke-linecap:round; stroke-linejoin:round; stroke-width:2; stroke-opacity:0.1; fill:none" points="149.191,505.889 2352.76,505.889 "/>
<polyline clip-path="url(#clip912)" style="stroke:#000000; stroke-linecap:round; stroke-linejoin:round; stroke-width:2; stroke-opacity:0.1; fill:none" points="149.191,276.567 2352.76,276.567 "/>
<polyline clip-path="url(#clip912)" style="stroke:#000000; stroke-linecap:round; stroke-linejoin:round; stroke-width:2; stroke-opacity:0.1; fill:none" points="149.191,47.2441 2352.76,47.2441 "/>
<polyline clip-path="url(#clip910)" style="stroke:#000000; stroke-linecap:round; stroke-linejoin:round; stroke-width:4; stroke-opacity:1; fill:none" points="149.191,1423.18 149.191,47.2441 "/>
<polyline clip-path="url(#clip910)" style="stroke:#000000; stroke-linecap:round; stroke-linejoin:round; stroke-width:4; stroke-opacity:1; fill:none" points="149.191,1423.18 168.089,1423.18 "/>
<polyline clip-path="url(#clip910)" style="stroke:#000000; stroke-linecap:round; stroke-linejoin:round; stroke-width:4; stroke-opacity:1; fill:none" points="149.191,1193.86 168.089,1193.86 "/>
<polyline clip-path="url(#clip910)" style="stroke:#000000; stroke-linecap:round; stroke-linejoin:round; stroke-width:4; stroke-opacity:1; fill:none" points="149.191,964.535 168.089,964.535 "/>
<polyline clip-path="url(#clip910)" style="stroke:#000000; stroke-linecap:round; stroke-linejoin:round; stroke-width:4; stroke-opacity:1; fill:none" points="149.191,735.212 168.089,735.212 "/>
<polyline clip-path="url(#clip910)" style="stroke:#000000; stroke-linecap:round; stroke-linejoin:round; stroke-width:4; stroke-opacity:1; fill:none" points="149.191,505.889 168.089,505.889 "/>
<polyline clip-path="url(#clip910)" style="stroke:#000000; stroke-linecap:round; stroke-linejoin:round; stroke-width:4; stroke-opacity:1; fill:none" points="149.191,276.567 168.089,276.567 "/>
<polyline clip-path="url(#clip910)" style="stroke:#000000; stroke-linecap:round; stroke-linejoin:round; stroke-width:4; stroke-opacity:1; fill:none" points="149.191,47.2441 168.089,47.2441 "/>
<path clip-path="url(#clip910)" d="M51.3162 1423.63 L80.992 1423.63 L80.992 1427.57 L51.3162 1427.57 L51.3162 1423.63 Z" fill="#000000" fill-rule="nonzero" fill-opacity="1" /><path clip-path="url(#clip910)" d="M101.663 1421.32 Q98.515 1421.32 96.6632 1423.47 Q94.8345 1425.62 94.8345 1429.37 Q94.8345 1433.1 96.6632 1435.27 Q98.515 1437.43 101.663 1437.43 Q104.811 1437.43 106.64 1435.27 Q108.492 1433.1 108.492 1429.37 Q108.492 1425.62 106.64 1423.47 Q104.811 1421.32 101.663 1421.32 M110.946 1406.66 L110.946 1410.92 Q109.186 1410.09 107.381 1409.65 Q105.598 1409.21 103.839 1409.21 Q99.2095 1409.21 96.7558 1412.33 Q94.3252 1415.46 93.978 1421.78 Q95.3437 1419.77 97.4039 1418.7 Q99.4641 1417.61 101.941 1417.61 Q107.149 1417.61 110.158 1420.78 Q113.191 1423.93 113.191 1429.37 Q113.191 1434.7 110.043 1437.91 Q106.895 1441.13 101.663 1441.13 Q95.6678 1441.13 92.4965 1436.55 Q89.3253 1431.94 89.3253 1423.21 Q89.3253 1415.02 93.2141 1410.16 Q97.103 1405.27 103.654 1405.27 Q105.413 1405.27 107.196 1405.62 Q109.001 1405.97 110.946 1406.66 Z" fill="#000000" fill-rule="nonzero" fill-opacity="1" /><path clip-path="url(#clip910)" d="M50.9921 1194.31 L80.6679 1194.31 L80.6679 1198.24 L50.9921 1198.24 L50.9921 1194.31 Z" fill="#000000" fill-rule="nonzero" fill-opacity="1" /><path clip-path="url(#clip910)" d="M103.608 1180.65 L91.8021 1199.1 L103.608 1199.1 L103.608 1180.65 M102.381 1176.58 L108.26 1176.58 L108.26 1199.1 L113.191 1199.1 L113.191 1202.99 L108.26 1202.99 L108.26 1211.14 L103.608 1211.14 L103.608 1202.99 L88.0058 1202.99 L88.0058 1198.48 L102.381 1176.58 Z" fill="#000000" fill-rule="nonzero" fill-opacity="1" /><path clip-path="url(#clip910)" d="M53.0754 964.986 L82.7512 964.986 L82.7512 968.921 L53.0754 968.921 L53.0754 964.986 Z" fill="#000000" fill-rule="nonzero" fill-opacity="1" /><path clip-path="url(#clip910)" d="M96.8715 977.879 L113.191 977.879 L113.191 981.815 L91.2465 981.815 L91.2465 977.879 Q93.9086 975.125 98.4919 970.495 Q103.098 965.842 104.279 964.5 Q106.524 961.977 107.404 960.241 Q108.307 958.481 108.307 956.792 Q108.307 954.037 106.362 952.301 Q104.441 950.565 101.339 950.565 Q99.14 950.565 96.6863 951.329 Q94.2558 952.093 91.478 953.643 L91.478 948.921 Q94.3021 947.787 96.7558 947.208 Q99.2095 946.63 101.246 946.63 Q106.617 946.63 109.811 949.315 Q113.006 952 113.006 956.491 Q113.006 958.62 112.196 960.542 Q111.408 962.44 109.302 965.032 Q108.723 965.704 105.621 968.921 Q102.52 972.116 96.8715 977.879 Z" fill="#000000" fill-rule="nonzero" fill-opacity="1" /><path clip-path="url(#clip910)" d="M101.246 721.011 Q97.6354 721.011 95.8067 724.575 Q94.0012 728.117 94.0012 735.247 Q94.0012 742.353 95.8067 745.918 Q97.6354 749.46 101.246 749.46 Q104.881 749.46 106.686 745.918 Q108.515 742.353 108.515 735.247 Q108.515 728.117 106.686 724.575 Q104.881 721.011 101.246 721.011 M101.246 717.307 Q107.057 717.307 110.112 721.913 Q113.191 726.497 113.191 735.247 Q113.191 743.973 110.112 748.58 Q107.057 753.163 101.246 753.163 Q95.4363 753.163 92.3576 748.58 Q89.3021 743.973 89.3021 735.247 Q89.3021 726.497 92.3576 721.913 Q95.4363 717.307 101.246 717.307 Z" fill="#000000" fill-rule="nonzero" fill-opacity="1" /><path clip-path="url(#clip910)" d="M96.8715 519.234 L113.191 519.234 L113.191 523.169 L91.2465 523.169 L91.2465 519.234 Q93.9086 516.48 98.4919 511.85 Q103.098 507.197 104.279 505.855 Q106.524 503.331 107.404 501.595 Q108.307 499.836 108.307 498.146 Q108.307 495.392 106.362 493.656 Q104.441 491.92 101.339 491.92 Q99.14 491.92 96.6863 492.683 Q94.2558 493.447 91.478 494.998 L91.478 490.276 Q94.3021 489.142 96.7558 488.563 Q99.2095 487.984 101.246 487.984 Q106.617 487.984 109.811 490.67 Q113.006 493.355 113.006 497.845 Q113.006 499.975 112.196 501.896 Q111.408 503.794 109.302 506.387 Q108.723 507.058 105.621 510.276 Q102.52 513.47 96.8715 519.234 Z" fill="#000000" fill-rule="nonzero" fill-opacity="1" /><path clip-path="url(#clip910)" d="M103.608 263.361 L91.8021 281.81 L103.608 281.81 L103.608 263.361 M102.381 259.287 L108.26 259.287 L108.26 281.81 L113.191 281.81 L113.191 285.699 L108.26 285.699 L108.26 293.847 L103.608 293.847 L103.608 285.699 L88.0058 285.699 L88.0058 281.185 L102.381 259.287 Z" fill="#000000" fill-rule="nonzero" fill-opacity="1" /><path clip-path="url(#clip910)" d="M101.663 45.3807 Q98.515 45.3807 96.6632 47.5334 Q94.8345 49.6862 94.8345 53.4362 Q94.8345 57.163 96.6632 59.3389 Q98.515 61.4917 101.663 61.4917 Q104.811 61.4917 106.64 59.3389 Q108.492 57.163 108.492 53.4362 Q108.492 49.6862 106.64 47.5334 Q104.811 45.3807 101.663 45.3807 M110.946 30.728 L110.946 34.9872 Q109.186 34.1539 107.381 33.7141 Q105.598 33.2743 103.839 33.2743 Q99.2095 33.2743 96.7558 36.3992 Q94.3252 39.5242 93.978 45.8436 Q95.3437 43.8298 97.4039 42.765 Q99.4641 41.677 101.941 41.677 Q107.149 41.677 110.158 44.8483 Q113.191 47.9964 113.191 53.4362 Q113.191 58.7602 110.043 61.9778 Q106.895 65.1954 101.663 65.1954 Q95.6678 65.1954 92.4965 60.6121 Q89.3253 56.0056 89.3253 47.2788 Q89.3253 39.0844 93.2141 34.2233 Q97.103 29.3391 103.654 29.3391 Q105.413 29.3391 107.196 29.6863 Q109.001 30.0335 110.946 30.728 Z" fill="#000000" fill-rule="nonzero" fill-opacity="1" /><polyline clip-path="url(#clip912)" style="stroke:#009af9; stroke-linecap:round; stroke-linejoin:round; stroke-width:12; stroke-opacity:1; fill:none" points="149.191,1193.86 151.945,1192.9 154.7,1190.41 157.454,1186.87 160.209,1182.65 162.963,1177.97 165.718,1173.03 168.472,1167.93 171.227,1162.74 173.981,1157.51 176.735,1152.26 179.49,1146.99 182.244,1141.72 184.999,1136.45 187.753,1131.18 190.508,1125.91 193.262,1120.64 196.017,1115.37 198.771,1110.1 201.526,1104.83 204.28,1099.56 207.034,1094.29 209.789,1089.03 212.543,1083.77 215.298,1078.52 218.052,1073.27 220.807,1068.03 223.561,1062.8 226.316,1057.58 229.07,1052.37 231.825,1047.17 234.579,1041.99 237.333,1036.82 240.088,1031.66 242.842,1026.51 245.597,1021.39 248.351,1016.28 251.106,1011.18 253.86,1006.11 256.615,1001.05 259.369,996.012 262.124,990.994 264.878,985.996 267.632,981.019 270.387,976.062 273.141,971.127 275.896,966.213 278.65,961.322 281.405,956.453 284.159,951.606 286.914,946.783 289.668,941.983 292.423,937.206 295.177,932.453 297.932,927.723 300.686,923.018 303.44,918.336 306.195,913.679 308.949,909.047 311.704,904.439 314.458,899.856 317.213,895.297 319.967,890.764 322.722,886.255 325.476,881.772 328.231,877.314 330.985,872.881 333.739,868.474 336.494,864.091 339.248,859.735 342.003,855.404 344.757,851.098 347.512,846.818 350.266,842.564 353.021,838.335 355.775,834.132 358.53,829.954 361.284,825.802 364.038,821.676 366.793,817.576 369.547,813.501 372.302,809.452 375.056,805.428 377.811,801.43 380.565,797.458 383.32,793.512 386.074,789.591 388.829,785.695 391.583,781.826 394.337,777.982 397.092,774.163 399.846,770.37 402.601,766.602 405.355,762.86 408.11,759.143 410.864,755.452 413.619,751.786 416.373,748.145 419.128,744.529 421.882,740.939 424.636,737.373 427.391,733.833 430.145,730.318 432.9,726.827 435.654,723.362 438.409,719.921 441.163,716.505 443.918,713.114 446.672,709.748 449.427,706.406 452.181,703.089 454.936,699.796 457.69,696.527 460.444,693.283 463.199,690.063 465.953,686.867 468.708,683.695 471.462,680.547 474.217,677.423 476.971,674.323 479.726,671.246 482.48,668.193 485.235,665.164 487.989,662.158 490.743,659.176 493.498,656.217 496.252,653.281 499.007,650.368 501.761,647.479 504.516,644.612 507.27,641.768 510.025,638.947 512.779,636.149 515.534,633.373 518.288,630.619 521.042,627.888 523.797,625.179 526.551,622.492 529.306,619.828 532.06,617.185 534.815,614.564 537.569,611.965 540.324,609.388 543.078,606.831 545.833,604.297 548.587,601.784 551.341,599.291 554.096,596.82 556.85,594.37 559.605,591.941 562.359,589.533 565.114,587.145 567.868,584.778 570.623,582.431 573.377,580.104 576.132,577.798 578.886,575.512 581.641,573.245 584.395,570.999 587.149,568.772 589.904,566.565 592.658,564.377 595.413,562.209 598.167,560.06 600.922,557.929 603.676,555.818 606.431,553.726 609.185,551.653 611.94,549.598 614.694,547.562 617.448,545.544 620.203,543.544 622.957,541.563 625.712,539.599 628.466,537.653 631.221,535.726 633.975,533.815 636.73,531.923 639.484,530.047 642.239,528.189 644.993,526.349 647.747,524.525 650.502,522.718 653.256,520.928 656.011,519.154 658.765,517.398 661.52,515.657 664.274,513.933 667.029,512.225 669.783,510.533 672.538,508.857 675.292,507.196 678.046,505.551 680.801,503.922 683.555,502.308 686.31,500.71 689.064,499.126 691.819,497.557 694.573,496.004 697.328,494.465 700.082,492.94 702.837,491.43 705.591,489.935 708.345,488.454 711.1,486.987 713.854,485.534 716.609,484.094 719.363,482.669 722.118,481.257 724.872,479.859 727.627,478.473 730.381,477.102 733.136,475.743 735.89,474.397 738.645,473.065 741.399,471.745 744.153,470.437 746.908,469.142 749.662,467.86 752.417,466.59 755.171,465.332 757.926,464.086 760.68,462.852 763.435,461.629 766.189,460.419 768.944,459.22 771.698,458.033 774.452,456.856 777.207,455.692 779.961,454.538 782.716,453.395 785.47,452.263 788.225,451.142 790.979,450.032 793.734,448.932 796.488,447.843 799.243,446.764 801.997,445.696 804.751,444.637 807.506,443.589 810.26,442.551 813.015,441.522 815.769,440.503 818.524,439.494 821.278,438.494 824.033,437.504 826.787,436.523 829.542,435.551 832.296,434.589 835.05,433.635 837.805,432.69 840.559,431.755 843.314,430.828 846.068,429.909 848.823,428.999 851.577,428.098 854.332,427.204 857.086,426.32 859.841,425.443 862.595,424.574 865.349,423.713 868.104,422.861 870.858,422.015 873.613,421.178 876.367,420.348 879.122,419.526 881.876,418.711 884.631,417.904 887.385,417.103 890.14,416.31 892.894,415.524 895.649,414.745 898.403,413.973 901.157,413.208 903.912,412.449 906.666,411.698 909.421,410.952 912.175,410.214 914.93,409.482 917.684,408.756 920.439,408.036 923.193,407.323 925.948,406.616 928.702,405.915 931.456,405.22 934.211,404.531 936.965,403.848 939.72,403.17 942.474,402.498 945.229,401.832 947.983,401.172 950.738,400.517 953.492,399.867 956.247,399.223 959.001,398.584 961.755,397.951 964.51,397.322 967.264,396.699 970.019,396.08 972.773,395.467 975.528,394.859 978.282,394.255 981.037,393.656 983.791,393.062 986.546,392.473 989.3,391.888 992.054,391.308 994.809,390.733 997.563,390.161 1000.32,389.594 1003.07,389.032 1005.83,388.474 1008.58,387.92 1011.34,387.37 1014.09,386.824 1016.84,386.282 1019.6,385.744 1022.35,385.211 1025.11,384.681 1027.86,384.155 1030.62,383.632 1033.37,383.114 1036.13,382.599 1038.88,382.088 1041.63,381.58 1044.39,381.076 1047.14,380.576 1049.9,380.079 1052.65,379.585 1055.41,379.095 1058.16,378.608 1060.92,378.124 1063.67,377.644 1066.42,377.167 1069.18,376.692 1071.93,376.222 1074.69,375.754 1077.44,375.289 1080.2,374.827 1082.95,374.368 1085.71,373.912 1088.46,373.459 1091.21,373.009 1093.97,372.561 1096.72,372.117 1099.48,371.675 1102.23,371.235 1104.99,370.799 1107.74,370.365 1110.5,369.933 1113.25,369.505 1116.01,369.078 1118.76,368.654 1121.51,368.233 1124.27,367.814 1127.02,367.397 1129.78,366.983 1132.53,366.571 1135.29,366.162 1138.04,365.754 1140.8,365.349 1143.55,364.946 1146.3,364.546 1149.06,364.147 1151.81,363.751 1154.57,363.356 1157.32,362.964 1160.08,362.574 1162.83,362.186 1165.59,361.8 1168.34,361.416 1171.09,361.033 1173.85,360.653 1176.6,360.275 1179.36,359.898 1182.11,359.524 1184.87,359.151 1187.62,358.78 1190.38,358.411 1193.13,358.043 1195.88,357.677 1198.64,357.313 1201.39,356.951 1204.15,356.59 1206.9,356.231 1209.66,355.874 1212.41,355.518 1215.17,355.164 1217.92,354.811 1220.67,354.46 1223.43,354.11 1226.18,353.762 1228.94,353.415 1231.69,353.07 1234.45,352.726 1237.2,352.384 1239.96,352.043 1242.71,351.703 1245.46,351.365 1248.22,351.028 1250.97,350.692 1253.73,350.358 1256.48,350.025 1259.24,349.694 1261.99,349.363 1264.75,349.034 1267.5,348.706 1270.25,348.379 1273.01,348.054 1275.76,347.729 1278.52,347.406 1281.27,347.084 1284.03,346.763 1286.78,346.443 1289.54,346.124 1292.29,345.807 1295.04,345.49 1297.8,345.175 1300.55,344.86 1303.31,344.547 1306.06,344.234 1308.82,343.923 1311.57,343.613 1314.33,343.303 1317.08,342.995 1319.83,342.687 1322.59,342.381 1325.34,342.075 1328.1,341.771 1330.85,341.467 1333.61,341.164 1336.36,340.863 1339.12,340.562 1341.87,340.262 1344.62,339.963 1347.38,339.664 1350.13,339.367 1352.89,339.07 1355.64,338.774 1358.4,338.48 1361.15,338.185 1363.91,337.892 1366.66,337.6 1369.41,337.308 1372.17,337.018 1374.92,336.728 1377.68,336.438 1380.43,336.15 1383.19,335.862 1385.94,335.575 1388.7,335.289 1391.45,335.004 1394.21,334.719 1396.96,334.435 1399.71,334.152 1402.47,333.87 1405.22,333.588 1407.98,333.307 1410.73,333.026 1413.49,332.746 1416.24,332.467 1419,332.189 1421.75,331.911 1424.5,331.634 1427.26,331.357 1430.01,331.081 1432.77,330.806 1435.52,330.531 1438.28,330.257 1441.03,329.984 1443.79,329.711 1446.54,329.439 1449.29,329.167 1452.05,328.896 1454.8,328.625 1457.56,328.355 1460.31,328.086 1463.07,327.817 1465.82,327.549 1468.58,327.281 1471.33,327.014 1474.08,326.748 1476.84,326.481 1479.59,326.216 1482.35,325.951 1485.1,325.686 1487.86,325.422 1490.61,325.159 1493.37,324.896 1496.12,324.634 1498.87,324.372 1501.63,324.11 1504.38,323.849 1507.14,323.589 1509.89,323.329 1512.65,323.069 1515.4,322.81 1518.16,322.551 1520.91,322.293 1523.66,322.035 1526.42,321.778 1529.17,321.521 1531.93,321.265 1534.68,321.009 1537.44,320.754 1540.19,320.498 1542.95,320.244 1545.7,319.99 1548.45,319.736 1551.21,319.482 1553.96,319.229 1556.72,318.977 1559.47,318.725 1562.23,318.473 1564.98,318.222 1567.74,317.971 1570.49,317.72 1573.24,317.47 1576,317.22 1578.75,316.97 1581.51,316.721 1584.26,316.473 1587.02,316.224 1589.77,315.976 1592.53,315.729 1595.28,315.482 1598.03,315.235 1600.79,314.988 1603.54,314.742 1606.3,314.496 1609.05,314.251 1611.81,314.006 1614.56,313.761 1617.32,313.517 1620.07,313.273 1622.82,313.029 1625.58,312.786 1628.33,312.543 1631.09,312.3 1633.84,312.058 1636.6,311.815 1639.35,311.574 1642.11,311.332 1644.86,311.091 1647.62,310.851 1650.37,310.61 1653.12,310.37 1655.88,310.13 1658.63,309.891 1661.39,309.652 1664.14,309.413 1666.9,309.174 1669.65,308.936 1672.41,308.698 1675.16,308.46 1677.91,308.223 1680.67,307.986 1683.42,307.749 1686.18,307.513 1688.93,307.277 1691.69,307.041 1694.44,306.805 1697.2,306.57 1699.95,306.335 1702.7,306.1 1705.46,305.866 1708.21,305.632 1710.97,305.398 1713.72,305.164 1716.48,304.931 1719.23,304.698 1721.99,304.465 1724.74,304.232 1727.49,304 1730.25,303.768 1733,303.536 1735.76,303.305 1738.51,303.073 1741.27,302.842 1744.02,302.612 1746.78,302.381 1749.53,302.151 1752.28,301.921 1755.04,301.691 1757.79,301.462 1760.55,301.233 1763.3,301.004 1766.06,300.775 1768.81,300.547 1771.57,300.318 1774.32,300.09 1777.07,299.863 1779.83,299.635 1782.58,299.408 1785.34,299.181 1788.09,298.954 1790.85,298.727 1793.6,298.501 1796.36,298.275 1799.11,298.049 1801.86,297.824 1804.62,297.598 1807.37,297.373 1810.13,297.148 1812.88,296.923 1815.64,296.699 1818.39,296.475 1821.15,296.25 1823.9,296.027 1826.65,295.803 1829.41,295.58 1832.16,295.356 1834.92,295.133 1837.67,294.911 1840.43,294.688 1843.18,294.466 1845.94,294.244 1848.69,294.022 1851.44,293.8 1854.2,293.579 1856.95,293.357 1859.71,293.136 1862.46,292.915 1865.22,292.695 1867.97,292.474 1870.73,292.254 1873.48,292.034 1876.23,291.814 1878.99,291.594 1881.74,291.375 1884.5,291.156 1887.25,290.937 1890.01,290.718 1892.76,290.499 1895.52,290.281 1898.27,290.062 1901.03,289.844 1903.78,289.626 1906.53,289.409 1909.29,289.191 1912.04,288.974 1914.8,288.757 1917.55,288.54 1920.31,288.323 1923.06,288.106 1925.82,287.89 1928.57,287.674 1931.32,287.458 1934.08,287.242 1936.83,287.026 1939.59,286.811 1942.34,286.596 1945.1,286.38 1947.85,286.166 1950.61,285.951 1953.36,285.736 1956.11,285.522 1958.87,285.308 1961.62,285.093 1964.38,284.88 1967.13,284.666 1969.89,284.452 1972.64,284.239 1975.4,284.026 1978.15,283.813 1980.9,283.6 1983.66,283.388 1986.41,283.175 1989.17,282.963 1991.92,282.751 1994.68,282.539 1997.43,282.327 2000.19,282.115 2002.94,281.904 2005.69,281.692 2008.45,281.481 2011.2,281.27 2013.96,281.06 2016.71,280.849 2019.47,280.639 2022.22,280.428 2024.98,280.218 2027.73,280.008 2030.48,279.798 2033.24,279.589 2035.99,279.379 2038.75,279.17 2041.5,278.961 2044.26,278.752 2047.01,278.543 2049.77,278.335 2052.52,278.126 2055.27,277.918 2058.03,277.71 2060.78,277.502 2063.54,277.294 2066.29,277.086 2069.05,276.878 2071.8,276.671 2074.56,276.464 2077.31,276.257 2080.06,276.05 2082.82,275.843 2085.57,275.636 2088.33,275.43 2091.08,275.224 2093.84,275.017 2096.59,274.811 2099.35,274.606 2102.1,274.4 2104.85,274.194 2107.61,273.989 2110.36,273.784 2113.12,273.578 2115.87,273.373 2118.63,273.169 2121.38,272.964 2124.14,272.759 2126.89,272.555 2129.64,272.351 2132.4,272.147 2135.15,271.943 2137.91,271.739 2140.66,271.535 2143.42,271.332 2146.17,271.129 2148.93,270.925 2151.68,270.722 2154.44,270.519 2157.19,270.317 2159.94,270.114 2162.7,269.911 2165.45,269.709 2168.21,269.507 2170.96,269.305 2173.72,269.103 2176.47,268.901 2179.23,268.699 2181.98,268.498 2184.73,268.296 2187.49,268.095 2190.24,267.894 2193,267.693 2195.75,267.492 2198.51,267.291 2201.26,267.091 2204.02,266.89 2206.77,266.69 2209.52,266.49 2212.28,266.29 2215.03,266.09 2217.79,265.89 2220.54,265.691 2223.3,265.491 2226.05,265.292 2228.81,265.093 2231.56,264.893 2234.31,264.695 2237.07,264.496 2239.82,264.297 2242.58,264.098 2245.33,263.9 2248.09,263.702 2250.84,263.503 2253.6,263.305 2256.35,263.107 2259.1,262.91 2261.86,262.712 2264.61,262.515 2267.37,262.317 2270.12,262.12 2272.88,261.923 2275.63,261.726 2278.39,261.529 2281.14,261.332 2283.89,261.135 2286.65,260.939 2289.4,260.742 2292.16,260.546 2294.91,260.35 2297.67,260.154 2300.42,259.958 2303.18,259.762 2305.93,259.567 2308.68,259.371 2311.44,259.176 2314.19,258.981 2316.95,258.785 2319.7,258.59 2322.46,258.395 2325.21,258.201 2327.97,258.006 2330.72,257.812 2333.47,257.617 2336.23,257.423 2338.98,257.229 2341.74,257.034 2344.49,256.841 2347.25,256.647 2350,256.453 2352.76,256.259 "/>
<polyline clip-path="url(#clip912)" style="stroke:#e26f46; stroke-linecap:round; stroke-linejoin:round; stroke-width:12; stroke-opacity:1; fill:none" points="149.191,735.212 151.945,553.591 154.7,427.243 157.454,342.12 160.209,286.801 162.963,252.27 165.718,231.641 168.472,219.905 171.227,213.612 173.981,210.442 176.735,208.975 179.49,208.385 182.244,208.19 184.999,208.136 187.753,208.127 190.508,208.128 193.262,208.135 196.017,208.157 198.771,208.216 201.526,208.333 204.28,208.523 207.034,208.799 209.789,209.171 212.543,209.647 215.298,210.229 218.052,210.92 220.807,211.72 223.561,212.627 226.316,213.638 229.07,214.75 231.825,215.958 234.579,217.258 237.333,218.647 240.088,220.12 242.842,221.673 245.597,223.301 248.351,224.999 251.106,226.763 253.86,228.587 256.615,230.47 259.369,232.406 262.124,234.392 264.878,236.425 267.632,238.501 270.387,240.618 273.141,242.772 275.896,244.962 278.65,247.183 281.405,249.435 284.159,251.714 286.914,254.019 289.668,256.348 292.423,258.699 295.177,261.071 297.932,263.462 300.686,265.87 303.44,268.294 306.195,270.733 308.949,273.187 311.704,275.653 314.458,278.131 317.213,280.62 319.967,283.119 322.722,285.627 325.476,288.143 328.231,290.667 330.985,293.198 333.739,295.734 336.494,298.276 339.248,300.823 342.003,303.373 344.757,305.928 347.512,308.485 350.266,311.046 353.021,313.608 355.775,316.173 358.53,318.74 361.284,321.307 364.038,323.875 366.793,326.444 369.547,329.012 372.302,331.58 375.056,334.147 377.811,336.714 380.565,339.279 383.32,341.843 386.074,344.404 388.829,346.964 391.583,349.521 394.337,352.076 397.092,354.627 399.846,357.176 402.601,359.721 405.355,362.262 408.11,364.799 410.864,367.332 413.619,369.861 416.373,372.386 419.128,374.905 421.882,377.419 424.636,379.928 427.391,382.432 430.145,384.931 432.9,387.423 435.654,389.91 438.409,392.39 441.163,394.864 443.918,397.332 446.672,399.793 449.427,402.247 452.181,404.695 454.936,407.135 457.69,409.568 460.444,411.994 463.199,414.412 465.953,416.822 468.708,419.224 471.462,421.619 474.217,424.005 476.971,426.383 479.726,428.753 482.48,431.114 485.235,433.467 487.989,435.811 490.743,438.146 493.498,440.472 496.252,442.789 499.007,445.096 501.761,447.395 504.516,449.684 507.27,451.963 510.025,454.233 512.779,456.492 515.534,458.742 518.288,460.983 521.042,463.213 523.797,465.432 526.551,467.642 529.306,469.841 532.06,472.03 534.815,474.209 537.569,476.377 540.324,478.534 543.078,480.68 545.833,482.816 548.587,484.941 551.341,487.055 554.096,489.158 556.85,491.25 559.605,493.331 562.359,495.4 565.114,497.458 567.868,499.505 570.623,501.541 573.377,503.565 576.132,505.577 578.886,507.578 581.641,509.567 584.395,511.545 587.149,513.511 589.904,515.465 592.658,517.407 595.413,519.337 598.167,521.255 600.922,523.161 603.676,525.055 606.431,526.936 609.185,528.806 611.94,530.663 614.694,532.509 617.448,534.342 620.203,536.162 622.957,537.97 625.712,539.766 628.466,541.55 631.221,543.321 633.975,545.079 636.73,546.825 639.484,548.559 642.239,550.28 644.993,551.988 647.747,553.684 650.502,555.367 653.256,557.038 656.011,558.696 658.765,560.341 661.52,561.974 664.274,563.594 667.029,565.202 669.783,566.796 672.538,568.378 675.292,569.948 678.046,571.505 680.801,573.049 683.555,574.58 686.31,576.099 689.064,577.605 691.819,579.098 694.573,580.579 697.328,582.048 700.082,583.503 702.837,584.946 705.591,586.377 708.345,587.794 711.1,589.2 713.854,590.592 716.609,591.973 719.363,593.341 722.118,594.696 724.872,596.04 727.627,597.371 730.381,598.69 733.136,599.997 735.89,601.291 738.645,602.574 741.399,603.844 744.153,605.103 746.908,606.35 749.662,607.585 752.417,608.808 755.171,610.019 757.926,611.219 760.68,612.407 763.435,613.583 766.189,614.748 768.944,615.901 771.698,617.043 774.452,618.174 777.207,619.293 779.961,620.401 782.716,621.498 785.47,622.584 788.225,623.659 790.979,624.722 793.734,625.775 796.488,626.817 799.243,627.848 801.997,628.868 804.751,629.878 807.506,630.877 810.26,631.866 813.015,632.844 815.769,633.811 818.524,634.768 821.278,635.715 824.033,636.652 826.787,637.579 829.542,638.495 832.296,639.402 835.05,640.298 837.805,641.185 840.559,642.062 843.314,642.929 846.068,643.787 848.823,644.635 851.577,645.473 854.332,646.303 857.086,647.122 859.841,647.933 862.595,648.735 865.349,649.527 868.104,650.31 870.858,651.085 873.613,651.85 876.367,652.607 879.122,653.355 881.876,654.094 884.631,654.825 887.385,655.548 890.14,656.262 892.894,656.967 895.649,657.665 898.403,658.354 901.157,659.035 903.912,659.707 906.666,660.372 909.421,661.029 912.175,661.678 914.93,662.32 917.684,662.953 920.439,663.579 923.193,664.198 925.948,664.809 928.702,665.412 931.456,666.009 934.211,666.598 936.965,667.179 939.72,667.754 942.474,668.322 945.229,668.882 947.983,669.436 950.738,669.983 953.492,670.523 956.247,671.057 959.001,671.584 961.755,672.104 964.51,672.618 967.264,673.125 970.019,673.626 972.773,674.121 975.528,674.609 978.282,675.092 981.037,675.568 983.791,676.038 986.546,676.502 989.3,676.961 992.054,677.413 994.809,677.86 997.563,678.301 1000.32,678.737 1003.07,679.167 1005.83,679.591 1008.58,680.01 1011.34,680.423 1014.09,680.831 1016.84,681.234 1019.6,681.632 1022.35,682.025 1025.11,682.412 1027.86,682.794 1030.62,683.172 1033.37,683.544 1036.13,683.912 1038.88,684.275 1041.63,684.633 1044.39,684.986 1047.14,685.335 1049.9,685.679 1052.65,686.019 1055.41,686.354 1058.16,686.685 1060.92,687.012 1063.67,687.334 1066.42,687.652 1069.18,687.966 1071.93,688.276 1074.69,688.581 1077.44,688.883 1080.2,689.181 1082.95,689.474 1085.71,689.764 1088.46,690.05 1091.21,690.332 1093.97,690.611 1096.72,690.886 1099.48,691.157 1102.23,691.425 1104.99,691.689 1107.74,691.95 1110.5,692.207 1113.25,692.461 1116.01,692.712 1118.76,692.959 1121.51,693.203 1124.27,693.444 1127.02,693.682 1129.78,693.916 1132.53,694.148 1135.29,694.376 1138.04,694.602 1140.8,694.824 1143.55,695.044 1146.3,695.261 1149.06,695.474 1151.81,695.685 1154.57,695.894 1157.32,696.099 1160.08,696.302 1162.83,696.502 1165.59,696.7 1168.34,696.895 1171.09,697.087 1173.85,697.277 1176.6,697.464 1179.36,697.649 1182.11,697.832 1184.87,698.012 1187.62,698.19 1190.38,698.365 1193.13,698.538 1195.88,698.709 1198.64,698.878 1201.39,699.044 1204.15,699.209 1206.9,699.371 1209.66,699.531 1212.41,699.689 1215.17,699.845 1217.92,699.999 1220.67,700.151 1223.43,700.302 1226.18,700.45 1228.94,700.596 1231.69,700.74 1234.45,700.883 1237.2,701.024 1239.96,701.163 1242.71,701.3 1245.46,701.436 1248.22,701.57 1250.97,701.702 1253.73,701.832 1256.48,701.961 1259.24,702.089 1261.99,702.214 1264.75,702.338 1267.5,702.461 1270.25,702.582 1273.01,702.702 1275.76,702.82 1278.52,702.937 1281.27,703.052 1284.03,703.166 1286.78,703.279 1289.54,703.39 1292.29,703.5 1295.04,703.608 1297.8,703.716 1300.55,703.822 1303.31,703.926 1306.06,704.03 1308.82,704.132 1311.57,704.233 1314.33,704.333 1317.08,704.432 1319.83,704.529 1322.59,704.626 1325.34,704.721 1328.1,704.816 1330.85,704.909 1333.61,705.001 1336.36,705.092 1339.12,705.182 1341.87,705.271 1344.62,705.359 1347.38,705.446 1350.13,705.532 1352.89,705.617 1355.64,705.701 1358.4,705.784 1361.15,705.866 1363.91,705.947 1366.66,706.028 1369.41,706.107 1372.17,706.186 1374.92,706.264 1377.68,706.34 1380.43,706.416 1383.19,706.491 1385.94,706.566 1388.7,706.639 1391.45,706.712 1394.21,706.784 1396.96,706.855 1399.71,706.925 1402.47,706.995 1405.22,707.064 1407.98,707.132 1410.73,707.2 1413.49,707.267 1416.24,707.333 1419,707.398 1421.75,707.463 1424.5,707.527 1427.26,707.59 1430.01,707.653 1432.77,707.715 1435.52,707.777 1438.28,707.838 1441.03,707.898 1443.79,707.958 1446.54,708.017 1449.29,708.075 1452.05,708.133 1454.8,708.19 1457.56,708.247 1460.31,708.303 1463.07,708.359 1465.82,708.414 1468.58,708.468 1471.33,708.522 1474.08,708.576 1476.84,708.629 1479.59,708.681 1482.35,708.733 1485.1,708.785 1487.86,708.836 1490.61,708.886 1493.37,708.936 1496.12,708.986 1498.87,709.035 1501.63,709.084 1504.38,709.132 1507.14,709.18 1509.89,709.227 1512.65,709.274 1515.4,709.321 1518.16,709.367 1520.91,709.412 1523.66,709.458 1526.42,709.503 1529.17,709.547 1531.93,709.591 1534.68,709.635 1537.44,709.678 1540.19,709.721 1542.95,709.764 1545.7,709.806 1548.45,709.848 1551.21,709.89 1553.96,709.931 1556.72,709.972 1559.47,710.012 1562.23,710.052 1564.98,710.092 1567.74,710.132 1570.49,710.171 1573.24,710.21 1576,710.249 1578.75,710.287 1581.51,710.325 1584.26,710.363 1587.02,710.4 1589.77,710.437 1592.53,710.474 1595.28,710.511 1598.03,710.547 1600.79,710.583 1603.54,710.619 1606.3,710.655 1609.05,710.69 1611.81,710.725 1614.56,710.76 1617.32,710.794 1620.07,710.828 1622.82,710.862 1625.58,710.896 1628.33,710.93 1631.09,710.963 1633.84,710.996 1636.6,711.029 1639.35,711.062 1642.11,711.094 1644.86,711.126 1647.62,711.158 1650.37,711.19 1653.12,711.221 1655.88,711.252 1658.63,711.283 1661.39,711.314 1664.14,711.345 1666.9,711.375 1669.65,711.405 1672.41,711.435 1675.16,711.465 1677.91,711.495 1680.67,711.524 1683.42,711.553 1686.18,711.582 1688.93,711.611 1691.69,711.64 1694.44,711.669 1697.2,711.697 1699.95,711.725 1702.7,711.753 1705.46,711.781 1708.21,711.808 1710.97,711.836 1713.72,711.863 1716.48,711.89 1719.23,711.917 1721.99,711.944 1724.74,711.971 1727.49,711.997 1730.25,712.024 1733,712.05 1735.76,712.076 1738.51,712.102 1741.27,712.127 1744.02,712.153 1746.78,712.178 1749.53,712.204 1752.28,712.229 1755.04,712.254 1757.79,712.279 1760.55,712.304 1763.3,712.328 1766.06,712.353 1768.81,712.377 1771.57,712.401 1774.32,712.425 1777.07,712.449 1779.83,712.473 1782.58,712.497 1785.34,712.52 1788.09,712.543 1790.85,712.567 1793.6,712.59 1796.36,712.613 1799.11,712.636 1801.86,712.659 1804.62,712.681 1807.37,712.704 1810.13,712.727 1812.88,712.749 1815.64,712.771 1818.39,712.793 1821.15,712.815 1823.9,712.837 1826.65,712.859 1829.41,712.881 1832.16,712.902 1834.92,712.924 1837.67,712.945 1840.43,712.967 1843.18,712.988 1845.94,713.009 1848.69,713.03 1851.44,713.051 1854.2,713.072 1856.95,713.092 1859.71,713.113 1862.46,713.133 1865.22,713.154 1867.97,713.174 1870.73,713.194 1873.48,713.215 1876.23,713.235 1878.99,713.255 1881.74,713.275 1884.5,713.294 1887.25,713.314 1890.01,713.334 1892.76,713.353 1895.52,713.373 1898.27,713.392 1901.03,713.412 1903.78,713.431 1906.53,713.45 1909.29,713.469 1912.04,713.488 1914.8,713.507 1917.55,713.526 1920.31,713.545 1923.06,713.564 1925.82,713.582 1928.57,713.601 1931.32,713.619 1934.08,713.638 1936.83,713.656 1939.59,713.674 1942.34,713.693 1945.1,713.711 1947.85,713.729 1950.61,713.747 1953.36,713.765 1956.11,713.783 1958.87,713.801 1961.62,713.818 1964.38,713.836 1967.13,713.854 1969.89,713.871 1972.64,713.889 1975.4,713.906 1978.15,713.924 1980.9,713.941 1983.66,713.958 1986.41,713.975 1989.17,713.993 1991.92,714.01 1994.68,714.027 1997.43,714.044 2000.19,714.061 2002.94,714.077 2005.69,714.094 2008.45,714.111 2011.2,714.128 2013.96,714.144 2016.71,714.161 2019.47,714.177 2022.22,714.194 2024.98,714.21 2027.73,714.226 2030.48,714.243 2033.24,714.259 2035.99,714.275 2038.75,714.291 2041.5,714.307 2044.26,714.323 2047.01,714.339 2049.77,714.355 2052.52,714.371 2055.27,714.387 2058.03,714.403 2060.78,714.418 2063.54,714.434 2066.29,714.45 2069.05,714.465 2071.8,714.481 2074.56,714.496 2077.31,714.512 2080.06,714.527 2082.82,714.542 2085.57,714.558 2088.33,714.573 2091.08,714.588 2093.84,714.603 2096.59,714.618 2099.35,714.633 2102.1,714.648 2104.85,714.663 2107.61,714.678 2110.36,714.693 2113.12,714.708 2115.87,714.723 2118.63,714.737 2121.38,714.752 2124.14,714.767 2126.89,714.781 2129.64,714.796 2132.4,714.811 2135.15,714.825 2137.91,714.84 2140.66,714.854 2143.42,714.868 2146.17,714.883 2148.93,714.897 2151.68,714.911 2154.44,714.926 2157.19,714.94 2159.94,714.954 2162.7,714.968 2165.45,714.982 2168.21,714.996 2170.96,715.01 2173.72,715.024 2176.47,715.038 2179.23,715.052 2181.98,715.066 2184.73,715.079 2187.49,715.093 2190.24,715.107 2193,715.121 2195.75,715.134 2198.51,715.148 2201.26,715.162 2204.02,715.175 2206.77,715.189 2209.52,715.202 2212.28,715.216 2215.03,715.229 2217.79,715.242 2220.54,715.256 2223.3,715.269 2226.05,715.282 2228.81,715.296 2231.56,715.309 2234.31,715.322 2237.07,715.335 2239.82,715.348 2242.58,715.361 2245.33,715.374 2248.09,715.387 2250.84,715.4 2253.6,715.413 2256.35,715.426 2259.1,715.439 2261.86,715.452 2264.61,715.465 2267.37,715.478 2270.12,715.491 2272.88,715.503 2275.63,715.516 2278.39,715.529 2281.14,715.541 2283.89,715.554 2286.65,715.567 2289.4,715.579 2292.16,715.592 2294.91,715.604 2297.67,715.617 2300.42,715.629 2303.18,715.642 2305.93,715.654 2308.68,715.666 2311.44,715.679 2314.19,715.691 2316.95,715.703 2319.7,715.715 2322.46,715.728 2325.21,715.74 2327.97,715.752 2330.72,715.764 2333.47,715.776 2336.23,715.788 2338.98,715.8 2341.74,715.812 2344.49,715.824 2347.25,715.836 2350,715.848 2352.76,715.86 "/>
<polyline clip-path="url(#clip912)" style="stroke:#3da44d; stroke-linecap:round; stroke-linejoin:round; stroke-width:12; stroke-opacity:1; fill:none" points="149.191,79.2753 151.945,151.325 154.7,220.66 157.454,286.922 160.209,349.613 162.963,408.19 165.718,462.168 168.472,511.22 171.227,555.216 173.981,594.238 176.735,628.54 179.49,658.501 182.244,684.567 184.999,707.206 187.753,726.869 190.508,743.974 193.262,758.893 196.017,771.946 198.771,783.409 201.526,793.513 204.28,802.453 207.034,810.39 209.789,817.461 212.543,823.779 215.298,829.441 218.052,834.526 220.807,839.103 223.561,843.233 226.316,846.964 229.07,850.342 231.825,853.403 234.579,856.183 237.333,858.709 240.088,861.007 242.842,863.101 245.597,865.01 248.351,866.752 251.106,868.344 253.86,869.799 256.615,871.13 259.369,872.349 262.124,873.466 264.878,874.491 267.632,875.43 270.387,876.293 273.141,877.085 275.896,877.813 278.65,878.483 281.405,879.098 284.159,879.664 286.914,880.185 289.668,880.664 292.423,881.105 295.177,881.511 297.932,881.884 300.686,882.227 303.44,882.543 306.195,882.833 308.949,883.099 311.704,883.343 314.458,883.567 317.213,883.771 319.967,883.958 322.722,884.128 325.476,884.282 328.231,884.422 330.985,884.549 333.739,884.662 336.494,884.764 339.248,884.854 342.003,884.933 344.757,885.002 347.512,885.061 350.266,885.111 353.021,885.153 355.775,885.186 358.53,885.211 361.284,885.228 364.038,885.239 366.793,885.242 369.547,885.238 372.302,885.228 375.056,885.212 377.811,885.189 380.565,885.161 383.32,885.127 386.074,885.087 388.829,885.042 391.583,884.992 394.337,884.937 397.092,884.877 399.846,884.812 402.601,884.742 405.355,884.667 408.11,884.588 410.864,884.505 413.619,884.417 416.373,884.325 419.128,884.229 421.882,884.129 424.636,884.024 427.391,883.916 430.145,883.804 432.9,883.688 435.654,883.568 438.409,883.444 441.163,883.317 443.918,883.186 446.672,883.052 449.427,882.914 452.181,882.773 454.936,882.628 457.69,882.48 460.444,882.328 463.199,882.173 465.953,882.015 468.708,881.854 471.462,881.69 474.217,881.522 476.971,881.352 479.726,881.178 482.48,881.001 485.235,880.822 487.989,880.639 490.743,880.454 493.498,880.265 496.252,880.074 499.007,879.88 501.761,879.683 504.516,879.483 507.27,879.281 510.025,879.076 512.779,878.868 515.534,878.657 518.288,878.444 521.042,878.228 523.797,878.01 526.551,877.789 529.306,877.566 532.06,877.339 534.815,877.111 537.569,876.88 540.324,876.646 543.078,876.41 545.833,876.172 548.587,875.93 551.341,875.687 554.096,875.441 556.85,875.193 559.605,874.942 562.359,874.689 565.114,874.433 567.868,874.176 570.623,873.915 573.377,873.653 576.132,873.388 578.886,873.12 581.641,872.851 584.395,872.578 587.149,872.304 589.904,872.027 592.658,871.748 595.413,871.467 598.167,871.183 600.922,870.897 603.676,870.609 606.431,870.318 609.185,870.025 611.94,869.73 614.694,869.433 617.448,869.133 620.203,868.831 622.957,868.527 625.712,868.22 628.466,867.912 631.221,867.601 633.975,867.288 636.73,866.973 639.484,866.656 642.239,866.336 644.993,866.015 647.747,865.691 650.502,865.366 653.256,865.038 656.011,864.708 658.765,864.377 661.52,864.043 664.274,863.708 667.029,863.37 669.783,863.031 672.538,862.69 675.292,862.347 678.046,862.003 680.801,861.657 683.555,861.309 686.31,860.959 689.064,860.608 691.819,860.255 694.573,859.901 697.328,859.545 700.082,859.188 702.837,858.829 705.591,858.47 708.345,858.108 711.1,857.746 713.854,857.382 716.609,857.017 719.363,856.651 722.118,856.283 724.872,855.915 727.627,855.546 730.381,855.175 733.136,854.804 735.89,854.431 738.645,854.058 741.399,853.684 744.153,853.309 746.908,852.933 749.662,852.556 752.417,852.179 755.171,851.801 757.926,851.422 760.68,851.043 763.435,850.663 766.189,850.282 768.944,849.901 771.698,849.52 774.452,849.137 777.207,848.755 779.961,848.372 782.716,847.988 785.47,847.604 788.225,847.22 790.979,846.836 793.734,846.451 796.488,846.065 799.243,845.68 801.997,845.294 804.751,844.908 807.506,844.522 810.26,844.136 813.015,843.749 815.769,843.362 818.524,842.975 821.278,842.589 824.033,842.201 826.787,841.814 829.542,841.427 832.296,841.04 835.05,840.653 837.805,840.266 840.559,839.879 843.314,839.491 846.068,839.104 848.823,838.717 851.577,838.331 854.332,837.944 857.086,837.557 859.841,837.171 862.595,836.784 865.349,836.398 868.104,836.012 870.858,835.627 873.613,835.241 876.367,834.856 879.122,834.471 881.876,834.087 884.631,833.702 887.385,833.318 890.14,832.935 892.894,832.551 895.649,832.168 898.403,831.786 901.157,831.404 903.912,831.022 906.666,830.641 909.421,830.26 912.175,829.88 914.93,829.5 917.684,829.121 920.439,828.742 923.193,828.364 925.948,827.986 928.702,827.609 931.456,827.233 934.211,826.857 936.965,826.482 939.72,826.107 942.474,825.733 945.229,825.36 947.983,824.987 950.738,824.615 953.492,824.244 956.247,823.874 959.001,823.504 961.755,823.135 964.51,822.767 967.264,822.4 970.019,822.033 972.773,821.667 975.528,821.303 978.282,820.939 981.037,820.575 983.791,820.213 986.546,819.852 989.3,819.492 992.054,819.132 994.809,818.774 997.563,818.416 1000.32,818.059 1003.07,817.704 1005.83,817.349 1008.58,816.996 1011.34,816.643 1014.09,816.292 1016.84,815.941 1019.6,815.592 1022.35,815.243 1025.11,814.896 1027.86,814.55 1030.62,814.205 1033.37,813.861 1036.13,813.518 1038.88,813.177 1041.63,812.836 1044.39,812.497 1047.14,812.159 1049.9,811.822 1052.65,811.486 1055.41,811.152 1058.16,810.818 1060.92,810.486 1063.67,810.156 1066.42,809.826 1069.18,809.498 1071.93,809.171 1074.69,808.845 1077.44,808.521 1080.2,808.198 1082.95,807.876 1085.71,807.555 1088.46,807.236 1091.21,806.918 1093.97,806.602 1096.72,806.287 1099.48,805.973 1102.23,805.66 1104.99,805.349 1107.74,805.04 1110.5,804.731 1113.25,804.424 1116.01,804.119 1118.76,803.815 1121.51,803.512 1124.27,803.211 1127.02,802.911 1129.78,802.612 1132.53,802.315 1135.29,802.02 1138.04,801.725 1140.8,801.433 1143.55,801.141 1146.3,800.851 1149.06,800.563 1151.81,800.276 1154.57,799.99 1157.32,799.706 1160.08,799.424 1162.83,799.143 1165.59,798.863 1168.34,798.585 1171.09,798.308 1173.85,798.033 1176.6,797.759 1179.36,797.487 1182.11,797.216 1184.87,796.947 1187.62,796.679 1190.38,796.412 1193.13,796.147 1195.88,795.884 1198.64,795.622 1201.39,795.362 1204.15,795.103 1206.9,794.845 1209.66,794.589 1212.41,794.335 1215.17,794.082 1217.92,793.83 1220.67,793.58 1223.43,793.331 1226.18,793.084 1228.94,792.839 1231.69,792.594 1234.45,792.352 1237.2,792.11 1239.96,791.871 1242.71,791.632 1245.46,791.396 1248.22,791.16 1250.97,790.926 1253.73,790.694 1256.48,790.463 1259.24,790.233 1261.99,790.005 1264.75,789.779 1267.5,789.554 1270.25,789.33 1273.01,789.107 1275.76,788.887 1278.52,788.667 1281.27,788.449 1284.03,788.232 1286.78,788.017 1289.54,787.804 1292.29,787.591 1295.04,787.38 1297.8,787.171 1300.55,786.963 1303.31,786.756 1306.06,786.55 1308.82,786.346 1311.57,786.144 1314.33,785.943 1317.08,785.743 1319.83,785.544 1322.59,785.347 1325.34,785.151 1328.1,784.957 1330.85,784.764 1333.61,784.572 1336.36,784.381 1339.12,784.192 1341.87,784.005 1344.62,783.818 1347.38,783.633 1350.13,783.449 1352.89,783.267 1355.64,783.085 1358.4,782.905 1361.15,782.727 1363.91,782.549 1366.66,782.373 1369.41,782.198 1372.17,782.025 1374.92,781.852 1377.68,781.681 1380.43,781.511 1383.19,781.343 1385.94,781.175 1388.7,781.009 1391.45,780.844 1394.21,780.68 1396.96,780.518 1399.71,780.356 1402.47,780.196 1405.22,780.037 1407.98,779.879 1410.73,779.723 1413.49,779.567 1416.24,779.413 1419,779.259 1421.75,779.107 1424.5,778.957 1427.26,778.807 1430.01,778.658 1432.77,778.511 1435.52,778.364 1438.28,778.219 1441.03,778.074 1443.79,777.931 1446.54,777.789 1449.29,777.648 1452.05,777.508 1454.8,777.369 1457.56,777.232 1460.31,777.095 1463.07,776.959 1465.82,776.825 1468.58,776.691 1471.33,776.558 1474.08,776.427 1476.84,776.296 1479.59,776.166 1482.35,776.038 1485.1,775.91 1487.86,775.784 1490.61,775.658 1493.37,775.533 1496.12,775.41 1498.87,775.287 1501.63,775.165 1504.38,775.044 1507.14,774.924 1509.89,774.805 1512.65,774.687 1515.4,774.57 1518.16,774.454 1520.91,774.339 1523.66,774.224 1526.42,774.111 1529.17,773.998 1531.93,773.886 1534.68,773.775 1537.44,773.665 1540.19,773.556 1542.95,773.448 1545.7,773.34 1548.45,773.233 1551.21,773.128 1553.96,773.023 1556.72,772.919 1559.47,772.815 1562.23,772.713 1564.98,772.611 1567.74,772.51 1570.49,772.41 1573.24,772.31 1576,772.212 1578.75,772.114 1581.51,772.017 1584.26,771.921 1587.02,771.825 1589.77,771.73 1592.53,771.636 1595.28,771.543 1598.03,771.451 1600.79,771.359 1603.54,771.268 1606.3,771.177 1609.05,771.088 1611.81,770.999 1614.56,770.91 1617.32,770.823 1620.07,770.736 1622.82,770.65 1625.58,770.564 1628.33,770.479 1631.09,770.395 1633.84,770.311 1636.6,770.228 1639.35,770.146 1642.11,770.065 1644.86,769.984 1647.62,769.903 1650.37,769.824 1653.12,769.744 1655.88,769.666 1658.63,769.588 1661.39,769.511 1664.14,769.434 1666.9,769.358 1669.65,769.283 1672.41,769.208 1675.16,769.133 1677.91,769.06 1680.67,768.987 1683.42,768.914 1686.18,768.842 1688.93,768.77 1691.69,768.699 1694.44,768.629 1697.2,768.559 1699.95,768.49 1702.7,768.421 1705.46,768.353 1708.21,768.285 1710.97,768.218 1713.72,768.151 1716.48,768.085 1719.23,768.02 1721.99,767.954 1724.74,767.89 1727.49,767.826 1730.25,767.762 1733,767.699 1735.76,767.636 1738.51,767.574 1741.27,767.512 1744.02,767.451 1746.78,767.39 1749.53,767.329 1752.28,767.269 1755.04,767.21 1757.79,767.151 1760.55,767.092 1763.3,767.034 1766.06,766.976 1768.81,766.919 1771.57,766.862 1774.32,766.806 1777.07,766.75 1779.83,766.694 1782.58,766.639 1785.34,766.584 1788.09,766.53 1790.85,766.476 1793.6,766.422 1796.36,766.369 1799.11,766.316 1801.86,766.264 1804.62,766.212 1807.37,766.16 1810.13,766.109 1812.88,766.058 1815.64,766.007 1818.39,765.957 1821.15,765.907 1823.9,765.858 1826.65,765.809 1829.41,765.76 1832.16,765.712 1834.92,765.663 1837.67,765.616 1840.43,765.568 1843.18,765.521 1845.94,765.475 1848.69,765.428 1851.44,765.382 1854.2,765.336 1856.95,765.291 1859.71,765.246 1862.46,765.201 1865.22,765.157 1867.97,765.112 1870.73,765.069 1873.48,765.025 1876.23,764.982 1878.99,764.939 1881.74,764.896 1884.5,764.854 1887.25,764.812 1890.01,764.77 1892.76,764.728 1895.52,764.687 1898.27,764.646 1901.03,764.605 1903.78,764.565 1906.53,764.525 1909.29,764.485 1912.04,764.445 1914.8,764.406 1917.55,764.367 1920.31,764.328 1923.06,764.289 1925.82,764.251 1928.57,764.213 1931.32,764.175 1934.08,764.137 1936.83,764.1 1939.59,764.063 1942.34,764.026 1945.1,763.989 1947.85,763.953 1950.61,763.917 1953.36,763.881 1956.11,763.845 1958.87,763.81 1961.62,763.774 1964.38,763.739 1967.13,763.704 1969.89,763.67 1972.64,763.635 1975.4,763.601 1978.15,763.567 1980.9,763.533 1983.66,763.5 1986.41,763.466 1989.17,763.433 1991.92,763.4 1994.68,763.367 1997.43,763.335 2000.19,763.302 2002.94,763.27 2005.69,763.238 2008.45,763.206 2011.2,763.175 2013.96,763.143 2016.71,763.112 2019.47,763.081 2022.22,763.05 2024.98,763.019 2027.73,762.989 2030.48,762.958 2033.24,762.928 2035.99,762.898 2038.75,762.868 2041.5,762.838 2044.26,762.809 2047.01,762.779 2049.77,762.75 2052.52,762.721 2055.27,762.692 2058.03,762.663 2060.78,762.635 2063.54,762.606 2066.29,762.578 2069.05,762.55 2071.8,762.522 2074.56,762.494 2077.31,762.466 2080.06,762.439 2082.82,762.411 2085.57,762.384 2088.33,762.357 2091.08,762.33 2093.84,762.303 2096.59,762.276 2099.35,762.249 2102.1,762.223 2104.85,762.197 2107.61,762.17 2110.36,762.144 2113.12,762.118 2115.87,762.092 2118.63,762.067 2121.38,762.041 2124.14,762.016 2126.89,761.99 2129.64,761.965 2132.4,761.94 2135.15,761.915 2137.91,761.89 2140.66,761.865 2143.42,761.841 2146.17,761.816 2148.93,761.792 2151.68,761.768 2154.44,761.743 2157.19,761.719 2159.94,761.695 2162.7,761.671 2165.45,761.648 2168.21,761.624 2170.96,761.6 2173.72,761.577 2176.47,761.554 2179.23,761.53 2181.98,761.507 2184.73,761.484 2187.49,761.461 2190.24,761.438 2193,761.416 2195.75,761.393 2198.51,761.37 2201.26,761.348 2204.02,761.325 2206.77,761.303 2209.52,761.281 2212.28,761.259 2215.03,761.237 2217.79,761.215 2220.54,761.193 2223.3,761.171 2226.05,761.149 2228.81,761.128 2231.56,761.106 2234.31,761.084 2237.07,761.063 2239.82,761.042 2242.58,761.021 2245.33,760.999 2248.09,760.978 2250.84,760.957 2253.6,760.936 2256.35,760.915 2259.1,760.895 2261.86,760.874 2264.61,760.853 2267.37,760.833 2270.12,760.812 2272.88,760.792 2275.63,760.771 2278.39,760.751 2281.14,760.731 2283.89,760.711 2286.65,760.691 2289.4,760.671 2292.16,760.651 2294.91,760.631 2297.67,760.611 2300.42,760.591 2303.18,760.571 2305.93,760.552 2308.68,760.532 2311.44,760.513 2314.19,760.493 2316.95,760.474 2319.7,760.454 2322.46,760.435 2325.21,760.416 2327.97,760.397 2330.72,760.377 2333.47,760.358 2336.23,760.339 2338.98,760.32 2341.74,760.301 2344.49,760.283 2347.25,760.264 2350,760.245 2352.76,760.226 "/>
<path clip-path="url(#clip910)" d="M1969.85 1377.32 L2279.3 1377.32 L2279.3 1169.96 L1969.85 1169.96  Z" fill="#ffffff" fill-rule="evenodd" fill-opacity="1"/>
<polyline clip-path="url(#clip910)" style="stroke:#000000; stroke-linecap:round; stroke-linejoin:round; stroke-width:4; stroke-opacity:1; fill:none" points="1969.85,1377.32 2279.3,1377.32 2279.3,1169.96 1969.85,1169.96 1969.85,1377.32 "/>
<polyline clip-path="url(#clip910)" style="stroke:#009af9; stroke-linecap:round; stroke-linejoin:round; stroke-width:12; stroke-opacity:1; fill:none" points="1994.33,1221.8 2141.24,1221.8 "/>
<path clip-path="url(#clip910)" d="M2165.72 1228.84 L2165.72 1213.15 L2169.98 1213.15 L2169.98 1228.68 Q2169.98 1232.36 2171.42 1234.21 Q2172.85 1236.04 2175.72 1236.04 Q2179.17 1236.04 2181.16 1233.84 Q2183.18 1231.64 2183.18 1227.85 L2183.18 1213.15 L2187.44 1213.15 L2187.44 1239.08 L2183.18 1239.08 L2183.18 1235.09 Q2181.63 1237.45 2179.57 1238.61 Q2177.53 1239.75 2174.82 1239.75 Q2170.35 1239.75 2168.04 1236.97 Q2165.72 1234.19 2165.72 1228.84 M2176.44 1212.52 L2176.44 1212.52 Z" fill="#000000" fill-rule="nonzero" fill-opacity="1" /><path clip-path="url(#clip910)" d="M2195.82 1203.06 L2205.63 1203.06 L2205.63 1206.37 L2200.07 1206.37 L2200.07 1242.02 L2205.63 1242.02 L2205.63 1245.33 L2195.82 1245.33 L2195.82 1203.06 Z" fill="#000000" fill-rule="nonzero" fill-opacity="1" /><path clip-path="url(#clip910)" d="M2216.12 1235.14 L2223.76 1235.14 L2223.76 1208.77 L2215.44 1210.44 L2215.44 1206.18 L2223.71 1204.52 L2228.38 1204.52 L2228.38 1235.14 L2236.02 1235.14 L2236.02 1239.08 L2216.12 1239.08 L2216.12 1235.14 Z" fill="#000000" fill-rule="nonzero" fill-opacity="1" /><path clip-path="url(#clip910)" d="M2254.82 1203.06 L2254.82 1245.33 L2245 1245.33 L2245 1242.02 L2250.54 1242.02 L2250.54 1206.37 L2245 1206.37 L2245 1203.06 L2254.82 1203.06 Z" fill="#000000" fill-rule="nonzero" fill-opacity="1" /><polyline clip-path="url(#clip910)" style="stroke:#e26f46; stroke-linecap:round; stroke-linejoin:round; stroke-width:12; stroke-opacity:1; fill:none" points="1994.33,1273.64 2141.24,1273.64 "/>
<path clip-path="url(#clip910)" d="M2165.72 1280.68 L2165.72 1264.99 L2169.98 1264.99 L2169.98 1280.52 Q2169.98 1284.2 2171.42 1286.05 Q2172.85 1287.88 2175.72 1287.88 Q2179.17 1287.88 2181.16 1285.68 Q2183.18 1283.48 2183.18 1279.69 L2183.18 1264.99 L2187.44 1264.99 L2187.44 1290.92 L2183.18 1290.92 L2183.18 1286.93 Q2181.63 1289.29 2179.57 1290.45 Q2177.53 1291.59 2174.82 1291.59 Q2170.35 1291.59 2168.04 1288.81 Q2165.72 1286.03 2165.72 1280.68 M2176.44 1264.36 L2176.44 1264.36 Z" fill="#000000" fill-rule="nonzero" fill-opacity="1" /><path clip-path="url(#clip910)" d="M2195.82 1254.9 L2205.63 1254.9 L2205.63 1258.21 L2200.07 1258.21 L2200.07 1293.86 L2205.63 1293.86 L2205.63 1297.17 L2195.82 1297.17 L2195.82 1254.9 Z" fill="#000000" fill-rule="nonzero" fill-opacity="1" /><path clip-path="url(#clip910)" d="M2219.33 1286.98 L2235.65 1286.98 L2235.65 1290.92 L2213.71 1290.92 L2213.71 1286.98 Q2216.37 1284.23 2220.95 1279.6 Q2225.56 1274.94 2226.74 1273.6 Q2228.99 1271.08 2229.87 1269.34 Q2230.77 1267.58 2230.77 1265.89 Q2230.77 1263.14 2228.82 1261.4 Q2226.9 1259.67 2223.8 1259.67 Q2221.6 1259.67 2219.15 1260.43 Q2216.72 1261.19 2213.94 1262.74 L2213.94 1258.02 Q2216.76 1256.89 2219.22 1256.31 Q2221.67 1255.73 2223.71 1255.73 Q2229.08 1255.73 2232.27 1258.42 Q2235.47 1261.1 2235.47 1265.59 Q2235.47 1267.72 2234.66 1269.64 Q2233.87 1271.54 2231.76 1274.13 Q2231.19 1274.8 2228.08 1278.02 Q2224.98 1281.22 2219.33 1286.98 Z" fill="#000000" fill-rule="nonzero" fill-opacity="1" /><path clip-path="url(#clip910)" d="M2254.82 1254.9 L2254.82 1297.17 L2245 1297.17 L2245 1293.86 L2250.54 1293.86 L2250.54 1258.21 L2245 1258.21 L2245 1254.9 L2254.82 1254.9 Z" fill="#000000" fill-rule="nonzero" fill-opacity="1" /><polyline clip-path="url(#clip910)" style="stroke:#3da44d; stroke-linecap:round; stroke-linejoin:round; stroke-width:12; stroke-opacity:1; fill:none" points="1994.33,1325.48 2141.24,1325.48 "/>
<path clip-path="url(#clip910)" d="M2165.72 1332.52 L2165.72 1316.83 L2169.98 1316.83 L2169.98 1332.36 Q2169.98 1336.04 2171.42 1337.89 Q2172.85 1339.72 2175.72 1339.72 Q2179.17 1339.72 2181.16 1337.52 Q2183.18 1335.32 2183.18 1331.53 L2183.18 1316.83 L2187.44 1316.83 L2187.44 1342.76 L2183.18 1342.76 L2183.18 1338.77 Q2181.63 1341.13 2179.57 1342.29 Q2177.53 1343.43 2174.82 1343.43 Q2170.35 1343.43 2168.04 1340.65 Q2165.72 1337.87 2165.72 1332.52 M2176.44 1316.2 L2176.44 1316.2 Z" fill="#000000" fill-rule="nonzero" fill-opacity="1" /><path clip-path="url(#clip910)" d="M2206.44 1306.78 Q2203.34 1312.11 2201.83 1317.32 Q2200.33 1322.52 2200.33 1327.87 Q2200.33 1333.22 2201.83 1338.47 Q2203.36 1343.7 2206.44 1349.01 L2202.74 1349.01 Q2199.26 1343.57 2197.53 1338.31 Q2195.82 1333.06 2195.82 1327.87 Q2195.82 1322.71 2197.53 1317.48 Q2199.24 1312.25 2202.74 1306.78 L2206.44 1306.78 Z" fill="#000000" fill-rule="nonzero" fill-opacity="1" /><path clip-path="url(#clip910)" d="M2218.92 1309.47 L2218.92 1316.83 L2227.69 1316.83 L2227.69 1320.14 L2218.92 1320.14 L2218.92 1334.21 Q2218.92 1337.38 2219.77 1338.29 Q2220.65 1339.19 2223.32 1339.19 L2227.69 1339.19 L2227.69 1342.76 L2223.32 1342.76 Q2218.38 1342.76 2216.51 1340.93 Q2214.63 1339.07 2214.63 1334.21 L2214.63 1320.14 L2211.51 1320.14 L2211.51 1316.83 L2214.63 1316.83 L2214.63 1309.47 L2218.92 1309.47 Z" fill="#000000" fill-rule="nonzero" fill-opacity="1" /><path clip-path="url(#clip910)" d="M2232.62 1306.78 L2236.32 1306.78 Q2239.8 1312.25 2241.51 1317.48 Q2243.25 1322.71 2243.25 1327.87 Q2243.25 1333.06 2241.51 1338.31 Q2239.8 1343.57 2236.32 1349.01 L2232.62 1349.01 Q2235.7 1343.7 2237.2 1338.47 Q2238.73 1333.22 2238.73 1327.87 Q2238.73 1322.52 2237.2 1317.32 Q2235.7 1312.11 2232.62 1306.78 Z" fill="#000000" fill-rule="nonzero" fill-opacity="1" /></svg>
