<?xml version="1.0" encoding="utf-8"?>
<svg xmlns="http://www.w3.org/2000/svg" xmlns:xlink="http://www.w3.org/1999/xlink" width="600" height="400" viewBox="0 0 2400 1600">
<defs>
  <clipPath id="clip160">
    <rect x="0" y="0" width="2400" height="1600"/>
  </clipPath>
</defs>
<path clip-path="url(#clip160)" d="M0 1600 L2400 1600 L2400 0 L0 0  Z" fill="#ffffff" fill-rule="evenodd" fill-opacity="1"/>
<defs>
  <clipPath id="clip161">
    <rect x="480" y="0" width="1681" height="1600"/>
  </clipPath>
</defs>
<path clip-path="url(#clip160)" d="M149.191 1423.18 L2352.76 1423.18 L2352.76 47.2441 L149.191 47.2441  Z" fill="#ffffff" fill-rule="evenodd" fill-opacity="1"/>
<defs>
  <clipPath id="clip162">
    <rect x="149" y="47" width="2205" height="1377"/>
  </clipPath>
</defs>
<polyline clip-path="url(#clip162)" style="stroke:#000000; stroke-linecap:round; stroke-linejoin:round; stroke-width:2; stroke-opacity:0.1; fill:none" points="149.191,1423.18 149.191,47.2441 "/>
<polyline clip-path="url(#clip162)" style="stroke:#000000; stroke-linecap:round; stroke-linejoin:round; stroke-width:2; stroke-opacity:0.1; fill:none" points="700.082,1423.18 700.082,47.2441 "/>
<polyline clip-path="url(#clip162)" style="stroke:#000000; stroke-linecap:round; stroke-linejoin:round; stroke-width:2; stroke-opacity:0.1; fill:none" points="1250.97,1423.18 1250.97,47.2441 "/>
<polyline clip-path="url(#clip162)" style="stroke:#000000; stroke-linecap:round; stroke-linejoin:round; stroke-width:2; stroke-opacity:0.1; fill:none" points="1801.86,1423.18 1801.86,47.2441 "/>
<polyline clip-path="url(#clip162)" style="stroke:#000000; stroke-linecap:round; stroke-linejoin:round; stroke-width:2; stroke-opacity:0.1; fill:none" points="2352.76,1423.18 2352.76,47.2441 "/>
<polyline clip-path="url(#clip160)" style="stroke:#000000; stroke-linecap:round; stroke-linejoin:round; stroke-width:4; stroke-opacity:1; fill:none" points="149.191,1423.18 2352.76,1423.18 "/>
<polyline clip-path="url(#clip160)" style="stroke:#000000; stroke-linecap:round; stroke-linejoin:round; stroke-width:4; stroke-opacity:1; fill:none" points="149.191,1423.18 149.191,1404.28 "/>
<polyline clip-path="url(#clip160)" style="stroke:#000000; stroke-linecap:round; stroke-linejoin:round; stroke-width:4; stroke-opacity:1; fill:none" points="700.082,1423.18 700.082,1404.28 "/>
<polyline clip-path="url(#clip160)" style="stroke:#000000; stroke-linecap:round; stroke-linejoin:round; stroke-width:4; stroke-opacity:1; fill:none" points="1250.97,1423.18 1250.97,1404.28 "/>
<polyline clip-path="url(#clip160)" style="stroke:#000000; stroke-linecap:round; stroke-linejoin:round; stroke-width:4; stroke-opacity:1; fill:none" points="1801.86,1423.18 1801.86,1404.28 "/>
<polyline clip-path="url(#clip160)" style="stroke:#000000; stroke-linecap:round; stroke-linejoin:round; stroke-width:4; stroke-opacity:1; fill:none" points="2352.76,1423.18 2352.76,1404.28 "/>
<path clip-path="url(#clip160)" d="M149.191 1454.1 Q145.58 1454.1 143.751 1457.66 Q141.946 1461.2 141.946 1468.33 Q141.946 1475.44 143.751 1479.01 Q145.58 1482.55 149.191 1482.55 Q152.825 1482.55 154.631 1479.01 Q156.459 1475.44 156.459 1468.33 Q156.459 1461.2 154.631 1457.66 Q152.825 1454.1 149.191 1454.1 M149.191 1450.39 Q155.001 1450.39 158.057 1455 Q161.135 1459.58 161.135 1468.33 Q161.135 1477.06 158.057 1481.67 Q155.001 1486.25 149.191 1486.25 Q143.381 1486.25 140.302 1481.67 Q137.246 1477.06 137.246 1468.33 Q137.246 1459.58 140.302 1455 Q143.381 1450.39 149.191 1450.39 Z" fill="#000000" fill-rule="nonzero" fill-opacity="1" /><path clip-path="url(#clip160)" d="M694.735 1481.64 L711.054 1481.64 L711.054 1485.58 L689.11 1485.58 L689.11 1481.64 Q691.772 1478.89 696.355 1474.26 Q700.962 1469.61 702.142 1468.27 Q704.388 1465.74 705.267 1464.01 Q706.17 1462.25 706.17 1460.56 Q706.17 1457.8 704.226 1456.07 Q702.304 1454.33 699.203 1454.33 Q697.003 1454.33 694.55 1455.09 Q692.119 1455.86 689.341 1457.41 L689.341 1452.69 Q692.166 1451.55 694.619 1450.97 Q697.073 1450.39 699.11 1450.39 Q704.48 1450.39 707.675 1453.08 Q710.869 1455.77 710.869 1460.26 Q710.869 1462.39 710.059 1464.31 Q709.272 1466.2 707.165 1468.8 Q706.587 1469.47 703.485 1472.69 Q700.383 1475.88 694.735 1481.64 Z" fill="#000000" fill-rule="nonzero" fill-opacity="1" /><path clip-path="url(#clip160)" d="M1253.98 1455.09 L1242.18 1473.54 L1253.98 1473.54 L1253.98 1455.09 M1252.76 1451.02 L1258.64 1451.02 L1258.64 1473.54 L1263.57 1473.54 L1263.57 1477.43 L1258.64 1477.43 L1258.64 1485.58 L1253.98 1485.58 L1253.98 1477.43 L1238.38 1477.43 L1238.38 1472.92 L1252.76 1451.02 Z" fill="#000000" fill-rule="nonzero" fill-opacity="1" /><path clip-path="url(#clip160)" d="M1802.27 1466.44 Q1799.12 1466.44 1797.27 1468.59 Q1795.44 1470.74 1795.44 1474.49 Q1795.44 1478.22 1797.27 1480.39 Q1799.12 1482.55 1802.27 1482.55 Q1805.42 1482.55 1807.25 1480.39 Q1809.1 1478.22 1809.1 1474.49 Q1809.1 1470.74 1807.25 1468.59 Q1805.42 1466.44 1802.27 1466.44 M1811.55 1451.78 L1811.55 1456.04 Q1809.79 1455.21 1807.99 1454.77 Q1806.2 1454.33 1804.45 1454.33 Q1799.82 1454.33 1797.36 1457.45 Q1794.93 1460.58 1794.58 1466.9 Q1795.95 1464.89 1798.01 1463.82 Q1800.07 1462.73 1802.55 1462.73 Q1807.76 1462.73 1810.77 1465.9 Q1813.8 1469.05 1813.8 1474.49 Q1813.8 1479.82 1810.65 1483.03 Q1807.5 1486.25 1802.27 1486.25 Q1796.27 1486.25 1793.1 1481.67 Q1789.93 1477.06 1789.93 1468.33 Q1789.93 1460.14 1793.82 1455.28 Q1797.71 1450.39 1804.26 1450.39 Q1806.02 1450.39 1807.8 1450.74 Q1809.61 1451.09 1811.55 1451.78 Z" fill="#000000" fill-rule="nonzero" fill-opacity="1" /><path clip-path="url(#clip160)" d="M2352.76 1469.17 Q2349.42 1469.17 2347.5 1470.95 Q2345.6 1472.73 2345.6 1475.86 Q2345.6 1478.98 2347.5 1480.77 Q2349.42 1482.55 2352.76 1482.55 Q2356.09 1482.55 2358.01 1480.77 Q2359.93 1478.96 2359.93 1475.86 Q2359.93 1472.73 2358.01 1470.95 Q2356.11 1469.17 2352.76 1469.17 M2348.08 1467.18 Q2345.07 1466.44 2343.38 1464.38 Q2341.71 1462.32 2341.71 1459.35 Q2341.71 1455.21 2344.65 1452.8 Q2347.62 1450.39 2352.76 1450.39 Q2357.92 1450.39 2360.86 1452.8 Q2363.8 1455.21 2363.8 1459.35 Q2363.8 1462.32 2362.11 1464.38 Q2360.44 1466.44 2357.45 1467.18 Q2360.83 1467.96 2362.71 1470.26 Q2364.61 1472.55 2364.61 1475.86 Q2364.61 1480.88 2361.53 1483.57 Q2358.47 1486.25 2352.76 1486.25 Q2347.04 1486.25 2343.96 1483.57 Q2340.9 1480.88 2340.9 1475.86 Q2340.9 1472.55 2342.8 1470.26 Q2344.7 1467.96 2348.08 1467.18 M2346.37 1459.79 Q2346.37 1462.48 2348.03 1463.98 Q2349.72 1465.49 2352.76 1465.49 Q2355.77 1465.49 2357.45 1463.98 Q2359.17 1462.48 2359.17 1459.79 Q2359.17 1457.11 2357.45 1455.6 Q2355.77 1454.1 2352.76 1454.1 Q2349.72 1454.1 2348.03 1455.6 Q2346.37 1457.11 2346.37 1459.79 Z" fill="#000000" fill-rule="nonzero" fill-opacity="1" /><path clip-path="url(#clip160)" d="M1250.03 1522.27 L1250.03 1532.4 L1262.1 1532.4 L1262.1 1536.95 L1250.03 1536.95 L1250.03 1556.3 Q1250.03 1560.66 1251.21 1561.9 Q1252.42 1563.14 1256.08 1563.14 L1262.1 1563.14 L1262.1 1568.04 L1256.08 1568.04 Q1249.3 1568.04 1246.72 1565.53 Q1244.15 1562.98 1244.15 1556.3 L1244.15 1536.95 L1239.85 1536.95 L1239.85 1532.4 L1244.15 1532.4 L1244.15 1522.27 L1250.03 1522.27 Z" fill="#000000" fill-rule="nonzero" fill-opacity="1" /><polyline clip-path="url(#clip162)" style="stroke:#000000; stroke-linecap:round; stroke-linejoin:round; stroke-width:2; stroke-opacity:0.1; fill:none" points="149.191,1423.18 2352.76,1423.18 "/>
<polyline clip-path="url(#clip162)" style="stroke:#000000; stroke-linecap:round; stroke-linejoin:round; stroke-width:2; stroke-opacity:0.1; fill:none" points="149.191,1193.86 2352.76,1193.86 "/>
<polyline clip-path="url(#clip162)" style="stroke:#000000; stroke-linecap:round; stroke-linejoin:round; stroke-width:2; stroke-opacity:0.1; fill:none" points="149.191,964.535 2352.76,964.535 "/>
<polyline clip-path="url(#clip162)" style="stroke:#000000; stroke-linecap:round; stroke-linejoin:round; stroke-width:2; stroke-opacity:0.1; fill:none" points="149.191,735.212 2352.76,735.212 "/>
<polyline clip-path="url(#clip162)" style="stroke:#000000; stroke-linecap:round; stroke-linejoin:round; stroke-width:2; stroke-opacity:0.1; fill:none" points="149.191,505.889 2352.76,505.889 "/>
<polyline clip-path="url(#clip162)" style="stroke:#000000; stroke-linecap:round; stroke-linejoin:round; stroke-width:2; stroke-opacity:0.1; fill:none" points="149.191,276.567 2352.76,276.567 "/>
<polyline clip-path="url(#clip162)" style="stroke:#000000; stroke-linecap:round; stroke-linejoin:round; stroke-width:2; stroke-opacity:0.1; fill:none" points="149.191,47.2441 2352.76,47.2441 "/>
<polyline clip-path="url(#clip160)" style="stroke:#000000; stroke-linecap:round; stroke-linejoin:round; stroke-width:4; stroke-opacity:1; fill:none" points="149.191,1423.18 149.191,47.2441 "/>
<polyline clip-path="url(#clip160)" style="stroke:#000000; stroke-linecap:round; stroke-linejoin:round; stroke-width:4; stroke-opacity:1; fill:none" points="149.191,1423.18 168.089,1423.18 "/>
<polyline clip-path="url(#clip160)" style="stroke:#000000; stroke-linecap:round; stroke-linejoin:round; stroke-width:4; stroke-opacity:1; fill:none" points="149.191,1193.86 168.089,1193.86 "/>
<polyline clip-path="url(#clip160)" style="stroke:#000000; stroke-linecap:round; stroke-linejoin:round; stroke-width:4; stroke-opacity:1; fill:none" points="149.191,964.535 168.089,964.535 "/>
<polyline clip-path="url(#clip160)" style="stroke:#000000; stroke-linecap:round; stroke-linejoin:round; stroke-width:4; stroke-opacity:1; fill:none" points="149.191,735.212 168.089,735.212 "/>
<polyline clip-path="url(#clip160)" style="stroke:#000000; stroke-linecap:round; stroke-linejoin:round; stroke-width:4; stroke-opacity:1; fill:none" points="149.191,505.889 168.089,505.889 "/>
<polyline clip-path="url(#clip160)" style="stroke:#000000; stroke-linecap:round; stroke-linejoin:round; stroke-width:4; stroke-opacity:1; fill:none" points="149.191,276.567 168.089,276.567 "/>
<polyline clip-path="url(#clip160)" style="stroke:#000000; stroke-linecap:round; stroke-linejoin:round; stroke-width:4; stroke-opacity:1; fill:none" points="149.191,47.2441 168.089,47.2441 "/>
<path clip-path="url(#clip160)" d="M51.3162 1423.63 L80.992 1423.63 L80.992 1427.57 L51.3162 1427.57 L51.3162 1423.63 Z" fill="#000000" fill-rule="nonzero" fill-opacity="1" /><path clip-path="url(#clip160)" d="M101.663 1421.32 Q98.515 1421.32 96.6632 1423.47 Q94.8345 1425.62 94.8345 1429.37 Q94.8345 1433.1 96.6632 1435.27 Q98.515 1437.43 101.663 1437.43 Q104.811 1437.43 106.64 1435.27 Q108.492 1433.1 108.492 1429.37 Q108.492 1425.62 106.64 1423.47 Q104.811 1421.32 101.663 1421.32 M110.946 1406.66 L110.946 1410.92 Q109.186 1410.09 107.381 1409.65 Q105.598 1409.21 103.839 1409.21 Q99.2095 1409.21 96.7558 1412.33 Q94.3252 1415.46 93.978 1421.78 Q95.3437 1419.77 97.4039 1418.7 Q99.4641 1417.61 101.941 1417.61 Q107.149 1417.61 110.158 1420.78 Q113.191 1423.93 113.191 1429.37 Q113.191 1434.7 110.043 1437.91 Q106.895 1441.13 101.663 1441.13 Q95.6678 1441.13 92.4965 1436.55 Q89.3253 1431.94 89.3253 1423.21 Q89.3253 1415.02 93.2141 1410.16 Q97.103 1405.27 103.654 1405.27 Q105.413 1405.27 107.196 1405.62 Q109.001 1405.97 110.946 1406.66 Z" fill="#000000" fill-rule="nonzero" fill-opacity="1" /><path clip-path="url(#clip160)" d="M50.9921 1194.31 L80.6679 1194.31 L80.6679 1198.24 L50.9921 1198.24 L50.9921 1194.31 Z" fill="#000000" fill-rule="nonzero" fill-opacity="1" /><path clip-path="url(#clip160)" d="M103.608 1180.65 L91.8021 1199.1 L103.608 1199.1 L103.608 1180.65 M102.381 1176.58 L108.26 1176.58 L108.26 1199.1 L113.191 1199.1 L113.191 1202.99 L108.26 1202.99 L108.26 1211.14 L103.608 1211.14 L103.608 1202.99 L88.0058 1202.99 L88.0058 1198.48 L102.381 1176.58 Z" fill="#000000" fill-rule="nonzero" fill-opacity="1" /><path clip-path="url(#clip160)" d="M53.0754 964.986 L82.7512 964.986 L82.7512 968.921 L53.0754 968.921 L53.0754 964.986 Z" fill="#000000" fill-rule="nonzero" fill-opacity="1" /><path clip-path="url(#clip160)" d="M96.8715 977.879 L113.191 977.879 L113.191 981.815 L91.2465 981.815 L91.2465 977.879 Q93.9086 975.125 98.4919 970.495 Q103.098 965.842 104.279 964.5 Q106.524 961.977 107.404 960.241 Q108.307 958.481 108.307 956.792 Q108.307 954.037 106.362 952.301 Q104.441 950.565 101.339 950.565 Q99.14 950.565 96.6863 951.329 Q94.2558 952.093 91.478 953.643 L91.478 948.921 Q94.3021 947.787 96.7558 947.208 Q99.2095 946.63 101.246 946.63 Q106.617 946.63 109.811 949.315 Q113.006 952 113.006 956.491 Q113.006 958.62 112.196 960.542 Q111.408 962.44 109.302 965.032 Q108.723 965.704 105.621 968.921 Q102.52 972.116 96.8715 977.879 Z" fill="#000000" fill-rule="nonzero" fill-opacity="1" /><path clip-path="url(#clip160)" d="M101.246 721.011 Q97.6354 721.011 95.8067 724.575 Q94.0012 728.117 94.0012 735.247 Q94.0012 742.353 95.8067 745.918 Q97.6354 749.46 101.246 749.46 Q104.881 749.46 106.686 745.918 Q108.515 742.353 108.515 735.247 Q108.515 728.117 106.686 724.575 Q104.881 721.011 101.246 721.011 M101.246 717.307 Q107.057 717.307 110.112 721.913 Q113.191 726.497 113.191 735.247 Q113.191 743.973 110.112 748.58 Q107.057 753.163 101.246 753.163 Q95.4363 753.163 92.3576 748.58 Q89.3021 743.973 89.3021 735.247 Q89.3021 726.497 92.3576 721.913 Q95.4363 717.307 101.246 717.307 Z" fill="#000000" fill-rule="nonzero" fill-opacity="1" /><path clip-path="url(#clip160)" d="M96.8715 519.234 L113.191 519.234 L113.191 523.169 L91.2465 523.169 L91.2465 519.234 Q93.9086 516.48 98.4919 511.85 Q103.098 507.197 104.279 505.855 Q106.524 503.331 107.404 501.595 Q108.307 499.836 108.307 498.146 Q108.307 495.392 106.362 493.656 Q104.441 491.92 101.339 491.92 Q99.14 491.92 96.6863 492.683 Q94.2558 493.447 91.478 494.998 L91.478 490.276 Q94.3021 489.142 96.7558 488.563 Q99.2095 487.984 101.246 487.984 Q106.617 487.984 109.811 490.67 Q113.006 493.355 113.006 497.845 Q113.006 499.975 112.196 501.896 Q111.408 503.794 109.302 506.387 Q108.723 507.058 105.621 510.276 Q102.52 513.47 96.8715 519.234 Z" fill="#000000" fill-rule="nonzero" fill-opacity="1" /><path clip-path="url(#clip160)" d="M103.608 263.361 L91.8021 281.81 L103.608 281.81 L103.608 263.361 M102.381 259.287 L108.26 259.287 L108.26 281.81 L113.191 281.81 L113.191 285.699 L108.26 285.699 L108.26 293.847 L103.608 293.847 L103.608 285.699 L88.0058 285.699 L88.0058 281.185 L102.381 259.287 Z" fill="#000000" fill-rule="nonzero" fill-opacity="1" /><path clip-path="url(#clip160)" d="M101.663 45.3807 Q98.515 45.3807 96.6632 47.5334 Q94.8345 49.6862 94.8345 53.4362 Q94.8345 57.163 96.6632 59.3389 Q98.515 61.4917 101.663 61.4917 Q104.811 61.4917 106.64 59.3389 Q108.492 57.163 108.492 53.4362 Q108.492 49.6862 106.64 47.5334 Q104.811 45.3807 101.663 45.3807 M110.946 30.728 L110.946 34.9872 Q109.186 34.1539 107.381 33.7141 Q105.598 33.2743 103.839 33.2743 Q99.2095 33.2743 96.7558 36.3992 Q94.3252 39.5242 93.978 45.8436 Q95.3437 43.8298 97.4039 42.765 Q99.4641 41.677 101.941 41.677 Q107.149 41.677 110.158 44.8483 Q113.191 47.9964 113.191 53.4362 Q113.191 58.7602 110.043 61.9778 Q106.895 65.1954 101.663 65.1954 Q95.6678 65.1954 92.4965 60.6121 Q89.3253 56.0056 89.3253 47.2788 Q89.3253 39.0844 93.2141 34.2233 Q97.103 29.3391 103.654 29.3391 Q105.413 29.3391 107.196 29.6863 Q109.001 30.0335 110.946 30.728 Z" fill="#000000" fill-rule="nonzero" fill-opacity="1" /><polyline clip-path="url(#clip162)" style="stroke:#009af9; stroke-linecap:round; stroke-linejoin:round; stroke-width:12; stroke-opacity:1; fill:none" points="149.191,1193.86 151.945,1193.09 154.7,1191.04 157.454,1188.04 160.209,1184.36 162.963,1180.19 165.718,1175.67 168.472,1170.93 171.227,1166.02 173.981,1161.01 176.735,1155.93 179.49,1150.81 182.244,1145.67 184.999,1140.51 187.753,1135.34 190.508,1130.16 193.262,1124.99 196.017,1119.81 198.771,1114.63 201.526,1109.46 204.28,1104.28 207.034,1099.1 209.789,1093.93 212.543,1088.75 215.298,1083.57 218.052,1078.4 220.807,1073.22 223.561,1068.04 226.316,1062.87 229.07,1057.7 231.825,1052.53 234.579,1047.37 237.333,1042.21 240.088,1037.05 242.842,1031.9 245.597,1026.76 248.351,1021.63 251.106,1016.5 253.86,1011.38 256.615,1006.27 259.369,1001.18 262.124,996.094 264.878,991.022 267.632,985.965 270.387,980.921 273.141,975.894 275.896,970.883 278.65,965.889 281.405,960.912 284.159,955.955 286.914,951.017 289.668,946.099 292.423,941.202 295.177,936.326 297.932,931.473 300.686,926.642 303.44,921.835 306.195,917.052 308.949,912.293 311.704,907.56 314.458,902.852 317.213,898.17 319.967,893.514 322.722,888.885 325.476,884.283 328.231,879.709 330.985,875.162 333.739,870.644 336.494,866.154 339.248,861.692 342.003,857.26 344.757,852.857 347.512,848.483 350.266,844.138 353.021,839.824 355.775,835.539 358.53,831.284 361.284,827.059 364.038,822.863 366.793,818.699 369.547,814.564 372.302,810.459 375.056,806.385 377.811,802.341 380.565,798.328 383.32,794.344 386.074,790.391 388.829,786.468 391.583,782.575 394.337,778.712 397.092,774.879 399.846,771.075 402.601,767.302 405.355,763.558 408.11,759.844 410.864,756.16 413.619,752.504 416.373,748.878 419.128,745.282 421.882,741.714 424.636,738.175 427.391,734.665 430.145,731.184 432.9,727.731 435.654,724.306 438.409,720.909 441.163,717.541 443.918,714.199 446.672,710.886 449.427,707.6 452.181,704.341 454.936,701.109 457.69,697.904 460.444,694.726 463.199,691.574 465.953,688.448 468.708,685.349 471.462,682.275 474.217,679.228 476.971,676.205 479.726,673.208 482.48,670.236 485.235,667.289 487.989,664.367 490.743,661.47 493.498,658.597 496.252,655.748 499.007,652.923 501.761,650.121 504.516,647.344 507.27,644.59 510.025,641.859 512.779,639.151 515.534,636.466 518.288,633.804 521.042,631.164 523.797,628.546 526.551,625.951 529.306,623.377 532.06,620.825 534.815,618.295 537.569,615.786 540.324,613.298 543.078,610.831 545.833,608.385 548.587,605.96 551.341,603.555 554.096,601.17 556.85,598.805 559.605,596.46 562.359,594.135 565.114,591.83 567.868,589.544 570.623,587.277 573.377,585.03 576.132,582.801 578.886,580.591 581.641,578.399 584.395,576.226 587.149,574.071 589.904,571.935 592.658,569.816 595.413,567.715 598.167,565.632 600.922,563.566 603.676,561.517 606.431,559.486 609.185,557.471 611.94,555.474 614.694,553.493 617.448,551.529 620.203,549.581 622.957,547.65 625.712,545.734 628.466,543.835 631.221,541.952 633.975,540.084 636.73,538.232 639.484,536.395 642.239,534.574 644.993,532.768 647.747,530.977 650.502,529.2 653.256,527.439 656.011,525.692 658.765,523.96 661.52,522.242 664.274,520.539 667.029,518.849 669.783,517.174 672.538,515.513 675.292,513.865 678.046,512.231 680.801,510.611 683.555,509.004 686.31,507.41 689.064,505.83 691.819,504.262 694.573,502.708 697.328,501.167 700.082,499.638 702.837,498.122 705.591,496.618 708.345,495.127 711.1,493.649 713.854,492.182 716.609,490.728 719.363,489.285 722.118,487.855 724.872,486.436 727.627,485.029 730.381,483.634 733.136,482.25 735.89,480.877 738.645,479.516 741.399,478.166 744.153,476.827 746.908,475.5 749.662,474.183 752.417,472.877 755.171,471.581 757.926,470.296 760.68,469.022 763.435,467.758 766.189,466.505 768.944,465.262 771.698,464.029 774.452,462.806 777.207,461.593 779.961,460.389 782.716,459.196 785.47,458.013 788.225,456.839 790.979,455.674 793.734,454.519 796.488,453.374 799.243,452.238 801.997,451.11 804.751,449.993 807.506,448.884 810.26,447.784 813.015,446.693 815.769,445.611 818.524,444.537 821.278,443.473 824.033,442.416 826.787,441.369 829.542,440.33 832.296,439.299 835.05,438.276 837.805,437.262 840.559,436.256 843.314,435.257 846.068,434.268 848.823,433.285 851.577,432.311 854.332,431.344 857.086,430.386 859.841,429.435 862.595,428.491 865.349,427.555 868.104,426.626 870.858,425.705 873.613,424.791 876.367,423.884 879.122,422.985 881.876,422.092 884.631,421.207 887.385,420.328 890.14,419.457 892.894,418.592 895.649,417.734 898.403,416.883 901.157,416.039 903.912,415.201 906.666,414.37 909.421,413.545 912.175,412.726 914.93,411.914 917.684,411.108 920.439,410.309 923.193,409.516 925.948,408.728 928.702,407.947 931.456,407.172 934.211,406.403 936.965,405.64 939.72,404.882 942.474,404.131 945.229,403.385 947.983,402.645 950.738,401.91 953.492,401.181 956.247,400.458 959.001,399.74 961.755,399.027 964.51,398.32 967.264,397.618 970.019,396.921 972.773,396.23 975.528,395.544 978.282,394.863 981.037,394.187 983.791,393.515 986.546,392.849 989.3,392.188 992.054,391.532 994.809,390.88 997.563,390.234 1000.32,389.592 1003.07,388.954 1005.83,388.322 1008.58,387.694 1011.34,387.07 1014.09,386.451 1016.84,385.836 1019.6,385.226 1022.35,384.62 1025.11,384.019 1027.86,383.422 1030.62,382.829 1033.37,382.24 1036.13,381.656 1038.88,381.075 1041.63,380.499 1044.39,379.927 1047.14,379.358 1049.9,378.794 1052.65,378.233 1055.41,377.677 1058.16,377.124 1060.92,376.575 1063.67,376.03 1066.42,375.489 1069.18,374.951 1071.93,374.417 1074.69,373.887 1077.44,373.36 1080.2,372.837 1082.95,372.317 1085.71,371.801 1088.46,371.288 1091.21,370.779 1093.97,370.273 1096.72,369.77 1099.48,369.271 1102.23,368.774 1104.99,368.282 1107.74,367.792 1110.5,367.305 1113.25,366.822 1116.01,366.342 1118.76,365.865 1121.51,365.391 1124.27,364.92 1127.02,364.451 1129.78,363.986 1132.53,363.524 1135.29,363.065 1138.04,362.609 1140.8,362.155 1143.55,361.704 1146.3,361.256 1149.06,360.811 1151.81,360.369 1154.57,359.929 1157.32,359.492 1160.08,359.058 1162.83,358.626 1165.59,358.197 1168.34,357.771 1171.09,357.347 1173.85,356.925 1176.6,356.506 1179.36,356.09 1182.11,355.676 1184.87,355.264 1187.62,354.855 1190.38,354.448 1193.13,354.044 1195.88,353.641 1198.64,353.242 1201.39,352.844 1204.15,352.449 1206.9,352.055 1209.66,351.665 1212.41,351.276 1215.17,350.889 1217.92,350.505 1220.67,350.122 1223.43,349.742 1226.18,349.364 1228.94,348.988 1231.69,348.614 1234.45,348.242 1237.2,347.872 1239.96,347.504 1242.71,347.138 1245.46,346.773 1248.22,346.411 1250.97,346.05 1253.73,345.692 1256.48,345.335 1259.24,344.98 1261.99,344.627 1264.75,344.276 1267.5,343.926 1270.25,343.578 1273.01,343.232 1275.76,342.888 1278.52,342.545 1281.27,342.204 1284.03,341.865 1286.78,341.527 1289.54,341.191 1292.29,340.856 1295.04,340.524 1297.8,340.192 1300.55,339.863 1303.31,339.534 1306.06,339.208 1308.82,338.882 1311.57,338.559 1314.33,338.237 1317.08,337.916 1319.83,337.597 1322.59,337.279 1325.34,336.962 1328.1,336.647 1330.85,336.334 1333.61,336.022 1336.36,335.711 1339.12,335.401 1341.87,335.093 1344.62,334.786 1347.38,334.481 1350.13,334.177 1352.89,333.874 1355.64,333.572 1358.4,333.272 1361.15,332.973 1363.91,332.675 1366.66,332.378 1369.41,332.083 1372.17,331.789 1374.92,331.496 1377.68,331.204 1380.43,330.914 1383.19,330.624 1385.94,330.336 1388.7,330.049 1391.45,329.763 1394.21,329.478 1396.96,329.195 1399.71,328.912 1402.47,328.631 1405.22,328.35 1407.98,328.071 1410.73,327.793 1413.49,327.515 1416.24,327.239 1419,326.964 1421.75,326.69 1424.5,326.416 1427.26,326.144 1430.01,325.873 1432.77,325.603 1435.52,325.333 1438.28,325.065 1441.03,324.798 1443.79,324.531 1446.54,324.266 1449.29,324.001 1452.05,323.737 1454.8,323.475 1457.56,323.213 1460.31,322.952 1463.07,322.692 1465.82,322.432 1468.58,322.174 1471.33,321.916 1474.08,321.66 1476.84,321.404 1479.59,321.149 1482.35,320.895 1485.1,320.641 1487.86,320.389 1490.61,320.137 1493.37,319.886 1496.12,319.636 1498.87,319.387 1501.63,319.138 1504.38,318.89 1507.14,318.643 1509.89,318.397 1512.65,318.151 1515.4,317.906 1518.16,317.662 1520.91,317.419 1523.66,317.176 1526.42,316.934 1529.17,316.693 1531.93,316.452 1534.68,316.212 1537.44,315.973 1540.19,315.734 1542.95,315.496 1545.7,315.259 1548.45,315.022 1551.21,314.786 1553.96,314.551 1556.72,314.317 1559.47,314.083 1562.23,313.849 1564.98,313.616 1567.74,313.384 1570.49,313.153 1573.24,312.922 1576,312.691 1578.75,312.462 1581.51,312.232 1584.26,312.004 1587.02,311.776 1589.77,311.548 1592.53,311.321 1595.28,311.095 1598.03,310.869 1600.79,310.644 1603.54,310.419 1606.3,310.195 1609.05,309.972 1611.81,309.749 1614.56,309.526 1617.32,309.304 1620.07,309.083 1622.82,308.862 1625.58,308.641 1628.33,308.421 1631.09,308.202 1633.84,307.983 1636.6,307.764 1639.35,307.546 1642.11,307.329 1644.86,307.112 1647.62,306.895 1650.37,306.679 1653.12,306.463 1655.88,306.248 1658.63,306.033 1661.39,305.819 1664.14,305.605 1666.9,305.392 1669.65,305.179 1672.41,304.967 1675.16,304.755 1677.91,304.543 1680.67,304.332 1683.42,304.121 1686.18,303.911 1688.93,303.701 1691.69,303.492 1694.44,303.283 1697.2,303.074 1699.95,302.866 1702.7,302.658 1705.46,302.451 1708.21,302.244 1710.97,302.037 1713.72,301.831 1716.48,301.625 1719.23,301.42 1721.99,301.215 1724.74,301.01 1727.49,300.806 1730.25,300.602 1733,300.399 1735.76,300.196 1738.51,299.993 1741.27,299.791 1744.02,299.589 1746.78,299.387 1749.53,299.186 1752.28,298.985 1755.04,298.785 1757.79,298.584 1760.55,298.385 1763.3,298.185 1766.06,297.986 1768.81,297.787 1771.57,297.589 1774.32,297.391 1777.07,297.193 1779.83,296.995 1782.58,296.798 1785.34,296.601 1788.09,296.405 1790.85,296.208 1793.6,296.013 1796.36,295.817 1799.11,295.622 1801.86,295.427 1804.62,295.232 1807.37,295.038 1810.13,294.844 1812.88,294.65 1815.64,294.457 1818.39,294.264 1821.15,294.071 1823.9,293.878 1826.65,293.686 1829.41,293.494 1832.16,293.302 1834.92,293.111 1837.67,292.92 1840.43,292.729 1843.18,292.539 1845.94,292.348 1848.69,292.158 1851.44,291.969 1854.2,291.779 1856.95,291.59 1859.71,291.401 1862.46,291.213 1865.22,291.024 1867.97,290.836 1870.73,290.648 1873.48,290.461 1876.23,290.273 1878.99,290.086 1881.74,289.899 1884.5,289.713 1887.25,289.527 1890.01,289.34 1892.76,289.155 1895.52,288.969 1898.27,288.784 1901.03,288.599 1903.78,288.414 1906.53,288.229 1909.29,288.045 1912.04,287.861 1914.8,287.677 1917.55,287.493 1920.31,287.31 1923.06,287.126 1925.82,286.943 1928.57,286.761 1931.32,286.578 1934.08,286.396 1936.83,286.214 1939.59,286.032 1942.34,285.85 1945.1,285.668 1947.85,285.487 1950.61,285.306 1953.36,285.125 1956.11,284.945 1958.87,284.764 1961.62,284.584 1964.38,284.404 1967.13,284.224 1969.89,284.045 1972.64,283.865 1975.4,283.686 1978.15,283.507 1980.9,283.328 1983.66,283.15 1986.41,282.971 1989.17,282.793 1991.92,282.615 1994.68,282.437 1997.43,282.26 2000.19,282.082 2002.94,281.905 2005.69,281.728 2008.45,281.551 2011.2,281.374 2013.96,281.198 2016.71,281.022 2019.47,280.845 2022.22,280.669 2024.98,280.494 2027.73,280.318 2030.48,280.143 2033.24,279.967 2035.99,279.792 2038.75,279.617 2041.5,279.443 2044.26,279.268 2047.01,279.094 2049.77,278.92 2052.52,278.746 2055.27,278.572 2058.03,278.398 2060.78,278.225 2063.54,278.051 2066.29,277.878 2069.05,277.705 2071.8,277.532 2074.56,277.36 2077.31,277.187 2080.06,277.015 2082.82,276.842 2085.57,276.67 2088.33,276.498 2091.08,276.327 2093.84,276.155 2096.59,275.984 2099.35,275.813 2102.1,275.641 2104.85,275.471 2107.61,275.3 2110.36,275.129 2113.12,274.959 2115.87,274.788 2118.63,274.618 2121.38,274.448 2124.14,274.278 2126.89,274.109 2129.64,273.939 2132.4,273.77 2135.15,273.6 2137.91,273.431 2140.66,273.262 2143.42,273.093 2146.17,272.924 2148.93,272.756 2151.68,272.587 2154.44,272.419 2157.19,272.251 2159.94,272.083 2162.7,271.915 2165.45,271.747 2168.21,271.58 2170.96,271.412 2173.72,271.245 2176.47,271.078 2179.23,270.911 2181.98,270.744 2184.73,270.577 2187.49,270.41 2190.24,270.243 2193,270.077 2195.75,269.911 2198.51,269.745 2201.26,269.578 2204.02,269.413 2206.77,269.247 2209.52,269.081 2212.28,268.915 2215.03,268.75 2217.79,268.585 2220.54,268.42 2223.3,268.255 2226.05,268.09 2228.81,267.925 2231.56,267.76 2234.31,267.595 2237.07,267.431 2239.82,267.267 2242.58,267.102 2245.33,266.938 2248.09,266.774 2250.84,266.61 2253.6,266.447 2256.35,266.283 2259.1,266.119 2261.86,265.956 2264.61,265.793 2267.37,265.63 2270.12,265.466 2272.88,265.303 2275.63,265.141 2278.39,264.978 2281.14,264.815 2283.89,264.653 2286.65,264.49 2289.4,264.328 2292.16,264.166 2294.91,264.004 2297.67,263.842 2300.42,263.68 2303.18,263.518 2305.93,263.356 2308.68,263.195 2311.44,263.033 2314.19,262.872 2316.95,262.711 2319.7,262.549 2322.46,262.388 2325.21,262.227 2327.97,262.066 2330.72,261.906 2333.47,261.745 2336.23,261.584 2338.98,261.424 2341.74,261.264 2344.49,261.103 2347.25,260.943 2350,260.783 2352.76,260.623 "/>
<polyline clip-path="url(#clip162)" style="stroke:#e26f46; stroke-linecap:round; stroke-linejoin:round; stroke-width:12; stroke-opacity:1; fill:none" points="149.191,735.212 151.945,588.058 154.7,478.093 157.454,397.527 160.209,339.633 162.963,298.825 165.718,270.593 168.472,251.423 171.227,238.668 173.981,230.36 176.735,225.058 179.49,221.764 182.244,219.794 184.999,218.662 187.753,218.033 190.508,217.709 193.262,217.559 196.017,217.504 198.771,217.49 201.526,217.487 204.28,217.485 207.034,217.484 209.789,217.487 212.543,217.502 215.298,217.535 218.052,217.595 220.807,217.69 223.561,217.829 226.316,218.019 229.07,218.269 231.825,218.584 234.579,218.969 237.333,219.43 240.088,219.969 242.842,220.591 245.597,221.298 248.351,222.093 251.106,222.976 253.86,223.949 256.615,225.012 259.369,226.165 262.124,227.408 264.878,228.74 267.632,230.159 270.387,231.665 273.141,233.254 275.896,234.926 278.65,236.679 281.405,238.51 284.159,240.416 286.914,242.397 289.668,244.449 292.423,246.57 295.177,248.758 297.932,251.009 300.686,253.32 303.44,255.69 306.195,258.115 308.949,260.591 311.704,263.118 314.458,265.691 317.213,268.308 319.967,270.967 322.722,273.665 325.476,276.399 328.231,279.167 330.985,281.966 333.739,284.794 336.494,287.649 339.248,290.529 342.003,293.431 344.757,296.353 347.512,299.294 350.266,302.25 353.021,305.221 355.775,308.205 358.53,311.199 361.284,314.202 364.038,317.213 366.793,320.23 369.547,323.251 372.302,326.274 375.056,329.299 377.811,332.324 380.565,335.348 383.32,338.37 386.074,341.388 388.829,344.401 391.583,347.41 394.337,350.412 397.092,353.406 399.846,356.393 402.601,359.37 405.355,362.338 408.11,365.294 410.864,368.24 413.619,371.173 416.373,374.094 419.128,377.001 421.882,379.894 424.636,382.773 427.391,385.637 430.145,388.485 432.9,391.317 435.654,394.134 438.409,396.933 441.163,399.716 443.918,402.481 446.672,405.229 449.427,407.96 452.181,410.673 454.936,413.367 457.69,416.043 460.444,418.701 463.199,421.34 465.953,423.96 468.708,426.561 471.462,429.143 474.217,431.707 476.971,434.251 479.726,436.776 482.48,439.282 485.235,441.768 487.989,444.235 490.743,446.683 493.498,449.112 496.252,451.521 499.007,453.911 501.761,456.282 504.516,458.633 507.27,460.965 510.025,463.278 512.779,465.572 515.534,467.847 518.288,470.103 521.042,472.34 523.797,474.558 526.551,476.757 529.306,478.938 532.06,481.1 534.815,483.243 537.569,485.369 540.324,487.476 543.078,489.566 545.833,491.637 548.587,493.691 551.341,495.726 554.096,497.744 556.85,499.745 559.605,501.728 562.359,503.695 565.114,505.644 567.868,507.576 570.623,509.491 573.377,511.39 576.132,513.272 578.886,515.138 581.641,516.988 584.395,518.822 587.149,520.639 589.904,522.441 592.658,524.227 595.413,525.998 598.167,527.753 600.922,529.492 603.676,531.217 606.431,532.926 609.185,534.621 611.94,536.301 614.694,537.966 617.448,539.617 620.203,541.253 622.957,542.875 625.712,544.482 628.466,546.076 631.221,547.656 633.975,549.222 636.73,550.774 639.484,552.313 642.239,553.838 644.993,555.35 647.747,556.849 650.502,558.335 653.256,559.808 656.011,561.268 658.765,562.715 661.52,564.15 664.274,565.572 667.029,566.983 669.783,568.38 672.538,569.766 675.292,571.14 678.046,572.502 680.801,573.852 683.555,575.19 686.31,576.517 689.064,577.833 691.819,579.137 694.573,580.429 697.328,581.711 700.082,582.981 702.837,584.24 705.591,585.489 708.345,586.726 711.1,587.953 713.854,589.169 716.609,590.375 719.363,591.57 722.118,592.755 724.872,593.93 727.627,595.094 730.381,596.248 733.136,597.392 735.89,598.526 738.645,599.651 741.399,600.765 744.153,601.87 746.908,602.965 749.662,604.051 752.417,605.127 755.171,606.194 757.926,607.252 760.68,608.3 763.435,609.339 766.189,610.369 768.944,611.39 771.698,612.402 774.452,613.406 777.207,614.4 779.961,615.386 782.716,616.363 785.47,617.332 788.225,618.292 790.979,619.243 793.734,620.187 796.488,621.122 799.243,622.048 801.997,622.967 804.751,623.877 807.506,624.78 810.26,625.674 813.015,626.561 815.769,627.44 818.524,628.311 821.278,629.174 824.033,630.03 826.787,630.877 829.542,631.718 832.296,632.551 835.05,633.376 837.805,634.194 840.559,635.005 843.314,635.809 846.068,636.605 848.823,637.394 851.577,638.176 854.332,638.951 857.086,639.719 859.841,640.48 862.595,641.234 865.349,641.981 868.104,642.722 870.858,643.455 873.613,644.183 876.367,644.903 879.122,645.617 881.876,646.324 884.631,647.025 887.385,647.72 890.14,648.408 892.894,649.09 895.649,649.765 898.403,650.434 901.157,651.098 903.912,651.755 906.666,652.405 909.421,653.05 912.175,653.689 914.93,654.322 917.684,654.949 920.439,655.57 923.193,656.186 925.948,656.796 928.702,657.4 931.456,657.998 934.211,658.591 936.965,659.178 939.72,659.759 942.474,660.336 945.229,660.906 947.983,661.472 950.738,662.032 953.492,662.586 956.247,663.136 959.001,663.68 961.755,664.219 964.51,664.753 967.264,665.281 970.019,665.805 972.773,666.324 975.528,666.838 978.282,667.346 981.037,667.85 983.791,668.35 986.546,668.844 989.3,669.333 992.054,669.818 994.809,670.298 997.563,670.774 1000.32,671.245 1003.07,671.711 1005.83,672.173 1008.58,672.63 1011.34,673.083 1014.09,673.532 1016.84,673.976 1019.6,674.416 1022.35,674.851 1025.11,675.283 1027.86,675.71 1030.62,676.132 1033.37,676.551 1036.13,676.966 1038.88,677.376 1041.63,677.783 1044.39,678.185 1047.14,678.583 1049.9,678.978 1052.65,679.369 1055.41,679.756 1058.16,680.138 1060.92,680.518 1063.67,680.893 1066.42,681.265 1069.18,681.633 1071.93,681.997 1074.69,682.357 1077.44,682.715 1080.2,683.068 1082.95,683.418 1085.71,683.764 1088.46,684.107 1091.21,684.447 1093.97,684.783 1096.72,685.116 1099.48,685.445 1102.23,685.772 1104.99,686.095 1107.74,686.414 1110.5,686.731 1113.25,687.044 1116.01,687.354 1118.76,687.661 1121.51,687.965 1124.27,688.265 1127.02,688.563 1129.78,688.858 1132.53,689.15 1135.29,689.438 1138.04,689.724 1140.8,690.007 1143.55,690.287 1146.3,690.565 1149.06,690.839 1151.81,691.111 1154.57,691.379 1157.32,691.646 1160.08,691.909 1162.83,692.17 1165.59,692.428 1168.34,692.683 1171.09,692.936 1173.85,693.186 1176.6,693.434 1179.36,693.679 1182.11,693.922 1184.87,694.162 1187.62,694.4 1190.38,694.635 1193.13,694.868 1195.88,695.099 1198.64,695.327 1201.39,695.553 1204.15,695.776 1206.9,695.997 1209.66,696.216 1212.41,696.433 1215.17,696.648 1217.92,696.86 1220.67,697.07 1223.43,697.278 1226.18,697.484 1228.94,697.688 1231.69,697.89 1234.45,698.089 1237.2,698.287 1239.96,698.482 1242.71,698.676 1245.46,698.868 1248.22,699.057 1250.97,699.245 1253.73,699.431 1256.48,699.615 1259.24,699.797 1261.99,699.977 1264.75,700.155 1267.5,700.332 1270.25,700.507 1273.01,700.68 1275.76,700.851 1278.52,701.02 1281.27,701.188 1284.03,701.354 1286.78,701.519 1289.54,701.681 1292.29,701.842 1295.04,702.002 1297.8,702.16 1300.55,702.316 1303.31,702.471 1306.06,702.624 1308.82,702.775 1311.57,702.925 1314.33,703.074 1317.08,703.221 1319.83,703.366 1322.59,703.51 1325.34,703.653 1328.1,703.794 1330.85,703.934 1333.61,704.073 1336.36,704.21 1339.12,704.345 1341.87,704.479 1344.62,704.612 1347.38,704.744 1350.13,704.874 1352.89,705.003 1355.64,705.131 1358.4,705.258 1361.15,705.383 1363.91,705.507 1366.66,705.629 1369.41,705.751 1372.17,705.871 1374.92,705.99 1377.68,706.108 1380.43,706.225 1383.19,706.341 1385.94,706.455 1388.7,706.568 1391.45,706.681 1394.21,706.792 1396.96,706.902 1399.71,707.011 1402.47,707.118 1405.22,707.225 1407.98,707.331 1410.73,707.436 1413.49,707.54 1416.24,707.642 1419,707.744 1421.75,707.845 1424.5,707.945 1427.26,708.044 1430.01,708.141 1432.77,708.238 1435.52,708.334 1438.28,708.43 1441.03,708.524 1443.79,708.617 1446.54,708.709 1449.29,708.801 1452.05,708.891 1454.8,708.981 1457.56,709.07 1460.31,709.158 1463.07,709.245 1465.82,709.332 1468.58,709.417 1471.33,709.502 1474.08,709.586 1476.84,709.669 1479.59,709.751 1482.35,709.833 1485.1,709.914 1487.86,709.994 1490.61,710.073 1493.37,710.152 1496.12,710.229 1498.87,710.306 1501.63,710.383 1504.38,710.458 1507.14,710.533 1509.89,710.608 1512.65,710.681 1515.4,710.754 1518.16,710.826 1520.91,710.898 1523.66,710.969 1526.42,711.039 1529.17,711.108 1531.93,711.177 1534.68,711.246 1537.44,711.313 1540.19,711.38 1542.95,711.447 1545.7,711.513 1548.45,711.578 1551.21,711.643 1553.96,711.707 1556.72,711.77 1559.47,711.833 1562.23,711.896 1564.98,711.957 1567.74,712.019 1570.49,712.079 1573.24,712.14 1576,712.199 1578.75,712.259 1581.51,712.317 1584.26,712.375 1587.02,712.433 1589.77,712.49 1592.53,712.547 1595.28,712.603 1598.03,712.658 1600.79,712.714 1603.54,712.768 1606.3,712.823 1609.05,712.876 1611.81,712.93 1614.56,712.983 1617.32,713.035 1620.07,713.087 1622.82,713.138 1625.58,713.19 1628.33,713.24 1631.09,713.291 1633.84,713.34 1636.6,713.39 1639.35,713.439 1642.11,713.487 1644.86,713.536 1647.62,713.583 1650.37,713.631 1653.12,713.678 1655.88,713.724 1658.63,713.771 1661.39,713.817 1664.14,713.862 1666.9,713.907 1669.65,713.952 1672.41,713.996 1675.16,714.041 1677.91,714.084 1680.67,714.128 1683.42,714.171 1686.18,714.213 1688.93,714.256 1691.69,714.298 1694.44,714.339 1697.2,714.38 1699.95,714.421 1702.7,714.462 1705.46,714.502 1708.21,714.542 1710.97,714.582 1713.72,714.621 1716.48,714.66 1719.23,714.699 1721.99,714.738 1724.74,714.776 1727.49,714.814 1730.25,714.851 1733,714.888 1735.76,714.925 1738.51,714.962 1741.27,714.998 1744.02,715.035 1746.78,715.07 1749.53,715.106 1752.28,715.141 1755.04,715.176 1757.79,715.211 1760.55,715.246 1763.3,715.28 1766.06,715.314 1768.81,715.348 1771.57,715.381 1774.32,715.415 1777.07,715.448 1779.83,715.48 1782.58,715.513 1785.34,715.545 1788.09,715.577 1790.85,715.609 1793.6,715.641 1796.36,715.672 1799.11,715.703 1801.86,715.734 1804.62,715.765 1807.37,715.795 1810.13,715.825 1812.88,715.855 1815.64,715.885 1818.39,715.915 1821.15,715.944 1823.9,715.973 1826.65,716.002 1829.41,716.031 1832.16,716.059 1834.92,716.088 1837.67,716.116 1840.43,716.144 1843.18,716.171 1845.94,716.199 1848.69,716.226 1851.44,716.253 1854.2,716.28 1856.95,716.307 1859.71,716.334 1862.46,716.36 1865.22,716.386 1867.97,716.412 1870.73,716.438 1873.48,716.464 1876.23,716.489 1878.99,716.514 1881.74,716.54 1884.5,716.565 1887.25,716.589 1890.01,716.614 1892.76,716.639 1895.52,716.663 1898.27,716.687 1901.03,716.711 1903.78,716.735 1906.53,716.758 1909.29,716.782 1912.04,716.805 1914.8,716.828 1917.55,716.852 1920.31,716.874 1923.06,716.897 1925.82,716.92 1928.57,716.942 1931.32,716.965 1934.08,716.987 1936.83,717.009 1939.59,717.031 1942.34,717.052 1945.1,717.074 1947.85,717.095 1950.61,717.117 1953.36,717.138 1956.11,717.159 1958.87,717.18 1961.62,717.201 1964.38,717.221 1967.13,717.242 1969.89,717.262 1972.64,717.283 1975.4,717.303 1978.15,717.323 1980.9,717.343 1983.66,717.363 1986.41,717.382 1989.17,717.402 1991.92,717.421 1994.68,717.441 1997.43,717.46 2000.19,717.479 2002.94,717.498 2005.69,717.517 2008.45,717.535 2011.2,717.554 2013.96,717.573 2016.71,717.591 2019.47,717.609 2022.22,717.627 2024.98,717.646 2027.73,717.664 2030.48,717.681 2033.24,717.699 2035.99,717.717 2038.75,717.734 2041.5,717.752 2044.26,717.769 2047.01,717.787 2049.77,717.804 2052.52,717.821 2055.27,717.838 2058.03,717.855 2060.78,717.871 2063.54,717.888 2066.29,717.905 2069.05,717.921 2071.8,717.938 2074.56,717.954 2077.31,717.97 2080.06,717.986 2082.82,718.002 2085.57,718.018 2088.33,718.034 2091.08,718.05 2093.84,718.065 2096.59,718.081 2099.35,718.096 2102.1,718.112 2104.85,718.127 2107.61,718.142 2110.36,718.157 2113.12,718.172 2115.87,718.187 2118.63,718.202 2121.38,718.217 2124.14,718.232 2126.89,718.246 2129.64,718.261 2132.4,718.275 2135.15,718.29 2137.91,718.304 2140.66,718.318 2143.42,718.332 2146.17,718.346 2148.93,718.36 2151.68,718.374 2154.44,718.388 2157.19,718.402 2159.94,718.416 2162.7,718.429 2165.45,718.443 2168.21,718.456 2170.96,718.47 2173.72,718.483 2176.47,718.496 2179.23,718.51 2181.98,718.523 2184.73,718.536 2187.49,718.549 2190.24,718.562 2193,718.575 2195.75,718.587 2198.51,718.6 2201.26,718.613 2204.02,718.625 2206.77,718.638 2209.52,718.65 2212.28,718.663 2215.03,718.675 2217.79,718.687 2220.54,718.699 2223.3,718.712 2226.05,718.724 2228.81,718.736 2231.56,718.748 2234.31,718.76 2237.07,718.771 2239.82,718.783 2242.58,718.795 2245.33,718.806 2248.09,718.818 2250.84,718.83 2253.6,718.841 2256.35,718.852 2259.1,718.864 2261.86,718.875 2264.61,718.886 2267.37,718.898 2270.12,718.909 2272.88,718.92 2275.63,718.931 2278.39,718.942 2281.14,718.953 2283.89,718.964 2286.65,718.974 2289.4,718.985 2292.16,718.996 2294.91,719.007 2297.67,719.017 2300.42,719.028 2303.18,719.038 2305.93,719.049 2308.68,719.059 2311.44,719.069 2314.19,719.08 2316.95,719.09 2319.7,719.1 2322.46,719.11 2325.21,719.12 2327.97,719.13 2330.72,719.14 2333.47,719.15 2336.23,719.16 2338.98,719.17 2341.74,719.18 2344.49,719.19 2347.25,719.199 2350,719.209 2352.76,719.219 "/>
<polyline clip-path="url(#clip162)" style="stroke:#3da44d; stroke-linecap:round; stroke-linejoin:round; stroke-width:12; stroke-opacity:1; fill:none" points="149.191,130.044 151.945,184.296 154.7,237.016 157.454,287.628 160.209,335.67 162.963,380.803 165.718,422.813 168.472,461.605 171.227,497.184 173.981,529.641 176.735,559.129 179.49,585.844 182.244,610.005 184.999,631.843 187.753,651.589 190.508,669.46 193.262,685.664 196.017,700.386 198.771,713.797 201.526,726.046 204.28,737.266 207.034,747.574 209.789,757.071 212.543,765.845 215.298,773.972 218.052,781.52 220.807,788.546 223.561,795.1 226.316,801.225 229.07,806.96 231.825,812.339 234.579,817.389 237.333,822.138 240.088,826.608 242.842,830.819 245.597,834.79 248.351,838.536 251.106,842.072 253.86,845.412 256.615,848.567 259.369,851.548 262.124,854.365 264.878,857.028 267.632,859.543 270.387,861.921 273.141,864.166 275.896,866.287 278.65,868.289 281.405,870.178 284.159,871.961 286.914,873.64 289.668,875.223 292.423,876.713 295.177,878.114 297.932,879.431 300.686,880.667 303.44,881.827 306.195,882.913 308.949,883.929 311.704,884.878 314.458,885.763 317.213,886.587 319.967,887.352 322.722,888.062 325.476,888.718 328.231,889.323 330.985,889.88 333.739,890.39 336.494,890.855 339.248,891.278 342.003,891.66 344.757,892.003 347.512,892.31 350.266,892.58 353.021,892.817 355.775,893.021 358.53,893.195 361.284,893.338 364.038,893.454 366.793,893.542 369.547,893.605 372.302,893.643 375.056,893.657 377.811,893.649 380.565,893.619 383.32,893.569 386.074,893.5 388.829,893.411 391.583,893.305 394.337,893.182 397.092,893.043 399.846,892.888 402.601,892.719 405.355,892.536 408.11,892.339 410.864,892.13 413.619,891.908 416.373,891.675 419.128,891.431 421.882,891.177 424.636,890.913 427.391,890.64 430.145,890.357 432.9,890.066 435.654,889.767 438.409,889.461 441.163,889.147 443.918,888.827 446.672,888.5 449.427,888.167 452.181,887.829 454.936,887.485 457.69,887.136 460.444,886.783 463.199,886.424 465.953,886.062 468.708,885.696 471.462,885.326 474.217,884.953 476.971,884.576 479.726,884.197 482.48,883.815 485.235,883.43 487.989,883.043 490.743,882.654 493.498,882.263 496.252,881.871 499.007,881.476 501.761,881.081 504.516,880.684 507.27,880.285 510.025,879.886 512.779,879.486 515.534,879.085 518.288,878.684 521.042,878.282 523.797,877.88 526.551,877.477 529.306,877.075 532.06,876.672 534.815,876.269 537.569,875.867 540.324,875.464 543.078,875.062 545.833,874.66 548.587,874.258 551.341,873.857 554.096,873.457 556.85,873.057 559.605,872.657 562.359,872.259 565.114,871.861 567.868,871.464 570.623,871.067 573.377,870.672 576.132,870.278 578.886,869.884 581.641,869.491 584.395,869.1 587.149,868.709 589.904,868.319 592.658,867.931 595.413,867.543 598.167,867.157 600.922,866.772 603.676,866.388 606.431,866.005 609.185,865.623 611.94,865.242 614.694,864.863 617.448,864.485 620.203,864.108 622.957,863.732 625.712,863.357 628.466,862.984 631.221,862.611 633.975,862.24 636.73,861.871 639.484,861.502 642.239,861.134 644.993,860.768 647.747,860.403 650.502,860.039 653.256,859.676 656.011,859.315 658.765,858.954 661.52,858.595 664.274,858.237 667.029,857.88 669.783,857.524 672.538,857.169 675.292,856.816 678.046,856.463 680.801,856.112 683.555,855.761 686.31,855.412 689.064,855.064 691.819,854.717 694.573,854.371 697.328,854.025 700.082,853.681 702.837,853.338 705.591,852.996 708.345,852.655 711.1,852.314 713.854,851.975 716.609,851.637 719.363,851.299 722.118,850.963 724.872,850.627 727.627,850.292 730.381,849.959 733.136,849.626 735.89,849.293 738.645,848.962 741.399,848.632 744.153,848.302 746.908,847.973 749.662,847.645 752.417,847.318 755.171,846.991 757.926,846.666 760.68,846.341 763.435,846.016 766.189,845.693 768.944,845.37 771.698,845.048 774.452,844.727 777.207,844.406 779.961,844.086 782.716,843.767 785.47,843.448 788.225,843.13 790.979,842.813 793.734,842.496 796.488,842.18 799.243,841.865 801.997,841.55 804.751,841.236 807.506,840.922 810.26,840.61 813.015,840.297 815.769,839.985 818.524,839.674 821.278,839.364 824.033,839.054 826.787,838.744 829.542,838.436 832.296,838.127 835.05,837.82 837.805,837.512 840.559,837.206 843.314,836.9 846.068,836.594 848.823,836.289 851.577,835.985 854.332,835.681 857.086,835.377 859.841,835.075 862.595,834.772 865.349,834.47 868.104,834.169 870.858,833.868 873.613,833.568 876.367,833.268 879.122,832.969 881.876,832.67 884.631,832.372 887.385,832.074 890.14,831.777 892.894,831.48 895.649,831.184 898.403,830.888 901.157,830.593 903.912,830.298 906.666,830.004 909.421,829.711 912.175,829.417 914.93,829.125 917.684,828.832 920.439,828.541 923.193,828.25 925.948,827.959 928.702,827.669 931.456,827.379 934.211,827.09 936.965,826.801 939.72,826.513 942.474,826.225 945.229,825.938 947.983,825.652 950.738,825.365 953.492,825.08 956.247,824.795 959.001,824.51 961.755,824.226 964.51,823.943 967.264,823.66 970.019,823.377 972.773,823.095 975.528,822.814 978.282,822.533 981.037,822.253 983.791,821.973 986.546,821.694 989.3,821.415 992.054,821.137 994.809,820.859 997.563,820.582 1000.32,820.306 1003.07,820.03 1005.83,819.754 1008.58,819.479 1011.34,819.205 1014.09,818.931 1016.84,818.658 1019.6,818.386 1022.35,818.114 1025.11,817.842 1027.86,817.571 1030.62,817.301 1033.37,817.032 1036.13,816.763 1038.88,816.494 1041.63,816.226 1044.39,815.959 1047.14,815.692 1049.9,815.426 1052.65,815.161 1055.41,814.896 1058.16,814.632 1060.92,814.368 1063.67,814.105 1066.42,813.843 1069.18,813.581 1071.93,813.32 1074.69,813.059 1077.44,812.8 1080.2,812.54 1082.95,812.282 1085.71,812.024 1088.46,811.767 1091.21,811.51 1093.97,811.254 1096.72,810.999 1099.48,810.744 1102.23,810.49 1104.99,810.237 1107.74,809.984 1110.5,809.733 1113.25,809.481 1116.01,809.231 1118.76,808.981 1121.51,808.732 1124.27,808.483 1127.02,808.235 1129.78,807.988 1132.53,807.742 1135.29,807.496 1138.04,807.251 1140.8,807.007 1143.55,806.763 1146.3,806.52 1149.06,806.278 1151.81,806.036 1154.57,805.796 1157.32,805.556 1160.08,805.316 1162.83,805.078 1165.59,804.84 1168.34,804.603 1171.09,804.366 1173.85,804.131 1176.6,803.896 1179.36,803.662 1182.11,803.428 1184.87,803.196 1187.62,802.964 1190.38,802.732 1193.13,802.502 1195.88,802.272 1198.64,802.043 1201.39,801.815 1204.15,801.588 1206.9,801.361 1209.66,801.135 1212.41,800.91 1215.17,800.686 1217.92,800.462 1220.67,800.239 1223.43,800.017 1226.18,799.796 1228.94,799.575 1231.69,799.356 1234.45,799.137 1237.2,798.918 1239.96,798.701 1242.71,798.484 1245.46,798.269 1248.22,798.054 1250.97,797.839 1253.73,797.626 1256.48,797.413 1259.24,797.201 1261.99,796.99 1264.75,796.78 1267.5,796.57 1270.25,796.361 1273.01,796.153 1275.76,795.946 1278.52,795.74 1281.27,795.534 1284.03,795.329 1286.78,795.125 1289.54,794.922 1292.29,794.72 1295.04,794.518 1297.8,794.317 1300.55,794.117 1303.31,793.918 1306.06,793.719 1308.82,793.522 1311.57,793.325 1314.33,793.129 1317.08,792.933 1319.83,792.739 1322.59,792.545 1325.34,792.352 1328.1,792.16 1330.85,791.969 1333.61,791.778 1336.36,791.589 1339.12,791.4 1341.87,791.212 1344.62,791.024 1347.38,790.838 1350.13,790.652 1352.89,790.467 1355.64,790.283 1358.4,790.099 1361.15,789.917 1363.91,789.735 1366.66,789.554 1369.41,789.374 1372.17,789.194 1374.92,789.015 1377.68,788.837 1380.43,788.66 1383.19,788.484 1385.94,788.308 1388.7,788.134 1391.45,787.96 1394.21,787.786 1396.96,787.614 1399.71,787.442 1402.47,787.271 1405.22,787.101 1407.98,786.932 1410.73,786.763 1413.49,786.595 1416.24,786.428 1419,786.262 1421.75,786.096 1424.5,785.932 1427.26,785.768 1430.01,785.604 1432.77,785.442 1435.52,785.28 1438.28,785.119 1441.03,784.959 1443.79,784.799 1446.54,784.64 1449.29,784.482 1452.05,784.325 1454.8,784.169 1457.56,784.013 1460.31,783.858 1463.07,783.703 1465.82,783.55 1468.58,783.397 1471.33,783.245 1474.08,783.093 1476.84,782.943 1479.59,782.793 1482.35,782.643 1485.1,782.495 1487.86,782.347 1490.61,782.2 1493.37,782.053 1496.12,781.908 1498.87,781.763 1501.63,781.619 1504.38,781.475 1507.14,781.332 1509.89,781.19 1512.65,781.048 1515.4,780.908 1518.16,780.767 1520.91,780.628 1523.66,780.489 1526.42,780.351 1529.17,780.214 1531.93,780.077 1534.68,779.941 1537.44,779.806 1540.19,779.671 1542.95,779.537 1545.7,779.404 1548.45,779.271 1551.21,779.139 1553.96,779.008 1556.72,778.877 1559.47,778.747 1562.23,778.618 1564.98,778.489 1567.74,778.361 1570.49,778.233 1573.24,778.106 1576,777.98 1578.75,777.855 1581.51,777.73 1584.26,777.605 1587.02,777.482 1589.77,777.359 1592.53,777.236 1595.28,777.114 1598.03,776.993 1600.79,776.872 1603.54,776.752 1606.3,776.633 1609.05,776.514 1611.81,776.396 1614.56,776.278 1617.32,776.161 1620.07,776.045 1622.82,775.929 1625.58,775.814 1628.33,775.699 1631.09,775.585 1633.84,775.472 1636.6,775.359 1639.35,775.247 1642.11,775.135 1644.86,775.024 1647.62,774.913 1650.37,774.803 1653.12,774.693 1655.88,774.584 1658.63,774.476 1661.39,774.368 1664.14,774.261 1666.9,774.154 1669.65,774.048 1672.41,773.942 1675.16,773.837 1677.91,773.732 1680.67,773.628 1683.42,773.525 1686.18,773.421 1688.93,773.319 1691.69,773.217 1694.44,773.115 1697.2,773.015 1699.95,772.914 1702.7,772.814 1705.46,772.715 1708.21,772.616 1710.97,772.517 1713.72,772.419 1716.48,772.322 1719.23,772.225 1721.99,772.128 1724.74,772.032 1727.49,771.937 1730.25,771.842 1733,771.747 1735.76,771.653 1738.51,771.56 1741.27,771.467 1744.02,771.374 1746.78,771.282 1749.53,771.19 1752.28,771.099 1755.04,771.008 1757.79,770.918 1760.55,770.828 1763.3,770.738 1766.06,770.649 1768.81,770.561 1771.57,770.473 1774.32,770.385 1777.07,770.298 1779.83,770.211 1782.58,770.124 1785.34,770.038 1788.09,769.953 1790.85,769.868 1793.6,769.783 1796.36,769.699 1799.11,769.615 1801.86,769.532 1804.62,769.449 1807.37,769.366 1810.13,769.284 1812.88,769.202 1815.64,769.121 1818.39,769.04 1821.15,768.959 1823.9,768.879 1826.65,768.799 1829.41,768.719 1832.16,768.64 1834.92,768.562 1837.67,768.483 1840.43,768.406 1843.18,768.328 1845.94,768.251 1848.69,768.174 1851.44,768.098 1854.2,768.022 1856.95,767.946 1859.71,767.871 1862.46,767.796 1865.22,767.721 1867.97,767.647 1870.73,767.573 1873.48,767.5 1876.23,767.426 1878.99,767.354 1881.74,767.281 1884.5,767.209 1887.25,767.137 1890.01,767.066 1892.76,766.995 1895.52,766.924 1898.27,766.853 1901.03,766.783 1903.78,766.713 1906.53,766.644 1909.29,766.575 1912.04,766.506 1914.8,766.438 1917.55,766.369 1920.31,766.301 1923.06,766.234 1925.82,766.167 1928.57,766.1 1931.32,766.033 1934.08,765.967 1936.83,765.901 1939.59,765.835 1942.34,765.77 1945.1,765.705 1947.85,765.64 1950.61,765.575 1953.36,765.511 1956.11,765.447 1958.87,765.383 1961.62,765.32 1964.38,765.257 1967.13,765.194 1969.89,765.132 1972.64,765.069 1975.4,765.007 1978.15,764.946 1980.9,764.884 1983.66,764.823 1986.41,764.762 1989.17,764.702 1991.92,764.641 1994.68,764.581 1997.43,764.522 2000.19,764.462 2002.94,764.403 2005.69,764.344 2008.45,764.285 2011.2,764.226 2013.96,764.168 2016.71,764.11 2019.47,764.052 2022.22,763.995 2024.98,763.938 2027.73,763.881 2030.48,763.824 2033.24,763.767 2035.99,763.711 2038.75,763.655 2041.5,763.599 2044.26,763.544 2047.01,763.488 2049.77,763.433 2052.52,763.378 2055.27,763.324 2058.03,763.269 2060.78,763.215 2063.54,763.161 2066.29,763.107 2069.05,763.054 2071.8,763 2074.56,762.947 2077.31,762.894 2080.06,762.842 2082.82,762.789 2085.57,762.737 2088.33,762.685 2091.08,762.633 2093.84,762.582 2096.59,762.53 2099.35,762.479 2102.1,762.428 2104.85,762.377 2107.61,762.327 2110.36,762.276 2113.12,762.226 2115.87,762.176 2118.63,762.126 2121.38,762.077 2124.14,762.027 2126.89,761.978 2129.64,761.929 2132.4,761.88 2135.15,761.832 2137.91,761.783 2140.66,761.735 2143.42,761.687 2146.17,761.639 2148.93,761.591 2151.68,761.544 2154.44,761.496 2157.19,761.449 2159.94,761.402 2162.7,761.355 2165.45,761.309 2168.21,761.262 2170.96,761.216 2173.72,761.17 2176.47,761.124 2179.23,761.078 2181.98,761.032 2184.73,760.987 2187.49,760.942 2190.24,760.896 2193,760.852 2195.75,760.807 2198.51,760.762 2201.26,760.718 2204.02,760.673 2206.77,760.629 2209.52,760.585 2212.28,760.541 2215.03,760.498 2217.79,760.454 2220.54,760.411 2223.3,760.368 2226.05,760.325 2228.81,760.282 2231.56,760.239 2234.31,760.196 2237.07,760.154 2239.82,760.111 2242.58,760.069 2245.33,760.027 2248.09,759.985 2250.84,759.944 2253.6,759.902 2256.35,759.861 2259.1,759.819 2261.86,759.778 2264.61,759.737 2267.37,759.696 2270.12,759.655 2272.88,759.615 2275.63,759.574 2278.39,759.534 2281.14,759.494 2283.89,759.454 2286.65,759.414 2289.4,759.374 2292.16,759.334 2294.91,759.295 2297.67,759.255 2300.42,759.216 2303.18,759.177 2305.93,759.138 2308.68,759.099 2311.44,759.06 2314.19,759.021 2316.95,758.983 2319.7,758.944 2322.46,758.906 2325.21,758.868 2327.97,758.83 2330.72,758.792 2333.47,758.754 2336.23,758.716 2338.98,758.678 2341.74,758.641 2344.49,758.604 2347.25,758.566 2350,758.529 2352.76,758.492 "/>
<path clip-path="url(#clip160)" d="M1969.85 1377.32 L2279.3 1377.32 L2279.3 1169.96 L1969.85 1169.96  Z" fill="#ffffff" fill-rule="evenodd" fill-opacity="1"/>
<polyline clip-path="url(#clip160)" style="stroke:#000000; stroke-linecap:round; stroke-linejoin:round; stroke-width:4; stroke-opacity:1; fill:none" points="1969.85,1377.32 2279.3,1377.32 2279.3,1169.96 1969.85,1169.96 1969.85,1377.32 "/>
<polyline clip-path="url(#clip160)" style="stroke:#009af9; stroke-linecap:round; stroke-linejoin:round; stroke-width:12; stroke-opacity:1; fill:none" points="1994.33,1221.8 2141.24,1221.8 "/>
<path clip-path="url(#clip160)" d="M2165.72 1228.84 L2165.72 1213.15 L2169.98 1213.15 L2169.98 1228.68 Q2169.98 1232.36 2171.42 1234.21 Q2172.85 1236.04 2175.72 1236.04 Q2179.17 1236.04 2181.16 1233.84 Q2183.18 1231.64 2183.18 1227.85 L2183.18 1213.15 L2187.44 1213.15 L2187.44 1239.08 L2183.18 1239.08 L2183.18 1235.09 Q2181.63 1237.45 2179.57 1238.61 Q2177.53 1239.75 2174.82 1239.75 Q2170.35 1239.75 2168.04 1236.97 Q2165.72 1234.19 2165.72 1228.84 M2176.44 1212.52 L2176.44 1212.52 Z" fill="#000000" fill-rule="nonzero" fill-opacity="1" /><path clip-path="url(#clip160)" d="M2195.82 1203.06 L2205.63 1203.06 L2205.63 1206.37 L2200.07 1206.37 L2200.07 1242.02 L2205.63 1242.02 L2205.63 1245.33 L2195.82 1245.33 L2195.82 1203.06 Z" fill="#000000" fill-rule="nonzero" fill-opacity="1" /><path clip-path="url(#clip160)" d="M2216.12 1235.14 L2223.76 1235.14 L2223.76 1208.77 L2215.44 1210.44 L2215.44 1206.18 L2223.71 1204.52 L2228.38 1204.52 L2228.38 1235.14 L2236.02 1235.14 L2236.02 1239.08 L2216.12 1239.08 L2216.12 1235.14 Z" fill="#000000" fill-rule="nonzero" fill-opacity="1" /><path clip-path="url(#clip160)" d="M2254.82 1203.06 L2254.82 1245.33 L2245 1245.33 L2245 1242.02 L2250.54 1242.02 L2250.54 1206.37 L2245 1206.37 L2245 1203.06 L2254.82 1203.06 Z" fill="#000000" fill-rule="nonzero" fill-opacity="1" /><polyline clip-path="url(#clip160)" style="stroke:#e26f46; stroke-linecap:round; stroke-linejoin:round; stroke-width:12; stroke-opacity:1; fill:none" points="1994.33,1273.64 2141.24,1273.64 "/>
<path clip-path="url(#clip160)" d="M2165.72 1280.68 L2165.72 1264.99 L2169.98 1264.99 L2169.98 1280.52 Q2169.98 1284.2 2171.42 1286.05 Q2172.85 1287.88 2175.72 1287.88 Q2179.17 1287.88 2181.16 1285.68 Q2183.18 1283.48 2183.18 1279.69 L2183.18 1264.99 L2187.44 1264.99 L2187.44 1290.92 L2183.18 1290.92 L2183.18 1286.93 Q2181.63 1289.29 2179.57 1290.45 Q2177.53 1291.59 2174.82 1291.59 Q2170.35 1291.59 2168.04 1288.81 Q2165.72 1286.03 2165.72 1280.68 M2176.44 1264.36 L2176.44 1264.36 Z" fill="#000000" fill-rule="nonzero" fill-opacity="1" /><path clip-path="url(#clip160)" d="M2195.82 1254.9 L2205.63 1254.9 L2205.63 1258.21 L2200.07 1258.21 L2200.07 1293.86 L2205.63 1293.86 L2205.63 1297.17 L2195.82 1297.17 L2195.82 1254.9 Z" fill="#000000" fill-rule="nonzero" fill-opacity="1" /><path clip-path="url(#clip160)" d="M2219.33 1286.98 L2235.65 1286.98 L2235.65 1290.92 L2213.71 1290.92 L2213.71 1286.98 Q2216.37 1284.23 2220.95 1279.6 Q2225.56 1274.94 2226.74 1273.6 Q2228.99 1271.08 2229.87 1269.34 Q2230.77 1267.58 2230.77 1265.89 Q2230.77 1263.14 2228.82 1261.4 Q2226.9 1259.67 2223.8 1259.67 Q2221.6 1259.67 2219.15 1260.43 Q2216.72 1261.19 2213.94 1262.74 L2213.94 1258.02 Q2216.76 1256.89 2219.22 1256.31 Q2221.67 1255.73 2223.71 1255.73 Q2229.08 1255.73 2232.27 1258.42 Q2235.47 1261.1 2235.47 1265.59 Q2235.47 1267.72 2234.66 1269.64 Q2233.87 1271.54 2231.76 1274.13 Q2231.19 1274.8 2228.08 1278.02 Q2224.98 1281.22 2219.33 1286.98 Z" fill="#000000" fill-rule="nonzero" fill-opacity="1" /><path clip-path="url(#clip160)" d="M2254.82 1254.9 L2254.82 1297.17 L2245 1297.17 L2245 1293.86 L2250.54 1293.86 L2250.54 1258.21 L2245 1258.21 L2245 1254.9 L2254.82 1254.9 Z" fill="#000000" fill-rule="nonzero" fill-opacity="1" /><polyline clip-path="url(#clip160)" style="stroke:#3da44d; stroke-linecap:round; stroke-linejoin:round; stroke-width:12; stroke-opacity:1; fill:none" points="1994.33,1325.48 2141.24,1325.48 "/>
<path clip-path="url(#clip160)" d="M2165.72 1332.52 L2165.72 1316.83 L2169.98 1316.83 L2169.98 1332.36 Q2169.98 1336.04 2171.42 1337.89 Q2172.85 1339.72 2175.72 1339.72 Q2179.17 1339.72 2181.16 1337.52 Q2183.18 1335.32 2183.18 1331.53 L2183.18 1316.83 L2187.44 1316.83 L2187.44 1342.76 L2183.18 1342.76 L2183.18 1338.77 Q2181.63 1341.13 2179.57 1342.29 Q2177.53 1343.43 2174.82 1343.43 Q2170.35 1343.43 2168.04 1340.65 Q2165.72 1337.87 2165.72 1332.52 M2176.44 1316.2 L2176.44 1316.2 Z" fill="#000000" fill-rule="nonzero" fill-opacity="1" /><path clip-path="url(#clip160)" d="M2206.44 1306.78 Q2203.34 1312.11 2201.83 1317.32 Q2200.33 1322.52 2200.33 1327.87 Q2200.33 1333.22 2201.83 1338.47 Q2203.36 1343.7 2206.44 1349.01 L2202.74 1349.01 Q2199.26 1343.57 2197.53 1338.31 Q2195.82 1333.06 2195.82 1327.87 Q2195.82 1322.71 2197.53 1317.48 Q2199.24 1312.25 2202.74 1306.78 L2206.44 1306.78 Z" fill="#000000" fill-rule="nonzero" fill-opacity="1" /><path clip-path="url(#clip160)" d="M2218.92 1309.47 L2218.92 1316.83 L2227.69 1316.83 L2227.69 1320.14 L2218.92 1320.14 L2218.92 1334.21 Q2218.92 1337.38 2219.77 1338.29 Q2220.65 1339.19 2223.32 1339.19 L2227.69 1339.19 L2227.69 1342.76 L2223.32 1342.76 Q2218.38 1342.76 2216.51 1340.93 Q2214.63 1339.07 2214.63 1334.21 L2214.63 1320.14 L2211.51 1320.14 L2211.51 1316.83 L2214.63 1316.83 L2214.63 1309.47 L2218.92 1309.47 Z" fill="#000000" fill-rule="nonzero" fill-opacity="1" /><path clip-path="url(#clip160)" d="M2232.62 1306.78 L2236.32 1306.78 Q2239.8 1312.25 2241.51 1317.48 Q2243.25 1322.71 2243.25 1327.87 Q2243.25 1333.06 2241.51 1338.31 Q2239.8 1343.57 2236.32 1349.01 L2232.62 1349.01 Q2235.7 1343.7 2237.2 1338.47 Q2238.73 1333.22 2238.73 1327.87 Q2238.73 1322.52 2237.2 1317.32 Q2235.7 1312.11 2232.62 1306.78 Z" fill="#000000" fill-rule="nonzero" fill-opacity="1" /></svg>
