<?xml version="1.0" encoding="utf-8"?>
<svg xmlns="http://www.w3.org/2000/svg" xmlns:xlink="http://www.w3.org/1999/xlink" width="600" height="400" viewBox="0 0 2400 1600">
<defs>
  <clipPath id="clip680">
    <rect x="0" y="0" width="2400" height="1600"/>
  </clipPath>
</defs>
<path clip-path="url(#clip680)" d="M0 1600 L2400 1600 L2400 0 L0 0  Z" fill="#ffffff" fill-rule="evenodd" fill-opacity="1"/>
<defs>
  <clipPath id="clip681">
    <rect x="480" y="0" width="1681" height="1600"/>
  </clipPath>
</defs>
<path clip-path="url(#clip680)" d="M149.191 1423.18 L2352.76 1423.18 L2352.76 47.2441 L149.191 47.2441  Z" fill="#ffffff" fill-rule="evenodd" fill-opacity="1"/>
<defs>
  <clipPath id="clip682">
    <rect x="149" y="47" width="2205" height="1377"/>
  </clipPath>
</defs>
<polyline clip-path="url(#clip682)" style="stroke:#000000; stroke-linecap:round; stroke-linejoin:round; stroke-width:2; stroke-opacity:0.1; fill:none" points="149.191,1423.18 149.191,47.2441 "/>
<polyline clip-path="url(#clip682)" style="stroke:#000000; stroke-linecap:round; stroke-linejoin:round; stroke-width:2; stroke-opacity:0.1; fill:none" points="700.082,1423.18 700.082,47.2441 "/>
<polyline clip-path="url(#clip682)" style="stroke:#000000; stroke-linecap:round; stroke-linejoin:round; stroke-width:2; stroke-opacity:0.1; fill:none" points="1250.97,1423.18 1250.97,47.2441 "/>
<polyline clip-path="url(#clip682)" style="stroke:#000000; stroke-linecap:round; stroke-linejoin:round; stroke-width:2; stroke-opacity:0.1; fill:none" points="1801.86,1423.18 1801.86,47.2441 "/>
<polyline clip-path="url(#clip682)" style="stroke:#000000; stroke-linecap:round; stroke-linejoin:round; stroke-width:2; stroke-opacity:0.1; fill:none" points="2352.76,1423.18 2352.76,47.2441 "/>
<polyline clip-path="url(#clip682)" style="stroke:#000000; stroke-linecap:round; stroke-linejoin:round; stroke-width:2; stroke-opacity:0.1; fill:none" points="149.191,1423.18 2352.76,1423.18 "/>
<polyline clip-path="url(#clip682)" style="stroke:#000000; stroke-linecap:round; stroke-linejoin:round; stroke-width:2; stroke-opacity:0.1; fill:none" points="149.191,1193.86 2352.76,1193.86 "/>
<polyline clip-path="url(#clip682)" style="stroke:#000000; stroke-linecap:round; stroke-linejoin:round; stroke-width:2; stroke-opacity:0.1; fill:none" points="149.191,964.535 2352.76,964.535 "/>
<polyline clip-path="url(#clip682)" style="stroke:#000000; stroke-linecap:round; stroke-linejoin:round; stroke-width:2; stroke-opacity:0.1; fill:none" points="149.191,735.212 2352.76,735.212 "/>
<polyline clip-path="url(#clip682)" style="stroke:#000000; stroke-linecap:round; stroke-linejoin:round; stroke-width:2; stroke-opacity:0.1; fill:none" points="149.191,505.889 2352.76,505.889 "/>
<polyline clip-path="url(#clip682)" style="stroke:#000000; stroke-linecap:round; stroke-linejoin:round; stroke-width:2; stroke-opacity:0.1; fill:none" points="149.191,276.567 2352.76,276.567 "/>
<polyline clip-path="url(#clip682)" style="stroke:#000000; stroke-linecap:round; stroke-linejoin:round; stroke-width:2; stroke-opacity:0.1; fill:none" points="149.191,47.2441 2352.76,47.2441 "/>
<polyline clip-path="url(#clip680)" style="stroke:#000000; stroke-linecap:round; stroke-linejoin:round; stroke-width:4; stroke-opacity:1; fill:none" points="149.191,1423.18 2352.76,1423.18 "/>
<polyline clip-path="url(#clip680)" style="stroke:#000000; stroke-linecap:round; stroke-linejoin:round; stroke-width:4; stroke-opacity:1; fill:none" points="149.191,1423.18 149.191,1404.28 "/>
<polyline clip-path="url(#clip680)" style="stroke:#000000; stroke-linecap:round; stroke-linejoin:round; stroke-width:4; stroke-opacity:1; fill:none" points="700.082,1423.18 700.082,1404.28 "/>
<polyline clip-path="url(#clip680)" style="stroke:#000000; stroke-linecap:round; stroke-linejoin:round; stroke-width:4; stroke-opacity:1; fill:none" points="1250.97,1423.18 1250.97,1404.28 "/>
<polyline clip-path="url(#clip680)" style="stroke:#000000; stroke-linecap:round; stroke-linejoin:round; stroke-width:4; stroke-opacity:1; fill:none" points="1801.86,1423.18 1801.86,1404.28 "/>
<polyline clip-path="url(#clip680)" style="stroke:#000000; stroke-linecap:round; stroke-linejoin:round; stroke-width:4; stroke-opacity:1; fill:none" points="2352.76,1423.18 2352.76,1404.28 "/>
<path clip-path="url(#clip680)" d="M149.191 1454.1 Q145.58 1454.1 143.751 1457.66 Q141.946 1461.2 141.946 1468.33 Q141.946 1475.44 143.751 1479.01 Q145.58 1482.55 149.191 1482.55 Q152.825 1482.55 154.631 1479.01 Q156.459 1475.44 156.459 1468.33 Q156.459 1461.2 154.631 1457.66 Q152.825 1454.1 149.191 1454.1 M149.191 1450.39 Q155.001 1450.39 158.057 1455 Q161.135 1459.58 161.135 1468.33 Q161.135 1477.06 158.057 1481.67 Q155.001 1486.25 149.191 1486.25 Q143.381 1486.25 140.302 1481.67 Q137.246 1477.06 137.246 1468.33 Q137.246 1459.58 140.302 1455 Q143.381 1450.39 149.191 1450.39 Z" fill="#000000" fill-rule="nonzero" fill-opacity="1" /><path clip-path="url(#clip680)" d="M694.735 1481.64 L711.054 1481.64 L711.054 1485.58 L689.11 1485.58 L689.11 1481.64 Q691.772 1478.89 696.355 1474.26 Q700.962 1469.61 702.142 1468.27 Q704.388 1465.74 705.267 1464.01 Q706.17 1462.25 706.17 1460.56 Q706.17 1457.8 704.226 1456.07 Q702.304 1454.33 699.203 1454.33 Q697.003 1454.33 694.55 1455.09 Q692.119 1455.86 689.341 1457.41 L689.341 1452.69 Q692.166 1451.55 694.619 1450.97 Q697.073 1450.39 699.11 1450.39 Q704.48 1450.39 707.675 1453.08 Q710.869 1455.77 710.869 1460.26 Q710.869 1462.39 710.059 1464.31 Q709.272 1466.2 707.165 1468.8 Q706.587 1469.47 703.485 1472.69 Q700.383 1475.88 694.735 1481.64 Z" fill="#000000" fill-rule="nonzero" fill-opacity="1" /><path clip-path="url(#clip680)" d="M1253.98 1455.09 L1242.18 1473.54 L1253.98 1473.54 L1253.98 1455.09 M1252.76 1451.02 L1258.64 1451.02 L1258.64 1473.54 L1263.57 1473.54 L1263.57 1477.43 L1258.64 1477.43 L1258.64 1485.58 L1253.98 1485.58 L1253.98 1477.43 L1238.38 1477.43 L1238.38 1472.92 L1252.76 1451.02 Z" fill="#000000" fill-rule="nonzero" fill-opacity="1" /><path clip-path="url(#clip680)" d="M1802.27 1466.44 Q1799.12 1466.44 1797.27 1468.59 Q1795.44 1470.74 1795.44 1474.49 Q1795.44 1478.22 1797.27 1480.39 Q1799.12 1482.55 1802.27 1482.55 Q1805.42 1482.55 1807.25 1480.39 Q1809.1 1478.22 1809.1 1474.49 Q1809.1 1470.74 1807.25 1468.59 Q1805.42 1466.44 1802.27 1466.44 M1811.55 1451.78 L1811.55 1456.04 Q1809.79 1455.21 1807.99 1454.77 Q1806.2 1454.33 1804.45 1454.33 Q1799.82 1454.33 1797.36 1457.45 Q1794.93 1460.58 1794.58 1466.9 Q1795.95 1464.89 1798.01 1463.82 Q1800.07 1462.73 1802.55 1462.73 Q1807.76 1462.73 1810.77 1465.9 Q1813.8 1469.05 1813.8 1474.49 Q1813.8 1479.82 1810.65 1483.03 Q1807.5 1486.25 1802.27 1486.25 Q1796.27 1486.25 1793.1 1481.67 Q1789.93 1477.06 1789.93 1468.33 Q1789.93 1460.14 1793.82 1455.28 Q1797.71 1450.39 1804.26 1450.39 Q1806.02 1450.39 1807.8 1450.74 Q1809.61 1451.09 1811.55 1451.78 Z" fill="#000000" fill-rule="nonzero" fill-opacity="1" /><path clip-path="url(#clip680)" d="M2352.76 1469.17 Q2349.42 1469.17 2347.5 1470.95 Q2345.6 1472.73 2345.6 1475.86 Q2345.6 1478.98 2347.5 1480.77 Q2349.42 1482.55 2352.76 1482.55 Q2356.09 1482.55 2358.01 1480.77 Q2359.93 1478.96 2359.93 1475.86 Q2359.93 1472.73 2358.01 1470.95 Q2356.11 1469.17 2352.76 1469.17 M2348.08 1467.18 Q2345.07 1466.44 2343.38 1464.38 Q2341.71 1462.32 2341.71 1459.35 Q2341.71 1455.21 2344.65 1452.8 Q2347.62 1450.39 2352.76 1450.39 Q2357.92 1450.39 2360.86 1452.8 Q2363.8 1455.21 2363.8 1459.35 Q2363.8 1462.32 2362.11 1464.38 Q2360.44 1466.44 2357.45 1467.18 Q2360.83 1467.96 2362.71 1470.26 Q2364.61 1472.55 2364.61 1475.86 Q2364.61 1480.88 2361.53 1483.57 Q2358.47 1486.25 2352.76 1486.25 Q2347.04 1486.25 2343.96 1483.57 Q2340.9 1480.88 2340.9 1475.86 Q2340.9 1472.55 2342.8 1470.26 Q2344.7 1467.96 2348.08 1467.18 M2346.37 1459.79 Q2346.37 1462.48 2348.03 1463.98 Q2349.72 1465.49 2352.76 1465.49 Q2355.77 1465.49 2357.45 1463.98 Q2359.17 1462.48 2359.17 1459.79 Q2359.17 1457.11 2357.45 1455.6 Q2355.77 1454.1 2352.76 1454.1 Q2349.72 1454.1 2348.03 1455.6 Q2346.37 1457.11 2346.37 1459.79 Z" fill="#000000" fill-rule="nonzero" fill-opacity="1" /><path clip-path="url(#clip680)" d="M1250.03 1522.27 L1250.03 1532.4 L1262.1 1532.4 L1262.1 1536.95 L1250.03 1536.95 L1250.03 1556.3 Q1250.03 1560.66 1251.21 1561.9 Q1252.42 1563.14 1256.08 1563.14 L1262.1 1563.14 L1262.1 1568.04 L1256.08 1568.04 Q1249.3 1568.04 1246.72 1565.53 Q1244.15 1562.98 1244.15 1556.3 L1244.15 1536.95 L1239.85 1536.95 L1239.85 1532.4 L1244.15 1532.4 L1244.15 1522.27 L1250.03 1522.27 Z" fill="#000000" fill-rule="nonzero" fill-opacity="1" /><polyline clip-path="url(#clip680)" style="stroke:#000000; stroke-linecap:round; stroke-linejoin:round; stroke-width:4; stroke-opacity:1; fill:none" points="149.191,1423.18 149.191,47.2441 "/>
<polyline clip-path="url(#clip680)" style="stroke:#000000; stroke-linecap:round; stroke-linejoin:round; stroke-width:4; stroke-opacity:1; fill:none" points="149.191,1423.18 168.089,1423.18 "/>
<polyline clip-path="url(#clip680)" style="stroke:#000000; stroke-linecap:round; stroke-linejoin:round; stroke-width:4; stroke-opacity:1; fill:none" points="149.191,1193.86 168.089,1193.86 "/>
<polyline clip-path="url(#clip680)" style="stroke:#000000; stroke-linecap:round; stroke-linejoin:round; stroke-width:4; stroke-opacity:1; fill:none" points="149.191,964.535 168.089,964.535 "/>
<polyline clip-path="url(#clip680)" style="stroke:#000000; stroke-linecap:round; stroke-linejoin:round; stroke-width:4; stroke-opacity:1; fill:none" points="149.191,735.212 168.089,735.212 "/>
<polyline clip-path="url(#clip680)" style="stroke:#000000; stroke-linecap:round; stroke-linejoin:round; stroke-width:4; stroke-opacity:1; fill:none" points="149.191,505.889 168.089,505.889 "/>
<polyline clip-path="url(#clip680)" style="stroke:#000000; stroke-linecap:round; stroke-linejoin:round; stroke-width:4; stroke-opacity:1; fill:none" points="149.191,276.567 168.089,276.567 "/>
<polyline clip-path="url(#clip680)" style="stroke:#000000; stroke-linecap:round; stroke-linejoin:round; stroke-width:4; stroke-opacity:1; fill:none" points="149.191,47.2441 168.089,47.2441 "/>
<path clip-path="url(#clip680)" d="M51.3162 1423.63 L80.992 1423.63 L80.992 1427.57 L51.3162 1427.57 L51.3162 1423.63 Z" fill="#000000" fill-rule="nonzero" fill-opacity="1" /><path clip-path="url(#clip680)" d="M101.663 1421.32 Q98.515 1421.32 96.6632 1423.47 Q94.8345 1425.62 94.8345 1429.37 Q94.8345 1433.1 96.6632 1435.27 Q98.515 1437.43 101.663 1437.43 Q104.811 1437.43 106.64 1435.27 Q108.492 1433.1 108.492 1429.37 Q108.492 1425.62 106.64 1423.47 Q104.811 1421.32 101.663 1421.32 M110.946 1406.66 L110.946 1410.92 Q109.186 1410.09 107.381 1409.65 Q105.598 1409.21 103.839 1409.21 Q99.2095 1409.21 96.7558 1412.33 Q94.3252 1415.46 93.978 1421.78 Q95.3437 1419.77 97.4039 1418.7 Q99.4641 1417.61 101.941 1417.61 Q107.149 1417.61 110.158 1420.78 Q113.191 1423.93 113.191 1429.37 Q113.191 1434.7 110.043 1437.91 Q106.895 1441.13 101.663 1441.13 Q95.6678 1441.13 92.4965 1436.55 Q89.3253 1431.94 89.3253 1423.21 Q89.3253 1415.02 93.2141 1410.16 Q97.103 1405.27 103.654 1405.27 Q105.413 1405.27 107.196 1405.62 Q109.001 1405.97 110.946 1406.66 Z" fill="#000000" fill-rule="nonzero" fill-opacity="1" /><path clip-path="url(#clip680)" d="M50.9921 1194.31 L80.6679 1194.31 L80.6679 1198.24 L50.9921 1198.24 L50.9921 1194.31 Z" fill="#000000" fill-rule="nonzero" fill-opacity="1" /><path clip-path="url(#clip680)" d="M103.608 1180.65 L91.8021 1199.1 L103.608 1199.1 L103.608 1180.65 M102.381 1176.58 L108.26 1176.58 L108.26 1199.1 L113.191 1199.1 L113.191 1202.99 L108.26 1202.99 L108.26 1211.14 L103.608 1211.14 L103.608 1202.99 L88.0058 1202.99 L88.0058 1198.48 L102.381 1176.58 Z" fill="#000000" fill-rule="nonzero" fill-opacity="1" /><path clip-path="url(#clip680)" d="M53.0754 964.986 L82.7512 964.986 L82.7512 968.921 L53.0754 968.921 L53.0754 964.986 Z" fill="#000000" fill-rule="nonzero" fill-opacity="1" /><path clip-path="url(#clip680)" d="M96.8715 977.879 L113.191 977.879 L113.191 981.815 L91.2465 981.815 L91.2465 977.879 Q93.9086 975.125 98.4919 970.495 Q103.098 965.842 104.279 964.5 Q106.524 961.977 107.404 960.241 Q108.307 958.481 108.307 956.792 Q108.307 954.037 106.362 952.301 Q104.441 950.565 101.339 950.565 Q99.14 950.565 96.6863 951.329 Q94.2558 952.093 91.478 953.643 L91.478 948.921 Q94.3021 947.787 96.7558 947.208 Q99.2095 946.63 101.246 946.63 Q106.617 946.63 109.811 949.315 Q113.006 952 113.006 956.491 Q113.006 958.62 112.196 960.542 Q111.408 962.44 109.302 965.032 Q108.723 965.704 105.621 968.921 Q102.52 972.116 96.8715 977.879 Z" fill="#000000" fill-rule="nonzero" fill-opacity="1" /><path clip-path="url(#clip680)" d="M101.246 721.011 Q97.6354 721.011 95.8067 724.575 Q94.0012 728.117 94.0012 735.247 Q94.0012 742.353 95.8067 745.918 Q97.6354 749.46 101.246 749.46 Q104.881 749.46 106.686 745.918 Q108.515 742.353 108.515 735.247 Q108.515 728.117 106.686 724.575 Q104.881 721.011 101.246 721.011 M101.246 717.307 Q107.057 717.307 110.112 721.913 Q113.191 726.497 113.191 735.247 Q113.191 743.973 110.112 748.58 Q107.057 753.163 101.246 753.163 Q95.4363 753.163 92.3576 748.58 Q89.3021 743.973 89.3021 735.247 Q89.3021 726.497 92.3576 721.913 Q95.4363 717.307 101.246 717.307 Z" fill="#000000" fill-rule="nonzero" fill-opacity="1" /><path clip-path="url(#clip680)" d="M96.8715 519.234 L113.191 519.234 L113.191 523.169 L91.2465 523.169 L91.2465 519.234 Q93.9086 516.48 98.4919 511.85 Q103.098 507.197 104.279 505.855 Q106.524 503.331 107.404 501.595 Q108.307 499.836 108.307 498.146 Q108.307 495.392 106.362 493.656 Q104.441 491.92 101.339 491.92 Q99.14 491.92 96.6863 492.683 Q94.2558 493.447 91.478 494.998 L91.478 490.276 Q94.3021 489.142 96.7558 488.563 Q99.2095 487.984 101.246 487.984 Q106.617 487.984 109.811 490.67 Q113.006 493.355 113.006 497.845 Q113.006 499.975 112.196 501.896 Q111.408 503.794 109.302 506.387 Q108.723 507.058 105.621 510.276 Q102.52 513.47 96.8715 519.234 Z" fill="#000000" fill-rule="nonzero" fill-opacity="1" /><path clip-path="url(#clip680)" d="M103.608 263.361 L91.8021 281.81 L103.608 281.81 L103.608 263.361 M102.381 259.287 L108.26 259.287 L108.26 281.81 L113.191 281.81 L113.191 285.699 L108.26 285.699 L108.26 293.847 L103.608 293.847 L103.608 285.699 L88.0058 285.699 L88.0058 281.185 L102.381 259.287 Z" fill="#000000" fill-rule="nonzero" fill-opacity="1" /><path clip-path="url(#clip680)" d="M101.663 45.3807 Q98.515 45.3807 96.6632 47.5334 Q94.8345 49.6862 94.8345 53.4362 Q94.8345 57.163 96.6632 59.3389 Q98.515 61.4917 101.663 61.4917 Q104.811 61.4917 106.64 59.3389 Q108.492 57.163 108.492 53.4362 Q108.492 49.6862 106.64 47.5334 Q104.811 45.3807 101.663 45.3807 M110.946 30.728 L110.946 34.9872 Q109.186 34.1539 107.381 33.7141 Q105.598 33.2743 103.839 33.2743 Q99.2095 33.2743 96.7558 36.3992 Q94.3252 39.5242 93.978 45.8436 Q95.3437 43.8298 97.4039 42.765 Q99.4641 41.677 101.941 41.677 Q107.149 41.677 110.158 44.8483 Q113.191 47.9964 113.191 53.4362 Q113.191 58.7602 110.043 61.9778 Q106.895 65.1954 101.663 65.1954 Q95.6678 65.1954 92.4965 60.6121 Q89.3253 56.0056 89.3253 47.2788 Q89.3253 39.0844 93.2141 34.2233 Q97.103 29.3391 103.654 29.3391 Q105.413 29.3391 107.196 29.6863 Q109.001 30.0335 110.946 30.728 Z" fill="#000000" fill-rule="nonzero" fill-opacity="1" /><polyline clip-path="url(#clip682)" style="stroke:#009af9; stroke-linecap:round; stroke-linejoin:round; stroke-width:12; stroke-opacity:1; fill:none" points="149.191,1193.86 151.945,1193.68 154.7,1193.16 157.454,1192.33 160.209,1191.18 162.963,1189.76 165.718,1188.06 168.472,1186.12 171.227,1183.96 173.981,1181.59 176.735,1179.02 179.49,1176.29 182.244,1173.4 184.999,1170.37 187.753,1167.21 190.508,1163.95 193.262,1160.59 196.017,1157.15 198.771,1153.63 201.526,1150.05 204.28,1146.42 207.034,1142.74 209.789,1139.02 212.543,1135.27 215.298,1131.49 218.052,1127.69 220.807,1123.87 223.561,1120.04 226.316,1116.2 229.07,1112.35 231.825,1108.49 234.579,1104.63 237.333,1100.76 240.088,1096.89 242.842,1093.02 245.597,1089.15 248.351,1085.28 251.106,1081.41 253.86,1077.53 256.615,1073.66 259.369,1069.79 262.124,1065.91 264.878,1062.04 267.632,1058.16 270.387,1054.29 273.141,1050.42 275.896,1046.55 278.65,1042.67 281.405,1038.8 284.159,1034.93 286.914,1031.05 289.668,1027.18 292.423,1023.31 295.177,1019.44 297.932,1015.57 300.686,1011.7 303.44,1007.84 306.195,1003.98 308.949,1000.11 311.704,996.256 314.458,992.401 317.213,988.549 319.967,984.701 322.722,980.857 325.476,977.018 328.231,973.184 330.985,969.356 333.739,965.534 336.494,961.718 339.248,957.908 342.003,954.106 344.757,950.312 347.512,946.526 350.266,942.748 353.021,938.979 355.775,935.219 358.53,931.469 361.284,927.729 364.038,924 366.793,920.281 369.547,916.573 372.302,912.877 375.056,909.192 377.811,905.52 380.565,901.86 383.32,898.212 386.074,894.578 388.829,890.957 391.583,887.349 394.337,883.756 397.092,880.177 399.846,876.612 402.601,873.062 405.355,869.527 408.11,866.006 410.864,862.501 413.619,859.012 416.373,855.538 419.128,852.08 421.882,848.638 424.636,845.211 427.391,841.801 430.145,838.407 432.9,835.03 435.654,831.669 438.409,828.325 441.163,824.997 443.918,821.686 446.672,818.392 449.427,815.115 452.181,811.855 454.936,808.612 457.69,805.385 460.444,802.177 463.199,798.984 465.953,795.81 468.708,792.652 471.462,789.512 474.217,786.388 476.971,783.282 479.726,780.193 482.48,777.121 485.235,774.065 487.989,771.027 490.743,768.006 493.498,765.002 496.252,762.015 499.007,759.045 501.761,756.092 504.516,753.155 507.27,750.235 510.025,747.332 512.779,744.445 515.534,741.575 518.288,738.721 521.042,735.883 523.797,733.062 526.551,730.258 529.306,727.469 532.06,724.697 534.815,721.94 537.569,719.2 540.324,716.475 543.078,713.767 545.833,711.073 548.587,708.396 551.341,705.734 554.096,703.088 556.85,700.457 559.605,697.841 562.359,695.241 565.114,692.656 567.868,690.086 570.623,687.53 573.377,684.99 576.132,682.464 578.886,679.953 581.641,677.456 584.395,674.974 587.149,672.506 589.904,670.053 592.658,667.613 595.413,665.188 598.167,662.776 600.922,660.379 603.676,657.995 606.431,655.625 609.185,653.268 611.94,650.925 614.694,648.596 617.448,646.279 620.203,643.976 622.957,641.686 625.712,639.409 628.466,637.146 631.221,634.894 633.975,632.656 636.73,630.431 639.484,628.218 642.239,626.017 644.993,623.829 647.747,621.653 650.502,619.49 653.256,617.338 656.011,615.199 658.765,613.072 661.52,610.956 664.274,608.853 667.029,606.761 669.783,604.681 672.538,602.612 675.292,600.555 678.046,598.51 680.801,596.476 683.555,594.452 686.31,592.441 689.064,590.44 691.819,588.45 694.573,586.471 697.328,584.504 700.082,582.546 702.837,580.6 705.591,578.664 708.345,576.739 711.1,574.824 713.854,572.92 716.609,571.026 719.363,569.142 722.118,567.269 724.872,565.406 727.627,563.553 730.381,561.709 733.136,559.876 735.89,558.053 738.645,556.239 741.399,554.435 744.153,552.641 746.908,550.857 749.662,549.082 752.417,547.317 755.171,545.561 757.926,543.814 760.68,542.077 763.435,540.349 766.189,538.63 768.944,536.92 771.698,535.22 774.452,533.528 777.207,531.846 779.961,530.172 782.716,528.507 785.47,526.852 788.225,525.204 790.979,523.566 793.734,521.936 796.488,520.315 799.243,518.702 801.997,517.098 804.751,515.502 807.506,513.915 810.26,512.335 813.015,510.765 815.769,509.202 818.524,507.648 821.278,506.101 824.033,504.563 826.787,503.033 829.542,501.511 832.296,499.997 835.05,498.49 837.805,496.992 840.559,495.501 843.314,494.018 846.068,492.543 848.823,491.076 851.577,489.616 854.332,488.164 857.086,486.719 859.841,485.282 862.595,483.852 865.349,482.43 868.104,481.015 870.858,479.608 873.613,478.208 876.367,476.814 879.122,475.429 881.876,474.05 884.631,472.679 887.385,471.315 890.14,469.958 892.894,468.607 895.649,467.265 898.403,465.929 901.157,464.599 903.912,463.277 906.666,461.962 909.421,460.653 912.175,459.352 914.93,458.057 917.684,456.769 920.439,455.487 923.193,454.213 925.948,452.944 928.702,451.683 931.456,450.428 934.211,449.179 936.965,447.938 939.72,446.702 942.474,445.473 945.229,444.251 947.983,443.035 950.738,441.825 953.492,440.621 956.247,439.424 959.001,438.233 961.755,437.049 964.51,435.871 967.264,434.698 970.019,433.532 972.773,432.372 975.528,431.219 978.282,430.071 981.037,428.929 983.791,427.794 986.546,426.664 989.3,425.541 992.054,424.423 994.809,423.311 997.563,422.205 1000.32,421.105 1003.07,420.011 1005.83,418.923 1008.58,417.841 1011.34,416.764 1014.09,415.693 1016.84,414.627 1019.6,413.568 1022.35,412.514 1025.11,411.466 1027.86,410.423 1030.62,409.386 1033.37,408.355 1036.13,407.329 1038.88,406.308 1041.63,405.293 1044.39,404.284 1047.14,403.28 1049.9,402.282 1052.65,401.289 1055.41,400.301 1058.16,399.319 1060.92,398.342 1063.67,397.37 1066.42,396.404 1069.18,395.443 1071.93,394.487 1074.69,393.537 1077.44,392.592 1080.2,391.652 1082.95,390.717 1085.71,389.787 1088.46,388.863 1091.21,387.943 1093.97,387.029 1096.72,386.12 1099.48,385.216 1102.23,384.317 1104.99,383.423 1107.74,382.534 1110.5,381.651 1113.25,380.772 1116.01,379.898 1118.76,379.029 1121.51,378.165 1124.27,377.306 1127.02,376.451 1129.78,375.602 1132.53,374.758 1135.29,373.919 1138.04,373.084 1140.8,372.254 1143.55,371.429 1146.3,370.609 1149.06,369.793 1151.81,368.983 1154.57,368.177 1157.32,367.375 1160.08,366.579 1162.83,365.787 1165.59,365 1168.34,364.217 1171.09,363.439 1173.85,362.666 1176.6,361.897 1179.36,361.133 1182.11,360.374 1184.87,359.619 1187.62,358.869 1190.38,358.123 1193.13,357.382 1195.88,356.645 1198.64,355.913 1201.39,355.185 1204.15,354.462 1206.9,353.743 1209.66,353.028 1212.41,352.318 1215.17,351.613 1217.92,350.912 1220.67,350.215 1223.43,349.523 1226.18,348.834 1228.94,348.151 1231.69,347.471 1234.45,346.796 1237.2,346.126 1239.96,345.459 1242.71,344.797 1245.46,344.139 1248.22,343.485 1250.97,342.836 1253.73,342.191 1256.48,341.55 1259.24,340.913 1261.99,340.28 1264.75,339.652 1267.5,339.028 1270.25,338.408 1273.01,337.792 1275.76,337.18 1278.52,336.572 1281.27,335.969 1284.03,335.369 1286.78,334.774 1289.54,334.182 1292.29,333.595 1295.04,333.012 1297.8,332.432 1300.55,331.857 1303.31,331.286 1306.06,330.719 1308.82,330.156 1311.57,329.596 1314.33,329.041 1317.08,328.49 1319.83,327.942 1322.59,327.399 1325.34,326.859 1328.1,326.324 1330.85,325.792 1333.61,325.264 1336.36,324.74 1339.12,324.22 1341.87,323.704 1344.62,323.191 1347.38,322.683 1350.13,322.178 1352.89,321.677 1355.64,321.18 1358.4,320.687 1361.15,320.197 1363.91,319.712 1366.66,319.23 1369.41,318.752 1372.17,318.277 1374.92,317.807 1377.68,317.339 1380.43,316.876 1383.19,316.417 1385.94,315.961 1388.7,315.509 1391.45,315.06 1394.21,314.615 1396.96,314.174 1399.71,313.737 1402.47,313.303 1405.22,312.873 1407.98,312.446 1410.73,312.024 1413.49,311.604 1416.24,311.189 1419,310.777 1421.75,310.368 1424.5,309.963 1427.26,309.562 1430.01,309.164 1432.77,308.77 1435.52,308.379 1438.28,307.992 1441.03,307.609 1443.79,307.229 1446.54,306.852 1449.29,306.479 1452.05,306.11 1454.8,305.744 1457.56,305.381 1460.31,305.022 1463.07,304.666 1465.82,304.314 1468.58,303.965 1471.33,303.62 1474.08,303.278 1476.84,302.94 1479.59,302.605 1482.35,302.273 1485.1,301.945 1487.86,301.621 1490.61,301.299 1493.37,300.981 1496.12,300.667 1498.87,300.355 1501.63,300.048 1504.38,299.743 1507.14,299.442 1509.89,299.144 1512.65,298.85 1515.4,298.558 1518.16,298.271 1520.91,297.986 1523.66,297.705 1526.42,297.427 1529.17,297.152 1531.93,296.881 1534.68,296.613 1537.44,296.348 1540.19,296.087 1542.95,295.828 1545.7,295.573 1548.45,295.322 1551.21,295.073 1553.96,294.828 1556.72,294.586 1559.47,294.347 1562.23,294.112 1564.98,293.879 1567.74,293.65 1570.49,293.424 1573.24,293.201 1576,292.982 1578.75,292.765 1581.51,292.552 1584.26,292.342 1587.02,292.135 1589.77,291.931 1592.53,291.731 1595.28,291.533 1598.03,291.339 1600.79,291.148 1603.54,290.96 1606.3,290.775 1609.05,290.593 1611.81,290.414 1614.56,290.238 1617.32,290.066 1620.07,289.896 1622.82,289.73 1625.58,289.567 1628.33,289.407 1631.09,289.249 1633.84,289.095 1636.6,288.944 1639.35,288.796 1642.11,288.651 1644.86,288.51 1647.62,288.371 1650.37,288.235 1653.12,288.102 1655.88,287.972 1658.63,287.846 1661.39,287.722 1664.14,287.601 1666.9,287.483 1669.65,287.369 1672.41,287.257 1675.16,287.148 1677.91,287.042 1680.67,286.94 1683.42,286.84 1686.18,286.743 1688.93,286.649 1691.69,286.558 1694.44,286.47 1697.2,286.385 1699.95,286.303 1702.7,286.224 1705.46,286.148 1708.21,286.074 1710.97,286.004 1713.72,285.936 1716.48,285.872 1719.23,285.81 1721.99,285.752 1724.74,285.696 1727.49,285.643 1730.25,285.593 1733,285.546 1735.76,285.501 1738.51,285.46 1741.27,285.421 1744.02,285.386 1746.78,285.353 1749.53,285.323 1752.28,285.296 1755.04,285.272 1757.79,285.251 1760.55,285.232 1763.3,285.217 1766.06,285.204 1768.81,285.194 1771.57,285.187 1774.32,285.182 1777.07,285.181 1779.83,285.182 1782.58,285.186 1785.34,285.193 1788.09,285.203 1790.85,285.216 1793.6,285.231 1796.36,285.249 1799.11,285.27 1801.86,285.294 1804.62,285.321 1807.37,285.35 1810.13,285.382 1812.88,285.417 1815.64,285.455 1818.39,285.495 1821.15,285.539 1823.9,285.585 1826.65,285.633 1829.41,285.685 1832.16,285.739 1834.92,285.796 1837.67,285.856 1840.43,285.919 1843.18,285.984 1845.94,286.052 1848.69,286.123 1851.44,286.196 1854.2,286.272 1856.95,286.351 1859.71,286.433 1862.46,286.517 1865.22,286.604 1867.97,286.694 1870.73,286.787 1873.48,286.882 1876.23,286.98 1878.99,287.08 1881.74,287.184 1884.5,287.29 1887.25,287.398 1890.01,287.51 1892.76,287.624 1895.52,287.74 1898.27,287.86 1901.03,287.982 1903.78,288.107 1906.53,288.234 1909.29,288.364 1912.04,288.497 1914.8,288.632 1917.55,288.77 1920.31,288.911 1923.06,289.054 1925.82,289.2 1928.57,289.349 1931.32,289.5 1934.08,289.654 1936.83,289.811 1939.59,289.97 1942.34,290.132 1945.1,290.297 1947.85,290.464 1950.61,290.633 1953.36,290.806 1956.11,290.981 1958.87,291.158 1961.62,291.339 1964.38,291.521 1967.13,291.707 1969.89,291.895 1972.64,292.086 1975.4,292.279 1978.15,292.475 1980.9,292.673 1983.66,292.874 1986.41,293.078 1989.17,293.284 1991.92,293.493 1994.68,293.704 1997.43,293.919 2000.19,294.135 2002.94,294.354 2005.69,294.576 2008.45,294.8 2011.2,295.027 2013.96,295.257 2016.71,295.489 2019.47,295.723 2022.22,295.961 2024.98,296.2 2027.73,296.443 2030.48,296.687 2033.24,296.935 2035.99,297.185 2038.75,297.437 2041.5,297.692 2044.26,297.95 2047.01,298.21 2049.77,298.473 2052.52,298.738 2055.27,299.005 2058.03,299.276 2060.78,299.549 2063.54,299.824 2066.29,300.102 2069.05,300.382 2071.8,300.665 2074.56,300.95 2077.31,301.238 2080.06,301.529 2082.82,301.822 2085.57,302.117 2088.33,302.415 2091.08,302.716 2093.84,303.019 2096.59,303.325 2099.35,303.633 2102.1,303.943 2104.85,304.256 2107.61,304.572 2110.36,304.89 2113.12,305.21 2115.87,305.533 2118.63,305.859 2121.38,306.187 2124.14,306.517 2126.89,306.85 2129.64,307.186 2132.4,307.524 2135.15,307.864 2137.91,308.207 2140.66,308.553 2143.42,308.9 2146.17,309.251 2148.93,309.604 2151.68,309.959 2154.44,310.317 2157.19,310.677 2159.94,311.04 2162.7,311.405 2165.45,311.772 2168.21,312.142 2170.96,312.515 2173.72,312.89 2176.47,313.267 2179.23,313.647 2181.98,314.03 2184.73,314.415 2187.49,314.802 2190.24,315.191 2193,315.584 2195.75,315.978 2198.51,316.375 2201.26,316.775 2204.02,317.177 2206.77,317.581 2209.52,317.988 2212.28,318.397 2215.03,318.809 2217.79,319.223 2220.54,319.639 2223.3,320.059 2226.05,320.48 2228.81,320.904 2231.56,321.33 2234.31,321.759 2237.07,322.19 2239.82,322.623 2242.58,323.059 2245.33,323.498 2248.09,323.939 2250.84,324.382 2253.6,324.827 2256.35,325.275 2259.1,325.726 2261.86,326.179 2264.61,326.634 2267.37,327.092 2270.12,327.552 2272.88,328.015 2275.63,328.479 2278.39,328.947 2281.14,329.417 2283.89,329.889 2286.65,330.363 2289.4,330.84 2292.16,331.32 2294.91,331.802 2297.67,332.286 2300.42,332.772 2303.18,333.261 2305.93,333.753 2308.68,334.246 2311.44,334.743 2314.19,335.241 2316.95,335.742 2319.7,336.246 2322.46,336.752 2325.21,337.259 2327.97,337.77 2330.72,338.283 2333.47,338.798 2336.23,339.316 2338.98,339.836 2341.74,340.359 2344.49,340.883 2347.25,341.411 2350,341.94 2352.76,342.472 "/>
<polyline clip-path="url(#clip682)" style="stroke:#e26f46; stroke-linecap:round; stroke-linejoin:round; stroke-width:12; stroke-opacity:1; fill:none" points="149.191,735.212 151.945,700.278 154.7,667.121 157.454,635.809 160.209,606.389 162.963,578.892 165.718,553.329 168.472,529.692 171.227,507.954 173.981,488.075 176.735,470.001 179.49,453.658 182.244,438.965 184.999,425.834 187.753,414.174 190.508,403.885 193.262,394.863 196.017,387.003 198.771,380.203 201.526,374.361 204.28,369.38 207.034,365.169 209.789,361.638 212.543,358.705 215.298,356.291 218.052,354.324 220.807,352.741 223.561,351.485 226.316,350.503 229.07,349.748 231.825,349.178 234.579,348.756 237.333,348.45 240.088,348.235 242.842,348.087 245.597,347.991 248.351,347.932 251.106,347.896 253.86,347.877 256.615,347.87 259.369,347.868 262.124,347.87 264.878,347.873 267.632,347.876 270.387,347.879 273.141,347.882 275.896,347.887 278.65,347.899 281.405,347.92 284.159,347.953 286.914,348.001 289.668,348.066 292.423,348.151 295.177,348.259 297.932,348.393 300.686,348.555 303.44,348.746 306.195,348.97 308.949,349.228 311.704,349.521 314.458,349.851 317.213,350.22 319.967,350.627 322.722,351.075 325.476,351.564 328.231,352.095 330.985,352.668 333.739,353.284 336.494,353.943 339.248,354.643 342.003,355.385 344.757,356.169 347.512,356.993 350.266,357.858 353.021,358.763 355.775,359.707 358.53,360.689 361.284,361.709 364.038,362.767 366.793,363.861 369.547,364.99 372.302,366.154 375.056,367.351 377.811,368.581 380.565,369.843 383.32,371.136 386.074,372.458 388.829,373.808 391.583,375.185 394.337,376.589 397.092,378.016 399.846,379.467 402.601,380.94 405.355,382.434 408.11,383.948 410.864,385.481 413.619,387.031 416.373,388.599 419.128,390.182 421.882,391.78 424.636,393.391 427.391,395.015 430.145,396.651 432.9,398.298 435.654,399.954 438.409,401.619 441.163,403.293 443.918,404.973 446.672,406.66 449.427,408.353 452.181,410.05 454.936,411.752 457.69,413.457 460.444,415.165 463.199,416.874 465.953,418.585 468.708,420.297 471.462,422.009 474.217,423.721 476.971,425.431 479.726,427.14 482.48,428.848 485.235,430.552 487.989,432.254 490.743,433.952 493.498,435.646 496.252,437.336 499.007,439.021 501.761,440.702 504.516,442.377 507.27,444.047 510.025,445.711 512.779,447.369 515.534,449.021 518.288,450.666 521.042,452.304 523.797,453.935 526.551,455.559 529.306,457.175 532.06,458.784 534.815,460.385 537.569,461.978 540.324,463.562 543.078,465.138 545.833,466.706 548.587,468.265 551.341,469.815 554.096,471.356 556.85,472.889 559.605,474.412 562.359,475.926 565.114,477.431 567.868,478.926 570.623,480.412 573.377,481.889 576.132,483.357 578.886,484.815 581.641,486.263 584.395,487.703 587.149,489.133 589.904,490.553 592.658,491.965 595.413,493.367 598.167,494.759 600.922,496.143 603.676,497.516 606.431,498.881 609.185,500.236 611.94,501.582 614.694,502.918 617.448,504.246 620.203,505.564 622.957,506.873 625.712,508.173 628.466,509.464 631.221,510.746 633.975,512.02 636.73,513.284 639.484,514.539 642.239,515.786 644.993,517.024 647.747,518.253 650.502,519.473 653.256,520.685 656.011,521.889 658.765,523.084 661.52,524.27 664.274,525.448 667.029,526.618 669.783,527.78 672.538,528.934 675.292,530.079 678.046,531.216 680.801,532.346 683.555,533.467 686.31,534.581 689.064,535.687 691.819,536.785 694.573,537.876 697.328,538.959 700.082,540.035 702.837,541.103 705.591,542.164 708.345,543.218 711.1,544.265 713.854,545.304 716.609,546.337 719.363,547.362 722.118,548.381 724.872,549.392 727.627,550.397 730.381,551.396 733.136,552.387 735.89,553.372 738.645,554.351 741.399,555.323 744.153,556.288 746.908,557.248 749.662,558.201 752.417,559.148 755.171,560.088 757.926,561.023 760.68,561.952 763.435,562.875 766.189,563.792 768.944,564.703 771.698,565.608 774.452,566.508 777.207,567.402 779.961,568.29 782.716,569.173 785.47,570.05 788.225,570.923 790.979,571.789 793.734,572.651 796.488,573.507 799.243,574.358 801.997,575.204 804.751,576.044 807.506,576.88 810.26,577.711 813.015,578.537 815.769,579.358 818.524,580.174 821.278,580.985 824.033,581.792 826.787,582.594 829.542,583.392 832.296,584.185 835.05,584.973 837.805,585.757 840.559,586.536 843.314,587.311 846.068,588.082 848.823,588.848 851.577,589.611 854.332,590.368 857.086,591.122 859.841,591.872 862.595,592.618 865.349,593.359 868.104,594.097 870.858,594.831 873.613,595.56 876.367,596.286 879.122,597.008 881.876,597.727 884.631,598.441 887.385,599.152 890.14,599.859 892.894,600.562 895.649,601.262 898.403,601.958 901.157,602.651 903.912,603.34 906.666,604.026 909.421,604.709 912.175,605.388 914.93,606.063 917.684,606.736 920.439,607.405 923.193,608.07 925.948,608.733 928.702,609.392 931.456,610.048 934.211,610.701 936.965,611.351 939.72,611.998 942.474,612.642 945.229,613.282 947.983,613.92 950.738,614.555 953.492,615.187 956.247,615.815 959.001,616.441 961.755,617.065 964.51,617.685 967.264,618.302 970.019,618.917 972.773,619.529 975.528,620.138 978.282,620.744 981.037,621.348 983.791,621.949 986.546,622.547 989.3,623.143 992.054,623.736 994.809,624.327 997.563,624.915 1000.32,625.501 1003.07,626.084 1005.83,626.664 1008.58,627.242 1011.34,627.818 1014.09,628.391 1016.84,628.962 1019.6,629.53 1022.35,630.096 1025.11,630.66 1027.86,631.222 1030.62,631.781 1033.37,632.338 1036.13,632.893 1038.88,633.445 1041.63,633.995 1044.39,634.543 1047.14,635.089 1049.9,635.633 1052.65,636.174 1055.41,636.714 1058.16,637.251 1060.92,637.786 1063.67,638.32 1066.42,638.851 1069.18,639.38 1071.93,639.907 1074.69,640.432 1077.44,640.955 1080.2,641.476 1082.95,641.995 1085.71,642.513 1088.46,643.028 1091.21,643.541 1093.97,644.053 1096.72,644.562 1099.48,645.07 1102.23,645.576 1104.99,646.08 1107.74,646.582 1110.5,647.083 1113.25,647.581 1116.01,648.078 1118.76,648.573 1121.51,649.066 1124.27,649.558 1127.02,650.048 1129.78,650.536 1132.53,651.022 1135.29,651.507 1138.04,651.99 1140.8,652.471 1143.55,652.951 1146.3,653.429 1149.06,653.905 1151.81,654.38 1154.57,654.853 1157.32,655.324 1160.08,655.794 1162.83,656.263 1165.59,656.729 1168.34,657.195 1171.09,657.658 1173.85,658.12 1176.6,658.581 1179.36,659.04 1182.11,659.498 1184.87,659.954 1187.62,660.409 1190.38,660.862 1193.13,661.313 1195.88,661.764 1198.64,662.213 1201.39,662.66 1204.15,663.106 1206.9,663.55 1209.66,663.994 1212.41,664.435 1215.17,664.876 1217.92,665.315 1220.67,665.752 1223.43,666.188 1226.18,666.623 1228.94,667.057 1231.69,667.489 1234.45,667.92 1237.2,668.35 1239.96,668.778 1242.71,669.205 1245.46,669.63 1248.22,670.055 1250.97,670.478 1253.73,670.9 1256.48,671.321 1259.24,671.74 1261.99,672.158 1264.75,672.575 1267.5,672.991 1270.25,673.405 1273.01,673.818 1275.76,674.231 1278.52,674.641 1281.27,675.051 1284.03,675.46 1286.78,675.867 1289.54,676.273 1292.29,676.678 1295.04,677.082 1297.8,677.485 1300.55,677.887 1303.31,678.287 1306.06,678.687 1308.82,679.085 1311.57,679.482 1314.33,679.878 1317.08,680.274 1319.83,680.668 1322.59,681.06 1325.34,681.452 1328.1,681.843 1330.85,682.233 1333.61,682.622 1336.36,683.009 1339.12,683.396 1341.87,683.781 1344.62,684.166 1347.38,684.55 1350.13,684.932 1352.89,685.314 1355.64,685.694 1358.4,686.074 1361.15,686.453 1363.91,686.83 1366.66,687.207 1369.41,687.583 1372.17,687.958 1374.92,688.331 1377.68,688.704 1380.43,689.076 1383.19,689.447 1385.94,689.818 1388.7,690.187 1391.45,690.555 1394.21,690.922 1396.96,691.289 1399.71,691.654 1402.47,692.019 1405.22,692.383 1407.98,692.746 1410.73,693.108 1413.49,693.469 1416.24,693.829 1419,694.189 1421.75,694.547 1424.5,694.905 1427.26,695.262 1430.01,695.618 1432.77,695.973 1435.52,696.327 1438.28,696.681 1441.03,697.034 1443.79,697.385 1446.54,697.737 1449.29,698.087 1452.05,698.436 1454.8,698.785 1457.56,699.133 1460.31,699.48 1463.07,699.826 1465.82,700.172 1468.58,700.517 1471.33,700.861 1474.08,701.204 1476.84,701.546 1479.59,701.888 1482.35,702.229 1485.1,702.569 1487.86,702.909 1490.61,703.248 1493.37,703.586 1496.12,703.923 1498.87,704.26 1501.63,704.596 1504.38,704.931 1507.14,705.265 1509.89,705.599 1512.65,705.932 1515.4,706.264 1518.16,706.596 1520.91,706.927 1523.66,707.257 1526.42,707.587 1529.17,707.916 1531.93,708.244 1534.68,708.572 1537.44,708.899 1540.19,709.225 1542.95,709.551 1545.7,709.876 1548.45,710.2 1551.21,710.524 1553.96,710.847 1556.72,711.169 1559.47,711.491 1562.23,711.812 1564.98,712.132 1567.74,712.452 1570.49,712.772 1573.24,713.09 1576,713.408 1578.75,713.726 1581.51,714.043 1584.26,714.359 1587.02,714.675 1589.77,714.99 1592.53,715.304 1595.28,715.618 1598.03,715.931 1600.79,716.244 1603.54,716.556 1606.3,716.868 1609.05,717.179 1611.81,717.489 1614.56,717.799 1617.32,718.109 1620.07,718.417 1622.82,718.726 1625.58,719.033 1628.33,719.341 1631.09,719.647 1633.84,719.953 1636.6,720.259 1639.35,720.564 1642.11,720.868 1644.86,721.172 1647.62,721.476 1650.37,721.779 1653.12,722.081 1655.88,722.383 1658.63,722.685 1661.39,722.985 1664.14,723.286 1666.9,723.586 1669.65,723.885 1672.41,724.184 1675.16,724.483 1677.91,724.781 1680.67,725.078 1683.42,725.375 1686.18,725.672 1688.93,725.968 1691.69,726.263 1694.44,726.559 1697.2,726.853 1699.95,727.147 1702.7,727.441 1705.46,727.734 1708.21,728.027 1710.97,728.32 1713.72,728.612 1716.48,728.903 1719.23,729.194 1721.99,729.485 1724.74,729.775 1727.49,730.065 1730.25,730.354 1733,730.643 1735.76,730.932 1738.51,731.22 1741.27,731.507 1744.02,731.795 1746.78,732.081 1749.53,732.368 1752.28,732.654 1755.04,732.939 1757.79,733.225 1760.55,733.509 1763.3,733.794 1766.06,734.078 1768.81,734.361 1771.57,734.645 1774.32,734.927 1777.07,735.21 1779.83,735.492 1782.58,735.773 1785.34,736.055 1788.09,736.336 1790.85,736.616 1793.6,736.896 1796.36,737.176 1799.11,737.456 1801.86,737.735 1804.62,738.013 1807.37,738.292 1810.13,738.57 1812.88,738.847 1815.64,739.124 1818.39,739.401 1821.15,739.678 1823.9,739.954 1826.65,740.23 1829.41,740.505 1832.16,740.781 1834.92,741.055 1837.67,741.33 1840.43,741.604 1843.18,741.878 1845.94,742.151 1848.69,742.424 1851.44,742.697 1854.2,742.97 1856.95,743.242 1859.71,743.514 1862.46,743.785 1865.22,744.057 1867.97,744.328 1870.73,744.598 1873.48,744.869 1876.23,745.138 1878.99,745.408 1881.74,745.678 1884.5,745.947 1887.25,746.215 1890.01,746.484 1892.76,746.752 1895.52,747.02 1898.27,747.288 1901.03,747.555 1903.78,747.822 1906.53,748.089 1909.29,748.355 1912.04,748.621 1914.8,748.887 1917.55,749.153 1920.31,749.418 1923.06,749.683 1925.82,749.948 1928.57,750.212 1931.32,750.476 1934.08,750.74 1936.83,751.004 1939.59,751.267 1942.34,751.53 1945.1,751.793 1947.85,752.056 1950.61,752.318 1953.36,752.58 1956.11,752.842 1958.87,753.104 1961.62,753.365 1964.38,753.626 1967.13,753.887 1969.89,754.147 1972.64,754.408 1975.4,754.668 1978.15,754.927 1980.9,755.187 1983.66,755.446 1986.41,755.705 1989.17,755.964 1991.92,756.223 1994.68,756.481 1997.43,756.739 2000.19,756.997 2002.94,757.255 2005.69,757.512 2008.45,757.769 2011.2,758.026 2013.96,758.283 2016.71,758.54 2019.47,758.796 2022.22,759.052 2024.98,759.308 2027.73,759.564 2030.48,759.819 2033.24,760.074 2035.99,760.329 2038.75,760.584 2041.5,760.839 2044.26,761.093 2047.01,761.347 2049.77,761.601 2052.52,761.855 2055.27,762.108 2058.03,762.362 2060.78,762.615 2063.54,762.868 2066.29,763.12 2069.05,763.373 2071.8,763.625 2074.56,763.877 2077.31,764.129 2080.06,764.381 2082.82,764.633 2085.57,764.884 2088.33,765.135 2091.08,765.386 2093.84,765.637 2096.59,765.888 2099.35,766.138 2102.1,766.388 2104.85,766.638 2107.61,766.888 2110.36,767.138 2113.12,767.387 2115.87,767.637 2118.63,767.886 2121.38,768.135 2124.14,768.384 2126.89,768.632 2129.64,768.881 2132.4,769.129 2135.15,769.377 2137.91,769.625 2140.66,769.873 2143.42,770.121 2146.17,770.368 2148.93,770.616 2151.68,770.863 2154.44,771.11 2157.19,771.357 2159.94,771.603 2162.7,771.85 2165.45,772.096 2168.21,772.342 2170.96,772.588 2173.72,772.834 2176.47,773.08 2179.23,773.326 2181.98,773.571 2184.73,773.816 2187.49,774.061 2190.24,774.306 2193,774.551 2195.75,774.796 2198.51,775.041 2201.26,775.285 2204.02,775.529 2206.77,775.773 2209.52,776.017 2212.28,776.261 2215.03,776.505 2217.79,776.748 2220.54,776.992 2223.3,777.235 2226.05,777.478 2228.81,777.721 2231.56,777.964 2234.31,778.207 2237.07,778.45 2239.82,778.692 2242.58,778.934 2245.33,779.177 2248.09,779.419 2250.84,779.661 2253.6,779.902 2256.35,780.144 2259.1,780.386 2261.86,780.627 2264.61,780.868 2267.37,781.11 2270.12,781.351 2272.88,781.592 2275.63,781.832 2278.39,782.073 2281.14,782.314 2283.89,782.554 2286.65,782.795 2289.4,783.035 2292.16,783.275 2294.91,783.515 2297.67,783.755 2300.42,783.995 2303.18,784.234 2305.93,784.474 2308.68,784.713 2311.44,784.953 2314.19,785.192 2316.95,785.431 2319.7,785.67 2322.46,785.909 2325.21,786.147 2327.97,786.386 2330.72,786.625 2333.47,786.863 2336.23,787.102 2338.98,787.34 2341.74,787.578 2344.49,787.816 2347.25,788.054 2350,788.292 2352.76,788.529 "/>
<polyline clip-path="url(#clip682)" style="stroke:#3da44d; stroke-linecap:round; stroke-linejoin:round; stroke-width:12; stroke-opacity:1; fill:none" points="149.191,374.175 151.945,380.111 154.7,386.529 157.454,393.412 160.209,400.737 162.963,408.48 165.718,416.615 168.472,425.111 171.227,433.936 173.981,443.057 176.735,452.44 179.49,462.049 182.244,471.85 184.999,481.808 187.753,491.89 190.508,502.064 193.262,512.298 196.017,522.564 198.771,532.834 201.526,543.081 204.28,553.283 207.034,563.416 209.789,573.461 212.543,583.398 215.298,593.21 218.052,602.881 220.807,612.396 223.561,621.744 226.316,630.911 229.07,639.888 231.825,648.664 234.579,657.232 237.333,665.585 240.088,673.716 242.842,681.622 245.597,689.297 248.351,696.739 251.106,703.947 253.86,710.921 256.615,717.659 259.369,724.165 262.124,730.439 264.878,736.486 267.632,742.308 270.387,747.91 273.141,753.296 275.896,758.473 278.65,763.446 281.405,768.22 284.159,772.803 286.914,777.199 289.668,781.417 292.423,785.462 295.177,789.34 297.932,793.059 300.686,796.623 303.44,800.04 306.195,803.314 308.949,806.453 311.704,809.46 314.458,812.342 317.213,815.103 319.967,817.749 322.722,820.284 325.476,822.712 328.231,825.037 330.985,827.264 333.739,829.396 336.494,831.437 339.248,833.39 342.003,835.259 344.757,837.047 347.512,838.756 350.266,840.39 353.021,841.952 355.775,843.443 358.53,844.866 361.284,846.225 364.038,847.521 366.793,848.755 369.547,849.932 372.302,851.051 375.056,852.116 377.811,853.129 380.565,854.09 383.32,855.003 386.074,855.867 388.829,856.686 391.583,857.461 394.337,858.193 397.092,858.884 399.846,859.535 402.601,860.148 405.355,860.723 408.11,861.263 410.864,861.768 413.619,862.24 416.373,862.68 419.128,863.088 421.882,863.467 424.636,863.818 427.391,864.14 430.145,864.436 432.9,864.706 435.654,864.951 438.409,865.172 441.163,865.37 443.918,865.546 446.672,865.701 449.427,865.836 452.181,865.95 454.936,866.046 457.69,866.123 460.444,866.184 463.199,866.227 465.953,866.254 468.708,866.265 471.462,866.262 474.217,866.244 476.971,866.213 479.726,866.169 482.48,866.112 485.235,866.043 487.989,865.962 490.743,865.871 493.498,865.768 496.252,865.656 499.007,865.534 501.761,865.403 504.516,865.263 507.27,865.114 510.025,864.957 512.779,864.793 515.534,864.622 518.288,864.443 521.042,864.258 523.797,864.066 526.551,863.868 529.306,863.665 532.06,863.456 534.815,863.242 537.569,863.024 540.324,862.8 543.078,862.573 545.833,862.341 548.587,862.105 551.341,861.865 554.096,861.623 556.85,861.376 559.605,861.127 562.359,860.875 565.114,860.62 567.868,860.363 570.623,860.103 573.377,859.842 576.132,859.578 578.886,859.312 581.641,859.045 584.395,858.776 587.149,858.506 589.904,858.234 592.658,857.962 595.413,857.688 598.167,857.413 600.922,857.138 603.676,856.861 606.431,856.585 609.185,856.307 611.94,856.029 614.694,855.751 617.448,855.473 620.203,855.195 622.957,854.916 625.712,854.638 628.466,854.359 631.221,854.081 633.975,853.803 636.73,853.525 639.484,853.248 642.239,852.971 644.993,852.695 647.747,852.419 650.502,852.143 653.256,851.869 656.011,851.595 658.765,851.321 661.52,851.049 664.274,850.777 667.029,850.506 669.783,850.236 672.538,849.967 675.292,849.699 678.046,849.432 680.801,849.166 683.555,848.901 686.31,848.637 689.064,848.374 691.819,848.112 694.573,847.851 697.328,847.592 700.082,847.333 702.837,847.076 705.591,846.821 708.345,846.566 711.1,846.313 713.854,846.061 716.609,845.81 719.363,845.56 722.118,845.312 724.872,845.065 727.627,844.82 730.381,844.576 733.136,844.333 735.89,844.092 738.645,843.851 741.399,843.613 744.153,843.375 746.908,843.139 749.662,842.905 752.417,842.672 755.171,842.44 757.926,842.21 760.68,841.98 763.435,841.753 766.189,841.527 768.944,841.302 771.698,841.078 774.452,840.856 777.207,840.636 779.961,840.416 782.716,840.199 785.47,839.982 788.225,839.767 790.979,839.553 793.734,839.341 796.488,839.13 799.243,838.92 801.997,838.712 804.751,838.505 807.506,838.299 810.26,838.095 813.015,837.892 815.769,837.691 818.524,837.49 821.278,837.291 824.033,837.094 826.787,836.898 829.542,836.703 832.296,836.509 835.05,836.316 837.805,836.125 840.559,835.935 843.314,835.747 846.068,835.559 848.823,835.373 851.577,835.188 854.332,835.005 857.086,834.822 859.841,834.641 862.595,834.461 865.349,834.282 868.104,834.104 870.858,833.928 873.613,833.753 876.367,833.578 879.122,833.405 881.876,833.234 884.631,833.063 887.385,832.893 890.14,832.725 892.894,832.557 895.649,832.391 898.403,832.226 901.157,832.062 903.912,831.899 906.666,831.737 909.421,831.576 912.175,831.416 914.93,831.257 917.684,831.099 920.439,830.942 923.193,830.787 925.948,830.632 928.702,830.478 931.456,830.325 934.211,830.173 936.965,830.023 939.72,829.873 942.474,829.724 945.229,829.576 947.983,829.429 950.738,829.282 953.492,829.137 956.247,828.993 959.001,828.849 961.755,828.707 964.51,828.565 967.264,828.424 970.019,828.284 972.773,828.145 975.528,828.007 978.282,827.87 981.037,827.733 983.791,827.597 986.546,827.462 989.3,827.328 992.054,827.195 994.809,827.063 997.563,826.931 1000.32,826.8 1003.07,826.67 1005.83,826.54 1008.58,826.412 1011.34,826.284 1014.09,826.157 1016.84,826.031 1019.6,825.905 1022.35,825.78 1025.11,825.656 1027.86,825.532 1030.62,825.41 1033.37,825.287 1036.13,825.166 1038.88,825.045 1041.63,824.925 1044.39,824.806 1047.14,824.687 1049.9,824.569 1052.65,824.452 1055.41,824.335 1058.16,824.219 1060.92,824.104 1063.67,823.989 1066.42,823.875 1069.18,823.761 1071.93,823.649 1074.69,823.536 1077.44,823.425 1080.2,823.313 1082.95,823.203 1085.71,823.093 1088.46,822.984 1091.21,822.875 1093.97,822.767 1096.72,822.659 1099.48,822.552 1102.23,822.446 1104.99,822.34 1107.74,822.234 1110.5,822.13 1113.25,822.025 1116.01,821.922 1118.76,821.818 1121.51,821.716 1124.27,821.614 1127.02,821.512 1129.78,821.411 1132.53,821.31 1135.29,821.21 1138.04,821.111 1140.8,821.011 1143.55,820.913 1146.3,820.815 1149.06,820.717 1151.81,820.62 1154.57,820.523 1157.32,820.427 1160.08,820.331 1162.83,820.236 1165.59,820.141 1168.34,820.047 1171.09,819.953 1173.85,819.86 1176.6,819.767 1179.36,819.674 1182.11,819.582 1184.87,819.491 1187.62,819.4 1190.38,819.309 1193.13,819.219 1195.88,819.129 1198.64,819.039 1201.39,818.95 1204.15,818.862 1206.9,818.774 1209.66,818.686 1212.41,818.598 1215.17,818.511 1217.92,818.425 1220.67,818.339 1223.43,818.253 1226.18,818.168 1228.94,818.083 1231.69,817.998 1234.45,817.914 1237.2,817.83 1239.96,817.747 1242.71,817.664 1245.46,817.582 1248.22,817.499 1250.97,817.418 1253.73,817.336 1256.48,817.255 1259.24,817.174 1261.99,817.094 1264.75,817.014 1267.5,816.934 1270.25,816.855 1273.01,816.776 1275.76,816.698 1278.52,816.62 1281.27,816.542 1284.03,816.464 1286.78,816.387 1289.54,816.311 1292.29,816.234 1295.04,816.158 1297.8,816.082 1300.55,816.007 1303.31,815.932 1306.06,815.857 1308.82,815.783 1311.57,815.709 1314.33,815.635 1317.08,815.562 1319.83,815.489 1322.59,815.416 1325.34,815.344 1328.1,815.272 1330.85,815.2 1333.61,815.129 1336.36,815.058 1339.12,814.987 1341.87,814.917 1344.62,814.846 1347.38,814.777 1350.13,814.707 1352.89,814.638 1355.64,814.569 1358.4,814.501 1361.15,814.432 1363.91,814.365 1366.66,814.297 1369.41,814.23 1372.17,814.163 1374.92,814.096 1377.68,814.029 1380.43,813.963 1383.19,813.898 1385.94,813.832 1388.7,813.767 1391.45,813.702 1394.21,813.637 1396.96,813.573 1399.71,813.509 1402.47,813.445 1405.22,813.382 1407.98,813.318 1410.73,813.256 1413.49,813.193 1416.24,813.131 1419,813.069 1421.75,813.007 1424.5,812.945 1427.26,812.884 1430.01,812.823 1432.77,812.763 1435.52,812.702 1438.28,812.642 1441.03,812.582 1443.79,812.523 1446.54,812.464 1449.29,812.404 1452.05,812.346 1454.8,812.287 1457.56,812.229 1460.31,812.171 1463.07,812.114 1465.82,812.056 1468.58,811.999 1471.33,811.942 1474.08,811.886 1476.84,811.829 1479.59,811.773 1482.35,811.717 1485.1,811.662 1487.86,811.607 1490.61,811.551 1493.37,811.497 1496.12,811.442 1498.87,811.388 1501.63,811.334 1504.38,811.28 1507.14,811.227 1509.89,811.173 1512.65,811.12 1515.4,811.068 1518.16,811.015 1520.91,810.963 1523.66,810.911 1526.42,810.859 1529.17,810.807 1531.93,810.756 1534.68,810.705 1537.44,810.654 1540.19,810.604 1542.95,810.553 1545.7,810.503 1548.45,810.453 1551.21,810.404 1553.96,810.355 1556.72,810.305 1559.47,810.256 1562.23,810.208 1564.98,810.159 1567.74,810.111 1570.49,810.063 1573.24,810.016 1576,809.968 1578.75,809.921 1581.51,809.874 1584.26,809.827 1587.02,809.78 1589.77,809.734 1592.53,809.688 1595.28,809.642 1598.03,809.596 1600.79,809.551 1603.54,809.505 1606.3,809.46 1609.05,809.416 1611.81,809.371 1614.56,809.327 1617.32,809.283 1620.07,809.239 1622.82,809.195 1625.58,809.151 1628.33,809.108 1631.09,809.065 1633.84,809.022 1636.6,808.98 1639.35,808.937 1642.11,808.895 1644.86,808.853 1647.62,808.811 1650.37,808.77 1653.12,808.728 1655.88,808.687 1658.63,808.646 1661.39,808.605 1664.14,808.565 1666.9,808.525 1669.65,808.484 1672.41,808.444 1675.16,808.405 1677.91,808.365 1680.67,808.326 1683.42,808.287 1686.18,808.248 1688.93,808.209 1691.69,808.171 1694.44,808.132 1697.2,808.094 1699.95,808.056 1702.7,808.018 1705.46,807.981 1708.21,807.943 1710.97,807.906 1713.72,807.869 1716.48,807.833 1719.23,807.796 1721.99,807.76 1724.74,807.723 1727.49,807.687 1730.25,807.651 1733,807.616 1735.76,807.58 1738.51,807.545 1741.27,807.51 1744.02,807.475 1746.78,807.44 1749.53,807.406 1752.28,807.371 1755.04,807.337 1757.79,807.303 1760.55,807.269 1763.3,807.236 1766.06,807.202 1768.81,807.169 1771.57,807.136 1774.32,807.103 1777.07,807.07 1779.83,807.038 1782.58,807.005 1785.34,806.973 1788.09,806.941 1790.85,806.909 1793.6,806.877 1796.36,806.846 1799.11,806.814 1801.86,806.783 1804.62,806.752 1807.37,806.721 1810.13,806.69 1812.88,806.66 1815.64,806.629 1818.39,806.599 1821.15,806.569 1823.9,806.539 1826.65,806.509 1829.41,806.48 1832.16,806.45 1834.92,806.421 1837.67,806.392 1840.43,806.363 1843.18,806.334 1845.94,806.306 1848.69,806.277 1851.44,806.249 1854.2,806.221 1856.95,806.193 1859.71,806.165 1862.46,806.137 1865.22,806.11 1867.97,806.082 1870.73,806.055 1873.48,806.028 1876.23,806.001 1878.99,805.974 1881.74,805.948 1884.5,805.921 1887.25,805.895 1890.01,805.869 1892.76,805.842 1895.52,805.817 1898.27,805.791 1901.03,805.765 1903.78,805.74 1906.53,805.714 1909.29,805.689 1912.04,805.664 1914.8,805.639 1917.55,805.614 1920.31,805.59 1923.06,805.565 1925.82,805.541 1928.57,805.517 1931.32,805.493 1934.08,805.469 1936.83,805.445 1939.59,805.421 1942.34,805.398 1945.1,805.374 1947.85,805.351 1950.61,805.328 1953.36,805.305 1956.11,805.282 1958.87,805.259 1961.62,805.237 1964.38,805.214 1967.13,805.192 1969.89,805.17 1972.64,805.147 1975.4,805.125 1978.15,805.104 1980.9,805.082 1983.66,805.06 1986.41,805.039 1989.17,805.017 1991.92,804.996 1994.68,804.975 1997.43,804.954 2000.19,804.933 2002.94,804.912 2005.69,804.892 2008.45,804.871 2011.2,804.851 2013.96,804.831 2016.71,804.81 2019.47,804.79 2022.22,804.77 2024.98,804.751 2027.73,804.731 2030.48,804.711 2033.24,804.692 2035.99,804.673 2038.75,804.653 2041.5,804.634 2044.26,804.615 2047.01,804.596 2049.77,804.577 2052.52,804.559 2055.27,804.54 2058.03,804.522 2060.78,804.503 2063.54,804.485 2066.29,804.467 2069.05,804.449 2071.8,804.431 2074.56,804.413 2077.31,804.395 2080.06,804.378 2082.82,804.36 2085.57,804.343 2088.33,804.326 2091.08,804.308 2093.84,804.291 2096.59,804.274 2099.35,804.257 2102.1,804.241 2104.85,804.224 2107.61,804.207 2110.36,804.191 2113.12,804.174 2115.87,804.158 2118.63,804.142 2121.38,804.126 2124.14,804.11 2126.89,804.094 2129.64,804.078 2132.4,804.062 2135.15,804.047 2137.91,804.031 2140.66,804.016 2143.42,804 2146.17,803.985 2148.93,803.97 2151.68,803.955 2154.44,803.94 2157.19,803.925 2159.94,803.91 2162.7,803.895 2165.45,803.881 2168.21,803.866 2170.96,803.852 2173.72,803.837 2176.47,803.823 2179.23,803.809 2181.98,803.795 2184.73,803.781 2187.49,803.767 2190.24,803.753 2193,803.739 2195.75,803.725 2198.51,803.712 2201.26,803.698 2204.02,803.685 2206.77,803.671 2209.52,803.658 2212.28,803.645 2215.03,803.632 2217.79,803.619 2220.54,803.606 2223.3,803.593 2226.05,803.58 2228.81,803.567 2231.56,803.555 2234.31,803.542 2237.07,803.53 2239.82,803.517 2242.58,803.505 2245.33,803.493 2248.09,803.481 2250.84,803.468 2253.6,803.456 2256.35,803.444 2259.1,803.433 2261.86,803.421 2264.61,803.409 2267.37,803.397 2270.12,803.386 2272.88,803.374 2275.63,803.363 2278.39,803.351 2281.14,803.34 2283.89,803.329 2286.65,803.317 2289.4,803.306 2292.16,803.295 2294.91,803.284 2297.67,803.273 2300.42,803.263 2303.18,803.252 2305.93,803.241 2308.68,803.23 2311.44,803.22 2314.19,803.209 2316.95,803.199 2319.7,803.188 2322.46,803.178 2325.21,803.168 2327.97,803.158 2330.72,803.148 2333.47,803.138 2336.23,803.127 2338.98,803.118 2341.74,803.108 2344.49,803.098 2347.25,803.088 2350,803.078 2352.76,803.069 "/>
<path clip-path="url(#clip680)" d="M1969.85 1377.32 L2279.3 1377.32 L2279.3 1169.96 L1969.85 1169.96  Z" fill="#ffffff" fill-rule="evenodd" fill-opacity="1"/>
<polyline clip-path="url(#clip680)" style="stroke:#000000; stroke-linecap:round; stroke-linejoin:round; stroke-width:4; stroke-opacity:1; fill:none" points="1969.85,1377.32 2279.3,1377.32 2279.3,1169.96 1969.85,1169.96 1969.85,1377.32 "/>
<polyline clip-path="url(#clip680)" style="stroke:#009af9; stroke-linecap:round; stroke-linejoin:round; stroke-width:12; stroke-opacity:1; fill:none" points="1994.33,1221.8 2141.24,1221.8 "/>
<path clip-path="url(#clip680)" d="M2165.72 1228.84 L2165.72 1213.15 L2169.98 1213.15 L2169.98 1228.68 Q2169.98 1232.36 2171.42 1234.21 Q2172.85 1236.04 2175.72 1236.04 Q2179.17 1236.04 2181.16 1233.84 Q2183.18 1231.64 2183.18 1227.85 L2183.18 1213.15 L2187.44 1213.15 L2187.44 1239.08 L2183.18 1239.08 L2183.18 1235.09 Q2181.63 1237.45 2179.57 1238.61 Q2177.53 1239.75 2174.82 1239.75 Q2170.35 1239.75 2168.04 1236.97 Q2165.72 1234.19 2165.72 1228.84 M2176.44 1212.52 L2176.44 1212.52 Z" fill="#000000" fill-rule="nonzero" fill-opacity="1" /><path clip-path="url(#clip680)" d="M2195.82 1203.06 L2205.63 1203.06 L2205.63 1206.37 L2200.07 1206.37 L2200.07 1242.02 L2205.63 1242.02 L2205.63 1245.33 L2195.82 1245.33 L2195.82 1203.06 Z" fill="#000000" fill-rule="nonzero" fill-opacity="1" /><path clip-path="url(#clip680)" d="M2216.12 1235.14 L2223.76 1235.14 L2223.76 1208.77 L2215.44 1210.44 L2215.44 1206.18 L2223.71 1204.52 L2228.38 1204.52 L2228.38 1235.14 L2236.02 1235.14 L2236.02 1239.08 L2216.12 1239.08 L2216.12 1235.14 Z" fill="#000000" fill-rule="nonzero" fill-opacity="1" /><path clip-path="url(#clip680)" d="M2254.82 1203.06 L2254.82 1245.33 L2245 1245.33 L2245 1242.02 L2250.54 1242.02 L2250.54 1206.37 L2245 1206.37 L2245 1203.06 L2254.82 1203.06 Z" fill="#000000" fill-rule="nonzero" fill-opacity="1" /><polyline clip-path="url(#clip680)" style="stroke:#e26f46; stroke-linecap:round; stroke-linejoin:round; stroke-width:12; stroke-opacity:1; fill:none" points="1994.33,1273.64 2141.24,1273.64 "/>
<path clip-path="url(#clip680)" d="M2165.72 1280.68 L2165.72 1264.99 L2169.98 1264.99 L2169.98 1280.52 Q2169.98 1284.2 2171.42 1286.05 Q2172.85 1287.88 2175.72 1287.88 Q2179.17 1287.88 2181.16 1285.68 Q2183.18 1283.48 2183.18 1279.69 L2183.18 1264.99 L2187.44 1264.99 L2187.44 1290.92 L2183.18 1290.92 L2183.18 1286.93 Q2181.63 1289.29 2179.57 1290.45 Q2177.53 1291.59 2174.82 1291.59 Q2170.35 1291.59 2168.04 1288.81 Q2165.72 1286.03 2165.72 1280.68 M2176.44 1264.36 L2176.44 1264.36 Z" fill="#000000" fill-rule="nonzero" fill-opacity="1" /><path clip-path="url(#clip680)" d="M2195.82 1254.9 L2205.63 1254.9 L2205.63 1258.21 L2200.07 1258.21 L2200.07 1293.86 L2205.63 1293.86 L2205.63 1297.17 L2195.82 1297.17 L2195.82 1254.9 Z" fill="#000000" fill-rule="nonzero" fill-opacity="1" /><path clip-path="url(#clip680)" d="M2219.33 1286.98 L2235.65 1286.98 L2235.65 1290.92 L2213.71 1290.92 L2213.71 1286.98 Q2216.37 1284.23 2220.95 1279.6 Q2225.56 1274.94 2226.74 1273.6 Q2228.99 1271.08 2229.87 1269.34 Q2230.77 1267.58 2230.77 1265.89 Q2230.77 1263.14 2228.82 1261.4 Q2226.9 1259.67 2223.8 1259.67 Q2221.6 1259.67 2219.15 1260.43 Q2216.72 1261.19 2213.94 1262.74 L2213.94 1258.02 Q2216.76 1256.89 2219.22 1256.31 Q2221.67 1255.73 2223.71 1255.73 Q2229.08 1255.73 2232.27 1258.42 Q2235.47 1261.1 2235.47 1265.59 Q2235.47 1267.72 2234.66 1269.64 Q2233.87 1271.54 2231.76 1274.13 Q2231.19 1274.8 2228.08 1278.02 Q2224.98 1281.22 2219.33 1286.98 Z" fill="#000000" fill-rule="nonzero" fill-opacity="1" /><path clip-path="url(#clip680)" d="M2254.82 1254.9 L2254.82 1297.17 L2245 1297.17 L2245 1293.86 L2250.54 1293.86 L2250.54 1258.21 L2245 1258.21 L2245 1254.9 L2254.82 1254.9 Z" fill="#000000" fill-rule="nonzero" fill-opacity="1" /><polyline clip-path="url(#clip680)" style="stroke:#3da44d; stroke-linecap:round; stroke-linejoin:round; stroke-width:12; stroke-opacity:1; fill:none" points="1994.33,1325.48 2141.24,1325.48 "/>
<path clip-path="url(#clip680)" d="M2165.72 1332.52 L2165.72 1316.83 L2169.98 1316.83 L2169.98 1332.36 Q2169.98 1336.04 2171.42 1337.89 Q2172.85 1339.72 2175.72 1339.72 Q2179.17 1339.72 2181.16 1337.52 Q2183.18 1335.32 2183.18 1331.53 L2183.18 1316.83 L2187.44 1316.83 L2187.44 1342.76 L2183.18 1342.76 L2183.18 1338.77 Q2181.63 1341.13 2179.57 1342.29 Q2177.53 1343.43 2174.82 1343.43 Q2170.35 1343.43 2168.04 1340.65 Q2165.72 1337.87 2165.72 1332.52 M2176.44 1316.2 L2176.44 1316.2 Z" fill="#000000" fill-rule="nonzero" fill-opacity="1" /><path clip-path="url(#clip680)" d="M2206.44 1306.78 Q2203.34 1312.11 2201.83 1317.32 Q2200.33 1322.52 2200.33 1327.87 Q2200.33 1333.22 2201.83 1338.47 Q2203.36 1343.7 2206.44 1349.01 L2202.74 1349.01 Q2199.26 1343.57 2197.53 1338.31 Q2195.82 1333.06 2195.82 1327.87 Q2195.82 1322.71 2197.53 1317.48 Q2199.24 1312.25 2202.74 1306.78 L2206.44 1306.78 Z" fill="#000000" fill-rule="nonzero" fill-opacity="1" /><path clip-path="url(#clip680)" d="M2218.92 1309.47 L2218.92 1316.83 L2227.69 1316.83 L2227.69 1320.14 L2218.92 1320.14 L2218.92 1334.21 Q2218.92 1337.38 2219.77 1338.29 Q2220.65 1339.19 2223.32 1339.19 L2227.69 1339.19 L2227.69 1342.76 L2223.32 1342.76 Q2218.38 1342.76 2216.51 1340.93 Q2214.63 1339.07 2214.63 1334.21 L2214.63 1320.14 L2211.51 1320.14 L2211.51 1316.83 L2214.63 1316.83 L2214.63 1309.47 L2218.92 1309.47 Z" fill="#000000" fill-rule="nonzero" fill-opacity="1" /><path clip-path="url(#clip680)" d="M2232.62 1306.78 L2236.32 1306.78 Q2239.8 1312.25 2241.51 1317.48 Q2243.25 1322.71 2243.25 1327.87 Q2243.25 1333.06 2241.51 1338.31 Q2239.8 1343.57 2236.32 1349.01 L2232.62 1349.01 Q2235.7 1343.7 2237.2 1338.47 Q2238.73 1333.22 2238.73 1327.87 Q2238.73 1322.52 2237.2 1317.32 Q2235.7 1312.11 2232.62 1306.78 Z" fill="#000000" fill-rule="nonzero" fill-opacity="1" /></svg>
