<?xml version="1.0" encoding="utf-8"?>
<svg xmlns="http://www.w3.org/2000/svg" xmlns:xlink="http://www.w3.org/1999/xlink" width="600" height="400" viewBox="0 0 2400 1600">
<defs>
  <clipPath id="clip130">
    <rect x="0" y="0" width="2400" height="1600"/>
  </clipPath>
</defs>
<path clip-path="url(#clip130)" d="M0 1600 L2400 1600 L2400 0 L0 0  Z" fill="#ffffff" fill-rule="evenodd" fill-opacity="1"/>
<defs>
  <clipPath id="clip131">
    <rect x="480" y="0" width="1681" height="1600"/>
  </clipPath>
</defs>
<path clip-path="url(#clip130)" d="M149.191 1423.18 L2352.76 1423.18 L2352.76 47.2441 L149.191 47.2441  Z" fill="#ffffff" fill-rule="evenodd" fill-opacity="1"/>
<defs>
  <clipPath id="clip132">
    <rect x="149" y="47" width="2205" height="1377"/>
  </clipPath>
</defs>
<polyline clip-path="url(#clip132)" style="stroke:#000000; stroke-linecap:round; stroke-linejoin:round; stroke-width:2; stroke-opacity:0.1; fill:none" points="149.191,1423.18 149.191,47.2441 "/>
<polyline clip-path="url(#clip132)" style="stroke:#000000; stroke-linecap:round; stroke-linejoin:round; stroke-width:2; stroke-opacity:0.1; fill:none" points="700.082,1423.18 700.082,47.2441 "/>
<polyline clip-path="url(#clip132)" style="stroke:#000000; stroke-linecap:round; stroke-linejoin:round; stroke-width:2; stroke-opacity:0.1; fill:none" points="1250.97,1423.18 1250.97,47.2441 "/>
<polyline clip-path="url(#clip132)" style="stroke:#000000; stroke-linecap:round; stroke-linejoin:round; stroke-width:2; stroke-opacity:0.1; fill:none" points="1801.86,1423.18 1801.86,47.2441 "/>
<polyline clip-path="url(#clip132)" style="stroke:#000000; stroke-linecap:round; stroke-linejoin:round; stroke-width:2; stroke-opacity:0.1; fill:none" points="2352.76,1423.18 2352.76,47.2441 "/>
<polyline clip-path="url(#clip130)" style="stroke:#000000; stroke-linecap:round; stroke-linejoin:round; stroke-width:4; stroke-opacity:1; fill:none" points="149.191,1423.18 2352.76,1423.18 "/>
<polyline clip-path="url(#clip130)" style="stroke:#000000; stroke-linecap:round; stroke-linejoin:round; stroke-width:4; stroke-opacity:1; fill:none" points="149.191,1423.18 149.191,1404.28 "/>
<polyline clip-path="url(#clip130)" style="stroke:#000000; stroke-linecap:round; stroke-linejoin:round; stroke-width:4; stroke-opacity:1; fill:none" points="700.082,1423.18 700.082,1404.28 "/>
<polyline clip-path="url(#clip130)" style="stroke:#000000; stroke-linecap:round; stroke-linejoin:round; stroke-width:4; stroke-opacity:1; fill:none" points="1250.97,1423.18 1250.97,1404.28 "/>
<polyline clip-path="url(#clip130)" style="stroke:#000000; stroke-linecap:round; stroke-linejoin:round; stroke-width:4; stroke-opacity:1; fill:none" points="1801.86,1423.18 1801.86,1404.28 "/>
<polyline clip-path="url(#clip130)" style="stroke:#000000; stroke-linecap:round; stroke-linejoin:round; stroke-width:4; stroke-opacity:1; fill:none" points="2352.76,1423.18 2352.76,1404.28 "/>
<path clip-path="url(#clip130)" d="M149.191 1454.1 Q145.58 1454.1 143.751 1457.66 Q141.946 1461.2 141.946 1468.33 Q141.946 1475.44 143.751 1479.01 Q145.58 1482.55 149.191 1482.55 Q152.825 1482.55 154.631 1479.01 Q156.459 1475.44 156.459 1468.33 Q156.459 1461.2 154.631 1457.66 Q152.825 1454.1 149.191 1454.1 M149.191 1450.39 Q155.001 1450.39 158.057 1455 Q161.135 1459.58 161.135 1468.33 Q161.135 1477.06 158.057 1481.67 Q155.001 1486.25 149.191 1486.25 Q143.381 1486.25 140.302 1481.67 Q137.246 1477.06 137.246 1468.33 Q137.246 1459.58 140.302 1455 Q143.381 1450.39 149.191 1450.39 Z" fill="#000000" fill-rule="nonzero" fill-opacity="1" /><path clip-path="url(#clip130)" d="M694.735 1481.64 L711.054 1481.64 L711.054 1485.58 L689.11 1485.58 L689.11 1481.64 Q691.772 1478.89 696.355 1474.26 Q700.962 1469.61 702.142 1468.27 Q704.388 1465.74 705.267 1464.01 Q706.17 1462.25 706.17 1460.56 Q706.17 1457.8 704.226 1456.07 Q702.304 1454.33 699.203 1454.33 Q697.003 1454.33 694.55 1455.09 Q692.119 1455.86 689.341 1457.41 L689.341 1452.69 Q692.166 1451.55 694.619 1450.97 Q697.073 1450.39 699.11 1450.39 Q704.48 1450.39 707.675 1453.08 Q710.869 1455.77 710.869 1460.26 Q710.869 1462.39 710.059 1464.31 Q709.272 1466.2 707.165 1468.8 Q706.587 1469.47 703.485 1472.69 Q700.383 1475.88 694.735 1481.64 Z" fill="#000000" fill-rule="nonzero" fill-opacity="1" /><path clip-path="url(#clip130)" d="M1253.98 1455.09 L1242.18 1473.54 L1253.98 1473.54 L1253.98 1455.09 M1252.76 1451.02 L1258.64 1451.02 L1258.64 1473.54 L1263.57 1473.54 L1263.57 1477.43 L1258.64 1477.43 L1258.64 1485.58 L1253.98 1485.58 L1253.98 1477.43 L1238.38 1477.43 L1238.38 1472.92 L1252.76 1451.02 Z" fill="#000000" fill-rule="nonzero" fill-opacity="1" /><path clip-path="url(#clip130)" d="M1802.27 1466.44 Q1799.12 1466.44 1797.27 1468.59 Q1795.44 1470.74 1795.44 1474.49 Q1795.44 1478.22 1797.27 1480.39 Q1799.12 1482.55 1802.27 1482.55 Q1805.42 1482.55 1807.25 1480.39 Q1809.1 1478.22 1809.1 1474.49 Q1809.1 1470.74 1807.25 1468.59 Q1805.42 1466.44 1802.27 1466.44 M1811.55 1451.78 L1811.55 1456.04 Q1809.79 1455.21 1807.99 1454.77 Q1806.2 1454.33 1804.45 1454.33 Q1799.82 1454.33 1797.36 1457.45 Q1794.93 1460.58 1794.58 1466.9 Q1795.95 1464.89 1798.01 1463.82 Q1800.07 1462.73 1802.55 1462.73 Q1807.76 1462.73 1810.77 1465.9 Q1813.8 1469.05 1813.8 1474.49 Q1813.8 1479.82 1810.65 1483.03 Q1807.5 1486.25 1802.27 1486.25 Q1796.27 1486.25 1793.1 1481.67 Q1789.93 1477.06 1789.93 1468.33 Q1789.93 1460.14 1793.82 1455.28 Q1797.71 1450.39 1804.26 1450.39 Q1806.02 1450.39 1807.8 1450.74 Q1809.61 1451.09 1811.55 1451.78 Z" fill="#000000" fill-rule="nonzero" fill-opacity="1" /><path clip-path="url(#clip130)" d="M2352.76 1469.17 Q2349.42 1469.17 2347.5 1470.95 Q2345.6 1472.73 2345.6 1475.86 Q2345.6 1478.98 2347.5 1480.77 Q2349.42 1482.55 2352.76 1482.55 Q2356.09 1482.55 2358.01 1480.77 Q2359.93 1478.96 2359.93 1475.86 Q2359.93 1472.73 2358.01 1470.95 Q2356.11 1469.17 2352.76 1469.17 M2348.08 1467.18 Q2345.07 1466.44 2343.38 1464.38 Q2341.71 1462.32 2341.71 1459.35 Q2341.71 1455.21 2344.65 1452.8 Q2347.62 1450.39 2352.76 1450.39 Q2357.92 1450.39 2360.86 1452.8 Q2363.8 1455.21 2363.8 1459.35 Q2363.8 1462.32 2362.11 1464.38 Q2360.44 1466.44 2357.45 1467.18 Q2360.83 1467.96 2362.71 1470.26 Q2364.61 1472.55 2364.61 1475.86 Q2364.61 1480.88 2361.53 1483.57 Q2358.47 1486.25 2352.76 1486.25 Q2347.04 1486.25 2343.96 1483.57 Q2340.9 1480.88 2340.9 1475.86 Q2340.9 1472.55 2342.8 1470.26 Q2344.7 1467.96 2348.08 1467.18 M2346.37 1459.79 Q2346.37 1462.48 2348.03 1463.98 Q2349.72 1465.49 2352.76 1465.49 Q2355.77 1465.49 2357.45 1463.98 Q2359.17 1462.48 2359.17 1459.79 Q2359.17 1457.11 2357.45 1455.6 Q2355.77 1454.1 2352.76 1454.1 Q2349.72 1454.1 2348.03 1455.6 Q2346.37 1457.11 2346.37 1459.79 Z" fill="#000000" fill-rule="nonzero" fill-opacity="1" /><path clip-path="url(#clip130)" d="M1250.03 1522.27 L1250.03 1532.4 L1262.1 1532.4 L1262.1 1536.95 L1250.03 1536.95 L1250.03 1556.3 Q1250.03 1560.66 1251.21 1561.9 Q1252.42 1563.14 1256.08 1563.14 L1262.1 1563.14 L1262.1 1568.04 L1256.08 1568.04 Q1249.3 1568.04 1246.72 1565.53 Q1244.15 1562.98 1244.15 1556.3 L1244.15 1536.95 L1239.85 1536.95 L1239.85 1532.4 L1244.15 1532.4 L1244.15 1522.27 L1250.03 1522.27 Z" fill="#000000" fill-rule="nonzero" fill-opacity="1" /><polyline clip-path="url(#clip132)" style="stroke:#000000; stroke-linecap:round; stroke-linejoin:round; stroke-width:2; stroke-opacity:0.1; fill:none" points="149.191,1423.18 2352.76,1423.18 "/>
<polyline clip-path="url(#clip132)" style="stroke:#000000; stroke-linecap:round; stroke-linejoin:round; stroke-width:2; stroke-opacity:0.1; fill:none" points="149.191,1193.86 2352.76,1193.86 "/>
<polyline clip-path="url(#clip132)" style="stroke:#000000; stroke-linecap:round; stroke-linejoin:round; stroke-width:2; stroke-opacity:0.1; fill:none" points="149.191,964.535 2352.76,964.535 "/>
<polyline clip-path="url(#clip132)" style="stroke:#000000; stroke-linecap:round; stroke-linejoin:round; stroke-width:2; stroke-opacity:0.1; fill:none" points="149.191,735.212 2352.76,735.212 "/>
<polyline clip-path="url(#clip132)" style="stroke:#000000; stroke-linecap:round; stroke-linejoin:round; stroke-width:2; stroke-opacity:0.1; fill:none" points="149.191,505.889 2352.76,505.889 "/>
<polyline clip-path="url(#clip132)" style="stroke:#000000; stroke-linecap:round; stroke-linejoin:round; stroke-width:2; stroke-opacity:0.1; fill:none" points="149.191,276.567 2352.76,276.567 "/>
<polyline clip-path="url(#clip132)" style="stroke:#000000; stroke-linecap:round; stroke-linejoin:round; stroke-width:2; stroke-opacity:0.1; fill:none" points="149.191,47.2441 2352.76,47.2441 "/>
<polyline clip-path="url(#clip130)" style="stroke:#000000; stroke-linecap:round; stroke-linejoin:round; stroke-width:4; stroke-opacity:1; fill:none" points="149.191,1423.18 149.191,47.2441 "/>
<polyline clip-path="url(#clip130)" style="stroke:#000000; stroke-linecap:round; stroke-linejoin:round; stroke-width:4; stroke-opacity:1; fill:none" points="149.191,1423.18 168.089,1423.18 "/>
<polyline clip-path="url(#clip130)" style="stroke:#000000; stroke-linecap:round; stroke-linejoin:round; stroke-width:4; stroke-opacity:1; fill:none" points="149.191,1193.86 168.089,1193.86 "/>
<polyline clip-path="url(#clip130)" style="stroke:#000000; stroke-linecap:round; stroke-linejoin:round; stroke-width:4; stroke-opacity:1; fill:none" points="149.191,964.535 168.089,964.535 "/>
<polyline clip-path="url(#clip130)" style="stroke:#000000; stroke-linecap:round; stroke-linejoin:round; stroke-width:4; stroke-opacity:1; fill:none" points="149.191,735.212 168.089,735.212 "/>
<polyline clip-path="url(#clip130)" style="stroke:#000000; stroke-linecap:round; stroke-linejoin:round; stroke-width:4; stroke-opacity:1; fill:none" points="149.191,505.889 168.089,505.889 "/>
<polyline clip-path="url(#clip130)" style="stroke:#000000; stroke-linecap:round; stroke-linejoin:round; stroke-width:4; stroke-opacity:1; fill:none" points="149.191,276.567 168.089,276.567 "/>
<polyline clip-path="url(#clip130)" style="stroke:#000000; stroke-linecap:round; stroke-linejoin:round; stroke-width:4; stroke-opacity:1; fill:none" points="149.191,47.2441 168.089,47.2441 "/>
<path clip-path="url(#clip130)" d="M51.3162 1423.63 L80.992 1423.63 L80.992 1427.57 L51.3162 1427.57 L51.3162 1423.63 Z" fill="#000000" fill-rule="nonzero" fill-opacity="1" /><path clip-path="url(#clip130)" d="M101.663 1421.32 Q98.515 1421.32 96.6632 1423.47 Q94.8345 1425.62 94.8345 1429.37 Q94.8345 1433.1 96.6632 1435.27 Q98.515 1437.43 101.663 1437.43 Q104.811 1437.43 106.64 1435.27 Q108.492 1433.1 108.492 1429.37 Q108.492 1425.62 106.64 1423.47 Q104.811 1421.32 101.663 1421.32 M110.946 1406.66 L110.946 1410.92 Q109.186 1410.09 107.381 1409.65 Q105.598 1409.21 103.839 1409.21 Q99.2095 1409.21 96.7558 1412.33 Q94.3252 1415.46 93.978 1421.78 Q95.3437 1419.77 97.4039 1418.7 Q99.4641 1417.61 101.941 1417.61 Q107.149 1417.61 110.158 1420.78 Q113.191 1423.93 113.191 1429.37 Q113.191 1434.7 110.043 1437.91 Q106.895 1441.13 101.663 1441.13 Q95.6678 1441.13 92.4965 1436.55 Q89.3253 1431.94 89.3253 1423.21 Q89.3253 1415.02 93.2141 1410.16 Q97.103 1405.27 103.654 1405.27 Q105.413 1405.27 107.196 1405.62 Q109.001 1405.97 110.946 1406.66 Z" fill="#000000" fill-rule="nonzero" fill-opacity="1" /><path clip-path="url(#clip130)" d="M50.9921 1194.31 L80.6679 1194.31 L80.6679 1198.24 L50.9921 1198.24 L50.9921 1194.31 Z" fill="#000000" fill-rule="nonzero" fill-opacity="1" /><path clip-path="url(#clip130)" d="M103.608 1180.65 L91.8021 1199.1 L103.608 1199.1 L103.608 1180.65 M102.381 1176.58 L108.26 1176.58 L108.26 1199.1 L113.191 1199.1 L113.191 1202.99 L108.26 1202.99 L108.26 1211.14 L103.608 1211.14 L103.608 1202.99 L88.0058 1202.99 L88.0058 1198.48 L102.381 1176.58 Z" fill="#000000" fill-rule="nonzero" fill-opacity="1" /><path clip-path="url(#clip130)" d="M53.0754 964.986 L82.7512 964.986 L82.7512 968.921 L53.0754 968.921 L53.0754 964.986 Z" fill="#000000" fill-rule="nonzero" fill-opacity="1" /><path clip-path="url(#clip130)" d="M96.8715 977.879 L113.191 977.879 L113.191 981.815 L91.2465 981.815 L91.2465 977.879 Q93.9086 975.125 98.4919 970.495 Q103.098 965.842 104.279 964.5 Q106.524 961.977 107.404 960.241 Q108.307 958.481 108.307 956.792 Q108.307 954.037 106.362 952.301 Q104.441 950.565 101.339 950.565 Q99.14 950.565 96.6863 951.329 Q94.2558 952.093 91.478 953.643 L91.478 948.921 Q94.3021 947.787 96.7558 947.208 Q99.2095 946.63 101.246 946.63 Q106.617 946.63 109.811 949.315 Q113.006 952 113.006 956.491 Q113.006 958.62 112.196 960.542 Q111.408 962.44 109.302 965.032 Q108.723 965.704 105.621 968.921 Q102.52 972.116 96.8715 977.879 Z" fill="#000000" fill-rule="nonzero" fill-opacity="1" /><path clip-path="url(#clip130)" d="M101.246 721.011 Q97.6354 721.011 95.8067 724.575 Q94.0012 728.117 94.0012 735.247 Q94.0012 742.353 95.8067 745.918 Q97.6354 749.46 101.246 749.46 Q104.881 749.46 106.686 745.918 Q108.515 742.353 108.515 735.247 Q108.515 728.117 106.686 724.575 Q104.881 721.011 101.246 721.011 M101.246 717.307 Q107.057 717.307 110.112 721.913 Q113.191 726.497 113.191 735.247 Q113.191 743.973 110.112 748.58 Q107.057 753.163 101.246 753.163 Q95.4363 753.163 92.3576 748.58 Q89.3021 743.973 89.3021 735.247 Q89.3021 726.497 92.3576 721.913 Q95.4363 717.307 101.246 717.307 Z" fill="#000000" fill-rule="nonzero" fill-opacity="1" /><path clip-path="url(#clip130)" d="M96.8715 519.234 L113.191 519.234 L113.191 523.169 L91.2465 523.169 L91.2465 519.234 Q93.9086 516.48 98.4919 511.85 Q103.098 507.197 104.279 505.855 Q106.524 503.331 107.404 501.595 Q108.307 499.836 108.307 498.146 Q108.307 495.392 106.362 493.656 Q104.441 491.92 101.339 491.92 Q99.14 491.92 96.6863 492.683 Q94.2558 493.447 91.478 494.998 L91.478 490.276 Q94.3021 489.142 96.7558 488.563 Q99.2095 487.984 101.246 487.984 Q106.617 487.984 109.811 490.67 Q113.006 493.355 113.006 497.845 Q113.006 499.975 112.196 501.896 Q111.408 503.794 109.302 506.387 Q108.723 507.058 105.621 510.276 Q102.52 513.47 96.8715 519.234 Z" fill="#000000" fill-rule="nonzero" fill-opacity="1" /><path clip-path="url(#clip130)" d="M103.608 263.361 L91.8021 281.81 L103.608 281.81 L103.608 263.361 M102.381 259.287 L108.26 259.287 L108.26 281.81 L113.191 281.81 L113.191 285.699 L108.26 285.699 L108.26 293.847 L103.608 293.847 L103.608 285.699 L88.0058 285.699 L88.0058 281.185 L102.381 259.287 Z" fill="#000000" fill-rule="nonzero" fill-opacity="1" /><path clip-path="url(#clip130)" d="M101.663 45.3807 Q98.515 45.3807 96.6632 47.5334 Q94.8345 49.6862 94.8345 53.4362 Q94.8345 57.163 96.6632 59.3389 Q98.515 61.4917 101.663 61.4917 Q104.811 61.4917 106.64 59.3389 Q108.492 57.163 108.492 53.4362 Q108.492 49.6862 106.64 47.5334 Q104.811 45.3807 101.663 45.3807 M110.946 30.728 L110.946 34.9872 Q109.186 34.1539 107.381 33.7141 Q105.598 33.2743 103.839 33.2743 Q99.2095 33.2743 96.7558 36.3992 Q94.3252 39.5242 93.978 45.8436 Q95.3437 43.8298 97.4039 42.765 Q99.4641 41.677 101.941 41.677 Q107.149 41.677 110.158 44.8483 Q113.191 47.9964 113.191 53.4362 Q113.191 58.7602 110.043 61.9778 Q106.895 65.1954 101.663 65.1954 Q95.6678 65.1954 92.4965 60.6121 Q89.3253 56.0056 89.3253 47.2788 Q89.3253 39.0844 93.2141 34.2233 Q97.103 29.3391 103.654 29.3391 Q105.413 29.3391 107.196 29.6863 Q109.001 30.0335 110.946 30.728 Z" fill="#000000" fill-rule="nonzero" fill-opacity="1" /><polyline clip-path="url(#clip132)" style="stroke:#009af9; stroke-linecap:round; stroke-linejoin:round; stroke-width:12; stroke-opacity:1; fill:none" points="149.191,1193.86 151.945,1193.19 154.7,1191.38 157.454,1188.67 160.209,1185.26 162.963,1181.31 165.718,1176.97 168.472,1172.35 171.227,1167.51 173.981,1162.53 176.735,1157.45 179.49,1152.31 182.244,1147.12 184.999,1141.91 187.753,1136.69 190.508,1131.45 193.262,1126.21 196.017,1120.97 198.771,1115.73 201.526,1110.48 204.28,1105.24 207.034,1100 209.789,1094.76 212.543,1089.51 215.298,1084.27 218.052,1079.03 220.807,1073.79 223.561,1068.55 226.316,1063.31 229.07,1058.08 231.825,1052.85 234.579,1047.63 237.333,1042.42 240.088,1037.21 242.842,1032.01 245.597,1026.82 248.351,1021.64 251.106,1016.47 253.86,1011.32 256.615,1006.18 259.369,1001.06 262.124,995.956 264.878,990.868 267.632,985.798 270.387,980.748 273.141,975.718 275.896,970.709 278.65,965.722 281.405,960.758 284.159,955.817 286.914,950.9 289.668,946.008 292.423,941.141 295.177,936.3 297.932,931.485 300.686,926.697 303.44,921.936 306.195,917.202 308.949,912.495 311.704,907.817 314.458,903.167 317.213,898.546 319.967,893.954 322.722,889.39 325.476,884.856 328.231,880.351 330.985,875.876 333.739,871.431 336.494,867.014 339.248,862.628 342.003,858.272 344.757,853.945 347.512,849.648 350.266,845.381 353.021,841.144 355.775,836.937 358.53,832.759 361.284,828.611 364.038,824.493 366.793,820.404 369.547,816.345 372.302,812.316 375.056,808.316 377.811,804.345 380.565,800.403 383.32,796.49 386.074,792.607 388.829,788.752 391.583,784.926 394.337,781.129 397.092,777.36 399.846,773.619 402.601,769.907 405.355,766.223 408.11,762.567 410.864,758.938 413.619,755.337 416.373,751.764 419.128,748.217 421.882,744.698 424.636,741.206 427.391,737.741 430.145,734.302 432.9,730.89 435.654,727.504 438.409,724.145 441.163,720.811 443.918,717.504 446.672,714.222 449.427,710.965 452.181,707.734 454.936,704.528 457.69,701.347 460.444,698.192 463.199,695.06 465.953,691.954 468.708,688.872 471.462,685.813 474.217,682.78 476.971,679.77 479.726,676.783 482.48,673.821 485.235,670.882 487.989,667.966 490.743,665.073 493.498,662.203 496.252,659.356 499.007,656.531 501.761,653.729 504.516,650.949 507.27,648.192 510.025,645.456 512.779,642.742 515.534,640.05 518.288,637.38 521.042,634.73 523.797,632.102 526.551,629.496 529.306,626.91 532.06,624.345 534.815,621.8 537.569,619.276 540.324,616.773 543.078,614.289 545.833,611.826 548.587,609.382 551.341,606.959 554.096,604.555 556.85,602.17 559.605,599.805 562.359,597.459 565.114,595.132 567.868,592.824 570.623,590.535 573.377,588.264 576.132,586.012 578.886,583.778 581.641,581.563 584.395,579.365 587.149,577.186 589.904,575.024 592.658,572.88 595.413,570.754 598.167,568.645 600.922,566.554 603.676,564.48 606.431,562.423 609.185,560.382 611.94,558.359 614.694,556.352 617.448,554.362 620.203,552.388 622.957,550.43 625.712,548.489 628.466,546.564 631.221,544.654 633.975,542.761 636.73,540.883 639.484,539.021 642.239,537.174 644.993,535.343 647.747,533.527 650.502,531.726 653.256,529.939 656.011,528.168 658.765,526.412 661.52,524.67 664.274,522.943 667.029,521.23 669.783,519.532 672.538,517.848 675.292,516.177 678.046,514.521 680.801,512.879 683.555,511.25 686.31,509.636 689.064,508.034 691.819,506.446 694.573,504.872 697.328,503.311 700.082,501.762 702.837,500.227 705.591,498.705 708.345,497.196 711.1,495.699 713.854,494.215 716.609,492.743 719.363,491.284 722.118,489.837 724.872,488.403 727.627,486.98 730.381,485.57 733.136,484.171 735.89,482.784 738.645,481.409 741.399,480.045 744.153,478.694 746.908,477.353 749.662,476.024 752.417,474.706 755.171,473.399 757.926,472.103 760.68,470.818 763.435,469.545 766.189,468.282 768.944,467.029 771.698,465.787 774.452,464.556 777.207,463.335 779.961,462.124 782.716,460.924 785.47,459.734 788.225,458.554 790.979,457.384 793.734,456.224 796.488,455.073 799.243,453.933 801.997,452.802 804.751,451.68 807.506,450.569 810.26,449.466 813.015,448.373 815.769,447.289 818.524,446.215 821.278,445.149 824.033,444.092 826.787,443.045 829.542,442.006 832.296,440.976 835.05,439.955 837.805,438.942 840.559,437.938 843.314,436.942 846.068,435.955 848.823,434.976 851.577,434.005 854.332,433.042 857.086,432.088 859.841,431.142 862.595,430.203 865.349,429.273 868.104,428.35 870.858,427.435 873.613,426.528 876.367,425.628 879.122,424.736 881.876,423.851 884.631,422.974 887.385,422.104 890.14,421.241 892.894,420.386 895.649,419.538 898.403,418.697 901.157,417.862 903.912,417.035 906.666,416.215 909.421,415.401 912.175,414.595 914.93,413.794 917.684,413.001 920.439,412.214 923.193,411.434 925.948,410.66 928.702,409.892 931.456,409.131 934.211,408.376 936.965,407.628 939.72,406.885 942.474,406.149 945.229,405.418 947.983,404.694 950.738,403.975 953.492,403.263 956.247,402.556 959.001,401.855 961.755,401.16 964.51,400.47 967.264,399.786 970.019,399.107 972.773,398.434 975.528,397.766 978.282,397.104 981.037,396.447 983.791,395.795 986.546,395.149 989.3,394.507 992.054,393.871 994.809,393.24 997.563,392.614 1000.32,391.993 1003.07,391.377 1005.83,390.766 1008.58,390.159 1011.34,389.557 1014.09,388.96 1016.84,388.368 1019.6,387.78 1022.35,387.197 1025.11,386.619 1027.86,386.045 1030.62,385.476 1033.37,384.91 1036.13,384.35 1038.88,383.793 1041.63,383.241 1044.39,382.694 1047.14,382.15 1049.9,381.611 1052.65,381.075 1055.41,380.544 1058.16,380.017 1060.92,379.494 1063.67,378.975 1066.42,378.46 1069.18,377.948 1071.93,377.441 1074.69,376.937 1077.44,376.437 1080.2,375.941 1082.95,375.448 1085.71,374.959 1088.46,374.474 1091.21,373.992 1093.97,373.514 1096.72,373.04 1099.48,372.568 1102.23,372.101 1104.99,371.636 1107.74,371.175 1110.5,370.718 1113.25,370.264 1116.01,369.812 1118.76,369.365 1121.51,368.92 1124.27,368.479 1127.02,368.04 1129.78,367.605 1132.53,367.173 1135.29,366.744 1138.04,366.318 1140.8,365.895 1143.55,365.475 1146.3,365.057 1149.06,364.643 1151.81,364.232 1154.57,363.823 1157.32,363.417 1160.08,363.014 1162.83,362.614 1165.59,362.216 1168.34,361.821 1171.09,361.429 1173.85,361.039 1176.6,360.652 1179.36,360.268 1182.11,359.886 1184.87,359.506 1187.62,359.129 1190.38,358.755 1193.13,358.383 1195.88,358.013 1198.64,357.646 1201.39,357.281 1204.15,356.918 1206.9,356.558 1209.66,356.2 1212.41,355.844 1215.17,355.491 1217.92,355.14 1220.67,354.79 1223.43,354.443 1226.18,354.099 1228.94,353.756 1231.69,353.415 1234.45,353.077 1237.2,352.74 1239.96,352.405 1242.71,352.073 1245.46,351.742 1248.22,351.414 1250.97,351.087 1253.73,350.762 1256.48,350.439 1259.24,350.118 1261.99,349.799 1264.75,349.482 1267.5,349.166 1270.25,348.852 1273.01,348.54 1275.76,348.23 1278.52,347.921 1281.27,347.614 1284.03,347.309 1286.78,347.005 1289.54,346.704 1292.29,346.403 1295.04,346.105 1297.8,345.807 1300.55,345.512 1303.31,345.218 1306.06,344.926 1308.82,344.635 1311.57,344.345 1314.33,344.057 1317.08,343.771 1319.83,343.486 1322.59,343.202 1325.34,342.92 1328.1,342.64 1330.85,342.36 1333.61,342.082 1336.36,341.806 1339.12,341.531 1341.87,341.257 1344.62,340.984 1347.38,340.713 1350.13,340.443 1352.89,340.174 1355.64,339.907 1358.4,339.641 1361.15,339.376 1363.91,339.112 1366.66,338.85 1369.41,338.588 1372.17,338.328 1374.92,338.069 1377.68,337.812 1380.43,337.555 1383.19,337.3 1385.94,337.045 1388.7,336.792 1391.45,336.539 1394.21,336.288 1396.96,336.038 1399.71,335.789 1402.47,335.541 1405.22,335.294 1407.98,335.048 1410.73,334.803 1413.49,334.559 1416.24,334.316 1419,334.074 1421.75,333.832 1424.5,333.592 1427.26,333.353 1430.01,333.114 1432.77,332.877 1435.52,332.64 1438.28,332.405 1441.03,332.17 1443.79,331.936 1446.54,331.703 1449.29,331.47 1452.05,331.239 1454.8,331.008 1457.56,330.779 1460.31,330.55 1463.07,330.322 1465.82,330.094 1468.58,329.868 1471.33,329.642 1474.08,329.417 1476.84,329.192 1479.59,328.969 1482.35,328.746 1485.1,328.524 1487.86,328.302 1490.61,328.081 1493.37,327.861 1496.12,327.642 1498.87,327.423 1501.63,327.205 1504.38,326.988 1507.14,326.771 1509.89,326.555 1512.65,326.34 1515.4,326.125 1518.16,325.911 1520.91,325.697 1523.66,325.484 1526.42,325.272 1529.17,325.06 1531.93,324.849 1534.68,324.638 1537.44,324.428 1540.19,324.218 1542.95,324.009 1545.7,323.801 1548.45,323.593 1551.21,323.385 1553.96,323.179 1556.72,322.972 1559.47,322.766 1562.23,322.561 1564.98,322.356 1567.74,322.152 1570.49,321.948 1573.24,321.744 1576,321.541 1578.75,321.339 1581.51,321.137 1584.26,320.935 1587.02,320.734 1589.77,320.533 1592.53,320.333 1595.28,320.133 1598.03,319.933 1600.79,319.734 1603.54,319.536 1606.3,319.337 1609.05,319.14 1611.81,318.942 1614.56,318.745 1617.32,318.548 1620.07,318.352 1622.82,318.156 1625.58,317.96 1628.33,317.765 1631.09,317.57 1633.84,317.376 1636.6,317.181 1639.35,316.988 1642.11,316.794 1644.86,316.601 1647.62,316.408 1650.37,316.215 1653.12,316.023 1655.88,315.831 1658.63,315.64 1661.39,315.449 1664.14,315.258 1666.9,315.067 1669.65,314.876 1672.41,314.686 1675.16,314.497 1677.91,314.307 1680.67,314.118 1683.42,313.929 1686.18,313.74 1688.93,313.552 1691.69,313.364 1694.44,313.176 1697.2,312.988 1699.95,312.801 1702.7,312.614 1705.46,312.427 1708.21,312.241 1710.97,312.054 1713.72,311.868 1716.48,311.682 1719.23,311.497 1721.99,311.311 1724.74,311.126 1727.49,310.941 1730.25,310.756 1733,310.572 1735.76,310.387 1738.51,310.203 1741.27,310.019 1744.02,309.836 1746.78,309.652 1749.53,309.469 1752.28,309.286 1755.04,309.103 1757.79,308.92 1760.55,308.737 1763.3,308.555 1766.06,308.373 1768.81,308.191 1771.57,308.009 1774.32,307.827 1777.07,307.646 1779.83,307.464 1782.58,307.283 1785.34,307.102 1788.09,306.921 1790.85,306.741 1793.6,306.56 1796.36,306.38 1799.11,306.199 1801.86,306.019 1804.62,305.839 1807.37,305.659 1810.13,305.48 1812.88,305.3 1815.64,305.121 1818.39,304.942 1821.15,304.762 1823.9,304.583 1826.65,304.405 1829.41,304.226 1832.16,304.047 1834.92,303.869 1837.67,303.69 1840.43,303.512 1843.18,303.334 1845.94,303.156 1848.69,302.978 1851.44,302.8 1854.2,302.622 1856.95,302.445 1859.71,302.267 1862.46,302.09 1865.22,301.912 1867.97,301.735 1870.73,301.558 1873.48,301.381 1876.23,301.204 1878.99,301.027 1881.74,300.851 1884.5,300.674 1887.25,300.497 1890.01,300.321 1892.76,300.144 1895.52,299.968 1898.27,299.792 1901.03,299.616 1903.78,299.44 1906.53,299.264 1909.29,299.088 1912.04,298.912 1914.8,298.736 1917.55,298.56 1920.31,298.385 1923.06,298.209 1925.82,298.034 1928.57,297.858 1931.32,297.683 1934.08,297.507 1936.83,297.332 1939.59,297.157 1942.34,296.982 1945.1,296.807 1947.85,296.632 1950.61,296.457 1953.36,296.282 1956.11,296.107 1958.87,295.932 1961.62,295.757 1964.38,295.582 1967.13,295.408 1969.89,295.233 1972.64,295.059 1975.4,294.884 1978.15,294.71 1980.9,294.535 1983.66,294.361 1986.41,294.186 1989.17,294.012 1991.92,293.838 1994.68,293.663 1997.43,293.489 2000.19,293.315 2002.94,293.141 2005.69,292.967 2008.45,292.793 2011.2,292.619 2013.96,292.445 2016.71,292.271 2019.47,292.097 2022.22,291.923 2024.98,291.749 2027.73,291.575 2030.48,291.402 2033.24,291.228 2035.99,291.054 2038.75,290.88 2041.5,290.707 2044.26,290.533 2047.01,290.359 2049.77,290.186 2052.52,290.012 2055.27,289.839 2058.03,289.665 2060.78,289.492 2063.54,289.318 2066.29,289.145 2069.05,288.971 2071.8,288.798 2074.56,288.625 2077.31,288.451 2080.06,288.278 2082.82,288.105 2085.57,287.932 2088.33,287.758 2091.08,287.585 2093.84,287.412 2096.59,287.239 2099.35,287.066 2102.1,286.893 2104.85,286.719 2107.61,286.546 2110.36,286.373 2113.12,286.2 2115.87,286.027 2118.63,285.854 2121.38,285.681 2124.14,285.508 2126.89,285.335 2129.64,285.162 2132.4,284.989 2135.15,284.816 2137.91,284.643 2140.66,284.47 2143.42,284.298 2146.17,284.125 2148.93,283.952 2151.68,283.779 2154.44,283.606 2157.19,283.433 2159.94,283.26 2162.7,283.088 2165.45,282.915 2168.21,282.742 2170.96,282.569 2173.72,282.396 2176.47,282.223 2179.23,282.051 2181.98,281.878 2184.73,281.705 2187.49,281.532 2190.24,281.36 2193,281.187 2195.75,281.014 2198.51,280.841 2201.26,280.669 2204.02,280.496 2206.77,280.323 2209.52,280.151 2212.28,279.978 2215.03,279.805 2217.79,279.633 2220.54,279.46 2223.3,279.287 2226.05,279.115 2228.81,278.942 2231.56,278.769 2234.31,278.597 2237.07,278.424 2239.82,278.251 2242.58,278.079 2245.33,277.906 2248.09,277.733 2250.84,277.561 2253.6,277.388 2256.35,277.215 2259.1,277.043 2261.86,276.87 2264.61,276.698 2267.37,276.525 2270.12,276.352 2272.88,276.18 2275.63,276.007 2278.39,275.835 2281.14,275.662 2283.89,275.489 2286.65,275.317 2289.4,275.144 2292.16,274.972 2294.91,274.799 2297.67,274.626 2300.42,274.454 2303.18,274.281 2305.93,274.109 2308.68,273.936 2311.44,273.763 2314.19,273.591 2316.95,273.418 2319.7,273.246 2322.46,273.073 2325.21,272.9 2327.97,272.728 2330.72,272.555 2333.47,272.383 2336.23,272.21 2338.98,272.038 2341.74,271.865 2344.49,271.692 2347.25,271.52 2350,271.347 2352.76,271.175 "/>
<polyline clip-path="url(#clip132)" style="stroke:#e26f46; stroke-linecap:round; stroke-linejoin:round; stroke-width:12; stroke-opacity:1; fill:none" points="149.191,735.212 151.945,607.078 154.7,505.272 157.454,425.804 160.209,364.896 162.963,319.083 165.718,285.291 168.472,260.874 171.227,243.614 173.981,231.693 176.735,223.671 179.49,218.44 182.244,215.15 184.999,213.157 187.753,212.014 190.508,211.402 193.262,211.113 196.017,210.997 198.771,210.955 201.526,210.944 204.28,210.941 207.034,210.94 209.789,210.947 212.543,210.97 215.298,211.02 218.052,211.111 220.807,211.26 223.561,211.481 226.316,211.784 229.07,212.179 231.825,212.673 234.579,213.273 237.333,213.984 240.088,214.809 242.842,215.75 245.597,216.807 248.351,217.978 251.106,219.264 253.86,220.662 256.615,222.168 259.369,223.778 262.124,225.49 264.878,227.298 267.632,229.199 270.387,231.19 273.141,233.265 275.896,235.42 278.65,237.652 281.405,239.956 284.159,242.326 286.914,244.759 289.668,247.25 292.423,249.795 295.177,252.391 297.932,255.032 300.686,257.717 303.44,260.44 306.195,263.2 308.949,265.992 311.704,268.813 314.458,271.662 317.213,274.533 319.967,277.426 322.722,280.338 325.476,283.265 328.231,286.206 330.985,289.159 333.739,292.121 336.494,295.092 339.248,298.068 342.003,301.049 344.757,304.032 347.512,307.016 350.266,310 353.021,312.983 355.775,315.963 358.53,318.939 361.284,321.911 364.038,324.877 366.793,327.837 369.547,330.789 372.302,333.733 375.056,336.668 377.811,339.593 380.565,342.507 383.32,345.411 386.074,348.303 388.829,351.182 391.583,354.049 394.337,356.903 397.092,359.744 399.846,362.57 402.601,365.382 405.355,368.18 408.11,370.963 410.864,373.731 413.619,376.485 416.373,379.223 419.128,381.946 421.882,384.653 424.636,387.344 427.391,390.019 430.145,392.679 432.9,395.322 435.654,397.95 438.409,400.561 441.163,403.156 443.918,405.734 446.672,408.296 449.427,410.842 452.181,413.372 454.936,415.885 457.69,418.382 460.444,420.863 463.199,423.327 465.953,425.774 468.708,428.206 471.462,430.621 474.217,433.019 476.971,435.402 479.726,437.768 482.48,440.118 485.235,442.452 487.989,444.77 490.743,447.072 493.498,449.358 496.252,451.628 499.007,453.883 501.761,456.122 504.516,458.345 507.27,460.553 510.025,462.745 512.779,464.922 515.534,467.084 518.288,469.231 521.042,471.362 523.797,473.478 526.551,475.579 529.306,477.665 532.06,479.737 534.815,481.793 537.569,483.835 540.324,485.862 543.078,487.875 545.833,489.874 548.587,491.858 551.341,493.827 554.096,495.783 556.85,497.724 559.605,499.651 562.359,501.564 565.114,503.464 567.868,505.349 570.623,507.221 573.377,509.079 576.132,510.924 578.886,512.755 581.641,514.572 584.395,516.376 587.149,518.167 589.904,519.945 592.658,521.709 595.413,523.461 598.167,525.199 600.922,526.925 603.676,528.637 606.431,530.337 609.185,532.025 611.94,533.699 614.694,535.361 617.448,537.011 620.203,538.648 622.957,540.273 625.712,541.886 628.466,543.487 631.221,545.075 633.975,546.651 636.73,548.216 639.484,549.768 642.239,551.309 644.993,552.838 647.747,554.355 650.502,555.861 653.256,557.355 656.011,558.837 658.765,560.308 661.52,561.768 664.274,563.216 667.029,564.653 669.783,566.079 672.538,567.494 675.292,568.898 678.046,570.291 680.801,571.673 683.555,573.044 686.31,574.404 689.064,575.753 691.819,577.092 694.573,578.42 697.328,579.738 700.082,581.045 702.837,582.342 705.591,583.629 708.345,584.905 711.1,586.171 713.854,587.427 716.609,588.672 719.363,589.908 722.118,591.134 724.872,592.35 727.627,593.555 730.381,594.752 733.136,595.938 735.89,597.115 738.645,598.282 741.399,599.439 744.153,600.587 746.908,601.726 749.662,602.855 752.417,603.975 755.171,605.085 757.926,606.187 760.68,607.279 763.435,608.362 766.189,609.436 768.944,610.501 771.698,611.558 774.452,612.605 777.207,613.643 779.961,614.673 782.716,615.694 785.47,616.707 788.225,617.711 790.979,618.706 793.734,619.693 796.488,620.671 799.243,621.641 801.997,622.603 804.751,623.557 807.506,624.502 810.26,625.439 813.015,626.368 815.769,627.289 818.524,628.202 821.278,629.107 824.033,630.004 826.787,630.894 829.542,631.775 832.296,632.649 835.05,633.515 837.805,634.374 840.559,635.225 843.314,636.069 846.068,636.905 848.823,637.733 851.577,638.555 854.332,639.369 857.086,640.176 859.841,640.975 862.595,641.768 865.349,642.553 868.104,643.331 870.858,644.103 873.613,644.867 876.367,645.624 879.122,646.375 881.876,647.119 884.631,647.856 887.385,648.586 890.14,649.31 892.894,650.027 895.649,650.738 898.403,651.442 901.157,652.14 903.912,652.831 906.666,653.516 909.421,654.195 912.175,654.867 914.93,655.533 917.684,656.193 920.439,656.847 923.193,657.495 925.948,658.137 928.702,658.772 931.456,659.402 934.211,660.026 936.965,660.644 939.72,661.257 942.474,661.863 945.229,662.464 947.983,663.059 950.738,663.649 953.492,664.233 956.247,664.811 959.001,665.384 961.755,665.952 964.51,666.514 967.264,667.07 970.019,667.622 972.773,668.168 975.528,668.709 978.282,669.245 981.037,669.775 983.791,670.301 986.546,670.821 989.3,671.337 992.054,671.847 994.809,672.352 997.563,672.853 1000.32,673.349 1003.07,673.839 1005.83,674.325 1008.58,674.807 1011.34,675.283 1014.09,675.755 1016.84,676.223 1019.6,676.686 1022.35,677.144 1025.11,677.597 1027.86,678.047 1030.62,678.491 1033.37,678.932 1036.13,679.368 1038.88,679.8 1041.63,680.227 1044.39,680.65 1047.14,681.069 1049.9,681.484 1052.65,681.894 1055.41,682.301 1058.16,682.703 1060.92,683.102 1063.67,683.496 1066.42,683.887 1069.18,684.273 1071.93,684.656 1074.69,685.035 1077.44,685.41 1080.2,685.781 1082.95,686.148 1085.71,686.512 1088.46,686.872 1091.21,687.228 1093.97,687.581 1096.72,687.93 1099.48,688.276 1102.23,688.618 1104.99,688.956 1107.74,689.292 1110.5,689.623 1113.25,689.951 1116.01,690.276 1118.76,690.598 1121.51,690.916 1124.27,691.231 1127.02,691.542 1129.78,691.851 1132.53,692.156 1135.29,692.458 1138.04,692.757 1140.8,693.052 1143.55,693.345 1146.3,693.634 1149.06,693.921 1151.81,694.204 1154.57,694.485 1157.32,694.763 1160.08,695.037 1162.83,695.309 1165.59,695.578 1168.34,695.844 1171.09,696.107 1173.85,696.368 1176.6,696.625 1179.36,696.88 1182.11,697.132 1184.87,697.382 1187.62,697.629 1190.38,697.873 1193.13,698.115 1195.88,698.354 1198.64,698.59 1201.39,698.824 1204.15,699.056 1206.9,699.284 1209.66,699.511 1212.41,699.735 1215.17,699.957 1217.92,700.176 1220.67,700.393 1223.43,700.607 1226.18,700.819 1228.94,701.029 1231.69,701.237 1234.45,701.442 1237.2,701.645 1239.96,701.846 1242.71,702.045 1245.46,702.241 1248.22,702.435 1250.97,702.628 1253.73,702.818 1256.48,703.006 1259.24,703.192 1261.99,703.375 1264.75,703.557 1267.5,703.737 1270.25,703.915 1273.01,704.091 1275.76,704.265 1278.52,704.437 1281.27,704.607 1284.03,704.775 1286.78,704.942 1289.54,705.106 1292.29,705.269 1295.04,705.43 1297.8,705.589 1300.55,705.746 1303.31,705.902 1306.06,706.055 1308.82,706.207 1311.57,706.358 1314.33,706.506 1317.08,706.653 1319.83,706.799 1322.59,706.942 1325.34,707.084 1328.1,707.225 1330.85,707.363 1333.61,707.501 1336.36,707.636 1339.12,707.77 1341.87,707.903 1344.62,708.034 1347.38,708.164 1350.13,708.292 1352.89,708.418 1355.64,708.543 1358.4,708.667 1361.15,708.789 1363.91,708.91 1366.66,709.03 1369.41,709.148 1372.17,709.264 1374.92,709.379 1377.68,709.493 1380.43,709.606 1383.19,709.717 1385.94,709.827 1388.7,709.936 1391.45,710.044 1394.21,710.15 1396.96,710.255 1399.71,710.359 1402.47,710.461 1405.22,710.562 1407.98,710.663 1410.73,710.762 1413.49,710.859 1416.24,710.956 1419,711.051 1421.75,711.146 1424.5,711.239 1427.26,711.331 1430.01,711.422 1432.77,711.512 1435.52,711.6 1438.28,711.688 1441.03,711.775 1443.79,711.86 1446.54,711.945 1449.29,712.029 1452.05,712.111 1454.8,712.193 1457.56,712.273 1460.31,712.353 1463.07,712.431 1465.82,712.509 1468.58,712.586 1471.33,712.661 1474.08,712.736 1476.84,712.81 1479.59,712.883 1482.35,712.955 1485.1,713.026 1487.86,713.096 1490.61,713.166 1493.37,713.234 1496.12,713.302 1498.87,713.369 1501.63,713.435 1504.38,713.5 1507.14,713.564 1509.89,713.628 1512.65,713.69 1515.4,713.752 1518.16,713.813 1520.91,713.874 1523.66,713.933 1526.42,713.992 1529.17,714.05 1531.93,714.108 1534.68,714.164 1537.44,714.22 1540.19,714.275 1542.95,714.33 1545.7,714.384 1548.45,714.437 1551.21,714.489 1553.96,714.541 1556.72,714.592 1559.47,714.643 1562.23,714.692 1564.98,714.741 1567.74,714.79 1570.49,714.838 1573.24,714.885 1576,714.932 1578.75,714.978 1581.51,715.023 1584.26,715.068 1587.02,715.112 1589.77,715.156 1592.53,715.199 1595.28,715.241 1598.03,715.283 1600.79,715.325 1603.54,715.366 1606.3,715.406 1609.05,715.446 1611.81,715.485 1614.56,715.524 1617.32,715.562 1620.07,715.6 1622.82,715.637 1625.58,715.674 1628.33,715.71 1631.09,715.746 1633.84,715.781 1636.6,715.816 1639.35,715.85 1642.11,715.884 1644.86,715.917 1647.62,715.95 1650.37,715.983 1653.12,716.015 1655.88,716.046 1658.63,716.077 1661.39,716.108 1664.14,716.138 1666.9,716.168 1669.65,716.198 1672.41,716.227 1675.16,716.255 1677.91,716.284 1680.67,716.312 1683.42,716.339 1686.18,716.366 1688.93,716.393 1691.69,716.419 1694.44,716.445 1697.2,716.47 1699.95,716.496 1702.7,716.52 1705.46,716.545 1708.21,716.569 1710.97,716.593 1713.72,716.616 1716.48,716.639 1719.23,716.662 1721.99,716.684 1724.74,716.706 1727.49,716.728 1730.25,716.75 1733,716.771 1735.76,716.792 1738.51,716.812 1741.27,716.832 1744.02,716.852 1746.78,716.872 1749.53,716.891 1752.28,716.91 1755.04,716.929 1757.79,716.948 1760.55,716.966 1763.3,716.984 1766.06,717.001 1768.81,717.019 1771.57,717.036 1774.32,717.053 1777.07,717.069 1779.83,717.086 1782.58,717.102 1785.34,717.118 1788.09,717.133 1790.85,717.149 1793.6,717.164 1796.36,717.179 1799.11,717.193 1801.86,717.208 1804.62,717.222 1807.37,717.236 1810.13,717.25 1812.88,717.263 1815.64,717.276 1818.39,717.29 1821.15,717.302 1823.9,717.315 1826.65,717.328 1829.41,717.34 1832.16,717.352 1834.92,717.364 1837.67,717.375 1840.43,717.387 1843.18,717.398 1845.94,717.409 1848.69,717.42 1851.44,717.431 1854.2,717.441 1856.95,717.452 1859.71,717.462 1862.46,717.472 1865.22,717.482 1867.97,717.491 1870.73,717.501 1873.48,717.51 1876.23,717.519 1878.99,717.528 1881.74,717.537 1884.5,717.546 1887.25,717.555 1890.01,717.563 1892.76,717.571 1895.52,717.579 1898.27,717.587 1901.03,717.595 1903.78,717.603 1906.53,717.611 1909.29,717.618 1912.04,717.625 1914.8,717.632 1917.55,717.639 1920.31,717.646 1923.06,717.653 1925.82,717.66 1928.57,717.666 1931.32,717.673 1934.08,717.679 1936.83,717.685 1939.59,717.691 1942.34,717.697 1945.1,717.703 1947.85,717.709 1950.61,717.715 1953.36,717.72 1956.11,717.726 1958.87,717.731 1961.62,717.736 1964.38,717.741 1967.13,717.746 1969.89,717.751 1972.64,717.756 1975.4,717.761 1978.15,717.766 1980.9,717.77 1983.66,717.775 1986.41,717.779 1989.17,717.783 1991.92,717.788 1994.68,717.792 1997.43,717.796 2000.19,717.8 2002.94,717.804 2005.69,717.807 2008.45,717.811 2011.2,717.815 2013.96,717.818 2016.71,717.822 2019.47,717.825 2022.22,717.829 2024.98,717.832 2027.73,717.835 2030.48,717.839 2033.24,717.842 2035.99,717.845 2038.75,717.848 2041.5,717.851 2044.26,717.854 2047.01,717.856 2049.77,717.859 2052.52,717.862 2055.27,717.864 2058.03,717.867 2060.78,717.869 2063.54,717.872 2066.29,717.874 2069.05,717.877 2071.8,717.879 2074.56,717.881 2077.31,717.883 2080.06,717.885 2082.82,717.887 2085.57,717.889 2088.33,717.891 2091.08,717.893 2093.84,717.895 2096.59,717.897 2099.35,717.899 2102.1,717.9 2104.85,717.902 2107.61,717.904 2110.36,717.905 2113.12,717.907 2115.87,717.909 2118.63,717.91 2121.38,717.912 2124.14,717.913 2126.89,717.914 2129.64,717.916 2132.4,717.917 2135.15,717.918 2137.91,717.919 2140.66,717.921 2143.42,717.922 2146.17,717.923 2148.93,717.924 2151.68,717.925 2154.44,717.926 2157.19,717.927 2159.94,717.928 2162.7,717.929 2165.45,717.93 2168.21,717.931 2170.96,717.932 2173.72,717.933 2176.47,717.934 2179.23,717.934 2181.98,717.935 2184.73,717.936 2187.49,717.937 2190.24,717.937 2193,717.938 2195.75,717.939 2198.51,717.94 2201.26,717.94 2204.02,717.941 2206.77,717.941 2209.52,717.942 2212.28,717.942 2215.03,717.943 2217.79,717.944 2220.54,717.944 2223.3,717.944 2226.05,717.945 2228.81,717.945 2231.56,717.946 2234.31,717.946 2237.07,717.947 2239.82,717.947 2242.58,717.947 2245.33,717.948 2248.09,717.948 2250.84,717.948 2253.6,717.949 2256.35,717.949 2259.1,717.949 2261.86,717.95 2264.61,717.95 2267.37,717.95 2270.12,717.95 2272.88,717.951 2275.63,717.951 2278.39,717.951 2281.14,717.951 2283.89,717.952 2286.65,717.952 2289.4,717.952 2292.16,717.952 2294.91,717.952 2297.67,717.953 2300.42,717.953 2303.18,717.953 2305.93,717.953 2308.68,717.953 2311.44,717.953 2314.19,717.953 2316.95,717.954 2319.7,717.954 2322.46,717.954 2325.21,717.954 2327.97,717.954 2330.72,717.954 2333.47,717.954 2336.23,717.954 2338.98,717.954 2341.74,717.954 2344.49,717.954 2347.25,717.954 2350,717.955 2352.76,717.955 "/>
<polyline clip-path="url(#clip132)" style="stroke:#3da44d; stroke-linecap:round; stroke-linejoin:round; stroke-width:12; stroke-opacity:1; fill:none" points="149.191,162.807 151.945,203.569 154.7,244.302 157.454,284.628 160.209,324.194 162.963,362.68 165.718,399.81 168.472,435.363 171.227,469.172 173.981,501.126 176.735,531.162 179.49,559.263 182.244,585.448 184.999,609.765 187.753,632.288 190.508,653.101 193.262,672.301 196.017,689.993 198.771,706.278 201.526,721.26 204.28,735.039 207.034,747.71 209.789,759.364 212.543,770.084 215.298,779.948 218.052,789.029 220.807,797.392 223.561,805.098 226.316,812.203 229.07,818.756 231.825,824.802 234.579,830.385 237.333,835.54 240.088,840.304 242.842,844.707 245.597,848.776 248.351,852.539 251.106,856.018 253.86,859.236 256.615,862.211 259.369,864.962 262.124,867.504 264.878,869.854 267.632,872.024 270.387,874.028 273.141,875.876 275.896,877.581 278.65,879.151 281.405,880.596 284.159,881.924 286.914,883.144 289.668,884.262 292.423,885.284 295.177,886.219 297.932,887.07 300.686,887.844 303.44,888.546 306.195,889.18 308.949,889.751 311.704,890.262 314.458,890.718 317.213,891.122 319.967,891.477 322.722,891.786 325.476,892.053 328.231,892.281 330.985,892.47 333.739,892.625 336.494,892.747 339.248,892.837 342.003,892.9 344.757,892.935 347.512,892.945 350.266,892.931 353.021,892.895 355.775,892.839 358.53,892.763 361.284,892.668 364.038,892.557 366.793,892.43 369.547,892.288 372.302,892.132 375.056,891.962 377.811,891.781 380.565,891.588 383.32,891.385 386.074,891.172 388.829,890.949 391.583,890.718 394.337,890.479 397.092,890.232 399.846,889.978 402.601,889.718 405.355,889.451 408.11,889.179 410.864,888.901 413.619,888.619 416.373,888.332 419.128,888.041 421.882,887.746 424.636,887.447 427.391,887.145 430.145,886.84 432.9,886.532 435.654,886.222 438.409,885.908 441.163,885.593 443.918,885.276 446.672,884.957 449.427,884.636 452.181,884.313 454.936,883.989 457.69,883.664 460.444,883.337 463.199,883.01 465.953,882.682 468.708,882.352 471.462,882.022 474.217,881.692 476.971,881.36 479.726,881.029 482.48,880.696 485.235,880.364 487.989,880.031 490.743,879.697 493.498,879.364 496.252,879.03 499.007,878.696 501.761,878.363 504.516,878.029 507.27,877.695 510.025,877.361 512.779,877.027 515.534,876.693 518.288,876.359 521.042,876.026 523.797,875.692 526.551,875.359 529.306,875.026 532.06,874.693 534.815,874.36 537.569,874.027 540.324,873.695 543.078,873.363 545.833,873.031 548.587,872.699 551.341,872.368 554.096,872.037 556.85,871.706 559.605,871.375 562.359,871.045 565.114,870.714 567.868,870.385 570.623,870.055 573.377,869.726 576.132,869.397 578.886,869.068 581.641,868.739 584.395,868.411 587.149,868.083 589.904,867.755 592.658,867.428 595.413,867.1 598.167,866.773 600.922,866.447 603.676,866.12 606.431,865.794 609.185,865.468 611.94,865.142 614.694,864.817 617.448,864.492 620.203,864.167 622.957,863.842 625.712,863.518 628.466,863.193 631.221,862.869 633.975,862.545 636.73,862.222 639.484,861.898 642.239,861.575 644.993,861.252 647.747,860.93 650.502,860.607 653.256,860.285 656.011,859.963 658.765,859.641 661.52,859.319 664.274,858.998 667.029,858.676 669.783,858.355 672.538,858.034 675.292,857.714 678.046,857.393 680.801,857.073 683.555,856.753 686.31,856.433 689.064,856.114 691.819,855.794 694.573,855.475 697.328,855.156 700.082,854.837 702.837,854.518 705.591,854.2 708.345,853.882 711.1,853.564 713.854,853.246 716.609,852.928 719.363,852.611 722.118,852.293 724.872,851.976 727.627,851.659 730.381,851.343 733.136,851.026 735.89,850.71 738.645,850.394 741.399,850.078 744.153,849.763 746.908,849.448 749.662,849.132 752.417,848.818 755.171,848.503 757.926,848.189 760.68,847.874 763.435,847.56 766.189,847.247 768.944,846.933 771.698,846.62 774.452,846.307 777.207,845.994 779.961,845.682 782.716,845.369 785.47,845.057 788.225,844.746 790.979,844.434 793.734,844.123 796.488,843.812 799.243,843.501 801.997,843.191 804.751,842.88 807.506,842.571 810.26,842.261 813.015,841.952 815.769,841.643 818.524,841.334 821.278,841.026 824.033,840.717 826.787,840.41 829.542,840.102 832.296,839.795 835.05,839.488 837.805,839.181 840.559,838.875 843.314,838.569 846.068,838.264 848.823,837.958 851.577,837.653 854.332,837.349 857.086,837.044 859.841,836.74 862.595,836.437 865.349,836.133 868.104,835.831 870.858,835.528 873.613,835.226 876.367,834.924 879.122,834.623 881.876,834.322 884.631,834.021 887.385,833.72 890.14,833.421 892.894,833.121 895.649,832.822 898.403,832.523 901.157,832.225 903.912,831.927 906.666,831.629 909.421,831.332 912.175,831.035 914.93,830.739 917.684,830.443 920.439,830.147 923.193,829.852 925.948,829.557 928.702,829.263 931.456,828.969 934.211,828.676 936.965,828.383 939.72,828.09 942.474,827.798 945.229,827.506 947.983,827.215 950.738,826.924 953.492,826.634 956.247,826.344 959.001,826.055 961.755,825.766 964.51,825.477 967.264,825.189 970.019,824.902 972.773,824.615 975.528,824.328 978.282,824.042 981.037,823.756 983.791,823.471 986.546,823.186 989.3,822.902 992.054,822.618 994.809,822.335 997.563,822.052 1000.32,821.77 1003.07,821.488 1005.83,821.207 1008.58,820.926 1011.34,820.646 1014.09,820.366 1016.84,820.087 1019.6,819.808 1022.35,819.53 1025.11,819.252 1027.86,818.975 1030.62,818.698 1033.37,818.422 1036.13,818.146 1038.88,817.871 1041.63,817.596 1044.39,817.322 1047.14,817.048 1049.9,816.775 1052.65,816.503 1055.41,816.231 1058.16,815.959 1060.92,815.688 1063.67,815.418 1066.42,815.148 1069.18,814.879 1071.93,814.61 1074.69,814.342 1077.44,814.074 1080.2,813.807 1082.95,813.54 1085.71,813.274 1088.46,813.008 1091.21,812.743 1093.97,812.479 1096.72,812.215 1099.48,811.952 1102.23,811.689 1104.99,811.426 1107.74,811.165 1110.5,810.903 1113.25,810.643 1116.01,810.383 1118.76,810.123 1121.51,809.864 1124.27,809.606 1127.02,809.348 1129.78,809.091 1132.53,808.834 1135.29,808.578 1138.04,808.322 1140.8,808.067 1143.55,807.812 1146.3,807.559 1149.06,807.305 1151.81,807.052 1154.57,806.8 1157.32,806.548 1160.08,806.297 1162.83,806.047 1165.59,805.797 1168.34,805.547 1171.09,805.298 1173.85,805.05 1176.6,804.802 1179.36,804.555 1182.11,804.308 1184.87,804.062 1187.62,803.817 1190.38,803.572 1193.13,803.327 1195.88,803.083 1198.64,802.84 1201.39,802.597 1204.15,802.355 1206.9,802.114 1209.66,801.873 1212.41,801.632 1215.17,801.392 1217.92,801.153 1220.67,800.914 1223.43,800.676 1226.18,800.438 1228.94,800.201 1231.69,799.964 1234.45,799.729 1237.2,799.493 1239.96,799.258 1242.71,799.024 1245.46,798.79 1248.22,798.557 1250.97,798.324 1253.73,798.092 1256.48,797.861 1259.24,797.63 1261.99,797.399 1264.75,797.17 1267.5,796.94 1270.25,796.712 1273.01,796.483 1275.76,796.256 1278.52,796.029 1281.27,795.802 1284.03,795.576 1286.78,795.351 1289.54,795.126 1292.29,794.902 1295.04,794.678 1297.8,794.455 1300.55,794.232 1303.31,794.01 1306.06,793.788 1308.82,793.567 1311.57,793.347 1314.33,793.127 1317.08,792.907 1319.83,792.689 1322.59,792.47 1325.34,792.252 1328.1,792.035 1330.85,791.818 1333.61,791.602 1336.36,791.387 1339.12,791.172 1341.87,790.957 1344.62,790.743 1347.38,790.53 1350.13,790.317 1352.89,790.104 1355.64,789.892 1358.4,789.681 1361.15,789.47 1363.91,789.26 1366.66,789.05 1369.41,788.841 1372.17,788.632 1374.92,788.424 1377.68,788.216 1380.43,788.009 1383.19,787.803 1385.94,787.597 1388.7,787.391 1391.45,787.186 1394.21,786.981 1396.96,786.777 1399.71,786.574 1402.47,786.371 1405.22,786.168 1407.98,785.967 1410.73,785.765 1413.49,785.564 1416.24,785.364 1419,785.164 1421.75,784.964 1424.5,784.765 1427.26,784.567 1430.01,784.369 1432.77,784.172 1435.52,783.975 1438.28,783.779 1441.03,783.583 1443.79,783.387 1446.54,783.192 1449.29,782.998 1452.05,782.804 1454.8,782.611 1457.56,782.418 1460.31,782.225 1463.07,782.033 1465.82,781.842 1468.58,781.651 1471.33,781.461 1474.08,781.271 1476.84,781.081 1479.59,780.892 1482.35,780.704 1485.1,780.516 1487.86,780.328 1490.61,780.141 1493.37,779.954 1496.12,779.768 1498.87,779.583 1501.63,779.397 1504.38,779.213 1507.14,779.028 1509.89,778.845 1512.65,778.661 1515.4,778.479 1518.16,778.296 1520.91,778.114 1523.66,777.933 1526.42,777.752 1529.17,777.571 1531.93,777.391 1534.68,777.212 1537.44,777.033 1540.19,776.854 1542.95,776.676 1545.7,776.498 1548.45,776.321 1551.21,776.144 1553.96,775.967 1556.72,775.792 1559.47,775.616 1562.23,775.441 1564.98,775.266 1567.74,775.092 1570.49,774.919 1573.24,774.745 1576,774.573 1578.75,774.4 1581.51,774.228 1584.26,774.057 1587.02,773.886 1589.77,773.715 1592.53,773.545 1595.28,773.375 1598.03,773.206 1600.79,773.037 1603.54,772.868 1606.3,772.7 1609.05,772.533 1611.81,772.365 1614.56,772.199 1617.32,772.032 1620.07,771.866 1622.82,771.701 1625.58,771.536 1628.33,771.371 1631.09,771.207 1633.84,771.043 1636.6,770.88 1639.35,770.717 1642.11,770.554 1644.86,770.392 1647.62,770.23 1650.37,770.069 1653.12,769.908 1655.88,769.747 1658.63,769.587 1661.39,769.428 1664.14,769.268 1666.9,769.109 1669.65,768.951 1672.41,768.793 1675.16,768.635 1677.91,768.478 1680.67,768.321 1683.42,768.164 1686.18,768.008 1688.93,767.852 1691.69,767.697 1694.44,767.542 1697.2,767.387 1699.95,767.233 1702.7,767.08 1705.46,766.926 1708.21,766.773 1710.97,766.62 1713.72,766.468 1716.48,766.316 1719.23,766.165 1721.99,766.014 1724.74,765.863 1727.49,765.713 1730.25,765.563 1733,765.413 1735.76,765.264 1738.51,765.115 1741.27,764.966 1744.02,764.818 1746.78,764.67 1749.53,764.523 1752.28,764.376 1755.04,764.229 1757.79,764.083 1760.55,763.937 1763.3,763.792 1766.06,763.646 1768.81,763.501 1771.57,763.357 1774.32,763.213 1777.07,763.069 1779.83,762.926 1782.58,762.783 1785.34,762.64 1788.09,762.498 1790.85,762.356 1793.6,762.214 1796.36,762.073 1799.11,761.932 1801.86,761.791 1804.62,761.651 1807.37,761.511 1810.13,761.371 1812.88,761.232 1815.64,761.093 1818.39,760.954 1821.15,760.816 1823.9,760.678 1826.65,760.541 1829.41,760.404 1832.16,760.267 1834.92,760.13 1837.67,759.994 1840.43,759.858 1843.18,759.723 1845.94,759.587 1848.69,759.452 1851.44,759.318 1854.2,759.184 1856.95,759.05 1859.71,758.916 1862.46,758.783 1865.22,758.65 1867.97,758.517 1870.73,758.385 1873.48,758.253 1876.23,758.121 1878.99,757.99 1881.74,757.859 1884.5,757.728 1887.25,757.598 1890.01,757.468 1892.76,757.338 1895.52,757.209 1898.27,757.08 1901.03,756.951 1903.78,756.822 1906.53,756.694 1909.29,756.566 1912.04,756.438 1914.8,756.311 1917.55,756.184 1920.31,756.058 1923.06,755.931 1925.82,755.805 1928.57,755.679 1931.32,755.554 1934.08,755.429 1936.83,755.304 1939.59,755.179 1942.34,755.055 1945.1,754.931 1947.85,754.807 1950.61,754.684 1953.36,754.561 1956.11,754.438 1958.87,754.315 1961.62,754.193 1964.38,754.071 1967.13,753.949 1969.89,753.828 1972.64,753.707 1975.4,753.586 1978.15,753.465 1980.9,753.345 1983.66,753.225 1986.41,753.105 1989.17,752.986 1991.92,752.867 1994.68,752.748 1997.43,752.629 2000.19,752.511 2002.94,752.393 2005.69,752.275 2008.45,752.158 2011.2,752.041 2013.96,751.924 2016.71,751.807 2019.47,751.691 2022.22,751.574 2024.98,751.459 2027.73,751.343 2030.48,751.228 2033.24,751.113 2035.99,750.998 2038.75,750.883 2041.5,750.769 2044.26,750.655 2047.01,750.541 2049.77,750.428 2052.52,750.315 2055.27,750.202 2058.03,750.089 2060.78,749.977 2063.54,749.864 2066.29,749.752 2069.05,749.641 2071.8,749.529 2074.56,749.418 2077.31,749.307 2080.06,749.197 2082.82,749.086 2085.57,748.976 2088.33,748.866 2091.08,748.756 2093.84,748.647 2096.59,748.538 2099.35,748.429 2102.1,748.32 2104.85,748.212 2107.61,748.104 2110.36,747.996 2113.12,747.888 2115.87,747.781 2118.63,747.673 2121.38,747.567 2124.14,747.46 2126.89,747.353 2129.64,747.247 2132.4,747.141 2135.15,747.035 2137.91,746.93 2140.66,746.825 2143.42,746.72 2146.17,746.615 2148.93,746.51 2151.68,746.406 2154.44,746.302 2157.19,746.198 2159.94,746.094 2162.7,745.991 2165.45,745.887 2168.21,745.784 2170.96,745.682 2173.72,745.579 2176.47,745.477 2179.23,745.375 2181.98,745.273 2184.73,745.171 2187.49,745.07 2190.24,744.969 2193,744.868 2195.75,744.767 2198.51,744.667 2201.26,744.566 2204.02,744.466 2206.77,744.366 2209.52,744.267 2212.28,744.167 2215.03,744.068 2217.79,743.969 2220.54,743.87 2223.3,743.772 2226.05,743.673 2228.81,743.575 2231.56,743.477 2234.31,743.38 2237.07,743.282 2239.82,743.185 2242.58,743.088 2245.33,742.991 2248.09,742.894 2250.84,742.798 2253.6,742.701 2256.35,742.606 2259.1,742.51 2261.86,742.414 2264.61,742.319 2267.37,742.223 2270.12,742.128 2272.88,742.034 2275.63,741.939 2278.39,741.845 2281.14,741.75 2283.89,741.656 2286.65,741.563 2289.4,741.469 2292.16,741.376 2294.91,741.283 2297.67,741.189 2300.42,741.097 2303.18,741.004 2305.93,740.912 2308.68,740.82 2311.44,740.727 2314.19,740.636 2316.95,740.544 2319.7,740.452 2322.46,740.361 2325.21,740.27 2327.97,740.179 2330.72,740.089 2333.47,739.998 2336.23,739.908 2338.98,739.818 2341.74,739.728 2344.49,739.638 2347.25,739.549 2350,739.459 2352.76,739.37 "/>
<path clip-path="url(#clip130)" d="M1969.85 1377.32 L2279.3 1377.32 L2279.3 1169.96 L1969.85 1169.96  Z" fill="#ffffff" fill-rule="evenodd" fill-opacity="1"/>
<polyline clip-path="url(#clip130)" style="stroke:#000000; stroke-linecap:round; stroke-linejoin:round; stroke-width:4; stroke-opacity:1; fill:none" points="1969.85,1377.32 2279.3,1377.32 2279.3,1169.96 1969.85,1169.96 1969.85,1377.32 "/>
<polyline clip-path="url(#clip130)" style="stroke:#009af9; stroke-linecap:round; stroke-linejoin:round; stroke-width:12; stroke-opacity:1; fill:none" points="1994.33,1221.8 2141.24,1221.8 "/>
<path clip-path="url(#clip130)" d="M2165.72 1228.84 L2165.72 1213.15 L2169.98 1213.15 L2169.98 1228.68 Q2169.98 1232.36 2171.42 1234.21 Q2172.85 1236.04 2175.72 1236.04 Q2179.17 1236.04 2181.16 1233.84 Q2183.18 1231.64 2183.18 1227.85 L2183.18 1213.15 L2187.44 1213.15 L2187.44 1239.08 L2183.18 1239.08 L2183.18 1235.09 Q2181.63 1237.45 2179.57 1238.61 Q2177.53 1239.75 2174.82 1239.75 Q2170.35 1239.75 2168.04 1236.97 Q2165.72 1234.19 2165.72 1228.84 M2176.44 1212.52 L2176.44 1212.52 Z" fill="#000000" fill-rule="nonzero" fill-opacity="1" /><path clip-path="url(#clip130)" d="M2195.82 1203.06 L2205.63 1203.06 L2205.63 1206.37 L2200.07 1206.37 L2200.07 1242.02 L2205.63 1242.02 L2205.63 1245.33 L2195.82 1245.33 L2195.82 1203.06 Z" fill="#000000" fill-rule="nonzero" fill-opacity="1" /><path clip-path="url(#clip130)" d="M2216.12 1235.14 L2223.76 1235.14 L2223.76 1208.77 L2215.44 1210.44 L2215.44 1206.18 L2223.71 1204.52 L2228.38 1204.52 L2228.38 1235.14 L2236.02 1235.14 L2236.02 1239.08 L2216.12 1239.08 L2216.12 1235.14 Z" fill="#000000" fill-rule="nonzero" fill-opacity="1" /><path clip-path="url(#clip130)" d="M2254.82 1203.06 L2254.82 1245.33 L2245 1245.33 L2245 1242.02 L2250.54 1242.02 L2250.54 1206.37 L2245 1206.37 L2245 1203.06 L2254.82 1203.06 Z" fill="#000000" fill-rule="nonzero" fill-opacity="1" /><polyline clip-path="url(#clip130)" style="stroke:#e26f46; stroke-linecap:round; stroke-linejoin:round; stroke-width:12; stroke-opacity:1; fill:none" points="1994.33,1273.64 2141.24,1273.64 "/>
<path clip-path="url(#clip130)" d="M2165.72 1280.68 L2165.72 1264.99 L2169.98 1264.99 L2169.98 1280.52 Q2169.98 1284.2 2171.42 1286.05 Q2172.85 1287.88 2175.72 1287.88 Q2179.17 1287.88 2181.16 1285.68 Q2183.18 1283.48 2183.18 1279.69 L2183.18 1264.99 L2187.44 1264.99 L2187.44 1290.92 L2183.18 1290.92 L2183.18 1286.93 Q2181.63 1289.29 2179.57 1290.45 Q2177.53 1291.59 2174.82 1291.59 Q2170.35 1291.59 2168.04 1288.81 Q2165.72 1286.03 2165.72 1280.68 M2176.44 1264.36 L2176.44 1264.36 Z" fill="#000000" fill-rule="nonzero" fill-opacity="1" /><path clip-path="url(#clip130)" d="M2195.82 1254.9 L2205.63 1254.9 L2205.63 1258.21 L2200.07 1258.21 L2200.07 1293.86 L2205.63 1293.86 L2205.63 1297.17 L2195.82 1297.17 L2195.82 1254.9 Z" fill="#000000" fill-rule="nonzero" fill-opacity="1" /><path clip-path="url(#clip130)" d="M2219.33 1286.98 L2235.65 1286.98 L2235.65 1290.92 L2213.71 1290.92 L2213.71 1286.98 Q2216.37 1284.23 2220.95 1279.6 Q2225.56 1274.94 2226.74 1273.6 Q2228.99 1271.08 2229.87 1269.34 Q2230.77 1267.58 2230.77 1265.89 Q2230.77 1263.14 2228.82 1261.4 Q2226.9 1259.67 2223.8 1259.67 Q2221.6 1259.67 2219.15 1260.43 Q2216.72 1261.19 2213.94 1262.74 L2213.94 1258.02 Q2216.76 1256.89 2219.22 1256.31 Q2221.67 1255.73 2223.71 1255.73 Q2229.08 1255.73 2232.27 1258.42 Q2235.47 1261.1 2235.47 1265.59 Q2235.47 1267.72 2234.66 1269.64 Q2233.87 1271.54 2231.76 1274.13 Q2231.19 1274.8 2228.08 1278.02 Q2224.98 1281.22 2219.33 1286.98 Z" fill="#000000" fill-rule="nonzero" fill-opacity="1" /><path clip-path="url(#clip130)" d="M2254.82 1254.9 L2254.82 1297.17 L2245 1297.17 L2245 1293.86 L2250.54 1293.86 L2250.54 1258.21 L2245 1258.21 L2245 1254.9 L2254.82 1254.9 Z" fill="#000000" fill-rule="nonzero" fill-opacity="1" /><polyline clip-path="url(#clip130)" style="stroke:#3da44d; stroke-linecap:round; stroke-linejoin:round; stroke-width:12; stroke-opacity:1; fill:none" points="1994.33,1325.48 2141.24,1325.48 "/>
<path clip-path="url(#clip130)" d="M2165.72 1332.52 L2165.72 1316.83 L2169.98 1316.83 L2169.98 1332.36 Q2169.98 1336.04 2171.42 1337.89 Q2172.85 1339.72 2175.72 1339.72 Q2179.17 1339.72 2181.16 1337.52 Q2183.18 1335.32 2183.18 1331.53 L2183.18 1316.83 L2187.44 1316.83 L2187.44 1342.76 L2183.18 1342.76 L2183.18 1338.77 Q2181.63 1341.13 2179.57 1342.29 Q2177.53 1343.43 2174.82 1343.43 Q2170.35 1343.43 2168.04 1340.65 Q2165.72 1337.87 2165.72 1332.52 M2176.44 1316.2 L2176.44 1316.2 Z" fill="#000000" fill-rule="nonzero" fill-opacity="1" /><path clip-path="url(#clip130)" d="M2206.44 1306.78 Q2203.34 1312.11 2201.83 1317.32 Q2200.33 1322.52 2200.33 1327.87 Q2200.33 1333.22 2201.83 1338.47 Q2203.36 1343.7 2206.44 1349.01 L2202.74 1349.01 Q2199.26 1343.57 2197.53 1338.31 Q2195.82 1333.06 2195.82 1327.87 Q2195.82 1322.71 2197.53 1317.48 Q2199.24 1312.25 2202.74 1306.78 L2206.44 1306.78 Z" fill="#000000" fill-rule="nonzero" fill-opacity="1" /><path clip-path="url(#clip130)" d="M2218.92 1309.47 L2218.92 1316.83 L2227.69 1316.83 L2227.69 1320.14 L2218.92 1320.14 L2218.92 1334.21 Q2218.92 1337.38 2219.77 1338.29 Q2220.65 1339.19 2223.32 1339.19 L2227.69 1339.19 L2227.69 1342.76 L2223.32 1342.76 Q2218.38 1342.76 2216.51 1340.93 Q2214.63 1339.07 2214.63 1334.21 L2214.63 1320.14 L2211.51 1320.14 L2211.51 1316.83 L2214.63 1316.83 L2214.63 1309.47 L2218.92 1309.47 Z" fill="#000000" fill-rule="nonzero" fill-opacity="1" /><path clip-path="url(#clip130)" d="M2232.62 1306.78 L2236.32 1306.78 Q2239.8 1312.25 2241.51 1317.48 Q2243.25 1322.71 2243.25 1327.87 Q2243.25 1333.06 2241.51 1338.31 Q2239.8 1343.57 2236.32 1349.01 L2232.62 1349.01 Q2235.7 1343.7 2237.2 1338.47 Q2238.73 1333.22 2238.73 1327.87 Q2238.73 1322.52 2237.2 1317.32 Q2235.7 1312.11 2232.62 1306.78 Z" fill="#000000" fill-rule="nonzero" fill-opacity="1" /></svg>
