<?xml version="1.0" encoding="utf-8"?>
<svg xmlns="http://www.w3.org/2000/svg" xmlns:xlink="http://www.w3.org/1999/xlink" width="600" height="400" viewBox="0 0 2400 1600">
<defs>
  <clipPath id="clip720">
    <rect x="0" y="0" width="2400" height="1600"/>
  </clipPath>
</defs>
<path clip-path="url(#clip720)" d="M0 1600 L2400 1600 L2400 0 L0 0  Z" fill="#ffffff" fill-rule="evenodd" fill-opacity="1"/>
<defs>
  <clipPath id="clip721">
    <rect x="480" y="0" width="1681" height="1600"/>
  </clipPath>
</defs>
<path clip-path="url(#clip720)" d="M149.191 1423.18 L2352.76 1423.18 L2352.76 47.2441 L149.191 47.2441  Z" fill="#ffffff" fill-rule="evenodd" fill-opacity="1"/>
<defs>
  <clipPath id="clip722">
    <rect x="149" y="47" width="2205" height="1377"/>
  </clipPath>
</defs>
<polyline clip-path="url(#clip722)" style="stroke:#000000; stroke-linecap:round; stroke-linejoin:round; stroke-width:2; stroke-opacity:0.1; fill:none" points="149.191,1423.18 149.191,47.2441 "/>
<polyline clip-path="url(#clip722)" style="stroke:#000000; stroke-linecap:round; stroke-linejoin:round; stroke-width:2; stroke-opacity:0.1; fill:none" points="700.082,1423.18 700.082,47.2441 "/>
<polyline clip-path="url(#clip722)" style="stroke:#000000; stroke-linecap:round; stroke-linejoin:round; stroke-width:2; stroke-opacity:0.1; fill:none" points="1250.97,1423.18 1250.97,47.2441 "/>
<polyline clip-path="url(#clip722)" style="stroke:#000000; stroke-linecap:round; stroke-linejoin:round; stroke-width:2; stroke-opacity:0.1; fill:none" points="1801.86,1423.18 1801.86,47.2441 "/>
<polyline clip-path="url(#clip722)" style="stroke:#000000; stroke-linecap:round; stroke-linejoin:round; stroke-width:2; stroke-opacity:0.1; fill:none" points="2352.76,1423.18 2352.76,47.2441 "/>
<polyline clip-path="url(#clip722)" style="stroke:#000000; stroke-linecap:round; stroke-linejoin:round; stroke-width:2; stroke-opacity:0.1; fill:none" points="149.191,1423.18 2352.76,1423.18 "/>
<polyline clip-path="url(#clip722)" style="stroke:#000000; stroke-linecap:round; stroke-linejoin:round; stroke-width:2; stroke-opacity:0.1; fill:none" points="149.191,1193.86 2352.76,1193.86 "/>
<polyline clip-path="url(#clip722)" style="stroke:#000000; stroke-linecap:round; stroke-linejoin:round; stroke-width:2; stroke-opacity:0.1; fill:none" points="149.191,964.535 2352.76,964.535 "/>
<polyline clip-path="url(#clip722)" style="stroke:#000000; stroke-linecap:round; stroke-linejoin:round; stroke-width:2; stroke-opacity:0.1; fill:none" points="149.191,735.212 2352.76,735.212 "/>
<polyline clip-path="url(#clip722)" style="stroke:#000000; stroke-linecap:round; stroke-linejoin:round; stroke-width:2; stroke-opacity:0.1; fill:none" points="149.191,505.889 2352.76,505.889 "/>
<polyline clip-path="url(#clip722)" style="stroke:#000000; stroke-linecap:round; stroke-linejoin:round; stroke-width:2; stroke-opacity:0.1; fill:none" points="149.191,276.567 2352.76,276.567 "/>
<polyline clip-path="url(#clip722)" style="stroke:#000000; stroke-linecap:round; stroke-linejoin:round; stroke-width:2; stroke-opacity:0.1; fill:none" points="149.191,47.2441 2352.76,47.2441 "/>
<polyline clip-path="url(#clip720)" style="stroke:#000000; stroke-linecap:round; stroke-linejoin:round; stroke-width:4; stroke-opacity:1; fill:none" points="149.191,1423.18 2352.76,1423.18 "/>
<polyline clip-path="url(#clip720)" style="stroke:#000000; stroke-linecap:round; stroke-linejoin:round; stroke-width:4; stroke-opacity:1; fill:none" points="149.191,1423.18 149.191,1404.28 "/>
<polyline clip-path="url(#clip720)" style="stroke:#000000; stroke-linecap:round; stroke-linejoin:round; stroke-width:4; stroke-opacity:1; fill:none" points="700.082,1423.18 700.082,1404.28 "/>
<polyline clip-path="url(#clip720)" style="stroke:#000000; stroke-linecap:round; stroke-linejoin:round; stroke-width:4; stroke-opacity:1; fill:none" points="1250.97,1423.18 1250.97,1404.28 "/>
<polyline clip-path="url(#clip720)" style="stroke:#000000; stroke-linecap:round; stroke-linejoin:round; stroke-width:4; stroke-opacity:1; fill:none" points="1801.86,1423.18 1801.86,1404.28 "/>
<polyline clip-path="url(#clip720)" style="stroke:#000000; stroke-linecap:round; stroke-linejoin:round; stroke-width:4; stroke-opacity:1; fill:none" points="2352.76,1423.18 2352.76,1404.28 "/>
<path clip-path="url(#clip720)" d="M149.191 1454.1 Q145.58 1454.1 143.751 1457.66 Q141.946 1461.2 141.946 1468.33 Q141.946 1475.44 143.751 1479.01 Q145.58 1482.55 149.191 1482.55 Q152.825 1482.55 154.631 1479.01 Q156.459 1475.44 156.459 1468.33 Q156.459 1461.2 154.631 1457.66 Q152.825 1454.1 149.191 1454.1 M149.191 1450.39 Q155.001 1450.39 158.057 1455 Q161.135 1459.58 161.135 1468.33 Q161.135 1477.06 158.057 1481.67 Q155.001 1486.25 149.191 1486.25 Q143.381 1486.25 140.302 1481.67 Q137.246 1477.06 137.246 1468.33 Q137.246 1459.58 140.302 1455 Q143.381 1450.39 149.191 1450.39 Z" fill="#000000" fill-rule="nonzero" fill-opacity="1" /><path clip-path="url(#clip720)" d="M694.735 1481.64 L711.054 1481.64 L711.054 1485.58 L689.11 1485.58 L689.11 1481.64 Q691.772 1478.89 696.355 1474.26 Q700.962 1469.61 702.142 1468.27 Q704.388 1465.74 705.267 1464.01 Q706.17 1462.25 706.17 1460.56 Q706.17 1457.8 704.226 1456.07 Q702.304 1454.33 699.203 1454.33 Q697.003 1454.33 694.55 1455.09 Q692.119 1455.86 689.341 1457.41 L689.341 1452.69 Q692.166 1451.55 694.619 1450.97 Q697.073 1450.39 699.11 1450.39 Q704.48 1450.39 707.675 1453.08 Q710.869 1455.77 710.869 1460.26 Q710.869 1462.39 710.059 1464.31 Q709.272 1466.2 707.165 1468.8 Q706.587 1469.47 703.485 1472.69 Q700.383 1475.88 694.735 1481.64 Z" fill="#000000" fill-rule="nonzero" fill-opacity="1" /><path clip-path="url(#clip720)" d="M1253.98 1455.09 L1242.18 1473.54 L1253.98 1473.54 L1253.98 1455.09 M1252.76 1451.02 L1258.64 1451.02 L1258.64 1473.54 L1263.57 1473.54 L1263.57 1477.43 L1258.64 1477.43 L1258.64 1485.58 L1253.98 1485.58 L1253.98 1477.43 L1238.38 1477.43 L1238.38 1472.92 L1252.76 1451.02 Z" fill="#000000" fill-rule="nonzero" fill-opacity="1" /><path clip-path="url(#clip720)" d="M1802.27 1466.44 Q1799.12 1466.44 1797.27 1468.59 Q1795.44 1470.74 1795.44 1474.49 Q1795.44 1478.22 1797.27 1480.39 Q1799.12 1482.55 1802.27 1482.55 Q1805.42 1482.55 1807.25 1480.39 Q1809.1 1478.22 1809.1 1474.49 Q1809.1 1470.74 1807.25 1468.59 Q1805.42 1466.44 1802.27 1466.44 M1811.55 1451.78 L1811.55 1456.04 Q1809.79 1455.21 1807.99 1454.77 Q1806.2 1454.33 1804.45 1454.33 Q1799.82 1454.33 1797.36 1457.45 Q1794.93 1460.58 1794.58 1466.9 Q1795.95 1464.89 1798.01 1463.82 Q1800.07 1462.73 1802.55 1462.73 Q1807.76 1462.73 1810.77 1465.9 Q1813.8 1469.05 1813.8 1474.49 Q1813.8 1479.82 1810.65 1483.03 Q1807.5 1486.25 1802.27 1486.25 Q1796.27 1486.25 1793.1 1481.67 Q1789.93 1477.06 1789.93 1468.33 Q1789.93 1460.14 1793.82 1455.28 Q1797.71 1450.39 1804.26 1450.39 Q1806.02 1450.39 1807.8 1450.74 Q1809.61 1451.09 1811.55 1451.78 Z" fill="#000000" fill-rule="nonzero" fill-opacity="1" /><path clip-path="url(#clip720)" d="M2352.76 1469.17 Q2349.42 1469.17 2347.5 1470.95 Q2345.6 1472.73 2345.6 1475.86 Q2345.6 1478.98 2347.5 1480.77 Q2349.42 1482.55 2352.76 1482.55 Q2356.09 1482.55 2358.01 1480.77 Q2359.93 1478.96 2359.93 1475.86 Q2359.93 1472.73 2358.01 1470.95 Q2356.11 1469.17 2352.76 1469.17 M2348.08 1467.18 Q2345.07 1466.44 2343.38 1464.38 Q2341.71 1462.32 2341.71 1459.35 Q2341.71 1455.21 2344.65 1452.8 Q2347.62 1450.39 2352.76 1450.39 Q2357.92 1450.39 2360.86 1452.8 Q2363.8 1455.21 2363.8 1459.35 Q2363.8 1462.32 2362.11 1464.38 Q2360.44 1466.44 2357.45 1467.18 Q2360.83 1467.96 2362.71 1470.26 Q2364.61 1472.55 2364.61 1475.86 Q2364.61 1480.88 2361.53 1483.57 Q2358.47 1486.25 2352.76 1486.25 Q2347.04 1486.25 2343.96 1483.57 Q2340.9 1480.88 2340.9 1475.86 Q2340.9 1472.55 2342.8 1470.26 Q2344.7 1467.96 2348.08 1467.18 M2346.37 1459.79 Q2346.37 1462.48 2348.03 1463.98 Q2349.72 1465.49 2352.76 1465.49 Q2355.77 1465.49 2357.45 1463.98 Q2359.17 1462.48 2359.17 1459.79 Q2359.17 1457.11 2357.45 1455.6 Q2355.77 1454.1 2352.76 1454.1 Q2349.72 1454.1 2348.03 1455.6 Q2346.37 1457.11 2346.37 1459.79 Z" fill="#000000" fill-rule="nonzero" fill-opacity="1" /><path clip-path="url(#clip720)" d="M1250.03 1522.27 L1250.03 1532.4 L1262.1 1532.4 L1262.1 1536.95 L1250.03 1536.95 L1250.03 1556.3 Q1250.03 1560.66 1251.21 1561.9 Q1252.42 1563.14 1256.08 1563.14 L1262.1 1563.14 L1262.1 1568.04 L1256.08 1568.04 Q1249.3 1568.04 1246.72 1565.53 Q1244.15 1562.98 1244.15 1556.3 L1244.15 1536.95 L1239.85 1536.95 L1239.85 1532.4 L1244.15 1532.4 L1244.15 1522.27 L1250.03 1522.27 Z" fill="#000000" fill-rule="nonzero" fill-opacity="1" /><polyline clip-path="url(#clip720)" style="stroke:#000000; stroke-linecap:round; stroke-linejoin:round; stroke-width:4; stroke-opacity:1; fill:none" points="149.191,1423.18 149.191,47.2441 "/>
<polyline clip-path="url(#clip720)" style="stroke:#000000; stroke-linecap:round; stroke-linejoin:round; stroke-width:4; stroke-opacity:1; fill:none" points="149.191,1423.18 168.089,1423.18 "/>
<polyline clip-path="url(#clip720)" style="stroke:#000000; stroke-linecap:round; stroke-linejoin:round; stroke-width:4; stroke-opacity:1; fill:none" points="149.191,1193.86 168.089,1193.86 "/>
<polyline clip-path="url(#clip720)" style="stroke:#000000; stroke-linecap:round; stroke-linejoin:round; stroke-width:4; stroke-opacity:1; fill:none" points="149.191,964.535 168.089,964.535 "/>
<polyline clip-path="url(#clip720)" style="stroke:#000000; stroke-linecap:round; stroke-linejoin:round; stroke-width:4; stroke-opacity:1; fill:none" points="149.191,735.212 168.089,735.212 "/>
<polyline clip-path="url(#clip720)" style="stroke:#000000; stroke-linecap:round; stroke-linejoin:round; stroke-width:4; stroke-opacity:1; fill:none" points="149.191,505.889 168.089,505.889 "/>
<polyline clip-path="url(#clip720)" style="stroke:#000000; stroke-linecap:round; stroke-linejoin:round; stroke-width:4; stroke-opacity:1; fill:none" points="149.191,276.567 168.089,276.567 "/>
<polyline clip-path="url(#clip720)" style="stroke:#000000; stroke-linecap:round; stroke-linejoin:round; stroke-width:4; stroke-opacity:1; fill:none" points="149.191,47.2441 168.089,47.2441 "/>
<path clip-path="url(#clip720)" d="M51.3162 1423.63 L80.992 1423.63 L80.992 1427.57 L51.3162 1427.57 L51.3162 1423.63 Z" fill="#000000" fill-rule="nonzero" fill-opacity="1" /><path clip-path="url(#clip720)" d="M101.663 1421.32 Q98.515 1421.32 96.6632 1423.47 Q94.8345 1425.62 94.8345 1429.37 Q94.8345 1433.1 96.6632 1435.27 Q98.515 1437.43 101.663 1437.43 Q104.811 1437.43 106.64 1435.27 Q108.492 1433.1 108.492 1429.37 Q108.492 1425.62 106.64 1423.47 Q104.811 1421.32 101.663 1421.32 M110.946 1406.66 L110.946 1410.92 Q109.186 1410.09 107.381 1409.65 Q105.598 1409.21 103.839 1409.21 Q99.2095 1409.21 96.7558 1412.33 Q94.3252 1415.46 93.978 1421.78 Q95.3437 1419.77 97.4039 1418.7 Q99.4641 1417.61 101.941 1417.61 Q107.149 1417.61 110.158 1420.78 Q113.191 1423.93 113.191 1429.37 Q113.191 1434.7 110.043 1437.91 Q106.895 1441.13 101.663 1441.13 Q95.6678 1441.13 92.4965 1436.55 Q89.3253 1431.94 89.3253 1423.21 Q89.3253 1415.02 93.2141 1410.16 Q97.103 1405.27 103.654 1405.27 Q105.413 1405.27 107.196 1405.62 Q109.001 1405.97 110.946 1406.66 Z" fill="#000000" fill-rule="nonzero" fill-opacity="1" /><path clip-path="url(#clip720)" d="M50.9921 1194.31 L80.6679 1194.31 L80.6679 1198.24 L50.9921 1198.24 L50.9921 1194.31 Z" fill="#000000" fill-rule="nonzero" fill-opacity="1" /><path clip-path="url(#clip720)" d="M103.608 1180.65 L91.8021 1199.1 L103.608 1199.1 L103.608 1180.65 M102.381 1176.58 L108.26 1176.58 L108.26 1199.1 L113.191 1199.1 L113.191 1202.99 L108.26 1202.99 L108.26 1211.14 L103.608 1211.14 L103.608 1202.99 L88.0058 1202.99 L88.0058 1198.48 L102.381 1176.58 Z" fill="#000000" fill-rule="nonzero" fill-opacity="1" /><path clip-path="url(#clip720)" d="M53.0754 964.986 L82.7512 964.986 L82.7512 968.921 L53.0754 968.921 L53.0754 964.986 Z" fill="#000000" fill-rule="nonzero" fill-opacity="1" /><path clip-path="url(#clip720)" d="M96.8715 977.879 L113.191 977.879 L113.191 981.815 L91.2465 981.815 L91.2465 977.879 Q93.9086 975.125 98.4919 970.495 Q103.098 965.842 104.279 964.5 Q106.524 961.977 107.404 960.241 Q108.307 958.481 108.307 956.792 Q108.307 954.037 106.362 952.301 Q104.441 950.565 101.339 950.565 Q99.14 950.565 96.6863 951.329 Q94.2558 952.093 91.478 953.643 L91.478 948.921 Q94.3021 947.787 96.7558 947.208 Q99.2095 946.63 101.246 946.63 Q106.617 946.63 109.811 949.315 Q113.006 952 113.006 956.491 Q113.006 958.62 112.196 960.542 Q111.408 962.44 109.302 965.032 Q108.723 965.704 105.621 968.921 Q102.52 972.116 96.8715 977.879 Z" fill="#000000" fill-rule="nonzero" fill-opacity="1" /><path clip-path="url(#clip720)" d="M101.246 721.011 Q97.6354 721.011 95.8067 724.575 Q94.0012 728.117 94.0012 735.247 Q94.0012 742.353 95.8067 745.918 Q97.6354 749.46 101.246 749.46 Q104.881 749.46 106.686 745.918 Q108.515 742.353 108.515 735.247 Q108.515 728.117 106.686 724.575 Q104.881 721.011 101.246 721.011 M101.246 717.307 Q107.057 717.307 110.112 721.913 Q113.191 726.497 113.191 735.247 Q113.191 743.973 110.112 748.58 Q107.057 753.163 101.246 753.163 Q95.4363 753.163 92.3576 748.58 Q89.3021 743.973 89.3021 735.247 Q89.3021 726.497 92.3576 721.913 Q95.4363 717.307 101.246 717.307 Z" fill="#000000" fill-rule="nonzero" fill-opacity="1" /><path clip-path="url(#clip720)" d="M96.8715 519.234 L113.191 519.234 L113.191 523.169 L91.2465 523.169 L91.2465 519.234 Q93.9086 516.48 98.4919 511.85 Q103.098 507.197 104.279 505.855 Q106.524 503.331 107.404 501.595 Q108.307 499.836 108.307 498.146 Q108.307 495.392 106.362 493.656 Q104.441 491.92 101.339 491.92 Q99.14 491.92 96.6863 492.683 Q94.2558 493.447 91.478 494.998 L91.478 490.276 Q94.3021 489.142 96.7558 488.563 Q99.2095 487.984 101.246 487.984 Q106.617 487.984 109.811 490.67 Q113.006 493.355 113.006 497.845 Q113.006 499.975 112.196 501.896 Q111.408 503.794 109.302 506.387 Q108.723 507.058 105.621 510.276 Q102.52 513.47 96.8715 519.234 Z" fill="#000000" fill-rule="nonzero" fill-opacity="1" /><path clip-path="url(#clip720)" d="M103.608 263.361 L91.8021 281.81 L103.608 281.81 L103.608 263.361 M102.381 259.287 L108.26 259.287 L108.26 281.81 L113.191 281.81 L113.191 285.699 L108.26 285.699 L108.26 293.847 L103.608 293.847 L103.608 285.699 L88.0058 285.699 L88.0058 281.185 L102.381 259.287 Z" fill="#000000" fill-rule="nonzero" fill-opacity="1" /><path clip-path="url(#clip720)" d="M101.663 45.3807 Q98.515 45.3807 96.6632 47.5334 Q94.8345 49.6862 94.8345 53.4362 Q94.8345 57.163 96.6632 59.3389 Q98.515 61.4917 101.663 61.4917 Q104.811 61.4917 106.64 59.3389 Q108.492 57.163 108.492 53.4362 Q108.492 49.6862 106.64 47.5334 Q104.811 45.3807 101.663 45.3807 M110.946 30.728 L110.946 34.9872 Q109.186 34.1539 107.381 33.7141 Q105.598 33.2743 103.839 33.2743 Q99.2095 33.2743 96.7558 36.3992 Q94.3252 39.5242 93.978 45.8436 Q95.3437 43.8298 97.4039 42.765 Q99.4641 41.677 101.941 41.677 Q107.149 41.677 110.158 44.8483 Q113.191 47.9964 113.191 53.4362 Q113.191 58.7602 110.043 61.9778 Q106.895 65.1954 101.663 65.1954 Q95.6678 65.1954 92.4965 60.6121 Q89.3253 56.0056 89.3253 47.2788 Q89.3253 39.0844 93.2141 34.2233 Q97.103 29.3391 103.654 29.3391 Q105.413 29.3391 107.196 29.6863 Q109.001 30.0335 110.946 30.728 Z" fill="#000000" fill-rule="nonzero" fill-opacity="1" /><polyline clip-path="url(#clip722)" style="stroke:#009af9; stroke-linecap:round; stroke-linejoin:round; stroke-width:12; stroke-opacity:1; fill:none" points="149.191,1193.86 151.945,1193.14 154.7,1191.15 157.454,1188.11 160.209,1184.24 162.963,1179.72 165.718,1174.73 168.472,1169.4 171.227,1163.83 173.981,1158.12 176.735,1152.31 179.49,1146.45 182.244,1140.57 184.999,1134.68 187.753,1128.78 190.508,1122.88 193.262,1116.98 196.017,1111.08 198.771,1105.19 201.526,1099.29 204.28,1093.39 207.034,1087.5 209.789,1081.62 212.543,1075.75 215.298,1069.89 218.052,1064.06 220.807,1058.24 223.561,1052.45 226.316,1046.69 229.07,1040.96 231.825,1035.27 234.579,1029.62 237.333,1024.01 240.088,1018.45 242.842,1012.93 245.597,1007.46 248.351,1002.04 251.106,996.672 253.86,991.358 256.615,986.098 259.369,980.892 262.124,975.741 264.878,970.646 267.632,965.607 270.387,960.623 273.141,955.694 275.896,950.821 278.65,946.002 281.405,941.237 284.159,936.525 286.914,931.866 289.668,927.258 292.423,922.702 295.177,918.195 297.932,913.738 300.686,909.329 303.44,904.968 306.195,900.653 308.949,896.383 311.704,892.157 314.458,887.974 317.213,883.832 319.967,879.731 322.722,875.67 325.476,871.647 328.231,867.661 330.985,863.712 333.739,859.798 336.494,855.918 339.248,852.073 342.003,848.259 344.757,844.478 347.512,840.727 350.266,837.007 353.021,833.315 355.775,829.653 358.53,826.018 361.284,822.409 364.038,818.828 366.793,815.272 369.547,811.741 372.302,808.234 375.056,804.751 377.811,801.292 380.565,797.855 383.32,794.44 386.074,791.048 388.829,787.677 391.583,784.327 394.337,780.997 397.092,777.688 399.846,774.398 402.601,771.128 405.355,767.877 408.11,764.645 410.864,761.431 413.619,758.235 416.373,755.058 419.128,751.897 421.882,748.755 424.636,745.629 427.391,742.521 430.145,739.429 432.9,736.353 435.654,733.294 438.409,730.252 441.163,727.225 443.918,724.214 446.672,721.22 449.427,718.24 452.181,715.277 454.936,712.328 457.69,709.396 460.444,706.478 463.199,703.575 465.953,700.688 468.708,697.815 471.462,694.957 474.217,692.114 476.971,689.285 479.726,686.472 482.48,683.672 485.235,680.887 487.989,678.117 490.743,675.361 493.498,672.62 496.252,669.892 499.007,667.179 501.761,664.48 504.516,661.795 507.27,659.125 510.025,656.468 512.779,653.826 515.534,651.197 518.288,648.583 521.042,645.983 523.797,643.396 526.551,640.824 529.306,638.265 532.06,635.721 534.815,633.191 537.569,630.674 540.324,628.172 543.078,625.683 545.833,623.208 548.587,620.747 551.341,618.3 554.096,615.867 556.85,613.448 559.605,611.043 562.359,608.651 565.114,606.274 567.868,603.91 570.623,601.56 573.377,599.224 576.132,596.901 578.886,594.593 581.641,592.298 584.395,590.017 587.149,587.75 589.904,585.496 592.658,583.256 595.413,581.03 598.167,578.818 600.922,576.619 603.676,574.434 606.431,572.263 609.185,570.105 611.94,567.961 614.694,565.831 617.448,563.714 620.203,561.611 622.957,559.522 625.712,557.446 628.466,555.383 631.221,553.334 633.975,551.299 636.73,549.277 639.484,547.269 642.239,545.274 644.993,543.292 647.747,541.324 650.502,539.37 653.256,537.428 656.011,535.5 658.765,533.585 661.52,531.684 664.274,529.796 667.029,527.92 669.783,526.058 672.538,524.209 675.292,522.373 678.046,520.55 680.801,518.741 683.555,516.944 686.31,515.159 689.064,513.388 691.819,511.63 694.573,509.884 697.328,508.151 700.082,506.431 702.837,504.724 705.591,503.029 708.345,501.346 711.1,499.676 713.854,498.019 716.609,496.374 719.363,494.741 722.118,493.12 724.872,491.512 727.627,489.916 730.381,488.332 733.136,486.761 735.89,485.201 738.645,483.653 741.399,482.117 744.153,480.593 746.908,479.081 749.662,477.581 752.417,476.092 755.171,474.615 757.926,473.15 760.68,471.696 763.435,470.253 766.189,468.822 768.944,467.402 771.698,465.994 774.452,464.596 777.207,463.21 779.961,461.835 782.716,460.471 785.47,459.117 788.225,457.775 790.979,456.443 793.734,455.123 796.488,453.813 799.243,452.513 801.997,451.224 804.751,449.946 807.506,448.678 810.26,447.42 813.015,446.172 815.769,444.935 818.524,443.708 821.278,442.491 824.033,441.284 826.787,440.087 829.542,438.899 832.296,437.722 835.05,436.554 837.805,435.396 840.559,434.248 843.314,433.109 846.068,431.979 848.823,430.859 851.577,429.748 854.332,428.647 857.086,427.554 859.841,426.471 862.595,425.397 865.349,424.332 868.104,423.275 870.858,422.228 873.613,421.189 876.367,420.159 879.122,419.138 881.876,418.125 884.631,417.121 887.385,416.126 890.14,415.138 892.894,414.159 895.649,413.189 898.403,412.226 901.157,411.272 903.912,410.326 906.666,409.387 909.421,408.457 912.175,407.535 914.93,406.62 917.684,405.713 920.439,404.814 923.193,403.922 925.948,403.038 928.702,402.162 931.456,401.293 934.211,400.431 936.965,399.577 939.72,398.73 942.474,397.89 945.229,397.057 947.983,396.231 950.738,395.413 953.492,394.601 956.247,393.796 959.001,392.998 961.755,392.206 964.51,391.422 967.264,390.644 970.019,389.872 972.773,389.107 975.528,388.348 978.282,387.596 981.037,386.85 983.791,386.111 986.546,385.377 989.3,384.65 992.054,383.929 994.809,383.214 997.563,382.505 1000.32,381.802 1003.07,381.105 1005.83,380.413 1008.58,379.728 1011.34,379.048 1014.09,378.374 1016.84,377.706 1019.6,377.043 1022.35,376.385 1025.11,375.734 1027.86,375.087 1030.62,374.446 1033.37,373.811 1036.13,373.18 1038.88,372.555 1041.63,371.935 1044.39,371.32 1047.14,370.711 1049.9,370.106 1052.65,369.506 1055.41,368.912 1058.16,368.322 1060.92,367.737 1063.67,367.157 1066.42,366.582 1069.18,366.011 1071.93,365.445 1074.69,364.884 1077.44,364.328 1080.2,363.775 1082.95,363.228 1085.71,362.685 1088.46,362.146 1091.21,361.612 1093.97,361.082 1096.72,360.556 1099.48,360.035 1102.23,359.518 1104.99,359.005 1107.74,358.496 1110.5,357.992 1113.25,357.491 1116.01,356.994 1118.76,356.502 1121.51,356.013 1124.27,355.528 1127.02,355.047 1129.78,354.57 1132.53,354.097 1135.29,353.628 1138.04,353.162 1140.8,352.7 1143.55,352.242 1146.3,351.787 1149.06,351.336 1151.81,350.888 1154.57,350.444 1157.32,350.003 1160.08,349.566 1162.83,349.132 1165.59,348.702 1168.34,348.275 1171.09,347.852 1173.85,347.431 1176.6,347.014 1179.36,346.6 1182.11,346.19 1184.87,345.782 1187.62,345.378 1190.38,344.977 1193.13,344.579 1195.88,344.184 1198.64,343.792 1201.39,343.403 1204.15,343.017 1206.9,342.634 1209.66,342.253 1212.41,341.876 1215.17,341.502 1217.92,341.13 1220.67,340.761 1223.43,340.395 1226.18,340.032 1228.94,339.671 1231.69,339.313 1234.45,338.958 1237.2,338.606 1239.96,338.256 1242.71,337.909 1245.46,337.564 1248.22,337.222 1250.97,336.882 1253.73,336.545 1256.48,336.21 1259.24,335.878 1261.99,335.549 1264.75,335.221 1267.5,334.897 1270.25,334.574 1273.01,334.254 1275.76,333.936 1278.52,333.621 1281.27,333.308 1284.03,332.997 1286.78,332.688 1289.54,332.382 1292.29,332.078 1295.04,331.776 1297.8,331.476 1300.55,331.179 1303.31,330.883 1306.06,330.59 1308.82,330.298 1311.57,330.009 1314.33,329.722 1317.08,329.437 1319.83,329.154 1322.59,328.873 1325.34,328.594 1328.1,328.317 1330.85,328.041 1333.61,327.768 1336.36,327.497 1339.12,327.227 1341.87,326.96 1344.62,326.694 1347.38,326.43 1350.13,326.168 1352.89,325.908 1355.64,325.649 1358.4,325.393 1361.15,325.138 1363.91,324.885 1366.66,324.633 1369.41,324.383 1372.17,324.135 1374.92,323.889 1377.68,323.644 1380.43,323.401 1383.19,323.16 1385.94,322.92 1388.7,322.682 1391.45,322.445 1394.21,322.21 1396.96,321.977 1399.71,321.745 1402.47,321.514 1405.22,321.286 1407.98,321.058 1410.73,320.832 1413.49,320.608 1416.24,320.385 1419,320.164 1421.75,319.944 1424.5,319.725 1427.26,319.508 1430.01,319.292 1432.77,319.078 1435.52,318.865 1438.28,318.653 1441.03,318.443 1443.79,318.234 1446.54,318.027 1449.29,317.821 1452.05,317.616 1454.8,317.412 1457.56,317.21 1460.31,317.009 1463.07,316.809 1465.82,316.611 1468.58,316.414 1471.33,316.218 1474.08,316.023 1476.84,315.83 1479.59,315.637 1482.35,315.446 1485.1,315.257 1487.86,315.068 1490.61,314.881 1493.37,314.695 1496.12,314.509 1498.87,314.326 1501.63,314.143 1504.38,313.961 1507.14,313.781 1509.89,313.602 1512.65,313.423 1515.4,313.246 1518.16,313.07 1520.91,312.896 1523.66,312.722 1526.42,312.549 1529.17,312.377 1531.93,312.207 1534.68,312.037 1537.44,311.868 1540.19,311.701 1542.95,311.534 1545.7,311.369 1548.45,311.204 1551.21,311.041 1553.96,310.878 1556.72,310.717 1559.47,310.556 1562.23,310.396 1564.98,310.238 1567.74,310.08 1570.49,309.923 1573.24,309.767 1576,309.612 1578.75,309.458 1581.51,309.305 1584.26,309.153 1587.02,309.002 1589.77,308.852 1592.53,308.702 1595.28,308.554 1598.03,308.406 1600.79,308.259 1603.54,308.113 1606.3,307.968 1609.05,307.824 1611.81,307.68 1614.56,307.538 1617.32,307.396 1620.07,307.255 1622.82,307.115 1625.58,306.976 1628.33,306.837 1631.09,306.7 1633.84,306.563 1636.6,306.427 1639.35,306.291 1642.11,306.157 1644.86,306.023 1647.62,305.89 1650.37,305.758 1653.12,305.626 1655.88,305.496 1658.63,305.366 1661.39,305.236 1664.14,305.108 1666.9,304.98 1669.65,304.853 1672.41,304.727 1675.16,304.601 1677.91,304.476 1680.67,304.352 1683.42,304.229 1686.18,304.106 1688.93,303.984 1691.69,303.862 1694.44,303.742 1697.2,303.621 1699.95,303.502 1702.7,303.383 1705.46,303.265 1708.21,303.148 1710.97,303.031 1713.72,302.915 1716.48,302.799 1719.23,302.685 1721.99,302.57 1724.74,302.457 1727.49,302.344 1730.25,302.232 1733,302.12 1735.76,302.009 1738.51,301.898 1741.27,301.788 1744.02,301.679 1746.78,301.57 1749.53,301.462 1752.28,301.355 1755.04,301.248 1757.79,301.142 1760.55,301.036 1763.3,300.931 1766.06,300.826 1768.81,300.722 1771.57,300.619 1774.32,300.516 1777.07,300.414 1779.83,300.312 1782.58,300.211 1785.34,300.11 1788.09,300.01 1790.85,299.91 1793.6,299.811 1796.36,299.713 1799.11,299.615 1801.86,299.517 1804.62,299.42 1807.37,299.324 1810.13,299.228 1812.88,299.133 1815.64,299.038 1818.39,298.944 1821.15,298.85 1823.9,298.757 1826.65,298.664 1829.41,298.572 1832.16,298.48 1834.92,298.389 1837.67,298.298 1840.43,298.208 1843.18,298.118 1845.94,298.029 1848.69,297.94 1851.44,297.851 1854.2,297.764 1856.95,297.676 1859.71,297.589 1862.46,297.503 1865.22,297.417 1867.97,297.331 1870.73,297.246 1873.48,297.161 1876.23,297.077 1878.99,296.994 1881.74,296.91 1884.5,296.827 1887.25,296.745 1890.01,296.663 1892.76,296.582 1895.52,296.501 1898.27,296.42 1901.03,296.34 1903.78,296.26 1906.53,296.181 1909.29,296.102 1912.04,296.023 1914.8,295.945 1917.55,295.867 1920.31,295.79 1923.06,295.713 1925.82,295.637 1928.57,295.561 1931.32,295.485 1934.08,295.41 1936.83,295.335 1939.59,295.261 1942.34,295.187 1945.1,295.114 1947.85,295.04 1950.61,294.968 1953.36,294.895 1956.11,294.823 1958.87,294.751 1961.62,294.68 1964.38,294.609 1967.13,294.539 1969.89,294.469 1972.64,294.399 1975.4,294.33 1978.15,294.261 1980.9,294.192 1983.66,294.124 1986.41,294.056 1989.17,293.989 1991.92,293.921 1994.68,293.855 1997.43,293.788 2000.19,293.722 2002.94,293.656 2005.69,293.591 2008.45,293.526 2011.2,293.461 2013.96,293.397 2016.71,293.333 2019.47,293.27 2022.22,293.206 2024.98,293.143 2027.73,293.081 2030.48,293.019 2033.24,292.957 2035.99,292.895 2038.75,292.834 2041.5,292.773 2044.26,292.713 2047.01,292.652 2049.77,292.592 2052.52,292.533 2055.27,292.473 2058.03,292.415 2060.78,292.356 2063.54,292.298 2066.29,292.24 2069.05,292.182 2071.8,292.125 2074.56,292.068 2077.31,292.011 2080.06,291.955 2082.82,291.898 2085.57,291.843 2088.33,291.787 2091.08,291.732 2093.84,291.677 2096.59,291.623 2099.35,291.568 2102.1,291.514 2104.85,291.461 2107.61,291.407 2110.36,291.354 2113.12,291.301 2115.87,291.249 2118.63,291.197 2121.38,291.145 2124.14,291.093 2126.89,291.042 2129.64,290.991 2132.4,290.94 2135.15,290.89 2137.91,290.839 2140.66,290.79 2143.42,290.74 2146.17,290.691 2148.93,290.642 2151.68,290.593 2154.44,290.544 2157.19,290.496 2159.94,290.448 2162.7,290.4 2165.45,290.353 2168.21,290.306 2170.96,290.259 2173.72,290.213 2176.47,290.166 2179.23,290.12 2181.98,290.074 2184.73,290.029 2187.49,289.984 2190.24,289.939 2193,289.894 2195.75,289.85 2198.51,289.805 2201.26,289.762 2204.02,289.718 2206.77,289.674 2209.52,289.631 2212.28,289.588 2215.03,289.546 2217.79,289.503 2220.54,289.461 2223.3,289.419 2226.05,289.378 2228.81,289.337 2231.56,289.295 2234.31,289.255 2237.07,289.214 2239.82,289.174 2242.58,289.133 2245.33,289.094 2248.09,289.054 2250.84,289.015 2253.6,288.975 2256.35,288.937 2259.1,288.898 2261.86,288.859 2264.61,288.821 2267.37,288.783 2270.12,288.746 2272.88,288.708 2275.63,288.671 2278.39,288.634 2281.14,288.597 2283.89,288.561 2286.65,288.524 2289.4,288.488 2292.16,288.452 2294.91,288.417 2297.67,288.381 2300.42,288.346 2303.18,288.311 2305.93,288.276 2308.68,288.242 2311.44,288.208 2314.19,288.174 2316.95,288.14 2319.7,288.106 2322.46,288.073 2325.21,288.04 2327.97,288.007 2330.72,287.974 2333.47,287.942 2336.23,287.909 2338.98,287.877 2341.74,287.845 2344.49,287.814 2347.25,287.782 2350,287.751 2352.76,287.72 "/>
<polyline clip-path="url(#clip722)" style="stroke:#e26f46; stroke-linecap:round; stroke-linejoin:round; stroke-width:12; stroke-opacity:1; fill:none" points="149.191,735.212 151.945,595.794 154.7,479.944 157.454,386.297 160.209,312.898 162.963,257.333 165.718,216.877 168.472,188.681 171.227,170.007 173.981,158.343 176.735,151.562 179.49,147.957 182.244,146.256 184.999,145.566 187.753,145.369 190.508,145.358 193.262,145.366 196.017,145.361 198.771,145.412 201.526,145.579 204.28,145.938 207.034,146.552 209.789,147.476 212.543,148.748 215.298,150.401 218.052,152.439 220.807,154.854 223.561,157.637 226.316,160.774 229.07,164.249 231.825,168.04 234.579,172.122 237.333,176.469 240.088,181.048 242.842,185.829 245.597,190.789 248.351,195.901 251.106,201.14 253.86,206.483 256.615,211.908 259.369,217.394 262.124,222.92 264.878,228.469 267.632,234.024 270.387,239.57 273.141,245.09 275.896,250.572 278.65,256.006 281.405,261.381 284.159,266.689 286.914,271.923 289.668,277.074 292.423,282.137 295.177,287.106 297.932,291.976 300.686,296.743 303.44,301.405 306.195,305.958 308.949,310.402 311.704,314.736 314.458,318.961 317.213,323.076 319.967,327.084 322.722,330.988 325.476,334.786 328.231,338.48 330.985,342.074 333.739,345.57 336.494,348.97 339.248,352.278 342.003,355.496 344.757,358.626 347.512,361.672 350.266,364.636 353.021,367.521 355.775,370.33 358.53,373.066 361.284,375.732 364.038,378.33 366.793,380.864 369.547,383.337 372.302,385.752 375.056,388.111 377.811,390.416 380.565,392.671 383.32,394.877 386.074,397.037 388.829,399.153 391.583,401.226 394.337,403.26 397.092,405.256 399.846,407.215 402.601,409.141 405.355,411.034 408.11,412.895 410.864,414.728 413.619,416.534 416.373,418.313 419.128,420.067 421.882,421.799 424.636,423.508 427.391,425.196 430.145,426.865 432.9,428.515 435.654,430.148 438.409,431.764 441.163,433.365 443.918,434.95 446.672,436.522 449.427,438.08 452.181,439.626 454.936,441.16 457.69,442.684 460.444,444.197 463.199,445.701 465.953,447.196 468.708,448.682 471.462,450.16 474.217,451.631 476.971,453.094 479.726,454.552 482.48,456.003 485.235,457.448 487.989,458.889 490.743,460.324 493.498,461.755 496.252,463.182 499.007,464.605 501.761,466.025 504.516,467.442 507.27,468.855 510.025,470.266 512.779,471.674 515.534,473.08 518.288,474.484 521.042,475.885 523.797,477.285 526.551,478.683 529.306,480.08 532.06,481.475 534.815,482.869 537.569,484.262 540.324,485.653 543.078,487.044 545.833,488.433 548.587,489.822 551.341,491.209 554.096,492.596 556.85,493.982 559.605,495.366 562.359,496.75 565.114,498.133 567.868,499.516 570.623,500.897 573.377,502.278 576.132,503.657 578.886,505.036 581.641,506.414 584.395,507.791 587.149,509.167 589.904,510.542 592.658,511.916 595.413,513.289 598.167,514.661 600.922,516.031 603.676,517.401 606.431,518.769 609.185,520.135 611.94,521.501 614.694,522.864 617.448,524.226 620.203,525.586 622.957,526.945 625.712,528.301 628.466,529.655 631.221,531.008 633.975,532.358 636.73,533.705 639.484,535.05 642.239,536.393 644.993,537.733 647.747,539.07 650.502,540.404 653.256,541.736 656.011,543.065 658.765,544.39 661.52,545.712 664.274,547.031 667.029,548.347 669.783,549.659 672.538,550.967 675.292,552.271 678.046,553.572 680.801,554.869 683.555,556.162 686.31,557.45 689.064,558.734 691.819,560.015 694.573,561.29 697.328,562.561 700.082,563.828 702.837,565.09 705.591,566.347 708.345,567.6 711.1,568.847 713.854,570.09 716.609,571.327 719.363,572.56 722.118,573.787 724.872,575.009 727.627,576.225 730.381,577.436 733.136,578.642 735.89,579.842 738.645,581.037 741.399,582.226 744.153,583.409 746.908,584.586 749.662,585.757 752.417,586.923 755.171,588.083 757.926,589.236 760.68,590.384 763.435,591.525 766.189,592.66 768.944,593.789 771.698,594.912 774.452,596.028 777.207,597.138 779.961,598.242 782.716,599.339 785.47,600.429 788.225,601.513 790.979,602.591 793.734,603.662 796.488,604.726 799.243,605.784 801.997,606.835 804.751,607.879 807.506,608.917 810.26,609.948 813.015,610.972 815.769,611.989 818.524,613 821.278,614.004 824.033,615.002 826.787,615.992 829.542,616.976 832.296,617.953 835.05,618.923 837.805,619.887 840.559,620.844 843.314,621.794 846.068,622.737 848.823,623.674 851.577,624.604 854.332,625.527 857.086,626.443 859.841,627.352 862.595,628.255 865.349,629.151 868.104,630.041 870.858,630.923 873.613,631.799 876.367,632.669 879.122,633.531 881.876,634.387 884.631,635.236 887.385,636.079 890.14,636.915 892.894,637.744 895.649,638.567 898.403,639.383 901.157,640.193 903.912,640.996 906.666,641.792 909.421,642.582 912.175,643.366 914.93,644.143 917.684,644.914 920.439,645.678 923.193,646.436 925.948,647.188 928.702,647.933 931.456,648.672 934.211,649.405 936.965,650.131 939.72,650.851 942.474,651.566 945.229,652.274 947.983,652.975 950.738,653.671 953.492,654.361 956.247,655.045 959.001,655.723 961.755,656.394 964.51,657.061 967.264,657.721 970.019,658.375 972.773,659.024 975.528,659.667 978.282,660.304 981.037,660.936 983.791,661.562 986.546,662.183 989.3,662.798 992.054,663.407 994.809,664.011 997.563,664.61 1000.32,665.203 1003.07,665.79 1005.83,666.373 1008.58,666.95 1011.34,667.522 1014.09,668.089 1016.84,668.65 1019.6,669.207 1022.35,669.758 1025.11,670.304 1027.86,670.845 1030.62,671.382 1033.37,671.913 1036.13,672.44 1038.88,672.961 1041.63,673.478 1044.39,673.99 1047.14,674.497 1049.9,675 1052.65,675.498 1055.41,675.991 1058.16,676.48 1060.92,676.964 1063.67,677.444 1066.42,677.919 1069.18,678.39 1071.93,678.856 1074.69,679.318 1077.44,679.776 1080.2,680.229 1082.95,680.678 1085.71,681.123 1088.46,681.564 1091.21,682.001 1093.97,682.433 1096.72,682.861 1099.48,683.286 1102.23,683.706 1104.99,684.123 1107.74,684.535 1110.5,684.944 1113.25,685.348 1116.01,685.749 1118.76,686.146 1121.51,686.54 1124.27,686.929 1127.02,687.315 1129.78,687.698 1132.53,688.076 1135.29,688.451 1138.04,688.823 1140.8,689.191 1143.55,689.556 1146.3,689.917 1149.06,690.274 1151.81,690.628 1154.57,690.979 1157.32,691.327 1160.08,691.671 1162.83,692.012 1165.59,692.35 1168.34,692.685 1171.09,693.016 1173.85,693.344 1176.6,693.67 1179.36,693.992 1182.11,694.311 1184.87,694.627 1187.62,694.94 1190.38,695.25 1193.13,695.557 1195.88,695.862 1198.64,696.163 1201.39,696.462 1204.15,696.758 1206.9,697.051 1209.66,697.341 1212.41,697.629 1215.17,697.914 1217.92,698.196 1220.67,698.476 1223.43,698.753 1226.18,699.028 1228.94,699.3 1231.69,699.569 1234.45,699.836 1237.2,700.1 1239.96,700.362 1242.71,700.622 1245.46,700.879 1248.22,701.134 1250.97,701.386 1253.73,701.636 1256.48,701.884 1259.24,702.129 1261.99,702.372 1264.75,702.613 1267.5,702.852 1270.25,703.088 1273.01,703.323 1275.76,703.555 1278.52,703.785 1281.27,704.013 1284.03,704.239 1286.78,704.462 1289.54,704.684 1292.29,704.904 1295.04,705.121 1297.8,705.337 1300.55,705.55 1303.31,705.762 1306.06,705.972 1308.82,706.18 1311.57,706.386 1314.33,706.59 1317.08,706.792 1319.83,706.993 1322.59,707.191 1325.34,707.388 1328.1,707.583 1330.85,707.777 1333.61,707.968 1336.36,708.158 1339.12,708.346 1341.87,708.533 1344.62,708.718 1347.38,708.901 1350.13,709.083 1352.89,709.263 1355.64,709.441 1358.4,709.618 1361.15,709.793 1363.91,709.967 1366.66,710.139 1369.41,710.31 1372.17,710.479 1374.92,710.646 1377.68,710.813 1380.43,710.978 1383.19,711.141 1385.94,711.303 1388.7,711.463 1391.45,711.623 1394.21,711.78 1396.96,711.937 1399.71,712.092 1402.47,712.246 1405.22,712.398 1407.98,712.549 1410.73,712.699 1413.49,712.848 1416.24,712.995 1419,713.141 1421.75,713.286 1424.5,713.43 1427.26,713.572 1430.01,713.714 1432.77,713.854 1435.52,713.993 1438.28,714.13 1441.03,714.267 1443.79,714.402 1446.54,714.537 1449.29,714.67 1452.05,714.802 1454.8,714.933 1457.56,715.063 1460.31,715.192 1463.07,715.32 1465.82,715.447 1468.58,715.572 1471.33,715.697 1474.08,715.821 1476.84,715.944 1479.59,716.065 1482.35,716.186 1485.1,716.306 1487.86,716.425 1490.61,716.543 1493.37,716.659 1496.12,716.775 1498.87,716.89 1501.63,717.004 1504.38,717.118 1507.14,717.23 1509.89,717.341 1512.65,717.452 1515.4,717.561 1518.16,717.67 1520.91,717.778 1523.66,717.885 1526.42,717.991 1529.17,718.096 1531.93,718.201 1534.68,718.305 1537.44,718.408 1540.19,718.51 1542.95,718.611 1545.7,718.712 1548.45,718.812 1551.21,718.911 1553.96,719.009 1556.72,719.106 1559.47,719.203 1562.23,719.299 1564.98,719.395 1567.74,719.489 1570.49,719.583 1573.24,719.676 1576,719.769 1578.75,719.86 1581.51,719.952 1584.26,720.042 1587.02,720.132 1589.77,720.221 1592.53,720.309 1595.28,720.397 1598.03,720.484 1600.79,720.57 1603.54,720.656 1606.3,720.741 1609.05,720.826 1611.81,720.91 1614.56,720.993 1617.32,721.076 1620.07,721.158 1622.82,721.239 1625.58,721.32 1628.33,721.401 1631.09,721.48 1633.84,721.56 1636.6,721.638 1639.35,721.716 1642.11,721.794 1644.86,721.871 1647.62,721.947 1650.37,722.023 1653.12,722.098 1655.88,722.173 1658.63,722.247 1661.39,722.321 1664.14,722.394 1666.9,722.467 1669.65,722.539 1672.41,722.611 1675.16,722.682 1677.91,722.753 1680.67,722.823 1683.42,722.893 1686.18,722.962 1688.93,723.031 1691.69,723.1 1694.44,723.168 1697.2,723.235 1699.95,723.302 1702.7,723.369 1705.46,723.435 1708.21,723.5 1710.97,723.566 1713.72,723.631 1716.48,723.695 1719.23,723.759 1721.99,723.822 1724.74,723.886 1727.49,723.948 1730.25,724.011 1733,724.073 1735.76,724.134 1738.51,724.195 1741.27,724.256 1744.02,724.316 1746.78,724.376 1749.53,724.436 1752.28,724.495 1755.04,724.554 1757.79,724.613 1760.55,724.671 1763.3,724.728 1766.06,724.786 1768.81,724.843 1771.57,724.899 1774.32,724.956 1777.07,725.012 1779.83,725.067 1782.58,725.123 1785.34,725.178 1788.09,725.232 1790.85,725.287 1793.6,725.34 1796.36,725.394 1799.11,725.447 1801.86,725.5 1804.62,725.553 1807.37,725.605 1810.13,725.657 1812.88,725.709 1815.64,725.761 1818.39,725.812 1821.15,725.862 1823.9,725.913 1826.65,725.963 1829.41,726.013 1832.16,726.062 1834.92,726.112 1837.67,726.161 1840.43,726.209 1843.18,726.258 1845.94,726.306 1848.69,726.354 1851.44,726.402 1854.2,726.449 1856.95,726.496 1859.71,726.543 1862.46,726.589 1865.22,726.636 1867.97,726.682 1870.73,726.727 1873.48,726.773 1876.23,726.818 1878.99,726.863 1881.74,726.908 1884.5,726.952 1887.25,726.997 1890.01,727.041 1892.76,727.085 1895.52,727.128 1898.27,727.171 1901.03,727.214 1903.78,727.257 1906.53,727.3 1909.29,727.342 1912.04,727.384 1914.8,727.426 1917.55,727.468 1920.31,727.509 1923.06,727.55 1925.82,727.591 1928.57,727.632 1931.32,727.673 1934.08,727.713 1936.83,727.753 1939.59,727.793 1942.34,727.833 1945.1,727.872 1947.85,727.912 1950.61,727.951 1953.36,727.99 1956.11,728.028 1958.87,728.067 1961.62,728.105 1964.38,728.143 1967.13,728.181 1969.89,728.219 1972.64,728.256 1975.4,728.294 1978.15,728.331 1980.9,728.368 1983.66,728.405 1986.41,728.441 1989.17,728.478 1991.92,728.514 1994.68,728.55 1997.43,728.586 2000.19,728.622 2002.94,728.657 2005.69,728.692 2008.45,728.728 2011.2,728.763 2013.96,728.797 2016.71,728.832 2019.47,728.867 2022.22,728.901 2024.98,728.935 2027.73,728.969 2030.48,729.003 2033.24,729.037 2035.99,729.07 2038.75,729.104 2041.5,729.137 2044.26,729.17 2047.01,729.203 2049.77,729.235 2052.52,729.268 2055.27,729.301 2058.03,729.333 2060.78,729.365 2063.54,729.397 2066.29,729.429 2069.05,729.461 2071.8,729.492 2074.56,729.524 2077.31,729.555 2080.06,729.586 2082.82,729.617 2085.57,729.648 2088.33,729.679 2091.08,729.709 2093.84,729.74 2096.59,729.77 2099.35,729.801 2102.1,729.831 2104.85,729.861 2107.61,729.89 2110.36,729.92 2113.12,729.95 2115.87,729.979 2118.63,730.009 2121.38,730.038 2124.14,730.067 2126.89,730.096 2129.64,730.125 2132.4,730.153 2135.15,730.182 2137.91,730.21 2140.66,730.239 2143.42,730.267 2146.17,730.295 2148.93,730.323 2151.68,730.351 2154.44,730.379 2157.19,730.407 2159.94,730.434 2162.7,730.462 2165.45,730.489 2168.21,730.516 2170.96,730.543 2173.72,730.57 2176.47,730.597 2179.23,730.624 2181.98,730.651 2184.73,730.677 2187.49,730.704 2190.24,730.73 2193,730.756 2195.75,730.783 2198.51,730.809 2201.26,730.835 2204.02,730.86 2206.77,730.886 2209.52,730.912 2212.28,730.937 2215.03,730.963 2217.79,730.988 2220.54,731.013 2223.3,731.039 2226.05,731.064 2228.81,731.089 2231.56,731.114 2234.31,731.138 2237.07,731.163 2239.82,731.188 2242.58,731.212 2245.33,731.237 2248.09,731.261 2250.84,731.285 2253.6,731.309 2256.35,731.333 2259.1,731.357 2261.86,731.381 2264.61,731.405 2267.37,731.429 2270.12,731.452 2272.88,731.476 2275.63,731.499 2278.39,731.523 2281.14,731.546 2283.89,731.569 2286.65,731.592 2289.4,731.616 2292.16,731.639 2294.91,731.661 2297.67,731.684 2300.42,731.707 2303.18,731.73 2305.93,731.752 2308.68,731.775 2311.44,731.797 2314.19,731.819 2316.95,731.842 2319.7,731.864 2322.46,731.886 2325.21,731.908 2327.97,731.93 2330.72,731.952 2333.47,731.974 2336.23,731.996 2338.98,732.017 2341.74,732.039 2344.49,732.06 2347.25,732.082 2350,732.103 2352.76,732.125 "/>
<polyline clip-path="url(#clip722)" style="stroke:#3da44d; stroke-linecap:round; stroke-linejoin:round; stroke-width:12; stroke-opacity:1; fill:none" points="149.191,151.209 151.945,183.896 154.7,219.261 157.454,257.053 160.209,296.907 162.963,338.351 165.718,380.826 168.472,423.711 171.227,466.364 173.981,508.162 176.735,548.54 179.49,587.021 182.244,623.237 184.999,656.936 187.753,687.975 190.508,716.314 193.262,741.991 196.017,765.107 198.771,785.808 201.526,804.266 204.28,820.666 207.034,835.198 209.789,848.046 212.543,859.384 215.298,869.374 218.052,878.164 220.807,885.888 223.561,892.664 226.316,898.596 229.07,903.779 231.825,908.293 234.579,912.21 237.333,915.591 240.088,918.491 242.842,920.959 245.597,923.035 248.351,924.756 251.106,926.156 253.86,927.262 256.615,928.101 259.369,928.695 262.124,929.064 264.878,929.228 267.632,929.203 270.387,929.005 273.141,928.648 275.896,928.146 278.65,927.51 281.405,926.752 284.159,925.883 286.914,924.913 289.668,923.852 292.423,922.708 295.177,921.492 297.932,920.21 300.686,918.871 303.44,917.483 306.195,916.051 308.949,914.585 311.704,913.088 314.458,911.568 317.213,910.031 319.967,908.481 322.722,906.925 325.476,905.365 328.231,903.808 330.985,902.257 333.739,900.716 336.494,899.188 339.248,897.676 342.003,896.184 344.757,894.713 347.512,893.267 350.266,891.847 353.021,890.455 355.775,889.093 358.53,887.762 361.284,886.463 364.038,885.197 366.793,883.965 369.547,882.767 372.302,881.605 375.056,880.477 377.811,879.385 380.565,878.328 383.32,877.306 386.074,876.319 388.829,875.368 391.583,874.45 394.337,873.567 397.092,872.717 399.846,871.901 402.601,871.116 405.355,870.364 408.11,869.642 410.864,868.951 413.619,868.29 416.373,867.658 419.128,867.054 421.882,866.477 424.636,865.927 427.391,865.402 430.145,864.903 432.9,864.428 435.654,863.977 438.409,863.548 441.163,863.141 443.918,862.755 446.672,862.389 449.427,862.043 452.181,861.716 454.936,861.408 457.69,861.116 460.444,860.841 463.199,860.583 465.953,860.339 468.708,860.111 471.462,859.896 474.217,859.695 476.971,859.507 479.726,859.33 482.48,859.166 485.235,859.012 487.989,858.869 490.743,858.736 493.498,858.612 496.252,858.497 499.007,858.39 501.761,858.291 504.516,858.2 507.27,858.115 510.025,858.037 512.779,857.965 515.534,857.898 518.288,857.837 521.042,857.781 523.797,857.729 526.551,857.681 529.306,857.637 532.06,857.597 534.815,857.559 537.569,857.524 540.324,857.491 543.078,857.461 545.833,857.432 548.587,857.405 551.341,857.379 554.096,857.355 556.85,857.33 559.605,857.307 562.359,857.284 565.114,857.261 567.868,857.238 570.623,857.214 573.377,857.19 576.132,857.166 578.886,857.14 581.641,857.113 584.395,857.086 587.149,857.057 589.904,857.026 592.658,856.994 595.413,856.96 598.167,856.924 600.922,856.886 603.676,856.847 606.431,856.805 609.185,856.76 611.94,856.714 614.694,856.664 617.448,856.613 620.203,856.558 622.957,856.501 625.712,856.442 628.466,856.379 631.221,856.314 633.975,856.245 636.73,856.174 639.484,856.1 642.239,856.023 644.993,855.942 647.747,855.859 650.502,855.773 653.256,855.683 656.011,855.59 658.765,855.494 661.52,855.395 664.274,855.293 667.029,855.187 669.783,855.079 672.538,854.967 675.292,854.852 678.046,854.733 680.801,854.612 683.555,854.487 686.31,854.36 689.064,854.229 691.819,854.095 694.573,853.957 697.328,853.817 700.082,853.674 702.837,853.528 705.591,853.378 708.345,853.226 711.1,853.07 713.854,852.912 716.609,852.751 719.363,852.586 722.118,852.419 724.872,852.249 727.627,852.077 730.381,851.901 733.136,851.723 735.89,851.542 738.645,851.359 741.399,851.172 744.153,850.984 746.908,850.792 749.662,850.598 752.417,850.402 755.171,850.203 757.926,850.002 760.68,849.798 763.435,849.592 766.189,849.384 768.944,849.174 771.698,848.961 774.452,848.746 777.207,848.529 779.961,848.31 782.716,848.089 785.47,847.865 788.225,847.64 790.979,847.413 793.734,847.184 796.488,846.953 799.243,846.72 801.997,846.486 804.751,846.249 807.506,846.011 810.26,845.772 813.015,845.53 815.769,845.287 818.524,845.043 821.278,844.797 824.033,844.55 826.787,844.301 829.542,844.05 832.296,843.799 835.05,843.546 837.805,843.291 840.559,843.036 843.314,842.779 846.068,842.521 848.823,842.262 851.577,842.002 854.332,841.74 857.086,841.478 859.841,841.215 862.595,840.95 865.349,840.685 868.104,840.419 870.858,840.151 873.613,839.884 876.367,839.615 879.122,839.345 881.876,839.075 884.631,838.804 887.385,838.532 890.14,838.26 892.894,837.986 895.649,837.713 898.403,837.439 901.157,837.164 903.912,836.888 906.666,836.613 909.421,836.337 912.175,836.06 914.93,835.783 917.684,835.505 920.439,835.227 923.193,834.949 925.948,834.671 928.702,834.392 931.456,834.113 934.211,833.834 936.965,833.554 939.72,833.275 942.474,832.995 945.229,832.715 947.983,832.435 950.738,832.155 953.492,831.875 956.247,831.595 959.001,831.314 961.755,831.034 964.51,830.754 967.264,830.474 970.019,830.194 972.773,829.914 975.528,829.634 978.282,829.354 981.037,829.074 983.791,828.795 986.546,828.515 989.3,828.236 992.054,827.957 994.809,827.679 997.563,827.4 1000.32,827.122 1003.07,826.844 1005.83,826.566 1008.58,826.289 1011.34,826.012 1014.09,825.735 1016.84,825.459 1019.6,825.183 1022.35,824.908 1025.11,824.633 1027.86,824.358 1030.62,824.084 1033.37,823.81 1036.13,823.536 1038.88,823.264 1041.63,822.991 1044.39,822.719 1047.14,822.448 1049.9,822.177 1052.65,821.906 1055.41,821.637 1058.16,821.367 1060.92,821.099 1063.67,820.83 1066.42,820.563 1069.18,820.296 1071.93,820.029 1074.69,819.764 1077.44,819.499 1080.2,819.234 1082.95,818.97 1085.71,818.707 1088.46,818.444 1091.21,818.182 1093.97,817.921 1096.72,817.661 1099.48,817.401 1102.23,817.142 1104.99,816.883 1107.74,816.625 1110.5,816.368 1113.25,816.112 1116.01,815.857 1118.76,815.602 1121.51,815.348 1124.27,815.094 1127.02,814.842 1129.78,814.59 1132.53,814.339 1135.29,814.089 1138.04,813.839 1140.8,813.591 1143.55,813.343 1146.3,813.096 1149.06,812.849 1151.81,812.604 1154.57,812.359 1157.32,812.115 1160.08,811.872 1162.83,811.63 1165.59,811.388 1168.34,811.148 1171.09,810.908 1173.85,810.669 1176.6,810.431 1179.36,810.194 1182.11,809.957 1184.87,809.722 1187.62,809.487 1190.38,809.253 1193.13,809.02 1195.88,808.788 1198.64,808.557 1201.39,808.326 1204.15,808.096 1206.9,807.868 1209.66,807.64 1212.41,807.413 1215.17,807.187 1217.92,806.961 1220.67,806.737 1223.43,806.513 1226.18,806.291 1228.94,806.069 1231.69,805.848 1234.45,805.628 1237.2,805.409 1239.96,805.19 1242.71,804.973 1245.46,804.756 1248.22,804.54 1250.97,804.326 1253.73,804.112 1256.48,803.899 1259.24,803.686 1261.99,803.475 1264.75,803.264 1267.5,803.055 1270.25,802.846 1273.01,802.638 1275.76,802.431 1278.52,802.225 1281.27,802.02 1284.03,801.815 1286.78,801.612 1289.54,801.409 1292.29,801.208 1295.04,801.007 1297.8,800.807 1300.55,800.607 1303.31,800.409 1306.06,800.212 1308.82,800.015 1311.57,799.819 1314.33,799.624 1317.08,799.43 1319.83,799.237 1322.59,799.045 1325.34,798.853 1328.1,798.662 1330.85,798.473 1333.61,798.284 1336.36,798.096 1339.12,797.908 1341.87,797.722 1344.62,797.536 1347.38,797.351 1350.13,797.167 1352.89,796.984 1355.64,796.802 1358.4,796.621 1361.15,796.44 1363.91,796.26 1366.66,796.081 1369.41,795.903 1372.17,795.726 1374.92,795.549 1377.68,795.374 1380.43,795.199 1383.19,795.025 1385.94,794.851 1388.7,794.679 1391.45,794.507 1394.21,794.336 1396.96,794.166 1399.71,793.997 1402.47,793.828 1405.22,793.66 1407.98,793.493 1410.73,793.327 1413.49,793.162 1416.24,792.997 1419,792.833 1421.75,792.67 1424.5,792.508 1427.26,792.346 1430.01,792.186 1432.77,792.026 1435.52,791.866 1438.28,791.708 1441.03,791.55 1443.79,791.393 1446.54,791.237 1449.29,791.081 1452.05,790.926 1454.8,790.772 1457.56,790.619 1460.31,790.466 1463.07,790.314 1465.82,790.163 1468.58,790.013 1471.33,789.863 1474.08,789.714 1476.84,789.566 1479.59,789.418 1482.35,789.272 1485.1,789.126 1487.86,788.98 1490.61,788.835 1493.37,788.691 1496.12,788.548 1498.87,788.405 1501.63,788.264 1504.38,788.122 1507.14,787.982 1509.89,787.842 1512.65,787.703 1515.4,787.564 1518.16,787.426 1520.91,787.289 1523.66,787.152 1526.42,787.017 1529.17,786.881 1531.93,786.747 1534.68,786.613 1537.44,786.48 1540.19,786.347 1542.95,786.215 1545.7,786.084 1548.45,785.953 1551.21,785.823 1553.96,785.694 1556.72,785.565 1559.47,785.437 1562.23,785.309 1564.98,785.182 1567.74,785.056 1570.49,784.93 1573.24,784.805 1576,784.681 1578.75,784.557 1581.51,784.434 1584.26,784.311 1587.02,784.189 1589.77,784.068 1592.53,783.947 1595.28,783.827 1598.03,783.707 1600.79,783.588 1603.54,783.47 1606.3,783.352 1609.05,783.235 1611.81,783.118 1614.56,783.002 1617.32,782.886 1620.07,782.771 1622.82,782.657 1625.58,782.543 1628.33,782.43 1631.09,782.317 1633.84,782.205 1636.6,782.093 1639.35,781.982 1642.11,781.871 1644.86,781.761 1647.62,781.652 1650.37,781.543 1653.12,781.434 1655.88,781.326 1658.63,781.219 1661.39,781.112 1664.14,781.006 1666.9,780.9 1669.65,780.795 1672.41,780.69 1675.16,780.586 1677.91,780.482 1680.67,780.379 1683.42,780.276 1686.18,780.174 1688.93,780.072 1691.69,779.971 1694.44,779.871 1697.2,779.77 1699.95,779.671 1702.7,779.571 1705.46,779.473 1708.21,779.374 1710.97,779.277 1713.72,779.179 1716.48,779.083 1719.23,778.986 1721.99,778.89 1724.74,778.795 1727.49,778.7 1730.25,778.606 1733,778.512 1735.76,778.418 1738.51,778.325 1741.27,778.232 1744.02,778.14 1746.78,778.048 1749.53,777.957 1752.28,777.866 1755.04,777.776 1757.79,777.686 1760.55,777.597 1763.3,777.507 1766.06,777.419 1768.81,777.331 1771.57,777.243 1774.32,777.156 1777.07,777.069 1779.83,776.982 1782.58,776.896 1785.34,776.81 1788.09,776.725 1790.85,776.64 1793.6,776.556 1796.36,776.472 1799.11,776.388 1801.86,776.305 1804.62,776.222 1807.37,776.14 1810.13,776.058 1812.88,775.977 1815.64,775.895 1818.39,775.815 1821.15,775.734 1823.9,775.654 1826.65,775.575 1829.41,775.495 1832.16,775.417 1834.92,775.338 1837.67,775.26 1840.43,775.182 1843.18,775.105 1845.94,775.028 1848.69,774.952 1851.44,774.875 1854.2,774.8 1856.95,774.724 1859.71,774.649 1862.46,774.574 1865.22,774.5 1867.97,774.426 1870.73,774.352 1873.48,774.279 1876.23,774.206 1878.99,774.133 1881.74,774.061 1884.5,773.989 1887.25,773.918 1890.01,773.846 1892.76,773.775 1895.52,773.705 1898.27,773.635 1901.03,773.565 1903.78,773.495 1906.53,773.426 1909.29,773.357 1912.04,773.289 1914.8,773.221 1917.55,773.153 1920.31,773.085 1923.06,773.018 1925.82,772.951 1928.57,772.884 1931.32,772.818 1934.08,772.752 1936.83,772.687 1939.59,772.621 1942.34,772.556 1945.1,772.492 1947.85,772.427 1950.61,772.363 1953.36,772.299 1956.11,772.236 1958.87,772.173 1961.62,772.11 1964.38,772.047 1967.13,771.985 1969.89,771.923 1972.64,771.861 1975.4,771.8 1978.15,771.739 1980.9,771.678 1983.66,771.617 1986.41,771.557 1989.17,771.497 1991.92,771.437 1994.68,771.378 1997.43,771.319 2000.19,771.26 2002.94,771.201 2005.69,771.143 2008.45,771.085 2011.2,771.027 2013.96,770.97 2016.71,770.913 2019.47,770.856 2022.22,770.799 2024.98,770.743 2027.73,770.686 2030.48,770.631 2033.24,770.575 2035.99,770.52 2038.75,770.464 2041.5,770.41 2044.26,770.355 2047.01,770.301 2049.77,770.247 2052.52,770.193 2055.27,770.139 2058.03,770.086 2060.78,770.033 2063.54,769.98 2066.29,769.927 2069.05,769.875 2071.8,769.823 2074.56,769.771 2077.31,769.719 2080.06,769.668 2082.82,769.617 2085.57,769.566 2088.33,769.515 2091.08,769.465 2093.84,769.415 2096.59,769.365 2099.35,769.315 2102.1,769.265 2104.85,769.216 2107.61,769.167 2110.36,769.118 2113.12,769.069 2115.87,769.021 2118.63,768.973 2121.38,768.925 2124.14,768.877 2126.89,768.83 2129.64,768.782 2132.4,768.735 2135.15,768.688 2137.91,768.642 2140.66,768.595 2143.42,768.549 2146.17,768.503 2148.93,768.457 2151.68,768.411 2154.44,768.366 2157.19,768.321 2159.94,768.276 2162.7,768.231 2165.45,768.187 2168.21,768.142 2170.96,768.098 2173.72,768.054 2176.47,768.01 2179.23,767.967 2181.98,767.923 2184.73,767.88 2187.49,767.837 2190.24,767.794 2193,767.752 2195.75,767.709 2198.51,767.667 2201.26,767.625 2204.02,767.583 2206.77,767.541 2209.52,767.5 2212.28,767.459 2215.03,767.417 2217.79,767.376 2220.54,767.336 2223.3,767.295 2226.05,767.255 2228.81,767.215 2231.56,767.174 2234.31,767.135 2237.07,767.095 2239.82,767.055 2242.58,767.016 2245.33,766.977 2248.09,766.938 2250.84,766.899 2253.6,766.861 2256.35,766.822 2259.1,766.784 2261.86,766.746 2264.61,766.708 2267.37,766.67 2270.12,766.632 2272.88,766.595 2275.63,766.557 2278.39,766.52 2281.14,766.483 2283.89,766.447 2286.65,766.41 2289.4,766.373 2292.16,766.337 2294.91,766.301 2297.67,766.265 2300.42,766.229 2303.18,766.193 2305.93,766.158 2308.68,766.122 2311.44,766.087 2314.19,766.052 2316.95,766.017 2319.7,765.982 2322.46,765.948 2325.21,765.913 2327.97,765.879 2330.72,765.845 2333.47,765.811 2336.23,765.777 2338.98,765.743 2341.74,765.709 2344.49,765.676 2347.25,765.643 2350,765.609 2352.76,765.576 "/>
<path clip-path="url(#clip720)" d="M1969.85 1377.32 L2279.3 1377.32 L2279.3 1169.96 L1969.85 1169.96  Z" fill="#ffffff" fill-rule="evenodd" fill-opacity="1"/>
<polyline clip-path="url(#clip720)" style="stroke:#000000; stroke-linecap:round; stroke-linejoin:round; stroke-width:4; stroke-opacity:1; fill:none" points="1969.85,1377.32 2279.3,1377.32 2279.3,1169.96 1969.85,1169.96 1969.85,1377.32 "/>
<polyline clip-path="url(#clip720)" style="stroke:#009af9; stroke-linecap:round; stroke-linejoin:round; stroke-width:12; stroke-opacity:1; fill:none" points="1994.33,1221.8 2141.24,1221.8 "/>
<path clip-path="url(#clip720)" d="M2165.72 1228.84 L2165.72 1213.15 L2169.98 1213.15 L2169.98 1228.68 Q2169.98 1232.36 2171.42 1234.21 Q2172.85 1236.04 2175.72 1236.04 Q2179.17 1236.04 2181.16 1233.84 Q2183.18 1231.64 2183.18 1227.85 L2183.18 1213.15 L2187.44 1213.15 L2187.44 1239.08 L2183.18 1239.08 L2183.18 1235.09 Q2181.63 1237.45 2179.57 1238.61 Q2177.53 1239.75 2174.82 1239.75 Q2170.35 1239.75 2168.04 1236.97 Q2165.72 1234.19 2165.72 1228.84 M2176.44 1212.52 L2176.44 1212.52 Z" fill="#000000" fill-rule="nonzero" fill-opacity="1" /><path clip-path="url(#clip720)" d="M2195.82 1203.06 L2205.63 1203.06 L2205.63 1206.37 L2200.07 1206.37 L2200.07 1242.02 L2205.63 1242.02 L2205.63 1245.33 L2195.82 1245.33 L2195.82 1203.06 Z" fill="#000000" fill-rule="nonzero" fill-opacity="1" /><path clip-path="url(#clip720)" d="M2216.12 1235.14 L2223.76 1235.14 L2223.76 1208.77 L2215.44 1210.44 L2215.44 1206.18 L2223.71 1204.52 L2228.38 1204.52 L2228.38 1235.14 L2236.02 1235.14 L2236.02 1239.08 L2216.12 1239.08 L2216.12 1235.14 Z" fill="#000000" fill-rule="nonzero" fill-opacity="1" /><path clip-path="url(#clip720)" d="M2254.82 1203.06 L2254.82 1245.33 L2245 1245.33 L2245 1242.02 L2250.54 1242.02 L2250.54 1206.37 L2245 1206.37 L2245 1203.06 L2254.82 1203.06 Z" fill="#000000" fill-rule="nonzero" fill-opacity="1" /><polyline clip-path="url(#clip720)" style="stroke:#e26f46; stroke-linecap:round; stroke-linejoin:round; stroke-width:12; stroke-opacity:1; fill:none" points="1994.33,1273.64 2141.24,1273.64 "/>
<path clip-path="url(#clip720)" d="M2165.72 1280.68 L2165.72 1264.99 L2169.98 1264.99 L2169.98 1280.52 Q2169.98 1284.2 2171.42 1286.05 Q2172.85 1287.88 2175.72 1287.88 Q2179.17 1287.88 2181.16 1285.68 Q2183.18 1283.48 2183.18 1279.69 L2183.18 1264.99 L2187.44 1264.99 L2187.44 1290.92 L2183.18 1290.92 L2183.18 1286.93 Q2181.63 1289.29 2179.57 1290.45 Q2177.53 1291.59 2174.82 1291.59 Q2170.35 1291.59 2168.04 1288.81 Q2165.72 1286.03 2165.72 1280.68 M2176.44 1264.36 L2176.44 1264.36 Z" fill="#000000" fill-rule="nonzero" fill-opacity="1" /><path clip-path="url(#clip720)" d="M2195.82 1254.9 L2205.63 1254.9 L2205.63 1258.21 L2200.07 1258.21 L2200.07 1293.86 L2205.63 1293.86 L2205.63 1297.17 L2195.82 1297.17 L2195.82 1254.9 Z" fill="#000000" fill-rule="nonzero" fill-opacity="1" /><path clip-path="url(#clip720)" d="M2219.33 1286.98 L2235.65 1286.98 L2235.65 1290.92 L2213.71 1290.92 L2213.71 1286.98 Q2216.37 1284.23 2220.95 1279.6 Q2225.56 1274.94 2226.74 1273.6 Q2228.99 1271.08 2229.87 1269.34 Q2230.77 1267.58 2230.77 1265.89 Q2230.77 1263.14 2228.82 1261.4 Q2226.9 1259.67 2223.8 1259.67 Q2221.6 1259.67 2219.15 1260.43 Q2216.72 1261.19 2213.94 1262.74 L2213.94 1258.02 Q2216.76 1256.89 2219.22 1256.31 Q2221.67 1255.73 2223.71 1255.73 Q2229.08 1255.73 2232.27 1258.42 Q2235.47 1261.1 2235.47 1265.59 Q2235.47 1267.72 2234.66 1269.64 Q2233.87 1271.54 2231.76 1274.13 Q2231.19 1274.8 2228.08 1278.02 Q2224.98 1281.22 2219.33 1286.98 Z" fill="#000000" fill-rule="nonzero" fill-opacity="1" /><path clip-path="url(#clip720)" d="M2254.82 1254.9 L2254.82 1297.17 L2245 1297.17 L2245 1293.86 L2250.54 1293.86 L2250.54 1258.21 L2245 1258.21 L2245 1254.9 L2254.82 1254.9 Z" fill="#000000" fill-rule="nonzero" fill-opacity="1" /><polyline clip-path="url(#clip720)" style="stroke:#3da44d; stroke-linecap:round; stroke-linejoin:round; stroke-width:12; stroke-opacity:1; fill:none" points="1994.33,1325.48 2141.24,1325.48 "/>
<path clip-path="url(#clip720)" d="M2165.72 1332.52 L2165.72 1316.83 L2169.98 1316.83 L2169.98 1332.36 Q2169.98 1336.04 2171.42 1337.89 Q2172.85 1339.72 2175.72 1339.72 Q2179.17 1339.72 2181.16 1337.52 Q2183.18 1335.32 2183.18 1331.53 L2183.18 1316.83 L2187.44 1316.83 L2187.44 1342.76 L2183.18 1342.76 L2183.18 1338.77 Q2181.63 1341.13 2179.57 1342.29 Q2177.53 1343.43 2174.82 1343.43 Q2170.35 1343.43 2168.04 1340.65 Q2165.72 1337.87 2165.72 1332.52 M2176.44 1316.2 L2176.44 1316.2 Z" fill="#000000" fill-rule="nonzero" fill-opacity="1" /><path clip-path="url(#clip720)" d="M2206.44 1306.78 Q2203.34 1312.11 2201.83 1317.32 Q2200.33 1322.52 2200.33 1327.87 Q2200.33 1333.22 2201.83 1338.47 Q2203.36 1343.7 2206.44 1349.01 L2202.74 1349.01 Q2199.26 1343.57 2197.53 1338.31 Q2195.82 1333.06 2195.82 1327.87 Q2195.82 1322.71 2197.53 1317.48 Q2199.24 1312.25 2202.74 1306.78 L2206.44 1306.78 Z" fill="#000000" fill-rule="nonzero" fill-opacity="1" /><path clip-path="url(#clip720)" d="M2218.92 1309.47 L2218.92 1316.83 L2227.69 1316.83 L2227.69 1320.14 L2218.92 1320.14 L2218.92 1334.21 Q2218.92 1337.38 2219.77 1338.29 Q2220.65 1339.19 2223.32 1339.19 L2227.69 1339.19 L2227.69 1342.76 L2223.32 1342.76 Q2218.38 1342.76 2216.51 1340.93 Q2214.63 1339.07 2214.63 1334.21 L2214.63 1320.14 L2211.51 1320.14 L2211.51 1316.83 L2214.63 1316.83 L2214.63 1309.47 L2218.92 1309.47 Z" fill="#000000" fill-rule="nonzero" fill-opacity="1" /><path clip-path="url(#clip720)" d="M2232.62 1306.78 L2236.32 1306.78 Q2239.8 1312.25 2241.51 1317.48 Q2243.25 1322.71 2243.25 1327.87 Q2243.25 1333.06 2241.51 1338.31 Q2239.8 1343.57 2236.32 1349.01 L2232.62 1349.01 Q2235.7 1343.7 2237.2 1338.47 Q2238.73 1333.22 2238.73 1327.87 Q2238.73 1322.52 2237.2 1317.32 Q2235.7 1312.11 2232.62 1306.78 Z" fill="#000000" fill-rule="nonzero" fill-opacity="1" /></svg>
