<?xml version="1.0" encoding="utf-8"?>
<svg xmlns="http://www.w3.org/2000/svg" xmlns:xlink="http://www.w3.org/1999/xlink" width="600" height="400" viewBox="0 0 2400 1600">
<defs>
  <clipPath id="clip710">
    <rect x="0" y="0" width="2400" height="1600"/>
  </clipPath>
</defs>
<path clip-path="url(#clip710)" d="M0 1600 L2400 1600 L2400 0 L0 0  Z" fill="#ffffff" fill-rule="evenodd" fill-opacity="1"/>
<defs>
  <clipPath id="clip711">
    <rect x="480" y="0" width="1681" height="1600"/>
  </clipPath>
</defs>
<path clip-path="url(#clip710)" d="M149.191 1423.18 L2352.76 1423.18 L2352.76 47.2441 L149.191 47.2441  Z" fill="#ffffff" fill-rule="evenodd" fill-opacity="1"/>
<defs>
  <clipPath id="clip712">
    <rect x="149" y="47" width="2205" height="1377"/>
  </clipPath>
</defs>
<polyline clip-path="url(#clip712)" style="stroke:#000000; stroke-linecap:round; stroke-linejoin:round; stroke-width:2; stroke-opacity:0.1; fill:none" points="149.191,1423.18 149.191,47.2441 "/>
<polyline clip-path="url(#clip712)" style="stroke:#000000; stroke-linecap:round; stroke-linejoin:round; stroke-width:2; stroke-opacity:0.1; fill:none" points="700.082,1423.18 700.082,47.2441 "/>
<polyline clip-path="url(#clip712)" style="stroke:#000000; stroke-linecap:round; stroke-linejoin:round; stroke-width:2; stroke-opacity:0.1; fill:none" points="1250.97,1423.18 1250.97,47.2441 "/>
<polyline clip-path="url(#clip712)" style="stroke:#000000; stroke-linecap:round; stroke-linejoin:round; stroke-width:2; stroke-opacity:0.1; fill:none" points="1801.86,1423.18 1801.86,47.2441 "/>
<polyline clip-path="url(#clip712)" style="stroke:#000000; stroke-linecap:round; stroke-linejoin:round; stroke-width:2; stroke-opacity:0.1; fill:none" points="2352.76,1423.18 2352.76,47.2441 "/>
<polyline clip-path="url(#clip712)" style="stroke:#000000; stroke-linecap:round; stroke-linejoin:round; stroke-width:2; stroke-opacity:0.1; fill:none" points="149.191,1423.18 2352.76,1423.18 "/>
<polyline clip-path="url(#clip712)" style="stroke:#000000; stroke-linecap:round; stroke-linejoin:round; stroke-width:2; stroke-opacity:0.1; fill:none" points="149.191,1193.86 2352.76,1193.86 "/>
<polyline clip-path="url(#clip712)" style="stroke:#000000; stroke-linecap:round; stroke-linejoin:round; stroke-width:2; stroke-opacity:0.1; fill:none" points="149.191,964.535 2352.76,964.535 "/>
<polyline clip-path="url(#clip712)" style="stroke:#000000; stroke-linecap:round; stroke-linejoin:round; stroke-width:2; stroke-opacity:0.1; fill:none" points="149.191,735.212 2352.76,735.212 "/>
<polyline clip-path="url(#clip712)" style="stroke:#000000; stroke-linecap:round; stroke-linejoin:round; stroke-width:2; stroke-opacity:0.1; fill:none" points="149.191,505.889 2352.76,505.889 "/>
<polyline clip-path="url(#clip712)" style="stroke:#000000; stroke-linecap:round; stroke-linejoin:round; stroke-width:2; stroke-opacity:0.1; fill:none" points="149.191,276.567 2352.76,276.567 "/>
<polyline clip-path="url(#clip712)" style="stroke:#000000; stroke-linecap:round; stroke-linejoin:round; stroke-width:2; stroke-opacity:0.1; fill:none" points="149.191,47.2441 2352.76,47.2441 "/>
<polyline clip-path="url(#clip710)" style="stroke:#000000; stroke-linecap:round; stroke-linejoin:round; stroke-width:4; stroke-opacity:1; fill:none" points="149.191,1423.18 2352.76,1423.18 "/>
<polyline clip-path="url(#clip710)" style="stroke:#000000; stroke-linecap:round; stroke-linejoin:round; stroke-width:4; stroke-opacity:1; fill:none" points="149.191,1423.18 149.191,1404.28 "/>
<polyline clip-path="url(#clip710)" style="stroke:#000000; stroke-linecap:round; stroke-linejoin:round; stroke-width:4; stroke-opacity:1; fill:none" points="700.082,1423.18 700.082,1404.28 "/>
<polyline clip-path="url(#clip710)" style="stroke:#000000; stroke-linecap:round; stroke-linejoin:round; stroke-width:4; stroke-opacity:1; fill:none" points="1250.97,1423.18 1250.97,1404.28 "/>
<polyline clip-path="url(#clip710)" style="stroke:#000000; stroke-linecap:round; stroke-linejoin:round; stroke-width:4; stroke-opacity:1; fill:none" points="1801.86,1423.18 1801.86,1404.28 "/>
<polyline clip-path="url(#clip710)" style="stroke:#000000; stroke-linecap:round; stroke-linejoin:round; stroke-width:4; stroke-opacity:1; fill:none" points="2352.76,1423.18 2352.76,1404.28 "/>
<path clip-path="url(#clip710)" d="M149.191 1454.1 Q145.58 1454.1 143.751 1457.66 Q141.946 1461.2 141.946 1468.33 Q141.946 1475.44 143.751 1479.01 Q145.58 1482.55 149.191 1482.55 Q152.825 1482.55 154.631 1479.01 Q156.459 1475.44 156.459 1468.33 Q156.459 1461.2 154.631 1457.66 Q152.825 1454.1 149.191 1454.1 M149.191 1450.39 Q155.001 1450.39 158.057 1455 Q161.135 1459.58 161.135 1468.33 Q161.135 1477.06 158.057 1481.67 Q155.001 1486.25 149.191 1486.25 Q143.381 1486.25 140.302 1481.67 Q137.246 1477.06 137.246 1468.33 Q137.246 1459.58 140.302 1455 Q143.381 1450.39 149.191 1450.39 Z" fill="#000000" fill-rule="nonzero" fill-opacity="1" /><path clip-path="url(#clip710)" d="M694.735 1481.64 L711.054 1481.64 L711.054 1485.58 L689.11 1485.58 L689.11 1481.64 Q691.772 1478.89 696.355 1474.26 Q700.962 1469.61 702.142 1468.27 Q704.388 1465.74 705.267 1464.01 Q706.17 1462.25 706.17 1460.56 Q706.17 1457.8 704.226 1456.07 Q702.304 1454.33 699.203 1454.33 Q697.003 1454.33 694.55 1455.09 Q692.119 1455.86 689.341 1457.41 L689.341 1452.69 Q692.166 1451.55 694.619 1450.97 Q697.073 1450.39 699.11 1450.39 Q704.48 1450.39 707.675 1453.08 Q710.869 1455.77 710.869 1460.26 Q710.869 1462.39 710.059 1464.31 Q709.272 1466.2 707.165 1468.8 Q706.587 1469.47 703.485 1472.69 Q700.383 1475.88 694.735 1481.64 Z" fill="#000000" fill-rule="nonzero" fill-opacity="1" /><path clip-path="url(#clip710)" d="M1253.98 1455.09 L1242.18 1473.54 L1253.98 1473.54 L1253.98 1455.09 M1252.76 1451.02 L1258.64 1451.02 L1258.64 1473.54 L1263.57 1473.54 L1263.57 1477.43 L1258.64 1477.43 L1258.64 1485.58 L1253.98 1485.58 L1253.98 1477.43 L1238.38 1477.43 L1238.38 1472.92 L1252.76 1451.02 Z" fill="#000000" fill-rule="nonzero" fill-opacity="1" /><path clip-path="url(#clip710)" d="M1802.27 1466.44 Q1799.12 1466.44 1797.27 1468.59 Q1795.44 1470.74 1795.44 1474.49 Q1795.44 1478.22 1797.27 1480.39 Q1799.12 1482.55 1802.27 1482.55 Q1805.42 1482.55 1807.25 1480.39 Q1809.1 1478.22 1809.1 1474.49 Q1809.1 1470.74 1807.25 1468.59 Q1805.42 1466.44 1802.27 1466.44 M1811.55 1451.78 L1811.55 1456.04 Q1809.79 1455.21 1807.99 1454.77 Q1806.2 1454.33 1804.45 1454.33 Q1799.82 1454.33 1797.36 1457.45 Q1794.93 1460.58 1794.58 1466.9 Q1795.95 1464.89 1798.01 1463.82 Q1800.07 1462.73 1802.55 1462.73 Q1807.76 1462.73 1810.77 1465.9 Q1813.8 1469.05 1813.8 1474.49 Q1813.8 1479.82 1810.65 1483.03 Q1807.5 1486.25 1802.27 1486.25 Q1796.27 1486.25 1793.1 1481.67 Q1789.93 1477.06 1789.93 1468.33 Q1789.93 1460.14 1793.82 1455.28 Q1797.71 1450.39 1804.26 1450.39 Q1806.02 1450.39 1807.8 1450.74 Q1809.61 1451.09 1811.55 1451.78 Z" fill="#000000" fill-rule="nonzero" fill-opacity="1" /><path clip-path="url(#clip710)" d="M2352.76 1469.17 Q2349.42 1469.17 2347.5 1470.95 Q2345.6 1472.73 2345.6 1475.86 Q2345.6 1478.98 2347.5 1480.77 Q2349.42 1482.55 2352.76 1482.55 Q2356.09 1482.55 2358.01 1480.77 Q2359.93 1478.96 2359.93 1475.86 Q2359.93 1472.73 2358.01 1470.95 Q2356.11 1469.17 2352.76 1469.17 M2348.08 1467.18 Q2345.07 1466.44 2343.38 1464.38 Q2341.71 1462.32 2341.71 1459.35 Q2341.71 1455.21 2344.65 1452.8 Q2347.62 1450.39 2352.76 1450.39 Q2357.92 1450.39 2360.86 1452.8 Q2363.8 1455.21 2363.8 1459.35 Q2363.8 1462.32 2362.11 1464.38 Q2360.44 1466.44 2357.45 1467.18 Q2360.83 1467.96 2362.71 1470.26 Q2364.61 1472.55 2364.61 1475.86 Q2364.61 1480.88 2361.53 1483.57 Q2358.47 1486.25 2352.76 1486.25 Q2347.04 1486.25 2343.96 1483.57 Q2340.9 1480.88 2340.9 1475.86 Q2340.9 1472.55 2342.8 1470.26 Q2344.7 1467.96 2348.08 1467.18 M2346.37 1459.79 Q2346.37 1462.48 2348.03 1463.98 Q2349.72 1465.49 2352.76 1465.49 Q2355.77 1465.49 2357.45 1463.98 Q2359.17 1462.48 2359.17 1459.79 Q2359.17 1457.11 2357.45 1455.6 Q2355.77 1454.1 2352.76 1454.1 Q2349.72 1454.1 2348.03 1455.6 Q2346.37 1457.11 2346.37 1459.79 Z" fill="#000000" fill-rule="nonzero" fill-opacity="1" /><path clip-path="url(#clip710)" d="M1250.03 1522.27 L1250.03 1532.4 L1262.1 1532.4 L1262.1 1536.95 L1250.03 1536.95 L1250.03 1556.3 Q1250.03 1560.66 1251.21 1561.9 Q1252.42 1563.14 1256.08 1563.14 L1262.1 1563.14 L1262.1 1568.04 L1256.08 1568.04 Q1249.3 1568.04 1246.72 1565.53 Q1244.15 1562.98 1244.15 1556.3 L1244.15 1536.95 L1239.85 1536.95 L1239.85 1532.4 L1244.15 1532.4 L1244.15 1522.27 L1250.03 1522.27 Z" fill="#000000" fill-rule="nonzero" fill-opacity="1" /><polyline clip-path="url(#clip710)" style="stroke:#000000; stroke-linecap:round; stroke-linejoin:round; stroke-width:4; stroke-opacity:1; fill:none" points="149.191,1423.18 149.191,47.2441 "/>
<polyline clip-path="url(#clip710)" style="stroke:#000000; stroke-linecap:round; stroke-linejoin:round; stroke-width:4; stroke-opacity:1; fill:none" points="149.191,1423.18 168.089,1423.18 "/>
<polyline clip-path="url(#clip710)" style="stroke:#000000; stroke-linecap:round; stroke-linejoin:round; stroke-width:4; stroke-opacity:1; fill:none" points="149.191,1193.86 168.089,1193.86 "/>
<polyline clip-path="url(#clip710)" style="stroke:#000000; stroke-linecap:round; stroke-linejoin:round; stroke-width:4; stroke-opacity:1; fill:none" points="149.191,964.535 168.089,964.535 "/>
<polyline clip-path="url(#clip710)" style="stroke:#000000; stroke-linecap:round; stroke-linejoin:round; stroke-width:4; stroke-opacity:1; fill:none" points="149.191,735.212 168.089,735.212 "/>
<polyline clip-path="url(#clip710)" style="stroke:#000000; stroke-linecap:round; stroke-linejoin:round; stroke-width:4; stroke-opacity:1; fill:none" points="149.191,505.889 168.089,505.889 "/>
<polyline clip-path="url(#clip710)" style="stroke:#000000; stroke-linecap:round; stroke-linejoin:round; stroke-width:4; stroke-opacity:1; fill:none" points="149.191,276.567 168.089,276.567 "/>
<polyline clip-path="url(#clip710)" style="stroke:#000000; stroke-linecap:round; stroke-linejoin:round; stroke-width:4; stroke-opacity:1; fill:none" points="149.191,47.2441 168.089,47.2441 "/>
<path clip-path="url(#clip710)" d="M51.3162 1423.63 L80.992 1423.63 L80.992 1427.57 L51.3162 1427.57 L51.3162 1423.63 Z" fill="#000000" fill-rule="nonzero" fill-opacity="1" /><path clip-path="url(#clip710)" d="M101.663 1421.32 Q98.515 1421.32 96.6632 1423.47 Q94.8345 1425.62 94.8345 1429.37 Q94.8345 1433.1 96.6632 1435.27 Q98.515 1437.43 101.663 1437.43 Q104.811 1437.43 106.64 1435.27 Q108.492 1433.1 108.492 1429.37 Q108.492 1425.62 106.64 1423.47 Q104.811 1421.32 101.663 1421.32 M110.946 1406.66 L110.946 1410.92 Q109.186 1410.09 107.381 1409.65 Q105.598 1409.21 103.839 1409.21 Q99.2095 1409.21 96.7558 1412.33 Q94.3252 1415.46 93.978 1421.78 Q95.3437 1419.77 97.4039 1418.7 Q99.4641 1417.61 101.941 1417.61 Q107.149 1417.61 110.158 1420.78 Q113.191 1423.93 113.191 1429.37 Q113.191 1434.7 110.043 1437.91 Q106.895 1441.13 101.663 1441.13 Q95.6678 1441.13 92.4965 1436.55 Q89.3253 1431.94 89.3253 1423.21 Q89.3253 1415.02 93.2141 1410.16 Q97.103 1405.27 103.654 1405.27 Q105.413 1405.27 107.196 1405.62 Q109.001 1405.97 110.946 1406.66 Z" fill="#000000" fill-rule="nonzero" fill-opacity="1" /><path clip-path="url(#clip710)" d="M50.9921 1194.31 L80.6679 1194.31 L80.6679 1198.24 L50.9921 1198.24 L50.9921 1194.31 Z" fill="#000000" fill-rule="nonzero" fill-opacity="1" /><path clip-path="url(#clip710)" d="M103.608 1180.65 L91.8021 1199.1 L103.608 1199.1 L103.608 1180.65 M102.381 1176.58 L108.26 1176.58 L108.26 1199.1 L113.191 1199.1 L113.191 1202.99 L108.26 1202.99 L108.26 1211.14 L103.608 1211.14 L103.608 1202.99 L88.0058 1202.99 L88.0058 1198.48 L102.381 1176.58 Z" fill="#000000" fill-rule="nonzero" fill-opacity="1" /><path clip-path="url(#clip710)" d="M53.0754 964.986 L82.7512 964.986 L82.7512 968.921 L53.0754 968.921 L53.0754 964.986 Z" fill="#000000" fill-rule="nonzero" fill-opacity="1" /><path clip-path="url(#clip710)" d="M96.8715 977.879 L113.191 977.879 L113.191 981.815 L91.2465 981.815 L91.2465 977.879 Q93.9086 975.125 98.4919 970.495 Q103.098 965.842 104.279 964.5 Q106.524 961.977 107.404 960.241 Q108.307 958.481 108.307 956.792 Q108.307 954.037 106.362 952.301 Q104.441 950.565 101.339 950.565 Q99.14 950.565 96.6863 951.329 Q94.2558 952.093 91.478 953.643 L91.478 948.921 Q94.3021 947.787 96.7558 947.208 Q99.2095 946.63 101.246 946.63 Q106.617 946.63 109.811 949.315 Q113.006 952 113.006 956.491 Q113.006 958.62 112.196 960.542 Q111.408 962.44 109.302 965.032 Q108.723 965.704 105.621 968.921 Q102.52 972.116 96.8715 977.879 Z" fill="#000000" fill-rule="nonzero" fill-opacity="1" /><path clip-path="url(#clip710)" d="M101.246 721.011 Q97.6354 721.011 95.8067 724.575 Q94.0012 728.117 94.0012 735.247 Q94.0012 742.353 95.8067 745.918 Q97.6354 749.46 101.246 749.46 Q104.881 749.46 106.686 745.918 Q108.515 742.353 108.515 735.247 Q108.515 728.117 106.686 724.575 Q104.881 721.011 101.246 721.011 M101.246 717.307 Q107.057 717.307 110.112 721.913 Q113.191 726.497 113.191 735.247 Q113.191 743.973 110.112 748.58 Q107.057 753.163 101.246 753.163 Q95.4363 753.163 92.3576 748.58 Q89.3021 743.973 89.3021 735.247 Q89.3021 726.497 92.3576 721.913 Q95.4363 717.307 101.246 717.307 Z" fill="#000000" fill-rule="nonzero" fill-opacity="1" /><path clip-path="url(#clip710)" d="M96.8715 519.234 L113.191 519.234 L113.191 523.169 L91.2465 523.169 L91.2465 519.234 Q93.9086 516.48 98.4919 511.85 Q103.098 507.197 104.279 505.855 Q106.524 503.331 107.404 501.595 Q108.307 499.836 108.307 498.146 Q108.307 495.392 106.362 493.656 Q104.441 491.92 101.339 491.92 Q99.14 491.92 96.6863 492.683 Q94.2558 493.447 91.478 494.998 L91.478 490.276 Q94.3021 489.142 96.7558 488.563 Q99.2095 487.984 101.246 487.984 Q106.617 487.984 109.811 490.67 Q113.006 493.355 113.006 497.845 Q113.006 499.975 112.196 501.896 Q111.408 503.794 109.302 506.387 Q108.723 507.058 105.621 510.276 Q102.52 513.47 96.8715 519.234 Z" fill="#000000" fill-rule="nonzero" fill-opacity="1" /><path clip-path="url(#clip710)" d="M103.608 263.361 L91.8021 281.81 L103.608 281.81 L103.608 263.361 M102.381 259.287 L108.26 259.287 L108.26 281.81 L113.191 281.81 L113.191 285.699 L108.26 285.699 L108.26 293.847 L103.608 293.847 L103.608 285.699 L88.0058 285.699 L88.0058 281.185 L102.381 259.287 Z" fill="#000000" fill-rule="nonzero" fill-opacity="1" /><path clip-path="url(#clip710)" d="M101.663 45.3807 Q98.515 45.3807 96.6632 47.5334 Q94.8345 49.6862 94.8345 53.4362 Q94.8345 57.163 96.6632 59.3389 Q98.515 61.4917 101.663 61.4917 Q104.811 61.4917 106.64 59.3389 Q108.492 57.163 108.492 53.4362 Q108.492 49.6862 106.64 47.5334 Q104.811 45.3807 101.663 45.3807 M110.946 30.728 L110.946 34.9872 Q109.186 34.1539 107.381 33.7141 Q105.598 33.2743 103.839 33.2743 Q99.2095 33.2743 96.7558 36.3992 Q94.3252 39.5242 93.978 45.8436 Q95.3437 43.8298 97.4039 42.765 Q99.4641 41.677 101.941 41.677 Q107.149 41.677 110.158 44.8483 Q113.191 47.9964 113.191 53.4362 Q113.191 58.7602 110.043 61.9778 Q106.895 65.1954 101.663 65.1954 Q95.6678 65.1954 92.4965 60.6121 Q89.3253 56.0056 89.3253 47.2788 Q89.3253 39.0844 93.2141 34.2233 Q97.103 29.3391 103.654 29.3391 Q105.413 29.3391 107.196 29.6863 Q109.001 30.0335 110.946 30.728 Z" fill="#000000" fill-rule="nonzero" fill-opacity="1" /><polyline clip-path="url(#clip712)" style="stroke:#009af9; stroke-linecap:round; stroke-linejoin:round; stroke-width:12; stroke-opacity:1; fill:none" points="149.191,1193.86 151.945,1190.45 154.7,1185.26 157.454,1180.02 160.209,1174.79 162.963,1169.55 165.718,1164.32 168.472,1159.08 171.227,1153.85 173.981,1148.62 176.735,1143.38 179.49,1138.15 182.244,1132.91 184.999,1127.68 187.753,1122.44 190.508,1117.21 193.262,1111.97 196.017,1106.74 198.771,1101.5 201.526,1096.27 204.28,1091.03 207.034,1085.8 209.789,1080.56 212.543,1075.33 215.298,1070.09 218.052,1064.86 220.807,1059.62 223.561,1054.39 226.316,1049.15 229.07,1043.92 231.825,1038.69 234.579,1033.45 237.333,1028.22 240.088,1022.99 242.842,1017.75 245.597,1012.52 248.351,1007.3 251.106,1002.08 253.86,996.862 256.615,991.654 259.369,986.455 262.124,981.267 264.878,976.091 267.632,970.93 270.387,965.786 273.141,960.662 275.896,955.559 278.65,950.48 281.405,945.427 284.159,940.402 286.914,935.407 289.668,930.443 292.423,925.512 295.177,920.615 297.932,915.754 300.686,910.929 303.44,906.143 306.195,901.395 308.949,896.687 311.704,892.018 314.458,887.391 317.213,882.804 319.967,878.259 322.722,873.756 325.476,869.294 328.231,864.873 330.985,860.494 333.739,856.156 336.494,851.859 339.248,847.604 342.003,843.388 344.757,839.214 347.512,835.079 350.266,830.984 353.021,826.928 355.775,822.911 358.53,818.933 361.284,814.992 364.038,811.088 366.793,807.221 369.547,803.39 372.302,799.595 375.056,795.835 377.811,792.109 380.565,788.417 383.32,784.759 386.074,781.133 388.829,777.541 391.583,773.98 394.337,770.45 397.092,766.951 399.846,763.483 402.601,760.044 405.355,756.635 408.11,753.255 410.864,749.903 413.619,746.58 416.373,743.283 419.128,740.014 421.882,736.772 424.636,733.555 427.391,730.365 430.145,727.2 432.9,724.06 435.654,720.944 438.409,717.852 441.163,714.784 443.918,711.74 446.672,708.719 449.427,705.72 452.181,702.744 454.936,699.79 457.69,696.858 460.444,693.948 463.199,691.058 465.953,688.19 468.708,685.342 471.462,682.514 474.217,679.707 476.971,676.919 479.726,674.151 482.48,671.402 485.235,668.672 487.989,665.96 490.743,663.268 493.498,660.594 496.252,657.937 499.007,655.299 501.761,652.678 504.516,650.075 507.27,647.489 510.025,644.921 512.779,642.369 515.534,639.834 518.288,637.316 521.042,634.813 523.797,632.328 526.551,629.858 529.306,627.404 532.06,624.966 534.815,622.544 537.569,620.137 540.324,617.745 543.078,615.369 545.833,613.008 548.587,610.661 551.341,608.33 554.096,606.013 556.85,603.711 559.605,601.423 562.359,599.15 565.114,596.89 567.868,594.645 570.623,592.414 573.377,590.196 576.132,587.993 578.886,585.803 581.641,583.626 584.395,581.464 587.149,579.314 589.904,577.178 592.658,575.055 595.413,572.945 598.167,570.848 600.922,568.764 603.676,566.693 606.431,564.634 609.185,562.588 611.94,560.555 614.694,558.535 617.448,556.527 620.203,554.531 622.957,552.547 625.712,550.576 628.466,548.618 631.221,546.671 633.975,544.736 636.73,542.814 639.484,540.903 642.239,539.004 644.993,537.117 647.747,535.242 650.502,533.378 653.256,531.527 656.011,529.686 658.765,527.858 661.52,526.04 664.274,524.235 667.029,522.44 669.783,520.657 672.538,518.886 675.292,517.125 678.046,515.376 680.801,513.638 683.555,511.911 686.31,510.195 689.064,508.49 691.819,506.796 694.573,505.112 697.328,503.44 700.082,501.779 702.837,500.128 705.591,498.488 708.345,496.859 711.1,495.24 713.854,493.632 716.609,492.035 719.363,490.448 722.118,488.872 724.872,487.306 727.627,485.75 730.381,484.205 733.136,482.67 735.89,481.145 738.645,479.631 741.399,478.127 744.153,476.633 746.908,475.149 749.662,473.676 752.417,472.212 755.171,470.759 757.926,469.315 760.68,467.882 763.435,466.458 766.189,465.045 768.944,463.641 771.698,462.247 774.452,460.863 777.207,459.489 779.961,458.125 782.716,456.77 785.47,455.425 788.225,454.09 790.979,452.764 793.734,451.448 796.488,450.142 799.243,448.845 801.997,447.557 804.751,446.279 807.506,445.011 810.26,443.752 813.015,442.502 815.769,441.262 818.524,440.031 821.278,438.809 824.033,437.596 826.787,436.393 829.542,435.199 832.296,434.014 835.05,432.838 837.805,431.672 840.559,430.514 843.314,429.365 846.068,428.226 848.823,427.095 851.577,425.973 854.332,424.861 857.086,423.757 859.841,422.662 862.595,421.575 865.349,420.498 868.104,419.429 870.858,418.369 873.613,417.318 876.367,416.275 879.122,415.241 881.876,414.215 884.631,413.198 887.385,412.189 890.14,411.189 892.894,410.198 895.649,409.215 898.403,408.24 901.157,407.273 903.912,406.315 906.666,405.365 909.421,404.423 912.175,403.49 914.93,402.564 917.684,401.647 920.439,400.738 923.193,399.837 925.948,398.944 928.702,398.059 931.456,397.181 934.211,396.312 936.965,395.45 939.72,394.597 942.474,393.751 945.229,392.913 947.983,392.083 950.738,391.26 953.492,390.445 956.247,389.638 959.001,388.838 961.755,388.046 964.51,387.262 967.264,386.485 970.019,385.715 972.773,384.953 975.528,384.198 978.282,383.45 981.037,382.71 983.791,381.976 986.546,381.25 989.3,380.532 992.054,379.82 994.809,379.115 997.563,378.418 1000.32,377.727 1003.07,377.043 1005.83,376.366 1008.58,375.696 1011.34,375.033 1014.09,374.376 1016.84,373.726 1019.6,373.083 1022.35,372.446 1025.11,371.816 1027.86,371.193 1030.62,370.575 1033.37,369.965 1036.13,369.36 1038.88,368.762 1041.63,368.17 1044.39,367.585 1047.14,367.005 1049.9,366.432 1052.65,365.865 1055.41,365.304 1058.16,364.748 1060.92,364.199 1063.67,363.656 1066.42,363.118 1069.18,362.586 1071.93,362.06 1074.69,361.54 1077.44,361.025 1080.2,360.516 1082.95,360.012 1085.71,359.514 1088.46,359.021 1091.21,358.534 1093.97,358.052 1096.72,357.575 1099.48,357.104 1102.23,356.638 1104.99,356.177 1107.74,355.721 1110.5,355.27 1113.25,354.824 1116.01,354.383 1118.76,353.946 1121.51,353.515 1124.27,353.088 1127.02,352.666 1129.78,352.249 1132.53,351.837 1135.29,351.429 1138.04,351.025 1140.8,350.626 1143.55,350.231 1146.3,349.841 1149.06,349.455 1151.81,349.073 1154.57,348.696 1157.32,348.322 1160.08,347.953 1162.83,347.588 1165.59,347.227 1168.34,346.869 1171.09,346.516 1173.85,346.166 1176.6,345.82 1179.36,345.478 1182.11,345.139 1184.87,344.804 1187.62,344.473 1190.38,344.145 1193.13,343.821 1195.88,343.499 1198.64,343.182 1201.39,342.867 1204.15,342.556 1206.9,342.247 1209.66,341.942 1212.41,341.64 1215.17,341.341 1217.92,341.045 1220.67,340.752 1223.43,340.462 1226.18,340.175 1228.94,339.89 1231.69,339.608 1234.45,339.329 1237.2,339.052 1239.96,338.778 1242.71,338.506 1245.46,338.237 1248.22,337.97 1250.97,337.706 1253.73,337.444 1256.48,337.184 1259.24,336.927 1261.99,336.671 1264.75,336.418 1267.5,336.167 1270.25,335.918 1273.01,335.671 1275.76,335.426 1278.52,335.183 1281.27,334.941 1284.03,334.702 1286.78,334.464 1289.54,334.228 1292.29,333.994 1295.04,333.762 1297.8,333.531 1300.55,333.302 1303.31,333.074 1306.06,332.848 1308.82,332.623 1311.57,332.4 1314.33,332.179 1317.08,331.958 1319.83,331.739 1322.59,331.521 1325.34,331.305 1328.1,331.09 1330.85,330.876 1333.61,330.663 1336.36,330.451 1339.12,330.241 1341.87,330.032 1344.62,329.823 1347.38,329.616 1350.13,329.409 1352.89,329.204 1355.64,328.999 1358.4,328.796 1361.15,328.593 1363.91,328.391 1366.66,328.19 1369.41,327.99 1372.17,327.791 1374.92,327.592 1377.68,327.394 1380.43,327.197 1383.19,327 1385.94,326.804 1388.7,326.609 1391.45,326.414 1394.21,326.22 1396.96,326.026 1399.71,325.833 1402.47,325.64 1405.22,325.448 1407.98,325.256 1410.73,325.065 1413.49,324.874 1416.24,324.684 1419,324.494 1421.75,324.305 1424.5,324.115 1427.26,323.926 1430.01,323.738 1432.77,323.55 1435.52,323.362 1438.28,323.174 1441.03,322.986 1443.79,322.799 1446.54,322.612 1449.29,322.426 1452.05,322.239 1454.8,322.053 1457.56,321.867 1460.31,321.681 1463.07,321.495 1465.82,321.31 1468.58,321.125 1471.33,320.939 1474.08,320.755 1476.84,320.57 1479.59,320.385 1482.35,320.201 1485.1,320.016 1487.86,319.832 1490.61,319.648 1493.37,319.464 1496.12,319.28 1498.87,319.097 1501.63,318.913 1504.38,318.729 1507.14,318.546 1509.89,318.363 1512.65,318.179 1515.4,317.996 1518.16,317.813 1520.91,317.63 1523.66,317.447 1526.42,317.264 1529.17,317.081 1531.93,316.898 1534.68,316.715 1537.44,316.533 1540.19,316.35 1542.95,316.167 1545.7,315.984 1548.45,315.802 1551.21,315.619 1553.96,315.437 1556.72,315.254 1559.47,315.071 1562.23,314.889 1564.98,314.706 1567.74,314.524 1570.49,314.341 1573.24,314.159 1576,313.976 1578.75,313.794 1581.51,313.611 1584.26,313.429 1587.02,313.246 1589.77,313.063 1592.53,312.881 1595.28,312.698 1598.03,312.516 1600.79,312.333 1603.54,312.151 1606.3,311.968 1609.05,311.785 1611.81,311.603 1614.56,311.42 1617.32,311.238 1620.07,311.055 1622.82,310.872 1625.58,310.69 1628.33,310.507 1631.09,310.325 1633.84,310.142 1636.6,309.959 1639.35,309.777 1642.11,309.594 1644.86,309.411 1647.62,309.229 1650.37,309.046 1653.12,308.863 1655.88,308.681 1658.63,308.498 1661.39,308.316 1664.14,308.133 1666.9,307.951 1669.65,307.768 1672.41,307.586 1675.16,307.403 1677.91,307.221 1680.67,307.038 1683.42,306.856 1686.18,306.673 1688.93,306.491 1691.69,306.308 1694.44,306.126 1697.2,305.943 1699.95,305.761 1702.7,305.578 1705.46,305.396 1708.21,305.213 1710.97,305.031 1713.72,304.848 1716.48,304.666 1719.23,304.483 1721.99,304.301 1724.74,304.118 1727.49,303.936 1730.25,303.753 1733,303.571 1735.76,303.388 1738.51,303.206 1741.27,303.023 1744.02,302.841 1746.78,302.658 1749.53,302.476 1752.28,302.293 1755.04,302.111 1757.79,301.928 1760.55,301.746 1763.3,301.563 1766.06,301.381 1768.81,301.198 1771.57,301.016 1774.32,300.833 1777.07,300.651 1779.83,300.468 1782.58,300.286 1785.34,300.103 1788.09,299.921 1790.85,299.738 1793.6,299.556 1796.36,299.373 1799.11,299.191 1801.86,299.008 1804.62,298.826 1807.37,298.643 1810.13,298.461 1812.88,298.278 1815.64,298.096 1818.39,297.913 1821.15,297.731 1823.9,297.548 1826.65,297.365 1829.41,297.183 1832.16,297 1834.92,296.818 1837.67,296.635 1840.43,296.453 1843.18,296.27 1845.94,296.088 1848.69,295.905 1851.44,295.723 1854.2,295.54 1856.95,295.357 1859.71,295.175 1862.46,294.992 1865.22,294.81 1867.97,294.627 1870.73,294.445 1873.48,294.262 1876.23,294.079 1878.99,293.897 1881.74,293.714 1884.5,293.532 1887.25,293.349 1890.01,293.166 1892.76,292.984 1895.52,292.801 1898.27,292.619 1901.03,292.436 1903.78,292.253 1906.53,292.071 1909.29,291.888 1912.04,291.706 1914.8,291.523 1917.55,291.34 1920.31,291.158 1923.06,290.975 1925.82,290.792 1928.57,290.61 1931.32,290.427 1934.08,290.244 1936.83,290.062 1939.59,289.879 1942.34,289.697 1945.1,289.514 1947.85,289.331 1950.61,289.149 1953.36,288.966 1956.11,288.783 1958.87,288.601 1961.62,288.418 1964.38,288.235 1967.13,288.053 1969.89,287.87 1972.64,287.688 1975.4,287.505 1978.15,287.322 1980.9,287.14 1983.66,286.957 1986.41,286.774 1989.17,286.592 1991.92,286.409 1994.68,286.226 1997.43,286.044 2000.19,285.861 2002.94,285.678 2005.69,285.496 2008.45,285.313 2011.2,285.13 2013.96,284.948 2016.71,284.765 2019.47,284.582 2022.22,284.4 2024.98,284.217 2027.73,284.034 2030.48,283.852 2033.24,283.669 2035.99,283.486 2038.75,283.304 2041.5,283.121 2044.26,282.938 2047.01,282.756 2049.77,282.573 2052.52,282.39 2055.27,282.208 2058.03,282.025 2060.78,281.842 2063.54,281.66 2066.29,281.477 2069.05,281.294 2071.8,281.112 2074.56,280.929 2077.31,280.746 2080.06,280.563 2082.82,280.381 2085.57,280.198 2088.33,280.015 2091.08,279.833 2093.84,279.65 2096.59,279.467 2099.35,279.284 2102.1,279.102 2104.85,278.919 2107.61,278.736 2110.36,278.554 2113.12,278.371 2115.87,278.188 2118.63,278.005 2121.38,277.823 2124.14,277.64 2126.89,277.457 2129.64,277.274 2132.4,277.092 2135.15,276.909 2137.91,276.726 2140.66,276.543 2143.42,276.361 2146.17,276.178 2148.93,275.995 2151.68,275.813 2154.44,275.63 2157.19,275.447 2159.94,275.264 2162.7,275.082 2165.45,274.899 2168.21,274.716 2170.96,274.533 2173.72,274.351 2176.47,274.168 2179.23,273.985 2181.98,273.802 2184.73,273.62 2187.49,273.437 2190.24,273.254 2193,273.071 2195.75,272.889 2198.51,272.706 2201.26,272.523 2204.02,272.34 2206.77,272.158 2209.52,271.975 2212.28,271.792 2215.03,271.609 2217.79,271.427 2220.54,271.244 2223.3,271.061 2226.05,270.878 2228.81,270.696 2231.56,270.513 2234.31,270.33 2237.07,270.148 2239.82,269.965 2242.58,269.782 2245.33,269.599 2248.09,269.417 2250.84,269.234 2253.6,269.051 2256.35,268.869 2259.1,268.686 2261.86,268.503 2264.61,268.321 2267.37,268.138 2270.12,267.955 2272.88,267.772 2275.63,267.59 2278.39,267.407 2281.14,267.224 2283.89,267.042 2286.65,266.859 2289.4,266.676 2292.16,266.494 2294.91,266.311 2297.67,266.128 2300.42,265.946 2303.18,265.763 2305.93,265.581 2308.68,265.398 2311.44,265.215 2314.19,265.033 2316.95,264.85 2319.7,264.668 2322.46,264.485 2325.21,264.303 2327.97,264.12 2330.72,263.937 2333.47,263.755 2336.23,263.572 2338.98,263.39 2341.74,263.207 2344.49,263.025 2347.25,262.842 2350,262.66 2352.76,262.477 "/>
<polyline clip-path="url(#clip712)" style="stroke:#e26f46; stroke-linecap:round; stroke-linejoin:round; stroke-width:12; stroke-opacity:1; fill:none" points="149.191,735.212 151.945,233.661 154.7,211.762 157.454,211.685 160.209,211.703 162.963,211.726 165.718,211.738 168.472,211.742 171.227,211.743 173.981,211.743 176.735,211.743 179.49,211.743 182.244,211.742 184.999,211.741 187.753,211.74 190.508,211.738 193.262,211.735 196.017,211.733 198.771,211.731 201.526,211.73 204.28,211.731 207.034,211.735 209.789,211.738 212.543,211.739 215.298,211.737 218.052,211.732 220.807,211.726 223.561,211.723 226.316,211.725 229.07,211.737 231.825,211.767 234.579,211.819 237.333,211.904 240.088,212.029 242.842,212.209 245.597,212.47 248.351,212.837 251.106,213.332 253.86,213.976 256.615,214.785 259.369,215.776 262.124,216.961 264.878,218.351 267.632,219.955 270.387,221.78 273.141,223.828 275.896,226.102 278.65,228.589 281.405,231.278 284.159,234.155 286.914,237.208 289.668,240.423 292.423,243.788 295.177,247.29 297.932,250.915 300.686,254.65 303.44,258.482 306.195,262.398 308.949,266.384 311.704,270.427 314.458,274.513 317.213,278.629 319.967,282.767 322.722,286.917 325.476,291.073 328.231,295.228 330.985,299.373 333.739,303.504 336.494,307.614 339.248,311.698 342.003,315.752 344.757,319.77 347.512,323.75 350.266,327.688 353.021,331.58 355.775,335.426 358.53,339.222 361.284,342.968 364.038,346.662 366.793,350.305 369.547,353.896 372.302,357.433 375.056,360.916 377.811,364.345 380.565,367.72 383.32,371.042 386.074,374.312 388.829,377.529 391.583,380.694 394.337,383.808 397.092,386.871 399.846,389.884 402.601,392.848 405.355,395.763 408.11,398.629 410.864,401.449 413.619,404.222 416.373,406.949 419.128,409.632 421.882,412.272 424.636,414.869 427.391,417.424 430.145,419.939 432.9,422.415 435.654,424.853 438.409,427.253 441.163,429.617 443.918,431.945 446.672,434.238 449.427,436.497 452.181,438.723 454.936,440.917 457.69,443.079 460.444,445.211 463.199,447.314 465.953,449.387 468.708,451.432 471.462,453.45 474.217,455.441 476.971,457.406 479.726,459.346 482.48,461.261 485.235,463.152 487.989,465.02 490.743,466.866 493.498,468.689 496.252,470.491 499.007,472.272 501.761,474.032 504.516,475.773 507.27,477.494 510.025,479.197 512.779,480.882 515.534,482.549 518.288,484.198 521.042,485.83 523.797,487.447 526.551,489.047 529.306,490.632 532.06,492.201 534.815,493.756 537.569,495.296 540.324,496.822 543.078,498.335 545.833,499.834 548.587,501.32 551.341,502.793 554.096,504.254 556.85,505.703 559.605,507.139 562.359,508.565 565.114,509.979 567.868,511.382 570.623,512.774 573.377,514.156 576.132,515.528 578.886,516.89 581.641,518.242 584.395,519.584 587.149,520.918 589.904,522.242 592.658,523.558 595.413,524.864 598.167,526.163 600.922,527.453 603.676,528.736 606.431,530.01 609.185,531.277 611.94,532.536 614.694,533.787 617.448,535.032 620.203,536.27 622.957,537.5 625.712,538.723 628.466,539.94 631.221,541.151 633.975,542.354 636.73,543.552 639.484,544.743 642.239,545.929 644.993,547.108 647.747,548.282 650.502,549.45 653.256,550.613 656.011,551.769 658.765,552.921 661.52,554.067 664.274,555.208 667.029,556.343 669.783,557.474 672.538,558.6 675.292,559.72 678.046,560.836 680.801,561.947 683.555,563.054 686.31,564.155 689.064,565.253 691.819,566.346 694.573,567.434 697.328,568.518 700.082,569.598 702.837,570.673 705.591,571.745 708.345,572.812 711.1,573.875 713.854,574.935 716.609,575.99 719.363,577.041 722.118,578.089 724.872,579.133 727.627,580.173 730.381,581.209 733.136,582.242 735.89,583.271 738.645,584.296 741.399,585.318 744.153,586.337 746.908,587.352 749.662,588.363 752.417,589.371 755.171,590.375 757.926,591.377 760.68,592.374 763.435,593.368 766.189,594.359 768.944,595.347 771.698,596.331 774.452,597.312 777.207,598.29 779.961,599.264 782.716,600.235 785.47,601.203 788.225,602.168 790.979,603.13 793.734,604.088 796.488,605.043 799.243,605.995 801.997,606.944 804.751,607.89 807.506,608.832 810.26,609.772 813.015,610.708 815.769,611.641 818.524,612.571 821.278,613.497 824.033,614.421 826.787,615.341 829.542,616.258 832.296,617.172 835.05,618.083 837.805,618.991 840.559,619.895 843.314,620.796 846.068,621.695 848.823,622.589 851.577,623.481 854.332,624.37 857.086,625.255 859.841,626.137 862.595,627.016 865.349,627.891 868.104,628.764 870.858,629.633 873.613,630.498 876.367,631.361 879.122,632.22 881.876,633.076 884.631,633.929 887.385,634.778 890.14,635.624 892.894,636.466 895.649,637.305 898.403,638.141 901.157,638.973 903.912,639.802 906.666,640.627 909.421,641.449 912.175,642.268 914.93,643.083 917.684,643.894 920.439,644.702 923.193,645.506 925.948,646.306 928.702,647.103 931.456,647.897 934.211,648.687 936.965,649.473 939.72,650.255 942.474,651.033 945.229,651.808 947.983,652.579 950.738,653.346 953.492,654.109 956.247,654.869 959.001,655.624 961.755,656.376 964.51,657.123 967.264,657.867 970.019,658.606 972.773,659.342 975.528,660.074 978.282,660.801 981.037,661.525 983.791,662.244 986.546,662.959 989.3,663.671 992.054,664.378 994.809,665.08 997.563,665.779 1000.32,666.473 1003.07,667.162 1005.83,667.848 1008.58,668.529 1011.34,669.205 1014.09,669.877 1016.84,670.545 1019.6,671.208 1022.35,671.866 1025.11,672.52 1027.86,673.169 1030.62,673.813 1033.37,674.453 1036.13,675.088 1038.88,675.719 1041.63,676.344 1044.39,676.965 1047.14,677.581 1049.9,678.192 1052.65,678.799 1055.41,679.4 1058.16,679.997 1060.92,680.589 1063.67,681.175 1066.42,681.757 1069.18,682.334 1071.93,682.906 1074.69,683.472 1077.44,684.034 1080.2,684.591 1082.95,685.142 1085.71,685.689 1088.46,686.23 1091.21,686.766 1093.97,687.297 1096.72,687.823 1099.48,688.344 1102.23,688.86 1104.99,689.37 1107.74,689.876 1110.5,690.376 1113.25,690.871 1116.01,691.36 1118.76,691.845 1121.51,692.324 1124.27,692.797 1127.02,693.266 1129.78,693.729 1132.53,694.187 1135.29,694.64 1138.04,695.088 1140.8,695.53 1143.55,695.967 1146.3,696.398 1149.06,696.824 1151.81,697.245 1154.57,697.661 1157.32,698.071 1160.08,698.476 1162.83,698.876 1165.59,699.27 1168.34,699.659 1171.09,700.043 1173.85,700.421 1176.6,700.795 1179.36,701.162 1182.11,701.525 1184.87,701.882 1187.62,702.234 1190.38,702.581 1193.13,702.922 1195.88,703.258 1198.64,703.589 1201.39,703.914 1204.15,704.235 1206.9,704.55 1209.66,704.859 1212.41,705.164 1215.17,705.463 1217.92,705.757 1220.67,706.046 1223.43,706.33 1226.18,706.609 1228.94,706.883 1231.69,707.152 1234.45,707.416 1237.2,707.675 1239.96,707.929 1242.71,708.178 1245.46,708.423 1248.22,708.663 1250.97,708.898 1253.73,709.129 1256.48,709.355 1259.24,709.576 1261.99,709.793 1264.75,710.005 1267.5,710.213 1270.25,710.417 1273.01,710.616 1275.76,710.811 1278.52,711.002 1281.27,711.189 1284.03,711.371 1286.78,711.55 1289.54,711.724 1292.29,711.894 1295.04,712.06 1297.8,712.223 1300.55,712.381 1303.31,712.536 1306.06,712.686 1308.82,712.834 1311.57,712.977 1314.33,713.117 1317.08,713.253 1319.83,713.385 1322.59,713.514 1325.34,713.64 1328.1,713.762 1330.85,713.881 1333.61,713.997 1336.36,714.109 1339.12,714.218 1341.87,714.324 1344.62,714.427 1347.38,714.526 1350.13,714.623 1352.89,714.717 1355.64,714.808 1358.4,714.896 1361.15,714.981 1363.91,715.064 1366.66,715.144 1369.41,715.221 1372.17,715.295 1374.92,715.367 1377.68,715.437 1380.43,715.504 1383.19,715.569 1385.94,715.631 1388.7,715.691 1391.45,715.749 1394.21,715.805 1396.96,715.859 1399.71,715.911 1402.47,715.96 1405.22,716.008 1407.98,716.054 1410.73,716.098 1413.49,716.14 1416.24,716.181 1419,716.22 1421.75,716.257 1424.5,716.293 1427.26,716.328 1430.01,716.361 1432.77,716.392 1435.52,716.422 1438.28,716.451 1441.03,716.479 1443.79,716.506 1446.54,716.532 1449.29,716.556 1452.05,716.58 1454.8,716.602 1457.56,716.623 1460.31,716.644 1463.07,716.663 1465.82,716.681 1468.58,716.699 1471.33,716.716 1474.08,716.732 1476.84,716.747 1479.59,716.761 1482.35,716.774 1485.1,716.787 1487.86,716.799 1490.61,716.811 1493.37,716.821 1496.12,716.832 1498.87,716.841 1501.63,716.85 1504.38,716.859 1507.14,716.866 1509.89,716.874 1512.65,716.881 1515.4,716.887 1518.16,716.893 1520.91,716.899 1523.66,716.904 1526.42,716.909 1529.17,716.914 1531.93,716.918 1534.68,716.922 1537.44,716.925 1540.19,716.928 1542.95,716.931 1545.7,716.934 1548.45,716.937 1551.21,716.939 1553.96,716.941 1556.72,716.943 1559.47,716.945 1562.23,716.946 1564.98,716.948 1567.74,716.949 1570.49,716.95 1573.24,716.951 1576,716.952 1578.75,716.953 1581.51,716.954 1584.26,716.954 1587.02,716.955 1589.77,716.956 1592.53,716.956 1595.28,716.957 1598.03,716.957 1600.79,716.957 1603.54,716.958 1606.3,716.958 1609.05,716.958 1611.81,716.959 1614.56,716.959 1617.32,716.959 1620.07,716.959 1622.82,716.96 1625.58,716.96 1628.33,716.96 1631.09,716.96 1633.84,716.961 1636.6,716.961 1639.35,716.961 1642.11,716.961 1644.86,716.962 1647.62,716.962 1650.37,716.962 1653.12,716.962 1655.88,716.962 1658.63,716.962 1661.39,716.962 1664.14,716.963 1666.9,716.963 1669.65,716.963 1672.41,716.963 1675.16,716.963 1677.91,716.963 1680.67,716.963 1683.42,716.963 1686.18,716.963 1688.93,716.963 1691.69,716.963 1694.44,716.963 1697.2,716.963 1699.95,716.963 1702.7,716.963 1705.46,716.963 1708.21,716.963 1710.97,716.963 1713.72,716.963 1716.48,716.963 1719.23,716.963 1721.99,716.963 1724.74,716.963 1727.49,716.963 1730.25,716.963 1733,716.963 1735.76,716.963 1738.51,716.963 1741.27,716.963 1744.02,716.963 1746.78,716.962 1749.53,716.962 1752.28,716.962 1755.04,716.962 1757.79,716.962 1760.55,716.962 1763.3,716.962 1766.06,716.962 1768.81,716.962 1771.57,716.962 1774.32,716.962 1777.07,716.962 1779.83,716.961 1782.58,716.961 1785.34,716.961 1788.09,716.961 1790.85,716.961 1793.6,716.961 1796.36,716.961 1799.11,716.96 1801.86,716.96 1804.62,716.96 1807.37,716.96 1810.13,716.96 1812.88,716.959 1815.64,716.959 1818.39,716.959 1821.15,716.959 1823.9,716.958 1826.65,716.958 1829.41,716.958 1832.16,716.958 1834.92,716.958 1837.67,716.957 1840.43,716.957 1843.18,716.957 1845.94,716.956 1848.69,716.956 1851.44,716.956 1854.2,716.956 1856.95,716.955 1859.71,716.955 1862.46,716.955 1865.22,716.954 1867.97,716.954 1870.73,716.954 1873.48,716.953 1876.23,716.953 1878.99,716.953 1881.74,716.953 1884.5,716.952 1887.25,716.952 1890.01,716.952 1892.76,716.951 1895.52,716.951 1898.27,716.951 1901.03,716.95 1903.78,716.95 1906.53,716.95 1909.29,716.949 1912.04,716.949 1914.8,716.949 1917.55,716.949 1920.31,716.948 1923.06,716.948 1925.82,716.948 1928.57,716.947 1931.32,716.947 1934.08,716.947 1936.83,716.947 1939.59,716.947 1942.34,716.946 1945.1,716.946 1947.85,716.946 1950.61,716.946 1953.36,716.946 1956.11,716.946 1958.87,716.945 1961.62,716.945 1964.38,716.945 1967.13,716.945 1969.89,716.945 1972.64,716.945 1975.4,716.945 1978.15,716.945 1980.9,716.945 1983.66,716.945 1986.41,716.944 1989.17,716.944 1991.92,716.944 1994.68,716.944 1997.43,716.944 2000.19,716.944 2002.94,716.944 2005.69,716.944 2008.45,716.944 2011.2,716.944 2013.96,716.944 2016.71,716.944 2019.47,716.944 2022.22,716.944 2024.98,716.944 2027.73,716.944 2030.48,716.944 2033.24,716.944 2035.99,716.944 2038.75,716.943 2041.5,716.943 2044.26,716.943 2047.01,716.943 2049.77,716.943 2052.52,716.943 2055.27,716.943 2058.03,716.943 2060.78,716.943 2063.54,716.943 2066.29,716.943 2069.05,716.943 2071.8,716.943 2074.56,716.943 2077.31,716.943 2080.06,716.943 2082.82,716.943 2085.57,716.942 2088.33,716.942 2091.08,716.942 2093.84,716.942 2096.59,716.942 2099.35,716.942 2102.1,716.942 2104.85,716.942 2107.61,716.942 2110.36,716.942 2113.12,716.942 2115.87,716.942 2118.63,716.941 2121.38,716.941 2124.14,716.941 2126.89,716.941 2129.64,716.941 2132.4,716.941 2135.15,716.941 2137.91,716.941 2140.66,716.941 2143.42,716.941 2146.17,716.94 2148.93,716.94 2151.68,716.94 2154.44,716.94 2157.19,716.94 2159.94,716.94 2162.7,716.94 2165.45,716.94 2168.21,716.94 2170.96,716.94 2173.72,716.94 2176.47,716.94 2179.23,716.94 2181.98,716.939 2184.73,716.939 2187.49,716.939 2190.24,716.939 2193,716.939 2195.75,716.939 2198.51,716.939 2201.26,716.939 2204.02,716.939 2206.77,716.939 2209.52,716.939 2212.28,716.939 2215.03,716.939 2217.79,716.939 2220.54,716.939 2223.3,716.939 2226.05,716.939 2228.81,716.94 2231.56,716.94 2234.31,716.94 2237.07,716.94 2239.82,716.94 2242.58,716.94 2245.33,716.94 2248.09,716.941 2250.84,716.941 2253.6,716.941 2256.35,716.941 2259.1,716.941 2261.86,716.942 2264.61,716.942 2267.37,716.942 2270.12,716.943 2272.88,716.943 2275.63,716.943 2278.39,716.944 2281.14,716.944 2283.89,716.945 2286.65,716.945 2289.4,716.946 2292.16,716.946 2294.91,716.947 2297.67,716.947 2300.42,716.948 2303.18,716.949 2305.93,716.949 2308.68,716.95 2311.44,716.951 2314.19,716.952 2316.95,716.952 2319.7,716.953 2322.46,716.954 2325.21,716.955 2327.97,716.956 2330.72,716.957 2333.47,716.958 2336.23,716.959 2338.98,716.96 2341.74,716.962 2344.49,716.963 2347.25,716.964 2350,716.966 2352.76,716.967 "/>
<polyline clip-path="url(#clip712)" style="stroke:#3da44d; stroke-linecap:round; stroke-linejoin:round; stroke-width:12; stroke-opacity:1; fill:none" points="149.191,-419.131 151.945,239.854 154.7,642.816 157.454,751.98 160.209,767.888 162.963,763.71 165.718,756.171 168.472,748.761 171.227,742.192 173.981,736.584 176.735,731.921 179.49,728.152 182.244,725.216 184.999,723.053 187.753,721.603 190.508,720.813 193.262,720.633 196.017,721.023 198.771,721.949 201.526,723.387 204.28,725.317 207.034,727.732 209.789,730.628 212.543,734.011 215.298,737.888 218.052,742.267 220.807,747.154 223.561,752.547 226.316,758.437 229.07,764.8 231.825,771.599 234.579,778.781 237.333,786.281 240.088,794.02 242.842,801.912 245.597,809.866 248.351,817.792 251.106,825.602 253.86,833.217 256.615,840.568 259.369,847.598 262.124,854.262 264.878,860.527 267.632,866.374 270.387,871.791 273.141,876.777 275.896,881.337 278.65,885.484 281.405,889.232 284.159,892.6 286.914,895.609 289.668,898.28 292.423,900.635 295.177,902.696 297.932,904.484 300.686,906.02 303.44,907.324 306.195,908.413 308.949,909.306 311.704,910.019 314.458,910.567 317.213,910.963 319.967,911.221 322.722,911.354 325.476,911.373 328.231,911.287 330.985,911.106 333.739,910.84 336.494,910.497 339.248,910.083 342.003,909.606 344.757,909.072 347.512,908.488 350.266,907.858 353.021,907.188 355.775,906.482 358.53,905.746 361.284,904.981 364.038,904.192 366.793,903.383 369.547,902.557 372.302,901.716 375.056,900.863 377.811,900 380.565,899.13 383.32,898.254 386.074,897.375 388.829,896.494 391.583,895.612 394.337,894.732 397.092,893.853 399.846,892.978 402.601,892.108 405.355,891.242 408.11,890.383 410.864,889.531 413.619,888.687 416.373,887.85 419.128,887.023 421.882,886.205 424.636,885.397 427.391,884.598 430.145,883.81 432.9,883.033 435.654,882.266 438.409,881.511 441.163,880.767 443.918,880.034 446.672,879.312 449.427,878.603 452.181,877.904 454.936,877.217 457.69,876.541 460.444,875.878 463.199,875.225 465.953,874.584 468.708,873.954 471.462,873.336 474.217,872.729 476.971,872.132 479.726,871.547 482.48,870.973 485.235,870.409 487.989,869.855 490.743,869.313 493.498,868.78 496.252,868.257 499.007,867.745 501.761,867.242 504.516,866.749 507.27,866.266 510.025,865.792 512.779,865.326 515.534,864.87 518.288,864.423 521.042,863.984 523.797,863.555 526.551,863.133 529.306,862.719 532.06,862.314 534.815,861.916 537.569,861.526 540.324,861.144 543.078,860.769 545.833,860.401 548.587,860.041 551.341,859.687 554.096,859.341 556.85,859 559.605,858.667 562.359,858.339 565.114,858.018 567.868,857.703 570.623,857.394 573.377,857.091 576.132,856.793 578.886,856.501 581.641,856.215 584.395,855.934 587.149,855.657 589.904,855.387 592.658,855.12 595.413,854.859 598.167,854.603 600.922,854.351 603.676,854.103 606.431,853.86 609.185,853.621 611.94,853.386 614.694,853.156 617.448,852.929 620.203,852.706 622.957,852.487 625.712,852.271 628.466,852.06 631.221,851.851 633.975,851.646 636.73,851.444 639.484,851.246 642.239,851.05 644.993,850.858 647.747,850.669 650.502,850.482 653.256,850.299 656.011,850.118 658.765,849.939 661.52,849.763 664.274,849.59 667.029,849.419 669.783,849.251 672.538,849.084 675.292,848.921 678.046,848.759 680.801,848.599 683.555,848.441 686.31,848.286 689.064,848.132 691.819,847.98 694.573,847.829 697.328,847.681 700.082,847.534 702.837,847.388 705.591,847.244 708.345,847.102 711.1,846.961 713.854,846.822 716.609,846.683 719.363,846.546 722.118,846.411 724.872,846.276 727.627,846.143 730.381,846.01 733.136,845.879 735.89,845.748 738.645,845.619 741.399,845.49 744.153,845.363 746.908,845.235 749.662,845.109 752.417,844.984 755.171,844.859 757.926,844.735 760.68,844.611 763.435,844.488 766.189,844.365 768.944,844.242 771.698,844.121 774.452,843.999 777.207,843.878 779.961,843.757 782.716,843.636 785.47,843.516 788.225,843.396 790.979,843.276 793.734,843.155 796.488,843.035 799.243,842.916 801.997,842.796 804.751,842.676 807.506,842.556 810.26,842.435 813.015,842.315 815.769,842.194 818.524,842.074 821.278,841.953 824.033,841.831 826.787,841.71 829.542,841.588 832.296,841.466 835.05,841.343 837.805,841.219 840.559,841.096 843.314,840.972 846.068,840.847 848.823,840.721 851.577,840.596 854.332,840.469 857.086,840.342 859.841,840.214 862.595,840.085 865.349,839.956 868.104,839.826 870.858,839.694 873.613,839.563 876.367,839.43 879.122,839.296 881.876,839.162 884.631,839.026 887.385,838.89 890.14,838.752 892.894,838.613 895.649,838.473 898.403,838.333 901.157,838.191 903.912,838.048 906.666,837.903 909.421,837.757 912.175,837.61 914.93,837.462 917.684,837.313 920.439,837.162 923.193,837.01 925.948,836.856 928.702,836.701 931.456,836.545 934.211,836.387 936.965,836.228 939.72,836.067 942.474,835.904 945.229,835.74 947.983,835.574 950.738,835.407 953.492,835.238 956.247,835.067 959.001,834.895 961.755,834.72 964.51,834.544 967.264,834.367 970.019,834.187 972.773,834.005 975.528,833.822 978.282,833.637 981.037,833.45 983.791,833.261 986.546,833.069 989.3,832.876 992.054,832.681 994.809,832.484 997.563,832.285 1000.32,832.083 1003.07,831.879 1005.83,831.674 1008.58,831.466 1011.34,831.256 1014.09,831.043 1016.84,830.829 1019.6,830.612 1022.35,830.393 1025.11,830.171 1027.86,829.948 1030.62,829.721 1033.37,829.493 1036.13,829.262 1038.88,829.028 1041.63,828.792 1044.39,828.554 1047.14,828.313 1049.9,828.07 1052.65,827.824 1055.41,827.575 1058.16,827.324 1060.92,827.07 1063.67,826.814 1066.42,826.555 1069.18,826.293 1071.93,826.029 1074.69,825.762 1077.44,825.493 1080.2,825.22 1082.95,824.945 1085.71,824.667 1088.46,824.386 1091.21,824.103 1093.97,823.816 1096.72,823.527 1099.48,823.235 1102.23,822.94 1104.99,822.643 1107.74,822.342 1110.5,822.039 1113.25,821.732 1116.01,821.423 1118.76,821.111 1121.51,820.796 1124.27,820.478 1127.02,820.157 1129.78,819.833 1132.53,819.506 1135.29,819.176 1138.04,818.843 1140.8,818.507 1143.55,818.168 1146.3,817.827 1149.06,817.482 1151.81,817.134 1154.57,816.783 1157.32,816.429 1160.08,816.073 1162.83,815.713 1165.59,815.35 1168.34,814.984 1171.09,814.615 1173.85,814.243 1176.6,813.869 1179.36,813.491 1182.11,813.11 1184.87,812.727 1187.62,812.34 1190.38,811.95 1193.13,811.558 1195.88,811.162 1198.64,810.764 1201.39,810.363 1204.15,809.958 1206.9,809.551 1209.66,809.142 1212.41,808.729 1215.17,808.313 1217.92,807.895 1220.67,807.474 1223.43,807.05 1226.18,806.623 1228.94,806.194 1231.69,805.762 1234.45,805.327 1237.2,804.89 1239.96,804.449 1242.71,804.007 1245.46,803.562 1248.22,803.114 1250.97,802.664 1253.73,802.211 1256.48,801.756 1259.24,801.298 1261.99,800.838 1264.75,800.376 1267.5,799.912 1270.25,799.445 1273.01,798.976 1275.76,798.505 1278.52,798.031 1281.27,797.556 1284.03,797.078 1286.78,796.598 1289.54,796.117 1292.29,795.633 1295.04,795.148 1297.8,794.661 1300.55,794.172 1303.31,793.682 1306.06,793.189 1308.82,792.695 1311.57,792.2 1314.33,791.703 1317.08,791.204 1319.83,790.704 1322.59,790.203 1325.34,789.7 1328.1,789.197 1330.85,788.691 1333.61,788.185 1336.36,787.678 1339.12,787.17 1341.87,786.66 1344.62,786.15 1347.38,785.639 1350.13,785.128 1352.89,784.615 1355.64,784.102 1358.4,783.588 1361.15,783.074 1363.91,782.56 1366.66,782.045 1369.41,781.529 1372.17,781.014 1374.92,780.498 1377.68,779.982 1380.43,779.466 1383.19,778.95 1385.94,778.434 1388.7,777.919 1391.45,777.403 1394.21,776.888 1396.96,776.373 1399.71,775.858 1402.47,775.344 1405.22,774.831 1407.98,774.318 1410.73,773.806 1413.49,773.295 1416.24,772.784 1419,772.274 1421.75,771.765 1424.5,771.258 1427.26,770.751 1430.01,770.245 1432.77,769.741 1435.52,769.238 1438.28,768.736 1441.03,768.236 1443.79,767.737 1446.54,767.24 1449.29,766.744 1452.05,766.25 1454.8,765.758 1457.56,765.267 1460.31,764.778 1463.07,764.291 1465.82,763.806 1468.58,763.323 1471.33,762.842 1474.08,762.364 1476.84,761.887 1479.59,761.413 1482.35,760.941 1485.1,760.471 1487.86,760.004 1490.61,759.539 1493.37,759.077 1496.12,758.617 1498.87,758.16 1501.63,757.706 1504.38,757.254 1507.14,756.805 1509.89,756.359 1512.65,755.915 1515.4,755.475 1518.16,755.037 1520.91,754.603 1523.66,754.171 1526.42,753.742 1529.17,753.317 1531.93,752.894 1534.68,752.475 1537.44,752.059 1540.19,751.646 1542.95,751.237 1545.7,750.83 1548.45,750.427 1551.21,750.028 1553.96,749.632 1556.72,749.239 1559.47,748.849 1562.23,748.463 1564.98,748.081 1567.74,747.702 1570.49,747.327 1573.24,746.955 1576,746.587 1578.75,746.222 1581.51,745.861 1584.26,745.504 1587.02,745.15 1589.77,744.8 1592.53,744.454 1595.28,744.111 1598.03,743.773 1600.79,743.437 1603.54,743.106 1606.3,742.778 1609.05,742.454 1611.81,742.134 1614.56,741.818 1617.32,741.505 1620.07,741.196 1622.82,740.891 1625.58,740.59 1628.33,740.293 1631.09,739.999 1633.84,739.709 1636.6,739.423 1639.35,739.141 1642.11,738.863 1644.86,738.588 1647.62,738.317 1650.37,738.05 1653.12,737.787 1655.88,737.528 1658.63,737.272 1661.39,737.02 1664.14,736.772 1666.9,736.528 1669.65,736.287 1672.41,736.051 1675.16,735.818 1677.91,735.588 1680.67,735.363 1683.42,735.141 1686.18,734.923 1688.93,734.709 1691.69,734.498 1694.44,734.291 1697.2,734.087 1699.95,733.888 1702.7,733.692 1705.46,733.499 1708.21,733.31 1710.97,733.125 1713.72,732.943 1716.48,732.765 1719.23,732.59 1721.99,732.419 1724.74,732.251 1727.49,732.087 1730.25,731.926 1733,731.769 1735.76,731.615 1738.51,731.465 1741.27,731.318 1744.02,731.175 1746.78,731.034 1749.53,730.897 1752.28,730.764 1755.04,730.634 1757.79,730.507 1760.55,730.383 1763.3,730.263 1766.06,730.146 1768.81,730.031 1771.57,729.921 1774.32,729.813 1777.07,729.708 1779.83,729.607 1782.58,729.509 1785.34,729.414 1788.09,729.321 1790.85,729.232 1793.6,729.146 1796.36,729.063 1799.11,728.983 1801.86,728.906 1804.62,728.831 1807.37,728.76 1810.13,728.692 1812.88,728.626 1815.64,728.563 1818.39,728.503 1821.15,728.446 1823.9,728.392 1826.65,728.34 1829.41,728.291 1832.16,728.245 1834.92,728.201 1837.67,728.16 1840.43,728.122 1843.18,728.086 1845.94,728.054 1848.69,728.023 1851.44,727.995 1854.2,727.97 1856.95,727.947 1859.71,727.927 1862.46,727.909 1865.22,727.893 1867.97,727.88 1870.73,727.869 1873.48,727.861 1876.23,727.855 1878.99,727.852 1881.74,727.851 1884.5,727.852 1887.25,727.855 1890.01,727.86 1892.76,727.868 1895.52,727.878 1898.27,727.89 1901.03,727.905 1903.78,727.921 1906.53,727.94 1909.29,727.961 1912.04,727.984 1914.8,728.008 1917.55,728.035 1920.31,728.065 1923.06,728.095 1925.82,728.129 1928.57,728.163 1931.32,728.2 1934.08,728.239 1936.83,728.28 1939.59,728.323 1942.34,728.367 1945.1,728.414 1947.85,728.462 1950.61,728.512 1953.36,728.563 1956.11,728.617 1958.87,728.673 1961.62,728.73 1964.38,728.789 1967.13,728.849 1969.89,728.911 1972.64,728.975 1975.4,729.041 1978.15,729.108 1980.9,729.177 1983.66,729.247 1986.41,729.319 1989.17,729.393 1991.92,729.468 1994.68,729.545 1997.43,729.623 2000.19,729.702 2002.94,729.784 2005.69,729.866 2008.45,729.95 2011.2,730.036 2013.96,730.123 2016.71,730.211 2019.47,730.301 2022.22,730.392 2024.98,730.485 2027.73,730.578 2030.48,730.674 2033.24,730.77 2035.99,730.868 2038.75,730.967 2041.5,731.067 2044.26,731.169 2047.01,731.271 2049.77,731.376 2052.52,731.481 2055.27,731.587 2058.03,731.695 2060.78,731.803 2063.54,731.913 2066.29,732.024 2069.05,732.137 2071.8,732.25 2074.56,732.364 2077.31,732.48 2080.06,732.596 2082.82,732.714 2085.57,732.833 2088.33,732.952 2091.08,733.073 2093.84,733.195 2096.59,733.318 2099.35,733.441 2102.1,733.566 2104.85,733.692 2107.61,733.818 2110.36,733.946 2113.12,734.074 2115.87,734.203 2118.63,734.334 2121.38,734.465 2124.14,734.597 2126.89,734.73 2129.64,734.863 2132.4,734.998 2135.15,735.133 2137.91,735.269 2140.66,735.406 2143.42,735.544 2146.17,735.683 2148.93,735.822 2151.68,735.962 2154.44,736.103 2157.19,736.245 2159.94,736.387 2162.7,736.53 2165.45,736.674 2168.21,736.819 2170.96,736.964 2173.72,737.11 2176.47,737.256 2179.23,737.403 2181.98,737.551 2184.73,737.7 2187.49,737.849 2190.24,737.998 2193,738.149 2195.75,738.3 2198.51,738.451 2201.26,738.603 2204.02,738.756 2206.77,738.909 2209.52,739.063 2212.28,739.218 2215.03,739.373 2217.79,739.528 2220.54,739.684 2223.3,739.841 2226.05,739.998 2228.81,740.155 2231.56,740.313 2234.31,740.472 2237.07,740.631 2239.82,740.79 2242.58,740.95 2245.33,741.11 2248.09,741.271 2250.84,741.432 2253.6,741.594 2256.35,741.756 2259.1,741.919 2261.86,742.081 2264.61,742.244 2267.37,742.408 2270.12,742.572 2272.88,742.737 2275.63,742.901 2278.39,743.067 2281.14,743.232 2283.89,743.398 2286.65,743.564 2289.4,743.731 2292.16,743.898 2294.91,744.065 2297.67,744.232 2300.42,744.4 2303.18,744.568 2305.93,744.736 2308.68,744.905 2311.44,745.074 2314.19,745.243 2316.95,745.413 2319.7,745.582 2322.46,745.752 2325.21,745.923 2327.97,746.093 2330.72,746.264 2333.47,746.435 2336.23,746.606 2338.98,746.777 2341.74,746.949 2344.49,747.121 2347.25,747.293 2350,747.465 2352.76,747.637 "/>
<path clip-path="url(#clip710)" d="M1969.85 1377.32 L2279.3 1377.32 L2279.3 1169.96 L1969.85 1169.96  Z" fill="#ffffff" fill-rule="evenodd" fill-opacity="1"/>
<polyline clip-path="url(#clip710)" style="stroke:#000000; stroke-linecap:round; stroke-linejoin:round; stroke-width:4; stroke-opacity:1; fill:none" points="1969.85,1377.32 2279.3,1377.32 2279.3,1169.96 1969.85,1169.96 1969.85,1377.32 "/>
<polyline clip-path="url(#clip710)" style="stroke:#009af9; stroke-linecap:round; stroke-linejoin:round; stroke-width:12; stroke-opacity:1; fill:none" points="1994.33,1221.8 2141.24,1221.8 "/>
<path clip-path="url(#clip710)" d="M2165.72 1228.84 L2165.72 1213.15 L2169.98 1213.15 L2169.98 1228.68 Q2169.98 1232.36 2171.42 1234.21 Q2172.85 1236.04 2175.72 1236.04 Q2179.17 1236.04 2181.16 1233.84 Q2183.18 1231.64 2183.18 1227.85 L2183.18 1213.15 L2187.44 1213.15 L2187.44 1239.08 L2183.18 1239.08 L2183.18 1235.09 Q2181.63 1237.45 2179.57 1238.61 Q2177.53 1239.75 2174.82 1239.75 Q2170.35 1239.75 2168.04 1236.97 Q2165.72 1234.19 2165.72 1228.84 M2176.44 1212.52 L2176.44 1212.52 Z" fill="#000000" fill-rule="nonzero" fill-opacity="1" /><path clip-path="url(#clip710)" d="M2195.82 1203.06 L2205.63 1203.06 L2205.63 1206.37 L2200.07 1206.37 L2200.07 1242.02 L2205.63 1242.02 L2205.63 1245.33 L2195.82 1245.33 L2195.82 1203.06 Z" fill="#000000" fill-rule="nonzero" fill-opacity="1" /><path clip-path="url(#clip710)" d="M2216.12 1235.14 L2223.76 1235.14 L2223.76 1208.77 L2215.44 1210.44 L2215.44 1206.18 L2223.71 1204.52 L2228.38 1204.52 L2228.38 1235.14 L2236.02 1235.14 L2236.02 1239.08 L2216.12 1239.08 L2216.12 1235.14 Z" fill="#000000" fill-rule="nonzero" fill-opacity="1" /><path clip-path="url(#clip710)" d="M2254.82 1203.06 L2254.82 1245.33 L2245 1245.33 L2245 1242.02 L2250.54 1242.02 L2250.54 1206.37 L2245 1206.37 L2245 1203.06 L2254.82 1203.06 Z" fill="#000000" fill-rule="nonzero" fill-opacity="1" /><polyline clip-path="url(#clip710)" style="stroke:#e26f46; stroke-linecap:round; stroke-linejoin:round; stroke-width:12; stroke-opacity:1; fill:none" points="1994.33,1273.64 2141.24,1273.64 "/>
<path clip-path="url(#clip710)" d="M2165.72 1280.68 L2165.72 1264.99 L2169.98 1264.99 L2169.98 1280.52 Q2169.98 1284.2 2171.42 1286.05 Q2172.85 1287.88 2175.72 1287.88 Q2179.17 1287.88 2181.16 1285.68 Q2183.18 1283.48 2183.18 1279.69 L2183.18 1264.99 L2187.44 1264.99 L2187.44 1290.92 L2183.18 1290.92 L2183.18 1286.93 Q2181.63 1289.29 2179.57 1290.45 Q2177.53 1291.59 2174.82 1291.59 Q2170.35 1291.59 2168.04 1288.81 Q2165.72 1286.03 2165.72 1280.68 M2176.44 1264.36 L2176.44 1264.36 Z" fill="#000000" fill-rule="nonzero" fill-opacity="1" /><path clip-path="url(#clip710)" d="M2195.82 1254.9 L2205.63 1254.9 L2205.63 1258.21 L2200.07 1258.21 L2200.07 1293.86 L2205.63 1293.86 L2205.63 1297.17 L2195.82 1297.17 L2195.82 1254.9 Z" fill="#000000" fill-rule="nonzero" fill-opacity="1" /><path clip-path="url(#clip710)" d="M2219.33 1286.98 L2235.65 1286.98 L2235.65 1290.92 L2213.71 1290.92 L2213.71 1286.98 Q2216.37 1284.23 2220.95 1279.6 Q2225.56 1274.94 2226.74 1273.6 Q2228.99 1271.08 2229.87 1269.34 Q2230.77 1267.58 2230.77 1265.89 Q2230.77 1263.14 2228.82 1261.4 Q2226.9 1259.67 2223.8 1259.67 Q2221.6 1259.67 2219.15 1260.43 Q2216.72 1261.19 2213.94 1262.74 L2213.94 1258.02 Q2216.76 1256.89 2219.22 1256.31 Q2221.67 1255.73 2223.71 1255.73 Q2229.08 1255.73 2232.27 1258.42 Q2235.47 1261.1 2235.47 1265.59 Q2235.47 1267.72 2234.66 1269.64 Q2233.87 1271.54 2231.76 1274.13 Q2231.19 1274.8 2228.08 1278.02 Q2224.98 1281.22 2219.33 1286.98 Z" fill="#000000" fill-rule="nonzero" fill-opacity="1" /><path clip-path="url(#clip710)" d="M2254.82 1254.9 L2254.82 1297.17 L2245 1297.17 L2245 1293.86 L2250.54 1293.86 L2250.54 1258.21 L2245 1258.21 L2245 1254.9 L2254.82 1254.9 Z" fill="#000000" fill-rule="nonzero" fill-opacity="1" /><polyline clip-path="url(#clip710)" style="stroke:#3da44d; stroke-linecap:round; stroke-linejoin:round; stroke-width:12; stroke-opacity:1; fill:none" points="1994.33,1325.48 2141.24,1325.48 "/>
<path clip-path="url(#clip710)" d="M2165.72 1332.52 L2165.72 1316.83 L2169.98 1316.83 L2169.98 1332.36 Q2169.98 1336.04 2171.42 1337.89 Q2172.85 1339.72 2175.72 1339.72 Q2179.17 1339.72 2181.16 1337.52 Q2183.18 1335.32 2183.18 1331.53 L2183.18 1316.83 L2187.44 1316.83 L2187.44 1342.76 L2183.18 1342.76 L2183.18 1338.77 Q2181.63 1341.13 2179.57 1342.29 Q2177.53 1343.43 2174.82 1343.43 Q2170.35 1343.43 2168.04 1340.65 Q2165.72 1337.87 2165.72 1332.52 M2176.44 1316.2 L2176.44 1316.2 Z" fill="#000000" fill-rule="nonzero" fill-opacity="1" /><path clip-path="url(#clip710)" d="M2206.44 1306.78 Q2203.34 1312.11 2201.83 1317.32 Q2200.33 1322.52 2200.33 1327.87 Q2200.33 1333.22 2201.83 1338.47 Q2203.36 1343.7 2206.44 1349.01 L2202.74 1349.01 Q2199.26 1343.57 2197.53 1338.31 Q2195.82 1333.06 2195.82 1327.87 Q2195.82 1322.71 2197.53 1317.48 Q2199.24 1312.25 2202.74 1306.78 L2206.44 1306.78 Z" fill="#000000" fill-rule="nonzero" fill-opacity="1" /><path clip-path="url(#clip710)" d="M2218.92 1309.47 L2218.92 1316.83 L2227.69 1316.83 L2227.69 1320.14 L2218.92 1320.14 L2218.92 1334.21 Q2218.92 1337.38 2219.77 1338.29 Q2220.65 1339.19 2223.32 1339.19 L2227.69 1339.19 L2227.69 1342.76 L2223.32 1342.76 Q2218.38 1342.76 2216.51 1340.93 Q2214.63 1339.07 2214.63 1334.21 L2214.63 1320.14 L2211.51 1320.14 L2211.51 1316.83 L2214.63 1316.83 L2214.63 1309.47 L2218.92 1309.47 Z" fill="#000000" fill-rule="nonzero" fill-opacity="1" /><path clip-path="url(#clip710)" d="M2232.62 1306.78 L2236.32 1306.78 Q2239.8 1312.25 2241.51 1317.48 Q2243.25 1322.71 2243.25 1327.87 Q2243.25 1333.06 2241.51 1338.31 Q2239.8 1343.57 2236.32 1349.01 L2232.62 1349.01 Q2235.7 1343.7 2237.2 1338.47 Q2238.73 1333.22 2238.73 1327.87 Q2238.73 1322.52 2237.2 1317.32 Q2235.7 1312.11 2232.62 1306.78 Z" fill="#000000" fill-rule="nonzero" fill-opacity="1" /></svg>
