<?xml version="1.0" encoding="utf-8"?>
<svg xmlns="http://www.w3.org/2000/svg" xmlns:xlink="http://www.w3.org/1999/xlink" width="600" height="400" viewBox="0 0 2400 1600">
<defs>
  <clipPath id="clip270">
    <rect x="0" y="0" width="2400" height="1600"/>
  </clipPath>
</defs>
<path clip-path="url(#clip270)" d="M0 1600 L2400 1600 L2400 0 L0 0  Z" fill="#ffffff" fill-rule="evenodd" fill-opacity="1"/>
<defs>
  <clipPath id="clip271">
    <rect x="480" y="0" width="1681" height="1600"/>
  </clipPath>
</defs>
<path clip-path="url(#clip270)" d="M149.191 1423.18 L2352.76 1423.18 L2352.76 47.2441 L149.191 47.2441  Z" fill="#ffffff" fill-rule="evenodd" fill-opacity="1"/>
<defs>
  <clipPath id="clip272">
    <rect x="149" y="47" width="2205" height="1377"/>
  </clipPath>
</defs>
<polyline clip-path="url(#clip272)" style="stroke:#000000; stroke-linecap:round; stroke-linejoin:round; stroke-width:2; stroke-opacity:0.1; fill:none" points="149.191,1423.18 149.191,47.2441 "/>
<polyline clip-path="url(#clip272)" style="stroke:#000000; stroke-linecap:round; stroke-linejoin:round; stroke-width:2; stroke-opacity:0.1; fill:none" points="700.082,1423.18 700.082,47.2441 "/>
<polyline clip-path="url(#clip272)" style="stroke:#000000; stroke-linecap:round; stroke-linejoin:round; stroke-width:2; stroke-opacity:0.1; fill:none" points="1250.97,1423.18 1250.97,47.2441 "/>
<polyline clip-path="url(#clip272)" style="stroke:#000000; stroke-linecap:round; stroke-linejoin:round; stroke-width:2; stroke-opacity:0.1; fill:none" points="1801.86,1423.18 1801.86,47.2441 "/>
<polyline clip-path="url(#clip272)" style="stroke:#000000; stroke-linecap:round; stroke-linejoin:round; stroke-width:2; stroke-opacity:0.1; fill:none" points="2352.76,1423.18 2352.76,47.2441 "/>
<polyline clip-path="url(#clip272)" style="stroke:#000000; stroke-linecap:round; stroke-linejoin:round; stroke-width:2; stroke-opacity:0.1; fill:none" points="149.191,1423.18 2352.76,1423.18 "/>
<polyline clip-path="url(#clip272)" style="stroke:#000000; stroke-linecap:round; stroke-linejoin:round; stroke-width:2; stroke-opacity:0.1; fill:none" points="149.191,1193.86 2352.76,1193.86 "/>
<polyline clip-path="url(#clip272)" style="stroke:#000000; stroke-linecap:round; stroke-linejoin:round; stroke-width:2; stroke-opacity:0.1; fill:none" points="149.191,964.535 2352.76,964.535 "/>
<polyline clip-path="url(#clip272)" style="stroke:#000000; stroke-linecap:round; stroke-linejoin:round; stroke-width:2; stroke-opacity:0.1; fill:none" points="149.191,735.212 2352.76,735.212 "/>
<polyline clip-path="url(#clip272)" style="stroke:#000000; stroke-linecap:round; stroke-linejoin:round; stroke-width:2; stroke-opacity:0.1; fill:none" points="149.191,505.889 2352.76,505.889 "/>
<polyline clip-path="url(#clip272)" style="stroke:#000000; stroke-linecap:round; stroke-linejoin:round; stroke-width:2; stroke-opacity:0.1; fill:none" points="149.191,276.567 2352.76,276.567 "/>
<polyline clip-path="url(#clip272)" style="stroke:#000000; stroke-linecap:round; stroke-linejoin:round; stroke-width:2; stroke-opacity:0.1; fill:none" points="149.191,47.2441 2352.76,47.2441 "/>
<polyline clip-path="url(#clip270)" style="stroke:#000000; stroke-linecap:round; stroke-linejoin:round; stroke-width:4; stroke-opacity:1; fill:none" points="149.191,1423.18 2352.76,1423.18 "/>
<polyline clip-path="url(#clip270)" style="stroke:#000000; stroke-linecap:round; stroke-linejoin:round; stroke-width:4; stroke-opacity:1; fill:none" points="149.191,1423.18 149.191,1404.28 "/>
<polyline clip-path="url(#clip270)" style="stroke:#000000; stroke-linecap:round; stroke-linejoin:round; stroke-width:4; stroke-opacity:1; fill:none" points="700.082,1423.18 700.082,1404.28 "/>
<polyline clip-path="url(#clip270)" style="stroke:#000000; stroke-linecap:round; stroke-linejoin:round; stroke-width:4; stroke-opacity:1; fill:none" points="1250.97,1423.18 1250.97,1404.28 "/>
<polyline clip-path="url(#clip270)" style="stroke:#000000; stroke-linecap:round; stroke-linejoin:round; stroke-width:4; stroke-opacity:1; fill:none" points="1801.86,1423.18 1801.86,1404.28 "/>
<polyline clip-path="url(#clip270)" style="stroke:#000000; stroke-linecap:round; stroke-linejoin:round; stroke-width:4; stroke-opacity:1; fill:none" points="2352.76,1423.18 2352.76,1404.28 "/>
<path clip-path="url(#clip270)" d="M149.191 1454.1 Q145.58 1454.1 143.751 1457.66 Q141.946 1461.2 141.946 1468.33 Q141.946 1475.44 143.751 1479.01 Q145.58 1482.55 149.191 1482.55 Q152.825 1482.55 154.631 1479.01 Q156.459 1475.44 156.459 1468.33 Q156.459 1461.2 154.631 1457.66 Q152.825 1454.1 149.191 1454.1 M149.191 1450.39 Q155.001 1450.39 158.057 1455 Q161.135 1459.58 161.135 1468.33 Q161.135 1477.06 158.057 1481.67 Q155.001 1486.25 149.191 1486.25 Q143.381 1486.25 140.302 1481.67 Q137.246 1477.06 137.246 1468.33 Q137.246 1459.58 140.302 1455 Q143.381 1450.39 149.191 1450.39 Z" fill="#000000" fill-rule="nonzero" fill-opacity="1" /><path clip-path="url(#clip270)" d="M694.735 1481.64 L711.054 1481.64 L711.054 1485.58 L689.11 1485.58 L689.11 1481.64 Q691.772 1478.89 696.355 1474.26 Q700.962 1469.61 702.142 1468.27 Q704.388 1465.74 705.267 1464.01 Q706.17 1462.25 706.17 1460.56 Q706.17 1457.8 704.226 1456.07 Q702.304 1454.33 699.203 1454.33 Q697.003 1454.33 694.55 1455.09 Q692.119 1455.86 689.341 1457.41 L689.341 1452.69 Q692.166 1451.55 694.619 1450.97 Q697.073 1450.39 699.11 1450.39 Q704.48 1450.39 707.675 1453.08 Q710.869 1455.77 710.869 1460.26 Q710.869 1462.39 710.059 1464.31 Q709.272 1466.2 707.165 1468.8 Q706.587 1469.47 703.485 1472.69 Q700.383 1475.88 694.735 1481.64 Z" fill="#000000" fill-rule="nonzero" fill-opacity="1" /><path clip-path="url(#clip270)" d="M1253.98 1455.09 L1242.18 1473.54 L1253.98 1473.54 L1253.98 1455.09 M1252.76 1451.02 L1258.64 1451.02 L1258.64 1473.54 L1263.57 1473.54 L1263.57 1477.43 L1258.64 1477.43 L1258.64 1485.58 L1253.98 1485.58 L1253.98 1477.43 L1238.38 1477.43 L1238.38 1472.92 L1252.76 1451.02 Z" fill="#000000" fill-rule="nonzero" fill-opacity="1" /><path clip-path="url(#clip270)" d="M1802.27 1466.44 Q1799.12 1466.44 1797.27 1468.59 Q1795.44 1470.74 1795.44 1474.49 Q1795.44 1478.22 1797.27 1480.39 Q1799.12 1482.55 1802.27 1482.55 Q1805.42 1482.55 1807.25 1480.39 Q1809.1 1478.22 1809.1 1474.49 Q1809.1 1470.74 1807.25 1468.59 Q1805.42 1466.44 1802.27 1466.44 M1811.55 1451.78 L1811.55 1456.04 Q1809.79 1455.21 1807.99 1454.77 Q1806.2 1454.33 1804.45 1454.33 Q1799.82 1454.33 1797.36 1457.45 Q1794.93 1460.58 1794.58 1466.9 Q1795.95 1464.89 1798.01 1463.82 Q1800.07 1462.73 1802.55 1462.73 Q1807.76 1462.73 1810.77 1465.9 Q1813.8 1469.05 1813.8 1474.49 Q1813.8 1479.82 1810.65 1483.03 Q1807.5 1486.25 1802.27 1486.25 Q1796.27 1486.25 1793.1 1481.67 Q1789.93 1477.06 1789.93 1468.33 Q1789.93 1460.14 1793.82 1455.28 Q1797.71 1450.39 1804.26 1450.39 Q1806.02 1450.39 1807.8 1450.74 Q1809.61 1451.09 1811.55 1451.78 Z" fill="#000000" fill-rule="nonzero" fill-opacity="1" /><path clip-path="url(#clip270)" d="M2352.76 1469.17 Q2349.42 1469.17 2347.5 1470.95 Q2345.6 1472.73 2345.6 1475.86 Q2345.6 1478.98 2347.5 1480.77 Q2349.42 1482.55 2352.76 1482.55 Q2356.09 1482.55 2358.01 1480.77 Q2359.93 1478.96 2359.93 1475.86 Q2359.93 1472.73 2358.01 1470.95 Q2356.11 1469.17 2352.76 1469.17 M2348.08 1467.18 Q2345.07 1466.44 2343.38 1464.38 Q2341.71 1462.32 2341.71 1459.35 Q2341.71 1455.21 2344.65 1452.8 Q2347.62 1450.39 2352.76 1450.39 Q2357.92 1450.39 2360.86 1452.8 Q2363.8 1455.21 2363.8 1459.35 Q2363.8 1462.32 2362.11 1464.38 Q2360.44 1466.44 2357.45 1467.18 Q2360.83 1467.96 2362.71 1470.26 Q2364.61 1472.55 2364.61 1475.86 Q2364.61 1480.88 2361.53 1483.57 Q2358.47 1486.25 2352.76 1486.25 Q2347.04 1486.25 2343.96 1483.57 Q2340.9 1480.88 2340.9 1475.86 Q2340.9 1472.55 2342.8 1470.26 Q2344.7 1467.96 2348.08 1467.18 M2346.37 1459.79 Q2346.37 1462.48 2348.03 1463.98 Q2349.72 1465.49 2352.76 1465.49 Q2355.77 1465.49 2357.45 1463.98 Q2359.17 1462.48 2359.17 1459.79 Q2359.17 1457.11 2357.45 1455.6 Q2355.77 1454.1 2352.76 1454.1 Q2349.72 1454.1 2348.03 1455.6 Q2346.37 1457.11 2346.37 1459.79 Z" fill="#000000" fill-rule="nonzero" fill-opacity="1" /><path clip-path="url(#clip270)" d="M1250.03 1522.27 L1250.03 1532.4 L1262.1 1532.4 L1262.1 1536.95 L1250.03 1536.95 L1250.03 1556.3 Q1250.03 1560.66 1251.21 1561.9 Q1252.42 1563.14 1256.08 1563.14 L1262.1 1563.14 L1262.1 1568.04 L1256.08 1568.04 Q1249.3 1568.04 1246.72 1565.53 Q1244.15 1562.98 1244.15 1556.3 L1244.15 1536.95 L1239.85 1536.95 L1239.85 1532.4 L1244.15 1532.4 L1244.15 1522.27 L1250.03 1522.27 Z" fill="#000000" fill-rule="nonzero" fill-opacity="1" /><polyline clip-path="url(#clip270)" style="stroke:#000000; stroke-linecap:round; stroke-linejoin:round; stroke-width:4; stroke-opacity:1; fill:none" points="149.191,1423.18 149.191,47.2441 "/>
<polyline clip-path="url(#clip270)" style="stroke:#000000; stroke-linecap:round; stroke-linejoin:round; stroke-width:4; stroke-opacity:1; fill:none" points="149.191,1423.18 168.089,1423.18 "/>
<polyline clip-path="url(#clip270)" style="stroke:#000000; stroke-linecap:round; stroke-linejoin:round; stroke-width:4; stroke-opacity:1; fill:none" points="149.191,1193.86 168.089,1193.86 "/>
<polyline clip-path="url(#clip270)" style="stroke:#000000; stroke-linecap:round; stroke-linejoin:round; stroke-width:4; stroke-opacity:1; fill:none" points="149.191,964.535 168.089,964.535 "/>
<polyline clip-path="url(#clip270)" style="stroke:#000000; stroke-linecap:round; stroke-linejoin:round; stroke-width:4; stroke-opacity:1; fill:none" points="149.191,735.212 168.089,735.212 "/>
<polyline clip-path="url(#clip270)" style="stroke:#000000; stroke-linecap:round; stroke-linejoin:round; stroke-width:4; stroke-opacity:1; fill:none" points="149.191,505.889 168.089,505.889 "/>
<polyline clip-path="url(#clip270)" style="stroke:#000000; stroke-linecap:round; stroke-linejoin:round; stroke-width:4; stroke-opacity:1; fill:none" points="149.191,276.567 168.089,276.567 "/>
<polyline clip-path="url(#clip270)" style="stroke:#000000; stroke-linecap:round; stroke-linejoin:round; stroke-width:4; stroke-opacity:1; fill:none" points="149.191,47.2441 168.089,47.2441 "/>
<path clip-path="url(#clip270)" d="M51.3162 1423.63 L80.992 1423.63 L80.992 1427.57 L51.3162 1427.57 L51.3162 1423.63 Z" fill="#000000" fill-rule="nonzero" fill-opacity="1" /><path clip-path="url(#clip270)" d="M101.663 1421.32 Q98.515 1421.32 96.6632 1423.47 Q94.8345 1425.62 94.8345 1429.37 Q94.8345 1433.1 96.6632 1435.27 Q98.515 1437.43 101.663 1437.43 Q104.811 1437.43 106.64 1435.27 Q108.492 1433.1 108.492 1429.37 Q108.492 1425.62 106.64 1423.47 Q104.811 1421.32 101.663 1421.32 M110.946 1406.66 L110.946 1410.92 Q109.186 1410.09 107.381 1409.65 Q105.598 1409.21 103.839 1409.21 Q99.2095 1409.21 96.7558 1412.33 Q94.3252 1415.46 93.978 1421.78 Q95.3437 1419.77 97.4039 1418.7 Q99.4641 1417.61 101.941 1417.61 Q107.149 1417.61 110.158 1420.78 Q113.191 1423.93 113.191 1429.37 Q113.191 1434.7 110.043 1437.91 Q106.895 1441.13 101.663 1441.13 Q95.6678 1441.13 92.4965 1436.55 Q89.3253 1431.94 89.3253 1423.21 Q89.3253 1415.02 93.2141 1410.16 Q97.103 1405.27 103.654 1405.27 Q105.413 1405.27 107.196 1405.62 Q109.001 1405.97 110.946 1406.66 Z" fill="#000000" fill-rule="nonzero" fill-opacity="1" /><path clip-path="url(#clip270)" d="M50.9921 1194.31 L80.6679 1194.31 L80.6679 1198.24 L50.9921 1198.24 L50.9921 1194.31 Z" fill="#000000" fill-rule="nonzero" fill-opacity="1" /><path clip-path="url(#clip270)" d="M103.608 1180.65 L91.8021 1199.1 L103.608 1199.1 L103.608 1180.65 M102.381 1176.58 L108.26 1176.58 L108.26 1199.1 L113.191 1199.1 L113.191 1202.99 L108.26 1202.99 L108.26 1211.14 L103.608 1211.14 L103.608 1202.99 L88.0058 1202.99 L88.0058 1198.48 L102.381 1176.58 Z" fill="#000000" fill-rule="nonzero" fill-opacity="1" /><path clip-path="url(#clip270)" d="M53.0754 964.986 L82.7512 964.986 L82.7512 968.921 L53.0754 968.921 L53.0754 964.986 Z" fill="#000000" fill-rule="nonzero" fill-opacity="1" /><path clip-path="url(#clip270)" d="M96.8715 977.879 L113.191 977.879 L113.191 981.815 L91.2465 981.815 L91.2465 977.879 Q93.9086 975.125 98.4919 970.495 Q103.098 965.842 104.279 964.5 Q106.524 961.977 107.404 960.241 Q108.307 958.481 108.307 956.792 Q108.307 954.037 106.362 952.301 Q104.441 950.565 101.339 950.565 Q99.14 950.565 96.6863 951.329 Q94.2558 952.093 91.478 953.643 L91.478 948.921 Q94.3021 947.787 96.7558 947.208 Q99.2095 946.63 101.246 946.63 Q106.617 946.63 109.811 949.315 Q113.006 952 113.006 956.491 Q113.006 958.62 112.196 960.542 Q111.408 962.44 109.302 965.032 Q108.723 965.704 105.621 968.921 Q102.52 972.116 96.8715 977.879 Z" fill="#000000" fill-rule="nonzero" fill-opacity="1" /><path clip-path="url(#clip270)" d="M101.246 721.011 Q97.6354 721.011 95.8067 724.575 Q94.0012 728.117 94.0012 735.247 Q94.0012 742.353 95.8067 745.918 Q97.6354 749.46 101.246 749.46 Q104.881 749.46 106.686 745.918 Q108.515 742.353 108.515 735.247 Q108.515 728.117 106.686 724.575 Q104.881 721.011 101.246 721.011 M101.246 717.307 Q107.057 717.307 110.112 721.913 Q113.191 726.497 113.191 735.247 Q113.191 743.973 110.112 748.58 Q107.057 753.163 101.246 753.163 Q95.4363 753.163 92.3576 748.58 Q89.3021 743.973 89.3021 735.247 Q89.3021 726.497 92.3576 721.913 Q95.4363 717.307 101.246 717.307 Z" fill="#000000" fill-rule="nonzero" fill-opacity="1" /><path clip-path="url(#clip270)" d="M96.8715 519.234 L113.191 519.234 L113.191 523.169 L91.2465 523.169 L91.2465 519.234 Q93.9086 516.48 98.4919 511.85 Q103.098 507.197 104.279 505.855 Q106.524 503.331 107.404 501.595 Q108.307 499.836 108.307 498.146 Q108.307 495.392 106.362 493.656 Q104.441 491.92 101.339 491.92 Q99.14 491.92 96.6863 492.683 Q94.2558 493.447 91.478 494.998 L91.478 490.276 Q94.3021 489.142 96.7558 488.563 Q99.2095 487.984 101.246 487.984 Q106.617 487.984 109.811 490.67 Q113.006 493.355 113.006 497.845 Q113.006 499.975 112.196 501.896 Q111.408 503.794 109.302 506.387 Q108.723 507.058 105.621 510.276 Q102.52 513.47 96.8715 519.234 Z" fill="#000000" fill-rule="nonzero" fill-opacity="1" /><path clip-path="url(#clip270)" d="M103.608 263.361 L91.8021 281.81 L103.608 281.81 L103.608 263.361 M102.381 259.287 L108.26 259.287 L108.26 281.81 L113.191 281.81 L113.191 285.699 L108.26 285.699 L108.26 293.847 L103.608 293.847 L103.608 285.699 L88.0058 285.699 L88.0058 281.185 L102.381 259.287 Z" fill="#000000" fill-rule="nonzero" fill-opacity="1" /><path clip-path="url(#clip270)" d="M101.663 45.3807 Q98.515 45.3807 96.6632 47.5334 Q94.8345 49.6862 94.8345 53.4362 Q94.8345 57.163 96.6632 59.3389 Q98.515 61.4917 101.663 61.4917 Q104.811 61.4917 106.64 59.3389 Q108.492 57.163 108.492 53.4362 Q108.492 49.6862 106.64 47.5334 Q104.811 45.3807 101.663 45.3807 M110.946 30.728 L110.946 34.9872 Q109.186 34.1539 107.381 33.7141 Q105.598 33.2743 103.839 33.2743 Q99.2095 33.2743 96.7558 36.3992 Q94.3252 39.5242 93.978 45.8436 Q95.3437 43.8298 97.4039 42.765 Q99.4641 41.677 101.941 41.677 Q107.149 41.677 110.158 44.8483 Q113.191 47.9964 113.191 53.4362 Q113.191 58.7602 110.043 61.9778 Q106.895 65.1954 101.663 65.1954 Q95.6678 65.1954 92.4965 60.6121 Q89.3253 56.0056 89.3253 47.2788 Q89.3253 39.0844 93.2141 34.2233 Q97.103 29.3391 103.654 29.3391 Q105.413 29.3391 107.196 29.6863 Q109.001 30.0335 110.946 30.728 Z" fill="#000000" fill-rule="nonzero" fill-opacity="1" /><polyline clip-path="url(#clip272)" style="stroke:#009af9; stroke-linecap:round; stroke-linejoin:round; stroke-width:12; stroke-opacity:1; fill:none" points="149.191,1193.86 151.945,1190.84 154.7,1185.81 157.454,1180.65 160.209,1175.49 162.963,1170.32 165.718,1165.16 168.472,1160 171.227,1154.83 173.981,1149.67 176.735,1144.51 179.49,1139.34 182.244,1134.18 184.999,1129.02 187.753,1123.85 190.508,1118.69 193.262,1113.52 196.017,1108.36 198.771,1103.2 201.526,1098.03 204.28,1092.87 207.034,1087.7 209.789,1082.54 212.543,1077.38 215.298,1072.21 218.052,1067.05 220.807,1061.88 223.561,1056.72 226.316,1051.56 229.07,1046.39 231.825,1041.23 234.579,1036.07 237.333,1030.91 240.088,1025.74 242.842,1020.58 245.597,1015.43 248.351,1010.27 251.106,1005.11 253.86,999.963 256.615,994.815 259.369,989.672 262.124,984.535 264.878,979.405 267.632,974.286 270.387,969.178 273.141,964.083 275.896,959.005 278.65,953.946 281.405,948.907 284.159,943.893 286.914,938.905 289.668,933.947 292.423,929.022 295.177,924.129 297.932,919.273 300.686,914.454 303.44,909.673 306.195,904.932 308.949,900.232 311.704,895.574 314.458,890.957 317.213,886.384 319.967,881.853 322.722,877.365 325.476,872.92 328.231,868.517 330.985,864.157 333.739,859.839 336.494,855.562 339.248,851.326 342.003,847.131 344.757,842.977 347.512,838.861 350.266,834.785 353.021,830.748 355.775,826.749 358.53,822.787 361.284,818.862 364.038,814.973 366.793,811.121 369.547,807.303 372.302,803.52 375.056,799.771 377.811,796.056 380.565,792.373 383.32,788.722 386.074,785.102 388.829,781.513 391.583,777.955 394.337,774.427 397.092,770.929 399.846,767.46 402.601,764.019 405.355,760.606 408.11,757.221 410.864,753.863 413.619,750.532 416.373,747.227 419.128,743.948 421.882,740.694 424.636,737.466 427.391,734.263 430.145,731.084 432.9,727.928 435.654,724.797 438.409,721.689 441.163,718.604 443.918,715.542 446.672,712.502 449.427,709.484 452.181,706.488 454.936,703.514 457.69,700.561 460.444,697.629 463.199,694.718 465.953,691.827 468.708,688.957 471.462,686.106 474.217,683.276 476.971,680.465 479.726,677.673 482.48,674.901 485.235,672.147 487.989,669.412 490.743,666.696 493.498,663.998 496.252,661.319 499.007,658.657 501.761,656.013 504.516,653.386 507.27,650.778 510.025,648.186 512.779,645.611 515.534,643.054 518.288,640.513 521.042,637.989 523.797,635.481 526.551,632.99 529.306,630.515 532.06,628.056 534.815,625.614 537.569,623.187 540.324,620.775 543.078,618.38 545.833,616 548.587,613.635 551.341,611.286 554.096,608.951 556.85,606.632 559.605,604.328 562.359,602.039 565.114,599.764 567.868,597.504 570.623,595.258 573.377,593.027 576.132,590.811 578.886,588.608 581.641,586.42 584.395,584.245 587.149,582.085 589.904,579.939 592.658,577.806 595.413,575.687 598.167,573.582 600.922,571.49 603.676,569.412 606.431,567.347 609.185,565.295 611.94,563.257 614.694,561.231 617.448,559.219 620.203,557.22 622.957,555.234 625.712,553.26 628.466,551.3 631.221,549.352 633.975,547.417 636.73,545.494 639.484,543.584 642.239,541.686 644.993,539.801 647.747,537.928 650.502,536.067 653.256,534.219 656.011,532.382 658.765,530.558 661.52,528.746 664.274,526.946 667.029,525.158 669.783,523.381 672.538,521.617 675.292,519.864 678.046,518.123 680.801,516.393 683.555,514.675 686.31,512.969 689.064,511.274 691.819,509.591 694.573,507.919 697.328,506.258 700.082,504.608 702.837,502.97 705.591,501.343 708.345,499.727 711.1,498.122 713.854,496.528 716.609,494.945 719.363,493.373 722.118,491.812 724.872,490.261 727.627,488.722 730.381,487.193 733.136,485.675 735.89,484.167 738.645,482.67 741.399,481.184 744.153,479.707 746.908,478.242 749.662,476.787 752.417,475.342 755.171,473.907 757.926,472.483 760.68,471.069 763.435,469.665 766.189,468.271 768.944,466.887 771.698,465.513 774.452,464.15 777.207,462.796 779.961,461.452 782.716,460.118 785.47,458.794 788.225,457.479 790.979,456.174 793.734,454.879 796.488,453.593 799.243,452.317 801.997,451.051 804.751,449.794 807.506,448.547 810.26,447.309 813.015,446.08 815.769,444.861 818.524,443.651 821.278,442.45 824.033,441.258 826.787,440.076 829.542,438.903 832.296,437.739 835.05,436.584 837.805,435.437 840.559,434.3 843.314,433.172 846.068,432.053 848.823,430.942 851.577,429.84 854.332,428.747 857.086,427.663 859.841,426.587 862.595,425.52 865.349,424.461 868.104,423.411 870.858,422.37 873.613,421.337 876.367,420.312 879.122,419.295 881.876,418.287 884.631,417.287 887.385,416.296 890.14,415.312 892.894,414.337 895.649,413.37 898.403,412.411 901.157,411.46 903.912,410.516 906.666,409.581 909.421,408.654 912.175,407.734 914.93,406.822 917.684,405.918 920.439,405.022 923.193,404.133 925.948,403.252 928.702,402.379 931.456,401.512 934.211,400.654 936.965,399.803 939.72,398.959 942.474,398.123 945.229,397.294 947.983,396.472 950.738,395.657 953.492,394.85 956.247,394.049 959.001,393.256 961.755,392.47 964.51,391.691 967.264,390.919 970.019,390.153 972.773,389.395 975.528,388.643 978.282,387.898 981.037,387.16 983.791,386.428 986.546,385.703 989.3,384.985 992.054,384.273 994.809,383.568 997.563,382.869 1000.32,382.177 1003.07,381.491 1005.83,380.811 1008.58,380.138 1011.34,379.47 1014.09,378.809 1016.84,378.155 1019.6,377.506 1022.35,376.863 1025.11,376.226 1027.86,375.595 1030.62,374.971 1033.37,374.352 1036.13,373.738 1038.88,373.131 1041.63,372.529 1044.39,371.934 1047.14,371.343 1049.9,370.759 1052.65,370.179 1055.41,369.606 1058.16,369.037 1060.92,368.475 1063.67,367.917 1066.42,367.365 1069.18,366.818 1071.93,366.276 1074.69,365.74 1077.44,365.208 1080.2,364.682 1082.95,364.161 1085.71,363.644 1088.46,363.133 1091.21,362.627 1093.97,362.125 1096.72,361.628 1099.48,361.136 1102.23,360.649 1104.99,360.166 1107.74,359.688 1110.5,359.215 1113.25,358.746 1116.01,358.281 1118.76,357.821 1121.51,357.365 1124.27,356.914 1127.02,356.467 1129.78,356.025 1132.53,355.586 1135.29,355.152 1138.04,354.722 1140.8,354.296 1143.55,353.874 1146.3,353.456 1149.06,353.042 1151.81,352.632 1154.57,352.225 1157.32,351.823 1160.08,351.424 1162.83,351.03 1165.59,350.639 1168.34,350.251 1171.09,349.867 1173.85,349.487 1176.6,349.11 1179.36,348.737 1182.11,348.368 1184.87,348.001 1187.62,347.639 1190.38,347.279 1193.13,346.923 1195.88,346.57 1198.64,346.22 1201.39,345.874 1204.15,345.53 1206.9,345.19 1209.66,344.853 1212.41,344.519 1215.17,344.187 1217.92,343.859 1220.67,343.534 1223.43,343.211 1226.18,342.892 1228.94,342.575 1231.69,342.261 1234.45,341.949 1237.2,341.641 1239.96,341.335 1242.71,341.031 1245.46,340.73 1248.22,340.432 1250.97,340.136 1253.73,339.843 1256.48,339.552 1259.24,339.263 1261.99,338.977 1264.75,338.693 1267.5,338.411 1270.25,338.131 1273.01,337.854 1275.76,337.579 1278.52,337.306 1281.27,337.035 1284.03,336.766 1286.78,336.499 1289.54,336.234 1292.29,335.971 1295.04,335.711 1297.8,335.452 1300.55,335.194 1303.31,334.939 1306.06,334.686 1308.82,334.434 1311.57,334.184 1314.33,333.936 1317.08,333.69 1319.83,333.445 1322.59,333.202 1325.34,332.961 1328.1,332.721 1330.85,332.483 1333.61,332.246 1336.36,332.011 1339.12,331.777 1341.87,331.545 1344.62,331.314 1347.38,331.085 1350.13,330.857 1352.89,330.631 1355.64,330.406 1358.4,330.182 1361.15,329.959 1363.91,329.738 1366.66,329.518 1369.41,329.299 1372.17,329.082 1374.92,328.866 1377.68,328.65 1380.43,328.436 1383.19,328.224 1385.94,328.012 1388.7,327.801 1391.45,327.591 1394.21,327.383 1396.96,327.175 1399.71,326.969 1402.47,326.763 1405.22,326.558 1407.98,326.355 1410.73,326.152 1413.49,325.95 1416.24,325.749 1419,325.549 1421.75,325.35 1424.5,325.151 1427.26,324.954 1430.01,324.757 1432.77,324.561 1435.52,324.365 1438.28,324.171 1441.03,323.977 1443.79,323.784 1446.54,323.591 1449.29,323.4 1452.05,323.208 1454.8,323.018 1457.56,322.828 1460.31,322.639 1463.07,322.45 1465.82,322.263 1468.58,322.075 1471.33,321.888 1474.08,321.702 1476.84,321.516 1479.59,321.331 1482.35,321.146 1485.1,320.962 1487.86,320.778 1490.61,320.595 1493.37,320.412 1496.12,320.23 1498.87,320.048 1501.63,319.867 1504.38,319.686 1507.14,319.505 1509.89,319.325 1512.65,319.145 1515.4,318.966 1518.16,318.787 1520.91,318.608 1523.66,318.43 1526.42,318.252 1529.17,318.075 1531.93,317.897 1534.68,317.721 1537.44,317.544 1540.19,317.368 1542.95,317.192 1545.7,317.016 1548.45,316.841 1551.21,316.666 1553.96,316.491 1556.72,316.316 1559.47,316.142 1562.23,315.968 1564.98,315.794 1567.74,315.621 1570.49,315.448 1573.24,315.274 1576,315.102 1578.75,314.929 1581.51,314.757 1584.26,314.584 1587.02,314.412 1589.77,314.241 1592.53,314.069 1595.28,313.898 1598.03,313.726 1600.79,313.555 1603.54,313.384 1606.3,313.213 1609.05,313.043 1611.81,312.872 1614.56,312.702 1617.32,312.532 1620.07,312.362 1622.82,312.192 1625.58,312.023 1628.33,311.853 1631.09,311.684 1633.84,311.514 1636.6,311.345 1639.35,311.176 1642.11,311.007 1644.86,310.838 1647.62,310.669 1650.37,310.501 1653.12,310.332 1655.88,310.164 1658.63,309.996 1661.39,309.827 1664.14,309.659 1666.9,309.491 1669.65,309.323 1672.41,309.155 1675.16,308.987 1677.91,308.82 1680.67,308.652 1683.42,308.484 1686.18,308.317 1688.93,308.149 1691.69,307.982 1694.44,307.815 1697.2,307.647 1699.95,307.48 1702.7,307.313 1705.46,307.146 1708.21,306.979 1710.97,306.812 1713.72,306.645 1716.48,306.478 1719.23,306.311 1721.99,306.144 1724.74,305.977 1727.49,305.81 1730.25,305.644 1733,305.477 1735.76,305.31 1738.51,305.143 1741.27,304.977 1744.02,304.81 1746.78,304.644 1749.53,304.477 1752.28,304.31 1755.04,304.144 1757.79,303.977 1760.55,303.811 1763.3,303.644 1766.06,303.478 1768.81,303.311 1771.57,303.145 1774.32,302.978 1777.07,302.812 1779.83,302.645 1782.58,302.479 1785.34,302.313 1788.09,302.146 1790.85,301.98 1793.6,301.813 1796.36,301.647 1799.11,301.481 1801.86,301.314 1804.62,301.148 1807.37,300.982 1810.13,300.815 1812.88,300.649 1815.64,300.483 1818.39,300.316 1821.15,300.15 1823.9,299.984 1826.65,299.817 1829.41,299.651 1832.16,299.485 1834.92,299.318 1837.67,299.152 1840.43,298.986 1843.18,298.819 1845.94,298.653 1848.69,298.487 1851.44,298.321 1854.2,298.154 1856.95,297.988 1859.71,297.822 1862.46,297.656 1865.22,297.49 1867.97,297.323 1870.73,297.157 1873.48,296.991 1876.23,296.825 1878.99,296.659 1881.74,296.493 1884.5,296.327 1887.25,296.161 1890.01,295.994 1892.76,295.828 1895.52,295.662 1898.27,295.496 1901.03,295.33 1903.78,295.164 1906.53,294.998 1909.29,294.832 1912.04,294.666 1914.8,294.499 1917.55,294.333 1920.31,294.167 1923.06,294.001 1925.82,293.835 1928.57,293.669 1931.32,293.503 1934.08,293.337 1936.83,293.171 1939.59,293.005 1942.34,292.839 1945.1,292.673 1947.85,292.506 1950.61,292.34 1953.36,292.174 1956.11,292.008 1958.87,291.842 1961.62,291.676 1964.38,291.51 1967.13,291.344 1969.89,291.178 1972.64,291.012 1975.4,290.846 1978.15,290.68 1980.9,290.513 1983.66,290.347 1986.41,290.181 1989.17,290.015 1991.92,289.849 1994.68,289.683 1997.43,289.517 2000.19,289.351 2002.94,289.185 2005.69,289.019 2008.45,288.853 2011.2,288.687 2013.96,288.521 2016.71,288.354 2019.47,288.188 2022.22,288.022 2024.98,287.856 2027.73,287.69 2030.48,287.524 2033.24,287.358 2035.99,287.192 2038.75,287.026 2041.5,286.86 2044.26,286.694 2047.01,286.528 2049.77,286.361 2052.52,286.195 2055.27,286.029 2058.03,285.863 2060.78,285.697 2063.54,285.531 2066.29,285.365 2069.05,285.199 2071.8,285.033 2074.56,284.867 2077.31,284.701 2080.06,284.535 2082.82,284.368 2085.57,284.202 2088.33,284.036 2091.08,283.87 2093.84,283.704 2096.59,283.538 2099.35,283.372 2102.1,283.206 2104.85,283.04 2107.61,282.874 2110.36,282.707 2113.12,282.541 2115.87,282.375 2118.63,282.209 2121.38,282.043 2124.14,281.877 2126.89,281.711 2129.64,281.545 2132.4,281.379 2135.15,281.213 2137.91,281.047 2140.66,280.88 2143.42,280.714 2146.17,280.548 2148.93,280.382 2151.68,280.216 2154.44,280.05 2157.19,279.884 2159.94,279.718 2162.7,279.551 2165.45,279.385 2168.21,279.219 2170.96,279.053 2173.72,278.887 2176.47,278.721 2179.23,278.555 2181.98,278.389 2184.73,278.223 2187.49,278.056 2190.24,277.89 2193,277.724 2195.75,277.558 2198.51,277.392 2201.26,277.226 2204.02,277.06 2206.77,276.894 2209.52,276.727 2212.28,276.561 2215.03,276.395 2217.79,276.229 2220.54,276.063 2223.3,275.897 2226.05,275.731 2228.81,275.564 2231.56,275.398 2234.31,275.232 2237.07,275.066 2239.82,274.9 2242.58,274.734 2245.33,274.567 2248.09,274.401 2250.84,274.235 2253.6,274.069 2256.35,273.903 2259.1,273.737 2261.86,273.57 2264.61,273.404 2267.37,273.238 2270.12,273.072 2272.88,272.906 2275.63,272.739 2278.39,272.573 2281.14,272.407 2283.89,272.241 2286.65,272.075 2289.4,271.908 2292.16,271.742 2294.91,271.576 2297.67,271.41 2300.42,271.243 2303.18,271.077 2305.93,270.911 2308.68,270.745 2311.44,270.578 2314.19,270.412 2316.95,270.246 2319.7,270.08 2322.46,269.913 2325.21,269.747 2327.97,269.581 2330.72,269.414 2333.47,269.248 2336.23,269.082 2338.98,268.915 2341.74,268.749 2344.49,268.583 2347.25,268.416 2350,268.25 2352.76,268.084 "/>
<polyline clip-path="url(#clip272)" style="stroke:#e26f46; stroke-linecap:round; stroke-linejoin:round; stroke-width:12; stroke-opacity:1; fill:none" points="149.191,735.212 151.945,265.762 154.7,219.82 157.454,218.895 160.209,218.895 162.963,218.895 165.718,218.892 168.472,218.883 171.227,218.87 173.981,218.857 176.735,218.844 179.49,218.834 182.244,218.826 184.999,218.821 187.753,218.817 190.508,218.814 193.262,218.813 196.017,218.812 198.771,218.811 201.526,218.811 204.28,218.811 207.034,218.811 209.789,218.812 212.543,218.813 215.298,218.818 218.052,218.824 220.807,218.832 223.561,218.844 226.316,218.862 229.07,218.887 231.825,218.924 234.579,218.976 237.333,219.048 240.088,219.145 242.842,219.274 245.597,219.443 248.351,219.658 251.106,219.928 253.86,220.255 256.615,220.663 259.369,221.186 262.124,221.856 264.878,222.701 267.632,223.746 270.387,225.01 273.141,226.512 275.896,228.264 278.65,230.275 281.405,232.551 284.159,235.094 286.914,237.902 289.668,240.964 292.423,244.254 295.177,247.743 297.932,251.405 300.686,255.216 303.44,259.152 306.195,263.19 308.949,267.31 311.704,271.494 314.458,275.724 317.213,279.983 319.967,284.258 322.722,288.535 325.476,292.802 328.231,297.05 330.985,301.268 333.739,305.449 336.494,309.591 339.248,313.688 342.003,317.739 344.757,321.74 347.512,325.688 350.266,329.581 353.021,333.417 355.775,337.196 358.53,340.914 361.284,344.573 364.038,348.17 366.793,351.707 369.547,355.183 372.302,358.598 375.056,361.955 377.811,365.252 380.565,368.493 383.32,371.68 386.074,374.813 388.829,377.893 391.583,380.921 394.337,383.898 397.092,386.825 399.846,389.704 402.601,392.535 405.355,395.321 408.11,398.061 410.864,400.758 413.619,403.413 416.373,406.026 419.128,408.599 421.882,411.132 424.636,413.628 427.391,416.087 430.145,418.509 432.9,420.897 435.654,423.251 438.409,425.571 441.163,427.86 443.918,430.117 446.672,432.345 449.427,434.543 452.181,436.712 454.936,438.854 457.69,440.969 460.444,443.058 463.199,445.122 465.953,447.161 468.708,449.175 471.462,451.166 474.217,453.135 476.971,455.081 479.726,457.005 482.48,458.909 485.235,460.792 487.989,462.655 490.743,464.498 493.498,466.323 496.252,468.129 499.007,469.918 501.761,471.689 504.516,473.443 507.27,475.181 510.025,476.902 512.779,478.608 515.534,480.299 518.288,481.974 521.042,483.635 523.797,485.282 526.551,486.915 529.306,488.535 532.06,490.141 534.815,491.734 537.569,493.315 540.324,494.883 543.078,496.439 545.833,497.983 548.587,499.515 551.341,501.036 554.096,502.546 556.85,504.045 559.605,505.533 562.359,507.011 565.114,508.478 567.868,509.936 570.623,511.383 573.377,512.821 576.132,514.249 578.886,515.668 581.641,517.078 584.395,518.479 587.149,519.871 589.904,521.254 592.658,522.629 595.413,523.995 598.167,525.354 600.922,526.704 603.676,528.046 606.431,529.38 609.185,530.707 611.94,532.026 614.694,533.338 617.448,534.642 620.203,535.94 622.957,537.23 625.712,538.513 628.466,539.789 631.221,541.059 633.975,542.322 636.73,543.578 639.484,544.828 642.239,546.071 644.993,547.308 647.747,548.539 650.502,549.764 653.256,550.982 656.011,552.194 658.765,553.401 661.52,554.601 664.274,555.796 667.029,556.985 669.783,558.168 672.538,559.345 675.292,560.517 678.046,561.683 680.801,562.844 683.555,564 686.31,565.15 689.064,566.295 691.819,567.434 694.573,568.568 697.328,569.697 700.082,570.821 702.837,571.939 705.591,573.053 708.345,574.161 711.1,575.265 713.854,576.363 716.609,577.457 719.363,578.545 722.118,579.629 724.872,580.708 727.627,581.782 730.381,582.851 733.136,583.916 735.89,584.976 738.645,586.031 741.399,587.081 744.153,588.127 746.908,589.168 749.662,590.205 752.417,591.237 755.171,592.265 757.926,593.288 760.68,594.306 763.435,595.32 766.189,596.33 768.944,597.335 771.698,598.335 774.452,599.332 777.207,600.323 779.961,601.311 782.716,602.294 785.47,603.273 788.225,604.247 790.979,605.217 793.734,606.183 796.488,607.144 799.243,608.101 801.997,609.054 804.751,610.002 807.506,610.946 810.26,611.886 813.015,612.821 815.769,613.752 818.524,614.679 821.278,615.601 824.033,616.52 826.787,617.434 829.542,618.343 832.296,619.249 835.05,620.15 837.805,621.047 840.559,621.939 843.314,622.828 846.068,623.712 848.823,624.592 851.577,625.467 854.332,626.338 857.086,627.205 859.841,628.068 862.595,628.927 865.349,629.781 868.104,630.631 870.858,631.476 873.613,632.317 876.367,633.154 879.122,633.987 881.876,634.815 884.631,635.639 887.385,636.459 890.14,637.274 892.894,638.085 895.649,638.892 898.403,639.694 901.157,640.493 903.912,641.286 906.666,642.076 909.421,642.861 912.175,643.641 914.93,644.418 917.684,645.19 920.439,645.957 923.193,646.72 925.948,647.479 928.702,648.234 931.456,648.984 934.211,649.729 936.965,650.47 939.72,651.207 942.474,651.94 945.229,652.668 947.983,653.392 950.738,654.111 953.492,654.826 956.247,655.536 959.001,656.242 961.755,656.943 964.51,657.64 967.264,658.333 970.019,659.021 972.773,659.705 975.528,660.384 978.282,661.059 981.037,661.729 983.791,662.394 986.546,663.056 989.3,663.713 992.054,664.365 994.809,665.012 997.563,665.656 1000.32,666.294 1003.07,666.928 1005.83,667.558 1008.58,668.183 1011.34,668.804 1014.09,669.419 1016.84,670.031 1019.6,670.638 1022.35,671.24 1025.11,671.837 1027.86,672.431 1030.62,673.019 1033.37,673.603 1036.13,674.182 1038.88,674.757 1041.63,675.327 1044.39,675.893 1047.14,676.454 1049.9,677.01 1052.65,677.562 1055.41,678.109 1058.16,678.652 1060.92,679.19 1063.67,679.724 1066.42,680.253 1069.18,680.777 1071.93,681.297 1074.69,681.812 1077.44,682.323 1080.2,682.829 1082.95,683.331 1085.71,683.828 1088.46,684.321 1091.21,684.809 1093.97,685.292 1096.72,685.771 1099.48,686.246 1102.23,686.715 1104.99,687.181 1107.74,687.642 1110.5,688.098 1113.25,688.55 1116.01,688.998 1118.76,689.441 1121.51,689.879 1124.27,690.313 1127.02,690.743 1129.78,691.168 1132.53,691.589 1135.29,692.005 1138.04,692.417 1140.8,692.825 1143.55,693.228 1146.3,693.627 1149.06,694.022 1151.81,694.412 1154.57,694.798 1157.32,695.18 1160.08,695.557 1162.83,695.93 1165.59,696.299 1168.34,696.664 1171.09,697.024 1173.85,697.381 1176.6,697.733 1179.36,698.081 1182.11,698.424 1184.87,698.764 1187.62,699.1 1190.38,699.431 1193.13,699.758 1195.88,700.082 1198.64,700.401 1201.39,700.716 1204.15,701.027 1206.9,701.335 1209.66,701.638 1212.41,701.938 1215.17,702.233 1217.92,702.525 1220.67,702.813 1223.43,703.097 1226.18,703.377 1228.94,703.653 1231.69,703.926 1234.45,704.195 1237.2,704.46 1239.96,704.722 1242.71,704.98 1245.46,705.234 1248.22,705.485 1250.97,705.732 1253.73,705.976 1256.48,706.216 1259.24,706.453 1261.99,706.686 1264.75,706.916 1267.5,707.142 1270.25,707.365 1273.01,707.585 1275.76,707.801 1278.52,708.014 1281.27,708.224 1284.03,708.431 1286.78,708.634 1289.54,708.834 1292.29,709.031 1295.04,709.225 1297.8,709.416 1300.55,709.603 1303.31,709.788 1306.06,709.97 1308.82,710.149 1311.57,710.324 1314.33,710.497 1317.08,710.667 1319.83,710.834 1322.59,710.999 1325.34,711.16 1328.1,711.319 1330.85,711.475 1333.61,711.629 1336.36,711.78 1339.12,711.928 1341.87,712.074 1344.62,712.217 1347.38,712.358 1350.13,712.496 1352.89,712.632 1355.64,712.765 1358.4,712.896 1361.15,713.024 1363.91,713.151 1366.66,713.275 1369.41,713.396 1372.17,713.516 1374.92,713.633 1377.68,713.748 1380.43,713.861 1383.19,713.971 1385.94,714.08 1388.7,714.187 1391.45,714.291 1394.21,714.394 1396.96,714.494 1399.71,714.593 1402.47,714.689 1405.22,714.784 1407.98,714.877 1410.73,714.968 1413.49,715.057 1416.24,715.145 1419,715.23 1421.75,715.314 1424.5,715.396 1427.26,715.477 1430.01,715.555 1432.77,715.633 1435.52,715.708 1438.28,715.782 1441.03,715.854 1443.79,715.925 1446.54,715.995 1449.29,716.062 1452.05,716.129 1454.8,716.194 1457.56,716.257 1460.31,716.319 1463.07,716.38 1465.82,716.439 1468.58,716.497 1471.33,716.554 1474.08,716.609 1476.84,716.663 1479.59,716.716 1482.35,716.768 1485.1,716.818 1487.86,716.868 1490.61,716.916 1493.37,716.963 1496.12,717.009 1498.87,717.053 1501.63,717.097 1504.38,717.14 1507.14,717.181 1509.89,717.222 1512.65,717.262 1515.4,717.3 1518.16,717.338 1520.91,717.375 1523.66,717.411 1526.42,717.446 1529.17,717.48 1531.93,717.513 1534.68,717.546 1537.44,717.577 1540.19,717.608 1542.95,717.638 1545.7,717.667 1548.45,717.696 1551.21,717.724 1553.96,717.751 1556.72,717.777 1559.47,717.803 1562.23,717.828 1564.98,717.852 1567.74,717.876 1570.49,717.899 1573.24,717.921 1576,717.943 1578.75,717.965 1581.51,717.986 1584.26,718.006 1587.02,718.026 1589.77,718.045 1592.53,718.063 1595.28,718.081 1598.03,718.099 1600.79,718.116 1603.54,718.133 1606.3,718.149 1609.05,718.165 1611.81,718.18 1614.56,718.195 1617.32,718.209 1620.07,718.223 1622.82,718.237 1625.58,718.25 1628.33,718.263 1631.09,718.275 1633.84,718.287 1636.6,718.298 1639.35,718.31 1642.11,718.321 1644.86,718.331 1647.62,718.341 1650.37,718.351 1653.12,718.361 1655.88,718.37 1658.63,718.379 1661.39,718.387 1664.14,718.396 1666.9,718.404 1669.65,718.412 1672.41,718.419 1675.16,718.426 1677.91,718.433 1680.67,718.44 1683.42,718.447 1686.18,718.453 1688.93,718.459 1691.69,718.465 1694.44,718.471 1697.2,718.476 1699.95,718.481 1702.7,718.486 1705.46,718.491 1708.21,718.496 1710.97,718.5 1713.72,718.505 1716.48,718.509 1719.23,718.513 1721.99,718.517 1724.74,718.52 1727.49,718.524 1730.25,718.527 1733,718.531 1735.76,718.534 1738.51,718.537 1741.27,718.54 1744.02,718.543 1746.78,718.545 1749.53,718.548 1752.28,718.55 1755.04,718.553 1757.79,718.555 1760.55,718.557 1763.3,718.559 1766.06,718.561 1768.81,718.563 1771.57,718.565 1774.32,718.567 1777.07,718.569 1779.83,718.57 1782.58,718.572 1785.34,718.574 1788.09,718.575 1790.85,718.576 1793.6,718.578 1796.36,718.579 1799.11,718.58 1801.86,718.582 1804.62,718.583 1807.37,718.584 1810.13,718.585 1812.88,718.586 1815.64,718.587 1818.39,718.588 1821.15,718.589 1823.9,718.59 1826.65,718.59 1829.41,718.591 1832.16,718.592 1834.92,718.593 1837.67,718.593 1840.43,718.594 1843.18,718.595 1845.94,718.595 1848.69,718.596 1851.44,718.597 1854.2,718.597 1856.95,718.598 1859.71,718.598 1862.46,718.598 1865.22,718.599 1867.97,718.599 1870.73,718.599 1873.48,718.6 1876.23,718.6 1878.99,718.6 1881.74,718.601 1884.5,718.601 1887.25,718.601 1890.01,718.601 1892.76,718.601 1895.52,718.602 1898.27,718.602 1901.03,718.602 1903.78,718.602 1906.53,718.602 1909.29,718.602 1912.04,718.602 1914.8,718.603 1917.55,718.603 1920.31,718.603 1923.06,718.603 1925.82,718.603 1928.57,718.603 1931.32,718.603 1934.08,718.603 1936.83,718.603 1939.59,718.603 1942.34,718.603 1945.1,718.603 1947.85,718.603 1950.61,718.603 1953.36,718.603 1956.11,718.603 1958.87,718.604 1961.62,718.604 1964.38,718.604 1967.13,718.604 1969.89,718.604 1972.64,718.604 1975.4,718.604 1978.15,718.604 1980.9,718.604 1983.66,718.604 1986.41,718.604 1989.17,718.604 1991.92,718.604 1994.68,718.604 1997.43,718.604 2000.19,718.604 2002.94,718.604 2005.69,718.604 2008.45,718.603 2011.2,718.603 2013.96,718.603 2016.71,718.603 2019.47,718.603 2022.22,718.603 2024.98,718.603 2027.73,718.603 2030.48,718.603 2033.24,718.603 2035.99,718.603 2038.75,718.603 2041.5,718.603 2044.26,718.603 2047.01,718.603 2049.77,718.603 2052.52,718.603 2055.27,718.603 2058.03,718.603 2060.78,718.603 2063.54,718.603 2066.29,718.603 2069.05,718.603 2071.8,718.603 2074.56,718.603 2077.31,718.603 2080.06,718.603 2082.82,718.603 2085.57,718.603 2088.33,718.603 2091.08,718.603 2093.84,718.603 2096.59,718.603 2099.35,718.603 2102.1,718.603 2104.85,718.603 2107.61,718.603 2110.36,718.603 2113.12,718.602 2115.87,718.602 2118.63,718.602 2121.38,718.602 2124.14,718.602 2126.89,718.602 2129.64,718.602 2132.4,718.602 2135.15,718.602 2137.91,718.602 2140.66,718.602 2143.42,718.602 2146.17,718.602 2148.93,718.602 2151.68,718.602 2154.44,718.602 2157.19,718.602 2159.94,718.601 2162.7,718.601 2165.45,718.601 2168.21,718.601 2170.96,718.601 2173.72,718.601 2176.47,718.601 2179.23,718.601 2181.98,718.601 2184.73,718.6 2187.49,718.6 2190.24,718.6 2193,718.6 2195.75,718.6 2198.51,718.6 2201.26,718.599 2204.02,718.599 2206.77,718.599 2209.52,718.599 2212.28,718.599 2215.03,718.598 2217.79,718.598 2220.54,718.598 2223.3,718.598 2226.05,718.597 2228.81,718.597 2231.56,718.597 2234.31,718.597 2237.07,718.596 2239.82,718.596 2242.58,718.596 2245.33,718.595 2248.09,718.595 2250.84,718.595 2253.6,718.594 2256.35,718.594 2259.1,718.594 2261.86,718.593 2264.61,718.593 2267.37,718.593 2270.12,718.592 2272.88,718.592 2275.63,718.591 2278.39,718.591 2281.14,718.591 2283.89,718.59 2286.65,718.59 2289.4,718.589 2292.16,718.589 2294.91,718.588 2297.67,718.588 2300.42,718.587 2303.18,718.587 2305.93,718.586 2308.68,718.586 2311.44,718.585 2314.19,718.585 2316.95,718.584 2319.7,718.583 2322.46,718.583 2325.21,718.582 2327.97,718.582 2330.72,718.581 2333.47,718.58 2336.23,718.58 2338.98,718.579 2341.74,718.578 2344.49,718.578 2347.25,718.577 2350,718.576 2352.76,718.575 "/>
<polyline clip-path="url(#clip272)" style="stroke:#3da44d; stroke-linecap:round; stroke-linejoin:round; stroke-width:12; stroke-opacity:1; fill:none" points="149.191,-339.101 151.945,161.822 154.7,553.85 157.454,716.579 160.209,740.651 162.963,727.066 165.718,715.389 168.472,710.283 171.227,709.03 173.981,709.519 176.735,710.782 179.49,712.444 182.244,714.375 184.999,716.534 187.753,718.905 190.508,721.479 193.262,724.246 196.017,727.193 198.771,730.305 201.526,733.566 204.28,736.957 207.034,740.461 209.789,744.06 212.543,747.738 215.298,751.481 218.052,755.277 220.807,759.119 223.561,763.004 226.316,766.936 229.07,770.925 231.825,774.99 234.579,779.157 237.333,783.461 240.088,787.943 242.842,792.651 245.597,797.635 248.351,802.94 251.106,808.603 253.86,814.645 256.615,821.06 259.369,827.816 262.124,834.847 264.878,842.057 267.632,849.329 270.387,856.531 273.141,863.531 275.896,870.208 278.65,876.462 281.405,882.218 284.159,887.429 286.914,892.075 289.668,896.155 292.423,899.687 295.177,902.702 297.932,905.235 300.686,907.33 303.44,909.028 306.195,910.372 308.949,911.4 311.704,912.149 314.458,912.654 317.213,912.944 319.967,913.047 322.722,912.987 325.476,912.785 328.231,912.46 330.985,912.029 333.739,911.507 336.494,910.907 339.248,910.24 342.003,909.516 344.757,908.744 347.512,907.931 350.266,907.086 353.021,906.213 355.775,905.318 358.53,904.407 361.284,903.482 364.038,902.548 366.793,901.609 369.547,900.666 372.302,899.722 375.056,898.781 377.811,897.842 380.565,896.909 383.32,895.983 386.074,895.064 388.829,894.154 391.583,893.255 394.337,892.366 397.092,891.489 399.846,890.624 402.601,889.771 405.355,888.931 408.11,888.104 410.864,887.291 413.619,886.492 416.373,885.706 419.128,884.934 421.882,884.175 424.636,883.431 427.391,882.7 430.145,881.983 432.9,881.28 435.654,880.59 438.409,879.913 441.163,879.249 443.918,878.599 446.672,877.961 449.427,877.336 452.181,876.723 454.936,876.122 457.69,875.534 460.444,874.957 463.199,874.391 465.953,873.837 468.708,873.294 471.462,872.762 474.217,872.24 476.971,871.728 479.726,871.227 482.48,870.735 485.235,870.253 487.989,869.781 490.743,869.317 493.498,868.863 496.252,868.417 499.007,867.98 501.761,867.551 504.516,867.131 507.27,866.718 510.025,866.313 512.779,865.915 515.534,865.525 518.288,865.142 521.042,864.766 523.797,864.396 526.551,864.033 529.306,863.677 532.06,863.327 534.815,862.983 537.569,862.644 540.324,862.312 543.078,861.985 545.833,861.664 548.587,861.348 551.341,861.037 554.096,860.731 556.85,860.43 559.605,860.133 562.359,859.842 565.114,859.555 567.868,859.272 570.623,858.993 573.377,858.719 576.132,858.448 578.886,858.182 581.641,857.919 584.395,857.66 587.149,857.405 589.904,857.153 592.658,856.904 595.413,856.659 598.167,856.417 600.922,856.177 603.676,855.941 606.431,855.708 609.185,855.478 611.94,855.251 614.694,855.026 617.448,854.804 620.203,854.584 622.957,854.367 625.712,854.152 628.466,853.939 631.221,853.729 633.975,853.521 636.73,853.314 639.484,853.11 642.239,852.908 644.993,852.708 647.747,852.51 650.502,852.313 653.256,852.118 656.011,851.925 658.765,851.733 661.52,851.543 664.274,851.354 667.029,851.167 669.783,850.982 672.538,850.797 675.292,850.614 678.046,850.432 680.801,850.252 683.555,850.072 686.31,849.894 689.064,849.716 691.819,849.54 694.573,849.365 697.328,849.19 700.082,849.017 702.837,848.844 705.591,848.673 708.345,848.502 711.1,848.331 713.854,848.162 716.609,847.993 719.363,847.825 722.118,847.657 724.872,847.49 727.627,847.324 730.381,847.158 733.136,846.992 735.89,846.827 738.645,846.662 741.399,846.498 744.153,846.334 746.908,846.17 749.662,846.007 752.417,845.844 755.171,845.681 757.926,845.518 760.68,845.355 763.435,845.193 766.189,845.031 768.944,844.869 771.698,844.706 774.452,844.544 777.207,844.382 779.961,844.22 782.716,844.058 785.47,843.896 788.225,843.733 790.979,843.571 793.734,843.408 796.488,843.246 799.243,843.083 801.997,842.92 804.751,842.756 807.506,842.593 810.26,842.429 813.015,842.265 815.769,842.1 818.524,841.935 821.278,841.77 824.033,841.605 826.787,841.439 829.542,841.272 832.296,841.106 835.05,840.938 837.805,840.771 840.559,840.602 843.314,840.434 846.068,840.264 848.823,840.094 851.577,839.924 854.332,839.753 857.086,839.581 859.841,839.409 862.595,839.236 865.349,839.063 868.104,838.888 870.858,838.713 873.613,838.538 876.367,838.361 879.122,838.184 881.876,838.006 884.631,837.828 887.385,837.648 890.14,837.468 892.894,837.287 895.649,837.105 898.403,836.922 901.157,836.738 903.912,836.554 906.666,836.368 909.421,836.182 912.175,835.995 914.93,835.806 917.684,835.617 920.439,835.427 923.193,835.236 925.948,835.044 928.702,834.851 931.456,834.656 934.211,834.461 936.965,834.265 939.72,834.067 942.474,833.869 945.229,833.67 947.983,833.469 950.738,833.267 953.492,833.064 956.247,832.861 959.001,832.655 961.755,832.449 964.51,832.242 967.264,832.033 970.019,831.823 972.773,831.612 975.528,831.4 978.282,831.187 981.037,830.972 983.791,830.757 986.546,830.54 989.3,830.321 992.054,830.102 994.809,829.881 997.563,829.659 1000.32,829.436 1003.07,829.211 1005.83,828.985 1008.58,828.758 1011.34,828.53 1014.09,828.3 1016.84,828.069 1019.6,827.836 1022.35,827.603 1025.11,827.368 1027.86,827.132 1030.62,826.894 1033.37,826.655 1036.13,826.415 1038.88,826.173 1041.63,825.93 1044.39,825.686 1047.14,825.44 1049.9,825.193 1052.65,824.945 1055.41,824.695 1058.16,824.444 1060.92,824.191 1063.67,823.938 1066.42,823.682 1069.18,823.426 1071.93,823.168 1074.69,822.909 1077.44,822.648 1080.2,822.386 1082.95,822.123 1085.71,821.859 1088.46,821.593 1091.21,821.326 1093.97,821.057 1096.72,820.787 1099.48,820.516 1102.23,820.243 1104.99,819.969 1107.74,819.694 1110.5,819.418 1113.25,819.14 1116.01,818.861 1118.76,818.581 1121.51,818.299 1124.27,818.016 1127.02,817.732 1129.78,817.446 1132.53,817.16 1135.29,816.872 1138.04,816.583 1140.8,816.292 1143.55,816.001 1146.3,815.708 1149.06,815.414 1151.81,815.119 1154.57,814.822 1157.32,814.525 1160.08,814.226 1162.83,813.926 1165.59,813.625 1168.34,813.323 1171.09,813.02 1173.85,812.715 1176.6,812.41 1179.36,812.104 1182.11,811.796 1184.87,811.487 1187.62,811.178 1190.38,810.867 1193.13,810.555 1195.88,810.243 1198.64,809.929 1201.39,809.615 1204.15,809.299 1206.9,808.983 1209.66,808.665 1212.41,808.347 1215.17,808.028 1217.92,807.708 1220.67,807.387 1223.43,807.066 1226.18,806.743 1228.94,806.42 1231.69,806.096 1234.45,805.771 1237.2,805.445 1239.96,805.119 1242.71,804.792 1245.46,804.464 1248.22,804.136 1250.97,803.807 1253.73,803.477 1256.48,803.147 1259.24,802.816 1261.99,802.485 1264.75,802.153 1267.5,801.82 1270.25,801.487 1273.01,801.154 1275.76,800.82 1278.52,800.485 1281.27,800.15 1284.03,799.815 1286.78,799.479 1289.54,799.143 1292.29,798.807 1295.04,798.47 1297.8,798.133 1300.55,797.795 1303.31,797.457 1306.06,797.119 1308.82,796.781 1311.57,796.443 1314.33,796.104 1317.08,795.765 1319.83,795.426 1322.59,795.087 1325.34,794.748 1328.1,794.409 1330.85,794.069 1333.61,793.73 1336.36,793.39 1339.12,793.051 1341.87,792.711 1344.62,792.372 1347.38,792.032 1350.13,791.693 1352.89,791.354 1355.64,791.015 1358.4,790.676 1361.15,790.337 1363.91,789.998 1366.66,789.659 1369.41,789.321 1372.17,788.983 1374.92,788.645 1377.68,788.307 1380.43,787.97 1383.19,787.633 1385.94,787.296 1388.7,786.96 1391.45,786.624 1394.21,786.288 1396.96,785.952 1399.71,785.618 1402.47,785.283 1405.22,784.949 1407.98,784.615 1410.73,784.282 1413.49,783.95 1416.24,783.618 1419,783.286 1421.75,782.955 1424.5,782.624 1427.26,782.294 1430.01,781.965 1432.77,781.636 1435.52,781.308 1438.28,780.981 1441.03,780.654 1443.79,780.328 1446.54,780.002 1449.29,779.678 1452.05,779.354 1454.8,779.03 1457.56,778.708 1460.31,778.386 1463.07,778.065 1465.82,777.744 1468.58,777.425 1471.33,777.106 1474.08,776.788 1476.84,776.471 1479.59,776.155 1482.35,775.84 1485.1,775.525 1487.86,775.212 1490.61,774.899 1493.37,774.587 1496.12,774.276 1498.87,773.966 1501.63,773.657 1504.38,773.349 1507.14,773.042 1509.89,772.736 1512.65,772.431 1515.4,772.127 1518.16,771.823 1520.91,771.521 1523.66,771.22 1526.42,770.92 1529.17,770.621 1531.93,770.322 1534.68,770.025 1537.44,769.729 1540.19,769.434 1542.95,769.14 1545.7,768.848 1548.45,768.556 1551.21,768.265 1553.96,767.976 1556.72,767.687 1559.47,767.4 1562.23,767.114 1564.98,766.829 1567.74,766.544 1570.49,766.262 1573.24,765.98 1576,765.699 1578.75,765.42 1581.51,765.141 1584.26,764.864 1587.02,764.588 1589.77,764.313 1592.53,764.04 1595.28,763.767 1598.03,763.496 1600.79,763.226 1603.54,762.957 1606.3,762.689 1609.05,762.422 1611.81,762.157 1614.56,761.893 1617.32,761.63 1620.07,761.368 1622.82,761.107 1625.58,760.848 1628.33,760.589 1631.09,760.332 1633.84,760.076 1636.6,759.822 1639.35,759.568 1642.11,759.316 1644.86,759.065 1647.62,758.815 1650.37,758.566 1653.12,758.319 1655.88,758.073 1658.63,757.828 1661.39,757.584 1664.14,757.341 1666.9,757.1 1669.65,756.86 1672.41,756.621 1675.16,756.383 1677.91,756.146 1680.67,755.911 1683.42,755.677 1686.18,755.444 1688.93,755.212 1691.69,754.981 1694.44,754.752 1697.2,754.523 1699.95,754.296 1702.7,754.071 1705.46,753.846 1708.21,753.623 1710.97,753.4 1713.72,753.179 1716.48,752.959 1719.23,752.741 1721.99,752.523 1724.74,752.307 1727.49,752.091 1730.25,751.877 1733,751.664 1735.76,751.453 1738.51,751.242 1741.27,751.033 1744.02,750.824 1746.78,750.617 1749.53,750.411 1752.28,750.206 1755.04,750.003 1757.79,749.8 1760.55,749.599 1763.3,749.398 1766.06,749.199 1768.81,749.001 1771.57,748.804 1774.32,748.609 1777.07,748.414 1779.83,748.22 1782.58,748.028 1785.34,747.836 1788.09,747.646 1790.85,747.457 1793.6,747.269 1796.36,747.082 1799.11,746.896 1801.86,746.711 1804.62,746.527 1807.37,746.344 1810.13,746.163 1812.88,745.982 1815.64,745.802 1818.39,745.624 1821.15,745.446 1823.9,745.27 1826.65,745.094 1829.41,744.92 1832.16,744.747 1834.92,744.574 1837.67,744.403 1840.43,744.233 1843.18,744.064 1845.94,743.895 1848.69,743.728 1851.44,743.562 1854.2,743.396 1856.95,743.232 1859.71,743.069 1862.46,742.906 1865.22,742.745 1867.97,742.585 1870.73,742.425 1873.48,742.266 1876.23,742.109 1878.99,741.952 1881.74,741.797 1884.5,741.642 1887.25,741.488 1890.01,741.335 1892.76,741.183 1895.52,741.032 1898.27,740.882 1901.03,740.733 1903.78,740.585 1906.53,740.437 1909.29,740.291 1912.04,740.145 1914.8,740 1917.55,739.856 1920.31,739.713 1923.06,739.571 1925.82,739.43 1928.57,739.29 1931.32,739.15 1934.08,739.011 1936.83,738.874 1939.59,738.737 1942.34,738.6 1945.1,738.465 1947.85,738.331 1950.61,738.197 1953.36,738.064 1956.11,737.932 1958.87,737.801 1961.62,737.67 1964.38,737.541 1967.13,737.412 1969.89,737.284 1972.64,737.157 1975.4,737.03 1978.15,736.905 1980.9,736.78 1983.66,736.655 1986.41,736.532 1989.17,736.409 1991.92,736.287 1994.68,736.166 1997.43,736.046 2000.19,735.926 2002.94,735.807 2005.69,735.689 2008.45,735.572 2011.2,735.455 2013.96,735.339 2016.71,735.224 2019.47,735.109 2022.22,734.995 2024.98,734.882 2027.73,734.77 2030.48,734.658 2033.24,734.547 2035.99,734.436 2038.75,734.326 2041.5,734.217 2044.26,734.109 2047.01,734.001 2049.77,733.894 2052.52,733.788 2055.27,733.682 2058.03,733.577 2060.78,733.472 2063.54,733.369 2066.29,733.265 2069.05,733.163 2071.8,733.061 2074.56,732.96 2077.31,732.859 2080.06,732.759 2082.82,732.66 2085.57,732.561 2088.33,732.462 2091.08,732.365 2093.84,732.268 2096.59,732.171 2099.35,732.076 2102.1,731.98 2104.85,731.886 2107.61,731.792 2110.36,731.698 2113.12,731.605 2115.87,731.513 2118.63,731.421 2121.38,731.33 2124.14,731.239 2126.89,731.149 2129.64,731.059 2132.4,730.97 2135.15,730.882 2137.91,730.794 2140.66,730.707 2143.42,730.619 2146.17,730.533 2148.93,730.447 2151.68,730.362 2154.44,730.277 2157.19,730.193 2159.94,730.109 2162.7,730.026 2165.45,729.943 2168.21,729.861 2170.96,729.779 2173.72,729.698 2176.47,729.617 2179.23,729.537 2181.98,729.457 2184.73,729.378 2187.49,729.299 2190.24,729.221 2193,729.143 2195.75,729.066 2198.51,728.989 2201.26,728.912 2204.02,728.836 2206.77,728.761 2209.52,728.686 2212.28,728.611 2215.03,728.537 2217.79,728.463 2220.54,728.39 2223.3,728.317 2226.05,728.244 2228.81,728.172 2231.56,728.101 2234.31,728.03 2237.07,727.959 2239.82,727.889 2242.58,727.819 2245.33,727.749 2248.09,727.68 2250.84,727.612 2253.6,727.544 2256.35,727.476 2259.1,727.408 2261.86,727.341 2264.61,727.275 2267.37,727.209 2270.12,727.143 2272.88,727.077 2275.63,727.012 2278.39,726.948 2281.14,726.884 2283.89,726.82 2286.65,726.756 2289.4,726.693 2292.16,726.63 2294.91,726.568 2297.67,726.506 2300.42,726.444 2303.18,726.383 2305.93,726.322 2308.68,726.262 2311.44,726.201 2314.19,726.142 2316.95,726.082 2319.7,726.023 2322.46,725.964 2325.21,725.906 2327.97,725.848 2330.72,725.79 2333.47,725.732 2336.23,725.675 2338.98,725.619 2341.74,725.562 2344.49,725.506 2347.25,725.45 2350,725.395 2352.76,725.34 "/>
<path clip-path="url(#clip270)" d="M1969.85 1377.32 L2279.3 1377.32 L2279.3 1169.96 L1969.85 1169.96  Z" fill="#ffffff" fill-rule="evenodd" fill-opacity="1"/>
<polyline clip-path="url(#clip270)" style="stroke:#000000; stroke-linecap:round; stroke-linejoin:round; stroke-width:4; stroke-opacity:1; fill:none" points="1969.85,1377.32 2279.3,1377.32 2279.3,1169.96 1969.85,1169.96 1969.85,1377.32 "/>
<polyline clip-path="url(#clip270)" style="stroke:#009af9; stroke-linecap:round; stroke-linejoin:round; stroke-width:12; stroke-opacity:1; fill:none" points="1994.33,1221.8 2141.24,1221.8 "/>
<path clip-path="url(#clip270)" d="M2165.72 1228.84 L2165.72 1213.15 L2169.98 1213.15 L2169.98 1228.68 Q2169.98 1232.36 2171.42 1234.21 Q2172.85 1236.04 2175.72 1236.04 Q2179.17 1236.04 2181.16 1233.84 Q2183.18 1231.64 2183.18 1227.85 L2183.18 1213.15 L2187.44 1213.15 L2187.44 1239.08 L2183.18 1239.08 L2183.18 1235.09 Q2181.63 1237.45 2179.57 1238.61 Q2177.53 1239.75 2174.82 1239.75 Q2170.35 1239.75 2168.04 1236.97 Q2165.72 1234.19 2165.72 1228.84 M2176.44 1212.52 L2176.44 1212.52 Z" fill="#000000" fill-rule="nonzero" fill-opacity="1" /><path clip-path="url(#clip270)" d="M2195.82 1203.06 L2205.63 1203.06 L2205.63 1206.37 L2200.07 1206.37 L2200.07 1242.02 L2205.63 1242.02 L2205.63 1245.33 L2195.82 1245.33 L2195.82 1203.06 Z" fill="#000000" fill-rule="nonzero" fill-opacity="1" /><path clip-path="url(#clip270)" d="M2216.12 1235.14 L2223.76 1235.14 L2223.76 1208.77 L2215.44 1210.44 L2215.44 1206.18 L2223.71 1204.52 L2228.38 1204.52 L2228.38 1235.14 L2236.02 1235.14 L2236.02 1239.08 L2216.12 1239.08 L2216.12 1235.14 Z" fill="#000000" fill-rule="nonzero" fill-opacity="1" /><path clip-path="url(#clip270)" d="M2254.82 1203.06 L2254.82 1245.33 L2245 1245.33 L2245 1242.02 L2250.54 1242.02 L2250.54 1206.37 L2245 1206.37 L2245 1203.06 L2254.82 1203.06 Z" fill="#000000" fill-rule="nonzero" fill-opacity="1" /><polyline clip-path="url(#clip270)" style="stroke:#e26f46; stroke-linecap:round; stroke-linejoin:round; stroke-width:12; stroke-opacity:1; fill:none" points="1994.33,1273.64 2141.24,1273.64 "/>
<path clip-path="url(#clip270)" d="M2165.72 1280.68 L2165.72 1264.99 L2169.98 1264.99 L2169.98 1280.52 Q2169.98 1284.2 2171.42 1286.05 Q2172.85 1287.88 2175.72 1287.88 Q2179.17 1287.88 2181.16 1285.68 Q2183.18 1283.48 2183.18 1279.69 L2183.18 1264.99 L2187.44 1264.99 L2187.44 1290.92 L2183.18 1290.92 L2183.18 1286.93 Q2181.63 1289.29 2179.57 1290.45 Q2177.53 1291.59 2174.82 1291.59 Q2170.35 1291.59 2168.04 1288.81 Q2165.72 1286.03 2165.72 1280.68 M2176.44 1264.36 L2176.44 1264.36 Z" fill="#000000" fill-rule="nonzero" fill-opacity="1" /><path clip-path="url(#clip270)" d="M2195.82 1254.9 L2205.63 1254.9 L2205.63 1258.21 L2200.07 1258.21 L2200.07 1293.86 L2205.63 1293.86 L2205.63 1297.17 L2195.82 1297.17 L2195.82 1254.9 Z" fill="#000000" fill-rule="nonzero" fill-opacity="1" /><path clip-path="url(#clip270)" d="M2219.33 1286.98 L2235.65 1286.98 L2235.65 1290.92 L2213.71 1290.92 L2213.71 1286.98 Q2216.37 1284.23 2220.95 1279.6 Q2225.56 1274.94 2226.74 1273.6 Q2228.99 1271.08 2229.87 1269.34 Q2230.77 1267.58 2230.77 1265.89 Q2230.77 1263.14 2228.82 1261.4 Q2226.9 1259.67 2223.8 1259.67 Q2221.6 1259.67 2219.15 1260.43 Q2216.72 1261.19 2213.94 1262.74 L2213.94 1258.02 Q2216.76 1256.89 2219.22 1256.31 Q2221.67 1255.73 2223.71 1255.73 Q2229.08 1255.73 2232.27 1258.42 Q2235.47 1261.1 2235.47 1265.59 Q2235.47 1267.72 2234.66 1269.64 Q2233.87 1271.54 2231.76 1274.13 Q2231.19 1274.8 2228.08 1278.02 Q2224.98 1281.22 2219.33 1286.98 Z" fill="#000000" fill-rule="nonzero" fill-opacity="1" /><path clip-path="url(#clip270)" d="M2254.82 1254.9 L2254.82 1297.17 L2245 1297.17 L2245 1293.86 L2250.54 1293.86 L2250.54 1258.21 L2245 1258.21 L2245 1254.9 L2254.82 1254.9 Z" fill="#000000" fill-rule="nonzero" fill-opacity="1" /><polyline clip-path="url(#clip270)" style="stroke:#3da44d; stroke-linecap:round; stroke-linejoin:round; stroke-width:12; stroke-opacity:1; fill:none" points="1994.33,1325.48 2141.24,1325.48 "/>
<path clip-path="url(#clip270)" d="M2165.72 1332.52 L2165.72 1316.83 L2169.98 1316.83 L2169.98 1332.36 Q2169.98 1336.04 2171.42 1337.89 Q2172.85 1339.72 2175.72 1339.72 Q2179.17 1339.72 2181.16 1337.52 Q2183.18 1335.32 2183.18 1331.53 L2183.18 1316.83 L2187.44 1316.83 L2187.44 1342.76 L2183.18 1342.76 L2183.18 1338.77 Q2181.63 1341.13 2179.57 1342.29 Q2177.53 1343.43 2174.82 1343.43 Q2170.35 1343.43 2168.04 1340.65 Q2165.72 1337.87 2165.72 1332.52 M2176.44 1316.2 L2176.44 1316.2 Z" fill="#000000" fill-rule="nonzero" fill-opacity="1" /><path clip-path="url(#clip270)" d="M2206.44 1306.78 Q2203.34 1312.11 2201.83 1317.32 Q2200.33 1322.52 2200.33 1327.87 Q2200.33 1333.22 2201.83 1338.47 Q2203.36 1343.7 2206.44 1349.01 L2202.74 1349.01 Q2199.26 1343.57 2197.53 1338.31 Q2195.82 1333.06 2195.82 1327.87 Q2195.82 1322.71 2197.53 1317.48 Q2199.24 1312.25 2202.74 1306.78 L2206.44 1306.78 Z" fill="#000000" fill-rule="nonzero" fill-opacity="1" /><path clip-path="url(#clip270)" d="M2218.92 1309.47 L2218.92 1316.83 L2227.69 1316.83 L2227.69 1320.14 L2218.92 1320.14 L2218.92 1334.21 Q2218.92 1337.38 2219.77 1338.29 Q2220.65 1339.19 2223.32 1339.19 L2227.69 1339.19 L2227.69 1342.76 L2223.32 1342.76 Q2218.38 1342.76 2216.51 1340.93 Q2214.63 1339.07 2214.63 1334.21 L2214.63 1320.14 L2211.51 1320.14 L2211.51 1316.83 L2214.63 1316.83 L2214.63 1309.47 L2218.92 1309.47 Z" fill="#000000" fill-rule="nonzero" fill-opacity="1" /><path clip-path="url(#clip270)" d="M2232.62 1306.78 L2236.32 1306.78 Q2239.8 1312.25 2241.51 1317.48 Q2243.25 1322.71 2243.25 1327.87 Q2243.25 1333.06 2241.51 1338.31 Q2239.8 1343.57 2236.32 1349.01 L2232.62 1349.01 Q2235.7 1343.7 2237.2 1338.47 Q2238.73 1333.22 2238.73 1327.87 Q2238.73 1322.52 2237.2 1317.32 Q2235.7 1312.11 2232.62 1306.78 Z" fill="#000000" fill-rule="nonzero" fill-opacity="1" /></svg>
