<?xml version="1.0" encoding="utf-8"?>
<svg xmlns="http://www.w3.org/2000/svg" xmlns:xlink="http://www.w3.org/1999/xlink" width="600" height="400" viewBox="0 0 2400 1600">
<defs>
  <clipPath id="clip590">
    <rect x="0" y="0" width="2400" height="1600"/>
  </clipPath>
</defs>
<path clip-path="url(#clip590)" d="M0 1600 L2400 1600 L2400 0 L0 0  Z" fill="#ffffff" fill-rule="evenodd" fill-opacity="1"/>
<defs>
  <clipPath id="clip591">
    <rect x="480" y="0" width="1681" height="1600"/>
  </clipPath>
</defs>
<path clip-path="url(#clip590)" d="M149.191 1423.18 L2352.76 1423.18 L2352.76 47.2441 L149.191 47.2441  Z" fill="#ffffff" fill-rule="evenodd" fill-opacity="1"/>
<defs>
  <clipPath id="clip592">
    <rect x="149" y="47" width="2205" height="1377"/>
  </clipPath>
</defs>
<polyline clip-path="url(#clip592)" style="stroke:#000000; stroke-linecap:round; stroke-linejoin:round; stroke-width:2; stroke-opacity:0.1; fill:none" points="149.191,1423.18 149.191,47.2441 "/>
<polyline clip-path="url(#clip592)" style="stroke:#000000; stroke-linecap:round; stroke-linejoin:round; stroke-width:2; stroke-opacity:0.1; fill:none" points="700.082,1423.18 700.082,47.2441 "/>
<polyline clip-path="url(#clip592)" style="stroke:#000000; stroke-linecap:round; stroke-linejoin:round; stroke-width:2; stroke-opacity:0.1; fill:none" points="1250.97,1423.18 1250.97,47.2441 "/>
<polyline clip-path="url(#clip592)" style="stroke:#000000; stroke-linecap:round; stroke-linejoin:round; stroke-width:2; stroke-opacity:0.1; fill:none" points="1801.86,1423.18 1801.86,47.2441 "/>
<polyline clip-path="url(#clip592)" style="stroke:#000000; stroke-linecap:round; stroke-linejoin:round; stroke-width:2; stroke-opacity:0.1; fill:none" points="2352.76,1423.18 2352.76,47.2441 "/>
<polyline clip-path="url(#clip592)" style="stroke:#000000; stroke-linecap:round; stroke-linejoin:round; stroke-width:2; stroke-opacity:0.1; fill:none" points="149.191,1423.18 2352.76,1423.18 "/>
<polyline clip-path="url(#clip592)" style="stroke:#000000; stroke-linecap:round; stroke-linejoin:round; stroke-width:2; stroke-opacity:0.1; fill:none" points="149.191,1193.86 2352.76,1193.86 "/>
<polyline clip-path="url(#clip592)" style="stroke:#000000; stroke-linecap:round; stroke-linejoin:round; stroke-width:2; stroke-opacity:0.1; fill:none" points="149.191,964.535 2352.76,964.535 "/>
<polyline clip-path="url(#clip592)" style="stroke:#000000; stroke-linecap:round; stroke-linejoin:round; stroke-width:2; stroke-opacity:0.1; fill:none" points="149.191,735.212 2352.76,735.212 "/>
<polyline clip-path="url(#clip592)" style="stroke:#000000; stroke-linecap:round; stroke-linejoin:round; stroke-width:2; stroke-opacity:0.1; fill:none" points="149.191,505.889 2352.76,505.889 "/>
<polyline clip-path="url(#clip592)" style="stroke:#000000; stroke-linecap:round; stroke-linejoin:round; stroke-width:2; stroke-opacity:0.1; fill:none" points="149.191,276.567 2352.76,276.567 "/>
<polyline clip-path="url(#clip592)" style="stroke:#000000; stroke-linecap:round; stroke-linejoin:round; stroke-width:2; stroke-opacity:0.1; fill:none" points="149.191,47.2441 2352.76,47.2441 "/>
<polyline clip-path="url(#clip590)" style="stroke:#000000; stroke-linecap:round; stroke-linejoin:round; stroke-width:4; stroke-opacity:1; fill:none" points="149.191,1423.18 2352.76,1423.18 "/>
<polyline clip-path="url(#clip590)" style="stroke:#000000; stroke-linecap:round; stroke-linejoin:round; stroke-width:4; stroke-opacity:1; fill:none" points="149.191,1423.18 149.191,1404.28 "/>
<polyline clip-path="url(#clip590)" style="stroke:#000000; stroke-linecap:round; stroke-linejoin:round; stroke-width:4; stroke-opacity:1; fill:none" points="700.082,1423.18 700.082,1404.28 "/>
<polyline clip-path="url(#clip590)" style="stroke:#000000; stroke-linecap:round; stroke-linejoin:round; stroke-width:4; stroke-opacity:1; fill:none" points="1250.97,1423.18 1250.97,1404.28 "/>
<polyline clip-path="url(#clip590)" style="stroke:#000000; stroke-linecap:round; stroke-linejoin:round; stroke-width:4; stroke-opacity:1; fill:none" points="1801.86,1423.18 1801.86,1404.28 "/>
<polyline clip-path="url(#clip590)" style="stroke:#000000; stroke-linecap:round; stroke-linejoin:round; stroke-width:4; stroke-opacity:1; fill:none" points="2352.76,1423.18 2352.76,1404.28 "/>
<path clip-path="url(#clip590)" d="M149.191 1454.1 Q145.58 1454.1 143.751 1457.66 Q141.946 1461.2 141.946 1468.33 Q141.946 1475.44 143.751 1479.01 Q145.58 1482.55 149.191 1482.55 Q152.825 1482.55 154.631 1479.01 Q156.459 1475.44 156.459 1468.33 Q156.459 1461.2 154.631 1457.66 Q152.825 1454.1 149.191 1454.1 M149.191 1450.39 Q155.001 1450.39 158.057 1455 Q161.135 1459.58 161.135 1468.33 Q161.135 1477.06 158.057 1481.67 Q155.001 1486.25 149.191 1486.25 Q143.381 1486.25 140.302 1481.67 Q137.246 1477.06 137.246 1468.33 Q137.246 1459.58 140.302 1455 Q143.381 1450.39 149.191 1450.39 Z" fill="#000000" fill-rule="nonzero" fill-opacity="1" /><path clip-path="url(#clip590)" d="M694.735 1481.64 L711.054 1481.64 L711.054 1485.58 L689.11 1485.58 L689.11 1481.64 Q691.772 1478.89 696.355 1474.26 Q700.962 1469.61 702.142 1468.27 Q704.388 1465.74 705.267 1464.01 Q706.17 1462.25 706.17 1460.56 Q706.17 1457.8 704.226 1456.07 Q702.304 1454.33 699.203 1454.33 Q697.003 1454.33 694.55 1455.09 Q692.119 1455.86 689.341 1457.41 L689.341 1452.69 Q692.166 1451.55 694.619 1450.97 Q697.073 1450.39 699.11 1450.39 Q704.48 1450.39 707.675 1453.08 Q710.869 1455.77 710.869 1460.26 Q710.869 1462.39 710.059 1464.31 Q709.272 1466.2 707.165 1468.8 Q706.587 1469.47 703.485 1472.69 Q700.383 1475.88 694.735 1481.64 Z" fill="#000000" fill-rule="nonzero" fill-opacity="1" /><path clip-path="url(#clip590)" d="M1253.98 1455.09 L1242.18 1473.54 L1253.98 1473.54 L1253.98 1455.09 M1252.76 1451.02 L1258.64 1451.02 L1258.64 1473.54 L1263.57 1473.54 L1263.57 1477.43 L1258.64 1477.43 L1258.64 1485.58 L1253.98 1485.58 L1253.98 1477.43 L1238.38 1477.43 L1238.38 1472.92 L1252.76 1451.02 Z" fill="#000000" fill-rule="nonzero" fill-opacity="1" /><path clip-path="url(#clip590)" d="M1802.27 1466.44 Q1799.12 1466.44 1797.27 1468.59 Q1795.44 1470.74 1795.44 1474.49 Q1795.44 1478.22 1797.27 1480.39 Q1799.12 1482.55 1802.27 1482.55 Q1805.42 1482.55 1807.25 1480.39 Q1809.1 1478.22 1809.1 1474.49 Q1809.1 1470.74 1807.25 1468.59 Q1805.42 1466.44 1802.27 1466.44 M1811.55 1451.78 L1811.55 1456.04 Q1809.79 1455.21 1807.99 1454.77 Q1806.2 1454.33 1804.45 1454.33 Q1799.82 1454.33 1797.36 1457.45 Q1794.93 1460.58 1794.58 1466.9 Q1795.95 1464.89 1798.01 1463.82 Q1800.07 1462.73 1802.55 1462.73 Q1807.76 1462.73 1810.77 1465.9 Q1813.8 1469.05 1813.8 1474.49 Q1813.8 1479.82 1810.65 1483.03 Q1807.5 1486.25 1802.27 1486.25 Q1796.27 1486.25 1793.1 1481.67 Q1789.93 1477.06 1789.93 1468.33 Q1789.93 1460.14 1793.82 1455.28 Q1797.71 1450.39 1804.26 1450.39 Q1806.02 1450.39 1807.8 1450.74 Q1809.61 1451.09 1811.55 1451.78 Z" fill="#000000" fill-rule="nonzero" fill-opacity="1" /><path clip-path="url(#clip590)" d="M2352.76 1469.17 Q2349.42 1469.17 2347.5 1470.95 Q2345.6 1472.73 2345.6 1475.86 Q2345.6 1478.98 2347.5 1480.77 Q2349.42 1482.55 2352.76 1482.55 Q2356.09 1482.55 2358.01 1480.77 Q2359.93 1478.96 2359.93 1475.86 Q2359.93 1472.73 2358.01 1470.95 Q2356.11 1469.17 2352.76 1469.17 M2348.08 1467.18 Q2345.07 1466.44 2343.38 1464.38 Q2341.71 1462.32 2341.71 1459.35 Q2341.71 1455.21 2344.65 1452.8 Q2347.62 1450.39 2352.76 1450.39 Q2357.92 1450.39 2360.86 1452.8 Q2363.8 1455.21 2363.8 1459.35 Q2363.8 1462.32 2362.11 1464.38 Q2360.44 1466.44 2357.45 1467.18 Q2360.83 1467.96 2362.71 1470.26 Q2364.61 1472.55 2364.61 1475.86 Q2364.61 1480.88 2361.53 1483.57 Q2358.47 1486.25 2352.76 1486.25 Q2347.04 1486.25 2343.96 1483.57 Q2340.9 1480.88 2340.9 1475.86 Q2340.9 1472.55 2342.8 1470.26 Q2344.7 1467.96 2348.08 1467.18 M2346.37 1459.79 Q2346.37 1462.48 2348.03 1463.98 Q2349.72 1465.49 2352.76 1465.49 Q2355.77 1465.49 2357.45 1463.98 Q2359.17 1462.48 2359.17 1459.79 Q2359.17 1457.11 2357.45 1455.6 Q2355.77 1454.1 2352.76 1454.1 Q2349.72 1454.1 2348.03 1455.6 Q2346.37 1457.11 2346.37 1459.79 Z" fill="#000000" fill-rule="nonzero" fill-opacity="1" /><path clip-path="url(#clip590)" d="M1250.03 1522.27 L1250.03 1532.4 L1262.1 1532.4 L1262.1 1536.95 L1250.03 1536.95 L1250.03 1556.3 Q1250.03 1560.66 1251.21 1561.9 Q1252.42 1563.14 1256.08 1563.14 L1262.1 1563.14 L1262.1 1568.04 L1256.08 1568.04 Q1249.3 1568.04 1246.72 1565.53 Q1244.15 1562.98 1244.15 1556.3 L1244.15 1536.95 L1239.85 1536.95 L1239.85 1532.4 L1244.15 1532.4 L1244.15 1522.27 L1250.03 1522.27 Z" fill="#000000" fill-rule="nonzero" fill-opacity="1" /><polyline clip-path="url(#clip590)" style="stroke:#000000; stroke-linecap:round; stroke-linejoin:round; stroke-width:4; stroke-opacity:1; fill:none" points="149.191,1423.18 149.191,47.2441 "/>
<polyline clip-path="url(#clip590)" style="stroke:#000000; stroke-linecap:round; stroke-linejoin:round; stroke-width:4; stroke-opacity:1; fill:none" points="149.191,1423.18 168.089,1423.18 "/>
<polyline clip-path="url(#clip590)" style="stroke:#000000; stroke-linecap:round; stroke-linejoin:round; stroke-width:4; stroke-opacity:1; fill:none" points="149.191,1193.86 168.089,1193.86 "/>
<polyline clip-path="url(#clip590)" style="stroke:#000000; stroke-linecap:round; stroke-linejoin:round; stroke-width:4; stroke-opacity:1; fill:none" points="149.191,964.535 168.089,964.535 "/>
<polyline clip-path="url(#clip590)" style="stroke:#000000; stroke-linecap:round; stroke-linejoin:round; stroke-width:4; stroke-opacity:1; fill:none" points="149.191,735.212 168.089,735.212 "/>
<polyline clip-path="url(#clip590)" style="stroke:#000000; stroke-linecap:round; stroke-linejoin:round; stroke-width:4; stroke-opacity:1; fill:none" points="149.191,505.889 168.089,505.889 "/>
<polyline clip-path="url(#clip590)" style="stroke:#000000; stroke-linecap:round; stroke-linejoin:round; stroke-width:4; stroke-opacity:1; fill:none" points="149.191,276.567 168.089,276.567 "/>
<polyline clip-path="url(#clip590)" style="stroke:#000000; stroke-linecap:round; stroke-linejoin:round; stroke-width:4; stroke-opacity:1; fill:none" points="149.191,47.2441 168.089,47.2441 "/>
<path clip-path="url(#clip590)" d="M51.3162 1423.63 L80.992 1423.63 L80.992 1427.57 L51.3162 1427.57 L51.3162 1423.63 Z" fill="#000000" fill-rule="nonzero" fill-opacity="1" /><path clip-path="url(#clip590)" d="M101.663 1421.32 Q98.515 1421.32 96.6632 1423.47 Q94.8345 1425.62 94.8345 1429.37 Q94.8345 1433.1 96.6632 1435.27 Q98.515 1437.43 101.663 1437.43 Q104.811 1437.43 106.64 1435.27 Q108.492 1433.1 108.492 1429.37 Q108.492 1425.62 106.64 1423.47 Q104.811 1421.32 101.663 1421.32 M110.946 1406.66 L110.946 1410.92 Q109.186 1410.09 107.381 1409.65 Q105.598 1409.21 103.839 1409.21 Q99.2095 1409.21 96.7558 1412.33 Q94.3252 1415.46 93.978 1421.78 Q95.3437 1419.77 97.4039 1418.7 Q99.4641 1417.61 101.941 1417.61 Q107.149 1417.61 110.158 1420.78 Q113.191 1423.93 113.191 1429.37 Q113.191 1434.7 110.043 1437.91 Q106.895 1441.13 101.663 1441.13 Q95.6678 1441.13 92.4965 1436.55 Q89.3253 1431.94 89.3253 1423.21 Q89.3253 1415.02 93.2141 1410.16 Q97.103 1405.27 103.654 1405.27 Q105.413 1405.27 107.196 1405.62 Q109.001 1405.97 110.946 1406.66 Z" fill="#000000" fill-rule="nonzero" fill-opacity="1" /><path clip-path="url(#clip590)" d="M50.9921 1194.31 L80.6679 1194.31 L80.6679 1198.24 L50.9921 1198.24 L50.9921 1194.31 Z" fill="#000000" fill-rule="nonzero" fill-opacity="1" /><path clip-path="url(#clip590)" d="M103.608 1180.65 L91.8021 1199.1 L103.608 1199.1 L103.608 1180.65 M102.381 1176.58 L108.26 1176.58 L108.26 1199.1 L113.191 1199.1 L113.191 1202.99 L108.26 1202.99 L108.26 1211.14 L103.608 1211.14 L103.608 1202.99 L88.0058 1202.99 L88.0058 1198.48 L102.381 1176.58 Z" fill="#000000" fill-rule="nonzero" fill-opacity="1" /><path clip-path="url(#clip590)" d="M53.0754 964.986 L82.7512 964.986 L82.7512 968.921 L53.0754 968.921 L53.0754 964.986 Z" fill="#000000" fill-rule="nonzero" fill-opacity="1" /><path clip-path="url(#clip590)" d="M96.8715 977.879 L113.191 977.879 L113.191 981.815 L91.2465 981.815 L91.2465 977.879 Q93.9086 975.125 98.4919 970.495 Q103.098 965.842 104.279 964.5 Q106.524 961.977 107.404 960.241 Q108.307 958.481 108.307 956.792 Q108.307 954.037 106.362 952.301 Q104.441 950.565 101.339 950.565 Q99.14 950.565 96.6863 951.329 Q94.2558 952.093 91.478 953.643 L91.478 948.921 Q94.3021 947.787 96.7558 947.208 Q99.2095 946.63 101.246 946.63 Q106.617 946.63 109.811 949.315 Q113.006 952 113.006 956.491 Q113.006 958.62 112.196 960.542 Q111.408 962.44 109.302 965.032 Q108.723 965.704 105.621 968.921 Q102.52 972.116 96.8715 977.879 Z" fill="#000000" fill-rule="nonzero" fill-opacity="1" /><path clip-path="url(#clip590)" d="M101.246 721.011 Q97.6354 721.011 95.8067 724.575 Q94.0012 728.117 94.0012 735.247 Q94.0012 742.353 95.8067 745.918 Q97.6354 749.46 101.246 749.46 Q104.881 749.46 106.686 745.918 Q108.515 742.353 108.515 735.247 Q108.515 728.117 106.686 724.575 Q104.881 721.011 101.246 721.011 M101.246 717.307 Q107.057 717.307 110.112 721.913 Q113.191 726.497 113.191 735.247 Q113.191 743.973 110.112 748.58 Q107.057 753.163 101.246 753.163 Q95.4363 753.163 92.3576 748.58 Q89.3021 743.973 89.3021 735.247 Q89.3021 726.497 92.3576 721.913 Q95.4363 717.307 101.246 717.307 Z" fill="#000000" fill-rule="nonzero" fill-opacity="1" /><path clip-path="url(#clip590)" d="M96.8715 519.234 L113.191 519.234 L113.191 523.169 L91.2465 523.169 L91.2465 519.234 Q93.9086 516.48 98.4919 511.85 Q103.098 507.197 104.279 505.855 Q106.524 503.331 107.404 501.595 Q108.307 499.836 108.307 498.146 Q108.307 495.392 106.362 493.656 Q104.441 491.92 101.339 491.92 Q99.14 491.92 96.6863 492.683 Q94.2558 493.447 91.478 494.998 L91.478 490.276 Q94.3021 489.142 96.7558 488.563 Q99.2095 487.984 101.246 487.984 Q106.617 487.984 109.811 490.67 Q113.006 493.355 113.006 497.845 Q113.006 499.975 112.196 501.896 Q111.408 503.794 109.302 506.387 Q108.723 507.058 105.621 510.276 Q102.52 513.47 96.8715 519.234 Z" fill="#000000" fill-rule="nonzero" fill-opacity="1" /><path clip-path="url(#clip590)" d="M103.608 263.361 L91.8021 281.81 L103.608 281.81 L103.608 263.361 M102.381 259.287 L108.26 259.287 L108.26 281.81 L113.191 281.81 L113.191 285.699 L108.26 285.699 L108.26 293.847 L103.608 293.847 L103.608 285.699 L88.0058 285.699 L88.0058 281.185 L102.381 259.287 Z" fill="#000000" fill-rule="nonzero" fill-opacity="1" /><path clip-path="url(#clip590)" d="M101.663 45.3807 Q98.515 45.3807 96.6632 47.5334 Q94.8345 49.6862 94.8345 53.4362 Q94.8345 57.163 96.6632 59.3389 Q98.515 61.4917 101.663 61.4917 Q104.811 61.4917 106.64 59.3389 Q108.492 57.163 108.492 53.4362 Q108.492 49.6862 106.64 47.5334 Q104.811 45.3807 101.663 45.3807 M110.946 30.728 L110.946 34.9872 Q109.186 34.1539 107.381 33.7141 Q105.598 33.2743 103.839 33.2743 Q99.2095 33.2743 96.7558 36.3992 Q94.3252 39.5242 93.978 45.8436 Q95.3437 43.8298 97.4039 42.765 Q99.4641 41.677 101.941 41.677 Q107.149 41.677 110.158 44.8483 Q113.191 47.9964 113.191 53.4362 Q113.191 58.7602 110.043 61.9778 Q106.895 65.1954 101.663 65.1954 Q95.6678 65.1954 92.4965 60.6121 Q89.3253 56.0056 89.3253 47.2788 Q89.3253 39.0844 93.2141 34.2233 Q97.103 29.3391 103.654 29.3391 Q105.413 29.3391 107.196 29.6863 Q109.001 30.0335 110.946 30.728 Z" fill="#000000" fill-rule="nonzero" fill-opacity="1" /><polyline clip-path="url(#clip592)" style="stroke:#009af9; stroke-linecap:round; stroke-linejoin:round; stroke-width:12; stroke-opacity:1; fill:none" points="149.191,1193.86 151.945,1191.5 154.7,1186.84 157.454,1181.69 160.209,1176.48 162.963,1171.25 165.718,1166.02 168.472,1160.79 171.227,1155.56 173.981,1150.33 176.735,1145.1 179.49,1139.88 182.244,1134.65 184.999,1129.42 187.753,1124.19 190.508,1118.96 193.262,1113.74 196.017,1108.51 198.771,1103.28 201.526,1098.06 204.28,1092.83 207.034,1087.61 209.789,1082.39 212.543,1077.17 215.298,1071.95 218.052,1066.74 220.807,1061.53 223.561,1056.32 226.316,1051.12 229.07,1045.92 231.825,1040.73 234.579,1035.55 237.333,1030.37 240.088,1025.2 242.842,1020.04 245.597,1014.88 248.351,1009.74 251.106,1004.61 253.86,999.493 256.615,994.388 259.369,989.296 262.124,984.219 264.878,979.158 267.632,974.114 270.387,969.088 273.141,964.08 275.896,959.091 278.65,954.123 281.405,949.176 284.159,944.251 286.914,939.35 289.668,934.471 292.423,929.617 295.177,924.789 297.932,919.986 300.686,915.21 303.44,910.461 306.195,905.74 308.949,901.048 311.704,896.385 314.458,891.751 317.213,887.148 319.967,882.576 322.722,878.035 325.476,873.525 328.231,869.048 330.985,864.603 333.739,860.19 336.494,855.811 339.248,851.465 342.003,847.153 344.757,842.874 347.512,838.63 350.266,834.42 353.021,830.244 355.775,826.103 358.53,821.997 361.284,817.925 364.038,813.889 366.793,809.887 369.547,805.92 372.302,801.988 375.056,798.09 377.811,794.228 380.565,790.4 383.32,786.608 386.074,782.849 388.829,779.126 391.583,775.436 394.337,771.781 397.092,768.159 399.846,764.571 402.601,761.017 405.355,757.495 408.11,754.007 410.864,750.552 413.619,747.129 416.373,743.738 419.128,740.38 421.882,737.053 424.636,733.757 427.391,730.492 430.145,727.259 432.9,724.055 435.654,720.882 438.409,717.739 441.163,714.625 443.918,711.54 446.672,708.484 449.427,705.455 452.181,702.455 454.936,699.483 457.69,696.537 460.444,693.619 463.199,690.726 465.953,687.859 468.708,685.017 471.462,682.201 474.217,679.409 476.971,676.642 479.726,673.898 482.48,671.178 485.235,668.482 487.989,665.808 490.743,663.156 493.498,660.526 496.252,657.918 499.007,655.332 501.761,652.766 504.516,650.221 507.27,647.696 510.025,645.191 512.779,642.705 515.534,640.239 518.288,637.791 521.042,635.362 523.797,632.951 526.551,630.558 529.306,628.183 532.06,625.825 534.815,623.483 537.569,621.159 540.324,618.851 543.078,616.559 545.833,614.282 548.587,612.021 551.341,609.776 554.096,607.545 556.85,605.329 559.605,603.128 562.359,600.94 565.114,598.767 567.868,596.608 570.623,594.462 573.377,592.33 576.132,590.211 578.886,588.104 581.641,586.011 584.395,583.93 587.149,581.862 589.904,579.805 592.658,577.761 595.413,575.729 598.167,573.708 600.922,571.698 603.676,569.7 606.431,567.714 609.185,565.738 611.94,563.773 614.694,561.819 617.448,559.875 620.203,557.942 622.957,556.018 625.712,554.106 628.466,552.203 631.221,550.31 633.975,548.427 636.73,546.554 639.484,544.69 642.239,542.836 644.993,540.991 647.747,539.155 650.502,537.329 653.256,535.512 656.011,533.703 658.765,531.904 661.52,530.114 664.274,528.332 667.029,526.559 669.783,524.795 672.538,523.04 675.292,521.293 678.046,519.555 680.801,517.824 683.555,516.103 686.31,514.389 689.064,512.684 691.819,510.987 694.573,509.298 697.328,507.617 700.082,505.944 702.837,504.279 705.591,502.622 708.345,500.973 711.1,499.332 713.854,497.699 716.609,496.074 719.363,494.456 722.118,492.846 724.872,491.244 727.627,489.65 730.381,488.063 733.136,486.484 735.89,484.913 738.645,483.349 741.399,481.793 744.153,480.244 746.908,478.703 749.662,477.17 752.417,475.644 755.171,474.125 757.926,472.614 760.68,471.111 763.435,469.616 766.189,468.127 768.944,466.647 771.698,465.173 774.452,463.708 777.207,462.25 779.961,460.799 782.716,459.356 785.47,457.921 788.225,456.493 790.979,455.073 793.734,453.66 796.488,452.256 799.243,450.858 801.997,449.469 804.751,448.087 807.506,446.713 810.26,445.347 813.015,443.988 815.769,442.637 818.524,441.294 821.278,439.959 824.033,438.632 826.787,437.312 829.542,436 832.296,434.696 835.05,433.399 837.805,432.111 840.559,430.831 843.314,429.559 846.068,428.295 848.823,427.039 851.577,425.792 854.332,424.552 857.086,423.322 859.841,422.099 862.595,420.885 865.349,419.68 868.104,418.483 870.858,417.295 873.613,416.116 876.367,414.945 879.122,413.783 881.876,412.63 884.631,411.486 887.385,410.351 890.14,409.225 892.894,408.108 895.649,407 898.403,405.901 901.157,404.812 903.912,403.732 906.666,402.661 909.421,401.599 912.175,400.547 914.93,399.504 917.684,398.471 920.439,397.447 923.193,396.433 925.948,395.428 928.702,394.433 931.456,393.448 934.211,392.473 936.965,391.507 939.72,390.551 942.474,389.605 945.229,388.669 947.983,387.743 950.738,386.827 953.492,385.922 956.247,385.026 959.001,384.14 961.755,383.265 964.51,382.399 967.264,381.544 970.019,380.699 972.773,379.865 975.528,379.041 978.282,378.227 981.037,377.424 983.791,376.631 986.546,375.849 989.3,375.077 992.054,374.316 994.809,373.565 997.563,372.825 1000.32,372.096 1003.07,371.377 1005.83,370.669 1008.58,369.973 1011.34,369.286 1014.09,368.611 1016.84,367.946 1019.6,367.292 1022.35,366.649 1025.11,366.017 1027.86,365.395 1030.62,364.784 1033.37,364.183 1036.13,363.592 1038.88,363.012 1041.63,362.442 1044.39,361.882 1047.14,361.332 1049.9,360.792 1052.65,360.261 1055.41,359.74 1058.16,359.229 1060.92,358.728 1063.67,358.235 1066.42,357.752 1069.18,357.278 1071.93,356.814 1074.69,356.358 1077.44,355.91 1080.2,355.472 1082.95,355.042 1085.71,354.62 1088.46,354.207 1091.21,353.802 1093.97,353.405 1096.72,353.016 1099.48,352.634 1102.23,352.26 1104.99,351.893 1107.74,351.534 1110.5,351.182 1113.25,350.836 1116.01,350.498 1118.76,350.166 1121.51,349.841 1124.27,349.521 1127.02,349.208 1129.78,348.901 1132.53,348.6 1135.29,348.304 1138.04,348.014 1140.8,347.729 1143.55,347.449 1146.3,347.173 1149.06,346.903 1151.81,346.637 1154.57,346.375 1157.32,346.117 1160.08,345.863 1162.83,345.612 1165.59,345.365 1168.34,345.122 1171.09,344.881 1173.85,344.643 1176.6,344.408 1179.36,344.175 1182.11,343.946 1184.87,343.719 1187.62,343.494 1190.38,343.271 1193.13,343.051 1195.88,342.833 1198.64,342.617 1201.39,342.403 1204.15,342.191 1206.9,341.98 1209.66,341.772 1212.41,341.564 1215.17,341.359 1217.92,341.155 1220.67,340.952 1223.43,340.75 1226.18,340.55 1228.94,340.35 1231.69,340.152 1234.45,339.955 1237.2,339.759 1239.96,339.563 1242.71,339.368 1245.46,339.175 1248.22,338.981 1250.97,338.789 1253.73,338.597 1256.48,338.406 1259.24,338.215 1261.99,338.024 1264.75,337.834 1267.5,337.644 1270.25,337.455 1273.01,337.266 1275.76,337.077 1278.52,336.889 1281.27,336.7 1284.03,336.512 1286.78,336.324 1289.54,336.136 1292.29,335.948 1295.04,335.76 1297.8,335.573 1300.55,335.385 1303.31,335.197 1306.06,335.01 1308.82,334.822 1311.57,334.634 1314.33,334.447 1317.08,334.259 1319.83,334.071 1322.59,333.884 1325.34,333.696 1328.1,333.509 1330.85,333.321 1333.61,333.133 1336.36,332.946 1339.12,332.759 1341.87,332.571 1344.62,332.384 1347.38,332.197 1350.13,332.01 1352.89,331.823 1355.64,331.636 1358.4,331.45 1361.15,331.264 1363.91,331.078 1366.66,330.892 1369.41,330.706 1372.17,330.52 1374.92,330.334 1377.68,330.148 1380.43,329.962 1383.19,329.776 1385.94,329.591 1388.7,329.405 1391.45,329.219 1394.21,329.033 1396.96,328.847 1399.71,328.661 1402.47,328.475 1405.22,328.29 1407.98,328.104 1410.73,327.918 1413.49,327.732 1416.24,327.546 1419,327.361 1421.75,327.175 1424.5,326.989 1427.26,326.803 1430.01,326.617 1432.77,326.432 1435.52,326.246 1438.28,326.06 1441.03,325.874 1443.79,325.688 1446.54,325.503 1449.29,325.317 1452.05,325.131 1454.8,324.945 1457.56,324.759 1460.31,324.574 1463.07,324.388 1465.82,324.202 1468.58,324.016 1471.33,323.83 1474.08,323.645 1476.84,323.459 1479.59,323.273 1482.35,323.087 1485.1,322.901 1487.86,322.716 1490.61,322.53 1493.37,322.344 1496.12,322.158 1498.87,321.972 1501.63,321.786 1504.38,321.601 1507.14,321.415 1509.89,321.229 1512.65,321.043 1515.4,320.857 1518.16,320.672 1520.91,320.486 1523.66,320.3 1526.42,320.114 1529.17,319.928 1531.93,319.743 1534.68,319.557 1537.44,319.371 1540.19,319.185 1542.95,318.999 1545.7,318.813 1548.45,318.628 1551.21,318.442 1553.96,318.256 1556.72,318.07 1559.47,317.884 1562.23,317.699 1564.98,317.513 1567.74,317.327 1570.49,317.141 1573.24,316.955 1576,316.77 1578.75,316.584 1581.51,316.398 1584.26,316.212 1587.02,316.026 1589.77,315.841 1592.53,315.655 1595.28,315.469 1598.03,315.283 1600.79,315.097 1603.54,314.912 1606.3,314.726 1609.05,314.54 1611.81,314.354 1614.56,314.168 1617.32,313.983 1620.07,313.797 1622.82,313.611 1625.58,313.425 1628.33,313.239 1631.09,313.054 1633.84,312.868 1636.6,312.682 1639.35,312.496 1642.11,312.31 1644.86,312.125 1647.62,311.939 1650.37,311.753 1653.12,311.567 1655.88,311.381 1658.63,311.196 1661.39,311.01 1664.14,310.824 1666.9,310.638 1669.65,310.452 1672.41,310.267 1675.16,310.081 1677.91,309.895 1680.67,309.709 1683.42,309.523 1686.18,309.337 1688.93,309.152 1691.69,308.966 1694.44,308.78 1697.2,308.594 1699.95,308.408 1702.7,308.223 1705.46,308.037 1708.21,307.851 1710.97,307.665 1713.72,307.479 1716.48,307.294 1719.23,307.108 1721.99,306.922 1724.74,306.736 1727.49,306.55 1730.25,306.365 1733,306.179 1735.76,305.993 1738.51,305.807 1741.27,305.621 1744.02,305.436 1746.78,305.25 1749.53,305.064 1752.28,304.878 1755.04,304.692 1757.79,304.507 1760.55,304.321 1763.3,304.135 1766.06,303.949 1768.81,303.763 1771.57,303.578 1774.32,303.392 1777.07,303.206 1779.83,303.02 1782.58,302.834 1785.34,302.649 1788.09,302.463 1790.85,302.277 1793.6,302.091 1796.36,301.905 1799.11,301.719 1801.86,301.534 1804.62,301.348 1807.37,301.162 1810.13,300.976 1812.88,300.79 1815.64,300.605 1818.39,300.419 1821.15,300.233 1823.9,300.047 1826.65,299.861 1829.41,299.676 1832.16,299.49 1834.92,299.304 1837.67,299.118 1840.43,298.932 1843.18,298.747 1845.94,298.561 1848.69,298.375 1851.44,298.189 1854.2,298.003 1856.95,297.818 1859.71,297.632 1862.46,297.446 1865.22,297.26 1867.97,297.074 1870.73,296.889 1873.48,296.703 1876.23,296.517 1878.99,296.331 1881.74,296.145 1884.5,295.96 1887.25,295.774 1890.01,295.588 1892.76,295.402 1895.52,295.216 1898.27,295.031 1901.03,294.845 1903.78,294.659 1906.53,294.473 1909.29,294.287 1912.04,294.102 1914.8,293.916 1917.55,293.73 1920.31,293.544 1923.06,293.358 1925.82,293.172 1928.57,292.987 1931.32,292.801 1934.08,292.615 1936.83,292.429 1939.59,292.243 1942.34,292.058 1945.1,291.872 1947.85,291.686 1950.61,291.5 1953.36,291.314 1956.11,291.129 1958.87,290.943 1961.62,290.757 1964.38,290.571 1967.13,290.385 1969.89,290.2 1972.64,290.014 1975.4,289.828 1978.15,289.642 1980.9,289.456 1983.66,289.271 1986.41,289.085 1989.17,288.899 1991.92,288.713 1994.68,288.527 1997.43,288.342 2000.19,288.156 2002.94,287.97 2005.69,287.784 2008.45,287.598 2011.2,287.412 2013.96,287.227 2016.71,287.041 2019.47,286.855 2022.22,286.669 2024.98,286.483 2027.73,286.298 2030.48,286.112 2033.24,285.926 2035.99,285.74 2038.75,285.554 2041.5,285.369 2044.26,285.183 2047.01,284.997 2049.77,284.811 2052.52,284.625 2055.27,284.44 2058.03,284.254 2060.78,284.068 2063.54,283.882 2066.29,283.696 2069.05,283.511 2071.8,283.325 2074.56,283.139 2077.31,282.953 2080.06,282.767 2082.82,282.582 2085.57,282.396 2088.33,282.21 2091.08,282.024 2093.84,281.838 2096.59,281.653 2099.35,281.467 2102.1,281.281 2104.85,281.095 2107.61,280.909 2110.36,280.724 2113.12,280.538 2115.87,280.352 2118.63,280.166 2121.38,279.98 2124.14,279.795 2126.89,279.609 2129.64,279.423 2132.4,279.237 2135.15,279.051 2137.91,278.866 2140.66,278.68 2143.42,278.494 2146.17,278.308 2148.93,278.122 2151.68,277.937 2154.44,277.751 2157.19,277.565 2159.94,277.379 2162.7,277.193 2165.45,277.008 2168.21,276.822 2170.96,276.636 2173.72,276.45 2176.47,276.264 2179.23,276.079 2181.98,275.893 2184.73,275.707 2187.49,275.521 2190.24,275.335 2193,275.15 2195.75,274.964 2198.51,274.778 2201.26,274.592 2204.02,274.406 2206.77,274.221 2209.52,274.035 2212.28,273.849 2215.03,273.663 2217.79,273.478 2220.54,273.292 2223.3,273.106 2226.05,272.92 2228.81,272.734 2231.56,272.549 2234.31,272.363 2237.07,272.177 2239.82,271.991 2242.58,271.806 2245.33,271.62 2248.09,271.434 2250.84,271.248 2253.6,271.062 2256.35,270.876 2259.1,270.691 2261.86,270.505 2264.61,270.319 2267.37,270.133 2270.12,269.948 2272.88,269.762 2275.63,269.576 2278.39,269.39 2281.14,269.204 2283.89,269.019 2286.65,268.833 2289.4,268.647 2292.16,268.461 2294.91,268.276 2297.67,268.09 2300.42,267.904 2303.18,267.718 2305.93,267.533 2308.68,267.347 2311.44,267.161 2314.19,266.975 2316.95,266.789 2319.7,266.604 2322.46,266.418 2325.21,266.232 2327.97,266.046 2330.72,265.861 2333.47,265.675 2336.23,265.489 2338.98,265.303 2341.74,265.118 2344.49,264.932 2347.25,264.746 2350,264.56 2352.76,264.375 "/>
<polyline clip-path="url(#clip592)" style="stroke:#e26f46; stroke-linecap:round; stroke-linejoin:round; stroke-width:12; stroke-opacity:1; fill:none" points="149.191,735.212 151.945,335.017 154.7,231.455 157.454,214.992 160.209,212.734 162.963,212.392 165.718,212.342 168.472,212.336 171.227,212.336 173.981,212.336 176.735,212.338 179.49,212.343 182.244,212.353 184.999,212.371 187.753,212.397 190.508,212.434 193.262,212.483 196.017,212.548 198.771,212.631 201.526,212.735 204.28,212.863 207.034,213.018 209.789,213.206 212.543,213.429 215.298,213.692 218.052,214 220.807,214.356 223.561,214.765 226.316,215.233 229.07,215.764 231.825,216.363 234.579,217.033 237.333,217.778 240.088,218.602 242.842,219.507 245.597,220.497 248.351,221.574 251.106,222.739 253.86,223.994 256.615,225.341 259.369,226.781 262.124,228.314 264.878,229.941 267.632,231.661 270.387,233.472 273.141,235.374 275.896,237.364 278.65,239.441 281.405,241.604 284.159,243.85 286.914,246.178 289.668,248.585 292.423,251.069 295.177,253.628 297.932,256.258 300.686,258.957 303.44,261.723 306.195,264.551 308.949,267.439 311.704,270.384 314.458,273.382 317.213,276.431 319.967,279.527 322.722,282.669 325.476,285.853 328.231,289.075 330.985,292.334 333.739,295.626 336.494,298.949 339.248,302.3 342.003,305.676 344.757,309.074 347.512,312.492 350.266,315.928 353.021,319.378 355.775,322.841 358.53,326.314 361.284,329.794 364.038,333.279 366.793,336.768 369.547,340.257 372.302,343.745 375.056,347.229 377.811,350.707 380.565,354.178 383.32,357.639 386.074,361.088 388.829,364.524 391.583,367.945 394.337,371.349 397.092,374.735 399.846,378.1 402.601,381.444 405.355,384.764 408.11,388.06 410.864,391.33 413.619,394.573 416.373,397.787 419.128,400.971 421.882,404.125 424.636,407.248 427.391,410.337 430.145,413.393 432.9,416.415 435.654,419.402 438.409,422.353 441.163,425.267 443.918,428.144 446.672,430.985 449.427,433.787 452.181,436.551 454.936,439.276 457.69,441.963 460.444,444.61 463.199,447.219 465.953,449.789 468.708,452.319 471.462,454.81 474.217,457.261 476.971,459.674 479.726,462.047 482.48,464.383 485.235,466.679 487.989,468.938 490.743,471.16 493.498,473.344 496.252,475.491 499.007,477.602 501.761,479.676 504.516,481.715 507.27,483.718 510.025,485.687 512.779,487.621 515.534,489.522 518.288,491.389 521.042,493.223 523.797,495.025 526.551,496.796 529.306,498.535 532.06,500.244 534.815,501.923 537.569,503.572 540.324,505.193 543.078,506.787 545.833,508.353 548.587,509.892 551.341,511.406 554.096,512.893 556.85,514.356 559.605,515.794 562.359,517.209 565.114,518.6 567.868,519.969 570.623,521.316 573.377,522.641 576.132,523.946 578.886,525.23 581.641,526.494 584.395,527.739 587.149,528.965 589.904,530.173 592.658,531.363 595.413,532.536 598.167,533.692 600.922,534.831 603.676,535.955 606.431,537.064 609.185,538.157 611.94,539.236 614.694,540.301 617.448,541.352 620.203,542.39 622.957,543.416 625.712,544.428 628.466,545.429 631.221,546.418 633.975,547.396 636.73,548.363 639.484,549.32 642.239,550.266 644.993,551.203 647.747,552.13 650.502,553.048 653.256,553.956 656.011,554.857 658.765,555.749 661.52,556.633 664.274,557.509 667.029,558.379 669.783,559.241 672.538,560.096 675.292,560.944 678.046,561.787 680.801,562.623 683.555,563.454 686.31,564.28 689.064,565.1 691.819,565.914 694.573,566.725 697.328,567.53 700.082,568.331 702.837,569.128 705.591,569.921 708.345,570.71 711.1,571.496 713.854,572.278 716.609,573.058 719.363,573.834 722.118,574.607 724.872,575.378 727.627,576.147 730.381,576.913 733.136,577.678 735.89,578.441 738.645,579.202 741.399,579.961 744.153,580.72 746.908,581.477 749.662,582.234 752.417,582.99 755.171,583.745 757.926,584.5 760.68,585.255 763.435,586.009 766.189,586.764 768.944,587.519 771.698,588.274 774.452,589.03 777.207,589.787 779.961,590.545 782.716,591.303 785.47,592.063 788.225,592.824 790.979,593.587 793.734,594.351 796.488,595.117 799.243,595.884 801.997,596.654 804.751,597.426 807.506,598.199 810.26,598.975 813.015,599.754 815.769,600.535 818.524,601.319 821.278,602.105 824.033,602.894 826.787,603.685 829.542,604.479 832.296,605.276 835.05,606.076 837.805,606.879 840.559,607.687 843.314,608.498 846.068,609.312 848.823,610.132 851.577,610.955 854.332,611.783 857.086,612.615 859.841,613.452 862.595,614.294 865.349,615.141 868.104,615.992 870.858,616.849 873.613,617.711 876.367,618.579 879.122,619.452 881.876,620.33 884.631,621.214 887.385,622.103 890.14,622.998 892.894,623.898 895.649,624.805 898.403,625.716 901.157,626.634 903.912,627.557 906.666,628.486 909.421,629.42 912.175,630.361 914.93,631.306 917.684,632.258 920.439,633.214 923.193,634.177 925.948,635.144 928.702,636.117 931.456,637.096 934.211,638.079 936.965,639.068 939.72,640.061 942.474,641.06 945.229,642.063 947.983,643.071 950.738,644.083 953.492,645.099 956.247,646.12 959.001,647.145 961.755,648.173 964.51,649.206 967.264,650.242 970.019,651.281 972.773,652.323 975.528,653.368 978.282,654.416 981.037,655.467 983.791,656.519 986.546,657.574 989.3,658.631 992.054,659.689 994.809,660.748 997.563,661.808 1000.32,662.869 1003.07,663.93 1005.83,664.991 1008.58,666.052 1011.34,667.114 1014.09,668.175 1016.84,669.236 1019.6,670.296 1022.35,671.355 1025.11,672.41 1027.86,673.462 1030.62,674.51 1033.37,675.553 1036.13,676.59 1038.88,677.621 1041.63,678.645 1044.39,679.661 1047.14,680.669 1049.9,681.668 1052.65,682.657 1055.41,683.636 1058.16,684.605 1060.92,685.563 1063.67,686.508 1066.42,687.442 1069.18,688.363 1071.93,689.271 1074.69,690.166 1077.44,691.046 1080.2,691.913 1082.95,692.765 1085.71,693.601 1088.46,694.423 1091.21,695.229 1093.97,696.019 1096.72,696.793 1099.48,697.551 1102.23,698.293 1104.99,699.017 1107.74,699.725 1110.5,700.416 1113.25,701.089 1116.01,701.745 1118.76,702.384 1121.51,703.006 1124.27,703.61 1127.02,704.196 1129.78,704.765 1132.53,705.317 1135.29,705.851 1138.04,706.368 1140.8,706.868 1143.55,707.35 1146.3,707.816 1149.06,708.264 1151.81,708.696 1154.57,709.111 1157.32,709.51 1160.08,709.893 1162.83,710.26 1165.59,710.612 1168.34,710.948 1171.09,711.269 1173.85,711.576 1176.6,711.868 1179.36,712.147 1182.11,712.412 1184.87,712.664 1187.62,712.904 1190.38,713.132 1193.13,713.348 1195.88,713.553 1198.64,713.748 1201.39,713.932 1204.15,714.106 1206.9,714.271 1209.66,714.427 1212.41,714.573 1215.17,714.712 1217.92,714.842 1220.67,714.964 1223.43,715.08 1226.18,715.188 1228.94,715.289 1231.69,715.384 1234.45,715.473 1237.2,715.557 1239.96,715.634 1242.71,715.707 1245.46,715.775 1248.22,715.837 1250.97,715.896 1253.73,715.95 1256.48,716.001 1259.24,716.048 1261.99,716.091 1264.75,716.131 1267.5,716.168 1270.25,716.203 1273.01,716.235 1275.76,716.264 1278.52,716.291 1281.27,716.316 1284.03,716.339 1286.78,716.36 1289.54,716.38 1292.29,716.398 1295.04,716.415 1297.8,716.431 1300.55,716.445 1303.31,716.459 1306.06,716.472 1308.82,716.483 1311.57,716.494 1314.33,716.505 1317.08,716.515 1319.83,716.524 1322.59,716.533 1325.34,716.541 1328.1,716.549 1330.85,716.556 1333.61,716.563 1336.36,716.57 1339.12,716.576 1341.87,716.582 1344.62,716.588 1347.38,716.593 1350.13,716.598 1352.89,716.602 1355.64,716.606 1358.4,716.609 1361.15,716.611 1363.91,716.613 1366.66,716.615 1369.41,716.617 1372.17,716.618 1374.92,716.62 1377.68,716.621 1380.43,716.622 1383.19,716.623 1385.94,716.624 1388.7,716.625 1391.45,716.626 1394.21,716.627 1396.96,716.628 1399.71,716.628 1402.47,716.629 1405.22,716.629 1407.98,716.63 1410.73,716.63 1413.49,716.63 1416.24,716.631 1419,716.631 1421.75,716.631 1424.5,716.631 1427.26,716.631 1430.01,716.631 1432.77,716.631 1435.52,716.631 1438.28,716.631 1441.03,716.631 1443.79,716.631 1446.54,716.631 1449.29,716.631 1452.05,716.631 1454.8,716.631 1457.56,716.631 1460.31,716.631 1463.07,716.631 1465.82,716.631 1468.58,716.631 1471.33,716.631 1474.08,716.631 1476.84,716.631 1479.59,716.631 1482.35,716.631 1485.1,716.631 1487.86,716.631 1490.61,716.631 1493.37,716.631 1496.12,716.631 1498.87,716.631 1501.63,716.631 1504.38,716.631 1507.14,716.631 1509.89,716.631 1512.65,716.632 1515.4,716.632 1518.16,716.632 1520.91,716.632 1523.66,716.632 1526.42,716.632 1529.17,716.632 1531.93,716.632 1534.68,716.632 1537.44,716.632 1540.19,716.632 1542.95,716.632 1545.7,716.632 1548.45,716.632 1551.21,716.632 1553.96,716.632 1556.72,716.632 1559.47,716.632 1562.23,716.632 1564.98,716.632 1567.74,716.632 1570.49,716.632 1573.24,716.632 1576,716.632 1578.75,716.632 1581.51,716.632 1584.26,716.632 1587.02,716.632 1589.77,716.632 1592.53,716.632 1595.28,716.632 1598.03,716.632 1600.79,716.632 1603.54,716.632 1606.3,716.632 1609.05,716.632 1611.81,716.632 1614.56,716.632 1617.32,716.632 1620.07,716.632 1622.82,716.632 1625.58,716.632 1628.33,716.632 1631.09,716.632 1633.84,716.632 1636.6,716.632 1639.35,716.632 1642.11,716.632 1644.86,716.632 1647.62,716.632 1650.37,716.632 1653.12,716.632 1655.88,716.632 1658.63,716.632 1661.39,716.632 1664.14,716.632 1666.9,716.632 1669.65,716.632 1672.41,716.632 1675.16,716.632 1677.91,716.632 1680.67,716.632 1683.42,716.632 1686.18,716.632 1688.93,716.632 1691.69,716.632 1694.44,716.632 1697.2,716.632 1699.95,716.632 1702.7,716.632 1705.46,716.632 1708.21,716.631 1710.97,716.631 1713.72,716.631 1716.48,716.631 1719.23,716.631 1721.99,716.631 1724.74,716.631 1727.49,716.631 1730.25,716.631 1733,716.631 1735.76,716.631 1738.51,716.631 1741.27,716.631 1744.02,716.631 1746.78,716.631 1749.53,716.631 1752.28,716.631 1755.04,716.631 1757.79,716.631 1760.55,716.631 1763.3,716.631 1766.06,716.631 1768.81,716.631 1771.57,716.631 1774.32,716.631 1777.07,716.631 1779.83,716.631 1782.58,716.631 1785.34,716.631 1788.09,716.631 1790.85,716.631 1793.6,716.631 1796.36,716.631 1799.11,716.631 1801.86,716.631 1804.62,716.631 1807.37,716.631 1810.13,716.631 1812.88,716.631 1815.64,716.631 1818.39,716.631 1821.15,716.631 1823.9,716.631 1826.65,716.631 1829.41,716.631 1832.16,716.631 1834.92,716.631 1837.67,716.631 1840.43,716.631 1843.18,716.631 1845.94,716.631 1848.69,716.631 1851.44,716.631 1854.2,716.631 1856.95,716.631 1859.71,716.631 1862.46,716.631 1865.22,716.631 1867.97,716.631 1870.73,716.631 1873.48,716.631 1876.23,716.631 1878.99,716.631 1881.74,716.631 1884.5,716.631 1887.25,716.631 1890.01,716.631 1892.76,716.631 1895.52,716.631 1898.27,716.631 1901.03,716.631 1903.78,716.631 1906.53,716.631 1909.29,716.631 1912.04,716.631 1914.8,716.631 1917.55,716.631 1920.31,716.631 1923.06,716.631 1925.82,716.631 1928.57,716.631 1931.32,716.631 1934.08,716.631 1936.83,716.631 1939.59,716.631 1942.34,716.631 1945.1,716.631 1947.85,716.631 1950.61,716.631 1953.36,716.631 1956.11,716.631 1958.87,716.631 1961.62,716.631 1964.38,716.631 1967.13,716.631 1969.89,716.631 1972.64,716.631 1975.4,716.631 1978.15,716.632 1980.9,716.632 1983.66,716.632 1986.41,716.632 1989.17,716.632 1991.92,716.632 1994.68,716.632 1997.43,716.632 2000.19,716.632 2002.94,716.632 2005.69,716.632 2008.45,716.632 2011.2,716.632 2013.96,716.632 2016.71,716.632 2019.47,716.632 2022.22,716.632 2024.98,716.632 2027.73,716.632 2030.48,716.632 2033.24,716.632 2035.99,716.632 2038.75,716.632 2041.5,716.632 2044.26,716.632 2047.01,716.632 2049.77,716.632 2052.52,716.632 2055.27,716.632 2058.03,716.632 2060.78,716.632 2063.54,716.632 2066.29,716.632 2069.05,716.632 2071.8,716.632 2074.56,716.632 2077.31,716.632 2080.06,716.632 2082.82,716.632 2085.57,716.632 2088.33,716.632 2091.08,716.632 2093.84,716.632 2096.59,716.632 2099.35,716.632 2102.1,716.632 2104.85,716.632 2107.61,716.632 2110.36,716.632 2113.12,716.632 2115.87,716.632 2118.63,716.632 2121.38,716.632 2124.14,716.632 2126.89,716.632 2129.64,716.632 2132.4,716.632 2135.15,716.632 2137.91,716.632 2140.66,716.632 2143.42,716.632 2146.17,716.632 2148.93,716.632 2151.68,716.632 2154.44,716.632 2157.19,716.632 2159.94,716.632 2162.7,716.632 2165.45,716.632 2168.21,716.632 2170.96,716.632 2173.72,716.632 2176.47,716.632 2179.23,716.632 2181.98,716.632 2184.73,716.632 2187.49,716.632 2190.24,716.633 2193,716.633 2195.75,716.633 2198.51,716.633 2201.26,716.633 2204.02,716.633 2206.77,716.633 2209.52,716.633 2212.28,716.633 2215.03,716.633 2217.79,716.633 2220.54,716.633 2223.3,716.633 2226.05,716.633 2228.81,716.633 2231.56,716.633 2234.31,716.633 2237.07,716.633 2239.82,716.633 2242.58,716.633 2245.33,716.633 2248.09,716.633 2250.84,716.634 2253.6,716.634 2256.35,716.634 2259.1,716.634 2261.86,716.634 2264.61,716.634 2267.37,716.634 2270.12,716.634 2272.88,716.634 2275.63,716.634 2278.39,716.634 2281.14,716.634 2283.89,716.634 2286.65,716.634 2289.4,716.634 2292.16,716.635 2294.91,716.635 2297.67,716.635 2300.42,716.635 2303.18,716.635 2305.93,716.635 2308.68,716.635 2311.44,716.635 2314.19,716.635 2316.95,716.635 2319.7,716.635 2322.46,716.635 2325.21,716.636 2327.97,716.636 2330.72,716.636 2333.47,716.636 2336.23,716.636 2338.98,716.636 2341.74,716.636 2344.49,716.636 2347.25,716.636 2350,716.637 2352.76,716.637 "/>
<polyline clip-path="url(#clip592)" style="stroke:#3da44d; stroke-linecap:round; stroke-linejoin:round; stroke-width:12; stroke-opacity:1; fill:none" points="149.191,-207.578 151.945,87.5368 154.7,367.719 157.454,546.067 160.209,635.967 162.963,681.656 165.718,707.7 168.472,724.325 171.227,735.867 173.981,744.41 176.735,751.095 179.49,756.606 182.244,761.375 184.999,765.681 187.753,769.704 190.508,773.562 193.262,777.333 196.017,781.063 198.771,784.782 201.526,788.507 204.28,792.244 207.034,795.995 209.789,799.756 212.543,803.522 215.298,807.286 218.052,811.037 220.807,814.768 223.561,818.468 226.316,822.128 229.07,825.739 231.825,829.292 234.579,832.778 237.333,836.191 240.088,839.524 242.842,842.771 245.597,845.927 248.351,848.988 251.106,851.952 253.86,854.815 256.615,857.576 259.369,860.233 262.124,862.787 264.878,865.237 267.632,867.584 270.387,869.829 273.141,871.974 275.896,874.02 278.65,875.969 281.405,877.823 284.159,879.585 286.914,881.258 289.668,882.843 292.423,884.344 295.177,885.763 297.932,887.103 300.686,888.366 303.44,889.556 306.195,890.674 308.949,891.723 311.704,892.707 314.458,893.626 317.213,894.483 319.967,895.28 322.722,896.021 325.476,896.705 328.231,897.336 330.985,897.914 333.739,898.443 336.494,898.923 339.248,899.355 342.003,899.742 344.757,900.084 347.512,900.384 350.266,900.641 353.021,900.858 355.775,901.035 358.53,901.173 361.284,901.274 364.038,901.338 366.793,901.367 369.547,901.36 372.302,901.319 375.056,901.245 377.811,901.139 380.565,901.001 383.32,900.831 386.074,900.632 388.829,900.403 391.583,900.145 394.337,899.859 397.092,899.545 399.846,899.204 402.601,898.838 405.355,898.446 408.11,898.029 410.864,897.589 413.619,897.125 416.373,896.638 419.128,896.13 421.882,895.6 424.636,895.051 427.391,894.481 430.145,893.893 432.9,893.286 435.654,892.663 438.409,892.022 441.163,891.366 443.918,890.695 446.672,890.009 449.427,889.31 452.181,888.599 454.936,887.876 457.69,887.141 460.444,886.396 463.199,885.642 465.953,884.879 468.708,884.109 471.462,883.331 474.217,882.546 476.971,881.756 479.726,880.961 482.48,880.162 485.235,879.36 487.989,878.555 490.743,877.747 493.498,876.939 496.252,876.129 499.007,875.32 501.761,874.511 504.516,873.703 507.27,872.897 510.025,872.093 512.779,871.292 515.534,870.494 518.288,869.7 521.042,868.911 523.797,868.126 526.551,867.346 529.306,866.572 532.06,865.805 534.815,865.043 537.569,864.289 540.324,863.541 543.078,862.801 545.833,862.069 548.587,861.345 551.341,860.629 554.096,859.921 556.85,859.223 559.605,858.533 562.359,857.853 565.114,857.182 567.868,856.521 570.623,855.869 573.377,855.228 576.132,854.596 578.886,853.974 581.641,853.363 584.395,852.762 587.149,852.171 589.904,851.59 592.658,851.02 595.413,850.461 598.167,849.912 600.922,849.374 603.676,848.847 606.431,848.33 609.185,847.824 611.94,847.328 614.694,846.843 617.448,846.369 620.203,845.905 622.957,845.452 625.712,845.01 628.466,844.578 631.221,844.156 633.975,843.745 636.73,843.345 639.484,842.954 642.239,842.574 644.993,842.204 647.747,841.845 650.502,841.495 653.256,841.156 656.011,840.827 658.765,840.507 661.52,840.197 664.274,839.898 667.029,839.607 669.783,839.327 672.538,839.056 675.292,838.794 678.046,838.542 680.801,838.3 683.555,838.066 686.31,837.842 689.064,837.627 691.819,837.42 694.573,837.223 697.328,837.035 700.082,836.855 702.837,836.684 705.591,836.522 708.345,836.368 711.1,836.223 713.854,836.086 716.609,835.957 719.363,835.837 722.118,835.724 724.872,835.62 727.627,835.524 730.381,835.435 733.136,835.355 735.89,835.282 738.645,835.217 741.399,835.159 744.153,835.109 746.908,835.066 749.662,835.03 752.417,835.002 755.171,834.981 757.926,834.967 760.68,834.96 763.435,834.96 766.189,834.967 768.944,834.981 771.698,835.001 774.452,835.028 777.207,835.061 779.961,835.101 782.716,835.147 785.47,835.199 788.225,835.258 790.979,835.322 793.734,835.393 796.488,835.469 799.243,835.552 801.997,835.64 804.751,835.733 807.506,835.832 810.26,835.937 813.015,836.047 815.769,836.162 818.524,836.282 821.278,836.407 824.033,836.537 826.787,836.672 829.542,836.812 832.296,836.956 835.05,837.105 837.805,837.258 840.559,837.415 843.314,837.577 846.068,837.742 848.823,837.911 851.577,838.084 854.332,838.261 857.086,838.44 859.841,838.624 862.595,838.81 865.349,838.999 868.104,839.191 870.858,839.386 873.613,839.583 876.367,839.782 879.122,839.984 881.876,840.188 884.631,840.393 887.385,840.6 890.14,840.808 892.894,841.017 895.649,841.227 898.403,841.438 901.157,841.65 903.912,841.861 906.666,842.073 909.421,842.284 912.175,842.495 914.93,842.705 917.684,842.914 920.439,843.122 923.193,843.328 925.948,843.532 928.702,843.734 931.456,843.934 934.211,844.131 936.965,844.324 939.72,844.514 942.474,844.7 945.229,844.882 947.983,845.059 950.738,845.231 953.492,845.398 956.247,845.56 959.001,845.715 961.755,845.863 964.51,846.005 967.264,846.139 970.019,846.266 972.773,846.384 975.528,846.493 978.282,846.593 981.037,846.684 983.791,846.765 986.546,846.835 989.3,846.894 992.054,846.941 994.809,846.977 997.563,847 1000.32,847.01 1003.07,847.006 1005.83,846.989 1008.58,846.957 1011.34,846.91 1014.09,846.847 1016.84,846.769 1019.6,846.674 1022.35,846.562 1025.11,846.432 1027.86,846.285 1030.62,846.119 1033.37,845.935 1036.13,845.731 1038.88,845.508 1041.63,845.264 1044.39,845 1047.14,844.715 1049.9,844.409 1052.65,844.081 1055.41,843.731 1058.16,843.359 1060.92,842.964 1063.67,842.547 1066.42,842.106 1069.18,841.643 1071.93,841.156 1074.69,840.646 1077.44,840.112 1080.2,839.554 1082.95,838.973 1085.71,838.368 1088.46,837.739 1091.21,837.087 1093.97,836.412 1096.72,835.713 1099.48,834.992 1102.23,834.247 1104.99,833.48 1107.74,832.69 1110.5,831.879 1113.25,831.046 1116.01,830.193 1118.76,829.318 1121.51,828.424 1124.27,827.51 1127.02,826.577 1129.78,825.626 1132.53,824.657 1135.29,823.671 1138.04,822.669 1140.8,821.651 1143.55,820.619 1146.3,819.572 1149.06,818.512 1151.81,817.44 1154.57,816.356 1157.32,815.261 1160.08,814.157 1162.83,813.043 1165.59,811.921 1168.34,810.792 1171.09,809.657 1173.85,808.516 1176.6,807.371 1179.36,806.222 1182.11,805.07 1184.87,803.916 1187.62,802.761 1190.38,801.605 1193.13,800.451 1195.88,799.297 1198.64,798.146 1201.39,796.998 1204.15,795.853 1206.9,794.713 1209.66,793.578 1212.41,792.448 1215.17,791.326 1217.92,790.21 1220.67,789.102 1223.43,788.002 1226.18,786.912 1228.94,785.83 1231.69,784.759 1234.45,783.698 1237.2,782.648 1239.96,781.609 1242.71,780.581 1245.46,779.566 1248.22,778.563 1250.97,777.572 1253.73,776.595 1256.48,775.63 1259.24,774.679 1261.99,773.742 1264.75,772.818 1267.5,771.909 1270.25,771.013 1273.01,770.132 1275.76,769.265 1278.52,768.412 1281.27,767.574 1284.03,766.75 1286.78,765.94 1289.54,765.146 1292.29,764.365 1295.04,763.599 1297.8,762.848 1300.55,762.11 1303.31,761.387 1306.06,760.679 1308.82,759.984 1311.57,759.303 1314.33,758.636 1317.08,757.983 1319.83,757.344 1322.59,756.717 1325.34,756.105 1328.1,755.505 1330.85,754.919 1333.61,754.345 1336.36,753.784 1339.12,753.236 1341.87,752.7 1344.62,752.176 1347.38,751.664 1350.13,751.164 1352.89,750.675 1355.64,750.198 1358.4,749.732 1361.15,749.277 1363.91,748.833 1366.66,748.4 1369.41,747.977 1372.17,747.564 1374.92,747.162 1377.68,746.769 1380.43,746.386 1383.19,746.013 1385.94,745.649 1388.7,745.294 1391.45,744.948 1394.21,744.611 1396.96,744.282 1399.71,743.962 1402.47,743.65 1405.22,743.347 1407.98,743.051 1410.73,742.763 1413.49,742.482 1416.24,742.209 1419,741.943 1421.75,741.684 1424.5,741.432 1427.26,741.186 1430.01,740.948 1432.77,740.716 1435.52,740.49 1438.28,740.27 1441.03,740.056 1443.79,739.849 1446.54,739.646 1449.29,739.45 1452.05,739.259 1454.8,739.074 1457.56,738.893 1460.31,738.718 1463.07,738.548 1465.82,738.383 1468.58,738.222 1471.33,738.066 1474.08,737.915 1476.84,737.768 1479.59,737.625 1482.35,737.487 1485.1,737.352 1487.86,737.222 1490.61,737.096 1493.37,736.973 1496.12,736.854 1498.87,736.739 1501.63,736.627 1504.38,736.519 1507.14,736.414 1509.89,736.313 1512.65,736.215 1515.4,736.12 1518.16,736.028 1520.91,735.939 1523.66,735.852 1526.42,735.769 1529.17,735.689 1531.93,735.611 1534.68,735.536 1537.44,735.463 1540.19,735.393 1542.95,735.326 1545.7,735.26 1548.45,735.198 1551.21,735.137 1553.96,735.079 1556.72,735.022 1559.47,734.968 1562.23,734.916 1564.98,734.866 1567.74,734.818 1570.49,734.772 1573.24,734.728 1576,734.686 1578.75,734.645 1581.51,734.606 1584.26,734.569 1587.02,734.534 1589.77,734.5 1592.53,734.467 1595.28,734.436 1598.03,734.407 1600.79,734.379 1603.54,734.353 1606.3,734.328 1609.05,734.304 1611.81,734.282 1614.56,734.261 1617.32,734.241 1620.07,734.223 1622.82,734.206 1625.58,734.189 1628.33,734.174 1631.09,734.16 1633.84,734.148 1636.6,734.136 1639.35,734.125 1642.11,734.116 1644.86,734.107 1647.62,734.099 1650.37,734.093 1653.12,734.087 1655.88,734.082 1658.63,734.078 1661.39,734.075 1664.14,734.072 1666.9,734.071 1669.65,734.07 1672.41,734.07 1675.16,734.071 1677.91,734.072 1680.67,734.075 1683.42,734.078 1686.18,734.082 1688.93,734.086 1691.69,734.091 1694.44,734.097 1697.2,734.103 1699.95,734.11 1702.7,734.117 1705.46,734.125 1708.21,734.134 1710.97,734.143 1713.72,734.153 1716.48,734.163 1719.23,734.174 1721.99,734.185 1724.74,734.197 1727.49,734.21 1730.25,734.223 1733,734.236 1735.76,734.249 1738.51,734.264 1741.27,734.278 1744.02,734.293 1746.78,734.309 1749.53,734.324 1752.28,734.341 1755.04,734.357 1757.79,734.374 1760.55,734.392 1763.3,734.409 1766.06,734.427 1768.81,734.446 1771.57,734.464 1774.32,734.483 1777.07,734.503 1779.83,734.522 1782.58,734.542 1785.34,734.563 1788.09,734.583 1790.85,734.604 1793.6,734.625 1796.36,734.647 1799.11,734.668 1801.86,734.69 1804.62,734.712 1807.37,734.735 1810.13,734.757 1812.88,734.78 1815.64,734.803 1818.39,734.827 1821.15,734.85 1823.9,734.874 1826.65,734.898 1829.41,734.922 1832.16,734.946 1834.92,734.971 1837.67,734.996 1840.43,735.021 1843.18,735.046 1845.94,735.071 1848.69,735.096 1851.44,735.122 1854.2,735.148 1856.95,735.174 1859.71,735.2 1862.46,735.226 1865.22,735.252 1867.97,735.279 1870.73,735.306 1873.48,735.332 1876.23,735.359 1878.99,735.386 1881.74,735.414 1884.5,735.441 1887.25,735.468 1890.01,735.496 1892.76,735.524 1895.52,735.552 1898.27,735.579 1901.03,735.607 1903.78,735.636 1906.53,735.664 1909.29,735.692 1912.04,735.721 1914.8,735.749 1917.55,735.778 1920.31,735.806 1923.06,735.835 1925.82,735.864 1928.57,735.893 1931.32,735.922 1934.08,735.951 1936.83,735.98 1939.59,736.009 1942.34,736.039 1945.1,736.068 1947.85,736.097 1950.61,736.127 1953.36,736.156 1956.11,736.186 1958.87,736.216 1961.62,736.246 1964.38,736.275 1967.13,736.305 1969.89,736.335 1972.64,736.365 1975.4,736.395 1978.15,736.425 1980.9,736.455 1983.66,736.485 1986.41,736.516 1989.17,736.546 1991.92,736.576 1994.68,736.606 1997.43,736.637 2000.19,736.667 2002.94,736.697 2005.69,736.728 2008.45,736.758 2011.2,736.789 2013.96,736.819 2016.71,736.85 2019.47,736.881 2022.22,736.911 2024.98,736.942 2027.73,736.972 2030.48,737.003 2033.24,737.034 2035.99,737.065 2038.75,737.095 2041.5,737.126 2044.26,737.157 2047.01,737.188 2049.77,737.218 2052.52,737.249 2055.27,737.28 2058.03,737.311 2060.78,737.342 2063.54,737.373 2066.29,737.403 2069.05,737.434 2071.8,737.465 2074.56,737.496 2077.31,737.527 2080.06,737.558 2082.82,737.589 2085.57,737.62 2088.33,737.651 2091.08,737.681 2093.84,737.712 2096.59,737.743 2099.35,737.774 2102.1,737.805 2104.85,737.836 2107.61,737.867 2110.36,737.898 2113.12,737.929 2115.87,737.959 2118.63,737.99 2121.38,738.021 2124.14,738.052 2126.89,738.083 2129.64,738.114 2132.4,738.144 2135.15,738.175 2137.91,738.206 2140.66,738.237 2143.42,738.268 2146.17,738.298 2148.93,738.329 2151.68,738.36 2154.44,738.39 2157.19,738.421 2159.94,738.452 2162.7,738.483 2165.45,738.513 2168.21,738.544 2170.96,738.574 2173.72,738.605 2176.47,738.636 2179.23,738.666 2181.98,738.697 2184.73,738.727 2187.49,738.758 2190.24,738.788 2193,738.819 2195.75,738.849 2198.51,738.88 2201.26,738.91 2204.02,738.94 2206.77,738.971 2209.52,739.001 2212.28,739.031 2215.03,739.062 2217.79,739.092 2220.54,739.122 2223.3,739.152 2226.05,739.182 2228.81,739.213 2231.56,739.243 2234.31,739.273 2237.07,739.303 2239.82,739.333 2242.58,739.363 2245.33,739.393 2248.09,739.423 2250.84,739.453 2253.6,739.483 2256.35,739.512 2259.1,739.542 2261.86,739.572 2264.61,739.602 2267.37,739.632 2270.12,739.661 2272.88,739.691 2275.63,739.721 2278.39,739.75 2281.14,739.78 2283.89,739.809 2286.65,739.839 2289.4,739.868 2292.16,739.898 2294.91,739.927 2297.67,739.956 2300.42,739.986 2303.18,740.015 2305.93,740.044 2308.68,740.073 2311.44,740.103 2314.19,740.132 2316.95,740.161 2319.7,740.19 2322.46,740.219 2325.21,740.248 2327.97,740.277 2330.72,740.306 2333.47,740.335 2336.23,740.364 2338.98,740.393 2341.74,740.421 2344.49,740.45 2347.25,740.479 2350,740.507 2352.76,740.536 "/>
<path clip-path="url(#clip590)" d="M1969.85 1377.32 L2279.3 1377.32 L2279.3 1169.96 L1969.85 1169.96  Z" fill="#ffffff" fill-rule="evenodd" fill-opacity="1"/>
<polyline clip-path="url(#clip590)" style="stroke:#000000; stroke-linecap:round; stroke-linejoin:round; stroke-width:4; stroke-opacity:1; fill:none" points="1969.85,1377.32 2279.3,1377.32 2279.3,1169.96 1969.85,1169.96 1969.85,1377.32 "/>
<polyline clip-path="url(#clip590)" style="stroke:#009af9; stroke-linecap:round; stroke-linejoin:round; stroke-width:12; stroke-opacity:1; fill:none" points="1994.33,1221.8 2141.24,1221.8 "/>
<path clip-path="url(#clip590)" d="M2165.72 1228.84 L2165.72 1213.15 L2169.98 1213.15 L2169.98 1228.68 Q2169.98 1232.36 2171.42 1234.21 Q2172.85 1236.04 2175.72 1236.04 Q2179.17 1236.04 2181.16 1233.84 Q2183.18 1231.64 2183.18 1227.85 L2183.18 1213.15 L2187.44 1213.15 L2187.44 1239.08 L2183.18 1239.08 L2183.18 1235.09 Q2181.63 1237.45 2179.57 1238.61 Q2177.53 1239.75 2174.82 1239.75 Q2170.35 1239.75 2168.04 1236.97 Q2165.72 1234.19 2165.72 1228.84 M2176.44 1212.52 L2176.44 1212.52 Z" fill="#000000" fill-rule="nonzero" fill-opacity="1" /><path clip-path="url(#clip590)" d="M2195.82 1203.06 L2205.63 1203.06 L2205.63 1206.37 L2200.07 1206.37 L2200.07 1242.02 L2205.63 1242.02 L2205.63 1245.33 L2195.82 1245.33 L2195.82 1203.06 Z" fill="#000000" fill-rule="nonzero" fill-opacity="1" /><path clip-path="url(#clip590)" d="M2216.12 1235.14 L2223.76 1235.14 L2223.76 1208.77 L2215.44 1210.44 L2215.44 1206.18 L2223.71 1204.52 L2228.38 1204.52 L2228.38 1235.14 L2236.02 1235.14 L2236.02 1239.08 L2216.12 1239.08 L2216.12 1235.14 Z" fill="#000000" fill-rule="nonzero" fill-opacity="1" /><path clip-path="url(#clip590)" d="M2254.82 1203.06 L2254.82 1245.33 L2245 1245.33 L2245 1242.02 L2250.54 1242.02 L2250.54 1206.37 L2245 1206.37 L2245 1203.06 L2254.82 1203.06 Z" fill="#000000" fill-rule="nonzero" fill-opacity="1" /><polyline clip-path="url(#clip590)" style="stroke:#e26f46; stroke-linecap:round; stroke-linejoin:round; stroke-width:12; stroke-opacity:1; fill:none" points="1994.33,1273.64 2141.24,1273.64 "/>
<path clip-path="url(#clip590)" d="M2165.72 1280.68 L2165.72 1264.99 L2169.98 1264.99 L2169.98 1280.52 Q2169.98 1284.2 2171.42 1286.05 Q2172.85 1287.88 2175.72 1287.88 Q2179.17 1287.88 2181.16 1285.68 Q2183.18 1283.48 2183.18 1279.69 L2183.18 1264.99 L2187.44 1264.99 L2187.44 1290.92 L2183.18 1290.92 L2183.18 1286.93 Q2181.63 1289.29 2179.57 1290.45 Q2177.53 1291.59 2174.82 1291.59 Q2170.35 1291.59 2168.04 1288.81 Q2165.72 1286.03 2165.72 1280.68 M2176.44 1264.36 L2176.44 1264.36 Z" fill="#000000" fill-rule="nonzero" fill-opacity="1" /><path clip-path="url(#clip590)" d="M2195.82 1254.9 L2205.63 1254.9 L2205.63 1258.21 L2200.07 1258.21 L2200.07 1293.86 L2205.63 1293.86 L2205.63 1297.17 L2195.82 1297.17 L2195.82 1254.9 Z" fill="#000000" fill-rule="nonzero" fill-opacity="1" /><path clip-path="url(#clip590)" d="M2219.33 1286.98 L2235.65 1286.98 L2235.65 1290.92 L2213.71 1290.92 L2213.71 1286.98 Q2216.37 1284.23 2220.95 1279.6 Q2225.56 1274.94 2226.74 1273.6 Q2228.99 1271.08 2229.87 1269.34 Q2230.77 1267.58 2230.77 1265.89 Q2230.77 1263.14 2228.82 1261.4 Q2226.9 1259.67 2223.8 1259.67 Q2221.6 1259.67 2219.15 1260.43 Q2216.72 1261.19 2213.94 1262.74 L2213.94 1258.02 Q2216.76 1256.89 2219.22 1256.31 Q2221.67 1255.73 2223.71 1255.73 Q2229.08 1255.73 2232.27 1258.42 Q2235.47 1261.1 2235.47 1265.59 Q2235.47 1267.72 2234.66 1269.64 Q2233.87 1271.54 2231.76 1274.13 Q2231.19 1274.8 2228.08 1278.02 Q2224.98 1281.22 2219.33 1286.98 Z" fill="#000000" fill-rule="nonzero" fill-opacity="1" /><path clip-path="url(#clip590)" d="M2254.82 1254.9 L2254.82 1297.17 L2245 1297.17 L2245 1293.86 L2250.54 1293.86 L2250.54 1258.21 L2245 1258.21 L2245 1254.9 L2254.82 1254.9 Z" fill="#000000" fill-rule="nonzero" fill-opacity="1" /><polyline clip-path="url(#clip590)" style="stroke:#3da44d; stroke-linecap:round; stroke-linejoin:round; stroke-width:12; stroke-opacity:1; fill:none" points="1994.33,1325.48 2141.24,1325.48 "/>
<path clip-path="url(#clip590)" d="M2165.72 1332.52 L2165.72 1316.83 L2169.98 1316.83 L2169.98 1332.36 Q2169.98 1336.04 2171.42 1337.89 Q2172.85 1339.72 2175.72 1339.72 Q2179.17 1339.72 2181.16 1337.52 Q2183.18 1335.32 2183.18 1331.53 L2183.18 1316.83 L2187.44 1316.83 L2187.44 1342.76 L2183.18 1342.76 L2183.18 1338.77 Q2181.63 1341.13 2179.57 1342.29 Q2177.53 1343.43 2174.82 1343.43 Q2170.35 1343.43 2168.04 1340.65 Q2165.72 1337.87 2165.72 1332.52 M2176.44 1316.2 L2176.44 1316.2 Z" fill="#000000" fill-rule="nonzero" fill-opacity="1" /><path clip-path="url(#clip590)" d="M2206.44 1306.78 Q2203.34 1312.11 2201.83 1317.32 Q2200.33 1322.52 2200.33 1327.87 Q2200.33 1333.22 2201.83 1338.47 Q2203.36 1343.7 2206.44 1349.01 L2202.74 1349.01 Q2199.26 1343.57 2197.53 1338.31 Q2195.82 1333.06 2195.82 1327.87 Q2195.82 1322.71 2197.53 1317.48 Q2199.24 1312.25 2202.74 1306.78 L2206.44 1306.78 Z" fill="#000000" fill-rule="nonzero" fill-opacity="1" /><path clip-path="url(#clip590)" d="M2218.92 1309.47 L2218.92 1316.83 L2227.69 1316.83 L2227.69 1320.14 L2218.92 1320.14 L2218.92 1334.21 Q2218.92 1337.38 2219.77 1338.29 Q2220.65 1339.19 2223.32 1339.19 L2227.69 1339.19 L2227.69 1342.76 L2223.32 1342.76 Q2218.38 1342.76 2216.51 1340.93 Q2214.63 1339.07 2214.63 1334.21 L2214.63 1320.14 L2211.51 1320.14 L2211.51 1316.83 L2214.63 1316.83 L2214.63 1309.47 L2218.92 1309.47 Z" fill="#000000" fill-rule="nonzero" fill-opacity="1" /><path clip-path="url(#clip590)" d="M2232.62 1306.78 L2236.32 1306.78 Q2239.8 1312.25 2241.51 1317.48 Q2243.25 1322.71 2243.25 1327.87 Q2243.25 1333.06 2241.51 1338.31 Q2239.8 1343.57 2236.32 1349.01 L2232.62 1349.01 Q2235.7 1343.7 2237.2 1338.47 Q2238.73 1333.22 2238.73 1327.87 Q2238.73 1322.52 2237.2 1317.32 Q2235.7 1312.11 2232.62 1306.78 Z" fill="#000000" fill-rule="nonzero" fill-opacity="1" /></svg>
