<?xml version="1.0" encoding="utf-8"?>
<svg xmlns="http://www.w3.org/2000/svg" xmlns:xlink="http://www.w3.org/1999/xlink" width="600" height="400" viewBox="0 0 2400 1600">
<defs>
  <clipPath id="clip810">
    <rect x="0" y="0" width="2400" height="1600"/>
  </clipPath>
</defs>
<path clip-path="url(#clip810)" d="M0 1600 L2400 1600 L2400 0 L0 0  Z" fill="#ffffff" fill-rule="evenodd" fill-opacity="1"/>
<defs>
  <clipPath id="clip811">
    <rect x="480" y="0" width="1681" height="1600"/>
  </clipPath>
</defs>
<path clip-path="url(#clip810)" d="M149.191 1423.18 L2352.76 1423.18 L2352.76 47.2441 L149.191 47.2441  Z" fill="#ffffff" fill-rule="evenodd" fill-opacity="1"/>
<defs>
  <clipPath id="clip812">
    <rect x="149" y="47" width="2205" height="1377"/>
  </clipPath>
</defs>
<polyline clip-path="url(#clip812)" style="stroke:#000000; stroke-linecap:round; stroke-linejoin:round; stroke-width:2; stroke-opacity:0.1; fill:none" points="149.191,1423.18 149.191,47.2441 "/>
<polyline clip-path="url(#clip812)" style="stroke:#000000; stroke-linecap:round; stroke-linejoin:round; stroke-width:2; stroke-opacity:0.1; fill:none" points="700.082,1423.18 700.082,47.2441 "/>
<polyline clip-path="url(#clip812)" style="stroke:#000000; stroke-linecap:round; stroke-linejoin:round; stroke-width:2; stroke-opacity:0.1; fill:none" points="1250.97,1423.18 1250.97,47.2441 "/>
<polyline clip-path="url(#clip812)" style="stroke:#000000; stroke-linecap:round; stroke-linejoin:round; stroke-width:2; stroke-opacity:0.1; fill:none" points="1801.86,1423.18 1801.86,47.2441 "/>
<polyline clip-path="url(#clip812)" style="stroke:#000000; stroke-linecap:round; stroke-linejoin:round; stroke-width:2; stroke-opacity:0.1; fill:none" points="2352.76,1423.18 2352.76,47.2441 "/>
<polyline clip-path="url(#clip812)" style="stroke:#000000; stroke-linecap:round; stroke-linejoin:round; stroke-width:2; stroke-opacity:0.1; fill:none" points="149.191,1423.18 2352.76,1423.18 "/>
<polyline clip-path="url(#clip812)" style="stroke:#000000; stroke-linecap:round; stroke-linejoin:round; stroke-width:2; stroke-opacity:0.1; fill:none" points="149.191,1193.86 2352.76,1193.86 "/>
<polyline clip-path="url(#clip812)" style="stroke:#000000; stroke-linecap:round; stroke-linejoin:round; stroke-width:2; stroke-opacity:0.1; fill:none" points="149.191,964.535 2352.76,964.535 "/>
<polyline clip-path="url(#clip812)" style="stroke:#000000; stroke-linecap:round; stroke-linejoin:round; stroke-width:2; stroke-opacity:0.1; fill:none" points="149.191,735.212 2352.76,735.212 "/>
<polyline clip-path="url(#clip812)" style="stroke:#000000; stroke-linecap:round; stroke-linejoin:round; stroke-width:2; stroke-opacity:0.1; fill:none" points="149.191,505.889 2352.76,505.889 "/>
<polyline clip-path="url(#clip812)" style="stroke:#000000; stroke-linecap:round; stroke-linejoin:round; stroke-width:2; stroke-opacity:0.1; fill:none" points="149.191,276.567 2352.76,276.567 "/>
<polyline clip-path="url(#clip812)" style="stroke:#000000; stroke-linecap:round; stroke-linejoin:round; stroke-width:2; stroke-opacity:0.1; fill:none" points="149.191,47.2441 2352.76,47.2441 "/>
<polyline clip-path="url(#clip810)" style="stroke:#000000; stroke-linecap:round; stroke-linejoin:round; stroke-width:4; stroke-opacity:1; fill:none" points="149.191,1423.18 2352.76,1423.18 "/>
<polyline clip-path="url(#clip810)" style="stroke:#000000; stroke-linecap:round; stroke-linejoin:round; stroke-width:4; stroke-opacity:1; fill:none" points="149.191,1423.18 149.191,1404.28 "/>
<polyline clip-path="url(#clip810)" style="stroke:#000000; stroke-linecap:round; stroke-linejoin:round; stroke-width:4; stroke-opacity:1; fill:none" points="700.082,1423.18 700.082,1404.28 "/>
<polyline clip-path="url(#clip810)" style="stroke:#000000; stroke-linecap:round; stroke-linejoin:round; stroke-width:4; stroke-opacity:1; fill:none" points="1250.97,1423.18 1250.97,1404.28 "/>
<polyline clip-path="url(#clip810)" style="stroke:#000000; stroke-linecap:round; stroke-linejoin:round; stroke-width:4; stroke-opacity:1; fill:none" points="1801.86,1423.18 1801.86,1404.28 "/>
<polyline clip-path="url(#clip810)" style="stroke:#000000; stroke-linecap:round; stroke-linejoin:round; stroke-width:4; stroke-opacity:1; fill:none" points="2352.76,1423.18 2352.76,1404.28 "/>
<path clip-path="url(#clip810)" d="M149.191 1454.1 Q145.58 1454.1 143.751 1457.66 Q141.946 1461.2 141.946 1468.33 Q141.946 1475.44 143.751 1479.01 Q145.58 1482.55 149.191 1482.55 Q152.825 1482.55 154.631 1479.01 Q156.459 1475.44 156.459 1468.33 Q156.459 1461.2 154.631 1457.66 Q152.825 1454.1 149.191 1454.1 M149.191 1450.39 Q155.001 1450.39 158.057 1455 Q161.135 1459.58 161.135 1468.33 Q161.135 1477.06 158.057 1481.67 Q155.001 1486.25 149.191 1486.25 Q143.381 1486.25 140.302 1481.67 Q137.246 1477.06 137.246 1468.33 Q137.246 1459.58 140.302 1455 Q143.381 1450.39 149.191 1450.39 Z" fill="#000000" fill-rule="nonzero" fill-opacity="1" /><path clip-path="url(#clip810)" d="M694.735 1481.64 L711.054 1481.64 L711.054 1485.58 L689.11 1485.58 L689.11 1481.64 Q691.772 1478.89 696.355 1474.26 Q700.962 1469.61 702.142 1468.27 Q704.388 1465.74 705.267 1464.01 Q706.17 1462.25 706.17 1460.56 Q706.17 1457.8 704.226 1456.07 Q702.304 1454.33 699.203 1454.33 Q697.003 1454.33 694.55 1455.09 Q692.119 1455.86 689.341 1457.41 L689.341 1452.69 Q692.166 1451.55 694.619 1450.97 Q697.073 1450.39 699.11 1450.39 Q704.48 1450.39 707.675 1453.08 Q710.869 1455.77 710.869 1460.26 Q710.869 1462.39 710.059 1464.31 Q709.272 1466.2 707.165 1468.8 Q706.587 1469.47 703.485 1472.69 Q700.383 1475.88 694.735 1481.64 Z" fill="#000000" fill-rule="nonzero" fill-opacity="1" /><path clip-path="url(#clip810)" d="M1253.98 1455.09 L1242.18 1473.54 L1253.98 1473.54 L1253.98 1455.09 M1252.76 1451.02 L1258.64 1451.02 L1258.64 1473.54 L1263.57 1473.54 L1263.57 1477.43 L1258.64 1477.43 L1258.64 1485.58 L1253.98 1485.58 L1253.98 1477.43 L1238.38 1477.43 L1238.38 1472.92 L1252.76 1451.02 Z" fill="#000000" fill-rule="nonzero" fill-opacity="1" /><path clip-path="url(#clip810)" d="M1802.27 1466.44 Q1799.12 1466.44 1797.27 1468.59 Q1795.44 1470.74 1795.44 1474.49 Q1795.44 1478.22 1797.27 1480.39 Q1799.12 1482.55 1802.27 1482.55 Q1805.42 1482.55 1807.25 1480.39 Q1809.1 1478.22 1809.1 1474.49 Q1809.1 1470.74 1807.25 1468.59 Q1805.42 1466.44 1802.27 1466.44 M1811.55 1451.78 L1811.55 1456.04 Q1809.79 1455.21 1807.99 1454.77 Q1806.2 1454.33 1804.45 1454.33 Q1799.82 1454.33 1797.36 1457.45 Q1794.93 1460.58 1794.58 1466.9 Q1795.95 1464.89 1798.01 1463.82 Q1800.07 1462.73 1802.55 1462.73 Q1807.76 1462.73 1810.77 1465.9 Q1813.8 1469.05 1813.8 1474.49 Q1813.8 1479.82 1810.65 1483.03 Q1807.5 1486.25 1802.27 1486.25 Q1796.27 1486.25 1793.1 1481.67 Q1789.93 1477.06 1789.93 1468.33 Q1789.93 1460.14 1793.82 1455.28 Q1797.71 1450.39 1804.26 1450.39 Q1806.02 1450.39 1807.8 1450.74 Q1809.61 1451.09 1811.55 1451.78 Z" fill="#000000" fill-rule="nonzero" fill-opacity="1" /><path clip-path="url(#clip810)" d="M2352.76 1469.17 Q2349.42 1469.17 2347.5 1470.95 Q2345.6 1472.73 2345.6 1475.86 Q2345.6 1478.98 2347.5 1480.77 Q2349.42 1482.55 2352.76 1482.55 Q2356.09 1482.55 2358.01 1480.77 Q2359.93 1478.96 2359.93 1475.86 Q2359.93 1472.73 2358.01 1470.95 Q2356.11 1469.17 2352.76 1469.17 M2348.08 1467.18 Q2345.07 1466.44 2343.38 1464.38 Q2341.71 1462.32 2341.71 1459.35 Q2341.71 1455.21 2344.65 1452.8 Q2347.62 1450.39 2352.76 1450.39 Q2357.92 1450.39 2360.86 1452.8 Q2363.8 1455.21 2363.8 1459.35 Q2363.8 1462.32 2362.11 1464.38 Q2360.44 1466.44 2357.45 1467.18 Q2360.83 1467.96 2362.71 1470.26 Q2364.61 1472.55 2364.61 1475.86 Q2364.61 1480.88 2361.53 1483.57 Q2358.47 1486.25 2352.76 1486.25 Q2347.04 1486.25 2343.96 1483.57 Q2340.9 1480.88 2340.9 1475.86 Q2340.9 1472.55 2342.8 1470.26 Q2344.7 1467.96 2348.08 1467.18 M2346.37 1459.79 Q2346.37 1462.48 2348.03 1463.98 Q2349.72 1465.49 2352.76 1465.49 Q2355.77 1465.49 2357.45 1463.98 Q2359.17 1462.48 2359.17 1459.79 Q2359.17 1457.11 2357.45 1455.6 Q2355.77 1454.1 2352.76 1454.1 Q2349.72 1454.1 2348.03 1455.6 Q2346.37 1457.11 2346.37 1459.79 Z" fill="#000000" fill-rule="nonzero" fill-opacity="1" /><path clip-path="url(#clip810)" d="M1250.03 1522.27 L1250.03 1532.4 L1262.1 1532.4 L1262.1 1536.95 L1250.03 1536.95 L1250.03 1556.3 Q1250.03 1560.66 1251.21 1561.9 Q1252.42 1563.14 1256.08 1563.14 L1262.1 1563.14 L1262.1 1568.04 L1256.08 1568.04 Q1249.3 1568.04 1246.72 1565.53 Q1244.15 1562.98 1244.15 1556.3 L1244.15 1536.95 L1239.85 1536.95 L1239.85 1532.4 L1244.15 1532.4 L1244.15 1522.27 L1250.03 1522.27 Z" fill="#000000" fill-rule="nonzero" fill-opacity="1" /><polyline clip-path="url(#clip810)" style="stroke:#000000; stroke-linecap:round; stroke-linejoin:round; stroke-width:4; stroke-opacity:1; fill:none" points="149.191,1423.18 149.191,47.2441 "/>
<polyline clip-path="url(#clip810)" style="stroke:#000000; stroke-linecap:round; stroke-linejoin:round; stroke-width:4; stroke-opacity:1; fill:none" points="149.191,1423.18 168.089,1423.18 "/>
<polyline clip-path="url(#clip810)" style="stroke:#000000; stroke-linecap:round; stroke-linejoin:round; stroke-width:4; stroke-opacity:1; fill:none" points="149.191,1193.86 168.089,1193.86 "/>
<polyline clip-path="url(#clip810)" style="stroke:#000000; stroke-linecap:round; stroke-linejoin:round; stroke-width:4; stroke-opacity:1; fill:none" points="149.191,964.535 168.089,964.535 "/>
<polyline clip-path="url(#clip810)" style="stroke:#000000; stroke-linecap:round; stroke-linejoin:round; stroke-width:4; stroke-opacity:1; fill:none" points="149.191,735.212 168.089,735.212 "/>
<polyline clip-path="url(#clip810)" style="stroke:#000000; stroke-linecap:round; stroke-linejoin:round; stroke-width:4; stroke-opacity:1; fill:none" points="149.191,505.889 168.089,505.889 "/>
<polyline clip-path="url(#clip810)" style="stroke:#000000; stroke-linecap:round; stroke-linejoin:round; stroke-width:4; stroke-opacity:1; fill:none" points="149.191,276.567 168.089,276.567 "/>
<polyline clip-path="url(#clip810)" style="stroke:#000000; stroke-linecap:round; stroke-linejoin:round; stroke-width:4; stroke-opacity:1; fill:none" points="149.191,47.2441 168.089,47.2441 "/>
<path clip-path="url(#clip810)" d="M51.3162 1423.63 L80.992 1423.63 L80.992 1427.57 L51.3162 1427.57 L51.3162 1423.63 Z" fill="#000000" fill-rule="nonzero" fill-opacity="1" /><path clip-path="url(#clip810)" d="M101.663 1421.32 Q98.515 1421.32 96.6632 1423.47 Q94.8345 1425.62 94.8345 1429.37 Q94.8345 1433.1 96.6632 1435.27 Q98.515 1437.43 101.663 1437.43 Q104.811 1437.43 106.64 1435.27 Q108.492 1433.1 108.492 1429.37 Q108.492 1425.62 106.64 1423.47 Q104.811 1421.32 101.663 1421.32 M110.946 1406.66 L110.946 1410.92 Q109.186 1410.09 107.381 1409.65 Q105.598 1409.21 103.839 1409.21 Q99.2095 1409.21 96.7558 1412.33 Q94.3252 1415.46 93.978 1421.78 Q95.3437 1419.77 97.4039 1418.7 Q99.4641 1417.61 101.941 1417.61 Q107.149 1417.61 110.158 1420.78 Q113.191 1423.93 113.191 1429.37 Q113.191 1434.7 110.043 1437.91 Q106.895 1441.13 101.663 1441.13 Q95.6678 1441.13 92.4965 1436.55 Q89.3253 1431.94 89.3253 1423.21 Q89.3253 1415.02 93.2141 1410.16 Q97.103 1405.27 103.654 1405.27 Q105.413 1405.27 107.196 1405.62 Q109.001 1405.97 110.946 1406.66 Z" fill="#000000" fill-rule="nonzero" fill-opacity="1" /><path clip-path="url(#clip810)" d="M50.9921 1194.31 L80.6679 1194.31 L80.6679 1198.24 L50.9921 1198.24 L50.9921 1194.31 Z" fill="#000000" fill-rule="nonzero" fill-opacity="1" /><path clip-path="url(#clip810)" d="M103.608 1180.65 L91.8021 1199.1 L103.608 1199.1 L103.608 1180.65 M102.381 1176.58 L108.26 1176.58 L108.26 1199.1 L113.191 1199.1 L113.191 1202.99 L108.26 1202.99 L108.26 1211.14 L103.608 1211.14 L103.608 1202.99 L88.0058 1202.99 L88.0058 1198.48 L102.381 1176.58 Z" fill="#000000" fill-rule="nonzero" fill-opacity="1" /><path clip-path="url(#clip810)" d="M53.0754 964.986 L82.7512 964.986 L82.7512 968.921 L53.0754 968.921 L53.0754 964.986 Z" fill="#000000" fill-rule="nonzero" fill-opacity="1" /><path clip-path="url(#clip810)" d="M96.8715 977.879 L113.191 977.879 L113.191 981.815 L91.2465 981.815 L91.2465 977.879 Q93.9086 975.125 98.4919 970.495 Q103.098 965.842 104.279 964.5 Q106.524 961.977 107.404 960.241 Q108.307 958.481 108.307 956.792 Q108.307 954.037 106.362 952.301 Q104.441 950.565 101.339 950.565 Q99.14 950.565 96.6863 951.329 Q94.2558 952.093 91.478 953.643 L91.478 948.921 Q94.3021 947.787 96.7558 947.208 Q99.2095 946.63 101.246 946.63 Q106.617 946.63 109.811 949.315 Q113.006 952 113.006 956.491 Q113.006 958.62 112.196 960.542 Q111.408 962.44 109.302 965.032 Q108.723 965.704 105.621 968.921 Q102.52 972.116 96.8715 977.879 Z" fill="#000000" fill-rule="nonzero" fill-opacity="1" /><path clip-path="url(#clip810)" d="M101.246 721.011 Q97.6354 721.011 95.8067 724.575 Q94.0012 728.117 94.0012 735.247 Q94.0012 742.353 95.8067 745.918 Q97.6354 749.46 101.246 749.46 Q104.881 749.46 106.686 745.918 Q108.515 742.353 108.515 735.247 Q108.515 728.117 106.686 724.575 Q104.881 721.011 101.246 721.011 M101.246 717.307 Q107.057 717.307 110.112 721.913 Q113.191 726.497 113.191 735.247 Q113.191 743.973 110.112 748.58 Q107.057 753.163 101.246 753.163 Q95.4363 753.163 92.3576 748.58 Q89.3021 743.973 89.3021 735.247 Q89.3021 726.497 92.3576 721.913 Q95.4363 717.307 101.246 717.307 Z" fill="#000000" fill-rule="nonzero" fill-opacity="1" /><path clip-path="url(#clip810)" d="M96.8715 519.234 L113.191 519.234 L113.191 523.169 L91.2465 523.169 L91.2465 519.234 Q93.9086 516.48 98.4919 511.85 Q103.098 507.197 104.279 505.855 Q106.524 503.331 107.404 501.595 Q108.307 499.836 108.307 498.146 Q108.307 495.392 106.362 493.656 Q104.441 491.92 101.339 491.92 Q99.14 491.92 96.6863 492.683 Q94.2558 493.447 91.478 494.998 L91.478 490.276 Q94.3021 489.142 96.7558 488.563 Q99.2095 487.984 101.246 487.984 Q106.617 487.984 109.811 490.67 Q113.006 493.355 113.006 497.845 Q113.006 499.975 112.196 501.896 Q111.408 503.794 109.302 506.387 Q108.723 507.058 105.621 510.276 Q102.52 513.47 96.8715 519.234 Z" fill="#000000" fill-rule="nonzero" fill-opacity="1" /><path clip-path="url(#clip810)" d="M103.608 263.361 L91.8021 281.81 L103.608 281.81 L103.608 263.361 M102.381 259.287 L108.26 259.287 L108.26 281.81 L113.191 281.81 L113.191 285.699 L108.26 285.699 L108.26 293.847 L103.608 293.847 L103.608 285.699 L88.0058 285.699 L88.0058 281.185 L102.381 259.287 Z" fill="#000000" fill-rule="nonzero" fill-opacity="1" /><path clip-path="url(#clip810)" d="M101.663 45.3807 Q98.515 45.3807 96.6632 47.5334 Q94.8345 49.6862 94.8345 53.4362 Q94.8345 57.163 96.6632 59.3389 Q98.515 61.4917 101.663 61.4917 Q104.811 61.4917 106.64 59.3389 Q108.492 57.163 108.492 53.4362 Q108.492 49.6862 106.64 47.5334 Q104.811 45.3807 101.663 45.3807 M110.946 30.728 L110.946 34.9872 Q109.186 34.1539 107.381 33.7141 Q105.598 33.2743 103.839 33.2743 Q99.2095 33.2743 96.7558 36.3992 Q94.3252 39.5242 93.978 45.8436 Q95.3437 43.8298 97.4039 42.765 Q99.4641 41.677 101.941 41.677 Q107.149 41.677 110.158 44.8483 Q113.191 47.9964 113.191 53.4362 Q113.191 58.7602 110.043 61.9778 Q106.895 65.1954 101.663 65.1954 Q95.6678 65.1954 92.4965 60.6121 Q89.3253 56.0056 89.3253 47.2788 Q89.3253 39.0844 93.2141 34.2233 Q97.103 29.3391 103.654 29.3391 Q105.413 29.3391 107.196 29.6863 Q109.001 30.0335 110.946 30.728 Z" fill="#000000" fill-rule="nonzero" fill-opacity="1" /><polyline clip-path="url(#clip812)" style="stroke:#009af9; stroke-linecap:round; stroke-linejoin:round; stroke-width:12; stroke-opacity:1; fill:none" points="149.191,1193.86 151.945,1193.79 154.7,1193.6 157.454,1193.28 160.209,1192.85 162.963,1192.3 165.718,1191.66 168.472,1190.92 171.227,1190.09 173.981,1189.17 176.735,1188.18 179.49,1187.13 182.244,1186 184.999,1184.82 187.753,1183.59 190.508,1182.31 193.262,1181 196.017,1179.64 198.771,1178.25 201.526,1176.83 204.28,1175.39 207.034,1173.92 209.789,1172.44 212.543,1170.94 215.298,1169.42 218.052,1167.9 220.807,1166.36 223.561,1164.81 226.316,1163.26 229.07,1161.7 231.825,1160.13 234.579,1158.56 237.333,1156.99 240.088,1155.41 242.842,1153.83 245.597,1152.25 248.351,1150.66 251.106,1149.08 253.86,1147.49 256.615,1145.9 259.369,1144.31 262.124,1142.72 264.878,1141.13 267.632,1139.54 270.387,1137.95 273.141,1136.36 275.896,1134.76 278.65,1133.17 281.405,1131.58 284.159,1129.98 286.914,1128.39 289.668,1126.8 292.423,1125.2 295.177,1123.61 297.932,1122.01 300.686,1120.42 303.44,1118.83 306.195,1117.23 308.949,1115.64 311.704,1114.04 314.458,1112.45 317.213,1110.85 319.967,1109.26 322.722,1107.67 325.476,1106.07 328.231,1104.48 330.985,1102.88 333.739,1101.29 336.494,1099.69 339.248,1098.1 342.003,1096.5 344.757,1094.91 347.512,1093.32 350.266,1091.72 353.021,1090.13 355.775,1088.53 358.53,1086.94 361.284,1085.34 364.038,1083.75 366.793,1082.15 369.547,1080.56 372.302,1078.96 375.056,1077.37 377.811,1075.77 380.565,1074.18 383.32,1072.59 386.074,1070.99 388.829,1069.4 391.583,1067.8 394.337,1066.21 397.092,1064.61 399.846,1063.02 402.601,1061.42 405.355,1059.83 408.11,1058.23 410.864,1056.64 413.619,1055.05 416.373,1053.45 419.128,1051.86 421.882,1050.26 424.636,1048.67 427.391,1047.07 430.145,1045.48 432.9,1043.88 435.654,1042.29 438.409,1040.69 441.163,1039.1 443.918,1037.5 446.672,1035.91 449.427,1034.32 452.181,1032.72 454.936,1031.13 457.69,1029.53 460.444,1027.94 463.199,1026.34 465.953,1024.75 468.708,1023.15 471.462,1021.56 474.217,1019.96 476.971,1018.37 479.726,1016.78 482.48,1015.18 485.235,1013.59 487.989,1011.99 490.743,1010.4 493.498,1008.8 496.252,1007.21 499.007,1005.61 501.761,1004.02 504.516,1002.42 507.27,1000.83 510.025,999.235 512.779,997.64 515.534,996.046 518.288,994.451 521.042,992.856 523.797,991.262 526.551,989.667 529.306,988.073 532.06,986.478 534.815,984.883 537.569,983.289 540.324,981.694 543.078,980.1 545.833,978.505 548.587,976.91 551.341,975.316 554.096,973.721 556.85,972.127 559.605,970.532 562.359,968.938 565.114,967.343 567.868,965.748 570.623,964.154 573.377,962.559 576.132,960.965 578.886,959.37 581.641,957.775 584.395,956.181 587.149,954.586 589.904,952.992 592.658,951.397 595.413,949.803 598.167,948.208 600.922,946.613 603.676,945.019 606.431,943.424 609.185,941.83 611.94,940.235 614.694,938.64 617.448,937.046 620.203,935.451 622.957,933.857 625.712,932.262 628.466,930.667 631.221,929.073 633.975,927.478 636.73,925.884 639.484,924.289 642.239,922.695 644.993,921.1 647.747,919.505 650.502,917.911 653.256,916.316 656.011,914.722 658.765,913.127 661.52,911.532 664.274,909.938 667.029,908.343 669.783,906.749 672.538,905.154 675.292,903.56 678.046,901.965 680.801,900.37 683.555,898.776 686.31,897.181 689.064,895.587 691.819,893.992 694.573,892.397 697.328,890.803 700.082,889.208 702.837,887.614 705.591,886.019 708.345,884.424 711.1,882.83 713.854,881.235 716.609,879.641 719.363,878.046 722.118,876.451 724.872,874.857 727.627,873.262 730.381,871.668 733.136,870.073 735.89,868.478 738.645,866.884 741.399,865.289 744.153,863.695 746.908,862.1 749.662,860.505 752.417,858.911 755.171,857.317 757.926,855.722 760.68,854.127 763.435,852.533 766.189,850.938 768.944,849.343 771.698,847.749 774.452,846.154 777.207,844.56 779.961,842.965 782.716,841.37 785.47,839.776 788.225,838.181 790.979,836.587 793.734,834.992 796.488,833.398 799.243,831.803 801.997,830.208 804.751,828.614 807.506,827.019 810.26,825.425 813.015,823.83 815.769,822.236 818.524,820.641 821.278,819.046 824.033,817.452 826.787,815.857 829.542,814.263 832.296,812.668 835.05,811.074 837.805,809.479 840.559,807.884 843.314,806.29 846.068,804.695 848.823,803.101 851.577,801.506 854.332,799.911 857.086,798.317 859.841,796.722 862.595,795.128 865.349,793.533 868.104,791.938 870.858,790.344 873.613,788.749 876.367,787.155 879.122,785.56 881.876,783.966 884.631,782.371 887.385,780.776 890.14,779.182 892.894,777.587 895.649,775.993 898.403,774.398 901.157,772.803 903.912,771.209 906.666,769.614 909.421,768.02 912.175,766.425 914.93,764.831 917.684,763.236 920.439,761.641 923.193,760.047 925.948,758.452 928.702,756.858 931.456,755.263 934.211,753.668 936.965,752.074 939.72,750.479 942.474,748.885 945.229,747.29 947.983,745.695 950.738,744.101 953.492,742.506 956.247,740.912 959.001,739.317 961.755,737.722 964.51,736.128 967.264,734.533 970.019,732.939 972.773,731.344 975.528,729.75 978.282,728.155 981.037,726.56 983.791,724.966 986.546,723.371 989.3,721.777 992.054,720.182 994.809,718.587 997.563,716.993 1000.32,715.398 1003.07,713.804 1005.83,712.209 1008.58,710.614 1011.34,709.02 1014.09,707.425 1016.84,705.831 1019.6,704.236 1022.35,702.642 1025.11,701.047 1027.86,699.452 1030.62,697.858 1033.37,696.263 1036.13,694.668 1038.88,693.074 1041.63,691.479 1044.39,689.885 1047.14,688.29 1049.9,686.696 1052.65,685.101 1055.41,683.506 1058.16,681.912 1060.92,680.317 1063.67,678.723 1066.42,677.128 1069.18,675.533 1071.93,673.939 1074.69,672.344 1077.44,670.75 1080.2,669.155 1082.95,667.561 1085.71,665.966 1088.46,664.371 1091.21,662.777 1093.97,661.182 1096.72,659.587 1099.48,657.993 1102.23,656.398 1104.99,654.804 1107.74,653.209 1110.5,651.614 1113.25,650.02 1116.01,648.425 1118.76,646.831 1121.51,645.236 1124.27,643.641 1127.02,642.047 1129.78,640.452 1132.53,638.858 1135.29,637.263 1138.04,635.669 1140.8,634.074 1143.55,632.479 1146.3,630.884 1149.06,629.29 1151.81,627.695 1154.57,626.101 1157.32,624.506 1160.08,622.912 1162.83,621.317 1165.59,619.722 1168.34,618.128 1171.09,616.533 1173.85,614.938 1176.6,613.344 1179.36,611.75 1182.11,610.155 1184.87,608.56 1187.62,606.966 1190.38,605.371 1193.13,603.776 1195.88,602.182 1198.64,600.587 1201.39,598.992 1204.15,597.398 1206.9,595.803 1209.66,594.208 1212.41,592.614 1215.17,591.019 1217.92,589.425 1220.67,587.83 1223.43,586.235 1226.18,584.641 1228.94,583.047 1231.69,581.451 1234.45,579.857 1237.2,578.263 1239.96,576.668 1242.71,575.073 1245.46,573.478 1248.22,571.884 1250.97,570.29 1253.73,568.695 1256.48,567.1 1259.24,565.506 1261.99,563.911 1264.75,562.316 1267.5,560.721 1270.25,559.127 1273.01,557.532 1275.76,555.938 1278.52,554.344 1281.27,552.749 1284.03,551.154 1286.78,549.56 1289.54,547.965 1292.29,546.369 1295.04,544.775 1297.8,543.181 1300.55,541.587 1303.31,539.992 1306.06,538.397 1308.82,536.803 1311.57,535.208 1314.33,533.613 1317.08,532.018 1319.83,530.424 1322.59,528.83 1325.34,527.235 1328.1,525.64 1330.85,524.045 1333.61,522.451 1336.36,520.857 1339.12,519.261 1341.87,517.667 1344.62,516.073 1347.38,514.477 1350.13,512.883 1352.89,511.289 1355.64,509.694 1358.4,508.099 1361.15,506.505 1363.91,504.91 1366.66,503.315 1369.41,501.722 1372.17,500.126 1374.92,498.531 1377.68,496.937 1380.43,495.342 1383.19,493.747 1385.94,492.153 1388.7,490.558 1391.45,488.963 1394.21,487.369 1396.96,485.774 1399.71,484.179 1402.47,482.585 1405.22,480.99 1407.98,479.396 1410.73,477.801 1413.49,476.206 1416.24,474.612 1419,473.017 1421.75,471.422 1424.5,469.828 1427.26,468.233 1430.01,466.638 1432.77,465.044 1435.52,463.449 1438.28,461.855 1441.03,460.26 1443.79,458.665 1446.54,457.071 1449.29,455.476 1452.05,453.881 1454.8,452.287 1457.56,450.692 1460.31,449.097 1463.07,447.503 1465.82,445.908 1468.58,444.313 1471.33,442.719 1474.08,441.124 1476.84,439.529 1479.59,437.935 1482.35,436.34 1485.1,434.746 1487.86,433.151 1490.61,431.556 1493.37,429.962 1496.12,428.367 1498.87,426.772 1501.63,425.178 1504.38,423.583 1507.14,421.988 1509.89,420.394 1512.65,418.799 1515.4,417.204 1518.16,415.61 1520.91,414.015 1523.66,412.42 1526.42,410.826 1529.17,409.231 1531.93,407.636 1534.68,406.042 1537.44,404.447 1540.19,402.852 1542.95,401.258 1545.7,399.663 1548.45,398.068 1551.21,396.474 1553.96,394.879 1556.72,393.284 1559.47,391.69 1562.23,390.095 1564.98,388.5 1567.74,386.906 1570.49,385.311 1573.24,383.716 1576,382.122 1578.75,380.527 1581.51,378.933 1584.26,377.338 1587.02,375.743 1589.77,374.148 1592.53,372.554 1595.28,370.959 1598.03,369.364 1600.79,367.77 1603.54,366.175 1606.3,364.58 1609.05,362.986 1611.81,361.391 1614.56,359.797 1617.32,358.202 1620.07,356.607 1622.82,355.013 1625.58,353.418 1628.33,351.823 1631.09,350.228 1633.84,348.634 1636.6,347.039 1639.35,345.444 1642.11,343.85 1644.86,342.255 1647.62,340.66 1650.37,339.066 1653.12,337.471 1655.88,335.876 1658.63,334.282 1661.39,332.687 1664.14,331.092 1666.9,329.498 1669.65,327.903 1672.41,326.308 1675.16,324.714 1677.91,323.119 1680.67,321.524 1683.42,319.93 1686.18,318.335 1688.93,316.74 1691.69,315.146 1694.44,313.551 1697.2,311.956 1699.95,310.362 1702.7,308.767 1705.46,307.172 1708.21,305.577 1710.97,303.983 1713.72,302.388 1716.48,300.793 1719.23,299.199 1721.99,297.604 1724.74,296.009 1727.49,294.415 1730.25,292.82 1733,291.225 1735.76,289.631 1738.51,288.036 1741.27,286.441 1744.02,284.847 1746.78,283.252 1749.53,281.657 1752.28,280.063 1755.04,278.468 1757.79,276.873 1760.55,275.278 1763.3,273.684 1766.06,272.089 1768.81,270.494 1771.57,268.9 1774.32,267.305 1777.07,265.71 1779.83,264.116 1782.58,262.521 1785.34,260.926 1788.09,259.331 1790.85,257.737 1793.6,256.142 1796.36,254.547 1799.11,252.953 1801.86,251.358 1804.62,249.763 1807.37,248.168 1810.13,246.573 1812.88,244.979 1815.64,243.384 1818.39,241.79 1821.15,240.195 1823.9,238.6 1826.65,237.006 1829.41,235.411 1832.16,233.816 1834.92,232.222 1837.67,230.627 1840.43,229.032 1843.18,227.437 1845.94,225.842 1848.69,224.248 1851.44,222.653 1854.2,221.058 1856.95,219.464 1859.71,217.869 1862.46,216.274 1865.22,214.68 1867.97,213.085 1870.73,211.49 1873.48,209.895 1876.23,208.301 1878.99,206.706 1881.74,205.111 1884.5,203.517 1887.25,201.922 1890.01,200.327 1892.76,198.732 1895.52,197.138 1898.27,195.543 1901.03,193.948 1903.78,192.354 1906.53,190.759 1909.29,189.164 1912.04,187.569 1914.8,185.975 1917.55,184.38 1920.31,182.786 1923.06,181.191 1925.82,179.596 1928.57,178.001 1931.32,176.407 1934.08,174.812 1936.83,173.217 1939.59,171.622 1942.34,170.028 1945.1,168.433 1947.85,166.838 1950.61,165.244 1953.36,163.649 1956.11,162.054 1958.87,160.459 1961.62,158.864 1964.38,157.27 1967.13,155.675 1969.89,154.08 1972.64,152.485 1975.4,150.891 1978.15,149.296 1980.9,147.701 1983.66,146.106 1986.41,144.512 1989.17,142.917 1991.92,141.322 1994.68,139.728 1997.43,138.133 2000.19,136.538 2002.94,134.943 2005.69,133.349 2008.45,131.754 2011.2,130.159 2013.96,128.564 2016.71,126.97 2019.47,125.375 2022.22,123.78 2024.98,122.186 2027.73,120.591 2030.48,118.996 2033.24,117.402 2035.99,115.807 2038.75,114.212 2041.5,112.617 2044.26,111.022 2047.01,109.428 2049.77,107.832 2052.52,106.238 2055.27,104.643 2058.03,103.049 2060.78,101.454 2063.54,99.8593 2066.29,98.2642 2069.05,96.67 2071.8,95.0751 2074.56,93.4802 2077.31,91.8854 2080.06,90.2911 2082.82,88.6959 2085.57,87.1012 2088.33,85.5066 2091.08,83.9115 2093.84,82.3164 2096.59,80.7221 2099.35,79.128 2102.1,77.5328 2104.85,75.9385 2107.61,74.3429 2110.36,72.7488 2113.12,71.153 2115.87,69.5588 2118.63,67.9647 2121.38,66.3695 2124.14,64.7741 2126.89,63.1808 2129.64,61.5849 2132.4,59.9898 2135.15,58.3953 2137.91,56.8005 2140.66,55.2056 2143.42,53.6106 2146.17,52.0169 2148.93,50.4226 2151.68,48.8264 2154.44,47.232 2157.19,45.6382 2159.94,44.0427 2162.7,42.4476 2165.45,40.8545 2168.21,39.2583 2170.96,37.6635 2173.72,36.0696 2176.47,34.4748 2179.23,32.8786 2181.98,31.284 2184.73,29.689 2187.49,28.0948 2190.24,26.502 2193,24.9055 2195.75,23.3108 2198.51,21.7147 2201.26,20.1223 2204.02,18.5269 2206.77,16.9315 2209.52,15.338 2212.28,13.7414 2215.03,12.1468 2217.79,10.5527 2220.54,8.95863 2223.3,7.36388 2226.05,5.76732 2228.81,4.17256 2231.56,2.5788 2234.31,0.983057 2237.07,-0.609072 2239.82,-2.20547 2242.58,-3.80038 2245.33,-5.39667 2248.09,-6.9888 2250.84,-8.58372 2253.6,-10.1802 2256.35,-11.7732 2259.1,-13.3687 2261.86,-14.9642 2264.61,-16.558 2267.37,-18.1528 2270.12,-19.7498 2272.88,-21.3426 2275.63,-22.9378 2278.39,-24.5326 2281.14,-26.1259 2283.89,-27.7223 2286.65,-29.3171 2289.4,-30.9103 2292.16,-32.5065 2294.91,-34.1001 2297.67,-35.6949 2300.42,-37.2901 2303.18,-38.8847 2305.93,-40.4798 2308.68,-42.0747 2311.44,-43.6699 2314.19,-45.2645 2316.95,-46.8597 2319.7,-48.4539 2322.46,-50.0494 2325.21,-51.6443 2327.97,-53.2376 2330.72,-54.8345 2333.47,-56.4279 2336.23,-58.0239 2338.98,-59.6173 2341.74,-61.2121 2344.49,-62.8064 2347.25,-64.4014 2350,-65.997 2352.76,-67.5922 "/>
<polyline clip-path="url(#clip812)" style="stroke:#e26f46; stroke-linecap:round; stroke-linejoin:round; stroke-width:12; stroke-opacity:1; fill:none" points="149.191,735.212 151.945,722.05 154.7,709.496 157.454,697.575 160.209,686.306 162.963,675.703 165.718,665.772 168.472,656.517 171.227,647.932 173.981,640.009 176.735,632.734 179.49,626.087 182.244,620.043 184.999,614.578 187.753,609.66 190.508,605.258 193.262,601.337 196.017,597.863 198.771,594.797 201.526,592.106 204.28,589.754 207.034,587.707 209.789,585.934 212.543,584.405 215.298,583.089 218.052,581.962 220.807,580.999 223.561,580.18 226.316,579.485 229.07,578.897 231.825,578.4 234.579,577.98 237.333,577.626 240.088,577.327 242.842,577.076 245.597,576.866 248.351,576.688 251.106,576.539 253.86,576.415 256.615,576.311 259.369,576.224 262.124,576.152 264.878,576.091 267.632,576.04 270.387,575.996 273.141,575.959 275.896,575.928 278.65,575.901 281.405,575.879 284.159,575.86 286.914,575.844 289.668,575.83 292.423,575.819 295.177,575.809 297.932,575.801 300.686,575.795 303.44,575.789 306.195,575.784 308.949,575.78 311.704,575.776 314.458,575.773 317.213,575.77 319.967,575.768 322.722,575.766 325.476,575.764 328.231,575.762 330.985,575.761 333.739,575.76 336.494,575.759 339.248,575.758 342.003,575.757 344.757,575.757 347.512,575.756 350.266,575.756 353.021,575.755 355.775,575.755 358.53,575.755 361.284,575.755 364.038,575.755 366.793,575.754 369.547,575.754 372.302,575.754 375.056,575.754 377.811,575.754 380.565,575.754 383.32,575.754 386.074,575.754 388.829,575.754 391.583,575.754 394.337,575.754 397.092,575.754 399.846,575.754 402.601,575.754 405.355,575.754 408.11,575.753 410.864,575.753 413.619,575.753 416.373,575.753 419.128,575.753 421.882,575.753 424.636,575.753 427.391,575.753 430.145,575.753 432.9,575.753 435.654,575.753 438.409,575.753 441.163,575.753 443.918,575.753 446.672,575.753 449.427,575.753 452.181,575.753 454.936,575.753 457.69,575.753 460.444,575.753 463.199,575.753 465.953,575.753 468.708,575.753 471.462,575.753 474.217,575.753 476.971,575.753 479.726,575.753 482.48,575.753 485.235,575.753 487.989,575.753 490.743,575.753 493.498,575.753 496.252,575.753 499.007,575.753 501.761,575.753 504.516,575.753 507.27,575.753 510.025,575.753 512.779,575.753 515.534,575.753 518.288,575.753 521.042,575.753 523.797,575.753 526.551,575.753 529.306,575.753 532.06,575.753 534.815,575.753 537.569,575.753 540.324,575.753 543.078,575.753 545.833,575.753 548.587,575.753 551.341,575.753 554.096,575.753 556.85,575.753 559.605,575.753 562.359,575.753 565.114,575.753 567.868,575.753 570.623,575.753 573.377,575.753 576.132,575.753 578.886,575.753 581.641,575.753 584.395,575.753 587.149,575.753 589.904,575.753 592.658,575.753 595.413,575.753 598.167,575.753 600.922,575.753 603.676,575.753 606.431,575.753 609.185,575.753 611.94,575.753 614.694,575.753 617.448,575.753 620.203,575.753 622.957,575.753 625.712,575.753 628.466,575.753 631.221,575.753 633.975,575.753 636.73,575.753 639.484,575.753 642.239,575.753 644.993,575.753 647.747,575.753 650.502,575.753 653.256,575.753 656.011,575.753 658.765,575.753 661.52,575.753 664.274,575.753 667.029,575.753 669.783,575.753 672.538,575.753 675.292,575.753 678.046,575.753 680.801,575.753 683.555,575.753 686.31,575.753 689.064,575.753 691.819,575.753 694.573,575.753 697.328,575.753 700.082,575.753 702.837,575.753 705.591,575.753 708.345,575.753 711.1,575.753 713.854,575.753 716.609,575.753 719.363,575.753 722.118,575.753 724.872,575.753 727.627,575.753 730.381,575.753 733.136,575.753 735.89,575.753 738.645,575.753 741.399,575.753 744.153,575.753 746.908,575.753 749.662,575.753 752.417,575.753 755.171,575.753 757.926,575.753 760.68,575.753 763.435,575.753 766.189,575.753 768.944,575.753 771.698,575.753 774.452,575.753 777.207,575.753 779.961,575.753 782.716,575.753 785.47,575.753 788.225,575.753 790.979,575.753 793.734,575.753 796.488,575.753 799.243,575.753 801.997,575.753 804.751,575.753 807.506,575.753 810.26,575.753 813.015,575.753 815.769,575.753 818.524,575.753 821.278,575.753 824.033,575.753 826.787,575.753 829.542,575.753 832.296,575.753 835.05,575.753 837.805,575.753 840.559,575.753 843.314,575.753 846.068,575.753 848.823,575.753 851.577,575.753 854.332,575.753 857.086,575.753 859.841,575.753 862.595,575.753 865.349,575.753 868.104,575.753 870.858,575.753 873.613,575.753 876.367,575.753 879.122,575.753 881.876,575.753 884.631,575.753 887.385,575.753 890.14,575.753 892.894,575.753 895.649,575.753 898.403,575.753 901.157,575.753 903.912,575.753 906.666,575.753 909.421,575.753 912.175,575.753 914.93,575.753 917.684,575.753 920.439,575.753 923.193,575.753 925.948,575.753 928.702,575.753 931.456,575.753 934.211,575.753 936.965,575.753 939.72,575.753 942.474,575.753 945.229,575.753 947.983,575.753 950.738,575.753 953.492,575.753 956.247,575.753 959.001,575.753 961.755,575.753 964.51,575.753 967.264,575.753 970.019,575.753 972.773,575.753 975.528,575.753 978.282,575.753 981.037,575.753 983.791,575.753 986.546,575.753 989.3,575.753 992.054,575.753 994.809,575.753 997.563,575.753 1000.32,575.753 1003.07,575.753 1005.83,575.753 1008.58,575.753 1011.34,575.753 1014.09,575.753 1016.84,575.753 1019.6,575.753 1022.35,575.753 1025.11,575.753 1027.86,575.753 1030.62,575.752 1033.37,575.752 1036.13,575.752 1038.88,575.752 1041.63,575.752 1044.39,575.752 1047.14,575.752 1049.9,575.752 1052.65,575.752 1055.41,575.752 1058.16,575.752 1060.92,575.752 1063.67,575.752 1066.42,575.752 1069.18,575.752 1071.93,575.752 1074.69,575.752 1077.44,575.752 1080.2,575.752 1082.95,575.752 1085.71,575.752 1088.46,575.752 1091.21,575.752 1093.97,575.752 1096.72,575.752 1099.48,575.752 1102.23,575.752 1104.99,575.752 1107.74,575.752 1110.5,575.752 1113.25,575.752 1116.01,575.752 1118.76,575.752 1121.51,575.752 1124.27,575.752 1127.02,575.752 1129.78,575.752 1132.53,575.752 1135.29,575.752 1138.04,575.752 1140.8,575.752 1143.55,575.752 1146.3,575.751 1149.06,575.751 1151.81,575.751 1154.57,575.751 1157.32,575.751 1160.08,575.751 1162.83,575.751 1165.59,575.751 1168.34,575.751 1171.09,575.751 1173.85,575.751 1176.6,575.751 1179.36,575.751 1182.11,575.751 1184.87,575.751 1187.62,575.751 1190.38,575.751 1193.13,575.751 1195.88,575.751 1198.64,575.751 1201.39,575.751 1204.15,575.751 1206.9,575.751 1209.66,575.751 1212.41,575.751 1215.17,575.751 1217.92,575.751 1220.67,575.751 1223.43,575.751 1226.18,575.751 1228.94,575.751 1231.69,575.751 1234.45,575.75 1237.2,575.75 1239.96,575.75 1242.71,575.75 1245.46,575.75 1248.22,575.75 1250.97,575.75 1253.73,575.75 1256.48,575.75 1259.24,575.75 1261.99,575.75 1264.75,575.75 1267.5,575.75 1270.25,575.75 1273.01,575.75 1275.76,575.75 1278.52,575.75 1281.27,575.75 1284.03,575.75 1286.78,575.75 1289.54,575.75 1292.29,575.75 1295.04,575.75 1297.8,575.75 1300.55,575.75 1303.31,575.75 1306.06,575.75 1308.82,575.75 1311.57,575.749 1314.33,575.749 1317.08,575.749 1319.83,575.749 1322.59,575.749 1325.34,575.749 1328.1,575.749 1330.85,575.749 1333.61,575.749 1336.36,575.749 1339.12,575.749 1341.87,575.749 1344.62,575.749 1347.38,575.749 1350.13,575.749 1352.89,575.749 1355.64,575.749 1358.4,575.749 1361.15,575.749 1363.91,575.749 1366.66,575.749 1369.41,575.749 1372.17,575.749 1374.92,575.749 1377.68,575.749 1380.43,575.749 1383.19,575.748 1385.94,575.748 1388.7,575.748 1391.45,575.748 1394.21,575.748 1396.96,575.748 1399.71,575.748 1402.47,575.748 1405.22,575.748 1407.98,575.748 1410.73,575.748 1413.49,575.748 1416.24,575.748 1419,575.748 1421.75,575.748 1424.5,575.748 1427.26,575.748 1430.01,575.748 1432.77,575.748 1435.52,575.748 1438.28,575.748 1441.03,575.748 1443.79,575.748 1446.54,575.748 1449.29,575.747 1452.05,575.747 1454.8,575.747 1457.56,575.747 1460.31,575.747 1463.07,575.747 1465.82,575.747 1468.58,575.747 1471.33,575.747 1474.08,575.747 1476.84,575.747 1479.59,575.747 1482.35,575.747 1485.1,575.747 1487.86,575.747 1490.61,575.747 1493.37,575.747 1496.12,575.747 1498.87,575.747 1501.63,575.747 1504.38,575.747 1507.14,575.747 1509.89,575.747 1512.65,575.747 1515.4,575.746 1518.16,575.746 1520.91,575.746 1523.66,575.746 1526.42,575.746 1529.17,575.746 1531.93,575.746 1534.68,575.746 1537.44,575.746 1540.19,575.746 1542.95,575.746 1545.7,575.746 1548.45,575.746 1551.21,575.746 1553.96,575.746 1556.72,575.746 1559.47,575.746 1562.23,575.746 1564.98,575.746 1567.74,575.746 1570.49,575.746 1573.24,575.746 1576,575.746 1578.75,575.745 1581.51,575.745 1584.26,575.745 1587.02,575.745 1589.77,575.745 1592.53,575.745 1595.28,575.745 1598.03,575.745 1600.79,575.745 1603.54,575.745 1606.3,575.745 1609.05,575.745 1611.81,575.745 1614.56,575.745 1617.32,575.745 1620.07,575.745 1622.82,575.745 1625.58,575.745 1628.33,575.745 1631.09,575.745 1633.84,575.745 1636.6,575.745 1639.35,575.744 1642.11,575.744 1644.86,575.744 1647.62,575.744 1650.37,575.744 1653.12,575.744 1655.88,575.744 1658.63,575.744 1661.39,575.744 1664.14,575.744 1666.9,575.744 1669.65,575.744 1672.41,575.744 1675.16,575.744 1677.91,575.744 1680.67,575.744 1683.42,575.744 1686.18,575.744 1688.93,575.744 1691.69,575.744 1694.44,575.744 1697.2,575.744 1699.95,575.743 1702.7,575.743 1705.46,575.743 1708.21,575.743 1710.97,575.743 1713.72,575.743 1716.48,575.743 1719.23,575.743 1721.99,575.743 1724.74,575.743 1727.49,575.743 1730.25,575.743 1733,575.743 1735.76,575.743 1738.51,575.743 1741.27,575.743 1744.02,575.743 1746.78,575.743 1749.53,575.743 1752.28,575.743 1755.04,575.743 1757.79,575.743 1760.55,575.742 1763.3,575.742 1766.06,575.742 1768.81,575.742 1771.57,575.742 1774.32,575.742 1777.07,575.742 1779.83,575.742 1782.58,575.742 1785.34,575.742 1788.09,575.742 1790.85,575.742 1793.6,575.742 1796.36,575.742 1799.11,575.742 1801.86,575.742 1804.62,575.742 1807.37,575.742 1810.13,575.742 1812.88,575.742 1815.64,575.742 1818.39,575.741 1821.15,575.741 1823.9,575.741 1826.65,575.741 1829.41,575.741 1832.16,575.741 1834.92,575.741 1837.67,575.741 1840.43,575.741 1843.18,575.741 1845.94,575.741 1848.69,575.741 1851.44,575.741 1854.2,575.741 1856.95,575.741 1859.71,575.741 1862.46,575.741 1865.22,575.741 1867.97,575.741 1870.73,575.741 1873.48,575.741 1876.23,575.74 1878.99,575.74 1881.74,575.74 1884.5,575.74 1887.25,575.74 1890.01,575.74 1892.76,575.74 1895.52,575.74 1898.27,575.74 1901.03,575.74 1903.78,575.74 1906.53,575.74 1909.29,575.74 1912.04,575.74 1914.8,575.74 1917.55,575.74 1920.31,575.74 1923.06,575.74 1925.82,575.74 1928.57,575.74 1931.32,575.74 1934.08,575.739 1936.83,575.739 1939.59,575.739 1942.34,575.739 1945.1,575.739 1947.85,575.739 1950.61,575.739 1953.36,575.739 1956.11,575.739 1958.87,575.739 1961.62,575.739 1964.38,575.739 1967.13,575.739 1969.89,575.739 1972.64,575.739 1975.4,575.739 1978.15,575.739 1980.9,575.739 1983.66,575.739 1986.41,575.739 1989.17,575.739 1991.92,575.738 1994.68,575.738 1997.43,575.738 2000.19,575.738 2002.94,575.738 2005.69,575.738 2008.45,575.738 2011.2,575.738 2013.96,575.738 2016.71,575.738 2019.47,575.738 2022.22,575.738 2024.98,575.738 2027.73,575.738 2030.48,575.738 2033.24,575.738 2035.99,575.738 2038.75,575.738 2041.5,575.738 2044.26,575.738 2047.01,575.738 2049.77,575.737 2052.52,575.737 2055.27,575.737 2058.03,575.737 2060.78,575.737 2063.54,575.737 2066.29,575.737 2069.05,575.737 2071.8,575.737 2074.56,575.737 2077.31,575.737 2080.06,575.737 2082.82,575.737 2085.57,575.737 2088.33,575.737 2091.08,575.737 2093.84,575.737 2096.59,575.737 2099.35,575.737 2102.1,575.737 2104.85,575.736 2107.61,575.736 2110.36,575.736 2113.12,575.736 2115.87,575.736 2118.63,575.736 2121.38,575.736 2124.14,575.736 2126.89,575.736 2129.64,575.736 2132.4,575.736 2135.15,575.736 2137.91,575.736 2140.66,575.736 2143.42,575.736 2146.17,575.736 2148.93,575.736 2151.68,575.736 2154.44,575.736 2157.19,575.736 2159.94,575.736 2162.7,575.735 2165.45,575.735 2168.21,575.735 2170.96,575.735 2173.72,575.735 2176.47,575.735 2179.23,575.735 2181.98,575.735 2184.73,575.735 2187.49,575.735 2190.24,575.735 2193,575.735 2195.75,575.735 2198.51,575.735 2201.26,575.735 2204.02,575.735 2206.77,575.735 2209.52,575.735 2212.28,575.735 2215.03,575.735 2217.79,575.734 2220.54,575.734 2223.3,575.734 2226.05,575.734 2228.81,575.734 2231.56,575.734 2234.31,575.734 2237.07,575.734 2239.82,575.734 2242.58,575.734 2245.33,575.734 2248.09,575.734 2250.84,575.734 2253.6,575.734 2256.35,575.734 2259.1,575.734 2261.86,575.734 2264.61,575.734 2267.37,575.734 2270.12,575.734 2272.88,575.733 2275.63,575.733 2278.39,575.733 2281.14,575.733 2283.89,575.733 2286.65,575.733 2289.4,575.733 2292.16,575.733 2294.91,575.733 2297.67,575.733 2300.42,575.733 2303.18,575.733 2305.93,575.733 2308.68,575.733 2311.44,575.733 2314.19,575.733 2316.95,575.733 2319.7,575.733 2322.46,575.733 2325.21,575.733 2327.97,575.732 2330.72,575.732 2333.47,575.732 2336.23,575.732 2338.98,575.732 2341.74,575.732 2344.49,575.732 2347.25,575.732 2350,575.732 2352.76,575.732 "/>
<polyline clip-path="url(#clip812)" style="stroke:#3da44d; stroke-linecap:round; stroke-linejoin:round; stroke-width:12; stroke-opacity:1; fill:none" points="149.191,474.645 151.945,478.535 154.7,482.737 157.454,487.24 160.209,492.034 162.963,497.106 165.718,502.442 168.472,508.025 171.227,513.837 173.981,519.86 176.735,526.07 179.49,532.445 182.244,538.961 184.999,545.591 187.753,552.308 190.508,559.084 193.262,565.891 196.017,572.701 198.771,579.486 201.526,586.22 204.28,592.875 207.034,599.427 209.789,605.855 212.543,612.138 215.298,618.256 218.052,624.196 220.807,629.942 223.561,635.486 226.316,640.817 229.07,645.931 231.825,650.823 234.579,655.493 237.333,659.94 240.088,664.167 242.842,668.176 245.597,671.973 248.351,675.564 251.106,678.955 253.86,682.153 256.615,685.167 259.369,688.004 262.124,690.673 264.878,693.182 267.632,695.539 270.387,697.754 273.141,699.834 275.896,701.787 278.65,703.621 281.405,705.344 284.159,706.961 286.914,708.481 289.668,709.909 292.423,711.251 295.177,712.514 297.932,713.702 300.686,714.82 303.44,715.874 306.195,716.867 308.949,717.803 311.704,718.687 314.458,719.522 317.213,720.31 319.967,721.056 322.722,721.762 325.476,722.43 328.231,723.063 330.985,723.664 333.739,724.233 336.494,724.774 339.248,725.288 342.003,725.776 344.757,726.241 347.512,726.683 350.266,727.104 353.021,727.505 355.775,727.887 358.53,728.252 361.284,728.6 364.038,728.932 366.793,729.249 369.547,729.552 372.302,729.842 375.056,730.119 377.811,730.384 380.565,730.638 383.32,730.881 386.074,731.113 388.829,731.336 391.583,731.549 394.337,731.753 397.092,731.949 399.846,732.137 402.601,732.317 405.355,732.489 408.11,732.654 410.864,732.813 413.619,732.965 416.373,733.111 419.128,733.251 421.882,733.385 424.636,733.513 427.391,733.636 430.145,733.754 432.9,733.867 435.654,733.976 438.409,734.08 441.163,734.179 443.918,734.274 446.672,734.365 449.427,734.452 452.181,734.535 454.936,734.615 457.69,734.691 460.444,734.763 463.199,734.832 465.953,734.898 468.708,734.96 471.462,735.02 474.217,735.076 476.971,735.13 479.726,735.181 482.48,735.229 485.235,735.275 487.989,735.318 490.743,735.358 493.498,735.396 496.252,735.432 499.007,735.465 501.761,735.496 504.516,735.526 507.27,735.553 510.025,735.578 512.779,735.601 515.534,735.622 518.288,735.641 521.042,735.658 523.797,735.674 526.551,735.688 529.306,735.7 532.06,735.711 534.815,735.72 537.569,735.728 540.324,735.734 543.078,735.739 545.833,735.742 548.587,735.744 551.341,735.745 554.096,735.744 556.85,735.742 559.605,735.739 562.359,735.735 565.114,735.73 567.868,735.724 570.623,735.717 573.377,735.708 576.132,735.699 578.886,735.689 581.641,735.678 584.395,735.666 587.149,735.653 589.904,735.639 592.658,735.625 595.413,735.61 598.167,735.594 600.922,735.577 603.676,735.56 606.431,735.542 609.185,735.524 611.94,735.504 614.694,735.485 617.448,735.465 620.203,735.444 622.957,735.423 625.712,735.401 628.466,735.379 631.221,735.356 633.975,735.333 636.73,735.31 639.484,735.286 642.239,735.262 644.993,735.237 647.747,735.213 650.502,735.188 653.256,735.162 656.011,735.137 658.765,735.111 661.52,735.085 664.274,735.059 667.029,735.032 669.783,735.006 672.538,734.979 675.292,734.952 678.046,734.925 680.801,734.897 683.555,734.87 686.31,734.843 689.064,734.815 691.819,734.787 694.573,734.76 697.328,734.732 700.082,734.704 702.837,734.676 705.591,734.649 708.345,734.621 711.1,734.593 713.854,734.565 716.609,734.537 719.363,734.509 722.118,734.481 724.872,734.453 727.627,734.426 730.381,734.398 733.136,734.37 735.89,734.343 738.645,734.315 741.399,734.288 744.153,734.26 746.908,734.233 749.662,734.206 752.417,734.178 755.171,734.151 757.926,734.125 760.68,734.098 763.435,734.071 766.189,734.044 768.944,734.018 771.698,733.992 774.452,733.965 777.207,733.939 779.961,733.913 782.716,733.888 785.47,733.862 788.225,733.836 790.979,733.811 793.734,733.786 796.488,733.761 799.243,733.736 801.997,733.711 804.751,733.686 807.506,733.662 810.26,733.638 813.015,733.613 815.769,733.59 818.524,733.566 821.278,733.542 824.033,733.519 826.787,733.495 829.542,733.472 832.296,733.449 835.05,733.427 837.805,733.404 840.559,733.381 843.314,733.359 846.068,733.337 848.823,733.315 851.577,733.294 854.332,733.272 857.086,733.251 859.841,733.229 862.595,733.208 865.349,733.188 868.104,733.167 870.858,733.146 873.613,733.126 876.367,733.106 879.122,733.086 881.876,733.066 884.631,733.047 887.385,733.027 890.14,733.008 892.894,732.989 895.649,732.97 898.403,732.951 901.157,732.933 903.912,732.914 906.666,732.896 909.421,732.878 912.175,732.86 914.93,732.842 917.684,732.825 920.439,732.807 923.193,732.79 925.948,732.773 928.702,732.756 931.456,732.739 934.211,732.723 936.965,732.706 939.72,732.69 942.474,732.674 945.229,732.658 947.983,732.643 950.738,732.627 953.492,732.611 956.247,732.596 959.001,732.581 961.755,732.566 964.51,732.551 967.264,732.537 970.019,732.522 972.773,732.508 975.528,732.493 978.282,732.479 981.037,732.465 983.791,732.452 986.546,732.438 989.3,732.425 992.054,732.411 994.809,732.398 997.563,732.385 1000.32,732.372 1003.07,732.359 1005.83,732.346 1008.58,732.334 1011.34,732.321 1014.09,732.309 1016.84,732.297 1019.6,732.285 1022.35,732.273 1025.11,732.261 1027.86,732.25 1030.62,732.238 1033.37,732.227 1036.13,732.216 1038.88,732.205 1041.63,732.194 1044.39,732.183 1047.14,732.172 1049.9,732.161 1052.65,732.151 1055.41,732.14 1058.16,732.13 1060.92,732.12 1063.67,732.11 1066.42,732.1 1069.18,732.09 1071.93,732.08 1074.69,732.071 1077.44,732.061 1080.2,732.052 1082.95,732.042 1085.71,732.033 1088.46,732.024 1091.21,732.015 1093.97,732.006 1096.72,731.997 1099.48,731.989 1102.23,731.98 1104.99,731.971 1107.74,731.963 1110.5,731.955 1113.25,731.946 1116.01,731.938 1118.76,731.93 1121.51,731.922 1124.27,731.914 1127.02,731.907 1129.78,731.899 1132.53,731.891 1135.29,731.884 1138.04,731.876 1140.8,731.869 1143.55,731.862 1146.3,731.855 1149.06,731.848 1151.81,731.841 1154.57,731.834 1157.32,731.827 1160.08,731.82 1162.83,731.813 1165.59,731.807 1168.34,731.8 1171.09,731.794 1173.85,731.787 1176.6,731.781 1179.36,731.775 1182.11,731.768 1184.87,731.762 1187.62,731.756 1190.38,731.75 1193.13,731.744 1195.88,731.739 1198.64,731.733 1201.39,731.727 1204.15,731.722 1206.9,731.716 1209.66,731.71 1212.41,731.705 1215.17,731.7 1217.92,731.694 1220.67,731.689 1223.43,731.684 1226.18,731.679 1228.94,731.674 1231.69,731.669 1234.45,731.664 1237.2,731.659 1239.96,731.654 1242.71,731.649 1245.46,731.644 1248.22,731.64 1250.97,731.635 1253.73,731.631 1256.48,731.626 1259.24,731.622 1261.99,731.617 1264.75,731.613 1267.5,731.608 1270.25,731.604 1273.01,731.6 1275.76,731.596 1278.52,731.592 1281.27,731.588 1284.03,731.584 1286.78,731.58 1289.54,731.576 1292.29,731.572 1295.04,731.568 1297.8,731.564 1300.55,731.56 1303.31,731.557 1306.06,731.553 1308.82,731.549 1311.57,731.546 1314.33,731.542 1317.08,731.539 1319.83,731.535 1322.59,731.532 1325.34,731.528 1328.1,731.525 1330.85,731.522 1333.61,731.519 1336.36,731.515 1339.12,731.512 1341.87,731.509 1344.62,731.506 1347.38,731.503 1350.13,731.5 1352.89,731.497 1355.64,731.494 1358.4,731.491 1361.15,731.488 1363.91,731.485 1366.66,731.482 1369.41,731.479 1372.17,731.476 1374.92,731.474 1377.68,731.471 1380.43,731.468 1383.19,731.466 1385.94,731.463 1388.7,731.46 1391.45,731.458 1394.21,731.455 1396.96,731.453 1399.71,731.45 1402.47,731.448 1405.22,731.445 1407.98,731.443 1410.73,731.441 1413.49,731.438 1416.24,731.436 1419,731.434 1421.75,731.431 1424.5,731.429 1427.26,731.427 1430.01,731.425 1432.77,731.422 1435.52,731.42 1438.28,731.418 1441.03,731.416 1443.79,731.414 1446.54,731.412 1449.29,731.41 1452.05,731.408 1454.8,731.406 1457.56,731.404 1460.31,731.402 1463.07,731.4 1465.82,731.398 1468.58,731.396 1471.33,731.394 1474.08,731.392 1476.84,731.391 1479.59,731.389 1482.35,731.387 1485.1,731.385 1487.86,731.384 1490.61,731.382 1493.37,731.38 1496.12,731.378 1498.87,731.377 1501.63,731.375 1504.38,731.373 1507.14,731.372 1509.89,731.37 1512.65,731.369 1515.4,731.367 1518.16,731.365 1520.91,731.364 1523.66,731.362 1526.42,731.361 1529.17,731.359 1531.93,731.358 1534.68,731.356 1537.44,731.355 1540.19,731.353 1542.95,731.352 1545.7,731.351 1548.45,731.349 1551.21,731.348 1553.96,731.347 1556.72,731.345 1559.47,731.344 1562.23,731.343 1564.98,731.341 1567.74,731.34 1570.49,731.339 1573.24,731.337 1576,731.336 1578.75,731.335 1581.51,731.334 1584.26,731.332 1587.02,731.331 1589.77,731.33 1592.53,731.329 1595.28,731.328 1598.03,731.326 1600.79,731.325 1603.54,731.324 1606.3,731.323 1609.05,731.322 1611.81,731.321 1614.56,731.32 1617.32,731.319 1620.07,731.318 1622.82,731.316 1625.58,731.315 1628.33,731.314 1631.09,731.313 1633.84,731.312 1636.6,731.311 1639.35,731.31 1642.11,731.309 1644.86,731.308 1647.62,731.307 1650.37,731.306 1653.12,731.305 1655.88,731.304 1658.63,731.303 1661.39,731.302 1664.14,731.302 1666.9,731.301 1669.65,731.3 1672.41,731.299 1675.16,731.298 1677.91,731.297 1680.67,731.296 1683.42,731.295 1686.18,731.294 1688.93,731.293 1691.69,731.293 1694.44,731.292 1697.2,731.291 1699.95,731.29 1702.7,731.289 1705.46,731.288 1708.21,731.288 1710.97,731.287 1713.72,731.286 1716.48,731.285 1719.23,731.284 1721.99,731.284 1724.74,731.283 1727.49,731.282 1730.25,731.281 1733,731.281 1735.76,731.28 1738.51,731.279 1741.27,731.278 1744.02,731.278 1746.78,731.277 1749.53,731.276 1752.28,731.275 1755.04,731.275 1757.79,731.274 1760.55,731.273 1763.3,731.273 1766.06,731.272 1768.81,731.271 1771.57,731.271 1774.32,731.27 1777.07,731.269 1779.83,731.269 1782.58,731.268 1785.34,731.267 1788.09,731.267 1790.85,731.266 1793.6,731.265 1796.36,731.265 1799.11,731.264 1801.86,731.263 1804.62,731.263 1807.37,731.262 1810.13,731.261 1812.88,731.261 1815.64,731.26 1818.39,731.26 1821.15,731.259 1823.9,731.258 1826.65,731.258 1829.41,731.257 1832.16,731.257 1834.92,731.256 1837.67,731.256 1840.43,731.255 1843.18,731.254 1845.94,731.254 1848.69,731.253 1851.44,731.253 1854.2,731.252 1856.95,731.252 1859.71,731.251 1862.46,731.25 1865.22,731.25 1867.97,731.249 1870.73,731.249 1873.48,731.248 1876.23,731.248 1878.99,731.247 1881.74,731.247 1884.5,731.246 1887.25,731.246 1890.01,731.245 1892.76,731.245 1895.52,731.244 1898.27,731.244 1901.03,731.243 1903.78,731.242 1906.53,731.242 1909.29,731.242 1912.04,731.241 1914.8,731.24 1917.55,731.24 1920.31,731.24 1923.06,731.239 1925.82,731.239 1928.57,731.238 1931.32,731.238 1934.08,731.237 1936.83,731.237 1939.59,731.236 1942.34,731.236 1945.1,731.235 1947.85,731.235 1950.61,731.234 1953.36,731.234 1956.11,731.233 1958.87,731.233 1961.62,731.232 1964.38,731.232 1967.13,731.231 1969.89,731.231 1972.64,731.231 1975.4,731.23 1978.15,731.23 1980.9,731.229 1983.66,731.229 1986.41,731.228 1989.17,731.228 1991.92,731.227 1994.68,731.227 1997.43,731.227 2000.19,731.226 2002.94,731.226 2005.69,731.225 2008.45,731.225 2011.2,731.224 2013.96,731.224 2016.71,731.224 2019.47,731.223 2022.22,731.223 2024.98,731.222 2027.73,731.222 2030.48,731.221 2033.24,731.221 2035.99,731.221 2038.75,731.22 2041.5,731.22 2044.26,731.219 2047.01,731.219 2049.77,731.219 2052.52,731.218 2055.27,731.218 2058.03,731.217 2060.78,731.217 2063.54,731.216 2066.29,731.216 2069.05,731.216 2071.8,731.215 2074.56,731.215 2077.31,731.214 2080.06,731.214 2082.82,731.214 2085.57,731.213 2088.33,731.213 2091.08,731.212 2093.84,731.212 2096.59,731.212 2099.35,731.211 2102.1,731.211 2104.85,731.211 2107.61,731.21 2110.36,731.21 2113.12,731.209 2115.87,731.209 2118.63,731.209 2121.38,731.208 2124.14,731.208 2126.89,731.207 2129.64,731.207 2132.4,731.207 2135.15,731.206 2137.91,731.206 2140.66,731.206 2143.42,731.205 2146.17,731.205 2148.93,731.204 2151.68,731.204 2154.44,731.204 2157.19,731.203 2159.94,731.203 2162.7,731.203 2165.45,731.202 2168.21,731.202 2170.96,731.201 2173.72,731.201 2176.47,731.201 2179.23,731.2 2181.98,731.2 2184.73,731.2 2187.49,731.199 2190.24,731.199 2193,731.199 2195.75,731.198 2198.51,731.198 2201.26,731.197 2204.02,731.197 2206.77,731.197 2209.52,731.196 2212.28,731.196 2215.03,731.196 2217.79,731.195 2220.54,731.195 2223.3,731.195 2226.05,731.194 2228.81,731.194 2231.56,731.193 2234.31,731.193 2237.07,731.193 2239.82,731.192 2242.58,731.192 2245.33,731.192 2248.09,731.191 2250.84,731.191 2253.6,731.191 2256.35,731.19 2259.1,731.19 2261.86,731.19 2264.61,731.189 2267.37,731.189 2270.12,731.188 2272.88,731.188 2275.63,731.188 2278.39,731.187 2281.14,731.187 2283.89,731.187 2286.65,731.186 2289.4,731.186 2292.16,731.186 2294.91,731.185 2297.67,731.185 2300.42,731.185 2303.18,731.184 2305.93,731.184 2308.68,731.184 2311.44,731.183 2314.19,731.183 2316.95,731.183 2319.7,731.182 2322.46,731.182 2325.21,731.182 2327.97,731.181 2330.72,731.181 2333.47,731.181 2336.23,731.18 2338.98,731.18 2341.74,731.18 2344.49,731.179 2347.25,731.179 2350,731.179 2352.76,731.178 "/>
<path clip-path="url(#clip810)" d="M222.643 300.469 L532.096 300.469 L532.096 93.1086 L222.643 93.1086  Z" fill="#ffffff" fill-rule="evenodd" fill-opacity="1"/>
<polyline clip-path="url(#clip810)" style="stroke:#000000; stroke-linecap:round; stroke-linejoin:round; stroke-width:4; stroke-opacity:1; fill:none" points="222.643,300.469 532.096,300.469 532.096,93.1086 222.643,93.1086 222.643,300.469 "/>
<polyline clip-path="url(#clip810)" style="stroke:#009af9; stroke-linecap:round; stroke-linejoin:round; stroke-width:12; stroke-opacity:1; fill:none" points="247.127,144.949 394.031,144.949 "/>
<path clip-path="url(#clip810)" d="M418.515 151.997 L418.515 136.303 L422.775 136.303 L422.775 151.835 Q422.775 155.516 424.21 157.368 Q425.645 159.196 428.515 159.196 Q431.964 159.196 433.955 156.997 Q435.969 154.798 435.969 151.002 L435.969 136.303 L440.228 136.303 L440.228 162.229 L435.969 162.229 L435.969 158.247 Q434.418 160.608 432.358 161.766 Q430.321 162.9 427.613 162.9 Q423.145 162.9 420.83 160.122 Q418.515 157.344 418.515 151.997 M429.233 135.678 L429.233 135.678 Z" fill="#000000" fill-rule="nonzero" fill-opacity="1" /><path clip-path="url(#clip810)" d="M448.608 126.21 L458.423 126.21 L458.423 129.52 L452.867 129.52 L452.867 165.168 L458.423 165.168 L458.423 168.479 L448.608 168.479 L448.608 126.21 Z" fill="#000000" fill-rule="nonzero" fill-opacity="1" /><path clip-path="url(#clip810)" d="M468.909 158.293 L476.548 158.293 L476.548 131.928 L468.237 133.595 L468.237 129.335 L476.501 127.669 L481.177 127.669 L481.177 158.293 L488.816 158.293 L488.816 162.229 L468.909 162.229 L468.909 158.293 Z" fill="#000000" fill-rule="nonzero" fill-opacity="1" /><path clip-path="url(#clip810)" d="M507.612 126.21 L507.612 168.479 L497.797 168.479 L497.797 165.168 L503.33 165.168 L503.33 129.52 L497.797 129.52 L497.797 126.21 L507.612 126.21 Z" fill="#000000" fill-rule="nonzero" fill-opacity="1" /><polyline clip-path="url(#clip810)" style="stroke:#e26f46; stroke-linecap:round; stroke-linejoin:round; stroke-width:12; stroke-opacity:1; fill:none" points="247.127,196.789 394.031,196.789 "/>
<path clip-path="url(#clip810)" d="M418.515 203.837 L418.515 188.143 L422.775 188.143 L422.775 203.675 Q422.775 207.356 424.21 209.208 Q425.645 211.036 428.515 211.036 Q431.964 211.036 433.955 208.837 Q435.969 206.638 435.969 202.842 L435.969 188.143 L440.228 188.143 L440.228 214.069 L435.969 214.069 L435.969 210.087 Q434.418 212.448 432.358 213.606 Q430.321 214.74 427.613 214.74 Q423.145 214.74 420.83 211.962 Q418.515 209.184 418.515 203.837 M429.233 187.518 L429.233 187.518 Z" fill="#000000" fill-rule="nonzero" fill-opacity="1" /><path clip-path="url(#clip810)" d="M448.608 178.05 L458.423 178.05 L458.423 181.36 L452.867 181.36 L452.867 217.008 L458.423 217.008 L458.423 220.319 L448.608 220.319 L448.608 178.05 Z" fill="#000000" fill-rule="nonzero" fill-opacity="1" /><path clip-path="url(#clip810)" d="M472.126 210.133 L488.446 210.133 L488.446 214.069 L466.501 214.069 L466.501 210.133 Q469.163 207.379 473.747 202.749 Q478.353 198.096 479.534 196.754 Q481.779 194.231 482.659 192.495 Q483.561 190.735 483.561 189.046 Q483.561 186.291 481.617 184.555 Q479.696 182.819 476.594 182.819 Q474.395 182.819 471.941 183.583 Q469.511 184.347 466.733 185.897 L466.733 181.175 Q469.557 180.041 472.011 179.462 Q474.464 178.884 476.501 178.884 Q481.872 178.884 485.066 181.569 Q488.26 184.254 488.26 188.745 Q488.26 190.874 487.45 192.796 Q486.663 194.694 484.557 197.286 Q483.978 197.958 480.876 201.175 Q477.774 204.37 472.126 210.133 Z" fill="#000000" fill-rule="nonzero" fill-opacity="1" /><path clip-path="url(#clip810)" d="M507.612 178.05 L507.612 220.319 L497.797 220.319 L497.797 217.008 L503.33 217.008 L503.33 181.36 L497.797 181.36 L497.797 178.05 L507.612 178.05 Z" fill="#000000" fill-rule="nonzero" fill-opacity="1" /><polyline clip-path="url(#clip810)" style="stroke:#3da44d; stroke-linecap:round; stroke-linejoin:round; stroke-width:12; stroke-opacity:1; fill:none" points="247.127,248.629 394.031,248.629 "/>
<path clip-path="url(#clip810)" d="M418.515 255.677 L418.515 239.983 L422.775 239.983 L422.775 255.515 Q422.775 259.196 424.21 261.048 Q425.645 262.876 428.515 262.876 Q431.964 262.876 433.955 260.677 Q435.969 258.478 435.969 254.682 L435.969 239.983 L440.228 239.983 L440.228 265.909 L435.969 265.909 L435.969 261.927 Q434.418 264.288 432.358 265.446 Q430.321 266.58 427.613 266.58 Q423.145 266.58 420.83 263.802 Q418.515 261.024 418.515 255.677 M429.233 239.358 L429.233 239.358 Z" fill="#000000" fill-rule="nonzero" fill-opacity="1" /><path clip-path="url(#clip810)" d="M459.233 229.937 Q456.131 235.261 454.626 240.469 Q453.122 245.677 453.122 251.024 Q453.122 256.372 454.626 261.626 Q456.154 266.858 459.233 272.159 L455.529 272.159 Q452.057 266.719 450.321 261.464 Q448.608 256.21 448.608 251.024 Q448.608 245.862 450.321 240.631 Q452.034 235.4 455.529 229.937 L459.233 229.937 Z" fill="#000000" fill-rule="nonzero" fill-opacity="1" /><path clip-path="url(#clip810)" d="M471.71 232.622 L471.71 239.983 L480.483 239.983 L480.483 243.293 L471.71 243.293 L471.71 257.367 Q471.71 260.538 472.566 261.441 Q473.446 262.344 476.108 262.344 L480.483 262.344 L480.483 265.909 L476.108 265.909 Q471.177 265.909 469.302 264.08 Q467.427 262.228 467.427 257.367 L467.427 243.293 L464.302 243.293 L464.302 239.983 L467.427 239.983 L467.427 232.622 L471.71 232.622 Z" fill="#000000" fill-rule="nonzero" fill-opacity="1" /><path clip-path="url(#clip810)" d="M485.413 229.937 L489.117 229.937 Q492.589 235.4 494.302 240.631 Q496.038 245.862 496.038 251.024 Q496.038 256.21 494.302 261.464 Q492.589 266.719 489.117 272.159 L485.413 272.159 Q488.492 266.858 489.997 261.626 Q491.524 256.372 491.524 251.024 Q491.524 245.677 489.997 240.469 Q488.492 235.261 485.413 229.937 Z" fill="#000000" fill-rule="nonzero" fill-opacity="1" /></svg>
