<?xml version="1.0" encoding="utf-8"?>
<svg xmlns="http://www.w3.org/2000/svg" xmlns:xlink="http://www.w3.org/1999/xlink" width="600" height="400" viewBox="0 0 2400 1600">
<defs>
  <clipPath id="clip230">
    <rect x="0" y="0" width="2400" height="1600"/>
  </clipPath>
</defs>
<path clip-path="url(#clip230)" d="M0 1600 L2400 1600 L2400 0 L0 0  Z" fill="#ffffff" fill-rule="evenodd" fill-opacity="1"/>
<defs>
  <clipPath id="clip231">
    <rect x="480" y="0" width="1681" height="1600"/>
  </clipPath>
</defs>
<path clip-path="url(#clip230)" d="M149.191 1423.18 L2352.76 1423.18 L2352.76 47.2441 L149.191 47.2441  Z" fill="#ffffff" fill-rule="evenodd" fill-opacity="1"/>
<defs>
  <clipPath id="clip232">
    <rect x="149" y="47" width="2205" height="1377"/>
  </clipPath>
</defs>
<polyline clip-path="url(#clip232)" style="stroke:#000000; stroke-linecap:round; stroke-linejoin:round; stroke-width:2; stroke-opacity:0.1; fill:none" points="149.191,1423.18 149.191,47.2441 "/>
<polyline clip-path="url(#clip232)" style="stroke:#000000; stroke-linecap:round; stroke-linejoin:round; stroke-width:2; stroke-opacity:0.1; fill:none" points="700.082,1423.18 700.082,47.2441 "/>
<polyline clip-path="url(#clip232)" style="stroke:#000000; stroke-linecap:round; stroke-linejoin:round; stroke-width:2; stroke-opacity:0.1; fill:none" points="1250.97,1423.18 1250.97,47.2441 "/>
<polyline clip-path="url(#clip232)" style="stroke:#000000; stroke-linecap:round; stroke-linejoin:round; stroke-width:2; stroke-opacity:0.1; fill:none" points="1801.86,1423.18 1801.86,47.2441 "/>
<polyline clip-path="url(#clip232)" style="stroke:#000000; stroke-linecap:round; stroke-linejoin:round; stroke-width:2; stroke-opacity:0.1; fill:none" points="2352.76,1423.18 2352.76,47.2441 "/>
<polyline clip-path="url(#clip232)" style="stroke:#000000; stroke-linecap:round; stroke-linejoin:round; stroke-width:2; stroke-opacity:0.1; fill:none" points="149.191,1423.18 2352.76,1423.18 "/>
<polyline clip-path="url(#clip232)" style="stroke:#000000; stroke-linecap:round; stroke-linejoin:round; stroke-width:2; stroke-opacity:0.1; fill:none" points="149.191,1193.86 2352.76,1193.86 "/>
<polyline clip-path="url(#clip232)" style="stroke:#000000; stroke-linecap:round; stroke-linejoin:round; stroke-width:2; stroke-opacity:0.1; fill:none" points="149.191,964.535 2352.76,964.535 "/>
<polyline clip-path="url(#clip232)" style="stroke:#000000; stroke-linecap:round; stroke-linejoin:round; stroke-width:2; stroke-opacity:0.1; fill:none" points="149.191,735.212 2352.76,735.212 "/>
<polyline clip-path="url(#clip232)" style="stroke:#000000; stroke-linecap:round; stroke-linejoin:round; stroke-width:2; stroke-opacity:0.1; fill:none" points="149.191,505.889 2352.76,505.889 "/>
<polyline clip-path="url(#clip232)" style="stroke:#000000; stroke-linecap:round; stroke-linejoin:round; stroke-width:2; stroke-opacity:0.1; fill:none" points="149.191,276.567 2352.76,276.567 "/>
<polyline clip-path="url(#clip232)" style="stroke:#000000; stroke-linecap:round; stroke-linejoin:round; stroke-width:2; stroke-opacity:0.1; fill:none" points="149.191,47.2441 2352.76,47.2441 "/>
<polyline clip-path="url(#clip230)" style="stroke:#000000; stroke-linecap:round; stroke-linejoin:round; stroke-width:4; stroke-opacity:1; fill:none" points="149.191,1423.18 2352.76,1423.18 "/>
<polyline clip-path="url(#clip230)" style="stroke:#000000; stroke-linecap:round; stroke-linejoin:round; stroke-width:4; stroke-opacity:1; fill:none" points="149.191,1423.18 149.191,1404.28 "/>
<polyline clip-path="url(#clip230)" style="stroke:#000000; stroke-linecap:round; stroke-linejoin:round; stroke-width:4; stroke-opacity:1; fill:none" points="700.082,1423.18 700.082,1404.28 "/>
<polyline clip-path="url(#clip230)" style="stroke:#000000; stroke-linecap:round; stroke-linejoin:round; stroke-width:4; stroke-opacity:1; fill:none" points="1250.97,1423.18 1250.97,1404.28 "/>
<polyline clip-path="url(#clip230)" style="stroke:#000000; stroke-linecap:round; stroke-linejoin:round; stroke-width:4; stroke-opacity:1; fill:none" points="1801.86,1423.18 1801.86,1404.28 "/>
<polyline clip-path="url(#clip230)" style="stroke:#000000; stroke-linecap:round; stroke-linejoin:round; stroke-width:4; stroke-opacity:1; fill:none" points="2352.76,1423.18 2352.76,1404.28 "/>
<path clip-path="url(#clip230)" d="M149.191 1454.1 Q145.58 1454.1 143.751 1457.66 Q141.946 1461.2 141.946 1468.33 Q141.946 1475.44 143.751 1479.01 Q145.58 1482.55 149.191 1482.55 Q152.825 1482.55 154.631 1479.01 Q156.459 1475.44 156.459 1468.33 Q156.459 1461.2 154.631 1457.66 Q152.825 1454.1 149.191 1454.1 M149.191 1450.39 Q155.001 1450.39 158.057 1455 Q161.135 1459.58 161.135 1468.33 Q161.135 1477.06 158.057 1481.67 Q155.001 1486.25 149.191 1486.25 Q143.381 1486.25 140.302 1481.67 Q137.246 1477.06 137.246 1468.33 Q137.246 1459.58 140.302 1455 Q143.381 1450.39 149.191 1450.39 Z" fill="#000000" fill-rule="nonzero" fill-opacity="1" /><path clip-path="url(#clip230)" d="M694.735 1481.64 L711.054 1481.64 L711.054 1485.58 L689.11 1485.58 L689.11 1481.64 Q691.772 1478.89 696.355 1474.26 Q700.962 1469.61 702.142 1468.27 Q704.388 1465.74 705.267 1464.01 Q706.17 1462.25 706.17 1460.56 Q706.17 1457.8 704.226 1456.07 Q702.304 1454.33 699.203 1454.33 Q697.003 1454.33 694.55 1455.09 Q692.119 1455.86 689.341 1457.41 L689.341 1452.69 Q692.166 1451.55 694.619 1450.97 Q697.073 1450.39 699.11 1450.39 Q704.48 1450.39 707.675 1453.08 Q710.869 1455.77 710.869 1460.26 Q710.869 1462.39 710.059 1464.31 Q709.272 1466.2 707.165 1468.8 Q706.587 1469.47 703.485 1472.69 Q700.383 1475.88 694.735 1481.64 Z" fill="#000000" fill-rule="nonzero" fill-opacity="1" /><path clip-path="url(#clip230)" d="M1253.98 1455.09 L1242.18 1473.54 L1253.98 1473.54 L1253.98 1455.09 M1252.76 1451.02 L1258.64 1451.02 L1258.64 1473.54 L1263.57 1473.54 L1263.57 1477.43 L1258.64 1477.43 L1258.64 1485.58 L1253.98 1485.58 L1253.98 1477.43 L1238.38 1477.43 L1238.38 1472.92 L1252.76 1451.02 Z" fill="#000000" fill-rule="nonzero" fill-opacity="1" /><path clip-path="url(#clip230)" d="M1802.27 1466.44 Q1799.12 1466.44 1797.27 1468.59 Q1795.44 1470.74 1795.44 1474.49 Q1795.44 1478.22 1797.27 1480.39 Q1799.12 1482.55 1802.27 1482.55 Q1805.42 1482.55 1807.25 1480.39 Q1809.1 1478.22 1809.1 1474.49 Q1809.1 1470.74 1807.25 1468.59 Q1805.42 1466.44 1802.27 1466.44 M1811.55 1451.78 L1811.55 1456.04 Q1809.79 1455.21 1807.99 1454.77 Q1806.2 1454.33 1804.45 1454.33 Q1799.82 1454.33 1797.36 1457.45 Q1794.93 1460.58 1794.58 1466.9 Q1795.95 1464.89 1798.01 1463.82 Q1800.07 1462.73 1802.55 1462.73 Q1807.76 1462.73 1810.77 1465.9 Q1813.8 1469.05 1813.8 1474.49 Q1813.8 1479.82 1810.65 1483.03 Q1807.5 1486.25 1802.27 1486.25 Q1796.27 1486.25 1793.1 1481.67 Q1789.93 1477.06 1789.93 1468.33 Q1789.93 1460.14 1793.82 1455.28 Q1797.71 1450.39 1804.26 1450.39 Q1806.02 1450.39 1807.8 1450.74 Q1809.61 1451.09 1811.55 1451.78 Z" fill="#000000" fill-rule="nonzero" fill-opacity="1" /><path clip-path="url(#clip230)" d="M2352.76 1469.17 Q2349.42 1469.17 2347.5 1470.95 Q2345.6 1472.73 2345.6 1475.86 Q2345.6 1478.98 2347.5 1480.77 Q2349.42 1482.55 2352.76 1482.55 Q2356.09 1482.55 2358.01 1480.77 Q2359.93 1478.96 2359.93 1475.86 Q2359.93 1472.73 2358.01 1470.95 Q2356.11 1469.17 2352.76 1469.17 M2348.08 1467.18 Q2345.07 1466.44 2343.38 1464.38 Q2341.71 1462.32 2341.71 1459.35 Q2341.71 1455.21 2344.65 1452.8 Q2347.62 1450.39 2352.76 1450.39 Q2357.92 1450.39 2360.86 1452.8 Q2363.8 1455.21 2363.8 1459.35 Q2363.8 1462.32 2362.11 1464.38 Q2360.44 1466.44 2357.45 1467.18 Q2360.83 1467.96 2362.71 1470.26 Q2364.61 1472.55 2364.61 1475.86 Q2364.61 1480.88 2361.53 1483.57 Q2358.47 1486.25 2352.76 1486.25 Q2347.04 1486.25 2343.96 1483.57 Q2340.9 1480.88 2340.9 1475.86 Q2340.9 1472.55 2342.8 1470.26 Q2344.7 1467.96 2348.08 1467.18 M2346.37 1459.79 Q2346.37 1462.48 2348.03 1463.98 Q2349.72 1465.49 2352.76 1465.49 Q2355.77 1465.49 2357.45 1463.98 Q2359.17 1462.48 2359.17 1459.79 Q2359.17 1457.11 2357.45 1455.6 Q2355.77 1454.1 2352.76 1454.1 Q2349.72 1454.1 2348.03 1455.6 Q2346.37 1457.11 2346.37 1459.79 Z" fill="#000000" fill-rule="nonzero" fill-opacity="1" /><path clip-path="url(#clip230)" d="M1250.03 1522.27 L1250.03 1532.4 L1262.1 1532.4 L1262.1 1536.95 L1250.03 1536.95 L1250.03 1556.3 Q1250.03 1560.66 1251.21 1561.9 Q1252.42 1563.14 1256.08 1563.14 L1262.1 1563.14 L1262.1 1568.04 L1256.08 1568.04 Q1249.3 1568.04 1246.72 1565.53 Q1244.15 1562.98 1244.15 1556.3 L1244.15 1536.95 L1239.85 1536.95 L1239.85 1532.4 L1244.15 1532.4 L1244.15 1522.27 L1250.03 1522.27 Z" fill="#000000" fill-rule="nonzero" fill-opacity="1" /><polyline clip-path="url(#clip230)" style="stroke:#000000; stroke-linecap:round; stroke-linejoin:round; stroke-width:4; stroke-opacity:1; fill:none" points="149.191,1423.18 149.191,47.2441 "/>
<polyline clip-path="url(#clip230)" style="stroke:#000000; stroke-linecap:round; stroke-linejoin:round; stroke-width:4; stroke-opacity:1; fill:none" points="149.191,1423.18 168.089,1423.18 "/>
<polyline clip-path="url(#clip230)" style="stroke:#000000; stroke-linecap:round; stroke-linejoin:round; stroke-width:4; stroke-opacity:1; fill:none" points="149.191,1193.86 168.089,1193.86 "/>
<polyline clip-path="url(#clip230)" style="stroke:#000000; stroke-linecap:round; stroke-linejoin:round; stroke-width:4; stroke-opacity:1; fill:none" points="149.191,964.535 168.089,964.535 "/>
<polyline clip-path="url(#clip230)" style="stroke:#000000; stroke-linecap:round; stroke-linejoin:round; stroke-width:4; stroke-opacity:1; fill:none" points="149.191,735.212 168.089,735.212 "/>
<polyline clip-path="url(#clip230)" style="stroke:#000000; stroke-linecap:round; stroke-linejoin:round; stroke-width:4; stroke-opacity:1; fill:none" points="149.191,505.889 168.089,505.889 "/>
<polyline clip-path="url(#clip230)" style="stroke:#000000; stroke-linecap:round; stroke-linejoin:round; stroke-width:4; stroke-opacity:1; fill:none" points="149.191,276.567 168.089,276.567 "/>
<polyline clip-path="url(#clip230)" style="stroke:#000000; stroke-linecap:round; stroke-linejoin:round; stroke-width:4; stroke-opacity:1; fill:none" points="149.191,47.2441 168.089,47.2441 "/>
<path clip-path="url(#clip230)" d="M51.3162 1423.63 L80.992 1423.63 L80.992 1427.57 L51.3162 1427.57 L51.3162 1423.63 Z" fill="#000000" fill-rule="nonzero" fill-opacity="1" /><path clip-path="url(#clip230)" d="M101.663 1421.32 Q98.515 1421.32 96.6632 1423.47 Q94.8345 1425.62 94.8345 1429.37 Q94.8345 1433.1 96.6632 1435.27 Q98.515 1437.43 101.663 1437.43 Q104.811 1437.43 106.64 1435.27 Q108.492 1433.1 108.492 1429.37 Q108.492 1425.62 106.64 1423.47 Q104.811 1421.32 101.663 1421.32 M110.946 1406.66 L110.946 1410.92 Q109.186 1410.09 107.381 1409.65 Q105.598 1409.21 103.839 1409.21 Q99.2095 1409.21 96.7558 1412.33 Q94.3252 1415.46 93.978 1421.78 Q95.3437 1419.77 97.4039 1418.7 Q99.4641 1417.61 101.941 1417.61 Q107.149 1417.61 110.158 1420.78 Q113.191 1423.93 113.191 1429.37 Q113.191 1434.7 110.043 1437.91 Q106.895 1441.13 101.663 1441.13 Q95.6678 1441.13 92.4965 1436.55 Q89.3253 1431.94 89.3253 1423.21 Q89.3253 1415.02 93.2141 1410.16 Q97.103 1405.27 103.654 1405.27 Q105.413 1405.27 107.196 1405.62 Q109.001 1405.97 110.946 1406.66 Z" fill="#000000" fill-rule="nonzero" fill-opacity="1" /><path clip-path="url(#clip230)" d="M50.9921 1194.31 L80.6679 1194.31 L80.6679 1198.24 L50.9921 1198.24 L50.9921 1194.31 Z" fill="#000000" fill-rule="nonzero" fill-opacity="1" /><path clip-path="url(#clip230)" d="M103.608 1180.65 L91.8021 1199.1 L103.608 1199.1 L103.608 1180.65 M102.381 1176.58 L108.26 1176.58 L108.26 1199.1 L113.191 1199.1 L113.191 1202.99 L108.26 1202.99 L108.26 1211.14 L103.608 1211.14 L103.608 1202.99 L88.0058 1202.99 L88.0058 1198.48 L102.381 1176.58 Z" fill="#000000" fill-rule="nonzero" fill-opacity="1" /><path clip-path="url(#clip230)" d="M53.0754 964.986 L82.7512 964.986 L82.7512 968.921 L53.0754 968.921 L53.0754 964.986 Z" fill="#000000" fill-rule="nonzero" fill-opacity="1" /><path clip-path="url(#clip230)" d="M96.8715 977.879 L113.191 977.879 L113.191 981.815 L91.2465 981.815 L91.2465 977.879 Q93.9086 975.125 98.4919 970.495 Q103.098 965.842 104.279 964.5 Q106.524 961.977 107.404 960.241 Q108.307 958.481 108.307 956.792 Q108.307 954.037 106.362 952.301 Q104.441 950.565 101.339 950.565 Q99.14 950.565 96.6863 951.329 Q94.2558 952.093 91.478 953.643 L91.478 948.921 Q94.3021 947.787 96.7558 947.208 Q99.2095 946.63 101.246 946.63 Q106.617 946.63 109.811 949.315 Q113.006 952 113.006 956.491 Q113.006 958.62 112.196 960.542 Q111.408 962.44 109.302 965.032 Q108.723 965.704 105.621 968.921 Q102.52 972.116 96.8715 977.879 Z" fill="#000000" fill-rule="nonzero" fill-opacity="1" /><path clip-path="url(#clip230)" d="M101.246 721.011 Q97.6354 721.011 95.8067 724.575 Q94.0012 728.117 94.0012 735.247 Q94.0012 742.353 95.8067 745.918 Q97.6354 749.46 101.246 749.46 Q104.881 749.46 106.686 745.918 Q108.515 742.353 108.515 735.247 Q108.515 728.117 106.686 724.575 Q104.881 721.011 101.246 721.011 M101.246 717.307 Q107.057 717.307 110.112 721.913 Q113.191 726.497 113.191 735.247 Q113.191 743.973 110.112 748.58 Q107.057 753.163 101.246 753.163 Q95.4363 753.163 92.3576 748.58 Q89.3021 743.973 89.3021 735.247 Q89.3021 726.497 92.3576 721.913 Q95.4363 717.307 101.246 717.307 Z" fill="#000000" fill-rule="nonzero" fill-opacity="1" /><path clip-path="url(#clip230)" d="M96.8715 519.234 L113.191 519.234 L113.191 523.169 L91.2465 523.169 L91.2465 519.234 Q93.9086 516.48 98.4919 511.85 Q103.098 507.197 104.279 505.855 Q106.524 503.331 107.404 501.595 Q108.307 499.836 108.307 498.146 Q108.307 495.392 106.362 493.656 Q104.441 491.92 101.339 491.92 Q99.14 491.92 96.6863 492.683 Q94.2558 493.447 91.478 494.998 L91.478 490.276 Q94.3021 489.142 96.7558 488.563 Q99.2095 487.984 101.246 487.984 Q106.617 487.984 109.811 490.67 Q113.006 493.355 113.006 497.845 Q113.006 499.975 112.196 501.896 Q111.408 503.794 109.302 506.387 Q108.723 507.058 105.621 510.276 Q102.52 513.47 96.8715 519.234 Z" fill="#000000" fill-rule="nonzero" fill-opacity="1" /><path clip-path="url(#clip230)" d="M103.608 263.361 L91.8021 281.81 L103.608 281.81 L103.608 263.361 M102.381 259.287 L108.26 259.287 L108.26 281.81 L113.191 281.81 L113.191 285.699 L108.26 285.699 L108.26 293.847 L103.608 293.847 L103.608 285.699 L88.0058 285.699 L88.0058 281.185 L102.381 259.287 Z" fill="#000000" fill-rule="nonzero" fill-opacity="1" /><path clip-path="url(#clip230)" d="M101.663 45.3807 Q98.515 45.3807 96.6632 47.5334 Q94.8345 49.6862 94.8345 53.4362 Q94.8345 57.163 96.6632 59.3389 Q98.515 61.4917 101.663 61.4917 Q104.811 61.4917 106.64 59.3389 Q108.492 57.163 108.492 53.4362 Q108.492 49.6862 106.64 47.5334 Q104.811 45.3807 101.663 45.3807 M110.946 30.728 L110.946 34.9872 Q109.186 34.1539 107.381 33.7141 Q105.598 33.2743 103.839 33.2743 Q99.2095 33.2743 96.7558 36.3992 Q94.3252 39.5242 93.978 45.8436 Q95.3437 43.8298 97.4039 42.765 Q99.4641 41.677 101.941 41.677 Q107.149 41.677 110.158 44.8483 Q113.191 47.9964 113.191 53.4362 Q113.191 58.7602 110.043 61.9778 Q106.895 65.1954 101.663 65.1954 Q95.6678 65.1954 92.4965 60.6121 Q89.3253 56.0056 89.3253 47.2788 Q89.3253 39.0844 93.2141 34.2233 Q97.103 29.3391 103.654 29.3391 Q105.413 29.3391 107.196 29.6863 Q109.001 30.0335 110.946 30.728 Z" fill="#000000" fill-rule="nonzero" fill-opacity="1" /><polyline clip-path="url(#clip232)" style="stroke:#009af9; stroke-linecap:round; stroke-linejoin:round; stroke-width:12; stroke-opacity:1; fill:none" points="149.191,1193.86 151.945,1192.47 154.7,1189.07 157.454,1184.51 160.209,1179.31 162.963,1173.78 165.718,1168.08 168.472,1162.32 171.227,1156.52 173.981,1150.72 176.735,1144.92 179.49,1139.11 182.244,1133.31 184.999,1127.51 187.753,1121.71 190.508,1115.91 193.262,1110.12 196.017,1104.34 198.771,1098.58 201.526,1092.84 204.28,1087.12 207.034,1081.43 209.789,1075.77 212.543,1070.14 215.298,1064.55 218.052,1059 220.807,1053.48 223.561,1048.01 226.316,1042.59 229.07,1037.21 231.825,1031.87 234.579,1026.58 237.333,1021.33 240.088,1016.14 242.842,1010.98 245.597,1005.88 248.351,1000.82 251.106,995.801 253.86,990.829 256.615,985.902 259.369,981.017 262.124,976.174 264.878,971.373 267.632,966.612 270.387,961.891 273.141,957.209 275.896,952.565 278.65,947.958 281.405,943.388 284.159,938.853 286.914,934.354 289.668,929.888 292.423,925.457 295.177,921.058 297.932,916.692 300.686,912.357 303.44,908.054 306.195,903.781 308.949,899.538 311.704,895.324 314.458,891.139 317.213,886.983 319.967,882.855 322.722,878.755 325.476,874.682 328.231,870.636 330.985,866.616 333.739,862.623 336.494,858.656 339.248,854.714 342.003,850.797 344.757,846.906 347.512,843.039 350.266,839.197 353.021,835.379 355.775,831.585 358.53,827.815 361.284,824.068 364.038,820.345 366.793,816.645 369.547,812.968 372.302,809.314 375.056,805.683 377.811,802.075 380.565,798.488 383.32,794.924 386.074,791.382 388.829,787.862 391.583,784.364 394.337,780.888 397.092,777.433 399.846,773.999 402.601,770.587 405.355,767.196 408.11,763.826 410.864,760.476 413.619,757.148 416.373,753.84 419.128,750.553 421.882,747.287 424.636,744.04 427.391,740.814 430.145,737.608 432.9,734.423 435.654,731.257 438.409,728.112 441.163,724.986 443.918,721.88 446.672,718.793 449.427,715.726 452.181,712.679 454.936,709.651 457.69,706.642 460.444,703.652 463.199,700.681 465.953,697.73 468.708,694.797 471.462,691.883 474.217,688.988 476.971,686.111 479.726,683.253 482.48,680.414 485.235,677.593 487.989,674.79 490.743,672.005 493.498,669.238 496.252,666.49 499.007,663.76 501.761,661.047 504.516,658.352 507.27,655.675 510.025,653.015 512.779,650.373 515.534,647.748 518.288,645.141 521.042,642.551 523.797,639.978 526.551,637.422 529.306,634.884 532.06,632.362 534.815,629.857 537.569,627.369 540.324,624.898 543.078,622.443 545.833,620.004 548.587,617.582 551.341,615.177 554.096,612.788 556.85,610.414 559.605,608.057 562.359,605.716 565.114,603.391 567.868,601.082 570.623,598.789 573.377,596.511 576.132,594.249 578.886,592.002 581.641,589.771 584.395,587.555 587.149,585.354 589.904,583.169 592.658,580.998 595.413,578.843 598.167,576.702 600.922,574.577 603.676,572.466 606.431,570.37 609.185,568.288 611.94,566.221 614.694,564.169 617.448,562.13 620.203,560.106 622.957,558.097 625.712,556.101 628.466,554.119 631.221,552.152 633.975,550.198 636.73,548.258 639.484,546.332 642.239,544.419 644.993,542.52 647.747,540.635 650.502,538.762 653.256,536.904 656.011,535.058 658.765,533.225 661.52,531.406 664.274,529.6 667.029,527.806 669.783,526.026 672.538,524.258 675.292,522.503 678.046,520.76 680.801,519.03 683.555,517.313 686.31,515.607 689.064,513.915 691.819,512.234 694.573,510.566 697.328,508.909 700.082,507.265 702.837,505.632 705.591,504.012 708.345,502.403 711.1,500.806 713.854,499.221 716.609,497.647 719.363,496.085 722.118,494.534 724.872,492.994 727.627,491.466 730.381,489.949 733.136,488.443 735.89,486.948 738.645,485.464 741.399,483.991 744.153,482.529 746.908,481.078 749.662,479.637 752.417,478.207 755.171,476.788 757.926,475.379 760.68,473.98 763.435,472.592 766.189,471.214 768.944,469.847 771.698,468.489 774.452,467.142 777.207,465.805 779.961,464.478 782.716,463.16 785.47,461.853 788.225,460.555 790.979,459.267 793.734,457.988 796.488,456.719 799.243,455.46 801.997,454.21 804.751,452.97 807.506,451.738 810.26,450.516 813.015,449.303 815.769,448.1 818.524,446.905 821.278,445.72 824.033,444.543 826.787,443.375 829.542,442.216 832.296,441.066 835.05,439.924 837.805,438.792 840.559,437.667 843.314,436.551 846.068,435.444 848.823,434.345 851.577,433.254 854.332,432.172 857.086,431.098 859.841,430.032 862.595,428.974 865.349,427.924 868.104,426.882 870.858,425.849 873.613,424.823 876.367,423.804 879.122,422.794 881.876,421.791 884.631,420.796 887.385,419.809 890.14,418.829 892.894,417.856 895.649,416.891 898.403,415.934 901.157,414.983 903.912,414.04 906.666,413.104 909.421,412.176 912.175,411.254 914.93,410.339 917.684,409.432 920.439,408.531 923.193,407.638 925.948,406.751 928.702,405.871 931.456,404.998 934.211,404.131 936.965,403.272 939.72,402.418 942.474,401.572 945.229,400.731 947.983,399.898 950.738,399.07 953.492,398.249 956.247,397.435 959.001,396.626 961.755,395.824 964.51,395.028 967.264,394.238 970.019,393.455 972.773,392.677 975.528,391.905 978.282,391.139 981.037,390.379 983.791,389.625 986.546,388.877 989.3,388.135 992.054,387.398 994.809,386.667 997.563,385.941 1000.32,385.221 1003.07,384.507 1005.83,383.798 1008.58,383.094 1011.34,382.396 1014.09,381.704 1016.84,381.016 1019.6,380.334 1022.35,379.657 1025.11,378.986 1027.86,378.319 1030.62,377.658 1033.37,377.001 1036.13,376.35 1038.88,375.704 1041.63,375.062 1044.39,374.426 1047.14,373.794 1049.9,373.167 1052.65,372.545 1055.41,371.928 1058.16,371.315 1060.92,370.708 1063.67,370.104 1066.42,369.506 1069.18,368.912 1071.93,368.322 1074.69,367.737 1077.44,367.156 1080.2,366.58 1082.95,366.008 1085.71,365.441 1088.46,364.877 1091.21,364.318 1093.97,363.764 1096.72,363.213 1099.48,362.667 1102.23,362.124 1104.99,361.586 1107.74,361.052 1110.5,360.522 1113.25,359.996 1116.01,359.473 1118.76,358.955 1121.51,358.441 1124.27,357.93 1127.02,357.423 1129.78,356.921 1132.53,356.421 1135.29,355.926 1138.04,355.434 1140.8,354.946 1143.55,354.461 1146.3,353.981 1149.06,353.503 1151.81,353.029 1154.57,352.559 1157.32,352.092 1160.08,351.629 1162.83,351.169 1165.59,350.712 1168.34,350.259 1171.09,349.809 1173.85,349.362 1176.6,348.919 1179.36,348.479 1182.11,348.042 1184.87,347.608 1187.62,347.177 1190.38,346.749 1193.13,346.325 1195.88,345.903 1198.64,345.485 1201.39,345.07 1204.15,344.657 1206.9,344.248 1209.66,343.841 1212.41,343.437 1215.17,343.037 1217.92,342.639 1220.67,342.244 1223.43,341.851 1226.18,341.462 1228.94,341.075 1231.69,340.691 1234.45,340.309 1237.2,339.931 1239.96,339.555 1242.71,339.181 1245.46,338.81 1248.22,338.442 1250.97,338.076 1253.73,337.713 1256.48,337.352 1259.24,336.994 1261.99,336.638 1264.75,336.285 1267.5,335.934 1270.25,335.585 1273.01,335.239 1275.76,334.895 1278.52,334.553 1281.27,334.214 1284.03,333.877 1286.78,333.542 1289.54,333.21 1292.29,332.879 1295.04,332.551 1297.8,332.225 1300.55,331.901 1303.31,331.579 1306.06,331.26 1308.82,330.942 1311.57,330.626 1314.33,330.313 1317.08,330.001 1319.83,329.692 1322.59,329.384 1325.34,329.079 1328.1,328.775 1330.85,328.473 1333.61,328.173 1336.36,327.875 1339.12,327.579 1341.87,327.285 1344.62,326.992 1347.38,326.702 1350.13,326.413 1352.89,326.125 1355.64,325.84 1358.4,325.556 1361.15,325.274 1363.91,324.994 1366.66,324.715 1369.41,324.438 1372.17,324.163 1374.92,323.889 1377.68,323.617 1380.43,323.346 1383.19,323.077 1385.94,322.81 1388.7,322.544 1391.45,322.28 1394.21,322.017 1396.96,321.755 1399.71,321.495 1402.47,321.237 1405.22,320.979 1407.98,320.724 1410.73,320.469 1413.49,320.217 1416.24,319.965 1419,319.715 1421.75,319.466 1424.5,319.219 1427.26,318.972 1430.01,318.728 1432.77,318.484 1435.52,318.242 1438.28,318 1441.03,317.761 1443.79,317.522 1446.54,317.285 1449.29,317.048 1452.05,316.813 1454.8,316.58 1457.56,316.347 1460.31,316.115 1463.07,315.885 1465.82,315.656 1468.58,315.428 1471.33,315.201 1474.08,314.975 1476.84,314.75 1479.59,314.526 1482.35,314.303 1485.1,314.082 1487.86,313.861 1490.61,313.641 1493.37,313.423 1496.12,313.205 1498.87,312.988 1501.63,312.773 1504.38,312.558 1507.14,312.344 1509.89,312.132 1512.65,311.92 1515.4,311.709 1518.16,311.499 1520.91,311.29 1523.66,311.081 1526.42,310.874 1529.17,310.667 1531.93,310.462 1534.68,310.257 1537.44,310.053 1540.19,309.85 1542.95,309.647 1545.7,309.446 1548.45,309.245 1551.21,309.045 1553.96,308.845 1556.72,308.647 1559.47,308.449 1562.23,308.252 1564.98,308.056 1567.74,307.86 1570.49,307.666 1573.24,307.471 1576,307.278 1578.75,307.085 1581.51,306.893 1584.26,306.702 1587.02,306.511 1589.77,306.321 1592.53,306.132 1595.28,305.943 1598.03,305.755 1600.79,305.567 1603.54,305.38 1606.3,305.194 1609.05,305.008 1611.81,304.823 1614.56,304.639 1617.32,304.455 1620.07,304.272 1622.82,304.089 1625.58,303.907 1628.33,303.725 1631.09,303.544 1633.84,303.363 1636.6,303.183 1639.35,303.004 1642.11,302.825 1644.86,302.646 1647.62,302.468 1650.37,302.291 1653.12,302.114 1655.88,301.937 1658.63,301.761 1661.39,301.585 1664.14,301.41 1666.9,301.236 1669.65,301.061 1672.41,300.887 1675.16,300.714 1677.91,300.541 1680.67,300.369 1683.42,300.197 1686.18,300.025 1688.93,299.853 1691.69,299.683 1694.44,299.512 1697.2,299.342 1699.95,299.172 1702.7,299.003 1705.46,298.834 1708.21,298.665 1710.97,298.497 1713.72,298.329 1716.48,298.161 1719.23,297.994 1721.99,297.827 1724.74,297.661 1727.49,297.494 1730.25,297.328 1733,297.163 1735.76,296.997 1738.51,296.832 1741.27,296.668 1744.02,296.503 1746.78,296.339 1749.53,296.175 1752.28,296.012 1755.04,295.848 1757.79,295.685 1760.55,295.523 1763.3,295.36 1766.06,295.198 1768.81,295.036 1771.57,294.874 1774.32,294.713 1777.07,294.552 1779.83,294.391 1782.58,294.23 1785.34,294.069 1788.09,293.909 1790.85,293.749 1793.6,293.589 1796.36,293.429 1799.11,293.27 1801.86,293.111 1804.62,292.952 1807.37,292.793 1810.13,292.634 1812.88,292.476 1815.64,292.318 1818.39,292.159 1821.15,292.002 1823.9,291.844 1826.65,291.686 1829.41,291.529 1832.16,291.372 1834.92,291.215 1837.67,291.058 1840.43,290.901 1843.18,290.745 1845.94,290.589 1848.69,290.432 1851.44,290.276 1854.2,290.121 1856.95,289.965 1859.71,289.809 1862.46,289.654 1865.22,289.499 1867.97,289.343 1870.73,289.189 1873.48,289.034 1876.23,288.879 1878.99,288.724 1881.74,288.57 1884.5,288.416 1887.25,288.261 1890.01,288.107 1892.76,287.953 1895.52,287.799 1898.27,287.646 1901.03,287.492 1903.78,287.339 1906.53,287.185 1909.29,287.032 1912.04,286.879 1914.8,286.726 1917.55,286.573 1920.31,286.42 1923.06,286.268 1925.82,286.115 1928.57,285.963 1931.32,285.81 1934.08,285.658 1936.83,285.506 1939.59,285.353 1942.34,285.201 1945.1,285.049 1947.85,284.897 1950.61,284.746 1953.36,284.594 1956.11,284.442 1958.87,284.29 1961.62,284.139 1964.38,283.987 1967.13,283.836 1969.89,283.685 1972.64,283.533 1975.4,283.382 1978.15,283.231 1980.9,283.08 1983.66,282.929 1986.41,282.778 1989.17,282.627 1991.92,282.476 1994.68,282.326 1997.43,282.175 2000.19,282.024 2002.94,281.874 2005.69,281.723 2008.45,281.573 2011.2,281.422 2013.96,281.272 2016.71,281.122 2019.47,280.971 2022.22,280.821 2024.98,280.671 2027.73,280.521 2030.48,280.371 2033.24,280.22 2035.99,280.07 2038.75,279.92 2041.5,279.77 2044.26,279.621 2047.01,279.471 2049.77,279.321 2052.52,279.171 2055.27,279.021 2058.03,278.872 2060.78,278.722 2063.54,278.572 2066.29,278.423 2069.05,278.273 2071.8,278.123 2074.56,277.974 2077.31,277.824 2080.06,277.675 2082.82,277.525 2085.57,277.376 2088.33,277.226 2091.08,277.077 2093.84,276.928 2096.59,276.778 2099.35,276.629 2102.1,276.48 2104.85,276.33 2107.61,276.181 2110.36,276.032 2113.12,275.883 2115.87,275.733 2118.63,275.584 2121.38,275.435 2124.14,275.286 2126.89,275.137 2129.64,274.988 2132.4,274.839 2135.15,274.689 2137.91,274.54 2140.66,274.391 2143.42,274.242 2146.17,274.093 2148.93,273.944 2151.68,273.795 2154.44,273.646 2157.19,273.497 2159.94,273.348 2162.7,273.199 2165.45,273.05 2168.21,272.901 2170.96,272.752 2173.72,272.603 2176.47,272.454 2179.23,272.305 2181.98,272.156 2184.73,272.007 2187.49,271.858 2190.24,271.709 2193,271.56 2195.75,271.411 2198.51,271.262 2201.26,271.113 2204.02,270.964 2206.77,270.816 2209.52,270.667 2212.28,270.518 2215.03,270.369 2217.79,270.22 2220.54,270.071 2223.3,269.922 2226.05,269.773 2228.81,269.624 2231.56,269.475 2234.31,269.326 2237.07,269.177 2239.82,269.029 2242.58,268.88 2245.33,268.731 2248.09,268.582 2250.84,268.433 2253.6,268.284 2256.35,268.135 2259.1,267.986 2261.86,267.837 2264.61,267.688 2267.37,267.54 2270.12,267.391 2272.88,267.242 2275.63,267.093 2278.39,266.944 2281.14,266.795 2283.89,266.646 2286.65,266.497 2289.4,266.348 2292.16,266.199 2294.91,266.05 2297.67,265.902 2300.42,265.753 2303.18,265.604 2305.93,265.455 2308.68,265.306 2311.44,265.157 2314.19,265.008 2316.95,264.859 2319.7,264.71 2322.46,264.562 2325.21,264.413 2327.97,264.264 2330.72,264.115 2333.47,263.966 2336.23,263.817 2338.98,263.668 2341.74,263.52 2344.49,263.371 2347.25,263.222 2350,263.073 2352.76,262.924 "/>
<polyline clip-path="url(#clip232)" style="stroke:#e26f46; stroke-linecap:round; stroke-linejoin:round; stroke-width:12; stroke-opacity:1; fill:none" points="149.191,735.212 151.945,478.405 154.7,326.293 157.454,240.634 160.209,194.864 162.963,171.873 165.718,161.199 168.472,156.797 171.227,155.266 173.981,154.874 176.735,154.832 179.49,154.828 182.244,154.843 184.999,154.961 187.753,155.275 190.508,155.877 193.262,156.836 196.017,158.183 198.771,159.931 201.526,162.079 204.28,164.612 207.034,167.501 209.789,170.714 212.543,174.215 215.298,177.968 218.052,181.936 220.807,186.086 223.561,190.385 226.316,194.802 229.07,199.307 231.825,203.871 234.579,208.473 237.333,213.091 240.088,217.708 242.842,222.306 245.597,226.871 248.351,231.392 251.106,235.856 253.86,240.257 256.615,244.587 259.369,248.841 262.124,253.018 264.878,257.115 267.632,261.129 270.387,265.061 273.141,268.912 275.896,272.683 278.65,276.375 281.405,279.99 284.159,283.529 286.914,286.994 289.668,290.389 292.423,293.714 295.177,296.973 297.932,300.17 300.686,303.306 303.44,306.385 306.195,309.41 308.949,312.383 311.704,315.307 314.458,318.183 317.213,321.014 319.967,323.803 322.722,326.551 325.476,329.261 328.231,331.934 330.985,334.573 333.739,337.178 336.494,339.753 339.248,342.297 342.003,344.813 344.757,347.303 347.512,349.766 350.266,352.206 353.021,354.622 355.775,357.015 358.53,359.387 361.284,361.739 364.038,364.072 366.793,366.386 369.547,368.681 372.302,370.96 375.056,373.222 377.811,375.467 380.565,377.697 383.32,379.912 386.074,382.113 388.829,384.299 391.583,386.472 394.337,388.631 397.092,390.778 399.846,392.912 402.601,395.035 405.355,397.145 408.11,399.244 410.864,401.332 413.619,403.409 416.373,405.476 419.128,407.531 421.882,409.577 424.636,411.612 427.391,413.637 430.145,415.653 432.9,417.658 435.654,419.654 438.409,421.64 441.163,423.616 443.918,425.584 446.672,427.542 449.427,429.49 452.181,431.43 454.936,433.361 457.69,435.282 460.444,437.195 463.199,439.098 465.953,440.993 468.708,442.879 471.462,444.756 474.217,446.624 476.971,448.484 479.726,450.335 482.48,452.177 485.235,454.011 487.989,455.836 490.743,457.652 493.498,459.46 496.252,461.26 499.007,463.051 501.761,464.833 504.516,466.607 507.27,468.373 510.025,470.13 512.779,471.878 515.534,473.618 518.288,475.35 521.042,477.073 523.797,478.788 526.551,480.494 529.306,482.192 532.06,483.881 534.815,485.562 537.569,487.235 540.324,488.899 543.078,490.554 545.833,492.202 548.587,493.84 551.341,495.471 554.096,497.093 556.85,498.707 559.605,500.312 562.359,501.909 565.114,503.497 567.868,505.078 570.623,506.649 573.377,508.213 576.132,509.768 578.886,511.315 581.641,512.854 584.395,514.384 587.149,515.906 589.904,517.42 592.658,518.925 595.413,520.422 598.167,521.911 600.922,523.392 603.676,524.865 606.431,526.329 609.185,527.785 611.94,529.233 614.694,530.673 617.448,532.105 620.203,533.529 622.957,534.944 625.712,536.352 628.466,537.751 631.221,539.143 633.975,540.526 636.73,541.902 639.484,543.269 642.239,544.629 644.993,545.98 647.747,547.323 650.502,548.659 653.256,549.987 656.011,551.307 658.765,552.619 661.52,553.923 664.274,555.22 667.029,556.509 669.783,557.79 672.538,559.063 675.292,560.329 678.046,561.586 680.801,562.837 683.555,564.079 686.31,565.314 689.064,566.542 691.819,567.762 694.573,568.974 697.328,570.179 700.082,571.376 702.837,572.566 705.591,573.749 708.345,574.924 711.1,576.092 713.854,577.252 716.609,578.405 719.363,579.551 722.118,580.69 724.872,581.821 727.627,582.946 730.381,584.063 733.136,585.173 735.89,586.276 738.645,587.371 741.399,588.46 744.153,589.542 746.908,590.617 749.662,591.684 752.417,592.745 755.171,593.799 757.926,594.846 760.68,595.887 763.435,596.92 766.189,597.947 768.944,598.967 771.698,599.98 774.452,600.986 777.207,601.986 779.961,602.979 782.716,603.966 785.47,604.946 788.225,605.919 790.979,606.886 793.734,607.846 796.488,608.8 799.243,609.748 801.997,610.688 804.751,611.623 807.506,612.551 810.26,613.473 813.015,614.389 815.769,615.299 818.524,616.202 821.278,617.099 824.033,617.989 826.787,618.874 829.542,619.753 832.296,620.625 835.05,621.492 837.805,622.352 840.559,623.206 843.314,624.055 846.068,624.897 848.823,625.734 851.577,626.564 854.332,627.389 857.086,628.208 859.841,629.022 862.595,629.829 865.349,630.631 868.104,631.427 870.858,632.217 873.613,633.002 876.367,633.781 879.122,634.555 881.876,635.323 884.631,636.085 887.385,636.842 890.14,637.594 892.894,638.34 895.649,639.08 898.403,639.816 901.157,640.546 903.912,641.27 906.666,641.989 909.421,642.703 912.175,643.412 914.93,644.116 917.684,644.814 920.439,645.507 923.193,646.196 925.948,646.879 928.702,647.556 931.456,648.229 934.211,648.897 936.965,649.56 939.72,650.218 942.474,650.871 945.229,651.519 947.983,652.162 950.738,652.801 953.492,653.434 956.247,654.063 959.001,654.687 961.755,655.306 964.51,655.92 967.264,656.53 970.019,657.135 972.773,657.736 975.528,658.331 978.282,658.923 981.037,659.509 983.791,660.092 986.546,660.669 989.3,661.242 992.054,661.811 994.809,662.375 997.563,662.935 1000.32,663.491 1003.07,664.042 1005.83,664.589 1008.58,665.131 1011.34,665.669 1014.09,666.203 1016.84,666.733 1019.6,667.259 1022.35,667.78 1025.11,668.297 1027.86,668.81 1030.62,669.319 1033.37,669.824 1036.13,670.325 1038.88,670.822 1041.63,671.314 1044.39,671.803 1047.14,672.288 1049.9,672.769 1052.65,673.246 1055.41,673.719 1058.16,674.188 1060.92,674.654 1063.67,675.115 1066.42,675.573 1069.18,676.027 1071.93,676.478 1074.69,676.924 1077.44,677.367 1080.2,677.806 1082.95,678.242 1085.71,678.674 1088.46,679.102 1091.21,679.527 1093.97,679.948 1096.72,680.365 1099.48,680.779 1102.23,681.19 1104.99,681.597 1107.74,682.001 1110.5,682.401 1113.25,682.798 1116.01,683.191 1118.76,683.582 1121.51,683.968 1124.27,684.352 1127.02,684.732 1129.78,685.109 1132.53,685.482 1135.29,685.853 1138.04,686.22 1140.8,686.584 1143.55,686.945 1146.3,687.302 1149.06,687.657 1151.81,688.009 1154.57,688.357 1157.32,688.702 1160.08,689.045 1162.83,689.384 1165.59,689.72 1168.34,690.053 1171.09,690.384 1173.85,690.711 1176.6,691.035 1179.36,691.357 1182.11,691.676 1184.87,691.991 1187.62,692.304 1190.38,692.614 1193.13,692.922 1195.88,693.226 1198.64,693.528 1201.39,693.827 1204.15,694.123 1206.9,694.417 1209.66,694.708 1212.41,694.996 1215.17,695.282 1217.92,695.565 1220.67,695.845 1223.43,696.123 1226.18,696.398 1228.94,696.671 1231.69,696.941 1234.45,697.208 1237.2,697.473 1239.96,697.736 1242.71,697.996 1245.46,698.254 1248.22,698.509 1250.97,698.762 1253.73,699.012 1256.48,699.26 1259.24,699.506 1261.99,699.749 1264.75,699.99 1267.5,700.229 1270.25,700.465 1273.01,700.699 1275.76,700.931 1278.52,701.16 1281.27,701.388 1284.03,701.613 1286.78,701.836 1289.54,702.057 1292.29,702.275 1295.04,702.492 1297.8,702.706 1300.55,702.918 1303.31,703.129 1306.06,703.337 1308.82,703.543 1311.57,703.747 1314.33,703.948 1317.08,704.148 1319.83,704.346 1322.59,704.542 1325.34,704.736 1328.1,704.928 1330.85,705.118 1333.61,705.306 1336.36,705.493 1339.12,705.677 1341.87,705.859 1344.62,706.04 1347.38,706.219 1350.13,706.396 1352.89,706.571 1355.64,706.744 1358.4,706.916 1361.15,707.085 1363.91,707.253 1366.66,707.42 1369.41,707.584 1372.17,707.747 1374.92,707.908 1377.68,708.067 1380.43,708.225 1383.19,708.381 1385.94,708.535 1388.7,708.688 1391.45,708.839 1394.21,708.989 1396.96,709.137 1399.71,709.283 1402.47,709.428 1405.22,709.571 1407.98,709.713 1410.73,709.853 1413.49,709.992 1416.24,710.129 1419,710.264 1421.75,710.399 1424.5,710.531 1427.26,710.663 1430.01,710.792 1432.77,710.921 1435.52,711.048 1438.28,711.173 1441.03,711.297 1443.79,711.42 1446.54,711.542 1449.29,711.662 1452.05,711.781 1454.8,711.898 1457.56,712.014 1460.31,712.129 1463.07,712.242 1465.82,712.354 1468.58,712.465 1471.33,712.575 1474.08,712.683 1476.84,712.791 1479.59,712.896 1482.35,713.001 1485.1,713.105 1487.86,713.207 1490.61,713.308 1493.37,713.408 1496.12,713.507 1498.87,713.604 1501.63,713.701 1504.38,713.796 1507.14,713.89 1509.89,713.983 1512.65,714.075 1515.4,714.166 1518.16,714.256 1520.91,714.345 1523.66,714.432 1526.42,714.519 1529.17,714.605 1531.93,714.689 1534.68,714.773 1537.44,714.855 1540.19,714.937 1542.95,715.017 1545.7,715.097 1548.45,715.176 1551.21,715.253 1553.96,715.33 1556.72,715.406 1559.47,715.48 1562.23,715.554 1564.98,715.627 1567.74,715.699 1570.49,715.77 1573.24,715.841 1576,715.91 1578.75,715.978 1581.51,716.046 1584.26,716.113 1587.02,716.179 1589.77,716.244 1592.53,716.308 1595.28,716.371 1598.03,716.434 1600.79,716.496 1603.54,716.557 1606.3,716.617 1609.05,716.676 1611.81,716.735 1614.56,716.793 1617.32,716.85 1620.07,716.906 1622.82,716.962 1625.58,717.016 1628.33,717.071 1631.09,717.124 1633.84,717.177 1636.6,717.229 1639.35,717.28 1642.11,717.33 1644.86,717.38 1647.62,717.429 1650.37,717.478 1653.12,717.526 1655.88,717.573 1658.63,717.619 1661.39,717.665 1664.14,717.711 1666.9,717.755 1669.65,717.799 1672.41,717.843 1675.16,717.885 1677.91,717.928 1680.67,717.969 1683.42,718.01 1686.18,718.051 1688.93,718.09 1691.69,718.13 1694.44,718.168 1697.2,718.206 1699.95,718.244 1702.7,718.281 1705.46,718.318 1708.21,718.354 1710.97,718.389 1713.72,718.424 1716.48,718.458 1719.23,718.492 1721.99,718.526 1724.74,718.559 1727.49,718.591 1730.25,718.623 1733,718.654 1735.76,718.685 1738.51,718.716 1741.27,718.746 1744.02,718.776 1746.78,718.805 1749.53,718.833 1752.28,718.862 1755.04,718.889 1757.79,718.917 1760.55,718.944 1763.3,718.97 1766.06,718.997 1768.81,719.022 1771.57,719.048 1774.32,719.073 1777.07,719.097 1779.83,719.121 1782.58,719.145 1785.34,719.168 1788.09,719.191 1790.85,719.214 1793.6,719.236 1796.36,719.258 1799.11,719.28 1801.86,719.301 1804.62,719.322 1807.37,719.342 1810.13,719.363 1812.88,719.383 1815.64,719.402 1818.39,719.421 1821.15,719.44 1823.9,719.459 1826.65,719.477 1829.41,719.495 1832.16,719.513 1834.92,719.53 1837.67,719.547 1840.43,719.564 1843.18,719.58 1845.94,719.597 1848.69,719.612 1851.44,719.628 1854.2,719.643 1856.95,719.659 1859.71,719.673 1862.46,719.688 1865.22,719.702 1867.97,719.716 1870.73,719.73 1873.48,719.744 1876.23,719.757 1878.99,719.77 1881.74,719.783 1884.5,719.795 1887.25,719.808 1890.01,719.82 1892.76,719.832 1895.52,719.843 1898.27,719.855 1901.03,719.866 1903.78,719.877 1906.53,719.888 1909.29,719.899 1912.04,719.909 1914.8,719.919 1917.55,719.929 1920.31,719.939 1923.06,719.948 1925.82,719.958 1928.57,719.967 1931.32,719.976 1934.08,719.985 1936.83,719.994 1939.59,720.002 1942.34,720.011 1945.1,720.019 1947.85,720.027 1950.61,720.035 1953.36,720.042 1956.11,720.05 1958.87,720.057 1961.62,720.065 1964.38,720.072 1967.13,720.079 1969.89,720.085 1972.64,720.092 1975.4,720.098 1978.15,720.105 1980.9,720.111 1983.66,720.117 1986.41,720.123 1989.17,720.129 1991.92,720.135 1994.68,720.14 1997.43,720.146 2000.19,720.151 2002.94,720.156 2005.69,720.161 2008.45,720.166 2011.2,720.171 2013.96,720.176 2016.71,720.18 2019.47,720.185 2022.22,720.189 2024.98,720.193 2027.73,720.198 2030.48,720.202 2033.24,720.206 2035.99,720.209 2038.75,720.213 2041.5,720.217 2044.26,720.22 2047.01,720.224 2049.77,720.227 2052.52,720.231 2055.27,720.234 2058.03,720.237 2060.78,720.24 2063.54,720.243 2066.29,720.246 2069.05,720.249 2071.8,720.252 2074.56,720.254 2077.31,720.257 2080.06,720.259 2082.82,720.262 2085.57,720.264 2088.33,720.266 2091.08,720.269 2093.84,720.271 2096.59,720.273 2099.35,720.275 2102.1,720.277 2104.85,720.279 2107.61,720.281 2110.36,720.283 2113.12,720.284 2115.87,720.286 2118.63,720.288 2121.38,720.289 2124.14,720.291 2126.89,720.292 2129.64,720.294 2132.4,720.295 2135.15,720.296 2137.91,720.298 2140.66,720.299 2143.42,720.3 2146.17,720.301 2148.93,720.303 2151.68,720.304 2154.44,720.305 2157.19,720.306 2159.94,720.307 2162.7,720.308 2165.45,720.309 2168.21,720.309 2170.96,720.31 2173.72,720.311 2176.47,720.312 2179.23,720.313 2181.98,720.313 2184.73,720.314 2187.49,720.315 2190.24,720.315 2193,720.316 2195.75,720.317 2198.51,720.317 2201.26,720.318 2204.02,720.318 2206.77,720.319 2209.52,720.319 2212.28,720.32 2215.03,720.32 2217.79,720.321 2220.54,720.321 2223.3,720.322 2226.05,720.322 2228.81,720.322 2231.56,720.323 2234.31,720.323 2237.07,720.323 2239.82,720.324 2242.58,720.324 2245.33,720.324 2248.09,720.324 2250.84,720.325 2253.6,720.325 2256.35,720.325 2259.1,720.325 2261.86,720.326 2264.61,720.326 2267.37,720.326 2270.12,720.326 2272.88,720.326 2275.63,720.327 2278.39,720.327 2281.14,720.327 2283.89,720.327 2286.65,720.327 2289.4,720.327 2292.16,720.328 2294.91,720.328 2297.67,720.328 2300.42,720.328 2303.18,720.328 2305.93,720.328 2308.68,720.328 2311.44,720.328 2314.19,720.328 2316.95,720.328 2319.7,720.329 2322.46,720.329 2325.21,720.329 2327.97,720.329 2330.72,720.329 2333.47,720.329 2336.23,720.329 2338.98,720.329 2341.74,720.329 2344.49,720.329 2347.25,720.329 2350,720.329 2352.76,720.329 "/>
<polyline clip-path="url(#clip232)" style="stroke:#3da44d; stroke-linecap:round; stroke-linejoin:round; stroke-width:12; stroke-opacity:1; fill:none" points="149.191,-17.9288 151.945,97.7193 154.7,204.747 157.454,301.239 160.209,386.786 162.963,461.95 165.718,527.716 168.472,585.127 171.227,635.12 173.981,678.491 176.735,715.937 179.49,748.098 182.244,775.584 184.999,798.978 187.753,818.832 190.508,835.654 193.262,849.894 196.017,861.944 198.771,872.14 201.526,880.762 204.28,888.043 207.034,894.176 209.789,899.323 212.543,903.615 215.298,907.164 218.052,910.063 220.807,912.391 223.561,914.218 226.316,915.603 229.07,916.597 231.825,917.248 234.579,917.595 237.333,917.677 240.088,917.526 242.842,917.174 245.597,916.648 248.351,915.972 251.106,915.17 253.86,914.263 256.615,913.269 259.369,912.206 262.124,911.089 264.878,909.931 267.632,908.745 270.387,907.541 273.141,906.329 275.896,905.118 278.65,903.913 281.405,902.722 284.159,901.549 286.914,900.399 289.668,899.274 292.423,898.178 295.177,897.113 297.932,896.08 300.686,895.08 303.44,894.115 306.195,893.183 308.949,892.286 311.704,891.423 314.458,890.593 317.213,889.796 319.967,889.032 322.722,888.298 325.476,887.595 328.231,886.92 330.985,886.274 333.739,885.654 336.494,885.061 339.248,884.492 342.003,883.946 344.757,883.422 347.512,882.92 350.266,882.437 353.021,881.974 355.775,881.528 358.53,881.1 361.284,880.687 364.038,880.29 366.793,879.906 369.547,879.536 372.302,879.179 375.056,878.833 377.811,878.498 380.565,878.173 383.32,877.858 386.074,877.552 388.829,877.255 391.583,876.965 394.337,876.682 397.092,876.406 399.846,876.136 402.601,875.872 405.355,875.614 408.11,875.36 410.864,875.111 413.619,874.866 416.373,874.625 419.128,874.388 421.882,874.153 424.636,873.922 427.391,873.694 430.145,873.468 432.9,873.244 435.654,873.022 438.409,872.802 441.163,872.584 443.918,872.367 446.672,872.151 449.427,871.937 452.181,871.723 454.936,871.511 457.69,871.299 460.444,871.087 463.199,870.877 465.953,870.666 468.708,870.456 471.462,870.246 474.217,870.036 476.971,869.827 479.726,869.617 482.48,869.407 485.235,869.197 487.989,868.987 490.743,868.777 493.498,868.567 496.252,868.356 499.007,868.145 501.761,867.933 504.516,867.721 507.27,867.509 510.025,867.296 512.779,867.082 515.534,866.869 518.288,866.654 521.042,866.439 523.797,866.224 526.551,866.008 529.306,865.792 532.06,865.574 534.815,865.357 537.569,865.138 540.324,864.92 543.078,864.7 545.833,864.48 548.587,864.26 551.341,864.038 554.096,863.817 556.85,863.594 559.605,863.371 562.359,863.148 565.114,862.924 567.868,862.699 570.623,862.474 573.377,862.248 576.132,862.022 578.886,861.795 581.641,861.568 584.395,861.34 587.149,861.111 589.904,860.883 592.658,860.653 595.413,860.423 598.167,860.193 600.922,859.962 603.676,859.731 606.431,859.499 609.185,859.267 611.94,859.034 614.694,858.802 617.448,858.568 620.203,858.334 622.957,858.1 625.712,857.866 628.466,857.631 631.221,857.395 633.975,857.16 636.73,856.924 639.484,856.688 642.239,856.451 644.993,856.214 647.747,855.977 650.502,855.739 653.256,855.501 656.011,855.263 658.765,855.025 661.52,854.786 664.274,854.548 667.029,854.308 669.783,854.069 672.538,853.83 675.292,853.59 678.046,853.35 680.801,853.11 683.555,852.869 686.31,852.629 689.064,852.388 691.819,852.147 694.573,851.906 697.328,851.665 700.082,851.423 702.837,851.182 705.591,850.94 708.345,850.699 711.1,850.457 713.854,850.215 716.609,849.972 719.363,849.73 722.118,849.488 724.872,849.246 727.627,849.003 730.381,848.76 733.136,848.518 735.89,848.275 738.645,848.032 741.399,847.789 744.153,847.547 746.908,847.304 749.662,847.061 752.417,846.818 755.171,846.574 757.926,846.331 760.68,846.088 763.435,845.845 766.189,845.602 768.944,845.359 771.698,845.115 774.452,844.872 777.207,844.629 779.961,844.386 782.716,844.143 785.47,843.899 788.225,843.656 790.979,843.413 793.734,843.17 796.488,842.927 799.243,842.684 801.997,842.441 804.751,842.198 807.506,841.955 810.26,841.712 813.015,841.469 815.769,841.226 818.524,840.983 821.278,840.74 824.033,840.497 826.787,840.255 829.542,840.012 832.296,839.769 835.05,839.527 837.805,839.284 840.559,839.042 843.314,838.799 846.068,838.557 848.823,838.315 851.577,838.073 854.332,837.831 857.086,837.589 859.841,837.347 862.595,837.105 865.349,836.863 868.104,836.622 870.858,836.38 873.613,836.138 876.367,835.897 879.122,835.656 881.876,835.414 884.631,835.173 887.385,834.932 890.14,834.691 892.894,834.451 895.649,834.21 898.403,833.969 901.157,833.729 903.912,833.488 906.666,833.248 909.421,833.008 912.175,832.767 914.93,832.527 917.684,832.288 920.439,832.048 923.193,831.808 925.948,831.568 928.702,831.329 931.456,831.09 934.211,830.851 936.965,830.611 939.72,830.372 942.474,830.134 945.229,829.895 947.983,829.656 950.738,829.418 953.492,829.179 956.247,828.941 959.001,828.703 961.755,828.465 964.51,828.227 967.264,827.99 970.019,827.752 972.773,827.514 975.528,827.277 978.282,827.04 981.037,826.803 983.791,826.566 986.546,826.329 989.3,826.093 992.054,825.856 994.809,825.62 997.563,825.384 1000.32,825.148 1003.07,824.912 1005.83,824.676 1008.58,824.44 1011.34,824.205 1014.09,823.969 1016.84,823.734 1019.6,823.499 1022.35,823.264 1025.11,823.029 1027.86,822.795 1030.62,822.56 1033.37,822.326 1036.13,822.092 1038.88,821.858 1041.63,821.624 1044.39,821.391 1047.14,821.157 1049.9,820.924 1052.65,820.69 1055.41,820.457 1058.16,820.225 1060.92,819.992 1063.67,819.759 1066.42,819.527 1069.18,819.295 1071.93,819.063 1074.69,818.831 1077.44,818.599 1080.2,818.368 1082.95,818.136 1085.71,817.905 1088.46,817.674 1091.21,817.443 1093.97,817.212 1096.72,816.982 1099.48,816.751 1102.23,816.521 1104.99,816.291 1107.74,816.061 1110.5,815.832 1113.25,815.602 1116.01,815.373 1118.76,815.144 1121.51,814.915 1124.27,814.686 1127.02,814.457 1129.78,814.229 1132.53,814.001 1135.29,813.773 1138.04,813.545 1140.8,813.317 1143.55,813.09 1146.3,812.862 1149.06,812.635 1151.81,812.408 1154.57,812.182 1157.32,811.955 1160.08,811.729 1162.83,811.503 1165.59,811.276 1168.34,811.051 1171.09,810.825 1173.85,810.6 1176.6,810.374 1179.36,810.149 1182.11,809.925 1184.87,809.7 1187.62,809.476 1190.38,809.251 1193.13,809.027 1195.88,808.804 1198.64,808.58 1201.39,808.356 1204.15,808.133 1206.9,807.91 1209.66,807.687 1212.41,807.465 1215.17,807.242 1217.92,807.02 1220.67,806.798 1223.43,806.576 1226.18,806.355 1228.94,806.133 1231.69,805.912 1234.45,805.691 1237.2,805.47 1239.96,805.25 1242.71,805.029 1245.46,804.809 1248.22,804.589 1250.97,804.37 1253.73,804.15 1256.48,803.931 1259.24,803.712 1261.99,803.493 1264.75,803.274 1267.5,803.056 1270.25,802.838 1273.01,802.62 1275.76,802.402 1278.52,802.184 1281.27,801.967 1284.03,801.75 1286.78,801.533 1289.54,801.316 1292.29,801.1 1295.04,800.884 1297.8,800.668 1300.55,800.452 1303.31,800.237 1306.06,800.021 1308.82,799.806 1311.57,799.591 1314.33,799.377 1317.08,799.162 1319.83,798.948 1322.59,798.734 1325.34,798.521 1328.1,798.307 1330.85,798.094 1333.61,797.881 1336.36,797.668 1339.12,797.456 1341.87,797.243 1344.62,797.031 1347.38,796.819 1350.13,796.608 1352.89,796.396 1355.64,796.185 1358.4,795.975 1361.15,795.764 1363.91,795.554 1366.66,795.343 1369.41,795.133 1372.17,794.924 1374.92,794.714 1377.68,794.505 1380.43,794.296 1383.19,794.088 1385.94,793.879 1388.7,793.671 1391.45,793.463 1394.21,793.255 1396.96,793.048 1399.71,792.841 1402.47,792.633 1405.22,792.427 1407.98,792.22 1410.73,792.014 1413.49,791.808 1416.24,791.602 1419,791.397 1421.75,791.192 1424.5,790.987 1427.26,790.782 1430.01,790.578 1432.77,790.373 1435.52,790.169 1438.28,789.966 1441.03,789.762 1443.79,789.559 1446.54,789.356 1449.29,789.153 1452.05,788.951 1454.8,788.749 1457.56,788.547 1460.31,788.345 1463.07,788.144 1465.82,787.943 1468.58,787.742 1471.33,787.541 1474.08,787.341 1476.84,787.141 1479.59,786.941 1482.35,786.741 1485.1,786.542 1487.86,786.343 1490.61,786.144 1493.37,785.946 1496.12,785.747 1498.87,785.549 1501.63,785.352 1504.38,785.154 1507.14,784.957 1509.89,784.76 1512.65,784.563 1515.4,784.367 1518.16,784.171 1520.91,783.975 1523.66,783.779 1526.42,783.584 1529.17,783.389 1531.93,783.194 1534.68,783 1537.44,782.805 1540.19,782.612 1542.95,782.418 1545.7,782.224 1548.45,782.031 1551.21,781.838 1553.96,781.646 1556.72,781.453 1559.47,781.261 1562.23,781.07 1564.98,780.878 1567.74,780.687 1570.49,780.496 1573.24,780.305 1576,780.115 1578.75,779.925 1581.51,779.735 1584.26,779.545 1587.02,779.356 1589.77,779.167 1592.53,778.978 1595.28,778.79 1598.03,778.602 1600.79,778.414 1603.54,778.226 1606.3,778.039 1609.05,777.852 1611.81,777.665 1614.56,777.478 1617.32,777.292 1620.07,777.106 1622.82,776.92 1625.58,776.735 1628.33,776.55 1631.09,776.365 1633.84,776.18 1636.6,775.996 1639.35,775.812 1642.11,775.629 1644.86,775.445 1647.62,775.262 1650.37,775.079 1653.12,774.897 1655.88,774.714 1658.63,774.532 1661.39,774.351 1664.14,774.169 1666.9,773.988 1669.65,773.807 1672.41,773.627 1675.16,773.446 1677.91,773.266 1680.67,773.087 1683.42,772.907 1686.18,772.728 1688.93,772.549 1691.69,772.371 1694.44,772.192 1697.2,772.014 1699.95,771.837 1702.7,771.659 1705.46,771.482 1708.21,771.305 1710.97,771.129 1713.72,770.952 1716.48,770.776 1719.23,770.601 1721.99,770.425 1724.74,770.25 1727.49,770.075 1730.25,769.901 1733,769.727 1735.76,769.553 1738.51,769.379 1741.27,769.206 1744.02,769.032 1746.78,768.86 1749.53,768.687 1752.28,768.515 1755.04,768.343 1757.79,768.171 1760.55,768 1763.3,767.829 1766.06,767.658 1768.81,767.488 1771.57,767.317 1774.32,767.147 1777.07,766.978 1779.83,766.809 1782.58,766.64 1785.34,766.471 1788.09,766.302 1790.85,766.134 1793.6,765.966 1796.36,765.799 1799.11,765.631 1801.86,765.464 1804.62,765.298 1807.37,765.131 1810.13,764.965 1812.88,764.799 1815.64,764.634 1818.39,764.469 1821.15,764.304 1823.9,764.139 1826.65,763.975 1829.41,763.81 1832.16,763.647 1834.92,763.483 1837.67,763.32 1840.43,763.157 1843.18,762.994 1845.94,762.832 1848.69,762.67 1851.44,762.508 1854.2,762.347 1856.95,762.186 1859.71,762.025 1862.46,761.864 1865.22,761.704 1867.97,761.544 1870.73,761.384 1873.48,761.225 1876.23,761.066 1878.99,760.907 1881.74,760.748 1884.5,760.59 1887.25,760.432 1890.01,760.274 1892.76,760.117 1895.52,759.96 1898.27,759.803 1901.03,759.647 1903.78,759.49 1906.53,759.334 1909.29,759.179 1912.04,759.023 1914.8,758.868 1917.55,758.714 1920.31,758.559 1923.06,758.405 1925.82,758.251 1928.57,758.097 1931.32,757.944 1934.08,757.791 1936.83,757.638 1939.59,757.486 1942.34,757.334 1945.1,757.182 1947.85,757.03 1950.61,756.879 1953.36,756.728 1956.11,756.577 1958.87,756.427 1961.62,756.277 1964.38,756.127 1967.13,755.977 1969.89,755.828 1972.64,755.679 1975.4,755.53 1978.15,755.382 1980.9,755.234 1983.66,755.086 1986.41,754.938 1989.17,754.791 1991.92,754.644 1994.68,754.497 1997.43,754.351 2000.19,754.205 2002.94,754.059 2005.69,753.913 2008.45,753.768 2011.2,753.623 2013.96,753.478 2016.71,753.334 2019.47,753.19 2022.22,753.046 2024.98,752.902 2027.73,752.759 2030.48,752.616 2033.24,752.474 2035.99,752.331 2038.75,752.189 2041.5,752.047 2044.26,751.906 2047.01,751.764 2049.77,751.623 2052.52,751.483 2055.27,751.342 2058.03,751.202 2060.78,751.062 2063.54,750.922 2066.29,750.783 2069.05,750.644 2071.8,750.505 2074.56,750.367 2077.31,750.229 2080.06,750.091 2082.82,749.953 2085.57,749.816 2088.33,749.679 2091.08,749.542 2093.84,749.406 2096.59,749.269 2099.35,749.133 2102.1,748.998 2104.85,748.862 2107.61,748.727 2110.36,748.592 2113.12,748.458 2115.87,748.323 2118.63,748.19 2121.38,748.056 2124.14,747.922 2126.89,747.789 2129.64,747.656 2132.4,747.524 2135.15,747.391 2137.91,747.259 2140.66,747.127 2143.42,746.996 2146.17,746.865 2148.93,746.734 2151.68,746.603 2154.44,746.472 2157.19,746.342 2159.94,746.212 2162.7,746.083 2165.45,745.953 2168.21,745.824 2170.96,745.696 2173.72,745.567 2176.47,745.439 2179.23,745.311 2181.98,745.183 2184.73,745.056 2187.49,744.928 2190.24,744.802 2193,744.675 2195.75,744.549 2198.51,744.423 2201.26,744.297 2204.02,744.171 2206.77,744.046 2209.52,743.921 2212.28,743.796 2215.03,743.672 2217.79,743.547 2220.54,743.423 2223.3,743.3 2226.05,743.176 2228.81,743.053 2231.56,742.93 2234.31,742.808 2237.07,742.685 2239.82,742.563 2242.58,742.441 2245.33,742.32 2248.09,742.198 2250.84,742.077 2253.6,741.956 2256.35,741.836 2259.1,741.716 2261.86,741.596 2264.61,741.476 2267.37,741.356 2270.12,741.237 2272.88,741.118 2275.63,741 2278.39,740.881 2281.14,740.763 2283.89,740.645 2286.65,740.527 2289.4,740.41 2292.16,740.293 2294.91,740.176 2297.67,740.059 2300.42,739.943 2303.18,739.827 2305.93,739.711 2308.68,739.595 2311.44,739.48 2314.19,739.365 2316.95,739.25 2319.7,739.135 2322.46,739.021 2325.21,738.907 2327.97,738.793 2330.72,738.679 2333.47,738.566 2336.23,738.453 2338.98,738.34 2341.74,738.227 2344.49,738.115 2347.25,738.003 2350,737.891 2352.76,737.779 "/>
<path clip-path="url(#clip230)" d="M1969.85 1377.32 L2279.3 1377.32 L2279.3 1169.96 L1969.85 1169.96  Z" fill="#ffffff" fill-rule="evenodd" fill-opacity="1"/>
<polyline clip-path="url(#clip230)" style="stroke:#000000; stroke-linecap:round; stroke-linejoin:round; stroke-width:4; stroke-opacity:1; fill:none" points="1969.85,1377.32 2279.3,1377.32 2279.3,1169.96 1969.85,1169.96 1969.85,1377.32 "/>
<polyline clip-path="url(#clip230)" style="stroke:#009af9; stroke-linecap:round; stroke-linejoin:round; stroke-width:12; stroke-opacity:1; fill:none" points="1994.33,1221.8 2141.24,1221.8 "/>
<path clip-path="url(#clip230)" d="M2165.72 1228.84 L2165.72 1213.15 L2169.98 1213.15 L2169.98 1228.68 Q2169.98 1232.36 2171.42 1234.21 Q2172.85 1236.04 2175.72 1236.04 Q2179.17 1236.04 2181.16 1233.84 Q2183.18 1231.64 2183.18 1227.85 L2183.18 1213.15 L2187.44 1213.15 L2187.44 1239.08 L2183.18 1239.08 L2183.18 1235.09 Q2181.63 1237.45 2179.57 1238.61 Q2177.53 1239.75 2174.82 1239.75 Q2170.35 1239.75 2168.04 1236.97 Q2165.72 1234.19 2165.72 1228.84 M2176.44 1212.52 L2176.44 1212.52 Z" fill="#000000" fill-rule="nonzero" fill-opacity="1" /><path clip-path="url(#clip230)" d="M2195.82 1203.06 L2205.63 1203.06 L2205.63 1206.37 L2200.07 1206.37 L2200.07 1242.02 L2205.63 1242.02 L2205.63 1245.33 L2195.82 1245.33 L2195.82 1203.06 Z" fill="#000000" fill-rule="nonzero" fill-opacity="1" /><path clip-path="url(#clip230)" d="M2216.12 1235.14 L2223.76 1235.14 L2223.76 1208.77 L2215.44 1210.44 L2215.44 1206.18 L2223.71 1204.52 L2228.38 1204.52 L2228.38 1235.14 L2236.02 1235.14 L2236.02 1239.08 L2216.12 1239.08 L2216.12 1235.14 Z" fill="#000000" fill-rule="nonzero" fill-opacity="1" /><path clip-path="url(#clip230)" d="M2254.82 1203.06 L2254.82 1245.33 L2245 1245.33 L2245 1242.02 L2250.54 1242.02 L2250.54 1206.37 L2245 1206.37 L2245 1203.06 L2254.82 1203.06 Z" fill="#000000" fill-rule="nonzero" fill-opacity="1" /><polyline clip-path="url(#clip230)" style="stroke:#e26f46; stroke-linecap:round; stroke-linejoin:round; stroke-width:12; stroke-opacity:1; fill:none" points="1994.33,1273.64 2141.24,1273.64 "/>
<path clip-path="url(#clip230)" d="M2165.72 1280.68 L2165.72 1264.99 L2169.98 1264.99 L2169.98 1280.52 Q2169.98 1284.2 2171.42 1286.05 Q2172.85 1287.88 2175.72 1287.88 Q2179.17 1287.88 2181.16 1285.68 Q2183.18 1283.48 2183.18 1279.69 L2183.18 1264.99 L2187.44 1264.99 L2187.44 1290.92 L2183.18 1290.92 L2183.18 1286.93 Q2181.63 1289.29 2179.57 1290.45 Q2177.53 1291.59 2174.82 1291.59 Q2170.35 1291.59 2168.04 1288.81 Q2165.72 1286.03 2165.72 1280.68 M2176.44 1264.36 L2176.44 1264.36 Z" fill="#000000" fill-rule="nonzero" fill-opacity="1" /><path clip-path="url(#clip230)" d="M2195.82 1254.9 L2205.63 1254.9 L2205.63 1258.21 L2200.07 1258.21 L2200.07 1293.86 L2205.63 1293.86 L2205.63 1297.17 L2195.82 1297.17 L2195.82 1254.9 Z" fill="#000000" fill-rule="nonzero" fill-opacity="1" /><path clip-path="url(#clip230)" d="M2219.33 1286.98 L2235.65 1286.98 L2235.65 1290.92 L2213.71 1290.92 L2213.71 1286.98 Q2216.37 1284.23 2220.95 1279.6 Q2225.56 1274.94 2226.74 1273.6 Q2228.99 1271.08 2229.87 1269.34 Q2230.77 1267.58 2230.77 1265.89 Q2230.77 1263.14 2228.82 1261.4 Q2226.9 1259.67 2223.8 1259.67 Q2221.6 1259.67 2219.15 1260.43 Q2216.72 1261.19 2213.94 1262.74 L2213.94 1258.02 Q2216.76 1256.89 2219.22 1256.31 Q2221.67 1255.73 2223.71 1255.73 Q2229.08 1255.73 2232.27 1258.42 Q2235.47 1261.1 2235.47 1265.59 Q2235.47 1267.72 2234.66 1269.64 Q2233.87 1271.54 2231.76 1274.13 Q2231.19 1274.8 2228.08 1278.02 Q2224.98 1281.22 2219.33 1286.98 Z" fill="#000000" fill-rule="nonzero" fill-opacity="1" /><path clip-path="url(#clip230)" d="M2254.82 1254.9 L2254.82 1297.17 L2245 1297.17 L2245 1293.86 L2250.54 1293.86 L2250.54 1258.21 L2245 1258.21 L2245 1254.9 L2254.82 1254.9 Z" fill="#000000" fill-rule="nonzero" fill-opacity="1" /><polyline clip-path="url(#clip230)" style="stroke:#3da44d; stroke-linecap:round; stroke-linejoin:round; stroke-width:12; stroke-opacity:1; fill:none" points="1994.33,1325.48 2141.24,1325.48 "/>
<path clip-path="url(#clip230)" d="M2165.72 1332.52 L2165.72 1316.83 L2169.98 1316.83 L2169.98 1332.36 Q2169.98 1336.04 2171.42 1337.89 Q2172.85 1339.72 2175.72 1339.72 Q2179.17 1339.72 2181.16 1337.52 Q2183.18 1335.32 2183.18 1331.53 L2183.18 1316.83 L2187.44 1316.83 L2187.44 1342.76 L2183.18 1342.76 L2183.18 1338.77 Q2181.63 1341.13 2179.57 1342.29 Q2177.53 1343.43 2174.82 1343.43 Q2170.35 1343.43 2168.04 1340.65 Q2165.72 1337.87 2165.72 1332.52 M2176.44 1316.2 L2176.44 1316.2 Z" fill="#000000" fill-rule="nonzero" fill-opacity="1" /><path clip-path="url(#clip230)" d="M2206.44 1306.78 Q2203.34 1312.11 2201.83 1317.32 Q2200.33 1322.52 2200.33 1327.87 Q2200.33 1333.22 2201.83 1338.47 Q2203.36 1343.7 2206.44 1349.01 L2202.74 1349.01 Q2199.26 1343.57 2197.53 1338.31 Q2195.82 1333.06 2195.82 1327.87 Q2195.82 1322.71 2197.53 1317.48 Q2199.24 1312.25 2202.74 1306.78 L2206.44 1306.78 Z" fill="#000000" fill-rule="nonzero" fill-opacity="1" /><path clip-path="url(#clip230)" d="M2218.92 1309.47 L2218.92 1316.83 L2227.69 1316.83 L2227.69 1320.14 L2218.92 1320.14 L2218.92 1334.21 Q2218.92 1337.38 2219.77 1338.29 Q2220.65 1339.19 2223.32 1339.19 L2227.69 1339.19 L2227.69 1342.76 L2223.32 1342.76 Q2218.38 1342.76 2216.51 1340.93 Q2214.63 1339.07 2214.63 1334.21 L2214.63 1320.14 L2211.51 1320.14 L2211.51 1316.83 L2214.63 1316.83 L2214.63 1309.47 L2218.92 1309.47 Z" fill="#000000" fill-rule="nonzero" fill-opacity="1" /><path clip-path="url(#clip230)" d="M2232.62 1306.78 L2236.32 1306.78 Q2239.8 1312.25 2241.51 1317.48 Q2243.25 1322.71 2243.25 1327.87 Q2243.25 1333.06 2241.51 1338.31 Q2239.8 1343.57 2236.32 1349.01 L2232.62 1349.01 Q2235.7 1343.7 2237.2 1338.47 Q2238.73 1333.22 2238.73 1327.87 Q2238.73 1322.52 2237.2 1317.32 Q2235.7 1312.11 2232.62 1306.78 Z" fill="#000000" fill-rule="nonzero" fill-opacity="1" /></svg>
