<?xml version="1.0" encoding="utf-8"?>
<svg xmlns="http://www.w3.org/2000/svg" xmlns:xlink="http://www.w3.org/1999/xlink" width="600" height="400" viewBox="0 0 2400 1600">
<defs>
  <clipPath id="clip870">
    <rect x="0" y="0" width="2400" height="1600"/>
  </clipPath>
</defs>
<path clip-path="url(#clip870)" d="M0 1600 L2400 1600 L2400 0 L0 0  Z" fill="#ffffff" fill-rule="evenodd" fill-opacity="1"/>
<defs>
  <clipPath id="clip871">
    <rect x="480" y="0" width="1681" height="1600"/>
  </clipPath>
</defs>
<path clip-path="url(#clip870)" d="M149.191 1423.18 L2352.76 1423.18 L2352.76 47.2441 L149.191 47.2441  Z" fill="#ffffff" fill-rule="evenodd" fill-opacity="1"/>
<defs>
  <clipPath id="clip872">
    <rect x="149" y="47" width="2205" height="1377"/>
  </clipPath>
</defs>
<polyline clip-path="url(#clip872)" style="stroke:#000000; stroke-linecap:round; stroke-linejoin:round; stroke-width:2; stroke-opacity:0.1; fill:none" points="149.191,1423.18 149.191,47.2441 "/>
<polyline clip-path="url(#clip872)" style="stroke:#000000; stroke-linecap:round; stroke-linejoin:round; stroke-width:2; stroke-opacity:0.1; fill:none" points="700.082,1423.18 700.082,47.2441 "/>
<polyline clip-path="url(#clip872)" style="stroke:#000000; stroke-linecap:round; stroke-linejoin:round; stroke-width:2; stroke-opacity:0.1; fill:none" points="1250.97,1423.18 1250.97,47.2441 "/>
<polyline clip-path="url(#clip872)" style="stroke:#000000; stroke-linecap:round; stroke-linejoin:round; stroke-width:2; stroke-opacity:0.1; fill:none" points="1801.86,1423.18 1801.86,47.2441 "/>
<polyline clip-path="url(#clip872)" style="stroke:#000000; stroke-linecap:round; stroke-linejoin:round; stroke-width:2; stroke-opacity:0.1; fill:none" points="2352.76,1423.18 2352.76,47.2441 "/>
<polyline clip-path="url(#clip872)" style="stroke:#000000; stroke-linecap:round; stroke-linejoin:round; stroke-width:2; stroke-opacity:0.1; fill:none" points="149.191,1423.18 2352.76,1423.18 "/>
<polyline clip-path="url(#clip872)" style="stroke:#000000; stroke-linecap:round; stroke-linejoin:round; stroke-width:2; stroke-opacity:0.1; fill:none" points="149.191,1193.86 2352.76,1193.86 "/>
<polyline clip-path="url(#clip872)" style="stroke:#000000; stroke-linecap:round; stroke-linejoin:round; stroke-width:2; stroke-opacity:0.1; fill:none" points="149.191,964.535 2352.76,964.535 "/>
<polyline clip-path="url(#clip872)" style="stroke:#000000; stroke-linecap:round; stroke-linejoin:round; stroke-width:2; stroke-opacity:0.1; fill:none" points="149.191,735.212 2352.76,735.212 "/>
<polyline clip-path="url(#clip872)" style="stroke:#000000; stroke-linecap:round; stroke-linejoin:round; stroke-width:2; stroke-opacity:0.1; fill:none" points="149.191,505.889 2352.76,505.889 "/>
<polyline clip-path="url(#clip872)" style="stroke:#000000; stroke-linecap:round; stroke-linejoin:round; stroke-width:2; stroke-opacity:0.1; fill:none" points="149.191,276.567 2352.76,276.567 "/>
<polyline clip-path="url(#clip872)" style="stroke:#000000; stroke-linecap:round; stroke-linejoin:round; stroke-width:2; stroke-opacity:0.1; fill:none" points="149.191,47.2441 2352.76,47.2441 "/>
<polyline clip-path="url(#clip870)" style="stroke:#000000; stroke-linecap:round; stroke-linejoin:round; stroke-width:4; stroke-opacity:1; fill:none" points="149.191,1423.18 2352.76,1423.18 "/>
<polyline clip-path="url(#clip870)" style="stroke:#000000; stroke-linecap:round; stroke-linejoin:round; stroke-width:4; stroke-opacity:1; fill:none" points="149.191,1423.18 149.191,1404.28 "/>
<polyline clip-path="url(#clip870)" style="stroke:#000000; stroke-linecap:round; stroke-linejoin:round; stroke-width:4; stroke-opacity:1; fill:none" points="700.082,1423.18 700.082,1404.28 "/>
<polyline clip-path="url(#clip870)" style="stroke:#000000; stroke-linecap:round; stroke-linejoin:round; stroke-width:4; stroke-opacity:1; fill:none" points="1250.97,1423.18 1250.97,1404.28 "/>
<polyline clip-path="url(#clip870)" style="stroke:#000000; stroke-linecap:round; stroke-linejoin:round; stroke-width:4; stroke-opacity:1; fill:none" points="1801.86,1423.18 1801.86,1404.28 "/>
<polyline clip-path="url(#clip870)" style="stroke:#000000; stroke-linecap:round; stroke-linejoin:round; stroke-width:4; stroke-opacity:1; fill:none" points="2352.76,1423.18 2352.76,1404.28 "/>
<path clip-path="url(#clip870)" d="M149.191 1454.1 Q145.58 1454.1 143.751 1457.66 Q141.946 1461.2 141.946 1468.33 Q141.946 1475.44 143.751 1479.01 Q145.58 1482.55 149.191 1482.55 Q152.825 1482.55 154.631 1479.01 Q156.459 1475.44 156.459 1468.33 Q156.459 1461.2 154.631 1457.66 Q152.825 1454.1 149.191 1454.1 M149.191 1450.39 Q155.001 1450.39 158.057 1455 Q161.135 1459.58 161.135 1468.33 Q161.135 1477.06 158.057 1481.67 Q155.001 1486.25 149.191 1486.25 Q143.381 1486.25 140.302 1481.67 Q137.246 1477.06 137.246 1468.33 Q137.246 1459.58 140.302 1455 Q143.381 1450.39 149.191 1450.39 Z" fill="#000000" fill-rule="nonzero" fill-opacity="1" /><path clip-path="url(#clip870)" d="M694.735 1481.64 L711.054 1481.64 L711.054 1485.58 L689.11 1485.58 L689.11 1481.64 Q691.772 1478.89 696.355 1474.26 Q700.962 1469.61 702.142 1468.27 Q704.388 1465.74 705.267 1464.01 Q706.17 1462.25 706.17 1460.56 Q706.17 1457.8 704.226 1456.07 Q702.304 1454.33 699.203 1454.33 Q697.003 1454.33 694.55 1455.09 Q692.119 1455.86 689.341 1457.41 L689.341 1452.69 Q692.166 1451.55 694.619 1450.97 Q697.073 1450.39 699.11 1450.39 Q704.48 1450.39 707.675 1453.08 Q710.869 1455.77 710.869 1460.26 Q710.869 1462.39 710.059 1464.31 Q709.272 1466.2 707.165 1468.8 Q706.587 1469.47 703.485 1472.69 Q700.383 1475.88 694.735 1481.64 Z" fill="#000000" fill-rule="nonzero" fill-opacity="1" /><path clip-path="url(#clip870)" d="M1253.98 1455.09 L1242.18 1473.54 L1253.98 1473.54 L1253.98 1455.09 M1252.76 1451.02 L1258.64 1451.02 L1258.64 1473.54 L1263.57 1473.54 L1263.57 1477.43 L1258.64 1477.43 L1258.64 1485.58 L1253.98 1485.58 L1253.98 1477.43 L1238.38 1477.43 L1238.38 1472.92 L1252.76 1451.02 Z" fill="#000000" fill-rule="nonzero" fill-opacity="1" /><path clip-path="url(#clip870)" d="M1802.27 1466.44 Q1799.12 1466.44 1797.27 1468.59 Q1795.44 1470.74 1795.44 1474.49 Q1795.44 1478.22 1797.27 1480.39 Q1799.12 1482.55 1802.27 1482.55 Q1805.42 1482.55 1807.25 1480.39 Q1809.1 1478.22 1809.1 1474.49 Q1809.1 1470.74 1807.25 1468.59 Q1805.42 1466.44 1802.27 1466.44 M1811.55 1451.78 L1811.55 1456.04 Q1809.79 1455.21 1807.99 1454.77 Q1806.2 1454.33 1804.45 1454.33 Q1799.82 1454.33 1797.36 1457.45 Q1794.93 1460.58 1794.58 1466.9 Q1795.95 1464.89 1798.01 1463.82 Q1800.07 1462.73 1802.55 1462.73 Q1807.76 1462.73 1810.77 1465.9 Q1813.8 1469.05 1813.8 1474.49 Q1813.8 1479.82 1810.65 1483.03 Q1807.5 1486.25 1802.27 1486.25 Q1796.27 1486.25 1793.1 1481.67 Q1789.93 1477.06 1789.93 1468.33 Q1789.93 1460.14 1793.82 1455.28 Q1797.71 1450.39 1804.26 1450.39 Q1806.02 1450.39 1807.8 1450.74 Q1809.61 1451.09 1811.55 1451.78 Z" fill="#000000" fill-rule="nonzero" fill-opacity="1" /><path clip-path="url(#clip870)" d="M2352.76 1469.17 Q2349.42 1469.17 2347.5 1470.95 Q2345.6 1472.73 2345.6 1475.86 Q2345.6 1478.98 2347.5 1480.77 Q2349.42 1482.55 2352.76 1482.55 Q2356.09 1482.55 2358.01 1480.77 Q2359.93 1478.96 2359.93 1475.86 Q2359.93 1472.73 2358.01 1470.95 Q2356.11 1469.17 2352.76 1469.17 M2348.08 1467.18 Q2345.07 1466.44 2343.38 1464.38 Q2341.71 1462.32 2341.71 1459.35 Q2341.71 1455.21 2344.65 1452.8 Q2347.62 1450.39 2352.76 1450.39 Q2357.92 1450.39 2360.86 1452.8 Q2363.8 1455.21 2363.8 1459.35 Q2363.8 1462.32 2362.11 1464.38 Q2360.44 1466.44 2357.45 1467.18 Q2360.83 1467.96 2362.71 1470.26 Q2364.61 1472.55 2364.61 1475.86 Q2364.61 1480.88 2361.53 1483.57 Q2358.47 1486.25 2352.76 1486.25 Q2347.04 1486.25 2343.96 1483.57 Q2340.9 1480.88 2340.9 1475.86 Q2340.9 1472.55 2342.8 1470.26 Q2344.7 1467.96 2348.08 1467.18 M2346.37 1459.79 Q2346.37 1462.48 2348.03 1463.98 Q2349.72 1465.49 2352.76 1465.49 Q2355.77 1465.49 2357.45 1463.98 Q2359.17 1462.48 2359.17 1459.79 Q2359.17 1457.11 2357.45 1455.6 Q2355.77 1454.1 2352.76 1454.1 Q2349.72 1454.1 2348.03 1455.6 Q2346.37 1457.11 2346.37 1459.79 Z" fill="#000000" fill-rule="nonzero" fill-opacity="1" /><path clip-path="url(#clip870)" d="M1250.03 1522.27 L1250.03 1532.4 L1262.1 1532.4 L1262.1 1536.95 L1250.03 1536.95 L1250.03 1556.3 Q1250.03 1560.66 1251.21 1561.9 Q1252.42 1563.14 1256.08 1563.14 L1262.1 1563.14 L1262.1 1568.04 L1256.08 1568.04 Q1249.3 1568.04 1246.72 1565.53 Q1244.15 1562.98 1244.15 1556.3 L1244.15 1536.95 L1239.85 1536.95 L1239.85 1532.4 L1244.15 1532.4 L1244.15 1522.27 L1250.03 1522.27 Z" fill="#000000" fill-rule="nonzero" fill-opacity="1" /><polyline clip-path="url(#clip870)" style="stroke:#000000; stroke-linecap:round; stroke-linejoin:round; stroke-width:4; stroke-opacity:1; fill:none" points="149.191,1423.18 149.191,47.2441 "/>
<polyline clip-path="url(#clip870)" style="stroke:#000000; stroke-linecap:round; stroke-linejoin:round; stroke-width:4; stroke-opacity:1; fill:none" points="149.191,1423.18 168.089,1423.18 "/>
<polyline clip-path="url(#clip870)" style="stroke:#000000; stroke-linecap:round; stroke-linejoin:round; stroke-width:4; stroke-opacity:1; fill:none" points="149.191,1193.86 168.089,1193.86 "/>
<polyline clip-path="url(#clip870)" style="stroke:#000000; stroke-linecap:round; stroke-linejoin:round; stroke-width:4; stroke-opacity:1; fill:none" points="149.191,964.535 168.089,964.535 "/>
<polyline clip-path="url(#clip870)" style="stroke:#000000; stroke-linecap:round; stroke-linejoin:round; stroke-width:4; stroke-opacity:1; fill:none" points="149.191,735.212 168.089,735.212 "/>
<polyline clip-path="url(#clip870)" style="stroke:#000000; stroke-linecap:round; stroke-linejoin:round; stroke-width:4; stroke-opacity:1; fill:none" points="149.191,505.889 168.089,505.889 "/>
<polyline clip-path="url(#clip870)" style="stroke:#000000; stroke-linecap:round; stroke-linejoin:round; stroke-width:4; stroke-opacity:1; fill:none" points="149.191,276.567 168.089,276.567 "/>
<polyline clip-path="url(#clip870)" style="stroke:#000000; stroke-linecap:round; stroke-linejoin:round; stroke-width:4; stroke-opacity:1; fill:none" points="149.191,47.2441 168.089,47.2441 "/>
<path clip-path="url(#clip870)" d="M51.3162 1423.63 L80.992 1423.63 L80.992 1427.57 L51.3162 1427.57 L51.3162 1423.63 Z" fill="#000000" fill-rule="nonzero" fill-opacity="1" /><path clip-path="url(#clip870)" d="M101.663 1421.32 Q98.515 1421.32 96.6632 1423.47 Q94.8345 1425.62 94.8345 1429.37 Q94.8345 1433.1 96.6632 1435.27 Q98.515 1437.43 101.663 1437.43 Q104.811 1437.43 106.64 1435.27 Q108.492 1433.1 108.492 1429.37 Q108.492 1425.62 106.64 1423.47 Q104.811 1421.32 101.663 1421.32 M110.946 1406.66 L110.946 1410.92 Q109.186 1410.09 107.381 1409.65 Q105.598 1409.21 103.839 1409.21 Q99.2095 1409.21 96.7558 1412.33 Q94.3252 1415.46 93.978 1421.78 Q95.3437 1419.77 97.4039 1418.7 Q99.4641 1417.61 101.941 1417.61 Q107.149 1417.61 110.158 1420.78 Q113.191 1423.93 113.191 1429.37 Q113.191 1434.7 110.043 1437.91 Q106.895 1441.13 101.663 1441.13 Q95.6678 1441.13 92.4965 1436.55 Q89.3253 1431.94 89.3253 1423.21 Q89.3253 1415.02 93.2141 1410.16 Q97.103 1405.27 103.654 1405.27 Q105.413 1405.27 107.196 1405.62 Q109.001 1405.97 110.946 1406.66 Z" fill="#000000" fill-rule="nonzero" fill-opacity="1" /><path clip-path="url(#clip870)" d="M50.9921 1194.31 L80.6679 1194.31 L80.6679 1198.24 L50.9921 1198.24 L50.9921 1194.31 Z" fill="#000000" fill-rule="nonzero" fill-opacity="1" /><path clip-path="url(#clip870)" d="M103.608 1180.65 L91.8021 1199.1 L103.608 1199.1 L103.608 1180.65 M102.381 1176.58 L108.26 1176.58 L108.26 1199.1 L113.191 1199.1 L113.191 1202.99 L108.26 1202.99 L108.26 1211.14 L103.608 1211.14 L103.608 1202.99 L88.0058 1202.99 L88.0058 1198.48 L102.381 1176.58 Z" fill="#000000" fill-rule="nonzero" fill-opacity="1" /><path clip-path="url(#clip870)" d="M53.0754 964.986 L82.7512 964.986 L82.7512 968.921 L53.0754 968.921 L53.0754 964.986 Z" fill="#000000" fill-rule="nonzero" fill-opacity="1" /><path clip-path="url(#clip870)" d="M96.8715 977.879 L113.191 977.879 L113.191 981.815 L91.2465 981.815 L91.2465 977.879 Q93.9086 975.125 98.4919 970.495 Q103.098 965.842 104.279 964.5 Q106.524 961.977 107.404 960.241 Q108.307 958.481 108.307 956.792 Q108.307 954.037 106.362 952.301 Q104.441 950.565 101.339 950.565 Q99.14 950.565 96.6863 951.329 Q94.2558 952.093 91.478 953.643 L91.478 948.921 Q94.3021 947.787 96.7558 947.208 Q99.2095 946.63 101.246 946.63 Q106.617 946.63 109.811 949.315 Q113.006 952 113.006 956.491 Q113.006 958.62 112.196 960.542 Q111.408 962.44 109.302 965.032 Q108.723 965.704 105.621 968.921 Q102.52 972.116 96.8715 977.879 Z" fill="#000000" fill-rule="nonzero" fill-opacity="1" /><path clip-path="url(#clip870)" d="M101.246 721.011 Q97.6354 721.011 95.8067 724.575 Q94.0012 728.117 94.0012 735.247 Q94.0012 742.353 95.8067 745.918 Q97.6354 749.46 101.246 749.46 Q104.881 749.46 106.686 745.918 Q108.515 742.353 108.515 735.247 Q108.515 728.117 106.686 724.575 Q104.881 721.011 101.246 721.011 M101.246 717.307 Q107.057 717.307 110.112 721.913 Q113.191 726.497 113.191 735.247 Q113.191 743.973 110.112 748.58 Q107.057 753.163 101.246 753.163 Q95.4363 753.163 92.3576 748.58 Q89.3021 743.973 89.3021 735.247 Q89.3021 726.497 92.3576 721.913 Q95.4363 717.307 101.246 717.307 Z" fill="#000000" fill-rule="nonzero" fill-opacity="1" /><path clip-path="url(#clip870)" d="M96.8715 519.234 L113.191 519.234 L113.191 523.169 L91.2465 523.169 L91.2465 519.234 Q93.9086 516.48 98.4919 511.85 Q103.098 507.197 104.279 505.855 Q106.524 503.331 107.404 501.595 Q108.307 499.836 108.307 498.146 Q108.307 495.392 106.362 493.656 Q104.441 491.92 101.339 491.92 Q99.14 491.92 96.6863 492.683 Q94.2558 493.447 91.478 494.998 L91.478 490.276 Q94.3021 489.142 96.7558 488.563 Q99.2095 487.984 101.246 487.984 Q106.617 487.984 109.811 490.67 Q113.006 493.355 113.006 497.845 Q113.006 499.975 112.196 501.896 Q111.408 503.794 109.302 506.387 Q108.723 507.058 105.621 510.276 Q102.52 513.47 96.8715 519.234 Z" fill="#000000" fill-rule="nonzero" fill-opacity="1" /><path clip-path="url(#clip870)" d="M103.608 263.361 L91.8021 281.81 L103.608 281.81 L103.608 263.361 M102.381 259.287 L108.26 259.287 L108.26 281.81 L113.191 281.81 L113.191 285.699 L108.26 285.699 L108.26 293.847 L103.608 293.847 L103.608 285.699 L88.0058 285.699 L88.0058 281.185 L102.381 259.287 Z" fill="#000000" fill-rule="nonzero" fill-opacity="1" /><path clip-path="url(#clip870)" d="M101.663 45.3807 Q98.515 45.3807 96.6632 47.5334 Q94.8345 49.6862 94.8345 53.4362 Q94.8345 57.163 96.6632 59.3389 Q98.515 61.4917 101.663 61.4917 Q104.811 61.4917 106.64 59.3389 Q108.492 57.163 108.492 53.4362 Q108.492 49.6862 106.64 47.5334 Q104.811 45.3807 101.663 45.3807 M110.946 30.728 L110.946 34.9872 Q109.186 34.1539 107.381 33.7141 Q105.598 33.2743 103.839 33.2743 Q99.2095 33.2743 96.7558 36.3992 Q94.3252 39.5242 93.978 45.8436 Q95.3437 43.8298 97.4039 42.765 Q99.4641 41.677 101.941 41.677 Q107.149 41.677 110.158 44.8483 Q113.191 47.9964 113.191 53.4362 Q113.191 58.7602 110.043 61.9778 Q106.895 65.1954 101.663 65.1954 Q95.6678 65.1954 92.4965 60.6121 Q89.3253 56.0056 89.3253 47.2788 Q89.3253 39.0844 93.2141 34.2233 Q97.103 29.3391 103.654 29.3391 Q105.413 29.3391 107.196 29.6863 Q109.001 30.0335 110.946 30.728 Z" fill="#000000" fill-rule="nonzero" fill-opacity="1" /><polyline clip-path="url(#clip872)" style="stroke:#009af9; stroke-linecap:round; stroke-linejoin:round; stroke-width:12; stroke-opacity:1; fill:none" points="149.191,1193.86 151.945,1192.13 154.7,1188.23 157.454,1183.35 160.209,1178.09 162.963,1172.68 165.718,1167.23 168.472,1161.76 171.227,1156.28 173.981,1150.81 176.735,1145.33 179.49,1139.86 182.244,1134.39 184.999,1128.91 187.753,1123.44 190.508,1117.97 193.262,1112.51 196.017,1107.05 198.771,1101.6 201.526,1096.16 204.28,1090.73 207.034,1085.31 209.789,1079.91 212.543,1074.52 215.298,1069.15 218.052,1063.8 220.807,1058.46 223.561,1053.15 226.316,1047.86 229.07,1042.59 231.825,1037.34 234.579,1032.12 237.333,1026.92 240.088,1021.75 242.842,1016.6 245.597,1011.48 248.351,1006.38 251.106,1001.31 253.86,996.269 256.615,991.254 259.369,986.267 262.124,981.308 264.878,976.378 267.632,971.475 270.387,966.602 273.141,961.756 275.896,956.94 278.65,952.153 281.405,947.394 284.159,942.665 286.914,937.964 289.668,933.293 292.423,928.651 295.177,924.037 297.932,919.453 300.686,914.898 303.44,910.371 306.195,905.874 308.949,901.405 311.704,896.966 314.458,892.555 317.213,888.172 319.967,883.819 322.722,879.493 325.476,875.196 328.231,870.928 330.985,866.687 333.739,862.475 336.494,858.29 339.248,854.134 342.003,850.005 344.757,845.903 347.512,841.829 350.266,837.782 353.021,833.762 355.775,829.769 358.53,825.803 361.284,821.864 364.038,817.951 366.793,814.065 369.547,810.205 372.302,806.37 375.056,802.562 377.811,798.78 380.565,795.023 383.32,791.291 386.074,787.585 388.829,783.904 391.583,780.248 394.337,776.616 397.092,773.01 399.846,769.428 402.601,765.87 405.355,762.337 408.11,758.827 410.864,755.342 413.619,751.881 416.373,748.443 419.128,745.028 421.882,741.637 424.636,738.269 427.391,734.924 430.145,731.602 432.9,728.303 435.654,725.027 438.409,721.773 441.163,718.541 443.918,715.331 446.672,712.144 449.427,708.978 452.181,705.834 454.936,702.712 457.69,699.612 460.444,696.533 463.199,693.475 465.953,690.438 468.708,687.422 471.462,684.428 474.217,681.454 476.971,678.5 479.726,675.568 482.48,672.655 485.235,669.763 487.989,666.891 490.743,664.04 493.498,661.208 496.252,658.396 499.007,655.603 501.761,652.831 504.516,650.077 507.27,647.344 510.025,644.629 512.779,641.933 515.534,639.257 518.288,636.599 521.042,633.961 523.797,631.341 526.551,628.739 529.306,626.157 532.06,623.592 534.815,621.046 537.569,618.518 540.324,616.008 543.078,613.516 545.833,611.042 548.587,608.586 551.341,606.147 554.096,603.727 556.85,601.323 559.605,598.937 562.359,596.568 565.114,594.217 567.868,591.882 570.623,589.565 573.377,587.264 576.132,584.981 578.886,582.714 581.641,580.464 584.395,578.23 587.149,576.013 589.904,573.812 592.658,571.627 595.413,569.459 598.167,567.306 600.922,565.17 603.676,563.049 606.431,560.945 609.185,558.856 611.94,556.783 614.694,554.725 617.448,552.683 620.203,550.656 622.957,548.644 625.712,546.648 628.466,544.666 631.221,542.7 633.975,540.749 636.73,538.812 639.484,536.891 642.239,534.983 644.993,533.091 647.747,531.213 650.502,529.35 653.256,527.501 656.011,525.666 658.765,523.845 661.52,522.038 664.274,520.246 667.029,518.467 669.783,516.702 672.538,514.951 675.292,513.214 678.046,511.49 680.801,509.779 683.555,508.083 686.31,506.399 689.064,504.729 691.819,503.072 694.573,501.428 697.328,499.797 700.082,498.18 702.837,496.575 705.591,494.982 708.345,493.403 711.1,491.836 713.854,490.282 716.609,488.74 719.363,487.211 722.118,485.694 724.872,484.189 727.627,482.696 730.381,481.216 733.136,479.747 735.89,478.291 738.645,476.846 741.399,475.413 744.153,473.992 746.908,472.583 749.662,471.185 752.417,469.798 755.171,468.423 757.926,467.059 760.68,465.707 763.435,464.365 766.189,463.035 768.944,461.716 771.698,460.408 774.452,459.11 777.207,457.824 779.961,456.548 782.716,455.283 785.47,454.028 788.225,452.784 790.979,451.55 793.734,450.327 796.488,449.114 799.243,447.911 801.997,446.718 804.751,445.536 807.506,444.363 810.26,443.2 813.015,442.048 815.769,440.905 818.524,439.771 821.278,438.648 824.033,437.533 826.787,436.429 829.542,435.334 832.296,434.248 835.05,433.171 837.805,432.104 840.559,431.046 843.314,429.997 846.068,428.957 848.823,427.926 851.577,426.903 854.332,425.89 857.086,424.885 859.841,423.889 862.595,422.902 865.349,421.923 868.104,420.953 870.858,419.991 873.613,419.037 876.367,418.092 879.122,417.154 881.876,416.225 884.631,415.304 887.385,414.391 890.14,413.486 892.894,412.589 895.649,411.7 898.403,410.818 901.157,409.944 903.912,409.078 906.666,408.219 909.421,407.368 912.175,406.524 914.93,405.687 917.684,404.858 920.439,404.036 923.193,403.222 925.948,402.414 928.702,401.613 931.456,400.82 934.211,400.033 936.965,399.253 939.72,398.48 942.474,397.714 945.229,396.954 947.983,396.201 950.738,395.455 953.492,394.715 956.247,393.982 959.001,393.255 961.755,392.534 964.51,391.82 967.264,391.111 970.019,390.409 972.773,389.713 975.528,389.023 978.282,388.34 981.037,387.662 983.791,386.99 986.546,386.323 989.3,385.663 992.054,385.008 994.809,384.359 997.563,383.716 1000.32,383.078 1003.07,382.445 1005.83,381.818 1008.58,381.197 1011.34,380.581 1014.09,379.97 1016.84,379.364 1019.6,378.763 1022.35,378.168 1025.11,377.578 1027.86,376.992 1030.62,376.412 1033.37,375.837 1036.13,375.266 1038.88,374.701 1041.63,374.14 1044.39,373.584 1047.14,373.033 1049.9,372.486 1052.65,371.944 1055.41,371.406 1058.16,370.873 1060.92,370.344 1063.67,369.82 1066.42,369.3 1069.18,368.784 1071.93,368.273 1074.69,367.766 1077.44,367.263 1080.2,366.764 1082.95,366.269 1085.71,365.779 1088.46,365.292 1091.21,364.809 1093.97,364.33 1096.72,363.855 1099.48,363.384 1102.23,362.917 1104.99,362.453 1107.74,361.993 1110.5,361.537 1113.25,361.084 1116.01,360.635 1118.76,360.189 1121.51,359.747 1124.27,359.309 1127.02,358.873 1129.78,358.441 1132.53,358.013 1135.29,357.588 1138.04,357.166 1140.8,356.747 1143.55,356.331 1146.3,355.919 1149.06,355.509 1151.81,355.103 1154.57,354.7 1157.32,354.3 1160.08,353.902 1162.83,353.508 1165.59,353.116 1168.34,352.728 1171.09,352.342 1173.85,351.959 1176.6,351.578 1179.36,351.201 1182.11,350.826 1184.87,350.454 1187.62,350.084 1190.38,349.717 1193.13,349.352 1195.88,348.99 1198.64,348.631 1201.39,348.274 1204.15,347.919 1206.9,347.567 1209.66,347.217 1212.41,346.869 1215.17,346.524 1217.92,346.181 1220.67,345.84 1223.43,345.501 1226.18,345.165 1228.94,344.83 1231.69,344.498 1234.45,344.168 1237.2,343.84 1239.96,343.514 1242.71,343.19 1245.46,342.868 1248.22,342.548 1250.97,342.23 1253.73,341.914 1256.48,341.599 1259.24,341.287 1261.99,340.976 1264.75,340.667 1267.5,340.36 1270.25,340.055 1273.01,339.752 1275.76,339.45 1278.52,339.15 1281.27,338.851 1284.03,338.555 1286.78,338.259 1289.54,337.966 1292.29,337.674 1295.04,337.383 1297.8,337.094 1300.55,336.807 1303.31,336.521 1306.06,336.237 1308.82,335.954 1311.57,335.672 1314.33,335.392 1317.08,335.113 1319.83,334.836 1322.59,334.559 1325.34,334.285 1328.1,334.011 1330.85,333.739 1333.61,333.468 1336.36,333.198 1339.12,332.93 1341.87,332.662 1344.62,332.396 1347.38,332.131 1350.13,331.868 1352.89,331.605 1355.64,331.343 1358.4,331.083 1361.15,330.824 1363.91,330.565 1366.66,330.308 1369.41,330.052 1372.17,329.797 1374.92,329.542 1377.68,329.289 1380.43,329.037 1383.19,328.785 1385.94,328.535 1388.7,328.285 1391.45,328.037 1394.21,327.789 1396.96,327.542 1399.71,327.296 1402.47,327.051 1405.22,326.807 1407.98,326.563 1410.73,326.32 1413.49,326.078 1416.24,325.837 1419,325.597 1421.75,325.357 1424.5,325.118 1427.26,324.88 1430.01,324.642 1432.77,324.406 1435.52,324.169 1438.28,323.934 1441.03,323.699 1443.79,323.465 1446.54,323.231 1449.29,322.999 1452.05,322.766 1454.8,322.535 1457.56,322.304 1460.31,322.073 1463.07,321.843 1465.82,321.614 1468.58,321.385 1471.33,321.157 1474.08,320.929 1476.84,320.702 1479.59,320.475 1482.35,320.249 1485.1,320.023 1487.86,319.798 1490.61,319.574 1493.37,319.35 1496.12,319.126 1498.87,318.903 1501.63,318.68 1504.38,318.458 1507.14,318.236 1509.89,318.014 1512.65,317.793 1515.4,317.573 1518.16,317.352 1520.91,317.132 1523.66,316.913 1526.42,316.694 1529.17,316.475 1531.93,316.257 1534.68,316.039 1537.44,315.821 1540.19,315.604 1542.95,315.387 1545.7,315.17 1548.45,314.954 1551.21,314.737 1553.96,314.522 1556.72,314.306 1559.47,314.091 1562.23,313.876 1564.98,313.662 1567.74,313.448 1570.49,313.234 1573.24,313.02 1576,312.806 1578.75,312.593 1581.51,312.38 1584.26,312.168 1587.02,311.955 1589.77,311.743 1592.53,311.531 1595.28,311.319 1598.03,311.108 1600.79,310.897 1603.54,310.686 1606.3,310.475 1609.05,310.264 1611.81,310.054 1614.56,309.844 1617.32,309.634 1620.07,309.424 1622.82,309.214 1625.58,309.005 1628.33,308.795 1631.09,308.586 1633.84,308.377 1636.6,308.169 1639.35,307.96 1642.11,307.752 1644.86,307.543 1647.62,307.335 1650.37,307.127 1653.12,306.919 1655.88,306.712 1658.63,306.504 1661.39,306.297 1664.14,306.09 1666.9,305.882 1669.65,305.675 1672.41,305.468 1675.16,305.262 1677.91,305.055 1680.67,304.848 1683.42,304.642 1686.18,304.435 1688.93,304.229 1691.69,304.023 1694.44,303.817 1697.2,303.611 1699.95,303.405 1702.7,303.199 1705.46,302.993 1708.21,302.788 1710.97,302.582 1713.72,302.377 1716.48,302.171 1719.23,301.966 1721.99,301.761 1724.74,301.555 1727.49,301.35 1730.25,301.145 1733,300.94 1735.76,300.735 1738.51,300.53 1741.27,300.325 1744.02,300.121 1746.78,299.916 1749.53,299.711 1752.28,299.506 1755.04,299.302 1757.79,299.097 1760.55,298.893 1763.3,298.688 1766.06,298.484 1768.81,298.279 1771.57,298.075 1774.32,297.87 1777.07,297.666 1779.83,297.462 1782.58,297.257 1785.34,297.053 1788.09,296.849 1790.85,296.645 1793.6,296.44 1796.36,296.236 1799.11,296.032 1801.86,295.828 1804.62,295.624 1807.37,295.42 1810.13,295.216 1812.88,295.012 1815.64,294.808 1818.39,294.604 1821.15,294.399 1823.9,294.196 1826.65,293.992 1829.41,293.788 1832.16,293.584 1834.92,293.38 1837.67,293.176 1840.43,292.972 1843.18,292.768 1845.94,292.564 1848.69,292.36 1851.44,292.157 1854.2,291.953 1856.95,291.749 1859.71,291.545 1862.46,291.341 1865.22,291.138 1867.97,290.934 1870.73,290.73 1873.48,290.526 1876.23,290.323 1878.99,290.119 1881.74,289.915 1884.5,289.712 1887.25,289.508 1890.01,289.304 1892.76,289.101 1895.52,288.897 1898.27,288.694 1901.03,288.49 1903.78,288.287 1906.53,288.083 1909.29,287.88 1912.04,287.677 1914.8,287.473 1917.55,287.27 1920.31,287.066 1923.06,286.863 1925.82,286.66 1928.57,286.456 1931.32,286.253 1934.08,286.049 1936.83,285.846 1939.59,285.643 1942.34,285.439 1945.1,285.236 1947.85,285.032 1950.61,284.829 1953.36,284.626 1956.11,284.422 1958.87,284.219 1961.62,284.016 1964.38,283.812 1967.13,283.609 1969.89,283.406 1972.64,283.202 1975.4,282.999 1978.15,282.796 1980.9,282.592 1983.66,282.389 1986.41,282.186 1989.17,281.982 1991.92,281.779 1994.68,281.576 1997.43,281.372 2000.19,281.169 2002.94,280.966 2005.69,280.762 2008.45,280.559 2011.2,280.356 2013.96,280.152 2016.71,279.949 2019.47,279.746 2022.22,279.542 2024.98,279.339 2027.73,279.136 2030.48,278.932 2033.24,278.729 2035.99,278.526 2038.75,278.323 2041.5,278.119 2044.26,277.916 2047.01,277.713 2049.77,277.509 2052.52,277.306 2055.27,277.103 2058.03,276.899 2060.78,276.696 2063.54,276.493 2066.29,276.289 2069.05,276.086 2071.8,275.883 2074.56,275.679 2077.31,275.476 2080.06,275.273 2082.82,275.07 2085.57,274.866 2088.33,274.663 2091.08,274.46 2093.84,274.256 2096.59,274.053 2099.35,273.85 2102.1,273.646 2104.85,273.443 2107.61,273.24 2110.36,273.036 2113.12,272.833 2115.87,272.63 2118.63,272.426 2121.38,272.223 2124.14,272.02 2126.89,271.816 2129.64,271.613 2132.4,271.41 2135.15,271.207 2137.91,271.003 2140.66,270.8 2143.42,270.597 2146.17,270.393 2148.93,270.19 2151.68,269.987 2154.44,269.783 2157.19,269.58 2159.94,269.377 2162.7,269.173 2165.45,268.97 2168.21,268.767 2170.96,268.563 2173.72,268.36 2176.47,268.156 2179.23,267.953 2181.98,267.75 2184.73,267.546 2187.49,267.343 2190.24,267.14 2193,266.936 2195.75,266.733 2198.51,266.53 2201.26,266.326 2204.02,266.123 2206.77,265.92 2209.52,265.716 2212.28,265.513 2215.03,265.31 2217.79,265.106 2220.54,264.903 2223.3,264.699 2226.05,264.496 2228.81,264.293 2231.56,264.089 2234.31,263.886 2237.07,263.683 2239.82,263.479 2242.58,263.276 2245.33,263.072 2248.09,262.869 2250.84,262.666 2253.6,262.462 2256.35,262.259 2259.1,262.056 2261.86,261.852 2264.61,261.649 2267.37,261.445 2270.12,261.242 2272.88,261.039 2275.63,260.835 2278.39,260.632 2281.14,260.429 2283.89,260.225 2286.65,260.022 2289.4,259.818 2292.16,259.615 2294.91,259.411 2297.67,259.208 2300.42,259.005 2303.18,258.801 2305.93,258.598 2308.68,258.394 2311.44,258.191 2314.19,257.988 2316.95,257.784 2319.7,257.581 2322.46,257.377 2325.21,257.174 2327.97,256.97 2330.72,256.767 2333.47,256.563 2336.23,256.36 2338.98,256.156 2341.74,255.953 2344.49,255.749 2347.25,255.546 2350,255.342 2352.76,255.139 "/>
<polyline clip-path="url(#clip872)" style="stroke:#e26f46; stroke-linecap:round; stroke-linejoin:round; stroke-width:12; stroke-opacity:1; fill:none" points="149.191,735.212 151.945,426.344 154.7,282.583 157.454,222.312 160.209,199.254 162.963,191.173 165.718,188.605 168.472,187.927 171.227,187.788 173.981,187.776 176.735,187.778 179.49,187.789 182.244,187.842 184.999,187.973 187.753,188.212 190.508,188.583 193.262,189.106 196.017,189.789 198.771,190.636 201.526,191.645 204.28,192.816 207.034,194.143 209.789,195.621 212.543,197.241 215.298,198.991 218.052,200.862 220.807,202.844 223.561,204.927 226.316,207.103 229.07,209.364 231.825,211.701 234.579,214.108 237.333,216.577 240.088,219.102 242.842,221.678 245.597,224.299 248.351,226.96 251.106,229.657 253.86,232.386 256.615,235.145 259.369,237.93 262.124,240.737 264.878,243.565 267.632,246.41 270.387,249.269 273.141,252.141 275.896,255.023 278.65,257.913 281.405,260.809 284.159,263.71 286.914,266.614 289.668,269.519 292.423,272.424 295.177,275.329 297.932,278.233 300.686,281.133 303.44,284.028 306.195,286.919 308.949,289.803 311.704,292.681 314.458,295.551 317.213,298.412 319.967,301.265 322.722,304.107 325.476,306.939 328.231,309.76 330.985,312.57 333.739,315.368 336.494,318.153 339.248,320.925 342.003,323.684 344.757,326.43 347.512,329.161 350.266,331.879 353.021,334.582 355.775,337.271 358.53,339.945 361.284,342.604 364.038,345.248 366.793,347.877 369.547,350.491 372.302,353.09 375.056,355.673 377.811,358.241 380.565,360.794 383.32,363.331 386.074,365.854 388.829,368.361 391.583,370.852 394.337,373.328 397.092,375.789 399.846,378.235 402.601,380.666 405.355,383.081 408.11,385.482 410.864,387.867 413.619,390.238 416.373,392.594 419.128,394.935 421.882,397.261 424.636,399.573 427.391,401.871 430.145,404.154 432.9,406.423 435.654,408.678 438.409,410.92 441.163,413.147 443.918,415.362 446.672,417.562 449.427,419.749 452.181,421.923 454.936,424.084 457.69,426.232 460.444,428.367 463.199,430.489 465.953,432.598 468.708,434.694 471.462,436.779 474.217,438.85 476.971,440.91 479.726,442.957 482.48,444.993 485.235,447.016 487.989,449.028 490.743,451.028 493.498,453.016 496.252,454.993 499.007,456.958 501.761,458.912 504.516,460.855 507.27,462.787 510.025,464.707 512.779,466.617 515.534,468.515 518.288,470.403 521.042,472.28 523.797,474.147 526.551,476.003 529.306,477.848 532.06,479.683 534.815,481.508 537.569,483.322 540.324,485.127 543.078,486.921 545.833,488.705 548.587,490.479 551.341,492.243 554.096,493.998 556.85,495.743 559.605,497.477 562.359,499.203 565.114,500.918 567.868,502.624 570.623,504.321 573.377,506.008 576.132,507.686 578.886,509.354 581.641,511.013 584.395,512.663 587.149,514.303 589.904,515.934 592.658,517.557 595.413,519.17 598.167,520.774 600.922,522.369 603.676,523.955 606.431,525.532 609.185,527.1 611.94,528.659 614.694,530.209 617.448,531.751 620.203,533.284 622.957,534.808 625.712,536.324 628.466,537.831 631.221,539.329 633.975,540.819 636.73,542.3 639.484,543.772 642.239,545.237 644.993,546.692 647.747,548.14 650.502,549.579 653.256,551.009 656.011,552.431 658.765,553.845 661.52,555.251 664.274,556.648 667.029,558.037 669.783,559.418 672.538,560.791 675.292,562.156 678.046,563.512 680.801,564.861 683.555,566.201 686.31,567.533 689.064,568.857 691.819,570.173 694.573,571.481 697.328,572.781 700.082,574.073 702.837,575.357 705.591,576.633 708.345,577.902 711.1,579.162 713.854,580.414 716.609,581.659 719.363,582.896 722.118,584.125 724.872,585.346 727.627,586.559 730.381,587.765 733.136,588.963 735.89,590.153 738.645,591.335 741.399,592.51 744.153,593.677 746.908,594.837 749.662,595.988 752.417,597.133 755.171,598.269 757.926,599.398 760.68,600.52 763.435,601.634 766.189,602.741 768.944,603.84 771.698,604.931 774.452,606.015 777.207,607.092 779.961,608.161 782.716,609.223 785.47,610.277 788.225,611.325 790.979,612.364 793.734,613.397 796.488,614.422 799.243,615.44 801.997,616.451 804.751,617.454 807.506,618.451 810.26,619.44 813.015,620.422 815.769,621.396 818.524,622.364 821.278,623.325 824.033,624.278 826.787,625.225 829.542,626.164 832.296,627.097 835.05,628.022 837.805,628.941 840.559,629.852 843.314,630.757 846.068,631.655 848.823,632.546 851.577,633.43 854.332,634.307 857.086,635.177 859.841,636.041 862.595,636.898 865.349,637.748 868.104,638.592 870.858,639.429 873.613,640.259 876.367,641.082 879.122,641.899 881.876,642.71 884.631,643.513 887.385,644.31 890.14,645.101 892.894,645.886 895.649,646.663 898.403,647.435 901.157,648.199 903.912,648.958 906.666,649.711 909.421,650.456 912.175,651.196 914.93,651.929 917.684,652.656 920.439,653.377 923.193,654.091 925.948,654.8 928.702,655.502 931.456,656.198 934.211,656.888 936.965,657.572 939.72,658.25 942.474,658.922 945.229,659.588 947.983,660.248 950.738,660.902 953.492,661.55 956.247,662.192 959.001,662.829 961.755,663.46 964.51,664.085 967.264,664.704 970.019,665.317 972.773,665.925 975.528,666.528 978.282,667.124 981.037,667.715 983.791,668.301 986.546,668.881 989.3,669.455 992.054,670.024 994.809,670.588 997.563,671.146 1000.32,671.699 1003.07,672.247 1005.83,672.789 1008.58,673.326 1011.34,673.857 1014.09,674.384 1016.84,674.905 1019.6,675.421 1022.35,675.932 1025.11,676.438 1027.86,676.939 1030.62,677.435 1033.37,677.926 1036.13,678.411 1038.88,678.892 1041.63,679.368 1044.39,679.839 1047.14,680.306 1049.9,680.767 1052.65,681.224 1055.41,681.676 1058.16,682.123 1060.92,682.565 1063.67,683.003 1066.42,683.436 1069.18,683.865 1071.93,684.289 1074.69,684.708 1077.44,685.123 1080.2,685.534 1082.95,685.94 1085.71,686.341 1088.46,686.738 1091.21,687.131 1093.97,687.519 1096.72,687.904 1099.48,688.284 1102.23,688.659 1104.99,689.031 1107.74,689.398 1110.5,689.761 1113.25,690.12 1116.01,690.475 1118.76,690.826 1121.51,691.173 1124.27,691.516 1127.02,691.855 1129.78,692.19 1132.53,692.521 1135.29,692.848 1138.04,693.171 1140.8,693.491 1143.55,693.807 1146.3,694.119 1149.06,694.427 1151.81,694.732 1154.57,695.033 1157.32,695.33 1160.08,695.624 1162.83,695.914 1165.59,696.201 1168.34,696.484 1171.09,696.764 1173.85,697.04 1176.6,697.313 1179.36,697.583 1182.11,697.849 1184.87,698.112 1187.62,698.371 1190.38,698.628 1193.13,698.881 1195.88,699.131 1198.64,699.378 1201.39,699.621 1204.15,699.862 1206.9,700.099 1209.66,700.334 1212.41,700.565 1215.17,700.794 1217.92,701.02 1220.67,701.242 1223.43,701.462 1226.18,701.679 1228.94,701.893 1231.69,702.104 1234.45,702.312 1237.2,702.518 1239.96,702.72 1242.71,702.921 1245.46,703.118 1248.22,703.313 1250.97,703.505 1253.73,703.694 1256.48,703.881 1259.24,704.066 1261.99,704.247 1264.75,704.427 1267.5,704.604 1270.25,704.778 1273.01,704.95 1275.76,705.119 1278.52,705.287 1281.27,705.452 1284.03,705.614 1286.78,705.774 1289.54,705.932 1292.29,706.088 1295.04,706.241 1297.8,706.393 1300.55,706.542 1303.31,706.689 1306.06,706.833 1308.82,706.976 1311.57,707.117 1314.33,707.255 1317.08,707.392 1319.83,707.526 1322.59,707.659 1325.34,707.789 1328.1,707.918 1330.85,708.044 1333.61,708.169 1336.36,708.292 1339.12,708.413 1341.87,708.532 1344.62,708.65 1347.38,708.765 1350.13,708.879 1352.89,708.991 1355.64,709.101 1358.4,709.21 1361.15,709.317 1363.91,709.422 1366.66,709.526 1369.41,709.628 1372.17,709.728 1374.92,709.827 1377.68,709.924 1380.43,710.02 1383.19,710.114 1385.94,710.206 1388.7,710.297 1391.45,710.387 1394.21,710.475 1396.96,710.562 1399.71,710.647 1402.47,710.731 1405.22,710.814 1407.98,710.895 1410.73,710.975 1413.49,711.053 1416.24,711.131 1419,711.207 1421.75,711.281 1424.5,711.355 1427.26,711.427 1430.01,711.498 1432.77,711.567 1435.52,711.636 1438.28,711.703 1441.03,711.769 1443.79,711.834 1446.54,711.898 1449.29,711.961 1452.05,712.023 1454.8,712.083 1457.56,712.143 1460.31,712.201 1463.07,712.259 1465.82,712.315 1468.58,712.371 1471.33,712.425 1474.08,712.479 1476.84,712.531 1479.59,712.583 1482.35,712.633 1485.1,712.683 1487.86,712.732 1490.61,712.779 1493.37,712.826 1496.12,712.872 1498.87,712.918 1501.63,712.962 1504.38,713.006 1507.14,713.048 1509.89,713.09 1512.65,713.131 1515.4,713.172 1518.16,713.211 1520.91,713.25 1523.66,713.288 1526.42,713.326 1529.17,713.363 1531.93,713.399 1534.68,713.434 1537.44,713.469 1540.19,713.503 1542.95,713.536 1545.7,713.568 1548.45,713.6 1551.21,713.632 1553.96,713.663 1556.72,713.693 1559.47,713.722 1562.23,713.751 1564.98,713.779 1567.74,713.807 1570.49,713.834 1573.24,713.861 1576,713.887 1578.75,713.912 1581.51,713.937 1584.26,713.962 1587.02,713.985 1589.77,714.009 1592.53,714.032 1595.28,714.054 1598.03,714.076 1600.79,714.097 1603.54,714.118 1606.3,714.139 1609.05,714.159 1611.81,714.178 1614.56,714.197 1617.32,714.216 1620.07,714.234 1622.82,714.252 1625.58,714.27 1628.33,714.287 1631.09,714.303 1633.84,714.319 1636.6,714.335 1639.35,714.351 1642.11,714.366 1644.86,714.38 1647.62,714.395 1650.37,714.409 1653.12,714.423 1655.88,714.436 1658.63,714.449 1661.39,714.462 1664.14,714.474 1666.9,714.486 1669.65,714.498 1672.41,714.509 1675.16,714.52 1677.91,714.531 1680.67,714.542 1683.42,714.552 1686.18,714.562 1688.93,714.572 1691.69,714.582 1694.44,714.591 1697.2,714.6 1699.95,714.609 1702.7,714.617 1705.46,714.626 1708.21,714.634 1710.97,714.642 1713.72,714.649 1716.48,714.657 1719.23,714.664 1721.99,714.671 1724.74,714.678 1727.49,714.684 1730.25,714.691 1733,714.697 1735.76,714.703 1738.51,714.709 1741.27,714.715 1744.02,714.721 1746.78,714.726 1749.53,714.731 1752.28,714.737 1755.04,714.742 1757.79,714.746 1760.55,714.751 1763.3,714.756 1766.06,714.76 1768.81,714.764 1771.57,714.768 1774.32,714.773 1777.07,714.776 1779.83,714.78 1782.58,714.784 1785.34,714.788 1788.09,714.791 1790.85,714.794 1793.6,714.798 1796.36,714.801 1799.11,714.804 1801.86,714.807 1804.62,714.81 1807.37,714.813 1810.13,714.815 1812.88,714.818 1815.64,714.82 1818.39,714.823 1821.15,714.825 1823.9,714.828 1826.65,714.83 1829.41,714.832 1832.16,714.834 1834.92,714.836 1837.67,714.838 1840.43,714.84 1843.18,714.842 1845.94,714.844 1848.69,714.845 1851.44,714.847 1854.2,714.849 1856.95,714.85 1859.71,714.852 1862.46,714.853 1865.22,714.854 1867.97,714.856 1870.73,714.857 1873.48,714.858 1876.23,714.859 1878.99,714.861 1881.74,714.862 1884.5,714.863 1887.25,714.864 1890.01,714.865 1892.76,714.865 1895.52,714.866 1898.27,714.867 1901.03,714.868 1903.78,714.868 1906.53,714.869 1909.29,714.87 1912.04,714.87 1914.8,714.871 1917.55,714.871 1920.31,714.872 1923.06,714.872 1925.82,714.873 1928.57,714.873 1931.32,714.874 1934.08,714.874 1936.83,714.875 1939.59,714.875 1942.34,714.875 1945.1,714.876 1947.85,714.876 1950.61,714.876 1953.36,714.876 1956.11,714.877 1958.87,714.877 1961.62,714.877 1964.38,714.877 1967.13,714.878 1969.89,714.878 1972.64,714.878 1975.4,714.878 1978.15,714.878 1980.9,714.878 1983.66,714.879 1986.41,714.879 1989.17,714.879 1991.92,714.879 1994.68,714.879 1997.43,714.879 2000.19,714.879 2002.94,714.879 2005.69,714.879 2008.45,714.879 2011.2,714.879 2013.96,714.879 2016.71,714.879 2019.47,714.879 2022.22,714.88 2024.98,714.88 2027.73,714.88 2030.48,714.88 2033.24,714.88 2035.99,714.88 2038.75,714.88 2041.5,714.88 2044.26,714.88 2047.01,714.88 2049.77,714.88 2052.52,714.88 2055.27,714.879 2058.03,714.879 2060.78,714.879 2063.54,714.879 2066.29,714.879 2069.05,714.879 2071.8,714.879 2074.56,714.879 2077.31,714.879 2080.06,714.879 2082.82,714.879 2085.57,714.879 2088.33,714.879 2091.08,714.879 2093.84,714.879 2096.59,714.879 2099.35,714.879 2102.1,714.879 2104.85,714.879 2107.61,714.879 2110.36,714.879 2113.12,714.879 2115.87,714.879 2118.63,714.879 2121.38,714.879 2124.14,714.879 2126.89,714.879 2129.64,714.879 2132.4,714.879 2135.15,714.879 2137.91,714.879 2140.66,714.879 2143.42,714.879 2146.17,714.879 2148.93,714.879 2151.68,714.879 2154.44,714.879 2157.19,714.878 2159.94,714.878 2162.7,714.878 2165.45,714.878 2168.21,714.878 2170.96,714.878 2173.72,714.878 2176.47,714.878 2179.23,714.878 2181.98,714.878 2184.73,714.878 2187.49,714.878 2190.24,714.878 2193,714.878 2195.75,714.878 2198.51,714.878 2201.26,714.878 2204.02,714.878 2206.77,714.878 2209.52,714.878 2212.28,714.877 2215.03,714.877 2217.79,714.877 2220.54,714.877 2223.3,714.877 2226.05,714.877 2228.81,714.877 2231.56,714.877 2234.31,714.877 2237.07,714.876 2239.82,714.876 2242.58,714.876 2245.33,714.876 2248.09,714.876 2250.84,714.876 2253.6,714.875 2256.35,714.875 2259.1,714.875 2261.86,714.875 2264.61,714.874 2267.37,714.874 2270.12,714.874 2272.88,714.874 2275.63,714.873 2278.39,714.873 2281.14,714.873 2283.89,714.872 2286.65,714.872 2289.4,714.872 2292.16,714.871 2294.91,714.871 2297.67,714.87 2300.42,714.87 2303.18,714.869 2305.93,714.869 2308.68,714.868 2311.44,714.868 2314.19,714.867 2316.95,714.867 2319.7,714.866 2322.46,714.866 2325.21,714.865 2327.97,714.865 2330.72,714.864 2333.47,714.863 2336.23,714.863 2338.98,714.862 2341.74,714.861 2344.49,714.861 2347.25,714.86 2350,714.859 2352.76,714.858 "/>
<polyline clip-path="url(#clip872)" style="stroke:#3da44d; stroke-linecap:round; stroke-linejoin:round; stroke-width:12; stroke-opacity:1; fill:none" points="149.191,-90.5071 151.945,84.6364 154.7,241.297 157.454,372.208 160.209,476.029 162.963,555.784 165.718,616.316 168.472,662.439 171.227,698.113 173.981,726.287 176.735,749.048 179.49,767.832 182.244,783.621 184.999,797.085 187.753,808.693 190.508,818.779 193.262,827.588 196.017,835.309 198.771,842.091 201.526,848.055 204.28,853.305 207.034,857.928 209.789,862.001 212.543,865.59 215.298,868.756 218.052,871.549 220.807,874.014 223.561,876.193 226.316,878.119 229.07,879.823 231.825,881.332 234.579,882.67 237.333,883.855 240.088,884.906 242.842,885.838 245.597,886.665 248.351,887.396 251.106,888.043 253.86,888.614 256.615,889.116 259.369,889.557 262.124,889.941 264.878,890.274 267.632,890.56 270.387,890.802 273.141,891.006 275.896,891.173 278.65,891.306 281.405,891.407 284.159,891.48 286.914,891.525 289.668,891.545 292.423,891.541 295.177,891.515 297.932,891.469 300.686,891.402 303.44,891.318 306.195,891.216 308.949,891.098 311.704,890.965 314.458,890.818 317.213,890.657 319.967,890.484 322.722,890.299 325.476,890.104 328.231,889.898 330.985,889.682 333.739,889.458 336.494,889.225 339.248,888.985 342.003,888.737 344.757,888.483 347.512,888.223 350.266,887.957 353.021,887.686 355.775,887.41 358.53,887.13 361.284,886.847 364.038,886.56 366.793,886.269 369.547,885.976 372.302,885.681 375.056,885.383 377.811,885.084 380.565,884.783 383.32,884.481 386.074,884.178 388.829,883.873 391.583,883.569 394.337,883.263 397.092,882.958 399.846,882.652 402.601,882.347 405.355,882.042 408.11,881.737 410.864,881.433 413.619,881.129 416.373,880.826 419.128,880.524 421.882,880.222 424.636,879.922 427.391,879.623 430.145,879.324 432.9,879.027 435.654,878.731 438.409,878.437 441.163,878.143 443.918,877.852 446.672,877.561 449.427,877.272 452.181,876.984 454.936,876.697 457.69,876.412 460.444,876.128 463.199,875.846 465.953,875.565 468.708,875.286 471.462,875.008 474.217,874.731 476.971,874.456 479.726,874.182 482.48,873.909 485.235,873.638 487.989,873.368 490.743,873.099 493.498,872.832 496.252,872.566 499.007,872.301 501.761,872.037 504.516,871.774 507.27,871.513 510.025,871.252 512.779,870.993 515.534,870.735 518.288,870.478 521.042,870.221 523.797,869.966 526.551,869.712 529.306,869.458 532.06,869.206 534.815,868.954 537.569,868.703 540.324,868.453 543.078,868.203 545.833,867.955 548.587,867.707 551.341,867.459 554.096,867.213 556.85,866.967 559.605,866.721 562.359,866.476 565.114,866.232 567.868,865.988 570.623,865.744 573.377,865.501 576.132,865.258 578.886,865.016 581.641,864.774 584.395,864.532 587.149,864.291 589.904,864.05 592.658,863.809 595.413,863.569 598.167,863.328 600.922,863.088 603.676,862.848 606.431,862.608 609.185,862.368 611.94,862.129 614.694,861.889 617.448,861.649 620.203,861.41 622.957,861.17 625.712,860.931 628.466,860.691 631.221,860.452 633.975,860.212 636.73,859.972 639.484,859.732 642.239,859.493 644.993,859.252 647.747,859.012 650.502,858.772 653.256,858.531 656.011,858.291 658.765,858.05 661.52,857.809 664.274,857.567 667.029,857.326 669.783,857.084 672.538,856.842 675.292,856.6 678.046,856.357 680.801,856.114 683.555,855.871 686.31,855.627 689.064,855.383 691.819,855.139 694.573,854.895 697.328,854.65 700.082,854.404 702.837,854.159 705.591,853.913 708.345,853.666 711.1,853.419 713.854,853.172 716.609,852.925 719.363,852.677 722.118,852.428 724.872,852.179 727.627,851.93 730.381,851.68 733.136,851.43 735.89,851.179 738.645,850.928 741.399,850.677 744.153,850.425 746.908,850.172 749.662,849.92 752.417,849.666 755.171,849.412 757.926,849.158 760.68,848.903 763.435,848.648 766.189,848.392 768.944,848.136 771.698,847.879 774.452,847.622 777.207,847.364 779.961,847.106 782.716,846.847 785.47,846.588 788.225,846.328 790.979,846.068 793.734,845.807 796.488,845.546 799.243,845.284 801.997,845.022 804.751,844.759 807.506,844.496 810.26,844.233 813.015,843.968 815.769,843.704 818.524,843.438 821.278,843.173 824.033,842.907 826.787,842.64 829.542,842.373 832.296,842.105 835.05,841.837 837.805,841.568 840.559,841.299 843.314,841.03 846.068,840.76 848.823,840.489 851.577,840.218 854.332,839.947 857.086,839.675 859.841,839.402 862.595,839.129 865.349,838.856 868.104,838.582 870.858,838.308 873.613,838.033 876.367,837.758 879.122,837.482 881.876,837.206 884.631,836.93 887.385,836.653 890.14,836.376 892.894,836.098 895.649,835.82 898.403,835.541 901.157,835.262 903.912,834.982 906.666,834.703 909.421,834.422 912.175,834.142 914.93,833.861 917.684,833.579 920.439,833.297 923.193,833.015 925.948,832.732 928.702,832.449 931.456,832.166 934.211,831.882 936.965,831.598 939.72,831.314 942.474,831.029 945.229,830.744 947.983,830.459 950.738,830.173 953.492,829.887 956.247,829.6 959.001,829.313 961.755,829.026 964.51,828.739 967.264,828.451 970.019,828.163 972.773,827.875 975.528,827.586 978.282,827.297 981.037,827.008 983.791,826.719 986.546,826.429 989.3,826.139 992.054,825.849 994.809,825.559 997.563,825.268 1000.32,824.977 1003.07,824.686 1005.83,824.394 1008.58,824.103 1011.34,823.811 1014.09,823.519 1016.84,823.227 1019.6,822.934 1022.35,822.642 1025.11,822.349 1027.86,822.056 1030.62,821.763 1033.37,821.469 1036.13,821.176 1038.88,820.882 1041.63,820.589 1044.39,820.295 1047.14,820 1049.9,819.706 1052.65,819.412 1055.41,819.117 1058.16,818.823 1060.92,818.528 1063.67,818.233 1066.42,817.939 1069.18,817.644 1071.93,817.349 1074.69,817.054 1077.44,816.758 1080.2,816.463 1082.95,816.168 1085.71,815.872 1088.46,815.577 1091.21,815.282 1093.97,814.986 1096.72,814.691 1099.48,814.395 1102.23,814.1 1104.99,813.804 1107.74,813.508 1110.5,813.213 1113.25,812.917 1116.01,812.622 1118.76,812.326 1121.51,812.031 1124.27,811.735 1127.02,811.44 1129.78,811.144 1132.53,810.849 1135.29,810.554 1138.04,810.259 1140.8,809.964 1143.55,809.668 1146.3,809.373 1149.06,809.079 1151.81,808.784 1154.57,808.489 1157.32,808.194 1160.08,807.9 1162.83,807.606 1165.59,807.311 1168.34,807.017 1171.09,806.723 1173.85,806.429 1176.6,806.136 1179.36,805.842 1182.11,805.549 1184.87,805.256 1187.62,804.963 1190.38,804.67 1193.13,804.377 1195.88,804.084 1198.64,803.792 1201.39,803.5 1204.15,803.208 1206.9,802.916 1209.66,802.625 1212.41,802.334 1215.17,802.043 1217.92,801.752 1220.67,801.461 1223.43,801.171 1226.18,800.881 1228.94,800.591 1231.69,800.301 1234.45,800.012 1237.2,799.723 1239.96,799.434 1242.71,799.145 1245.46,798.857 1248.22,798.569 1250.97,798.282 1253.73,797.994 1256.48,797.707 1259.24,797.42 1261.99,797.134 1264.75,796.848 1267.5,796.562 1270.25,796.277 1273.01,795.991 1275.76,795.707 1278.52,795.422 1281.27,795.138 1284.03,794.854 1286.78,794.571 1289.54,794.288 1292.29,794.005 1295.04,793.723 1297.8,793.441 1300.55,793.159 1303.31,792.878 1306.06,792.597 1308.82,792.317 1311.57,792.037 1314.33,791.757 1317.08,791.478 1319.83,791.199 1322.59,790.921 1325.34,790.643 1328.1,790.365 1330.85,790.088 1333.61,789.811 1336.36,789.535 1339.12,789.259 1341.87,788.984 1344.62,788.709 1347.38,788.435 1350.13,788.161 1352.89,787.887 1355.64,787.614 1358.4,787.341 1361.15,787.069 1363.91,786.797 1366.66,786.526 1369.41,786.255 1372.17,785.985 1374.92,785.715 1377.68,785.446 1380.43,785.177 1383.19,784.908 1385.94,784.641 1388.7,784.373 1391.45,784.106 1394.21,783.84 1396.96,783.574 1399.71,783.309 1402.47,783.044 1405.22,782.78 1407.98,782.516 1410.73,782.253 1413.49,781.99 1416.24,781.728 1419,781.466 1421.75,781.205 1424.5,780.944 1427.26,780.684 1430.01,780.425 1432.77,780.166 1435.52,779.907 1438.28,779.649 1441.03,779.392 1443.79,779.135 1446.54,778.879 1449.29,778.623 1452.05,778.368 1454.8,778.114 1457.56,777.86 1460.31,777.606 1463.07,777.354 1465.82,777.101 1468.58,776.85 1471.33,776.599 1474.08,776.348 1476.84,776.098 1479.59,775.849 1482.35,775.6 1485.1,775.352 1487.86,775.104 1490.61,774.857 1493.37,774.611 1496.12,774.365 1498.87,774.119 1501.63,773.875 1504.38,773.631 1507.14,773.387 1509.89,773.144 1512.65,772.902 1515.4,772.66 1518.16,772.419 1520.91,772.179 1523.66,771.939 1526.42,771.7 1529.17,771.461 1531.93,771.223 1534.68,770.986 1537.44,770.749 1540.19,770.512 1542.95,770.277 1545.7,770.042 1548.45,769.807 1551.21,769.574 1553.96,769.341 1556.72,769.108 1559.47,768.876 1562.23,768.645 1564.98,768.414 1567.74,768.184 1570.49,767.955 1573.24,767.726 1576,767.498 1578.75,767.27 1581.51,767.043 1584.26,766.817 1587.02,766.591 1589.77,766.366 1592.53,766.141 1595.28,765.918 1598.03,765.694 1600.79,765.472 1603.54,765.25 1606.3,765.029 1609.05,764.808 1611.81,764.588 1614.56,764.368 1617.32,764.15 1620.07,763.931 1622.82,763.714 1625.58,763.497 1628.33,763.281 1631.09,763.065 1633.84,762.85 1636.6,762.635 1639.35,762.422 1642.11,762.208 1644.86,761.996 1647.62,761.784 1650.37,761.573 1653.12,761.362 1655.88,761.152 1658.63,760.942 1661.39,760.734 1664.14,760.525 1666.9,760.318 1669.65,760.111 1672.41,759.905 1675.16,759.699 1677.91,759.494 1680.67,759.29 1683.42,759.086 1686.18,758.882 1688.93,758.68 1691.69,758.478 1694.44,758.277 1697.2,758.076 1699.95,757.876 1702.7,757.676 1705.46,757.478 1708.21,757.279 1710.97,757.082 1713.72,756.885 1716.48,756.688 1719.23,756.493 1721.99,756.297 1724.74,756.103 1727.49,755.909 1730.25,755.716 1733,755.523 1735.76,755.331 1738.51,755.139 1741.27,754.948 1744.02,754.758 1746.78,754.568 1749.53,754.379 1752.28,754.191 1755.04,754.003 1757.79,753.816 1760.55,753.629 1763.3,753.443 1766.06,753.258 1768.81,753.073 1771.57,752.889 1774.32,752.705 1777.07,752.522 1779.83,752.339 1782.58,752.157 1785.34,751.976 1788.09,751.795 1790.85,751.615 1793.6,751.436 1796.36,751.257 1799.11,751.078 1801.86,750.901 1804.62,750.724 1807.37,750.547 1810.13,750.371 1812.88,750.195 1815.64,750.021 1818.39,749.846 1821.15,749.672 1823.9,749.499 1826.65,749.327 1829.41,749.155 1832.16,748.983 1834.92,748.813 1837.67,748.642 1840.43,748.473 1843.18,748.303 1845.94,748.135 1848.69,747.967 1851.44,747.799 1854.2,747.633 1856.95,747.466 1859.71,747.3 1862.46,747.135 1865.22,746.97 1867.97,746.806 1870.73,746.643 1873.48,746.48 1876.23,746.317 1878.99,746.155 1881.74,745.994 1884.5,745.833 1887.25,745.673 1890.01,745.513 1892.76,745.354 1895.52,745.195 1898.27,745.037 1901.03,744.879 1903.78,744.722 1906.53,744.566 1909.29,744.41 1912.04,744.254 1914.8,744.099 1917.55,743.945 1920.31,743.791 1923.06,743.638 1925.82,743.485 1928.57,743.332 1931.32,743.181 1934.08,743.029 1936.83,742.879 1939.59,742.728 1942.34,742.579 1945.1,742.429 1947.85,742.281 1950.61,742.132 1953.36,741.985 1956.11,741.837 1958.87,741.691 1961.62,741.544 1964.38,741.399 1967.13,741.254 1969.89,741.109 1972.64,740.965 1975.4,740.821 1978.15,740.678 1980.9,740.535 1983.66,740.393 1986.41,740.251 1989.17,740.11 1991.92,739.969 1994.68,739.828 1997.43,739.689 2000.19,739.549 2002.94,739.41 2005.69,739.272 2008.45,739.134 2011.2,738.996 2013.96,738.859 2016.71,738.723 2019.47,738.587 2022.22,738.451 2024.98,738.316 2027.73,738.181 2030.48,738.047 2033.24,737.913 2035.99,737.78 2038.75,737.647 2041.5,737.515 2044.26,737.383 2047.01,737.252 2049.77,737.12 2052.52,736.99 2055.27,736.86 2058.03,736.73 2060.78,736.601 2063.54,736.472 2066.29,736.344 2069.05,736.216 2071.8,736.088 2074.56,735.961 2077.31,735.835 2080.06,735.708 2082.82,735.583 2085.57,735.457 2088.33,735.332 2091.08,735.208 2093.84,735.084 2096.59,734.96 2099.35,734.837 2102.1,734.714 2104.85,734.592 2107.61,734.47 2110.36,734.348 2113.12,734.227 2115.87,734.106 2118.63,733.986 2121.38,733.866 2124.14,733.747 2126.89,733.628 2129.64,733.509 2132.4,733.391 2135.15,733.273 2137.91,733.155 2140.66,733.038 2143.42,732.921 2146.17,732.805 2148.93,732.689 2151.68,732.574 2154.44,732.458 2157.19,732.344 2159.94,732.229 2162.7,732.115 2165.45,732.002 2168.21,731.889 2170.96,731.776 2173.72,731.663 2176.47,731.551 2179.23,731.439 2181.98,731.328 2184.73,731.217 2187.49,731.107 2190.24,730.996 2193,730.886 2195.75,730.777 2198.51,730.668 2201.26,730.559 2204.02,730.451 2206.77,730.343 2209.52,730.235 2212.28,730.128 2215.03,730.021 2217.79,729.914 2220.54,729.808 2223.3,729.702 2226.05,729.596 2228.81,729.491 2231.56,729.386 2234.31,729.282 2237.07,729.178 2239.82,729.074 2242.58,728.97 2245.33,728.867 2248.09,728.764 2250.84,728.662 2253.6,728.56 2256.35,728.458 2259.1,728.357 2261.86,728.255 2264.61,728.155 2267.37,728.054 2270.12,727.954 2272.88,727.854 2275.63,727.755 2278.39,727.656 2281.14,727.557 2283.89,727.458 2286.65,727.36 2289.4,727.262 2292.16,727.164 2294.91,727.067 2297.67,726.97 2300.42,726.874 2303.18,726.777 2305.93,726.681 2308.68,726.586 2311.44,726.49 2314.19,726.395 2316.95,726.3 2319.7,726.206 2322.46,726.112 2325.21,726.018 2327.97,725.924 2330.72,725.831 2333.47,725.738 2336.23,725.645 2338.98,725.553 2341.74,725.461 2344.49,725.369 2347.25,725.277 2350,725.186 2352.76,725.095 "/>
<path clip-path="url(#clip870)" d="M1969.85 1377.32 L2279.3 1377.32 L2279.3 1169.96 L1969.85 1169.96  Z" fill="#ffffff" fill-rule="evenodd" fill-opacity="1"/>
<polyline clip-path="url(#clip870)" style="stroke:#000000; stroke-linecap:round; stroke-linejoin:round; stroke-width:4; stroke-opacity:1; fill:none" points="1969.85,1377.32 2279.3,1377.32 2279.3,1169.96 1969.85,1169.96 1969.85,1377.32 "/>
<polyline clip-path="url(#clip870)" style="stroke:#009af9; stroke-linecap:round; stroke-linejoin:round; stroke-width:12; stroke-opacity:1; fill:none" points="1994.33,1221.8 2141.24,1221.8 "/>
<path clip-path="url(#clip870)" d="M2165.72 1228.84 L2165.72 1213.15 L2169.98 1213.15 L2169.98 1228.68 Q2169.98 1232.36 2171.42 1234.21 Q2172.85 1236.04 2175.72 1236.04 Q2179.17 1236.04 2181.16 1233.84 Q2183.18 1231.64 2183.18 1227.85 L2183.18 1213.15 L2187.44 1213.15 L2187.44 1239.08 L2183.18 1239.08 L2183.18 1235.09 Q2181.63 1237.45 2179.57 1238.61 Q2177.53 1239.75 2174.82 1239.75 Q2170.35 1239.75 2168.04 1236.97 Q2165.72 1234.19 2165.72 1228.84 M2176.44 1212.52 L2176.44 1212.52 Z" fill="#000000" fill-rule="nonzero" fill-opacity="1" /><path clip-path="url(#clip870)" d="M2195.82 1203.06 L2205.63 1203.06 L2205.63 1206.37 L2200.07 1206.37 L2200.07 1242.02 L2205.63 1242.02 L2205.63 1245.33 L2195.82 1245.33 L2195.82 1203.06 Z" fill="#000000" fill-rule="nonzero" fill-opacity="1" /><path clip-path="url(#clip870)" d="M2216.12 1235.14 L2223.76 1235.14 L2223.76 1208.77 L2215.44 1210.44 L2215.44 1206.18 L2223.71 1204.52 L2228.38 1204.52 L2228.38 1235.14 L2236.02 1235.14 L2236.02 1239.08 L2216.12 1239.08 L2216.12 1235.14 Z" fill="#000000" fill-rule="nonzero" fill-opacity="1" /><path clip-path="url(#clip870)" d="M2254.82 1203.06 L2254.82 1245.33 L2245 1245.33 L2245 1242.02 L2250.54 1242.02 L2250.54 1206.37 L2245 1206.37 L2245 1203.06 L2254.82 1203.06 Z" fill="#000000" fill-rule="nonzero" fill-opacity="1" /><polyline clip-path="url(#clip870)" style="stroke:#e26f46; stroke-linecap:round; stroke-linejoin:round; stroke-width:12; stroke-opacity:1; fill:none" points="1994.33,1273.64 2141.24,1273.64 "/>
<path clip-path="url(#clip870)" d="M2165.72 1280.68 L2165.72 1264.99 L2169.98 1264.99 L2169.98 1280.52 Q2169.98 1284.2 2171.42 1286.05 Q2172.85 1287.88 2175.72 1287.88 Q2179.17 1287.88 2181.16 1285.68 Q2183.18 1283.48 2183.18 1279.69 L2183.18 1264.99 L2187.44 1264.99 L2187.44 1290.92 L2183.18 1290.92 L2183.18 1286.93 Q2181.63 1289.29 2179.57 1290.45 Q2177.53 1291.59 2174.82 1291.59 Q2170.35 1291.59 2168.04 1288.81 Q2165.72 1286.03 2165.72 1280.68 M2176.44 1264.36 L2176.44 1264.36 Z" fill="#000000" fill-rule="nonzero" fill-opacity="1" /><path clip-path="url(#clip870)" d="M2195.82 1254.9 L2205.63 1254.9 L2205.63 1258.21 L2200.07 1258.21 L2200.07 1293.86 L2205.63 1293.86 L2205.63 1297.17 L2195.82 1297.17 L2195.82 1254.9 Z" fill="#000000" fill-rule="nonzero" fill-opacity="1" /><path clip-path="url(#clip870)" d="M2219.33 1286.98 L2235.65 1286.98 L2235.65 1290.92 L2213.71 1290.92 L2213.71 1286.98 Q2216.37 1284.23 2220.95 1279.6 Q2225.56 1274.94 2226.74 1273.6 Q2228.99 1271.08 2229.87 1269.34 Q2230.77 1267.58 2230.77 1265.89 Q2230.77 1263.14 2228.82 1261.4 Q2226.9 1259.67 2223.8 1259.67 Q2221.6 1259.67 2219.15 1260.43 Q2216.72 1261.19 2213.94 1262.74 L2213.94 1258.02 Q2216.76 1256.89 2219.22 1256.31 Q2221.67 1255.73 2223.71 1255.73 Q2229.08 1255.73 2232.27 1258.42 Q2235.47 1261.1 2235.47 1265.59 Q2235.47 1267.72 2234.66 1269.64 Q2233.87 1271.54 2231.76 1274.13 Q2231.19 1274.8 2228.08 1278.02 Q2224.98 1281.22 2219.33 1286.98 Z" fill="#000000" fill-rule="nonzero" fill-opacity="1" /><path clip-path="url(#clip870)" d="M2254.82 1254.9 L2254.82 1297.17 L2245 1297.17 L2245 1293.86 L2250.54 1293.86 L2250.54 1258.21 L2245 1258.21 L2245 1254.9 L2254.82 1254.9 Z" fill="#000000" fill-rule="nonzero" fill-opacity="1" /><polyline clip-path="url(#clip870)" style="stroke:#3da44d; stroke-linecap:round; stroke-linejoin:round; stroke-width:12; stroke-opacity:1; fill:none" points="1994.33,1325.48 2141.24,1325.48 "/>
<path clip-path="url(#clip870)" d="M2165.72 1332.52 L2165.72 1316.83 L2169.98 1316.83 L2169.98 1332.36 Q2169.98 1336.04 2171.42 1337.89 Q2172.85 1339.72 2175.72 1339.72 Q2179.17 1339.72 2181.16 1337.52 Q2183.18 1335.32 2183.18 1331.53 L2183.18 1316.83 L2187.44 1316.83 L2187.44 1342.76 L2183.18 1342.76 L2183.18 1338.77 Q2181.63 1341.13 2179.57 1342.29 Q2177.53 1343.43 2174.82 1343.43 Q2170.35 1343.43 2168.04 1340.65 Q2165.72 1337.87 2165.72 1332.52 M2176.44 1316.2 L2176.44 1316.2 Z" fill="#000000" fill-rule="nonzero" fill-opacity="1" /><path clip-path="url(#clip870)" d="M2206.44 1306.78 Q2203.34 1312.11 2201.83 1317.32 Q2200.33 1322.52 2200.33 1327.87 Q2200.33 1333.22 2201.83 1338.47 Q2203.36 1343.7 2206.44 1349.01 L2202.74 1349.01 Q2199.26 1343.57 2197.53 1338.31 Q2195.82 1333.06 2195.82 1327.87 Q2195.82 1322.71 2197.53 1317.48 Q2199.24 1312.25 2202.74 1306.78 L2206.44 1306.78 Z" fill="#000000" fill-rule="nonzero" fill-opacity="1" /><path clip-path="url(#clip870)" d="M2218.92 1309.47 L2218.92 1316.83 L2227.69 1316.83 L2227.69 1320.14 L2218.92 1320.14 L2218.92 1334.21 Q2218.92 1337.38 2219.77 1338.29 Q2220.65 1339.19 2223.32 1339.19 L2227.69 1339.19 L2227.69 1342.76 L2223.32 1342.76 Q2218.38 1342.76 2216.51 1340.93 Q2214.63 1339.07 2214.63 1334.21 L2214.63 1320.14 L2211.51 1320.14 L2211.51 1316.83 L2214.63 1316.83 L2214.63 1309.47 L2218.92 1309.47 Z" fill="#000000" fill-rule="nonzero" fill-opacity="1" /><path clip-path="url(#clip870)" d="M2232.62 1306.78 L2236.32 1306.78 Q2239.8 1312.25 2241.51 1317.48 Q2243.25 1322.71 2243.25 1327.87 Q2243.25 1333.06 2241.51 1338.31 Q2239.8 1343.57 2236.32 1349.01 L2232.62 1349.01 Q2235.7 1343.7 2237.2 1338.47 Q2238.73 1333.22 2238.73 1327.87 Q2238.73 1322.52 2237.2 1317.32 Q2235.7 1312.11 2232.62 1306.78 Z" fill="#000000" fill-rule="nonzero" fill-opacity="1" /></svg>
