<?xml version="1.0" encoding="utf-8"?>
<svg xmlns="http://www.w3.org/2000/svg" xmlns:xlink="http://www.w3.org/1999/xlink" width="600" height="400" viewBox="0 0 2400 1600">
<defs>
  <clipPath id="clip000">
    <rect x="0" y="0" width="2400" height="1600"/>
  </clipPath>
</defs>
<path clip-path="url(#clip000)" d="M0 1600 L2400 1600 L2400 0 L0 0  Z" fill="#ffffff" fill-rule="evenodd" fill-opacity="1"/>
<defs>
  <clipPath id="clip001">
    <rect x="480" y="0" width="1681" height="1600"/>
  </clipPath>
</defs>
<path clip-path="url(#clip000)" d="M149.191 1423.18 L2352.76 1423.18 L2352.76 47.2441 L149.191 47.2441  Z" fill="#ffffff" fill-rule="evenodd" fill-opacity="1"/>
<defs>
  <clipPath id="clip002">
    <rect x="149" y="47" width="2205" height="1377"/>
  </clipPath>
</defs>
<polyline clip-path="url(#clip002)" style="stroke:#000000; stroke-linecap:round; stroke-linejoin:round; stroke-width:2; stroke-opacity:0.1; fill:none" points="149.191,1423.18 149.191,47.2441 "/>
<polyline clip-path="url(#clip002)" style="stroke:#000000; stroke-linecap:round; stroke-linejoin:round; stroke-width:2; stroke-opacity:0.1; fill:none" points="700.082,1423.18 700.082,47.2441 "/>
<polyline clip-path="url(#clip002)" style="stroke:#000000; stroke-linecap:round; stroke-linejoin:round; stroke-width:2; stroke-opacity:0.1; fill:none" points="1250.97,1423.18 1250.97,47.2441 "/>
<polyline clip-path="url(#clip002)" style="stroke:#000000; stroke-linecap:round; stroke-linejoin:round; stroke-width:2; stroke-opacity:0.1; fill:none" points="1801.86,1423.18 1801.86,47.2441 "/>
<polyline clip-path="url(#clip002)" style="stroke:#000000; stroke-linecap:round; stroke-linejoin:round; stroke-width:2; stroke-opacity:0.1; fill:none" points="2352.76,1423.18 2352.76,47.2441 "/>
<polyline clip-path="url(#clip002)" style="stroke:#000000; stroke-linecap:round; stroke-linejoin:round; stroke-width:2; stroke-opacity:0.1; fill:none" points="149.191,1423.18 2352.76,1423.18 "/>
<polyline clip-path="url(#clip002)" style="stroke:#000000; stroke-linecap:round; stroke-linejoin:round; stroke-width:2; stroke-opacity:0.1; fill:none" points="149.191,1193.86 2352.76,1193.86 "/>
<polyline clip-path="url(#clip002)" style="stroke:#000000; stroke-linecap:round; stroke-linejoin:round; stroke-width:2; stroke-opacity:0.1; fill:none" points="149.191,964.535 2352.76,964.535 "/>
<polyline clip-path="url(#clip002)" style="stroke:#000000; stroke-linecap:round; stroke-linejoin:round; stroke-width:2; stroke-opacity:0.1; fill:none" points="149.191,735.212 2352.76,735.212 "/>
<polyline clip-path="url(#clip002)" style="stroke:#000000; stroke-linecap:round; stroke-linejoin:round; stroke-width:2; stroke-opacity:0.1; fill:none" points="149.191,505.889 2352.76,505.889 "/>
<polyline clip-path="url(#clip002)" style="stroke:#000000; stroke-linecap:round; stroke-linejoin:round; stroke-width:2; stroke-opacity:0.1; fill:none" points="149.191,276.567 2352.76,276.567 "/>
<polyline clip-path="url(#clip002)" style="stroke:#000000; stroke-linecap:round; stroke-linejoin:round; stroke-width:2; stroke-opacity:0.1; fill:none" points="149.191,47.2441 2352.76,47.2441 "/>
<polyline clip-path="url(#clip000)" style="stroke:#000000; stroke-linecap:round; stroke-linejoin:round; stroke-width:4; stroke-opacity:1; fill:none" points="149.191,1423.18 2352.76,1423.18 "/>
<polyline clip-path="url(#clip000)" style="stroke:#000000; stroke-linecap:round; stroke-linejoin:round; stroke-width:4; stroke-opacity:1; fill:none" points="149.191,1423.18 149.191,1404.28 "/>
<polyline clip-path="url(#clip000)" style="stroke:#000000; stroke-linecap:round; stroke-linejoin:round; stroke-width:4; stroke-opacity:1; fill:none" points="700.082,1423.18 700.082,1404.28 "/>
<polyline clip-path="url(#clip000)" style="stroke:#000000; stroke-linecap:round; stroke-linejoin:round; stroke-width:4; stroke-opacity:1; fill:none" points="1250.97,1423.18 1250.97,1404.28 "/>
<polyline clip-path="url(#clip000)" style="stroke:#000000; stroke-linecap:round; stroke-linejoin:round; stroke-width:4; stroke-opacity:1; fill:none" points="1801.86,1423.18 1801.86,1404.28 "/>
<polyline clip-path="url(#clip000)" style="stroke:#000000; stroke-linecap:round; stroke-linejoin:round; stroke-width:4; stroke-opacity:1; fill:none" points="2352.76,1423.18 2352.76,1404.28 "/>
<path clip-path="url(#clip000)" d="M149.191 1454.1 Q145.58 1454.1 143.751 1457.66 Q141.946 1461.2 141.946 1468.33 Q141.946 1475.44 143.751 1479.01 Q145.58 1482.55 149.191 1482.55 Q152.825 1482.55 154.631 1479.01 Q156.459 1475.44 156.459 1468.33 Q156.459 1461.2 154.631 1457.66 Q152.825 1454.1 149.191 1454.1 M149.191 1450.39 Q155.001 1450.39 158.057 1455 Q161.135 1459.58 161.135 1468.33 Q161.135 1477.06 158.057 1481.67 Q155.001 1486.25 149.191 1486.25 Q143.381 1486.25 140.302 1481.67 Q137.246 1477.06 137.246 1468.33 Q137.246 1459.58 140.302 1455 Q143.381 1450.39 149.191 1450.39 Z" fill="#000000" fill-rule="nonzero" fill-opacity="1" /><path clip-path="url(#clip000)" d="M694.735 1481.64 L711.054 1481.64 L711.054 1485.58 L689.11 1485.58 L689.11 1481.64 Q691.772 1478.89 696.355 1474.26 Q700.962 1469.61 702.142 1468.27 Q704.388 1465.74 705.267 1464.01 Q706.17 1462.25 706.17 1460.56 Q706.17 1457.8 704.226 1456.07 Q702.304 1454.33 699.203 1454.33 Q697.003 1454.33 694.55 1455.09 Q692.119 1455.86 689.341 1457.41 L689.341 1452.69 Q692.166 1451.55 694.619 1450.97 Q697.073 1450.39 699.11 1450.39 Q704.48 1450.39 707.675 1453.08 Q710.869 1455.77 710.869 1460.26 Q710.869 1462.39 710.059 1464.31 Q709.272 1466.2 707.165 1468.8 Q706.587 1469.47 703.485 1472.69 Q700.383 1475.88 694.735 1481.64 Z" fill="#000000" fill-rule="nonzero" fill-opacity="1" /><path clip-path="url(#clip000)" d="M1253.98 1455.09 L1242.18 1473.54 L1253.98 1473.54 L1253.98 1455.09 M1252.76 1451.02 L1258.64 1451.02 L1258.64 1473.54 L1263.57 1473.54 L1263.57 1477.43 L1258.64 1477.43 L1258.64 1485.58 L1253.98 1485.58 L1253.98 1477.43 L1238.38 1477.43 L1238.38 1472.92 L1252.76 1451.02 Z" fill="#000000" fill-rule="nonzero" fill-opacity="1" /><path clip-path="url(#clip000)" d="M1802.27 1466.44 Q1799.12 1466.44 1797.27 1468.59 Q1795.44 1470.74 1795.44 1474.49 Q1795.44 1478.22 1797.27 1480.39 Q1799.12 1482.55 1802.27 1482.55 Q1805.42 1482.55 1807.25 1480.39 Q1809.1 1478.22 1809.1 1474.49 Q1809.1 1470.74 1807.25 1468.59 Q1805.42 1466.44 1802.27 1466.44 M1811.55 1451.78 L1811.55 1456.04 Q1809.79 1455.21 1807.99 1454.77 Q1806.2 1454.33 1804.45 1454.33 Q1799.82 1454.33 1797.36 1457.45 Q1794.93 1460.58 1794.58 1466.9 Q1795.95 1464.89 1798.01 1463.82 Q1800.07 1462.73 1802.55 1462.73 Q1807.76 1462.73 1810.77 1465.9 Q1813.8 1469.05 1813.8 1474.49 Q1813.8 1479.82 1810.65 1483.03 Q1807.5 1486.25 1802.27 1486.25 Q1796.27 1486.25 1793.1 1481.67 Q1789.93 1477.06 1789.93 1468.33 Q1789.93 1460.14 1793.82 1455.28 Q1797.71 1450.39 1804.26 1450.39 Q1806.02 1450.39 1807.8 1450.74 Q1809.61 1451.09 1811.55 1451.78 Z" fill="#000000" fill-rule="nonzero" fill-opacity="1" /><path clip-path="url(#clip000)" d="M2352.76 1469.17 Q2349.42 1469.17 2347.5 1470.95 Q2345.6 1472.73 2345.6 1475.86 Q2345.6 1478.98 2347.5 1480.77 Q2349.42 1482.55 2352.76 1482.55 Q2356.09 1482.55 2358.01 1480.77 Q2359.93 1478.96 2359.93 1475.86 Q2359.93 1472.73 2358.01 1470.95 Q2356.11 1469.17 2352.76 1469.17 M2348.08 1467.18 Q2345.07 1466.44 2343.38 1464.38 Q2341.71 1462.32 2341.71 1459.35 Q2341.71 1455.21 2344.65 1452.8 Q2347.62 1450.39 2352.76 1450.39 Q2357.92 1450.39 2360.86 1452.8 Q2363.8 1455.21 2363.8 1459.35 Q2363.8 1462.32 2362.11 1464.38 Q2360.44 1466.44 2357.45 1467.18 Q2360.83 1467.96 2362.71 1470.26 Q2364.61 1472.55 2364.61 1475.86 Q2364.61 1480.88 2361.53 1483.57 Q2358.47 1486.25 2352.76 1486.25 Q2347.04 1486.25 2343.96 1483.57 Q2340.9 1480.88 2340.9 1475.86 Q2340.9 1472.55 2342.8 1470.26 Q2344.7 1467.96 2348.08 1467.18 M2346.37 1459.79 Q2346.37 1462.48 2348.03 1463.98 Q2349.72 1465.49 2352.76 1465.49 Q2355.77 1465.49 2357.45 1463.98 Q2359.17 1462.48 2359.17 1459.79 Q2359.17 1457.11 2357.45 1455.6 Q2355.77 1454.1 2352.76 1454.1 Q2349.72 1454.1 2348.03 1455.6 Q2346.37 1457.11 2346.37 1459.79 Z" fill="#000000" fill-rule="nonzero" fill-opacity="1" /><path clip-path="url(#clip000)" d="M1250.03 1522.27 L1250.03 1532.4 L1262.1 1532.4 L1262.1 1536.95 L1250.03 1536.95 L1250.03 1556.3 Q1250.03 1560.66 1251.21 1561.9 Q1252.42 1563.14 1256.08 1563.14 L1262.1 1563.14 L1262.1 1568.04 L1256.08 1568.04 Q1249.3 1568.04 1246.72 1565.53 Q1244.15 1562.98 1244.15 1556.3 L1244.15 1536.95 L1239.85 1536.95 L1239.85 1532.4 L1244.15 1532.4 L1244.15 1522.27 L1250.03 1522.27 Z" fill="#000000" fill-rule="nonzero" fill-opacity="1" /><polyline clip-path="url(#clip000)" style="stroke:#000000; stroke-linecap:round; stroke-linejoin:round; stroke-width:4; stroke-opacity:1; fill:none" points="149.191,1423.18 149.191,47.2441 "/>
<polyline clip-path="url(#clip000)" style="stroke:#000000; stroke-linecap:round; stroke-linejoin:round; stroke-width:4; stroke-opacity:1; fill:none" points="149.191,1423.18 168.089,1423.18 "/>
<polyline clip-path="url(#clip000)" style="stroke:#000000; stroke-linecap:round; stroke-linejoin:round; stroke-width:4; stroke-opacity:1; fill:none" points="149.191,1193.86 168.089,1193.86 "/>
<polyline clip-path="url(#clip000)" style="stroke:#000000; stroke-linecap:round; stroke-linejoin:round; stroke-width:4; stroke-opacity:1; fill:none" points="149.191,964.535 168.089,964.535 "/>
<polyline clip-path="url(#clip000)" style="stroke:#000000; stroke-linecap:round; stroke-linejoin:round; stroke-width:4; stroke-opacity:1; fill:none" points="149.191,735.212 168.089,735.212 "/>
<polyline clip-path="url(#clip000)" style="stroke:#000000; stroke-linecap:round; stroke-linejoin:round; stroke-width:4; stroke-opacity:1; fill:none" points="149.191,505.889 168.089,505.889 "/>
<polyline clip-path="url(#clip000)" style="stroke:#000000; stroke-linecap:round; stroke-linejoin:round; stroke-width:4; stroke-opacity:1; fill:none" points="149.191,276.567 168.089,276.567 "/>
<polyline clip-path="url(#clip000)" style="stroke:#000000; stroke-linecap:round; stroke-linejoin:round; stroke-width:4; stroke-opacity:1; fill:none" points="149.191,47.2441 168.089,47.2441 "/>
<path clip-path="url(#clip000)" d="M51.3162 1423.63 L80.992 1423.63 L80.992 1427.57 L51.3162 1427.57 L51.3162 1423.63 Z" fill="#000000" fill-rule="nonzero" fill-opacity="1" /><path clip-path="url(#clip000)" d="M101.663 1421.32 Q98.515 1421.32 96.6632 1423.47 Q94.8345 1425.62 94.8345 1429.37 Q94.8345 1433.1 96.6632 1435.27 Q98.515 1437.43 101.663 1437.43 Q104.811 1437.43 106.64 1435.27 Q108.492 1433.1 108.492 1429.37 Q108.492 1425.62 106.64 1423.47 Q104.811 1421.32 101.663 1421.32 M110.946 1406.66 L110.946 1410.92 Q109.186 1410.09 107.381 1409.65 Q105.598 1409.21 103.839 1409.21 Q99.2095 1409.21 96.7558 1412.33 Q94.3252 1415.46 93.978 1421.78 Q95.3437 1419.77 97.4039 1418.7 Q99.4641 1417.61 101.941 1417.61 Q107.149 1417.61 110.158 1420.78 Q113.191 1423.93 113.191 1429.37 Q113.191 1434.7 110.043 1437.91 Q106.895 1441.13 101.663 1441.13 Q95.6678 1441.13 92.4965 1436.55 Q89.3253 1431.94 89.3253 1423.21 Q89.3253 1415.02 93.2141 1410.16 Q97.103 1405.27 103.654 1405.27 Q105.413 1405.27 107.196 1405.62 Q109.001 1405.97 110.946 1406.66 Z" fill="#000000" fill-rule="nonzero" fill-opacity="1" /><path clip-path="url(#clip000)" d="M50.9921 1194.31 L80.6679 1194.31 L80.6679 1198.24 L50.9921 1198.24 L50.9921 1194.31 Z" fill="#000000" fill-rule="nonzero" fill-opacity="1" /><path clip-path="url(#clip000)" d="M103.608 1180.65 L91.8021 1199.1 L103.608 1199.1 L103.608 1180.65 M102.381 1176.58 L108.26 1176.58 L108.26 1199.1 L113.191 1199.1 L113.191 1202.99 L108.26 1202.99 L108.26 1211.14 L103.608 1211.14 L103.608 1202.99 L88.0058 1202.99 L88.0058 1198.48 L102.381 1176.58 Z" fill="#000000" fill-rule="nonzero" fill-opacity="1" /><path clip-path="url(#clip000)" d="M53.0754 964.986 L82.7512 964.986 L82.7512 968.921 L53.0754 968.921 L53.0754 964.986 Z" fill="#000000" fill-rule="nonzero" fill-opacity="1" /><path clip-path="url(#clip000)" d="M96.8715 977.879 L113.191 977.879 L113.191 981.815 L91.2465 981.815 L91.2465 977.879 Q93.9086 975.125 98.4919 970.495 Q103.098 965.842 104.279 964.5 Q106.524 961.977 107.404 960.241 Q108.307 958.481 108.307 956.792 Q108.307 954.037 106.362 952.301 Q104.441 950.565 101.339 950.565 Q99.14 950.565 96.6863 951.329 Q94.2558 952.093 91.478 953.643 L91.478 948.921 Q94.3021 947.787 96.7558 947.208 Q99.2095 946.63 101.246 946.63 Q106.617 946.63 109.811 949.315 Q113.006 952 113.006 956.491 Q113.006 958.62 112.196 960.542 Q111.408 962.44 109.302 965.032 Q108.723 965.704 105.621 968.921 Q102.52 972.116 96.8715 977.879 Z" fill="#000000" fill-rule="nonzero" fill-opacity="1" /><path clip-path="url(#clip000)" d="M101.246 721.011 Q97.6354 721.011 95.8067 724.575 Q94.0012 728.117 94.0012 735.247 Q94.0012 742.353 95.8067 745.918 Q97.6354 749.46 101.246 749.46 Q104.881 749.46 106.686 745.918 Q108.515 742.353 108.515 735.247 Q108.515 728.117 106.686 724.575 Q104.881 721.011 101.246 721.011 M101.246 717.307 Q107.057 717.307 110.112 721.913 Q113.191 726.497 113.191 735.247 Q113.191 743.973 110.112 748.58 Q107.057 753.163 101.246 753.163 Q95.4363 753.163 92.3576 748.58 Q89.3021 743.973 89.3021 735.247 Q89.3021 726.497 92.3576 721.913 Q95.4363 717.307 101.246 717.307 Z" fill="#000000" fill-rule="nonzero" fill-opacity="1" /><path clip-path="url(#clip000)" d="M96.8715 519.234 L113.191 519.234 L113.191 523.169 L91.2465 523.169 L91.2465 519.234 Q93.9086 516.48 98.4919 511.85 Q103.098 507.197 104.279 505.855 Q106.524 503.331 107.404 501.595 Q108.307 499.836 108.307 498.146 Q108.307 495.392 106.362 493.656 Q104.441 491.92 101.339 491.92 Q99.14 491.92 96.6863 492.683 Q94.2558 493.447 91.478 494.998 L91.478 490.276 Q94.3021 489.142 96.7558 488.563 Q99.2095 487.984 101.246 487.984 Q106.617 487.984 109.811 490.67 Q113.006 493.355 113.006 497.845 Q113.006 499.975 112.196 501.896 Q111.408 503.794 109.302 506.387 Q108.723 507.058 105.621 510.276 Q102.52 513.47 96.8715 519.234 Z" fill="#000000" fill-rule="nonzero" fill-opacity="1" /><path clip-path="url(#clip000)" d="M103.608 263.361 L91.8021 281.81 L103.608 281.81 L103.608 263.361 M102.381 259.287 L108.26 259.287 L108.26 281.81 L113.191 281.81 L113.191 285.699 L108.26 285.699 L108.26 293.847 L103.608 293.847 L103.608 285.699 L88.0058 285.699 L88.0058 281.185 L102.381 259.287 Z" fill="#000000" fill-rule="nonzero" fill-opacity="1" /><path clip-path="url(#clip000)" d="M101.663 45.3807 Q98.515 45.3807 96.6632 47.5334 Q94.8345 49.6862 94.8345 53.4362 Q94.8345 57.163 96.6632 59.3389 Q98.515 61.4917 101.663 61.4917 Q104.811 61.4917 106.64 59.3389 Q108.492 57.163 108.492 53.4362 Q108.492 49.6862 106.64 47.5334 Q104.811 45.3807 101.663 45.3807 M110.946 30.728 L110.946 34.9872 Q109.186 34.1539 107.381 33.7141 Q105.598 33.2743 103.839 33.2743 Q99.2095 33.2743 96.7558 36.3992 Q94.3252 39.5242 93.978 45.8436 Q95.3437 43.8298 97.4039 42.765 Q99.4641 41.677 101.941 41.677 Q107.149 41.677 110.158 44.8483 Q113.191 47.9964 113.191 53.4362 Q113.191 58.7602 110.043 61.9778 Q106.895 65.1954 101.663 65.1954 Q95.6678 65.1954 92.4965 60.6121 Q89.3253 56.0056 89.3253 47.2788 Q89.3253 39.0844 93.2141 34.2233 Q97.103 29.3391 103.654 29.3391 Q105.413 29.3391 107.196 29.6863 Q109.001 30.0335 110.946 30.728 Z" fill="#000000" fill-rule="nonzero" fill-opacity="1" /><polyline clip-path="url(#clip002)" style="stroke:#009af9; stroke-linecap:round; stroke-linejoin:round; stroke-width:12; stroke-opacity:1; fill:none" points="149.191,1193.86 151.945,1193.86 154.7,1193.85 157.454,1193.85 160.209,1193.84 162.963,1193.83 165.718,1193.81 168.472,1193.79 171.227,1193.77 173.981,1193.74 176.735,1193.71 179.49,1193.67 182.244,1193.63 184.999,1193.58 187.753,1193.52 190.508,1193.46 193.262,1193.39 196.017,1193.31 198.771,1193.23 201.526,1193.14 204.28,1193.03 207.034,1192.92 209.789,1192.8 212.543,1192.67 215.298,1192.52 218.052,1192.37 220.807,1192.21 223.561,1192.03 226.316,1191.84 229.07,1191.64 231.825,1191.43 234.579,1191.2 237.333,1190.97 240.088,1190.71 242.842,1190.45 245.597,1190.17 248.351,1189.88 251.106,1189.58 253.86,1189.26 256.615,1188.93 259.369,1188.58 262.124,1188.22 264.878,1187.85 267.632,1187.47 270.387,1187.07 273.141,1186.65 275.896,1186.23 278.65,1185.79 281.405,1185.33 284.159,1184.87 286.914,1184.39 289.668,1183.9 292.423,1183.39 295.177,1182.87 297.932,1182.34 300.686,1181.8 303.44,1181.24 306.195,1180.68 308.949,1180.1 311.704,1179.5 314.458,1178.9 317.213,1178.28 319.967,1177.65 322.722,1177.01 325.476,1176.36 328.231,1175.69 330.985,1175.01 333.739,1174.32 336.494,1173.62 339.248,1172.91 342.003,1172.19 344.757,1171.45 347.512,1170.71 350.266,1169.95 353.021,1169.18 355.775,1168.4 358.53,1167.61 361.284,1166.8 364.038,1165.99 366.793,1165.17 369.547,1164.33 372.302,1163.48 375.056,1162.63 377.811,1161.76 380.565,1160.88 383.32,1159.99 386.074,1159.09 388.829,1158.18 391.583,1157.26 394.337,1156.33 397.092,1155.38 399.846,1154.43 402.601,1153.47 405.355,1152.5 408.11,1151.52 410.864,1150.52 413.619,1149.52 416.373,1148.51 419.128,1147.49 421.882,1146.45 424.636,1145.41 427.391,1144.36 430.145,1143.3 432.9,1142.23 435.654,1141.15 438.409,1140.06 441.163,1138.96 443.918,1137.85 446.672,1136.73 449.427,1135.61 452.181,1134.47 454.936,1133.33 457.69,1132.18 460.444,1131.01 463.199,1129.84 465.953,1128.66 468.708,1127.47 471.462,1126.28 474.217,1125.07 476.971,1123.86 479.726,1122.63 482.48,1121.4 485.235,1120.16 487.989,1118.92 490.743,1117.66 493.498,1116.4 496.252,1115.13 499.007,1113.85 501.761,1112.56 504.516,1111.26 507.27,1109.96 510.025,1108.65 512.779,1107.33 515.534,1106.01 518.288,1104.67 521.042,1103.33 523.797,1101.98 526.551,1100.63 529.306,1099.27 532.06,1097.9 534.815,1096.52 537.569,1095.14 540.324,1093.74 543.078,1092.35 545.833,1090.94 548.587,1089.53 551.341,1088.11 554.096,1086.69 556.85,1085.26 559.605,1083.82 562.359,1082.37 565.114,1080.92 567.868,1079.47 570.623,1078 573.377,1076.53 576.132,1075.06 578.886,1073.57 581.641,1072.09 584.395,1070.59 587.149,1069.09 589.904,1067.59 592.658,1066.07 595.413,1064.56 598.167,1063.03 600.922,1061.51 603.676,1059.97 606.431,1058.43 609.185,1056.88 611.94,1055.33 614.694,1053.78 617.448,1052.22 620.203,1050.65 622.957,1049.08 625.712,1047.5 628.466,1045.91 631.221,1044.33 633.975,1042.73 636.73,1041.14 639.484,1039.53 642.239,1037.93 644.993,1036.31 647.747,1034.7 650.502,1033.07 653.256,1031.45 656.011,1029.81 658.765,1028.18 661.52,1026.54 664.274,1024.89 667.029,1023.24 669.783,1021.59 672.538,1019.93 675.292,1018.27 678.046,1016.6 680.801,1014.93 683.555,1013.25 686.31,1011.57 689.064,1009.89 691.819,1008.2 694.573,1006.51 697.328,1004.81 700.082,1003.11 702.837,1001.41 705.591,999.701 708.345,997.989 711.1,996.274 713.854,994.554 716.609,992.831 719.363,991.104 722.118,989.374 724.872,987.64 727.627,985.902 730.381,984.161 733.136,982.416 735.89,980.668 738.645,978.916 741.399,977.161 744.153,975.402 746.908,973.64 749.662,971.875 752.417,970.106 755.171,968.334 757.926,966.559 760.68,964.781 763.435,962.999 766.189,961.215 768.944,959.427 771.698,957.636 774.452,955.842 777.207,954.045 779.961,952.245 782.716,950.442 785.47,948.636 788.225,946.828 790.979,945.016 793.734,943.202 796.488,941.384 799.243,939.564 801.997,937.741 804.751,935.916 807.506,934.087 810.26,932.256 813.015,930.423 815.769,928.586 818.524,926.747 821.278,924.906 824.033,923.062 826.787,921.215 829.542,919.366 832.296,917.514 835.05,915.66 837.805,913.803 840.559,911.944 843.314,910.082 846.068,908.219 848.823,906.352 851.577,904.484 854.332,902.613 857.086,900.739 859.841,898.863 862.595,896.986 865.349,895.106 868.104,893.224 870.858,891.339 873.613,889.452 876.367,887.563 879.122,885.672 881.876,883.779 884.631,881.883 887.385,879.986 890.14,878.087 892.894,876.185 895.649,874.281 898.403,872.376 901.157,870.468 903.912,868.559 906.666,866.647 909.421,864.733 912.175,862.818 914.93,860.901 917.684,858.981 920.439,857.06 923.193,855.137 925.948,853.212 928.702,851.285 931.456,849.356 934.211,847.426 936.965,845.494 939.72,843.559 942.474,841.623 945.229,839.686 947.983,837.746 950.738,835.805 953.492,833.862 956.247,831.918 959.001,829.972 961.755,828.024 964.51,826.074 967.264,824.123 970.019,822.17 972.773,820.215 975.528,818.259 978.282,816.301 981.037,814.342 983.791,812.381 986.546,810.418 989.3,808.454 992.054,806.489 994.809,804.521 997.563,802.553 1000.32,800.583 1003.07,798.611 1005.83,796.638 1008.58,794.663 1011.34,792.687 1014.09,790.709 1016.84,788.73 1019.6,786.75 1022.35,784.768 1025.11,782.785 1027.86,780.8 1030.62,778.814 1033.37,776.827 1036.13,774.838 1038.88,772.848 1041.63,770.856 1044.39,768.863 1047.14,766.869 1049.9,764.874 1052.65,762.877 1055.41,760.879 1058.16,758.88 1060.92,756.879 1063.67,754.877 1066.42,752.874 1069.18,750.869 1071.93,748.863 1074.69,746.856 1077.44,744.848 1080.2,742.839 1082.95,740.828 1085.71,738.816 1088.46,736.803 1091.21,734.789 1093.97,732.773 1096.72,730.756 1099.48,728.739 1102.23,726.72 1104.99,724.7 1107.74,722.678 1110.5,720.656 1113.25,718.632 1116.01,716.608 1118.76,714.582 1121.51,712.555 1124.27,710.527 1127.02,708.498 1129.78,706.468 1132.53,704.436 1135.29,702.404 1138.04,700.37 1140.8,698.336 1143.55,696.3 1146.3,694.263 1149.06,692.225 1151.81,690.186 1154.57,688.146 1157.32,686.105 1160.08,684.063 1162.83,682.02 1165.59,679.976 1168.34,677.931 1171.09,675.884 1173.85,673.837 1176.6,671.789 1179.36,669.74 1182.11,667.69 1184.87,665.639 1187.62,663.587 1190.38,661.534 1193.13,659.48 1195.88,657.425 1198.64,655.369 1201.39,653.312 1204.15,651.254 1206.9,649.196 1209.66,647.136 1212.41,645.075 1215.17,643.014 1217.92,640.951 1220.67,638.888 1223.43,636.824 1226.18,634.758 1228.94,632.692 1231.69,630.625 1234.45,628.557 1237.2,626.489 1239.96,624.419 1242.71,622.348 1245.46,620.277 1248.22,618.204 1250.97,616.131 1253.73,614.057 1256.48,611.982 1259.24,609.906 1261.99,607.83 1264.75,605.752 1267.5,603.674 1270.25,601.595 1273.01,599.515 1275.76,597.434 1278.52,595.352 1281.27,593.27 1284.03,591.187 1286.78,589.102 1289.54,587.017 1292.29,584.932 1295.04,582.845 1297.8,580.758 1300.55,578.67 1303.31,576.581 1306.06,574.491 1308.82,572.4 1311.57,570.309 1314.33,568.217 1317.08,566.124 1319.83,564.03 1322.59,561.936 1325.34,559.841 1328.1,557.745 1330.85,555.648 1333.61,553.551 1336.36,551.452 1339.12,549.353 1341.87,547.254 1344.62,545.153 1347.38,543.052 1350.13,540.95 1352.89,538.847 1355.64,536.744 1358.4,534.64 1361.15,532.535 1363.91,530.429 1366.66,528.323 1369.41,526.216 1372.17,524.108 1374.92,522 1377.68,519.89 1380.43,517.78 1383.19,515.67 1385.94,513.559 1388.7,511.446 1391.45,509.334 1394.21,507.221 1396.96,505.106 1399.71,502.992 1402.47,500.876 1405.22,498.76 1407.98,496.643 1410.73,494.525 1413.49,492.407 1416.24,490.288 1419,488.168 1421.75,486.049 1424.5,483.927 1427.26,481.806 1430.01,479.684 1432.77,477.56 1435.52,475.437 1438.28,473.313 1441.03,471.188 1443.79,469.062 1446.54,466.936 1449.29,464.809 1452.05,462.681 1454.8,460.553 1457.56,458.424 1460.31,456.295 1463.07,454.165 1465.82,452.034 1468.58,449.903 1471.33,447.77 1474.08,445.638 1476.84,443.504 1479.59,441.371 1482.35,439.236 1485.1,437.101 1487.86,434.965 1490.61,432.829 1493.37,430.692 1496.12,428.554 1498.87,426.416 1501.63,424.277 1504.38,422.137 1507.14,419.997 1509.89,417.857 1512.65,415.715 1515.4,413.573 1518.16,411.431 1520.91,409.288 1523.66,407.144 1526.42,405 1529.17,402.855 1531.93,400.709 1534.68,398.563 1537.44,396.416 1540.19,394.269 1542.95,392.121 1545.7,389.973 1548.45,387.824 1551.21,385.674 1553.96,383.524 1556.72,381.373 1559.47,379.222 1562.23,377.07 1564.98,374.917 1567.74,372.764 1570.49,370.61 1573.24,368.456 1576,366.301 1578.75,364.146 1581.51,361.99 1584.26,359.833 1587.02,357.676 1589.77,355.519 1592.53,353.36 1595.28,351.202 1598.03,349.042 1600.79,346.882 1603.54,344.722 1606.3,342.561 1609.05,340.399 1611.81,338.237 1614.56,336.075 1617.32,333.911 1620.07,331.748 1622.82,329.583 1625.58,327.419 1628.33,325.253 1631.09,323.087 1633.84,320.921 1636.6,318.754 1639.35,316.586 1642.11,314.418 1644.86,312.249 1647.62,310.08 1650.37,307.911 1653.12,305.741 1655.88,303.57 1658.63,301.398 1661.39,299.227 1664.14,297.054 1666.9,294.882 1669.65,292.708 1672.41,290.534 1675.16,288.36 1677.91,286.185 1680.67,284.009 1683.42,281.833 1686.18,279.657 1688.93,277.48 1691.69,275.302 1694.44,273.124 1697.2,270.945 1699.95,268.767 1702.7,266.587 1705.46,264.407 1708.21,262.226 1710.97,260.045 1713.72,257.863 1716.48,255.681 1719.23,253.499 1721.99,251.316 1724.74,249.132 1727.49,246.948 1730.25,244.763 1733,242.578 1735.76,240.393 1738.51,238.206 1741.27,236.02 1744.02,233.833 1746.78,231.645 1749.53,229.457 1752.28,227.268 1755.04,225.079 1757.79,222.89 1760.55,220.699 1763.3,218.509 1766.06,216.318 1768.81,214.126 1771.57,211.935 1774.32,209.742 1777.07,207.549 1779.83,205.355 1782.58,203.162 1785.34,200.967 1788.09,198.772 1790.85,196.576 1793.6,194.381 1796.36,192.184 1799.11,189.989 1801.86,187.791 1804.62,185.593 1807.37,183.395 1810.13,181.195 1812.88,178.996 1815.64,176.796 1818.39,174.596 1821.15,172.395 1823.9,170.195 1826.65,167.993 1829.41,165.791 1832.16,163.589 1834.92,161.386 1837.67,159.182 1840.43,156.979 1843.18,154.773 1845.94,152.569 1848.69,150.363 1851.44,148.158 1854.2,145.951 1856.95,143.745 1859.71,141.538 1862.46,139.33 1865.22,137.122 1867.97,134.915 1870.73,132.704 1873.48,130.495 1876.23,128.285 1878.99,126.075 1881.74,123.864 1884.5,121.652 1887.25,119.44 1890.01,117.228 1892.76,115.015 1895.52,112.802 1898.27,110.589 1901.03,108.374 1903.78,106.16 1906.53,103.945 1909.29,101.73 1912.04,99.5138 1914.8,97.2975 1917.55,95.0807 1920.31,92.8635 1923.06,90.6459 1925.82,88.4278 1928.57,86.2092 1931.32,83.9902 1934.08,81.7708 1936.83,79.5509 1939.59,77.3306 1942.34,75.1097 1945.1,72.8886 1947.85,70.6669 1950.61,68.4448 1953.36,66.2223 1956.11,63.9993 1958.87,61.7759 1961.62,59.5521 1964.38,57.3278 1967.13,55.1031 1969.89,52.8779 1972.64,50.6523 1975.4,48.4262 1978.15,46.1999 1980.9,43.9729 1983.66,41.7456 1986.41,39.5177 1989.17,37.2896 1991.92,35.0609 1994.68,32.8319 1997.43,30.6024 2000.19,28.3724 2002.94,26.142 2005.69,23.9113 2008.45,21.68 2011.2,19.4483 2013.96,17.2162 2016.71,14.9837 2019.47,12.7508 2022.22,10.5174 2024.98,8.28362 2027.73,6.04939 2030.48,3.81477 2033.24,1.57961 2035.99,-0.655819 2038.75,-2.89174 2041.5,-5.12805 2044.26,-7.36491 2047.01,-9.60209 2049.77,-11.8398 2052.52,-14.0778 2055.27,-16.3163 2058.03,-18.5551 2060.78,-20.7943 2063.54,-23.034 2066.29,-25.2742 2069.05,-27.5147 2071.8,-29.7558 2074.56,-31.9971 2077.31,-34.2389 2080.06,-36.4812 2082.82,-38.7239 2085.57,-40.967 2088.33,-43.2104 2091.08,-45.4543 2093.84,-47.6984 2096.59,-49.9432 2099.35,-52.1887 2102.1,-54.434 2104.85,-56.6799 2107.61,-58.9267 2110.36,-61.1733 2113.12,-63.4204 2115.87,-65.6679 2118.63,-67.9159 2121.38,-70.1642 2124.14,-72.4136 2126.89,-74.6627 2129.64,-76.9123 2132.4,-79.1622 2135.15,-81.4129 2137.91,-83.6639 2140.66,-85.9154 2143.42,-88.1669 2146.17,-90.4186 2148.93,-92.6717 2151.68,-94.9243 2154.44,-97.1781 2157.19,-99.4313 2159.94,-101.686 2162.7,-103.94 2165.45,-106.195 2168.21,-108.451 2170.96,-110.706 2173.72,-112.962 2176.47,-115.219 2179.23,-117.476 2181.98,-119.734 2184.73,-121.991 2187.49,-124.249 2190.24,-126.508 2193,-128.767 2195.75,-131.026 2198.51,-133.286 2201.26,-135.546 2204.02,-137.807 2206.77,-140.068 2209.52,-142.329 2212.28,-144.591 2215.03,-146.853 2217.79,-149.116 2220.54,-151.378 2223.3,-153.642 2226.05,-155.906 2228.81,-158.17 2231.56,-160.434 2234.31,-162.7 2237.07,-164.965 2239.82,-167.231 2242.58,-169.497 2245.33,-171.763 2248.09,-174.03 2250.84,-176.298 2253.6,-178.565 2256.35,-180.833 2259.1,-183.102 2261.86,-185.37 2264.61,-187.64 2267.37,-189.911 2270.12,-192.18 2272.88,-194.45 2275.63,-196.721 2278.39,-198.992 2281.14,-201.264 2283.89,-203.536 2286.65,-205.808 2289.4,-208.08 2292.16,-210.355 2294.91,-212.628 2297.67,-214.903 2300.42,-217.176 2303.18,-219.451 2305.93,-221.727 2308.68,-224.002 2311.44,-226.278 2314.19,-228.555 2316.95,-230.831 2319.7,-233.107 2322.46,-235.385 2325.21,-237.664 2327.97,-239.941 2330.72,-242.221 2333.47,-244.499 2336.23,-246.778 2338.98,-249.058 2341.74,-251.337 2344.49,-253.619 2347.25,-255.9 2350,-258.182 2352.76,-260.463 "/>
<polyline clip-path="url(#clip002)" style="stroke:#e26f46; stroke-linecap:round; stroke-linejoin:round; stroke-width:12; stroke-opacity:1; fill:none" points="149.191,735.212 151.945,734.996 154.7,734.755 157.454,734.487 160.209,734.189 162.963,733.862 165.718,733.502 168.472,733.11 171.227,732.683 173.981,732.22 176.735,731.72 179.49,731.182 182.244,730.604 184.999,729.985 187.753,729.325 190.508,728.624 193.262,727.88 196.017,727.093 198.771,726.264 201.526,725.393 204.28,724.479 207.034,723.524 209.789,722.53 212.543,721.496 215.298,720.425 218.052,719.318 220.807,718.177 223.561,717.005 226.316,715.803 229.07,714.575 231.825,713.323 234.579,712.048 237.333,710.755 240.088,709.445 242.842,708.12 245.597,706.784 248.351,705.439 251.106,704.087 253.86,702.73 256.615,701.371 259.369,700.011 262.124,698.652 264.878,697.295 267.632,695.942 270.387,694.593 273.141,693.251 275.896,691.915 278.65,690.586 281.405,689.265 284.159,687.953 286.914,686.648 289.668,685.353 292.423,684.066 295.177,682.788 297.932,681.519 300.686,680.258 303.44,679.005 306.195,677.761 308.949,676.525 311.704,675.297 314.458,674.077 317.213,672.864 319.967,671.659 322.722,670.461 325.476,669.271 328.231,668.087 330.985,666.911 333.739,665.741 336.494,664.577 339.248,663.42 342.003,662.27 344.757,661.125 347.512,659.987 350.266,658.855 353.021,657.728 355.775,656.608 358.53,655.494 361.284,654.386 364.038,653.283 366.793,652.187 369.547,651.096 372.302,650.012 375.056,648.933 377.811,647.861 380.565,646.794 383.32,645.733 386.074,644.678 388.829,643.629 391.583,642.586 394.337,641.549 397.092,640.518 399.846,639.494 402.601,638.475 405.355,637.462 408.11,636.456 410.864,635.456 413.619,634.462 416.373,633.474 419.128,632.493 421.882,631.518 424.636,630.549 427.391,629.586 430.145,628.631 432.9,627.681 435.654,626.738 438.409,625.801 441.163,624.871 443.918,623.948 446.672,623.031 449.427,622.12 452.181,621.217 454.936,620.319 457.69,619.429 460.444,618.544 463.199,617.667 465.953,616.796 468.708,615.932 471.462,615.074 474.217,614.223 476.971,613.379 479.726,612.541 482.48,611.71 485.235,610.886 487.989,610.068 490.743,609.257 493.498,608.452 496.252,607.655 499.007,606.863 501.761,606.079 504.516,605.3 507.27,604.529 510.025,603.764 512.779,603.005 515.534,602.253 518.288,601.508 521.042,600.769 523.797,600.037 526.551,599.311 529.306,598.592 532.06,597.879 534.815,597.172 537.569,596.472 540.324,595.777 543.078,595.09 545.833,594.408 548.587,593.733 551.341,593.063 554.096,592.4 556.85,591.743 559.605,591.092 562.359,590.447 565.114,589.808 567.868,589.175 570.623,588.548 573.377,587.927 576.132,587.312 578.886,586.702 581.641,586.098 584.395,585.5 587.149,584.908 589.904,584.321 592.658,583.74 595.413,583.164 598.167,582.594 600.922,582.03 603.676,581.471 606.431,580.917 609.185,580.369 611.94,579.826 614.694,579.288 617.448,578.755 620.203,578.228 622.957,577.706 625.712,577.189 628.466,576.677 631.221,576.17 633.975,575.669 636.73,575.172 639.484,574.68 642.239,574.193 644.993,573.71 647.747,573.233 650.502,572.76 653.256,572.292 656.011,571.828 658.765,571.37 661.52,570.915 664.274,570.465 667.029,570.02 669.783,569.579 672.538,569.143 675.292,568.71 678.046,568.282 680.801,567.859 683.555,567.439 686.31,567.024 689.064,566.612 691.819,566.205 694.573,565.801 697.328,565.402 700.082,565.006 702.837,564.615 705.591,564.227 708.345,563.843 711.1,563.463 713.854,563.087 716.609,562.714 719.363,562.345 722.118,561.979 724.872,561.618 727.627,561.259 730.381,560.904 733.136,560.553 735.89,560.205 738.645,559.861 741.399,559.519 744.153,559.181 746.908,558.847 749.662,558.515 752.417,558.187 755.171,557.862 757.926,557.54 760.68,557.222 763.435,556.906 766.189,556.593 768.944,556.283 771.698,555.977 774.452,555.673 777.207,555.372 779.961,555.074 782.716,554.779 785.47,554.486 788.225,554.196 790.979,553.909 793.734,553.625 796.488,553.344 799.243,553.065 801.997,552.788 804.751,552.515 807.506,552.243 810.26,551.975 813.015,551.708 815.769,551.445 818.524,551.183 821.278,550.925 824.033,550.668 826.787,550.414 829.542,550.162 832.296,549.912 835.05,549.665 837.805,549.42 840.559,549.177 843.314,548.937 846.068,548.698 848.823,548.462 851.577,548.228 854.332,547.995 857.086,547.765 859.841,547.537 862.595,547.311 865.349,547.087 868.104,546.865 870.858,546.645 873.613,546.427 876.367,546.211 879.122,545.996 881.876,545.784 884.631,545.573 887.385,545.364 890.14,545.157 892.894,544.951 895.649,544.748 898.403,544.546 901.157,544.346 903.912,544.147 906.666,543.95 909.421,543.755 912.175,543.561 914.93,543.369 917.684,543.179 920.439,542.99 923.193,542.803 925.948,542.617 928.702,542.433 931.456,542.25 934.211,542.069 936.965,541.889 939.72,541.711 942.474,541.534 945.229,541.359 947.983,541.185 950.738,541.012 953.492,540.841 956.247,540.671 959.001,540.503 961.755,540.336 964.51,540.17 967.264,540.005 970.019,539.842 972.773,539.68 975.528,539.519 978.282,539.359 981.037,539.201 983.791,539.044 986.546,538.888 989.3,538.733 992.054,538.58 994.809,538.427 997.563,538.276 1000.32,538.126 1003.07,537.977 1005.83,537.829 1008.58,537.682 1011.34,537.536 1014.09,537.391 1016.84,537.247 1019.6,537.105 1022.35,536.963 1025.11,536.822 1027.86,536.683 1030.62,536.544 1033.37,536.406 1036.13,536.27 1038.88,536.134 1041.63,535.999 1044.39,535.865 1047.14,535.732 1049.9,535.6 1052.65,535.469 1055.41,535.338 1058.16,535.209 1060.92,535.08 1063.67,534.953 1066.42,534.826 1069.18,534.7 1071.93,534.575 1074.69,534.45 1077.44,534.327 1080.2,534.204 1082.95,534.082 1085.71,533.961 1088.46,533.84 1091.21,533.721 1093.97,533.602 1096.72,533.483 1099.48,533.366 1102.23,533.249 1104.99,533.133 1107.74,533.018 1110.5,532.904 1113.25,532.79 1116.01,532.677 1118.76,532.564 1121.51,532.452 1124.27,532.341 1127.02,532.231 1129.78,532.121 1132.53,532.012 1135.29,531.903 1138.04,531.796 1140.8,531.688 1143.55,531.582 1146.3,531.476 1149.06,531.37 1151.81,531.266 1154.57,531.162 1157.32,531.058 1160.08,530.955 1162.83,530.853 1165.59,530.751 1168.34,530.65 1171.09,530.549 1173.85,530.449 1176.6,530.35 1179.36,530.251 1182.11,530.152 1184.87,530.054 1187.62,529.957 1190.38,529.86 1193.13,529.763 1195.88,529.668 1198.64,529.572 1201.39,529.477 1204.15,529.383 1206.9,529.289 1209.66,529.196 1212.41,529.103 1215.17,529.01 1217.92,528.918 1220.67,528.827 1223.43,528.736 1226.18,528.645 1228.94,528.555 1231.69,528.466 1234.45,528.376 1237.2,528.288 1239.96,528.199 1242.71,528.111 1245.46,528.024 1248.22,527.937 1250.97,527.85 1253.73,527.764 1256.48,527.678 1259.24,527.593 1261.99,527.508 1264.75,527.423 1267.5,527.339 1270.25,527.255 1273.01,527.172 1275.76,527.089 1278.52,527.006 1281.27,526.924 1284.03,526.842 1286.78,526.761 1289.54,526.679 1292.29,526.599 1295.04,526.518 1297.8,526.438 1300.55,526.358 1303.31,526.279 1306.06,526.2 1308.82,526.121 1311.57,526.043 1314.33,525.965 1317.08,525.887 1319.83,525.81 1322.59,525.733 1325.34,525.656 1328.1,525.579 1330.85,525.503 1333.61,525.427 1336.36,525.352 1339.12,525.277 1341.87,525.202 1344.62,525.127 1347.38,525.053 1350.13,524.979 1352.89,524.905 1355.64,524.832 1358.4,524.759 1361.15,524.686 1363.91,524.613 1366.66,524.541 1369.41,524.469 1372.17,524.397 1374.92,524.326 1377.68,524.254 1380.43,524.183 1383.19,524.113 1385.94,524.042 1388.7,523.972 1391.45,523.902 1394.21,523.832 1396.96,523.763 1399.71,523.694 1402.47,523.625 1405.22,523.556 1407.98,523.488 1410.73,523.42 1413.49,523.352 1416.24,523.284 1419,523.216 1421.75,523.149 1424.5,523.082 1427.26,523.015 1430.01,522.949 1432.77,522.883 1435.52,522.816 1438.28,522.751 1441.03,522.685 1443.79,522.619 1446.54,522.554 1449.29,522.489 1452.05,522.424 1454.8,522.36 1457.56,522.296 1460.31,522.231 1463.07,522.167 1465.82,522.104 1468.58,522.04 1471.33,521.977 1474.08,521.913 1476.84,521.85 1479.59,521.788 1482.35,521.725 1485.1,521.663 1487.86,521.6 1490.61,521.538 1493.37,521.477 1496.12,521.415 1498.87,521.353 1501.63,521.292 1504.38,521.231 1507.14,521.17 1509.89,521.109 1512.65,521.049 1515.4,520.988 1518.16,520.928 1520.91,520.868 1523.66,520.808 1526.42,520.749 1529.17,520.689 1531.93,520.63 1534.68,520.571 1537.44,520.512 1540.19,520.453 1542.95,520.394 1545.7,520.335 1548.45,520.277 1551.21,520.219 1553.96,520.161 1556.72,520.103 1559.47,520.045 1562.23,519.988 1564.98,519.93 1567.74,519.873 1570.49,519.816 1573.24,519.759 1576,519.702 1578.75,519.645 1581.51,519.589 1584.26,519.532 1587.02,519.476 1589.77,519.42 1592.53,519.364 1595.28,519.308 1598.03,519.252 1600.79,519.197 1603.54,519.141 1606.3,519.086 1609.05,519.031 1611.81,518.976 1614.56,518.921 1617.32,518.866 1620.07,518.812 1622.82,518.757 1625.58,518.703 1628.33,518.649 1631.09,518.595 1633.84,518.541 1636.6,518.487 1639.35,518.433 1642.11,518.38 1644.86,518.326 1647.62,518.273 1650.37,518.22 1653.12,518.166 1655.88,518.113 1658.63,518.061 1661.39,518.008 1664.14,517.955 1666.9,517.903 1669.65,517.85 1672.41,517.798 1675.16,517.746 1677.91,517.694 1680.67,517.642 1683.42,517.59 1686.18,517.538 1688.93,517.487 1691.69,517.435 1694.44,517.384 1697.2,517.332 1699.95,517.281 1702.7,517.23 1705.46,517.179 1708.21,517.128 1710.97,517.077 1713.72,517.027 1716.48,516.976 1719.23,516.926 1721.99,516.875 1724.74,516.825 1727.49,516.775 1730.25,516.725 1733,516.675 1735.76,516.625 1738.51,516.575 1741.27,516.525 1744.02,516.476 1746.78,516.426 1749.53,516.377 1752.28,516.327 1755.04,516.278 1757.79,516.229 1760.55,516.18 1763.3,516.131 1766.06,516.082 1768.81,516.033 1771.57,515.984 1774.32,515.936 1777.07,515.887 1779.83,515.839 1782.58,515.79 1785.34,515.742 1788.09,515.694 1790.85,515.646 1793.6,515.598 1796.36,515.55 1799.11,515.502 1801.86,515.454 1804.62,515.406 1807.37,515.359 1810.13,515.311 1812.88,515.264 1815.64,515.216 1818.39,515.169 1821.15,515.122 1823.9,515.074 1826.65,515.027 1829.41,514.98 1832.16,514.933 1834.92,514.886 1837.67,514.84 1840.43,514.793 1843.18,514.746 1845.94,514.7 1848.69,514.653 1851.44,514.607 1854.2,514.56 1856.95,514.514 1859.71,514.468 1862.46,514.422 1865.22,514.376 1867.97,514.33 1870.73,514.284 1873.48,514.238 1876.23,514.192 1878.99,514.146 1881.74,514.101 1884.5,514.055 1887.25,514.01 1890.01,513.964 1892.76,513.919 1895.52,513.874 1898.27,513.828 1901.03,513.783 1903.78,513.738 1906.53,513.693 1909.29,513.648 1912.04,513.603 1914.8,513.558 1917.55,513.513 1920.31,513.469 1923.06,513.424 1925.82,513.379 1928.57,513.335 1931.32,513.29 1934.08,513.246 1936.83,513.201 1939.59,513.157 1942.34,513.113 1945.1,513.069 1947.85,513.025 1950.61,512.98 1953.36,512.936 1956.11,512.892 1958.87,512.849 1961.62,512.805 1964.38,512.761 1967.13,512.717 1969.89,512.673 1972.64,512.63 1975.4,512.586 1978.15,512.543 1980.9,512.499 1983.66,512.456 1986.41,512.412 1989.17,512.369 1991.92,512.326 1994.68,512.283 1997.43,512.24 2000.19,512.196 2002.94,512.153 2005.69,512.11 2008.45,512.068 2011.2,512.025 2013.96,511.982 2016.71,511.939 2019.47,511.896 2022.22,511.854 2024.98,511.811 2027.73,511.768 2030.48,511.726 2033.24,511.683 2035.99,511.641 2038.75,511.598 2041.5,511.556 2044.26,511.514 2047.01,511.472 2049.77,511.429 2052.52,511.387 2055.27,511.345 2058.03,511.303 2060.78,511.261 2063.54,511.219 2066.29,511.177 2069.05,511.135 2071.8,511.093 2074.56,511.052 2077.31,511.01 2080.06,510.968 2082.82,510.927 2085.57,510.885 2088.33,510.843 2091.08,510.802 2093.84,510.76 2096.59,510.719 2099.35,510.677 2102.1,510.636 2104.85,510.595 2107.61,510.554 2110.36,510.512 2113.12,510.471 2115.87,510.43 2118.63,510.389 2121.38,510.348 2124.14,510.307 2126.89,510.266 2129.64,510.225 2132.4,510.184 2135.15,510.143 2137.91,510.102 2140.66,510.061 2143.42,510.021 2146.17,509.98 2148.93,509.939 2151.68,509.899 2154.44,509.858 2157.19,509.817 2159.94,509.777 2162.7,509.736 2165.45,509.696 2168.21,509.655 2170.96,509.615 2173.72,509.575 2176.47,509.534 2179.23,509.494 2181.98,509.454 2184.73,509.414 2187.49,509.374 2190.24,509.333 2193,509.293 2195.75,509.253 2198.51,509.213 2201.26,509.173 2204.02,509.133 2206.77,509.093 2209.52,509.053 2212.28,509.014 2215.03,508.974 2217.79,508.934 2220.54,508.894 2223.3,508.854 2226.05,508.815 2228.81,508.775 2231.56,508.735 2234.31,508.696 2237.07,508.656 2239.82,508.617 2242.58,508.577 2245.33,508.538 2248.09,508.498 2250.84,508.459 2253.6,508.419 2256.35,508.38 2259.1,508.341 2261.86,508.302 2264.61,508.262 2267.37,508.223 2270.12,508.184 2272.88,508.145 2275.63,508.105 2278.39,508.066 2281.14,508.027 2283.89,507.988 2286.65,507.949 2289.4,507.91 2292.16,507.871 2294.91,507.832 2297.67,507.793 2300.42,507.755 2303.18,507.716 2305.93,507.677 2308.68,507.638 2311.44,507.599 2314.19,507.56 2316.95,507.522 2319.7,507.483 2322.46,507.444 2325.21,507.406 2327.97,507.367 2330.72,507.329 2333.47,507.29 2336.23,507.252 2338.98,507.213 2341.74,507.175 2344.49,507.136 2347.25,507.098 2350,507.059 2352.76,507.021 "/>
<polyline clip-path="url(#clip002)" style="stroke:#3da44d; stroke-linecap:round; stroke-linejoin:round; stroke-width:12; stroke-opacity:1; fill:none" points="149.191,670.817 151.945,668.271 154.7,665.77 157.454,663.311 160.209,660.892 162.963,658.512 165.718,656.169 168.472,653.863 171.227,651.593 173.981,649.362 176.735,647.171 179.49,645.021 182.244,642.916 184.999,640.858 187.753,638.852 190.508,636.901 193.262,635.009 196.017,633.181 198.771,631.42 201.526,629.732 204.28,628.119 207.034,626.586 209.789,625.137 212.543,623.773 215.298,622.497 218.052,621.311 220.807,620.217 223.561,619.216 226.316,618.306 229.07,617.489 231.825,616.762 234.579,616.124 237.333,615.573 240.088,615.105 242.842,614.718 245.597,614.408 248.351,614.17 251.106,613.999 253.86,613.891 256.615,613.84 259.369,613.842 262.124,613.891 264.878,613.982 267.632,614.11 270.387,614.269 273.141,614.456 275.896,614.664 278.65,614.892 281.405,615.134 284.159,615.387 286.914,615.648 289.668,615.914 292.423,616.184 295.177,616.455 297.932,616.725 300.686,616.993 303.44,617.259 306.195,617.52 308.949,617.778 311.704,618.03 314.458,618.278 317.213,618.521 319.967,618.759 322.722,618.993 325.476,619.222 328.231,619.446 330.985,619.667 333.739,619.884 336.494,620.099 339.248,620.31 342.003,620.519 344.757,620.726 347.512,620.931 350.266,621.135 353.021,621.339 355.775,621.541 358.53,621.743 361.284,621.945 364.038,622.147 366.793,622.35 369.547,622.553 372.302,622.757 375.056,622.963 377.811,623.169 380.565,623.376 383.32,623.585 386.074,623.796 388.829,624.008 391.583,624.221 394.337,624.437 397.092,624.654 399.846,624.874 402.601,625.095 405.355,625.318 408.11,625.543 410.864,625.77 413.619,626 416.373,626.231 419.128,626.464 421.882,626.7 424.636,626.937 427.391,627.176 430.145,627.418 432.9,627.661 435.654,627.907 438.409,628.154 441.163,628.403 443.918,628.655 446.672,628.908 449.427,629.163 452.181,629.419 454.936,629.678 457.69,629.938 460.444,630.2 463.199,630.464 465.953,630.729 468.708,630.996 471.462,631.265 474.217,631.535 476.971,631.806 479.726,632.079 482.48,632.353 485.235,632.629 487.989,632.906 490.743,633.184 493.498,633.464 496.252,633.744 499.007,634.026 501.761,634.308 504.516,634.592 507.27,634.877 510.025,635.163 512.779,635.449 515.534,635.737 518.288,636.025 521.042,636.314 523.797,636.603 526.551,636.894 529.306,637.185 532.06,637.476 534.815,637.768 537.569,638.061 540.324,638.354 543.078,638.647 545.833,638.941 548.587,639.235 551.341,639.529 554.096,639.823 556.85,640.118 559.605,640.413 562.359,640.708 565.114,641.003 567.868,641.298 570.623,641.593 573.377,641.888 576.132,642.183 578.886,642.478 581.641,642.773 584.395,643.068 587.149,643.362 589.904,643.656 592.658,643.95 595.413,644.243 598.167,644.537 600.922,644.829 603.676,645.122 606.431,645.414 609.185,645.706 611.94,645.997 614.694,646.287 617.448,646.577 620.203,646.867 622.957,647.156 625.712,647.444 628.466,647.732 631.221,648.019 633.975,648.306 636.73,648.591 639.484,648.876 642.239,649.161 644.993,649.444 647.747,649.727 650.502,650.009 653.256,650.29 656.011,650.571 658.765,650.85 661.52,651.129 664.274,651.407 667.029,651.684 669.783,651.96 672.538,652.235 675.292,652.509 678.046,652.782 680.801,653.055 683.555,653.326 686.31,653.596 689.064,653.866 691.819,654.134 694.573,654.402 697.328,654.668 700.082,654.933 702.837,655.198 705.591,655.461 708.345,655.723 711.1,655.984 713.854,656.244 716.609,656.503 719.363,656.761 722.118,657.018 724.872,657.274 727.627,657.528 730.381,657.782 733.136,658.034 735.89,658.285 738.645,658.536 741.399,658.785 744.153,659.032 746.908,659.279 749.662,659.525 752.417,659.769 755.171,660.012 757.926,660.254 760.68,660.495 763.435,660.735 766.189,660.974 768.944,661.211 771.698,661.447 774.452,661.682 777.207,661.916 779.961,662.149 782.716,662.381 785.47,662.611 788.225,662.84 790.979,663.068 793.734,663.295 796.488,663.521 799.243,663.745 801.997,663.968 804.751,664.19 807.506,664.411 810.26,664.631 813.015,664.849 815.769,665.067 818.524,665.283 821.278,665.498 824.033,665.712 826.787,665.924 829.542,666.136 832.296,666.346 835.05,666.555 837.805,666.763 840.559,666.969 843.314,667.175 846.068,667.379 848.823,667.582 851.577,667.784 854.332,667.985 857.086,668.185 859.841,668.383 862.595,668.581 865.349,668.777 868.104,668.972 870.858,669.166 873.613,669.358 876.367,669.55 879.122,669.74 881.876,669.93 884.631,670.118 887.385,670.305 890.14,670.491 892.894,670.675 895.649,670.859 898.403,671.042 901.157,671.223 903.912,671.403 906.666,671.582 909.421,671.76 912.175,671.937 914.93,672.113 917.684,672.288 920.439,672.461 923.193,672.634 925.948,672.806 928.702,672.976 931.456,673.145 934.211,673.313 936.965,673.481 939.72,673.647 942.474,673.812 945.229,673.976 947.983,674.139 950.738,674.301 953.492,674.462 956.247,674.621 959.001,674.78 961.755,674.938 964.51,675.095 967.264,675.251 970.019,675.405 972.773,675.559 975.528,675.712 978.282,675.863 981.037,676.014 983.791,676.164 986.546,676.313 989.3,676.46 992.054,676.607 994.809,676.753 997.563,676.898 1000.32,677.042 1003.07,677.185 1005.83,677.327 1008.58,677.468 1011.34,677.608 1014.09,677.747 1016.84,677.885 1019.6,678.023 1022.35,678.159 1025.11,678.295 1027.86,678.429 1030.62,678.563 1033.37,678.696 1036.13,678.828 1038.88,678.959 1041.63,679.089 1044.39,679.218 1047.14,679.347 1049.9,679.474 1052.65,679.601 1055.41,679.727 1058.16,679.851 1060.92,679.976 1063.67,680.099 1066.42,680.221 1069.18,680.343 1071.93,680.464 1074.69,680.584 1077.44,680.703 1080.2,680.821 1082.95,680.939 1085.71,681.055 1088.46,681.171 1091.21,681.286 1093.97,681.401 1096.72,681.514 1099.48,681.627 1102.23,681.739 1104.99,681.85 1107.74,681.961 1110.5,682.071 1113.25,682.18 1116.01,682.288 1118.76,682.395 1121.51,682.502 1124.27,682.608 1127.02,682.713 1129.78,682.818 1132.53,682.922 1135.29,683.025 1138.04,683.128 1140.8,683.229 1143.55,683.33 1146.3,683.431 1149.06,683.53 1151.81,683.629 1154.57,683.728 1157.32,683.825 1160.08,683.922 1162.83,684.019 1165.59,684.114 1168.34,684.209 1171.09,684.304 1173.85,684.397 1176.6,684.491 1179.36,684.583 1182.11,684.675 1184.87,684.766 1187.62,684.857 1190.38,684.946 1193.13,685.036 1195.88,685.124 1198.64,685.213 1201.39,685.3 1204.15,685.387 1206.9,685.473 1209.66,685.559 1212.41,685.644 1215.17,685.729 1217.92,685.813 1220.67,685.896 1223.43,685.979 1226.18,686.061 1228.94,686.143 1231.69,686.224 1234.45,686.305 1237.2,686.385 1239.96,686.464 1242.71,686.543 1245.46,686.622 1248.22,686.7 1250.97,686.777 1253.73,686.854 1256.48,686.931 1259.24,687.006 1261.99,687.082 1264.75,687.157 1267.5,687.231 1270.25,687.305 1273.01,687.378 1275.76,687.451 1278.52,687.523 1281.27,687.595 1284.03,687.666 1286.78,687.737 1289.54,687.808 1292.29,687.878 1295.04,687.947 1297.8,688.016 1300.55,688.085 1303.31,688.153 1306.06,688.221 1308.82,688.288 1311.57,688.355 1314.33,688.421 1317.08,688.487 1319.83,688.552 1322.59,688.617 1325.34,688.682 1328.1,688.746 1330.85,688.81 1333.61,688.873 1336.36,688.936 1339.12,688.998 1341.87,689.06 1344.62,689.122 1347.38,689.183 1350.13,689.244 1352.89,689.304 1355.64,689.364 1358.4,689.424 1361.15,689.483 1363.91,689.542 1366.66,689.601 1369.41,689.659 1372.17,689.716 1374.92,689.774 1377.68,689.831 1380.43,689.887 1383.19,689.944 1385.94,690 1388.7,690.055 1391.45,690.11 1394.21,690.165 1396.96,690.219 1399.71,690.273 1402.47,690.327 1405.22,690.381 1407.98,690.434 1410.73,690.486 1413.49,690.539 1416.24,690.591 1419,690.642 1421.75,690.694 1424.5,690.745 1427.26,690.796 1430.01,690.846 1432.77,690.896 1435.52,690.946 1438.28,690.995 1441.03,691.044 1443.79,691.093 1446.54,691.142 1449.29,691.19 1452.05,691.238 1454.8,691.285 1457.56,691.333 1460.31,691.38 1463.07,691.426 1465.82,691.473 1468.58,691.519 1471.33,691.565 1474.08,691.61 1476.84,691.655 1479.59,691.7 1482.35,691.745 1485.1,691.789 1487.86,691.834 1490.61,691.877 1493.37,691.921 1496.12,691.964 1498.87,692.007 1501.63,692.05 1504.38,692.093 1507.14,692.135 1509.89,692.177 1512.65,692.219 1515.4,692.26 1518.16,692.301 1520.91,692.342 1523.66,692.383 1526.42,692.423 1529.17,692.464 1531.93,692.504 1534.68,692.543 1537.44,692.583 1540.19,692.622 1542.95,692.661 1545.7,692.7 1548.45,692.738 1551.21,692.777 1553.96,692.815 1556.72,692.852 1559.47,692.89 1562.23,692.927 1564.98,692.965 1567.74,693.001 1570.49,693.038 1573.24,693.075 1576,693.111 1578.75,693.147 1581.51,693.183 1584.26,693.218 1587.02,693.254 1589.77,693.289 1592.53,693.324 1595.28,693.359 1598.03,693.393 1600.79,693.428 1603.54,693.462 1606.3,693.496 1609.05,693.529 1611.81,693.563 1614.56,693.596 1617.32,693.63 1620.07,693.662 1622.82,693.695 1625.58,693.728 1628.33,693.76 1631.09,693.792 1633.84,693.824 1636.6,693.856 1639.35,693.888 1642.11,693.919 1644.86,693.951 1647.62,693.982 1650.37,694.012 1653.12,694.043 1655.88,694.074 1658.63,694.104 1661.39,694.134 1664.14,694.164 1666.9,694.194 1669.65,694.224 1672.41,694.253 1675.16,694.283 1677.91,694.312 1680.67,694.341 1683.42,694.37 1686.18,694.398 1688.93,694.427 1691.69,694.455 1694.44,694.483 1697.2,694.511 1699.95,694.539 1702.7,694.567 1705.46,694.594 1708.21,694.622 1710.97,694.649 1713.72,694.676 1716.48,694.703 1719.23,694.73 1721.99,694.756 1724.74,694.783 1727.49,694.809 1730.25,694.835 1733,694.861 1735.76,694.887 1738.51,694.913 1741.27,694.938 1744.02,694.964 1746.78,694.989 1749.53,695.014 1752.28,695.039 1755.04,695.064 1757.79,695.089 1760.55,695.113 1763.3,695.138 1766.06,695.162 1768.81,695.186 1771.57,695.21 1774.32,695.234 1777.07,695.258 1779.83,695.282 1782.58,695.305 1785.34,695.329 1788.09,695.352 1790.85,695.375 1793.6,695.398 1796.36,695.421 1799.11,695.444 1801.86,695.466 1804.62,695.489 1807.37,695.511 1810.13,695.533 1812.88,695.555 1815.64,695.577 1818.39,695.599 1821.15,695.621 1823.9,695.643 1826.65,695.664 1829.41,695.686 1832.16,695.707 1834.92,695.728 1837.67,695.749 1840.43,695.77 1843.18,695.791 1845.94,695.812 1848.69,695.832 1851.44,695.853 1854.2,695.873 1856.95,695.894 1859.71,695.914 1862.46,695.934 1865.22,695.954 1867.97,695.974 1870.73,695.993 1873.48,696.013 1876.23,696.033 1878.99,696.052 1881.74,696.071 1884.5,696.091 1887.25,696.11 1890.01,696.129 1892.76,696.148 1895.52,696.167 1898.27,696.185 1901.03,696.204 1903.78,696.222 1906.53,696.241 1909.29,696.259 1912.04,696.277 1914.8,696.296 1917.55,696.314 1920.31,696.332 1923.06,696.349 1925.82,696.367 1928.57,696.385 1931.32,696.402 1934.08,696.42 1936.83,696.437 1939.59,696.455 1942.34,696.472 1945.1,696.489 1947.85,696.506 1950.61,696.523 1953.36,696.54 1956.11,696.556 1958.87,696.573 1961.62,696.59 1964.38,696.606 1967.13,696.623 1969.89,696.639 1972.64,696.655 1975.4,696.671 1978.15,696.687 1980.9,696.703 1983.66,696.719 1986.41,696.735 1989.17,696.751 1991.92,696.766 1994.68,696.782 1997.43,696.798 2000.19,696.813 2002.94,696.828 2005.69,696.844 2008.45,696.859 2011.2,696.874 2013.96,696.889 2016.71,696.904 2019.47,696.919 2022.22,696.934 2024.98,696.948 2027.73,696.963 2030.48,696.977 2033.24,696.992 2035.99,697.006 2038.75,697.021 2041.5,697.035 2044.26,697.049 2047.01,697.063 2049.77,697.077 2052.52,697.091 2055.27,697.105 2058.03,697.119 2060.78,697.133 2063.54,697.147 2066.29,697.16 2069.05,697.174 2071.8,697.187 2074.56,697.201 2077.31,697.214 2080.06,697.228 2082.82,697.241 2085.57,697.254 2088.33,697.267 2091.08,697.28 2093.84,697.293 2096.59,697.306 2099.35,697.319 2102.1,697.332 2104.85,697.344 2107.61,697.357 2110.36,697.369 2113.12,697.382 2115.87,697.394 2118.63,697.407 2121.38,697.419 2124.14,697.431 2126.89,697.444 2129.64,697.456 2132.4,697.468 2135.15,697.48 2137.91,697.492 2140.66,697.504 2143.42,697.516 2146.17,697.527 2148.93,697.539 2151.68,697.551 2154.44,697.562 2157.19,697.574 2159.94,697.586 2162.7,697.597 2165.45,697.608 2168.21,697.62 2170.96,697.631 2173.72,697.642 2176.47,697.653 2179.23,697.664 2181.98,697.676 2184.73,697.687 2187.49,697.697 2190.24,697.708 2193,697.719 2195.75,697.73 2198.51,697.741 2201.26,697.751 2204.02,697.762 2206.77,697.773 2209.52,697.783 2212.28,697.794 2215.03,697.804 2217.79,697.814 2220.54,697.825 2223.3,697.835 2226.05,697.845 2228.81,697.855 2231.56,697.866 2234.31,697.876 2237.07,697.886 2239.82,697.896 2242.58,697.906 2245.33,697.915 2248.09,697.925 2250.84,697.935 2253.6,697.945 2256.35,697.954 2259.1,697.964 2261.86,697.974 2264.61,697.983 2267.37,697.993 2270.12,698.002 2272.88,698.012 2275.63,698.021 2278.39,698.03 2281.14,698.04 2283.89,698.049 2286.65,698.058 2289.4,698.067 2292.16,698.076 2294.91,698.085 2297.67,698.094 2300.42,698.103 2303.18,698.112 2305.93,698.121 2308.68,698.13 2311.44,698.139 2314.19,698.147 2316.95,698.156 2319.7,698.165 2322.46,698.173 2325.21,698.182 2327.97,698.191 2330.72,698.199 2333.47,698.208 2336.23,698.216 2338.98,698.224 2341.74,698.233 2344.49,698.241 2347.25,698.249 2350,698.258 2352.76,698.266 "/>
<path clip-path="url(#clip000)" d="M222.643 300.469 L532.096 300.469 L532.096 93.1086 L222.643 93.1086  Z" fill="#ffffff" fill-rule="evenodd" fill-opacity="1"/>
<polyline clip-path="url(#clip000)" style="stroke:#000000; stroke-linecap:round; stroke-linejoin:round; stroke-width:4; stroke-opacity:1; fill:none" points="222.643,300.469 532.096,300.469 532.096,93.1086 222.643,93.1086 222.643,300.469 "/>
<polyline clip-path="url(#clip000)" style="stroke:#009af9; stroke-linecap:round; stroke-linejoin:round; stroke-width:12; stroke-opacity:1; fill:none" points="247.127,144.949 394.031,144.949 "/>
<path clip-path="url(#clip000)" d="M418.515 151.997 L418.515 136.303 L422.775 136.303 L422.775 151.835 Q422.775 155.516 424.21 157.368 Q425.645 159.196 428.515 159.196 Q431.964 159.196 433.955 156.997 Q435.969 154.798 435.969 151.002 L435.969 136.303 L440.228 136.303 L440.228 162.229 L435.969 162.229 L435.969 158.247 Q434.418 160.608 432.358 161.766 Q430.321 162.9 427.613 162.9 Q423.145 162.9 420.83 160.122 Q418.515 157.344 418.515 151.997 M429.233 135.678 L429.233 135.678 Z" fill="#000000" fill-rule="nonzero" fill-opacity="1" /><path clip-path="url(#clip000)" d="M448.608 126.21 L458.423 126.21 L458.423 129.52 L452.867 129.52 L452.867 165.168 L458.423 165.168 L458.423 168.479 L448.608 168.479 L448.608 126.21 Z" fill="#000000" fill-rule="nonzero" fill-opacity="1" /><path clip-path="url(#clip000)" d="M468.909 158.293 L476.548 158.293 L476.548 131.928 L468.237 133.595 L468.237 129.335 L476.501 127.669 L481.177 127.669 L481.177 158.293 L488.816 158.293 L488.816 162.229 L468.909 162.229 L468.909 158.293 Z" fill="#000000" fill-rule="nonzero" fill-opacity="1" /><path clip-path="url(#clip000)" d="M507.612 126.21 L507.612 168.479 L497.797 168.479 L497.797 165.168 L503.33 165.168 L503.33 129.52 L497.797 129.52 L497.797 126.21 L507.612 126.21 Z" fill="#000000" fill-rule="nonzero" fill-opacity="1" /><polyline clip-path="url(#clip000)" style="stroke:#e26f46; stroke-linecap:round; stroke-linejoin:round; stroke-width:12; stroke-opacity:1; fill:none" points="247.127,196.789 394.031,196.789 "/>
<path clip-path="url(#clip000)" d="M418.515 203.837 L418.515 188.143 L422.775 188.143 L422.775 203.675 Q422.775 207.356 424.21 209.208 Q425.645 211.036 428.515 211.036 Q431.964 211.036 433.955 208.837 Q435.969 206.638 435.969 202.842 L435.969 188.143 L440.228 188.143 L440.228 214.069 L435.969 214.069 L435.969 210.087 Q434.418 212.448 432.358 213.606 Q430.321 214.74 427.613 214.74 Q423.145 214.74 420.83 211.962 Q418.515 209.184 418.515 203.837 M429.233 187.518 L429.233 187.518 Z" fill="#000000" fill-rule="nonzero" fill-opacity="1" /><path clip-path="url(#clip000)" d="M448.608 178.05 L458.423 178.05 L458.423 181.36 L452.867 181.36 L452.867 217.008 L458.423 217.008 L458.423 220.319 L448.608 220.319 L448.608 178.05 Z" fill="#000000" fill-rule="nonzero" fill-opacity="1" /><path clip-path="url(#clip000)" d="M472.126 210.133 L488.446 210.133 L488.446 214.069 L466.501 214.069 L466.501 210.133 Q469.163 207.379 473.747 202.749 Q478.353 198.096 479.534 196.754 Q481.779 194.231 482.659 192.495 Q483.561 190.735 483.561 189.046 Q483.561 186.291 481.617 184.555 Q479.696 182.819 476.594 182.819 Q474.395 182.819 471.941 183.583 Q469.511 184.347 466.733 185.897 L466.733 181.175 Q469.557 180.041 472.011 179.462 Q474.464 178.884 476.501 178.884 Q481.872 178.884 485.066 181.569 Q488.26 184.254 488.26 188.745 Q488.26 190.874 487.45 192.796 Q486.663 194.694 484.557 197.286 Q483.978 197.958 480.876 201.175 Q477.774 204.37 472.126 210.133 Z" fill="#000000" fill-rule="nonzero" fill-opacity="1" /><path clip-path="url(#clip000)" d="M507.612 178.05 L507.612 220.319 L497.797 220.319 L497.797 217.008 L503.33 217.008 L503.33 181.36 L497.797 181.36 L497.797 178.05 L507.612 178.05 Z" fill="#000000" fill-rule="nonzero" fill-opacity="1" /><polyline clip-path="url(#clip000)" style="stroke:#3da44d; stroke-linecap:round; stroke-linejoin:round; stroke-width:12; stroke-opacity:1; fill:none" points="247.127,248.629 394.031,248.629 "/>
<path clip-path="url(#clip000)" d="M418.515 255.677 L418.515 239.983 L422.775 239.983 L422.775 255.515 Q422.775 259.196 424.21 261.048 Q425.645 262.876 428.515 262.876 Q431.964 262.876 433.955 260.677 Q435.969 258.478 435.969 254.682 L435.969 239.983 L440.228 239.983 L440.228 265.909 L435.969 265.909 L435.969 261.927 Q434.418 264.288 432.358 265.446 Q430.321 266.58 427.613 266.58 Q423.145 266.58 420.83 263.802 Q418.515 261.024 418.515 255.677 M429.233 239.358 L429.233 239.358 Z" fill="#000000" fill-rule="nonzero" fill-opacity="1" /><path clip-path="url(#clip000)" d="M459.233 229.937 Q456.131 235.261 454.626 240.469 Q453.122 245.677 453.122 251.024 Q453.122 256.372 454.626 261.626 Q456.154 266.858 459.233 272.159 L455.529 272.159 Q452.057 266.719 450.321 261.464 Q448.608 256.21 448.608 251.024 Q448.608 245.862 450.321 240.631 Q452.034 235.4 455.529 229.937 L459.233 229.937 Z" fill="#000000" fill-rule="nonzero" fill-opacity="1" /><path clip-path="url(#clip000)" d="M471.71 232.622 L471.71 239.983 L480.483 239.983 L480.483 243.293 L471.71 243.293 L471.71 257.367 Q471.71 260.538 472.566 261.441 Q473.446 262.344 476.108 262.344 L480.483 262.344 L480.483 265.909 L476.108 265.909 Q471.177 265.909 469.302 264.08 Q467.427 262.228 467.427 257.367 L467.427 243.293 L464.302 243.293 L464.302 239.983 L467.427 239.983 L467.427 232.622 L471.71 232.622 Z" fill="#000000" fill-rule="nonzero" fill-opacity="1" /><path clip-path="url(#clip000)" d="M485.413 229.937 L489.117 229.937 Q492.589 235.4 494.302 240.631 Q496.038 245.862 496.038 251.024 Q496.038 256.21 494.302 261.464 Q492.589 266.719 489.117 272.159 L485.413 272.159 Q488.492 266.858 489.997 261.626 Q491.524 256.372 491.524 251.024 Q491.524 245.677 489.997 240.469 Q488.492 235.261 485.413 229.937 Z" fill="#000000" fill-rule="nonzero" fill-opacity="1" /></svg>
