<?xml version="1.0" encoding="utf-8"?>
<svg xmlns="http://www.w3.org/2000/svg" xmlns:xlink="http://www.w3.org/1999/xlink" width="600" height="400" viewBox="0 0 2400 1600">
<defs>
  <clipPath id="clip290">
    <rect x="0" y="0" width="2400" height="1600"/>
  </clipPath>
</defs>
<path clip-path="url(#clip290)" d="M0 1600 L2400 1600 L2400 0 L0 0  Z" fill="#ffffff" fill-rule="evenodd" fill-opacity="1"/>
<defs>
  <clipPath id="clip291">
    <rect x="480" y="0" width="1681" height="1600"/>
  </clipPath>
</defs>
<path clip-path="url(#clip290)" d="M149.191 1423.18 L2352.76 1423.18 L2352.76 47.2441 L149.191 47.2441  Z" fill="#ffffff" fill-rule="evenodd" fill-opacity="1"/>
<defs>
  <clipPath id="clip292">
    <rect x="149" y="47" width="2205" height="1377"/>
  </clipPath>
</defs>
<polyline clip-path="url(#clip292)" style="stroke:#000000; stroke-linecap:round; stroke-linejoin:round; stroke-width:2; stroke-opacity:0.1; fill:none" points="149.191,1423.18 149.191,47.2441 "/>
<polyline clip-path="url(#clip292)" style="stroke:#000000; stroke-linecap:round; stroke-linejoin:round; stroke-width:2; stroke-opacity:0.1; fill:none" points="700.082,1423.18 700.082,47.2441 "/>
<polyline clip-path="url(#clip292)" style="stroke:#000000; stroke-linecap:round; stroke-linejoin:round; stroke-width:2; stroke-opacity:0.1; fill:none" points="1250.97,1423.18 1250.97,47.2441 "/>
<polyline clip-path="url(#clip292)" style="stroke:#000000; stroke-linecap:round; stroke-linejoin:round; stroke-width:2; stroke-opacity:0.1; fill:none" points="1801.86,1423.18 1801.86,47.2441 "/>
<polyline clip-path="url(#clip292)" style="stroke:#000000; stroke-linecap:round; stroke-linejoin:round; stroke-width:2; stroke-opacity:0.1; fill:none" points="2352.76,1423.18 2352.76,47.2441 "/>
<polyline clip-path="url(#clip292)" style="stroke:#000000; stroke-linecap:round; stroke-linejoin:round; stroke-width:2; stroke-opacity:0.1; fill:none" points="149.191,1423.18 2352.76,1423.18 "/>
<polyline clip-path="url(#clip292)" style="stroke:#000000; stroke-linecap:round; stroke-linejoin:round; stroke-width:2; stroke-opacity:0.1; fill:none" points="149.191,1193.86 2352.76,1193.86 "/>
<polyline clip-path="url(#clip292)" style="stroke:#000000; stroke-linecap:round; stroke-linejoin:round; stroke-width:2; stroke-opacity:0.1; fill:none" points="149.191,964.535 2352.76,964.535 "/>
<polyline clip-path="url(#clip292)" style="stroke:#000000; stroke-linecap:round; stroke-linejoin:round; stroke-width:2; stroke-opacity:0.1; fill:none" points="149.191,735.212 2352.76,735.212 "/>
<polyline clip-path="url(#clip292)" style="stroke:#000000; stroke-linecap:round; stroke-linejoin:round; stroke-width:2; stroke-opacity:0.1; fill:none" points="149.191,505.889 2352.76,505.889 "/>
<polyline clip-path="url(#clip292)" style="stroke:#000000; stroke-linecap:round; stroke-linejoin:round; stroke-width:2; stroke-opacity:0.1; fill:none" points="149.191,276.567 2352.76,276.567 "/>
<polyline clip-path="url(#clip292)" style="stroke:#000000; stroke-linecap:round; stroke-linejoin:round; stroke-width:2; stroke-opacity:0.1; fill:none" points="149.191,47.2441 2352.76,47.2441 "/>
<polyline clip-path="url(#clip290)" style="stroke:#000000; stroke-linecap:round; stroke-linejoin:round; stroke-width:4; stroke-opacity:1; fill:none" points="149.191,1423.18 2352.76,1423.18 "/>
<polyline clip-path="url(#clip290)" style="stroke:#000000; stroke-linecap:round; stroke-linejoin:round; stroke-width:4; stroke-opacity:1; fill:none" points="149.191,1423.18 149.191,1404.28 "/>
<polyline clip-path="url(#clip290)" style="stroke:#000000; stroke-linecap:round; stroke-linejoin:round; stroke-width:4; stroke-opacity:1; fill:none" points="700.082,1423.18 700.082,1404.28 "/>
<polyline clip-path="url(#clip290)" style="stroke:#000000; stroke-linecap:round; stroke-linejoin:round; stroke-width:4; stroke-opacity:1; fill:none" points="1250.97,1423.18 1250.97,1404.28 "/>
<polyline clip-path="url(#clip290)" style="stroke:#000000; stroke-linecap:round; stroke-linejoin:round; stroke-width:4; stroke-opacity:1; fill:none" points="1801.86,1423.18 1801.86,1404.28 "/>
<polyline clip-path="url(#clip290)" style="stroke:#000000; stroke-linecap:round; stroke-linejoin:round; stroke-width:4; stroke-opacity:1; fill:none" points="2352.76,1423.18 2352.76,1404.28 "/>
<path clip-path="url(#clip290)" d="M149.191 1454.1 Q145.58 1454.1 143.751 1457.66 Q141.946 1461.2 141.946 1468.33 Q141.946 1475.44 143.751 1479.01 Q145.58 1482.55 149.191 1482.55 Q152.825 1482.55 154.631 1479.01 Q156.459 1475.44 156.459 1468.33 Q156.459 1461.2 154.631 1457.66 Q152.825 1454.1 149.191 1454.1 M149.191 1450.39 Q155.001 1450.39 158.057 1455 Q161.135 1459.58 161.135 1468.33 Q161.135 1477.06 158.057 1481.67 Q155.001 1486.25 149.191 1486.25 Q143.381 1486.25 140.302 1481.67 Q137.246 1477.06 137.246 1468.33 Q137.246 1459.58 140.302 1455 Q143.381 1450.39 149.191 1450.39 Z" fill="#000000" fill-rule="nonzero" fill-opacity="1" /><path clip-path="url(#clip290)" d="M694.735 1481.64 L711.054 1481.64 L711.054 1485.58 L689.11 1485.58 L689.11 1481.64 Q691.772 1478.89 696.355 1474.26 Q700.962 1469.61 702.142 1468.27 Q704.388 1465.74 705.267 1464.01 Q706.17 1462.25 706.17 1460.56 Q706.17 1457.8 704.226 1456.07 Q702.304 1454.33 699.203 1454.33 Q697.003 1454.33 694.55 1455.09 Q692.119 1455.86 689.341 1457.41 L689.341 1452.69 Q692.166 1451.55 694.619 1450.97 Q697.073 1450.39 699.11 1450.39 Q704.48 1450.39 707.675 1453.08 Q710.869 1455.77 710.869 1460.26 Q710.869 1462.39 710.059 1464.31 Q709.272 1466.2 707.165 1468.8 Q706.587 1469.47 703.485 1472.69 Q700.383 1475.88 694.735 1481.64 Z" fill="#000000" fill-rule="nonzero" fill-opacity="1" /><path clip-path="url(#clip290)" d="M1253.98 1455.09 L1242.18 1473.54 L1253.98 1473.54 L1253.98 1455.09 M1252.76 1451.02 L1258.64 1451.02 L1258.64 1473.54 L1263.57 1473.54 L1263.57 1477.43 L1258.64 1477.43 L1258.64 1485.58 L1253.98 1485.58 L1253.98 1477.43 L1238.38 1477.43 L1238.38 1472.92 L1252.76 1451.02 Z" fill="#000000" fill-rule="nonzero" fill-opacity="1" /><path clip-path="url(#clip290)" d="M1802.27 1466.44 Q1799.12 1466.44 1797.27 1468.59 Q1795.44 1470.74 1795.44 1474.49 Q1795.44 1478.22 1797.27 1480.39 Q1799.12 1482.55 1802.27 1482.55 Q1805.42 1482.55 1807.25 1480.39 Q1809.1 1478.22 1809.1 1474.49 Q1809.1 1470.74 1807.25 1468.59 Q1805.42 1466.44 1802.27 1466.44 M1811.55 1451.78 L1811.55 1456.04 Q1809.79 1455.21 1807.99 1454.77 Q1806.2 1454.33 1804.45 1454.33 Q1799.82 1454.33 1797.36 1457.45 Q1794.93 1460.58 1794.58 1466.9 Q1795.95 1464.89 1798.01 1463.82 Q1800.07 1462.73 1802.55 1462.73 Q1807.76 1462.73 1810.77 1465.9 Q1813.8 1469.05 1813.8 1474.49 Q1813.8 1479.82 1810.65 1483.03 Q1807.5 1486.25 1802.27 1486.25 Q1796.27 1486.25 1793.1 1481.67 Q1789.93 1477.06 1789.93 1468.33 Q1789.93 1460.14 1793.82 1455.28 Q1797.71 1450.39 1804.26 1450.39 Q1806.02 1450.39 1807.8 1450.74 Q1809.61 1451.09 1811.55 1451.78 Z" fill="#000000" fill-rule="nonzero" fill-opacity="1" /><path clip-path="url(#clip290)" d="M2352.76 1469.17 Q2349.42 1469.17 2347.5 1470.95 Q2345.6 1472.73 2345.6 1475.86 Q2345.6 1478.98 2347.5 1480.77 Q2349.42 1482.55 2352.76 1482.55 Q2356.09 1482.55 2358.01 1480.77 Q2359.93 1478.96 2359.93 1475.86 Q2359.93 1472.73 2358.01 1470.95 Q2356.11 1469.17 2352.76 1469.17 M2348.08 1467.18 Q2345.07 1466.44 2343.38 1464.38 Q2341.71 1462.32 2341.71 1459.35 Q2341.71 1455.21 2344.65 1452.8 Q2347.62 1450.39 2352.76 1450.39 Q2357.92 1450.39 2360.86 1452.8 Q2363.8 1455.21 2363.8 1459.35 Q2363.8 1462.32 2362.11 1464.38 Q2360.44 1466.44 2357.45 1467.18 Q2360.83 1467.96 2362.71 1470.26 Q2364.61 1472.55 2364.61 1475.86 Q2364.61 1480.88 2361.53 1483.57 Q2358.47 1486.25 2352.76 1486.25 Q2347.04 1486.25 2343.96 1483.57 Q2340.9 1480.88 2340.9 1475.86 Q2340.9 1472.55 2342.8 1470.26 Q2344.7 1467.96 2348.08 1467.18 M2346.37 1459.79 Q2346.37 1462.48 2348.03 1463.98 Q2349.72 1465.49 2352.76 1465.49 Q2355.77 1465.49 2357.45 1463.98 Q2359.17 1462.48 2359.17 1459.79 Q2359.17 1457.11 2357.45 1455.6 Q2355.77 1454.1 2352.76 1454.1 Q2349.72 1454.1 2348.03 1455.6 Q2346.37 1457.11 2346.37 1459.79 Z" fill="#000000" fill-rule="nonzero" fill-opacity="1" /><path clip-path="url(#clip290)" d="M1250.03 1522.27 L1250.03 1532.4 L1262.1 1532.4 L1262.1 1536.95 L1250.03 1536.95 L1250.03 1556.3 Q1250.03 1560.66 1251.21 1561.9 Q1252.42 1563.14 1256.08 1563.14 L1262.1 1563.14 L1262.1 1568.04 L1256.08 1568.04 Q1249.3 1568.04 1246.72 1565.53 Q1244.15 1562.98 1244.15 1556.3 L1244.15 1536.95 L1239.85 1536.95 L1239.85 1532.4 L1244.15 1532.4 L1244.15 1522.27 L1250.03 1522.27 Z" fill="#000000" fill-rule="nonzero" fill-opacity="1" /><polyline clip-path="url(#clip290)" style="stroke:#000000; stroke-linecap:round; stroke-linejoin:round; stroke-width:4; stroke-opacity:1; fill:none" points="149.191,1423.18 149.191,47.2441 "/>
<polyline clip-path="url(#clip290)" style="stroke:#000000; stroke-linecap:round; stroke-linejoin:round; stroke-width:4; stroke-opacity:1; fill:none" points="149.191,1423.18 168.089,1423.18 "/>
<polyline clip-path="url(#clip290)" style="stroke:#000000; stroke-linecap:round; stroke-linejoin:round; stroke-width:4; stroke-opacity:1; fill:none" points="149.191,1193.86 168.089,1193.86 "/>
<polyline clip-path="url(#clip290)" style="stroke:#000000; stroke-linecap:round; stroke-linejoin:round; stroke-width:4; stroke-opacity:1; fill:none" points="149.191,964.535 168.089,964.535 "/>
<polyline clip-path="url(#clip290)" style="stroke:#000000; stroke-linecap:round; stroke-linejoin:round; stroke-width:4; stroke-opacity:1; fill:none" points="149.191,735.212 168.089,735.212 "/>
<polyline clip-path="url(#clip290)" style="stroke:#000000; stroke-linecap:round; stroke-linejoin:round; stroke-width:4; stroke-opacity:1; fill:none" points="149.191,505.889 168.089,505.889 "/>
<polyline clip-path="url(#clip290)" style="stroke:#000000; stroke-linecap:round; stroke-linejoin:round; stroke-width:4; stroke-opacity:1; fill:none" points="149.191,276.567 168.089,276.567 "/>
<polyline clip-path="url(#clip290)" style="stroke:#000000; stroke-linecap:round; stroke-linejoin:round; stroke-width:4; stroke-opacity:1; fill:none" points="149.191,47.2441 168.089,47.2441 "/>
<path clip-path="url(#clip290)" d="M51.3162 1423.63 L80.992 1423.63 L80.992 1427.57 L51.3162 1427.57 L51.3162 1423.63 Z" fill="#000000" fill-rule="nonzero" fill-opacity="1" /><path clip-path="url(#clip290)" d="M101.663 1421.32 Q98.515 1421.32 96.6632 1423.47 Q94.8345 1425.62 94.8345 1429.37 Q94.8345 1433.1 96.6632 1435.27 Q98.515 1437.43 101.663 1437.43 Q104.811 1437.43 106.64 1435.27 Q108.492 1433.1 108.492 1429.37 Q108.492 1425.62 106.64 1423.47 Q104.811 1421.32 101.663 1421.32 M110.946 1406.66 L110.946 1410.92 Q109.186 1410.09 107.381 1409.65 Q105.598 1409.21 103.839 1409.21 Q99.2095 1409.21 96.7558 1412.33 Q94.3252 1415.46 93.978 1421.78 Q95.3437 1419.77 97.4039 1418.7 Q99.4641 1417.61 101.941 1417.61 Q107.149 1417.61 110.158 1420.78 Q113.191 1423.93 113.191 1429.37 Q113.191 1434.7 110.043 1437.91 Q106.895 1441.13 101.663 1441.13 Q95.6678 1441.13 92.4965 1436.55 Q89.3253 1431.94 89.3253 1423.21 Q89.3253 1415.02 93.2141 1410.16 Q97.103 1405.27 103.654 1405.27 Q105.413 1405.27 107.196 1405.62 Q109.001 1405.97 110.946 1406.66 Z" fill="#000000" fill-rule="nonzero" fill-opacity="1" /><path clip-path="url(#clip290)" d="M50.9921 1194.31 L80.6679 1194.31 L80.6679 1198.24 L50.9921 1198.24 L50.9921 1194.31 Z" fill="#000000" fill-rule="nonzero" fill-opacity="1" /><path clip-path="url(#clip290)" d="M103.608 1180.65 L91.8021 1199.1 L103.608 1199.1 L103.608 1180.65 M102.381 1176.58 L108.26 1176.58 L108.26 1199.1 L113.191 1199.1 L113.191 1202.99 L108.26 1202.99 L108.26 1211.14 L103.608 1211.14 L103.608 1202.99 L88.0058 1202.99 L88.0058 1198.48 L102.381 1176.58 Z" fill="#000000" fill-rule="nonzero" fill-opacity="1" /><path clip-path="url(#clip290)" d="M53.0754 964.986 L82.7512 964.986 L82.7512 968.921 L53.0754 968.921 L53.0754 964.986 Z" fill="#000000" fill-rule="nonzero" fill-opacity="1" /><path clip-path="url(#clip290)" d="M96.8715 977.879 L113.191 977.879 L113.191 981.815 L91.2465 981.815 L91.2465 977.879 Q93.9086 975.125 98.4919 970.495 Q103.098 965.842 104.279 964.5 Q106.524 961.977 107.404 960.241 Q108.307 958.481 108.307 956.792 Q108.307 954.037 106.362 952.301 Q104.441 950.565 101.339 950.565 Q99.14 950.565 96.6863 951.329 Q94.2558 952.093 91.478 953.643 L91.478 948.921 Q94.3021 947.787 96.7558 947.208 Q99.2095 946.63 101.246 946.63 Q106.617 946.63 109.811 949.315 Q113.006 952 113.006 956.491 Q113.006 958.62 112.196 960.542 Q111.408 962.44 109.302 965.032 Q108.723 965.704 105.621 968.921 Q102.52 972.116 96.8715 977.879 Z" fill="#000000" fill-rule="nonzero" fill-opacity="1" /><path clip-path="url(#clip290)" d="M101.246 721.011 Q97.6354 721.011 95.8067 724.575 Q94.0012 728.117 94.0012 735.247 Q94.0012 742.353 95.8067 745.918 Q97.6354 749.46 101.246 749.46 Q104.881 749.46 106.686 745.918 Q108.515 742.353 108.515 735.247 Q108.515 728.117 106.686 724.575 Q104.881 721.011 101.246 721.011 M101.246 717.307 Q107.057 717.307 110.112 721.913 Q113.191 726.497 113.191 735.247 Q113.191 743.973 110.112 748.58 Q107.057 753.163 101.246 753.163 Q95.4363 753.163 92.3576 748.58 Q89.3021 743.973 89.3021 735.247 Q89.3021 726.497 92.3576 721.913 Q95.4363 717.307 101.246 717.307 Z" fill="#000000" fill-rule="nonzero" fill-opacity="1" /><path clip-path="url(#clip290)" d="M96.8715 519.234 L113.191 519.234 L113.191 523.169 L91.2465 523.169 L91.2465 519.234 Q93.9086 516.48 98.4919 511.85 Q103.098 507.197 104.279 505.855 Q106.524 503.331 107.404 501.595 Q108.307 499.836 108.307 498.146 Q108.307 495.392 106.362 493.656 Q104.441 491.92 101.339 491.92 Q99.14 491.92 96.6863 492.683 Q94.2558 493.447 91.478 494.998 L91.478 490.276 Q94.3021 489.142 96.7558 488.563 Q99.2095 487.984 101.246 487.984 Q106.617 487.984 109.811 490.67 Q113.006 493.355 113.006 497.845 Q113.006 499.975 112.196 501.896 Q111.408 503.794 109.302 506.387 Q108.723 507.058 105.621 510.276 Q102.52 513.47 96.8715 519.234 Z" fill="#000000" fill-rule="nonzero" fill-opacity="1" /><path clip-path="url(#clip290)" d="M103.608 263.361 L91.8021 281.81 L103.608 281.81 L103.608 263.361 M102.381 259.287 L108.26 259.287 L108.26 281.81 L113.191 281.81 L113.191 285.699 L108.26 285.699 L108.26 293.847 L103.608 293.847 L103.608 285.699 L88.0058 285.699 L88.0058 281.185 L102.381 259.287 Z" fill="#000000" fill-rule="nonzero" fill-opacity="1" /><path clip-path="url(#clip290)" d="M101.663 45.3807 Q98.515 45.3807 96.6632 47.5334 Q94.8345 49.6862 94.8345 53.4362 Q94.8345 57.163 96.6632 59.3389 Q98.515 61.4917 101.663 61.4917 Q104.811 61.4917 106.64 59.3389 Q108.492 57.163 108.492 53.4362 Q108.492 49.6862 106.64 47.5334 Q104.811 45.3807 101.663 45.3807 M110.946 30.728 L110.946 34.9872 Q109.186 34.1539 107.381 33.7141 Q105.598 33.2743 103.839 33.2743 Q99.2095 33.2743 96.7558 36.3992 Q94.3252 39.5242 93.978 45.8436 Q95.3437 43.8298 97.4039 42.765 Q99.4641 41.677 101.941 41.677 Q107.149 41.677 110.158 44.8483 Q113.191 47.9964 113.191 53.4362 Q113.191 58.7602 110.043 61.9778 Q106.895 65.1954 101.663 65.1954 Q95.6678 65.1954 92.4965 60.6121 Q89.3253 56.0056 89.3253 47.2788 Q89.3253 39.0844 93.2141 34.2233 Q97.103 29.3391 103.654 29.3391 Q105.413 29.3391 107.196 29.6863 Q109.001 30.0335 110.946 30.728 Z" fill="#000000" fill-rule="nonzero" fill-opacity="1" /><polyline clip-path="url(#clip292)" style="stroke:#009af9; stroke-linecap:round; stroke-linejoin:round; stroke-width:12; stroke-opacity:1; fill:none" points="149.191,1193.86 151.945,1193.82 154.7,1193.71 157.454,1193.53 160.209,1193.28 162.963,1192.95 165.718,1192.55 168.472,1192.08 171.227,1191.55 173.981,1190.94 176.735,1190.27 179.49,1189.54 182.244,1188.75 184.999,1187.89 187.753,1186.98 190.508,1186.02 193.262,1185 196.017,1183.93 198.771,1182.82 201.526,1181.66 204.28,1180.45 207.034,1179.21 209.789,1177.94 212.543,1176.62 215.298,1175.28 218.052,1173.9 220.807,1172.5 223.561,1171.08 226.316,1169.62 229.07,1168.15 231.825,1166.66 234.579,1165.15 237.333,1163.62 240.088,1162.08 242.842,1160.52 245.597,1158.95 248.351,1157.37 251.106,1155.78 253.86,1154.18 256.615,1152.57 259.369,1150.95 262.124,1149.33 264.878,1147.69 267.632,1146.06 270.387,1144.42 273.141,1142.77 275.896,1141.12 278.65,1139.47 281.405,1137.81 284.159,1136.15 286.914,1134.49 289.668,1132.82 292.423,1131.15 295.177,1129.48 297.932,1127.81 300.686,1126.14 303.44,1124.47 306.195,1122.79 308.949,1121.12 311.704,1119.44 314.458,1117.76 317.213,1116.08 319.967,1114.4 322.722,1112.72 325.476,1111.04 328.231,1109.36 330.985,1107.68 333.739,1106 336.494,1104.31 339.248,1102.63 342.003,1100.95 344.757,1099.26 347.512,1097.58 350.266,1095.9 353.021,1094.21 355.775,1092.53 358.53,1090.84 361.284,1089.16 364.038,1087.47 366.793,1085.79 369.547,1084.1 372.302,1082.42 375.056,1080.73 377.811,1079.05 380.565,1077.36 383.32,1075.68 386.074,1073.99 388.829,1072.3 391.583,1070.62 394.337,1068.93 397.092,1067.25 399.846,1065.56 402.601,1063.87 405.355,1062.19 408.11,1060.5 410.864,1058.81 413.619,1057.13 416.373,1055.44 419.128,1053.75 421.882,1052.07 424.636,1050.38 427.391,1048.69 430.145,1047.01 432.9,1045.32 435.654,1043.63 438.409,1041.95 441.163,1040.26 443.918,1038.57 446.672,1036.89 449.427,1035.2 452.181,1033.51 454.936,1031.82 457.69,1030.14 460.444,1028.45 463.199,1026.76 465.953,1025.07 468.708,1023.39 471.462,1021.7 474.217,1020.01 476.971,1018.32 479.726,1016.64 482.48,1014.95 485.235,1013.26 487.989,1011.57 490.743,1009.89 493.498,1008.2 496.252,1006.51 499.007,1004.82 501.761,1003.13 504.516,1001.45 507.27,999.758 510.025,998.071 512.779,996.382 515.534,994.694 518.288,993.006 521.042,991.318 523.797,989.63 526.551,987.942 529.306,986.254 532.06,984.565 534.815,982.877 537.569,981.188 540.324,979.5 543.078,977.812 545.833,976.123 548.587,974.435 551.341,972.746 554.096,971.057 556.85,969.369 559.605,967.68 562.359,965.992 565.114,964.303 567.868,962.614 570.623,960.925 573.377,959.236 576.132,957.548 578.886,955.859 581.641,954.17 584.395,952.481 587.149,950.792 589.904,949.103 592.658,947.414 595.413,945.724 598.167,944.035 600.922,942.346 603.676,940.657 606.431,938.968 609.185,937.278 611.94,935.589 614.694,933.9 617.448,932.21 620.203,930.521 622.957,928.832 625.712,927.142 628.466,925.453 631.221,923.763 633.975,922.073 636.73,920.384 639.484,918.694 642.239,917.004 644.993,915.315 647.747,913.625 650.502,911.935 653.256,910.245 656.011,908.556 658.765,906.866 661.52,905.176 664.274,903.486 667.029,901.796 669.783,900.106 672.538,898.416 675.292,896.726 678.046,895.036 680.801,893.345 683.555,891.655 686.31,889.965 689.064,888.275 691.819,886.585 694.573,884.894 697.328,883.204 700.082,881.514 702.837,879.823 705.591,878.133 708.345,876.443 711.1,874.752 713.854,873.062 716.609,871.371 719.363,869.681 722.118,867.99 724.872,866.299 727.627,864.609 730.381,862.918 733.136,861.228 735.89,859.537 738.645,857.846 741.399,856.155 744.153,854.465 746.908,852.774 749.662,851.083 752.417,849.392 755.171,847.701 757.926,846.01 760.68,844.319 763.435,842.628 766.189,840.937 768.944,839.246 771.698,837.555 774.452,835.864 777.207,834.173 779.961,832.482 782.716,830.791 785.47,829.1 788.225,827.409 790.979,825.718 793.734,824.026 796.488,822.335 799.243,820.644 801.997,818.953 804.751,817.261 807.506,815.57 810.26,813.879 813.015,812.187 815.769,810.496 818.524,808.805 821.278,807.113 824.033,805.422 826.787,803.73 829.542,802.039 832.296,800.348 835.05,798.656 837.805,796.965 840.559,795.273 843.314,793.581 846.068,791.89 848.823,790.198 851.577,788.507 854.332,786.815 857.086,785.123 859.841,783.432 862.595,781.74 865.349,780.048 868.104,778.357 870.858,776.665 873.613,774.973 876.367,773.282 879.122,771.59 881.876,769.898 884.631,768.206 887.385,766.514 890.14,764.823 892.894,763.131 895.649,761.439 898.403,759.747 901.157,758.055 903.912,756.363 906.666,754.672 909.421,752.98 912.175,751.288 914.93,749.596 917.684,747.904 920.439,746.212 923.193,744.52 925.948,742.828 928.702,741.136 931.456,739.444 934.211,737.752 936.965,736.06 939.72,734.368 942.474,732.676 945.229,730.984 947.983,729.291 950.738,727.6 953.492,725.908 956.247,724.215 959.001,722.523 961.755,720.831 964.51,719.139 967.264,717.447 970.019,715.755 972.773,714.063 975.528,712.371 978.282,710.678 981.037,708.986 983.791,707.294 986.546,705.602 989.3,703.91 992.054,702.217 994.809,700.525 997.563,698.833 1000.32,697.141 1003.07,695.449 1005.83,693.756 1008.58,692.064 1011.34,690.372 1014.09,688.68 1016.84,686.987 1019.6,685.295 1022.35,683.603 1025.11,681.91 1027.86,680.218 1030.62,678.526 1033.37,676.834 1036.13,675.141 1038.88,673.449 1041.63,671.757 1044.39,670.064 1047.14,668.372 1049.9,666.679 1052.65,664.988 1055.41,663.295 1058.16,661.603 1060.92,659.91 1063.67,658.218 1066.42,656.525 1069.18,654.833 1071.93,653.141 1074.69,651.449 1077.44,649.757 1080.2,648.064 1082.95,646.372 1085.71,644.679 1088.46,642.987 1091.21,641.294 1093.97,639.602 1096.72,637.91 1099.48,636.217 1102.23,634.525 1104.99,632.832 1107.74,631.14 1110.5,629.447 1113.25,627.755 1116.01,626.063 1118.76,624.37 1121.51,622.678 1124.27,620.985 1127.02,619.293 1129.78,617.6 1132.53,615.908 1135.29,614.216 1138.04,612.523 1140.8,610.831 1143.55,609.138 1146.3,607.446 1149.06,605.753 1151.81,604.061 1154.57,602.369 1157.32,600.676 1160.08,598.984 1162.83,597.291 1165.59,595.599 1168.34,593.906 1171.09,592.214 1173.85,590.521 1176.6,588.829 1179.36,587.137 1182.11,585.444 1184.87,583.752 1187.62,582.059 1190.38,580.367 1193.13,578.674 1195.88,576.982 1198.64,575.289 1201.39,573.597 1204.15,571.905 1206.9,570.212 1209.66,568.52 1212.41,566.827 1215.17,565.135 1217.92,563.442 1220.67,561.75 1223.43,560.057 1226.18,558.365 1228.94,556.672 1231.69,554.98 1234.45,553.287 1237.2,551.595 1239.96,549.903 1242.71,548.21 1245.46,546.518 1248.22,544.825 1250.97,543.133 1253.73,541.44 1256.48,539.748 1259.24,538.055 1261.99,536.363 1264.75,534.67 1267.5,532.978 1270.25,531.285 1273.01,529.593 1275.76,527.9 1278.52,526.208 1281.27,524.515 1284.03,522.823 1286.78,521.13 1289.54,519.438 1292.29,517.745 1295.04,516.053 1297.8,514.361 1300.55,512.668 1303.31,510.976 1306.06,509.283 1308.82,507.591 1311.57,505.898 1314.33,504.206 1317.08,502.513 1319.83,500.821 1322.59,499.128 1325.34,497.436 1328.1,495.743 1330.85,494.051 1333.61,492.358 1336.36,490.666 1339.12,488.973 1341.87,487.281 1344.62,485.588 1347.38,483.896 1350.13,482.203 1352.89,480.511 1355.64,478.818 1358.4,477.126 1361.15,475.433 1363.91,473.741 1366.66,472.049 1369.41,470.356 1372.17,468.663 1374.92,466.971 1377.68,465.279 1380.43,463.586 1383.19,461.894 1385.94,460.201 1388.7,458.508 1391.45,456.816 1394.21,455.124 1396.96,453.431 1399.71,451.739 1402.47,450.046 1405.22,448.354 1407.98,446.661 1410.73,444.969 1413.49,443.276 1416.24,441.584 1419,439.892 1421.75,438.199 1424.5,436.506 1427.26,434.814 1430.01,433.121 1432.77,431.429 1435.52,429.737 1438.28,428.044 1441.03,426.352 1443.79,424.659 1446.54,422.967 1449.29,421.274 1452.05,419.582 1454.8,417.889 1457.56,416.197 1460.31,414.505 1463.07,412.812 1465.82,411.12 1468.58,409.427 1471.33,407.734 1474.08,406.042 1476.84,404.35 1479.59,402.657 1482.35,400.964 1485.1,399.272 1487.86,397.58 1490.61,395.887 1493.37,394.195 1496.12,392.502 1498.87,390.81 1501.63,389.117 1504.38,387.425 1507.14,385.732 1509.89,384.04 1512.65,382.348 1515.4,380.655 1518.16,378.962 1520.91,377.27 1523.66,375.578 1526.42,373.885 1529.17,372.193 1531.93,370.501 1534.68,368.808 1537.44,367.116 1540.19,365.423 1542.95,363.73 1545.7,362.038 1548.45,360.345 1551.21,358.653 1553.96,356.96 1556.72,355.268 1559.47,353.576 1562.23,351.883 1564.98,350.19 1567.74,348.497 1570.49,346.805 1573.24,345.114 1576,343.421 1578.75,341.729 1581.51,340.036 1584.26,338.343 1587.02,336.651 1589.77,334.959 1592.53,333.266 1595.28,331.573 1598.03,329.881 1600.79,328.188 1603.54,326.495 1606.3,324.804 1609.05,323.112 1611.81,321.419 1614.56,319.726 1617.32,318.034 1620.07,316.342 1622.82,314.649 1625.58,312.956 1628.33,311.264 1631.09,309.571 1633.84,307.879 1636.6,306.186 1639.35,304.494 1642.11,302.801 1644.86,301.109 1647.62,299.417 1650.37,297.724 1653.12,296.032 1655.88,294.339 1658.63,292.647 1661.39,290.954 1664.14,289.262 1666.9,287.569 1669.65,285.877 1672.41,284.184 1675.16,282.492 1677.91,280.799 1680.67,279.107 1683.42,277.415 1686.18,275.722 1688.93,274.03 1691.69,272.337 1694.44,270.645 1697.2,268.952 1699.95,267.26 1702.7,265.567 1705.46,263.875 1708.21,262.182 1710.97,260.49 1713.72,258.798 1716.48,257.105 1719.23,255.413 1721.99,253.72 1724.74,252.028 1727.49,250.335 1730.25,248.643 1733,246.95 1735.76,245.258 1738.51,243.566 1741.27,241.873 1744.02,240.181 1746.78,238.488 1749.53,236.796 1752.28,235.103 1755.04,233.411 1757.79,231.718 1760.55,230.026 1763.3,228.334 1766.06,226.641 1768.81,224.949 1771.57,223.256 1774.32,221.564 1777.07,219.872 1779.83,218.179 1782.58,216.487 1785.34,214.794 1788.09,213.102 1790.85,211.409 1793.6,209.717 1796.36,208.025 1799.11,206.332 1801.86,204.64 1804.62,202.947 1807.37,201.255 1810.13,199.563 1812.88,197.87 1815.64,196.178 1818.39,194.485 1821.15,192.793 1823.9,191.101 1826.65,189.408 1829.41,187.716 1832.16,186.023 1834.92,184.331 1837.67,182.639 1840.43,180.946 1843.18,179.254 1845.94,177.562 1848.69,175.869 1851.44,174.177 1854.2,172.484 1856.95,170.792 1859.71,169.1 1862.46,167.407 1865.22,165.715 1867.97,164.023 1870.73,162.33 1873.48,160.638 1876.23,158.946 1878.99,157.253 1881.74,155.561 1884.5,153.868 1887.25,152.176 1890.01,150.484 1892.76,148.791 1895.52,147.099 1898.27,145.407 1901.03,143.714 1903.78,142.022 1906.53,140.33 1909.29,138.638 1912.04,136.945 1914.8,135.253 1917.55,133.561 1920.31,131.868 1923.06,130.176 1925.82,128.484 1928.57,126.791 1931.32,125.099 1934.08,123.407 1936.83,121.715 1939.59,120.022 1942.34,118.33 1945.1,116.638 1947.85,114.945 1950.61,113.253 1953.36,111.561 1956.11,109.869 1958.87,108.176 1961.62,106.484 1964.38,104.792 1967.13,103.1 1969.89,101.407 1972.64,99.7148 1975.4,98.0227 1978.15,96.3304 1980.9,94.638 1983.66,92.9459 1986.41,91.2537 1989.17,89.5613 1991.92,87.8693 1994.68,86.1767 1997.43,84.4846 2000.19,82.7923 2002.94,81.1003 2005.69,79.4078 2008.45,77.7157 2011.2,76.0235 2013.96,74.3316 2016.71,72.6392 2019.47,70.9472 2022.22,69.2548 2024.98,67.563 2027.73,65.8705 2030.48,64.1783 2033.24,62.4861 2035.99,60.794 2038.75,59.1017 2041.5,57.4096 2044.26,55.7174 2047.01,54.0252 2049.77,52.3332 2052.52,50.6409 2055.27,48.949 2058.03,47.2572 2060.78,45.5648 2063.54,43.8728 2066.29,42.1807 2069.05,40.4883 2071.8,38.7963 2074.56,37.1039 2077.31,35.4118 2080.06,33.7198 2082.82,32.0278 2085.57,30.3358 2088.33,28.6437 2091.08,26.9519 2093.84,25.2595 2096.59,23.5675 2099.35,21.8751 2102.1,20.1826 2104.85,18.491 2107.61,16.7987 2110.36,15.1069 2113.12,13.4146 2115.87,11.7232 2118.63,10.0305 2121.38,8.33851 2124.14,6.64671 2126.89,4.95463 2129.64,3.26278 2132.4,1.57059 2135.15,-0.121811 2137.91,-1.81301 2140.66,-3.50558 2143.42,-5.19705 2146.17,-6.88924 2148.93,-8.58191 2151.68,-10.2733 2154.44,-11.9658 2157.19,-13.6572 2159.94,-15.3497 2162.7,-17.0407 2165.45,-18.7333 2168.21,-20.4257 2170.96,-22.1161 2173.72,-23.8093 2176.47,-25.5003 2179.23,-27.1925 2181.98,-28.8845 2184.73,-30.5761 2187.49,-32.2679 2190.24,-33.9605 2193,-35.6522 2195.75,-37.3437 2198.51,-39.0354 2201.26,-40.7282 2204.02,-42.4196 2206.77,-44.112 2209.52,-45.8039 2212.28,-47.4953 2215.03,-49.188 2217.79,-50.8796 2220.54,-52.5712 2223.3,-54.263 2226.05,-55.9549 2228.81,-57.6465 2231.56,-59.3385 2234.31,-61.0309 2237.07,-62.7227 2239.82,-64.4145 2242.58,-66.1062 2245.33,-67.7976 2248.09,-69.4896 2250.84,-71.182 2253.6,-72.873 2256.35,-74.5652 2259.1,-76.2559 2261.86,-77.9486 2264.61,-79.6395 2267.37,-81.332 2270.12,-83.024 2272.88,-84.7152 2275.63,-86.407 2278.39,-88.0984 2281.14,-89.7904 2283.89,-91.4826 2286.65,-93.1728 2289.4,-94.866 2292.16,-96.5571 2294.91,-98.249 2297.67,-99.9404 2300.42,-101.632 2303.18,-103.323 2305.93,-105.015 2308.68,-106.706 2311.44,-108.399 2314.19,-110.089 2316.95,-111.781 2319.7,-113.472 2322.46,-115.164 2325.21,-116.857 2327.97,-118.549 2330.72,-120.239 2333.47,-121.931 2336.23,-123.622 2338.98,-125.315 2341.74,-127.006 2344.49,-128.698 2347.25,-130.389 2350,-132.081 2352.76,-133.773 "/>
<polyline clip-path="url(#clip292)" style="stroke:#e26f46; stroke-linecap:round; stroke-linejoin:round; stroke-width:12; stroke-opacity:1; fill:none" points="149.191,735.212 151.945,727.935 154.7,720.651 157.454,713.385 160.209,706.162 162.963,699.007 165.718,691.944 168.472,684.998 171.227,678.19 173.981,671.542 176.735,665.073 179.49,658.802 182.244,652.744 184.999,646.911 187.753,641.316 190.508,635.967 193.262,630.87 196.017,626.03 198.771,621.449 201.526,617.125 204.28,613.056 207.034,609.238 209.789,605.667 212.543,602.336 215.298,599.237 218.052,596.363 220.807,593.704 223.561,591.248 226.316,588.986 229.07,586.905 231.825,584.996 234.579,583.248 237.333,581.65 240.088,580.192 242.842,578.864 245.597,577.657 248.351,576.56 251.106,575.567 253.86,574.667 256.615,573.852 259.369,573.116 262.124,572.452 264.878,571.854 267.632,571.316 270.387,570.832 273.141,570.398 275.896,570.008 278.65,569.659 281.405,569.346 284.159,569.065 286.914,568.814 289.668,568.588 292.423,568.386 295.177,568.204 297.932,568.042 300.686,567.896 303.44,567.766 306.195,567.649 308.949,567.544 311.704,567.451 314.458,567.366 317.213,567.291 319.967,567.223 322.722,567.163 325.476,567.108 328.231,567.059 330.985,567.015 333.739,566.976 336.494,566.939 339.248,566.907 342.003,566.877 344.757,566.849 347.512,566.824 350.266,566.801 353.021,566.78 355.775,566.761 358.53,566.743 361.284,566.726 364.038,566.711 366.793,566.697 369.547,566.684 372.302,566.672 375.056,566.66 377.811,566.65 380.565,566.64 383.32,566.63 386.074,566.622 388.829,566.613 391.583,566.606 394.337,566.598 397.092,566.591 399.846,566.585 402.601,566.578 405.355,566.572 408.11,566.566 410.864,566.56 413.619,566.555 416.373,566.549 419.128,566.544 421.882,566.539 424.636,566.534 427.391,566.529 430.145,566.524 432.9,566.519 435.654,566.515 438.409,566.51 441.163,566.506 443.918,566.501 446.672,566.497 449.427,566.493 452.181,566.489 454.936,566.485 457.69,566.481 460.444,566.477 463.199,566.473 465.953,566.469 468.708,566.465 471.462,566.461 474.217,566.457 476.971,566.454 479.726,566.45 482.48,566.446 485.235,566.442 487.989,566.439 490.743,566.435 493.498,566.431 496.252,566.428 499.007,566.424 501.761,566.42 504.516,566.417 507.27,566.413 510.025,566.409 512.779,566.406 515.534,566.402 518.288,566.399 521.042,566.395 523.797,566.391 526.551,566.388 529.306,566.384 532.06,566.381 534.815,566.377 537.569,566.373 540.324,566.37 543.078,566.366 545.833,566.363 548.587,566.359 551.341,566.356 554.096,566.352 556.85,566.348 559.605,566.345 562.359,566.341 565.114,566.338 567.868,566.334 570.623,566.331 573.377,566.327 576.132,566.324 578.886,566.32 581.641,566.317 584.395,566.313 587.149,566.31 589.904,566.306 592.658,566.303 595.413,566.299 598.167,566.296 600.922,566.292 603.676,566.289 606.431,566.286 609.185,566.282 611.94,566.279 614.694,566.275 617.448,566.272 620.203,566.269 622.957,566.265 625.712,566.262 628.466,566.258 631.221,566.255 633.975,566.252 636.73,566.249 639.484,566.245 642.239,566.242 644.993,566.239 647.747,566.235 650.502,566.232 653.256,566.229 656.011,566.226 658.765,566.223 661.52,566.219 664.274,566.216 667.029,566.213 669.783,566.21 672.538,566.207 675.292,566.204 678.046,566.201 680.801,566.198 683.555,566.195 686.31,566.192 689.064,566.189 691.819,566.186 694.573,566.183 697.328,566.18 700.082,566.177 702.837,566.174 705.591,566.171 708.345,566.168 711.1,566.166 713.854,566.163 716.609,566.16 719.363,566.157 722.118,566.154 724.872,566.152 727.627,566.149 730.381,566.146 733.136,566.144 735.89,566.141 738.645,566.138 741.399,566.136 744.153,566.133 746.908,566.131 749.662,566.128 752.417,566.126 755.171,566.123 757.926,566.121 760.68,566.118 763.435,566.116 766.189,566.113 768.944,566.111 771.698,566.109 774.452,566.106 777.207,566.104 779.961,566.102 782.716,566.1 785.47,566.097 788.225,566.095 790.979,566.093 793.734,566.091 796.488,566.089 799.243,566.087 801.997,566.084 804.751,566.082 807.506,566.08 810.26,566.078 813.015,566.076 815.769,566.074 818.524,566.072 821.278,566.071 824.033,566.069 826.787,566.067 829.542,566.065 832.296,566.063 835.05,566.061 837.805,566.059 840.559,566.058 843.314,566.056 846.068,566.054 848.823,566.053 851.577,566.051 854.332,566.049 857.086,566.048 859.841,566.046 862.595,566.044 865.349,566.043 868.104,566.041 870.858,566.04 873.613,566.038 876.367,566.037 879.122,566.035 881.876,566.034 884.631,566.032 887.385,566.031 890.14,566.03 892.894,566.028 895.649,566.027 898.403,566.026 901.157,566.024 903.912,566.023 906.666,566.022 909.421,566.02 912.175,566.019 914.93,566.018 917.684,566.017 920.439,566.016 923.193,566.014 925.948,566.013 928.702,566.012 931.456,566.011 934.211,566.01 936.965,566.009 939.72,566.008 942.474,566.007 945.229,566.006 947.983,566.005 950.738,566.004 953.492,566.003 956.247,566.002 959.001,566.001 961.755,566 964.51,565.999 967.264,565.998 970.019,565.998 972.773,565.997 975.528,565.996 978.282,565.995 981.037,565.994 983.791,565.993 986.546,565.993 989.3,565.992 992.054,565.991 994.809,565.991 997.563,565.99 1000.32,565.989 1003.07,565.988 1005.83,565.988 1008.58,565.987 1011.34,565.986 1014.09,565.986 1016.84,565.985 1019.6,565.985 1022.35,565.984 1025.11,565.984 1027.86,565.983 1030.62,565.982 1033.37,565.982 1036.13,565.981 1038.88,565.981 1041.63,565.98 1044.39,565.98 1047.14,565.979 1049.9,565.979 1052.65,565.979 1055.41,565.978 1058.16,565.978 1060.92,565.977 1063.67,565.977 1066.42,565.976 1069.18,565.976 1071.93,565.976 1074.69,565.975 1077.44,565.975 1080.2,565.975 1082.95,565.974 1085.71,565.974 1088.46,565.974 1091.21,565.973 1093.97,565.973 1096.72,565.973 1099.48,565.972 1102.23,565.972 1104.99,565.972 1107.74,565.972 1110.5,565.971 1113.25,565.971 1116.01,565.971 1118.76,565.971 1121.51,565.97 1124.27,565.97 1127.02,565.97 1129.78,565.97 1132.53,565.97 1135.29,565.969 1138.04,565.969 1140.8,565.969 1143.55,565.969 1146.3,565.969 1149.06,565.968 1151.81,565.968 1154.57,565.968 1157.32,565.968 1160.08,565.968 1162.83,565.968 1165.59,565.967 1168.34,565.967 1171.09,565.967 1173.85,565.967 1176.6,565.967 1179.36,565.967 1182.11,565.967 1184.87,565.967 1187.62,565.966 1190.38,565.966 1193.13,565.966 1195.88,565.966 1198.64,565.966 1201.39,565.966 1204.15,565.966 1206.9,565.966 1209.66,565.966 1212.41,565.966 1215.17,565.966 1217.92,565.966 1220.67,565.965 1223.43,565.965 1226.18,565.965 1228.94,565.965 1231.69,565.965 1234.45,565.965 1237.2,565.965 1239.96,565.965 1242.71,565.965 1245.46,565.965 1248.22,565.965 1250.97,565.965 1253.73,565.965 1256.48,565.965 1259.24,565.965 1261.99,565.965 1264.75,565.965 1267.5,565.965 1270.25,565.965 1273.01,565.965 1275.76,565.965 1278.52,565.965 1281.27,565.965 1284.03,565.965 1286.78,565.965 1289.54,565.965 1292.29,565.965 1295.04,565.965 1297.8,565.965 1300.55,565.964 1303.31,565.964 1306.06,565.964 1308.82,565.964 1311.57,565.964 1314.33,565.964 1317.08,565.964 1319.83,565.964 1322.59,565.964 1325.34,565.964 1328.1,565.964 1330.85,565.964 1333.61,565.964 1336.36,565.964 1339.12,565.964 1341.87,565.964 1344.62,565.964 1347.38,565.964 1350.13,565.964 1352.89,565.964 1355.64,565.964 1358.4,565.964 1361.15,565.964 1363.91,565.965 1366.66,565.965 1369.41,565.965 1372.17,565.965 1374.92,565.965 1377.68,565.965 1380.43,565.965 1383.19,565.965 1385.94,565.965 1388.7,565.965 1391.45,565.965 1394.21,565.965 1396.96,565.965 1399.71,565.965 1402.47,565.965 1405.22,565.965 1407.98,565.965 1410.73,565.965 1413.49,565.965 1416.24,565.965 1419,565.965 1421.75,565.965 1424.5,565.965 1427.26,565.965 1430.01,565.965 1432.77,565.965 1435.52,565.965 1438.28,565.965 1441.03,565.965 1443.79,565.965 1446.54,565.965 1449.29,565.965 1452.05,565.965 1454.8,565.965 1457.56,565.965 1460.31,565.965 1463.07,565.965 1465.82,565.965 1468.58,565.965 1471.33,565.965 1474.08,565.965 1476.84,565.965 1479.59,565.965 1482.35,565.965 1485.1,565.965 1487.86,565.965 1490.61,565.965 1493.37,565.965 1496.12,565.965 1498.87,565.965 1501.63,565.965 1504.38,565.965 1507.14,565.965 1509.89,565.965 1512.65,565.965 1515.4,565.965 1518.16,565.965 1520.91,565.965 1523.66,565.965 1526.42,565.965 1529.17,565.965 1531.93,565.965 1534.68,565.965 1537.44,565.965 1540.19,565.965 1542.95,565.965 1545.7,565.965 1548.45,565.965 1551.21,565.965 1553.96,565.965 1556.72,565.965 1559.47,565.965 1562.23,565.965 1564.98,565.965 1567.74,565.965 1570.49,565.965 1573.24,565.965 1576,565.965 1578.75,565.965 1581.51,565.965 1584.26,565.965 1587.02,565.965 1589.77,565.965 1592.53,565.965 1595.28,565.965 1598.03,565.965 1600.79,565.965 1603.54,565.965 1606.3,565.965 1609.05,565.965 1611.81,565.965 1614.56,565.965 1617.32,565.965 1620.07,565.965 1622.82,565.965 1625.58,565.965 1628.33,565.965 1631.09,565.965 1633.84,565.965 1636.6,565.965 1639.35,565.965 1642.11,565.966 1644.86,565.966 1647.62,565.966 1650.37,565.966 1653.12,565.966 1655.88,565.966 1658.63,565.966 1661.39,565.966 1664.14,565.966 1666.9,565.966 1669.65,565.966 1672.41,565.966 1675.16,565.966 1677.91,565.966 1680.67,565.966 1683.42,565.966 1686.18,565.966 1688.93,565.967 1691.69,565.967 1694.44,565.967 1697.2,565.967 1699.95,565.967 1702.7,565.967 1705.46,565.967 1708.21,565.967 1710.97,565.967 1713.72,565.967 1716.48,565.967 1719.23,565.967 1721.99,565.968 1724.74,565.968 1727.49,565.968 1730.25,565.968 1733,565.968 1735.76,565.968 1738.51,565.968 1741.27,565.968 1744.02,565.968 1746.78,565.968 1749.53,565.969 1752.28,565.969 1755.04,565.969 1757.79,565.969 1760.55,565.969 1763.3,565.969 1766.06,565.969 1768.81,565.969 1771.57,565.97 1774.32,565.97 1777.07,565.97 1779.83,565.97 1782.58,565.97 1785.34,565.97 1788.09,565.97 1790.85,565.971 1793.6,565.971 1796.36,565.971 1799.11,565.971 1801.86,565.971 1804.62,565.971 1807.37,565.972 1810.13,565.972 1812.88,565.972 1815.64,565.972 1818.39,565.972 1821.15,565.972 1823.9,565.973 1826.65,565.973 1829.41,565.973 1832.16,565.973 1834.92,565.973 1837.67,565.973 1840.43,565.974 1843.18,565.974 1845.94,565.974 1848.69,565.974 1851.44,565.974 1854.2,565.975 1856.95,565.975 1859.71,565.975 1862.46,565.975 1865.22,565.976 1867.97,565.976 1870.73,565.976 1873.48,565.976 1876.23,565.976 1878.99,565.977 1881.74,565.977 1884.5,565.977 1887.25,565.977 1890.01,565.978 1892.76,565.978 1895.52,565.978 1898.27,565.978 1901.03,565.979 1903.78,565.979 1906.53,565.979 1909.29,565.979 1912.04,565.98 1914.8,565.98 1917.55,565.98 1920.31,565.98 1923.06,565.981 1925.82,565.981 1928.57,565.981 1931.32,565.982 1934.08,565.982 1936.83,565.982 1939.59,565.982 1942.34,565.983 1945.1,565.983 1947.85,565.983 1950.61,565.984 1953.36,565.984 1956.11,565.984 1958.87,565.985 1961.62,565.985 1964.38,565.985 1967.13,565.986 1969.89,565.986 1972.64,565.986 1975.4,565.987 1978.15,565.987 1980.9,565.987 1983.66,565.988 1986.41,565.988 1989.17,565.988 1991.92,565.989 1994.68,565.989 1997.43,565.989 2000.19,565.99 2002.94,565.99 2005.69,565.99 2008.45,565.991 2011.2,565.991 2013.96,565.992 2016.71,565.992 2019.47,565.992 2022.22,565.993 2024.98,565.993 2027.73,565.993 2030.48,565.994 2033.24,565.994 2035.99,565.995 2038.75,565.995 2041.5,565.995 2044.26,565.996 2047.01,565.996 2049.77,565.997 2052.52,565.997 2055.27,565.998 2058.03,565.998 2060.78,565.998 2063.54,565.999 2066.29,565.999 2069.05,566 2071.8,566 2074.56,566.001 2077.31,566.001 2080.06,566.001 2082.82,566.002 2085.57,566.002 2088.33,566.003 2091.08,566.003 2093.84,566.004 2096.59,566.004 2099.35,566.005 2102.1,566.005 2104.85,566.006 2107.61,566.006 2110.36,566.007 2113.12,566.007 2115.87,566.007 2118.63,566.008 2121.38,566.008 2124.14,566.009 2126.89,566.009 2129.64,566.01 2132.4,566.01 2135.15,566.011 2137.91,566.011 2140.66,566.012 2143.42,566.012 2146.17,566.013 2148.93,566.014 2151.68,566.014 2154.44,566.015 2157.19,566.015 2159.94,566.016 2162.7,566.016 2165.45,566.017 2168.21,566.017 2170.96,566.018 2173.72,566.018 2176.47,566.019 2179.23,566.019 2181.98,566.02 2184.73,566.02 2187.49,566.021 2190.24,566.022 2193,566.022 2195.75,566.023 2198.51,566.023 2201.26,566.024 2204.02,566.024 2206.77,566.025 2209.52,566.026 2212.28,566.026 2215.03,566.027 2217.79,566.027 2220.54,566.028 2223.3,566.029 2226.05,566.029 2228.81,566.03 2231.56,566.03 2234.31,566.031 2237.07,566.032 2239.82,566.032 2242.58,566.033 2245.33,566.033 2248.09,566.034 2250.84,566.035 2253.6,566.035 2256.35,566.036 2259.1,566.036 2261.86,566.037 2264.61,566.038 2267.37,566.038 2270.12,566.039 2272.88,566.04 2275.63,566.04 2278.39,566.041 2281.14,566.042 2283.89,566.042 2286.65,566.043 2289.4,566.044 2292.16,566.044 2294.91,566.045 2297.67,566.045 2300.42,566.046 2303.18,566.047 2305.93,566.047 2308.68,566.048 2311.44,566.049 2314.19,566.049 2316.95,566.05 2319.7,566.051 2322.46,566.051 2325.21,566.052 2327.97,566.053 2330.72,566.054 2333.47,566.054 2336.23,566.055 2338.98,566.056 2341.74,566.056 2344.49,566.057 2347.25,566.058 2350,566.058 2352.76,566.059 "/>
<polyline clip-path="url(#clip292)" style="stroke:#3da44d; stroke-linecap:round; stroke-linejoin:round; stroke-width:12; stroke-opacity:1; fill:none" points="149.191,523.033 151.945,522.849 154.7,522.903 157.454,523.199 160.209,523.741 162.963,524.53 165.718,525.566 168.472,526.846 171.227,528.367 173.981,530.123 176.735,532.108 179.49,534.313 182.244,536.729 184.999,539.344 187.753,542.148 190.508,545.126 193.262,548.267 196.017,551.555 198.771,554.976 201.526,558.517 204.28,562.161 207.034,565.895 209.789,569.704 212.543,573.574 215.298,577.491 218.052,581.442 220.807,585.415 223.561,589.397 226.316,593.377 229.07,597.346 231.825,601.293 234.579,605.209 237.333,609.088 240.088,612.921 242.842,616.702 245.597,620.427 248.351,624.089 251.106,627.684 253.86,631.209 256.615,634.66 259.369,638.036 262.124,641.333 264.878,644.549 267.632,647.684 270.387,650.735 273.141,653.703 275.896,656.586 278.65,659.384 281.405,662.097 284.159,664.724 286.914,667.266 289.668,669.723 292.423,672.096 295.177,674.385 297.932,676.591 300.686,678.714 303.44,680.757 306.195,682.719 308.949,684.603 311.704,686.41 314.458,688.141 317.213,689.798 319.967,691.383 322.722,692.897 325.476,694.343 328.231,695.722 330.985,697.037 333.739,698.288 336.494,699.479 339.248,700.611 342.003,701.687 344.757,702.708 347.512,703.677 350.266,704.595 353.021,705.465 355.775,706.288 358.53,707.066 361.284,707.802 364.038,708.496 366.793,709.152 369.547,709.771 372.302,710.354 375.056,710.902 377.811,711.419 380.565,711.905 383.32,712.362 386.074,712.791 388.829,713.193 391.583,713.571 394.337,713.925 397.092,714.256 399.846,714.567 402.601,714.857 405.355,715.128 408.11,715.381 410.864,715.617 413.619,715.838 416.373,716.043 419.128,716.234 421.882,716.412 424.636,716.577 427.391,716.731 430.145,716.873 432.9,717.005 435.654,717.128 438.409,717.241 441.163,717.346 443.918,717.442 446.672,717.532 449.427,717.614 452.181,717.69 454.936,717.759 457.69,717.823 460.444,717.882 463.199,717.936 465.953,717.986 468.708,718.031 471.462,718.073 474.217,718.11 476.971,718.145 479.726,718.176 482.48,718.205 485.235,718.231 487.989,718.255 490.743,718.277 493.498,718.296 496.252,718.314 499.007,718.33 501.761,718.345 504.516,718.358 507.27,718.371 510.025,718.382 512.779,718.392 515.534,718.402 518.288,718.411 521.042,718.419 523.797,718.427 526.551,718.434 529.306,718.441 532.06,718.447 534.815,718.454 537.569,718.46 540.324,718.466 543.078,718.473 545.833,718.479 548.587,718.485 551.341,718.492 554.096,718.499 556.85,718.506 559.605,718.513 562.359,718.52 565.114,718.528 567.868,718.536 570.623,718.545 573.377,718.554 576.132,718.563 578.886,718.573 581.641,718.583 584.395,718.594 587.149,718.605 589.904,718.617 592.658,718.63 595.413,718.642 598.167,718.656 600.922,718.67 603.676,718.685 606.431,718.7 609.185,718.715 611.94,718.732 614.694,718.749 617.448,718.766 620.203,718.785 622.957,718.803 625.712,718.823 628.466,718.843 631.221,718.864 633.975,718.885 636.73,718.907 639.484,718.929 642.239,718.952 644.993,718.976 647.747,719.001 650.502,719.026 653.256,719.051 656.011,719.077 658.765,719.104 661.52,719.132 664.274,719.16 667.029,719.188 669.783,719.218 672.538,719.247 675.292,719.278 678.046,719.309 680.801,719.34 683.555,719.373 686.31,719.405 689.064,719.439 691.819,719.473 694.573,719.507 697.328,719.542 700.082,719.577 702.837,719.614 705.591,719.65 708.345,719.687 711.1,719.725 713.854,719.763 716.609,719.802 719.363,719.841 722.118,719.881 724.872,719.921 727.627,719.962 730.381,720.003 733.136,720.044 735.89,720.086 738.645,720.129 741.399,720.172 744.153,720.216 746.908,720.26 749.662,720.304 752.417,720.349 755.171,720.394 757.926,720.44 760.68,720.486 763.435,720.533 766.189,720.58 768.944,720.627 771.698,720.675 774.452,720.723 777.207,720.772 779.961,720.821 782.716,720.87 785.47,720.92 788.225,720.97 790.979,721.02 793.734,721.071 796.488,721.123 799.243,721.174 801.997,721.226 804.751,721.278 807.506,721.331 810.26,721.384 813.015,721.437 815.769,721.49 818.524,721.544 821.278,721.598 824.033,721.653 826.787,721.708 829.542,721.763 832.296,721.818 835.05,721.874 837.805,721.93 840.559,721.986 843.314,722.042 846.068,722.099 848.823,722.156 851.577,722.213 854.332,722.271 857.086,722.329 859.841,722.387 862.595,722.445 865.349,722.503 868.104,722.562 870.858,722.621 873.613,722.68 876.367,722.74 879.122,722.799 881.876,722.859 884.631,722.919 887.385,722.979 890.14,723.04 892.894,723.101 895.649,723.161 898.403,723.222 901.157,723.284 903.912,723.345 906.666,723.407 909.421,723.469 912.175,723.53 914.93,723.593 917.684,723.655 920.439,723.717 923.193,723.78 925.948,723.843 928.702,723.906 931.456,723.969 934.211,724.032 936.965,724.095 939.72,724.159 942.474,724.222 945.229,724.286 947.983,724.35 950.738,724.414 953.492,724.478 956.247,724.542 959.001,724.607 961.755,724.671 964.51,724.736 967.264,724.801 970.019,724.865 972.773,724.93 975.528,724.995 978.282,725.061 981.037,725.126 983.791,725.191 986.546,725.256 989.3,725.322 992.054,725.387 994.809,725.453 997.563,725.519 1000.32,725.585 1003.07,725.65 1005.83,725.716 1008.58,725.782 1011.34,725.848 1014.09,725.914 1016.84,725.981 1019.6,726.047 1022.35,726.113 1025.11,726.179 1027.86,726.246 1030.62,726.312 1033.37,726.379 1036.13,726.445 1038.88,726.512 1041.63,726.578 1044.39,726.645 1047.14,726.712 1049.9,726.778 1052.65,726.845 1055.41,726.912 1058.16,726.978 1060.92,727.045 1063.67,727.112 1066.42,727.179 1069.18,727.245 1071.93,727.312 1074.69,727.379 1077.44,727.446 1080.2,727.513 1082.95,727.58 1085.71,727.646 1088.46,727.713 1091.21,727.78 1093.97,727.847 1096.72,727.914 1099.48,727.98 1102.23,728.047 1104.99,728.114 1107.74,728.181 1110.5,728.247 1113.25,728.314 1116.01,728.381 1118.76,728.447 1121.51,728.514 1124.27,728.581 1127.02,728.647 1129.78,728.714 1132.53,728.78 1135.29,728.846 1138.04,728.913 1140.8,728.979 1143.55,729.046 1146.3,729.112 1149.06,729.178 1151.81,729.244 1154.57,729.31 1157.32,729.376 1160.08,729.442 1162.83,729.508 1165.59,729.574 1168.34,729.64 1171.09,729.706 1173.85,729.772 1176.6,729.837 1179.36,729.903 1182.11,729.968 1184.87,730.034 1187.62,730.099 1190.38,730.164 1193.13,730.23 1195.88,730.295 1198.64,730.36 1201.39,730.425 1204.15,730.49 1206.9,730.555 1209.66,730.619 1212.41,730.684 1215.17,730.749 1217.92,730.813 1220.67,730.877 1223.43,730.942 1226.18,731.006 1228.94,731.07 1231.69,731.134 1234.45,731.198 1237.2,731.262 1239.96,731.325 1242.71,731.389 1245.46,731.453 1248.22,731.516 1250.97,731.579 1253.73,731.642 1256.48,731.706 1259.24,731.769 1261.99,731.831 1264.75,731.894 1267.5,731.957 1270.25,732.019 1273.01,732.082 1275.76,732.144 1278.52,732.206 1281.27,732.268 1284.03,732.33 1286.78,732.392 1289.54,732.454 1292.29,732.515 1295.04,732.577 1297.8,732.638 1300.55,732.699 1303.31,732.76 1306.06,732.821 1308.82,732.882 1311.57,732.943 1314.33,733.003 1317.08,733.063 1319.83,733.124 1322.59,733.184 1325.34,733.244 1328.1,733.304 1330.85,733.363 1333.61,733.423 1336.36,733.482 1339.12,733.542 1341.87,733.601 1344.62,733.66 1347.38,733.719 1350.13,733.777 1352.89,733.836 1355.64,733.894 1358.4,733.953 1361.15,734.011 1363.91,734.069 1366.66,734.127 1369.41,734.184 1372.17,734.242 1374.92,734.299 1377.68,734.356 1380.43,734.414 1383.19,734.47 1385.94,734.527 1388.7,734.584 1391.45,734.64 1394.21,734.697 1396.96,734.753 1399.71,734.809 1402.47,734.865 1405.22,734.92 1407.98,734.976 1410.73,735.031 1413.49,735.086 1416.24,735.141 1419,735.196 1421.75,735.251 1424.5,735.305 1427.26,735.36 1430.01,735.414 1432.77,735.468 1435.52,735.522 1438.28,735.576 1441.03,735.629 1443.79,735.682 1446.54,735.736 1449.29,735.789 1452.05,735.842 1454.8,735.894 1457.56,735.947 1460.31,735.999 1463.07,736.051 1465.82,736.103 1468.58,736.155 1471.33,736.207 1474.08,736.259 1476.84,736.31 1479.59,736.361 1482.35,736.412 1485.1,736.463 1487.86,736.514 1490.61,736.564 1493.37,736.614 1496.12,736.665 1498.87,736.714 1501.63,736.764 1504.38,736.814 1507.14,736.863 1509.89,736.913 1512.65,736.962 1515.4,737.011 1518.16,737.059 1520.91,737.108 1523.66,737.156 1526.42,737.205 1529.17,737.253 1531.93,737.301 1534.68,737.348 1537.44,737.396 1540.19,737.443 1542.95,737.49 1545.7,737.537 1548.45,737.584 1551.21,737.631 1553.96,737.677 1556.72,737.724 1559.47,737.77 1562.23,737.816 1564.98,737.861 1567.74,737.907 1570.49,737.952 1573.24,737.998 1576,738.043 1578.75,738.088 1581.51,738.132 1584.26,738.177 1587.02,738.221 1589.77,738.266 1592.53,738.31 1595.28,738.353 1598.03,738.397 1600.79,738.441 1603.54,738.484 1606.3,738.527 1609.05,738.57 1611.81,738.613 1614.56,738.655 1617.32,738.698 1620.07,738.74 1622.82,738.782 1625.58,738.824 1628.33,738.866 1631.09,738.907 1633.84,738.949 1636.6,738.99 1639.35,739.031 1642.11,739.072 1644.86,739.113 1647.62,739.153 1650.37,739.193 1653.12,739.234 1655.88,739.274 1658.63,739.313 1661.39,739.353 1664.14,739.393 1666.9,739.432 1669.65,739.471 1672.41,739.51 1675.16,739.549 1677.91,739.587 1680.67,739.626 1683.42,739.664 1686.18,739.702 1688.93,739.74 1691.69,739.778 1694.44,739.816 1697.2,739.853 1699.95,739.89 1702.7,739.927 1705.46,739.964 1708.21,740.001 1710.97,740.038 1713.72,740.074 1716.48,740.11 1719.23,740.147 1721.99,740.183 1724.74,740.218 1727.49,740.254 1730.25,740.289 1733,740.325 1735.76,740.36 1738.51,740.395 1741.27,740.429 1744.02,740.464 1746.78,740.499 1749.53,740.533 1752.28,740.567 1755.04,740.601 1757.79,740.635 1760.55,740.668 1763.3,740.702 1766.06,740.735 1768.81,740.768 1771.57,740.801 1774.32,740.834 1777.07,740.867 1779.83,740.9 1782.58,740.932 1785.34,740.964 1788.09,740.996 1790.85,741.028 1793.6,741.06 1796.36,741.091 1799.11,741.123 1801.86,741.154 1804.62,741.185 1807.37,741.216 1810.13,741.247 1812.88,741.278 1815.64,741.308 1818.39,741.339 1821.15,741.369 1823.9,741.399 1826.65,741.429 1829.41,741.459 1832.16,741.488 1834.92,741.518 1837.67,741.547 1840.43,741.576 1843.18,741.605 1845.94,741.634 1848.69,741.663 1851.44,741.691 1854.2,741.72 1856.95,741.748 1859.71,741.776 1862.46,741.804 1865.22,741.832 1867.97,741.86 1870.73,741.887 1873.48,741.915 1876.23,741.942 1878.99,741.969 1881.74,741.996 1884.5,742.023 1887.25,742.05 1890.01,742.076 1892.76,742.103 1895.52,742.129 1898.27,742.155 1901.03,742.181 1903.78,742.207 1906.53,742.233 1909.29,742.259 1912.04,742.284 1914.8,742.309 1917.55,742.335 1920.31,742.36 1923.06,742.385 1925.82,742.409 1928.57,742.434 1931.32,742.459 1934.08,742.483 1936.83,742.507 1939.59,742.531 1942.34,742.555 1945.1,742.579 1947.85,742.603 1950.61,742.627 1953.36,742.65 1956.11,742.674 1958.87,742.697 1961.62,742.72 1964.38,742.743 1967.13,742.766 1969.89,742.788 1972.64,742.811 1975.4,742.834 1978.15,742.856 1980.9,742.878 1983.66,742.9 1986.41,742.922 1989.17,742.944 1991.92,742.966 1994.68,742.987 1997.43,743.009 2000.19,743.03 2002.94,743.052 2005.69,743.073 2008.45,743.094 2011.2,743.115 2013.96,743.135 2016.71,743.156 2019.47,743.177 2022.22,743.197 2024.98,743.217 2027.73,743.238 2030.48,743.258 2033.24,743.278 2035.99,743.298 2038.75,743.317 2041.5,743.337 2044.26,743.357 2047.01,743.376 2049.77,743.395 2052.52,743.414 2055.27,743.434 2058.03,743.453 2060.78,743.471 2063.54,743.49 2066.29,743.509 2069.05,743.527 2071.8,743.546 2074.56,743.564 2077.31,743.582 2080.06,743.6 2082.82,743.618 2085.57,743.636 2088.33,743.654 2091.08,743.672 2093.84,743.689 2096.59,743.707 2099.35,743.724 2102.1,743.742 2104.85,743.759 2107.61,743.776 2110.36,743.793 2113.12,743.81 2115.87,743.826 2118.63,743.843 2121.38,743.86 2124.14,743.876 2126.89,743.893 2129.64,743.909 2132.4,743.925 2135.15,743.941 2137.91,743.957 2140.66,743.973 2143.42,743.989 2146.17,744.005 2148.93,744.02 2151.68,744.036 2154.44,744.051 2157.19,744.067 2159.94,744.082 2162.7,744.097 2165.45,744.112 2168.21,744.127 2170.96,744.142 2173.72,744.157 2176.47,744.171 2179.23,744.186 2181.98,744.201 2184.73,744.215 2187.49,744.229 2190.24,744.244 2193,744.258 2195.75,744.272 2198.51,744.286 2201.26,744.3 2204.02,744.314 2206.77,744.328 2209.52,744.341 2212.28,744.355 2215.03,744.368 2217.79,744.382 2220.54,744.395 2223.3,744.408 2226.05,744.421 2228.81,744.435 2231.56,744.448 2234.31,744.461 2237.07,744.473 2239.82,744.486 2242.58,744.499 2245.33,744.511 2248.09,744.524 2250.84,744.536 2253.6,744.549 2256.35,744.561 2259.1,744.573 2261.86,744.586 2264.61,744.598 2267.37,744.61 2270.12,744.622 2272.88,744.633 2275.63,744.645 2278.39,744.657 2281.14,744.668 2283.89,744.68 2286.65,744.692 2289.4,744.703 2292.16,744.714 2294.91,744.726 2297.67,744.737 2300.42,744.748 2303.18,744.759 2305.93,744.77 2308.68,744.781 2311.44,744.792 2314.19,744.802 2316.95,744.813 2319.7,744.824 2322.46,744.834 2325.21,744.845 2327.97,744.855 2330.72,744.866 2333.47,744.876 2336.23,744.886 2338.98,744.896 2341.74,744.907 2344.49,744.917 2347.25,744.927 2350,744.936 2352.76,744.946 "/>
<path clip-path="url(#clip290)" d="M222.643 300.469 L532.096 300.469 L532.096 93.1086 L222.643 93.1086  Z" fill="#ffffff" fill-rule="evenodd" fill-opacity="1"/>
<polyline clip-path="url(#clip290)" style="stroke:#000000; stroke-linecap:round; stroke-linejoin:round; stroke-width:4; stroke-opacity:1; fill:none" points="222.643,300.469 532.096,300.469 532.096,93.1086 222.643,93.1086 222.643,300.469 "/>
<polyline clip-path="url(#clip290)" style="stroke:#009af9; stroke-linecap:round; stroke-linejoin:round; stroke-width:12; stroke-opacity:1; fill:none" points="247.127,144.949 394.031,144.949 "/>
<path clip-path="url(#clip290)" d="M418.515 151.997 L418.515 136.303 L422.775 136.303 L422.775 151.835 Q422.775 155.516 424.21 157.368 Q425.645 159.196 428.515 159.196 Q431.964 159.196 433.955 156.997 Q435.969 154.798 435.969 151.002 L435.969 136.303 L440.228 136.303 L440.228 162.229 L435.969 162.229 L435.969 158.247 Q434.418 160.608 432.358 161.766 Q430.321 162.9 427.613 162.9 Q423.145 162.9 420.83 160.122 Q418.515 157.344 418.515 151.997 M429.233 135.678 L429.233 135.678 Z" fill="#000000" fill-rule="nonzero" fill-opacity="1" /><path clip-path="url(#clip290)" d="M448.608 126.21 L458.423 126.21 L458.423 129.52 L452.867 129.52 L452.867 165.168 L458.423 165.168 L458.423 168.479 L448.608 168.479 L448.608 126.21 Z" fill="#000000" fill-rule="nonzero" fill-opacity="1" /><path clip-path="url(#clip290)" d="M468.909 158.293 L476.548 158.293 L476.548 131.928 L468.237 133.595 L468.237 129.335 L476.501 127.669 L481.177 127.669 L481.177 158.293 L488.816 158.293 L488.816 162.229 L468.909 162.229 L468.909 158.293 Z" fill="#000000" fill-rule="nonzero" fill-opacity="1" /><path clip-path="url(#clip290)" d="M507.612 126.21 L507.612 168.479 L497.797 168.479 L497.797 165.168 L503.33 165.168 L503.33 129.52 L497.797 129.52 L497.797 126.21 L507.612 126.21 Z" fill="#000000" fill-rule="nonzero" fill-opacity="1" /><polyline clip-path="url(#clip290)" style="stroke:#e26f46; stroke-linecap:round; stroke-linejoin:round; stroke-width:12; stroke-opacity:1; fill:none" points="247.127,196.789 394.031,196.789 "/>
<path clip-path="url(#clip290)" d="M418.515 203.837 L418.515 188.143 L422.775 188.143 L422.775 203.675 Q422.775 207.356 424.21 209.208 Q425.645 211.036 428.515 211.036 Q431.964 211.036 433.955 208.837 Q435.969 206.638 435.969 202.842 L435.969 188.143 L440.228 188.143 L440.228 214.069 L435.969 214.069 L435.969 210.087 Q434.418 212.448 432.358 213.606 Q430.321 214.74 427.613 214.74 Q423.145 214.74 420.83 211.962 Q418.515 209.184 418.515 203.837 M429.233 187.518 L429.233 187.518 Z" fill="#000000" fill-rule="nonzero" fill-opacity="1" /><path clip-path="url(#clip290)" d="M448.608 178.05 L458.423 178.05 L458.423 181.36 L452.867 181.36 L452.867 217.008 L458.423 217.008 L458.423 220.319 L448.608 220.319 L448.608 178.05 Z" fill="#000000" fill-rule="nonzero" fill-opacity="1" /><path clip-path="url(#clip290)" d="M472.126 210.133 L488.446 210.133 L488.446 214.069 L466.501 214.069 L466.501 210.133 Q469.163 207.379 473.747 202.749 Q478.353 198.096 479.534 196.754 Q481.779 194.231 482.659 192.495 Q483.561 190.735 483.561 189.046 Q483.561 186.291 481.617 184.555 Q479.696 182.819 476.594 182.819 Q474.395 182.819 471.941 183.583 Q469.511 184.347 466.733 185.897 L466.733 181.175 Q469.557 180.041 472.011 179.462 Q474.464 178.884 476.501 178.884 Q481.872 178.884 485.066 181.569 Q488.26 184.254 488.26 188.745 Q488.26 190.874 487.45 192.796 Q486.663 194.694 484.557 197.286 Q483.978 197.958 480.876 201.175 Q477.774 204.37 472.126 210.133 Z" fill="#000000" fill-rule="nonzero" fill-opacity="1" /><path clip-path="url(#clip290)" d="M507.612 178.05 L507.612 220.319 L497.797 220.319 L497.797 217.008 L503.33 217.008 L503.33 181.36 L497.797 181.36 L497.797 178.05 L507.612 178.05 Z" fill="#000000" fill-rule="nonzero" fill-opacity="1" /><polyline clip-path="url(#clip290)" style="stroke:#3da44d; stroke-linecap:round; stroke-linejoin:round; stroke-width:12; stroke-opacity:1; fill:none" points="247.127,248.629 394.031,248.629 "/>
<path clip-path="url(#clip290)" d="M418.515 255.677 L418.515 239.983 L422.775 239.983 L422.775 255.515 Q422.775 259.196 424.21 261.048 Q425.645 262.876 428.515 262.876 Q431.964 262.876 433.955 260.677 Q435.969 258.478 435.969 254.682 L435.969 239.983 L440.228 239.983 L440.228 265.909 L435.969 265.909 L435.969 261.927 Q434.418 264.288 432.358 265.446 Q430.321 266.58 427.613 266.58 Q423.145 266.58 420.83 263.802 Q418.515 261.024 418.515 255.677 M429.233 239.358 L429.233 239.358 Z" fill="#000000" fill-rule="nonzero" fill-opacity="1" /><path clip-path="url(#clip290)" d="M459.233 229.937 Q456.131 235.261 454.626 240.469 Q453.122 245.677 453.122 251.024 Q453.122 256.372 454.626 261.626 Q456.154 266.858 459.233 272.159 L455.529 272.159 Q452.057 266.719 450.321 261.464 Q448.608 256.21 448.608 251.024 Q448.608 245.862 450.321 240.631 Q452.034 235.4 455.529 229.937 L459.233 229.937 Z" fill="#000000" fill-rule="nonzero" fill-opacity="1" /><path clip-path="url(#clip290)" d="M471.71 232.622 L471.71 239.983 L480.483 239.983 L480.483 243.293 L471.71 243.293 L471.71 257.367 Q471.71 260.538 472.566 261.441 Q473.446 262.344 476.108 262.344 L480.483 262.344 L480.483 265.909 L476.108 265.909 Q471.177 265.909 469.302 264.08 Q467.427 262.228 467.427 257.367 L467.427 243.293 L464.302 243.293 L464.302 239.983 L467.427 239.983 L467.427 232.622 L471.71 232.622 Z" fill="#000000" fill-rule="nonzero" fill-opacity="1" /><path clip-path="url(#clip290)" d="M485.413 229.937 L489.117 229.937 Q492.589 235.4 494.302 240.631 Q496.038 245.862 496.038 251.024 Q496.038 256.21 494.302 261.464 Q492.589 266.719 489.117 272.159 L485.413 272.159 Q488.492 266.858 489.997 261.626 Q491.524 256.372 491.524 251.024 Q491.524 245.677 489.997 240.469 Q488.492 235.261 485.413 229.937 Z" fill="#000000" fill-rule="nonzero" fill-opacity="1" /></svg>
