<?xml version="1.0" encoding="utf-8"?>
<svg xmlns="http://www.w3.org/2000/svg" xmlns:xlink="http://www.w3.org/1999/xlink" width="600" height="400" viewBox="0 0 2400 1600">
<defs>
  <clipPath id="clip640">
    <rect x="0" y="0" width="2400" height="1600"/>
  </clipPath>
</defs>
<path clip-path="url(#clip640)" d="M0 1600 L2400 1600 L2400 0 L0 0  Z" fill="#ffffff" fill-rule="evenodd" fill-opacity="1"/>
<defs>
  <clipPath id="clip641">
    <rect x="480" y="0" width="1681" height="1600"/>
  </clipPath>
</defs>
<path clip-path="url(#clip640)" d="M149.191 1423.18 L2352.76 1423.18 L2352.76 47.2441 L149.191 47.2441  Z" fill="#ffffff" fill-rule="evenodd" fill-opacity="1"/>
<defs>
  <clipPath id="clip642">
    <rect x="149" y="47" width="2205" height="1377"/>
  </clipPath>
</defs>
<polyline clip-path="url(#clip642)" style="stroke:#000000; stroke-linecap:round; stroke-linejoin:round; stroke-width:2; stroke-opacity:0.1; fill:none" points="149.191,1423.18 149.191,47.2441 "/>
<polyline clip-path="url(#clip642)" style="stroke:#000000; stroke-linecap:round; stroke-linejoin:round; stroke-width:2; stroke-opacity:0.1; fill:none" points="700.082,1423.18 700.082,47.2441 "/>
<polyline clip-path="url(#clip642)" style="stroke:#000000; stroke-linecap:round; stroke-linejoin:round; stroke-width:2; stroke-opacity:0.1; fill:none" points="1250.97,1423.18 1250.97,47.2441 "/>
<polyline clip-path="url(#clip642)" style="stroke:#000000; stroke-linecap:round; stroke-linejoin:round; stroke-width:2; stroke-opacity:0.1; fill:none" points="1801.86,1423.18 1801.86,47.2441 "/>
<polyline clip-path="url(#clip642)" style="stroke:#000000; stroke-linecap:round; stroke-linejoin:round; stroke-width:2; stroke-opacity:0.1; fill:none" points="2352.76,1423.18 2352.76,47.2441 "/>
<polyline clip-path="url(#clip640)" style="stroke:#000000; stroke-linecap:round; stroke-linejoin:round; stroke-width:4; stroke-opacity:1; fill:none" points="149.191,1423.18 2352.76,1423.18 "/>
<polyline clip-path="url(#clip640)" style="stroke:#000000; stroke-linecap:round; stroke-linejoin:round; stroke-width:4; stroke-opacity:1; fill:none" points="149.191,1423.18 149.191,1404.28 "/>
<polyline clip-path="url(#clip640)" style="stroke:#000000; stroke-linecap:round; stroke-linejoin:round; stroke-width:4; stroke-opacity:1; fill:none" points="700.082,1423.18 700.082,1404.28 "/>
<polyline clip-path="url(#clip640)" style="stroke:#000000; stroke-linecap:round; stroke-linejoin:round; stroke-width:4; stroke-opacity:1; fill:none" points="1250.97,1423.18 1250.97,1404.28 "/>
<polyline clip-path="url(#clip640)" style="stroke:#000000; stroke-linecap:round; stroke-linejoin:round; stroke-width:4; stroke-opacity:1; fill:none" points="1801.86,1423.18 1801.86,1404.28 "/>
<polyline clip-path="url(#clip640)" style="stroke:#000000; stroke-linecap:round; stroke-linejoin:round; stroke-width:4; stroke-opacity:1; fill:none" points="2352.76,1423.18 2352.76,1404.28 "/>
<path clip-path="url(#clip640)" d="M149.191 1454.1 Q145.58 1454.1 143.751 1457.66 Q141.946 1461.2 141.946 1468.33 Q141.946 1475.44 143.751 1479.01 Q145.58 1482.55 149.191 1482.55 Q152.825 1482.55 154.631 1479.01 Q156.459 1475.44 156.459 1468.33 Q156.459 1461.2 154.631 1457.66 Q152.825 1454.1 149.191 1454.1 M149.191 1450.39 Q155.001 1450.39 158.057 1455 Q161.135 1459.58 161.135 1468.33 Q161.135 1477.06 158.057 1481.67 Q155.001 1486.25 149.191 1486.25 Q143.381 1486.25 140.302 1481.67 Q137.246 1477.06 137.246 1468.33 Q137.246 1459.58 140.302 1455 Q143.381 1450.39 149.191 1450.39 Z" fill="#000000" fill-rule="nonzero" fill-opacity="1" /><path clip-path="url(#clip640)" d="M694.735 1481.64 L711.054 1481.64 L711.054 1485.58 L689.11 1485.58 L689.11 1481.64 Q691.772 1478.89 696.355 1474.26 Q700.962 1469.61 702.142 1468.27 Q704.388 1465.74 705.267 1464.01 Q706.17 1462.25 706.17 1460.56 Q706.17 1457.8 704.226 1456.07 Q702.304 1454.33 699.203 1454.33 Q697.003 1454.33 694.55 1455.09 Q692.119 1455.86 689.341 1457.41 L689.341 1452.69 Q692.166 1451.55 694.619 1450.97 Q697.073 1450.39 699.11 1450.39 Q704.48 1450.39 707.675 1453.08 Q710.869 1455.77 710.869 1460.26 Q710.869 1462.39 710.059 1464.31 Q709.272 1466.2 707.165 1468.8 Q706.587 1469.47 703.485 1472.69 Q700.383 1475.88 694.735 1481.64 Z" fill="#000000" fill-rule="nonzero" fill-opacity="1" /><path clip-path="url(#clip640)" d="M1253.98 1455.09 L1242.18 1473.54 L1253.98 1473.54 L1253.98 1455.09 M1252.76 1451.02 L1258.64 1451.02 L1258.64 1473.54 L1263.57 1473.54 L1263.57 1477.43 L1258.64 1477.43 L1258.64 1485.58 L1253.98 1485.58 L1253.98 1477.43 L1238.38 1477.43 L1238.38 1472.92 L1252.76 1451.02 Z" fill="#000000" fill-rule="nonzero" fill-opacity="1" /><path clip-path="url(#clip640)" d="M1802.27 1466.44 Q1799.12 1466.44 1797.27 1468.59 Q1795.44 1470.74 1795.44 1474.49 Q1795.44 1478.22 1797.27 1480.39 Q1799.12 1482.55 1802.27 1482.55 Q1805.42 1482.55 1807.25 1480.39 Q1809.1 1478.22 1809.1 1474.49 Q1809.1 1470.74 1807.25 1468.59 Q1805.42 1466.44 1802.27 1466.44 M1811.55 1451.78 L1811.55 1456.04 Q1809.79 1455.21 1807.99 1454.77 Q1806.2 1454.33 1804.45 1454.33 Q1799.82 1454.33 1797.36 1457.45 Q1794.93 1460.58 1794.58 1466.9 Q1795.95 1464.89 1798.01 1463.82 Q1800.07 1462.73 1802.55 1462.73 Q1807.76 1462.73 1810.77 1465.9 Q1813.8 1469.05 1813.8 1474.49 Q1813.8 1479.82 1810.65 1483.03 Q1807.5 1486.25 1802.27 1486.25 Q1796.27 1486.25 1793.1 1481.67 Q1789.93 1477.06 1789.93 1468.33 Q1789.93 1460.14 1793.82 1455.28 Q1797.71 1450.39 1804.26 1450.39 Q1806.02 1450.39 1807.8 1450.74 Q1809.61 1451.09 1811.55 1451.78 Z" fill="#000000" fill-rule="nonzero" fill-opacity="1" /><path clip-path="url(#clip640)" d="M2352.76 1469.17 Q2349.42 1469.17 2347.5 1470.95 Q2345.6 1472.73 2345.6 1475.86 Q2345.6 1478.98 2347.5 1480.77 Q2349.42 1482.55 2352.76 1482.55 Q2356.09 1482.55 2358.01 1480.77 Q2359.93 1478.96 2359.93 1475.86 Q2359.93 1472.73 2358.01 1470.95 Q2356.11 1469.17 2352.76 1469.17 M2348.08 1467.18 Q2345.07 1466.44 2343.38 1464.38 Q2341.71 1462.32 2341.71 1459.35 Q2341.71 1455.21 2344.65 1452.8 Q2347.62 1450.39 2352.76 1450.39 Q2357.92 1450.39 2360.86 1452.8 Q2363.8 1455.21 2363.8 1459.35 Q2363.8 1462.32 2362.11 1464.38 Q2360.44 1466.44 2357.45 1467.18 Q2360.83 1467.96 2362.71 1470.26 Q2364.61 1472.55 2364.61 1475.86 Q2364.61 1480.88 2361.53 1483.57 Q2358.47 1486.25 2352.76 1486.25 Q2347.04 1486.25 2343.96 1483.57 Q2340.9 1480.88 2340.9 1475.86 Q2340.9 1472.55 2342.8 1470.26 Q2344.7 1467.96 2348.08 1467.18 M2346.37 1459.79 Q2346.37 1462.48 2348.03 1463.98 Q2349.72 1465.49 2352.76 1465.49 Q2355.77 1465.49 2357.45 1463.98 Q2359.17 1462.48 2359.17 1459.79 Q2359.17 1457.11 2357.45 1455.6 Q2355.77 1454.1 2352.76 1454.1 Q2349.72 1454.1 2348.03 1455.6 Q2346.37 1457.11 2346.37 1459.79 Z" fill="#000000" fill-rule="nonzero" fill-opacity="1" /><path clip-path="url(#clip640)" d="M1250.03 1522.27 L1250.03 1532.4 L1262.1 1532.4 L1262.1 1536.95 L1250.03 1536.95 L1250.03 1556.3 Q1250.03 1560.66 1251.21 1561.9 Q1252.42 1563.14 1256.08 1563.14 L1262.1 1563.14 L1262.1 1568.04 L1256.08 1568.04 Q1249.3 1568.04 1246.72 1565.53 Q1244.15 1562.98 1244.15 1556.3 L1244.15 1536.95 L1239.85 1536.95 L1239.85 1532.4 L1244.15 1532.4 L1244.15 1522.27 L1250.03 1522.27 Z" fill="#000000" fill-rule="nonzero" fill-opacity="1" /><polyline clip-path="url(#clip642)" style="stroke:#000000; stroke-linecap:round; stroke-linejoin:round; stroke-width:2; stroke-opacity:0.1; fill:none" points="149.191,1423.18 2352.76,1423.18 "/>
<polyline clip-path="url(#clip642)" style="stroke:#000000; stroke-linecap:round; stroke-linejoin:round; stroke-width:2; stroke-opacity:0.1; fill:none" points="149.191,1193.86 2352.76,1193.86 "/>
<polyline clip-path="url(#clip642)" style="stroke:#000000; stroke-linecap:round; stroke-linejoin:round; stroke-width:2; stroke-opacity:0.1; fill:none" points="149.191,964.535 2352.76,964.535 "/>
<polyline clip-path="url(#clip642)" style="stroke:#000000; stroke-linecap:round; stroke-linejoin:round; stroke-width:2; stroke-opacity:0.1; fill:none" points="149.191,735.212 2352.76,735.212 "/>
<polyline clip-path="url(#clip642)" style="stroke:#000000; stroke-linecap:round; stroke-linejoin:round; stroke-width:2; stroke-opacity:0.1; fill:none" points="149.191,505.889 2352.76,505.889 "/>
<polyline clip-path="url(#clip642)" style="stroke:#000000; stroke-linecap:round; stroke-linejoin:round; stroke-width:2; stroke-opacity:0.1; fill:none" points="149.191,276.567 2352.76,276.567 "/>
<polyline clip-path="url(#clip642)" style="stroke:#000000; stroke-linecap:round; stroke-linejoin:round; stroke-width:2; stroke-opacity:0.1; fill:none" points="149.191,47.2441 2352.76,47.2441 "/>
<polyline clip-path="url(#clip640)" style="stroke:#000000; stroke-linecap:round; stroke-linejoin:round; stroke-width:4; stroke-opacity:1; fill:none" points="149.191,1423.18 149.191,47.2441 "/>
<polyline clip-path="url(#clip640)" style="stroke:#000000; stroke-linecap:round; stroke-linejoin:round; stroke-width:4; stroke-opacity:1; fill:none" points="149.191,1423.18 168.089,1423.18 "/>
<polyline clip-path="url(#clip640)" style="stroke:#000000; stroke-linecap:round; stroke-linejoin:round; stroke-width:4; stroke-opacity:1; fill:none" points="149.191,1193.86 168.089,1193.86 "/>
<polyline clip-path="url(#clip640)" style="stroke:#000000; stroke-linecap:round; stroke-linejoin:round; stroke-width:4; stroke-opacity:1; fill:none" points="149.191,964.535 168.089,964.535 "/>
<polyline clip-path="url(#clip640)" style="stroke:#000000; stroke-linecap:round; stroke-linejoin:round; stroke-width:4; stroke-opacity:1; fill:none" points="149.191,735.212 168.089,735.212 "/>
<polyline clip-path="url(#clip640)" style="stroke:#000000; stroke-linecap:round; stroke-linejoin:round; stroke-width:4; stroke-opacity:1; fill:none" points="149.191,505.889 168.089,505.889 "/>
<polyline clip-path="url(#clip640)" style="stroke:#000000; stroke-linecap:round; stroke-linejoin:round; stroke-width:4; stroke-opacity:1; fill:none" points="149.191,276.567 168.089,276.567 "/>
<polyline clip-path="url(#clip640)" style="stroke:#000000; stroke-linecap:round; stroke-linejoin:round; stroke-width:4; stroke-opacity:1; fill:none" points="149.191,47.2441 168.089,47.2441 "/>
<path clip-path="url(#clip640)" d="M51.3162 1423.63 L80.992 1423.63 L80.992 1427.57 L51.3162 1427.57 L51.3162 1423.63 Z" fill="#000000" fill-rule="nonzero" fill-opacity="1" /><path clip-path="url(#clip640)" d="M101.663 1421.32 Q98.515 1421.32 96.6632 1423.47 Q94.8345 1425.62 94.8345 1429.37 Q94.8345 1433.1 96.6632 1435.27 Q98.515 1437.43 101.663 1437.43 Q104.811 1437.43 106.64 1435.27 Q108.492 1433.1 108.492 1429.37 Q108.492 1425.62 106.64 1423.47 Q104.811 1421.32 101.663 1421.32 M110.946 1406.66 L110.946 1410.92 Q109.186 1410.09 107.381 1409.65 Q105.598 1409.21 103.839 1409.21 Q99.2095 1409.21 96.7558 1412.33 Q94.3252 1415.46 93.978 1421.78 Q95.3437 1419.77 97.4039 1418.7 Q99.4641 1417.61 101.941 1417.61 Q107.149 1417.61 110.158 1420.78 Q113.191 1423.93 113.191 1429.37 Q113.191 1434.7 110.043 1437.91 Q106.895 1441.13 101.663 1441.13 Q95.6678 1441.13 92.4965 1436.55 Q89.3253 1431.94 89.3253 1423.21 Q89.3253 1415.02 93.2141 1410.16 Q97.103 1405.27 103.654 1405.27 Q105.413 1405.27 107.196 1405.62 Q109.001 1405.97 110.946 1406.66 Z" fill="#000000" fill-rule="nonzero" fill-opacity="1" /><path clip-path="url(#clip640)" d="M50.9921 1194.31 L80.6679 1194.31 L80.6679 1198.24 L50.9921 1198.24 L50.9921 1194.31 Z" fill="#000000" fill-rule="nonzero" fill-opacity="1" /><path clip-path="url(#clip640)" d="M103.608 1180.65 L91.8021 1199.1 L103.608 1199.1 L103.608 1180.65 M102.381 1176.58 L108.26 1176.58 L108.26 1199.1 L113.191 1199.1 L113.191 1202.99 L108.26 1202.99 L108.26 1211.14 L103.608 1211.14 L103.608 1202.99 L88.0058 1202.99 L88.0058 1198.48 L102.381 1176.58 Z" fill="#000000" fill-rule="nonzero" fill-opacity="1" /><path clip-path="url(#clip640)" d="M53.0754 964.986 L82.7512 964.986 L82.7512 968.921 L53.0754 968.921 L53.0754 964.986 Z" fill="#000000" fill-rule="nonzero" fill-opacity="1" /><path clip-path="url(#clip640)" d="M96.8715 977.879 L113.191 977.879 L113.191 981.815 L91.2465 981.815 L91.2465 977.879 Q93.9086 975.125 98.4919 970.495 Q103.098 965.842 104.279 964.5 Q106.524 961.977 107.404 960.241 Q108.307 958.481 108.307 956.792 Q108.307 954.037 106.362 952.301 Q104.441 950.565 101.339 950.565 Q99.14 950.565 96.6863 951.329 Q94.2558 952.093 91.478 953.643 L91.478 948.921 Q94.3021 947.787 96.7558 947.208 Q99.2095 946.63 101.246 946.63 Q106.617 946.63 109.811 949.315 Q113.006 952 113.006 956.491 Q113.006 958.62 112.196 960.542 Q111.408 962.44 109.302 965.032 Q108.723 965.704 105.621 968.921 Q102.52 972.116 96.8715 977.879 Z" fill="#000000" fill-rule="nonzero" fill-opacity="1" /><path clip-path="url(#clip640)" d="M101.246 721.011 Q97.6354 721.011 95.8067 724.575 Q94.0012 728.117 94.0012 735.247 Q94.0012 742.353 95.8067 745.918 Q97.6354 749.46 101.246 749.46 Q104.881 749.46 106.686 745.918 Q108.515 742.353 108.515 735.247 Q108.515 728.117 106.686 724.575 Q104.881 721.011 101.246 721.011 M101.246 717.307 Q107.057 717.307 110.112 721.913 Q113.191 726.497 113.191 735.247 Q113.191 743.973 110.112 748.58 Q107.057 753.163 101.246 753.163 Q95.4363 753.163 92.3576 748.58 Q89.3021 743.973 89.3021 735.247 Q89.3021 726.497 92.3576 721.913 Q95.4363 717.307 101.246 717.307 Z" fill="#000000" fill-rule="nonzero" fill-opacity="1" /><path clip-path="url(#clip640)" d="M96.8715 519.234 L113.191 519.234 L113.191 523.169 L91.2465 523.169 L91.2465 519.234 Q93.9086 516.48 98.4919 511.85 Q103.098 507.197 104.279 505.855 Q106.524 503.331 107.404 501.595 Q108.307 499.836 108.307 498.146 Q108.307 495.392 106.362 493.656 Q104.441 491.92 101.339 491.92 Q99.14 491.92 96.6863 492.683 Q94.2558 493.447 91.478 494.998 L91.478 490.276 Q94.3021 489.142 96.7558 488.563 Q99.2095 487.984 101.246 487.984 Q106.617 487.984 109.811 490.67 Q113.006 493.355 113.006 497.845 Q113.006 499.975 112.196 501.896 Q111.408 503.794 109.302 506.387 Q108.723 507.058 105.621 510.276 Q102.52 513.47 96.8715 519.234 Z" fill="#000000" fill-rule="nonzero" fill-opacity="1" /><path clip-path="url(#clip640)" d="M103.608 263.361 L91.8021 281.81 L103.608 281.81 L103.608 263.361 M102.381 259.287 L108.26 259.287 L108.26 281.81 L113.191 281.81 L113.191 285.699 L108.26 285.699 L108.26 293.847 L103.608 293.847 L103.608 285.699 L88.0058 285.699 L88.0058 281.185 L102.381 259.287 Z" fill="#000000" fill-rule="nonzero" fill-opacity="1" /><path clip-path="url(#clip640)" d="M101.663 45.3807 Q98.515 45.3807 96.6632 47.5334 Q94.8345 49.6862 94.8345 53.4362 Q94.8345 57.163 96.6632 59.3389 Q98.515 61.4917 101.663 61.4917 Q104.811 61.4917 106.64 59.3389 Q108.492 57.163 108.492 53.4362 Q108.492 49.6862 106.64 47.5334 Q104.811 45.3807 101.663 45.3807 M110.946 30.728 L110.946 34.9872 Q109.186 34.1539 107.381 33.7141 Q105.598 33.2743 103.839 33.2743 Q99.2095 33.2743 96.7558 36.3992 Q94.3252 39.5242 93.978 45.8436 Q95.3437 43.8298 97.4039 42.765 Q99.4641 41.677 101.941 41.677 Q107.149 41.677 110.158 44.8483 Q113.191 47.9964 113.191 53.4362 Q113.191 58.7602 110.043 61.9778 Q106.895 65.1954 101.663 65.1954 Q95.6678 65.1954 92.4965 60.6121 Q89.3253 56.0056 89.3253 47.2788 Q89.3253 39.0844 93.2141 34.2233 Q97.103 29.3391 103.654 29.3391 Q105.413 29.3391 107.196 29.6863 Q109.001 30.0335 110.946 30.728 Z" fill="#000000" fill-rule="nonzero" fill-opacity="1" /><polyline clip-path="url(#clip642)" style="stroke:#009af9; stroke-linecap:round; stroke-linejoin:round; stroke-width:12; stroke-opacity:1; fill:none" points="149.191,1193.86 151.945,1192.99 154.7,1190.69 157.454,1187.32 160.209,1183.2 162.963,1178.56 165.718,1173.57 168.472,1168.36 171.227,1163.02 173.981,1157.59 176.735,1152.13 179.49,1146.65 182.244,1141.15 184.999,1135.66 187.753,1130.16 190.508,1124.66 193.262,1119.16 196.017,1113.66 198.771,1108.17 201.526,1102.67 204.28,1097.18 207.034,1091.69 209.789,1086.2 212.543,1080.73 215.298,1075.26 218.052,1069.8 220.807,1064.35 223.561,1058.92 226.316,1053.51 229.07,1048.11 231.825,1042.73 234.579,1037.38 237.333,1032.04 240.088,1026.73 242.842,1021.44 245.597,1016.17 248.351,1010.94 251.106,1005.72 253.86,1000.54 256.615,995.379 259.369,990.248 262.124,985.146 264.878,980.072 267.632,975.028 270.387,970.013 273.141,965.028 275.896,960.072 278.65,955.146 281.405,950.251 284.159,945.387 286.914,940.552 289.668,935.749 292.423,930.976 295.177,926.234 297.932,921.523 300.686,916.843 303.44,912.194 306.195,907.576 308.949,902.988 311.704,898.431 314.458,893.904 317.213,889.409 319.967,884.944 322.722,880.51 325.476,876.106 328.231,871.733 330.985,867.39 333.739,863.077 336.494,858.795 339.248,854.542 342.003,850.32 344.757,846.127 347.512,841.965 350.266,837.832 353.021,833.728 355.775,829.654 358.53,825.61 361.284,821.594 364.038,817.607 366.793,813.65 369.547,809.721 372.302,805.82 375.056,801.948 377.811,798.105 380.565,794.289 383.32,790.502 386.074,786.742 388.829,783.011 391.583,779.307 394.337,775.63 397.092,771.98 399.846,768.358 402.601,764.763 405.355,761.194 408.11,757.652 410.864,754.137 413.619,750.648 416.373,747.185 419.128,743.748 421.882,740.337 424.636,736.952 427.391,733.592 430.145,730.258 432.9,726.949 435.654,723.665 438.409,720.406 441.163,717.172 443.918,713.963 446.672,710.778 449.427,707.617 452.181,704.48 454.936,701.368 457.69,698.279 460.444,695.213 463.199,692.172 465.953,689.153 468.708,686.158 471.462,683.186 474.217,680.237 476.971,677.31 479.726,674.407 482.48,671.525 485.235,668.666 487.989,665.829 490.743,663.014 493.498,660.22 496.252,657.449 499.007,654.699 501.761,651.97 504.516,649.262 507.27,646.576 510.025,643.911 512.779,641.266 515.534,638.642 518.288,636.038 521.042,633.455 523.797,630.892 526.551,628.349 529.306,625.825 532.06,623.322 534.815,620.838 537.569,618.374 540.324,615.929 543.078,613.503 545.833,611.097 548.587,608.709 551.341,606.34 554.096,603.989 556.85,601.658 559.605,599.344 562.359,597.049 565.114,594.772 567.868,592.513 570.623,590.271 573.377,588.048 576.132,585.842 578.886,583.653 581.641,581.482 584.395,579.327 587.149,577.19 589.904,575.07 592.658,572.967 595.413,570.88 598.167,568.81 600.922,566.756 603.676,564.719 606.431,562.698 609.185,560.692 611.94,558.703 614.694,556.73 617.448,554.772 620.203,552.83 622.957,550.903 625.712,548.992 628.466,547.095 631.221,545.214 633.975,543.348 636.73,541.497 639.484,539.66 642.239,537.838 644.993,536.031 647.747,534.238 650.502,532.459 653.256,530.695 656.011,528.944 658.765,527.208 661.52,525.485 664.274,523.777 667.029,522.081 669.783,520.4 672.538,518.731 675.292,517.076 678.046,515.435 680.801,513.806 683.555,512.19 686.31,510.587 689.064,508.997 691.819,507.42 694.573,505.855 697.328,504.303 700.082,502.763 702.837,501.236 705.591,499.721 708.345,498.217 711.1,496.726 713.854,495.247 716.609,493.779 719.363,492.323 722.118,490.879 724.872,489.446 727.627,488.025 730.381,486.615 733.136,485.216 735.89,483.829 738.645,482.452 741.399,481.087 744.153,479.732 746.908,478.388 749.662,477.055 752.417,475.732 755.171,474.42 757.926,473.118 760.68,471.827 763.435,470.546 766.189,469.275 768.944,468.015 771.698,466.764 774.452,465.523 777.207,464.292 779.961,463.071 782.716,461.86 785.47,460.658 788.225,459.465 790.979,458.283 793.734,457.109 796.488,455.945 799.243,454.79 801.997,453.644 804.751,452.507 807.506,451.38 810.26,450.261 813.015,449.151 815.769,448.05 818.524,446.957 821.278,445.873 824.033,444.798 826.787,443.731 829.542,442.672 832.296,441.622 835.05,440.58 837.805,439.546 840.559,438.521 843.314,437.503 846.068,436.494 848.823,435.492 851.577,434.498 854.332,433.512 857.086,432.534 859.841,431.563 862.595,430.6 865.349,429.644 868.104,428.696 870.858,427.755 873.613,426.821 876.367,425.895 879.122,424.976 881.876,424.064 884.631,423.159 887.385,422.261 890.14,421.37 892.894,420.486 895.649,419.609 898.403,418.738 901.157,417.875 903.912,417.018 906.666,416.167 909.421,415.323 912.175,414.485 914.93,413.654 917.684,412.829 920.439,412.011 923.193,411.199 925.948,410.392 928.702,409.593 931.456,408.799 934.211,408.011 936.965,407.229 939.72,406.453 942.474,405.683 945.229,404.919 947.983,404.16 950.738,403.408 953.492,402.661 956.247,401.919 959.001,401.183 961.755,400.453 964.51,399.728 967.264,399.009 970.019,398.294 972.773,397.586 975.528,396.882 978.282,396.184 981.037,395.491 983.791,394.803 986.546,394.12 989.3,393.443 992.054,392.77 994.809,392.102 997.563,391.439 1000.32,390.781 1003.07,390.128 1005.83,389.479 1008.58,388.836 1011.34,388.197 1014.09,387.562 1016.84,386.933 1019.6,386.307 1022.35,385.687 1025.11,385.071 1027.86,384.459 1030.62,383.852 1033.37,383.249 1036.13,382.65 1038.88,382.056 1041.63,381.466 1044.39,380.88 1047.14,380.298 1049.9,379.721 1052.65,379.147 1055.41,378.578 1058.16,378.013 1060.92,377.451 1063.67,376.894 1066.42,376.34 1069.18,375.791 1071.93,375.245 1074.69,374.703 1077.44,374.165 1080.2,373.63 1082.95,373.1 1085.71,372.572 1088.46,372.049 1091.21,371.529 1093.97,371.013 1096.72,370.5 1099.48,369.991 1102.23,369.485 1104.99,368.983 1107.74,368.484 1110.5,367.988 1113.25,367.496 1116.01,367.007 1118.76,366.521 1121.51,366.038 1124.27,365.559 1127.02,365.083 1129.78,364.61 1132.53,364.14 1135.29,363.674 1138.04,363.21 1140.8,362.749 1143.55,362.292 1146.3,361.837 1149.06,361.385 1151.81,360.936 1154.57,360.49 1157.32,360.047 1160.08,359.607 1162.83,359.17 1165.59,358.735 1168.34,358.303 1171.09,357.874 1173.85,357.447 1176.6,357.023 1179.36,356.602 1182.11,356.184 1184.87,355.768 1187.62,355.354 1190.38,354.943 1193.13,354.535 1195.88,354.129 1198.64,353.726 1201.39,353.325 1204.15,352.926 1206.9,352.53 1209.66,352.136 1212.41,351.745 1215.17,351.356 1217.92,350.969 1220.67,350.585 1223.43,350.203 1226.18,349.823 1228.94,349.445 1231.69,349.07 1234.45,348.696 1237.2,348.325 1239.96,347.956 1242.71,347.589 1245.46,347.224 1248.22,346.862 1250.97,346.501 1253.73,346.143 1256.48,345.786 1259.24,345.432 1261.99,345.079 1264.75,344.729 1267.5,344.38 1270.25,344.033 1273.01,343.688 1275.76,343.346 1278.52,343.004 1281.27,342.665 1284.03,342.328 1286.78,341.992 1289.54,341.658 1292.29,341.326 1295.04,340.996 1297.8,340.667 1300.55,340.341 1303.31,340.015 1306.06,339.692 1308.82,339.37 1311.57,339.05 1314.33,338.732 1317.08,338.415 1319.83,338.1 1322.59,337.786 1325.34,337.474 1328.1,337.163 1330.85,336.854 1333.61,336.547 1336.36,336.241 1339.12,335.937 1341.87,335.634 1344.62,335.332 1347.38,335.032 1350.13,334.733 1352.89,334.436 1355.64,334.141 1358.4,333.846 1361.15,333.553 1363.91,333.262 1366.66,332.971 1369.41,332.682 1372.17,332.395 1374.92,332.108 1377.68,331.824 1380.43,331.54 1383.19,331.257 1385.94,330.976 1388.7,330.696 1391.45,330.417 1394.21,330.14 1396.96,329.864 1399.71,329.589 1402.47,329.315 1405.22,329.042 1407.98,328.77 1410.73,328.5 1413.49,328.23 1416.24,327.962 1419,327.695 1421.75,327.429 1424.5,327.164 1427.26,326.9 1430.01,326.637 1432.77,326.376 1435.52,326.115 1438.28,325.855 1441.03,325.596 1443.79,325.339 1446.54,325.082 1449.29,324.826 1452.05,324.571 1454.8,324.318 1457.56,324.065 1460.31,323.813 1463.07,323.562 1465.82,323.312 1468.58,323.062 1471.33,322.814 1474.08,322.567 1476.84,322.32 1479.59,322.075 1482.35,321.83 1485.1,321.586 1487.86,321.343 1490.61,321.1 1493.37,320.859 1496.12,320.618 1498.87,320.378 1501.63,320.139 1504.38,319.901 1507.14,319.664 1509.89,319.427 1512.65,319.191 1515.4,318.956 1518.16,318.721 1520.91,318.487 1523.66,318.254 1526.42,318.022 1529.17,317.79 1531.93,317.56 1534.68,317.329 1537.44,317.1 1540.19,316.871 1542.95,316.643 1545.7,316.415 1548.45,316.189 1551.21,315.963 1553.96,315.737 1556.72,315.512 1559.47,315.288 1562.23,315.064 1564.98,314.841 1567.74,314.619 1570.49,314.397 1573.24,314.176 1576,313.956 1578.75,313.736 1581.51,313.516 1584.26,313.298 1587.02,313.079 1589.77,312.862 1592.53,312.645 1595.28,312.428 1598.03,312.212 1600.79,311.997 1603.54,311.782 1606.3,311.568 1609.05,311.354 1611.81,311.14 1614.56,310.927 1617.32,310.715 1620.07,310.503 1622.82,310.292 1625.58,310.081 1628.33,309.87 1631.09,309.661 1633.84,309.451 1636.6,309.242 1639.35,309.033 1642.11,308.825 1644.86,308.618 1647.62,308.41 1650.37,308.204 1653.12,307.997 1655.88,307.791 1658.63,307.586 1661.39,307.381 1664.14,307.176 1666.9,306.972 1669.65,306.768 1672.41,306.564 1675.16,306.361 1677.91,306.159 1680.67,305.956 1683.42,305.754 1686.18,305.553 1688.93,305.352 1691.69,305.151 1694.44,304.95 1697.2,304.75 1699.95,304.55 1702.7,304.351 1705.46,304.152 1708.21,303.953 1710.97,303.755 1713.72,303.557 1716.48,303.359 1719.23,303.162 1721.99,302.965 1724.74,302.768 1727.49,302.571 1730.25,302.375 1733,302.179 1735.76,301.984 1738.51,301.789 1741.27,301.594 1744.02,301.399 1746.78,301.205 1749.53,301.01 1752.28,300.817 1755.04,300.623 1757.79,300.43 1760.55,300.237 1763.3,300.044 1766.06,299.852 1768.81,299.659 1771.57,299.467 1774.32,299.276 1777.07,299.084 1779.83,298.893 1782.58,298.702 1785.34,298.511 1788.09,298.321 1790.85,298.131 1793.6,297.94 1796.36,297.751 1799.11,297.561 1801.86,297.372 1804.62,297.182 1807.37,296.994 1810.13,296.805 1812.88,296.616 1815.64,296.428 1818.39,296.24 1821.15,296.052 1823.9,295.864 1826.65,295.677 1829.41,295.489 1832.16,295.302 1834.92,295.115 1837.67,294.928 1840.43,294.742 1843.18,294.555 1845.94,294.369 1848.69,294.183 1851.44,293.997 1854.2,293.811 1856.95,293.626 1859.71,293.44 1862.46,293.255 1865.22,293.07 1867.97,292.885 1870.73,292.7 1873.48,292.515 1876.23,292.331 1878.99,292.147 1881.74,291.962 1884.5,291.778 1887.25,291.594 1890.01,291.411 1892.76,291.227 1895.52,291.044 1898.27,290.86 1901.03,290.677 1903.78,290.494 1906.53,290.311 1909.29,290.128 1912.04,289.946 1914.8,289.763 1917.55,289.581 1920.31,289.398 1923.06,289.216 1925.82,289.034 1928.57,288.852 1931.32,288.67 1934.08,288.489 1936.83,288.307 1939.59,288.125 1942.34,287.944 1945.1,287.763 1947.85,287.582 1950.61,287.401 1953.36,287.22 1956.11,287.039 1958.87,286.858 1961.62,286.678 1964.38,286.497 1967.13,286.317 1969.89,286.136 1972.64,285.956 1975.4,285.776 1978.15,285.596 1980.9,285.416 1983.66,285.236 1986.41,285.057 1989.17,284.877 1991.92,284.697 1994.68,284.518 1997.43,284.338 2000.19,284.159 2002.94,283.98 2005.69,283.801 2008.45,283.622 2011.2,283.443 2013.96,283.264 2016.71,283.085 2019.47,282.906 2022.22,282.727 2024.98,282.549 2027.73,282.37 2030.48,282.192 2033.24,282.013 2035.99,281.835 2038.75,281.657 2041.5,281.478 2044.26,281.3 2047.01,281.122 2049.77,280.944 2052.52,280.766 2055.27,280.588 2058.03,280.41 2060.78,280.232 2063.54,280.055 2066.29,279.877 2069.05,279.699 2071.8,279.522 2074.56,279.344 2077.31,279.167 2080.06,278.989 2082.82,278.812 2085.57,278.635 2088.33,278.458 2091.08,278.28 2093.84,278.103 2096.59,277.926 2099.35,277.749 2102.1,277.572 2104.85,277.395 2107.61,277.218 2110.36,277.041 2113.12,276.864 2115.87,276.688 2118.63,276.511 2121.38,276.334 2124.14,276.157 2126.89,275.981 2129.64,275.804 2132.4,275.628 2135.15,275.451 2137.91,275.275 2140.66,275.098 2143.42,274.922 2146.17,274.745 2148.93,274.569 2151.68,274.393 2154.44,274.216 2157.19,274.04 2159.94,273.864 2162.7,273.688 2165.45,273.512 2168.21,273.335 2170.96,273.159 2173.72,272.983 2176.47,272.807 2179.23,272.631 2181.98,272.455 2184.73,272.279 2187.49,272.103 2190.24,271.928 2193,271.752 2195.75,271.576 2198.51,271.4 2201.26,271.224 2204.02,271.048 2206.77,270.873 2209.52,270.697 2212.28,270.521 2215.03,270.345 2217.79,270.17 2220.54,269.994 2223.3,269.818 2226.05,269.643 2228.81,269.467 2231.56,269.292 2234.31,269.116 2237.07,268.941 2239.82,268.765 2242.58,268.59 2245.33,268.414 2248.09,268.238 2250.84,268.063 2253.6,267.888 2256.35,267.712 2259.1,267.537 2261.86,267.361 2264.61,267.186 2267.37,267.011 2270.12,266.835 2272.88,266.66 2275.63,266.485 2278.39,266.309 2281.14,266.134 2283.89,265.959 2286.65,265.783 2289.4,265.608 2292.16,265.433 2294.91,265.258 2297.67,265.082 2300.42,264.907 2303.18,264.732 2305.93,264.557 2308.68,264.382 2311.44,264.206 2314.19,264.031 2316.95,263.856 2319.7,263.681 2322.46,263.506 2325.21,263.331 2327.97,263.156 2330.72,262.98 2333.47,262.805 2336.23,262.63 2338.98,262.455 2341.74,262.28 2344.49,262.105 2347.25,261.93 2350,261.755 2352.76,261.58 "/>
<polyline clip-path="url(#clip642)" style="stroke:#e26f46; stroke-linecap:round; stroke-linejoin:round; stroke-width:12; stroke-opacity:1; fill:none" points="149.191,735.212 151.945,569.712 154.7,446.137 157.454,356.589 160.209,293.772 162.963,251.237 165.718,223.54 168.472,206.275 171.227,196.072 173.981,190.421 176.735,187.504 179.49,186.153 182.244,185.622 184.999,185.47 187.753,185.438 190.508,185.432 193.262,185.43 196.017,185.455 198.771,185.536 201.526,185.705 204.28,185.998 207.034,186.449 209.789,187.072 212.543,187.875 215.298,188.863 218.052,190.037 220.807,191.392 223.561,192.921 226.316,194.613 229.07,196.454 231.825,198.435 234.579,200.543 237.333,202.767 240.088,205.095 242.842,207.518 245.597,210.026 248.351,212.611 251.106,215.264 253.86,217.978 256.615,220.745 259.369,223.56 262.124,226.416 264.878,229.308 267.632,232.234 270.387,235.189 273.141,238.169 275.896,241.171 278.65,244.192 281.405,247.229 284.159,250.278 286.914,253.338 289.668,256.407 292.423,259.481 295.177,262.56 297.932,265.642 300.686,268.725 303.44,271.808 306.195,274.89 308.949,277.971 311.704,281.049 314.458,284.123 317.213,287.192 319.967,290.255 322.722,293.312 325.476,296.361 328.231,299.403 330.985,302.437 333.739,305.461 336.494,308.476 339.248,311.481 342.003,314.475 344.757,317.457 347.512,320.429 350.266,323.388 353.021,326.336 355.775,329.27 358.53,332.192 361.284,335.101 364.038,337.996 366.793,340.878 369.547,343.746 372.302,346.6 375.056,349.439 377.811,352.264 380.565,355.075 383.32,357.871 386.074,360.652 388.829,363.418 391.583,366.169 394.337,368.905 397.092,371.625 399.846,374.33 402.601,377.02 405.355,379.694 408.11,382.353 410.864,384.996 413.619,387.624 416.373,390.235 419.128,392.831 421.882,395.411 424.636,397.976 427.391,400.524 430.145,403.057 432.9,405.573 435.654,408.074 438.409,410.559 441.163,413.028 443.918,415.481 446.672,417.918 449.427,420.34 452.181,422.746 454.936,425.136 457.69,427.511 460.444,429.87 463.199,432.213 465.953,434.541 468.708,436.853 471.462,439.149 474.217,441.43 476.971,443.696 479.726,445.946 482.48,448.181 485.235,450.401 487.989,452.606 490.743,454.795 493.498,456.969 496.252,459.128 499.007,461.273 501.761,463.402 504.516,465.516 507.27,467.616 510.025,469.701 512.779,471.771 515.534,473.827 518.288,475.868 521.042,477.894 523.797,479.906 526.551,481.904 529.306,483.887 532.06,485.856 534.815,487.811 537.569,489.752 540.324,491.679 543.078,493.591 545.833,495.49 548.587,497.375 551.341,499.246 554.096,501.104 556.85,502.948 559.605,504.778 562.359,506.595 565.114,508.399 567.868,510.189 570.623,511.966 573.377,513.73 576.132,515.481 578.886,517.218 581.641,518.943 584.395,520.655 587.149,522.353 589.904,524.04 592.658,525.713 595.413,527.374 598.167,529.022 600.922,530.658 603.676,532.281 606.431,533.892 609.185,535.491 611.94,537.078 614.694,538.653 617.448,540.215 620.203,541.766 622.957,543.305 625.712,544.831 628.466,546.347 631.221,547.85 633.975,549.342 636.73,550.822 639.484,552.291 642.239,553.749 644.993,555.195 647.747,556.63 650.502,558.053 653.256,559.466 656.011,560.867 658.765,562.258 661.52,563.638 664.274,565.006 667.029,566.364 669.783,567.712 672.538,569.048 675.292,570.374 678.046,571.69 680.801,572.995 683.555,574.29 686.31,575.575 689.064,576.849 691.819,578.113 694.573,579.367 697.328,580.611 700.082,581.845 702.837,583.069 705.591,584.283 708.345,585.488 711.1,586.683 713.854,587.868 716.609,589.043 719.363,590.21 722.118,591.366 724.872,592.514 727.627,593.652 730.381,594.78 733.136,595.9 735.89,597.01 738.645,598.112 741.399,599.204 744.153,600.288 746.908,601.363 749.662,602.428 752.417,603.485 755.171,604.534 757.926,605.573 760.68,606.605 763.435,607.627 766.189,608.642 768.944,609.647 771.698,610.645 774.452,611.634 777.207,612.615 779.961,613.588 782.716,614.553 785.47,615.51 788.225,616.458 790.979,617.399 793.734,618.332 796.488,619.258 799.243,620.175 801.997,621.085 804.751,621.987 807.506,622.881 810.26,623.768 813.015,624.648 815.769,625.52 818.524,626.385 821.278,627.242 824.033,628.093 826.787,628.936 829.542,629.771 832.296,630.6 835.05,631.422 837.805,632.237 840.559,633.044 843.314,633.845 846.068,634.639 848.823,635.427 851.577,636.207 854.332,636.981 857.086,637.748 859.841,638.509 862.595,639.263 865.349,640.011 868.104,640.752 870.858,641.487 873.613,642.215 876.367,642.938 879.122,643.654 881.876,644.363 884.631,645.067 887.385,645.764 890.14,646.456 892.894,647.141 895.649,647.821 898.403,648.495 901.157,649.162 903.912,649.824 906.666,650.48 909.421,651.131 912.175,651.776 914.93,652.415 917.684,653.048 920.439,653.676 923.193,654.298 925.948,654.915 928.702,655.527 931.456,656.133 934.211,656.734 936.965,657.33 939.72,657.92 942.474,658.505 945.229,659.085 947.983,659.659 950.738,660.229 953.492,660.794 956.247,661.353 959.001,661.908 961.755,662.457 964.51,663.002 967.264,663.542 970.019,664.077 972.773,664.608 975.528,665.133 978.282,665.654 981.037,666.17 983.791,666.682 986.546,667.189 989.3,667.691 992.054,668.189 994.809,668.683 997.563,669.172 1000.32,669.656 1003.07,670.136 1005.83,670.612 1008.58,671.084 1011.34,671.551 1014.09,672.014 1016.84,672.473 1019.6,672.928 1022.35,673.379 1025.11,673.825 1027.86,674.268 1030.62,674.706 1033.37,675.141 1036.13,675.571 1038.88,675.997 1041.63,676.42 1044.39,676.839 1047.14,677.254 1049.9,677.665 1052.65,678.072 1055.41,678.476 1058.16,678.876 1060.92,679.272 1063.67,679.664 1066.42,680.053 1069.18,680.438 1071.93,680.82 1074.69,681.198 1077.44,681.573 1080.2,681.944 1082.95,682.312 1085.71,682.676 1088.46,683.037 1091.21,683.395 1093.97,683.749 1096.72,684.1 1099.48,684.448 1102.23,684.792 1104.99,685.134 1107.74,685.472 1110.5,685.806 1113.25,686.138 1116.01,686.467 1118.76,686.792 1121.51,687.115 1124.27,687.434 1127.02,687.751 1129.78,688.064 1132.53,688.375 1135.29,688.682 1138.04,688.987 1140.8,689.289 1143.55,689.587 1146.3,689.884 1149.06,690.177 1151.81,690.467 1154.57,690.755 1157.32,691.04 1160.08,691.322 1162.83,691.602 1165.59,691.879 1168.34,692.153 1171.09,692.425 1173.85,692.694 1176.6,692.96 1179.36,693.224 1182.11,693.486 1184.87,693.745 1187.62,694.001 1190.38,694.255 1193.13,694.507 1195.88,694.756 1198.64,695.002 1201.39,695.247 1204.15,695.489 1206.9,695.728 1209.66,695.966 1212.41,696.201 1215.17,696.433 1217.92,696.664 1220.67,696.892 1223.43,697.118 1226.18,697.342 1228.94,697.564 1231.69,697.783 1234.45,698 1237.2,698.216 1239.96,698.429 1242.71,698.64 1245.46,698.849 1248.22,699.056 1250.97,699.26 1253.73,699.463 1256.48,699.664 1259.24,699.863 1261.99,700.06 1264.75,700.255 1267.5,700.448 1270.25,700.639 1273.01,700.828 1275.76,701.015 1278.52,701.201 1281.27,701.384 1284.03,701.566 1286.78,701.746 1289.54,701.925 1292.29,702.101 1295.04,702.276 1297.8,702.449 1300.55,702.62 1303.31,702.789 1306.06,702.957 1308.82,703.123 1311.57,703.288 1314.33,703.45 1317.08,703.612 1319.83,703.771 1322.59,703.929 1325.34,704.085 1328.1,704.24 1330.85,704.393 1333.61,704.545 1336.36,704.695 1339.12,704.843 1341.87,704.99 1344.62,705.136 1347.38,705.28 1350.13,705.422 1352.89,705.563 1355.64,705.703 1358.4,705.841 1361.15,705.978 1363.91,706.113 1366.66,706.247 1369.41,706.38 1372.17,706.511 1374.92,706.641 1377.68,706.769 1380.43,706.896 1383.19,707.022 1385.94,707.147 1388.7,707.27 1391.45,707.392 1394.21,707.513 1396.96,707.632 1399.71,707.75 1402.47,707.867 1405.22,707.983 1407.98,708.098 1410.73,708.211 1413.49,708.323 1416.24,708.434 1419,708.544 1421.75,708.652 1424.5,708.76 1427.26,708.866 1430.01,708.972 1432.77,709.076 1435.52,709.179 1438.28,709.281 1441.03,709.381 1443.79,709.481 1446.54,709.58 1449.29,709.678 1452.05,709.774 1454.8,709.87 1457.56,709.964 1460.31,710.058 1463.07,710.151 1465.82,710.242 1468.58,710.333 1471.33,710.422 1474.08,710.511 1476.84,710.599 1479.59,710.686 1482.35,710.772 1485.1,710.856 1487.86,710.94 1490.61,711.024 1493.37,711.106 1496.12,711.187 1498.87,711.268 1501.63,711.347 1504.38,711.426 1507.14,711.504 1509.89,711.581 1512.65,711.657 1515.4,711.732 1518.16,711.807 1520.91,711.881 1523.66,711.953 1526.42,712.026 1529.17,712.097 1531.93,712.167 1534.68,712.237 1537.44,712.306 1540.19,712.374 1542.95,712.442 1545.7,712.509 1548.45,712.575 1551.21,712.64 1553.96,712.704 1556.72,712.768 1559.47,712.831 1562.23,712.894 1564.98,712.955 1567.74,713.016 1570.49,713.077 1573.24,713.136 1576,713.195 1578.75,713.254 1581.51,713.311 1584.26,713.368 1587.02,713.425 1589.77,713.48 1592.53,713.535 1595.28,713.59 1598.03,713.644 1600.79,713.697 1603.54,713.749 1606.3,713.801 1609.05,713.853 1611.81,713.904 1614.56,713.954 1617.32,714.003 1620.07,714.053 1622.82,714.101 1625.58,714.149 1628.33,714.197 1631.09,714.243 1633.84,714.29 1636.6,714.336 1639.35,714.381 1642.11,714.426 1644.86,714.47 1647.62,714.514 1650.37,714.557 1653.12,714.599 1655.88,714.642 1658.63,714.683 1661.39,714.724 1664.14,714.765 1666.9,714.805 1669.65,714.845 1672.41,714.884 1675.16,714.923 1677.91,714.962 1680.67,714.999 1683.42,715.037 1686.18,715.074 1688.93,715.11 1691.69,715.147 1694.44,715.182 1697.2,715.217 1699.95,715.252 1702.7,715.287 1705.46,715.321 1708.21,715.354 1710.97,715.387 1713.72,715.42 1716.48,715.452 1719.23,715.484 1721.99,715.516 1724.74,715.547 1727.49,715.578 1730.25,715.608 1733,715.638 1735.76,715.668 1738.51,715.697 1741.27,715.726 1744.02,715.755 1746.78,715.783 1749.53,715.811 1752.28,715.839 1755.04,715.866 1757.79,715.893 1760.55,715.919 1763.3,715.945 1766.06,715.971 1768.81,715.997 1771.57,716.022 1774.32,716.047 1777.07,716.071 1779.83,716.095 1782.58,716.119 1785.34,716.143 1788.09,716.166 1790.85,716.189 1793.6,716.212 1796.36,716.235 1799.11,716.257 1801.86,716.279 1804.62,716.3 1807.37,716.322 1810.13,716.343 1812.88,716.364 1815.64,716.384 1818.39,716.404 1821.15,716.424 1823.9,716.444 1826.65,716.464 1829.41,716.483 1832.16,716.502 1834.92,716.521 1837.67,716.539 1840.43,716.557 1843.18,716.575 1845.94,716.593 1848.69,716.611 1851.44,716.628 1854.2,716.645 1856.95,716.662 1859.71,716.679 1862.46,716.695 1865.22,716.711 1867.97,716.727 1870.73,716.743 1873.48,716.759 1876.23,716.774 1878.99,716.789 1881.74,716.804 1884.5,716.819 1887.25,716.833 1890.01,716.848 1892.76,716.862 1895.52,716.876 1898.27,716.89 1901.03,716.903 1903.78,716.917 1906.53,716.93 1909.29,716.943 1912.04,716.956 1914.8,716.969 1917.55,716.981 1920.31,716.993 1923.06,717.006 1925.82,717.018 1928.57,717.03 1931.32,717.041 1934.08,717.053 1936.83,717.064 1939.59,717.075 1942.34,717.086 1945.1,717.097 1947.85,717.108 1950.61,717.118 1953.36,717.129 1956.11,717.139 1958.87,717.149 1961.62,717.159 1964.38,717.169 1967.13,717.179 1969.89,717.188 1972.64,717.198 1975.4,717.207 1978.15,717.216 1980.9,717.225 1983.66,717.234 1986.41,717.243 1989.17,717.251 1991.92,717.26 1994.68,717.268 1997.43,717.276 2000.19,717.284 2002.94,717.292 2005.69,717.3 2008.45,717.308 2011.2,717.316 2013.96,717.323 2016.71,717.331 2019.47,717.338 2022.22,717.345 2024.98,717.352 2027.73,717.359 2030.48,717.366 2033.24,717.373 2035.99,717.379 2038.75,717.386 2041.5,717.393 2044.26,717.399 2047.01,717.405 2049.77,717.411 2052.52,717.417 2055.27,717.423 2058.03,717.429 2060.78,717.435 2063.54,717.441 2066.29,717.446 2069.05,717.452 2071.8,717.457 2074.56,717.462 2077.31,717.468 2080.06,717.473 2082.82,717.478 2085.57,717.483 2088.33,717.488 2091.08,717.493 2093.84,717.497 2096.59,717.502 2099.35,717.507 2102.1,717.511 2104.85,717.516 2107.61,717.52 2110.36,717.524 2113.12,717.529 2115.87,717.533 2118.63,717.537 2121.38,717.541 2124.14,717.545 2126.89,717.549 2129.64,717.552 2132.4,717.556 2135.15,717.56 2137.91,717.563 2140.66,717.567 2143.42,717.571 2146.17,717.574 2148.93,717.577 2151.68,717.581 2154.44,717.584 2157.19,717.587 2159.94,717.59 2162.7,717.593 2165.45,717.596 2168.21,717.599 2170.96,717.602 2173.72,717.605 2176.47,717.608 2179.23,717.611 2181.98,717.613 2184.73,717.616 2187.49,717.619 2190.24,717.621 2193,717.624 2195.75,717.626 2198.51,717.629 2201.26,717.631 2204.02,717.633 2206.77,717.636 2209.52,717.638 2212.28,717.64 2215.03,717.642 2217.79,717.645 2220.54,717.647 2223.3,717.649 2226.05,717.651 2228.81,717.653 2231.56,717.655 2234.31,717.657 2237.07,717.658 2239.82,717.66 2242.58,717.662 2245.33,717.664 2248.09,717.666 2250.84,717.667 2253.6,717.669 2256.35,717.671 2259.1,717.672 2261.86,717.674 2264.61,717.675 2267.37,717.677 2270.12,717.678 2272.88,717.68 2275.63,717.681 2278.39,717.682 2281.14,717.684 2283.89,717.685 2286.65,717.686 2289.4,717.688 2292.16,717.689 2294.91,717.69 2297.67,717.691 2300.42,717.693 2303.18,717.694 2305.93,717.695 2308.68,717.696 2311.44,717.697 2314.19,717.698 2316.95,717.699 2319.7,717.7 2322.46,717.701 2325.21,717.702 2327.97,717.703 2330.72,717.704 2333.47,717.705 2336.23,717.706 2338.98,717.707 2341.74,717.707 2344.49,717.708 2347.25,717.709 2350,717.71 2352.76,717.711 "/>
<polyline clip-path="url(#clip642)" style="stroke:#3da44d; stroke-linecap:round; stroke-linejoin:round; stroke-width:12; stroke-opacity:1; fill:none" points="149.191,106.339 151.945,162.088 154.7,217.923 157.454,273.163 160.209,327.15 162.963,379.285 165.718,429.053 168.472,476.042 171.227,519.953 173.981,560.6 176.735,597.9 179.49,631.863 182.244,662.575 184.999,690.179 187.753,714.859 190.508,736.824 193.262,756.298 196.017,773.508 198.771,788.676 201.526,802.015 204.28,813.727 207.034,823.994 209.789,832.987 212.543,840.858 215.298,847.743 218.052,853.766 220.807,859.032 223.561,863.639 226.316,867.668 229.07,871.195 231.825,874.282 234.579,876.985 237.333,879.353 240.088,881.428 242.842,883.247 245.597,884.842 248.351,886.24 251.106,887.465 253.86,888.539 256.615,889.479 259.369,890.3 262.124,891.018 264.878,891.643 267.632,892.185 270.387,892.654 273.141,893.059 275.896,893.404 278.65,893.697 281.405,893.943 284.159,894.147 286.914,894.311 289.668,894.441 292.423,894.54 295.177,894.609 297.932,894.652 300.686,894.67 303.44,894.666 306.195,894.642 308.949,894.599 311.704,894.538 314.458,894.461 317.213,894.369 319.967,894.262 322.722,894.143 325.476,894.012 328.231,893.868 330.985,893.715 333.739,893.551 336.494,893.378 339.248,893.195 342.003,893.005 344.757,892.806 347.512,892.601 350.266,892.388 353.021,892.168 355.775,891.943 358.53,891.711 361.284,891.474 364.038,891.231 366.793,890.984 369.547,890.732 372.302,890.475 375.056,890.214 377.811,889.949 380.565,889.681 383.32,889.408 386.074,889.133 388.829,888.854 391.583,888.572 394.337,888.287 397.092,887.999 399.846,887.709 402.601,887.416 405.355,887.121 408.11,886.824 410.864,886.524 413.619,886.223 416.373,885.92 419.128,885.615 421.882,885.308 424.636,885 427.391,884.69 430.145,884.379 432.9,884.066 435.654,883.752 438.409,883.437 441.163,883.121 443.918,882.804 446.672,882.485 449.427,882.166 452.181,881.846 454.936,881.525 457.69,881.204 460.444,880.881 463.199,880.558 465.953,880.234 468.708,879.91 471.462,879.585 474.217,879.26 476.971,878.934 479.726,878.607 482.48,878.28 485.235,877.953 487.989,877.626 490.743,877.298 493.498,876.969 496.252,876.641 499.007,876.312 501.761,875.983 504.516,875.654 507.27,875.325 510.025,874.995 512.779,874.665 515.534,874.336 518.288,874.006 521.042,873.676 523.797,873.346 526.551,873.015 529.306,872.685 532.06,872.355 534.815,872.025 537.569,871.695 540.324,871.365 543.078,871.035 545.833,870.704 548.587,870.374 551.341,870.044 554.096,869.715 556.85,869.385 559.605,869.055 562.359,868.726 565.114,868.396 567.868,868.067 570.623,867.738 573.377,867.409 576.132,867.08 578.886,866.751 581.641,866.423 584.395,866.094 587.149,865.766 589.904,865.438 592.658,865.111 595.413,864.783 598.167,864.456 600.922,864.129 603.676,863.802 606.431,863.476 609.185,863.149 611.94,862.823 614.694,862.498 617.448,862.172 620.203,861.847 622.957,861.522 625.712,861.197 628.466,860.873 631.221,860.549 633.975,860.225 636.73,859.902 639.484,859.579 642.239,859.256 644.993,858.933 647.747,858.611 650.502,858.289 653.256,857.968 656.011,857.647 658.765,857.326 661.52,857.005 664.274,856.685 667.029,856.366 669.783,856.046 672.538,855.727 675.292,855.409 678.046,855.09 680.801,854.773 683.555,854.455 686.31,854.138 689.064,853.821 691.819,853.505 694.573,853.189 697.328,852.874 700.082,852.559 702.837,852.244 705.591,851.93 708.345,851.616 711.1,851.302 713.854,850.989 716.609,850.677 719.363,850.365 722.118,850.053 724.872,849.742 727.627,849.431 730.381,849.12 733.136,848.81 735.89,848.501 738.645,848.192 741.399,847.883 744.153,847.575 746.908,847.267 749.662,846.96 752.417,846.653 755.171,846.347 757.926,846.041 760.68,845.736 763.435,845.431 766.189,845.127 768.944,844.823 771.698,844.519 774.452,844.216 777.207,843.914 779.961,843.612 782.716,843.31 785.47,843.009 788.225,842.708 790.979,842.408 793.734,842.109 796.488,841.81 799.243,841.511 801.997,841.213 804.751,840.915 807.506,840.618 810.26,840.322 813.015,840.026 815.769,839.73 818.524,839.435 821.278,839.14 824.033,838.846 826.787,838.553 829.542,838.26 832.296,837.967 835.05,837.675 837.805,837.384 840.559,837.093 843.314,836.802 846.068,836.513 848.823,836.223 851.577,835.934 854.332,835.646 857.086,835.358 859.841,835.071 862.595,834.784 865.349,834.498 868.104,834.212 870.858,833.927 873.613,833.642 876.367,833.358 879.122,833.074 881.876,832.791 884.631,832.509 887.385,832.227 890.14,831.945 892.894,831.664 895.649,831.384 898.403,831.104 901.157,830.825 903.912,830.546 906.666,830.268 909.421,829.99 912.175,829.713 914.93,829.436 917.684,829.16 920.439,828.884 923.193,828.609 925.948,828.335 928.702,828.061 931.456,827.788 934.211,827.515 936.965,827.242 939.72,826.971 942.474,826.699 945.229,826.429 947.983,826.158 950.738,825.889 953.492,825.62 956.247,825.351 959.001,825.083 961.755,824.816 964.51,824.549 967.264,824.282 970.019,824.016 972.773,823.751 975.528,823.486 978.282,823.222 981.037,822.958 983.791,822.695 986.546,822.433 989.3,822.171 992.054,821.909 994.809,821.648 997.563,821.388 1000.32,821.128 1003.07,820.868 1005.83,820.61 1008.58,820.351 1011.34,820.094 1014.09,819.836 1016.84,819.58 1019.6,819.324 1022.35,819.068 1025.11,818.813 1027.86,818.558 1030.62,818.304 1033.37,818.051 1036.13,817.798 1038.88,817.546 1041.63,817.294 1044.39,817.043 1047.14,816.792 1049.9,816.542 1052.65,816.292 1055.41,816.043 1058.16,815.794 1060.92,815.546 1063.67,815.298 1066.42,815.051 1069.18,814.805 1071.93,814.559 1074.69,814.313 1077.44,814.068 1080.2,813.824 1082.95,813.58 1085.71,813.337 1088.46,813.094 1091.21,812.852 1093.97,812.61 1096.72,812.369 1099.48,812.128 1102.23,811.888 1104.99,811.648 1107.74,811.409 1110.5,811.171 1113.25,810.932 1116.01,810.695 1118.76,810.458 1121.51,810.221 1124.27,809.985 1127.02,809.75 1129.78,809.515 1132.53,809.28 1135.29,809.047 1138.04,808.813 1140.8,808.58 1143.55,808.348 1146.3,808.116 1149.06,807.885 1151.81,807.654 1154.57,807.423 1157.32,807.194 1160.08,806.964 1162.83,806.736 1165.59,806.507 1168.34,806.28 1171.09,806.052 1173.85,805.826 1176.6,805.599 1179.36,805.374 1182.11,805.148 1184.87,804.924 1187.62,804.699 1190.38,804.476 1193.13,804.252 1195.88,804.03 1198.64,803.808 1201.39,803.586 1204.15,803.365 1206.9,803.144 1209.66,802.924 1212.41,802.704 1215.17,802.485 1217.92,802.266 1220.67,802.048 1223.43,801.83 1226.18,801.613 1228.94,801.396 1231.69,801.18 1234.45,800.964 1237.2,800.749 1239.96,800.534 1242.71,800.32 1245.46,800.106 1248.22,799.893 1250.97,799.68 1253.73,799.467 1256.48,799.256 1259.24,799.044 1261.99,798.833 1264.75,798.623 1267.5,798.413 1270.25,798.204 1273.01,797.995 1275.76,797.786 1278.52,797.578 1281.27,797.371 1284.03,797.164 1286.78,796.957 1289.54,796.751 1292.29,796.545 1295.04,796.34 1297.8,796.136 1300.55,795.931 1303.31,795.728 1306.06,795.525 1308.82,795.322 1311.57,795.119 1314.33,794.918 1317.08,794.716 1319.83,794.515 1322.59,794.315 1325.34,794.115 1328.1,793.915 1330.85,793.716 1333.61,793.518 1336.36,793.32 1339.12,793.122 1341.87,792.925 1344.62,792.728 1347.38,792.532 1350.13,792.336 1352.89,792.141 1355.64,791.946 1358.4,791.751 1361.15,791.557 1363.91,791.364 1366.66,791.171 1369.41,790.978 1372.17,790.786 1374.92,790.594 1377.68,790.403 1380.43,790.212 1383.19,790.022 1385.94,789.832 1388.7,789.642 1391.45,789.453 1394.21,789.265 1396.96,789.077 1399.71,788.889 1402.47,788.702 1405.22,788.515 1407.98,788.329 1410.73,788.143 1413.49,787.957 1416.24,787.772 1419,787.587 1421.75,787.403 1424.5,787.219 1427.26,787.036 1430.01,786.853 1432.77,786.671 1435.52,786.489 1438.28,786.307 1441.03,786.126 1443.79,785.945 1446.54,785.765 1449.29,785.585 1452.05,785.406 1454.8,785.227 1457.56,785.048 1460.31,784.87 1463.07,784.692 1465.82,784.515 1468.58,784.338 1471.33,784.162 1474.08,783.986 1476.84,783.81 1479.59,783.635 1482.35,783.46 1485.1,783.286 1487.86,783.112 1490.61,782.938 1493.37,782.765 1496.12,782.593 1498.87,782.42 1501.63,782.249 1504.38,782.077 1507.14,781.906 1509.89,781.735 1512.65,781.565 1515.4,781.395 1518.16,781.226 1520.91,781.057 1523.66,780.888 1526.42,780.72 1529.17,780.553 1531.93,780.385 1534.68,780.218 1537.44,780.052 1540.19,779.885 1542.95,779.72 1545.7,779.554 1548.45,779.389 1551.21,779.225 1553.96,779.061 1556.72,778.897 1559.47,778.734 1562.23,778.571 1564.98,778.408 1567.74,778.246 1570.49,778.084 1573.24,777.923 1576,777.762 1578.75,777.601 1581.51,777.441 1584.26,777.281 1587.02,777.122 1589.77,776.963 1592.53,776.804 1595.28,776.646 1598.03,776.488 1600.79,776.33 1603.54,776.173 1606.3,776.016 1609.05,775.86 1611.81,775.704 1614.56,775.548 1617.32,775.393 1620.07,775.238 1622.82,775.084 1625.58,774.93 1628.33,774.776 1631.09,774.623 1633.84,774.47 1636.6,774.317 1639.35,774.165 1642.11,774.013 1644.86,773.862 1647.62,773.71 1650.37,773.56 1653.12,773.409 1655.88,773.259 1658.63,773.11 1661.39,772.96 1664.14,772.812 1666.9,772.663 1669.65,772.515 1672.41,772.367 1675.16,772.22 1677.91,772.072 1680.67,771.926 1683.42,771.779 1686.18,771.633 1688.93,771.488 1691.69,771.343 1694.44,771.198 1697.2,771.053 1699.95,770.909 1702.7,770.765 1705.46,770.621 1708.21,770.478 1710.97,770.336 1713.72,770.193 1716.48,770.051 1719.23,769.909 1721.99,769.768 1724.74,769.627 1727.49,769.486 1730.25,769.346 1733,769.206 1735.76,769.066 1738.51,768.927 1741.27,768.788 1744.02,768.649 1746.78,768.511 1749.53,768.373 1752.28,768.235 1755.04,768.098 1757.79,767.961 1760.55,767.825 1763.3,767.688 1766.06,767.553 1768.81,767.417 1771.57,767.282 1774.32,767.147 1777.07,767.012 1779.83,766.878 1782.58,766.744 1785.34,766.611 1788.09,766.477 1790.85,766.345 1793.6,766.212 1796.36,766.08 1799.11,765.948 1801.86,765.816 1804.62,765.685 1807.37,765.554 1810.13,765.424 1812.88,765.293 1815.64,765.163 1818.39,765.034 1821.15,764.904 1823.9,764.775 1826.65,764.647 1829.41,764.518 1832.16,764.39 1834.92,764.263 1837.67,764.135 1840.43,764.008 1843.18,763.881 1845.94,763.755 1848.69,763.629 1851.44,763.503 1854.2,763.378 1856.95,763.252 1859.71,763.128 1862.46,763.003 1865.22,762.879 1867.97,762.755 1870.73,762.631 1873.48,762.508 1876.23,762.385 1878.99,762.262 1881.74,762.14 1884.5,762.018 1887.25,761.896 1890.01,761.774 1892.76,761.653 1895.52,761.532 1898.27,761.412 1901.03,761.292 1903.78,761.172 1906.53,761.052 1909.29,760.933 1912.04,760.814 1914.8,760.695 1917.55,760.576 1920.31,760.458 1923.06,760.34 1925.82,760.223 1928.57,760.105 1931.32,759.988 1934.08,759.872 1936.83,759.755 1939.59,759.639 1942.34,759.523 1945.1,759.408 1947.85,759.293 1950.61,759.178 1953.36,759.063 1956.11,758.949 1958.87,758.834 1961.62,758.721 1964.38,758.607 1967.13,758.494 1969.89,758.381 1972.64,758.268 1975.4,758.156 1978.15,758.044 1980.9,757.932 1983.66,757.82 1986.41,757.709 1989.17,757.598 1991.92,757.487 1994.68,757.377 1997.43,757.267 2000.19,757.157 2002.94,757.047 2005.69,756.938 2008.45,756.829 2011.2,756.72 2013.96,756.612 2016.71,756.504 2019.47,756.396 2022.22,756.288 2024.98,756.181 2027.73,756.073 2030.48,755.967 2033.24,755.86 2035.99,755.754 2038.75,755.648 2041.5,755.542 2044.26,755.436 2047.01,755.331 2049.77,755.226 2052.52,755.121 2055.27,755.017 2058.03,754.912 2060.78,754.809 2063.54,754.705 2066.29,754.601 2069.05,754.498 2071.8,754.395 2074.56,754.293 2077.31,754.19 2080.06,754.088 2082.82,753.986 2085.57,753.885 2088.33,753.783 2091.08,753.682 2093.84,753.581 2096.59,753.481 2099.35,753.38 2102.1,753.28 2104.85,753.18 2107.61,753.081 2110.36,752.982 2113.12,752.882 2115.87,752.784 2118.63,752.685 2121.38,752.587 2124.14,752.489 2126.89,752.391 2129.64,752.293 2132.4,752.196 2135.15,752.099 2137.91,752.002 2140.66,751.905 2143.42,751.809 2146.17,751.713 2148.93,751.617 2151.68,751.521 2154.44,751.426 2157.19,751.331 2159.94,751.236 2162.7,751.141 2165.45,751.047 2168.21,750.952 2170.96,750.858 2173.72,750.765 2176.47,750.671 2179.23,750.578 2181.98,750.485 2184.73,750.392 2187.49,750.299 2190.24,750.207 2193,750.115 2195.75,750.023 2198.51,749.931 2201.26,749.84 2204.02,749.749 2206.77,749.658 2209.52,749.567 2212.28,749.477 2215.03,749.387 2217.79,749.296 2220.54,749.207 2223.3,749.117 2226.05,749.028 2228.81,748.939 2231.56,748.85 2234.31,748.761 2237.07,748.673 2239.82,748.584 2242.58,748.496 2245.33,748.409 2248.09,748.321 2250.84,748.234 2253.6,748.147 2256.35,748.06 2259.1,747.973 2261.86,747.886 2264.61,747.8 2267.37,747.714 2270.12,747.628 2272.88,747.543 2275.63,747.457 2278.39,747.372 2281.14,747.287 2283.89,747.202 2286.65,747.118 2289.4,747.034 2292.16,746.95 2294.91,746.866 2297.67,746.782 2300.42,746.698 2303.18,746.615 2305.93,746.532 2308.68,746.449 2311.44,746.367 2314.19,746.284 2316.95,746.202 2319.7,746.12 2322.46,746.038 2325.21,745.957 2327.97,745.875 2330.72,745.794 2333.47,745.713 2336.23,745.632 2338.98,745.552 2341.74,745.471 2344.49,745.391 2347.25,745.311 2350,745.231 2352.76,745.152 "/>
<path clip-path="url(#clip640)" d="M1969.85 1377.32 L2279.3 1377.32 L2279.3 1169.96 L1969.85 1169.96  Z" fill="#ffffff" fill-rule="evenodd" fill-opacity="1"/>
<polyline clip-path="url(#clip640)" style="stroke:#000000; stroke-linecap:round; stroke-linejoin:round; stroke-width:4; stroke-opacity:1; fill:none" points="1969.85,1377.32 2279.3,1377.32 2279.3,1169.96 1969.85,1169.96 1969.85,1377.32 "/>
<polyline clip-path="url(#clip640)" style="stroke:#009af9; stroke-linecap:round; stroke-linejoin:round; stroke-width:12; stroke-opacity:1; fill:none" points="1994.33,1221.8 2141.24,1221.8 "/>
<path clip-path="url(#clip640)" d="M2165.72 1228.84 L2165.72 1213.15 L2169.98 1213.15 L2169.98 1228.68 Q2169.98 1232.36 2171.42 1234.21 Q2172.85 1236.04 2175.72 1236.04 Q2179.17 1236.04 2181.16 1233.84 Q2183.18 1231.64 2183.18 1227.85 L2183.18 1213.15 L2187.44 1213.15 L2187.44 1239.08 L2183.18 1239.08 L2183.18 1235.09 Q2181.63 1237.45 2179.57 1238.61 Q2177.53 1239.75 2174.82 1239.75 Q2170.35 1239.75 2168.04 1236.97 Q2165.72 1234.19 2165.72 1228.84 M2176.44 1212.52 L2176.44 1212.52 Z" fill="#000000" fill-rule="nonzero" fill-opacity="1" /><path clip-path="url(#clip640)" d="M2195.82 1203.06 L2205.63 1203.06 L2205.63 1206.37 L2200.07 1206.37 L2200.07 1242.02 L2205.63 1242.02 L2205.63 1245.33 L2195.82 1245.33 L2195.82 1203.06 Z" fill="#000000" fill-rule="nonzero" fill-opacity="1" /><path clip-path="url(#clip640)" d="M2216.12 1235.14 L2223.76 1235.14 L2223.76 1208.77 L2215.44 1210.44 L2215.44 1206.18 L2223.71 1204.52 L2228.38 1204.52 L2228.38 1235.14 L2236.02 1235.14 L2236.02 1239.08 L2216.12 1239.08 L2216.12 1235.14 Z" fill="#000000" fill-rule="nonzero" fill-opacity="1" /><path clip-path="url(#clip640)" d="M2254.82 1203.06 L2254.82 1245.33 L2245 1245.33 L2245 1242.02 L2250.54 1242.02 L2250.54 1206.37 L2245 1206.37 L2245 1203.06 L2254.82 1203.06 Z" fill="#000000" fill-rule="nonzero" fill-opacity="1" /><polyline clip-path="url(#clip640)" style="stroke:#e26f46; stroke-linecap:round; stroke-linejoin:round; stroke-width:12; stroke-opacity:1; fill:none" points="1994.33,1273.64 2141.24,1273.64 "/>
<path clip-path="url(#clip640)" d="M2165.72 1280.68 L2165.72 1264.99 L2169.98 1264.99 L2169.98 1280.52 Q2169.98 1284.2 2171.42 1286.05 Q2172.85 1287.88 2175.72 1287.88 Q2179.17 1287.88 2181.16 1285.68 Q2183.18 1283.48 2183.18 1279.69 L2183.18 1264.99 L2187.44 1264.99 L2187.44 1290.92 L2183.18 1290.92 L2183.18 1286.93 Q2181.63 1289.29 2179.57 1290.45 Q2177.53 1291.59 2174.82 1291.59 Q2170.35 1291.59 2168.04 1288.81 Q2165.72 1286.03 2165.72 1280.68 M2176.44 1264.36 L2176.44 1264.36 Z" fill="#000000" fill-rule="nonzero" fill-opacity="1" /><path clip-path="url(#clip640)" d="M2195.82 1254.9 L2205.63 1254.9 L2205.63 1258.21 L2200.07 1258.21 L2200.07 1293.86 L2205.63 1293.86 L2205.63 1297.17 L2195.82 1297.17 L2195.82 1254.9 Z" fill="#000000" fill-rule="nonzero" fill-opacity="1" /><path clip-path="url(#clip640)" d="M2219.33 1286.98 L2235.65 1286.98 L2235.65 1290.92 L2213.71 1290.92 L2213.71 1286.98 Q2216.37 1284.23 2220.95 1279.6 Q2225.56 1274.94 2226.74 1273.6 Q2228.99 1271.08 2229.87 1269.34 Q2230.77 1267.58 2230.77 1265.89 Q2230.77 1263.14 2228.82 1261.4 Q2226.9 1259.67 2223.8 1259.67 Q2221.6 1259.67 2219.15 1260.43 Q2216.72 1261.19 2213.94 1262.74 L2213.94 1258.02 Q2216.76 1256.89 2219.22 1256.31 Q2221.67 1255.73 2223.71 1255.73 Q2229.08 1255.73 2232.27 1258.42 Q2235.47 1261.1 2235.47 1265.59 Q2235.47 1267.72 2234.66 1269.64 Q2233.87 1271.54 2231.76 1274.13 Q2231.19 1274.8 2228.08 1278.02 Q2224.98 1281.22 2219.33 1286.98 Z" fill="#000000" fill-rule="nonzero" fill-opacity="1" /><path clip-path="url(#clip640)" d="M2254.82 1254.9 L2254.82 1297.17 L2245 1297.17 L2245 1293.86 L2250.54 1293.86 L2250.54 1258.21 L2245 1258.21 L2245 1254.9 L2254.82 1254.9 Z" fill="#000000" fill-rule="nonzero" fill-opacity="1" /><polyline clip-path="url(#clip640)" style="stroke:#3da44d; stroke-linecap:round; stroke-linejoin:round; stroke-width:12; stroke-opacity:1; fill:none" points="1994.33,1325.48 2141.24,1325.48 "/>
<path clip-path="url(#clip640)" d="M2165.72 1332.52 L2165.72 1316.83 L2169.98 1316.83 L2169.98 1332.36 Q2169.98 1336.04 2171.42 1337.89 Q2172.85 1339.72 2175.72 1339.72 Q2179.17 1339.72 2181.16 1337.52 Q2183.18 1335.32 2183.18 1331.53 L2183.18 1316.83 L2187.44 1316.83 L2187.44 1342.76 L2183.18 1342.76 L2183.18 1338.77 Q2181.63 1341.13 2179.57 1342.29 Q2177.53 1343.43 2174.82 1343.43 Q2170.35 1343.43 2168.04 1340.65 Q2165.72 1337.87 2165.72 1332.52 M2176.44 1316.2 L2176.44 1316.2 Z" fill="#000000" fill-rule="nonzero" fill-opacity="1" /><path clip-path="url(#clip640)" d="M2206.44 1306.78 Q2203.34 1312.11 2201.83 1317.32 Q2200.33 1322.52 2200.33 1327.87 Q2200.33 1333.22 2201.83 1338.47 Q2203.36 1343.7 2206.44 1349.01 L2202.74 1349.01 Q2199.26 1343.57 2197.53 1338.31 Q2195.82 1333.06 2195.82 1327.87 Q2195.82 1322.71 2197.53 1317.48 Q2199.24 1312.25 2202.74 1306.78 L2206.44 1306.78 Z" fill="#000000" fill-rule="nonzero" fill-opacity="1" /><path clip-path="url(#clip640)" d="M2218.92 1309.47 L2218.92 1316.83 L2227.69 1316.83 L2227.69 1320.14 L2218.92 1320.14 L2218.92 1334.21 Q2218.92 1337.38 2219.77 1338.29 Q2220.65 1339.19 2223.32 1339.19 L2227.69 1339.19 L2227.69 1342.76 L2223.32 1342.76 Q2218.38 1342.76 2216.51 1340.93 Q2214.63 1339.07 2214.63 1334.21 L2214.63 1320.14 L2211.51 1320.14 L2211.51 1316.83 L2214.63 1316.83 L2214.63 1309.47 L2218.92 1309.47 Z" fill="#000000" fill-rule="nonzero" fill-opacity="1" /><path clip-path="url(#clip640)" d="M2232.62 1306.78 L2236.32 1306.78 Q2239.8 1312.25 2241.51 1317.48 Q2243.25 1322.71 2243.25 1327.87 Q2243.25 1333.06 2241.51 1338.31 Q2239.8 1343.57 2236.32 1349.01 L2232.62 1349.01 Q2235.7 1343.7 2237.2 1338.47 Q2238.73 1333.22 2238.73 1327.87 Q2238.73 1322.52 2237.2 1317.32 Q2235.7 1312.11 2232.62 1306.78 Z" fill="#000000" fill-rule="nonzero" fill-opacity="1" /></svg>
