<?xml version="1.0" encoding="utf-8"?>
<svg xmlns="http://www.w3.org/2000/svg" xmlns:xlink="http://www.w3.org/1999/xlink" width="600" height="400" viewBox="0 0 2400 1600">
<defs>
  <clipPath id="clip790">
    <rect x="0" y="0" width="2400" height="1600"/>
  </clipPath>
</defs>
<path clip-path="url(#clip790)" d="M0 1600 L2400 1600 L2400 0 L0 0  Z" fill="#ffffff" fill-rule="evenodd" fill-opacity="1"/>
<defs>
  <clipPath id="clip791">
    <rect x="480" y="0" width="1681" height="1600"/>
  </clipPath>
</defs>
<path clip-path="url(#clip790)" d="M149.191 1423.18 L2352.76 1423.18 L2352.76 47.2441 L149.191 47.2441  Z" fill="#ffffff" fill-rule="evenodd" fill-opacity="1"/>
<defs>
  <clipPath id="clip792">
    <rect x="149" y="47" width="2205" height="1377"/>
  </clipPath>
</defs>
<polyline clip-path="url(#clip792)" style="stroke:#000000; stroke-linecap:round; stroke-linejoin:round; stroke-width:2; stroke-opacity:0.1; fill:none" points="149.191,1423.18 149.191,47.2441 "/>
<polyline clip-path="url(#clip792)" style="stroke:#000000; stroke-linecap:round; stroke-linejoin:round; stroke-width:2; stroke-opacity:0.1; fill:none" points="700.082,1423.18 700.082,47.2441 "/>
<polyline clip-path="url(#clip792)" style="stroke:#000000; stroke-linecap:round; stroke-linejoin:round; stroke-width:2; stroke-opacity:0.1; fill:none" points="1250.97,1423.18 1250.97,47.2441 "/>
<polyline clip-path="url(#clip792)" style="stroke:#000000; stroke-linecap:round; stroke-linejoin:round; stroke-width:2; stroke-opacity:0.1; fill:none" points="1801.86,1423.18 1801.86,47.2441 "/>
<polyline clip-path="url(#clip792)" style="stroke:#000000; stroke-linecap:round; stroke-linejoin:round; stroke-width:2; stroke-opacity:0.1; fill:none" points="2352.76,1423.18 2352.76,47.2441 "/>
<polyline clip-path="url(#clip792)" style="stroke:#000000; stroke-linecap:round; stroke-linejoin:round; stroke-width:2; stroke-opacity:0.1; fill:none" points="149.191,1423.18 2352.76,1423.18 "/>
<polyline clip-path="url(#clip792)" style="stroke:#000000; stroke-linecap:round; stroke-linejoin:round; stroke-width:2; stroke-opacity:0.1; fill:none" points="149.191,1193.86 2352.76,1193.86 "/>
<polyline clip-path="url(#clip792)" style="stroke:#000000; stroke-linecap:round; stroke-linejoin:round; stroke-width:2; stroke-opacity:0.1; fill:none" points="149.191,964.535 2352.76,964.535 "/>
<polyline clip-path="url(#clip792)" style="stroke:#000000; stroke-linecap:round; stroke-linejoin:round; stroke-width:2; stroke-opacity:0.1; fill:none" points="149.191,735.212 2352.76,735.212 "/>
<polyline clip-path="url(#clip792)" style="stroke:#000000; stroke-linecap:round; stroke-linejoin:round; stroke-width:2; stroke-opacity:0.1; fill:none" points="149.191,505.889 2352.76,505.889 "/>
<polyline clip-path="url(#clip792)" style="stroke:#000000; stroke-linecap:round; stroke-linejoin:round; stroke-width:2; stroke-opacity:0.1; fill:none" points="149.191,276.567 2352.76,276.567 "/>
<polyline clip-path="url(#clip792)" style="stroke:#000000; stroke-linecap:round; stroke-linejoin:round; stroke-width:2; stroke-opacity:0.1; fill:none" points="149.191,47.2441 2352.76,47.2441 "/>
<polyline clip-path="url(#clip790)" style="stroke:#000000; stroke-linecap:round; stroke-linejoin:round; stroke-width:4; stroke-opacity:1; fill:none" points="149.191,1423.18 2352.76,1423.18 "/>
<polyline clip-path="url(#clip790)" style="stroke:#000000; stroke-linecap:round; stroke-linejoin:round; stroke-width:4; stroke-opacity:1; fill:none" points="149.191,1423.18 149.191,1404.28 "/>
<polyline clip-path="url(#clip790)" style="stroke:#000000; stroke-linecap:round; stroke-linejoin:round; stroke-width:4; stroke-opacity:1; fill:none" points="700.082,1423.18 700.082,1404.28 "/>
<polyline clip-path="url(#clip790)" style="stroke:#000000; stroke-linecap:round; stroke-linejoin:round; stroke-width:4; stroke-opacity:1; fill:none" points="1250.97,1423.18 1250.97,1404.28 "/>
<polyline clip-path="url(#clip790)" style="stroke:#000000; stroke-linecap:round; stroke-linejoin:round; stroke-width:4; stroke-opacity:1; fill:none" points="1801.86,1423.18 1801.86,1404.28 "/>
<polyline clip-path="url(#clip790)" style="stroke:#000000; stroke-linecap:round; stroke-linejoin:round; stroke-width:4; stroke-opacity:1; fill:none" points="2352.76,1423.18 2352.76,1404.28 "/>
<path clip-path="url(#clip790)" d="M149.191 1454.1 Q145.58 1454.1 143.751 1457.66 Q141.946 1461.2 141.946 1468.33 Q141.946 1475.44 143.751 1479.01 Q145.58 1482.55 149.191 1482.55 Q152.825 1482.55 154.631 1479.01 Q156.459 1475.44 156.459 1468.33 Q156.459 1461.2 154.631 1457.66 Q152.825 1454.1 149.191 1454.1 M149.191 1450.39 Q155.001 1450.39 158.057 1455 Q161.135 1459.58 161.135 1468.33 Q161.135 1477.06 158.057 1481.67 Q155.001 1486.25 149.191 1486.25 Q143.381 1486.25 140.302 1481.67 Q137.246 1477.06 137.246 1468.33 Q137.246 1459.58 140.302 1455 Q143.381 1450.39 149.191 1450.39 Z" fill="#000000" fill-rule="nonzero" fill-opacity="1" /><path clip-path="url(#clip790)" d="M694.735 1481.64 L711.054 1481.64 L711.054 1485.58 L689.11 1485.58 L689.11 1481.64 Q691.772 1478.89 696.355 1474.26 Q700.962 1469.61 702.142 1468.27 Q704.388 1465.74 705.267 1464.01 Q706.17 1462.25 706.17 1460.56 Q706.17 1457.8 704.226 1456.07 Q702.304 1454.33 699.203 1454.33 Q697.003 1454.33 694.55 1455.09 Q692.119 1455.86 689.341 1457.41 L689.341 1452.69 Q692.166 1451.55 694.619 1450.97 Q697.073 1450.39 699.11 1450.39 Q704.48 1450.39 707.675 1453.08 Q710.869 1455.77 710.869 1460.26 Q710.869 1462.39 710.059 1464.31 Q709.272 1466.2 707.165 1468.8 Q706.587 1469.47 703.485 1472.69 Q700.383 1475.88 694.735 1481.64 Z" fill="#000000" fill-rule="nonzero" fill-opacity="1" /><path clip-path="url(#clip790)" d="M1253.98 1455.09 L1242.18 1473.54 L1253.98 1473.54 L1253.98 1455.09 M1252.76 1451.02 L1258.64 1451.02 L1258.64 1473.54 L1263.57 1473.54 L1263.57 1477.43 L1258.64 1477.43 L1258.64 1485.58 L1253.98 1485.58 L1253.98 1477.43 L1238.38 1477.43 L1238.38 1472.92 L1252.76 1451.02 Z" fill="#000000" fill-rule="nonzero" fill-opacity="1" /><path clip-path="url(#clip790)" d="M1802.27 1466.44 Q1799.12 1466.44 1797.27 1468.59 Q1795.44 1470.74 1795.44 1474.49 Q1795.44 1478.22 1797.27 1480.39 Q1799.12 1482.55 1802.27 1482.55 Q1805.42 1482.55 1807.25 1480.39 Q1809.1 1478.22 1809.1 1474.49 Q1809.1 1470.74 1807.25 1468.59 Q1805.42 1466.44 1802.27 1466.44 M1811.55 1451.78 L1811.55 1456.04 Q1809.79 1455.21 1807.99 1454.77 Q1806.2 1454.33 1804.45 1454.33 Q1799.82 1454.33 1797.36 1457.45 Q1794.93 1460.58 1794.58 1466.9 Q1795.95 1464.89 1798.01 1463.82 Q1800.07 1462.73 1802.55 1462.73 Q1807.76 1462.73 1810.77 1465.9 Q1813.8 1469.05 1813.8 1474.49 Q1813.8 1479.82 1810.65 1483.03 Q1807.5 1486.25 1802.27 1486.25 Q1796.27 1486.25 1793.1 1481.67 Q1789.93 1477.06 1789.93 1468.33 Q1789.93 1460.14 1793.82 1455.28 Q1797.71 1450.39 1804.26 1450.39 Q1806.02 1450.39 1807.8 1450.74 Q1809.61 1451.09 1811.55 1451.78 Z" fill="#000000" fill-rule="nonzero" fill-opacity="1" /><path clip-path="url(#clip790)" d="M2352.76 1469.17 Q2349.42 1469.17 2347.5 1470.95 Q2345.6 1472.73 2345.6 1475.86 Q2345.6 1478.98 2347.5 1480.77 Q2349.42 1482.55 2352.76 1482.55 Q2356.09 1482.55 2358.01 1480.77 Q2359.93 1478.96 2359.93 1475.86 Q2359.93 1472.73 2358.01 1470.95 Q2356.11 1469.17 2352.76 1469.17 M2348.08 1467.18 Q2345.07 1466.44 2343.38 1464.38 Q2341.71 1462.32 2341.71 1459.35 Q2341.71 1455.21 2344.65 1452.8 Q2347.62 1450.39 2352.76 1450.39 Q2357.92 1450.39 2360.86 1452.8 Q2363.8 1455.21 2363.8 1459.35 Q2363.8 1462.32 2362.11 1464.38 Q2360.44 1466.44 2357.45 1467.18 Q2360.83 1467.96 2362.71 1470.26 Q2364.61 1472.55 2364.61 1475.86 Q2364.61 1480.88 2361.53 1483.57 Q2358.47 1486.25 2352.76 1486.25 Q2347.04 1486.25 2343.96 1483.57 Q2340.9 1480.88 2340.9 1475.86 Q2340.9 1472.55 2342.8 1470.26 Q2344.7 1467.96 2348.08 1467.18 M2346.37 1459.79 Q2346.37 1462.48 2348.03 1463.98 Q2349.72 1465.49 2352.76 1465.49 Q2355.77 1465.49 2357.45 1463.98 Q2359.17 1462.48 2359.17 1459.79 Q2359.17 1457.11 2357.45 1455.6 Q2355.77 1454.1 2352.76 1454.1 Q2349.72 1454.1 2348.03 1455.6 Q2346.37 1457.11 2346.37 1459.79 Z" fill="#000000" fill-rule="nonzero" fill-opacity="1" /><path clip-path="url(#clip790)" d="M1250.03 1522.27 L1250.03 1532.4 L1262.1 1532.4 L1262.1 1536.95 L1250.03 1536.95 L1250.03 1556.3 Q1250.03 1560.66 1251.21 1561.9 Q1252.42 1563.14 1256.08 1563.14 L1262.1 1563.14 L1262.1 1568.04 L1256.08 1568.04 Q1249.3 1568.04 1246.72 1565.53 Q1244.15 1562.98 1244.15 1556.3 L1244.15 1536.95 L1239.85 1536.95 L1239.85 1532.4 L1244.15 1532.4 L1244.15 1522.27 L1250.03 1522.27 Z" fill="#000000" fill-rule="nonzero" fill-opacity="1" /><polyline clip-path="url(#clip790)" style="stroke:#000000; stroke-linecap:round; stroke-linejoin:round; stroke-width:4; stroke-opacity:1; fill:none" points="149.191,1423.18 149.191,47.2441 "/>
<polyline clip-path="url(#clip790)" style="stroke:#000000; stroke-linecap:round; stroke-linejoin:round; stroke-width:4; stroke-opacity:1; fill:none" points="149.191,1423.18 168.089,1423.18 "/>
<polyline clip-path="url(#clip790)" style="stroke:#000000; stroke-linecap:round; stroke-linejoin:round; stroke-width:4; stroke-opacity:1; fill:none" points="149.191,1193.86 168.089,1193.86 "/>
<polyline clip-path="url(#clip790)" style="stroke:#000000; stroke-linecap:round; stroke-linejoin:round; stroke-width:4; stroke-opacity:1; fill:none" points="149.191,964.535 168.089,964.535 "/>
<polyline clip-path="url(#clip790)" style="stroke:#000000; stroke-linecap:round; stroke-linejoin:round; stroke-width:4; stroke-opacity:1; fill:none" points="149.191,735.212 168.089,735.212 "/>
<polyline clip-path="url(#clip790)" style="stroke:#000000; stroke-linecap:round; stroke-linejoin:round; stroke-width:4; stroke-opacity:1; fill:none" points="149.191,505.889 168.089,505.889 "/>
<polyline clip-path="url(#clip790)" style="stroke:#000000; stroke-linecap:round; stroke-linejoin:round; stroke-width:4; stroke-opacity:1; fill:none" points="149.191,276.567 168.089,276.567 "/>
<polyline clip-path="url(#clip790)" style="stroke:#000000; stroke-linecap:round; stroke-linejoin:round; stroke-width:4; stroke-opacity:1; fill:none" points="149.191,47.2441 168.089,47.2441 "/>
<path clip-path="url(#clip790)" d="M51.3162 1423.63 L80.992 1423.63 L80.992 1427.57 L51.3162 1427.57 L51.3162 1423.63 Z" fill="#000000" fill-rule="nonzero" fill-opacity="1" /><path clip-path="url(#clip790)" d="M101.663 1421.32 Q98.515 1421.32 96.6632 1423.47 Q94.8345 1425.62 94.8345 1429.37 Q94.8345 1433.1 96.6632 1435.27 Q98.515 1437.43 101.663 1437.43 Q104.811 1437.43 106.64 1435.27 Q108.492 1433.1 108.492 1429.37 Q108.492 1425.62 106.64 1423.47 Q104.811 1421.32 101.663 1421.32 M110.946 1406.66 L110.946 1410.92 Q109.186 1410.09 107.381 1409.65 Q105.598 1409.21 103.839 1409.21 Q99.2095 1409.21 96.7558 1412.33 Q94.3252 1415.46 93.978 1421.78 Q95.3437 1419.77 97.4039 1418.7 Q99.4641 1417.61 101.941 1417.61 Q107.149 1417.61 110.158 1420.78 Q113.191 1423.93 113.191 1429.37 Q113.191 1434.7 110.043 1437.91 Q106.895 1441.13 101.663 1441.13 Q95.6678 1441.13 92.4965 1436.55 Q89.3253 1431.94 89.3253 1423.21 Q89.3253 1415.02 93.2141 1410.16 Q97.103 1405.27 103.654 1405.27 Q105.413 1405.27 107.196 1405.62 Q109.001 1405.97 110.946 1406.66 Z" fill="#000000" fill-rule="nonzero" fill-opacity="1" /><path clip-path="url(#clip790)" d="M50.9921 1194.31 L80.6679 1194.31 L80.6679 1198.24 L50.9921 1198.24 L50.9921 1194.31 Z" fill="#000000" fill-rule="nonzero" fill-opacity="1" /><path clip-path="url(#clip790)" d="M103.608 1180.65 L91.8021 1199.1 L103.608 1199.1 L103.608 1180.65 M102.381 1176.58 L108.26 1176.58 L108.26 1199.1 L113.191 1199.1 L113.191 1202.99 L108.26 1202.99 L108.26 1211.14 L103.608 1211.14 L103.608 1202.99 L88.0058 1202.99 L88.0058 1198.48 L102.381 1176.58 Z" fill="#000000" fill-rule="nonzero" fill-opacity="1" /><path clip-path="url(#clip790)" d="M53.0754 964.986 L82.7512 964.986 L82.7512 968.921 L53.0754 968.921 L53.0754 964.986 Z" fill="#000000" fill-rule="nonzero" fill-opacity="1" /><path clip-path="url(#clip790)" d="M96.8715 977.879 L113.191 977.879 L113.191 981.815 L91.2465 981.815 L91.2465 977.879 Q93.9086 975.125 98.4919 970.495 Q103.098 965.842 104.279 964.5 Q106.524 961.977 107.404 960.241 Q108.307 958.481 108.307 956.792 Q108.307 954.037 106.362 952.301 Q104.441 950.565 101.339 950.565 Q99.14 950.565 96.6863 951.329 Q94.2558 952.093 91.478 953.643 L91.478 948.921 Q94.3021 947.787 96.7558 947.208 Q99.2095 946.63 101.246 946.63 Q106.617 946.63 109.811 949.315 Q113.006 952 113.006 956.491 Q113.006 958.62 112.196 960.542 Q111.408 962.44 109.302 965.032 Q108.723 965.704 105.621 968.921 Q102.52 972.116 96.8715 977.879 Z" fill="#000000" fill-rule="nonzero" fill-opacity="1" /><path clip-path="url(#clip790)" d="M101.246 721.011 Q97.6354 721.011 95.8067 724.575 Q94.0012 728.117 94.0012 735.247 Q94.0012 742.353 95.8067 745.918 Q97.6354 749.46 101.246 749.46 Q104.881 749.46 106.686 745.918 Q108.515 742.353 108.515 735.247 Q108.515 728.117 106.686 724.575 Q104.881 721.011 101.246 721.011 M101.246 717.307 Q107.057 717.307 110.112 721.913 Q113.191 726.497 113.191 735.247 Q113.191 743.973 110.112 748.58 Q107.057 753.163 101.246 753.163 Q95.4363 753.163 92.3576 748.58 Q89.3021 743.973 89.3021 735.247 Q89.3021 726.497 92.3576 721.913 Q95.4363 717.307 101.246 717.307 Z" fill="#000000" fill-rule="nonzero" fill-opacity="1" /><path clip-path="url(#clip790)" d="M96.8715 519.234 L113.191 519.234 L113.191 523.169 L91.2465 523.169 L91.2465 519.234 Q93.9086 516.48 98.4919 511.85 Q103.098 507.197 104.279 505.855 Q106.524 503.331 107.404 501.595 Q108.307 499.836 108.307 498.146 Q108.307 495.392 106.362 493.656 Q104.441 491.92 101.339 491.92 Q99.14 491.92 96.6863 492.683 Q94.2558 493.447 91.478 494.998 L91.478 490.276 Q94.3021 489.142 96.7558 488.563 Q99.2095 487.984 101.246 487.984 Q106.617 487.984 109.811 490.67 Q113.006 493.355 113.006 497.845 Q113.006 499.975 112.196 501.896 Q111.408 503.794 109.302 506.387 Q108.723 507.058 105.621 510.276 Q102.52 513.47 96.8715 519.234 Z" fill="#000000" fill-rule="nonzero" fill-opacity="1" /><path clip-path="url(#clip790)" d="M103.608 263.361 L91.8021 281.81 L103.608 281.81 L103.608 263.361 M102.381 259.287 L108.26 259.287 L108.26 281.81 L113.191 281.81 L113.191 285.699 L108.26 285.699 L108.26 293.847 L103.608 293.847 L103.608 285.699 L88.0058 285.699 L88.0058 281.185 L102.381 259.287 Z" fill="#000000" fill-rule="nonzero" fill-opacity="1" /><path clip-path="url(#clip790)" d="M101.663 45.3807 Q98.515 45.3807 96.6632 47.5334 Q94.8345 49.6862 94.8345 53.4362 Q94.8345 57.163 96.6632 59.3389 Q98.515 61.4917 101.663 61.4917 Q104.811 61.4917 106.64 59.3389 Q108.492 57.163 108.492 53.4362 Q108.492 49.6862 106.64 47.5334 Q104.811 45.3807 101.663 45.3807 M110.946 30.728 L110.946 34.9872 Q109.186 34.1539 107.381 33.7141 Q105.598 33.2743 103.839 33.2743 Q99.2095 33.2743 96.7558 36.3992 Q94.3252 39.5242 93.978 45.8436 Q95.3437 43.8298 97.4039 42.765 Q99.4641 41.677 101.941 41.677 Q107.149 41.677 110.158 44.8483 Q113.191 47.9964 113.191 53.4362 Q113.191 58.7602 110.043 61.9778 Q106.895 65.1954 101.663 65.1954 Q95.6678 65.1954 92.4965 60.6121 Q89.3253 56.0056 89.3253 47.2788 Q89.3253 39.0844 93.2141 34.2233 Q97.103 29.3391 103.654 29.3391 Q105.413 29.3391 107.196 29.6863 Q109.001 30.0335 110.946 30.728 Z" fill="#000000" fill-rule="nonzero" fill-opacity="1" /><polyline clip-path="url(#clip792)" style="stroke:#009af9; stroke-linecap:round; stroke-linejoin:round; stroke-width:12; stroke-opacity:1; fill:none" points="149.191,1193.86 151.945,1192.64 154.7,1189.59 157.454,1185.39 160.209,1180.53 162.963,1175.3 165.718,1169.88 168.472,1164.37 171.227,1158.81 173.981,1153.24 176.735,1147.66 179.49,1142.08 182.244,1136.5 184.999,1130.92 187.753,1125.34 190.508,1119.77 193.262,1114.19 196.017,1108.62 198.771,1103.05 201.526,1097.48 204.28,1091.93 207.034,1086.38 209.789,1080.85 212.543,1075.33 215.298,1069.82 218.052,1064.33 220.807,1058.86 223.561,1053.41 226.316,1047.97 229.07,1042.56 231.825,1037.17 234.579,1031.81 237.333,1026.46 240.088,1021.14 242.842,1015.85 245.597,1010.58 248.351,1005.35 251.106,1000.13 253.86,994.949 256.615,989.793 259.369,984.665 262.124,979.567 264.878,974.499 267.632,969.46 270.387,964.452 273.141,959.474 275.896,954.527 278.65,949.61 281.405,944.725 284.159,939.871 286.914,935.048 289.668,930.257 292.423,925.497 295.177,920.769 297.932,916.072 300.686,911.407 303.44,906.774 306.195,902.172 308.949,897.602 311.704,893.064 314.458,888.557 317.213,884.082 319.967,879.638 322.722,875.225 325.476,870.844 328.231,866.494 330.985,862.175 333.739,857.888 336.494,853.631 339.248,849.405 342.003,845.209 344.757,841.044 347.512,836.91 350.266,832.805 353.021,828.731 355.775,824.687 358.53,820.672 361.284,816.687 364.038,812.731 366.793,808.805 369.547,804.907 372.302,801.039 375.056,797.199 377.811,793.388 380.565,789.605 383.32,785.85 386.074,782.123 388.829,778.424 391.583,774.752 394.337,771.108 397.092,767.491 399.846,763.902 402.601,760.339 405.355,756.802 408.11,753.292 410.864,749.808 413.619,746.351 416.373,742.919 419.128,739.513 421.882,736.133 424.636,732.777 427.391,729.447 430.145,726.142 432.9,722.862 435.654,719.606 438.409,716.374 441.163,713.167 443.918,709.983 446.672,706.823 449.427,703.687 452.181,700.575 454.936,697.485 457.69,694.419 460.444,691.375 463.199,688.355 465.953,685.356 468.708,682.381 471.462,679.427 474.217,676.495 476.971,673.585 479.726,670.697 482.48,667.831 485.235,664.986 487.989,662.162 490.743,659.359 493.498,656.577 496.252,653.815 499.007,651.074 501.761,648.354 504.516,645.653 507.27,642.973 510.025,640.313 512.779,637.673 515.534,635.052 518.288,632.451 521.042,629.868 523.797,627.306 526.551,624.762 529.306,622.237 532.06,619.731 534.815,617.244 537.569,614.775 540.324,612.324 543.078,609.891 545.833,607.477 548.587,605.08 551.341,602.702 554.096,600.341 556.85,597.997 559.605,595.671 562.359,593.362 565.114,591.071 567.868,588.796 570.623,586.538 573.377,584.298 576.132,582.074 578.886,579.866 581.641,577.675 584.395,575.5 587.149,573.341 589.904,571.199 592.658,569.072 595.413,566.962 598.167,564.867 600.922,562.787 603.676,560.724 606.431,558.675 609.185,556.642 611.94,554.624 614.694,552.621 617.448,550.634 620.203,548.661 622.957,546.702 625.712,544.759 628.466,542.83 631.221,540.915 633.975,539.015 636.73,537.129 639.484,535.257 642.239,533.4 644.993,531.556 647.747,529.726 650.502,527.91 653.256,526.107 656.011,524.318 658.765,522.543 661.52,520.781 664.274,519.032 667.029,517.296 669.783,515.573 672.538,513.864 675.292,512.167 678.046,510.484 680.801,508.812 683.555,507.154 686.31,505.508 689.064,503.875 691.819,502.253 694.573,500.645 697.328,499.049 700.082,497.464 702.837,495.892 705.591,494.332 708.345,492.783 711.1,491.247 713.854,489.722 716.609,488.209 719.363,486.708 722.118,485.218 724.872,483.739 727.627,482.272 730.381,480.816 733.136,479.371 735.89,477.937 738.645,476.514 741.399,475.102 744.153,473.701 746.908,472.311 749.662,470.932 752.417,469.563 755.171,468.205 757.926,466.857 760.68,465.52 763.435,464.193 766.189,462.876 768.944,461.569 771.698,460.273 774.452,458.987 777.207,457.71 779.961,456.444 782.716,455.187 785.47,453.941 788.225,452.704 790.979,451.476 793.734,450.258 796.488,449.05 799.243,447.851 801.997,446.662 804.751,445.481 807.506,444.31 810.26,443.148 813.015,441.996 815.769,440.852 818.524,439.717 821.278,438.591 824.033,437.474 826.787,436.366 829.542,435.267 832.296,434.176 835.05,433.094 837.805,432.02 840.559,430.955 843.314,429.898 846.068,428.849 848.823,427.809 851.577,426.777 854.332,425.753 857.086,424.738 859.841,423.73 862.595,422.73 865.349,421.738 868.104,420.754 870.858,419.778 873.613,418.81 876.367,417.849 879.122,416.896 881.876,415.951 884.631,415.013 887.385,414.083 890.14,413.16 892.894,412.244 895.649,411.335 898.403,410.434 901.157,409.54 903.912,408.654 906.666,407.774 909.421,406.901 912.175,406.036 914.93,405.177 917.684,404.325 920.439,403.48 923.193,402.642 925.948,401.81 928.702,400.985 931.456,400.167 934.211,399.355 936.965,398.55 939.72,397.751 942.474,396.959 945.229,396.173 947.983,395.393 950.738,394.619 953.492,393.852 956.247,393.091 959.001,392.336 961.755,391.587 964.51,390.844 967.264,390.107 970.019,389.376 972.773,388.651 975.528,387.932 978.282,387.219 981.037,386.511 983.791,385.809 986.546,385.112 989.3,384.421 992.054,383.736 994.809,383.056 997.563,382.382 1000.32,381.713 1003.07,381.05 1005.83,380.391 1008.58,379.739 1011.34,379.091 1014.09,378.448 1016.84,377.811 1019.6,377.179 1022.35,376.552 1025.11,375.929 1027.86,375.312 1030.62,374.7 1033.37,374.093 1036.13,373.49 1038.88,372.893 1041.63,372.3 1044.39,371.712 1047.14,371.128 1049.9,370.549 1052.65,369.975 1055.41,369.406 1058.16,368.841 1060.92,368.28 1063.67,367.724 1066.42,367.172 1069.18,366.625 1071.93,366.082 1074.69,365.543 1077.44,365.009 1080.2,364.479 1082.95,363.953 1085.71,363.431 1088.46,362.913 1091.21,362.399 1093.97,361.89 1096.72,361.384 1099.48,360.883 1102.23,360.385 1104.99,359.891 1107.74,359.401 1110.5,358.915 1113.25,358.433 1116.01,357.955 1118.76,357.48 1121.51,357.009 1124.27,356.541 1127.02,356.078 1129.78,355.617 1132.53,355.161 1135.29,354.708 1138.04,354.258 1140.8,353.812 1143.55,353.369 1146.3,352.93 1149.06,352.494 1151.81,352.062 1154.57,351.632 1157.32,351.206 1160.08,350.784 1162.83,350.364 1165.59,349.948 1168.34,349.535 1171.09,349.125 1173.85,348.718 1176.6,348.314 1179.36,347.913 1182.11,347.515 1184.87,347.12 1187.62,346.728 1190.38,346.339 1193.13,345.953 1195.88,345.57 1198.64,345.19 1201.39,344.812 1204.15,344.437 1206.9,344.065 1209.66,343.696 1212.41,343.329 1215.17,342.965 1217.92,342.604 1220.67,342.245 1223.43,341.889 1226.18,341.536 1228.94,341.185 1231.69,340.836 1234.45,340.49 1237.2,340.147 1239.96,339.806 1242.71,339.467 1245.46,339.131 1248.22,338.797 1250.97,338.466 1253.73,338.136 1256.48,337.809 1259.24,337.485 1261.99,337.163 1264.75,336.842 1267.5,336.525 1270.25,336.209 1273.01,335.895 1275.76,335.584 1278.52,335.275 1281.27,334.967 1284.03,334.662 1286.78,334.359 1289.54,334.058 1292.29,333.759 1295.04,333.462 1297.8,333.167 1300.55,332.874 1303.31,332.582 1306.06,332.293 1308.82,332.006 1311.57,331.72 1314.33,331.436 1317.08,331.154 1319.83,330.874 1322.59,330.596 1325.34,330.319 1328.1,330.044 1330.85,329.771 1333.61,329.499 1336.36,329.229 1339.12,328.961 1341.87,328.695 1344.62,328.43 1347.38,328.167 1350.13,327.905 1352.89,327.645 1355.64,327.386 1358.4,327.129 1361.15,326.873 1363.91,326.619 1366.66,326.367 1369.41,326.116 1372.17,325.866 1374.92,325.618 1377.68,325.371 1380.43,325.125 1383.19,324.881 1385.94,324.638 1388.7,324.397 1391.45,324.157 1394.21,323.918 1396.96,323.681 1399.71,323.444 1402.47,323.21 1405.22,322.976 1407.98,322.743 1410.73,322.512 1413.49,322.282 1416.24,322.053 1419,321.826 1421.75,321.599 1424.5,321.374 1427.26,321.149 1430.01,320.926 1432.77,320.704 1435.52,320.483 1438.28,320.264 1441.03,320.045 1443.79,319.827 1446.54,319.61 1449.29,319.395 1452.05,319.18 1454.8,318.966 1457.56,318.754 1460.31,318.542 1463.07,318.331 1465.82,318.121 1468.58,317.912 1471.33,317.705 1474.08,317.497 1476.84,317.291 1479.59,317.086 1482.35,316.882 1485.1,316.678 1487.86,316.476 1490.61,316.274 1493.37,316.073 1496.12,315.873 1498.87,315.674 1501.63,315.475 1504.38,315.278 1507.14,315.081 1509.89,314.885 1512.65,314.69 1515.4,314.495 1518.16,314.301 1520.91,314.108 1523.66,313.916 1526.42,313.724 1529.17,313.533 1531.93,313.343 1534.68,313.153 1537.44,312.964 1540.19,312.776 1542.95,312.588 1545.7,312.401 1548.45,312.215 1551.21,312.029 1553.96,311.844 1556.72,311.66 1559.47,311.476 1562.23,311.292 1564.98,311.11 1567.74,310.928 1570.49,310.746 1573.24,310.565 1576,310.384 1578.75,310.205 1581.51,310.025 1584.26,309.846 1587.02,309.668 1589.77,309.49 1592.53,309.313 1595.28,309.136 1598.03,308.96 1600.79,308.784 1603.54,308.609 1606.3,308.434 1609.05,308.259 1611.81,308.085 1614.56,307.912 1617.32,307.739 1620.07,307.566 1622.82,307.394 1625.58,307.222 1628.33,307.051 1631.09,306.88 1633.84,306.709 1636.6,306.539 1639.35,306.37 1642.11,306.2 1644.86,306.031 1647.62,305.863 1650.37,305.694 1653.12,305.527 1655.88,305.359 1658.63,305.192 1661.39,305.025 1664.14,304.859 1666.9,304.692 1669.65,304.527 1672.41,304.361 1675.16,304.196 1677.91,304.031 1680.67,303.866 1683.42,303.702 1686.18,303.538 1688.93,303.375 1691.69,303.211 1694.44,303.048 1697.2,302.885 1699.95,302.723 1702.7,302.56 1705.46,302.398 1708.21,302.236 1710.97,302.075 1713.72,301.913 1716.48,301.752 1719.23,301.592 1721.99,301.431 1724.74,301.271 1727.49,301.11 1730.25,300.95 1733,300.791 1735.76,300.631 1738.51,300.472 1741.27,300.313 1744.02,300.154 1746.78,299.995 1749.53,299.836 1752.28,299.678 1755.04,299.52 1757.79,299.362 1760.55,299.204 1763.3,299.046 1766.06,298.889 1768.81,298.732 1771.57,298.574 1774.32,298.417 1777.07,298.26 1779.83,298.104 1782.58,297.947 1785.34,297.791 1788.09,297.635 1790.85,297.478 1793.6,297.322 1796.36,297.166 1799.11,297.011 1801.86,296.855 1804.62,296.7 1807.37,296.544 1810.13,296.389 1812.88,296.234 1815.64,296.079 1818.39,295.924 1821.15,295.769 1823.9,295.614 1826.65,295.46 1829.41,295.305 1832.16,295.151 1834.92,294.997 1837.67,294.842 1840.43,294.688 1843.18,294.534 1845.94,294.38 1848.69,294.227 1851.44,294.073 1854.2,293.919 1856.95,293.766 1859.71,293.612 1862.46,293.459 1865.22,293.305 1867.97,293.152 1870.73,292.999 1873.48,292.846 1876.23,292.693 1878.99,292.54 1881.74,292.387 1884.5,292.234 1887.25,292.081 1890.01,291.929 1892.76,291.776 1895.52,291.624 1898.27,291.471 1901.03,291.319 1903.78,291.167 1906.53,291.014 1909.29,290.862 1912.04,290.71 1914.8,290.558 1917.55,290.406 1920.31,290.254 1923.06,290.102 1925.82,289.951 1928.57,289.799 1931.32,289.647 1934.08,289.495 1936.83,289.344 1939.59,289.192 1942.34,289.041 1945.1,288.889 1947.85,288.738 1950.61,288.586 1953.36,288.435 1956.11,288.283 1958.87,288.132 1961.62,287.981 1964.38,287.829 1967.13,287.678 1969.89,287.527 1972.64,287.376 1975.4,287.225 1978.15,287.073 1980.9,286.922 1983.66,286.771 1986.41,286.62 1989.17,286.469 1991.92,286.318 1994.68,286.167 1997.43,286.016 2000.19,285.865 2002.94,285.714 2005.69,285.564 2008.45,285.413 2011.2,285.262 2013.96,285.111 2016.71,284.96 2019.47,284.81 2022.22,284.659 2024.98,284.508 2027.73,284.357 2030.48,284.207 2033.24,284.056 2035.99,283.905 2038.75,283.755 2041.5,283.604 2044.26,283.453 2047.01,283.303 2049.77,283.152 2052.52,283.002 2055.27,282.851 2058.03,282.7 2060.78,282.55 2063.54,282.399 2066.29,282.249 2069.05,282.098 2071.8,281.948 2074.56,281.797 2077.31,281.647 2080.06,281.496 2082.82,281.346 2085.57,281.195 2088.33,281.045 2091.08,280.894 2093.84,280.744 2096.59,280.593 2099.35,280.443 2102.1,280.293 2104.85,280.142 2107.61,279.992 2110.36,279.841 2113.12,279.691 2115.87,279.54 2118.63,279.39 2121.38,279.24 2124.14,279.089 2126.89,278.939 2129.64,278.788 2132.4,278.638 2135.15,278.488 2137.91,278.337 2140.66,278.187 2143.42,278.036 2146.17,277.886 2148.93,277.736 2151.68,277.585 2154.44,277.435 2157.19,277.284 2159.94,277.134 2162.7,276.984 2165.45,276.833 2168.21,276.683 2170.96,276.532 2173.72,276.382 2176.47,276.232 2179.23,276.081 2181.98,275.931 2184.73,275.78 2187.49,275.63 2190.24,275.479 2193,275.329 2195.75,275.179 2198.51,275.028 2201.26,274.878 2204.02,274.727 2206.77,274.577 2209.52,274.426 2212.28,274.276 2215.03,274.126 2217.79,273.975 2220.54,273.825 2223.3,273.674 2226.05,273.524 2228.81,273.373 2231.56,273.223 2234.31,273.073 2237.07,272.922 2239.82,272.772 2242.58,272.621 2245.33,272.471 2248.09,272.32 2250.84,272.17 2253.6,272.019 2256.35,271.869 2259.1,271.718 2261.86,271.568 2264.61,271.418 2267.37,271.267 2270.12,271.117 2272.88,270.966 2275.63,270.816 2278.39,270.665 2281.14,270.515 2283.89,270.364 2286.65,270.214 2289.4,270.063 2292.16,269.913 2294.91,269.762 2297.67,269.612 2300.42,269.462 2303.18,269.311 2305.93,269.161 2308.68,269.01 2311.44,268.86 2314.19,268.709 2316.95,268.559 2319.7,268.409 2322.46,268.258 2325.21,268.108 2327.97,267.957 2330.72,267.807 2333.47,267.657 2336.23,267.506 2338.98,267.356 2341.74,267.205 2344.49,267.055 2347.25,266.904 2350,266.754 2352.76,266.604 "/>
<polyline clip-path="url(#clip792)" style="stroke:#e26f46; stroke-linecap:round; stroke-linejoin:round; stroke-width:12; stroke-opacity:1; fill:none" points="149.191,735.212 151.945,507.949 154.7,363.312 157.454,276.325 160.209,226.89 162.963,200.421 165.718,187.157 168.472,181.019 171.227,178.489 173.981,177.588 176.735,177.342 179.49,177.315 182.244,177.312 184.999,177.314 187.753,177.35 190.508,177.463 193.262,177.689 196.017,178.059 198.771,178.596 201.526,179.306 204.28,180.19 207.034,181.247 209.789,182.473 212.543,183.861 215.298,185.403 218.052,187.09 220.807,188.909 223.561,190.852 226.316,192.911 229.07,195.076 231.825,197.34 234.579,199.695 237.333,202.134 240.088,204.65 242.842,207.237 245.597,209.889 248.351,212.6 251.106,215.366 253.86,218.182 256.615,221.043 259.369,223.946 262.124,226.886 264.878,229.861 267.632,232.866 270.387,235.898 273.141,238.955 275.896,242.033 278.65,245.13 281.405,248.242 284.159,251.368 286.914,254.506 289.668,257.652 292.423,260.806 295.177,263.965 297.932,267.128 300.686,270.294 303.44,273.461 306.195,276.627 308.949,279.79 311.704,282.95 314.458,286.106 317.213,289.256 319.967,292.399 322.722,295.535 325.476,298.662 328.231,301.779 330.985,304.886 333.739,307.981 336.494,311.064 339.248,314.135 342.003,317.192 344.757,320.235 347.512,323.264 350.266,326.278 353.021,329.276 355.775,332.258 358.53,335.224 361.284,338.174 364.038,341.106 366.793,344.021 369.547,346.918 372.302,349.797 375.056,352.659 377.811,355.502 380.565,358.327 383.32,361.133 386.074,363.921 388.829,366.69 391.583,369.44 394.337,372.17 397.092,374.882 399.846,377.575 402.601,380.249 405.355,382.903 408.11,385.538 410.864,388.154 413.619,390.75 416.373,393.327 419.128,395.885 421.882,398.424 424.636,400.944 427.391,403.444 430.145,405.926 432.9,408.389 435.654,410.833 438.409,413.258 441.163,415.665 443.918,418.054 446.672,420.424 449.427,422.776 452.181,425.11 454.936,427.426 457.69,429.724 460.444,432.004 463.199,434.267 465.953,436.512 468.708,438.74 471.462,440.951 474.217,443.145 476.971,445.322 479.726,447.482 482.48,449.626 485.235,451.753 487.989,453.864 490.743,455.959 493.498,458.037 496.252,460.1 499.007,462.147 501.761,464.179 504.516,466.195 507.27,468.195 510.025,470.18 512.779,472.151 515.534,474.106 518.288,476.047 521.042,477.973 523.797,479.884 526.551,481.781 529.306,483.665 532.06,485.533 534.815,487.388 537.569,489.229 540.324,491.057 543.078,492.871 545.833,494.672 548.587,496.459 551.341,498.233 554.096,499.994 556.85,501.743 559.605,503.478 562.359,505.201 565.114,506.911 567.868,508.609 570.623,510.295 573.377,511.968 576.132,513.629 578.886,515.278 581.641,516.916 584.395,518.541 587.149,520.155 589.904,521.757 592.658,523.348 595.413,524.927 598.167,526.495 600.922,528.052 603.676,529.598 606.431,531.133 609.185,532.657 611.94,534.17 614.694,535.673 617.448,537.165 620.203,538.646 622.957,540.117 625.712,541.578 628.466,543.029 631.221,544.469 633.975,545.899 636.73,547.319 639.484,548.729 642.239,550.13 644.993,551.52 647.747,552.901 650.502,554.273 653.256,555.635 656.011,556.987 658.765,558.33 661.52,559.664 664.274,560.988 667.029,562.303 669.783,563.61 672.538,564.907 675.292,566.195 678.046,567.474 680.801,568.745 683.555,570.007 686.31,571.259 689.064,572.504 691.819,573.739 694.573,574.967 697.328,576.185 700.082,577.395 702.837,578.597 705.591,579.791 708.345,580.976 711.1,582.153 713.854,583.322 716.609,584.483 719.363,585.635 722.118,586.78 724.872,587.917 727.627,589.046 730.381,590.167 733.136,591.281 735.89,592.386 738.645,593.484 741.399,594.574 744.153,595.657 746.908,596.732 749.662,597.8 752.417,598.86 755.171,599.913 757.926,600.959 760.68,601.997 763.435,603.028 766.189,604.051 768.944,605.068 771.698,606.077 774.452,607.079 777.207,608.074 779.961,609.062 782.716,610.044 785.47,611.018 788.225,611.985 790.979,612.946 793.734,613.899 796.488,614.846 799.243,615.786 801.997,616.72 804.751,617.647 807.506,618.567 810.26,619.481 813.015,620.388 815.769,621.289 818.524,622.183 821.278,623.071 824.033,623.952 826.787,624.827 829.542,625.696 832.296,626.558 835.05,627.414 837.805,628.264 840.559,629.108 843.314,629.946 846.068,630.778 848.823,631.603 851.577,632.423 854.332,633.237 857.086,634.044 859.841,634.846 862.595,635.642 865.349,636.431 868.104,637.216 870.858,637.994 873.613,638.766 876.367,639.533 879.122,640.294 881.876,641.05 884.631,641.799 887.385,642.543 890.14,643.282 892.894,644.015 895.649,644.742 898.403,645.464 901.157,646.181 903.912,646.892 906.666,647.598 909.421,648.298 912.175,648.993 914.93,649.683 917.684,650.367 920.439,651.046 923.193,651.72 925.948,652.389 928.702,653.053 931.456,653.711 934.211,654.364 936.965,655.013 939.72,655.656 942.474,656.294 945.229,656.927 947.983,657.556 950.738,658.179 953.492,658.797 956.247,659.411 959.001,660.02 961.755,660.624 964.51,661.223 967.264,661.817 970.019,662.407 972.773,662.991 975.528,663.572 978.282,664.147 981.037,664.718 983.791,665.284 986.546,665.846 989.3,666.403 992.054,666.956 994.809,667.504 997.563,668.047 1000.32,668.587 1003.07,669.121 1005.83,669.652 1008.58,670.178 1011.34,670.699 1014.09,671.217 1016.84,671.73 1019.6,672.239 1022.35,672.743 1025.11,673.244 1027.86,673.74 1030.62,674.232 1033.37,674.72 1036.13,675.203 1038.88,675.683 1041.63,676.159 1044.39,676.63 1047.14,677.098 1049.9,677.561 1052.65,678.021 1055.41,678.477 1058.16,678.928 1060.92,679.376 1063.67,679.82 1066.42,680.26 1069.18,680.697 1071.93,681.129 1074.69,681.558 1077.44,681.983 1080.2,682.404 1082.95,682.822 1085.71,683.236 1088.46,683.646 1091.21,684.053 1093.97,684.456 1096.72,684.855 1099.48,685.251 1102.23,685.643 1104.99,686.032 1107.74,686.418 1110.5,686.799 1113.25,687.178 1116.01,687.553 1118.76,687.924 1121.51,688.293 1124.27,688.657 1127.02,689.019 1129.78,689.377 1132.53,689.732 1135.29,690.084 1138.04,690.432 1140.8,690.777 1143.55,691.119 1146.3,691.458 1149.06,691.794 1151.81,692.126 1154.57,692.456 1157.32,692.782 1160.08,693.105 1162.83,693.425 1165.59,693.742 1168.34,694.056 1171.09,694.367 1173.85,694.676 1176.6,694.981 1179.36,695.283 1182.11,695.582 1184.87,695.879 1187.62,696.172 1190.38,696.463 1193.13,696.751 1195.88,697.036 1198.64,697.318 1201.39,697.598 1204.15,697.875 1206.9,698.149 1209.66,698.42 1212.41,698.689 1215.17,698.955 1217.92,699.218 1220.67,699.479 1223.43,699.737 1226.18,699.993 1228.94,700.246 1231.69,700.496 1234.45,700.744 1237.2,700.989 1239.96,701.232 1242.71,701.473 1245.46,701.711 1248.22,701.946 1250.97,702.179 1253.73,702.41 1256.48,702.638 1259.24,702.864 1261.99,703.088 1264.75,703.309 1267.5,703.528 1270.25,703.745 1273.01,703.959 1275.76,704.171 1278.52,704.381 1281.27,704.589 1284.03,704.794 1286.78,704.997 1289.54,705.198 1292.29,705.397 1295.04,705.594 1297.8,705.789 1300.55,705.982 1303.31,706.172 1306.06,706.361 1308.82,706.547 1311.57,706.731 1314.33,706.914 1317.08,707.094 1319.83,707.272 1322.59,707.449 1325.34,707.623 1328.1,707.796 1330.85,707.966 1333.61,708.135 1336.36,708.302 1339.12,708.467 1341.87,708.63 1344.62,708.791 1347.38,708.951 1350.13,709.108 1352.89,709.264 1355.64,709.418 1358.4,709.57 1361.15,709.721 1363.91,709.87 1366.66,710.017 1369.41,710.162 1372.17,710.306 1374.92,710.448 1377.68,710.588 1380.43,710.727 1383.19,710.864 1385.94,711 1388.7,711.134 1391.45,711.266 1394.21,711.397 1396.96,711.526 1399.71,711.654 1402.47,711.78 1405.22,711.904 1407.98,712.027 1410.73,712.149 1413.49,712.269 1416.24,712.388 1419,712.505 1421.75,712.621 1424.5,712.735 1427.26,712.848 1430.01,712.96 1432.77,713.07 1435.52,713.179 1438.28,713.286 1441.03,713.393 1443.79,713.497 1446.54,713.601 1449.29,713.703 1452.05,713.804 1454.8,713.904 1457.56,714.002 1460.31,714.099 1463.07,714.195 1465.82,714.29 1468.58,714.383 1471.33,714.475 1474.08,714.566 1476.84,714.656 1479.59,714.745 1482.35,714.833 1485.1,714.919 1487.86,715.004 1490.61,715.088 1493.37,715.171 1496.12,715.253 1498.87,715.334 1501.63,715.414 1504.38,715.492 1507.14,715.57 1509.89,715.647 1512.65,715.722 1515.4,715.797 1518.16,715.87 1520.91,715.943 1523.66,716.014 1526.42,716.085 1529.17,716.154 1531.93,716.223 1534.68,716.291 1537.44,716.357 1540.19,716.423 1542.95,716.488 1545.7,716.552 1548.45,716.615 1551.21,716.677 1553.96,716.739 1556.72,716.799 1559.47,716.859 1562.23,716.918 1564.98,716.975 1567.74,717.032 1570.49,717.089 1573.24,717.144 1576,717.199 1578.75,717.252 1581.51,717.305 1584.26,717.358 1587.02,717.409 1589.77,717.46 1592.53,717.51 1595.28,717.559 1598.03,717.607 1600.79,717.655 1603.54,717.702 1606.3,717.748 1609.05,717.794 1611.81,717.839 1614.56,717.883 1617.32,717.927 1620.07,717.969 1622.82,718.012 1625.58,718.053 1628.33,718.094 1631.09,718.134 1633.84,718.174 1636.6,718.213 1639.35,718.251 1642.11,718.289 1644.86,718.326 1647.62,718.362 1650.37,718.398 1653.12,718.434 1655.88,718.468 1658.63,718.503 1661.39,718.536 1664.14,718.569 1666.9,718.602 1669.65,718.634 1672.41,718.665 1675.16,718.696 1677.91,718.727 1680.67,718.757 1683.42,718.786 1686.18,718.815 1688.93,718.843 1691.69,718.871 1694.44,718.899 1697.2,718.926 1699.95,718.952 1702.7,718.978 1705.46,719.004 1708.21,719.029 1710.97,719.054 1713.72,719.078 1716.48,719.102 1719.23,719.125 1721.99,719.148 1724.74,719.171 1727.49,719.193 1730.25,719.215 1733,719.236 1735.76,719.257 1738.51,719.278 1741.27,719.298 1744.02,719.318 1746.78,719.338 1749.53,719.357 1752.28,719.375 1755.04,719.394 1757.79,719.412 1760.55,719.43 1763.3,719.447 1766.06,719.464 1768.81,719.481 1771.57,719.497 1774.32,719.514 1777.07,719.529 1779.83,719.545 1782.58,719.56 1785.34,719.575 1788.09,719.59 1790.85,719.604 1793.6,719.618 1796.36,719.632 1799.11,719.645 1801.86,719.659 1804.62,719.671 1807.37,719.684 1810.13,719.697 1812.88,719.709 1815.64,719.721 1818.39,719.732 1821.15,719.744 1823.9,719.755 1826.65,719.766 1829.41,719.777 1832.16,719.787 1834.92,719.798 1837.67,719.808 1840.43,719.818 1843.18,719.827 1845.94,719.837 1848.69,719.846 1851.44,719.855 1854.2,719.864 1856.95,719.873 1859.71,719.881 1862.46,719.889 1865.22,719.897 1867.97,719.905 1870.73,719.913 1873.48,719.921 1876.23,719.928 1878.99,719.935 1881.74,719.942 1884.5,719.949 1887.25,719.956 1890.01,719.962 1892.76,719.969 1895.52,719.975 1898.27,719.981 1901.03,719.987 1903.78,719.993 1906.53,719.998 1909.29,720.004 1912.04,720.009 1914.8,720.014 1917.55,720.019 1920.31,720.024 1923.06,720.029 1925.82,720.034 1928.57,720.038 1931.32,720.043 1934.08,720.047 1936.83,720.051 1939.59,720.055 1942.34,720.059 1945.1,720.063 1947.85,720.067 1950.61,720.071 1953.36,720.074 1956.11,720.078 1958.87,720.081 1961.62,720.084 1964.38,720.088 1967.13,720.091 1969.89,720.094 1972.64,720.097 1975.4,720.1 1978.15,720.102 1980.9,720.105 1983.66,720.108 1986.41,720.11 1989.17,720.113 1991.92,720.115 1994.68,720.117 1997.43,720.119 2000.19,720.122 2002.94,720.124 2005.69,720.126 2008.45,720.128 2011.2,720.13 2013.96,720.131 2016.71,720.133 2019.47,720.135 2022.22,720.136 2024.98,720.138 2027.73,720.14 2030.48,720.141 2033.24,720.142 2035.99,720.144 2038.75,720.145 2041.5,720.146 2044.26,720.148 2047.01,720.149 2049.77,720.15 2052.52,720.151 2055.27,720.152 2058.03,720.153 2060.78,720.154 2063.54,720.155 2066.29,720.156 2069.05,720.157 2071.8,720.157 2074.56,720.158 2077.31,720.159 2080.06,720.159 2082.82,720.16 2085.57,720.161 2088.33,720.161 2091.08,720.162 2093.84,720.162 2096.59,720.163 2099.35,720.163 2102.1,720.164 2104.85,720.164 2107.61,720.165 2110.36,720.165 2113.12,720.165 2115.87,720.166 2118.63,720.166 2121.38,720.166 2124.14,720.167 2126.89,720.167 2129.64,720.167 2132.4,720.167 2135.15,720.168 2137.91,720.168 2140.66,720.168 2143.42,720.168 2146.17,720.168 2148.93,720.169 2151.68,720.169 2154.44,720.169 2157.19,720.169 2159.94,720.169 2162.7,720.169 2165.45,720.169 2168.21,720.169 2170.96,720.169 2173.72,720.17 2176.47,720.17 2179.23,720.17 2181.98,720.17 2184.73,720.17 2187.49,720.17 2190.24,720.17 2193,720.17 2195.75,720.17 2198.51,720.17 2201.26,720.17 2204.02,720.17 2206.77,720.17 2209.52,720.17 2212.28,720.17 2215.03,720.17 2217.79,720.17 2220.54,720.17 2223.3,720.17 2226.05,720.17 2228.81,720.17 2231.56,720.17 2234.31,720.17 2237.07,720.17 2239.82,720.17 2242.58,720.17 2245.33,720.17 2248.09,720.17 2250.84,720.17 2253.6,720.17 2256.35,720.17 2259.1,720.17 2261.86,720.17 2264.61,720.171 2267.37,720.171 2270.12,720.171 2272.88,720.171 2275.63,720.171 2278.39,720.171 2281.14,720.171 2283.89,720.171 2286.65,720.171 2289.4,720.171 2292.16,720.171 2294.91,720.171 2297.67,720.171 2300.42,720.171 2303.18,720.171 2305.93,720.171 2308.68,720.171 2311.44,720.171 2314.19,720.171 2316.95,720.171 2319.7,720.171 2322.46,720.171 2325.21,720.171 2327.97,720.171 2330.72,720.171 2333.47,720.171 2336.23,720.171 2338.98,720.171 2341.74,720.171 2344.49,720.171 2347.25,720.171 2350,720.171 2352.76,720.171 "/>
<polyline clip-path="url(#clip792)" style="stroke:#3da44d; stroke-linecap:round; stroke-linejoin:round; stroke-width:12; stroke-opacity:1; fill:none" points="149.191,20.4855 151.945,114.993 154.7,207.138 157.454,294.013 160.209,373.631 162.963,444.993 165.718,507.908 168.472,562.725 171.227,610.086 173.981,650.755 176.735,685.516 179.49,715.122 182.244,740.272 184.999,761.603 187.753,779.683 190.508,795.017 193.262,808.042 196.017,819.134 198.771,828.611 201.526,836.742 204.28,843.748 207.034,849.813 209.789,855.089 212.543,859.7 215.298,863.749 218.052,867.319 220.807,870.48 223.561,873.289 226.316,875.794 229.07,878.033 231.825,880.04 234.579,881.843 237.333,883.466 240.088,884.928 242.842,886.246 245.597,887.435 248.351,888.508 251.106,889.476 253.86,890.348 256.615,891.133 259.369,891.838 262.124,892.471 264.878,893.036 267.632,893.539 270.387,893.985 273.141,894.378 275.896,894.722 278.65,895.02 281.405,895.276 284.159,895.491 286.914,895.67 289.668,895.814 292.423,895.925 295.177,896.005 297.932,896.057 300.686,896.082 303.44,896.081 306.195,896.057 308.949,896.01 311.704,895.942 314.458,895.853 317.213,895.746 319.967,895.621 322.722,895.48 325.476,895.322 328.231,895.149 330.985,894.962 333.739,894.762 336.494,894.549 339.248,894.324 342.003,894.087 344.757,893.841 347.512,893.584 350.266,893.317 353.021,893.042 355.775,892.758 358.53,892.467 361.284,892.168 364.038,891.862 366.793,891.55 369.547,891.232 372.302,890.908 375.056,890.578 377.811,890.244 380.565,889.905 383.32,889.562 386.074,889.215 388.829,888.865 391.583,888.511 394.337,888.154 397.092,887.794 399.846,887.432 402.601,887.068 405.355,886.701 408.11,886.333 410.864,885.963 413.619,885.592 416.373,885.219 419.128,884.846 421.882,884.472 424.636,884.097 427.391,883.721 430.145,883.345 432.9,882.969 435.654,882.593 438.409,882.217 441.163,881.841 443.918,881.465 446.672,881.089 449.427,880.714 452.181,880.34 454.936,879.966 457.69,879.593 460.444,879.221 463.199,878.85 465.953,878.48 468.708,878.11 471.462,877.742 474.217,877.375 476.971,877.009 479.726,876.644 482.48,876.281 485.235,875.919 487.989,875.558 490.743,875.198 493.498,874.84 496.252,874.484 499.007,874.129 501.761,873.775 504.516,873.423 507.27,873.072 510.025,872.723 512.779,872.375 515.534,872.029 518.288,871.684 521.042,871.341 523.797,871 526.551,870.66 529.306,870.321 532.06,869.984 534.815,869.649 537.569,869.315 540.324,868.983 543.078,868.652 545.833,868.322 548.587,867.995 551.341,867.668 554.096,867.343 556.85,867.02 559.605,866.698 562.359,866.378 565.114,866.059 567.868,865.741 570.623,865.425 573.377,865.11 576.132,864.796 578.886,864.484 581.641,864.173 584.395,863.864 587.149,863.556 589.904,863.249 592.658,862.943 595.413,862.639 598.167,862.336 600.922,862.034 603.676,861.733 606.431,861.433 609.185,861.135 611.94,860.837 614.694,860.541 617.448,860.246 620.203,859.952 622.957,859.659 625.712,859.367 628.466,859.076 631.221,858.786 633.975,858.498 636.73,858.21 639.484,857.923 642.239,857.637 644.993,857.352 647.747,857.067 650.502,856.784 653.256,856.502 656.011,856.22 658.765,855.939 661.52,855.659 664.274,855.38 667.029,855.102 669.783,854.824 672.538,854.547 675.292,854.271 678.046,853.996 680.801,853.721 683.555,853.447 686.31,853.174 689.064,852.902 691.819,852.63 694.573,852.358 697.328,852.088 700.082,851.818 702.837,851.548 705.591,851.279 708.345,851.011 711.1,850.743 713.854,850.476 716.609,850.209 719.363,849.943 722.118,849.677 724.872,849.412 727.627,849.148 730.381,848.884 733.136,848.62 735.89,848.357 738.645,848.094 741.399,847.832 744.153,847.57 746.908,847.308 749.662,847.047 752.417,846.786 755.171,846.526 757.926,846.266 760.68,846.007 763.435,845.748 766.189,845.489 768.944,845.23 771.698,844.972 774.452,844.714 777.207,844.457 779.961,844.2 782.716,843.943 785.47,843.686 788.225,843.43 790.979,843.174 793.734,842.919 796.488,842.663 799.243,842.408 801.997,842.153 804.751,841.899 807.506,841.644 810.26,841.39 813.015,841.137 815.769,840.883 818.524,840.63 821.278,840.376 824.033,840.123 826.787,839.871 829.542,839.618 832.296,839.366 835.05,839.114 837.805,838.862 840.559,838.61 843.314,838.359 846.068,838.108 848.823,837.856 851.577,837.606 854.332,837.355 857.086,837.104 859.841,836.854 862.595,836.604 865.349,836.353 868.104,836.104 870.858,835.854 873.613,835.604 876.367,835.355 879.122,835.105 881.876,834.856 884.631,834.607 887.385,834.358 890.14,834.109 892.894,833.861 895.649,833.612 898.403,833.364 901.157,833.116 903.912,832.868 906.666,832.62 909.421,832.372 912.175,832.124 914.93,831.877 917.684,831.629 920.439,831.382 923.193,831.135 925.948,830.887 928.702,830.64 931.456,830.394 934.211,830.147 936.965,829.9 939.72,829.654 942.474,829.407 945.229,829.161 947.983,828.915 950.738,828.668 953.492,828.422 956.247,828.176 959.001,827.931 961.755,827.685 964.51,827.439 967.264,827.194 970.019,826.948 972.773,826.703 975.528,826.458 978.282,826.213 981.037,825.968 983.791,825.723 986.546,825.478 989.3,825.233 992.054,824.989 994.809,824.744 997.563,824.5 1000.32,824.256 1003.07,824.012 1005.83,823.767 1008.58,823.523 1011.34,823.28 1014.09,823.036 1016.84,822.792 1019.6,822.548 1022.35,822.305 1025.11,822.061 1027.86,821.818 1030.62,821.575 1033.37,821.332 1036.13,821.089 1038.88,820.846 1041.63,820.603 1044.39,820.361 1047.14,820.118 1049.9,819.876 1052.65,819.633 1055.41,819.391 1058.16,819.149 1060.92,818.907 1063.67,818.665 1066.42,818.423 1069.18,818.181 1071.93,817.94 1074.69,817.698 1077.44,817.457 1080.2,817.216 1082.95,816.974 1085.71,816.733 1088.46,816.493 1091.21,816.252 1093.97,816.011 1096.72,815.77 1099.48,815.53 1102.23,815.29 1104.99,815.05 1107.74,814.809 1110.5,814.569 1113.25,814.33 1116.01,814.09 1118.76,813.85 1121.51,813.611 1124.27,813.371 1127.02,813.132 1129.78,812.893 1132.53,812.654 1135.29,812.415 1138.04,812.176 1140.8,811.938 1143.55,811.699 1146.3,811.461 1149.06,811.223 1151.81,810.985 1154.57,810.747 1157.32,810.509 1160.08,810.272 1162.83,810.034 1165.59,809.797 1168.34,809.56 1171.09,809.323 1173.85,809.086 1176.6,808.849 1179.36,808.612 1182.11,808.376 1184.87,808.139 1187.62,807.903 1190.38,807.667 1193.13,807.431 1195.88,807.196 1198.64,806.96 1201.39,806.725 1204.15,806.489 1206.9,806.254 1209.66,806.019 1212.41,805.785 1215.17,805.55 1217.92,805.315 1220.67,805.081 1223.43,804.847 1226.18,804.613 1228.94,804.379 1231.69,804.146 1234.45,803.912 1237.2,803.679 1239.96,803.446 1242.71,803.213 1245.46,802.98 1248.22,802.748 1250.97,802.515 1253.73,802.283 1256.48,802.051 1259.24,801.819 1261.99,801.587 1264.75,801.356 1267.5,801.124 1270.25,800.893 1273.01,800.662 1275.76,800.432 1278.52,800.201 1281.27,799.971 1284.03,799.74 1286.78,799.51 1289.54,799.281 1292.29,799.051 1295.04,798.822 1297.8,798.592 1300.55,798.363 1303.31,798.134 1306.06,797.906 1308.82,797.678 1311.57,797.449 1314.33,797.221 1317.08,796.993 1319.83,796.766 1322.59,796.538 1325.34,796.311 1328.1,796.084 1330.85,795.858 1333.61,795.631 1336.36,795.405 1339.12,795.179 1341.87,794.953 1344.62,794.727 1347.38,794.501 1350.13,794.276 1352.89,794.051 1355.64,793.826 1358.4,793.602 1361.15,793.377 1363.91,793.153 1366.66,792.929 1369.41,792.706 1372.17,792.482 1374.92,792.259 1377.68,792.036 1380.43,791.813 1383.19,791.591 1385.94,791.368 1388.7,791.146 1391.45,790.925 1394.21,790.703 1396.96,790.482 1399.71,790.261 1402.47,790.04 1405.22,789.819 1407.98,789.599 1410.73,789.379 1413.49,789.159 1416.24,788.939 1419,788.72 1421.75,788.5 1424.5,788.282 1427.26,788.063 1430.01,787.844 1432.77,787.626 1435.52,787.408 1438.28,787.191 1441.03,786.973 1443.79,786.756 1446.54,786.539 1449.29,786.323 1452.05,786.106 1454.8,785.89 1457.56,785.675 1460.31,785.459 1463.07,785.244 1465.82,785.029 1468.58,784.814 1471.33,784.599 1474.08,784.385 1476.84,784.171 1479.59,783.958 1482.35,783.744 1485.1,783.531 1487.86,783.318 1490.61,783.105 1493.37,782.893 1496.12,782.681 1498.87,782.469 1501.63,782.258 1504.38,782.047 1507.14,781.836 1509.89,781.625 1512.65,781.415 1515.4,781.204 1518.16,780.995 1520.91,780.785 1523.66,780.576 1526.42,780.367 1529.17,780.158 1531.93,779.95 1534.68,779.742 1537.44,779.534 1540.19,779.326 1542.95,779.119 1545.7,778.912 1548.45,778.706 1551.21,778.499 1553.96,778.293 1556.72,778.087 1559.47,777.882 1562.23,777.677 1564.98,777.472 1567.74,777.267 1570.49,777.063 1573.24,776.859 1576,776.655 1578.75,776.452 1581.51,776.249 1584.26,776.046 1587.02,775.844 1589.77,775.642 1592.53,775.44 1595.28,775.238 1598.03,775.037 1600.79,774.836 1603.54,774.635 1606.3,774.435 1609.05,774.235 1611.81,774.035 1614.56,773.836 1617.32,773.637 1620.07,773.438 1622.82,773.24 1625.58,773.041 1628.33,772.844 1631.09,772.646 1633.84,772.449 1636.6,772.252 1639.35,772.055 1642.11,771.859 1644.86,771.663 1647.62,771.468 1650.37,771.272 1653.12,771.077 1655.88,770.883 1658.63,770.688 1661.39,770.494 1664.14,770.301 1666.9,770.107 1669.65,769.914 1672.41,769.722 1675.16,769.529 1677.91,769.337 1680.67,769.146 1683.42,768.954 1686.18,768.763 1688.93,768.572 1691.69,768.382 1694.44,768.192 1697.2,768.002 1699.95,767.812 1702.7,767.623 1705.46,767.435 1708.21,767.246 1710.97,767.058 1713.72,766.87 1716.48,766.683 1719.23,766.496 1721.99,766.309 1724.74,766.122 1727.49,765.936 1730.25,765.751 1733,765.565 1735.76,765.38 1738.51,765.195 1741.27,765.011 1744.02,764.827 1746.78,764.643 1749.53,764.46 1752.28,764.276 1755.04,764.094 1757.79,763.911 1760.55,763.729 1763.3,763.547 1766.06,763.366 1768.81,763.185 1771.57,763.004 1774.32,762.824 1777.07,762.644 1779.83,762.464 1782.58,762.285 1785.34,762.106 1788.09,761.927 1790.85,761.749 1793.6,761.571 1796.36,761.393 1799.11,761.216 1801.86,761.039 1804.62,760.862 1807.37,760.686 1810.13,760.51 1812.88,760.335 1815.64,760.159 1818.39,759.984 1821.15,759.81 1823.9,759.636 1826.65,759.462 1829.41,759.288 1832.16,759.115 1834.92,758.942 1837.67,758.77 1840.43,758.598 1843.18,758.426 1845.94,758.255 1848.69,758.084 1851.44,757.913 1854.2,757.742 1856.95,757.572 1859.71,757.403 1862.46,757.233 1865.22,757.064 1867.97,756.896 1870.73,756.728 1873.48,756.56 1876.23,756.392 1878.99,756.225 1881.74,756.058 1884.5,755.891 1887.25,755.725 1890.01,755.559 1892.76,755.394 1895.52,755.229 1898.27,755.064 1901.03,754.899 1903.78,754.735 1906.53,754.572 1909.29,754.408 1912.04,754.245 1914.8,754.082 1917.55,753.92 1920.31,753.758 1923.06,753.596 1925.82,753.435 1928.57,753.274 1931.32,753.114 1934.08,752.953 1936.83,752.793 1939.59,752.634 1942.34,752.475 1945.1,752.316 1947.85,752.157 1950.61,751.999 1953.36,751.841 1956.11,751.684 1958.87,751.527 1961.62,751.37 1964.38,751.214 1967.13,751.057 1969.89,750.902 1972.64,750.746 1975.4,750.591 1978.15,750.437 1980.9,750.282 1983.66,750.128 1986.41,749.975 1989.17,749.822 1991.92,749.669 1994.68,749.516 1997.43,749.364 2000.19,749.212 2002.94,749.06 2005.69,748.909 2008.45,748.758 2011.2,748.608 2013.96,748.458 2016.71,748.308 2019.47,748.158 2022.22,748.009 2024.98,747.86 2027.73,747.712 2030.48,747.564 2033.24,747.416 2035.99,747.269 2038.75,747.122 2041.5,746.975 2044.26,746.829 2047.01,746.683 2049.77,746.537 2052.52,746.392 2055.27,746.247 2058.03,746.102 2060.78,745.958 2063.54,745.814 2066.29,745.67 2069.05,745.527 2071.8,745.384 2074.56,745.242 2077.31,745.099 2080.06,744.957 2082.82,744.816 2085.57,744.675 2088.33,744.534 2091.08,744.393 2093.84,744.253 2096.59,744.113 2099.35,743.974 2102.1,743.835 2104.85,743.696 2107.61,743.557 2110.36,743.419 2113.12,743.281 2115.87,743.144 2118.63,743.007 2121.38,742.87 2124.14,742.733 2126.89,742.597 2129.64,742.462 2132.4,742.326 2135.15,742.191 2137.91,742.056 2140.66,741.922 2143.42,741.788 2146.17,741.654 2148.93,741.52 2151.68,741.387 2154.44,741.254 2157.19,741.122 2159.94,740.99 2162.7,740.858 2165.45,740.726 2168.21,740.595 2170.96,740.465 2173.72,740.334 2176.47,740.204 2179.23,740.074 2181.98,739.945 2184.73,739.815 2187.49,739.687 2190.24,739.558 2193,739.43 2195.75,739.302 2198.51,739.174 2201.26,739.047 2204.02,738.92 2206.77,738.794 2209.52,738.668 2212.28,738.542 2215.03,738.416 2217.79,738.291 2220.54,738.166 2223.3,738.041 2226.05,737.917 2228.81,737.793 2231.56,737.669 2234.31,737.546 2237.07,737.423 2239.82,737.3 2242.58,737.178 2245.33,737.056 2248.09,736.934 2250.84,736.813 2253.6,736.692 2256.35,736.571 2259.1,736.451 2261.86,736.33 2264.61,736.211 2267.37,736.091 2270.12,735.972 2272.88,735.853 2275.63,735.734 2278.39,735.616 2281.14,735.498 2283.89,735.38 2286.65,735.263 2289.4,735.146 2292.16,735.029 2294.91,734.913 2297.67,734.797 2300.42,734.681 2303.18,734.566 2305.93,734.45 2308.68,734.335 2311.44,734.221 2314.19,734.107 2316.95,733.993 2319.7,733.879 2322.46,733.766 2325.21,733.653 2327.97,733.54 2330.72,733.428 2333.47,733.315 2336.23,733.204 2338.98,733.092 2341.74,732.981 2344.49,732.87 2347.25,732.759 2350,732.649 2352.76,732.539 "/>
<path clip-path="url(#clip790)" d="M1969.85 1377.32 L2279.3 1377.32 L2279.3 1169.96 L1969.85 1169.96  Z" fill="#ffffff" fill-rule="evenodd" fill-opacity="1"/>
<polyline clip-path="url(#clip790)" style="stroke:#000000; stroke-linecap:round; stroke-linejoin:round; stroke-width:4; stroke-opacity:1; fill:none" points="1969.85,1377.32 2279.3,1377.32 2279.3,1169.96 1969.85,1169.96 1969.85,1377.32 "/>
<polyline clip-path="url(#clip790)" style="stroke:#009af9; stroke-linecap:round; stroke-linejoin:round; stroke-width:12; stroke-opacity:1; fill:none" points="1994.33,1221.8 2141.24,1221.8 "/>
<path clip-path="url(#clip790)" d="M2165.72 1228.84 L2165.72 1213.15 L2169.98 1213.15 L2169.98 1228.68 Q2169.98 1232.36 2171.42 1234.21 Q2172.85 1236.04 2175.72 1236.04 Q2179.17 1236.04 2181.16 1233.84 Q2183.18 1231.64 2183.18 1227.85 L2183.18 1213.15 L2187.44 1213.15 L2187.44 1239.08 L2183.18 1239.08 L2183.18 1235.09 Q2181.63 1237.45 2179.57 1238.61 Q2177.53 1239.75 2174.82 1239.75 Q2170.35 1239.75 2168.04 1236.97 Q2165.72 1234.19 2165.72 1228.84 M2176.44 1212.52 L2176.44 1212.52 Z" fill="#000000" fill-rule="nonzero" fill-opacity="1" /><path clip-path="url(#clip790)" d="M2195.82 1203.06 L2205.63 1203.06 L2205.63 1206.37 L2200.07 1206.37 L2200.07 1242.02 L2205.63 1242.02 L2205.63 1245.33 L2195.82 1245.33 L2195.82 1203.06 Z" fill="#000000" fill-rule="nonzero" fill-opacity="1" /><path clip-path="url(#clip790)" d="M2216.12 1235.14 L2223.76 1235.14 L2223.76 1208.77 L2215.44 1210.44 L2215.44 1206.18 L2223.71 1204.52 L2228.38 1204.52 L2228.38 1235.14 L2236.02 1235.14 L2236.02 1239.08 L2216.12 1239.08 L2216.12 1235.14 Z" fill="#000000" fill-rule="nonzero" fill-opacity="1" /><path clip-path="url(#clip790)" d="M2254.82 1203.06 L2254.82 1245.33 L2245 1245.33 L2245 1242.02 L2250.54 1242.02 L2250.54 1206.37 L2245 1206.37 L2245 1203.06 L2254.82 1203.06 Z" fill="#000000" fill-rule="nonzero" fill-opacity="1" /><polyline clip-path="url(#clip790)" style="stroke:#e26f46; stroke-linecap:round; stroke-linejoin:round; stroke-width:12; stroke-opacity:1; fill:none" points="1994.33,1273.64 2141.24,1273.64 "/>
<path clip-path="url(#clip790)" d="M2165.72 1280.68 L2165.72 1264.99 L2169.98 1264.99 L2169.98 1280.52 Q2169.98 1284.2 2171.42 1286.05 Q2172.85 1287.88 2175.72 1287.88 Q2179.17 1287.88 2181.16 1285.68 Q2183.18 1283.48 2183.18 1279.69 L2183.18 1264.99 L2187.44 1264.99 L2187.44 1290.92 L2183.18 1290.92 L2183.18 1286.93 Q2181.63 1289.29 2179.57 1290.45 Q2177.53 1291.59 2174.82 1291.59 Q2170.35 1291.59 2168.04 1288.81 Q2165.72 1286.03 2165.72 1280.68 M2176.44 1264.36 L2176.44 1264.36 Z" fill="#000000" fill-rule="nonzero" fill-opacity="1" /><path clip-path="url(#clip790)" d="M2195.82 1254.9 L2205.63 1254.9 L2205.63 1258.21 L2200.07 1258.21 L2200.07 1293.86 L2205.63 1293.86 L2205.63 1297.17 L2195.82 1297.17 L2195.82 1254.9 Z" fill="#000000" fill-rule="nonzero" fill-opacity="1" /><path clip-path="url(#clip790)" d="M2219.33 1286.98 L2235.65 1286.98 L2235.65 1290.92 L2213.71 1290.92 L2213.71 1286.98 Q2216.37 1284.23 2220.95 1279.6 Q2225.56 1274.94 2226.74 1273.6 Q2228.99 1271.08 2229.87 1269.34 Q2230.77 1267.58 2230.77 1265.89 Q2230.77 1263.14 2228.82 1261.4 Q2226.9 1259.67 2223.8 1259.67 Q2221.6 1259.67 2219.15 1260.43 Q2216.72 1261.19 2213.94 1262.74 L2213.94 1258.02 Q2216.76 1256.89 2219.22 1256.31 Q2221.67 1255.73 2223.71 1255.73 Q2229.08 1255.73 2232.27 1258.42 Q2235.47 1261.1 2235.47 1265.59 Q2235.47 1267.72 2234.66 1269.64 Q2233.87 1271.54 2231.76 1274.13 Q2231.19 1274.8 2228.08 1278.02 Q2224.98 1281.22 2219.33 1286.98 Z" fill="#000000" fill-rule="nonzero" fill-opacity="1" /><path clip-path="url(#clip790)" d="M2254.82 1254.9 L2254.82 1297.17 L2245 1297.17 L2245 1293.86 L2250.54 1293.86 L2250.54 1258.21 L2245 1258.21 L2245 1254.9 L2254.82 1254.9 Z" fill="#000000" fill-rule="nonzero" fill-opacity="1" /><polyline clip-path="url(#clip790)" style="stroke:#3da44d; stroke-linecap:round; stroke-linejoin:round; stroke-width:12; stroke-opacity:1; fill:none" points="1994.33,1325.48 2141.24,1325.48 "/>
<path clip-path="url(#clip790)" d="M2165.72 1332.52 L2165.72 1316.83 L2169.98 1316.83 L2169.98 1332.36 Q2169.98 1336.04 2171.42 1337.89 Q2172.85 1339.72 2175.72 1339.72 Q2179.17 1339.72 2181.16 1337.52 Q2183.18 1335.32 2183.18 1331.53 L2183.18 1316.83 L2187.44 1316.83 L2187.44 1342.76 L2183.18 1342.76 L2183.18 1338.77 Q2181.63 1341.13 2179.57 1342.29 Q2177.53 1343.43 2174.82 1343.43 Q2170.35 1343.43 2168.04 1340.65 Q2165.72 1337.87 2165.72 1332.52 M2176.44 1316.2 L2176.44 1316.2 Z" fill="#000000" fill-rule="nonzero" fill-opacity="1" /><path clip-path="url(#clip790)" d="M2206.44 1306.78 Q2203.34 1312.11 2201.83 1317.32 Q2200.33 1322.52 2200.33 1327.87 Q2200.33 1333.22 2201.83 1338.47 Q2203.36 1343.7 2206.44 1349.01 L2202.74 1349.01 Q2199.26 1343.57 2197.53 1338.31 Q2195.82 1333.06 2195.82 1327.87 Q2195.82 1322.71 2197.53 1317.48 Q2199.24 1312.25 2202.74 1306.78 L2206.44 1306.78 Z" fill="#000000" fill-rule="nonzero" fill-opacity="1" /><path clip-path="url(#clip790)" d="M2218.92 1309.47 L2218.92 1316.83 L2227.69 1316.83 L2227.69 1320.14 L2218.92 1320.14 L2218.92 1334.21 Q2218.92 1337.38 2219.77 1338.29 Q2220.65 1339.19 2223.32 1339.19 L2227.69 1339.19 L2227.69 1342.76 L2223.32 1342.76 Q2218.38 1342.76 2216.51 1340.93 Q2214.63 1339.07 2214.63 1334.21 L2214.63 1320.14 L2211.51 1320.14 L2211.51 1316.83 L2214.63 1316.83 L2214.63 1309.47 L2218.92 1309.47 Z" fill="#000000" fill-rule="nonzero" fill-opacity="1" /><path clip-path="url(#clip790)" d="M2232.62 1306.78 L2236.32 1306.78 Q2239.8 1312.25 2241.51 1317.48 Q2243.25 1322.71 2243.25 1327.87 Q2243.25 1333.06 2241.51 1338.31 Q2239.8 1343.57 2236.32 1349.01 L2232.62 1349.01 Q2235.7 1343.7 2237.2 1338.47 Q2238.73 1333.22 2238.73 1327.87 Q2238.73 1322.52 2237.2 1317.32 Q2235.7 1312.11 2232.62 1306.78 Z" fill="#000000" fill-rule="nonzero" fill-opacity="1" /></svg>
