<?xml version="1.0" encoding="utf-8"?>
<svg xmlns="http://www.w3.org/2000/svg" xmlns:xlink="http://www.w3.org/1999/xlink" width="600" height="400" viewBox="0 0 2400 1600">
<defs>
  <clipPath id="clip900">
    <rect x="0" y="0" width="2400" height="1600"/>
  </clipPath>
</defs>
<path clip-path="url(#clip900)" d="M0 1600 L2400 1600 L2400 0 L0 0  Z" fill="#ffffff" fill-rule="evenodd" fill-opacity="1"/>
<defs>
  <clipPath id="clip901">
    <rect x="480" y="0" width="1681" height="1600"/>
  </clipPath>
</defs>
<path clip-path="url(#clip900)" d="M149.191 1423.18 L2352.76 1423.18 L2352.76 47.2441 L149.191 47.2441  Z" fill="#ffffff" fill-rule="evenodd" fill-opacity="1"/>
<defs>
  <clipPath id="clip902">
    <rect x="149" y="47" width="2205" height="1377"/>
  </clipPath>
</defs>
<polyline clip-path="url(#clip902)" style="stroke:#000000; stroke-linecap:round; stroke-linejoin:round; stroke-width:2; stroke-opacity:0.1; fill:none" points="149.191,1423.18 149.191,47.2441 "/>
<polyline clip-path="url(#clip902)" style="stroke:#000000; stroke-linecap:round; stroke-linejoin:round; stroke-width:2; stroke-opacity:0.1; fill:none" points="700.082,1423.18 700.082,47.2441 "/>
<polyline clip-path="url(#clip902)" style="stroke:#000000; stroke-linecap:round; stroke-linejoin:round; stroke-width:2; stroke-opacity:0.1; fill:none" points="1250.97,1423.18 1250.97,47.2441 "/>
<polyline clip-path="url(#clip902)" style="stroke:#000000; stroke-linecap:round; stroke-linejoin:round; stroke-width:2; stroke-opacity:0.1; fill:none" points="1801.86,1423.18 1801.86,47.2441 "/>
<polyline clip-path="url(#clip902)" style="stroke:#000000; stroke-linecap:round; stroke-linejoin:round; stroke-width:2; stroke-opacity:0.1; fill:none" points="2352.76,1423.18 2352.76,47.2441 "/>
<polyline clip-path="url(#clip902)" style="stroke:#000000; stroke-linecap:round; stroke-linejoin:round; stroke-width:2; stroke-opacity:0.1; fill:none" points="149.191,1423.18 2352.76,1423.18 "/>
<polyline clip-path="url(#clip902)" style="stroke:#000000; stroke-linecap:round; stroke-linejoin:round; stroke-width:2; stroke-opacity:0.1; fill:none" points="149.191,1193.86 2352.76,1193.86 "/>
<polyline clip-path="url(#clip902)" style="stroke:#000000; stroke-linecap:round; stroke-linejoin:round; stroke-width:2; stroke-opacity:0.1; fill:none" points="149.191,964.535 2352.76,964.535 "/>
<polyline clip-path="url(#clip902)" style="stroke:#000000; stroke-linecap:round; stroke-linejoin:round; stroke-width:2; stroke-opacity:0.1; fill:none" points="149.191,735.212 2352.76,735.212 "/>
<polyline clip-path="url(#clip902)" style="stroke:#000000; stroke-linecap:round; stroke-linejoin:round; stroke-width:2; stroke-opacity:0.1; fill:none" points="149.191,505.889 2352.76,505.889 "/>
<polyline clip-path="url(#clip902)" style="stroke:#000000; stroke-linecap:round; stroke-linejoin:round; stroke-width:2; stroke-opacity:0.1; fill:none" points="149.191,276.567 2352.76,276.567 "/>
<polyline clip-path="url(#clip902)" style="stroke:#000000; stroke-linecap:round; stroke-linejoin:round; stroke-width:2; stroke-opacity:0.1; fill:none" points="149.191,47.2441 2352.76,47.2441 "/>
<polyline clip-path="url(#clip900)" style="stroke:#000000; stroke-linecap:round; stroke-linejoin:round; stroke-width:4; stroke-opacity:1; fill:none" points="149.191,1423.18 2352.76,1423.18 "/>
<polyline clip-path="url(#clip900)" style="stroke:#000000; stroke-linecap:round; stroke-linejoin:round; stroke-width:4; stroke-opacity:1; fill:none" points="149.191,1423.18 149.191,1404.28 "/>
<polyline clip-path="url(#clip900)" style="stroke:#000000; stroke-linecap:round; stroke-linejoin:round; stroke-width:4; stroke-opacity:1; fill:none" points="700.082,1423.18 700.082,1404.28 "/>
<polyline clip-path="url(#clip900)" style="stroke:#000000; stroke-linecap:round; stroke-linejoin:round; stroke-width:4; stroke-opacity:1; fill:none" points="1250.97,1423.18 1250.97,1404.28 "/>
<polyline clip-path="url(#clip900)" style="stroke:#000000; stroke-linecap:round; stroke-linejoin:round; stroke-width:4; stroke-opacity:1; fill:none" points="1801.86,1423.18 1801.86,1404.28 "/>
<polyline clip-path="url(#clip900)" style="stroke:#000000; stroke-linecap:round; stroke-linejoin:round; stroke-width:4; stroke-opacity:1; fill:none" points="2352.76,1423.18 2352.76,1404.28 "/>
<path clip-path="url(#clip900)" d="M149.191 1454.1 Q145.58 1454.1 143.751 1457.66 Q141.946 1461.2 141.946 1468.33 Q141.946 1475.44 143.751 1479.01 Q145.58 1482.55 149.191 1482.55 Q152.825 1482.55 154.631 1479.01 Q156.459 1475.44 156.459 1468.33 Q156.459 1461.2 154.631 1457.66 Q152.825 1454.1 149.191 1454.1 M149.191 1450.39 Q155.001 1450.39 158.057 1455 Q161.135 1459.58 161.135 1468.33 Q161.135 1477.06 158.057 1481.67 Q155.001 1486.25 149.191 1486.25 Q143.381 1486.25 140.302 1481.67 Q137.246 1477.06 137.246 1468.33 Q137.246 1459.58 140.302 1455 Q143.381 1450.39 149.191 1450.39 Z" fill="#000000" fill-rule="nonzero" fill-opacity="1" /><path clip-path="url(#clip900)" d="M694.735 1481.64 L711.054 1481.64 L711.054 1485.58 L689.11 1485.58 L689.11 1481.64 Q691.772 1478.89 696.355 1474.26 Q700.962 1469.61 702.142 1468.27 Q704.388 1465.74 705.267 1464.01 Q706.17 1462.25 706.17 1460.56 Q706.17 1457.8 704.226 1456.07 Q702.304 1454.33 699.203 1454.33 Q697.003 1454.33 694.55 1455.09 Q692.119 1455.86 689.341 1457.41 L689.341 1452.69 Q692.166 1451.55 694.619 1450.97 Q697.073 1450.39 699.11 1450.39 Q704.48 1450.39 707.675 1453.08 Q710.869 1455.77 710.869 1460.26 Q710.869 1462.39 710.059 1464.31 Q709.272 1466.2 707.165 1468.8 Q706.587 1469.47 703.485 1472.69 Q700.383 1475.88 694.735 1481.64 Z" fill="#000000" fill-rule="nonzero" fill-opacity="1" /><path clip-path="url(#clip900)" d="M1253.98 1455.09 L1242.18 1473.54 L1253.98 1473.54 L1253.98 1455.09 M1252.76 1451.02 L1258.64 1451.02 L1258.64 1473.54 L1263.57 1473.54 L1263.57 1477.43 L1258.64 1477.43 L1258.64 1485.58 L1253.98 1485.58 L1253.98 1477.43 L1238.38 1477.43 L1238.38 1472.92 L1252.76 1451.02 Z" fill="#000000" fill-rule="nonzero" fill-opacity="1" /><path clip-path="url(#clip900)" d="M1802.27 1466.44 Q1799.12 1466.44 1797.27 1468.59 Q1795.44 1470.74 1795.44 1474.49 Q1795.44 1478.22 1797.27 1480.39 Q1799.12 1482.55 1802.27 1482.55 Q1805.42 1482.55 1807.25 1480.39 Q1809.1 1478.22 1809.1 1474.49 Q1809.1 1470.74 1807.25 1468.59 Q1805.42 1466.44 1802.27 1466.44 M1811.55 1451.78 L1811.55 1456.04 Q1809.79 1455.21 1807.99 1454.77 Q1806.2 1454.33 1804.45 1454.33 Q1799.82 1454.33 1797.36 1457.45 Q1794.93 1460.58 1794.58 1466.9 Q1795.95 1464.89 1798.01 1463.82 Q1800.07 1462.73 1802.55 1462.73 Q1807.76 1462.73 1810.77 1465.9 Q1813.8 1469.05 1813.8 1474.49 Q1813.8 1479.82 1810.65 1483.03 Q1807.5 1486.25 1802.27 1486.25 Q1796.27 1486.25 1793.1 1481.67 Q1789.93 1477.06 1789.93 1468.33 Q1789.93 1460.14 1793.82 1455.28 Q1797.71 1450.39 1804.26 1450.39 Q1806.02 1450.39 1807.8 1450.74 Q1809.61 1451.09 1811.55 1451.78 Z" fill="#000000" fill-rule="nonzero" fill-opacity="1" /><path clip-path="url(#clip900)" d="M2352.76 1469.17 Q2349.42 1469.17 2347.5 1470.95 Q2345.6 1472.73 2345.6 1475.86 Q2345.6 1478.98 2347.5 1480.77 Q2349.42 1482.55 2352.76 1482.55 Q2356.09 1482.55 2358.01 1480.77 Q2359.93 1478.96 2359.93 1475.86 Q2359.93 1472.73 2358.01 1470.95 Q2356.11 1469.17 2352.76 1469.17 M2348.08 1467.18 Q2345.07 1466.44 2343.38 1464.38 Q2341.71 1462.32 2341.71 1459.35 Q2341.71 1455.21 2344.65 1452.8 Q2347.62 1450.39 2352.76 1450.39 Q2357.92 1450.39 2360.86 1452.8 Q2363.8 1455.21 2363.8 1459.35 Q2363.8 1462.32 2362.11 1464.38 Q2360.44 1466.44 2357.45 1467.18 Q2360.83 1467.96 2362.71 1470.26 Q2364.61 1472.55 2364.61 1475.86 Q2364.61 1480.88 2361.53 1483.57 Q2358.47 1486.25 2352.76 1486.25 Q2347.04 1486.25 2343.96 1483.57 Q2340.9 1480.88 2340.9 1475.86 Q2340.9 1472.55 2342.8 1470.26 Q2344.7 1467.96 2348.08 1467.18 M2346.37 1459.79 Q2346.37 1462.48 2348.03 1463.98 Q2349.72 1465.49 2352.76 1465.49 Q2355.77 1465.49 2357.45 1463.98 Q2359.17 1462.48 2359.17 1459.79 Q2359.17 1457.11 2357.45 1455.6 Q2355.77 1454.1 2352.76 1454.1 Q2349.72 1454.1 2348.03 1455.6 Q2346.37 1457.11 2346.37 1459.79 Z" fill="#000000" fill-rule="nonzero" fill-opacity="1" /><path clip-path="url(#clip900)" d="M1250.03 1522.27 L1250.03 1532.4 L1262.1 1532.4 L1262.1 1536.95 L1250.03 1536.95 L1250.03 1556.3 Q1250.03 1560.66 1251.21 1561.9 Q1252.42 1563.14 1256.08 1563.14 L1262.1 1563.14 L1262.1 1568.04 L1256.08 1568.04 Q1249.3 1568.04 1246.72 1565.53 Q1244.15 1562.98 1244.15 1556.3 L1244.15 1536.95 L1239.85 1536.95 L1239.85 1532.4 L1244.15 1532.4 L1244.15 1522.27 L1250.03 1522.27 Z" fill="#000000" fill-rule="nonzero" fill-opacity="1" /><polyline clip-path="url(#clip900)" style="stroke:#000000; stroke-linecap:round; stroke-linejoin:round; stroke-width:4; stroke-opacity:1; fill:none" points="149.191,1423.18 149.191,47.2441 "/>
<polyline clip-path="url(#clip900)" style="stroke:#000000; stroke-linecap:round; stroke-linejoin:round; stroke-width:4; stroke-opacity:1; fill:none" points="149.191,1423.18 168.089,1423.18 "/>
<polyline clip-path="url(#clip900)" style="stroke:#000000; stroke-linecap:round; stroke-linejoin:round; stroke-width:4; stroke-opacity:1; fill:none" points="149.191,1193.86 168.089,1193.86 "/>
<polyline clip-path="url(#clip900)" style="stroke:#000000; stroke-linecap:round; stroke-linejoin:round; stroke-width:4; stroke-opacity:1; fill:none" points="149.191,964.535 168.089,964.535 "/>
<polyline clip-path="url(#clip900)" style="stroke:#000000; stroke-linecap:round; stroke-linejoin:round; stroke-width:4; stroke-opacity:1; fill:none" points="149.191,735.212 168.089,735.212 "/>
<polyline clip-path="url(#clip900)" style="stroke:#000000; stroke-linecap:round; stroke-linejoin:round; stroke-width:4; stroke-opacity:1; fill:none" points="149.191,505.889 168.089,505.889 "/>
<polyline clip-path="url(#clip900)" style="stroke:#000000; stroke-linecap:round; stroke-linejoin:round; stroke-width:4; stroke-opacity:1; fill:none" points="149.191,276.567 168.089,276.567 "/>
<polyline clip-path="url(#clip900)" style="stroke:#000000; stroke-linecap:round; stroke-linejoin:round; stroke-width:4; stroke-opacity:1; fill:none" points="149.191,47.2441 168.089,47.2441 "/>
<path clip-path="url(#clip900)" d="M51.3162 1423.63 L80.992 1423.63 L80.992 1427.57 L51.3162 1427.57 L51.3162 1423.63 Z" fill="#000000" fill-rule="nonzero" fill-opacity="1" /><path clip-path="url(#clip900)" d="M101.663 1421.32 Q98.515 1421.32 96.6632 1423.47 Q94.8345 1425.62 94.8345 1429.37 Q94.8345 1433.1 96.6632 1435.27 Q98.515 1437.43 101.663 1437.43 Q104.811 1437.43 106.64 1435.27 Q108.492 1433.1 108.492 1429.37 Q108.492 1425.62 106.64 1423.47 Q104.811 1421.32 101.663 1421.32 M110.946 1406.66 L110.946 1410.92 Q109.186 1410.09 107.381 1409.65 Q105.598 1409.21 103.839 1409.21 Q99.2095 1409.21 96.7558 1412.33 Q94.3252 1415.46 93.978 1421.78 Q95.3437 1419.77 97.4039 1418.7 Q99.4641 1417.61 101.941 1417.61 Q107.149 1417.61 110.158 1420.78 Q113.191 1423.93 113.191 1429.37 Q113.191 1434.7 110.043 1437.91 Q106.895 1441.13 101.663 1441.13 Q95.6678 1441.13 92.4965 1436.55 Q89.3253 1431.94 89.3253 1423.21 Q89.3253 1415.02 93.2141 1410.16 Q97.103 1405.27 103.654 1405.27 Q105.413 1405.27 107.196 1405.62 Q109.001 1405.97 110.946 1406.66 Z" fill="#000000" fill-rule="nonzero" fill-opacity="1" /><path clip-path="url(#clip900)" d="M50.9921 1194.31 L80.6679 1194.31 L80.6679 1198.24 L50.9921 1198.24 L50.9921 1194.31 Z" fill="#000000" fill-rule="nonzero" fill-opacity="1" /><path clip-path="url(#clip900)" d="M103.608 1180.65 L91.8021 1199.1 L103.608 1199.1 L103.608 1180.65 M102.381 1176.58 L108.26 1176.58 L108.26 1199.1 L113.191 1199.1 L113.191 1202.99 L108.26 1202.99 L108.26 1211.14 L103.608 1211.14 L103.608 1202.99 L88.0058 1202.99 L88.0058 1198.48 L102.381 1176.58 Z" fill="#000000" fill-rule="nonzero" fill-opacity="1" /><path clip-path="url(#clip900)" d="M53.0754 964.986 L82.7512 964.986 L82.7512 968.921 L53.0754 968.921 L53.0754 964.986 Z" fill="#000000" fill-rule="nonzero" fill-opacity="1" /><path clip-path="url(#clip900)" d="M96.8715 977.879 L113.191 977.879 L113.191 981.815 L91.2465 981.815 L91.2465 977.879 Q93.9086 975.125 98.4919 970.495 Q103.098 965.842 104.279 964.5 Q106.524 961.977 107.404 960.241 Q108.307 958.481 108.307 956.792 Q108.307 954.037 106.362 952.301 Q104.441 950.565 101.339 950.565 Q99.14 950.565 96.6863 951.329 Q94.2558 952.093 91.478 953.643 L91.478 948.921 Q94.3021 947.787 96.7558 947.208 Q99.2095 946.63 101.246 946.63 Q106.617 946.63 109.811 949.315 Q113.006 952 113.006 956.491 Q113.006 958.62 112.196 960.542 Q111.408 962.44 109.302 965.032 Q108.723 965.704 105.621 968.921 Q102.52 972.116 96.8715 977.879 Z" fill="#000000" fill-rule="nonzero" fill-opacity="1" /><path clip-path="url(#clip900)" d="M101.246 721.011 Q97.6354 721.011 95.8067 724.575 Q94.0012 728.117 94.0012 735.247 Q94.0012 742.353 95.8067 745.918 Q97.6354 749.46 101.246 749.46 Q104.881 749.46 106.686 745.918 Q108.515 742.353 108.515 735.247 Q108.515 728.117 106.686 724.575 Q104.881 721.011 101.246 721.011 M101.246 717.307 Q107.057 717.307 110.112 721.913 Q113.191 726.497 113.191 735.247 Q113.191 743.973 110.112 748.58 Q107.057 753.163 101.246 753.163 Q95.4363 753.163 92.3576 748.58 Q89.3021 743.973 89.3021 735.247 Q89.3021 726.497 92.3576 721.913 Q95.4363 717.307 101.246 717.307 Z" fill="#000000" fill-rule="nonzero" fill-opacity="1" /><path clip-path="url(#clip900)" d="M96.8715 519.234 L113.191 519.234 L113.191 523.169 L91.2465 523.169 L91.2465 519.234 Q93.9086 516.48 98.4919 511.85 Q103.098 507.197 104.279 505.855 Q106.524 503.331 107.404 501.595 Q108.307 499.836 108.307 498.146 Q108.307 495.392 106.362 493.656 Q104.441 491.92 101.339 491.92 Q99.14 491.92 96.6863 492.683 Q94.2558 493.447 91.478 494.998 L91.478 490.276 Q94.3021 489.142 96.7558 488.563 Q99.2095 487.984 101.246 487.984 Q106.617 487.984 109.811 490.67 Q113.006 493.355 113.006 497.845 Q113.006 499.975 112.196 501.896 Q111.408 503.794 109.302 506.387 Q108.723 507.058 105.621 510.276 Q102.52 513.47 96.8715 519.234 Z" fill="#000000" fill-rule="nonzero" fill-opacity="1" /><path clip-path="url(#clip900)" d="M103.608 263.361 L91.8021 281.81 L103.608 281.81 L103.608 263.361 M102.381 259.287 L108.26 259.287 L108.26 281.81 L113.191 281.81 L113.191 285.699 L108.26 285.699 L108.26 293.847 L103.608 293.847 L103.608 285.699 L88.0058 285.699 L88.0058 281.185 L102.381 259.287 Z" fill="#000000" fill-rule="nonzero" fill-opacity="1" /><path clip-path="url(#clip900)" d="M101.663 45.3807 Q98.515 45.3807 96.6632 47.5334 Q94.8345 49.6862 94.8345 53.4362 Q94.8345 57.163 96.6632 59.3389 Q98.515 61.4917 101.663 61.4917 Q104.811 61.4917 106.64 59.3389 Q108.492 57.163 108.492 53.4362 Q108.492 49.6862 106.64 47.5334 Q104.811 45.3807 101.663 45.3807 M110.946 30.728 L110.946 34.9872 Q109.186 34.1539 107.381 33.7141 Q105.598 33.2743 103.839 33.2743 Q99.2095 33.2743 96.7558 36.3992 Q94.3252 39.5242 93.978 45.8436 Q95.3437 43.8298 97.4039 42.765 Q99.4641 41.677 101.941 41.677 Q107.149 41.677 110.158 44.8483 Q113.191 47.9964 113.191 53.4362 Q113.191 58.7602 110.043 61.9778 Q106.895 65.1954 101.663 65.1954 Q95.6678 65.1954 92.4965 60.6121 Q89.3253 56.0056 89.3253 47.2788 Q89.3253 39.0844 93.2141 34.2233 Q97.103 29.3391 103.654 29.3391 Q105.413 29.3391 107.196 29.6863 Q109.001 30.0335 110.946 30.728 Z" fill="#000000" fill-rule="nonzero" fill-opacity="1" /><polyline clip-path="url(#clip902)" style="stroke:#009af9; stroke-linecap:round; stroke-linejoin:round; stroke-width:12; stroke-opacity:1; fill:none" points="149.191,1193.86 151.945,1193.62 154.7,1192.94 157.454,1191.84 160.209,1190.37 162.963,1188.56 165.718,1186.44 168.472,1184.06 171.227,1181.43 173.981,1178.6 176.735,1175.58 179.49,1172.42 182.244,1169.13 184.999,1165.74 187.753,1162.27 190.508,1158.73 193.262,1155.14 196.017,1151.52 198.771,1147.86 201.526,1144.19 204.28,1140.5 207.034,1136.81 209.789,1133.11 212.543,1129.41 215.298,1125.7 218.052,1122 220.807,1118.29 223.561,1114.59 226.316,1110.88 229.07,1107.18 231.825,1103.48 234.579,1099.77 237.333,1096.07 240.088,1092.37 242.842,1088.67 245.597,1084.97 248.351,1081.27 251.106,1077.58 253.86,1073.89 256.615,1070.21 259.369,1066.53 262.124,1062.86 264.878,1059.2 267.632,1055.55 270.387,1051.9 273.141,1048.26 275.896,1044.64 278.65,1041.02 281.405,1037.42 284.159,1033.82 286.914,1030.24 289.668,1026.67 292.423,1023.11 295.177,1019.56 297.932,1016.03 300.686,1012.5 303.44,1009 306.195,1005.5 308.949,1002.02 311.704,998.549 314.458,995.093 317.213,991.65 319.967,988.221 322.722,984.805 325.476,981.403 328.231,978.014 330.985,974.638 333.739,971.275 336.494,967.926 339.248,964.59 342.003,961.268 344.757,957.958 347.512,954.662 350.266,951.379 353.021,948.109 355.775,944.851 358.53,941.607 361.284,938.376 364.038,935.158 366.793,931.952 369.547,928.758 372.302,925.578 375.056,922.41 377.811,919.254 380.565,916.11 383.32,912.979 386.074,909.86 388.829,906.752 391.583,903.657 394.337,900.574 397.092,897.503 399.846,894.443 402.601,891.396 405.355,888.359 408.11,885.335 410.864,882.322 413.619,879.32 416.373,876.329 419.128,873.35 421.882,870.382 424.636,867.425 427.391,864.479 430.145,861.544 432.9,858.62 435.654,855.707 438.409,852.805 441.163,849.913 443.918,847.032 446.672,844.161 449.427,841.301 452.181,838.451 454.936,835.612 457.69,832.783 460.444,829.964 463.199,827.155 465.953,824.356 468.708,821.567 471.462,818.789 474.217,816.02 476.971,813.261 479.726,810.511 482.48,807.772 485.235,805.042 487.989,802.321 490.743,799.61 493.498,796.909 496.252,794.217 499.007,791.534 501.761,788.861 504.516,786.197 507.27,783.542 510.025,780.896 512.779,778.259 515.534,775.632 518.288,773.013 521.042,770.403 523.797,767.802 526.551,765.21 529.306,762.627 532.06,760.052 534.815,757.486 537.569,754.929 540.324,752.38 543.078,749.84 545.833,747.308 548.587,744.785 551.341,742.27 554.096,739.764 556.85,737.265 559.605,734.776 562.359,732.294 565.114,729.82 567.868,727.355 570.623,724.898 573.377,722.448 576.132,720.008 578.886,717.574 581.641,715.149 584.395,712.732 587.149,710.322 589.904,707.92 592.658,705.526 595.413,703.14 598.167,700.762 600.922,698.391 603.676,696.028 606.431,693.673 609.185,691.325 611.94,688.984 614.694,686.652 617.448,684.326 620.203,682.008 622.957,679.698 625.712,677.395 628.466,675.099 631.221,672.811 633.975,670.53 636.73,668.256 639.484,665.99 642.239,663.731 644.993,661.479 647.747,659.234 650.502,656.996 653.256,654.766 656.011,652.542 658.765,650.326 661.52,648.116 664.274,645.914 667.029,643.719 669.783,641.53 672.538,639.349 675.292,637.174 678.046,635.007 680.801,632.846 683.555,630.692 686.31,628.545 689.064,626.404 691.819,624.271 694.573,622.144 697.328,620.024 700.082,617.911 702.837,615.804 705.591,613.704 708.345,611.611 711.1,609.524 713.854,607.445 716.609,605.371 719.363,603.304 722.118,601.244 724.872,599.191 727.627,597.143 730.381,595.103 733.136,593.069 735.89,591.041 738.645,589.02 741.399,587.005 744.153,584.997 746.908,582.995 749.662,581 752.417,579.011 755.171,577.028 757.926,575.052 760.68,573.082 763.435,571.118 766.189,569.161 768.944,567.21 771.698,565.266 774.452,563.327 777.207,561.395 779.961,559.47 782.716,557.55 785.47,555.637 788.225,553.73 790.979,551.829 793.734,549.934 796.488,548.046 799.243,546.164 801.997,544.287 804.751,542.417 807.506,540.554 810.26,538.696 813.015,536.844 815.769,534.999 818.524,533.16 821.278,531.326 824.033,529.499 826.787,527.678 829.542,525.863 832.296,524.054 835.05,522.251 837.805,520.455 840.559,518.664 843.314,516.879 846.068,515.1 848.823,513.327 851.577,511.56 854.332,509.8 857.086,508.045 859.841,506.296 862.595,504.553 865.349,502.816 868.104,501.085 870.858,499.36 873.613,497.641 876.367,495.927 879.122,494.22 881.876,492.519 884.631,490.823 887.385,489.133 890.14,487.45 892.894,485.772 895.649,484.1 898.403,482.434 901.157,480.773 903.912,479.119 906.666,477.47 909.421,475.827 912.175,474.19 914.93,472.559 917.684,470.934 920.439,469.314 923.193,467.701 925.948,466.093 928.702,464.491 931.456,462.895 934.211,461.304 936.965,459.719 939.72,458.14 942.474,456.567 945.229,454.999 947.983,453.438 950.738,451.882 953.492,450.332 956.247,448.787 959.001,447.249 961.755,445.716 964.51,444.189 967.264,442.667 970.019,441.152 972.773,439.641 975.528,438.137 978.282,436.639 981.037,435.146 983.791,433.659 986.546,432.177 989.3,430.701 992.054,429.231 994.809,427.767 997.563,426.308 1000.32,424.855 1003.07,423.408 1005.83,421.966 1008.58,420.53 1011.34,419.1 1014.09,417.675 1016.84,416.256 1019.6,414.843 1022.35,413.435 1025.11,412.033 1027.86,410.637 1030.62,409.246 1033.37,407.861 1036.13,406.481 1038.88,405.107 1041.63,403.739 1044.39,402.377 1047.14,401.02 1049.9,399.668 1052.65,398.323 1055.41,396.982 1058.16,395.648 1060.92,394.319 1063.67,392.996 1066.42,391.678 1069.18,390.366 1071.93,389.059 1074.69,387.759 1077.44,386.463 1080.2,385.174 1082.95,383.889 1085.71,382.611 1088.46,381.338 1091.21,380.071 1093.97,378.809 1096.72,377.553 1099.48,376.302 1102.23,375.057 1104.99,373.817 1107.74,372.583 1110.5,371.355 1113.25,370.132 1116.01,368.915 1118.76,367.703 1121.51,366.497 1124.27,365.296 1127.02,364.101 1129.78,362.912 1132.53,361.728 1135.29,360.549 1138.04,359.376 1140.8,358.209 1143.55,357.047 1146.3,355.891 1149.06,354.74 1151.81,353.595 1154.57,352.455 1157.32,351.321 1160.08,350.192 1162.83,349.069 1165.59,347.952 1168.34,346.84 1171.09,345.733 1173.85,344.632 1176.6,343.536 1179.36,342.446 1182.11,341.362 1184.87,340.283 1187.62,339.209 1190.38,338.141 1193.13,337.079 1195.88,336.022 1198.64,334.97 1201.39,333.924 1204.15,332.884 1206.9,331.849 1209.66,330.819 1212.41,329.795 1215.17,328.777 1217.92,327.764 1220.67,326.756 1223.43,325.754 1226.18,324.758 1228.94,323.767 1231.69,322.781 1234.45,321.801 1237.2,320.827 1239.96,319.858 1242.71,318.894 1245.46,317.936 1248.22,316.983 1250.97,316.036 1253.73,315.094 1256.48,314.158 1259.24,313.227 1261.99,312.302 1264.75,311.382 1267.5,310.468 1270.25,309.559 1273.01,308.655 1275.76,307.757 1278.52,306.865 1281.27,305.978 1284.03,305.096 1286.78,304.22 1289.54,303.35 1292.29,302.484 1295.04,301.625 1297.8,300.77 1300.55,299.922 1303.31,299.078 1306.06,298.241 1308.82,297.408 1311.57,296.581 1314.33,295.76 1317.08,294.944 1319.83,294.133 1322.59,293.328 1325.34,292.528 1328.1,291.734 1330.85,290.945 1333.61,290.162 1336.36,289.384 1339.12,288.612 1341.87,287.845 1344.62,287.083 1347.38,286.327 1350.13,285.576 1352.89,284.831 1355.64,284.091 1358.4,283.357 1361.15,282.628 1363.91,281.904 1366.66,281.186 1369.41,280.474 1372.17,279.767 1374.92,279.065 1377.68,278.369 1380.43,277.678 1383.19,276.992 1385.94,276.312 1388.7,275.638 1391.45,274.969 1394.21,274.305 1396.96,273.647 1399.71,272.994 1402.47,272.346 1405.22,271.704 1407.98,271.068 1410.73,270.437 1413.49,269.811 1416.24,269.191 1419,268.576 1421.75,267.966 1424.5,267.362 1427.26,266.764 1430.01,266.171 1432.77,265.583 1435.52,265.001 1438.28,264.424 1441.03,263.852 1443.79,263.286 1446.54,262.725 1449.29,262.17 1452.05,261.62 1454.8,261.076 1457.56,260.537 1460.31,260.003 1463.07,259.475 1465.82,258.952 1468.58,258.435 1471.33,257.923 1474.08,257.417 1476.84,256.916 1479.59,256.42 1482.35,255.93 1485.1,255.445 1487.86,254.965 1490.61,254.491 1493.37,254.023 1496.12,253.559 1498.87,253.102 1501.63,252.649 1504.38,252.202 1507.14,251.76 1509.89,251.324 1512.65,250.893 1515.4,250.468 1518.16,250.048 1520.91,249.633 1523.66,249.224 1526.42,248.82 1529.17,248.422 1531.93,248.029 1534.68,247.641 1537.44,247.259 1540.19,246.882 1542.95,246.511 1545.7,246.145 1548.45,245.784 1551.21,245.429 1553.96,245.079 1556.72,244.735 1559.47,244.396 1562.23,244.062 1564.98,243.734 1567.74,243.411 1570.49,243.094 1573.24,242.782 1576,242.475 1578.75,242.174 1581.51,241.878 1584.26,241.588 1587.02,241.303 1589.77,241.023 1592.53,240.749 1595.28,240.48 1598.03,240.216 1600.79,239.958 1603.54,239.706 1606.3,239.458 1609.05,239.216 1611.81,238.98 1614.56,238.749 1617.32,238.523 1620.07,238.302 1622.82,238.087 1625.58,237.878 1628.33,237.674 1631.09,237.475 1633.84,237.281 1636.6,237.093 1639.35,236.911 1642.11,236.733 1644.86,236.562 1647.62,236.395 1650.37,236.234 1653.12,236.078 1655.88,235.928 1658.63,235.783 1661.39,235.643 1664.14,235.509 1666.9,235.38 1669.65,235.257 1672.41,235.139 1675.16,235.026 1677.91,234.919 1680.67,234.817 1683.42,234.721 1686.18,234.629 1688.93,234.544 1691.69,234.463 1694.44,234.388 1697.2,234.319 1699.95,234.255 1702.7,234.196 1705.46,234.142 1708.21,234.094 1710.97,234.051 1713.72,234.014 1716.48,233.982 1719.23,233.956 1721.99,233.934 1724.74,233.919 1727.49,233.908 1730.25,233.903 1733,233.904 1735.76,233.909 1738.51,233.92 1741.27,233.937 1744.02,233.959 1746.78,233.986 1749.53,234.018 1752.28,234.056 1755.04,234.1 1757.79,234.148 1760.55,234.202 1763.3,234.262 1766.06,234.327 1768.81,234.397 1771.57,234.473 1774.32,234.554 1777.07,234.64 1779.83,234.732 1782.58,234.829 1785.34,234.931 1788.09,235.039 1790.85,235.152 1793.6,235.271 1796.36,235.395 1799.11,235.524 1801.86,235.659 1804.62,235.799 1807.37,235.944 1810.13,236.095 1812.88,236.251 1815.64,236.413 1818.39,236.579 1821.15,236.752 1823.9,236.929 1826.65,237.112 1829.41,237.301 1832.16,237.494 1834.92,237.694 1837.67,237.898 1840.43,238.108 1843.18,238.323 1845.94,238.544 1848.69,238.77 1851.44,239.001 1854.2,239.238 1856.95,239.48 1859.71,239.727 1862.46,239.98 1865.22,240.238 1867.97,240.502 1870.73,240.771 1873.48,241.045 1876.23,241.324 1878.99,241.609 1881.74,241.9 1884.5,242.195 1887.25,242.497 1890.01,242.803 1892.76,243.115 1895.52,243.432 1898.27,243.755 1901.03,244.082 1903.78,244.416 1906.53,244.754 1909.29,245.098 1912.04,245.448 1914.8,245.802 1917.55,246.163 1920.31,246.528 1923.06,246.899 1925.82,247.275 1928.57,247.657 1931.32,248.043 1934.08,248.436 1936.83,248.833 1939.59,249.236 1942.34,249.645 1945.1,250.058 1947.85,250.477 1950.61,250.902 1953.36,251.332 1956.11,251.767 1958.87,252.207 1961.62,252.653 1964.38,253.104 1967.13,253.561 1969.89,254.023 1972.64,254.49 1975.4,254.963 1978.15,255.441 1980.9,255.924 1983.66,256.413 1986.41,256.907 1989.17,257.406 1991.92,257.911 1994.68,258.421 1997.43,258.937 2000.19,259.458 2002.94,259.984 2005.69,260.516 2008.45,261.052 2011.2,261.595 2013.96,262.142 2016.71,262.696 2019.47,263.254 2022.22,263.817 2024.98,264.387 2027.73,264.961 2030.48,265.541 2033.24,266.126 2035.99,266.716 2038.75,267.312 2041.5,267.914 2044.26,268.52 2047.01,269.132 2049.77,269.749 2052.52,270.372 2055.27,271 2058.03,271.633 2060.78,272.272 2063.54,272.916 2066.29,273.566 2069.05,274.22 2071.8,274.88 2074.56,275.546 2077.31,276.217 2080.06,276.893 2082.82,277.574 2085.57,278.261 2088.33,278.953 2091.08,279.651 2093.84,280.354 2096.59,281.062 2099.35,281.776 2102.1,282.495 2104.85,283.219 2107.61,283.949 2110.36,284.684 2113.12,285.424 2115.87,286.17 2118.63,286.921 2121.38,287.678 2124.14,288.439 2126.89,289.206 2129.64,289.979 2132.4,290.757 2135.15,291.54 2137.91,292.328 2140.66,293.123 2143.42,293.922 2146.17,294.726 2148.93,295.536 2151.68,296.351 2154.44,297.172 2157.19,297.998 2159.94,298.83 2162.7,299.666 2165.45,300.508 2168.21,301.356 2170.96,302.208 2173.72,303.066 2176.47,303.929 2179.23,304.798 2181.98,305.672 2184.73,306.552 2187.49,307.437 2190.24,308.327 2193,309.222 2195.75,310.123 2198.51,311.03 2201.26,311.941 2204.02,312.858 2206.77,313.78 2209.52,314.708 2212.28,315.64 2215.03,316.579 2217.79,317.523 2220.54,318.472 2223.3,319.426 2226.05,320.385 2228.81,321.35 2231.56,322.321 2234.31,323.296 2237.07,324.277 2239.82,325.264 2242.58,326.256 2245.33,327.253 2248.09,328.255 2250.84,329.263 2253.6,330.276 2256.35,331.294 2259.1,332.318 2261.86,333.347 2264.61,334.382 2267.37,335.422 2270.12,336.467 2272.88,337.517 2275.63,338.573 2278.39,339.634 2281.14,340.701 2283.89,341.773 2286.65,342.85 2289.4,343.932 2292.16,345.02 2294.91,346.113 2297.67,347.212 2300.42,348.316 2303.18,349.425 2305.93,350.54 2308.68,351.66 2311.44,352.785 2314.19,353.916 2316.95,355.052 2319.7,356.193 2322.46,357.339 2325.21,358.491 2327.97,359.649 2330.72,360.811 2333.47,361.979 2336.23,363.153 2338.98,364.331 2341.74,365.516 2344.49,366.705 2347.25,367.9 2350,369.1 2352.76,370.305 "/>
<polyline clip-path="url(#clip902)" style="stroke:#e26f46; stroke-linecap:round; stroke-linejoin:round; stroke-width:12; stroke-opacity:1; fill:none" points="149.191,735.212 151.945,688.669 154.7,645.684 157.454,606.288 160.209,570.478 162.963,538.21 165.718,509.407 168.472,483.956 171.227,461.71 173.981,442.498 176.735,426.121 179.49,412.361 182.244,400.979 184.999,391.725 187.753,384.349 190.508,378.602 193.262,374.235 196.017,371.01 198.771,368.708 201.526,367.127 204.28,366.093 207.034,365.456 209.789,365.094 212.543,364.908 215.298,364.812 218.052,364.768 220.807,364.756 223.561,364.763 226.316,364.778 229.07,364.799 231.825,364.828 234.579,364.871 237.333,364.943 240.088,365.06 242.842,365.243 245.597,365.494 248.351,365.816 251.106,366.212 253.86,366.686 256.615,367.236 259.369,367.863 262.124,368.564 264.878,369.336 267.632,370.174 270.387,371.072 273.141,372.028 275.896,373.035 278.65,374.089 281.405,375.186 284.159,376.32 286.914,377.489 289.668,378.686 292.423,379.911 295.177,381.157 297.932,382.424 300.686,383.706 303.44,385.003 306.195,386.312 308.949,387.63 311.704,388.955 314.458,390.285 317.213,391.619 319.967,392.955 322.722,394.293 325.476,395.631 328.231,396.968 330.985,398.304 333.739,399.637 336.494,400.968 339.248,402.295 342.003,403.618 344.757,404.935 347.512,406.248 350.266,407.554 353.021,408.855 355.775,410.148 358.53,411.435 361.284,412.715 364.038,413.987 366.793,415.252 369.547,416.51 372.302,417.76 375.056,419.002 377.811,420.238 380.565,421.466 383.32,422.686 386.074,423.899 388.829,425.103 391.583,426.301 394.337,427.49 397.092,428.672 399.846,429.846 402.601,431.013 405.355,432.172 408.11,433.323 410.864,434.467 413.619,435.604 416.373,436.733 419.128,437.854 421.882,438.968 424.636,440.075 427.391,441.175 430.145,442.267 432.9,443.352 435.654,444.431 438.409,445.502 441.163,446.566 443.918,447.623 446.672,448.673 449.427,449.716 452.181,450.753 454.936,451.783 457.69,452.807 460.444,453.824 463.199,454.834 465.953,455.838 468.708,456.836 471.462,457.828 474.217,458.813 476.971,459.792 479.726,460.765 482.48,461.732 485.235,462.693 487.989,463.648 490.743,464.598 493.498,465.542 496.252,466.48 499.007,467.412 501.761,468.339 504.516,469.26 507.27,470.176 510.025,471.087 512.779,471.992 515.534,472.892 518.288,473.787 521.042,474.677 523.797,475.561 526.551,476.441 529.306,477.316 532.06,478.186 534.815,479.051 537.569,479.911 540.324,480.767 543.078,481.618 545.833,482.465 548.587,483.307 551.341,484.144 554.096,484.977 556.85,485.806 559.605,486.631 562.359,487.451 565.114,488.267 567.868,489.08 570.623,489.888 573.377,490.692 576.132,491.492 578.886,492.288 581.641,493.08 584.395,493.869 587.149,494.654 589.904,495.435 592.658,496.213 595.413,496.987 598.167,497.758 600.922,498.525 603.676,499.288 606.431,500.049 609.185,500.806 611.94,501.56 614.694,502.31 617.448,503.058 620.203,503.802 622.957,504.543 625.712,505.281 628.466,506.016 631.221,506.749 633.975,507.478 636.73,508.204 639.484,508.928 642.239,509.649 644.993,510.367 647.747,511.082 650.502,511.795 653.256,512.505 656.011,513.213 658.765,513.918 661.52,514.621 664.274,515.321 667.029,516.019 669.783,516.714 672.538,517.407 675.292,518.098 678.046,518.786 680.801,519.472 683.555,520.156 686.31,520.838 689.064,521.518 691.819,522.196 694.573,522.871 697.328,523.545 700.082,524.216 702.837,524.886 705.591,525.553 708.345,526.219 711.1,526.883 713.854,527.545 716.609,528.205 719.363,528.864 722.118,529.52 724.872,530.175 727.627,530.829 730.381,531.48 733.136,532.13 735.89,532.778 738.645,533.425 741.399,534.07 744.153,534.714 746.908,535.356 749.662,535.996 752.417,536.635 755.171,537.273 757.926,537.909 760.68,538.544 763.435,539.177 766.189,539.809 768.944,540.44 771.698,541.069 774.452,541.697 777.207,542.324 779.961,542.949 782.716,543.573 785.47,544.196 788.225,544.818 790.979,545.439 793.734,546.058 796.488,546.677 799.243,547.294 801.997,547.91 804.751,548.525 807.506,549.139 810.26,549.752 813.015,550.363 815.769,550.974 818.524,551.584 821.278,552.193 824.033,552.8 826.787,553.407 829.542,554.013 832.296,554.618 835.05,555.222 837.805,555.825 840.559,556.427 843.314,557.028 846.068,557.628 848.823,558.228 851.577,558.827 854.332,559.424 857.086,560.021 859.841,560.618 862.595,561.213 865.349,561.808 868.104,562.401 870.858,562.994 873.613,563.587 876.367,564.178 879.122,564.769 881.876,565.36 884.631,565.949 887.385,566.538 890.14,567.126 892.894,567.713 895.649,568.3 898.403,568.886 901.157,569.472 903.912,570.057 906.666,570.641 909.421,571.225 912.175,571.808 914.93,572.39 917.684,572.972 920.439,573.553 923.193,574.134 925.948,574.714 928.702,575.294 931.456,575.873 934.211,576.452 936.965,577.03 939.72,577.607 942.474,578.184 945.229,578.761 947.983,579.337 950.738,579.912 953.492,580.487 956.247,581.062 959.001,581.636 961.755,582.21 964.51,582.783 967.264,583.356 970.019,583.928 972.773,584.5 975.528,585.071 978.282,585.642 981.037,586.213 983.791,586.783 986.546,587.353 989.3,587.922 992.054,588.491 994.809,589.06 997.563,589.628 1000.32,590.196 1003.07,590.763 1005.83,591.33 1008.58,591.897 1011.34,592.463 1014.09,593.029 1016.84,593.595 1019.6,594.16 1022.35,594.725 1025.11,595.29 1027.86,595.854 1030.62,596.418 1033.37,596.982 1036.13,597.545 1038.88,598.108 1041.63,598.671 1044.39,599.233 1047.14,599.795 1049.9,600.357 1052.65,600.918 1055.41,601.48 1058.16,602.041 1060.92,602.601 1063.67,603.162 1066.42,603.722 1069.18,604.281 1071.93,604.841 1074.69,605.4 1077.44,605.959 1080.2,606.518 1082.95,607.076 1085.71,607.635 1088.46,608.193 1091.21,608.75 1093.97,609.308 1096.72,609.865 1099.48,610.422 1102.23,610.979 1104.99,611.535 1107.74,612.092 1110.5,612.648 1113.25,613.204 1116.01,613.759 1118.76,614.315 1121.51,614.87 1124.27,615.425 1127.02,615.98 1129.78,616.534 1132.53,617.089 1135.29,617.643 1138.04,618.197 1140.8,618.751 1143.55,619.304 1146.3,619.858 1149.06,620.411 1151.81,620.964 1154.57,621.517 1157.32,622.07 1160.08,622.622 1162.83,623.174 1165.59,623.727 1168.34,624.279 1171.09,624.83 1173.85,625.382 1176.6,625.934 1179.36,626.485 1182.11,627.036 1184.87,627.587 1187.62,628.138 1190.38,628.689 1193.13,629.239 1195.88,629.79 1198.64,630.34 1201.39,630.89 1204.15,631.44 1206.9,631.99 1209.66,632.54 1212.41,633.089 1215.17,633.639 1217.92,634.188 1220.67,634.737 1223.43,635.286 1226.18,635.835 1228.94,636.384 1231.69,636.932 1234.45,637.481 1237.2,638.029 1239.96,638.577 1242.71,639.125 1245.46,639.673 1248.22,640.221 1250.97,640.769 1253.73,641.317 1256.48,641.864 1259.24,642.412 1261.99,642.959 1264.75,643.506 1267.5,644.053 1270.25,644.6 1273.01,645.147 1275.76,645.694 1278.52,646.24 1281.27,646.787 1284.03,647.333 1286.78,647.879 1289.54,648.425 1292.29,648.971 1295.04,649.517 1297.8,650.063 1300.55,650.609 1303.31,651.155 1306.06,651.7 1308.82,652.246 1311.57,652.791 1314.33,653.336 1317.08,653.882 1319.83,654.427 1322.59,654.972 1325.34,655.517 1328.1,656.061 1330.85,656.606 1333.61,657.151 1336.36,657.695 1339.12,658.24 1341.87,658.784 1344.62,659.329 1347.38,659.873 1350.13,660.417 1352.89,660.961 1355.64,661.505 1358.4,662.049 1361.15,662.593 1363.91,663.137 1366.66,663.68 1369.41,664.224 1372.17,664.767 1374.92,665.311 1377.68,665.854 1380.43,666.397 1383.19,666.941 1385.94,667.484 1388.7,668.027 1391.45,668.57 1394.21,669.113 1396.96,669.656 1399.71,670.198 1402.47,670.741 1405.22,671.284 1407.98,671.826 1410.73,672.369 1413.49,672.911 1416.24,673.454 1419,673.996 1421.75,674.538 1424.5,675.08 1427.26,675.622 1430.01,676.165 1432.77,676.706 1435.52,677.248 1438.28,677.79 1441.03,678.332 1443.79,678.874 1446.54,679.416 1449.29,679.957 1452.05,680.499 1454.8,681.04 1457.56,681.582 1460.31,682.123 1463.07,682.665 1465.82,683.206 1468.58,683.747 1471.33,684.288 1474.08,684.829 1476.84,685.37 1479.59,685.912 1482.35,686.453 1485.1,686.993 1487.86,687.534 1490.61,688.075 1493.37,688.616 1496.12,689.157 1498.87,689.697 1501.63,690.238 1504.38,690.779 1507.14,691.319 1509.89,691.86 1512.65,692.4 1515.4,692.94 1518.16,693.481 1520.91,694.021 1523.66,694.561 1526.42,695.102 1529.17,695.642 1531.93,696.182 1534.68,696.722 1537.44,697.262 1540.19,697.802 1542.95,698.342 1545.7,698.882 1548.45,699.422 1551.21,699.962 1553.96,700.502 1556.72,701.041 1559.47,701.581 1562.23,702.121 1564.98,702.66 1567.74,703.2 1570.49,703.739 1573.24,704.279 1576,704.818 1578.75,705.358 1581.51,705.897 1584.26,706.437 1587.02,706.976 1589.77,707.515 1592.53,708.055 1595.28,708.594 1598.03,709.133 1600.79,709.672 1603.54,710.211 1606.3,710.75 1609.05,711.289 1611.81,711.828 1614.56,712.367 1617.32,712.906 1620.07,713.445 1622.82,713.984 1625.58,714.523 1628.33,715.062 1631.09,715.6 1633.84,716.139 1636.6,716.678 1639.35,717.217 1642.11,717.755 1644.86,718.294 1647.62,718.833 1650.37,719.371 1653.12,719.91 1655.88,720.448 1658.63,720.987 1661.39,721.525 1664.14,722.063 1666.9,722.602 1669.65,723.14 1672.41,723.678 1675.16,724.217 1677.91,724.755 1680.67,725.293 1683.42,725.831 1686.18,726.37 1688.93,726.908 1691.69,727.446 1694.44,727.984 1697.2,728.522 1699.95,729.06 1702.7,729.598 1705.46,730.136 1708.21,730.674 1710.97,731.212 1713.72,731.75 1716.48,732.287 1719.23,732.825 1721.99,733.363 1724.74,733.901 1727.49,734.439 1730.25,734.976 1733,735.514 1735.76,736.052 1738.51,736.589 1741.27,737.127 1744.02,737.664 1746.78,738.202 1749.53,738.74 1752.28,739.277 1755.04,739.815 1757.79,740.352 1760.55,740.89 1763.3,741.427 1766.06,741.964 1768.81,742.502 1771.57,743.039 1774.32,743.576 1777.07,744.114 1779.83,744.651 1782.58,745.188 1785.34,745.725 1788.09,746.263 1790.85,746.8 1793.6,747.337 1796.36,747.874 1799.11,748.411 1801.86,748.948 1804.62,749.485 1807.37,750.023 1810.13,750.56 1812.88,751.097 1815.64,751.634 1818.39,752.171 1821.15,752.707 1823.9,753.244 1826.65,753.781 1829.41,754.318 1832.16,754.855 1834.92,755.392 1837.67,755.929 1840.43,756.465 1843.18,757.002 1845.94,757.539 1848.69,758.076 1851.44,758.612 1854.2,759.149 1856.95,759.686 1859.71,760.222 1862.46,760.759 1865.22,761.296 1867.97,761.832 1870.73,762.369 1873.48,762.905 1876.23,763.442 1878.99,763.978 1881.74,764.515 1884.5,765.051 1887.25,765.588 1890.01,766.124 1892.76,766.661 1895.52,767.197 1898.27,767.734 1901.03,768.27 1903.78,768.806 1906.53,769.343 1909.29,769.879 1912.04,770.415 1914.8,770.951 1917.55,771.488 1920.31,772.024 1923.06,772.56 1925.82,773.096 1928.57,773.632 1931.32,774.169 1934.08,774.705 1936.83,775.241 1939.59,775.777 1942.34,776.313 1945.1,776.849 1947.85,777.385 1950.61,777.921 1953.36,778.457 1956.11,778.993 1958.87,779.529 1961.62,780.065 1964.38,780.601 1967.13,781.137 1969.89,781.673 1972.64,782.209 1975.4,782.745 1978.15,783.281 1980.9,783.816 1983.66,784.352 1986.41,784.888 1989.17,785.424 1991.92,785.96 1994.68,786.495 1997.43,787.031 2000.19,787.567 2002.94,788.103 2005.69,788.638 2008.45,789.174 2011.2,789.71 2013.96,790.245 2016.71,790.781 2019.47,791.317 2022.22,791.852 2024.98,792.388 2027.73,792.923 2030.48,793.459 2033.24,793.994 2035.99,794.53 2038.75,795.065 2041.5,795.601 2044.26,796.136 2047.01,796.672 2049.77,797.207 2052.52,797.743 2055.27,798.278 2058.03,798.814 2060.78,799.349 2063.54,799.884 2066.29,800.42 2069.05,800.955 2071.8,801.49 2074.56,802.025 2077.31,802.561 2080.06,803.096 2082.82,803.632 2085.57,804.167 2088.33,804.702 2091.08,805.237 2093.84,805.772 2096.59,806.308 2099.35,806.843 2102.1,807.378 2104.85,807.913 2107.61,808.448 2110.36,808.983 2113.12,809.518 2115.87,810.053 2118.63,810.589 2121.38,811.124 2124.14,811.659 2126.89,812.194 2129.64,812.729 2132.4,813.264 2135.15,813.798 2137.91,814.334 2140.66,814.869 2143.42,815.403 2146.17,815.939 2148.93,816.473 2151.68,817.008 2154.44,817.543 2157.19,818.078 2159.94,818.613 2162.7,819.147 2165.45,819.682 2168.21,820.217 2170.96,820.752 2173.72,821.287 2176.47,821.821 2179.23,822.356 2181.98,822.891 2184.73,823.426 2187.49,823.96 2190.24,824.495 2193,825.03 2195.75,825.564 2198.51,826.099 2201.26,826.633 2204.02,827.168 2206.77,827.703 2209.52,828.238 2212.28,828.772 2215.03,829.306 2217.79,829.841 2220.54,830.376 2223.3,830.91 2226.05,831.444 2228.81,831.979 2231.56,832.514 2234.31,833.048 2237.07,833.582 2239.82,834.117 2242.58,834.651 2245.33,835.186 2248.09,835.72 2250.84,836.254 2253.6,836.789 2256.35,837.323 2259.1,837.857 2261.86,838.392 2264.61,838.926 2267.37,839.46 2270.12,839.995 2272.88,840.529 2275.63,841.063 2278.39,841.597 2281.14,842.131 2283.89,842.666 2286.65,843.2 2289.4,843.734 2292.16,844.268 2294.91,844.802 2297.67,845.336 2300.42,845.871 2303.18,846.405 2305.93,846.939 2308.68,847.473 2311.44,848.007 2314.19,848.541 2316.95,849.075 2319.7,849.609 2322.46,850.143 2325.21,850.677 2327.97,851.211 2330.72,851.745 2333.47,852.279 2336.23,852.813 2338.98,853.347 2341.74,853.881 2344.49,854.414 2347.25,854.948 2350,855.482 2352.76,856.016 "/>
<polyline clip-path="url(#clip902)" style="stroke:#3da44d; stroke-linecap:round; stroke-linejoin:round; stroke-width:12; stroke-opacity:1; fill:none" points="149.191,336.253 151.945,346.212 154.7,356.869 157.454,368.209 160.209,380.213 162.963,392.862 165.718,406.133 168.472,420 171.227,434.433 173.981,449.396 176.735,464.851 179.49,480.751 182.244,497.045 184.999,513.674 187.753,530.572 190.508,547.665 193.262,564.873 196.017,582.108 198.771,599.276 201.526,616.281 204.28,633.023 207.034,649.403 209.789,665.329 212.543,680.71 215.298,695.469 218.052,709.54 220.807,722.867 223.561,735.413 226.316,747.151 229.07,758.072 231.825,768.179 234.579,777.484 237.333,786.011 240.088,793.792 242.842,800.865 245.597,807.27 248.351,813.051 251.106,818.253 253.86,822.922 256.615,827.1 259.369,830.831 262.124,834.154 264.878,837.108 267.632,839.727 270.387,842.043 273.141,844.088 275.896,845.887 278.65,847.467 281.405,848.849 284.159,850.054 286.914,851.101 289.668,852.005 292.423,852.782 295.177,853.446 297.932,854.008 300.686,854.48 303.44,854.87 306.195,855.187 308.949,855.441 311.704,855.636 314.458,855.78 317.213,855.878 319.967,855.934 322.722,855.955 325.476,855.943 328.231,855.902 330.985,855.835 333.739,855.745 336.494,855.635 339.248,855.507 342.003,855.363 344.757,855.205 347.512,855.034 350.266,854.852 353.021,854.66 355.775,854.459 358.53,854.251 361.284,854.036 364.038,853.815 366.793,853.589 369.547,853.359 372.302,853.124 375.056,852.887 377.811,852.646 380.565,852.403 383.32,852.158 386.074,851.911 388.829,851.663 391.583,851.414 394.337,851.164 397.092,850.913 399.846,850.661 402.601,850.41 405.355,850.158 408.11,849.907 410.864,849.655 413.619,849.404 416.373,849.154 419.128,848.904 421.882,848.654 424.636,848.405 427.391,848.157 430.145,847.91 432.9,847.664 435.654,847.419 438.409,847.174 441.163,846.931 443.918,846.689 446.672,846.448 449.427,846.208 452.181,845.97 454.936,845.732 457.69,845.496 460.444,845.262 463.199,845.028 465.953,844.796 468.708,844.566 471.462,844.337 474.217,844.109 476.971,843.883 479.726,843.658 482.48,843.435 485.235,843.213 487.989,842.993 490.743,842.775 493.498,842.558 496.252,842.342 499.007,842.128 501.761,841.916 504.516,841.706 507.27,841.497 510.025,841.289 512.779,841.084 515.534,840.88 518.288,840.678 521.042,840.477 523.797,840.278 526.551,840.081 529.306,839.886 532.06,839.692 534.815,839.5 537.569,839.31 540.324,839.122 543.078,838.935 545.833,838.75 548.587,838.567 551.341,838.385 554.096,838.206 556.85,838.028 559.605,837.852 562.359,837.677 565.114,837.505 567.868,837.334 570.623,837.165 573.377,836.998 576.132,836.832 578.886,836.668 581.641,836.506 584.395,836.346 587.149,836.188 589.904,836.031 592.658,835.876 595.413,835.723 598.167,835.571 600.922,835.421 603.676,835.273 606.431,835.127 609.185,834.982 611.94,834.839 614.694,834.698 617.448,834.559 620.203,834.421 622.957,834.284 625.712,834.15 628.466,834.017 631.221,833.886 633.975,833.756 636.73,833.628 639.484,833.501 642.239,833.377 644.993,833.253 647.747,833.131 650.502,833.011 653.256,832.893 656.011,832.776 658.765,832.66 661.52,832.546 664.274,832.433 667.029,832.322 669.783,832.213 672.538,832.104 675.292,831.998 678.046,831.892 680.801,831.788 683.555,831.686 686.31,831.585 689.064,831.485 691.819,831.387 694.573,831.289 697.328,831.194 700.082,831.099 702.837,831.006 705.591,830.914 708.345,830.824 711.1,830.734 713.854,830.646 716.609,830.559 719.363,830.474 722.118,830.389 724.872,830.306 727.627,830.224 730.381,830.143 733.136,830.063 735.89,829.984 738.645,829.907 741.399,829.83 744.153,829.755 746.908,829.68 749.662,829.607 752.417,829.535 755.171,829.463 757.926,829.393 760.68,829.324 763.435,829.256 766.189,829.189 768.944,829.122 771.698,829.057 774.452,828.993 777.207,828.929 779.961,828.867 782.716,828.805 785.47,828.744 788.225,828.684 790.979,828.625 793.734,828.567 796.488,828.51 799.243,828.453 801.997,828.397 804.751,828.342 807.506,828.288 810.26,828.235 813.015,828.182 815.769,828.131 818.524,828.079 821.278,828.029 824.033,827.979 826.787,827.931 829.542,827.882 832.296,827.835 835.05,827.788 837.805,827.742 840.559,827.696 843.314,827.652 846.068,827.607 848.823,827.564 851.577,827.521 854.332,827.479 857.086,827.437 859.841,827.396 862.595,827.355 865.349,827.315 868.104,827.276 870.858,827.237 873.613,827.199 876.367,827.161 879.122,827.124 881.876,827.088 884.631,827.051 887.385,827.016 890.14,826.981 892.894,826.946 895.649,826.912 898.403,826.878 901.157,826.845 903.912,826.813 906.666,826.78 909.421,826.749 912.175,826.717 914.93,826.686 917.684,826.656 920.439,826.626 923.193,826.596 925.948,826.567 928.702,826.538 931.456,826.51 934.211,826.482 936.965,826.455 939.72,826.427 942.474,826.401 945.229,826.374 947.983,826.348 950.738,826.322 953.492,826.297 956.247,826.272 959.001,826.247 961.755,826.223 964.51,826.199 967.264,826.175 970.019,826.152 972.773,826.129 975.528,826.106 978.282,826.084 981.037,826.062 983.791,826.04 986.546,826.018 989.3,825.997 992.054,825.976 994.809,825.956 997.563,825.935 1000.32,825.915 1003.07,825.895 1005.83,825.876 1008.58,825.856 1011.34,825.837 1014.09,825.819 1016.84,825.8 1019.6,825.782 1022.35,825.764 1025.11,825.746 1027.86,825.728 1030.62,825.711 1033.37,825.694 1036.13,825.677 1038.88,825.66 1041.63,825.644 1044.39,825.627 1047.14,825.611 1049.9,825.596 1052.65,825.58 1055.41,825.565 1058.16,825.549 1060.92,825.534 1063.67,825.52 1066.42,825.505 1069.18,825.49 1071.93,825.476 1074.69,825.462 1077.44,825.448 1080.2,825.434 1082.95,825.421 1085.71,825.408 1088.46,825.394 1091.21,825.381 1093.97,825.368 1096.72,825.356 1099.48,825.343 1102.23,825.331 1104.99,825.318 1107.74,825.306 1110.5,825.294 1113.25,825.282 1116.01,825.271 1118.76,825.259 1121.51,825.248 1124.27,825.237 1127.02,825.226 1129.78,825.215 1132.53,825.204 1135.29,825.193 1138.04,825.182 1140.8,825.172 1143.55,825.162 1146.3,825.152 1149.06,825.141 1151.81,825.132 1154.57,825.122 1157.32,825.112 1160.08,825.102 1162.83,825.093 1165.59,825.083 1168.34,825.074 1171.09,825.065 1173.85,825.056 1176.6,825.047 1179.36,825.038 1182.11,825.03 1184.87,825.021 1187.62,825.012 1190.38,825.004 1193.13,824.996 1195.88,824.987 1198.64,824.979 1201.39,824.971 1204.15,824.963 1206.9,824.955 1209.66,824.948 1212.41,824.94 1215.17,824.932 1217.92,824.925 1220.67,824.917 1223.43,824.91 1226.18,824.903 1228.94,824.895 1231.69,824.888 1234.45,824.881 1237.2,824.874 1239.96,824.868 1242.71,824.861 1245.46,824.854 1248.22,824.847 1250.97,824.841 1253.73,824.834 1256.48,824.828 1259.24,824.822 1261.99,824.815 1264.75,824.809 1267.5,824.803 1270.25,824.797 1273.01,824.791 1275.76,824.785 1278.52,824.779 1281.27,824.773 1284.03,824.767 1286.78,824.762 1289.54,824.756 1292.29,824.75 1295.04,824.745 1297.8,824.739 1300.55,824.734 1303.31,824.729 1306.06,824.723 1308.82,824.718 1311.57,824.713 1314.33,824.708 1317.08,824.703 1319.83,824.698 1322.59,824.693 1325.34,824.688 1328.1,824.683 1330.85,824.678 1333.61,824.673 1336.36,824.669 1339.12,824.664 1341.87,824.659 1344.62,824.655 1347.38,824.65 1350.13,824.646 1352.89,824.641 1355.64,824.637 1358.4,824.633 1361.15,824.628 1363.91,824.624 1366.66,824.62 1369.41,824.616 1372.17,824.611 1374.92,824.607 1377.68,824.603 1380.43,824.599 1383.19,824.595 1385.94,824.591 1388.7,824.587 1391.45,824.584 1394.21,824.58 1396.96,824.576 1399.71,824.572 1402.47,824.568 1405.22,824.565 1407.98,824.561 1410.73,824.558 1413.49,824.554 1416.24,824.55 1419,824.547 1421.75,824.543 1424.5,824.54 1427.26,824.537 1430.01,824.533 1432.77,824.53 1435.52,824.527 1438.28,824.523 1441.03,824.52 1443.79,824.517 1446.54,824.514 1449.29,824.51 1452.05,824.507 1454.8,824.504 1457.56,824.501 1460.31,824.498 1463.07,824.495 1465.82,824.492 1468.58,824.489 1471.33,824.486 1474.08,824.483 1476.84,824.48 1479.59,824.477 1482.35,824.475 1485.1,824.472 1487.86,824.469 1490.61,824.466 1493.37,824.463 1496.12,824.461 1498.87,824.458 1501.63,824.455 1504.38,824.453 1507.14,824.45 1509.89,824.448 1512.65,824.445 1515.4,824.442 1518.16,824.44 1520.91,824.437 1523.66,824.435 1526.42,824.432 1529.17,824.43 1531.93,824.428 1534.68,824.425 1537.44,824.423 1540.19,824.42 1542.95,824.418 1545.7,824.416 1548.45,824.413 1551.21,824.411 1553.96,824.409 1556.72,824.407 1559.47,824.404 1562.23,824.402 1564.98,824.4 1567.74,824.398 1570.49,824.396 1573.24,824.393 1576,824.391 1578.75,824.389 1581.51,824.387 1584.26,824.385 1587.02,824.383 1589.77,824.381 1592.53,824.379 1595.28,824.377 1598.03,824.375 1600.79,824.373 1603.54,824.371 1606.3,824.369 1609.05,824.367 1611.81,824.365 1614.56,824.363 1617.32,824.361 1620.07,824.36 1622.82,824.358 1625.58,824.356 1628.33,824.354 1631.09,824.352 1633.84,824.35 1636.6,824.349 1639.35,824.347 1642.11,824.345 1644.86,824.343 1647.62,824.342 1650.37,824.34 1653.12,824.338 1655.88,824.336 1658.63,824.335 1661.39,824.333 1664.14,824.331 1666.9,824.33 1669.65,824.328 1672.41,824.326 1675.16,824.325 1677.91,824.323 1680.67,824.322 1683.42,824.32 1686.18,824.318 1688.93,824.317 1691.69,824.315 1694.44,824.314 1697.2,824.312 1699.95,824.311 1702.7,824.309 1705.46,824.308 1708.21,824.306 1710.97,824.305 1713.72,824.303 1716.48,824.302 1719.23,824.3 1721.99,824.299 1724.74,824.297 1727.49,824.296 1730.25,824.294 1733,824.293 1735.76,824.292 1738.51,824.29 1741.27,824.289 1744.02,824.287 1746.78,824.286 1749.53,824.285 1752.28,824.283 1755.04,824.282 1757.79,824.281 1760.55,824.279 1763.3,824.278 1766.06,824.277 1768.81,824.275 1771.57,824.274 1774.32,824.273 1777.07,824.272 1779.83,824.27 1782.58,824.269 1785.34,824.268 1788.09,824.266 1790.85,824.265 1793.6,824.264 1796.36,824.263 1799.11,824.261 1801.86,824.26 1804.62,824.259 1807.37,824.258 1810.13,824.257 1812.88,824.255 1815.64,824.254 1818.39,824.253 1821.15,824.252 1823.9,824.251 1826.65,824.25 1829.41,824.248 1832.16,824.247 1834.92,824.246 1837.67,824.245 1840.43,824.244 1843.18,824.243 1845.94,824.242 1848.69,824.24 1851.44,824.239 1854.2,824.238 1856.95,824.237 1859.71,824.236 1862.46,824.235 1865.22,824.234 1867.97,824.233 1870.73,824.232 1873.48,824.23 1876.23,824.229 1878.99,824.228 1881.74,824.227 1884.5,824.226 1887.25,824.225 1890.01,824.224 1892.76,824.223 1895.52,824.222 1898.27,824.221 1901.03,824.22 1903.78,824.219 1906.53,824.218 1909.29,824.217 1912.04,824.216 1914.8,824.215 1917.55,824.214 1920.31,824.213 1923.06,824.212 1925.82,824.211 1928.57,824.21 1931.32,824.209 1934.08,824.208 1936.83,824.207 1939.59,824.206 1942.34,824.205 1945.1,824.204 1947.85,824.203 1950.61,824.202 1953.36,824.201 1956.11,824.2 1958.87,824.199 1961.62,824.198 1964.38,824.197 1967.13,824.196 1969.89,824.195 1972.64,824.194 1975.4,824.193 1978.15,824.192 1980.9,824.192 1983.66,824.191 1986.41,824.19 1989.17,824.189 1991.92,824.188 1994.68,824.187 1997.43,824.186 2000.19,824.185 2002.94,824.184 2005.69,824.183 2008.45,824.182 2011.2,824.181 2013.96,824.18 2016.71,824.18 2019.47,824.179 2022.22,824.178 2024.98,824.177 2027.73,824.176 2030.48,824.175 2033.24,824.174 2035.99,824.173 2038.75,824.173 2041.5,824.172 2044.26,824.171 2047.01,824.17 2049.77,824.169 2052.52,824.168 2055.27,824.167 2058.03,824.166 2060.78,824.166 2063.54,824.165 2066.29,824.164 2069.05,824.163 2071.8,824.162 2074.56,824.161 2077.31,824.16 2080.06,824.16 2082.82,824.159 2085.57,824.158 2088.33,824.157 2091.08,824.156 2093.84,824.155 2096.59,824.154 2099.35,824.154 2102.1,824.153 2104.85,824.152 2107.61,824.151 2110.36,824.15 2113.12,824.149 2115.87,824.149 2118.63,824.148 2121.38,824.147 2124.14,824.146 2126.89,824.145 2129.64,824.144 2132.4,824.144 2135.15,824.143 2137.91,824.142 2140.66,824.141 2143.42,824.14 2146.17,824.139 2148.93,824.139 2151.68,824.138 2154.44,824.137 2157.19,824.136 2159.94,824.135 2162.7,824.135 2165.45,824.134 2168.21,824.133 2170.96,824.132 2173.72,824.131 2176.47,824.131 2179.23,824.13 2181.98,824.129 2184.73,824.128 2187.49,824.127 2190.24,824.127 2193,824.126 2195.75,824.125 2198.51,824.124 2201.26,824.123 2204.02,824.123 2206.77,824.122 2209.52,824.121 2212.28,824.12 2215.03,824.119 2217.79,824.119 2220.54,824.118 2223.3,824.117 2226.05,824.116 2228.81,824.115 2231.56,824.115 2234.31,824.114 2237.07,824.113 2239.82,824.112 2242.58,824.112 2245.33,824.111 2248.09,824.11 2250.84,824.109 2253.6,824.108 2256.35,824.108 2259.1,824.107 2261.86,824.106 2264.61,824.105 2267.37,824.104 2270.12,824.104 2272.88,824.103 2275.63,824.102 2278.39,824.101 2281.14,824.101 2283.89,824.1 2286.65,824.099 2289.4,824.098 2292.16,824.098 2294.91,824.097 2297.67,824.096 2300.42,824.095 2303.18,824.094 2305.93,824.094 2308.68,824.093 2311.44,824.092 2314.19,824.091 2316.95,824.091 2319.7,824.09 2322.46,824.089 2325.21,824.088 2327.97,824.088 2330.72,824.087 2333.47,824.086 2336.23,824.085 2338.98,824.084 2341.74,824.084 2344.49,824.083 2347.25,824.082 2350,824.081 2352.76,824.081 "/>
<path clip-path="url(#clip900)" d="M1969.85 1377.32 L2279.3 1377.32 L2279.3 1169.96 L1969.85 1169.96  Z" fill="#ffffff" fill-rule="evenodd" fill-opacity="1"/>
<polyline clip-path="url(#clip900)" style="stroke:#000000; stroke-linecap:round; stroke-linejoin:round; stroke-width:4; stroke-opacity:1; fill:none" points="1969.85,1377.32 2279.3,1377.32 2279.3,1169.96 1969.85,1169.96 1969.85,1377.32 "/>
<polyline clip-path="url(#clip900)" style="stroke:#009af9; stroke-linecap:round; stroke-linejoin:round; stroke-width:12; stroke-opacity:1; fill:none" points="1994.33,1221.8 2141.24,1221.8 "/>
<path clip-path="url(#clip900)" d="M2165.72 1228.84 L2165.72 1213.15 L2169.98 1213.15 L2169.98 1228.68 Q2169.98 1232.36 2171.42 1234.21 Q2172.85 1236.04 2175.72 1236.04 Q2179.17 1236.04 2181.16 1233.84 Q2183.18 1231.64 2183.18 1227.85 L2183.18 1213.15 L2187.44 1213.15 L2187.44 1239.08 L2183.18 1239.08 L2183.18 1235.09 Q2181.63 1237.45 2179.57 1238.61 Q2177.53 1239.75 2174.82 1239.75 Q2170.35 1239.75 2168.04 1236.97 Q2165.72 1234.19 2165.72 1228.84 M2176.44 1212.52 L2176.44 1212.52 Z" fill="#000000" fill-rule="nonzero" fill-opacity="1" /><path clip-path="url(#clip900)" d="M2195.82 1203.06 L2205.63 1203.06 L2205.63 1206.37 L2200.07 1206.37 L2200.07 1242.02 L2205.63 1242.02 L2205.63 1245.33 L2195.82 1245.33 L2195.82 1203.06 Z" fill="#000000" fill-rule="nonzero" fill-opacity="1" /><path clip-path="url(#clip900)" d="M2216.12 1235.14 L2223.76 1235.14 L2223.76 1208.77 L2215.44 1210.44 L2215.44 1206.18 L2223.71 1204.52 L2228.38 1204.52 L2228.38 1235.14 L2236.02 1235.14 L2236.02 1239.08 L2216.12 1239.08 L2216.12 1235.14 Z" fill="#000000" fill-rule="nonzero" fill-opacity="1" /><path clip-path="url(#clip900)" d="M2254.82 1203.06 L2254.82 1245.33 L2245 1245.33 L2245 1242.02 L2250.54 1242.02 L2250.54 1206.37 L2245 1206.37 L2245 1203.06 L2254.82 1203.06 Z" fill="#000000" fill-rule="nonzero" fill-opacity="1" /><polyline clip-path="url(#clip900)" style="stroke:#e26f46; stroke-linecap:round; stroke-linejoin:round; stroke-width:12; stroke-opacity:1; fill:none" points="1994.33,1273.64 2141.24,1273.64 "/>
<path clip-path="url(#clip900)" d="M2165.72 1280.68 L2165.72 1264.99 L2169.98 1264.99 L2169.98 1280.52 Q2169.98 1284.2 2171.42 1286.05 Q2172.85 1287.88 2175.72 1287.88 Q2179.17 1287.88 2181.16 1285.68 Q2183.18 1283.48 2183.18 1279.69 L2183.18 1264.99 L2187.44 1264.99 L2187.44 1290.92 L2183.18 1290.92 L2183.18 1286.93 Q2181.63 1289.29 2179.57 1290.45 Q2177.53 1291.59 2174.82 1291.59 Q2170.35 1291.59 2168.04 1288.81 Q2165.72 1286.03 2165.72 1280.68 M2176.44 1264.36 L2176.44 1264.36 Z" fill="#000000" fill-rule="nonzero" fill-opacity="1" /><path clip-path="url(#clip900)" d="M2195.82 1254.9 L2205.63 1254.9 L2205.63 1258.21 L2200.07 1258.21 L2200.07 1293.86 L2205.63 1293.86 L2205.63 1297.17 L2195.82 1297.17 L2195.82 1254.9 Z" fill="#000000" fill-rule="nonzero" fill-opacity="1" /><path clip-path="url(#clip900)" d="M2219.33 1286.98 L2235.65 1286.98 L2235.65 1290.92 L2213.71 1290.92 L2213.71 1286.98 Q2216.37 1284.23 2220.95 1279.6 Q2225.56 1274.94 2226.74 1273.6 Q2228.99 1271.08 2229.87 1269.34 Q2230.77 1267.58 2230.77 1265.89 Q2230.77 1263.14 2228.82 1261.4 Q2226.9 1259.67 2223.8 1259.67 Q2221.6 1259.67 2219.15 1260.43 Q2216.72 1261.19 2213.94 1262.74 L2213.94 1258.02 Q2216.76 1256.89 2219.22 1256.31 Q2221.67 1255.73 2223.71 1255.73 Q2229.08 1255.73 2232.27 1258.42 Q2235.47 1261.1 2235.47 1265.59 Q2235.47 1267.72 2234.66 1269.64 Q2233.87 1271.54 2231.76 1274.13 Q2231.19 1274.8 2228.08 1278.02 Q2224.98 1281.22 2219.33 1286.98 Z" fill="#000000" fill-rule="nonzero" fill-opacity="1" /><path clip-path="url(#clip900)" d="M2254.82 1254.9 L2254.82 1297.17 L2245 1297.17 L2245 1293.86 L2250.54 1293.86 L2250.54 1258.21 L2245 1258.21 L2245 1254.9 L2254.82 1254.9 Z" fill="#000000" fill-rule="nonzero" fill-opacity="1" /><polyline clip-path="url(#clip900)" style="stroke:#3da44d; stroke-linecap:round; stroke-linejoin:round; stroke-width:12; stroke-opacity:1; fill:none" points="1994.33,1325.48 2141.24,1325.48 "/>
<path clip-path="url(#clip900)" d="M2165.72 1332.52 L2165.72 1316.83 L2169.98 1316.83 L2169.98 1332.36 Q2169.98 1336.04 2171.42 1337.89 Q2172.85 1339.72 2175.72 1339.72 Q2179.17 1339.72 2181.16 1337.52 Q2183.18 1335.32 2183.18 1331.53 L2183.18 1316.83 L2187.44 1316.83 L2187.44 1342.76 L2183.18 1342.76 L2183.18 1338.77 Q2181.63 1341.13 2179.57 1342.29 Q2177.53 1343.43 2174.82 1343.43 Q2170.35 1343.43 2168.04 1340.65 Q2165.72 1337.87 2165.72 1332.52 M2176.44 1316.2 L2176.44 1316.2 Z" fill="#000000" fill-rule="nonzero" fill-opacity="1" /><path clip-path="url(#clip900)" d="M2206.44 1306.78 Q2203.34 1312.11 2201.83 1317.32 Q2200.33 1322.52 2200.33 1327.87 Q2200.33 1333.22 2201.83 1338.47 Q2203.36 1343.7 2206.44 1349.01 L2202.74 1349.01 Q2199.26 1343.57 2197.53 1338.31 Q2195.82 1333.06 2195.82 1327.87 Q2195.82 1322.71 2197.53 1317.48 Q2199.24 1312.25 2202.74 1306.78 L2206.44 1306.78 Z" fill="#000000" fill-rule="nonzero" fill-opacity="1" /><path clip-path="url(#clip900)" d="M2218.92 1309.47 L2218.92 1316.83 L2227.69 1316.83 L2227.69 1320.14 L2218.92 1320.14 L2218.92 1334.21 Q2218.92 1337.38 2219.77 1338.29 Q2220.65 1339.19 2223.32 1339.19 L2227.69 1339.19 L2227.69 1342.76 L2223.32 1342.76 Q2218.38 1342.76 2216.51 1340.93 Q2214.63 1339.07 2214.63 1334.21 L2214.63 1320.14 L2211.51 1320.14 L2211.51 1316.83 L2214.63 1316.83 L2214.63 1309.47 L2218.92 1309.47 Z" fill="#000000" fill-rule="nonzero" fill-opacity="1" /><path clip-path="url(#clip900)" d="M2232.62 1306.78 L2236.32 1306.78 Q2239.8 1312.25 2241.51 1317.48 Q2243.25 1322.71 2243.25 1327.87 Q2243.25 1333.06 2241.51 1338.31 Q2239.8 1343.57 2236.32 1349.01 L2232.62 1349.01 Q2235.7 1343.7 2237.2 1338.47 Q2238.73 1333.22 2238.73 1327.87 Q2238.73 1322.52 2237.2 1317.32 Q2235.7 1312.11 2232.62 1306.78 Z" fill="#000000" fill-rule="nonzero" fill-opacity="1" /></svg>
