<?xml version="1.0" encoding="utf-8"?>
<svg xmlns="http://www.w3.org/2000/svg" xmlns:xlink="http://www.w3.org/1999/xlink" width="600" height="400" viewBox="0 0 2400 1600">
<defs>
  <clipPath id="clip760">
    <rect x="0" y="0" width="2400" height="1600"/>
  </clipPath>
</defs>
<path clip-path="url(#clip760)" d="M0 1600 L2400 1600 L2400 0 L0 0  Z" fill="#ffffff" fill-rule="evenodd" fill-opacity="1"/>
<defs>
  <clipPath id="clip761">
    <rect x="480" y="0" width="1681" height="1600"/>
  </clipPath>
</defs>
<path clip-path="url(#clip760)" d="M149.191 1423.18 L2352.76 1423.18 L2352.76 47.2441 L149.191 47.2441  Z" fill="#ffffff" fill-rule="evenodd" fill-opacity="1"/>
<defs>
  <clipPath id="clip762">
    <rect x="149" y="47" width="2205" height="1377"/>
  </clipPath>
</defs>
<polyline clip-path="url(#clip762)" style="stroke:#000000; stroke-linecap:round; stroke-linejoin:round; stroke-width:2; stroke-opacity:0.1; fill:none" points="149.191,1423.18 149.191,47.2441 "/>
<polyline clip-path="url(#clip762)" style="stroke:#000000; stroke-linecap:round; stroke-linejoin:round; stroke-width:2; stroke-opacity:0.1; fill:none" points="700.082,1423.18 700.082,47.2441 "/>
<polyline clip-path="url(#clip762)" style="stroke:#000000; stroke-linecap:round; stroke-linejoin:round; stroke-width:2; stroke-opacity:0.1; fill:none" points="1250.97,1423.18 1250.97,47.2441 "/>
<polyline clip-path="url(#clip762)" style="stroke:#000000; stroke-linecap:round; stroke-linejoin:round; stroke-width:2; stroke-opacity:0.1; fill:none" points="1801.86,1423.18 1801.86,47.2441 "/>
<polyline clip-path="url(#clip762)" style="stroke:#000000; stroke-linecap:round; stroke-linejoin:round; stroke-width:2; stroke-opacity:0.1; fill:none" points="2352.76,1423.18 2352.76,47.2441 "/>
<polyline clip-path="url(#clip762)" style="stroke:#000000; stroke-linecap:round; stroke-linejoin:round; stroke-width:2; stroke-opacity:0.1; fill:none" points="149.191,1423.18 2352.76,1423.18 "/>
<polyline clip-path="url(#clip762)" style="stroke:#000000; stroke-linecap:round; stroke-linejoin:round; stroke-width:2; stroke-opacity:0.1; fill:none" points="149.191,1193.86 2352.76,1193.86 "/>
<polyline clip-path="url(#clip762)" style="stroke:#000000; stroke-linecap:round; stroke-linejoin:round; stroke-width:2; stroke-opacity:0.1; fill:none" points="149.191,964.535 2352.76,964.535 "/>
<polyline clip-path="url(#clip762)" style="stroke:#000000; stroke-linecap:round; stroke-linejoin:round; stroke-width:2; stroke-opacity:0.1; fill:none" points="149.191,735.212 2352.76,735.212 "/>
<polyline clip-path="url(#clip762)" style="stroke:#000000; stroke-linecap:round; stroke-linejoin:round; stroke-width:2; stroke-opacity:0.1; fill:none" points="149.191,505.889 2352.76,505.889 "/>
<polyline clip-path="url(#clip762)" style="stroke:#000000; stroke-linecap:round; stroke-linejoin:round; stroke-width:2; stroke-opacity:0.1; fill:none" points="149.191,276.567 2352.76,276.567 "/>
<polyline clip-path="url(#clip762)" style="stroke:#000000; stroke-linecap:round; stroke-linejoin:round; stroke-width:2; stroke-opacity:0.1; fill:none" points="149.191,47.2441 2352.76,47.2441 "/>
<polyline clip-path="url(#clip760)" style="stroke:#000000; stroke-linecap:round; stroke-linejoin:round; stroke-width:4; stroke-opacity:1; fill:none" points="149.191,1423.18 2352.76,1423.18 "/>
<polyline clip-path="url(#clip760)" style="stroke:#000000; stroke-linecap:round; stroke-linejoin:round; stroke-width:4; stroke-opacity:1; fill:none" points="149.191,1423.18 149.191,1404.28 "/>
<polyline clip-path="url(#clip760)" style="stroke:#000000; stroke-linecap:round; stroke-linejoin:round; stroke-width:4; stroke-opacity:1; fill:none" points="700.082,1423.18 700.082,1404.28 "/>
<polyline clip-path="url(#clip760)" style="stroke:#000000; stroke-linecap:round; stroke-linejoin:round; stroke-width:4; stroke-opacity:1; fill:none" points="1250.97,1423.18 1250.97,1404.28 "/>
<polyline clip-path="url(#clip760)" style="stroke:#000000; stroke-linecap:round; stroke-linejoin:round; stroke-width:4; stroke-opacity:1; fill:none" points="1801.86,1423.18 1801.86,1404.28 "/>
<polyline clip-path="url(#clip760)" style="stroke:#000000; stroke-linecap:round; stroke-linejoin:round; stroke-width:4; stroke-opacity:1; fill:none" points="2352.76,1423.18 2352.76,1404.28 "/>
<path clip-path="url(#clip760)" d="M149.191 1454.1 Q145.58 1454.1 143.751 1457.66 Q141.946 1461.2 141.946 1468.33 Q141.946 1475.44 143.751 1479.01 Q145.58 1482.55 149.191 1482.55 Q152.825 1482.55 154.631 1479.01 Q156.459 1475.44 156.459 1468.33 Q156.459 1461.2 154.631 1457.66 Q152.825 1454.1 149.191 1454.1 M149.191 1450.39 Q155.001 1450.39 158.057 1455 Q161.135 1459.58 161.135 1468.33 Q161.135 1477.06 158.057 1481.67 Q155.001 1486.25 149.191 1486.25 Q143.381 1486.25 140.302 1481.67 Q137.246 1477.06 137.246 1468.33 Q137.246 1459.58 140.302 1455 Q143.381 1450.39 149.191 1450.39 Z" fill="#000000" fill-rule="nonzero" fill-opacity="1" /><path clip-path="url(#clip760)" d="M694.735 1481.64 L711.054 1481.64 L711.054 1485.58 L689.11 1485.58 L689.11 1481.64 Q691.772 1478.89 696.355 1474.26 Q700.962 1469.61 702.142 1468.27 Q704.388 1465.74 705.267 1464.01 Q706.17 1462.25 706.17 1460.56 Q706.17 1457.8 704.226 1456.07 Q702.304 1454.33 699.203 1454.33 Q697.003 1454.33 694.55 1455.09 Q692.119 1455.86 689.341 1457.41 L689.341 1452.69 Q692.166 1451.55 694.619 1450.97 Q697.073 1450.39 699.11 1450.39 Q704.48 1450.39 707.675 1453.08 Q710.869 1455.77 710.869 1460.26 Q710.869 1462.39 710.059 1464.31 Q709.272 1466.2 707.165 1468.8 Q706.587 1469.47 703.485 1472.69 Q700.383 1475.88 694.735 1481.64 Z" fill="#000000" fill-rule="nonzero" fill-opacity="1" /><path clip-path="url(#clip760)" d="M1253.98 1455.09 L1242.18 1473.54 L1253.98 1473.54 L1253.98 1455.09 M1252.76 1451.02 L1258.64 1451.02 L1258.64 1473.54 L1263.57 1473.54 L1263.57 1477.43 L1258.64 1477.43 L1258.64 1485.58 L1253.98 1485.58 L1253.98 1477.43 L1238.38 1477.43 L1238.38 1472.92 L1252.76 1451.02 Z" fill="#000000" fill-rule="nonzero" fill-opacity="1" /><path clip-path="url(#clip760)" d="M1802.27 1466.44 Q1799.12 1466.44 1797.27 1468.59 Q1795.44 1470.74 1795.44 1474.49 Q1795.44 1478.22 1797.27 1480.39 Q1799.12 1482.55 1802.27 1482.55 Q1805.42 1482.55 1807.25 1480.39 Q1809.1 1478.22 1809.1 1474.49 Q1809.1 1470.74 1807.25 1468.59 Q1805.42 1466.44 1802.27 1466.44 M1811.55 1451.78 L1811.55 1456.04 Q1809.79 1455.21 1807.99 1454.77 Q1806.2 1454.33 1804.45 1454.33 Q1799.82 1454.33 1797.36 1457.45 Q1794.93 1460.58 1794.58 1466.9 Q1795.95 1464.89 1798.01 1463.82 Q1800.07 1462.73 1802.55 1462.73 Q1807.76 1462.73 1810.77 1465.9 Q1813.8 1469.05 1813.8 1474.49 Q1813.8 1479.82 1810.65 1483.03 Q1807.5 1486.25 1802.27 1486.25 Q1796.27 1486.25 1793.1 1481.67 Q1789.93 1477.06 1789.93 1468.33 Q1789.93 1460.14 1793.82 1455.28 Q1797.71 1450.39 1804.26 1450.39 Q1806.02 1450.39 1807.8 1450.74 Q1809.61 1451.09 1811.55 1451.78 Z" fill="#000000" fill-rule="nonzero" fill-opacity="1" /><path clip-path="url(#clip760)" d="M2352.76 1469.17 Q2349.42 1469.17 2347.5 1470.95 Q2345.6 1472.73 2345.6 1475.86 Q2345.6 1478.98 2347.5 1480.77 Q2349.42 1482.55 2352.76 1482.55 Q2356.09 1482.55 2358.01 1480.77 Q2359.93 1478.96 2359.93 1475.86 Q2359.93 1472.73 2358.01 1470.95 Q2356.11 1469.17 2352.76 1469.17 M2348.08 1467.18 Q2345.07 1466.44 2343.38 1464.38 Q2341.71 1462.32 2341.71 1459.35 Q2341.71 1455.21 2344.65 1452.8 Q2347.62 1450.39 2352.76 1450.39 Q2357.92 1450.39 2360.86 1452.8 Q2363.8 1455.21 2363.8 1459.35 Q2363.8 1462.32 2362.11 1464.38 Q2360.44 1466.44 2357.45 1467.18 Q2360.83 1467.96 2362.71 1470.26 Q2364.61 1472.55 2364.61 1475.86 Q2364.61 1480.88 2361.53 1483.57 Q2358.47 1486.25 2352.76 1486.25 Q2347.04 1486.25 2343.96 1483.57 Q2340.9 1480.88 2340.9 1475.86 Q2340.9 1472.55 2342.8 1470.26 Q2344.7 1467.96 2348.08 1467.18 M2346.37 1459.79 Q2346.37 1462.48 2348.03 1463.98 Q2349.72 1465.49 2352.76 1465.49 Q2355.77 1465.49 2357.45 1463.98 Q2359.17 1462.48 2359.17 1459.79 Q2359.17 1457.11 2357.45 1455.6 Q2355.77 1454.1 2352.76 1454.1 Q2349.72 1454.1 2348.03 1455.6 Q2346.37 1457.11 2346.37 1459.79 Z" fill="#000000" fill-rule="nonzero" fill-opacity="1" /><path clip-path="url(#clip760)" d="M1250.03 1522.27 L1250.03 1532.4 L1262.1 1532.4 L1262.1 1536.95 L1250.03 1536.95 L1250.03 1556.3 Q1250.03 1560.66 1251.21 1561.9 Q1252.42 1563.14 1256.08 1563.14 L1262.1 1563.14 L1262.1 1568.04 L1256.08 1568.04 Q1249.3 1568.04 1246.72 1565.53 Q1244.15 1562.98 1244.15 1556.3 L1244.15 1536.95 L1239.85 1536.95 L1239.85 1532.4 L1244.15 1532.4 L1244.15 1522.27 L1250.03 1522.27 Z" fill="#000000" fill-rule="nonzero" fill-opacity="1" /><polyline clip-path="url(#clip760)" style="stroke:#000000; stroke-linecap:round; stroke-linejoin:round; stroke-width:4; stroke-opacity:1; fill:none" points="149.191,1423.18 149.191,47.2441 "/>
<polyline clip-path="url(#clip760)" style="stroke:#000000; stroke-linecap:round; stroke-linejoin:round; stroke-width:4; stroke-opacity:1; fill:none" points="149.191,1423.18 168.089,1423.18 "/>
<polyline clip-path="url(#clip760)" style="stroke:#000000; stroke-linecap:round; stroke-linejoin:round; stroke-width:4; stroke-opacity:1; fill:none" points="149.191,1193.86 168.089,1193.86 "/>
<polyline clip-path="url(#clip760)" style="stroke:#000000; stroke-linecap:round; stroke-linejoin:round; stroke-width:4; stroke-opacity:1; fill:none" points="149.191,964.535 168.089,964.535 "/>
<polyline clip-path="url(#clip760)" style="stroke:#000000; stroke-linecap:round; stroke-linejoin:round; stroke-width:4; stroke-opacity:1; fill:none" points="149.191,735.212 168.089,735.212 "/>
<polyline clip-path="url(#clip760)" style="stroke:#000000; stroke-linecap:round; stroke-linejoin:round; stroke-width:4; stroke-opacity:1; fill:none" points="149.191,505.889 168.089,505.889 "/>
<polyline clip-path="url(#clip760)" style="stroke:#000000; stroke-linecap:round; stroke-linejoin:round; stroke-width:4; stroke-opacity:1; fill:none" points="149.191,276.567 168.089,276.567 "/>
<polyline clip-path="url(#clip760)" style="stroke:#000000; stroke-linecap:round; stroke-linejoin:round; stroke-width:4; stroke-opacity:1; fill:none" points="149.191,47.2441 168.089,47.2441 "/>
<path clip-path="url(#clip760)" d="M51.3162 1423.63 L80.992 1423.63 L80.992 1427.57 L51.3162 1427.57 L51.3162 1423.63 Z" fill="#000000" fill-rule="nonzero" fill-opacity="1" /><path clip-path="url(#clip760)" d="M101.663 1421.32 Q98.515 1421.32 96.6632 1423.47 Q94.8345 1425.62 94.8345 1429.37 Q94.8345 1433.1 96.6632 1435.27 Q98.515 1437.43 101.663 1437.43 Q104.811 1437.43 106.64 1435.27 Q108.492 1433.1 108.492 1429.37 Q108.492 1425.62 106.64 1423.47 Q104.811 1421.32 101.663 1421.32 M110.946 1406.66 L110.946 1410.92 Q109.186 1410.09 107.381 1409.65 Q105.598 1409.21 103.839 1409.21 Q99.2095 1409.21 96.7558 1412.33 Q94.3252 1415.46 93.978 1421.78 Q95.3437 1419.77 97.4039 1418.7 Q99.4641 1417.61 101.941 1417.61 Q107.149 1417.61 110.158 1420.78 Q113.191 1423.93 113.191 1429.37 Q113.191 1434.7 110.043 1437.91 Q106.895 1441.13 101.663 1441.13 Q95.6678 1441.13 92.4965 1436.55 Q89.3253 1431.94 89.3253 1423.21 Q89.3253 1415.02 93.2141 1410.16 Q97.103 1405.27 103.654 1405.27 Q105.413 1405.27 107.196 1405.62 Q109.001 1405.97 110.946 1406.66 Z" fill="#000000" fill-rule="nonzero" fill-opacity="1" /><path clip-path="url(#clip760)" d="M50.9921 1194.31 L80.6679 1194.31 L80.6679 1198.24 L50.9921 1198.24 L50.9921 1194.31 Z" fill="#000000" fill-rule="nonzero" fill-opacity="1" /><path clip-path="url(#clip760)" d="M103.608 1180.65 L91.8021 1199.1 L103.608 1199.1 L103.608 1180.65 M102.381 1176.58 L108.26 1176.58 L108.26 1199.1 L113.191 1199.1 L113.191 1202.99 L108.26 1202.99 L108.26 1211.14 L103.608 1211.14 L103.608 1202.99 L88.0058 1202.99 L88.0058 1198.48 L102.381 1176.58 Z" fill="#000000" fill-rule="nonzero" fill-opacity="1" /><path clip-path="url(#clip760)" d="M53.0754 964.986 L82.7512 964.986 L82.7512 968.921 L53.0754 968.921 L53.0754 964.986 Z" fill="#000000" fill-rule="nonzero" fill-opacity="1" /><path clip-path="url(#clip760)" d="M96.8715 977.879 L113.191 977.879 L113.191 981.815 L91.2465 981.815 L91.2465 977.879 Q93.9086 975.125 98.4919 970.495 Q103.098 965.842 104.279 964.5 Q106.524 961.977 107.404 960.241 Q108.307 958.481 108.307 956.792 Q108.307 954.037 106.362 952.301 Q104.441 950.565 101.339 950.565 Q99.14 950.565 96.6863 951.329 Q94.2558 952.093 91.478 953.643 L91.478 948.921 Q94.3021 947.787 96.7558 947.208 Q99.2095 946.63 101.246 946.63 Q106.617 946.63 109.811 949.315 Q113.006 952 113.006 956.491 Q113.006 958.62 112.196 960.542 Q111.408 962.44 109.302 965.032 Q108.723 965.704 105.621 968.921 Q102.52 972.116 96.8715 977.879 Z" fill="#000000" fill-rule="nonzero" fill-opacity="1" /><path clip-path="url(#clip760)" d="M101.246 721.011 Q97.6354 721.011 95.8067 724.575 Q94.0012 728.117 94.0012 735.247 Q94.0012 742.353 95.8067 745.918 Q97.6354 749.46 101.246 749.46 Q104.881 749.46 106.686 745.918 Q108.515 742.353 108.515 735.247 Q108.515 728.117 106.686 724.575 Q104.881 721.011 101.246 721.011 M101.246 717.307 Q107.057 717.307 110.112 721.913 Q113.191 726.497 113.191 735.247 Q113.191 743.973 110.112 748.58 Q107.057 753.163 101.246 753.163 Q95.4363 753.163 92.3576 748.58 Q89.3021 743.973 89.3021 735.247 Q89.3021 726.497 92.3576 721.913 Q95.4363 717.307 101.246 717.307 Z" fill="#000000" fill-rule="nonzero" fill-opacity="1" /><path clip-path="url(#clip760)" d="M96.8715 519.234 L113.191 519.234 L113.191 523.169 L91.2465 523.169 L91.2465 519.234 Q93.9086 516.48 98.4919 511.85 Q103.098 507.197 104.279 505.855 Q106.524 503.331 107.404 501.595 Q108.307 499.836 108.307 498.146 Q108.307 495.392 106.362 493.656 Q104.441 491.92 101.339 491.92 Q99.14 491.92 96.6863 492.683 Q94.2558 493.447 91.478 494.998 L91.478 490.276 Q94.3021 489.142 96.7558 488.563 Q99.2095 487.984 101.246 487.984 Q106.617 487.984 109.811 490.67 Q113.006 493.355 113.006 497.845 Q113.006 499.975 112.196 501.896 Q111.408 503.794 109.302 506.387 Q108.723 507.058 105.621 510.276 Q102.52 513.47 96.8715 519.234 Z" fill="#000000" fill-rule="nonzero" fill-opacity="1" /><path clip-path="url(#clip760)" d="M103.608 263.361 L91.8021 281.81 L103.608 281.81 L103.608 263.361 M102.381 259.287 L108.26 259.287 L108.26 281.81 L113.191 281.81 L113.191 285.699 L108.26 285.699 L108.26 293.847 L103.608 293.847 L103.608 285.699 L88.0058 285.699 L88.0058 281.185 L102.381 259.287 Z" fill="#000000" fill-rule="nonzero" fill-opacity="1" /><path clip-path="url(#clip760)" d="M101.663 45.3807 Q98.515 45.3807 96.6632 47.5334 Q94.8345 49.6862 94.8345 53.4362 Q94.8345 57.163 96.6632 59.3389 Q98.515 61.4917 101.663 61.4917 Q104.811 61.4917 106.64 59.3389 Q108.492 57.163 108.492 53.4362 Q108.492 49.6862 106.64 47.5334 Q104.811 45.3807 101.663 45.3807 M110.946 30.728 L110.946 34.9872 Q109.186 34.1539 107.381 33.7141 Q105.598 33.2743 103.839 33.2743 Q99.2095 33.2743 96.7558 36.3992 Q94.3252 39.5242 93.978 45.8436 Q95.3437 43.8298 97.4039 42.765 Q99.4641 41.677 101.941 41.677 Q107.149 41.677 110.158 44.8483 Q113.191 47.9964 113.191 53.4362 Q113.191 58.7602 110.043 61.9778 Q106.895 65.1954 101.663 65.1954 Q95.6678 65.1954 92.4965 60.6121 Q89.3253 56.0056 89.3253 47.2788 Q89.3253 39.0844 93.2141 34.2233 Q97.103 29.3391 103.654 29.3391 Q105.413 29.3391 107.196 29.6863 Q109.001 30.0335 110.946 30.728 Z" fill="#000000" fill-rule="nonzero" fill-opacity="1" /><polyline clip-path="url(#clip762)" style="stroke:#009af9; stroke-linecap:round; stroke-linejoin:round; stroke-width:12; stroke-opacity:1; fill:none" points="149.191,1193.86 151.945,1193.85 154.7,1193.82 157.454,1193.76 160.209,1193.69 162.963,1193.59 165.718,1193.47 168.472,1193.32 171.227,1193.15 173.981,1192.96 176.735,1192.73 179.49,1192.48 182.244,1192.2 184.999,1191.9 187.753,1191.57 190.508,1191.21 193.262,1190.82 196.017,1190.41 198.771,1189.97 201.526,1189.51 204.28,1189.02 207.034,1188.51 209.789,1187.97 212.543,1187.41 215.298,1186.83 218.052,1186.22 220.807,1185.6 223.561,1184.96 226.316,1184.29 229.07,1183.62 231.825,1182.92 234.579,1182.21 237.333,1181.48 240.088,1180.74 242.842,1179.98 245.597,1179.21 248.351,1178.42 251.106,1177.63 253.86,1176.82 256.615,1176 259.369,1175.16 262.124,1174.32 264.878,1173.46 267.632,1172.59 270.387,1171.71 273.141,1170.82 275.896,1169.92 278.65,1169.01 281.405,1168.09 284.159,1167.16 286.914,1166.22 289.668,1165.26 292.423,1164.3 295.177,1163.33 297.932,1162.35 300.686,1161.36 303.44,1160.36 306.195,1159.35 308.949,1158.34 311.704,1157.31 314.458,1156.28 317.213,1155.23 319.967,1154.18 322.722,1153.12 325.476,1152.05 328.231,1150.98 330.985,1149.89 333.739,1148.8 336.494,1147.7 339.248,1146.59 342.003,1145.48 344.757,1144.35 347.512,1143.22 350.266,1142.09 353.021,1140.94 355.775,1139.79 358.53,1138.64 361.284,1137.47 364.038,1136.3 366.793,1135.13 369.547,1133.94 372.302,1132.76 375.056,1131.56 377.811,1130.36 380.565,1129.15 383.32,1127.94 386.074,1126.73 388.829,1125.5 391.583,1124.27 394.337,1123.04 397.092,1121.8 399.846,1120.56 402.601,1119.31 405.355,1118.06 408.11,1116.8 410.864,1115.53 413.619,1114.27 416.373,1112.99 419.128,1111.72 421.882,1110.44 424.636,1109.15 427.391,1107.86 430.145,1106.57 432.9,1105.27 435.654,1103.97 438.409,1102.66 441.163,1101.35 443.918,1100.04 446.672,1098.72 449.427,1097.4 452.181,1096.07 454.936,1094.74 457.69,1093.41 460.444,1092.07 463.199,1090.73 465.953,1089.39 468.708,1088.04 471.462,1086.69 474.217,1085.34 476.971,1083.98 479.726,1082.62 482.48,1081.26 485.235,1079.89 487.989,1078.53 490.743,1077.15 493.498,1075.78 496.252,1074.4 499.007,1073.02 501.761,1071.63 504.516,1070.25 507.27,1068.86 510.025,1067.46 512.779,1066.07 515.534,1064.67 518.288,1063.27 521.042,1061.87 523.797,1060.46 526.551,1059.05 529.306,1057.64 532.06,1056.22 534.815,1054.81 537.569,1053.39 540.324,1051.96 543.078,1050.54 545.833,1049.11 548.587,1047.68 551.341,1046.25 554.096,1044.81 556.85,1043.38 559.605,1041.94 562.359,1040.5 565.114,1039.05 567.868,1037.61 570.623,1036.16 573.377,1034.71 576.132,1033.25 578.886,1031.8 581.641,1030.34 584.395,1028.88 587.149,1027.41 589.904,1025.95 592.658,1024.48 595.413,1023.01 598.167,1021.54 600.922,1020.07 603.676,1018.59 606.431,1017.11 609.185,1015.63 611.94,1014.15 614.694,1012.67 617.448,1011.18 620.203,1009.69 622.957,1008.2 625.712,1006.71 628.466,1005.21 631.221,1003.72 633.975,1002.22 636.73,1000.72 639.484,999.213 642.239,997.708 644.993,996.201 647.747,994.691 650.502,993.18 653.256,991.667 656.011,990.151 658.765,988.634 661.52,987.115 664.274,985.594 667.029,984.07 669.783,982.545 672.538,981.018 675.292,979.489 678.046,977.958 680.801,976.425 683.555,974.89 686.31,973.353 689.064,971.814 691.819,970.274 694.573,968.731 697.328,967.187 700.082,965.64 702.837,964.092 705.591,962.542 708.345,960.99 711.1,959.436 713.854,957.88 716.609,956.322 719.363,954.762 722.118,953.201 724.872,951.638 727.627,950.072 730.381,948.505 733.136,946.936 735.89,945.366 738.645,943.793 741.399,942.218 744.153,940.642 746.908,939.064 749.662,937.484 752.417,935.902 755.171,934.318 757.926,932.732 760.68,931.145 763.435,929.555 766.189,927.964 768.944,926.371 771.698,924.777 774.452,923.18 777.207,921.582 779.961,919.981 782.716,918.379 785.47,916.775 788.225,915.17 790.979,913.562 793.734,911.953 796.488,910.342 799.243,908.729 801.997,907.114 804.751,905.497 807.506,903.879 810.26,902.259 813.015,900.637 815.769,899.013 818.524,897.387 821.278,895.76 824.033,894.131 826.787,892.499 829.542,890.867 832.296,889.232 835.05,887.596 837.805,885.957 840.559,884.317 843.314,882.676 846.068,881.032 848.823,879.387 851.577,877.739 854.332,876.09 857.086,874.44 859.841,872.787 862.595,871.133 865.349,869.477 868.104,867.819 870.858,866.159 873.613,864.497 876.367,862.834 879.122,861.169 881.876,859.502 884.631,857.834 887.385,856.163 890.14,854.491 892.894,852.817 895.649,851.141 898.403,849.463 901.157,847.784 903.912,846.103 906.666,844.42 909.421,842.735 912.175,841.049 914.93,839.36 917.684,837.67 920.439,835.978 923.193,834.285 925.948,832.589 928.702,830.892 931.456,829.193 934.211,827.492 936.965,825.79 939.72,824.085 942.474,822.379 945.229,820.671 947.983,818.962 950.738,817.25 953.492,815.536 956.247,813.821 959.001,812.104 961.755,810.386 964.51,808.665 967.264,806.943 970.019,805.219 972.773,803.493 975.528,801.765 978.282,800.036 981.037,798.305 983.791,796.572 986.546,794.837 989.3,793.1 992.054,791.361 994.809,789.621 997.563,787.879 1000.32,786.135 1003.07,784.39 1005.83,782.642 1008.58,780.893 1011.34,779.142 1014.09,777.389 1016.84,775.635 1019.6,773.878 1022.35,772.12 1025.11,770.36 1027.86,768.598 1030.62,766.834 1033.37,765.069 1036.13,763.302 1038.88,761.533 1041.63,759.762 1044.39,757.989 1047.14,756.215 1049.9,754.438 1052.65,752.66 1055.41,750.88 1058.16,749.099 1060.92,747.315 1063.67,745.53 1066.42,743.743 1069.18,741.954 1071.93,740.163 1074.69,738.37 1077.44,736.576 1080.2,734.779 1082.95,732.981 1085.71,731.181 1088.46,729.38 1091.21,727.576 1093.97,725.771 1096.72,723.964 1099.48,722.155 1102.23,720.344 1104.99,718.531 1107.74,716.717 1110.5,714.9 1113.25,713.082 1116.01,711.262 1118.76,709.441 1121.51,707.617 1124.27,705.791 1127.02,703.964 1129.78,702.135 1132.53,700.304 1135.29,698.471 1138.04,696.637 1140.8,694.8 1143.55,692.962 1146.3,691.122 1149.06,689.28 1151.81,687.436 1154.57,685.59 1157.32,683.743 1160.08,681.893 1162.83,680.042 1165.59,678.189 1168.34,676.334 1171.09,674.477 1173.85,672.619 1176.6,670.758 1179.36,668.896 1182.11,667.032 1184.87,665.166 1187.62,663.298 1190.38,661.428 1193.13,659.557 1195.88,657.683 1198.64,655.808 1201.39,653.931 1204.15,652.052 1206.9,650.171 1209.66,648.288 1212.41,646.403 1215.17,644.517 1217.92,642.628 1220.67,640.738 1223.43,638.846 1226.18,636.952 1228.94,635.056 1231.69,633.159 1234.45,631.259 1237.2,629.358 1239.96,627.454 1242.71,625.549 1245.46,623.641 1248.22,621.733 1250.97,619.822 1253.73,617.91 1256.48,615.994 1259.24,614.078 1261.99,612.159 1264.75,610.24 1267.5,608.317 1270.25,606.393 1273.01,604.467 1275.76,602.539 1278.52,600.609 1281.27,598.678 1284.03,596.744 1286.78,594.809 1289.54,592.871 1292.29,590.932 1295.04,588.991 1297.8,587.048 1300.55,585.102 1303.31,583.156 1306.06,581.207 1308.82,579.256 1311.57,577.304 1314.33,575.349 1317.08,573.393 1319.83,571.434 1322.59,569.474 1325.34,567.512 1328.1,565.548 1330.85,563.582 1333.61,561.614 1336.36,559.644 1339.12,557.672 1341.87,555.698 1344.62,553.723 1347.38,551.745 1350.13,549.766 1352.89,547.784 1355.64,545.801 1358.4,543.816 1361.15,541.828 1363.91,539.839 1366.66,537.848 1369.41,535.855 1372.17,533.86 1374.92,531.863 1377.68,529.864 1380.43,527.863 1383.19,525.861 1385.94,523.856 1388.7,521.849 1391.45,519.841 1394.21,517.83 1396.96,515.818 1399.71,513.803 1402.47,511.787 1405.22,509.768 1407.98,507.748 1410.73,505.726 1413.49,503.702 1416.24,501.675 1419,499.647 1421.75,497.617 1424.5,495.585 1427.26,493.551 1430.01,491.515 1432.77,489.477 1435.52,487.437 1438.28,485.395 1441.03,483.351 1443.79,481.305 1446.54,479.257 1449.29,477.207 1452.05,475.155 1454.8,473.102 1457.56,471.046 1460.31,468.988 1463.07,466.928 1465.82,464.866 1468.58,462.803 1471.33,460.737 1474.08,458.669 1476.84,456.599 1479.59,454.528 1482.35,452.454 1485.1,450.378 1487.86,448.301 1490.61,446.221 1493.37,444.139 1496.12,442.056 1498.87,439.97 1501.63,437.882 1504.38,435.792 1507.14,433.701 1509.89,431.607 1512.65,429.511 1515.4,427.413 1518.16,425.313 1520.91,423.212 1523.66,421.108 1526.42,419.002 1529.17,416.894 1531.93,414.784 1534.68,412.672 1537.44,410.558 1540.19,408.442 1542.95,406.324 1545.7,404.204 1548.45,402.082 1551.21,399.958 1553.96,397.832 1556.72,395.704 1559.47,393.574 1562.23,391.442 1564.98,389.307 1567.74,387.171 1570.49,385.033 1573.24,382.892 1576,380.75 1578.75,378.605 1581.51,376.459 1584.26,374.31 1587.02,372.159 1589.77,370.007 1592.53,367.852 1595.28,365.695 1598.03,363.536 1600.79,361.376 1603.54,359.212 1606.3,357.048 1609.05,354.88 1611.81,352.711 1614.56,350.539 1617.32,348.366 1620.07,346.191 1622.82,344.014 1625.58,341.834 1628.33,339.652 1631.09,337.468 1633.84,335.283 1636.6,333.095 1639.35,330.906 1642.11,328.713 1644.86,326.52 1647.62,324.323 1650.37,322.125 1653.12,319.924 1655.88,317.723 1658.63,315.517 1661.39,313.311 1664.14,311.102 1666.9,308.892 1669.65,306.679 1672.41,304.463 1675.16,302.247 1677.91,300.028 1680.67,297.805 1683.42,295.583 1686.18,293.357 1688.93,291.13 1691.69,288.9 1694.44,286.668 1697.2,284.435 1699.95,282.198 1702.7,279.96 1705.46,277.72 1708.21,275.477 1710.97,273.233 1713.72,270.987 1716.48,268.737 1719.23,266.486 1721.99,264.233 1724.74,261.978 1727.49,259.722 1730.25,257.462 1733,255.199 1735.76,252.936 1738.51,250.67 1741.27,248.404 1744.02,246.132 1746.78,243.86 1749.53,241.585 1752.28,239.309 1755.04,237.03 1757.79,234.75 1760.55,232.466 1763.3,230.181 1766.06,227.894 1768.81,225.604 1771.57,223.313 1774.32,221.019 1777.07,218.723 1779.83,216.425 1782.58,214.125 1785.34,211.822 1788.09,209.518 1790.85,207.211 1793.6,204.902 1796.36,202.591 1799.11,200.278 1801.86,197.963 1804.62,195.645 1807.37,193.325 1810.13,191.003 1812.88,188.679 1815.64,186.353 1818.39,184.025 1821.15,181.694 1823.9,179.361 1826.65,177.026 1829.41,174.689 1832.16,172.35 1834.92,170.008 1837.67,167.664 1840.43,165.318 1843.18,162.97 1845.94,160.62 1848.69,158.267 1851.44,155.913 1854.2,153.556 1856.95,151.197 1859.71,148.835 1862.46,146.472 1865.22,144.106 1867.97,141.738 1870.73,139.368 1873.48,136.995 1876.23,134.621 1878.99,132.244 1881.74,129.865 1884.5,127.484 1887.25,125.1 1890.01,122.714 1892.76,120.327 1895.52,117.936 1898.27,115.544 1901.03,113.149 1903.78,110.753 1906.53,108.353 1909.29,105.952 1912.04,103.549 1914.8,101.143 1917.55,98.735 1920.31,96.3247 1923.06,93.9123 1925.82,91.4975 1928.57,89.0805 1931.32,86.6613 1934.08,84.2398 1936.83,81.8162 1939.59,79.3902 1942.34,76.962 1945.1,74.5315 1947.85,72.0989 1950.61,69.6638 1953.36,67.2266 1956.11,64.7872 1958.87,62.3454 1961.62,59.9016 1964.38,57.455 1967.13,55.0068 1969.89,52.5558 1972.64,50.1027 1975.4,47.6472 1978.15,45.1899 1980.9,42.7299 1983.66,40.2679 1986.41,37.8033 1989.17,35.3367 1991.92,32.8676 1994.68,30.3964 1997.43,27.9228 2000.19,25.4467 2002.94,22.9689 2005.69,20.4883 2008.45,18.0059 2011.2,15.5208 2013.96,13.0336 2016.71,10.544 2019.47,8.05234 2022.22,5.55808 2024.98,3.06119 2027.73,0.562663 2030.48,-1.93854 2033.24,-4.44177 2035.99,-6.94741 2038.75,-9.4554 2041.5,-11.966 2044.26,-14.4782 2047.01,-16.9934 2049.77,-19.5103 2052.52,-22.03 2055.27,-24.5519 2058.03,-27.0757 2060.78,-29.6026 2063.54,-32.1309 2066.29,-34.6624 2069.05,-37.1955 2071.8,-39.731 2074.56,-42.269 2077.31,-44.8097 2080.06,-47.3527 2082.82,-49.8977 2085.57,-52.4452 2088.33,-54.9948 2091.08,-57.5471 2093.84,-60.1015 2096.59,-62.6586 2099.35,-65.2172 2102.1,-67.7783 2104.85,-70.3422 2107.61,-72.9085 2110.36,-75.4765 2113.12,-78.0471 2115.87,-80.6205 2118.63,-83.1961 2121.38,-85.7741 2124.14,-88.3539 2126.89,-90.9366 2129.64,-93.5216 2132.4,-96.1093 2135.15,-98.6986 2137.91,-101.29 2140.66,-103.885 2143.42,-106.482 2146.17,-109.081 2148.93,-111.682 2151.68,-114.286 2154.44,-116.892 2157.19,-119.5 2159.94,-122.112 2162.7,-124.725 2165.45,-127.34 2168.21,-129.958 2170.96,-132.579 2173.72,-135.201 2176.47,-137.827 2179.23,-140.454 2181.98,-143.085 2184.73,-145.717 2187.49,-148.353 2190.24,-150.989 2193,-153.629 2195.75,-156.27 2198.51,-158.915 2201.26,-161.562 2204.02,-164.21 2206.77,-166.861 2209.52,-169.516 2212.28,-172.172 2215.03,-174.83 2217.79,-177.492 2220.54,-180.155 2223.3,-182.821 2226.05,-185.489 2228.81,-188.161 2231.56,-190.834 2234.31,-193.508 2237.07,-196.188 2239.82,-198.868 2242.58,-201.551 2245.33,-204.235 2248.09,-206.924 2250.84,-209.613 2253.6,-212.305 2256.35,-215 2259.1,-217.697 2261.86,-220.397 2264.61,-223.099 2267.37,-225.804 2270.12,-228.511 2272.88,-231.22 2275.63,-233.932 2278.39,-236.648 2281.14,-239.364 2283.89,-242.083 2286.65,-244.805 2289.4,-247.529 2292.16,-250.257 2294.91,-252.985 2297.67,-255.717 2300.42,-258.451 2303.18,-261.187 2305.93,-263.924 2308.68,-266.667 2311.44,-269.41 2314.19,-272.156 2316.95,-274.907 2319.7,-277.656 2322.46,-280.411 2325.21,-283.166 2327.97,-285.925 2330.72,-288.686 2333.47,-291.449 2336.23,-294.214 2338.98,-296.984 2341.74,-299.754 2344.49,-302.527 2347.25,-305.304 2350,-308.083 2352.76,-310.863 "/>
<polyline clip-path="url(#clip762)" style="stroke:#e26f46; stroke-linecap:round; stroke-linejoin:round; stroke-width:12; stroke-opacity:1; fill:none" points="149.191,735.212 151.945,733.204 154.7,731.1 157.454,728.906 160.209,726.626 162.963,724.266 165.718,721.833 168.472,719.334 171.227,716.776 173.981,714.168 176.735,711.518 179.49,708.836 182.244,706.133 184.999,703.418 187.753,700.703 190.508,697.999 193.262,695.317 196.017,692.67 198.771,690.069 201.526,687.523 204.28,685.042 207.034,682.635 209.789,680.306 212.543,678.062 215.298,675.907 218.052,673.841 220.807,671.862 223.561,669.97 226.316,668.162 229.07,666.433 231.825,664.781 234.579,663.198 237.333,661.681 240.088,660.222 242.842,658.816 245.597,657.458 248.351,656.144 251.106,654.869 253.86,653.629 256.615,652.42 259.369,651.24 262.124,650.085 264.878,648.954 267.632,647.844 270.387,646.752 273.141,645.679 275.896,644.622 278.65,643.581 281.405,642.555 284.159,641.544 286.914,640.548 289.668,639.565 292.423,638.595 295.177,637.639 297.932,636.695 300.686,635.764 303.44,634.845 306.195,633.939 308.949,633.046 311.704,632.165 314.458,631.297 317.213,630.442 319.967,629.601 322.722,628.772 325.476,627.957 328.231,627.154 330.985,626.365 333.739,625.589 336.494,624.826 339.248,624.075 342.003,623.338 344.757,622.614 347.512,621.902 350.266,621.203 353.021,620.516 355.775,619.842 358.53,619.18 361.284,618.53 364.038,617.892 366.793,617.266 369.547,616.651 372.302,616.047 375.056,615.455 377.811,614.874 380.565,614.303 383.32,613.742 386.074,613.192 388.829,612.652 391.583,612.122 394.337,611.601 397.092,611.089 399.846,610.587 402.601,610.093 405.355,609.608 408.11,609.132 410.864,608.663 413.619,608.203 416.373,607.75 419.128,607.305 421.882,606.868 424.636,606.437 427.391,606.014 430.145,605.597 432.9,605.188 435.654,604.784 438.409,604.387 441.163,603.996 443.918,603.611 446.672,603.232 449.427,602.859 452.181,602.491 454.936,602.128 457.69,601.77 460.444,601.418 463.199,601.07 465.953,600.727 468.708,600.389 471.462,600.055 474.217,599.726 476.971,599.4 479.726,599.079 482.48,598.762 485.235,598.449 487.989,598.139 490.743,597.834 493.498,597.532 496.252,597.233 499.007,596.938 501.761,596.646 504.516,596.357 507.27,596.072 510.025,595.79 512.779,595.51 515.534,595.234 518.288,594.96 521.042,594.689 523.797,594.421 526.551,594.155 529.306,593.892 532.06,593.631 534.815,593.372 537.569,593.116 540.324,592.862 543.078,592.611 545.833,592.361 548.587,592.113 551.341,591.868 554.096,591.624 556.85,591.382 559.605,591.142 562.359,590.904 565.114,590.667 567.868,590.433 570.623,590.199 573.377,589.968 576.132,589.738 578.886,589.509 581.641,589.282 584.395,589.056 587.149,588.832 589.904,588.609 592.658,588.388 595.413,588.167 598.167,587.948 600.922,587.731 603.676,587.514 606.431,587.298 609.185,587.084 611.94,586.871 614.694,586.659 617.448,586.447 620.203,586.237 622.957,586.028 625.712,585.82 628.466,585.612 631.221,585.406 633.975,585.2 636.73,584.996 639.484,584.792 642.239,584.589 644.993,584.386 647.747,584.185 650.502,583.984 653.256,583.784 656.011,583.585 658.765,583.386 661.52,583.188 664.274,582.991 667.029,582.794 669.783,582.598 672.538,582.403 675.292,582.208 678.046,582.013 680.801,581.82 683.555,581.626 686.31,581.433 689.064,581.241 691.819,581.049 694.573,580.858 697.328,580.667 700.082,580.477 702.837,580.286 705.591,580.097 708.345,579.908 711.1,579.719 713.854,579.53 716.609,579.342 719.363,579.154 722.118,578.967 724.872,578.78 727.627,578.593 730.381,578.407 733.136,578.22 735.89,578.035 738.645,577.849 741.399,577.664 744.153,577.479 746.908,577.294 749.662,577.109 752.417,576.925 755.171,576.741 757.926,576.557 760.68,576.374 763.435,576.191 766.189,576.008 768.944,575.825 771.698,575.642 774.452,575.459 777.207,575.277 779.961,575.095 782.716,574.913 785.47,574.731 788.225,574.549 790.979,574.368 793.734,574.187 796.488,574.005 799.243,573.824 801.997,573.643 804.751,573.462 807.506,573.282 810.26,573.101 813.015,572.921 815.769,572.74 818.524,572.56 821.278,572.38 824.033,572.2 826.787,572.02 829.542,571.84 832.296,571.661 835.05,571.481 837.805,571.301 840.559,571.122 843.314,570.943 846.068,570.763 848.823,570.584 851.577,570.405 854.332,570.226 857.086,570.046 859.841,569.867 862.595,569.688 865.349,569.509 868.104,569.33 870.858,569.152 873.613,568.973 876.367,568.794 879.122,568.615 881.876,568.436 884.631,568.257 887.385,568.079 890.14,567.9 892.894,567.721 895.649,567.543 898.403,567.364 901.157,567.185 903.912,567.006 906.666,566.828 909.421,566.649 912.175,566.47 914.93,566.292 917.684,566.113 920.439,565.934 923.193,565.755 925.948,565.577 928.702,565.398 931.456,565.219 934.211,565.04 936.965,564.861 939.72,564.682 942.474,564.504 945.229,564.325 947.983,564.146 950.738,563.967 953.492,563.788 956.247,563.609 959.001,563.43 961.755,563.25 964.51,563.071 967.264,562.892 970.019,562.713 972.773,562.534 975.528,562.354 978.282,562.175 981.037,561.996 983.791,561.816 986.546,561.637 989.3,561.457 992.054,561.277 994.809,561.098 997.563,560.918 1000.32,560.738 1003.07,560.559 1005.83,560.379 1008.58,560.199 1011.34,560.019 1014.09,559.839 1016.84,559.659 1019.6,559.478 1022.35,559.298 1025.11,559.118 1027.86,558.937 1030.62,558.757 1033.37,558.576 1036.13,558.396 1038.88,558.215 1041.63,558.034 1044.39,557.854 1047.14,557.673 1049.9,557.492 1052.65,557.311 1055.41,557.13 1058.16,556.949 1060.92,556.767 1063.67,556.586 1066.42,556.405 1069.18,556.223 1071.93,556.041 1074.69,555.86 1077.44,555.678 1080.2,555.496 1082.95,555.314 1085.71,555.132 1088.46,554.95 1091.21,554.768 1093.97,554.586 1096.72,554.404 1099.48,554.221 1102.23,554.039 1104.99,553.856 1107.74,553.673 1110.5,553.49 1113.25,553.308 1116.01,553.125 1118.76,552.941 1121.51,552.758 1124.27,552.575 1127.02,552.392 1129.78,552.208 1132.53,552.025 1135.29,551.841 1138.04,551.657 1140.8,551.473 1143.55,551.289 1146.3,551.105 1149.06,550.921 1151.81,550.737 1154.57,550.552 1157.32,550.368 1160.08,550.183 1162.83,549.999 1165.59,549.814 1168.34,549.629 1171.09,549.444 1173.85,549.259 1176.6,549.074 1179.36,548.888 1182.11,548.703 1184.87,548.517 1187.62,548.332 1190.38,548.146 1193.13,547.96 1195.88,547.774 1198.64,547.588 1201.39,547.402 1204.15,547.215 1206.9,547.029 1209.66,546.842 1212.41,546.655 1215.17,546.469 1217.92,546.282 1220.67,546.095 1223.43,545.908 1226.18,545.72 1228.94,545.533 1231.69,545.345 1234.45,545.158 1237.2,544.97 1239.96,544.782 1242.71,544.594 1245.46,544.406 1248.22,544.218 1250.97,544.029 1253.73,543.841 1256.48,543.652 1259.24,543.464 1261.99,543.275 1264.75,543.086 1267.5,542.897 1270.25,542.708 1273.01,542.518 1275.76,542.329 1278.52,542.139 1281.27,541.949 1284.03,541.76 1286.78,541.57 1289.54,541.379 1292.29,541.189 1295.04,540.999 1297.8,540.808 1300.55,540.618 1303.31,540.427 1306.06,540.236 1308.82,540.045 1311.57,539.854 1314.33,539.663 1317.08,539.472 1319.83,539.28 1322.59,539.088 1325.34,538.897 1328.1,538.705 1330.85,538.513 1333.61,538.321 1336.36,538.128 1339.12,537.936 1341.87,537.743 1344.62,537.551 1347.38,537.358 1350.13,537.165 1352.89,536.972 1355.64,536.778 1358.4,536.585 1361.15,536.392 1363.91,536.198 1366.66,536.004 1369.41,535.81 1372.17,535.616 1374.92,535.422 1377.68,535.228 1380.43,535.033 1383.19,534.839 1385.94,534.644 1388.7,534.449 1391.45,534.254 1394.21,534.059 1396.96,533.864 1399.71,533.668 1402.47,533.473 1405.22,533.277 1407.98,533.081 1410.73,532.885 1413.49,532.689 1416.24,532.493 1419,532.297 1421.75,532.1 1424.5,531.903 1427.26,531.707 1430.01,531.51 1432.77,531.312 1435.52,531.115 1438.28,530.918 1441.03,530.72 1443.79,530.523 1446.54,530.325 1449.29,530.127 1452.05,529.929 1454.8,529.731 1457.56,529.532 1460.31,529.334 1463.07,529.135 1465.82,528.936 1468.58,528.737 1471.33,528.538 1474.08,528.339 1476.84,528.14 1479.59,527.94 1482.35,527.741 1485.1,527.541 1487.86,527.341 1490.61,527.141 1493.37,526.941 1496.12,526.74 1498.87,526.54 1501.63,526.339 1504.38,526.138 1507.14,525.937 1509.89,525.736 1512.65,525.535 1515.4,525.333 1518.16,525.132 1520.91,524.93 1523.66,524.728 1526.42,524.526 1529.17,524.324 1531.93,524.122 1534.68,523.92 1537.44,523.717 1540.19,523.514 1542.95,523.311 1545.7,523.108 1548.45,522.905 1551.21,522.702 1553.96,522.498 1556.72,522.295 1559.47,522.091 1562.23,521.887 1564.98,521.683 1567.74,521.479 1570.49,521.274 1573.24,521.07 1576,520.865 1578.75,520.66 1581.51,520.456 1584.26,520.25 1587.02,520.045 1589.77,519.84 1592.53,519.634 1595.28,519.428 1598.03,519.223 1600.79,519.017 1603.54,518.81 1606.3,518.604 1609.05,518.398 1611.81,518.191 1614.56,517.984 1617.32,517.777 1620.07,517.57 1622.82,517.363 1625.58,517.156 1628.33,516.948 1631.09,516.74 1633.84,516.533 1636.6,516.325 1639.35,516.117 1642.11,515.908 1644.86,515.7 1647.62,515.491 1650.37,515.282 1653.12,515.074 1655.88,514.864 1658.63,514.655 1661.39,514.446 1664.14,514.236 1666.9,514.027 1669.65,513.817 1672.41,513.607 1675.16,513.397 1677.91,513.187 1680.67,512.976 1683.42,512.766 1686.18,512.555 1688.93,512.344 1691.69,512.133 1694.44,511.922 1697.2,511.71 1699.95,511.499 1702.7,511.287 1705.46,511.075 1708.21,510.863 1710.97,510.651 1713.72,510.439 1716.48,510.227 1719.23,510.014 1721.99,509.801 1724.74,509.588 1727.49,509.375 1730.25,509.162 1733,508.949 1735.76,508.735 1738.51,508.522 1741.27,508.308 1744.02,508.094 1746.78,507.88 1749.53,507.665 1752.28,507.451 1755.04,507.236 1757.79,507.022 1760.55,506.807 1763.3,506.592 1766.06,506.376 1768.81,506.161 1771.57,505.945 1774.32,505.73 1777.07,505.514 1779.83,505.298 1782.58,505.082 1785.34,504.866 1788.09,504.649 1790.85,504.432 1793.6,504.216 1796.36,503.999 1799.11,503.782 1801.86,503.564 1804.62,503.347 1807.37,503.13 1810.13,502.912 1812.88,502.694 1815.64,502.476 1818.39,502.258 1821.15,502.04 1823.9,501.821 1826.65,501.602 1829.41,501.384 1832.16,501.165 1834.92,500.946 1837.67,500.726 1840.43,500.507 1843.18,500.287 1845.94,500.068 1848.69,499.848 1851.44,499.628 1854.2,499.408 1856.95,499.187 1859.71,498.967 1862.46,498.746 1865.22,498.525 1867.97,498.304 1870.73,498.083 1873.48,497.862 1876.23,497.64 1878.99,497.419 1881.74,497.197 1884.5,496.975 1887.25,496.753 1890.01,496.531 1892.76,496.309 1895.52,496.086 1898.27,495.863 1901.03,495.64 1903.78,495.417 1906.53,495.194 1909.29,494.971 1912.04,494.748 1914.8,494.524 1917.55,494.3 1920.31,494.076 1923.06,493.852 1925.82,493.628 1928.57,493.404 1931.32,493.179 1934.08,492.954 1936.83,492.729 1939.59,492.504 1942.34,492.279 1945.1,492.054 1947.85,491.828 1950.61,491.603 1953.36,491.377 1956.11,491.151 1958.87,490.925 1961.62,490.699 1964.38,490.472 1967.13,490.246 1969.89,490.019 1972.64,489.792 1975.4,489.565 1978.15,489.338 1980.9,489.111 1983.66,488.883 1986.41,488.655 1989.17,488.428 1991.92,488.2 1994.68,487.971 1997.43,487.743 2000.19,487.515 2002.94,487.286 2005.69,487.057 2008.45,486.828 2011.2,486.599 2013.96,486.37 2016.71,486.141 2019.47,485.911 2022.22,485.682 2024.98,485.452 2027.73,485.222 2030.48,484.992 2033.24,484.761 2035.99,484.531 2038.75,484.3 2041.5,484.07 2044.26,483.839 2047.01,483.608 2049.77,483.376 2052.52,483.145 2055.27,482.913 2058.03,482.682 2060.78,482.45 2063.54,482.218 2066.29,481.986 2069.05,481.753 2071.8,481.521 2074.56,481.288 2077.31,481.056 2080.06,480.823 2082.82,480.59 2085.57,480.356 2088.33,480.123 2091.08,479.889 2093.84,479.656 2096.59,479.422 2099.35,479.188 2102.1,478.954 2104.85,478.719 2107.61,478.485 2110.36,478.25 2113.12,478.016 2115.87,477.781 2118.63,477.546 2121.38,477.31 2124.14,477.075 2126.89,476.839 2129.64,476.604 2132.4,476.368 2135.15,476.132 2137.91,475.896 2140.66,475.659 2143.42,475.423 2146.17,475.186 2148.93,474.95 2151.68,474.713 2154.44,474.476 2157.19,474.238 2159.94,474.001 2162.7,473.764 2165.45,473.526 2168.21,473.288 2170.96,473.05 2173.72,472.812 2176.47,472.574 2179.23,472.335 2181.98,472.097 2184.73,471.858 2187.49,471.619 2190.24,471.38 2193,471.141 2195.75,470.901 2198.51,470.662 2201.26,470.422 2204.02,470.182 2206.77,469.942 2209.52,469.702 2212.28,469.462 2215.03,469.222 2217.79,468.981 2220.54,468.74 2223.3,468.5 2226.05,468.258 2228.81,468.017 2231.56,467.776 2234.31,467.535 2237.07,467.293 2239.82,467.051 2242.58,466.809 2245.33,466.567 2248.09,466.325 2250.84,466.083 2253.6,465.84 2256.35,465.597 2259.1,465.355 2261.86,465.111 2264.61,464.868 2267.37,464.625 2270.12,464.382 2272.88,464.138 2275.63,463.894 2278.39,463.65 2281.14,463.406 2283.89,463.162 2286.65,462.918 2289.4,462.673 2292.16,462.429 2294.91,462.184 2297.67,461.939 2300.42,461.694 2303.18,461.449 2305.93,461.204 2308.68,460.958 2311.44,460.712 2314.19,460.467 2316.95,460.22 2319.7,459.974 2322.46,459.728 2325.21,459.482 2327.97,459.235 2330.72,458.988 2333.47,458.742 2336.23,458.495 2338.98,458.247 2341.74,458 2344.49,457.753 2347.25,457.505 2350,457.257 2352.76,457.01 "/>
<polyline clip-path="url(#clip762)" style="stroke:#3da44d; stroke-linecap:round; stroke-linejoin:round; stroke-width:12; stroke-opacity:1; fill:none" points="149.191,598.133 151.945,595.895 154.7,593.822 157.454,591.914 160.209,590.171 162.963,588.593 165.718,587.183 168.472,585.942 171.227,584.875 173.981,583.986 176.735,583.282 179.49,582.77 182.244,582.456 184.999,582.347 187.753,582.451 190.508,582.772 193.262,583.313 196.017,584.074 198.771,585.051 201.526,586.236 204.28,587.616 207.034,589.173 209.789,590.885 212.543,592.725 215.298,594.664 218.052,596.67 220.807,598.712 223.561,600.757 226.316,602.777 229.07,604.745 231.825,606.64 234.579,608.445 237.333,610.147 240.088,611.739 242.842,613.217 245.597,614.582 248.351,615.836 251.106,616.984 253.86,618.035 256.615,618.996 259.369,619.875 262.124,620.683 264.878,621.427 267.632,622.117 270.387,622.76 273.141,623.364 275.896,623.937 278.65,624.483 281.405,625.009 284.159,625.52 286.914,626.019 289.668,626.511 292.423,626.999 295.177,627.486 297.932,627.973 300.686,628.463 303.44,628.957 306.195,629.457 308.949,629.962 311.704,630.474 314.458,630.993 317.213,631.519 319.967,632.052 322.722,632.592 325.476,633.139 328.231,633.692 330.985,634.251 333.739,634.815 336.494,635.384 339.248,635.957 342.003,636.534 344.757,637.113 347.512,637.694 350.266,638.277 353.021,638.861 355.775,639.445 358.53,640.028 361.284,640.611 364.038,641.191 366.793,641.77 369.547,642.345 372.302,642.918 375.056,643.486 377.811,644.051 380.565,644.61 383.32,645.165 386.074,645.715 388.829,646.259 391.583,646.798 394.337,647.33 397.092,647.856 399.846,648.375 402.601,648.888 405.355,649.394 408.11,649.893 410.864,650.385 413.619,650.869 416.373,651.347 419.128,651.818 421.882,652.281 424.636,652.736 427.391,653.185 430.145,653.626 432.9,654.06 435.654,654.487 438.409,654.906 441.163,655.318 443.918,655.723 446.672,656.121 449.427,656.511 452.181,656.895 454.936,657.272 457.69,657.642 460.444,658.005 463.199,658.361 465.953,658.71 468.708,659.053 471.462,659.39 474.217,659.72 476.971,660.044 479.726,660.361 482.48,660.672 485.235,660.977 487.989,661.276 490.743,661.57 493.498,661.857 496.252,662.139 499.007,662.414 501.761,662.685 504.516,662.949 507.27,663.209 510.025,663.463 512.779,663.711 515.534,663.955 518.288,664.194 521.042,664.427 523.797,664.656 526.551,664.879 529.306,665.098 532.06,665.312 534.815,665.522 537.569,665.727 540.324,665.928 543.078,666.124 545.833,666.316 548.587,666.504 551.341,666.687 554.096,666.867 556.85,667.043 559.605,667.214 562.359,667.382 565.114,667.546 567.868,667.706 570.623,667.863 573.377,668.016 576.132,668.166 578.886,668.312 581.641,668.455 584.395,668.594 587.149,668.73 589.904,668.863 592.658,668.993 595.413,669.12 598.167,669.244 600.922,669.365 603.676,669.483 606.431,669.598 609.185,669.711 611.94,669.821 614.694,669.928 617.448,670.032 620.203,670.134 622.957,670.234 625.712,670.331 628.466,670.426 631.221,670.518 633.975,670.608 636.73,670.696 639.484,670.782 642.239,670.865 644.993,670.947 647.747,671.026 650.502,671.103 653.256,671.179 656.011,671.252 658.765,671.324 661.52,671.394 664.274,671.462 667.029,671.528 669.783,671.592 672.538,671.655 675.292,671.717 678.046,671.776 680.801,671.834 683.555,671.891 686.31,671.946 689.064,671.999 691.819,672.051 694.573,672.102 697.328,672.151 700.082,672.199 702.837,672.246 705.591,672.291 708.345,672.336 711.1,672.379 713.854,672.42 716.609,672.461 719.363,672.5 722.118,672.539 724.872,672.576 727.627,672.612 730.381,672.647 733.136,672.681 735.89,672.714 738.645,672.746 741.399,672.778 744.153,672.808 746.908,672.837 749.662,672.866 752.417,672.893 755.171,672.92 757.926,672.946 760.68,672.971 763.435,672.995 766.189,673.019 768.944,673.042 771.698,673.064 774.452,673.085 777.207,673.106 779.961,673.126 782.716,673.145 785.47,673.164 788.225,673.182 790.979,673.199 793.734,673.216 796.488,673.232 799.243,673.247 801.997,673.262 804.751,673.277 807.506,673.291 810.26,673.304 813.015,673.317 815.769,673.329 818.524,673.341 821.278,673.352 824.033,673.363 826.787,673.373 829.542,673.383 832.296,673.392 835.05,673.401 837.805,673.41 840.559,673.418 843.314,673.425 846.068,673.433 848.823,673.439 851.577,673.446 854.332,673.452 857.086,673.458 859.841,673.463 862.595,673.468 865.349,673.473 868.104,673.477 870.858,673.481 873.613,673.484 876.367,673.488 879.122,673.491 881.876,673.493 884.631,673.496 887.385,673.498 890.14,673.5 892.894,673.501 895.649,673.502 898.403,673.503 901.157,673.504 903.912,673.504 906.666,673.504 909.421,673.504 912.175,673.504 914.93,673.503 917.684,673.502 920.439,673.501 923.193,673.5 925.948,673.498 928.702,673.497 931.456,673.495 934.211,673.492 936.965,673.49 939.72,673.487 942.474,673.484 945.229,673.481 947.983,673.478 950.738,673.475 953.492,673.471 956.247,673.467 959.001,673.463 961.755,673.459 964.51,673.455 967.264,673.45 970.019,673.445 972.773,673.441 975.528,673.436 978.282,673.43 981.037,673.425 983.791,673.42 986.546,673.414 989.3,673.408 992.054,673.402 994.809,673.396 997.563,673.39 1000.32,673.383 1003.07,673.377 1005.83,673.37 1008.58,673.363 1011.34,673.356 1014.09,673.349 1016.84,673.342 1019.6,673.335 1022.35,673.327 1025.11,673.32 1027.86,673.312 1030.62,673.304 1033.37,673.296 1036.13,673.288 1038.88,673.28 1041.63,673.272 1044.39,673.263 1047.14,673.255 1049.9,673.246 1052.65,673.238 1055.41,673.229 1058.16,673.22 1060.92,673.211 1063.67,673.202 1066.42,673.192 1069.18,673.183 1071.93,673.174 1074.69,673.164 1077.44,673.155 1080.2,673.145 1082.95,673.135 1085.71,673.125 1088.46,673.115 1091.21,673.105 1093.97,673.095 1096.72,673.085 1099.48,673.075 1102.23,673.064 1104.99,673.054 1107.74,673.043 1110.5,673.033 1113.25,673.022 1116.01,673.011 1118.76,673 1121.51,672.99 1124.27,672.979 1127.02,672.967 1129.78,672.956 1132.53,672.945 1135.29,672.934 1138.04,672.923 1140.8,672.911 1143.55,672.9 1146.3,672.888 1149.06,672.877 1151.81,672.865 1154.57,672.853 1157.32,672.841 1160.08,672.83 1162.83,672.818 1165.59,672.806 1168.34,672.794 1171.09,672.782 1173.85,672.769 1176.6,672.757 1179.36,672.745 1182.11,672.733 1184.87,672.72 1187.62,672.708 1190.38,672.695 1193.13,672.683 1195.88,672.67 1198.64,672.658 1201.39,672.645 1204.15,672.632 1206.9,672.619 1209.66,672.607 1212.41,672.594 1215.17,672.581 1217.92,672.568 1220.67,672.555 1223.43,672.542 1226.18,672.529 1228.94,672.516 1231.69,672.502 1234.45,672.489 1237.2,672.476 1239.96,672.463 1242.71,672.449 1245.46,672.436 1248.22,672.422 1250.97,672.409 1253.73,672.395 1256.48,672.382 1259.24,672.368 1261.99,672.354 1264.75,672.341 1267.5,672.327 1270.25,672.313 1273.01,672.3 1275.76,672.286 1278.52,672.272 1281.27,672.258 1284.03,672.244 1286.78,672.23 1289.54,672.216 1292.29,672.202 1295.04,672.188 1297.8,672.174 1300.55,672.16 1303.31,672.146 1306.06,672.131 1308.82,672.117 1311.57,672.103 1314.33,672.089 1317.08,672.074 1319.83,672.06 1322.59,672.046 1325.34,672.031 1328.1,672.017 1330.85,672.003 1333.61,671.988 1336.36,671.974 1339.12,671.959 1341.87,671.944 1344.62,671.93 1347.38,671.915 1350.13,671.901 1352.89,671.886 1355.64,671.871 1358.4,671.857 1361.15,671.842 1363.91,671.827 1366.66,671.812 1369.41,671.798 1372.17,671.783 1374.92,671.768 1377.68,671.753 1380.43,671.738 1383.19,671.723 1385.94,671.709 1388.7,671.694 1391.45,671.679 1394.21,671.664 1396.96,671.649 1399.71,671.634 1402.47,671.619 1405.22,671.604 1407.98,671.588 1410.73,671.573 1413.49,671.558 1416.24,671.543 1419,671.528 1421.75,671.513 1424.5,671.498 1427.26,671.483 1430.01,671.467 1432.77,671.452 1435.52,671.437 1438.28,671.422 1441.03,671.406 1443.79,671.391 1446.54,671.376 1449.29,671.36 1452.05,671.345 1454.8,671.33 1457.56,671.314 1460.31,671.299 1463.07,671.284 1465.82,671.268 1468.58,671.253 1471.33,671.238 1474.08,671.222 1476.84,671.207 1479.59,671.191 1482.35,671.176 1485.1,671.16 1487.86,671.145 1490.61,671.129 1493.37,671.114 1496.12,671.098 1498.87,671.083 1501.63,671.067 1504.38,671.052 1507.14,671.036 1509.89,671.02 1512.65,671.005 1515.4,670.989 1518.16,670.974 1520.91,670.958 1523.66,670.943 1526.42,670.927 1529.17,670.911 1531.93,670.896 1534.68,670.88 1537.44,670.864 1540.19,670.849 1542.95,670.833 1545.7,670.817 1548.45,670.802 1551.21,670.786 1553.96,670.77 1556.72,670.755 1559.47,670.739 1562.23,670.723 1564.98,670.707 1567.74,670.692 1570.49,670.676 1573.24,670.66 1576,670.645 1578.75,670.629 1581.51,670.613 1584.26,670.597 1587.02,670.582 1589.77,670.566 1592.53,670.55 1595.28,670.534 1598.03,670.518 1600.79,670.503 1603.54,670.487 1606.3,670.471 1609.05,670.455 1611.81,670.44 1614.56,670.424 1617.32,670.408 1620.07,670.392 1622.82,670.376 1625.58,670.361 1628.33,670.345 1631.09,670.329 1633.84,670.313 1636.6,670.297 1639.35,670.282 1642.11,670.266 1644.86,670.25 1647.62,670.234 1650.37,670.218 1653.12,670.202 1655.88,670.187 1658.63,670.171 1661.39,670.155 1664.14,670.139 1666.9,670.123 1669.65,670.107 1672.41,670.092 1675.16,670.076 1677.91,670.06 1680.67,670.044 1683.42,670.028 1686.18,670.013 1688.93,669.997 1691.69,669.981 1694.44,669.965 1697.2,669.949 1699.95,669.933 1702.7,669.918 1705.46,669.902 1708.21,669.886 1710.97,669.87 1713.72,669.854 1716.48,669.839 1719.23,669.823 1721.99,669.807 1724.74,669.791 1727.49,669.775 1730.25,669.76 1733,669.744 1735.76,669.728 1738.51,669.712 1741.27,669.696 1744.02,669.681 1746.78,669.665 1749.53,669.649 1752.28,669.633 1755.04,669.617 1757.79,669.602 1760.55,669.586 1763.3,669.57 1766.06,669.554 1768.81,669.539 1771.57,669.523 1774.32,669.507 1777.07,669.491 1779.83,669.476 1782.58,669.46 1785.34,669.444 1788.09,669.428 1790.85,669.413 1793.6,669.397 1796.36,669.381 1799.11,669.366 1801.86,669.35 1804.62,669.334 1807.37,669.318 1810.13,669.303 1812.88,669.287 1815.64,669.271 1818.39,669.256 1821.15,669.24 1823.9,669.224 1826.65,669.209 1829.41,669.193 1832.16,669.177 1834.92,669.162 1837.67,669.146 1840.43,669.131 1843.18,669.115 1845.94,669.099 1848.69,669.084 1851.44,669.068 1854.2,669.052 1856.95,669.037 1859.71,669.021 1862.46,669.006 1865.22,668.99 1867.97,668.975 1870.73,668.959 1873.48,668.943 1876.23,668.928 1878.99,668.912 1881.74,668.897 1884.5,668.881 1887.25,668.866 1890.01,668.85 1892.76,668.835 1895.52,668.819 1898.27,668.804 1901.03,668.788 1903.78,668.773 1906.53,668.757 1909.29,668.742 1912.04,668.726 1914.8,668.711 1917.55,668.696 1920.31,668.68 1923.06,668.665 1925.82,668.649 1928.57,668.634 1931.32,668.618 1934.08,668.603 1936.83,668.588 1939.59,668.572 1942.34,668.557 1945.1,668.542 1947.85,668.526 1950.61,668.511 1953.36,668.496 1956.11,668.48 1958.87,668.465 1961.62,668.45 1964.38,668.434 1967.13,668.419 1969.89,668.404 1972.64,668.389 1975.4,668.373 1978.15,668.358 1980.9,668.343 1983.66,668.328 1986.41,668.312 1989.17,668.297 1991.92,668.282 1994.68,668.267 1997.43,668.252 2000.19,668.236 2002.94,668.221 2005.69,668.206 2008.45,668.191 2011.2,668.176 2013.96,668.161 2016.71,668.146 2019.47,668.13 2022.22,668.115 2024.98,668.1 2027.73,668.085 2030.48,668.07 2033.24,668.055 2035.99,668.04 2038.75,668.025 2041.5,668.01 2044.26,667.995 2047.01,667.98 2049.77,667.965 2052.52,667.95 2055.27,667.935 2058.03,667.92 2060.78,667.905 2063.54,667.89 2066.29,667.875 2069.05,667.86 2071.8,667.845 2074.56,667.831 2077.31,667.816 2080.06,667.801 2082.82,667.786 2085.57,667.771 2088.33,667.756 2091.08,667.741 2093.84,667.727 2096.59,667.712 2099.35,667.697 2102.1,667.682 2104.85,667.667 2107.61,667.653 2110.36,667.638 2113.12,667.623 2115.87,667.608 2118.63,667.594 2121.38,667.579 2124.14,667.564 2126.89,667.55 2129.64,667.535 2132.4,667.52 2135.15,667.506 2137.91,667.491 2140.66,667.476 2143.42,667.462 2146.17,667.447 2148.93,667.433 2151.68,667.418 2154.44,667.403 2157.19,667.389 2159.94,667.374 2162.7,667.36 2165.45,667.345 2168.21,667.331 2170.96,667.316 2173.72,667.302 2176.47,667.287 2179.23,667.273 2181.98,667.259 2184.73,667.244 2187.49,667.23 2190.24,667.215 2193,667.201 2195.75,667.187 2198.51,667.172 2201.26,667.158 2204.02,667.143 2206.77,667.129 2209.52,667.115 2212.28,667.101 2215.03,667.086 2217.79,667.072 2220.54,667.058 2223.3,667.043 2226.05,667.029 2228.81,667.015 2231.56,667.001 2234.31,666.987 2237.07,666.972 2239.82,666.958 2242.58,666.944 2245.33,666.93 2248.09,666.916 2250.84,666.902 2253.6,666.888 2256.35,666.873 2259.1,666.859 2261.86,666.845 2264.61,666.831 2267.37,666.817 2270.12,666.803 2272.88,666.789 2275.63,666.775 2278.39,666.761 2281.14,666.747 2283.89,666.733 2286.65,666.719 2289.4,666.705 2292.16,666.691 2294.91,666.678 2297.67,666.664 2300.42,666.65 2303.18,666.636 2305.93,666.622 2308.68,666.608 2311.44,666.594 2314.19,666.581 2316.95,666.567 2319.7,666.553 2322.46,666.539 2325.21,666.525 2327.97,666.512 2330.72,666.498 2333.47,666.484 2336.23,666.471 2338.98,666.457 2341.74,666.443 2344.49,666.43 2347.25,666.416 2350,666.402 2352.76,666.389 "/>
<path clip-path="url(#clip760)" d="M222.643 300.469 L532.096 300.469 L532.096 93.1086 L222.643 93.1086  Z" fill="#ffffff" fill-rule="evenodd" fill-opacity="1"/>
<polyline clip-path="url(#clip760)" style="stroke:#000000; stroke-linecap:round; stroke-linejoin:round; stroke-width:4; stroke-opacity:1; fill:none" points="222.643,300.469 532.096,300.469 532.096,93.1086 222.643,93.1086 222.643,300.469 "/>
<polyline clip-path="url(#clip760)" style="stroke:#009af9; stroke-linecap:round; stroke-linejoin:round; stroke-width:12; stroke-opacity:1; fill:none" points="247.127,144.949 394.031,144.949 "/>
<path clip-path="url(#clip760)" d="M418.515 151.997 L418.515 136.303 L422.775 136.303 L422.775 151.835 Q422.775 155.516 424.21 157.368 Q425.645 159.196 428.515 159.196 Q431.964 159.196 433.955 156.997 Q435.969 154.798 435.969 151.002 L435.969 136.303 L440.228 136.303 L440.228 162.229 L435.969 162.229 L435.969 158.247 Q434.418 160.608 432.358 161.766 Q430.321 162.9 427.613 162.9 Q423.145 162.9 420.83 160.122 Q418.515 157.344 418.515 151.997 M429.233 135.678 L429.233 135.678 Z" fill="#000000" fill-rule="nonzero" fill-opacity="1" /><path clip-path="url(#clip760)" d="M448.608 126.21 L458.423 126.21 L458.423 129.52 L452.867 129.52 L452.867 165.168 L458.423 165.168 L458.423 168.479 L448.608 168.479 L448.608 126.21 Z" fill="#000000" fill-rule="nonzero" fill-opacity="1" /><path clip-path="url(#clip760)" d="M468.909 158.293 L476.548 158.293 L476.548 131.928 L468.237 133.595 L468.237 129.335 L476.501 127.669 L481.177 127.669 L481.177 158.293 L488.816 158.293 L488.816 162.229 L468.909 162.229 L468.909 158.293 Z" fill="#000000" fill-rule="nonzero" fill-opacity="1" /><path clip-path="url(#clip760)" d="M507.612 126.21 L507.612 168.479 L497.797 168.479 L497.797 165.168 L503.33 165.168 L503.33 129.52 L497.797 129.52 L497.797 126.21 L507.612 126.21 Z" fill="#000000" fill-rule="nonzero" fill-opacity="1" /><polyline clip-path="url(#clip760)" style="stroke:#e26f46; stroke-linecap:round; stroke-linejoin:round; stroke-width:12; stroke-opacity:1; fill:none" points="247.127,196.789 394.031,196.789 "/>
<path clip-path="url(#clip760)" d="M418.515 203.837 L418.515 188.143 L422.775 188.143 L422.775 203.675 Q422.775 207.356 424.21 209.208 Q425.645 211.036 428.515 211.036 Q431.964 211.036 433.955 208.837 Q435.969 206.638 435.969 202.842 L435.969 188.143 L440.228 188.143 L440.228 214.069 L435.969 214.069 L435.969 210.087 Q434.418 212.448 432.358 213.606 Q430.321 214.74 427.613 214.74 Q423.145 214.74 420.83 211.962 Q418.515 209.184 418.515 203.837 M429.233 187.518 L429.233 187.518 Z" fill="#000000" fill-rule="nonzero" fill-opacity="1" /><path clip-path="url(#clip760)" d="M448.608 178.05 L458.423 178.05 L458.423 181.36 L452.867 181.36 L452.867 217.008 L458.423 217.008 L458.423 220.319 L448.608 220.319 L448.608 178.05 Z" fill="#000000" fill-rule="nonzero" fill-opacity="1" /><path clip-path="url(#clip760)" d="M472.126 210.133 L488.446 210.133 L488.446 214.069 L466.501 214.069 L466.501 210.133 Q469.163 207.379 473.747 202.749 Q478.353 198.096 479.534 196.754 Q481.779 194.231 482.659 192.495 Q483.561 190.735 483.561 189.046 Q483.561 186.291 481.617 184.555 Q479.696 182.819 476.594 182.819 Q474.395 182.819 471.941 183.583 Q469.511 184.347 466.733 185.897 L466.733 181.175 Q469.557 180.041 472.011 179.462 Q474.464 178.884 476.501 178.884 Q481.872 178.884 485.066 181.569 Q488.26 184.254 488.26 188.745 Q488.26 190.874 487.45 192.796 Q486.663 194.694 484.557 197.286 Q483.978 197.958 480.876 201.175 Q477.774 204.37 472.126 210.133 Z" fill="#000000" fill-rule="nonzero" fill-opacity="1" /><path clip-path="url(#clip760)" d="M507.612 178.05 L507.612 220.319 L497.797 220.319 L497.797 217.008 L503.33 217.008 L503.33 181.36 L497.797 181.36 L497.797 178.05 L507.612 178.05 Z" fill="#000000" fill-rule="nonzero" fill-opacity="1" /><polyline clip-path="url(#clip760)" style="stroke:#3da44d; stroke-linecap:round; stroke-linejoin:round; stroke-width:12; stroke-opacity:1; fill:none" points="247.127,248.629 394.031,248.629 "/>
<path clip-path="url(#clip760)" d="M418.515 255.677 L418.515 239.983 L422.775 239.983 L422.775 255.515 Q422.775 259.196 424.21 261.048 Q425.645 262.876 428.515 262.876 Q431.964 262.876 433.955 260.677 Q435.969 258.478 435.969 254.682 L435.969 239.983 L440.228 239.983 L440.228 265.909 L435.969 265.909 L435.969 261.927 Q434.418 264.288 432.358 265.446 Q430.321 266.58 427.613 266.58 Q423.145 266.58 420.83 263.802 Q418.515 261.024 418.515 255.677 M429.233 239.358 L429.233 239.358 Z" fill="#000000" fill-rule="nonzero" fill-opacity="1" /><path clip-path="url(#clip760)" d="M459.233 229.937 Q456.131 235.261 454.626 240.469 Q453.122 245.677 453.122 251.024 Q453.122 256.372 454.626 261.626 Q456.154 266.858 459.233 272.159 L455.529 272.159 Q452.057 266.719 450.321 261.464 Q448.608 256.21 448.608 251.024 Q448.608 245.862 450.321 240.631 Q452.034 235.4 455.529 229.937 L459.233 229.937 Z" fill="#000000" fill-rule="nonzero" fill-opacity="1" /><path clip-path="url(#clip760)" d="M471.71 232.622 L471.71 239.983 L480.483 239.983 L480.483 243.293 L471.71 243.293 L471.71 257.367 Q471.71 260.538 472.566 261.441 Q473.446 262.344 476.108 262.344 L480.483 262.344 L480.483 265.909 L476.108 265.909 Q471.177 265.909 469.302 264.08 Q467.427 262.228 467.427 257.367 L467.427 243.293 L464.302 243.293 L464.302 239.983 L467.427 239.983 L467.427 232.622 L471.71 232.622 Z" fill="#000000" fill-rule="nonzero" fill-opacity="1" /><path clip-path="url(#clip760)" d="M485.413 229.937 L489.117 229.937 Q492.589 235.4 494.302 240.631 Q496.038 245.862 496.038 251.024 Q496.038 256.21 494.302 261.464 Q492.589 266.719 489.117 272.159 L485.413 272.159 Q488.492 266.858 489.997 261.626 Q491.524 256.372 491.524 251.024 Q491.524 245.677 489.997 240.469 Q488.492 235.261 485.413 229.937 Z" fill="#000000" fill-rule="nonzero" fill-opacity="1" /></svg>
