<?xml version="1.0" encoding="utf-8"?>
<svg xmlns="http://www.w3.org/2000/svg" xmlns:xlink="http://www.w3.org/1999/xlink" width="600" height="400" viewBox="0 0 2400 1600">
<defs>
  <clipPath id="clip500">
    <rect x="0" y="0" width="2400" height="1600"/>
  </clipPath>
</defs>
<path clip-path="url(#clip500)" d="M0 1600 L2400 1600 L2400 0 L0 0  Z" fill="#ffffff" fill-rule="evenodd" fill-opacity="1"/>
<defs>
  <clipPath id="clip501">
    <rect x="149" y="47" width="2205" height="1377"/>
  </clipPath>
</defs>
<path clip-path="url(#clip500)" d="M149.191 1423.18 L2352.76 1423.18 L2352.76 47.2441 L149.191 47.2441  Z" fill="#ffffff" fill-rule="evenodd" fill-opacity="1"/>
<polyline clip-path="url(#clip501)" style="stroke:#000000; stroke-linecap:round; stroke-linejoin:round; stroke-width:2; stroke-opacity:0.1; fill:none" points="149.191,1423.18 149.191,47.2441 "/>
<polyline clip-path="url(#clip501)" style="stroke:#000000; stroke-linecap:round; stroke-linejoin:round; stroke-width:2; stroke-opacity:0.1; fill:none" points="700.082,1423.18 700.082,47.2441 "/>
<polyline clip-path="url(#clip501)" style="stroke:#000000; stroke-linecap:round; stroke-linejoin:round; stroke-width:2; stroke-opacity:0.1; fill:none" points="1250.97,1423.18 1250.97,47.2441 "/>
<polyline clip-path="url(#clip501)" style="stroke:#000000; stroke-linecap:round; stroke-linejoin:round; stroke-width:2; stroke-opacity:0.1; fill:none" points="1801.86,1423.18 1801.86,47.2441 "/>
<polyline clip-path="url(#clip501)" style="stroke:#000000; stroke-linecap:round; stroke-linejoin:round; stroke-width:2; stroke-opacity:0.1; fill:none" points="2352.76,1423.18 2352.76,47.2441 "/>
<polyline clip-path="url(#clip501)" style="stroke:#000000; stroke-linecap:round; stroke-linejoin:round; stroke-width:2; stroke-opacity:0.1; fill:none" points="149.191,1423.18 2352.76,1423.18 "/>
<polyline clip-path="url(#clip501)" style="stroke:#000000; stroke-linecap:round; stroke-linejoin:round; stroke-width:2; stroke-opacity:0.1; fill:none" points="149.191,1193.86 2352.76,1193.86 "/>
<polyline clip-path="url(#clip501)" style="stroke:#000000; stroke-linecap:round; stroke-linejoin:round; stroke-width:2; stroke-opacity:0.1; fill:none" points="149.191,964.535 2352.76,964.535 "/>
<polyline clip-path="url(#clip501)" style="stroke:#000000; stroke-linecap:round; stroke-linejoin:round; stroke-width:2; stroke-opacity:0.1; fill:none" points="149.191,735.212 2352.76,735.212 "/>
<polyline clip-path="url(#clip501)" style="stroke:#000000; stroke-linecap:round; stroke-linejoin:round; stroke-width:2; stroke-opacity:0.1; fill:none" points="149.191,505.889 2352.76,505.889 "/>
<polyline clip-path="url(#clip501)" style="stroke:#000000; stroke-linecap:round; stroke-linejoin:round; stroke-width:2; stroke-opacity:0.1; fill:none" points="149.191,276.567 2352.76,276.567 "/>
<polyline clip-path="url(#clip501)" style="stroke:#000000; stroke-linecap:round; stroke-linejoin:round; stroke-width:2; stroke-opacity:0.1; fill:none" points="149.191,47.2441 2352.76,47.2441 "/>
<polyline clip-path="url(#clip500)" style="stroke:#000000; stroke-linecap:round; stroke-linejoin:round; stroke-width:4; stroke-opacity:1; fill:none" points="149.191,1423.18 2352.76,1423.18 "/>
<polyline clip-path="url(#clip500)" style="stroke:#000000; stroke-linecap:round; stroke-linejoin:round; stroke-width:4; stroke-opacity:1; fill:none" points="149.191,1423.18 149.191,1404.28 "/>
<polyline clip-path="url(#clip500)" style="stroke:#000000; stroke-linecap:round; stroke-linejoin:round; stroke-width:4; stroke-opacity:1; fill:none" points="700.082,1423.18 700.082,1404.28 "/>
<polyline clip-path="url(#clip500)" style="stroke:#000000; stroke-linecap:round; stroke-linejoin:round; stroke-width:4; stroke-opacity:1; fill:none" points="1250.97,1423.18 1250.97,1404.28 "/>
<polyline clip-path="url(#clip500)" style="stroke:#000000; stroke-linecap:round; stroke-linejoin:round; stroke-width:4; stroke-opacity:1; fill:none" points="1801.86,1423.18 1801.86,1404.28 "/>
<polyline clip-path="url(#clip500)" style="stroke:#000000; stroke-linecap:round; stroke-linejoin:round; stroke-width:4; stroke-opacity:1; fill:none" points="2352.76,1423.18 2352.76,1404.28 "/>
<path clip-path="url(#clip500)" d="M149.191 1454.1 Q145.58 1454.1 143.751 1457.66 Q141.946 1461.2 141.946 1468.33 Q141.946 1475.44 143.751 1479.01 Q145.58 1482.55 149.191 1482.55 Q152.825 1482.55 154.631 1479.01 Q156.459 1475.44 156.459 1468.33 Q156.459 1461.2 154.631 1457.66 Q152.825 1454.1 149.191 1454.1 M149.191 1450.39 Q155.001 1450.39 158.057 1455 Q161.135 1459.58 161.135 1468.33 Q161.135 1477.06 158.057 1481.67 Q155.001 1486.25 149.191 1486.25 Q143.381 1486.25 140.302 1481.67 Q137.246 1477.06 137.246 1468.33 Q137.246 1459.58 140.302 1455 Q143.381 1450.39 149.191 1450.39 Z" fill="#000000" fill-rule="nonzero" fill-opacity="1" /><path clip-path="url(#clip500)" d="M694.735 1481.64 L711.054 1481.64 L711.054 1485.58 L689.11 1485.58 L689.11 1481.64 Q691.772 1478.89 696.355 1474.26 Q700.962 1469.61 702.142 1468.27 Q704.388 1465.74 705.267 1464.01 Q706.17 1462.25 706.17 1460.56 Q706.17 1457.8 704.226 1456.07 Q702.304 1454.33 699.203 1454.33 Q697.003 1454.33 694.55 1455.09 Q692.119 1455.86 689.341 1457.41 L689.341 1452.69 Q692.166 1451.55 694.619 1450.97 Q697.073 1450.39 699.11 1450.39 Q704.48 1450.39 707.675 1453.08 Q710.869 1455.77 710.869 1460.26 Q710.869 1462.39 710.059 1464.31 Q709.272 1466.2 707.165 1468.8 Q706.587 1469.47 703.485 1472.69 Q700.383 1475.88 694.735 1481.64 Z" fill="#000000" fill-rule="nonzero" fill-opacity="1" /><path clip-path="url(#clip500)" d="M1253.98 1455.09 L1242.18 1473.54 L1253.98 1473.54 L1253.98 1455.09 M1252.76 1451.02 L1258.64 1451.02 L1258.64 1473.54 L1263.57 1473.54 L1263.57 1477.43 L1258.64 1477.43 L1258.64 1485.58 L1253.98 1485.58 L1253.98 1477.43 L1238.38 1477.43 L1238.38 1472.92 L1252.76 1451.02 Z" fill="#000000" fill-rule="nonzero" fill-opacity="1" /><path clip-path="url(#clip500)" d="M1802.27 1466.44 Q1799.12 1466.44 1797.27 1468.59 Q1795.44 1470.74 1795.44 1474.49 Q1795.44 1478.22 1797.27 1480.39 Q1799.12 1482.55 1802.27 1482.55 Q1805.42 1482.55 1807.25 1480.39 Q1809.1 1478.22 1809.1 1474.49 Q1809.1 1470.74 1807.25 1468.59 Q1805.42 1466.44 1802.27 1466.44 M1811.55 1451.78 L1811.55 1456.04 Q1809.79 1455.21 1807.99 1454.77 Q1806.2 1454.33 1804.45 1454.33 Q1799.82 1454.33 1797.36 1457.45 Q1794.93 1460.58 1794.58 1466.9 Q1795.95 1464.89 1798.01 1463.82 Q1800.07 1462.73 1802.55 1462.73 Q1807.76 1462.73 1810.77 1465.9 Q1813.8 1469.05 1813.8 1474.49 Q1813.8 1479.82 1810.65 1483.03 Q1807.5 1486.25 1802.27 1486.25 Q1796.27 1486.25 1793.1 1481.67 Q1789.93 1477.06 1789.93 1468.33 Q1789.93 1460.14 1793.82 1455.28 Q1797.71 1450.39 1804.26 1450.39 Q1806.02 1450.39 1807.8 1450.74 Q1809.61 1451.09 1811.55 1451.78 Z" fill="#000000" fill-rule="nonzero" fill-opacity="1" /><path clip-path="url(#clip500)" d="M2352.76 1469.17 Q2349.42 1469.17 2347.5 1470.95 Q2345.6 1472.73 2345.6 1475.86 Q2345.6 1478.98 2347.5 1480.77 Q2349.42 1482.55 2352.76 1482.55 Q2356.09 1482.55 2358.01 1480.77 Q2359.93 1478.96 2359.93 1475.86 Q2359.93 1472.73 2358.01 1470.95 Q2356.11 1469.17 2352.76 1469.17 M2348.08 1467.18 Q2345.07 1466.44 2343.38 1464.38 Q2341.71 1462.32 2341.71 1459.35 Q2341.71 1455.21 2344.65 1452.8 Q2347.62 1450.39 2352.76 1450.39 Q2357.92 1450.39 2360.86 1452.8 Q2363.8 1455.21 2363.8 1459.35 Q2363.8 1462.32 2362.11 1464.38 Q2360.44 1466.44 2357.45 1467.18 Q2360.83 1467.96 2362.71 1470.26 Q2364.61 1472.55 2364.61 1475.86 Q2364.61 1480.88 2361.53 1483.57 Q2358.47 1486.25 2352.76 1486.25 Q2347.04 1486.25 2343.96 1483.57 Q2340.9 1480.88 2340.9 1475.86 Q2340.9 1472.55 2342.8 1470.26 Q2344.7 1467.96 2348.08 1467.18 M2346.37 1459.79 Q2346.37 1462.48 2348.03 1463.98 Q2349.72 1465.49 2352.76 1465.49 Q2355.77 1465.49 2357.45 1463.98 Q2359.17 1462.48 2359.17 1459.79 Q2359.17 1457.11 2357.45 1455.6 Q2355.77 1454.1 2352.76 1454.1 Q2349.72 1454.1 2348.03 1455.6 Q2346.37 1457.11 2346.37 1459.79 Z" fill="#000000" fill-rule="nonzero" fill-opacity="1" /><path clip-path="url(#clip500)" d="M1250.03 1522.27 L1250.03 1532.4 L1262.1 1532.4 L1262.1 1536.95 L1250.03 1536.95 L1250.03 1556.3 Q1250.03 1560.66 1251.21 1561.9 Q1252.42 1563.14 1256.08 1563.14 L1262.1 1563.14 L1262.1 1568.04 L1256.08 1568.04 Q1249.3 1568.04 1246.72 1565.53 Q1244.15 1562.98 1244.15 1556.3 L1244.15 1536.95 L1239.85 1536.95 L1239.85 1532.4 L1244.15 1532.4 L1244.15 1522.27 L1250.03 1522.27 Z" fill="#000000" fill-rule="nonzero" fill-opacity="1" /><polyline clip-path="url(#clip500)" style="stroke:#000000; stroke-linecap:round; stroke-linejoin:round; stroke-width:4; stroke-opacity:1; fill:none" points="149.191,1423.18 149.191,47.2441 "/>
<polyline clip-path="url(#clip500)" style="stroke:#000000; stroke-linecap:round; stroke-linejoin:round; stroke-width:4; stroke-opacity:1; fill:none" points="149.191,1423.18 168.089,1423.18 "/>
<polyline clip-path="url(#clip500)" style="stroke:#000000; stroke-linecap:round; stroke-linejoin:round; stroke-width:4; stroke-opacity:1; fill:none" points="149.191,1193.86 168.089,1193.86 "/>
<polyline clip-path="url(#clip500)" style="stroke:#000000; stroke-linecap:round; stroke-linejoin:round; stroke-width:4; stroke-opacity:1; fill:none" points="149.191,964.535 168.089,964.535 "/>
<polyline clip-path="url(#clip500)" style="stroke:#000000; stroke-linecap:round; stroke-linejoin:round; stroke-width:4; stroke-opacity:1; fill:none" points="149.191,735.212 168.089,735.212 "/>
<polyline clip-path="url(#clip500)" style="stroke:#000000; stroke-linecap:round; stroke-linejoin:round; stroke-width:4; stroke-opacity:1; fill:none" points="149.191,505.889 168.089,505.889 "/>
<polyline clip-path="url(#clip500)" style="stroke:#000000; stroke-linecap:round; stroke-linejoin:round; stroke-width:4; stroke-opacity:1; fill:none" points="149.191,276.567 168.089,276.567 "/>
<polyline clip-path="url(#clip500)" style="stroke:#000000; stroke-linecap:round; stroke-linejoin:round; stroke-width:4; stroke-opacity:1; fill:none" points="149.191,47.2441 168.089,47.2441 "/>
<path clip-path="url(#clip500)" d="M51.3162 1423.63 L80.992 1423.63 L80.992 1427.57 L51.3162 1427.57 L51.3162 1423.63 Z" fill="#000000" fill-rule="nonzero" fill-opacity="1" /><path clip-path="url(#clip500)" d="M101.663 1421.32 Q98.515 1421.32 96.6632 1423.47 Q94.8345 1425.62 94.8345 1429.37 Q94.8345 1433.1 96.6632 1435.27 Q98.515 1437.43 101.663 1437.43 Q104.811 1437.43 106.64 1435.27 Q108.492 1433.1 108.492 1429.37 Q108.492 1425.62 106.64 1423.47 Q104.811 1421.32 101.663 1421.32 M110.946 1406.66 L110.946 1410.92 Q109.186 1410.09 107.381 1409.65 Q105.598 1409.21 103.839 1409.21 Q99.2095 1409.21 96.7558 1412.33 Q94.3252 1415.46 93.978 1421.78 Q95.3437 1419.77 97.4039 1418.7 Q99.4641 1417.61 101.941 1417.61 Q107.149 1417.61 110.158 1420.78 Q113.191 1423.93 113.191 1429.37 Q113.191 1434.7 110.043 1437.91 Q106.895 1441.13 101.663 1441.13 Q95.6678 1441.13 92.4965 1436.55 Q89.3253 1431.94 89.3253 1423.21 Q89.3253 1415.02 93.2141 1410.16 Q97.103 1405.27 103.654 1405.27 Q105.413 1405.27 107.196 1405.62 Q109.001 1405.97 110.946 1406.66 Z" fill="#000000" fill-rule="nonzero" fill-opacity="1" /><path clip-path="url(#clip500)" d="M50.9921 1194.31 L80.6679 1194.31 L80.6679 1198.24 L50.9921 1198.24 L50.9921 1194.31 Z" fill="#000000" fill-rule="nonzero" fill-opacity="1" /><path clip-path="url(#clip500)" d="M103.608 1180.65 L91.8021 1199.1 L103.608 1199.1 L103.608 1180.65 M102.381 1176.58 L108.26 1176.58 L108.26 1199.1 L113.191 1199.1 L113.191 1202.99 L108.26 1202.99 L108.26 1211.14 L103.608 1211.14 L103.608 1202.99 L88.0058 1202.99 L88.0058 1198.48 L102.381 1176.58 Z" fill="#000000" fill-rule="nonzero" fill-opacity="1" /><path clip-path="url(#clip500)" d="M53.0754 964.986 L82.7512 964.986 L82.7512 968.921 L53.0754 968.921 L53.0754 964.986 Z" fill="#000000" fill-rule="nonzero" fill-opacity="1" /><path clip-path="url(#clip500)" d="M96.8715 977.879 L113.191 977.879 L113.191 981.815 L91.2465 981.815 L91.2465 977.879 Q93.9086 975.125 98.4919 970.495 Q103.098 965.842 104.279 964.5 Q106.524 961.977 107.404 960.241 Q108.307 958.481 108.307 956.792 Q108.307 954.037 106.362 952.301 Q104.441 950.565 101.339 950.565 Q99.14 950.565 96.6863 951.329 Q94.2558 952.093 91.478 953.643 L91.478 948.921 Q94.3021 947.787 96.7558 947.208 Q99.2095 946.63 101.246 946.63 Q106.617 946.63 109.811 949.315 Q113.006 952 113.006 956.491 Q113.006 958.62 112.196 960.542 Q111.408 962.44 109.302 965.032 Q108.723 965.704 105.621 968.921 Q102.52 972.116 96.8715 977.879 Z" fill="#000000" fill-rule="nonzero" fill-opacity="1" /><path clip-path="url(#clip500)" d="M101.246 721.011 Q97.6354 721.011 95.8067 724.575 Q94.0012 728.117 94.0012 735.247 Q94.0012 742.353 95.8067 745.918 Q97.6354 749.46 101.246 749.46 Q104.881 749.46 106.686 745.918 Q108.515 742.353 108.515 735.247 Q108.515 728.117 106.686 724.575 Q104.881 721.011 101.246 721.011 M101.246 717.307 Q107.057 717.307 110.112 721.913 Q113.191 726.497 113.191 735.247 Q113.191 743.973 110.112 748.58 Q107.057 753.163 101.246 753.163 Q95.4363 753.163 92.3576 748.58 Q89.3021 743.973 89.3021 735.247 Q89.3021 726.497 92.3576 721.913 Q95.4363 717.307 101.246 717.307 Z" fill="#000000" fill-rule="nonzero" fill-opacity="1" /><path clip-path="url(#clip500)" d="M96.8715 519.234 L113.191 519.234 L113.191 523.169 L91.2465 523.169 L91.2465 519.234 Q93.9086 516.48 98.4919 511.85 Q103.098 507.197 104.279 505.855 Q106.524 503.331 107.404 501.595 Q108.307 499.836 108.307 498.146 Q108.307 495.392 106.362 493.656 Q104.441 491.92 101.339 491.92 Q99.14 491.92 96.6863 492.683 Q94.2558 493.447 91.478 494.998 L91.478 490.276 Q94.3021 489.142 96.7558 488.563 Q99.2095 487.984 101.246 487.984 Q106.617 487.984 109.811 490.67 Q113.006 493.355 113.006 497.845 Q113.006 499.975 112.196 501.896 Q111.408 503.794 109.302 506.387 Q108.723 507.058 105.621 510.276 Q102.52 513.47 96.8715 519.234 Z" fill="#000000" fill-rule="nonzero" fill-opacity="1" /><path clip-path="url(#clip500)" d="M103.608 263.361 L91.8021 281.81 L103.608 281.81 L103.608 263.361 M102.381 259.287 L108.26 259.287 L108.26 281.81 L113.191 281.81 L113.191 285.699 L108.26 285.699 L108.26 293.847 L103.608 293.847 L103.608 285.699 L88.0058 285.699 L88.0058 281.185 L102.381 259.287 Z" fill="#000000" fill-rule="nonzero" fill-opacity="1" /><path clip-path="url(#clip500)" d="M101.663 45.3807 Q98.515 45.3807 96.6632 47.5334 Q94.8345 49.6862 94.8345 53.4362 Q94.8345 57.163 96.6632 59.3389 Q98.515 61.4917 101.663 61.4917 Q104.811 61.4917 106.64 59.3389 Q108.492 57.163 108.492 53.4362 Q108.492 49.6862 106.64 47.5334 Q104.811 45.3807 101.663 45.3807 M110.946 30.728 L110.946 34.9872 Q109.186 34.1539 107.381 33.7141 Q105.598 33.2743 103.839 33.2743 Q99.2095 33.2743 96.7558 36.3992 Q94.3252 39.5242 93.978 45.8436 Q95.3437 43.8298 97.4039 42.765 Q99.4641 41.677 101.941 41.677 Q107.149 41.677 110.158 44.8483 Q113.191 47.9964 113.191 53.4362 Q113.191 58.7602 110.043 61.9778 Q106.895 65.1954 101.663 65.1954 Q95.6678 65.1954 92.4965 60.6121 Q89.3253 56.0056 89.3253 47.2788 Q89.3253 39.0844 93.2141 34.2233 Q97.103 29.3391 103.654 29.3391 Q105.413 29.3391 107.196 29.6863 Q109.001 30.0335 110.946 30.728 Z" fill="#000000" fill-rule="nonzero" fill-opacity="1" /><polyline clip-path="url(#clip501)" style="stroke:#009af9; stroke-linecap:round; stroke-linejoin:round; stroke-width:12; stroke-opacity:1; fill:none" points="149.191,1193.86 151.945,1191.37 154.7,1186.65 157.454,1181.45 160.209,1176.15 162.963,1170.85 165.718,1165.55 168.472,1160.24 171.227,1154.93 173.981,1149.63 176.735,1144.32 179.49,1139.02 182.244,1133.71 184.999,1128.41 187.753,1123.1 190.508,1117.8 193.262,1112.5 196.017,1107.19 198.771,1101.89 201.526,1096.59 204.28,1091.29 207.034,1085.99 209.789,1080.69 212.543,1075.4 215.298,1070.11 218.052,1064.82 220.807,1059.54 223.561,1054.27 226.316,1049 229.07,1043.74 231.825,1038.49 234.579,1033.25 237.333,1028.03 240.088,1022.81 242.842,1017.62 245.597,1012.43 248.351,1007.27 251.106,1002.12 253.86,996.987 256.615,991.878 259.369,986.79 262.124,981.724 264.878,976.681 267.632,971.663 270.387,966.67 273.141,961.703 275.896,956.762 278.65,951.849 281.405,946.964 284.159,942.108 286.914,937.281 289.668,932.484 292.423,927.717 295.177,922.981 297.932,918.276 300.686,913.603 303.44,908.961 306.195,904.352 308.949,899.774 311.704,895.229 314.458,890.717 317.213,886.237 319.967,881.79 322.722,877.376 325.476,872.994 328.231,868.646 330.985,864.329 333.739,860.046 336.494,855.795 339.248,851.577 342.003,847.392 344.757,843.238 347.512,839.117 350.266,835.028 353.021,830.971 355.775,826.946 358.53,822.952 361.284,818.99 364.038,815.059 366.793,811.159 369.547,807.29 372.302,803.451 375.056,799.642 377.811,795.864 380.565,792.115 383.32,788.395 386.074,784.705 388.829,781.045 391.583,777.413 394.337,773.809 397.092,770.234 399.846,766.687 402.601,763.168 405.355,759.676 408.11,756.212 410.864,752.775 413.619,749.365 416.373,745.981 419.128,742.624 421.882,739.293 424.636,735.988 427.391,732.708 430.145,729.454 432.9,726.226 435.654,723.022 438.409,719.843 441.163,716.688 443.918,713.557 446.672,710.451 449.427,707.368 452.181,704.309 454.936,701.274 457.69,698.261 460.444,695.271 463.199,692.304 465.953,689.36 468.708,686.438 471.462,683.537 474.217,680.659 476.971,677.802 479.726,674.967 482.48,672.153 485.235,669.361 487.989,666.589 490.743,663.838 493.498,661.107 496.252,658.397 499.007,655.706 501.761,653.036 504.516,650.386 507.27,647.755 510.025,645.143 512.779,642.551 515.534,639.978 518.288,637.424 521.042,634.888 523.797,632.371 526.551,629.873 529.306,627.393 532.06,624.931 534.815,622.487 537.569,620.06 540.324,617.652 543.078,615.261 545.833,612.887 548.587,610.53 551.341,608.191 554.096,605.868 556.85,603.562 559.605,601.273 562.359,599 565.114,596.744 567.868,594.504 570.623,592.28 573.377,590.072 576.132,587.88 578.886,585.703 581.641,583.542 584.395,581.397 587.149,579.267 589.904,577.152 592.658,575.053 595.413,572.968 598.167,570.898 600.922,568.843 603.676,566.803 606.431,564.777 609.185,562.766 611.94,560.769 614.694,558.786 617.448,556.817 620.203,554.862 622.957,552.922 625.712,550.994 628.466,549.081 631.221,547.181 633.975,545.295 636.73,543.422 639.484,541.562 642.239,539.716 644.993,537.882 647.747,536.062 650.502,534.254 653.256,532.459 656.011,530.677 658.765,528.907 661.52,527.15 664.274,525.406 667.029,523.673 669.783,521.953 672.538,520.245 675.292,518.55 678.046,516.866 680.801,515.194 683.555,513.534 686.31,511.885 689.064,510.248 691.819,508.623 694.573,507.01 697.328,505.408 700.082,503.817 702.837,502.237 705.591,500.669 708.345,499.112 711.1,497.566 713.854,496.03 716.609,494.506 719.363,492.993 722.118,491.49 724.872,489.998 727.627,488.516 730.381,487.046 733.136,485.585 735.89,484.135 738.645,482.695 741.399,481.266 744.153,479.847 746.908,478.437 749.662,477.038 752.417,475.649 755.171,474.27 757.926,472.9 760.68,471.541 763.435,470.191 766.189,468.851 768.944,467.52 771.698,466.199 774.452,464.888 777.207,463.585 779.961,462.293 782.716,461.009 785.47,459.735 788.225,458.469 790.979,457.213 793.734,455.966 796.488,454.728 799.243,453.499 801.997,452.279 804.751,451.067 807.506,449.864 810.26,448.67 813.015,447.485 815.769,446.308 818.524,445.14 821.278,443.98 824.033,442.828 826.787,441.685 829.542,440.55 832.296,439.424 835.05,438.305 837.805,437.195 840.559,436.093 843.314,434.999 846.068,433.912 848.823,432.834 851.577,431.764 854.332,430.701 857.086,429.646 859.841,428.599 862.595,427.56 865.349,426.528 868.104,425.503 870.858,424.487 873.613,423.477 876.367,422.475 879.122,421.481 881.876,420.494 884.631,419.514 887.385,418.542 890.14,417.576 892.894,416.618 895.649,415.667 898.403,414.722 901.157,413.785 903.912,412.855 906.666,411.932 909.421,411.015 912.175,410.106 914.93,409.203 917.684,408.306 920.439,407.417 923.193,406.534 925.948,405.658 928.702,404.788 931.456,403.925 934.211,403.068 936.965,402.218 939.72,401.374 942.474,400.536 945.229,399.705 947.983,398.879 950.738,398.06 953.492,397.248 956.247,396.441 959.001,395.64 961.755,394.846 964.51,394.057 967.264,393.275 970.019,392.498 972.773,391.727 975.528,390.962 978.282,390.202 981.037,389.449 983.791,388.701 986.546,387.959 989.3,387.222 992.054,386.491 994.809,385.766 997.563,385.046 1000.32,384.331 1003.07,383.622 1005.83,382.919 1008.58,382.22 1011.34,381.527 1014.09,380.84 1016.84,380.157 1019.6,379.48 1022.35,378.808 1025.11,378.141 1027.86,377.479 1030.62,376.822 1033.37,376.17 1036.13,375.523 1038.88,374.881 1041.63,374.244 1044.39,373.612 1047.14,372.984 1049.9,372.362 1052.65,371.744 1055.41,371.131 1058.16,370.522 1060.92,369.918 1063.67,369.319 1066.42,368.724 1069.18,368.134 1071.93,367.549 1074.69,366.968 1077.44,366.391 1080.2,365.819 1082.95,365.251 1085.71,364.688 1088.46,364.128 1091.21,363.573 1093.97,363.023 1096.72,362.476 1099.48,361.934 1102.23,361.396 1104.99,360.862 1107.74,360.332 1110.5,359.806 1113.25,359.284 1116.01,358.766 1118.76,358.252 1121.51,357.742 1124.27,357.236 1127.02,356.734 1129.78,356.236 1132.53,355.741 1135.29,355.25 1138.04,354.763 1140.8,354.28 1143.55,353.8 1146.3,353.324 1149.06,352.852 1151.81,352.383 1154.57,351.918 1157.32,351.456 1160.08,350.998 1162.83,350.543 1165.59,350.091 1168.34,349.644 1171.09,349.199 1173.85,348.758 1176.6,348.32 1179.36,347.885 1182.11,347.454 1184.87,347.026 1187.62,346.601 1190.38,346.18 1193.13,345.761 1195.88,345.346 1198.64,344.934 1201.39,344.525 1204.15,344.118 1206.9,343.715 1209.66,343.315 1212.41,342.918 1215.17,342.524 1217.92,342.133 1220.67,341.745 1223.43,341.359 1226.18,340.977 1228.94,340.597 1231.69,340.22 1234.45,339.846 1237.2,339.474 1239.96,339.105 1242.71,338.739 1245.46,338.376 1248.22,338.015 1250.97,337.657 1253.73,337.301 1256.48,336.948 1259.24,336.598 1261.99,336.25 1264.75,335.905 1267.5,335.562 1270.25,335.221 1273.01,334.883 1275.76,334.548 1278.52,334.214 1281.27,333.883 1284.03,333.555 1286.78,333.228 1289.54,332.904 1292.29,332.583 1295.04,332.263 1297.8,331.946 1300.55,331.631 1303.31,331.318 1306.06,331.007 1308.82,330.699 1311.57,330.392 1314.33,330.088 1317.08,329.786 1319.83,329.486 1322.59,329.187 1325.34,328.891 1328.1,328.597 1330.85,328.305 1333.61,328.014 1336.36,327.726 1339.12,327.44 1341.87,327.155 1344.62,326.872 1347.38,326.592 1350.13,326.313 1352.89,326.035 1355.64,325.76 1358.4,325.486 1361.15,325.214 1363.91,324.944 1366.66,324.676 1369.41,324.409 1372.17,324.144 1374.92,323.88 1377.68,323.619 1380.43,323.359 1383.19,323.1 1385.94,322.843 1388.7,322.588 1391.45,322.334 1394.21,322.081 1396.96,321.831 1399.71,321.581 1402.47,321.334 1405.22,321.087 1407.98,320.842 1410.73,320.599 1413.49,320.357 1416.24,320.116 1419,319.877 1421.75,319.639 1424.5,319.402 1427.26,319.167 1430.01,318.933 1432.77,318.701 1435.52,318.47 1438.28,318.24 1441.03,318.011 1443.79,317.783 1446.54,317.557 1449.29,317.332 1452.05,317.108 1454.8,316.885 1457.56,316.664 1460.31,316.444 1463.07,316.224 1465.82,316.006 1468.58,315.789 1471.33,315.573 1474.08,315.358 1476.84,315.145 1479.59,314.932 1482.35,314.72 1485.1,314.51 1487.86,314.3 1490.61,314.091 1493.37,313.884 1496.12,313.677 1498.87,313.471 1501.63,313.266 1504.38,313.063 1507.14,312.86 1509.89,312.658 1512.65,312.457 1515.4,312.256 1518.16,312.057 1520.91,311.859 1523.66,311.661 1526.42,311.464 1529.17,311.268 1531.93,311.073 1534.68,310.879 1537.44,310.686 1540.19,310.493 1542.95,310.301 1545.7,310.11 1548.45,309.92 1551.21,309.73 1553.96,309.541 1556.72,309.353 1559.47,309.166 1562.23,308.979 1564.98,308.793 1567.74,308.607 1570.49,308.423 1573.24,308.239 1576,308.055 1578.75,307.873 1581.51,307.691 1584.26,307.509 1587.02,307.329 1589.77,307.148 1592.53,306.969 1595.28,306.79 1598.03,306.611 1600.79,306.433 1603.54,306.256 1606.3,306.079 1609.05,305.903 1611.81,305.728 1614.56,305.552 1617.32,305.378 1620.07,305.204 1622.82,305.03 1625.58,304.857 1628.33,304.684 1631.09,304.512 1633.84,304.341 1636.6,304.169 1639.35,303.999 1642.11,303.828 1644.86,303.658 1647.62,303.489 1650.37,303.32 1653.12,303.151 1655.88,302.983 1658.63,302.815 1661.39,302.648 1664.14,302.481 1666.9,302.314 1669.65,302.148 1672.41,301.982 1675.16,301.817 1677.91,301.651 1680.67,301.486 1683.42,301.322 1686.18,301.158 1688.93,300.994 1691.69,300.83 1694.44,300.667 1697.2,300.504 1699.95,300.341 1702.7,300.179 1705.46,300.017 1708.21,299.855 1710.97,299.694 1713.72,299.533 1716.48,299.372 1719.23,299.211 1721.99,299.05 1724.74,298.89 1727.49,298.73 1730.25,298.57 1733,298.411 1735.76,298.252 1738.51,298.093 1741.27,297.934 1744.02,297.775 1746.78,297.617 1749.53,297.458 1752.28,297.3 1755.04,297.143 1757.79,296.985 1760.55,296.827 1763.3,296.67 1766.06,296.513 1768.81,296.356 1771.57,296.199 1774.32,296.043 1777.07,295.886 1779.83,295.73 1782.58,295.574 1785.34,295.418 1788.09,295.262 1790.85,295.106 1793.6,294.951 1796.36,294.795 1799.11,294.64 1801.86,294.485 1804.62,294.33 1807.37,294.175 1810.13,294.02 1812.88,293.866 1815.64,293.711 1818.39,293.557 1821.15,293.402 1823.9,293.248 1826.65,293.094 1829.41,292.94 1832.16,292.786 1834.92,292.632 1837.67,292.478 1840.43,292.325 1843.18,292.171 1845.94,292.018 1848.69,291.864 1851.44,291.711 1854.2,291.558 1856.95,291.405 1859.71,291.252 1862.46,291.099 1865.22,290.946 1867.97,290.793 1870.73,290.641 1873.48,290.488 1876.23,290.336 1878.99,290.183 1881.74,290.031 1884.5,289.878 1887.25,289.726 1890.01,289.574 1892.76,289.422 1895.52,289.27 1898.27,289.118 1901.03,288.965 1903.78,288.813 1906.53,288.661 1909.29,288.509 1912.04,288.358 1914.8,288.206 1917.55,288.054 1920.31,287.902 1923.06,287.75 1925.82,287.598 1928.57,287.447 1931.32,287.295 1934.08,287.143 1936.83,286.992 1939.59,286.84 1942.34,286.689 1945.1,286.537 1947.85,286.386 1950.61,286.234 1953.36,286.083 1956.11,285.931 1958.87,285.78 1961.62,285.628 1964.38,285.477 1967.13,285.326 1969.89,285.174 1972.64,285.023 1975.4,284.872 1978.15,284.721 1980.9,284.569 1983.66,284.418 1986.41,284.267 1989.17,284.116 1991.92,283.965 1994.68,283.814 1997.43,283.663 2000.19,283.511 2002.94,283.36 2005.69,283.209 2008.45,283.058 2011.2,282.907 2013.96,282.756 2016.71,282.605 2019.47,282.454 2022.22,282.303 2024.98,282.152 2027.73,282.001 2030.48,281.85 2033.24,281.699 2035.99,281.548 2038.75,281.398 2041.5,281.247 2044.26,281.096 2047.01,280.945 2049.77,280.794 2052.52,280.643 2055.27,280.492 2058.03,280.341 2060.78,280.19 2063.54,280.04 2066.29,279.889 2069.05,279.738 2071.8,279.587 2074.56,279.436 2077.31,279.285 2080.06,279.135 2082.82,278.984 2085.57,278.833 2088.33,278.682 2091.08,278.531 2093.84,278.38 2096.59,278.23 2099.35,278.079 2102.1,277.928 2104.85,277.777 2107.61,277.626 2110.36,277.476 2113.12,277.325 2115.87,277.174 2118.63,277.023 2121.38,276.872 2124.14,276.721 2126.89,276.571 2129.64,276.42 2132.4,276.269 2135.15,276.118 2137.91,275.967 2140.66,275.816 2143.42,275.666 2146.17,275.515 2148.93,275.364 2151.68,275.213 2154.44,275.062 2157.19,274.911 2159.94,274.76 2162.7,274.61 2165.45,274.459 2168.21,274.308 2170.96,274.157 2173.72,274.006 2176.47,273.855 2179.23,273.704 2181.98,273.553 2184.73,273.402 2187.49,273.251 2190.24,273.1 2193,272.949 2195.75,272.798 2198.51,272.647 2201.26,272.496 2204.02,272.345 2206.77,272.194 2209.52,272.043 2212.28,271.892 2215.03,271.741 2217.79,271.59 2220.54,271.439 2223.3,271.288 2226.05,271.137 2228.81,270.986 2231.56,270.835 2234.31,270.684 2237.07,270.533 2239.82,270.382 2242.58,270.231 2245.33,270.079 2248.09,269.928 2250.84,269.777 2253.6,269.626 2256.35,269.475 2259.1,269.324 2261.86,269.172 2264.61,269.021 2267.37,268.87 2270.12,268.719 2272.88,268.568 2275.63,268.416 2278.39,268.265 2281.14,268.114 2283.89,267.963 2286.65,267.811 2289.4,267.66 2292.16,267.509 2294.91,267.357 2297.67,267.206 2300.42,267.055 2303.18,266.903 2305.93,266.752 2308.68,266.601 2311.44,266.449 2314.19,266.298 2316.95,266.147 2319.7,265.995 2322.46,265.844 2325.21,265.692 2327.97,265.541 2330.72,265.39 2333.47,265.238 2336.23,265.087 2338.98,264.935 2341.74,264.784 2344.49,264.632 2347.25,264.481 2350,264.329 2352.76,264.178 "/>
<polyline clip-path="url(#clip501)" style="stroke:#e26f46; stroke-linecap:round; stroke-linejoin:round; stroke-width:12; stroke-opacity:1; fill:none" points="149.191,735.212 151.945,324.625 154.7,226.39 157.454,207.973 160.209,205.058 162.963,204.69 165.718,204.666 168.472,204.665 171.227,204.667 173.981,204.673 176.735,204.683 179.49,204.696 182.244,204.711 184.999,204.73 187.753,204.754 190.508,204.783 193.262,204.823 196.017,204.88 198.771,204.962 201.526,205.076 204.28,205.229 207.034,205.43 209.789,205.688 212.543,206.01 215.298,206.406 218.052,206.886 220.807,207.459 223.561,208.135 226.316,208.919 229.07,209.816 231.825,210.829 234.579,211.961 237.333,213.212 240.088,214.586 242.842,216.081 245.597,217.697 248.351,219.431 251.106,221.283 253.86,223.247 256.615,225.321 259.369,227.5 262.124,229.782 264.878,232.159 267.632,234.627 270.387,237.18 273.141,239.814 275.896,242.522 278.65,245.301 281.405,248.144 284.159,251.047 286.914,254.004 289.668,257.012 292.423,260.066 295.177,263.16 297.932,266.291 300.686,269.453 303.44,272.643 306.195,275.856 308.949,279.088 311.704,282.336 314.458,285.595 317.213,288.864 319.967,292.14 322.722,295.419 325.476,298.7 328.231,301.979 330.985,305.255 333.739,308.526 336.494,311.788 339.248,315.042 342.003,318.284 344.757,321.513 347.512,324.727 350.266,327.926 353.021,331.108 355.775,334.272 358.53,337.416 361.284,340.541 364.038,343.644 366.793,346.727 369.547,349.788 372.302,352.826 375.056,355.842 377.811,358.835 380.565,361.804 383.32,364.749 386.074,367.67 388.829,370.567 391.583,373.439 394.337,376.287 397.092,379.11 399.846,381.909 402.601,384.683 405.355,387.432 408.11,390.157 410.864,392.857 413.619,395.532 416.373,398.183 419.128,400.81 421.882,403.412 424.636,405.99 427.391,408.544 430.145,411.073 432.9,413.579 435.654,416.062 438.409,418.521 441.163,420.957 443.918,423.37 446.672,425.76 449.427,428.129 452.181,430.474 454.936,432.799 457.69,435.101 460.444,437.382 463.199,439.641 465.953,441.88 468.708,444.097 471.462,446.294 474.217,448.471 476.971,450.628 479.726,452.765 482.48,454.882 485.235,456.981 487.989,459.059 490.743,461.12 493.498,463.161 496.252,465.184 499.007,467.189 501.761,469.176 504.516,471.145 507.27,473.096 510.025,475.031 512.779,476.948 515.534,478.848 518.288,480.732 521.042,482.599 523.797,484.45 526.551,486.284 529.306,488.103 532.06,489.907 534.815,491.695 537.569,493.467 540.324,495.225 543.078,496.968 545.833,498.696 548.587,500.409 551.341,502.109 554.096,503.794 556.85,505.465 559.605,507.123 562.359,508.767 565.114,510.397 567.868,512.014 570.623,513.619 573.377,515.21 576.132,516.789 578.886,518.354 581.641,519.908 584.395,521.449 587.149,522.978 589.904,524.494 592.658,525.999 595.413,527.493 598.167,528.974 600.922,530.444 603.676,531.903 606.431,533.35 609.185,534.786 611.94,536.212 614.694,537.626 617.448,539.03 620.203,540.423 622.957,541.806 625.712,543.178 628.466,544.541 631.221,545.893 633.975,547.235 636.73,548.567 639.484,549.889 642.239,551.202 644.993,552.505 647.747,553.798 650.502,555.083 653.256,556.358 656.011,557.623 658.765,558.88 661.52,560.128 664.274,561.367 667.029,562.597 669.783,563.819 672.538,565.031 675.292,566.236 678.046,567.432 680.801,568.619 683.555,569.798 686.31,570.969 689.064,572.132 691.819,573.287 694.573,574.434 697.328,575.573 700.082,576.704 702.837,577.827 705.591,578.943 708.345,580.051 711.1,581.151 713.854,582.244 716.609,583.329 719.363,584.408 722.118,585.478 724.872,586.542 727.627,587.599 730.381,588.648 733.136,589.691 735.89,590.726 738.645,591.755 741.399,592.776 744.153,593.791 746.908,594.799 749.662,595.8 752.417,596.795 755.171,597.783 757.926,598.765 760.68,599.74 763.435,600.708 766.189,601.67 768.944,602.626 771.698,603.576 774.452,604.519 777.207,605.456 779.961,606.387 782.716,607.311 785.47,608.23 788.225,609.143 790.979,610.049 793.734,610.95 796.488,611.845 799.243,612.734 801.997,613.617 804.751,614.494 807.506,615.366 810.26,616.232 813.015,617.092 815.769,617.947 818.524,618.796 821.278,619.64 824.033,620.478 826.787,621.31 829.542,622.138 832.296,622.959 835.05,623.776 837.805,624.587 840.559,625.393 843.314,626.193 846.068,626.989 848.823,627.779 851.577,628.564 854.332,629.344 857.086,630.119 859.841,630.888 862.595,631.653 865.349,632.413 868.104,633.168 870.858,633.917 873.613,634.662 876.367,635.402 879.122,636.137 881.876,636.867 884.631,637.593 887.385,638.313 890.14,639.029 892.894,639.74 895.649,640.447 898.403,641.148 901.157,641.845 903.912,642.538 906.666,643.226 909.421,643.909 912.175,644.588 914.93,645.262 917.684,645.931 920.439,646.597 923.193,647.257 925.948,647.914 928.702,648.565 931.456,649.213 934.211,649.856 936.965,650.495 939.72,651.129 942.474,651.759 945.229,652.385 947.983,653.006 950.738,653.624 953.492,654.237 956.247,654.846 959.001,655.45 961.755,656.051 964.51,656.647 967.264,657.239 970.019,657.827 972.773,658.412 975.528,658.991 978.282,659.567 981.037,660.139 983.791,660.707 986.546,661.271 989.3,661.831 992.054,662.387 994.809,662.939 997.563,663.488 1000.32,664.032 1003.07,664.572 1005.83,665.109 1008.58,665.642 1011.34,666.171 1014.09,666.696 1016.84,667.217 1019.6,667.735 1022.35,668.249 1025.11,668.759 1027.86,669.266 1030.62,669.768 1033.37,670.268 1036.13,670.763 1038.88,671.255 1041.63,671.743 1044.39,672.228 1047.14,672.709 1049.9,673.187 1052.65,673.661 1055.41,674.131 1058.16,674.598 1060.92,675.062 1063.67,675.522 1066.42,675.979 1069.18,676.432 1071.93,676.882 1074.69,677.328 1077.44,677.771 1080.2,678.211 1082.95,678.647 1085.71,679.08 1088.46,679.509 1091.21,679.936 1093.97,680.359 1096.72,680.778 1099.48,681.195 1102.23,681.608 1104.99,682.018 1107.74,682.425 1110.5,682.829 1113.25,683.229 1116.01,683.626 1118.76,684.02 1121.51,684.411 1124.27,684.799 1127.02,685.184 1129.78,685.565 1132.53,685.944 1135.29,686.319 1138.04,686.692 1140.8,687.061 1143.55,687.428 1146.3,687.791 1149.06,688.152 1151.81,688.509 1154.57,688.863 1157.32,689.215 1160.08,689.564 1162.83,689.909 1165.59,690.252 1168.34,690.592 1171.09,690.929 1173.85,691.263 1176.6,691.595 1179.36,691.923 1182.11,692.249 1184.87,692.572 1187.62,692.892 1190.38,693.21 1193.13,693.525 1195.88,693.837 1198.64,694.146 1201.39,694.452 1204.15,694.756 1206.9,695.058 1209.66,695.356 1212.41,695.652 1215.17,695.945 1217.92,696.236 1220.67,696.524 1223.43,696.81 1226.18,697.093 1228.94,697.373 1231.69,697.651 1234.45,697.927 1237.2,698.199 1239.96,698.47 1242.71,698.738 1245.46,699.003 1248.22,699.266 1250.97,699.526 1253.73,699.785 1256.48,700.04 1259.24,700.294 1261.99,700.544 1264.75,700.793 1267.5,701.039 1270.25,701.283 1273.01,701.525 1275.76,701.764 1278.52,702.001 1281.27,702.235 1284.03,702.468 1286.78,702.698 1289.54,702.926 1292.29,703.151 1295.04,703.375 1297.8,703.596 1300.55,703.815 1303.31,704.032 1306.06,704.247 1308.82,704.459 1311.57,704.67 1314.33,704.878 1317.08,705.084 1319.83,705.288 1322.59,705.491 1325.34,705.691 1328.1,705.888 1330.85,706.084 1333.61,706.278 1336.36,706.47 1339.12,706.66 1341.87,706.848 1344.62,707.034 1347.38,707.218 1350.13,707.4 1352.89,707.58 1355.64,707.758 1358.4,707.934 1361.15,708.109 1363.91,708.281 1366.66,708.452 1369.41,708.621 1372.17,708.788 1374.92,708.953 1377.68,709.116 1380.43,709.278 1383.19,709.437 1385.94,709.595 1388.7,709.751 1391.45,709.906 1394.21,710.059 1396.96,710.209 1399.71,710.359 1402.47,710.506 1405.22,710.652 1407.98,710.796 1410.73,710.939 1413.49,711.08 1416.24,711.219 1419,711.357 1421.75,711.493 1424.5,711.627 1427.26,711.76 1430.01,711.891 1432.77,712.021 1435.52,712.149 1438.28,712.276 1441.03,712.401 1443.79,712.525 1446.54,712.647 1449.29,712.768 1452.05,712.887 1454.8,713.004 1457.56,713.121 1460.31,713.236 1463.07,713.349 1465.82,713.461 1468.58,713.571 1471.33,713.681 1474.08,713.788 1476.84,713.895 1479.59,714 1482.35,714.103 1485.1,714.206 1487.86,714.307 1490.61,714.407 1493.37,714.505 1496.12,714.602 1498.87,714.698 1501.63,714.793 1504.38,714.886 1507.14,714.978 1509.89,715.069 1512.65,715.158 1515.4,715.247 1518.16,715.334 1520.91,715.42 1523.66,715.505 1526.42,715.589 1529.17,715.671 1531.93,715.753 1534.68,715.833 1537.44,715.912 1540.19,715.99 1542.95,716.067 1545.7,716.143 1548.45,716.218 1551.21,716.291 1553.96,716.364 1556.72,716.435 1559.47,716.506 1562.23,716.575 1564.98,716.644 1567.74,716.711 1570.49,716.778 1573.24,716.843 1576,716.908 1578.75,716.971 1581.51,717.034 1584.26,717.096 1587.02,717.156 1589.77,717.216 1592.53,717.275 1595.28,717.333 1598.03,717.39 1600.79,717.446 1603.54,717.501 1606.3,717.556 1609.05,717.609 1611.81,717.662 1614.56,717.714 1617.32,717.765 1620.07,717.815 1622.82,717.864 1625.58,717.913 1628.33,717.96 1631.09,718.007 1633.84,718.054 1636.6,718.099 1639.35,718.144 1642.11,718.187 1644.86,718.231 1647.62,718.273 1650.37,718.315 1653.12,718.356 1655.88,718.396 1658.63,718.435 1661.39,718.474 1664.14,718.512 1666.9,718.55 1669.65,718.587 1672.41,718.623 1675.16,718.658 1677.91,718.693 1680.67,718.727 1683.42,718.761 1686.18,718.794 1688.93,718.826 1691.69,718.858 1694.44,718.889 1697.2,718.92 1699.95,718.95 1702.7,718.979 1705.46,719.008 1708.21,719.036 1710.97,719.064 1713.72,719.091 1716.48,719.118 1719.23,719.144 1721.99,719.169 1724.74,719.194 1727.49,719.219 1730.25,719.243 1733,719.266 1735.76,719.289 1738.51,719.312 1741.27,719.334 1744.02,719.356 1746.78,719.377 1749.53,719.398 1752.28,719.418 1755.04,719.438 1757.79,719.457 1760.55,719.476 1763.3,719.495 1766.06,719.513 1768.81,719.531 1771.57,719.548 1774.32,719.565 1777.07,719.581 1779.83,719.598 1782.58,719.613 1785.34,719.629 1788.09,719.644 1790.85,719.659 1793.6,719.673 1796.36,719.687 1799.11,719.701 1801.86,719.714 1804.62,719.727 1807.37,719.74 1810.13,719.752 1812.88,719.764 1815.64,719.776 1818.39,719.787 1821.15,719.798 1823.9,719.809 1826.65,719.82 1829.41,719.83 1832.16,719.84 1834.92,719.85 1837.67,719.859 1840.43,719.868 1843.18,719.877 1845.94,719.886 1848.69,719.894 1851.44,719.903 1854.2,719.91 1856.95,719.918 1859.71,719.926 1862.46,719.933 1865.22,719.94 1867.97,719.947 1870.73,719.954 1873.48,719.96 1876.23,719.966 1878.99,719.972 1881.74,719.978 1884.5,719.984 1887.25,719.989 1890.01,719.995 1892.76,720 1895.52,720.005 1898.27,720.01 1901.03,720.014 1903.78,720.019 1906.53,720.023 1909.29,720.027 1912.04,720.031 1914.8,720.035 1917.55,720.039 1920.31,720.043 1923.06,720.046 1925.82,720.05 1928.57,720.053 1931.32,720.056 1934.08,720.059 1936.83,720.062 1939.59,720.065 1942.34,720.067 1945.1,720.07 1947.85,720.072 1950.61,720.075 1953.36,720.077 1956.11,720.079 1958.87,720.081 1961.62,720.083 1964.38,720.085 1967.13,720.087 1969.89,720.088 1972.64,720.09 1975.4,720.092 1978.15,720.093 1980.9,720.095 1983.66,720.096 1986.41,720.097 1989.17,720.098 1991.92,720.099 1994.68,720.101 1997.43,720.102 2000.19,720.102 2002.94,720.103 2005.69,720.104 2008.45,720.105 2011.2,720.106 2013.96,720.106 2016.71,720.107 2019.47,720.108 2022.22,720.108 2024.98,720.109 2027.73,720.109 2030.48,720.11 2033.24,720.11 2035.99,720.11 2038.75,720.111 2041.5,720.111 2044.26,720.111 2047.01,720.112 2049.77,720.112 2052.52,720.112 2055.27,720.112 2058.03,720.112 2060.78,720.113 2063.54,720.113 2066.29,720.113 2069.05,720.113 2071.8,720.113 2074.56,720.113 2077.31,720.113 2080.06,720.113 2082.82,720.113 2085.57,720.113 2088.33,720.113 2091.08,720.113 2093.84,720.113 2096.59,720.113 2099.35,720.113 2102.1,720.113 2104.85,720.113 2107.61,720.113 2110.36,720.113 2113.12,720.113 2115.87,720.113 2118.63,720.113 2121.38,720.113 2124.14,720.112 2126.89,720.112 2129.64,720.112 2132.4,720.112 2135.15,720.112 2137.91,720.112 2140.66,720.112 2143.42,720.112 2146.17,720.112 2148.93,720.112 2151.68,720.112 2154.44,720.112 2157.19,720.112 2159.94,720.112 2162.7,720.112 2165.45,720.112 2168.21,720.112 2170.96,720.111 2173.72,720.111 2176.47,720.111 2179.23,720.111 2181.98,720.111 2184.73,720.111 2187.49,720.111 2190.24,720.111 2193,720.111 2195.75,720.111 2198.51,720.111 2201.26,720.111 2204.02,720.111 2206.77,720.111 2209.52,720.11 2212.28,720.11 2215.03,720.11 2217.79,720.11 2220.54,720.11 2223.3,720.11 2226.05,720.11 2228.81,720.109 2231.56,720.109 2234.31,720.109 2237.07,720.109 2239.82,720.109 2242.58,720.108 2245.33,720.108 2248.09,720.108 2250.84,720.107 2253.6,720.107 2256.35,720.107 2259.1,720.106 2261.86,720.106 2264.61,720.105 2267.37,720.105 2270.12,720.104 2272.88,720.104 2275.63,720.103 2278.39,720.103 2281.14,720.102 2283.89,720.101 2286.65,720.1 2289.4,720.1 2292.16,720.099 2294.91,720.098 2297.67,720.097 2300.42,720.096 2303.18,720.095 2305.93,720.094 2308.68,720.092 2311.44,720.091 2314.19,720.09 2316.95,720.088 2319.7,720.087 2322.46,720.085 2325.21,720.084 2327.97,720.082 2330.72,720.08 2333.47,720.079 2336.23,720.077 2338.98,720.075 2341.74,720.072 2344.49,720.07 2347.25,720.068 2350,720.066 2352.76,720.063 "/>
<polyline clip-path="url(#clip501)" style="stroke:#3da44d; stroke-linecap:round; stroke-linejoin:round; stroke-width:12; stroke-opacity:1; fill:none" points="149.191,-243.457 151.945,101.517 154.7,363.783 157.454,530.169 160.209,628.986 162.963,687.319 165.718,721.588 168.472,741.16 171.227,751.791 173.981,757.26 176.735,760.069 179.49,761.815 182.244,763.454 184.999,765.503 187.753,768.194 190.508,771.581 193.262,775.617 196.017,780.204 198.771,785.222 201.526,790.551 204.28,796.078 207.034,801.702 209.789,807.342 212.543,812.927 215.298,818.403 218.052,823.729 220.807,828.874 223.561,833.817 226.316,838.544 229.07,843.046 231.825,847.32 234.579,851.366 237.333,855.186 240.088,858.784 242.842,862.166 245.597,865.339 248.351,868.31 251.106,871.087 253.86,873.677 256.615,876.088 259.369,878.328 262.124,880.405 264.878,882.327 267.632,884.1 270.387,885.732 273.141,887.231 275.896,888.603 278.65,889.854 281.405,890.991 284.159,892.02 286.914,892.948 289.668,893.779 292.423,894.518 295.177,895.173 297.932,895.746 300.686,896.244 303.44,896.67 306.195,897.029 308.949,897.326 311.704,897.563 314.458,897.745 317.213,897.876 319.967,897.958 322.722,897.995 325.476,897.99 328.231,897.946 330.985,897.865 333.739,897.751 336.494,897.604 339.248,897.429 342.003,897.226 344.757,896.998 347.512,896.747 350.266,896.474 353.021,896.182 355.775,895.871 358.53,895.543 361.284,895.2 364.038,894.842 366.793,894.472 369.547,894.09 372.302,893.697 375.056,893.294 377.811,892.883 380.565,892.463 383.32,892.036 386.074,891.603 388.829,891.164 391.583,890.72 394.337,890.272 397.092,889.819 399.846,889.364 402.601,888.905 405.355,888.444 408.11,887.981 410.864,887.516 413.619,887.05 416.373,886.583 419.128,886.116 421.882,885.648 424.636,885.181 427.391,884.713 430.145,884.246 432.9,883.78 435.654,883.314 438.409,882.85 441.163,882.387 443.918,881.925 446.672,881.465 449.427,881.007 452.181,880.55 454.936,880.095 457.69,879.642 460.444,879.192 463.199,878.743 465.953,878.297 468.708,877.853 471.462,877.412 474.217,876.972 476.971,876.536 479.726,876.102 482.48,875.67 485.235,875.241 487.989,874.815 490.743,874.392 493.498,873.971 496.252,873.552 499.007,873.137 501.761,872.724 504.516,872.314 507.27,871.907 510.025,871.502 512.779,871.1 515.534,870.701 518.288,870.305 521.042,869.911 523.797,869.52 526.551,869.132 529.306,868.747 532.06,868.364 534.815,867.984 537.569,867.606 540.324,867.232 543.078,866.859 545.833,866.49 548.587,866.123 551.341,865.758 554.096,865.397 556.85,865.037 559.605,864.681 562.359,864.326 565.114,863.974 567.868,863.625 570.623,863.278 573.377,862.933 576.132,862.591 578.886,862.251 581.641,861.913 584.395,861.578 587.149,861.245 589.904,860.914 592.658,860.585 595.413,860.259 598.167,859.935 600.922,859.613 603.676,859.293 606.431,858.975 609.185,858.659 611.94,858.345 614.694,858.033 617.448,857.723 620.203,857.415 622.957,857.109 625.712,856.805 628.466,856.503 631.221,856.203 633.975,855.904 636.73,855.607 639.484,855.312 642.239,855.019 644.993,854.728 647.747,854.438 650.502,854.149 653.256,853.863 656.011,853.578 658.765,853.295 661.52,853.013 664.274,852.733 667.029,852.454 669.783,852.177 672.538,851.901 675.292,851.626 678.046,851.354 680.801,851.082 683.555,850.812 686.31,850.543 689.064,850.276 691.819,850.01 694.573,849.745 697.328,849.481 700.082,849.219 702.837,848.958 705.591,848.698 708.345,848.439 711.1,848.181 713.854,847.925 716.609,847.67 719.363,847.415 722.118,847.162 724.872,846.91 727.627,846.659 730.381,846.409 733.136,846.16 735.89,845.912 738.645,845.665 741.399,845.419 744.153,845.173 746.908,844.929 749.662,844.685 752.417,844.443 755.171,844.201 757.926,843.96 760.68,843.72 763.435,843.481 766.189,843.242 768.944,843.005 771.698,842.768 774.452,842.531 777.207,842.296 779.961,842.061 782.716,841.827 785.47,841.594 788.225,841.361 790.979,841.129 793.734,840.897 796.488,840.667 799.243,840.436 801.997,840.207 804.751,839.978 807.506,839.749 810.26,839.521 813.015,839.294 815.769,839.067 818.524,838.841 821.278,838.615 824.033,838.389 826.787,838.165 829.542,837.94 832.296,837.716 835.05,837.493 837.805,837.269 840.559,837.047 843.314,836.825 846.068,836.603 848.823,836.381 851.577,836.16 854.332,835.939 857.086,835.719 859.841,835.499 862.595,835.28 865.349,835.06 868.104,834.841 870.858,834.623 873.613,834.404 876.367,834.186 879.122,833.968 881.876,833.751 884.631,833.533 887.385,833.316 890.14,833.1 892.894,832.883 895.649,832.667 898.403,832.451 901.157,832.235 903.912,832.019 906.666,831.804 909.421,831.589 912.175,831.374 914.93,831.159 917.684,830.944 920.439,830.73 923.193,830.515 925.948,830.301 928.702,830.087 931.456,829.873 934.211,829.659 936.965,829.446 939.72,829.232 942.474,829.019 945.229,828.805 947.983,828.592 950.738,828.379 953.492,828.166 956.247,827.954 959.001,827.741 961.755,827.528 964.51,827.315 967.264,827.103 970.019,826.89 972.773,826.678 975.528,826.466 978.282,826.253 981.037,826.041 983.791,825.829 986.546,825.617 989.3,825.405 992.054,825.192 994.809,824.98 997.563,824.768 1000.32,824.556 1003.07,824.344 1005.83,824.132 1008.58,823.92 1011.34,823.708 1014.09,823.496 1016.84,823.284 1019.6,823.072 1022.35,822.861 1025.11,822.648 1027.86,822.436 1030.62,822.224 1033.37,822.012 1036.13,821.8 1038.88,821.588 1041.63,821.376 1044.39,821.164 1047.14,820.952 1049.9,820.74 1052.65,820.528 1055.41,820.315 1058.16,820.103 1060.92,819.891 1063.67,819.678 1066.42,819.466 1069.18,819.253 1071.93,819.041 1074.69,818.828 1077.44,818.616 1080.2,818.403 1082.95,818.19 1085.71,817.978 1088.46,817.765 1091.21,817.552 1093.97,817.339 1096.72,817.126 1099.48,816.913 1102.23,816.699 1104.99,816.486 1107.74,816.273 1110.5,816.06 1113.25,815.846 1116.01,815.633 1118.76,815.419 1121.51,815.205 1124.27,814.992 1127.02,814.778 1129.78,814.564 1132.53,814.35 1135.29,814.136 1138.04,813.922 1140.8,813.707 1143.55,813.493 1146.3,813.279 1149.06,813.064 1151.81,812.85 1154.57,812.635 1157.32,812.421 1160.08,812.206 1162.83,811.991 1165.59,811.776 1168.34,811.561 1171.09,811.346 1173.85,811.13 1176.6,810.915 1179.36,810.7 1182.11,810.484 1184.87,810.269 1187.62,810.053 1190.38,809.837 1193.13,809.622 1195.88,809.406 1198.64,809.19 1201.39,808.974 1204.15,808.757 1206.9,808.541 1209.66,808.325 1212.41,808.109 1215.17,807.892 1217.92,807.675 1220.67,807.459 1223.43,807.242 1226.18,807.025 1228.94,806.808 1231.69,806.591 1234.45,806.374 1237.2,806.157 1239.96,805.94 1242.71,805.722 1245.46,805.505 1248.22,805.287 1250.97,805.07 1253.73,804.852 1256.48,804.634 1259.24,804.416 1261.99,804.198 1264.75,803.98 1267.5,803.762 1270.25,803.544 1273.01,803.326 1275.76,803.107 1278.52,802.889 1281.27,802.671 1284.03,802.452 1286.78,802.234 1289.54,802.015 1292.29,801.796 1295.04,801.577 1297.8,801.358 1300.55,801.139 1303.31,800.92 1306.06,800.701 1308.82,800.482 1311.57,800.263 1314.33,800.043 1317.08,799.824 1319.83,799.604 1322.59,799.385 1325.34,799.165 1328.1,798.946 1330.85,798.726 1333.61,798.506 1336.36,798.286 1339.12,798.066 1341.87,797.846 1344.62,797.626 1347.38,797.406 1350.13,797.186 1352.89,796.966 1355.64,796.746 1358.4,796.526 1361.15,796.305 1363.91,796.085 1366.66,795.864 1369.41,795.644 1372.17,795.423 1374.92,795.203 1377.68,794.982 1380.43,794.761 1383.19,794.541 1385.94,794.32 1388.7,794.099 1391.45,793.878 1394.21,793.657 1396.96,793.436 1399.71,793.215 1402.47,792.994 1405.22,792.773 1407.98,792.552 1410.73,792.331 1413.49,792.11 1416.24,791.888 1419,791.667 1421.75,791.446 1424.5,791.225 1427.26,791.003 1430.01,790.782 1432.77,790.56 1435.52,790.339 1438.28,790.118 1441.03,789.896 1443.79,789.675 1446.54,789.453 1449.29,789.232 1452.05,789.01 1454.8,788.789 1457.56,788.567 1460.31,788.345 1463.07,788.124 1465.82,787.902 1468.58,787.681 1471.33,787.459 1474.08,787.237 1476.84,787.016 1479.59,786.794 1482.35,786.572 1485.1,786.351 1487.86,786.129 1490.61,785.907 1493.37,785.685 1496.12,785.464 1498.87,785.242 1501.63,785.02 1504.38,784.799 1507.14,784.577 1509.89,784.355 1512.65,784.133 1515.4,783.912 1518.16,783.69 1520.91,783.468 1523.66,783.247 1526.42,783.025 1529.17,782.803 1531.93,782.582 1534.68,782.36 1537.44,782.138 1540.19,781.917 1542.95,781.695 1545.7,781.474 1548.45,781.252 1551.21,781.031 1553.96,780.809 1556.72,780.588 1559.47,780.366 1562.23,780.145 1564.98,779.923 1567.74,779.702 1570.49,779.48 1573.24,779.259 1576,779.038 1578.75,778.816 1581.51,778.595 1584.26,778.374 1587.02,778.153 1589.77,777.932 1592.53,777.71 1595.28,777.489 1598.03,777.268 1600.79,777.047 1603.54,776.826 1606.3,776.605 1609.05,776.384 1611.81,776.163 1614.56,775.943 1617.32,775.722 1620.07,775.501 1622.82,775.28 1625.58,775.06 1628.33,774.839 1631.09,774.619 1633.84,774.398 1636.6,774.178 1639.35,773.957 1642.11,773.737 1644.86,773.516 1647.62,773.296 1650.37,773.076 1653.12,772.856 1655.88,772.636 1658.63,772.416 1661.39,772.196 1664.14,771.976 1666.9,771.756 1669.65,771.536 1672.41,771.316 1675.16,771.097 1677.91,770.877 1680.67,770.657 1683.42,770.438 1686.18,770.218 1688.93,769.999 1691.69,769.78 1694.44,769.56 1697.2,769.341 1699.95,769.122 1702.7,768.903 1705.46,768.684 1708.21,768.465 1710.97,768.246 1713.72,768.028 1716.48,767.809 1719.23,767.59 1721.99,767.372 1724.74,767.153 1727.49,766.935 1730.25,766.717 1733,766.499 1735.76,766.28 1738.51,766.062 1741.27,765.844 1744.02,765.626 1746.78,765.409 1749.53,765.191 1752.28,764.973 1755.04,764.756 1757.79,764.538 1760.55,764.321 1763.3,764.103 1766.06,763.886 1768.81,763.669 1771.57,763.452 1774.32,763.235 1777.07,763.018 1779.83,762.801 1782.58,762.585 1785.34,762.368 1788.09,762.152 1790.85,761.935 1793.6,761.719 1796.36,761.503 1799.11,761.286 1801.86,761.07 1804.62,760.855 1807.37,760.639 1810.13,760.423 1812.88,760.207 1815.64,759.992 1818.39,759.776 1821.15,759.561 1823.9,759.346 1826.65,759.13 1829.41,758.915 1832.16,758.7 1834.92,758.485 1837.67,758.271 1840.43,758.056 1843.18,757.842 1845.94,757.627 1848.69,757.413 1851.44,757.199 1854.2,756.984 1856.95,756.77 1859.71,756.556 1862.46,756.343 1865.22,756.129 1867.97,755.915 1870.73,755.702 1873.48,755.488 1876.23,755.275 1878.99,755.062 1881.74,754.849 1884.5,754.636 1887.25,754.423 1890.01,754.211 1892.76,753.998 1895.52,753.785 1898.27,753.573 1901.03,753.361 1903.78,753.149 1906.53,752.937 1909.29,752.725 1912.04,752.513 1914.8,752.301 1917.55,752.09 1920.31,751.878 1923.06,751.667 1925.82,751.456 1928.57,751.245 1931.32,751.034 1934.08,750.823 1936.83,750.612 1939.59,750.401 1942.34,750.191 1945.1,749.98 1947.85,749.77 1950.61,749.56 1953.36,749.35 1956.11,749.14 1958.87,748.93 1961.62,748.721 1964.38,748.511 1967.13,748.302 1969.89,748.092 1972.64,747.883 1975.4,747.674 1978.15,747.465 1980.9,747.256 1983.66,747.048 1986.41,746.839 1989.17,746.631 1991.92,746.423 1994.68,746.214 1997.43,746.006 2000.19,745.798 2002.94,745.591 2005.69,745.383 2008.45,745.175 2011.2,744.968 2013.96,744.761 2016.71,744.554 2019.47,744.347 2022.22,744.14 2024.98,743.933 2027.73,743.726 2030.48,743.52 2033.24,743.313 2035.99,743.107 2038.75,742.901 2041.5,742.695 2044.26,742.489 2047.01,742.283 2049.77,742.078 2052.52,741.872 2055.27,741.667 2058.03,741.462 2060.78,741.256 2063.54,741.052 2066.29,740.847 2069.05,740.642 2071.8,740.437 2074.56,740.233 2077.31,740.029 2080.06,739.824 2082.82,739.621 2085.57,739.417 2088.33,739.213 2091.08,739.009 2093.84,738.806 2096.59,738.602 2099.35,738.399 2102.1,738.196 2104.85,737.993 2107.61,737.79 2110.36,737.587 2113.12,737.385 2115.87,737.182 2118.63,736.98 2121.38,736.778 2124.14,736.576 2126.89,736.374 2129.64,736.172 2132.4,735.97 2135.15,735.769 2137.91,735.567 2140.66,735.366 2143.42,735.165 2146.17,734.964 2148.93,734.763 2151.68,734.562 2154.44,734.362 2157.19,734.161 2159.94,733.961 2162.7,733.761 2165.45,733.561 2168.21,733.361 2170.96,733.161 2173.72,732.961 2176.47,732.762 2179.23,732.563 2181.98,732.363 2184.73,732.164 2187.49,731.965 2190.24,731.766 2193,731.568 2195.75,731.369 2198.51,731.171 2201.26,730.972 2204.02,730.774 2206.77,730.576 2209.52,730.378 2212.28,730.18 2215.03,729.983 2217.79,729.785 2220.54,729.588 2223.3,729.391 2226.05,729.194 2228.81,728.997 2231.56,728.8 2234.31,728.603 2237.07,728.407 2239.82,728.21 2242.58,728.014 2245.33,727.818 2248.09,727.622 2250.84,727.426 2253.6,727.23 2256.35,727.034 2259.1,726.839 2261.86,726.643 2264.61,726.448 2267.37,726.253 2270.12,726.058 2272.88,725.863 2275.63,725.669 2278.39,725.474 2281.14,725.28 2283.89,725.085 2286.65,724.891 2289.4,724.697 2292.16,724.503 2294.91,724.31 2297.67,724.116 2300.42,723.922 2303.18,723.729 2305.93,723.536 2308.68,723.343 2311.44,723.15 2314.19,722.957 2316.95,722.764 2319.7,722.571 2322.46,722.379 2325.21,722.187 2327.97,721.995 2330.72,721.802 2333.47,721.611 2336.23,721.419 2338.98,721.227 2341.74,721.036 2344.49,720.844 2347.25,720.653 2350,720.462 2352.76,720.271 "/>
<path clip-path="url(#clip500)" d="M1969.85 1377.32 L2279.3 1377.32 L2279.3 1169.96 L1969.85 1169.96  Z" fill="#ffffff" fill-rule="evenodd" fill-opacity="1"/>
<polyline clip-path="url(#clip500)" style="stroke:#000000; stroke-linecap:round; stroke-linejoin:round; stroke-width:4; stroke-opacity:1; fill:none" points="1969.85,1377.32 2279.3,1377.32 2279.3,1169.96 1969.85,1169.96 1969.85,1377.32 "/>
<polyline clip-path="url(#clip500)" style="stroke:#009af9; stroke-linecap:round; stroke-linejoin:round; stroke-width:12; stroke-opacity:1; fill:none" points="1994.33,1221.8 2141.24,1221.8 "/>
<path clip-path="url(#clip500)" d="M2165.72 1228.84 L2165.72 1213.15 L2169.98 1213.15 L2169.98 1228.68 Q2169.98 1232.36 2171.42 1234.21 Q2172.85 1236.04 2175.72 1236.04 Q2179.17 1236.04 2181.16 1233.84 Q2183.18 1231.64 2183.18 1227.85 L2183.18 1213.15 L2187.44 1213.15 L2187.44 1239.08 L2183.18 1239.08 L2183.18 1235.09 Q2181.63 1237.45 2179.57 1238.61 Q2177.53 1239.75 2174.82 1239.75 Q2170.35 1239.75 2168.04 1236.97 Q2165.72 1234.19 2165.72 1228.84 M2176.44 1212.52 L2176.44 1212.52 Z" fill="#000000" fill-rule="nonzero" fill-opacity="1" /><path clip-path="url(#clip500)" d="M2195.82 1203.06 L2205.63 1203.06 L2205.63 1206.37 L2200.07 1206.37 L2200.07 1242.02 L2205.63 1242.02 L2205.63 1245.33 L2195.82 1245.33 L2195.82 1203.06 Z" fill="#000000" fill-rule="nonzero" fill-opacity="1" /><path clip-path="url(#clip500)" d="M2216.12 1235.14 L2223.76 1235.14 L2223.76 1208.77 L2215.44 1210.44 L2215.44 1206.18 L2223.71 1204.52 L2228.38 1204.52 L2228.38 1235.14 L2236.02 1235.14 L2236.02 1239.08 L2216.12 1239.08 L2216.12 1235.14 Z" fill="#000000" fill-rule="nonzero" fill-opacity="1" /><path clip-path="url(#clip500)" d="M2254.82 1203.06 L2254.82 1245.33 L2245 1245.33 L2245 1242.02 L2250.54 1242.02 L2250.54 1206.37 L2245 1206.37 L2245 1203.06 L2254.82 1203.06 Z" fill="#000000" fill-rule="nonzero" fill-opacity="1" /><polyline clip-path="url(#clip500)" style="stroke:#e26f46; stroke-linecap:round; stroke-linejoin:round; stroke-width:12; stroke-opacity:1; fill:none" points="1994.33,1273.64 2141.24,1273.64 "/>
<path clip-path="url(#clip500)" d="M2165.72 1280.68 L2165.72 1264.99 L2169.98 1264.99 L2169.98 1280.52 Q2169.98 1284.2 2171.42 1286.05 Q2172.85 1287.88 2175.72 1287.88 Q2179.17 1287.88 2181.16 1285.68 Q2183.18 1283.48 2183.18 1279.69 L2183.18 1264.99 L2187.44 1264.99 L2187.44 1290.92 L2183.18 1290.92 L2183.18 1286.93 Q2181.63 1289.29 2179.57 1290.45 Q2177.53 1291.59 2174.82 1291.59 Q2170.35 1291.59 2168.04 1288.81 Q2165.72 1286.03 2165.72 1280.68 M2176.44 1264.36 L2176.44 1264.36 Z" fill="#000000" fill-rule="nonzero" fill-opacity="1" /><path clip-path="url(#clip500)" d="M2195.82 1254.9 L2205.63 1254.9 L2205.63 1258.21 L2200.07 1258.21 L2200.07 1293.86 L2205.63 1293.86 L2205.63 1297.17 L2195.82 1297.17 L2195.82 1254.9 Z" fill="#000000" fill-rule="nonzero" fill-opacity="1" /><path clip-path="url(#clip500)" d="M2219.33 1286.98 L2235.65 1286.98 L2235.65 1290.92 L2213.71 1290.92 L2213.71 1286.98 Q2216.37 1284.23 2220.95 1279.6 Q2225.56 1274.94 2226.74 1273.6 Q2228.99 1271.08 2229.87 1269.34 Q2230.77 1267.58 2230.77 1265.89 Q2230.77 1263.14 2228.82 1261.4 Q2226.9 1259.67 2223.8 1259.67 Q2221.6 1259.67 2219.15 1260.43 Q2216.72 1261.19 2213.94 1262.74 L2213.94 1258.02 Q2216.76 1256.89 2219.22 1256.31 Q2221.67 1255.73 2223.71 1255.73 Q2229.08 1255.73 2232.27 1258.42 Q2235.47 1261.1 2235.47 1265.59 Q2235.47 1267.72 2234.66 1269.64 Q2233.87 1271.54 2231.76 1274.13 Q2231.19 1274.8 2228.08 1278.02 Q2224.98 1281.22 2219.33 1286.98 Z" fill="#000000" fill-rule="nonzero" fill-opacity="1" /><path clip-path="url(#clip500)" d="M2254.82 1254.9 L2254.82 1297.17 L2245 1297.17 L2245 1293.86 L2250.54 1293.86 L2250.54 1258.21 L2245 1258.21 L2245 1254.9 L2254.82 1254.9 Z" fill="#000000" fill-rule="nonzero" fill-opacity="1" /><polyline clip-path="url(#clip500)" style="stroke:#3da44d; stroke-linecap:round; stroke-linejoin:round; stroke-width:12; stroke-opacity:1; fill:none" points="1994.33,1325.48 2141.24,1325.48 "/>
<path clip-path="url(#clip500)" d="M2165.72 1332.52 L2165.72 1316.83 L2169.98 1316.83 L2169.98 1332.36 Q2169.98 1336.04 2171.42 1337.89 Q2172.85 1339.72 2175.72 1339.72 Q2179.17 1339.72 2181.16 1337.52 Q2183.18 1335.32 2183.18 1331.53 L2183.18 1316.83 L2187.44 1316.83 L2187.44 1342.76 L2183.18 1342.76 L2183.18 1338.77 Q2181.63 1341.13 2179.57 1342.29 Q2177.53 1343.43 2174.82 1343.43 Q2170.35 1343.43 2168.04 1340.65 Q2165.72 1337.87 2165.72 1332.52 M2176.44 1316.2 L2176.44 1316.2 Z" fill="#000000" fill-rule="nonzero" fill-opacity="1" /><path clip-path="url(#clip500)" d="M2206.44 1306.78 Q2203.34 1312.11 2201.83 1317.32 Q2200.33 1322.52 2200.33 1327.87 Q2200.33 1333.22 2201.83 1338.47 Q2203.36 1343.7 2206.44 1349.01 L2202.74 1349.01 Q2199.26 1343.57 2197.53 1338.31 Q2195.82 1333.06 2195.82 1327.87 Q2195.82 1322.71 2197.53 1317.48 Q2199.24 1312.25 2202.74 1306.78 L2206.44 1306.78 Z" fill="#000000" fill-rule="nonzero" fill-opacity="1" /><path clip-path="url(#clip500)" d="M2218.92 1309.47 L2218.92 1316.83 L2227.69 1316.83 L2227.69 1320.14 L2218.92 1320.14 L2218.92 1334.21 Q2218.92 1337.38 2219.77 1338.29 Q2220.65 1339.19 2223.32 1339.19 L2227.69 1339.19 L2227.69 1342.76 L2223.32 1342.76 Q2218.38 1342.76 2216.51 1340.93 Q2214.63 1339.07 2214.63 1334.21 L2214.63 1320.14 L2211.51 1320.14 L2211.51 1316.83 L2214.63 1316.83 L2214.63 1309.47 L2218.92 1309.47 Z" fill="#000000" fill-rule="nonzero" fill-opacity="1" /><path clip-path="url(#clip500)" d="M2232.62 1306.78 L2236.32 1306.78 Q2239.8 1312.25 2241.51 1317.48 Q2243.25 1322.71 2243.25 1327.87 Q2243.25 1333.06 2241.51 1338.31 Q2239.8 1343.57 2236.32 1349.01 L2232.62 1349.01 Q2235.7 1343.7 2237.2 1338.47 Q2238.73 1333.22 2238.73 1327.87 Q2238.73 1322.52 2237.2 1317.32 Q2235.7 1312.11 2232.62 1306.78 Z" fill="#000000" fill-rule="nonzero" fill-opacity="1" /></svg>
